<svg width="72" height="72" viewBox="0 0 72 72" fill="none" xmlns="http://www.w3.org/2000/svg">
<path d="M60.3871 39.4838H34.8387V27.8708H60.3871V39.4838Z" fill="#FFD205"/>
<path d="M17.4193 0C11.0158 0 5.80643 5.20936 5.80643 11.6129V19.7419H6.96772C6.96772 17.8174 8.52707 16.2581 10.4516 16.2581V13.9355C12.7231 13.9355 14.9448 13.263 16.8341 12.003L17.4193 11.6129L18.0045 12.003C19.8939 13.263 22.1155 13.9355 24.3871 13.9355V16.2581C26.3116 16.2581 27.8709 17.8174 27.8709 19.7419H29.0322V11.6129C29.0322 5.20936 23.8229 0 17.4193 0Z" fill="#FFD205"/>
<path d="M61.5484 23.2257H33.6774C31.7569 23.2257 30.1935 24.7891 30.1935 26.7096V30.3721C29.8221 30.1935 29.4422 30.0319 29.0464 29.9134L23.2258 28.168V26.582C23.8598 25.9339 24.3814 25.1781 24.7715 24.3485C27.1508 24.1489 29.0323 22.1711 29.0323 19.7419C29.0323 17.5843 27.5461 15.7806 25.5484 15.2617V12.7741H24.3871C22.3373 12.7741 20.3538 12.1725 18.6493 11.0367L17.4194 10.2168L16.1895 11.0367C14.4849 12.1725 12.5014 12.7741 10.4516 12.7741H9.29032V15.2617C7.29265 15.7806 5.80645 17.5843 5.80645 19.7419C5.80645 22.1711 7.68788 24.1489 10.0672 24.3473C10.4573 25.1769 10.979 25.9328 11.6129 26.5809V28.1669L5.79341 29.9134C2.32825 30.9527 0 34.0828 0 37.6999V48.7741H30.1935V68.5161C30.1935 70.4366 31.7569 71.9999 33.6774 71.9999H61.5484C63.4689 71.9999 65.0323 70.4366 65.0323 68.5161V26.7096C65.0323 24.7891 63.4689 23.2257 61.5484 23.2257ZM17.4194 29.0322C18.668 29.0322 19.8451 28.7419 20.9032 28.2366V28.6245L17.4194 32.9793L13.9355 28.6245V28.2366C14.9936 28.7419 16.1707 29.0322 17.4194 29.0322ZM16.3102 35.3116L12.2111 37.7719L9.73034 31.1574L12.3574 30.3698L16.3102 35.3116ZM22.4813 30.3698L25.1084 31.1574L22.6287 37.7708L18.5296 35.3099L22.4813 30.3698ZM26.7097 19.7419C26.7097 20.6174 26.2175 21.371 25.5008 21.7673C25.5308 21.4827 25.5484 21.1946 25.5484 20.9032V17.7419C26.2396 18.1451 26.7097 18.8862 26.7097 19.7419ZM11.6129 15.0445C13.6837 14.8552 15.6706 14.1605 17.4194 13.0089C19.1681 14.1605 21.155 14.8552 23.2258 15.0445V20.9032C23.2258 24.1047 20.6208 26.7096 17.4194 26.7096C14.2179 26.7096 11.6129 24.1047 11.6129 20.9032V15.0445ZM8.12903 19.7419C8.12903 18.8862 8.5991 18.1451 9.29032 17.7419V20.9032C9.29032 21.1946 9.3079 21.4827 9.33795 21.7673C8.62122 21.371 8.12903 20.6174 8.12903 19.7419ZM27.871 46.4516V40.6451H25.5484V46.4516H9.29032V40.6451H6.96774V46.4516H2.32258V37.6999C2.32258 35.1159 3.9857 32.8818 6.46024 32.1384L7.50076 31.826L11.0147 41.1957L17.4194 37.354L23.824 41.1957L27.338 31.826L28.3785 32.1384C29.0277 32.3323 29.635 32.6533 30.1935 33.0814V46.4516H27.871ZM62.7097 68.5161C62.7097 69.1568 62.188 69.6774 61.5484 69.6774H33.6774C33.0378 69.6774 32.5161 69.1568 32.5161 68.5161V26.7096C32.5161 26.07 33.0378 25.5483 33.6774 25.5483H61.5484C62.188 25.5483 62.7097 26.07 62.7097 26.7096V68.5161Z" fill="#465861"/>
<path d="M53.4194 67.3547H60.3871V51.0967H53.4194V67.3547ZM55.742 53.4193H58.0645V65.0322H55.742V53.4193Z" fill="#465861"/>
<path d="M44.129 67.3549H51.0968V60.3872H44.129V67.3549ZM46.4516 62.7098H48.7742V65.0324H46.4516V62.7098Z" fill="#465861"/>
<path d="M44.129 58.0644H51.0968V51.0967H44.129V58.0644ZM46.4516 53.4193H48.7742V55.7419H46.4516V53.4193Z" fill="#465861"/>
<path d="M34.8387 67.3549H41.8065V60.3872H34.8387V67.3549ZM37.1613 62.7098H39.4839V65.0324H37.1613V62.7098Z" fill="#465861"/>
<path d="M34.8387 58.0644H41.8065V51.0967H34.8387V58.0644ZM37.1613 53.4193H39.4839V55.7419H37.1613V53.4193Z" fill="#465861"/>
<path d="M44.129 48.7741H51.0968V41.8064H44.129V48.7741ZM46.4516 44.129H48.7742V46.4516H46.4516V44.129Z" fill="#465861"/>
<path d="M53.4194 48.7741H60.3871V41.8064H53.4194V48.7741ZM55.742 44.129H58.0645V46.4516H55.742V44.129Z" fill="#465861"/>
<path d="M34.8387 48.7741H41.8065V41.8064H34.8387V48.7741ZM37.1613 44.129H39.4839V46.4516H37.1613V44.129Z" fill="#465861"/>
<path d="M70.3199 10.0547L64.1448 6.96777H31.3548V9.29035H37.1613V16.2581H31.3548V18.5807H64.1448L70.3182 15.4937C71.3553 14.976 72 13.9344 72 12.7742C72 11.6141 71.3553 10.5724 70.3199 10.0547ZM44.129 9.29035H62.7097V11.6129H44.129V9.29035ZM44.129 13.9355H62.7097V16.2581H44.129V13.9355ZM39.4839 9.29035H41.8064V16.2581H39.4839V9.29035ZM69.2805 13.4167L65.0323 15.5402V10.0082L69.2816 12.1318C69.5255 12.2554 69.6774 12.5003 69.6774 12.7742C69.6774 13.0481 69.5255 13.2931 69.2805 13.4167Z" fill="#465861"/>
</svg>
