<svg width="72" height="72" viewBox="0 0 72 72" fill="none" xmlns="http://www.w3.org/2000/svg">
<g clip-path="url(#clip0)">
<path d="M41.7738 70.7006L39.5138 58.1714L41.6526 53.895L35.9998 49.9141L30.347 53.895L32.4857 58.1714L30.2257 70.7006H41.7738Z" fill="#FFD200"/>
<path d="M35.9998 0.257324C26.4484 0.257324 18.6777 8.02803 18.6777 17.5795V26.8179H19.8325C19.8325 24.267 21.9008 22.1987 24.4517 22.1987V19.8891L29.071 17.5795L29.6534 17.9674C31.5322 19.2209 33.7409 19.8891 35.9998 19.8891C38.2587 19.8891 40.4679 19.2209 42.3467 17.9674L42.9287 17.5795L47.5479 19.8891V22.1987C50.0988 22.1987 52.1671 24.267 52.1671 26.8179H53.3219V17.5795C53.3219 8.02803 45.5512 0.257324 35.9998 0.257324Z" fill="#FFD200"/>
<path d="M54.082 45.0569L44.0835 43.1821V40.074C46.3609 38.1907 47.9618 35.5253 48.4974 32.4961C51.2283 32.04 53.3219 29.6762 53.3219 26.818C53.3219 24.0302 51.3349 21.698 48.7027 21.1606V19.1758L42.8458 16.2471L41.7062 17.0072C38.3145 19.2666 33.6845 19.2666 30.2929 17.0072L29.1533 16.2471L23.2969 19.1758V21.1606C20.6653 21.698 18.6777 24.0291 18.6777 26.818C18.6777 29.6762 20.7713 32.04 23.5027 32.4961C24.0384 35.5241 25.6381 38.1896 27.9161 40.074V43.1821L17.917 45.0569C13.0046 45.9789 9.43921 50.2744 9.43921 55.2726V71.8555H62.5604V55.2726C62.5604 50.2744 58.9956 45.9789 54.082 45.0569ZM47.4143 61.6116L44.4381 69.5459H43.0894L44.3479 59.8963L45.9222 59.3719L47.4143 61.6116ZM28.749 45.3761L34.112 49.8448L29.1347 53.4006L28.1033 45.4973L28.749 45.3761ZM43.2512 45.3761L43.8979 45.4973L42.8666 53.4006L37.8893 49.8448L43.2512 45.3761ZM27.3207 57.3527L23.1283 55.9549L21.0961 46.8111L25.8298 45.9247L27.3207 57.3527ZM26.0791 59.3719L27.6528 59.8963L28.9108 69.5459H27.562L24.5859 61.6116L26.0791 59.3719ZM29.473 55.9955L35.9998 51.3334L42.5272 55.9955L40.76 69.5459H31.2396L29.473 55.9955ZM44.6795 57.3527L46.1704 45.9231L50.9041 46.81L48.8713 55.9538L44.6795 57.3527ZM51.0123 26.818C51.0123 28.3218 50.0436 29.5922 48.7027 30.0704V23.5672C50.0436 24.0443 51.0123 25.3147 51.0123 26.818ZM20.9873 26.818C20.9873 25.3147 21.9566 24.0443 23.2969 23.5661V30.0687C21.9566 29.5922 20.9873 28.3218 20.9873 26.818ZM25.6065 30.2824V20.603L28.9881 18.9125L29.0123 18.9283C33.1652 21.6963 38.8349 21.6963 42.9879 18.9283L43.0121 18.9125L46.3931 20.603V30.2824C46.3931 36.013 41.7304 40.6757 35.9998 40.6757C30.2697 40.6757 25.6065 36.013 25.6065 30.2824ZM35.9998 42.9853C38.0799 42.9853 40.0394 42.4727 41.7738 41.5835V43.5999L35.9998 48.412L30.2258 43.5999V41.5835C31.9602 42.4727 33.9202 42.9853 35.9998 42.9853ZM11.7488 55.2726C11.7488 51.3858 14.5219 48.0438 18.3427 47.3265L18.8243 47.2363L21.1559 57.7322L23.8067 58.6158L22.0073 61.3145L25.0951 69.5459H11.7488V55.2726ZM60.2508 69.5459H46.9051L49.9917 61.3134L48.1924 58.6147L50.8426 57.7311L53.1742 47.2352L53.6557 47.3254C57.4782 48.0438 60.2508 51.3841 60.2508 55.2726V69.5459Z" fill="#465861"/>
<path d="M35.9998 37.2113C38.5473 37.2113 40.619 35.1396 40.619 32.592H38.3094C38.3094 33.8658 37.2736 34.9017 35.9998 34.9017C34.726 34.9017 33.6902 33.8658 33.6902 32.592H31.3806C31.3806 35.1396 33.4522 37.2113 35.9998 37.2113Z" fill="#465861"/>
<path d="M42.9286 24.5083C42.9286 25.1461 42.4116 25.6631 41.7738 25.6631C41.1361 25.6631 40.619 25.1461 40.619 24.5083C40.619 23.8706 41.1361 23.3535 41.7738 23.3535C42.4116 23.3535 42.9286 23.8706 42.9286 24.5083Z" fill="#465861"/>
<path d="M31.3806 24.5083C31.3806 25.1461 30.8635 25.6631 30.2258 25.6631C29.588 25.6631 29.071 25.1461 29.071 24.5083C29.071 23.8706 29.588 23.3535 30.2258 23.3535C30.8635 23.3535 31.3806 23.8706 31.3806 24.5083Z" fill="#465861"/>
<path d="M57.9412 41.8303H60.2508V44.1399H57.9412V41.8303Z" fill="#465861"/>
<path d="M62.5604 0.79248L53.1212 11.8055H57.9412V39.5209H60.2508V9.49583H58.1425L62.5604 4.34205L66.9789 9.49583H64.87V67.2363H67.1796V11.8055H72.0002L62.5604 0.79248Z" fill="#465861"/>
<path d="M64.87 69.5459H67.1796V71.8555H64.87V69.5459Z" fill="#465861"/>
<path d="M11.7488 41.8303H14.0584V44.1399H11.7488V41.8303Z" fill="#465861"/>
<path d="M9.43921 4.34205L13.8577 9.49583H11.7488V39.5209H14.0584V11.8055H18.879L9.43921 0.79248L0 11.8055H4.81997V67.2363H7.12959V9.49583H5.02127L9.43921 4.34205Z" fill="#465861"/>
<path d="M4.81998 69.5459H7.12959V71.8555H4.81998V69.5459Z" fill="#465861"/>
</g>
<defs>
<clipPath id="clip0">
<rect width="72" height="72" fill="white"/>
</clipPath>
</defs>
</svg>
