<svg width="72" height="70" viewBox="0 0 72 70" fill="none" xmlns="http://www.w3.org/2000/svg">
<path d="M9.29034 16.5806H16.2581V21.2257H9.29034V16.5806Z" fill="#FFD205"/>
<path d="M9.29034 23.5483H16.2581V28.1935H9.29034V23.5483Z" fill="#FFD205"/>
<path d="M9.29034 30.5161H16.2581V35.1613H9.29034V30.5161Z" fill="#FFD205"/>
<path d="M9.29034 37.4839H16.2581V42.1291H9.29034V37.4839Z" fill="#FFD205"/>
<path d="M9.29034 44.4517H16.2581V49.0968H9.29034V44.4517Z" fill="#FFD205"/>
<path d="M9.29034 51.4194H16.2581V56.0646H9.29034V51.4194Z" fill="#FFD205"/>
<path d="M9.29034 58.3872H16.2581V63.0323H9.29034V58.3872Z" fill="#FFD205"/>
<path d="M20.9033 16.5806H27.871V21.2257H20.9033V16.5806Z" fill="#FFD205"/>
<path d="M46.4516 18.9033H53.4194V11.9355H46.4516V18.9033Z" fill="#FFD205"/>
<path d="M55.7419 11.9355V18.9033H62.7097V11.9355H55.7419Z" fill="#FFD205"/>
<path d="M55.7419 29.3549H62.7097V22.3872H55.7419V29.3549Z" fill="#FFD205"/>
<path d="M55.7419 50.2583H62.7097V43.2905H55.7419V50.2583Z" fill="#FFD205"/>
<path d="M55.7419 39.8064H62.7097V32.8386H55.7419V39.8064Z" fill="#FFD205"/>
<path d="M55.7419 60.7097H62.7097V53.7419H55.7419V60.7097Z" fill="#FFD205"/>
<path d="M69.6774 63.246V7.29032H67.3548V2.64516H65.0323V-2H44.129V2.64516H41.8064V7.29032H39.4839V21.2258H34.2881L32.3375 9.6129H25.5484V2.64516H18.5806V9.6129H11.6129V2.64516H4.64516V9.6129H2.32258V63.246C0.974168 63.7269 0 65.0044 0 66.5161V70H72V66.5161C72 65.0044 71.0258 63.7269 69.6774 63.246ZM46.4516 0.322581H62.7097V2.64516H46.4516V0.322581ZM44.129 4.96774H65.0323V7.29032H44.129V4.96774ZM41.8064 9.6129H67.3548V63.0323H50.2371L58.1654 29.0554L51.64 21.2258H41.8064V9.6129ZM44.129 63.0323H39.4839V56.0645H44.129V63.0323ZM37.1613 53.7419V63.0323H34.8387V53.7419H25.5484V63.0323H24.1467L16.5597 30.5161H55.4403L47.8533 63.0323H46.4516V53.7419H37.1613ZM32.5161 63.0323H27.871V56.0645H32.5161V63.0323ZM21.7629 63.0323H18.5806V49.395L21.7629 63.0323ZM17.5759 28.1935L21.4464 23.5484H50.5518L54.4224 28.1935H17.5759ZM20.9032 4.96774H23.2258V9.6129H20.9032V4.96774ZM6.96774 4.96774H9.29032V9.6129H6.96774V4.96774ZM30.3722 11.9355L31.9332 21.2258H20.36L13.8346 29.0554L16.2581 39.4418V63.0323H4.64516V11.9355H30.3722ZM69.6774 67.6774H2.32258V66.5161C2.32258 65.8765 2.84425 65.3548 3.48387 65.3548H68.5161C69.1557 65.3548 69.6774 65.8765 69.6774 66.5161V67.6774Z" fill="#465861"/>
<path d="M48.7742 32.8386H23.2258V39.8064H48.7742V32.8386ZM34.8387 35.1612H37.1613V37.4838H34.8387V35.1612ZM32.5161 37.4838H30.1935V35.1612H32.5161V37.4838ZM39.4839 35.1612H41.8064V37.4838H39.4839V35.1612ZM25.5484 35.1612H27.871V37.4838H25.5484V35.1612ZM46.4516 37.4838H44.129V35.1612H46.4516V37.4838Z" fill="#465861"/>
<path d="M48.7742 42.1292H23.2258V49.0969H48.7742V42.1292ZM34.8387 44.4517H37.1613V46.7743H34.8387V44.4517ZM32.5161 46.7743H30.1935V44.4517H32.5161V46.7743ZM39.4839 44.4517H41.8064V46.7743H39.4839V44.4517ZM25.5484 44.4517H27.871V46.7743H25.5484V44.4517ZM46.4516 46.7743H44.129V44.4517H46.4516V46.7743Z" fill="#465861"/>
</svg>
