<svg width="72" height="72" viewBox="0 0 72 72" fill="none" xmlns="http://www.w3.org/2000/svg">
<path d="M36.4528 31.3548C37.9445 31.3548 39.3729 31.8007 40.5968 32.5857V12.7741C40.5968 12.1319 40.0831 11.6128 39.4476 11.6128H32.5524C31.9169 11.6128 31.4032 12.1319 31.4032 12.7741V32.4998C32.9374 31.7705 34.6451 31.3548 36.4528 31.3548Z" fill="#FFD205"/>
<path d="M44.5961 35.5737H44.6179C46.7164 33.1001 49.7928 31.5103 53.2381 31.3791V18.5805C53.2381 17.9383 52.7244 17.4192 52.0889 17.4192H45.1937C44.5582 17.4192 44.0445 17.9383 44.0445 18.5805V35.2822C44.2307 35.3751 44.4203 35.4645 44.5961 35.5737Z" fill="#FFD205"/>
<path d="M19.2147 31.3547C21.8039 31.3547 24.2207 32.6623 25.6572 34.8386C26.0594 34.9396 26.4432 35.0813 26.8064 35.2566L27.6637 35.2717C27.7568 35.1695 27.8602 35.079 27.9556 34.9814V18.5805C27.9556 17.9383 27.4419 17.4192 26.8064 17.4192H19.9112C19.2757 17.4192 18.762 17.9383 18.762 18.5805V31.3779C18.9137 31.3721 19.0619 31.3547 19.2147 31.3547Z" fill="#FFD205"/>
<path d="M60.1333 34.8386C62.8351 35.5215 64.7302 37.9741 64.7302 40.7879V41.8064H65.8794V12.7741C65.8794 12.1319 65.3657 11.6128 64.7302 11.6128H57.8349C57.1994 11.6128 56.6857 12.1319 56.6857 12.7741V31.9749C58.0682 32.5613 59.2772 33.5415 60.1333 34.8386Z" fill="#FFD205"/>
<path d="M7.38485 41.8064C7.99278 37.2425 11.1221 33.4915 15.3144 32.026V12.7741C15.3144 12.1319 14.8007 11.6128 14.1652 11.6128H7.26993C6.63442 11.6128 6.12073 12.1319 6.12073 12.7741V41.8064H7.38485Z" fill="#FFD205"/>
<path d="M10.7175 6.96776C11.6001 6.96776 12.3965 6.62169 13.0068 6.06891L19.9652 9.90466C19.9376 10.0835 19.9112 10.2647 19.9112 10.4516C19.9112 12.3724 21.458 13.9355 23.3588 13.9355C25.2596 13.9355 26.8064 12.3724 26.8064 10.4516C26.8064 10.2647 26.78 10.0835 26.7513 9.90466L33.7097 6.06891C34.3211 6.62169 35.1175 6.96776 36.0001 6.96776C36.9125 6.96776 37.7377 6.60195 38.3548 6.0155L45.2397 9.99176C45.2201 10.1427 45.1937 10.2937 45.1937 10.4516C45.1937 12.3724 46.7405 13.9355 48.6413 13.9355C50.5421 13.9355 52.0889 12.3724 52.0889 10.4516C52.0889 10.2937 52.0625 10.1427 52.043 9.9906L58.9278 6.01433C59.545 6.60195 60.3701 6.96776 61.2826 6.96776C63.1834 6.96776 64.7302 5.40466 64.7302 3.48388C64.7302 1.5631 63.1834 0 61.2826 0C59.3818 0 57.835 1.5631 57.835 3.48388C57.835 3.64181 57.8614 3.79278 57.8809 3.94491L50.996 7.92001C50.3789 7.33356 49.5538 6.96776 48.6413 6.96776C47.7288 6.96776 46.9037 7.33356 46.2866 7.92001L39.4017 3.94491C39.4212 3.79278 39.4477 3.64181 39.4477 3.48388C39.4477 1.5631 37.9008 0 36.0001 0C34.0993 0 32.5524 1.5631 32.5524 3.48388C32.5524 3.67085 32.5789 3.85201 32.6076 4.03085L25.6492 7.8666C25.0378 7.31382 24.2414 6.96776 23.3588 6.96776C22.4762 6.96776 21.6798 7.31382 21.0696 7.8666L14.1111 4.03085C14.1387 3.85201 14.1652 3.67085 14.1652 3.48388C14.1652 1.5631 12.6183 0 10.7175 0C8.81676 0 7.26993 1.5631 7.26993 3.48388C7.26993 5.40466 8.81676 6.96776 10.7175 6.96776ZM61.2826 2.32259C61.9158 2.32259 62.4318 2.84401 62.4318 3.48388C62.4318 4.12375 61.9158 4.64517 61.2826 4.64517C60.6494 4.64517 60.1334 4.12375 60.1334 3.48388C60.1334 2.84401 60.6494 2.32259 61.2826 2.32259ZM48.6413 9.29034C49.2745 9.29034 49.7905 9.81176 49.7905 10.4516C49.7905 11.0915 49.2745 11.6129 48.6413 11.6129C48.0081 11.6129 47.4921 11.0915 47.4921 10.4516C47.4921 9.81176 48.0081 9.29034 48.6413 9.29034ZM36.0001 2.32259C36.6333 2.32259 37.1493 2.84401 37.1493 3.48388C37.1493 4.12375 36.6333 4.64517 36.0001 4.64517C35.3668 4.64517 34.8508 4.12375 34.8508 3.48388C34.8508 2.84401 35.3668 2.32259 36.0001 2.32259ZM23.3588 9.29034C23.992 9.29034 24.508 9.81176 24.508 10.4516C24.508 11.0915 23.992 11.6129 23.3588 11.6129C22.7256 11.6129 22.2096 11.0915 22.2096 10.4516C22.2096 9.81176 22.7256 9.29034 23.3588 9.29034ZM10.7175 2.32259C11.3508 2.32259 11.8667 2.84401 11.8667 3.48388C11.8667 4.12375 11.3508 4.64517 10.7175 4.64517C10.0843 4.64517 9.56834 4.12375 9.56834 3.48388C9.56834 2.84401 10.0843 2.32259 10.7175 2.32259Z" fill="#465861"/>
<path d="M70.4371 66.4759C69.6062 63.5366 67.2469 61.3383 64.2808 60.7391L57.8349 59.435V59.1295C59.9609 57.8823 61.5445 55.8013 62.1513 53.33C64.2716 52.9178 65.8793 51.0353 65.8793 48.7743V40.7881C65.8793 37.5852 63.828 34.7877 60.8389 33.8343C59.1657 31.5465 56.5248 30.1936 53.692 30.1936C50.1697 30.1936 46.8313 31.6348 44.3766 34.1525C44.1226 34.0375 43.8709 33.9202 43.6008 33.8343C41.9276 31.5465 39.2867 30.1936 36.4539 30.1936C32.811 30.1936 29.5127 31.7079 27.1373 34.142C26.8845 34.027 26.6282 33.9179 26.3639 33.8331C24.6895 31.5465 22.0486 30.1936 19.2159 30.1936C11.9943 30.1936 6.12067 36.129 6.12067 43.4265V48.7743C6.12067 51.0353 7.7284 52.9178 9.84869 53.3312C10.4555 55.8024 12.0391 57.8835 14.1651 59.1307V59.4361L7.72036 60.7391C4.75311 61.3383 2.39379 63.5366 1.56292 66.4759L0 72.0001H17.2381H18.7619H53.2381H54.7619H72L70.4371 66.4759ZM53.2381 58.0646C50.0249 58.0646 47.2611 55.7734 46.5463 52.6611C47.8046 51.832 48.6413 50.4024 48.6413 48.7743V45.7781C49.8525 45.2985 50.973 44.5762 51.8912 43.6483L52.1969 43.3394L52.3187 43.4323C54.5815 45.1464 57.3189 46.1811 60.1333 46.4041V51.0969C60.1333 54.9396 57.0408 58.0646 53.2381 58.0646ZM44.619 60.2479L40.5968 59.435V59.1295C42.4378 58.0495 43.8709 56.3448 44.6179 54.3032C45.3683 56.3506 46.8106 58.0484 48.6413 59.1249V59.435L44.619 60.2479ZM27.3821 60.2479L23.3587 59.435V59.1249C25.1894 58.0484 26.6317 56.3506 27.3821 54.3032C28.1291 56.3459 29.5622 58.0507 31.4032 59.1295V59.435L27.3821 60.2479ZM26.8064 50.774C26.1226 50.3711 25.6572 49.6302 25.6572 48.7743C25.6572 47.9184 26.1226 47.1775 26.8064 46.7745V50.774ZM29.1048 51.0969V46.3739C31.1986 46.1196 33.1385 45.1789 34.6531 43.6483L34.9588 43.3394L35.0806 43.4323C37.3434 45.1464 40.0808 46.1811 42.8952 46.4041V51.0969C42.8952 54.9396 39.8027 58.0646 36 58.0646C32.1973 58.0646 29.1048 54.9396 29.1048 51.0969ZM45.1936 50.774V46.7745C45.8774 47.1775 46.3428 47.9184 46.3428 48.7743C46.3428 49.6302 45.8774 50.3711 45.1936 50.774ZM62.4317 50.774V46.7745C63.1155 47.1775 63.5809 47.9184 63.5809 48.7743C63.5809 49.6302 63.1155 50.3711 62.4317 50.774ZM53.692 32.5162C55.9008 32.5162 57.9521 33.6252 59.1772 35.4833L59.4231 35.8572L59.854 35.9664C62.049 36.5203 63.5809 38.5027 63.5809 40.7881V44.7748C62.9017 44.3753 62.1237 44.1291 61.2825 44.1291C58.5658 44.1291 55.8721 43.2221 53.6978 41.5743L51.9808 40.2725L50.2662 42.0051C49.7882 42.4882 49.2342 42.8923 48.6413 43.221V40.7869C48.6413 38.7001 47.7598 36.7956 46.3256 35.4508C48.316 33.5741 50.9397 32.5162 53.692 32.5162ZM36.4539 32.5162C38.6627 32.5162 40.714 33.6252 41.9391 35.4833L42.185 35.8572L42.616 35.9664C44.811 36.5203 46.3428 38.5027 46.3428 40.7881V44.7748C45.6637 44.3753 44.8857 44.1291 44.0444 44.1291C41.3277 44.1291 38.634 43.2221 36.4597 41.5743L34.7428 40.2725L33.0282 42.0051C31.6732 43.3754 29.8713 44.1291 27.9556 44.1291C27.1143 44.1291 26.3363 44.3753 25.6572 44.7748V43.4254C25.6572 37.4099 30.4999 32.5162 36.4539 32.5162ZM19.2159 32.5162C21.4246 32.5162 23.476 33.6252 24.701 35.4833L24.9469 35.8572L25.3779 35.9664C25.4514 35.985 25.5181 36.0221 25.5905 36.0442C24.1827 38.1531 23.3587 40.694 23.3587 43.4265V43.6367C21.8705 43.2082 20.4593 42.5126 19.2216 41.5743L17.5047 40.2725L15.7901 42.0051C14.4352 43.3754 12.6332 44.1291 10.7175 44.1291C9.87627 44.1291 9.09826 44.3753 8.41908 44.7748V43.4254C8.41908 37.4099 13.2618 32.5162 19.2159 32.5162ZM8.41908 48.7743C8.41908 47.9184 8.8845 47.1775 9.56828 46.7745V50.774C8.8845 50.3711 8.41908 49.6302 8.41908 48.7743ZM11.8667 51.0969V46.3739C13.9605 46.1196 15.9004 45.1789 17.4151 43.6483L17.7207 43.3394L17.8426 43.4323C19.4767 44.6714 21.3718 45.5378 23.3587 46.0162V48.7743C23.3587 50.4024 24.1954 51.832 25.4537 52.6611C24.7389 55.7734 21.9751 58.0646 18.7619 58.0646C14.9592 58.0646 11.8667 54.9396 11.8667 51.0969ZM17.8954 69.6776H3.04769L3.77284 67.1134C4.36698 65.0138 6.05171 63.4426 8.17085 63.0152L16.4635 61.3395V60.0818C17.2002 60.2746 17.9667 60.3872 18.7619 60.3872C19.5526 60.3872 20.3214 60.278 21.0603 60.083V61.3395L22.5784 61.6461C20.7684 62.6773 19.3928 64.3821 18.801 66.4759L17.8954 69.6776ZM46.0912 69.6776L45.1592 65.9115L42.9297 66.4747L43.7215 69.6776H28.2785L29.0703 66.4759L26.8408 65.9126L25.9088 69.6776H20.2858L21.0109 67.1134C21.6051 65.0138 23.2898 63.4426 25.4089 63.0152L33.7016 61.3395V60.0818C34.4382 60.2746 35.2048 60.3872 36 60.3872C36.7952 60.3872 37.5618 60.2746 38.2984 60.0818V61.3395L46.5922 63.0152C48.7114 63.4437 50.3961 65.0138 50.9902 67.1134L51.7142 69.6776H46.0912ZM54.1046 69.6776L53.199 66.4759C52.6072 64.3821 51.2316 62.6784 49.4216 61.6461L50.9397 61.3395V60.083C51.6786 60.278 52.4474 60.3872 53.2381 60.3872C54.0333 60.3872 54.7998 60.2746 55.5365 60.0818V61.3395L63.8303 63.0152C65.9494 63.4437 67.6342 65.0138 68.2283 67.1134L68.9523 69.6776H54.1046Z" fill="#465861"/>
</svg>
