<svg width="40" height="40" viewBox="0 0 40 40" fill="none" xmlns="http://www.w3.org/2000/svg">
<path d="M21.2648 0.155396C20.9652 0.155396 20.6849 0.302918 20.5153 0.549961C20.0197 1.27182 8.37592 18.3288 8.37592 26.9558C8.37592 34.0627 14.1578 39.8446 21.2647 39.8446C28.3716 39.8446 34.1534 34.0627 34.1534 26.9558C34.1534 18.3288 22.5097 1.27182 22.0141 0.549961C21.8447 0.30304 21.5644 0.155396 21.2648 0.155396ZM21.2648 38.0263C15.1605 38.0263 10.1943 33.0601 10.1943 26.9558C10.1943 20.0941 18.6641 6.6647 21.2648 2.70329C23.8656 6.6647 32.3352 20.094 32.3352 26.9558C32.3352 33.0601 27.369 38.0263 21.2648 38.0263Z" fill="#FFD109"/>
<path d="M20.3558 34.6926C20.3558 35.1947 20.7628 35.6017 21.265 35.6017C26.0325 35.6017 29.9112 31.7232 29.9112 26.956C29.9112 26.454 29.5043 26.0469 29.0021 26.0469C28.4999 26.0469 28.093 26.454 28.093 26.956C28.093 30.7207 25.0299 33.7834 21.265 33.7834C20.7628 33.7834 20.3558 34.1905 20.3558 34.6926Z" fill="#FFD109"/>
<path d="M39.0909 3.83752H37.3242V2.07076C37.3242 1.56867 36.9173 1.16162 36.4151 1.16162C35.9129 1.16162 35.506 1.56867 35.506 2.07076V3.83752H33.7392C33.237 3.83752 32.8301 4.24457 32.8301 4.74665C32.8301 5.24874 33.237 5.65579 33.7392 5.65579H35.506V7.42255C35.506 7.92464 35.9129 8.33169 36.4151 8.33169C36.9173 8.33169 37.3242 7.92464 37.3242 7.42255V5.65579H39.0909C39.5931 5.65579 40 5.24874 40 4.74665C40 4.24457 39.5931 3.83752 39.0909 3.83752Z" fill="#FFD109"/>
<path d="M6.26093 31.2128H4.49417V29.446C4.49417 28.9439 4.08724 28.5369 3.58504 28.5369C3.08283 28.5369 2.6759 28.9439 2.6759 29.446V31.2128H0.909138C0.40693 31.2128 0 31.6198 0 32.1219C0 32.624 0.40693 33.031 0.909138 33.031H2.6759V34.7978C2.6759 35.2999 3.08283 35.7069 3.58504 35.7069C4.08724 35.7069 4.49417 35.2999 4.49417 34.7978V33.031H6.26093C6.76314 33.031 7.17007 32.624 7.17007 32.1219C7.17007 31.6198 6.76314 31.2128 6.26093 31.2128Z" fill="#FFD109"/>
</svg>
