<svg width="29" height="29" viewBox="0 0 29 29" fill="none" xmlns="http://www.w3.org/2000/svg">
<path d="M14.5 0C6.5047 0 0 6.5047 0 14.5C0 22.4953 6.5047 29 14.5 29C22.4953 29 29 22.4953 29 14.5C29 6.5047 22.4953 0 14.5 0ZM14.5 28.0333C7.03782 28.0333 0.966667 21.9622 0.966667 14.5C0.966667 7.03782 7.03782 0.966667 14.5 0.966667C21.9622 0.966667 28.0333 7.03782 28.0333 14.5C28.0333 21.9622 21.9622 28.0333 14.5 28.0333Z" fill="#FFD109"/>
<path d="M14.9833 12.5768V7.67486C14.9833 7.40758 14.7668 7.19153 14.5 7.19153C14.2332 7.19153 14.0167 7.40758 14.0167 7.67486V12.5768C13.3405 12.7528 12.8112 13.282 12.6353 13.9582H9.18335C8.91655 13.9582 8.70001 14.1742 8.70001 14.4415C8.70001 14.7088 8.91655 14.9249 9.18335 14.9249H12.6353C12.8514 15.7562 13.602 16.3749 14.5 16.3749C15.5662 16.3749 16.4333 15.5078 16.4333 14.4415C16.4333 13.543 15.8147 12.7929 14.9833 12.5768ZM14.5 15.4082C13.9669 15.4082 13.5333 14.9746 13.5333 14.4415C13.5333 13.9084 13.9669 13.4749 14.5 13.4749C15.0331 13.4749 15.4667 13.9084 15.4667 14.4415C15.4667 14.9746 15.0331 15.4082 14.5 15.4082Z" fill="#FFD109"/>
<path d="M14.5 4.77486C14.7668 4.77486 14.9833 4.55881 14.9833 4.29153V3.80819C14.9833 3.54091 14.7668 3.32486 14.5 3.32486C14.2332 3.32486 14.0167 3.54091 14.0167 3.80819V4.29153C14.0167 4.55881 14.2332 4.77486 14.5 4.77486Z" fill="#FFD109"/>
<path d="M14.5 24.1082C14.2332 24.1082 14.0167 24.3242 14.0167 24.5915V25.0749C14.0167 25.3421 14.2332 25.5582 14.5 25.5582C14.7668 25.5582 14.9833 25.3421 14.9833 25.0749V24.5915C14.9833 24.3242 14.7668 24.1082 14.5 24.1082Z" fill="#FFD109"/>
<path d="M25.1333 13.9582H24.65C24.3832 13.9582 24.1667 14.1742 24.1667 14.4415C24.1667 14.7088 24.3832 14.9249 24.65 14.9249H25.1333C25.4001 14.9249 25.6167 14.7088 25.6167 14.4415C25.6167 14.1742 25.4001 13.9582 25.1333 13.9582Z" fill="#FFD109"/>
<path d="M4.35 13.9582H3.86666C3.59986 13.9582 3.38333 14.1742 3.38333 14.4415C3.38333 14.7088 3.59986 14.9249 3.86666 14.9249H4.35C4.6168 14.9249 4.83333 14.7088 4.83333 14.4415C4.83333 14.1742 4.6168 13.9582 4.35 13.9582Z" fill="#FFD109"/>
<path d="M21.677 6.58058L21.3353 6.9223C21.1463 7.11128 21.1463 7.41675 21.3353 7.60573C21.4296 7.69998 21.5533 7.74735 21.677 7.74735C21.8008 7.74735 21.9245 7.69998 22.0187 7.60573L22.3605 7.26402C22.5494 7.07503 22.5494 6.76957 22.3605 6.58058C22.1715 6.3916 21.866 6.39208 21.677 6.58058Z" fill="#FFD109"/>
<path d="M6.98126 21.2768L6.63954 21.6185C6.45056 21.8075 6.45056 22.113 6.63954 22.302C6.73379 22.3962 6.85752 22.4436 6.98126 22.4436C7.10499 22.4436 7.22872 22.3962 7.32297 22.302L7.66469 21.9602C7.85367 21.7713 7.85367 21.4658 7.66469 21.2768C7.47571 21.0878 7.16976 21.0883 6.98126 21.2768Z" fill="#FFD109"/>
<path d="M22.0187 21.2768C21.8298 21.0878 21.5243 21.0878 21.3353 21.2768C21.1463 21.4658 21.1463 21.7713 21.3353 21.9602L21.677 22.302C21.7713 22.3962 21.895 22.4436 22.0187 22.4436C22.1425 22.4436 22.2662 22.3962 22.3605 22.302C22.5494 22.113 22.5494 21.8075 22.3605 21.6185L22.0187 21.2768Z" fill="#FFD109"/>
<path d="M7.32297 6.58058C7.13399 6.3916 6.82852 6.3916 6.63954 6.58058C6.45056 6.76956 6.45056 7.07503 6.63954 7.26401L6.98126 7.60573C7.07551 7.69998 7.19924 7.74735 7.32297 7.74735C7.44671 7.74735 7.57044 7.69998 7.66469 7.60573C7.85367 7.41675 7.85367 7.11128 7.66469 6.9223L7.32297 6.58058Z" fill="#FFD109"/>
</svg>
