<svg width="40" height="40" viewBox="0 0 40 40" fill="none" xmlns="http://www.w3.org/2000/svg">
<path d="M19.9999 0C31.0449 0 40 8.95499 40 20.0001C40 31.0451 31.045 40 20.0001 40C8.95513 40 0 31.045 0 20.0001C0 8.95513 8.95376 0 19.9999 0Z" fill="#6C27B3"/>
<path d="M26.9024 8.74707H13.0963C10.6975 8.74707 8.7475 10.6983 8.7475 13.0958V26.9034C8.7475 29.3021 10.6988 31.2522 13.0963 31.2522H26.9038C29.3026 31.2522 31.2526 29.3009 31.2526 26.9034V13.0958C31.2524 10.6983 29.3012 8.74707 26.9024 8.74707ZM28.2725 11.2633L28.765 11.2621V14.9971L25.0025 15.0096L24.99 11.2746L28.2725 11.2633ZM20 16.2345C23.1213 16.2345 23.765 19.1645 23.765 20.0007C23.765 22.0745 22.075 23.7644 20 23.7644C17.9238 23.7644 16.2351 22.0745 16.2351 20.0007C16.2337 19.1645 16.8788 16.2345 20 16.2345ZM28.7863 26.6308C28.7863 27.8196 27.8201 28.7871 26.6288 28.7871H13.3287C12.1387 28.7871 11.1712 27.8209 11.1712 26.6308V17.4946H14.2962C14.0062 18.2083 13.8424 19.1833 13.8424 20.0009C13.8424 23.3934 16.6024 26.1547 19.9962 26.1547C23.39 26.1547 26.1486 23.3934 26.1486 20.0009C26.1486 19.1833 25.9848 18.2083 25.6961 17.4946H28.7835V26.6308H28.7863Z" fill="white"/>
</svg>
