<svg width="40" height="40" viewBox="0 0 40 40" fill="none" xmlns="http://www.w3.org/2000/svg">
<g clip-path="url(#clip0)">
<path d="M37.6323 6.84856L20.2254 0.0402037C20.1963 0.0284776 20.1666 0.0315233 20.1369 0.0247466C20.0911 0.0136297 20.0464 0 19.9988 0C19.9493 0 19.904 0.0136297 19.8571 0.0253557C19.8292 0.0321325 19.8013 0.0296959 19.7741 0.0402037L19.7506 0.0494932L2.36656 6.84856C2.07691 6.96247 1.93209 7.2694 2.00077 7.56408C1.98409 7.61982 1.97351 7.67799 1.97351 7.73799V30.0971C1.97351 30.3255 2.09976 30.5359 2.30093 30.6437L19.7085 39.9277C19.737 39.9426 19.7673 39.9513 19.797 39.9618C19.8124 39.9673 19.8273 39.9748 19.8434 39.9791C19.8948 39.9922 19.9474 40.0002 20.0001 40.0002C20.0527 40.0002 20.1053 39.9921 20.1567 39.9791C20.1728 39.9748 20.1876 39.9667 20.2031 39.9618C20.2328 39.9513 20.2631 39.9432 20.2916 39.9277L37.6992 30.6437C37.901 30.536 38.0266 30.3255 38.0266 30.0971V7.73791C38.0266 7.67791 38.0155 7.62035 37.9994 7.564C38.0674 7.27001 37.9226 6.96239 37.6323 6.84856ZM19.9995 15.1027L3.80308 7.61601L20.0001 1.2818L36.1964 7.61601L19.9995 15.1027ZM3.21076 8.70661L19.3805 16.1803V38.3494L3.21076 29.7263V8.70661ZM36.7881 29.7263L20.6183 38.3494V16.1802L36.7881 8.70653V29.7263Z" fill="#FFD109"/>
</g>
<defs>
<clipPath id="clip0">
<rect width="40" height="40" fill="white"/>
</clipPath>
</defs>
</svg>
