<svg width="29" height="29" viewBox="0 0 29 29" fill="none" xmlns="http://www.w3.org/2000/svg">
<path d="M14.5 0.90625C8.91025 0.90625 4.53125 5.48281 4.53125 11.3281C4.53125 17.7793 13.7786 27.5409 14.1724 27.9533C14.2147 27.9976 14.2655 28.0328 14.3218 28.0569C14.3782 28.081 14.4388 28.0934 14.5 28.0934C14.5612 28.0934 14.6218 28.081 14.6782 28.0569C14.7345 28.0328 14.7853 27.9976 14.8276 27.9533C15.2214 27.5409 24.4688 17.7793 24.4688 11.3281C24.4688 5.48281 20.0898 0.90625 14.5 0.90625ZM14.5 26.9745C12.8379 25.158 5.4375 16.7634 5.4375 11.3281C5.4375 5.90331 9.33438 1.8125 14.5 1.8125C19.6656 1.8125 23.5625 5.90331 23.5625 11.3281C23.5625 16.7611 16.1616 25.1584 14.5 26.9745Z" fill="#FFD109"/>
<path d="M14.5 3.17188C12.9765 3.17188 11.4871 3.62366 10.2204 4.47009C8.9536 5.31652 7.96628 6.51958 7.38324 7.92714C6.80021 9.3347 6.64767 10.8835 6.94489 12.3778C7.24212 13.8721 7.97577 15.2446 9.05307 16.3219C10.1304 17.3992 11.5029 18.1329 12.9972 18.4301C14.4915 18.7273 16.0403 18.5748 17.4479 17.9918C18.8554 17.4087 20.0585 16.4214 20.9049 15.1546C21.7513 13.8879 22.2031 12.3985 22.2031 10.875C22.2008 8.8327 21.3885 6.87471 19.9444 5.43058C18.5003 3.98646 16.5423 3.17415 14.5 3.17188ZM14.5 17.6719C13.1557 17.6719 11.8416 17.2732 10.7239 16.5264C9.60612 15.7795 8.73495 14.718 8.22051 13.4761C7.70607 12.2341 7.57147 10.8675 7.83373 9.549C8.09599 8.23053 8.74333 7.01944 9.69389 6.06888C10.6444 5.11832 11.8555 4.47098 13.174 4.20872C14.4925 3.94647 15.8591 4.08107 17.1011 4.59551C18.343 5.10995 19.4045 5.98112 20.1514 7.09886C20.8982 8.2166 21.2969 9.5307 21.2969 10.875C21.2948 12.677 20.5781 14.4046 19.3039 15.6789C18.0296 16.9531 16.302 17.6698 14.5 17.6719Z" fill="#FFD109"/>
<path d="M19.3145 9.16172L14.7832 5.53672C14.7028 5.47238 14.603 5.43732 14.5 5.43732C14.397 5.43732 14.2972 5.47238 14.2168 5.53672L9.68555 9.16172C9.61219 9.22037 9.55888 9.30037 9.53298 9.39065C9.50708 9.48093 9.50987 9.57703 9.54097 9.66565C9.57207 9.75427 9.62994 9.83104 9.70658 9.88534C9.78321 9.93964 9.87483 9.96878 9.96875 9.96873H10.4219V14.9531C10.4219 15.0733 10.4696 15.1885 10.5546 15.2735C10.6396 15.3585 10.7548 15.4062 10.875 15.4062H18.125C18.2452 15.4062 18.3604 15.3585 18.4454 15.2735C18.5304 15.1885 18.5781 15.0733 18.5781 14.9531V9.96873H19.0312C19.1252 9.96878 19.2168 9.93964 19.2934 9.88534C19.3701 9.83104 19.4279 9.75427 19.459 9.66565C19.4901 9.57703 19.4929 9.48093 19.467 9.39065C19.4411 9.30037 19.3878 9.22037 19.3145 9.16172ZM15.4062 14.5H13.5937V11.7812H15.4062V14.5ZM17.6719 9.51561V14.5H16.3125V11.3281C16.3125 11.2079 16.2648 11.0927 16.1798 11.0077C16.0948 10.9227 15.9795 10.875 15.8594 10.875H13.1406C13.0204 10.875 12.9052 10.9227 12.8202 11.0077C12.7352 11.0927 12.6875 11.2079 12.6875 11.3281V14.5H11.3281V9.51561C11.3281 9.44526 11.3117 9.37588 11.2803 9.31296C11.2488 9.25005 11.2032 9.19532 11.1469 9.15311L14.5 6.47106L17.8531 9.15311C17.7968 9.19532 17.7512 9.25005 17.7197 9.31296C17.6883 9.37588 17.6719 9.44526 17.6719 9.51561Z" fill="#FFD109"/>
</svg>
