<svg width="22" height="27" viewBox="0 0 22 27" fill="none" xmlns="http://www.w3.org/2000/svg">
<path d="M21.125 10.3814C21.125 11.5774 20.6729 12.9636 19.8862 14.4649C19.1045 15.9568 18.0245 17.5023 16.8425 19.0025C15.6623 20.5004 14.3941 21.9357 13.2434 23.2102C12.9686 23.5145 12.6992 23.8111 12.4388 24.0977C11.8717 24.7219 11.3475 25.2989 10.9029 25.8074C9.27652 24.1263 6.91507 21.6721 4.86694 19.0094C3.71548 17.5124 2.67794 15.9681 1.93092 14.4771C1.17974 12.9778 0.75 11.5865 0.75 10.3814C0.75 5.38148 5.24084 1.20703 10.9375 1.20703C16.6342 1.20703 21.125 5.38148 21.125 10.3814Z" stroke="#FFD109" stroke-width="1.5"/>
<path d="M15.875 10.7947C15.875 13.3101 13.7048 15.4204 10.9375 15.4204C8.17019 15.4204 6 13.3101 6 10.7947C6 8.27923 8.17019 6.16895 10.9375 6.16895C13.7048 6.16895 15.875 8.27923 15.875 10.7947Z" stroke="#FFD109" stroke-width="1.5"/>
</svg>
