<svg width="29" height="29" viewBox="0 0 29 29" fill="none" xmlns="http://www.w3.org/2000/svg">
<path d="M27.8052 5.17322H1.19478C0.534914 5.17322 0 5.70813 0 6.368V22.632C0 23.2919 0.534914 23.8268 1.19478 23.8268H27.8052C28.4651 23.8268 29 23.2919 29 22.632V6.368C29 5.70813 28.4651 5.17322 27.8052 5.17322ZM1.19478 6.11153H27.8052C27.9175 6.11207 28.0163 6.18557 28.0492 6.29293L14.5 14.7565L0.95082 6.29293C0.98366 6.18557 1.0825 6.11207 1.19478 6.11153ZM0.938309 7.36261L10.6842 13.4491L0.938309 21.1808V7.36261ZM28.0617 22.6258C28.0617 22.7674 27.9468 22.8822 27.8052 22.8822H1.19478C1.05317 22.8822 0.938309 22.7674 0.938309 22.6258V22.3755L11.5287 14.0058L14.2498 15.7073C14.4027 15.8037 14.5973 15.8037 14.7502 15.7073L17.4713 14.0058L28.0617 22.3755V22.6258ZM28.0617 21.1808L18.2908 13.4741L28.0617 7.4189V21.1808Z" fill="#FFD109"/>
</svg>
