<svg width="50" height="50" viewBox="0 0 50 50" fill="none" xmlns="http://www.w3.org/2000/svg">
<path d="M25 50C11.2132 50 0 38.7868 0 25C0 11.2132 11.2132 0 25 0C38.7868 0 50 11.2132 50 25C50 38.7868 38.7868 50 25 50ZM25 2.02206C12.3264 2.02206 2.02206 12.3264 2.02206 25C2.02206 37.6736 12.3264 47.9779 25 47.9779C37.6736 47.9779 47.9779 37.6736 47.9779 25C47.9779 12.3264 37.6736 2.02206 25 2.02206Z" fill="#333333"/>
<path d="M22.886 33.3026C22.692 33.4966 22.4265 33.5987 22.1712 33.5987C21.9159 33.5987 21.6503 33.4966 21.4563 33.3026C21.058 32.9043 21.058 32.2711 21.4563 31.8728L28.3293 24.9999L21.4563 18.1269C21.058 17.7286 21.058 17.0954 21.4563 16.6972C21.8546 16.2989 22.4877 16.2989 22.886 16.6972L30.4739 24.285C30.8722 24.6833 30.8722 25.3164 30.4739 25.7147L22.886 33.3026Z" fill="#333333"/>
</svg>
