<svg width="24" height="23" viewBox="0 0 24 23" fill="none" xmlns="http://www.w3.org/2000/svg">
<path d="M4.8906 15.2889C7.25777 18.0006 10.1073 20.1357 13.3597 21.6465C14.598 22.2089 16.254 22.8761 18.0991 22.9905C18.2134 22.9952 18.3228 23 18.4372 23C19.6755 23 20.6701 22.5901 21.4807 21.7466C21.4857 21.7418 21.4957 21.7323 21.5006 21.7227C21.7891 21.3891 22.1173 21.0889 22.4604 20.7696C22.6942 20.5551 22.9329 20.3311 23.1616 20.1024C24.2209 19.0443 24.2209 17.7004 23.1517 16.6757L20.1629 13.8114C19.6556 13.3063 19.0489 13.0394 18.4124 13.0394C17.7758 13.0394 17.1641 13.3063 16.6419 13.8067L14.8616 15.5128C14.6975 15.4223 14.5284 15.3413 14.3693 15.265C14.1703 15.1697 13.9863 15.0792 13.8222 14.9791C12.201 13.9925 10.729 12.7058 9.3216 11.052C8.61045 10.1894 8.13303 9.46498 7.79984 8.72627C8.26731 8.32118 8.70494 7.89702 9.12765 7.48239C9.27684 7.33465 9.431 7.1869 9.58517 7.03916C10.1223 6.52445 10.4107 5.92872 10.4107 5.32346C10.4107 4.71819 10.1272 4.12246 9.58517 3.60775L8.1032 2.18753C7.92914 2.02072 7.76503 1.85868 7.59594 1.69188C7.26772 1.3678 6.92458 1.03419 6.58641 0.733941C6.07419 0.25259 5.47245 0 4.83589 0C4.20431 0 3.5976 0.25259 3.06548 0.738707L1.20556 2.52114C0.529221 3.16929 0.146295 3.95566 0.0667256 4.86593C-0.0277626 6.00497 0.191052 7.2155 0.757981 8.67862C1.62827 10.9424 2.94116 13.0441 4.8906 15.2889ZM1.28015 4.96602C1.33983 4.33216 1.59346 3.80315 2.07087 3.34563L3.92085 1.57273C4.20929 1.30584 4.52756 1.16763 4.83589 1.16763C5.13925 1.16763 5.44758 1.30584 5.73104 1.58226C6.06424 1.87775 6.37754 2.18753 6.71571 2.51637C6.8848 2.68317 7.05885 2.84998 7.23291 3.02155L8.71488 4.44177C9.02321 4.73726 9.18235 5.03751 9.18235 5.33299C9.18235 5.62847 9.02321 5.92872 8.71488 6.2242C8.56072 6.37194 8.40655 6.52445 8.25239 6.67219C7.78989 7.12018 7.35724 7.54434 6.87982 7.94944C6.86988 7.95897 6.8649 7.96374 6.85496 7.97327C6.44219 8.36884 6.50684 8.74534 6.6063 9.03129C6.61128 9.04559 6.61625 9.05512 6.62122 9.06942C7.00415 9.9511 7.53627 10.7899 8.36677 11.7907C9.85869 13.5541 11.4302 14.9219 13.1608 15.9751C13.3746 16.1086 13.6034 16.2134 13.8172 16.3183C14.0162 16.4136 14.2002 16.5041 14.3643 16.6042C14.3842 16.6138 14.3991 16.6233 14.419 16.6328C14.5831 16.7138 14.7422 16.752 14.9014 16.752C15.2992 16.752 15.5578 16.5089 15.6424 16.4279L17.5023 14.6455C17.7907 14.369 18.104 14.2213 18.4124 14.2213C18.7903 14.2213 19.0986 14.4453 19.2926 14.6455L22.2913 17.5145C22.8881 18.0864 22.8831 18.706 22.2764 19.3112C22.0676 19.5257 21.8487 19.7306 21.615 19.9451C21.2669 20.2692 20.9039 20.6028 20.5756 20.9793C20.0037 21.5702 19.3224 21.8467 18.4422 21.8467C18.3577 21.8467 18.2681 21.8419 18.1836 21.8371C16.5524 21.737 15.0356 21.127 13.8968 20.6075C10.8036 19.173 8.08828 17.138 5.83548 14.5549C3.98053 12.415 2.73229 10.4229 1.90676 8.28782C1.39453 6.97721 1.20058 5.92395 1.28015 4.96602Z" fill="#FFD109"/>
</svg>
