<svg width="50" height="50" viewBox="0 0 50 50" fill="none" xmlns="http://www.w3.org/2000/svg">
<path d="M25 50C38.7868 50 50 38.7868 50 25C50 11.2132 38.7868 0 25 0C11.2132 0 0 11.2132 0 25C0 38.7868 11.2132 50 25 50ZM25 2.02206C37.6736 2.02206 47.9779 12.3264 47.9779 25C47.9779 37.6736 37.6736 47.9779 25 47.9779C12.3264 47.9779 2.02206 37.6736 2.02206 25C2.02206 12.3264 12.3264 2.02206 25 2.02206Z" fill="#333333"/>
<path d="M27.114 33.3026C27.308 33.4966 27.5735 33.5987 27.8288 33.5987C28.0841 33.5987 28.3497 33.4966 28.5437 33.3026C28.942 32.9043 28.942 32.2711 28.5437 31.8728L21.6707 24.9999L28.5437 18.1269C28.942 17.7286 28.942 17.0954 28.5437 16.6972C28.1454 16.2989 27.5123 16.2989 27.114 16.6972L19.5261 24.285C19.1278 24.6833 19.1278 25.3164 19.5261 25.7147L27.114 33.3026Z" fill="#333333"/>
</svg>
