<svg width="40" height="40" viewBox="0 0 40 40" fill="none" xmlns="http://www.w3.org/2000/svg">
<g clip-path="url(#clip0)">
<path d="M39.8105 15.8106C39.3107 14.5522 37.8854 13.9372 36.627 14.437C36.5623 14.4628 36.4986 14.4912 36.4364 14.5223L34.6184 15.4326L30.9069 10.4849C30.861 10.4237 30.8051 10.3707 30.7415 10.3283L26.6926 7.62901C26.6113 7.57477 26.5192 7.53883 26.4227 7.52373L17.65 6.17409C17.4379 6.14145 17.223 6.21163 17.071 6.36304L12.0402 11.3749C11.1953 12.2167 11.1927 13.584 12.0344 14.4289C12.0364 14.4308 12.0382 14.4327 12.0402 14.4346C12.846 15.235 14.1331 15.2774 14.9898 14.5318L19.0664 10.9647L22.6835 11.9985L19.6562 18.6502L15.0121 25.2844L9.49206 30.2517C8.48674 31.1153 8.37177 32.6303 9.23529 33.6356C10.0988 34.641 11.6139 34.7559 12.6192 33.8924L18.7007 28.9122L22.3359 25.277L26.9463 28.7354L25.9206 35.8939C25.8245 36.5634 26.024 37.2415 26.4672 37.7524C26.9225 38.2731 27.5835 38.5675 28.2751 38.5575C29.4208 38.5591 30.4056 37.745 30.6194 36.6194L32.3834 27.2096C32.4272 26.9752 32.3441 26.7352 32.1647 26.578L27.1103 22.1593L29.2616 16.2438L33.2337 20.7833C33.428 21.0052 33.7439 21.0752 34.0137 20.9561L38.5701 18.9411C39.768 18.4104 40.3199 17.0177 39.8105 15.8106ZM38.0242 17.7055L33.922 19.5194L29.5248 14.494C29.2793 14.2136 28.853 14.1854 28.5726 14.431C28.487 14.5059 28.4219 14.6011 28.383 14.7079L25.6837 22.1309C25.5886 22.3926 25.6639 22.6858 25.8734 22.8692L30.9824 27.3399L29.2873 36.371C29.1862 36.8706 28.7393 37.2242 28.2298 37.2078C27.6864 37.2076 27.246 36.7671 27.2462 36.2237C27.2462 36.1773 27.2495 36.1309 27.2561 36.0849L28.3358 28.5309C28.3708 28.2869 28.2699 28.0431 28.0726 27.8953L22.674 23.8463C22.4054 23.6449 22.0295 23.6716 21.792 23.9091L17.793 27.9128L11.7615 32.8478C11.3155 33.2173 10.6544 33.1553 10.2849 32.7094C9.92445 32.2744 9.97337 31.6319 10.3956 31.2566L15.9724 26.2372C16.0105 26.2031 16.0444 26.1646 16.0736 26.1225L20.7974 19.3743C20.8212 19.3405 20.8417 19.3046 20.8588 19.267L24.2329 11.8439C24.3871 11.5046 24.237 11.1046 23.8977 10.9504C23.8675 10.9366 23.8362 10.9252 23.8044 10.9161L19.0806 9.56642C18.8602 9.50257 18.6225 9.55571 18.4503 9.70746L14.0977 13.5162C13.7705 13.8219 13.2573 13.8046 12.9515 13.4774C12.6458 13.1501 12.6631 12.6369 12.9903 12.3312L17.7816 7.5595L26.0691 8.83491L29.8946 11.3871L33.8761 16.6932C34.0716 16.9542 34.4258 17.038 34.7176 16.8923L37.0396 15.7282C37.3128 15.5907 37.6311 15.5744 37.9169 15.683C38.2228 15.8025 38.4618 16.0486 38.5722 16.3578C38.7822 16.8813 38.5399 17.4771 38.0242 17.7055Z" fill="#FFD109"/>
<path d="M12.8216 5.49118H4.04893V6.84083H12.8216V5.49118Z" fill="#FFD109"/>
<path d="M2.69929 5.49118H1.34964V6.84083H2.69929V5.49118Z" fill="#FFD109"/>
<path d="M8.09787 10.8898H6.74822V12.2394H8.09787V10.8898Z" fill="#FFD109"/>
<path d="M5.39858 10.8898H0V12.2394H5.39858V10.8898Z" fill="#FFD109"/>
<path d="M10.1223 16.2883H3.37411V17.638H10.1223V16.2883Z" fill="#FFD109"/>
<path d="M12.8216 21.6869H1.34964V23.0365H12.8216V21.6869Z" fill="#FFD109"/>
<path d="M8.09786 27.0855H2.69929V28.4351H8.09786V27.0855Z" fill="#FFD109"/>
<path d="M1.34964 27.0855H0V28.4351H1.34964V27.0855Z" fill="#FFD109"/>
<path d="M6.0734 32.4841H1.34964V33.8337H6.0734V32.4841Z" fill="#FFD109"/>
<path d="M33.7411 1.44226H30.7044C28.6546 1.44226 26.9929 3.10393 26.9929 5.15378C26.9929 7.20364 28.6546 8.8653 30.7044 8.8653C32.7543 8.8653 34.4159 7.20364 34.4159 5.15378V2.11708C34.4159 1.74441 34.1138 1.44226 33.7411 1.44226ZM33.0663 5.15378C33.0713 6.45298 32.0223 7.51035 30.7231 7.51541C29.9946 7.51828 29.3058 7.18339 28.8581 6.6087C29.9814 5.49828 31.4871 4.85981 33.0663 4.82447V5.15378ZM33.0663 3.47483C31.3378 3.50629 29.6729 4.13235 28.352 5.24758C28.352 5.21587 28.3425 5.18617 28.3425 5.15378C28.3425 3.84935 29.4 2.79191 30.7044 2.79191H33.0663V3.47483Z" fill="#FFD109"/>
</g>
<defs>
<clipPath id="clip0">
<rect width="40" height="40" fill="white"/>
</clipPath>
</defs>
</svg>
