<svg width="40" height="40" viewBox="0 0 40 40" fill="none" xmlns="http://www.w3.org/2000/svg">
<g clip-path="url(#clip0)">
<path d="M20.1763 40C31.0193 40 39.8093 31.0457 39.8093 20C39.8093 8.9543 31.0193 0 20.1763 0C9.33328 0 0.543274 8.9543 0.543274 20C0.543274 31.0457 9.33328 40 20.1763 40Z" fill="#65A2D9"/>
<path d="M27.1 12.9253C23.011 12.4921 18.8647 10.3254 15.1523 13.1314C11.8471 15.5556 14.0946 20 14.2268 23.5018C14.3196 24.9202 14.0035 26.1133 13.4972 27.3198L25.2681 39.3193C32.0172 37.4779 37.3314 32.0651 39.1401 25.1903L27.1 12.9253Z" fill="#3A7CA5"/>
<path d="M30.5075 21.7461C30.1508 21.2439 29.9858 20.6308 29.9863 20.0113C29.9863 20.0076 29.9863 20.004 29.9863 20.0004C29.9863 14.4811 25.5942 10.0068 20.1764 10.0068C18.9909 10.0068 17.8552 10.2218 16.8036 10.6144C16.2348 10.8269 15.6115 10.8676 15.0282 10.7004C14.5132 10.5526 13.9626 10.4901 13.3924 10.5303C10.9974 10.6982 9.06929 12.6977 8.94505 15.1401C8.88592 16.3059 9.22889 17.3872 9.8451 18.2545C10.2014 18.7567 10.3668 19.3698 10.3663 19.9897V20.0007C10.3663 25.5197 14.7581 29.9939 20.1762 29.9939C21.3617 29.9939 22.4974 29.7793 23.549 29.3864C24.1178 29.1739 24.7411 29.1332 25.3244 29.3004C25.8394 29.4485 26.39 29.5107 26.9602 29.4708C29.3552 29.303 31.2833 27.3034 31.4075 24.8611C31.4667 23.695 31.1237 22.6136 30.5075 21.7461ZM20.5355 18.2085C22.5135 18.6878 25.5024 19.412 25.5024 22.7661C25.5024 24.4182 24.7036 25.6788 23.2533 26.3151C22.2184 26.7691 21.0469 26.8304 20.0373 26.8304C16.9352 26.8304 14.9762 24.3733 14.894 24.2687C14.3859 23.6197 14.4905 22.6739 15.1278 22.1563C15.765 21.6387 16.6935 21.7453 17.2014 22.3944C17.2058 22.3998 18.3776 23.7708 20.0372 23.8243C22.0355 23.8887 22.4922 23.2831 22.5513 22.7661C22.6234 22.1346 22.072 21.6712 19.8524 21.1332C17.9707 20.6776 15.1273 19.9886 15.1273 16.8997C15.1273 15.9377 15.5114 12.7991 20.4534 12.7991C23.574 12.7991 25.4162 15.3018 25.4932 15.4084C25.9757 16.0774 25.8348 17.0181 25.1781 17.5098C24.5245 17.9993 23.6067 17.8594 23.1222 17.1986C23.0874 17.1532 22.033 15.958 20.4534 15.8053C19.2584 15.6896 18.0784 16.1288 18.0784 16.7772C18.0787 17.4643 18.4175 17.6954 20.5355 18.2085Z" fill="white"/>
<path d="M22.5516 22.7658C22.6175 22.1895 22.1633 21.7532 20.3967 21.2725V23.8284C22.0916 23.8125 22.4961 23.2503 22.5516 22.7658Z" fill="white"/>
<path d="M30.5074 21.7464C30.1507 21.2443 29.9856 20.6311 29.9862 20.0115C29.9862 20.0079 29.9862 20.0043 29.9862 20.0006C29.9862 14.5565 25.7122 10.1325 20.3965 10.0127V12.8004C20.4159 12.8003 20.4339 12.7993 20.4535 12.7993C23.5742 12.7993 25.4164 15.3021 25.4933 15.4086C25.9758 16.0776 25.8349 17.0183 25.1782 17.51C24.5246 17.9996 23.6068 17.8597 23.1223 17.1988C23.0875 17.1534 22.0331 15.9582 20.4535 15.8055C20.4345 15.8036 20.4155 15.8032 20.3965 15.8016V18.1748C20.4422 18.186 20.4879 18.1973 20.5353 18.2087C22.5133 18.688 25.5023 19.4121 25.5023 22.7663C25.5023 24.4184 24.7034 25.679 23.2531 26.3154C22.3389 26.7164 21.3181 26.811 20.3965 26.8275V29.9888C21.5022 29.9639 22.5627 29.7546 23.5488 29.3862C24.1175 29.1737 24.7409 29.133 25.3241 29.3003C25.8392 29.4483 26.3897 29.5105 26.9599 29.4707C29.3549 29.3029 31.283 27.3032 31.4073 24.861C31.4666 23.6953 31.1236 22.6139 30.5074 21.7464Z" fill="#D1D1D1"/>
<path d="M18.0788 16.7764C18.0788 17.4481 18.4036 17.6842 20.3968 18.1738V15.8006C19.2215 15.7039 18.0788 16.1381 18.0788 16.7764Z" fill="white"/>
</g>
<defs>
<clipPath id="clip0">
<rect width="39.2661" height="40" fill="white" transform="translate(0.543274)"/>
</clipPath>
</defs>
</svg>
