<svg width="40" height="40" viewBox="0 0 40 40" fill="none" xmlns="http://www.w3.org/2000/svg">
<g clip-path="url(#clip0)">
<path d="M19.95 40.0005C30.7929 40.0005 39.5828 31.0463 39.5828 20.0007C39.5828 8.95517 30.7929 0.000976562 19.95 0.000976562C9.10711 0.000976562 0.3172 8.95517 0.3172 20.0007C0.3172 31.0463 9.10711 40.0005 19.95 40.0005Z" fill="#41B4E6"/>
<path d="M39.5834 20.0004C39.5834 19.5131 39.5653 19.0302 39.5317 18.5515L31.3949 10.2627L8.5058 19.4345L17.2633 28.3557L17.3782 28.777L17.5269 28.6243L17.5275 28.6249L17.3782 28.777L27.0656 38.6455C34.3912 35.7424 39.5834 28.4895 39.5834 20.0004Z" fill="#0091C8"/>
<path d="M18.0435 22.9143L26.9161 29.7383L31.3948 10.2627L8.50565 19.4345L15.4705 21.7846L28.1816 13.0989L18.0435 22.9143Z" fill="white"/>
<path d="M15.4705 21.7843L17.378 28.7768L18.0435 22.9139L28.1816 13.0986L15.4705 21.7843Z" fill="#D2D2D7"/>
<path d="M20.9272 25.1319L17.3781 28.7769L18.0436 22.9141L20.9272 25.1319Z" fill="#B9B9BE"/>
</g>
<defs>
<clipPath id="clip0">
<rect width="39.2661" height="40" fill="white" transform="translate(0.3172)"/>
</clipPath>
</defs>
</svg>
