<svg width="12" height="24" viewBox="0 0 12 24" fill="none" xmlns="http://www.w3.org/2000/svg">
<path d="M6 23.0164C3.0388 23.0164 0.629704 20.7393 0.629704 17.9405V4.08675C0.629704 2.0164 2.41176 0.332031 4.60219 0.332031C6.79267 0.332031 8.57473 2.0164 8.57473 4.08675V15.3217C8.57473 16.6555 7.42668 17.7406 6.0155 17.7406C4.60436 17.7406 3.45631 16.6555 3.45631 15.3217V7.78386C3.45631 7.39361 3.77267 7.07726 4.16292 7.07726C4.55317 7.07726 4.86953 7.39361 4.86953 7.78386V15.3217C4.86953 15.919 5.38361 16.4049 6.0155 16.4049C6.64744 16.4049 7.16152 15.919 7.16152 15.3217V4.08675C7.16152 2.75293 6.01343 1.66777 4.60219 1.66777C3.19101 1.66777 2.04291 2.75293 2.04291 4.08675V17.9404C2.04291 20.0028 3.8181 21.6806 6 21.6806C8.1819 21.6806 9.95709 20.0028 9.95709 17.9404V7.98418C9.95709 7.59393 10.2734 7.27757 10.6637 7.27757C11.0539 7.27757 11.3703 7.59393 11.3703 7.98418V17.9404C11.3703 20.7393 8.9612 23.0164 6 23.0164Z" fill="#FFD109"/>
</svg>
