<svg width="42" height="40" viewBox="0 0 42 40" fill="none" xmlns="http://www.w3.org/2000/svg">
<g clip-path="url(#clip0)">
<path d="M20.9639 40C32.1145 40 41.1538 31.0457 41.1538 20C41.1538 8.9543 32.1145 0 20.9639 0C9.81325 0 0.773895 8.9543 0.773895 20C0.773895 31.0457 9.81325 40 20.9639 40Z" fill="#6F3FAA"/>
<path d="M29.7229 10.9726C24.8085 9.79679 19.8854 8.42148 14.8457 10.1688C11.5826 11.3809 11.5826 14.8826 11.7186 17.8456C11.7186 18.6537 10.7669 19.7312 11.1747 20.6739C11.9904 23.3675 12.6703 26.0611 15.5254 27.4079C15.9333 27.6773 15.5254 28.2159 15.7974 28.62C15.6614 28.62 15.3895 28.7547 15.3895 28.8894C15.3895 29.5349 15.6819 30.5223 15.4876 31.1589L24.1635 39.7495C33.0826 38.3425 40.0535 31.1505 41.0343 22.1776L29.7229 10.9726Z" fill="#512D84"/>
<path d="M31.6446 14.0561L31.638 14.0297C31.0985 11.8693 28.6664 9.55117 26.4329 9.06891L26.4078 9.06375C22.7952 8.38109 19.1322 8.38109 15.5204 9.06375L15.4944 9.06891C13.2617 9.55117 10.8295 11.8695 10.2894 14.0297L10.2834 14.0561C9.61648 17.073 9.61648 20.1327 10.2834 23.1497L10.2894 23.1761C10.8066 25.2442 13.0575 27.4559 15.2077 28.0641V30.4757C15.2077 31.3486 16.2815 31.7773 16.892 31.1473L19.3586 28.6076C19.8936 28.6372 20.4289 28.6537 20.964 28.6537C22.7825 28.6537 24.6018 28.4834 26.4077 28.1421L26.4328 28.137C28.6663 27.6547 31.0984 25.3364 31.6379 23.1762L31.6445 23.1498C32.3114 20.1327 32.3114 17.0732 31.6446 14.0561ZM29.6926 22.7123C29.3324 24.1217 27.4858 25.8739 26.0185 26.1977C24.0977 26.5595 22.1616 26.7141 20.2275 26.6611C20.189 26.66 20.152 26.6748 20.1253 26.7022C19.8507 26.9813 18.3244 28.5336 18.3244 28.5336L16.4088 30.4811C16.2688 30.6258 16.0227 30.5273 16.0227 30.3277V26.3327C16.0227 26.2666 15.9751 26.2106 15.9097 26.1978C15.9093 26.1977 15.909 26.1977 15.9086 26.1976C14.4413 25.8738 12.5954 24.1216 12.2345 22.7122C11.6343 19.9852 11.6343 17.2206 12.2345 14.4936C12.5954 13.0841 14.4413 11.332 15.9086 11.0082C19.2633 10.3762 22.6646 10.3762 26.0186 11.0082C27.4866 11.332 29.3325 13.0841 29.6926 14.4936C30.2935 17.2207 30.2935 19.9852 29.6926 22.7123Z" fill="white"/>
<path d="M24.1556 24.5555C23.93 24.4876 23.7151 24.4421 23.5153 24.3601C21.4466 23.5099 19.5427 22.413 18.0347 20.7317C17.1771 19.7756 16.5059 18.6961 15.9385 17.5538C15.6694 17.0121 15.4426 16.4492 15.2115 15.8898C15.0008 15.3798 15.3112 14.8529 15.638 14.4685C15.9447 14.1078 16.3394 13.8319 16.7669 13.6284C17.1005 13.4696 17.4295 13.5612 17.6732 13.8413C18.1999 14.4469 18.6838 15.0835 19.0755 15.7855C19.3164 16.2173 19.2503 16.7451 18.8137 17.0389C18.7075 17.1103 18.6108 17.1942 18.512 17.2749C18.4252 17.3456 18.3437 17.417 18.2842 17.5127C18.1756 17.6878 18.1704 17.8944 18.2403 18.0848C18.7787 19.5505 19.6862 20.6903 21.1757 21.3043C21.414 21.4025 21.6533 21.5168 21.9279 21.4852C22.3877 21.432 22.5366 20.9323 22.8588 20.6713C23.1738 20.4162 23.5763 20.4128 23.9155 20.6255C24.2549 20.8383 24.5837 21.0666 24.9107 21.2975C25.2317 21.524 25.5512 21.7455 25.8472 22.0039C26.1319 22.2522 26.2299 22.578 26.0696 22.915C25.7762 23.5322 25.3491 24.0456 24.7333 24.3734C24.5594 24.4657 24.3516 24.4957 24.1556 24.5555C23.93 24.4876 24.3516 24.4957 24.1556 24.5555Z" fill="white"/>
<path d="M20.9695 12.9239C23.6754 12.9991 25.8979 14.7779 26.3742 17.4279C26.4554 17.8795 26.4842 18.341 26.5203 18.7994C26.5356 18.9921 26.4253 19.1752 26.2154 19.1778C25.9985 19.1804 25.9009 19.0006 25.8867 18.808C25.8589 18.4266 25.8396 18.0434 25.7865 17.6652C25.5064 15.6684 23.8991 14.0165 21.8927 13.662C21.5908 13.6087 21.2819 13.5947 20.976 13.5629C20.7827 13.5428 20.5295 13.5313 20.4867 13.2931C20.4508 13.0935 20.6208 12.9346 20.8127 12.9244C20.8647 12.9213 20.9171 12.9238 20.9695 12.9239C23.6755 12.9991 20.9171 12.9238 20.9695 12.9239Z" fill="white"/>
<path d="M25.0817 18.2044C25.0772 18.2379 25.0749 18.3166 25.055 18.3906C24.9833 18.6597 24.5713 18.6934 24.4765 18.4219C24.4484 18.3414 24.4442 18.2496 24.444 18.1629C24.4431 17.5953 24.3186 17.0281 24.0295 16.5341C23.7324 16.0263 23.2785 15.5997 22.7462 15.3413C22.4243 15.1853 22.0762 15.0881 21.7234 15.0304C21.5692 15.0051 21.4133 14.9899 21.2584 14.9685C21.0706 14.9426 20.9703 14.8241 20.9793 14.6408C20.9875 14.4691 21.1143 14.3454 21.3032 14.3561C21.9242 14.391 22.524 14.5241 23.0762 14.8136C24.1988 15.4026 24.8401 16.3321 25.0274 17.5735C25.0358 17.6298 25.0494 17.6854 25.0537 17.7418C25.0643 17.881 25.071 18.0205 25.0817 18.2044C25.0772 18.2378 25.071 18.0205 25.0817 18.2044Z" fill="white"/>
<path d="M23.3987 18.1399C23.1723 18.144 23.0512 18.0198 23.0278 17.8143C23.0116 17.671 22.9987 17.5257 22.9641 17.3862C22.8961 17.1114 22.7487 16.8569 22.5155 16.6885C22.4054 16.6091 22.2805 16.5512 22.1498 16.5137C21.9838 16.4661 21.8113 16.4792 21.6457 16.4391C21.4658 16.3954 21.3663 16.251 21.3946 16.0839C21.4203 15.9317 21.5697 15.813 21.7376 15.8251C22.7867 15.9001 23.5365 16.4373 23.6435 17.6608C23.6511 17.7471 23.66 17.8383 23.6407 17.921C23.6074 18.0622 23.5017 18.133 23.3987 18.1399C23.1723 18.1439 23.5017 18.133 23.3987 18.1399Z" fill="white"/>
<path d="M31.6446 14.0566L31.6379 14.0302C31.3356 12.8191 30.4382 11.5587 29.3147 10.5996L27.7958 11.933C28.699 12.6459 29.4728 13.6335 29.6927 14.494C30.2937 17.2211 30.2937 19.9855 29.6927 22.7127C29.3325 24.1222 27.4858 25.8744 26.0187 26.1981C24.0979 26.56 22.1617 26.7146 20.2276 26.6616C20.1891 26.6605 20.1521 26.6753 20.1254 26.7027C19.8509 26.9817 18.3245 28.5341 18.3245 28.5341L16.4089 30.4816C16.2689 30.6262 16.0228 30.5279 16.0228 30.3281V26.3331C16.0228 26.2671 15.9753 26.2111 15.9098 26.1983C15.9094 26.1983 15.9091 26.1981 15.9087 26.1981C15.0748 26.0141 14.119 25.3686 13.3827 24.5871L11.8819 25.9045C12.8192 26.9146 14.0282 27.7312 15.2076 28.0648V30.4763C15.2076 31.3492 16.2813 31.7779 16.8919 31.148L19.3585 28.6082C19.8935 28.6378 20.4286 28.6544 20.9639 28.6544C22.7824 28.6544 24.6017 28.484 26.4076 28.1427L26.4327 28.1377C28.6662 27.6554 31.0983 25.3373 31.6378 23.1769L31.6444 23.1505C32.3114 20.1332 32.3114 17.0737 31.6446 14.0566Z" fill="#D1D1D1"/>
<path d="M24.1559 24.5573C24.3529 24.4967 23.9294 24.4886 24.1559 24.5573V24.5573Z" fill="white"/>
<path d="M25.8473 22.0049C25.5513 21.7467 25.2317 21.5251 24.9108 21.2985C24.5839 21.0677 24.255 20.8394 23.9156 20.6266C23.5764 20.4139 23.174 20.4173 22.859 20.6723C22.5367 20.9334 22.3879 21.433 21.928 21.4862C21.6535 21.5179 21.4141 21.4035 21.1758 21.3054C20.2594 20.9277 19.5641 20.3502 19.0386 19.6211L17.9219 20.6016C17.9598 20.6451 17.996 20.6898 18.0346 20.7327C19.5427 22.4141 21.4466 23.5109 23.5152 24.3612C23.7148 24.4432 23.9299 24.4888 24.1555 24.5566C23.9299 24.4887 24.3517 24.4968 24.1555 24.5566C24.3517 24.4968 24.5593 24.4667 24.7333 24.3744C25.3493 24.0466 25.7762 23.5331 26.0696 22.9159C26.2301 22.5791 26.132 22.2533 25.8473 22.0049Z" fill="#D1D1D1"/>
<path d="M20.9702 12.9238C20.9725 12.9238 20.9747 12.9241 20.977 12.9241C21.1272 12.9294 23.5695 12.9969 20.9702 12.9238Z" fill="white"/>
<path d="M24.8507 14.5186L24.3746 14.9366C25.1228 15.6577 25.6387 16.6134 25.7862 17.6651C25.8392 18.0434 25.8587 18.4264 25.8865 18.8079C25.9007 19.0006 25.9981 19.1804 26.2152 19.1779C26.4252 19.1753 26.5354 18.9922 26.5202 18.7994C26.484 18.3411 26.4552 17.8794 26.374 17.4279C26.1656 16.2679 25.6224 15.2749 24.8507 14.5186Z" fill="#D1D1D1"/>
<path d="M25.0271 17.5732C24.8907 16.6686 24.5119 15.9305 23.8827 15.3682L23.408 15.785C23.6535 16.0008 23.8659 16.2543 24.0294 16.5339C24.3185 17.0279 24.443 17.5951 24.444 18.1628C24.4441 18.2495 24.4483 18.3412 24.4764 18.4219C24.5713 18.6936 24.9832 18.6599 25.0549 18.3907C25.0748 18.3164 25.0771 18.2378 25.0816 18.2044C25.0771 18.2379 25.0707 18.0206 25.0816 18.2044C25.0707 18.0206 25.0641 17.8811 25.0534 17.7417C25.0493 17.685 25.0356 17.6294 25.0271 17.5732Z" fill="#D1D1D1"/>
<path d="M25.0818 18.2047C25.0706 18.0208 25.0771 18.2381 25.0818 18.2047V18.2047Z" fill="white"/>
<path d="M23.3998 18.1409C23.4034 18.1406 23.4068 18.1382 23.4103 18.1377C23.4006 18.1377 23.3856 18.138 23.3703 18.1387C23.3803 18.1391 23.3893 18.1411 23.3998 18.1409Z" fill="white"/>
<path d="M23.3986 18.1418C23.3884 18.142 23.3794 18.1401 23.3696 18.1396C23.3207 18.1414 23.2701 18.1448 23.3986 18.1418Z" fill="white"/>
<path d="M23.409 18.1377C23.4054 18.1382 23.402 18.1406 23.3986 18.1409C23.4253 18.1385 23.423 18.1377 23.409 18.1377Z" fill="white"/>
<path d="M22.9209 16.2129L22.4376 16.6373C22.4643 16.6533 22.4904 16.67 22.5157 16.6882C22.749 16.8566 22.8964 17.1111 22.9644 17.3859C22.9989 17.5254 23.0117 17.6705 23.028 17.814C23.0503 18.0103 23.1629 18.131 23.37 18.138C23.3851 18.1377 23.3999 18.1373 23.4093 18.1373C23.509 18.1263 23.6089 18.0571 23.6408 17.9205C23.6601 17.838 23.6513 17.7466 23.6437 17.6603C23.5836 16.9763 23.3225 16.507 22.9209 16.2129Z" fill="#D1D1D1"/>
</g>
<defs>
<clipPath id="clip0">
<rect width="40.3799" height="40" fill="white" transform="translate(0.773895)"/>
</clipPath>
</defs>
</svg>
