<svg width="36" height="36" viewBox="0 0 36 36" fill="none" xmlns="http://www.w3.org/2000/svg">
<path d="M35.8193 16.7702H34.0921V8.82485C34.0921 6.92002 32.5424 5.37038 30.6376 5.37038H28.2982L25.9043 1.0661C25.5394 0.408293 24.845 0 24.092 0C23.741 0 23.3928 0.0905168 23.0853 0.261123L13.8978 5.37027H3.6352C1.73037 5.37027 0.180725 6.91991 0.180725 8.82474V32.5454C0.180725 34.4502 1.73037 35.9999 3.6352 35.9999H30.6376C32.5424 35.9999 34.0921 34.4502 34.0921 32.5454V25.5791H35.8193V16.7702ZM30.6376 6.7521C31.7015 6.7521 32.5707 7.56041 32.6874 8.59469H30.091L29.0671 6.7521H30.6376ZM23.7576 1.4688C24.0816 1.28712 24.5176 1.41419 24.6965 1.73691L28.5102 8.59404H10.9435L23.7576 1.4688ZM32.7102 32.5454C32.7102 33.6882 31.7802 34.6182 30.6375 34.6182H3.6352C2.49245 34.6182 1.56245 33.6882 1.56245 32.5454V8.82485C1.56245 7.6821 2.49245 6.7521 3.6352 6.7521H11.4133L8.09976 8.5948H4.06704C3.68497 8.5948 3.37612 8.9043 3.37612 9.28571C3.37612 9.66713 3.68497 9.97663 4.06704 9.97663H5.61464H30.8594H32.7102V16.7709H27.6577C25.3114 16.7709 23.4018 18.6805 23.4018 21.0268V21.3239C23.4018 23.6703 25.3115 25.5798 27.6577 25.5798H32.7102V32.5454ZM34.4375 24.1973H34.0921H27.6577C26.0728 24.1973 24.7836 22.9082 24.7836 21.3232V21.026C24.7836 19.4411 26.0727 18.1518 27.6577 18.1518H34.0921H34.4375V24.1973ZM29.7739 21.2314C29.7739 22.0743 29.0913 22.7568 28.2485 22.7568C27.4055 22.7568 26.723 22.0742 26.723 21.2314C26.723 20.3885 27.4056 19.7059 28.2485 19.7059C29.0914 19.7058 29.7739 20.3891 29.7739 21.2314Z" fill="#FFD109"/>
</svg>
