<svg width="40" height="40" viewBox="0 0 40 40" fill="none" xmlns="http://www.w3.org/2000/svg">
<path d="M34.4623 27.4401C34.4524 27.4377 34.4422 27.4353 34.4321 27.4333L30.561 26.6595C30.8563 26.0979 31.0151 25.5006 31.0151 24.8787V17.1922H31.7495C32.4879 17.1922 33.0886 16.5915 33.0886 15.8531V13.7797C33.0886 13.0413 32.4879 12.4406 31.7495 12.4406H31.0151V11.7063C31.0151 8.59896 29.7008 5.73235 27.5594 3.70255V3.41253C27.5594 3.0546 27.2693 2.76458 26.9115 2.76458C26.7839 2.76458 26.6653 2.80199 26.5651 2.86557C25.4264 2.01581 24.1141 1.3784 22.6814 1.02004C22.5376 0.435421 22.0105 0 21.3823 0H18.6177C17.9895 0 17.4624 0.435508 17.3186 1.02004C15.8859 1.37849 14.5736 2.01581 13.4349 2.86557C13.3347 2.80199 13.2161 2.76458 13.0886 2.76458C12.7307 2.76458 12.4406 3.0546 12.4406 3.41253V3.70255C10.2992 5.73227 8.98489 8.59888 8.98489 11.7063V12.4406H8.25054C7.51214 12.4406 6.91145 13.0413 6.91145 13.7797V15.8531C6.91145 16.5915 7.51214 17.1922 8.25054 17.1922H8.98489V24.8787C8.98489 25.5006 9.14368 26.0979 9.43905 26.6595L5.56787 27.4333C5.55776 27.4353 5.54774 27.4377 5.53771 27.4401C3.09106 28.0517 1.38229 30.2403 1.38229 32.7623V37.9698C1.38229 39.0892 2.29305 40 3.41253 40H36.5875C37.707 40 38.6177 39.0892 38.6177 37.9698V32.7623C38.6177 30.2403 36.9089 28.0517 34.4623 27.4401ZM31.1015 38.7041H8.89849V35.2052C8.89849 34.4192 9.53797 33.7797 10.324 33.7797H29.676C30.462 33.7797 31.1015 34.4192 31.1015 35.2052V38.7041ZM10.2808 16.5443V13.0886V12.3542H29.7192V13.0886V16.5443V24.8787C29.7192 27.5026 25.2683 29.7192 20 29.7192C14.7317 29.7192 10.2808 27.5026 10.2808 24.8787V16.5443ZM13.7365 4.28164C14.7536 3.4197 15.9528 2.76 17.2786 2.374V11.0583H13.7365V4.28164ZM22.7214 2.374C24.0472 2.76 25.2464 3.4197 26.2635 4.28164V11.0583H22.7214V2.374ZM27.5594 32.4838V29.379C28.1051 29.095 28.5976 28.78 29.0281 28.438V32.4838H27.5594ZM13.7365 32.4838V29.9563C15.504 30.6264 17.6554 31.0151 20 31.0151C22.3446 31.0151 24.496 30.6264 26.2635 29.9563V32.4838H13.7365ZM10.9719 32.4838V28.438C11.4024 28.78 11.8949 29.095 12.4406 29.379V32.4838H10.9719ZM31.7495 13.7365C31.7733 13.7365 31.7927 13.7559 31.7927 13.7797V15.8531C31.7927 15.8769 31.7733 15.8963 31.7495 15.8963H31.0151V13.7365H31.7495ZM29.6952 11.0583H27.5594V5.60881C28.7869 7.13209 29.5588 9.02324 29.6952 11.0583ZM18.6177 1.2959H21.3823C21.4061 1.2959 21.4255 1.31533 21.4255 1.33909V11.0583H18.5745V1.33909C18.5745 1.31533 18.5939 1.2959 18.6177 1.2959ZM12.4406 5.60881V11.0583H10.3048C10.4412 9.02324 11.2131 7.13209 12.4406 5.60881ZM8.25054 15.8963C8.2267 15.8963 8.20735 15.8769 8.20735 15.8531V13.7797C8.20735 13.7559 8.2267 13.7365 8.25054 13.7365H8.98489V15.8963H8.25054ZM2.67819 37.9698V32.7623C2.67819 30.8411 3.97651 29.1731 5.83759 28.701L9.67603 27.9337V32.5623C8.48735 32.8538 7.6026 33.9279 7.6026 35.2052V38.7041H3.41253C3.00761 38.7041 2.67819 38.3747 2.67819 37.9698ZM37.3218 37.9698C37.3218 38.3747 36.9924 38.7041 36.5875 38.7041H32.3974V35.2052C32.3974 33.9279 31.5127 32.8539 30.324 32.5623V27.9337L34.1624 28.701C36.0235 29.1731 37.3218 30.841 37.3218 32.7623V37.9698Z" fill="#FFD109"/>
<path d="M14.4709 19.9568H25.5292C26.6486 19.9568 27.5594 19.0461 27.5594 17.9266V15.8531C27.5594 14.7337 26.6486 13.8229 25.5292 13.8229H14.4709C13.3514 13.8229 12.4406 14.7337 12.4406 15.8531V17.9266C12.4406 19.0461 13.3514 19.9568 14.4709 19.9568ZM13.7365 15.8531C13.7365 15.4482 14.0659 15.1188 14.4709 15.1188H25.5292C25.9341 15.1188 26.2635 15.4482 26.2635 15.8531V17.9266C26.2635 18.3315 25.9341 18.6609 25.5292 18.6609H14.4709C14.0659 18.6609 13.7365 18.3315 13.7365 17.9266V15.8531Z" fill="#FFD109"/>
</svg>
