<svg width="40" height="40" viewBox="0 0 40 40" fill="none" xmlns="http://www.w3.org/2000/svg">
<g clip-path="url(#clip0)">
<path d="M19.9096 40C30.9053 40 39.8191 31.0457 39.8191 20C39.8191 8.9543 30.9053 0 19.9096 0C8.91381 0 0 8.9543 0 20C0 31.0457 8.91381 40 19.9096 40Z" fill="#75B73B"/>
<path d="M28.0165 11.8607C26.8621 11.5707 25.1645 10.5691 24.0657 10.1676C19.7754 8.82085 14.0103 9.89827 12.4015 14.8815C12.2674 15.0162 11.9992 15.0162 11.8652 15.0162C8.64744 18.7872 10.7926 23.3663 10.5245 27.5414C10.4329 29.0132 9.66252 30.3146 8.67108 31.4155L17.0146 39.7881C17.9598 39.9264 18.9261 39.9993 19.9095 39.9993C29.7426 39.9993 37.9099 32.838 39.5272 23.4242L28.0165 11.8607Z" fill="#52891D"/>
<path d="M19.3525 8.47234C13.2841 8.76234 8.4953 13.8392 8.51357 19.9419C8.51917 21.8007 8.96589 23.5552 9.75403 25.1056L8.54414 31.0052C8.47873 31.3244 8.76524 31.6038 9.08084 31.5287L14.8356 30.1591C16.3141 30.8991 17.9747 31.3262 19.7322 31.3532C25.9347 31.4484 31.1064 26.5012 31.3 20.2728C31.507 13.5964 26.0218 8.1532 19.3525 8.47234ZM26.2192 26.2449C24.534 27.9378 22.2931 28.8702 19.9096 28.8702C18.5141 28.8702 17.1778 28.5556 15.9381 27.9354L15.1369 27.5343L11.6084 28.3739L12.3511 24.7523L11.9564 23.9755C11.3127 22.7094 10.9864 21.3405 10.9864 19.9065C10.9864 17.5121 11.9146 15.2612 13.5998 13.5682C15.2701 11.8902 17.5475 10.9429 19.9098 10.9429C22.293 10.9429 24.5339 11.8753 26.2192 13.5682C27.9044 15.2611 28.8326 17.5122 28.8326 19.9062C28.8327 22.2794 27.8895 24.567 26.2192 26.2449Z" fill="white"/>
<path d="M25.4404 22.3892L23.2329 21.7525C22.9429 21.669 22.6302 21.7518 22.4188 21.9682L21.8789 22.5205C21.6513 22.7536 21.306 22.8284 21.0047 22.706C19.9605 22.2814 17.7638 20.3194 17.2032 19.3383C17.0411 19.0552 17.0679 18.7015 17.2667 18.4429L17.7379 17.8304C17.9225 17.5906 17.9614 17.2682 17.8394 16.9908L16.9107 14.8808C16.6883 14.3755 16.0454 14.2283 15.6253 14.5852C15.0093 15.1087 14.2783 15.904 14.1896 16.7852C14.0329 18.3389 14.6963 20.2972 17.2042 22.6489C20.1017 25.3659 22.4222 25.7246 23.9332 25.357C24.7902 25.1486 25.4751 24.3129 25.907 23.6284C26.2018 23.1614 25.9688 22.5418 25.4404 22.3892Z" fill="white"/>
<path d="M27.6871 11.54L25.9588 13.3196C26.0467 13.4012 26.1343 13.4833 26.2194 13.5689C27.9047 15.2618 28.8328 17.5129 28.8328 19.9069C28.8328 22.28 27.8896 24.5675 26.2194 26.2455C24.5341 27.9384 22.2932 28.8708 19.9097 28.8708C18.5142 28.8708 17.178 28.5562 15.9383 27.936L15.1371 27.5349L11.6086 28.3745L11.6815 28.0188L8.5571 31.2354C8.626 31.4434 8.84524 31.585 9.08081 31.5289L14.8355 30.1594C16.3141 30.8993 17.9747 31.3265 19.7322 31.3535C25.9347 31.4487 31.1065 26.5015 31.3 20.2731C31.4069 16.8251 29.9955 13.7062 27.6871 11.54Z" fill="#D1D1D1"/>
<path d="M25.4403 22.3896L23.2328 21.7529C22.9428 21.6694 22.6301 21.7521 22.4187 21.9686L21.8788 22.5209C21.6512 22.754 21.3059 22.8288 21.0046 22.7064C20.4014 22.4611 19.4141 21.7029 18.5793 20.917L17.0447 22.4971C17.0974 22.5477 17.1499 22.5982 17.2042 22.6493C20.1017 25.3663 22.4222 25.725 23.9332 25.3574C24.7902 25.149 25.475 24.3132 25.907 23.6288C26.2017 23.1618 25.9687 22.5422 25.4403 22.3896Z" fill="#D1D1D1"/>
</g>
<defs>
<clipPath id="clip0">
<rect width="39.8191" height="40" fill="white"/>
</clipPath>
</defs>
</svg>
