<svg width="71" height="72" viewBox="0 0 71 72" fill="none" xmlns="http://www.w3.org/2000/svg">
<path d="M71 72H0V53.5853H19.4677V40.645H51.5321V53.5853H70.9998V72H71Z" fill="#FFD205"/>
<path d="M36.6452 45.29H32.0645V47.6127H34.3548V52.2579H32.0645V54.5805H38.9356V52.2579H36.6452V45.29Z" fill="#465861"/>
<path d="M5.72589 60.3871H10.3064V61.8028L5.72589 62.9641V67.3547H12.5968V65.0323H8.01602V64.778L12.5968 63.6167V58.0645H5.72589V60.3871Z" fill="#465861"/>
<path d="M58.4032 58.0645V60.3871H62.984V61.5484H58.4032V63.871H62.984V65.0323H58.4032V67.3547H65.2743V58.0645H58.4032Z" fill="#465861"/>
<path d="M46.3824 1.20765C44.7483 1.47713 43.5161 3.00986 43.5161 4.76939V7.4705L39.5846 9.86288C40.5971 8.81545 41.2257 7.38588 41.2257 5.80657C41.2257 2.60479 38.6571 0 35.4998 0C32.3425 0 29.7738 2.60479 29.7738 5.80657C29.7738 7.71218 30.6968 9.39269 32.0996 10.4518H27.4835V8.25357C27.4835 6.49307 26.2512 4.96131 24.6171 4.69183C23.6117 4.52698 22.5925 4.81133 21.8242 5.47466C21.0534 6.13775 20.6126 7.10518 20.6126 8.12944V13.9731C20.6126 15.8741 22.1368 17.4197 24.0104 17.4197H29.7741V36.0002C29.7741 37.921 31.3156 39.4842 33.2096 39.4842C34.0891 39.4842 34.8918 39.1474 35.5 38.5945C36.1082 39.1474 36.9109 39.4842 37.7904 39.4842C39.6844 39.4842 41.2259 37.921 41.2259 36.0002V16.2964L48.8986 11.9728C49.817 11.4561 50.3872 10.4735 50.3872 9.40879V4.64526C50.3872 3.621 49.9464 2.65356 49.1756 1.99048C48.407 1.32739 47.3891 1.04401 46.3824 1.20765ZM35.5 2.32263C37.3941 2.32263 38.9356 3.88584 38.9356 5.80657C38.9356 7.7273 37.3941 9.29051 35.5 9.29051C33.606 9.29051 32.0645 7.7273 32.0645 5.80657C32.0645 3.88584 33.606 2.32263 35.5 2.32263ZM48.0968 9.41001C48.0968 9.63071 47.9778 9.83507 47.7866 9.94311L38.9356 14.9286V36.0002C38.9356 36.6414 38.4214 37.1616 37.7904 37.1616C37.1594 37.1616 36.6452 36.6414 36.6452 36.0002V24.3871H34.3548V36C34.3548 36.6411 33.8407 37.1613 33.2096 37.1613C32.5786 37.1613 32.0645 36.6411 32.0645 36V15.0968H24.0106C23.4003 15.0968 22.9032 14.5918 22.9032 13.9726V8.12895C22.9032 7.78753 23.0499 7.46465 23.3075 7.24297C23.5674 7.01885 23.8983 6.9235 24.2487 6.98398C24.779 7.07226 25.1936 7.62853 25.1936 8.25333V12.7742H39.2528L45.8064 8.78643V4.76939C45.8064 4.14459 46.221 3.5871 46.7513 3.50004C47.0995 3.442 47.4326 3.53491 47.6925 3.75903C47.9501 3.98095 48.0968 4.30359 48.0968 4.64501V9.41001Z" fill="#465861"/>
</svg>
