<svg width="73" height="71" viewBox="0 0 73 71" fill="none" xmlns="http://www.w3.org/2000/svg">
<path d="M63.8639 50.0446C63.8522 49.9195 63.8299 49.7978 63.8135 49.6739C63.7889 49.4926 63.7654 49.3125 63.7302 49.1324C63.6986 48.9675 63.6587 48.8061 63.6189 48.6435C63.5884 48.5172 63.5579 48.392 63.5216 48.2669C63.4653 48.0704 63.4008 47.8786 63.334 47.688C63.3176 47.6412 63.3059 47.5932 63.2883 47.5465C65.184 45.6834 66.2567 43.1489 66.2567 40.4672C66.2567 36.0217 63.2812 32.1353 59.0666 30.9201C58.1181 24.732 52.6783 20 46.3264 20C45.8973 20 45.4729 20.0222 45.0555 20.0632L45.2865 22.3906C45.6288 22.3566 45.9747 22.3391 46.3264 22.3391C51.7568 22.3391 56.3713 26.5659 56.832 31.9633L56.9059 32.8417L57.7723 33.0124C61.3304 33.7107 63.912 36.8451 63.912 40.4672C63.912 42.2706 63.2695 43.9793 62.1311 45.336C60.3292 42.7513 57.335 41.0519 53.9468 41.0519V43.391C56.9844 43.391 59.6058 45.1781 60.8286 47.75C60.9435 47.9921 61.0443 48.2388 61.1334 48.4868C61.1405 48.5067 61.1487 48.5265 61.1557 48.5464C61.2343 48.7745 61.2988 49.0061 61.355 49.2388C61.3644 49.2797 61.3773 49.3207 61.3867 49.3628C61.4347 49.5791 61.4687 49.7978 61.4981 50.0166C61.5051 50.0704 61.5168 50.123 61.5227 50.178C61.5508 50.4481 61.5672 50.7195 61.5672 50.9931C61.5672 55.1848 58.1486 58.5952 53.9468 58.5952C52.2398 58.5952 50.6208 58.0373 49.2655 56.9824L48.7849 56.6081C47.2162 55.1766 46.3018 53.1369 46.3018 50.9931H43.957C43.957 53.6854 45.0708 56.2432 46.9759 58.1005C45.5351 59.8899 43.3849 60.9343 41.0507 60.9343C38.1397 60.9343 35.5242 59.311 34.2275 56.697L33.5053 55.2433L32.3506 56.3883C30.9132 57.8104 29.007 58.5952 26.9823 58.5952C26.0549 58.5952 25.1569 58.4104 24.3046 58.0876C26.9776 56.3029 28.7408 53.2656 28.7408 49.8236C28.7408 49.5745 28.708 49.3324 28.6904 49.0868C30.5557 48.764 32.299 47.9219 33.714 46.6272L32.129 44.9021C31.0363 45.9009 29.6905 46.5465 28.2484 46.7874C27.4641 44.3454 25.7665 42.2577 23.4124 41.0204L22.3198 43.0905C24.8345 44.4132 26.3961 46.9921 26.3961 49.8236C26.3961 53.1053 24.2964 55.8994 21.3701 56.9625C20.9575 57.1111 20.5389 57.2233 20.118 57.3005C20.0899 57.3052 20.0618 57.3087 20.0336 57.3134C19.6151 57.3847 19.1954 57.4257 18.7757 57.4257C14.5739 57.4257 11.1553 54.0153 11.1553 49.8236C11.1553 48.6985 11.405 47.6049 11.8974 46.5699L12.2186 45.8962L11.7403 45.322C10.6066 43.9594 9.9829 42.2367 9.9829 40.4672C9.9829 36.8579 12.5539 33.7235 16.0956 33.0148L16.9948 32.8358L17.0371 31.9236C17.227 27.8606 20.5647 24.6782 24.6375 24.6782C25.5532 24.6782 26.4653 24.8478 27.3469 25.1823L28.2426 25.5215L28.7549 24.7156C29.1453 24.1004 29.6201 23.5449 30.1664 23.0642L28.6166 21.3099C28.1347 21.7333 27.6951 22.2023 27.3047 22.7075C26.4289 22.4619 25.5367 22.3391 24.6375 22.3391C19.6081 22.3391 15.4332 26.0489 14.7744 30.9341C10.5914 32.168 7.63815 36.0451 7.63815 40.4672C7.63815 42.5373 8.29116 44.5594 9.48933 46.2366C9.03796 47.3862 8.81052 48.5897 8.81052 49.8236C8.81052 55.3053 13.2808 59.7648 18.7757 59.7648C19.22 59.7648 19.655 59.725 20.084 59.6689C20.1649 59.6583 20.2458 59.6443 20.3267 59.6314C20.7605 59.5636 21.1872 59.4736 21.6023 59.3507C23.2143 60.3893 25.0608 60.9343 26.9823 60.9343C29.1312 60.9343 31.1782 60.2595 32.877 59.0092C34.7246 61.6711 37.7411 63.2734 41.0507 63.2734C44.1247 63.2734 46.956 61.891 48.8388 59.5227C50.3805 60.4501 52.1238 60.9343 53.9468 60.9343C59.4417 60.9343 63.912 56.4748 63.912 50.9931C63.912 50.675 63.8944 50.3592 63.8639 50.0446Z" fill="#465861"/>
<path d="M37.8105 0H35.4658V4.67821H37.8105V0Z" fill="#465861"/>
<path d="M42.5 30.4081H30.7763V26.2855C27.8676 24.3405 26.0868 21.0505 26.0868 17.5431C26.0868 11.7386 30.8197 7.01709 36.6381 7.01709C42.4566 7.01709 47.1895 11.7386 47.1895 17.5431C47.1895 21.0505 45.4087 24.3405 42.5 26.2855V30.4081Z" fill="#FFD205"/>
<path d="M29.1754 6.98742L31.2059 5.81787L28.8613 1.76667L26.8307 2.93622L29.1754 6.98742Z" fill="#465861"/>
<path d="M24.8832 12.1204L26.0555 10.0947L21.9946 7.7557L20.8222 9.78136L24.8832 12.1204Z" fill="#465861"/>
<path d="M31.3625 28.0693C29.7458 28.0693 28.4316 29.3804 28.4316 30.9932C28.4316 32.0341 28.9826 32.9416 29.8044 33.4609C29.6801 33.7849 29.6039 34.1334 29.6039 34.5018C29.6039 36.1146 30.9182 37.4257 32.5349 37.4257H40.7415C42.3582 37.4257 43.6724 36.1146 43.6724 34.5018C43.6724 34.1334 43.5962 33.7849 43.4719 33.4609C44.2937 32.9416 44.8448 32.0341 44.8448 30.9932C44.8448 29.3804 43.5305 28.0693 41.9138 28.0693H37.8105V20.8368C39.1716 20.3526 40.1553 19.0661 40.1553 17.5433C40.1553 15.6089 38.5773 14.0347 36.6382 14.0347C34.6991 14.0347 33.121 15.6089 33.121 17.5433C33.121 19.0661 34.1047 20.3526 35.4658 20.8368V28.0693H31.3625ZM36.6382 16.3738C37.2853 16.3738 37.8105 16.8977 37.8105 17.5433C37.8105 18.1889 37.2853 18.7129 36.6382 18.7129C35.991 18.7129 35.4658 18.1889 35.4658 17.5433C35.4658 16.8977 35.991 16.3738 36.6382 16.3738ZM40.7415 35.0866H32.5349C32.2125 35.0866 31.9487 34.8235 31.9487 34.5018C31.9487 34.1802 32.2125 33.9171 32.5349 33.9171H40.7415C41.0639 33.9171 41.3276 34.1802 41.3276 34.5018C41.3276 34.8235 41.0639 35.0866 40.7415 35.0866ZM42.5 30.9932C42.5 31.3148 42.2362 31.5779 41.9138 31.5779H40.7415H32.5349H31.3625C31.0401 31.5779 30.7763 31.3148 30.7763 30.9932C30.7763 30.6715 31.0401 30.4084 31.3625 30.4084H41.9138C42.2362 30.4084 42.5 30.6715 42.5 30.9932Z" fill="#465861"/>
<path d="M23.7421 16.374H19.0526V18.7131H23.7421V16.374Z" fill="#465861"/>
<path d="M54.3276 16H49.6382V18.3391H54.3276V16Z" fill="#465861"/>
<path d="M48.3942 12.1218L52.4558 9.7832L51.2836 7.7573L47.2221 10.0959L48.3942 12.1218Z" fill="#465861"/>
<path d="M44.1007 6.99174L46.445 2.93994L44.4142 1.77062L42.0699 5.82242L44.1007 6.99174Z" fill="#465861"/>
<path d="M3.81176 63.1555H6.84351L0.638153 69.3459L2.29589 70.9997L8.50125 64.8093V67.8337H10.846V60.8164H3.81176V63.1555Z" fill="#465861"/>
<path d="M69.4645 63.1555V60.8164H62.4303V67.8337H64.7751V64.8093L70.9804 70.9997L72.6382 69.3459L66.4328 63.1555H69.4645Z" fill="#465861"/>
<path d="M3.81176 28.0693V30.4084H10.846V23.3911H8.50125V26.4155L2.29589 20.2251L0.638153 21.8788L6.84351 28.0693H3.81176Z" fill="#465861"/>
<path d="M69.4645 28.0693H66.4328L72.6382 21.8788L70.9804 20.2251L64.7751 26.4155V23.3911H62.4303V30.4084H69.4645V28.0693Z" fill="#465861"/>
</svg>
