<svg width="71" height="73" viewBox="0 0 71 73" fill="none" xmlns="http://www.w3.org/2000/svg">
<path d="M65.2742 18.8387H60.6352C60.0374 8.35026 51.5735 0 41.2258 0C30.8781 0 22.4142 8.35026 21.8165 18.8387H17.1774C14.0202 18.8387 11.4516 21.4797 11.4516 24.7258V45.9194H13.7419V36.9286L36.3039 44.2474L36.9933 42.0009L13.7419 34.4595V24.7258C13.7419 22.7784 15.2833 21.1935 17.1774 21.1935H65.2742C67.1683 21.1935 68.7097 22.7784 68.7097 24.7258V34.4642L45.456 42.1493L46.1557 44.3911L68.7097 36.938V60.0484C68.7097 61.9958 67.1683 63.5806 65.2742 63.5806H25.1936V65.9355H65.2742C68.4314 65.9355 71 63.2945 71 60.0484V24.7258C71 21.4797 68.4314 18.8387 65.2742 18.8387ZM41.2258 2.35484C50.3115 2.35484 57.7516 9.64895 58.3448 18.8387H54.9093C54.3242 11.5988 48.4174 5.8871 41.2258 5.8871C34.0342 5.8871 28.1275 11.5988 27.5423 18.8387H24.1068C24.7 9.64895 32.1401 2.35484 41.2258 2.35484ZM52.619 18.8387H29.8326C30.4098 12.8975 35.2985 8.24194 41.2258 8.24194C47.1532 8.24194 52.043 12.8975 52.619 18.8387Z" fill="#465861"/>
<path d="M43.5161 48.2742H38.9355C37.0414 48.2742 35.5 46.6894 35.5 44.7419V36.5H46.9516V44.7419C46.9516 46.6894 45.4102 48.2742 43.5161 48.2742Z" fill="#FFD205"/>
<path d="M13.7419 73.0001C21.3314 73.0001 27.4839 66.6743 27.4839 58.871C27.4839 51.0678 21.3314 44.742 13.7419 44.742C6.15247 44.742 0 51.0678 0 58.871C0 66.6743 6.15247 73.0001 13.7419 73.0001Z" fill="#FFD205"/>
<path d="M9.25007 63.7725H11.0001V65.6819C11.0001 65.7748 11.0235 65.8508 11.0704 65.9103C11.1173 65.9701 11.1772 66 11.2502 66H12.5548C12.6225 66 12.6811 65.9701 12.7306 65.9103C12.7801 65.8508 12.8047 65.7747 12.8047 65.6819V63.7725H16.7501C16.8229 63.7725 16.8828 63.743 16.9298 63.6832C16.9768 63.6234 17.0001 63.5473 17.0001 63.4544V62.1816C17.0001 62.0893 16.9768 62.0127 16.9298 61.9532C16.8829 61.8934 16.8229 61.8635 16.7501 61.8635H12.8046V60.6901H15.4609C16.5025 60.6901 17.3526 60.2862 18.0117 59.4771C18.6704 58.6689 19 57.6249 19 56.3451C19 55.0661 18.6704 54.022 18.0117 53.213C17.3528 52.4048 16.5025 52 15.4609 52H11.25C11.1771 52 11.1173 52.0299 11.0703 52.0894C11.0235 52.1492 11 52.2257 11 52.3181V58.5725H9.25007C9.1771 58.5725 9.1173 58.6039 9.07034 58.6669C9.0235 58.7299 9 58.8044 9 58.8906V60.372C9 60.4649 9.02335 60.541 9.07034 60.6007C9.11733 60.6606 9.17697 60.6901 9.25007 60.6901H11.0001V61.8635H9.25007C9.1771 61.8635 9.1173 61.8934 9.07034 61.9532C9.0235 62.0126 9 62.0891 9 62.1816V63.4544C9 63.5473 9.02335 63.6234 9.07034 63.6831C9.1173 63.743 9.17708 63.7725 9.25007 63.7725ZM12.8046 54.1181H15.3046C15.8566 54.1181 16.3019 54.3235 16.6405 54.7345C16.979 55.1455 17.1483 55.6826 17.1483 56.3452C17.1483 57.0082 16.979 57.5454 16.6405 57.956C16.3019 58.3673 15.8566 58.5727 15.3046 58.5727H12.8046V54.1181Z" fill="#465861"/>
<path d="M37.7903 50.629H35.5V52.9839H37.7903V50.629Z" fill="#465861"/>
<path d="M42.371 50.629H40.0807V52.9839H42.371V50.629Z" fill="#465861"/>
<path d="M46.9516 50.629H44.6613V52.9839H46.9516V50.629Z" fill="#465861"/>
</svg>
