<svg width="72" height="72" viewBox="0 0 72 72" fill="none" xmlns="http://www.w3.org/2000/svg">
<path d="M72 0H0V72H72V0Z" fill="#FFD205"/>
<g clip-path="url(#clip0)">
<path d="M52.5345 18.1445H18.7695C17.2424 18.1445 16 19.387 16 20.9141V49.0515C16 50.5786 17.2424 51.821 18.7695 51.821H40.8838C41.2479 51.821 41.543 51.5259 41.543 51.1618C41.543 50.7978 41.2479 50.5026 40.8838 50.5026H38.4215V46.2378C38.4215 45.1161 37.7525 44.1127 36.7172 43.6814L33.2541 42.2384C32.9746 42.1219 32.794 41.8511 32.794 41.5483V40.5191C33.6814 39.6165 34.2008 38.3875 34.2008 37.0932V34.2794C34.2008 31.9766 32.0117 30.103 29.321 30.103C26.6303 30.103 24.4412 31.9765 24.4412 34.2794V37.0932C24.4412 38.3874 24.9607 39.6164 25.8481 40.5191V41.5483C25.8481 41.8511 25.6675 42.1219 25.388 42.2385L21.925 43.6814C20.8896 44.1128 20.2206 45.1162 20.2206 46.2379V50.5027H18.7695C17.9694 50.5027 17.3184 49.8517 17.3184 49.0516V26.4973H53.9856V37.4448C53.9856 37.8089 54.2807 38.104 54.6448 38.104C55.0088 38.104 55.3039 37.8089 55.3039 37.4448V20.9141C55.3039 19.387 54.0616 18.1445 52.5345 18.1445ZM21.539 46.2378C21.539 45.6501 21.8895 45.1243 22.432 44.8982L25.8951 43.4553C26.6674 43.1336 27.1665 42.385 27.1665 41.5483V41.4055C27.4084 41.4209 27.6499 41.3026 27.7797 41.0786C27.9621 40.7635 27.8546 40.3603 27.5396 40.1778C26.4417 39.5422 25.7597 38.3602 25.7597 37.0932V34.2795C25.7597 32.7036 27.3574 31.4215 29.3211 31.4215C31.2849 31.4215 32.8826 32.7035 32.8826 34.2795V37.0932C32.8826 38.3607 32.2001 39.5429 31.1015 40.1786C30.7865 40.3609 30.6788 40.7641 30.8611 41.0793C30.9832 41.2905 31.2046 41.4085 31.4323 41.4085C31.4468 41.4085 31.4613 41.4067 31.4758 41.4057V41.5485C31.4758 42.3852 31.9748 43.1337 32.7472 43.4555L36.2103 44.8985C36.7528 45.1245 37.1033 45.6503 37.1033 46.238V50.5028H21.539V46.2378ZM53.9856 25.1789H17.3184V20.9141C17.3184 20.1139 17.9694 19.4629 18.7695 19.4629H52.5345C53.3347 19.4629 53.9856 20.1139 53.9856 20.9141V25.1789Z" fill="#44545F"/>
<path d="M19.4791 21.6621H19.4721C19.108 21.6621 18.8164 21.9572 18.8164 22.3213C18.8164 22.6853 19.1151 22.9805 19.4791 22.9805C19.8432 22.9805 20.1383 22.6853 20.1383 22.3213C20.1383 21.9572 19.8432 21.6621 19.4791 21.6621Z" fill="#44545F"/>
<path d="M23.6939 21.6621H23.6869C23.3229 21.6621 23.0312 21.9572 23.0312 22.3213C23.0312 22.6853 23.3299 22.9805 23.6939 22.9805C24.058 22.9805 24.3531 22.6853 24.3531 22.3213C24.3531 21.9572 24.058 21.6621 23.6939 21.6621Z" fill="#44545F"/>
<path d="M21.5846 21.6621H21.5775C21.2135 21.6621 20.9219 21.9572 20.9219 22.3213C20.9219 22.6853 21.2205 22.9805 21.5846 22.9805C21.9486 22.9805 22.2438 22.6853 22.2438 22.3213C22.2438 21.9572 21.9486 21.6621 21.5846 21.6621Z" fill="#44545F"/>
<path d="M51.8306 21.6621H26.5068C26.1428 21.6621 25.8477 21.9572 25.8477 22.3213C25.8477 22.6853 26.1428 22.9805 26.5068 22.9805H51.8306C52.1946 22.9805 52.4897 22.6853 52.4897 22.3213C52.4897 21.9572 52.1946 21.6621 51.8306 21.6621Z" fill="#44545F"/>
<path d="M60.5582 41.8837L51.0618 38.5806C50.9215 38.5317 50.769 38.5317 50.6287 38.5806L43.7996 40.9559C43.4558 41.0755 43.274 41.4512 43.3936 41.795C43.5132 42.1389 43.8889 42.3205 44.2327 42.2011L50.8452 39.9012L59.6508 42.964C59.5741 43.8057 59.3158 45.6916 58.4596 47.9499C57.4158 50.7029 55.2514 54.5471 50.8452 57.4147C46.4579 54.5592 44.295 50.7358 43.2491 47.998C42.0779 44.9325 42.0083 42.5157 42.0077 42.4916C41.9995 42.128 41.7027 41.8406 41.3347 41.8472C40.9708 41.855 40.682 42.1563 40.6896 42.5202C40.6919 42.626 40.7587 45.1487 41.9979 48.4172C43.1408 51.4318 45.543 55.6724 50.4967 58.7556C50.6033 58.822 50.7241 58.8552 50.845 58.8552C50.9658 58.8552 51.0867 58.8221 51.1933 58.7556C56.1469 55.6724 58.5492 51.4318 59.6921 48.4172C60.9314 45.1487 60.9982 42.626 61.0004 42.5202C61.0067 42.2346 60.828 41.9775 60.5582 41.8837Z" fill="#44545F"/>
<path d="M55.1295 45.6018C54.8721 45.3443 54.4547 45.3443 54.1973 45.6018L50.1216 49.6775L47.6975 47.2533C47.4401 46.9959 47.0227 46.9959 46.7653 47.2533C46.5079 47.5108 46.5079 47.9282 46.7653 48.1855L49.6556 51.0757C49.7842 51.2045 49.953 51.2688 50.1216 51.2688C50.2903 51.2688 50.4591 51.2045 50.5877 51.0757L55.1295 46.5339C55.3869 46.2765 55.3869 45.8591 55.1295 45.6018Z" fill="#44545F"/>
<path d="M49.7212 29.3994H38.4661C37.7147 29.3994 37.1035 30.0107 37.1035 30.762V32.8723C37.1035 33.6237 37.7148 34.2349 38.4661 34.2349H49.7211C50.4725 34.235 51.0837 33.6237 51.0837 32.8723V30.762C51.0837 30.0106 50.4725 29.3994 49.7212 29.3994ZM49.7653 32.8723C49.7653 32.8968 49.7454 32.9166 49.7211 32.9166H38.4661C38.4417 32.9166 38.4219 32.8968 38.4219 32.8723V30.762C38.4219 30.7376 38.4417 30.7178 38.4661 30.7178H49.7211C49.7455 30.7178 49.7653 30.7376 49.7653 30.762V32.8723Z" fill="#44545F"/>
<path d="M46.9071 35.7305H38.4658C38.1018 35.7305 37.8066 36.0256 37.8066 36.3897C37.8066 36.7537 38.1018 37.0488 38.4658 37.0488H46.9071C47.2711 37.0488 47.5662 36.7537 47.5662 36.3897C47.5662 36.0256 47.2711 35.7305 46.9071 35.7305Z" fill="#44545F"/>
<path d="M43.3899 38.5444H38.4658C38.1018 38.5444 37.8066 38.8396 37.8066 39.2036C37.8066 39.5677 38.1018 39.8628 38.4658 39.8628H43.3899C43.754 39.8628 44.0491 39.5677 44.0491 39.2036C44.0491 38.8396 43.754 38.5444 43.3899 38.5444Z" fill="#44545F"/>
</g>
<defs>
<clipPath id="clip0">
<rect width="45" height="45" fill="white" transform="translate(16 16)"/>
</clipPath>
</defs>
</svg>
