<svg width="225" height="185" viewBox="0 0 225 185" fill="none" xmlns="http://www.w3.org/2000/svg">
<path d="M219.096 153.484V50.1774C219.096 42.0403 212.475 35.4194 204.337 35.4194H174.884V0H50.9087V35.4194H20.6625C12.5249 35.4194 5.90357 42.0403 5.90357 50.1774V153.484H0V168.242C0 176.379 6.62133 183 14.7589 183H210.241C218.379 183 225 176.379 225 168.242V153.484H219.096ZM204.337 41.3226C209.219 41.3226 213.193 45.296 213.193 50.1774V153.484H207.289V53.129C207.289 49.8733 204.642 47.2258 201.386 47.2258H174.884V41.3226H204.337ZM86.3301 159.387H139.462V162.339C139.462 163.964 138.139 165.29 136.51 165.29H89.2818C87.6532 165.29 86.3301 163.964 86.3301 162.339V159.387ZM23.6143 153.484V53.129H50.9087V129.871H174L174.884 53.129H201.386V153.484H23.6143ZM56.8122 29.5161H168.98V129.871H56.8122V29.5161ZM168.98 5.90323V23.6129H56.8122V5.90323H168.98ZM11.8071 50.1774C11.8071 45.296 15.7808 41.3226 20.6625 41.3226H50.9087V47.2258H23.6143C20.3584 47.2258 17.7107 49.8733 17.7107 53.129V153.484H11.8071V50.1774ZM219.096 168.242C219.096 173.123 215.123 177.097 210.241 177.097H14.7589C9.87723 177.097 5.90357 173.123 5.90357 168.242V159.387H80.4265V162.339C80.4265 167.22 84.4002 171.194 89.2818 171.194H136.51C141.392 171.194 145.366 167.22 145.366 162.339V159.387H219.096V168.242Z" fill="white"/>
<path d="M20.0859 165.289H25.9895V171.192H20.0859V165.289Z" fill="white"/>
<path d="M31.8945 165.289H37.7981V171.192H31.8945V165.289Z" fill="white"/>
<path d="M43.7031 165.289H49.6067V171.192H43.7031V165.289Z" fill="white"/>
<path d="M128.027 11.4375H133.931V17.3407H128.027V11.4375Z" fill="white"/>
<path d="M139.836 11.4375H145.74V17.3407H139.836V11.4375Z" fill="white"/>
<path d="M151.641 11.4375H157.545V17.3407H151.641V11.4375Z" fill="white"/>
<g clip-path="url(#clip0)">
<path d="M100.805 74.2023C102.241 74.2023 103.405 73.1129 103.405 71.769V69.3357C103.405 67.9918 102.241 66.9023 100.805 66.9023H85.2055C83.7695 66.9023 82.6055 67.9918 82.6055 69.3357V71.769C82.6055 73.1129 83.7695 74.2023 85.2055 74.2023H100.805ZM85.2055 69.3357H100.805V71.769H85.2055V69.3357Z" fill="white"/>
<path d="M87.8063 76.6328C85.6523 76.6328 83.9062 78.267 83.9062 80.2828C83.9062 82.2986 85.6523 83.9328 87.8063 83.9328C89.9602 83.9328 91.7063 82.2986 91.7063 80.2828C91.7063 78.267 89.9602 76.6328 87.8063 76.6328ZM87.8063 81.4995C87.0883 81.4995 86.5063 80.9548 86.5063 80.2828C86.5063 79.6109 87.0883 79.0661 87.8063 79.0661C88.5242 79.0661 89.1063 79.6109 89.1063 80.2828C89.1063 80.9548 88.5242 81.4995 87.8063 81.4995Z" fill="white"/>
<path d="M87.8063 85.1523C85.6523 85.1523 83.9062 86.7865 83.9062 88.8023C83.9062 90.8182 85.6523 92.4523 87.8063 92.4523C89.9602 92.4523 91.7063 90.8182 91.7063 88.8023C91.7063 86.7865 89.9602 85.1523 87.8063 85.1523ZM87.8063 90.019C87.0883 90.019 86.5063 89.4743 86.5063 88.8023C86.5063 88.1304 87.0883 87.5857 87.8063 87.5857C88.5242 87.5857 89.1063 88.1304 89.1063 88.8023C89.1063 89.4743 88.5242 90.019 87.8063 90.019Z" fill="white"/>
<path d="M87.8063 93.668C85.6523 93.668 83.9062 95.3021 83.9062 97.318C83.9062 99.3338 85.6523 100.968 87.8063 100.968C89.9602 100.968 91.7063 99.3338 91.7063 97.318C91.7063 95.3021 89.9602 93.668 87.8063 93.668ZM87.8063 98.5346C87.0883 98.5346 86.5063 97.9899 86.5063 97.318C86.5063 96.646 87.0883 96.1013 87.8063 96.1013C88.5242 96.1013 89.1063 96.646 89.1063 97.318C89.1063 97.9899 88.5242 98.5346 87.8063 98.5346Z" fill="white"/>
<path d="M98.2047 76.6328C96.0508 76.6328 94.3047 78.267 94.3047 80.2828C94.3047 82.2986 96.0508 83.9328 98.2047 83.9328C100.359 83.9328 102.105 82.2986 102.105 80.2828C102.105 78.267 100.359 76.6328 98.2047 76.6328ZM98.2047 81.4995C97.4867 81.4995 96.9047 80.9548 96.9047 80.2828C96.9047 79.6109 97.4867 79.0661 98.2047 79.0661C98.9227 79.0661 99.5047 79.6109 99.5047 80.2828C99.5047 80.9548 98.9227 81.4995 98.2047 81.4995Z" fill="white"/>
<path d="M98.2047 85.1523C96.0508 85.1523 94.3047 86.7865 94.3047 88.8023C94.3047 90.8182 96.0508 92.4523 98.2047 92.4523C100.359 92.4523 102.105 90.8182 102.105 88.8023C102.105 86.7865 100.359 85.1523 98.2047 85.1523ZM98.2047 90.019C97.4867 90.019 96.9047 89.4743 96.9047 88.8023C96.9047 88.1304 97.4867 87.5857 98.2047 87.5857C98.9227 87.5857 99.5047 88.1304 99.5047 88.8023C99.5047 89.4743 98.9227 90.019 98.2047 90.019Z" fill="white"/>
<path d="M98.2047 93.668C96.0508 93.668 94.3047 95.3021 94.3047 97.318C94.3047 99.3338 96.0508 100.968 98.2047 100.968C100.359 100.968 102.105 99.3338 102.105 97.318C102.105 95.3021 100.359 93.668 98.2047 93.668ZM98.2047 98.5346C97.4867 98.5346 96.9047 97.9899 96.9047 97.318C96.9047 96.646 97.4867 96.1013 98.2047 96.1013C98.9227 96.1013 99.5047 96.646 99.5047 97.318C99.5047 97.9899 98.9227 98.5346 98.2047 98.5346Z" fill="white"/>
<path d="M138.398 93.669C138.398 94.341 138.98 94.8857 139.698 94.8857C140.416 94.8857 140.998 94.341 140.998 93.669C140.998 90.6614 138.181 88.1624 134.498 87.6769V86.369C134.498 85.6971 133.916 85.1523 133.198 85.1523C132.48 85.1523 131.898 85.6971 131.898 86.369V87.6769C128.216 88.1636 125.398 90.6614 125.398 93.669C125.398 96.6766 128.216 99.1756 131.898 99.6611V106.922C129.662 106.515 127.998 105.097 127.998 103.402C127.998 102.73 127.416 102.186 126.698 102.186C125.98 102.186 125.398 102.73 125.398 103.402C125.398 106.41 128.216 108.909 131.898 109.394V110.702C131.898 111.374 132.48 111.919 133.198 111.919C133.916 111.919 134.498 111.374 134.498 110.702V109.394C138.181 108.908 140.998 106.41 140.998 103.402C140.998 100.395 138.181 97.8957 134.498 97.4103V90.1492C136.734 90.5568 138.398 91.973 138.398 93.669ZM127.998 93.669C127.998 91.973 129.662 90.5568 131.898 90.1492V97.1888C129.662 96.7812 127.998 95.365 127.998 93.669ZM138.398 103.402C138.398 105.098 136.734 106.515 134.498 106.922V99.8825C136.734 100.29 138.398 101.706 138.398 103.402Z" fill="white"/>
<path d="M125.4 80.4999V70.55L142.912 77.8792C146.845 79.5255 151.459 77.8763 153.218 74.1957C154.977 70.5152 153.215 66.1969 149.282 64.5506L125.4 54.5545V53.5167C125.404 50.1586 128.311 47.4374 131.9 47.4333C132.618 47.4333 133.2 46.8886 133.2 46.2167C133.2 45.5447 132.618 45 131.9 45H100.804C95.7801 45.0054 91.7093 48.8153 91.7036 53.5167V62.0333H81.3035C79.1496 62.0333 77.4035 63.6675 77.4035 65.6833V102.183C77.4035 104.199 79.1496 105.833 81.3035 105.833H91.7036V108.267H78.8335C78.0643 108.263 77.3331 108.579 76.8381 109.13C76.343 109.681 76.1353 110.41 76.2712 111.119C77.1126 115.113 80.853 117.995 85.2035 118H116.3C118.766 117.995 121.124 117.051 122.831 115.384C131.257 119.929 141.924 118.399 148.508 111.7C155.093 105.002 155.835 94.9261 150.295 87.4456C144.754 79.9651 134.412 77.0797 125.4 80.4999V80.4999ZM115.083 61.6136L117.775 56.0023L120.626 55.9719L116.972 63.615L115.083 61.6136ZM109.811 56.0169H114.92L113.195 59.6134L109.811 56.0169ZM120.644 61.8995C128.39 65.1407 127.906 64.985 128.295 64.985C128.908 64.9856 129.439 64.5844 129.567 64.0227C129.696 63.461 129.387 62.8918 128.826 62.6575L121.706 59.673L123.299 56.3406L141.098 63.7914L139.507 67.1227L133.573 64.6394C133.149 64.4621 132.656 64.5099 132.28 64.7649C131.903 65.02 131.701 65.4434 131.749 65.8758C131.797 66.3081 132.088 66.6837 132.512 66.8611L138.445 69.3443L136.853 72.6767L119.053 65.2259L120.644 61.8995ZM145.845 65.7831L141.6 74.6648L139.226 73.672L143.472 64.7903L145.845 65.7831ZM150.96 69.4733C151.702 71.3129 151.192 73.3897 149.666 74.7411C148.139 76.0926 145.896 76.4549 143.974 75.66L148.22 66.7783C149.478 67.3004 150.463 68.2677 150.96 69.4684V69.4733ZM80.0035 102.183V65.6833C80.0035 65.0114 80.5856 64.4667 81.3035 64.4667H104.704C105.422 64.4667 106.004 65.0114 106.004 65.6833V102.183C106.004 102.855 105.422 103.4 104.704 103.4H81.3035C80.5856 103.4 80.0035 102.855 80.0035 102.183ZM78.8335 110.707H107.304C107.59 112.556 108.52 114.264 109.95 115.567L85.2035 115.567C82.1153 115.573 79.4511 113.54 78.8361 110.707H78.8335ZM109.875 110.369C109.702 109.164 108.603 108.265 107.304 108.267H94.3036V105.833H104.704C106.857 105.833 108.604 104.199 108.604 102.183V65.6833C108.604 63.6675 106.857 62.0333 104.704 62.0333H94.3036V53.5167C94.3078 50.1586 97.2155 47.4374 100.804 47.4333H125.53C123.774 49.0404 122.789 51.2449 122.8 53.5434C122.75 53.5321 122.7 53.5232 122.65 53.5167L122.627 53.5422H106.94C106.428 53.5558 105.969 53.843 105.761 54.2809C105.553 54.7188 105.631 55.2296 105.963 55.5947C117.999 68.3697 116.318 66.6177 116.809 66.9462L122.8 69.4611V81.7008C116.771 84.9486 112.883 90.8082 112.446 97.3055C112.008 103.803 115.079 110.073 120.625 114.003C118.846 115.494 116.337 115.95 114.091 115.191C111.846 114.432 110.227 112.579 109.878 110.369H109.875ZM133.2 115.567C125.838 115.567 119.202 111.417 116.385 105.052C113.568 98.6868 115.125 91.3604 120.33 86.4889C125.535 81.6175 133.364 80.1602 140.164 82.7966C146.965 85.433 151.4 91.644 151.4 98.5333C151.389 107.936 143.247 115.557 133.2 115.567Z" fill="white"/>
<path d="M121.514 90.6379C120.894 90.3001 120.099 90.4967 119.737 91.0771C117.152 95.2581 116.894 100.353 119.047 104.744C119.23 105.154 119.638 105.438 120.111 105.485C120.584 105.531 121.046 105.332 121.316 104.966C121.586 104.6 121.621 104.125 121.408 103.728C119.611 100.056 119.826 95.7977 121.985 92.3011C122.346 91.7202 122.135 90.9756 121.514 90.6379V90.6379Z" fill="white"/>
<path d="M144.885 90.6379C144.264 90.9756 144.054 91.7202 144.415 92.3011C146.573 95.7977 146.789 100.056 144.992 103.728C144.778 104.125 144.813 104.6 145.083 104.966C145.354 105.332 145.816 105.531 146.288 105.485C146.761 105.438 147.169 105.154 147.353 104.744C149.505 100.353 149.248 95.2581 146.662 91.0771C146.301 90.4967 145.505 90.3001 144.885 90.6379V90.6379Z" fill="white"/>
</g>
<defs>
<clipPath id="clip0">
<rect width="78" height="73" fill="white" transform="translate(76 45)"/>
</clipPath>
</defs>
</svg>
