<svg width="72" height="72" viewBox="0 0 72 72" fill="none" xmlns="http://www.w3.org/2000/svg">
<path d="M72 0H0V72H72V0Z" fill="#FFD205"/>
<path d="M40.4219 48.1562H39.0156V46.75H40.4219V48.1562ZM37.6094 48.1562H36.2031V46.75H37.6094V48.1562ZM34.7969 48.1562H33.3906V46.75H34.7969V48.1562ZM31.9844 48.1562H30.5781V46.75H31.9844V48.1562Z" fill="#44545F"/>
<path d="M49.5625 45.3438H48.1562V43.9375H49.5625V45.3438ZM46.75 45.3438H34.7969V43.9375H46.75V45.3438ZM33.3906 45.3438H21.4375V43.9375H33.3906V45.3438Z" fill="#44545F"/>
<path d="M55.1875 52.375V31.9844C55.1875 30.8195 54.243 29.875 53.0781 29.875H48.1562V22.8438H53.7812V16.5156C53.7788 14.5748 52.2064 13.0024 50.2656 13H26.3594C24.4186 13.0024 22.8462 14.5748 22.8438 16.5156V29.875H17.9219C16.757 29.875 15.8125 30.8195 15.8125 31.9844V52.375H13V54.4844C13.0024 56.4252 14.5748 57.9976 16.5156 58H54.4844C56.4252 57.9976 57.9976 56.4252 58 54.4844V52.375H55.1875ZM48.1562 16.5156C48.1562 15.3507 49.1007 14.4062 50.2656 14.4062C51.4305 14.4062 52.375 15.3507 52.375 16.5156V21.4375H48.1562V16.5156ZM24.25 16.5156C24.25 15.3507 25.1945 14.4062 26.3594 14.4062H47.4713C47.0061 15.0112 46.7527 15.7524 46.75 16.5156V41.125H24.25V16.5156ZM49.5625 42.5312V41.125H48.1562V34.0938H50.9688V49.5625H20.0312V34.0938H22.8438V41.125H21.4375V42.5312H49.5625ZM17.2188 31.9844C17.2188 31.5961 17.5336 31.2812 17.9219 31.2812H22.8438V32.6875H18.625V50.9688H52.375V32.6875H48.1562V31.2812H53.0781C53.4664 31.2812 53.7812 31.5961 53.7812 31.9844V52.375H38.3125V53.0781C38.3125 53.4664 37.9977 53.7812 37.6094 53.7812H33.3906C33.0023 53.7812 32.6875 53.4664 32.6875 53.0781V52.375H17.2188V31.9844ZM56.5938 54.4844C56.5938 55.6493 55.6493 56.5938 54.4844 56.5938H16.5156C15.3507 56.5938 14.4062 55.6493 14.4062 54.4844V53.7812H31.4014C31.7004 54.6234 32.497 55.1865 33.3906 55.1875H37.6094C38.503 55.1865 39.2996 54.6234 39.5986 53.7812H56.5938V54.4844Z" fill="#44545F"/>
<path d="M25.6562 21.4375H45.3438V17.2188H25.6562V21.4375ZM27.0625 18.625H43.9375V20.0312H27.0625V18.625Z" fill="#44545F"/>
<path d="M25.6562 39.7188H45.3438V25.6562H25.6562V39.7188ZM36.9062 27.0625H43.9375V29.875H36.9062V27.0625ZM36.9062 31.2812H43.9375V38.3125H36.9062V31.2812ZM31.9844 27.0625H35.5V29.875H31.9844V27.0625ZM31.9844 31.2812H35.5V38.3125H31.9844V31.2812ZM27.0625 27.0625H30.5781V29.875H27.0625V27.0625ZM27.0625 31.2812H30.5781V38.3125H27.0625V31.2812Z" fill="#44545F"/>
<path d="M25.6562 22.8438H35.5V24.25H25.6562V22.8438Z" fill="#44545F"/>
<path d="M13 13H14.4062V21.4375H13V13Z" fill="#44545F"/>
<path d="M15.8125 13H17.2188V18.625H15.8125V13Z" fill="#44545F"/>
<path d="M18.625 13H20.0312V15.8125H18.625V13Z" fill="#44545F"/>
</svg>
