<svg width="72" height="72" viewBox="0 0 72 72" fill="none" xmlns="http://www.w3.org/2000/svg">
<path d="M72 0H0V72H72V0Z" fill="#FFD205"/>
<g clip-path="url(#clip0)">
<path d="M16.7529 55H19.0027V57.2499C19.0027 57.664 19.3385 57.9998 19.7527 57.9998H51.2505C51.6646 57.9998 52.0004 57.664 52.0004 57.2499V54.2501H50.5005V56.4999H20.5026V55H37.7514V53.5001H17.5028V21.2524H23.5024C23.9166 21.2524 24.2524 20.9166 24.2524 20.5024V14.5028H47.5007V28.7518H49.0006V17.5026H50.5005V30.2517H52.0004V16.7527C52.0004 16.3385 51.6646 16.0027 51.2505 16.0027H49.0006V13.7529C49.0006 13.3387 48.6648 13.0029 48.2507 13.0029H23.5024C23.4874 13.0029 23.4738 13.0106 23.4588 13.0121C23.3907 13.0154 23.3233 13.0289 23.2589 13.0516C23.2366 13.0582 23.215 13.0663 23.1933 13.0751C23.1113 13.111 23.0363 13.1619 22.9722 13.2248L16.2226 19.9744C16.16 20.0381 16.1091 20.1128 16.0729 20.1944C16.0623 20.2175 16.0564 20.241 16.048 20.2648C16.0264 20.327 16.0135 20.3918 16.0099 20.4574C16.0099 20.4738 16 20.4881 16 20.5046V54.2501C16 54.4496 16.0795 54.6408 16.2208 54.7814C16.3622 54.9224 16.5537 55.0007 16.7529 55ZM22.7525 15.5633V19.7525H18.5633L22.7525 15.5633Z" fill="#44545F"/>
<path d="M39.2506 29.502V28.752H45.2502V25.0023C45.2487 23.8382 44.3589 22.8674 43.1992 22.7645C43.1333 22.7561 43.067 22.7521 43.0003 22.7525H22.0018C20.7593 22.7525 19.752 23.7598 19.752 25.0023V49.0006C19.752 50.2435 20.7593 51.2505 22.0018 51.2505H33.251V49.7506H25.7515V47.5007H31.7511V46.0009H25.7515V43.751H31.0012V42.2511H25.7515V40.0013H31.1513V38.5014H25.7515V36.2515H32.5011V34.7516H25.7515V32.5018H35.5009V31.0019H25.7515V28.752H37.7507V29.502H39.2506ZM43.0619 24.2579C43.4507 24.2875 43.751 24.6123 43.7503 25.0023V27.2522H39.2506V24.2472H42.9688C42.9996 24.2527 43.0307 24.256 43.0619 24.2579ZM22.0018 24.2524H24.2516V27.2522H21.2518V25.0023C21.2518 24.5882 21.5876 24.2524 22.0018 24.2524ZM24.2516 49.7506H22.0018C21.5876 49.7506 21.2518 49.4148 21.2518 49.0006V47.5007H24.2516V49.7506ZM24.2516 46.0009H21.2518V43.751H24.2516V46.0009ZM24.2516 42.2511H21.2518V40.0013H24.2516V42.2511ZM24.2516 38.5014H21.2518V36.2515H24.2516V38.5014ZM24.2516 34.7516H21.2518V32.5018H24.2516V34.7516ZM24.2516 31.0019H21.2518V28.752H24.2516V31.0019ZM25.7515 27.2522V24.2524L37.7507 24.2487V27.2522H25.7515Z" fill="#44545F"/>
<path d="M27.252 19.7524H33.2515V21.2523H27.252V19.7524Z" fill="#44545F"/>
<path d="M34.752 19.7524H37.7517V21.2523H34.752V19.7524Z" fill="#44545F"/>
<path d="M27.252 16.7529H37.7512V18.2528H27.252V16.7529Z" fill="#44545F"/>
<path d="M54.7813 48.4703L54.6854 48.5662C57.9668 43.2921 56.7005 36.3876 51.761 32.6211C46.8216 28.8541 39.8282 29.4601 35.6101 34.0203C31.392 38.5804 31.3319 45.5998 35.4717 50.2309C39.6114 54.8624 46.5934 55.5879 51.5963 51.9059L57.0048 57.3144C57.9192 58.2288 59.4011 58.2288 60.3151 57.3144C61.2295 56.4004 61.2295 54.9185 60.3151 54.0045L54.7813 48.4703ZM34.0025 42.251C34.0025 36.4525 38.7032 31.7517 44.5018 31.7517C50.3003 31.7517 55.0011 36.4525 55.0011 42.251C55.0011 48.0496 50.3003 52.7503 44.5018 52.7503C38.7058 52.7441 34.0088 48.047 34.0025 42.251ZM58.66 56.5C58.437 56.5008 58.2231 56.4121 58.0653 56.2543L52.7512 50.9406C53.1595 50.5546 53.54 50.1405 53.8904 49.7011L59.2539 55.0646C59.4945 55.3052 59.5667 55.6666 59.4367 55.9808C59.3067 56.295 59.0002 56.5 58.66 56.5Z" fill="#44545F"/>
<path d="M44.5013 33.2515C39.5311 33.2515 35.502 37.2806 35.502 42.2508C35.502 47.2211 39.5311 51.2502 44.5013 51.2502C49.4716 51.2502 53.5007 47.2211 53.5007 42.2508C53.4956 37.2828 49.4694 33.257 44.5013 33.2515ZM41.5015 42.2508C41.5015 40.5942 42.8447 39.251 44.5013 39.251C46.1583 39.251 47.5011 40.5942 47.5011 42.2508C47.5011 43.9078 46.1583 45.2506 44.5013 45.2506C42.8447 45.2506 41.5015 43.9078 41.5015 42.2508ZM40.6293 44.5314C39.3414 44.0378 38.1821 43.2582 37.2395 42.2508C38.1821 41.2438 39.3414 40.4639 40.6293 39.9702C39.7925 41.3757 39.7925 43.1264 40.6293 44.5314ZM48.3734 39.9702C49.6616 40.4639 50.8206 41.2438 51.7632 42.2508C50.8206 43.2582 49.6616 44.0378 48.3734 44.5314C49.2101 43.1264 49.2101 41.3757 48.3734 39.9702ZM44.5013 34.7514C47.8365 34.7554 50.769 36.9595 51.7009 40.1618C49.7689 38.6681 47.4092 37.8317 44.9678 37.7753C44.6592 37.7431 44.3483 37.7431 44.0396 37.7753C41.5964 37.831 39.2352 38.667 37.3018 40.1618C38.2337 36.9595 41.1665 34.7554 44.5013 34.7514ZM44.5013 49.7503C41.1665 49.7463 38.2337 47.5426 37.3018 44.3403C39.2341 45.834 41.5935 46.67 44.0348 46.7267C44.3435 46.7586 44.6548 46.7586 44.9635 46.7267C47.4063 46.6711 49.7674 45.8347 51.7009 44.3403C50.769 47.5426 47.8365 49.7463 44.5013 49.7503Z" fill="#44545F"/>
<path d="M45.9998 42.2509C45.9998 43.0792 45.3282 43.7508 44.4999 43.7508C43.6716 43.7508 43 43.0792 43 42.2509C43 41.4226 43.6716 40.751 44.4999 40.751C45.3282 40.751 45.9998 41.4226 45.9998 42.2509Z" fill="#44545F"/>
</g>
<defs>
<clipPath id="clip0">
<rect width="45" height="45" fill="white" transform="translate(16 13)"/>
</clipPath>
</defs>
</svg>
