<svg width="72" height="72" viewBox="0 0 72 72" fill="none" xmlns="http://www.w3.org/2000/svg">
<path d="M72 0H0V72H72V0Z" fill="#FFD205"/>
<g clip-path="url(#clip0)">
<path d="M27.0323 40.7083C27.3488 41.186 27.5157 41.7381 27.5157 42.3066C27.5157 43.9078 26.2137 45.2098 24.6125 45.2098C24.0441 45.2098 23.4919 45.0429 23.0142 44.7264L22.2129 45.937C22.9288 46.4109 23.7584 46.6614 24.6125 46.6614C27.0143 46.6614 28.9674 44.7083 28.9674 42.3066C28.9674 41.4525 28.7168 40.6228 28.243 39.9062L27.0323 40.7083Z" fill="#44545F"/>
<path d="M24.6127 39.4033C25.1811 39.4033 25.734 39.5702 26.2103 39.886L27.0123 38.676C26.2971 38.2022 25.4678 37.9517 24.6127 37.9517C22.2109 37.9517 20.2578 39.9047 20.2578 42.3065C20.2578 43.1606 20.5084 43.9902 20.9822 44.7068L22.1928 43.9055C21.8763 43.4271 21.7094 42.875 21.7094 42.3065C21.7094 40.7053 23.0115 39.4033 24.6127 39.4033Z" fill="#44545F"/>
<path d="M39.1289 44.4839V48.8387H42.0321V47.3871H40.5805V44.4839H39.1289Z" fill="#44545F"/>
<path d="M39.855 40.1289C38.0182 40.1289 36.2239 40.7689 34.8027 41.9317L35.7231 43.0555C36.6963 42.2585 37.886 41.7662 39.1292 41.6262V43.0321H40.5808V41.6234C43.6038 41.9594 46.0084 44.3647 46.3444 47.387H44.9357V48.8386H46.3416C46.2016 50.0825 45.7093 51.2715 44.9123 52.2454L46.0354 53.1651C47.1981 51.7439 47.8389 49.9496 47.8389 48.1128C47.8389 43.7108 44.257 40.1289 39.855 40.1289V40.1289Z" fill="#44545F"/>
<path d="M40.5808 54.5994V53.1935H39.1292V54.6022C36.1061 54.2662 33.7016 51.8609 33.3656 48.8386H34.7743V47.387H33.3684C33.5084 46.1431 34.0007 44.9541 34.7977 43.9802L33.6746 43.0605C32.5118 44.4817 31.8711 46.276 31.8711 48.1128C31.8711 52.5148 35.453 56.0967 39.855 56.0967C41.6918 56.0967 43.4861 55.4567 44.9073 54.2939L43.9869 53.1701C43.0137 53.9671 41.8247 54.4594 40.5808 54.5994V54.5994Z" fill="#44545F"/>
<path d="M53.6452 47.3873H52.1935V27.0648H47.8387V40.736C47.3954 40.2561 46.9098 39.8178 46.3871 39.4237V30.6938H42.0323V37.4451C41.5598 37.3487 41.0729 37.2952 40.5806 37.2622V34.3228H36.2258V37.8611C35.4957 38.1202 34.8018 38.4547 34.1522 38.8563C34.0062 38.4519 33.8453 38.055 33.6508 37.6761L34.7983 36.0689L30.8507 32.1199L29.2428 33.2681C28.7586 33.0208 28.2529 32.8117 27.7302 32.644L27.4059 30.6938H21.8206L21.4963 32.644C20.9736 32.8117 20.4679 33.0208 19.9838 33.2681L18.3762 32.1199L14.4282 36.0689L15.5758 37.6761C15.3277 38.1595 15.1186 38.6653 14.951 39.1887L13 39.5144V45.099L14.9503 45.424C15.1179 45.9474 15.3277 46.4531 15.5751 46.9365L14.4275 48.5434L18.3751 52.4928L19.9831 51.3445C20.4672 51.5919 20.9729 51.801 21.4956 51.9686L21.8199 53.9196H27.4052L27.7295 51.9693C28.2522 51.8017 28.7579 51.5926 29.242 51.3452L29.5323 51.5526C30.9775 55.8734 35.0545 59.0002 39.8548 59.0002C45.6134 59.0002 50.3291 54.504 50.7051 48.8389H58V21.2583H53.6452V47.3873ZM49.2903 28.5164H50.7419V47.3873H50.7051C50.5924 45.6912 50.0937 44.1017 49.2903 42.705V28.5164ZM43.4839 32.1454H44.9355V38.492C44.4716 38.2456 43.9846 38.0397 43.4839 37.8618V32.1454ZM37.6774 35.7744H39.129V37.2629C38.6368 37.2959 38.1498 37.3494 37.6774 37.4461V35.7744ZM28.9351 49.861C28.3008 50.2246 27.6164 50.5075 26.8984 50.702L26.449 50.8239L26.1747 52.468H23.0504L22.7761 50.8239L22.3267 50.702C21.6094 50.5075 20.9243 50.2246 20.29 49.861L19.8856 49.6293L18.5321 50.5968L16.3221 48.3874L17.2896 47.0326L17.0579 46.6282C16.695 45.9953 16.4114 45.3109 16.2169 44.5922L16.0957 44.1428L14.4516 43.8692V40.7441L16.0957 40.4706L16.2176 40.0212C16.4136 39.3018 16.6957 38.6167 17.0586 37.9852L17.2903 37.5808L16.3228 36.2259L18.5329 34.0166L19.8863 34.9841L20.2907 34.7523C20.925 34.3887 21.6094 34.1059 22.3274 33.9114L22.7768 33.7894L23.0511 32.1454H26.1754L26.4497 33.7894L26.8991 33.9114C27.6164 34.1059 28.3015 34.3887 28.9358 34.7523L29.3402 34.9841L30.6937 34.0166L32.9037 36.2259L31.9362 37.5808L32.168 37.9852C32.4812 38.5309 32.7222 39.1224 32.9118 39.7352C32.4873 40.0878 32.0974 40.4791 31.731 40.8905C31.0697 37.5641 28.1303 35.0486 24.6129 35.0486C20.6107 35.0486 17.3548 38.3045 17.3548 42.3067C17.3548 46.3089 20.6107 49.5648 24.6129 49.5648C26.1981 49.5648 27.7231 49.0285 28.9685 48.0936C28.9685 48.1 28.9677 48.1068 28.9677 48.1131C28.9677 48.6756 29.0237 49.2235 29.1063 49.7629L28.9351 49.861ZM30.4013 42.7341C29.8548 43.6917 29.4455 44.7354 29.2087 45.845C28.1126 47.2654 26.4079 48.1131 24.6129 48.1131C21.4113 48.1131 18.8065 45.5083 18.8065 42.3067C18.8065 39.1051 21.4113 36.5002 24.6129 36.5002C27.8145 36.5002 30.4194 39.1051 30.4194 42.3067C30.4194 42.4513 30.4112 42.5927 30.4013 42.7341ZM39.8548 57.5486C34.6523 57.5486 30.4194 53.3157 30.4194 48.1131C30.4194 42.9106 34.6523 38.6777 39.8548 38.6777C45.0574 38.6777 49.2903 42.9106 49.2903 48.1131C49.2903 53.3157 45.0574 57.5486 39.8548 57.5486ZM55.0968 22.7099H56.5484V47.3873H55.0968V22.7099Z" fill="#44545F"/>
<path d="M53.6452 14V15.4516H55.2049L50.07 19.5598L47.8387 17.3285L44.4166 20.7506C44.1328 20.6141 43.8191 20.5323 43.4839 20.5323C42.2835 20.5323 41.3065 21.5093 41.3065 22.7097C41.3065 23.085 41.411 23.4334 41.5786 23.7417L37.7848 27.9572C37.5279 27.8506 37.2472 27.7903 36.9516 27.7903C36.9378 27.7903 36.9254 27.7939 36.9116 27.7946L33.9931 20.0113C34.4666 19.6119 34.7742 19.0218 34.7742 18.3548C34.7742 17.1545 33.7971 16.1774 32.5968 16.1774C31.3964 16.1774 30.4194 17.1545 30.4194 18.3548C30.4194 18.5115 30.4374 18.6639 30.4693 18.812L24.5193 22.4729C24.1462 22.1717 23.6773 21.9839 23.1613 21.9839C22.2165 21.9839 21.418 22.5927 21.1175 23.4355H17.2212C16.9207 22.5927 16.1222 21.9839 15.1774 21.9839C13.9771 21.9839 13 22.9609 13 24.1613C13 25.3616 13.9771 26.3387 15.1774 26.3387C16.1222 26.3387 16.9207 25.7299 17.2212 24.8871H21.1182C21.4187 25.7299 22.2172 26.3387 23.162 26.3387C24.3623 26.3387 25.3394 25.3616 25.3394 24.1613C25.3394 24.0046 25.3213 23.8523 25.2894 23.7041L31.2394 20.0432C31.6119 20.3444 32.0808 20.5323 32.5968 20.5323C32.6106 20.5323 32.623 20.5287 32.6368 20.528L35.5553 28.3106C35.0818 28.7107 34.7742 29.3008 34.7742 29.9677C34.7742 31.1681 35.7513 32.1452 36.9516 32.1452C38.152 32.1452 39.129 31.1681 39.129 29.9677C39.129 29.5924 39.0252 29.2441 38.8569 28.9357L42.6507 24.7202C42.9076 24.8268 43.1883 24.8871 43.4839 24.8871C44.6842 24.8871 45.6613 23.91 45.6613 22.7097C45.6613 22.3744 45.5794 22.0608 45.443 21.7769L47.8387 19.3812L49.9623 21.5047L56.5484 16.2362V18.3548H58V14H53.6452ZM15.1774 24.8871C14.777 24.8871 14.4516 24.5611 14.4516 24.1613C14.4516 23.7615 14.777 23.4355 15.1774 23.4355C15.5779 23.4355 15.9032 23.7615 15.9032 24.1613C15.9032 24.5611 15.5779 24.8871 15.1774 24.8871ZM23.1613 24.8871C22.7608 24.8871 22.4355 24.5611 22.4355 24.1613C22.4355 23.7615 22.7608 23.4355 23.1613 23.4355C23.5618 23.4355 23.8871 23.7615 23.8871 24.1613C23.8871 24.5611 23.5618 24.8871 23.1613 24.8871ZM31.871 18.3548C31.871 17.9551 32.1963 17.629 32.5968 17.629C32.9972 17.629 33.3226 17.9551 33.3226 18.3548C33.3226 18.7546 32.9972 19.0806 32.5968 19.0806C32.1963 19.0806 31.871 18.7546 31.871 18.3548ZM36.9516 30.6935C36.5511 30.6935 36.2258 30.3675 36.2258 29.9677C36.2258 29.568 36.5511 29.2419 36.9516 29.2419C37.3521 29.2419 37.6774 29.568 37.6774 29.9677C37.6774 30.3675 37.3521 30.6935 36.9516 30.6935ZM43.4839 23.4355C43.0834 23.4355 42.7581 23.1094 42.7581 22.7097C42.7581 22.3099 43.0834 21.9839 43.4839 21.9839C43.8843 21.9839 44.2097 22.3099 44.2097 22.7097C44.2097 23.1094 43.8843 23.4355 43.4839 23.4355Z" fill="#44545F"/>
</g>
<defs>
<clipPath id="clip0">
<rect width="45" height="45" fill="white" transform="translate(13 14)"/>
</clipPath>
</defs>
</svg>
