<svg width="71" height="71" viewBox="0 0 71 71" fill="none" xmlns="http://www.w3.org/2000/svg">
<path d="M65.2742 65.2742H46.9516V69.8548H65.2742V65.2742Z" fill="#FFD205"/>
<path d="M65.2742 56.1129H46.9516V60.6935H65.2742V56.1129Z" fill="#FFD205"/>
<path d="M65.2742 46.9516H46.9516V51.5322H65.2742V46.9516Z" fill="#FFD205"/>
<path d="M42.371 65.2742H24.0484V69.8548H42.371V65.2742Z" fill="#FFD205"/>
<path d="M42.371 56.1129H24.0484V60.6935H42.371V56.1129Z" fill="#FFD205"/>
<path d="M42.371 46.9516H24.0484V51.5322H42.371V46.9516Z" fill="#FFD205"/>
<path d="M19.4678 65.2742H1.14517V69.8548H19.4678V65.2742Z" fill="#FFD205"/>
<path d="M19.4678 56.1129H1.14517V60.6935H19.4678V56.1129Z" fill="#FFD205"/>
<path d="M65.2742 37.7903H46.9516V42.371H65.2742V37.7903Z" fill="#FFD205"/>
<path d="M14.8871 30.9194C6.67858 30.9194 0 24.2408 0 16.0323C0 7.82378 6.67858 1.1452 14.8871 1.1452C23.0956 1.1452 29.7742 7.82378 29.7742 16.0323C29.7742 24.2408 23.0956 30.9194 14.8871 30.9194Z" fill="#FFD205"/>
<path d="M0 59.5484V61.8387V64.1291V66.4194V71H20.6129V66.4194V64.1291V61.8387V59.5484V54.9678H0V59.5484ZM18.3226 68.7097H2.29032V66.4194H18.3226V68.7097ZM18.3226 64.1291H2.29032V61.8387H18.3226V64.1291ZM2.29032 57.2581H18.3226V59.5484H2.29032V57.2581Z" fill="#465861"/>
<path d="M22.9032 50.3871V52.6774V54.9677V57.2581V59.5484V61.8387V64.129V65.2742V71H43.5161V65.2742V64.129V61.8387V59.5484V57.2581V54.9677V52.6774V50.3871V45.8065H22.9032V50.3871ZM41.2258 64.129H29.7742V66.4194H41.2258V68.7097H25.1936V66.4194H27.4839V64.129H25.1936V61.8387H41.2258V64.129ZM41.2258 59.5484H25.1936V57.2581H41.2258V59.5484ZM41.2258 54.9677H25.1936V52.6774H41.2258V54.9677ZM25.1936 48.0968H41.2258V50.3871H25.1936V48.0968Z" fill="#465861"/>
<path d="M45.8064 41.2258V43.5161V45.8064V46.9516V50.3871V52.6774V54.9677V57.258V59.5484V61.8387V64.129V66.4193V71H66.4193V66.4193V64.129V61.8387V59.5484V57.258V54.9677V52.6774V50.3871V46.9516V45.8064V43.5161V41.2258V36.6451H45.8064V41.2258ZM64.129 68.7097H48.0967V66.4193H64.129V68.7097ZM64.129 64.129H48.0967V61.8387H64.129V64.129ZM64.129 59.5484H48.0967V57.258H64.129V59.5484ZM64.129 54.9677H48.0967V52.6774H64.129V54.9677ZM64.129 45.8064H61.8387V48.0968H64.129V50.3871H48.0967V48.0968H59.5484V45.8064H48.0967V43.5161H64.129V45.8064ZM48.0967 38.9355H64.129V41.2258H48.0967V38.9355Z" fill="#465861"/>
<path d="M53.8226 0C51.9285 0 50.3871 1.54139 50.3871 3.43548C50.3871 5.32958 51.9285 6.87097 53.8226 6.87097H59.0743L42.2061 23.7392L33.1353 18.0695L0.437469 43.7532L1.85289 45.5545L33.2841 20.8648L42.5359 26.6468L64.6032 4.58065H53.8226C53.1905 4.58065 52.6774 4.06647 52.6774 3.43548C52.6774 2.8045 53.1905 2.29032 53.8226 2.29032H68.7097V17.1774C68.7097 17.8084 68.1967 18.3226 67.5645 18.3226C66.9324 18.3226 66.4194 17.8084 66.4194 17.1774V7.54203L43.3169 30.6434L33.094 24.9645L3.86494 48.3476L5.29639 50.1363L33.3254 27.7129L43.7154 33.4857L64.1291 13.0709V17.1774C64.1291 19.0715 65.6704 20.6129 67.5645 20.6129C69.4586 20.6129 71 19.0715 71 17.1774V0H53.8226Z" fill="#465861"/>
<path d="M6.87095 14.8871H4.58063V17.1775H6.87095V14.8871Z" fill="#465861"/>
<path d="M25.1936 14.8871H22.9032V17.1775H25.1936V14.8871Z" fill="#465861"/>
<path d="M10.2501 19.9316H12.0001V21.7046C12.0001 21.7909 12.0235 21.8615 12.0704 21.9167C12.1173 21.9722 12.1772 22 12.2502 22H13.5548C13.6225 22 13.6811 21.9722 13.7306 21.9167C13.7801 21.8615 13.8047 21.7908 13.8047 21.7046V19.9316H17.7501C17.8229 19.9316 17.8828 19.9042 17.9298 19.8487C17.9768 19.7931 18.0001 19.7225 18.0001 19.6362V18.4544C18.0001 18.3686 17.9768 18.2975 17.9298 18.2423C17.8829 18.1867 17.8229 18.1589 17.7501 18.1589H13.8046V17.0694H16.4609C17.5025 17.0694 18.3526 16.6943 19.0117 15.943C19.6704 15.1926 20 14.2231 20 13.0347C20 11.8471 19.6704 10.8776 19.0117 10.1264C18.3528 9.37586 17.5025 9 16.4609 9H12.25C12.1771 9 12.1173 9.02775 12.0703 9.08298C12.0235 9.1385 12 9.2096 12 9.29538V15.1031H10.2501C10.1771 15.1031 10.1173 15.1322 10.0703 15.1907C10.0235 15.2492 10 15.3184 10 15.3984V16.774C10 16.8602 10.0234 16.9309 10.0703 16.9864C10.1173 17.042 10.177 17.0694 10.2501 17.0694H12.0001V18.1589H10.2501C10.1771 18.1589 10.1173 18.1867 10.0703 18.2423C10.0235 18.2975 10 18.3684 10 18.4543V19.6362C10 19.7225 10.0234 19.7931 10.0703 19.8486C10.1173 19.9042 10.1771 19.9316 10.2501 19.9316ZM13.8046 10.9668H16.3046C16.8566 10.9668 17.3019 11.1576 17.6405 11.5392C17.979 11.9208 18.1483 12.4196 18.1483 13.0349C18.1483 13.6504 17.979 14.1493 17.6405 14.5305C17.3019 14.9125 16.8566 15.1032 16.3046 15.1032H13.8046V10.9668Z" fill="#465861"/>
</svg>
