<svg width="980" height="400" viewBox="0 0 980 400" fill="none" xmlns="http://www.w3.org/2000/svg">
<rect width="980" height="400" fill="#F7F7F7"/>
<g filter="url(#filter0_d)">
<rect x="82" y="103" width="304" height="72" fill="white"/>
</g>
<g filter="url(#filter1_d)">
<path d="M167 103H82V175H167V103Z" fill="#FFD200"/>
</g>
<path d="M199.951 133H196.896L193.929 127.935V133H191.215V123.006H193.929V127.846L196.786 123.006H199.753L196.67 127.777L199.951 133ZM205.468 133.137C205.076 133.137 204.725 133.073 204.415 132.945C204.105 132.813 203.798 132.578 203.492 132.241H203.369C203.451 132.784 203.492 133.121 203.492 133.253V136.363H200.819V125.255H202.993L203.369 126.239H203.492C203.989 125.492 204.675 125.118 205.55 125.118C206.407 125.118 207.079 125.474 207.566 126.185C208.054 126.896 208.298 127.871 208.298 129.11C208.298 130.359 208.043 131.343 207.532 132.063C207.026 132.779 206.338 133.137 205.468 133.137ZM204.572 127.217C204.18 127.217 203.905 127.358 203.745 127.641C203.59 127.919 203.506 128.333 203.492 128.885V129.097C203.492 129.762 203.581 130.243 203.759 130.539C203.937 130.835 204.217 130.983 204.6 130.983C204.941 130.983 205.19 130.838 205.345 130.546C205.5 130.25 205.577 129.762 205.577 129.083C205.577 128.418 205.5 127.941 205.345 127.654C205.19 127.363 204.932 127.217 204.572 127.217ZM208.893 125.255H211.709L213.021 129.698C213.085 129.931 213.129 130.211 213.151 130.539H213.206C213.243 130.225 213.297 129.949 213.37 129.712L214.717 125.255H217.444L214.382 133.492C213.99 134.54 213.507 135.281 212.933 135.714C212.363 136.147 211.618 136.363 210.697 136.363C210.342 136.363 209.977 136.325 209.604 136.247V134.148C209.845 134.203 210.121 134.23 210.431 134.23C210.668 134.23 210.875 134.185 211.053 134.094C211.23 134.003 211.385 133.873 211.518 133.704C211.65 133.54 211.791 133.269 211.941 132.891L208.893 125.255ZM225.723 125.255V133H223.05V127.244H221.047V133H218.374V125.255H225.723ZM230.248 125.255V128.044H232.367V125.255H235.04V133H232.367V130.033H230.248V133H227.575V125.255H230.248ZM244.282 129.11C244.282 130.377 243.94 131.366 243.257 132.077C242.578 132.784 241.625 133.137 240.399 133.137C239.224 133.137 238.287 132.774 237.59 132.05C236.897 131.325 236.551 130.345 236.551 129.11C236.551 127.848 236.89 126.868 237.569 126.171C238.253 125.469 239.21 125.118 240.44 125.118C241.201 125.118 241.874 125.28 242.457 125.604C243.04 125.927 243.489 126.392 243.804 126.998C244.123 127.6 244.282 128.304 244.282 129.11ZM239.265 129.11C239.265 129.776 239.354 130.284 239.531 130.635C239.709 130.981 240.007 131.154 240.427 131.154C240.841 131.154 241.133 130.981 241.302 130.635C241.475 130.284 241.562 129.776 241.562 129.11C241.562 128.45 241.475 127.951 241.302 127.613C241.129 127.276 240.832 127.107 240.413 127.107C240.003 127.107 239.709 127.276 239.531 127.613C239.354 127.946 239.265 128.445 239.265 129.11ZM249.553 133.137C248.263 133.137 247.26 132.795 246.545 132.111C245.834 131.423 245.479 130.446 245.479 129.179C245.479 127.871 245.809 126.868 246.47 126.171C247.131 125.469 248.074 125.118 249.3 125.118C250.466 125.118 251.367 125.424 252 126.034C252.638 126.64 252.957 127.515 252.957 128.659V129.849H248.179C248.197 130.282 248.354 130.621 248.65 130.867C248.951 131.113 249.359 131.236 249.874 131.236C250.343 131.236 250.774 131.193 251.166 131.106C251.562 131.015 251.991 130.863 252.451 130.648V132.569C252.032 132.784 251.599 132.932 251.152 133.014C250.706 133.096 250.173 133.137 249.553 133.137ZM249.396 126.937C249.081 126.937 248.817 127.037 248.603 127.237C248.393 127.433 248.27 127.743 248.233 128.167H250.53C250.521 127.793 250.414 127.495 250.209 127.271C250.008 127.048 249.737 126.937 249.396 126.937ZM265.453 125.255V133H262.78V127.244H260.777V133H258.104V125.255H265.453ZM271.954 133.137C271.562 133.137 271.211 133.073 270.901 132.945C270.591 132.813 270.284 132.578 269.979 132.241H269.855C269.938 132.784 269.979 133.121 269.979 133.253V136.363H267.306V125.255H269.479L269.855 126.239H269.979C270.475 125.492 271.161 125.118 272.036 125.118C272.893 125.118 273.565 125.474 274.053 126.185C274.54 126.896 274.784 127.871 274.784 129.11C274.784 130.359 274.529 131.343 274.019 132.063C273.513 132.779 272.825 133.137 271.954 133.137ZM271.059 127.217C270.667 127.217 270.391 127.358 270.231 127.641C270.076 127.919 269.992 128.333 269.979 128.885V129.097C269.979 129.762 270.067 130.243 270.245 130.539C270.423 130.835 270.703 130.983 271.086 130.983C271.428 130.983 271.676 130.838 271.831 130.546C271.986 130.25 272.063 129.762 272.063 129.083C272.063 128.418 271.986 127.941 271.831 127.654C271.676 127.363 271.419 127.217 271.059 127.217ZM280.055 133.137C278.765 133.137 277.762 132.795 277.047 132.111C276.336 131.423 275.98 130.446 275.98 129.179C275.98 127.871 276.311 126.868 276.972 126.171C277.632 125.469 278.576 125.118 279.802 125.118C280.968 125.118 281.868 125.424 282.502 126.034C283.14 126.64 283.459 127.515 283.459 128.659V129.849H278.681C278.699 130.282 278.856 130.621 279.152 130.867C279.453 131.113 279.861 131.236 280.376 131.236C280.845 131.236 281.276 131.193 281.668 131.106C282.064 131.015 282.493 130.863 282.953 130.648V132.569C282.534 132.784 282.101 132.932 281.654 133.014C281.208 133.096 280.674 133.137 280.055 133.137ZM279.897 126.937C279.583 126.937 279.319 127.037 279.104 127.237C278.895 127.433 278.772 127.743 278.735 128.167H281.032C281.023 127.793 280.916 127.495 280.711 127.271C280.51 127.048 280.239 126.937 279.897 126.937ZM294.014 135.844H291.676V133H286.556V135.844H284.218V131.011H284.901C285.298 130.336 285.631 129.495 285.899 128.488C286.173 127.477 286.362 126.399 286.467 125.255H292.865V131.011H294.014V135.844ZM290.192 131.011V127.244H288.668C288.586 127.859 288.474 128.459 288.333 129.042C288.192 129.625 287.987 130.282 287.718 131.011H290.192ZM302.463 125.255V133H299.79V127.244H297.787V133H295.114V125.255H302.463ZM308.964 133.137C308.572 133.137 308.221 133.073 307.911 132.945C307.601 132.813 307.294 132.578 306.988 132.241H306.865C306.947 132.784 306.988 133.121 306.988 133.253V136.363H304.315V125.255H306.489L306.865 126.239H306.988C307.485 125.492 308.171 125.118 309.046 125.118C309.903 125.118 310.575 125.474 311.062 126.185C311.55 126.896 311.794 127.871 311.794 129.11C311.794 130.359 311.539 131.343 311.028 132.063C310.522 132.779 309.834 133.137 308.964 133.137ZM308.068 127.217C307.676 127.217 307.401 127.358 307.241 127.641C307.086 127.919 307.002 128.333 306.988 128.885V129.097C306.988 129.762 307.077 130.243 307.255 130.539C307.433 130.835 307.713 130.983 308.096 130.983C308.438 130.983 308.686 130.838 308.841 130.546C308.996 130.25 309.073 129.762 309.073 129.083C309.073 128.418 308.996 127.941 308.841 127.654C308.686 127.363 308.428 127.217 308.068 127.217ZM315.704 125.255V127.203C315.704 127.312 315.702 127.431 315.697 127.559C315.697 127.686 315.668 128.497 315.608 129.992L318.705 125.255H321.658V133H319.279V130.901C319.279 130.168 319.311 129.299 319.375 128.297L316.292 133H313.325V125.255H315.704ZM325.247 133H322.417L324.406 130.061C324.005 129.842 323.688 129.532 323.456 129.131C323.224 128.73 323.107 128.265 323.107 127.736C323.107 126.943 323.401 126.333 323.989 125.904C324.582 125.471 325.416 125.255 326.491 125.255H330.189V133H327.517V130.313H326.73L325.247 133ZM325.78 127.818C325.78 128.055 325.865 128.24 326.033 128.372C326.202 128.5 326.443 128.563 326.758 128.563H327.517V127.005H326.744C326.443 127.005 326.206 127.076 326.033 127.217C325.865 127.358 325.78 127.559 325.78 127.818ZM339.227 127.244H336.677V133H334.004V127.244H331.454V125.255H339.227V127.244ZM342.87 125.255V127.203C342.87 127.312 342.868 127.431 342.863 127.559C342.863 127.686 342.834 128.497 342.774 129.992L345.871 125.255H348.824V133H346.445V130.901C346.445 130.168 346.477 129.299 346.541 128.297L343.458 133H340.491V125.255H342.87ZM354.416 133.137C353.126 133.137 352.124 132.795 351.408 132.111C350.697 131.423 350.342 130.446 350.342 129.179C350.342 127.871 350.672 126.868 351.333 126.171C351.994 125.469 352.937 125.118 354.163 125.118C355.33 125.118 356.23 125.424 356.863 126.034C357.501 126.64 357.82 127.515 357.82 128.659V129.849H353.042C353.06 130.282 353.217 130.621 353.514 130.867C353.814 131.113 354.222 131.236 354.737 131.236C355.207 131.236 355.637 131.193 356.029 131.106C356.426 131.015 356.854 130.863 357.314 130.648V132.569C356.895 132.784 356.462 132.932 356.016 133.014C355.569 133.096 355.036 133.137 354.416 133.137ZM354.259 126.937C353.944 126.937 353.68 127.037 353.466 127.237C353.256 127.433 353.133 127.743 353.097 128.167H355.394C355.384 127.793 355.277 127.495 355.072 127.271C354.872 127.048 354.601 126.937 354.259 126.937ZM358.702 130.313V128.181H362.564V130.313H358.702ZM205.29 144.255V147.044H207.409V144.255H210.082V152H207.409V149.033H205.29V152H202.617V144.255H205.29ZM216.979 152L216.467 150.975H216.412C216.052 151.421 215.685 151.727 215.312 151.891C214.938 152.055 214.455 152.137 213.862 152.137C213.133 152.137 212.559 151.918 212.14 151.48C211.72 151.043 211.511 150.428 211.511 149.635C211.511 148.81 211.798 148.197 212.372 147.796C212.946 147.39 213.778 147.162 214.867 147.112L216.159 147.071V146.962C216.159 146.324 215.845 146.005 215.216 146.005C214.651 146.005 213.933 146.196 213.062 146.579L212.29 144.815C213.192 144.351 214.332 144.118 215.708 144.118C216.701 144.118 217.469 144.364 218.012 144.856C218.559 145.349 218.832 146.037 218.832 146.921V152H216.979ZM214.997 150.25C215.321 150.25 215.596 150.147 215.824 149.942C216.057 149.737 216.173 149.471 216.173 149.143V148.541L215.558 148.568C214.678 148.6 214.238 148.924 214.238 149.539C214.238 150.013 214.491 150.25 214.997 150.25ZM228.423 152H225.75V146.244H224.178C224.027 147.908 223.838 149.131 223.61 149.915C223.382 150.694 223.068 151.259 222.667 151.61C222.266 151.961 221.726 152.137 221.047 152.137C220.573 152.137 220.17 152.068 219.837 151.932V149.942C219.987 150.024 220.188 150.065 220.438 150.065C220.644 150.065 220.81 149.961 220.938 149.751C221.065 149.537 221.177 149.197 221.272 148.732C221.373 148.268 221.462 147.671 221.539 146.941C221.621 146.212 221.699 145.317 221.771 144.255H228.423V152ZM237.672 148.11C237.672 149.377 237.33 150.366 236.646 151.077C235.967 151.784 235.015 152.137 233.789 152.137C232.613 152.137 231.677 151.774 230.979 151.05C230.287 150.325 229.94 149.345 229.94 148.11C229.94 146.848 230.28 145.868 230.959 145.171C231.643 144.469 232.6 144.118 233.83 144.118C234.591 144.118 235.263 144.28 235.847 144.604C236.43 144.927 236.879 145.392 237.193 145.998C237.512 146.6 237.672 147.304 237.672 148.11ZM232.654 148.11C232.654 148.776 232.743 149.284 232.921 149.635C233.099 149.981 233.397 150.154 233.816 150.154C234.231 150.154 234.523 149.981 234.691 149.635C234.865 149.284 234.951 148.776 234.951 148.11C234.951 147.45 234.865 146.951 234.691 146.613C234.518 146.276 234.222 146.107 233.803 146.107C233.393 146.107 233.099 146.276 232.921 146.613C232.743 146.946 232.654 147.445 232.654 148.11ZM244.959 144.255V146.244H241.876V152H239.203V144.255H244.959ZM253.613 148.11C253.613 149.377 253.271 150.366 252.588 151.077C251.909 151.784 250.956 152.137 249.73 152.137C248.555 152.137 247.618 151.774 246.921 151.05C246.228 150.325 245.882 149.345 245.882 148.11C245.882 146.848 246.221 145.868 246.9 145.171C247.584 144.469 248.541 144.118 249.771 144.118C250.533 144.118 251.205 144.28 251.788 144.604C252.371 144.927 252.82 145.392 253.135 145.998C253.454 146.6 253.613 147.304 253.613 148.11ZM248.596 148.11C248.596 148.776 248.685 149.284 248.862 149.635C249.04 149.981 249.339 150.154 249.758 150.154C250.173 150.154 250.464 149.981 250.633 149.635C250.806 149.284 250.893 148.776 250.893 148.11C250.893 147.45 250.806 146.951 250.633 146.613C250.46 146.276 250.163 146.107 249.744 146.107C249.334 146.107 249.04 146.276 248.862 146.613C248.685 146.946 248.596 147.445 248.596 148.11ZM262.493 144.255V152H259.82V146.244H257.817V152H255.145V144.255H262.493ZM272.118 152H269.445V146.244H267.873C267.723 147.908 267.534 149.131 267.306 149.915C267.078 150.694 266.763 151.259 266.362 151.61C265.961 151.961 265.421 152.137 264.742 152.137C264.268 152.137 263.865 152.068 263.532 151.932V149.942C263.683 150.024 263.883 150.065 264.134 150.065C264.339 150.065 264.505 149.961 264.633 149.751C264.76 149.537 264.872 149.197 264.968 148.732C265.068 148.268 265.157 147.671 265.234 146.941C265.316 146.212 265.394 145.317 265.467 144.255H272.118V152ZM279.022 152L278.51 150.975H278.455C278.095 151.421 277.728 151.727 277.354 151.891C276.981 152.055 276.498 152.137 275.905 152.137C275.176 152.137 274.602 151.918 274.183 151.48C273.763 151.043 273.554 150.428 273.554 149.635C273.554 148.81 273.841 148.197 274.415 147.796C274.989 147.39 275.821 147.162 276.91 147.112L278.202 147.071V146.962C278.202 146.324 277.888 146.005 277.259 146.005C276.694 146.005 275.976 146.196 275.105 146.579L274.333 144.815C275.235 144.351 276.375 144.118 277.751 144.118C278.744 144.118 279.512 144.364 280.055 144.856C280.602 145.349 280.875 146.037 280.875 146.921V152H279.022ZM277.04 150.25C277.364 150.25 277.639 150.147 277.867 149.942C278.1 149.737 278.216 149.471 278.216 149.143V148.541L277.601 148.568C276.721 148.6 276.281 148.924 276.281 149.539C276.281 150.013 276.534 150.25 277.04 150.25ZM289.878 146.244H287.328V152H284.655V146.244H282.105V144.255H289.878V146.244ZM294.882 152.137C293.592 152.137 292.59 151.795 291.874 151.111C291.163 150.423 290.808 149.446 290.808 148.179C290.808 146.871 291.138 145.868 291.799 145.171C292.46 144.469 293.403 144.118 294.629 144.118C295.796 144.118 296.696 144.424 297.329 145.034C297.967 145.64 298.286 146.515 298.286 147.659V148.849H293.508C293.526 149.282 293.683 149.621 293.979 149.867C294.28 150.113 294.688 150.236 295.203 150.236C295.673 150.236 296.103 150.193 296.495 150.106C296.892 150.015 297.32 149.863 297.78 149.648V151.569C297.361 151.784 296.928 151.932 296.481 152.014C296.035 152.096 295.502 152.137 294.882 152.137ZM294.725 145.937C294.41 145.937 294.146 146.037 293.932 146.237C293.722 146.433 293.599 146.743 293.562 147.167H295.859C295.85 146.793 295.743 146.495 295.538 146.271C295.338 146.048 295.066 145.937 294.725 145.937ZM307.569 152H304.896V146.244H303.324C303.174 147.908 302.985 149.131 302.757 149.915C302.529 150.694 302.215 151.259 301.813 151.61C301.412 151.961 300.872 152.137 300.193 152.137C299.719 152.137 299.316 152.068 298.983 151.932V149.942C299.134 150.024 299.334 150.065 299.585 150.065C299.79 150.065 299.956 149.961 300.084 149.751C300.212 149.537 300.323 149.197 300.419 148.732C300.519 148.268 300.608 147.671 300.686 146.941C300.768 146.212 300.845 145.317 300.918 144.255H307.569V152ZM312.095 144.255V147.044H312.348C313.692 147.044 314.665 147.231 315.267 147.604C315.868 147.978 316.169 148.589 316.169 149.437C316.169 150.325 315.88 150.975 315.301 151.385C314.722 151.795 313.845 152 312.669 152H309.422V144.255H312.095ZM313.496 149.553C313.496 149.284 313.421 149.09 313.271 148.972C313.12 148.853 312.869 148.794 312.519 148.794H312.095V150.25H312.546C313.179 150.25 313.496 150.018 313.496 149.553ZM329.752 150.011H331.488V154.844H329.15V152H317.543V144.255H320.216V150.011H322.362V144.255H324.967V150.011H327.079V144.255H329.752V150.011ZM334.961 144.255V146.203C334.961 146.312 334.959 146.431 334.954 146.559C334.954 146.686 334.924 147.497 334.865 148.992L337.962 144.255H340.915V152H338.536V149.901C338.536 149.168 338.568 148.299 338.632 147.297L335.549 152H332.582V144.255H334.961ZM348.188 144.255H351.142L348.243 147.967L351.367 152H348.312L345.44 148.069V152H342.768V144.255H345.44V148.008L348.188 144.255Z" fill="#44545F"/>
<path d="M145.024 141.551L136.2 145.397V142.205C136.2 141.695 135.686 141.35 135.224 141.551L125.556 145.764H123.6V140.339C123.6 139.404 122.855 138.647 121.936 138.647H119.664C118.745 138.647 118 139.404 118 140.339V145.764H115.9H115.15L113.798 127.206C113.771 126.834 113.467 126.547 113.1 126.547H108.9C108.534 126.547 108.229 126.834 108.202 127.206L106.85 145.764H106.1C105.743 145.764 105.444 146.037 105.404 146.397L104.004 159.209C103.958 159.631 104.283 159.999 104.7 159.999H108.899C108.899 159.999 108.9 160 108.9 160H113.1C113.101 160 113.101 159.999 113.101 159.999H117.3H125.7H129.199C129.199 159.999 129.2 160 129.2 160H132C132.001 160 132.001 159.999 132.001 159.999H135.5H138.999C138.999 159.999 139 160 139 160H141.8C141.801 160 141.801 159.999 141.801 159.999H145.3C145.687 159.999 146 159.681 146 159.288V142.206C146 141.695 145.486 141.35 145.024 141.551ZM119.4 140.339C119.4 140.19 119.518 140.07 119.664 140.07H121.936C122.082 140.07 122.2 140.19 122.2 140.339V145.764H119.4V140.339V140.339ZM118.7 147.188H122.9H125V158.576H117.927L116.682 147.188H118.7ZM109.55 127.97H112.45L113.746 145.764H108.254L109.55 127.97ZM106.727 147.188H107.5H114.5H115.274L115.827 152.253L116.518 158.576H113.8V153.594C113.8 153.201 113.487 152.882 113.1 152.882H108.9C108.514 152.882 108.2 153.201 108.2 153.594V158.576H105.482L106.727 147.188ZM109.6 158.576V154.305H112.4V158.576H109.6ZM126.4 146.945L134.8 143.285V146.476V158.576H132.7V154.305C132.7 153.912 132.387 153.594 132 153.594H129.2C128.814 153.594 128.5 153.912 128.5 154.305V158.576H126.4V146.945H126.4ZM129.9 158.576V155.017H131.3V158.576H129.9ZM141.1 158.576H139.7V155.017H141.1V158.576ZM144.6 158.576H142.5V154.305C142.5 153.912 142.187 153.594 141.8 153.594H139C138.613 153.594 138.3 153.912 138.3 154.305V158.576H136.2V146.945L144.6 143.285V158.576H144.6Z" fill="#444444"/>
<path d="M111.955 125.076C112.003 125.057 112.099 125.021 112.234 124.974C112.464 124.895 112.718 124.815 112.987 124.741C113.542 124.587 114.086 124.478 114.586 124.431C115.826 124.316 116.487 124.582 116.614 125.257C116.626 125.386 116.674 125.686 116.763 126.066C116.909 126.697 117.117 127.329 117.401 127.926C118.249 129.705 119.596 130.818 121.501 130.818C122.239 130.839 122.982 130.813 123.701 130.708C124.662 130.568 125.425 130.315 125.892 129.883C126.938 130.947 127.956 131.617 128.931 131.971C129.607 132.217 130.178 132.284 130.609 132.245C132.02 132.228 133.321 131.633 134.521 130.664C134.906 130.353 135.255 130.022 135.565 129.689C136.741 130.626 137.965 130.907 138.978 130.824C139.223 130.818 139.397 130.816 139.565 130.812C144.802 130.691 147.483 124.331 143.857 120.512C143.774 120.424 143.71 120.362 143.67 120.325C143.22 119.912 142.501 120.237 142.501 120.854C142.501 122.717 142.072 123.737 141.414 124.181C141.105 124.39 140.78 124.447 140.524 124.423C140.515 124.422 140.401 124.412 140.401 124.412C139.09 124.412 137.746 123.191 136.616 121.393C135.954 120.338 135.159 119.471 134.231 118.84C133.258 118.179 132.494 117.957 131.96 118.007C130.248 118.016 128.847 118.618 127.756 119.612C127.606 119.748 127.468 119.885 127.343 120.02C127.017 119.56 126.533 119.222 125.94 119.003C125.342 118.782 124.752 118.713 124.3 118.718C122.682 118.718 121.341 119.006 120.263 119.491C119.77 119.713 119.4 119.942 119.144 120.142H118.001C115.574 120.142 113.74 120.878 112.445 122.114C111.651 122.871 111.216 123.639 111.037 124.189C110.851 124.76 111.403 125.294 111.955 125.076ZM118.001 121.565H119.401C119.585 121.565 119.762 121.492 119.892 121.361C120.012 121.241 120.318 121.023 120.83 120.793C121.729 120.388 122.877 120.142 124.301 120.142C124.615 120.138 125.052 120.189 125.462 120.341C126.084 120.57 126.401 120.937 126.401 121.565C126.401 122.321 127.407 122.556 127.731 121.876C127.758 121.819 127.828 121.695 127.943 121.527C128.142 121.237 128.39 120.945 128.689 120.672C129.544 119.894 130.632 119.43 132.001 119.43L132.129 119.418C132.123 119.421 132.218 119.43 132.378 119.477C132.67 119.561 133.028 119.735 133.453 120.023C134.21 120.538 134.872 121.261 135.436 122.159C136.794 124.32 138.426 125.811 140.352 125.836C140.941 125.892 141.577 125.78 142.188 125.367C142.936 124.862 143.463 124.012 143.721 122.787C145.021 125.66 143.013 129.308 139.533 129.388C139.361 129.393 139.184 129.395 139.001 129.395L138.897 129.403C138.63 129.425 138.313 129.406 137.945 129.319C137.395 129.187 136.85 128.924 136.335 128.493C136.22 128.396 136.107 128.292 135.996 128.18C135.697 127.875 135.203 127.909 134.945 128.25C134.891 128.322 134.778 128.461 134.611 128.643C134.328 128.952 134.005 129.262 133.649 129.549C132.662 130.348 131.624 130.818 130.601 130.818L130.483 130.828C130.25 130.849 129.882 130.805 129.402 130.63C128.627 130.349 127.784 129.794 126.896 128.891L126.196 128.18L124.796 126.756C124.523 126.478 124.08 126.478 123.806 126.756C123.533 127.034 123.533 127.485 123.806 127.763L124.885 128.86C124.683 129.023 124.219 129.194 123.502 129.299C122.874 129.39 122.203 129.414 121.634 129.399C121.584 129.397 121.548 129.396 121.534 129.395C120.21 129.395 119.297 128.64 118.661 127.305C118.426 126.811 118.249 126.276 118.125 125.739C118.051 125.419 118.011 125.174 117.997 125.045C117.689 123.388 116.326 122.84 114.458 123.014C114.105 123.046 113.741 123.104 113.37 123.183C114.438 122.164 115.93 121.565 118.001 121.565Z" fill="#444444"/>
<path d="M119.399 156.442C119.786 156.442 120.099 156.123 120.099 155.73V150.036C120.099 149.643 119.786 149.324 119.399 149.324C119.013 149.324 118.699 149.643 118.699 150.036V155.73C118.699 156.123 119.013 156.442 119.399 156.442Z" fill="#444444"/>
<path d="M122.899 156.442C123.286 156.442 123.599 156.123 123.599 155.73V150.036C123.599 149.643 123.286 149.324 122.899 149.324C122.513 149.324 122.199 149.643 122.199 150.036V155.73C122.199 156.123 122.513 156.442 122.899 156.442Z" fill="#444444"/>
<path d="M129.2 151.458H132C132.387 151.458 132.7 151.139 132.7 150.746V147.899C132.7 147.506 132.387 147.188 132 147.188H129.2C128.813 147.188 128.5 147.506 128.5 147.899V150.746C128.5 151.139 128.813 151.458 129.2 151.458ZM129.9 148.611H131.3V150.034H129.9V148.611Z" fill="#444444"/>
<path d="M139.001 151.458H141.801C142.187 151.458 142.501 151.139 142.501 150.746V147.899C142.501 147.506 142.187 147.188 141.801 147.188H139.001C138.614 147.188 138.301 147.506 138.301 147.899V150.746C138.301 151.139 138.614 151.458 139.001 151.458ZM139.701 148.611H141.101V150.034H139.701V148.611Z" fill="#444444"/>
<g filter="url(#filter2_d)">
<rect x="594" y="103" width="304" height="72" fill="white"/>
</g>
<g filter="url(#filter3_d)">
<path d="M679 103H594V175H679V103Z" fill="#FFD200"/>
</g>
<g filter="url(#filter4_d)">
<rect x="346" y="267" width="304" height="72" fill="white"/>
</g>
<g filter="url(#filter5_d)">
<path d="M431 267H346V339H431V267Z" fill="#FFD200"/>
</g>
<path d="M284 103V63" stroke="#FFD205" stroke-width="4"/>
<path d="M711 92V62" stroke="#FFD205" stroke-width="4"/>
<path d="M282 63H713" stroke="#FFD205" stroke-width="4"/>
<path d="M711.353 102.749L719.924 85.9101C720.015 85.7319 720.025 85.5009 719.951 85.3107C719.877 85.1195 719.731 85 719.572 85H702.428C702.27 85 702.123 85.1195 702.049 85.3107C702.016 85.3953 702 85.4879 702 85.5805C702 85.696 702.026 85.8105 702.076 85.9101L710.647 102.749C710.728 102.906 710.859 103 710.999 103C711.141 103 711.273 102.905 711.353 102.749Z" fill="#FFDA44"/>
<path d="M668 303H709" stroke="#FFD205" stroke-width="4"/>
<path d="M711 305V175" stroke="#FFD205" stroke-width="4"/>
<path d="M650.251 303.353L667.09 311.924C667.268 312.015 667.499 312.025 667.689 311.951C667.88 311.877 668 311.731 668 311.572V294.428C668 294.27 667.88 294.123 667.689 294.049C667.605 294.016 667.512 294 667.419 294C667.304 294 667.189 294.026 667.09 294.076L650.251 302.647C650.094 302.728 650 302.859 650 302.999C650 303.141 650.095 303.273 650.251 303.353Z" fill="#FFDA44"/>
<path d="M284 303H346" stroke="#FFD205" stroke-width="4"/>
<path d="M286 305V193" stroke="#FFD205" stroke-width="4"/>
<path d="M285.647 175.251L277.076 192.09C276.985 192.268 276.975 192.499 277.049 192.689C277.123 192.88 277.269 193 277.428 193H294.572C294.73 193 294.877 192.88 294.951 192.689C294.984 192.605 295 192.512 295 192.419C295 192.304 294.974 192.189 294.924 192.09L286.353 175.251C286.272 175.094 286.141 175 286.001 175C285.859 175 285.727 175.095 285.647 175.251Z" fill="#FFDA44"/>
<g clip-path="url(#clip0)">
<path d="M629.359 134.802C630.132 134.802 630.759 134.175 630.759 133.402V132.002C630.759 131.228 630.132 130.602 629.359 130.602H620.959C620.185 130.602 619.559 131.228 619.559 132.002V133.402C619.559 134.175 620.185 134.802 620.959 134.802H629.359ZM620.959 132.002H629.359V133.402H620.959V132.002Z" fill="#444444"/>
<path d="M622.358 136.199C621.198 136.199 620.258 137.139 620.258 138.299C620.258 139.459 621.198 140.399 622.358 140.399C623.518 140.399 624.458 139.459 624.458 138.299C624.458 137.139 623.518 136.199 622.358 136.199ZM622.358 138.999C621.971 138.999 621.658 138.686 621.658 138.299C621.658 137.913 621.971 137.599 622.358 137.599C622.744 137.599 623.058 137.913 623.058 138.299C623.058 138.686 622.744 138.999 622.358 138.999Z" fill="#444444"/>
<path d="M622.358 141.102C621.198 141.102 620.258 142.042 620.258 143.202C620.258 144.361 621.198 145.302 622.358 145.302C623.518 145.302 624.458 144.361 624.458 143.202C624.458 142.042 623.518 141.102 622.358 141.102ZM622.358 143.902C621.971 143.902 621.658 143.588 621.658 143.202C621.658 142.815 621.971 142.502 622.358 142.502C622.744 142.502 623.058 142.815 623.058 143.202C623.058 143.588 622.744 143.902 622.358 143.902Z" fill="#444444"/>
<path d="M622.358 146C621.198 146 620.258 146.94 620.258 148.1C620.258 149.26 621.198 150.2 622.358 150.2C623.518 150.2 624.458 149.26 624.458 148.1C624.458 146.94 623.518 146 622.358 146ZM622.358 148.8C621.971 148.8 621.658 148.487 621.658 148.1C621.658 147.713 621.971 147.4 622.358 147.4C622.744 147.4 623.058 147.713 623.058 148.1C623.058 148.487 622.744 148.8 622.358 148.8Z" fill="#444444"/>
<path d="M627.955 136.199C626.796 136.199 625.855 137.139 625.855 138.299C625.855 139.459 626.796 140.399 627.955 140.399C629.115 140.399 630.055 139.459 630.055 138.299C630.055 137.139 629.115 136.199 627.955 136.199ZM627.955 138.999C627.569 138.999 627.255 138.686 627.255 138.299C627.255 137.913 627.569 137.599 627.955 137.599C628.342 137.599 628.655 137.913 628.655 138.299C628.655 138.686 628.342 138.999 627.955 138.999Z" fill="#444444"/>
<path d="M627.955 141.102C626.796 141.102 625.855 142.042 625.855 143.202C625.855 144.361 626.796 145.302 627.955 145.302C629.115 145.302 630.055 144.361 630.055 143.202C630.055 142.042 629.115 141.102 627.955 141.102ZM627.955 143.902C627.569 143.902 627.255 143.588 627.255 143.202C627.255 142.815 627.569 142.502 627.955 142.502C628.342 142.502 628.655 142.815 628.655 143.202C628.655 143.588 628.342 143.902 627.955 143.902Z" fill="#444444"/>
<path d="M627.955 146C626.796 146 625.855 146.94 625.855 148.1C625.855 149.26 626.796 150.2 627.955 150.2C629.115 150.2 630.055 149.26 630.055 148.1C630.055 146.94 629.115 146 627.955 146ZM627.955 148.8C627.569 148.8 627.255 148.487 627.255 148.1C627.255 147.713 627.569 147.4 627.955 147.4C628.342 147.4 628.655 147.713 628.655 148.1C628.655 148.487 628.342 148.8 627.955 148.8Z" fill="#444444"/>
<path d="M649.602 146.002C649.602 146.388 649.915 146.702 650.302 146.702C650.688 146.702 651.002 146.388 651.002 146.002C651.002 144.271 649.485 142.833 647.502 142.554V141.802C647.502 141.415 647.188 141.102 646.802 141.102C646.415 141.102 646.102 141.415 646.102 141.802V142.554C644.118 142.834 642.602 144.271 642.602 146.002C642.602 147.732 644.118 149.17 646.102 149.449V153.627C644.898 153.392 644.002 152.577 644.002 151.602C644.002 151.215 643.688 150.902 643.302 150.902C642.915 150.902 642.602 151.215 642.602 151.602C642.602 153.332 644.118 154.77 646.102 155.049V155.802C646.102 156.188 646.415 156.502 646.802 156.502C647.188 156.502 647.502 156.188 647.502 155.802V155.049C649.485 154.769 651.002 153.332 651.002 151.602C651.002 149.871 649.485 148.433 647.502 148.154V143.976C648.706 144.211 649.602 145.026 649.602 146.002ZM644.002 146.002C644.002 145.026 644.898 144.211 646.102 143.976V148.027C644.898 147.792 644.002 146.977 644.002 146.002ZM649.602 151.602C649.602 152.577 648.706 153.392 647.502 153.627V149.576C648.706 149.811 649.602 150.626 649.602 151.602Z" fill="#444444"/>
<path d="M642.601 138.425V132.7L652.03 136.917C654.148 137.864 656.632 136.915 657.58 134.798C658.527 132.68 657.578 130.195 655.46 129.248L642.601 123.497V122.9C642.603 120.968 644.169 119.402 646.101 119.4C646.487 119.4 646.801 119.087 646.801 118.7C646.801 118.313 646.487 118 646.101 118H629.357C626.652 118.003 624.46 120.195 624.457 122.9V127.8H618.857C617.697 127.8 616.757 128.74 616.757 129.9V150.9C616.757 152.06 617.697 153 618.857 153H624.457V154.4H617.527C617.112 154.398 616.719 154.58 616.452 154.897C616.186 155.214 616.074 155.633 616.147 156.041C616.6 158.339 618.614 159.997 620.957 160H637.701C639.029 159.997 640.299 159.454 641.217 158.495C645.755 161.11 651.498 160.229 655.044 156.376C658.589 152.522 658.989 146.725 656.006 142.421C653.022 138.117 647.454 136.457 642.601 138.425V138.425ZM637.045 127.558L638.495 124.33L640.03 124.313L638.063 128.71L637.045 127.558ZM634.207 124.339H636.958L636.029 126.408L634.207 124.339ZM640.04 127.723C644.211 129.588 643.95 129.498 644.16 129.498C644.49 129.499 644.776 129.268 644.845 128.945C644.914 128.621 644.748 128.294 644.446 128.159L640.612 126.442L641.469 124.525L651.054 128.811L650.197 130.728L647.002 129.299C646.773 129.197 646.508 129.225 646.305 129.372C646.103 129.518 645.994 129.762 646.02 130.011C646.045 130.259 646.202 130.476 646.43 130.578L649.625 132.006L648.768 133.924L639.183 129.637L640.04 127.723ZM653.61 129.957L651.324 135.067L650.046 134.496L652.332 129.386L653.61 129.957ZM656.364 132.08C656.764 133.139 656.489 134.334 655.667 135.111C654.845 135.889 653.637 136.097 652.602 135.64L654.888 130.53C655.566 130.83 656.096 131.387 656.364 132.078V132.08ZM618.157 150.9V129.9C618.157 129.513 618.47 129.2 618.857 129.2H631.457C631.843 129.2 632.157 129.513 632.157 129.9V150.9C632.157 151.287 631.843 151.6 631.457 151.6H618.857C618.47 151.6 618.157 151.287 618.157 150.9ZM617.527 155.804H632.857C633.011 156.868 633.512 157.851 634.282 158.6L620.957 158.6C619.294 158.604 617.859 157.434 617.528 155.804H617.527ZM634.241 155.61C634.148 154.916 633.556 154.399 632.857 154.4H625.857V153H631.457C632.616 153 633.557 152.06 633.557 150.9V129.9C633.557 128.74 632.616 127.8 631.457 127.8H625.857V122.9C625.859 120.968 627.425 119.402 629.357 119.4H642.671C641.725 120.325 641.195 121.593 641.201 122.915C641.174 122.909 641.147 122.904 641.12 122.9L641.108 122.915H632.661C632.385 122.923 632.138 123.088 632.026 123.34C631.914 123.592 631.956 123.886 632.135 124.096C638.616 131.446 637.71 130.438 637.975 130.627L641.201 132.073V139.116C637.955 140.984 635.861 144.355 635.625 148.094C635.39 151.832 637.044 155.439 640.03 157.7C639.072 158.558 637.721 158.821 636.511 158.384C635.302 157.947 634.431 156.881 634.243 155.61H634.241ZM646.801 158.6C642.837 158.6 639.263 156.212 637.747 152.55C636.23 148.888 637.068 144.673 639.871 141.87C642.674 139.068 646.889 138.229 650.551 139.746C654.213 141.263 656.601 144.836 656.601 148.8C656.595 154.21 652.211 158.594 646.801 158.6Z" fill="#444444"/>
<path d="M640.507 144.259C640.173 144.065 639.745 144.178 639.551 144.512C638.158 146.917 638.02 149.849 639.179 152.375C639.278 152.611 639.497 152.775 639.752 152.801C640.006 152.828 640.255 152.713 640.401 152.503C640.546 152.292 640.565 152.019 640.45 151.79C639.483 149.678 639.598 147.228 640.761 145.216C640.955 144.882 640.842 144.453 640.507 144.259V144.259Z" fill="#444444"/>
<path d="M653.094 144.259C652.76 144.453 652.647 144.882 652.841 145.216C654.003 147.228 654.119 149.678 653.152 151.79C653.037 152.019 653.056 152.292 653.201 152.503C653.347 152.713 653.595 152.828 653.85 152.801C654.105 152.775 654.324 152.611 654.423 152.375C655.582 149.849 655.444 146.917 654.051 144.512C653.857 144.178 653.428 144.065 653.094 144.259V144.259Z" fill="#444444"/>
</g>
<path d="M777.282 122.862H779.887V124.093H780.085C780.942 124.093 781.689 124.25 782.327 124.564C782.97 124.879 783.462 125.321 783.804 125.891C784.15 126.46 784.323 127.107 784.323 127.832C784.323 128.589 784.155 129.252 783.817 129.821C783.48 130.386 782.986 130.824 782.334 131.134C781.682 131.444 780.894 131.599 779.969 131.599H779.887V133.137H777.282V131.599H777.146C776.225 131.599 775.441 131.448 774.794 131.147C774.151 130.842 773.666 130.409 773.338 129.849C773.01 129.284 772.846 128.607 772.846 127.818C772.846 127.076 773.019 126.417 773.365 125.843C773.716 125.264 774.204 124.829 774.828 124.537C775.457 124.241 776.191 124.093 777.029 124.093H777.282V122.862ZM779.887 129.555H779.969C780.543 129.555 780.974 129.413 781.261 129.131C781.548 128.848 781.691 128.411 781.691 127.818C781.691 127.299 781.543 126.893 781.247 126.602C780.951 126.305 780.534 126.157 779.996 126.157H779.887V129.555ZM777.282 126.157H777.125C776.592 126.157 776.184 126.299 775.901 126.581C775.619 126.864 775.478 127.276 775.478 127.818C775.478 128.434 775.614 128.878 775.888 129.151C776.166 129.42 776.585 129.555 777.146 129.555H777.282V126.157ZM794.495 133H791.781V128.926H788.644V133H785.93V123.006H788.644V126.711H791.781V123.006H794.495V133ZM801.112 125.077C800.47 125.077 799.968 125.341 799.608 125.87C799.248 126.394 799.068 127.119 799.068 128.044C799.068 129.967 799.8 130.929 801.263 130.929C801.705 130.929 802.133 130.867 802.548 130.744C802.963 130.621 803.38 130.473 803.799 130.3V132.583C802.965 132.952 802.021 133.137 800.969 133.137C799.46 133.137 798.303 132.699 797.496 131.824C796.694 130.949 796.293 129.685 796.293 128.03C796.293 126.996 796.487 126.087 796.874 125.303C797.266 124.519 797.826 123.917 798.556 123.498C799.289 123.074 800.151 122.862 801.14 122.862C802.22 122.862 803.252 123.097 804.236 123.566L803.409 125.692C803.04 125.519 802.671 125.373 802.302 125.255C801.933 125.136 801.536 125.077 801.112 125.077ZM772.032 145.185C772.032 146.301 771.702 147.165 771.041 147.775C770.385 148.382 769.451 148.685 768.238 148.685H767.479V152H764.779V142.006H768.238C769.501 142.006 770.449 142.282 771.082 142.833C771.715 143.384 772.032 144.168 772.032 145.185ZM767.479 146.483H767.972C768.377 146.483 768.699 146.369 768.936 146.142C769.177 145.914 769.298 145.599 769.298 145.198C769.298 144.524 768.924 144.187 768.177 144.187H767.479V146.483ZM780.864 148.11C780.864 149.377 780.522 150.366 779.839 151.077C779.16 151.784 778.207 152.137 776.981 152.137C775.806 152.137 774.869 151.774 774.172 151.05C773.479 150.325 773.133 149.345 773.133 148.11C773.133 146.848 773.472 145.868 774.151 145.171C774.835 144.469 775.792 144.118 777.022 144.118C777.784 144.118 778.456 144.28 779.039 144.604C779.622 144.927 780.071 145.392 780.386 145.998C780.705 146.6 780.864 147.304 780.864 148.11ZM775.847 148.11C775.847 148.776 775.936 149.284 776.113 149.635C776.291 149.981 776.59 150.154 777.009 150.154C777.424 150.154 777.715 149.981 777.884 149.635C778.057 149.284 778.144 148.776 778.144 148.11C778.144 147.45 778.057 146.951 777.884 146.613C777.711 146.276 777.414 146.107 776.995 146.107C776.585 146.107 776.291 146.276 776.113 146.613C775.936 146.946 775.847 147.445 775.847 148.11ZM785.923 152.137C784.656 152.137 783.694 151.795 783.038 151.111C782.386 150.428 782.061 149.446 782.061 148.165C782.061 146.88 782.414 145.884 783.12 145.178C783.826 144.471 784.831 144.118 786.135 144.118C787.033 144.118 787.878 144.314 788.671 144.706L787.885 146.682C787.561 146.54 787.263 146.429 786.989 146.347C786.716 146.26 786.431 146.217 786.135 146.217C785.702 146.217 785.367 146.385 785.13 146.723C784.893 147.06 784.774 147.536 784.774 148.151C784.774 149.391 785.232 150.011 786.148 150.011C786.932 150.011 787.684 149.783 788.404 149.327V151.453C787.716 151.909 786.889 152.137 785.923 152.137ZM793.47 152.137C792.203 152.137 791.241 151.795 790.585 151.111C789.933 150.428 789.607 149.446 789.607 148.165C789.607 146.88 789.961 145.884 790.667 145.178C791.373 144.471 792.378 144.118 793.682 144.118C794.579 144.118 795.425 144.314 796.218 144.706L795.432 146.682C795.108 146.54 794.81 146.429 794.536 146.347C794.263 146.26 793.978 146.217 793.682 146.217C793.249 146.217 792.914 146.385 792.677 146.723C792.44 147.06 792.321 147.536 792.321 148.151C792.321 149.391 792.779 150.011 793.695 150.011C794.479 150.011 795.231 149.783 795.951 149.327V151.453C795.263 151.909 794.436 152.137 793.47 152.137ZM799.868 144.255V146.203C799.868 146.312 799.866 146.431 799.861 146.559C799.861 146.686 799.832 147.497 799.772 148.992L802.869 144.255H805.822V152H803.443V149.901C803.443 149.168 803.475 148.299 803.539 147.297L800.456 152H797.489V144.255H799.868ZM810.054 144.255V146.203C810.054 146.312 810.051 146.431 810.047 146.559C810.047 146.686 810.017 147.497 809.958 148.992L813.055 144.255H816.008V152H813.629V149.901C813.629 149.168 813.661 148.299 813.725 147.297L810.642 152H807.675V144.255H810.054Z" fill="#44545F"/>
<path d="M372.062 319.938H373.417V321.292H372.062V319.938Z" fill="#444444"/>
<path d="M374.773 319.938H376.128V321.292H374.773V319.938Z" fill="#444444"/>
<path d="M377.484 319.938H378.839V321.292H377.484V319.938Z" fill="#444444"/>
<path d="M400.516 319.938H405.935V321.292H400.516V319.938Z" fill="#444444"/>
<path d="M408.645 317.226V294.871C408.645 293.003 407.126 291.484 405.258 291.484H403.226C403.226 286.254 398.972 282 393.742 282C388.512 282 384.258 286.254 384.258 291.484H372.742C370.874 291.484 369.355 293.003 369.355 294.871V317.226H368V320.613C368 322.48 369.52 324 371.387 324H406.613C408.48 324 410 322.48 410 320.613V317.226H408.645ZM405.258 292.839C406.378 292.839 407.29 293.751 407.29 294.871V317.226H405.935V295.548C405.935 294.801 405.328 294.194 404.581 294.194H402.826C402.957 293.755 403.051 293.301 403.117 292.839H405.258ZM386.007 288.994L393.196 291.991L395.658 299.375C395.043 299.525 394.403 299.613 393.742 299.613C389.259 299.613 385.613 295.966 385.613 291.484C385.613 290.615 385.753 289.779 386.007 288.994V288.994ZM396.945 298.952L394.517 291.667L399.943 286.24C401.143 287.657 401.871 289.486 401.871 291.484C401.871 294.829 399.839 297.707 396.945 298.952ZM393.742 283.355C395.74 283.355 397.569 284.083 398.986 285.282L393.584 290.684L386.531 287.746C387.887 285.141 390.608 283.355 393.742 283.355ZM370.71 294.871C370.71 293.751 371.622 292.839 372.742 292.839H384.367C384.433 293.301 384.526 293.755 384.658 294.194H373.419C372.672 294.194 372.065 294.801 372.065 295.548V317.226H370.71V294.871ZM408.645 320.613C408.645 321.733 407.733 322.645 406.613 322.645H371.387C370.267 322.645 369.355 321.733 369.355 320.613V318.581H383.311C384.285 319.457 385.532 319.935 386.852 319.935H391.149C392.469 319.935 393.715 319.457 394.69 318.581H403.226V317.226H394.139L393.94 317.424C393.195 318.17 392.204 318.581 391.148 318.581H386.851C385.796 318.581 384.805 318.17 384.059 317.424L383.861 317.226H373.419V295.548H385.186C386.712 298.747 389.968 300.968 393.742 300.968C397.516 300.968 400.771 298.747 402.298 295.548H404.581V318.581H408.645V320.613Z" fill="#444444"/>
<path d="M401.193 310.451C400.777 310.451 400.39 310.578 400.068 310.793L397.704 309.021C397.764 308.829 397.806 308.63 397.806 308.419C397.806 307.299 396.894 306.387 395.773 306.387C394.653 306.387 393.741 307.299 393.741 308.419C393.741 308.652 393.788 308.873 393.861 309.082L390.067 312.117C389.756 311.923 389.392 311.806 388.999 311.806C388.543 311.806 388.127 311.963 387.787 312.217L384.866 310.269C384.907 310.11 384.935 309.946 384.935 309.774C384.935 308.653 384.023 307.742 382.902 307.742C381.782 307.742 380.87 308.653 380.87 309.774C380.87 309.946 380.898 310.11 380.939 310.269L378.018 312.217C377.678 311.962 377.261 311.806 376.806 311.806C375.685 311.806 374.773 312.718 374.773 313.838C374.773 314.959 375.685 315.871 376.806 315.871C377.926 315.871 378.838 314.959 378.838 313.838C378.838 313.666 378.81 313.502 378.769 313.343L381.691 311.396C382.03 311.65 382.447 311.806 382.902 311.806C383.358 311.806 383.775 311.65 384.114 311.396L387.035 313.343C386.995 313.502 386.967 313.667 386.967 313.838C386.967 314.959 387.879 315.871 388.999 315.871C390.12 315.871 391.032 314.959 391.032 313.838C391.032 313.605 390.984 313.385 390.912 313.176L394.706 310.14C395.017 310.334 395.38 310.451 395.773 310.451C396.189 310.451 396.576 310.325 396.899 310.109L399.262 311.881C399.202 312.073 399.161 312.273 399.161 312.483C399.161 313.604 400.072 314.516 401.193 314.516C402.313 314.516 403.225 313.604 403.225 312.483C403.225 311.363 402.313 310.451 401.193 310.451V310.451ZM376.806 314.516C376.433 314.516 376.128 314.211 376.128 313.838C376.128 313.465 376.433 313.161 376.806 313.161C377.179 313.161 377.483 313.465 377.483 313.838C377.483 314.211 377.179 314.516 376.806 314.516ZM382.902 310.451C382.529 310.451 382.225 310.147 382.225 309.774C382.225 309.401 382.529 309.096 382.902 309.096C383.276 309.096 383.58 309.401 383.58 309.774C383.58 310.147 383.276 310.451 382.902 310.451ZM388.999 314.516C388.626 314.516 388.322 314.211 388.322 313.838C388.322 313.465 388.626 313.161 388.999 313.161C389.372 313.161 389.677 313.465 389.677 313.838C389.677 314.211 389.372 314.516 388.999 314.516ZM395.773 309.096C395.4 309.096 395.096 308.792 395.096 308.419C395.096 308.046 395.4 307.742 395.773 307.742C396.147 307.742 396.451 308.046 396.451 308.419C396.451 308.792 396.147 309.096 395.773 309.096ZM401.193 313.161C400.82 313.161 400.515 312.857 400.515 312.483C400.515 312.11 400.82 311.806 401.193 311.806C401.566 311.806 401.87 312.11 401.87 312.483C401.87 312.857 401.566 313.161 401.193 313.161Z" fill="#444444"/>
<path d="M385.612 296.902H374.773V306.386H385.612V296.902ZM384.257 305.031H376.128V298.257H384.257V305.031Z" fill="#444444"/>
<path d="M377.484 299.613H382.904V300.968H377.484V299.613Z" fill="#444444"/>
<path d="M377.484 302.32H382.904V303.675H377.484V302.32Z" fill="#444444"/>
<path d="M386.969 303.68H388.324V305.035H386.969V303.68Z" fill="#444444"/>
<path d="M389.676 303.68H403.224V305.035H389.676V303.68Z" fill="#444444"/>
<path d="M439.883 289.006H442.289V293.299C442.289 293.755 442.253 294.666 442.18 296.033H442.234L446.22 289.006H449.556V299H447.163V294.816C447.163 294.183 447.204 293.235 447.286 291.973H447.231L443.212 299H439.883V289.006ZM454.238 291.255V294.044H456.357V291.255H459.03V299H456.357V296.033H454.238V299H451.565V291.255H454.238ZM471.492 295.138C471.492 296.259 471.128 297.154 470.398 297.824C469.669 298.494 468.632 298.886 467.288 299V302.363H464.786V299C463.465 298.863 462.425 298.455 461.669 297.776C460.917 297.093 460.541 296.213 460.541 295.138C460.541 293.962 460.896 293.044 461.607 292.383C462.318 291.717 463.367 291.341 464.752 291.255V288.363H467.288V291.255C468.623 291.373 469.658 291.774 470.392 292.458C471.125 293.142 471.492 294.035 471.492 295.138ZM463.187 295.138C463.187 295.671 463.335 296.115 463.631 296.471C463.932 296.822 464.305 297.002 464.752 297.011V293.244C464.324 293.262 463.954 293.456 463.645 293.825C463.339 294.194 463.187 294.632 463.187 295.138ZM468.826 295.138C468.826 294.618 468.678 294.178 468.382 293.818C468.09 293.454 467.726 293.262 467.288 293.244V297.011C467.735 297.002 468.102 296.824 468.389 296.478C468.68 296.127 468.826 295.68 468.826 295.138ZM480.399 295.11C480.399 296.377 480.058 297.366 479.374 298.077C478.695 298.784 477.743 299.137 476.517 299.137C475.341 299.137 474.404 298.774 473.707 298.05C473.014 297.325 472.668 296.345 472.668 295.11C472.668 293.848 473.007 292.868 473.687 292.171C474.37 291.469 475.327 291.118 476.558 291.118C477.319 291.118 477.991 291.28 478.574 291.604C479.158 291.927 479.606 292.392 479.921 292.998C480.24 293.6 480.399 294.304 480.399 295.11ZM475.382 295.11C475.382 295.776 475.471 296.284 475.648 296.635C475.826 296.981 476.125 297.154 476.544 297.154C476.959 297.154 477.25 296.981 477.419 296.635C477.592 296.284 477.679 295.776 477.679 295.11C477.679 294.45 477.592 293.951 477.419 293.613C477.246 293.276 476.95 293.107 476.53 293.107C476.12 293.107 475.826 293.276 475.648 293.613C475.471 293.946 475.382 294.445 475.382 295.11ZM486.579 299.137C486.187 299.137 485.836 299.073 485.526 298.945C485.216 298.813 484.909 298.578 484.604 298.241H484.48C484.562 298.784 484.604 299.121 484.604 299.253V302.363H481.931V291.255H484.104L484.48 292.239H484.604C485.1 291.492 485.786 291.118 486.661 291.118C487.518 291.118 488.19 291.474 488.678 292.185C489.165 292.896 489.409 293.871 489.409 295.11C489.409 296.359 489.154 297.343 488.644 298.063C488.138 298.779 487.45 299.137 486.579 299.137ZM485.684 293.217C485.292 293.217 485.016 293.358 484.856 293.641C484.701 293.919 484.617 294.333 484.604 294.885V295.097C484.604 295.762 484.692 296.243 484.87 296.539C485.048 296.835 485.328 296.983 485.711 296.983C486.053 296.983 486.301 296.838 486.456 296.546C486.611 296.25 486.688 295.762 486.688 295.083C486.688 294.418 486.611 293.941 486.456 293.654C486.301 293.363 486.044 293.217 485.684 293.217ZM501.119 299H498.727V293.217C498.581 293.805 498.414 294.413 498.228 295.042C498.045 295.666 497.619 296.986 496.949 299H495.131L494.331 296.525C494.062 295.696 493.78 294.764 493.483 293.729L493.333 293.217V299H490.94V291.255H494.598L495.199 293.066C495.313 293.413 495.47 293.964 495.671 294.721C495.871 295.473 495.994 295.994 496.04 296.286C496.067 296.072 496.229 295.466 496.525 294.468L496.792 293.552L497.537 291.255H501.119V299ZM508.023 299L507.511 297.975H507.456C507.096 298.421 506.729 298.727 506.355 298.891C505.982 299.055 505.499 299.137 504.906 299.137C504.177 299.137 503.603 298.918 503.184 298.48C502.764 298.043 502.555 297.428 502.555 296.635C502.555 295.81 502.842 295.197 503.416 294.796C503.99 294.39 504.822 294.162 505.911 294.112L507.203 294.071V293.962C507.203 293.324 506.889 293.005 506.26 293.005C505.695 293.005 504.977 293.196 504.106 293.579L503.334 291.815C504.236 291.351 505.376 291.118 506.752 291.118C507.745 291.118 508.513 291.364 509.056 291.856C509.603 292.349 509.876 293.037 509.876 293.921V299H508.023ZM506.041 297.25C506.365 297.25 506.64 297.147 506.868 296.942C507.101 296.737 507.217 296.471 507.217 296.143V295.541L506.602 295.568C505.722 295.6 505.282 295.924 505.282 296.539C505.282 297.013 505.535 297.25 506.041 297.25ZM521.258 301.844H518.92V299H511.694V291.255H514.367V297.011H516.849V291.255H519.521V297.011H521.258V301.844ZM524.737 291.255V293.203C524.737 293.312 524.735 293.431 524.73 293.559C524.73 293.686 524.701 294.497 524.642 295.992L527.738 291.255H530.691V299H528.312V296.901C528.312 296.168 528.344 295.299 528.408 294.297L525.325 299H522.358V291.255H524.737ZM539.94 295.11C539.94 296.377 539.599 297.366 538.915 298.077C538.236 298.784 537.284 299.137 536.058 299.137C534.882 299.137 533.945 298.774 533.248 298.05C532.555 297.325 532.209 296.345 532.209 295.11C532.209 293.848 532.549 292.868 533.228 292.171C533.911 291.469 534.868 291.118 536.099 291.118C536.86 291.118 537.532 291.28 538.115 291.604C538.699 291.927 539.147 292.392 539.462 292.998C539.781 293.6 539.94 294.304 539.94 295.11ZM534.923 295.11C534.923 295.776 535.012 296.284 535.189 296.635C535.367 296.981 535.666 297.154 536.085 297.154C536.5 297.154 536.791 296.981 536.96 296.635C537.133 296.284 537.22 295.776 537.22 295.11C537.22 294.45 537.133 293.951 536.96 293.613C536.787 293.276 536.491 293.107 536.071 293.107C535.661 293.107 535.367 293.276 535.189 293.613C535.012 293.946 534.923 294.445 534.923 295.11ZM544.145 291.255V294.044H546.264V291.255H548.937V299H546.264V296.033H544.145V299H541.472V291.255H544.145ZM553.455 291.255V294.044H555.574V291.255H558.247V299H555.574V296.033H553.455V299H550.782V291.255H553.455ZM565.145 299L564.632 297.975H564.577C564.217 298.421 563.85 298.727 563.477 298.891C563.103 299.055 562.62 299.137 562.027 299.137C561.298 299.137 560.724 298.918 560.305 298.48C559.885 298.043 559.676 297.428 559.676 296.635C559.676 295.81 559.963 295.197 560.537 294.796C561.111 294.39 561.943 294.162 563.032 294.112L564.324 294.071V293.962C564.324 293.324 564.01 293.005 563.381 293.005C562.816 293.005 562.098 293.196 561.228 293.579L560.455 291.815C561.357 291.351 562.497 291.118 563.873 291.118C564.867 291.118 565.634 291.364 566.177 291.856C566.724 292.349 566.997 293.037 566.997 293.921V299H565.145ZM563.162 297.25C563.486 297.25 563.761 297.147 563.989 296.942C564.222 296.737 564.338 296.471 564.338 296.143V295.541L563.723 295.568C562.843 295.6 562.403 295.924 562.403 296.539C562.403 297.013 562.656 297.25 563.162 297.25ZM570.552 299H567.722L569.711 296.061C569.31 295.842 568.993 295.532 568.761 295.131C568.528 294.73 568.412 294.265 568.412 293.736C568.412 292.943 568.706 292.333 569.294 291.904C569.886 291.471 570.72 291.255 571.796 291.255H575.494V299H572.821V296.313H572.035L570.552 299ZM571.085 293.818C571.085 294.055 571.169 294.24 571.338 294.372C571.507 294.5 571.748 294.563 572.062 294.563H572.821V293.005H572.049C571.748 293.005 571.511 293.076 571.338 293.217C571.169 293.358 571.085 293.559 571.085 293.818ZM584.511 299.137C583.244 299.137 582.282 298.795 581.626 298.111C580.974 297.428 580.648 296.446 580.648 295.165C580.648 293.88 581.002 292.884 581.708 292.178C582.414 291.471 583.419 291.118 584.723 291.118C585.62 291.118 586.466 291.314 587.259 291.706L586.473 293.682C586.149 293.54 585.851 293.429 585.577 293.347C585.304 293.26 585.019 293.217 584.723 293.217C584.29 293.217 583.955 293.385 583.718 293.723C583.481 294.06 583.362 294.536 583.362 295.151C583.362 296.391 583.82 297.011 584.736 297.011C585.52 297.011 586.272 296.783 586.992 296.327V298.453C586.304 298.909 585.477 299.137 584.511 299.137ZM590.909 291.255V293.203C590.909 293.312 590.907 293.431 590.902 293.559C590.902 293.686 590.873 294.497 590.813 295.992L593.91 291.255H596.863V299H594.484V296.901C594.484 296.168 594.516 295.299 594.58 294.297L591.497 299H588.53V291.255H590.909ZM602.243 299.137C600.976 299.137 600.015 298.795 599.358 298.111C598.707 297.428 598.381 296.446 598.381 295.165C598.381 293.88 598.734 292.884 599.44 292.178C600.147 291.471 601.152 291.118 602.455 291.118C603.353 291.118 604.198 291.314 604.991 291.706L604.205 293.682C603.882 293.54 603.583 293.429 603.31 293.347C603.036 293.26 602.751 293.217 602.455 293.217C602.022 293.217 601.687 293.385 601.45 293.723C601.213 294.06 601.095 294.536 601.095 295.151C601.095 296.391 601.553 297.011 602.469 297.011C603.253 297.011 604.005 296.783 604.725 296.327V298.453C604.036 298.909 603.209 299.137 602.243 299.137ZM613.447 293.244H610.897V299H608.225V293.244H605.675V291.255H613.447V293.244ZM618.451 299.137C617.161 299.137 616.159 298.795 615.443 298.111C614.732 297.423 614.377 296.446 614.377 295.179C614.377 293.871 614.707 292.868 615.368 292.171C616.029 291.469 616.972 291.118 618.198 291.118C619.365 291.118 620.265 291.424 620.898 292.034C621.536 292.64 621.855 293.515 621.855 294.659V295.849H617.077C617.095 296.282 617.253 296.621 617.549 296.867C617.85 297.113 618.257 297.236 618.772 297.236C619.242 297.236 619.673 297.193 620.064 297.106C620.461 297.015 620.889 296.863 621.35 296.648V298.569C620.93 298.784 620.497 298.932 620.051 299.014C619.604 299.096 619.071 299.137 618.451 299.137ZM618.294 292.937C617.979 292.937 617.715 293.037 617.501 293.237C617.291 293.433 617.168 293.743 617.132 294.167H619.429C619.42 293.793 619.312 293.495 619.107 293.271C618.907 293.048 618.636 292.937 618.294 292.937ZM633.545 299H631.152V293.217C631.007 293.805 630.84 294.413 630.653 295.042C630.471 295.666 630.045 296.986 629.375 299H627.557L626.757 296.525C626.488 295.696 626.205 294.764 625.909 293.729L625.759 293.217V299H623.366V291.255H627.023L627.625 293.066C627.739 293.413 627.896 293.964 628.097 294.721C628.297 295.473 628.42 295.994 628.466 296.286C628.493 296.072 628.655 295.466 628.951 294.468L629.218 293.552L629.963 291.255H633.545V299ZM640.449 299L639.937 297.975H639.882C639.522 298.421 639.155 298.727 638.781 298.891C638.408 299.055 637.924 299.137 637.332 299.137C636.603 299.137 636.029 298.918 635.609 298.48C635.19 298.043 634.98 297.428 634.98 296.635C634.98 295.81 635.268 295.197 635.842 294.796C636.416 294.39 637.248 294.162 638.337 294.112L639.629 294.071V293.962C639.629 293.324 639.314 293.005 638.686 293.005C638.12 293.005 637.403 293.196 636.532 293.579L635.76 291.815C636.662 291.351 637.801 291.118 639.178 291.118C640.171 291.118 640.939 291.364 641.481 291.856C642.028 292.349 642.302 293.037 642.302 293.921V299H640.449ZM638.467 297.25C638.79 297.25 639.066 297.147 639.294 296.942C639.526 296.737 639.643 296.471 639.643 296.143V295.541L639.027 295.568C638.148 295.6 637.708 295.924 637.708 296.539C637.708 297.013 637.961 297.25 638.467 297.25ZM475.915 318H473.201V313.926H470.063V318H467.35V308.006H470.063V311.711H473.201V308.006H475.915V318ZM482.977 318L482.464 316.975H482.409C482.049 317.421 481.682 317.727 481.309 317.891C480.935 318.055 480.452 318.137 479.859 318.137C479.13 318.137 478.556 317.918 478.137 317.48C477.717 317.043 477.508 316.428 477.508 315.635C477.508 314.81 477.795 314.197 478.369 313.796C478.943 313.39 479.775 313.162 480.864 313.112L482.156 313.071V312.962C482.156 312.324 481.842 312.005 481.213 312.005C480.648 312.005 479.93 312.196 479.06 312.579L478.287 310.815C479.189 310.351 480.329 310.118 481.705 310.118C482.699 310.118 483.466 310.364 484.009 310.856C484.556 311.349 484.829 312.037 484.829 312.921V318H482.977ZM480.994 316.25C481.318 316.25 481.593 316.147 481.821 315.942C482.054 315.737 482.17 315.471 482.17 315.143V314.541L481.555 314.568C480.675 314.6 480.235 314.924 480.235 315.539C480.235 316.013 480.488 316.25 480.994 316.25ZM494.42 318H491.747V312.244H490.175C490.024 313.908 489.835 315.131 489.607 315.915C489.38 316.694 489.065 317.259 488.664 317.61C488.263 317.961 487.723 318.137 487.044 318.137C486.57 318.137 486.167 318.068 485.834 317.932V315.942C485.984 316.024 486.185 316.065 486.436 316.065C486.641 316.065 486.807 315.961 486.935 315.751C487.062 315.537 487.174 315.197 487.27 314.732C487.37 314.268 487.459 313.671 487.536 312.941C487.618 312.212 487.696 311.317 487.769 310.255H494.42V318ZM503.669 314.11C503.669 315.377 503.327 316.366 502.644 317.077C501.965 317.784 501.012 318.137 499.786 318.137C498.61 318.137 497.674 317.774 496.977 317.05C496.284 316.325 495.938 315.345 495.938 314.11C495.938 312.848 496.277 311.868 496.956 311.171C497.64 310.469 498.597 310.118 499.827 310.118C500.588 310.118 501.26 310.28 501.844 310.604C502.427 310.927 502.876 311.392 503.19 311.998C503.509 312.6 503.669 313.304 503.669 314.11ZM498.651 314.11C498.651 314.776 498.74 315.284 498.918 315.635C499.096 315.981 499.394 316.154 499.813 316.154C500.228 316.154 500.52 315.981 500.688 315.635C500.862 315.284 500.948 314.776 500.948 314.11C500.948 313.45 500.862 312.951 500.688 312.613C500.515 312.276 500.219 312.107 499.8 312.107C499.39 312.107 499.096 312.276 498.918 312.613C498.74 312.946 498.651 313.445 498.651 314.11ZM510.956 310.255V312.244H507.873V318H505.2V310.255H510.956ZM519.61 314.11C519.61 315.377 519.269 316.366 518.585 317.077C517.906 317.784 516.953 318.137 515.728 318.137C514.552 318.137 513.615 317.774 512.918 317.05C512.225 316.325 511.879 315.345 511.879 314.11C511.879 312.848 512.218 311.868 512.897 311.171C513.581 310.469 514.538 310.118 515.769 310.118C516.53 310.118 517.202 310.28 517.785 310.604C518.368 310.927 518.817 311.392 519.132 311.998C519.451 312.6 519.61 313.304 519.61 314.11ZM514.593 314.11C514.593 314.776 514.682 315.284 514.859 315.635C515.037 315.981 515.336 316.154 515.755 316.154C516.17 316.154 516.461 315.981 516.63 315.635C516.803 315.284 516.89 314.776 516.89 314.11C516.89 313.45 516.803 312.951 516.63 312.613C516.457 312.276 516.16 312.107 515.741 312.107C515.331 312.107 515.037 312.276 514.859 312.613C514.682 312.946 514.593 313.445 514.593 314.11ZM528.729 312.258C528.729 312.709 528.597 313.083 528.333 313.379C528.069 313.675 527.706 313.862 527.246 313.939V313.994C527.802 314.058 528.228 314.249 528.524 314.568C528.821 314.883 528.969 315.288 528.969 315.785C528.969 317.262 527.766 318 525.359 318H521.142V310.255H525.373C526.499 310.255 527.34 310.419 527.896 310.747C528.451 311.075 528.729 311.579 528.729 312.258ZM526.255 315.525C526.255 315.284 526.173 315.111 526.009 315.006C525.845 314.901 525.608 314.849 525.298 314.849H523.814V316.25H525.271C525.927 316.25 526.255 316.008 526.255 315.525ZM526.07 312.613C526.07 312.208 525.824 312.005 525.332 312.005H523.814V313.167H525.229C525.512 313.167 525.722 313.115 525.858 313.01C526 312.905 526.07 312.773 526.07 312.613ZM535.572 318L535.06 316.975H535.005C534.645 317.421 534.278 317.727 533.904 317.891C533.531 318.055 533.048 318.137 532.455 318.137C531.726 318.137 531.152 317.918 530.732 317.48C530.313 317.043 530.104 316.428 530.104 315.635C530.104 314.81 530.391 314.197 530.965 313.796C531.539 313.39 532.371 313.162 533.46 313.112L534.752 313.071V312.962C534.752 312.324 534.438 312.005 533.809 312.005C533.243 312.005 532.526 312.196 531.655 312.579L530.883 310.815C531.785 310.351 532.924 310.118 534.301 310.118C535.294 310.118 536.062 310.364 536.604 310.856C537.151 311.349 537.425 312.037 537.425 312.921V318H535.572ZM533.59 316.25C533.913 316.25 534.189 316.147 534.417 315.942C534.649 315.737 534.766 315.471 534.766 315.143V314.541L534.15 314.568C533.271 314.6 532.831 314.924 532.831 315.539C532.831 316.013 533.084 316.25 533.59 316.25ZM540.979 318H538.149L540.139 315.061C539.738 314.842 539.421 314.532 539.188 314.131C538.956 313.73 538.84 313.265 538.84 312.736C538.84 311.943 539.134 311.333 539.722 310.904C540.314 310.471 541.148 310.255 542.224 310.255H545.922V318H543.249V315.313H542.463L540.979 318ZM541.513 312.818C541.513 313.055 541.597 313.24 541.766 313.372C541.934 313.5 542.176 313.563 542.49 313.563H543.249V312.005H542.477C542.176 312.005 541.939 312.076 541.766 312.217C541.597 312.358 541.513 312.559 541.513 312.818ZM558.999 312.258C558.999 312.709 558.867 313.083 558.603 313.379C558.338 313.675 557.976 313.862 557.516 313.939V313.994C558.072 314.058 558.498 314.249 558.794 314.568C559.09 314.883 559.238 315.288 559.238 315.785C559.238 317.262 558.035 318 555.629 318H551.411V310.255H555.643C556.768 310.255 557.609 310.419 558.165 310.747C558.721 311.075 558.999 311.579 558.999 312.258ZM556.524 315.525C556.524 315.284 556.442 315.111 556.278 315.006C556.114 314.901 555.877 314.849 555.567 314.849H554.084V316.25H555.54C556.196 316.25 556.524 316.008 556.524 315.525ZM556.34 312.613C556.34 312.208 556.094 312.005 555.602 312.005H554.084V313.167H555.499C555.782 313.167 555.991 313.115 556.128 313.01C556.269 312.905 556.34 312.773 556.34 312.613ZM563.169 310.255V312.203C563.169 312.312 563.167 312.431 563.162 312.559C563.162 312.686 563.132 313.497 563.073 314.992L566.17 310.255H569.123V318H566.744V315.901C566.744 315.168 566.776 314.299 566.84 313.297L563.757 318H560.79V310.255H563.169ZM578.16 312.244H575.61V318H572.938V312.244H570.388V310.255H578.16V312.244ZM584.073 318.137C583.681 318.137 583.33 318.073 583.021 317.945C582.711 317.813 582.403 317.578 582.098 317.241H581.975C582.057 317.784 582.098 318.121 582.098 318.253V321.363H579.425V310.255H581.599L581.975 311.239H582.098C582.594 310.492 583.28 310.118 584.155 310.118C585.012 310.118 585.684 310.474 586.172 311.185C586.66 311.896 586.903 312.871 586.903 314.11C586.903 315.359 586.648 316.343 586.138 317.063C585.632 317.779 584.944 318.137 584.073 318.137ZM583.178 312.217C582.786 312.217 582.51 312.358 582.351 312.641C582.196 312.919 582.111 313.333 582.098 313.885V314.097C582.098 314.762 582.187 315.243 582.364 315.539C582.542 315.835 582.822 315.983 583.205 315.983C583.547 315.983 583.795 315.838 583.95 315.546C584.105 315.25 584.183 314.762 584.183 314.083C584.183 313.418 584.105 312.941 583.95 312.654C583.795 312.363 583.538 312.217 583.178 312.217ZM590.813 310.255V312.203C590.813 312.312 590.811 312.431 590.807 312.559C590.807 312.686 590.777 313.497 590.718 314.992L593.814 310.255H596.768V318H594.389V315.901C594.389 315.168 594.421 314.299 594.484 313.297L591.401 318H588.435V310.255H590.813ZM601.293 310.255V313.044H603.412V310.255H606.085V318H603.412V315.033H601.293V318H598.62V310.255H601.293ZM612.982 318L612.47 316.975H612.415C612.055 317.421 611.688 317.727 611.314 317.891C610.941 318.055 610.458 318.137 609.865 318.137C609.136 318.137 608.562 317.918 608.143 317.48C607.723 317.043 607.514 316.428 607.514 315.635C607.514 314.81 607.801 314.197 608.375 313.796C608.949 313.39 609.781 313.162 610.87 313.112L612.162 313.071V312.962C612.162 312.324 611.848 312.005 611.219 312.005C610.654 312.005 609.936 312.196 609.065 312.579L608.293 310.815C609.195 310.351 610.335 310.118 611.711 310.118C612.704 310.118 613.472 310.364 614.015 310.856C614.562 311.349 614.835 312.037 614.835 312.921V318H612.982ZM611 316.25C611.324 316.25 611.599 316.147 611.827 315.942C612.06 315.737 612.176 315.471 612.176 315.143V314.541L611.561 314.568C610.681 314.6 610.241 314.924 610.241 315.539C610.241 316.013 610.494 316.25 611 316.25Z" fill="#44545F"/>
<defs>
<filter id="filter0_d" x="74" y="99" width="320" height="88" filterUnits="userSpaceOnUse" color-interpolation-filters="sRGB">
<feFlood flood-opacity="0" result="BackgroundImageFix"/>
<feColorMatrix in="SourceAlpha" type="matrix" values="0 0 0 0 0 0 0 0 0 0 0 0 0 0 0 0 0 0 127 0"/>
<feOffset dy="4"/>
<feGaussianBlur stdDeviation="4"/>
<feColorMatrix type="matrix" values="0 0 0 0 0 0 0 0 0 0 0 0 0 0 0 0 0 0 0.08 0"/>
<feBlend mode="normal" in2="BackgroundImageFix" result="effect1_dropShadow"/>
<feBlend mode="normal" in="SourceGraphic" in2="effect1_dropShadow" result="shape"/>
</filter>
<filter id="filter1_d" x="74" y="98" width="101" height="88" filterUnits="userSpaceOnUse" color-interpolation-filters="sRGB">
<feFlood flood-opacity="0" result="BackgroundImageFix"/>
<feColorMatrix in="SourceAlpha" type="matrix" values="0 0 0 0 0 0 0 0 0 0 0 0 0 0 0 0 0 0 127 0"/>
<feOffset dy="3"/>
<feGaussianBlur stdDeviation="4"/>
<feColorMatrix type="matrix" values="0 0 0 0 0 0 0 0 0 0 0 0 0 0 0 0 0 0 0.12 0"/>
<feBlend mode="normal" in2="BackgroundImageFix" result="effect1_dropShadow"/>
<feBlend mode="normal" in="SourceGraphic" in2="effect1_dropShadow" result="shape"/>
</filter>
<filter id="filter2_d" x="586" y="99" width="320" height="88" filterUnits="userSpaceOnUse" color-interpolation-filters="sRGB">
<feFlood flood-opacity="0" result="BackgroundImageFix"/>
<feColorMatrix in="SourceAlpha" type="matrix" values="0 0 0 0 0 0 0 0 0 0 0 0 0 0 0 0 0 0 127 0"/>
<feOffset dy="4"/>
<feGaussianBlur stdDeviation="4"/>
<feColorMatrix type="matrix" values="0 0 0 0 0 0 0 0 0 0 0 0 0 0 0 0 0 0 0.08 0"/>
<feBlend mode="normal" in2="BackgroundImageFix" result="effect1_dropShadow"/>
<feBlend mode="normal" in="SourceGraphic" in2="effect1_dropShadow" result="shape"/>
</filter>
<filter id="filter3_d" x="586" y="98" width="101" height="88" filterUnits="userSpaceOnUse" color-interpolation-filters="sRGB">
<feFlood flood-opacity="0" result="BackgroundImageFix"/>
<feColorMatrix in="SourceAlpha" type="matrix" values="0 0 0 0 0 0 0 0 0 0 0 0 0 0 0 0 0 0 127 0"/>
<feOffset dy="3"/>
<feGaussianBlur stdDeviation="4"/>
<feColorMatrix type="matrix" values="0 0 0 0 0 0 0 0 0 0 0 0 0 0 0 0 0 0 0.12 0"/>
<feBlend mode="normal" in2="BackgroundImageFix" result="effect1_dropShadow"/>
<feBlend mode="normal" in="SourceGraphic" in2="effect1_dropShadow" result="shape"/>
</filter>
<filter id="filter4_d" x="338" y="263" width="320" height="88" filterUnits="userSpaceOnUse" color-interpolation-filters="sRGB">
<feFlood flood-opacity="0" result="BackgroundImageFix"/>
<feColorMatrix in="SourceAlpha" type="matrix" values="0 0 0 0 0 0 0 0 0 0 0 0 0 0 0 0 0 0 127 0"/>
<feOffset dy="4"/>
<feGaussianBlur stdDeviation="4"/>
<feColorMatrix type="matrix" values="0 0 0 0 0 0 0 0 0 0 0 0 0 0 0 0 0 0 0.08 0"/>
<feBlend mode="normal" in2="BackgroundImageFix" result="effect1_dropShadow"/>
<feBlend mode="normal" in="SourceGraphic" in2="effect1_dropShadow" result="shape"/>
</filter>
<filter id="filter5_d" x="338" y="262" width="101" height="88" filterUnits="userSpaceOnUse" color-interpolation-filters="sRGB">
<feFlood flood-opacity="0" result="BackgroundImageFix"/>
<feColorMatrix in="SourceAlpha" type="matrix" values="0 0 0 0 0 0 0 0 0 0 0 0 0 0 0 0 0 0 127 0"/>
<feOffset dy="3"/>
<feGaussianBlur stdDeviation="4"/>
<feColorMatrix type="matrix" values="0 0 0 0 0 0 0 0 0 0 0 0 0 0 0 0 0 0 0.12 0"/>
<feBlend mode="normal" in2="BackgroundImageFix" result="effect1_dropShadow"/>
<feBlend mode="normal" in="SourceGraphic" in2="effect1_dropShadow" result="shape"/>
</filter>
<clipPath id="clip0">
<rect width="42" height="42" fill="white" transform="translate(616 118)"/>
</clipPath>
</defs>
</svg>
