<svg width="71" height="70" viewBox="0 0 71 70" fill="none" xmlns="http://www.w3.org/2000/svg">
<path d="M67.5645 70H35.5V47.4194H67.5645V70Z" fill="#FFD205"/>
<path d="M32.0645 0V49.6774H71V0H32.0645ZM68.7097 47.4194H34.3548V2.25806H68.7097V47.4194Z" fill="#465861"/>
<path d="M66.4193 4.51611H36.6451V13.5484H66.4193V4.51611ZM64.129 11.2903H38.9355V6.77418H64.129V11.2903Z" fill="#465861"/>
<path d="M50.3871 15.8064H36.6451V29.3548H50.3871V15.8064ZM48.0968 27.0967H38.9355V18.0645H48.0968V27.0967Z" fill="#465861"/>
<path d="M52.6774 29.3548H66.4194V15.8064H52.6774V29.3548ZM54.9678 18.0645H64.129V27.0967H54.9678V18.0645Z" fill="#465861"/>
<path d="M50.3871 31.6129H36.6451V45.1613H50.3871V31.6129ZM48.0968 42.9032H38.9355V33.871H48.0968V42.9032Z" fill="#465861"/>
<path d="M52.6774 45.1613H66.4194V31.6129H52.6774V45.1613ZM54.9678 33.871H64.129V42.9032H54.9678V33.871Z" fill="#465861"/>
<path d="M42.3709 25.9678H44.6613V23.7097H46.9516V21.4517H44.6613V19.1936H42.3709V21.4517H40.0806V23.7097H42.3709V25.9678Z" fill="#465861"/>
<path d="M62.9839 21.4516H56.1129V23.7097H62.9839V21.4516Z" fill="#465861"/>
<path d="M42.0354 41.4435L43.5161 39.9836L44.9968 41.4435L46.6161 39.847L45.1354 38.3872L46.6161 36.9273L44.9968 35.3309L43.5161 36.7907L42.0354 35.3309L40.4162 36.9273L41.8969 38.3872L40.4162 39.847L42.0354 41.4435Z" fill="#465861"/>
<path d="M56.1129 37.2581V39.5161H59.5484H62.9839V37.2581H59.5484H56.1129Z" fill="#465861"/>
<path d="M59.5484 37.2581C60.1808 37.2581 60.6936 36.7526 60.6936 36.129C60.6936 35.5055 60.1808 35 59.5484 35C58.9159 35 58.4032 35.5055 58.4032 36.129C58.4032 36.7526 58.9159 37.2581 59.5484 37.2581Z" fill="#465861"/>
<path d="M59.5484 41.7742C60.1808 41.7742 60.6936 41.2687 60.6936 40.6451C60.6936 40.0216 60.1808 39.5161 59.5484 39.5161C58.9159 39.5161 58.4032 40.0216 58.4032 40.6451C58.4032 41.2687 58.9159 41.7742 59.5484 41.7742Z" fill="#465861"/>
<path d="M62.9839 58.7097H40.0806V60.9678H62.9839V58.7097Z" fill="#465861"/>
<path d="M62.9839 63.2258H51.5323V65.4839H62.9839V63.2258Z" fill="#465861"/>
<path d="M44.6613 57.5806V53.0645H46.9516V50.8064H40.0806V53.0645H42.3709V57.5806H44.6613Z" fill="#465861"/>
<path d="M54.9677 57.5806V50.8064H48.0968V57.5806H50.3871V56.4516H52.6774V57.5806H54.9677ZM50.3871 54.1935V53.0645H52.6774V54.1935H50.3871Z" fill="#465861"/>
<path d="M60.6936 51.468L59.5484 52.597L58.4032 51.468V50.8064H56.1129V52.4028L57.9291 54.1935L56.1129 55.9841V57.5806H58.4032V56.919L59.5484 55.7899L60.6936 56.919V57.5806H62.9839V55.9841L61.1677 54.1935L62.9839 52.4028V50.8064H60.6936V51.468Z" fill="#465861"/>
<path d="M20.6129 19.1935C20.6129 17.6321 20.2224 16.0966 19.5158 14.6966C20.2121 13.3294 20.6129 11.7927 20.6129 10.1613C20.6129 4.5579 15.9899 0 10.3065 0C4.62302 0 0 4.5579 0 10.1613C0 11.7927 0.400806 13.3294 1.09706 14.6966C0.3905 16.0966 0 17.6321 0 19.1935C0 24.7969 4.62302 29.3548 10.3065 29.3548C15.9899 29.3548 20.6129 24.7969 20.6129 19.1935ZM10.3065 2.25806C14.7256 2.25806 18.3226 5.80435 18.3226 10.1613C18.3226 14.5182 14.7256 18.0645 10.3065 18.0645C5.88727 18.0645 2.29032 14.5182 2.29032 10.1613C2.29032 5.80435 5.88727 2.25806 10.3065 2.25806ZM2.29032 19.1935C2.29032 18.4247 2.40598 17.6626 2.63044 16.9276L2.63845 16.9265C4.52682 19.005 7.26032 20.3226 10.3065 20.3226H11.4516C12.0837 20.3226 12.5968 20.8284 12.5968 21.4516C12.5968 22.0748 12.0837 22.5806 11.4516 22.5806H9.16129C8.52916 22.5806 8.01613 22.0748 8.01613 21.4516H5.72581C5.72581 23.319 7.26719 24.8387 9.16129 24.8387V25.9677H11.4516V24.8387C13.3457 24.8387 14.8871 23.319 14.8871 21.4516C14.8871 20.7403 14.6615 20.081 14.2802 19.5356C15.7036 18.9474 16.9587 18.0453 17.9745 16.9287H17.9836C18.2069 17.6626 18.3226 18.4247 18.3226 19.1935C18.3226 23.5505 14.7256 27.0968 10.3065 27.0968C5.88727 27.0968 2.29032 23.5505 2.29032 19.1935Z" fill="#465861"/>
<path d="M26.4589 33.2466L27.9213 36.129H25.7661C22.294 36.129 19.4677 38.9155 19.4677 42.3387V58.1451C19.4677 60.3242 17.6698 62.0968 15.4597 62.0968C13.2495 62.0968 11.4516 60.3242 11.4516 58.1451V56.4516V54.7581H9.16129V56.4516V58.1451C9.16129 61.5684 11.9875 64.3548 15.4597 64.3548C18.9318 64.3548 21.7581 61.5684 21.7581 58.1451V42.3387C21.7581 40.1597 23.556 38.3871 25.7661 38.3871H27.9213L26.4601 41.2695L28.5088 42.28L31.0545 37.2581L28.5076 32.2372L26.4589 33.2466Z" fill="#465861"/>
<path d="M11.4516 36.3774H9.16129V39.4416H11.4516V36.3774Z" fill="#465861"/>
<path d="M11.4516 48.6274H9.16129V51.6916H11.4516V48.6274Z" fill="#465861"/>
<path d="M11.4516 42.5013H9.16129V45.5655H11.4516V42.5013Z" fill="#465861"/>
<path d="M11.4516 31.6129H9.16129V33.3065H11.4516V31.6129Z" fill="#465861"/>
<path d="M7.20006 14.2498H8.60009V15.75C8.60009 15.823 8.61877 15.8828 8.65636 15.9295C8.69384 15.9765 8.74177 16 8.80014 16H9.84384C9.89801 16 9.94488 15.9765 9.98447 15.9295C10.0241 15.8828 10.0438 15.823 10.0438 15.75V14.2498H13.2C13.2583 14.2498 13.3062 14.2266 13.3438 14.1796C13.3814 14.1327 13.4001 14.0729 13.4001 13.9999V12.9998C13.4001 12.9273 13.3814 12.8671 13.3438 12.8204C13.3063 12.7734 13.2583 12.7499 13.2 12.7499H10.0437V11.828H12.1687C13.002 11.828 13.6821 11.5106 14.2093 10.8749C14.7364 10.2399 15 9.41958 15 8.41398C15 7.40905 14.7364 6.58874 14.2093 5.95307C13.6822 5.31804 13.002 5 12.1687 5H8.80004C8.74165 5 8.69383 5.02348 8.65625 5.07021C8.61877 5.1172 8.59998 5.17736 8.59998 5.24994V10.1641H7.20006C7.14168 10.1641 7.09384 10.1888 7.05627 10.2383C7.0188 10.2878 7 10.3464 7 10.414V11.578C7 11.651 7.01868 11.7108 7.05627 11.7577C7.09386 11.8047 7.14158 11.8279 7.20006 11.8279H8.60009V12.7499H7.20006C7.14168 12.7499 7.09384 12.7734 7.05627 12.8204C7.0188 12.8671 7 12.9271 7 12.9998V13.9999C7 14.0728 7.01868 14.1326 7.05627 14.1796C7.09384 14.2266 7.14166 14.2498 7.20006 14.2498ZM10.0437 6.66423H12.0437C12.4853 6.66423 12.8415 6.82563 13.1124 7.14854C13.3832 7.47147 13.5187 7.89349 13.5187 8.41411C13.5187 8.93499 13.3832 9.35714 13.1124 9.67968C12.8415 10.0029 12.4853 10.1643 12.0437 10.1643H10.0437V6.66423Z" fill="#465861"/>
</svg>
