<svg width="48" height="48" viewBox="0 0 48 48" fill="none" xmlns="http://www.w3.org/2000/svg">
<g clip-path="url(#clip0)">
<path d="M30.193 19.3548L25.5479 12.3871H27.8704V0H32.5156V12.3871H34.8382L30.193 19.3548Z" fill="#FFD200"/>
<path d="M41.8066 19.3548H37.1614V6.96774H34.8389L39.484 0L44.1292 6.96774H41.8066V19.3548Z" fill="#FFD200"/>
<path d="M10.8385 40.258H6.19336V34.0645H10.8385V40.258Z" fill="#FFD200"/>
<path d="M18.5807 40.2581H13.9355V30.9678H18.5807V40.2581Z" fill="#FFD200"/>
<path d="M26.3219 40.2582H21.6768V27.8711H26.3219V40.2582Z" fill="#FFD200"/>
<path d="M38.7101 32.5157C39.564 32.5157 40.2584 33.2101 40.2584 34.0641H41.8068C41.8068 32.625 40.8168 31.4232 39.4842 31.0773V29.4189H37.9359V31.0773C36.6033 31.4232 35.6133 32.625 35.6133 34.0641C35.6133 35.772 37.0021 37.1609 38.7101 37.1609C39.564 37.1609 40.2584 37.8553 40.2584 38.7093C40.2584 39.5632 39.564 40.2577 38.7101 40.2577C37.8561 40.2577 37.1617 39.5632 37.1617 38.7093H35.6133C35.6133 40.1484 36.6033 41.3501 37.9359 41.696V43.3544H39.4842V41.696C40.8168 41.3501 41.8068 40.1484 41.8068 38.7093C41.8068 37.0014 40.418 35.6125 38.7101 35.6125C37.8561 35.6125 37.1617 34.9181 37.1617 34.0641C37.1617 33.2101 37.8561 32.5157 38.7101 32.5157Z" fill="#44545F"/>
<path d="M32.5166 8.5166H37.1618V10.065H32.5166V8.5166Z" fill="#44545F"/>
<path d="M41.8066 8.5166V10.065H44.9034V46.4521H12.3873V43.3553H10.8389V48.0005H46.4518V8.5166H41.8066Z" fill="#44545F"/>
<path d="M12.3873 17.8069H20.1292V10.065H27.8711V8.5166H19.0344L10.8389 16.7122V24.0005H12.3873V17.8069ZM13.482 16.2585L18.5808 11.1597V16.2585H13.482Z" fill="#44545F"/>
<path d="M29.4198 40.2576H3.09722V22.4512H1.54883V41.806H29.4198V40.2576Z" fill="#44545F"/>
<path d="M41.8066 20.9033H43.355V22.4517H41.8066V20.9033Z" fill="#44545F"/>
<path d="M13.9355 20.9033H40.2581V22.4517H13.9355V20.9033Z" fill="#44545F"/>
<path d="M13.9355 24H43.3549V25.5484H13.9355V24Z" fill="#44545F"/>
</g>
<defs>
<clipPath id="clip0">
<rect width="48" height="48" fill="white"/>
</clipPath>
</defs>
</svg>
