<svg width="48" height="48" viewBox="0 0 48 48" fill="none" xmlns="http://www.w3.org/2000/svg">
<path d="M26.1084 16.8408L26.9879 15.5859L32.1393 19.1963L31.2598 20.4512L26.1084 16.8408Z" fill="#44545F"/>
<path d="M19.3525 17.7275L23.579 15.3773L24.3233 16.7159L20.0968 19.0661L19.3525 17.7275Z" fill="#44545F"/>
<path d="M13.2783 13.1738L14.5332 12.2943L18.1441 17.4464L16.8892 18.3259L13.2783 13.1738Z" fill="#44545F"/>
<path d="M29 9H37V11H29V9Z" fill="#44545F"/>
<path d="M29 12H37V14H29V12Z" fill="#44545F"/>
<path d="M12.5 18H11V21.3333C11 22.2525 11.6727 23 12.5 23H14V21.3333H12.5V18Z" fill="#44545F"/>
<path d="M11 15H12V17H11V15Z" fill="#44545F"/>
<path d="M34 33.6H32.375V30.8H30.75V33.6H29.125V29.4H27.5V33.6H25.875V28H24.25V33.6H22.625V28H21V35H34V33.6Z" fill="#44545F"/>
<path d="M37.5406 35.2413C36.2734 35.2413 35.2422 34.2101 35.2422 32.9429C35.2422 31.6757 36.2734 30.6445 37.5406 30.6445C38.8078 30.6445 39.839 31.6757 39.839 32.9429C39.839 34.2101 38.8078 35.2413 37.5406 35.2413Z" fill="#FFD200"/>
<path d="M32.9429 22.9835C31.6757 22.9835 30.6445 21.9523 30.6445 20.6851C30.6445 19.4179 31.6757 18.3867 32.9429 18.3867C34.2101 18.3867 35.2413 19.4179 35.2413 20.6851C35.2413 21.9523 34.2101 22.9835 32.9429 22.9835Z" fill="#FFD200"/>
<path d="M25.2818 17.6212C24.0146 17.6212 22.9834 16.59 22.9834 15.3228C22.9834 14.0556 24.0146 13.0244 25.2818 13.0244C26.549 13.0244 27.5802 14.0556 27.5802 15.3228C27.5802 16.59 26.549 17.6212 25.2818 17.6212Z" fill="#FFD200"/>
<path d="M18.3873 21.4513C17.1201 21.4513 16.0889 20.4201 16.0889 19.1529C16.0889 17.8857 17.1201 16.8545 18.3873 16.8545C19.6544 16.8545 20.6856 17.8857 20.6856 19.1529C20.6856 20.4201 19.6544 21.4513 18.3873 21.4513Z" fill="#FFD200"/>
<path d="M13.024 13.7901C11.7568 13.7901 10.7256 12.7589 10.7256 11.4917C10.7256 10.2246 11.7568 9.19336 13.024 9.19336C14.2912 9.19336 15.3224 10.2246 15.3224 11.4917C15.3224 12.7589 14.2912 13.7901 13.024 13.7901Z" fill="#FFD200"/>
<path d="M8 1H39V7H8V1Z" fill="#FFD200"/>
<path d="M20 35H8V28H20V35Z" fill="#FFD200"/>
<path d="M46.4516 40.2581V14.7097C46.4516 12.5752 44.7151 10.8387 42.5806 10.8387H40.2581V0H7.74194V10.8387H5.41935C3.2849 10.8387 1.54839 12.5752 1.54839 14.7097V40.2581H0V44.129C0 46.2635 1.73652 48 3.87097 48H44.129C46.2635 48 48 46.2635 48 44.129V40.2581H46.4516ZM34.4957 26.3226L36.6681 32.1166L38.1182 31.5732L36.1494 26.3226H40.2581V15.4839H41.8065V37.1613H6.19355V15.4839H7.74194V26.3226H34.4957ZM9.29032 1.54839H38.7097V24.7742H35.5688L34.5577 22.0769L33.1076 22.6204L33.9151 24.7742H9.29032V1.54839ZM3.09677 14.7097C3.09677 13.4292 4.13884 12.3871 5.41935 12.3871H7.74194V13.9355H6.19355C5.33961 13.9355 4.64516 14.6299 4.64516 15.4839V37.1613C4.64516 38.0152 5.33961 38.7097 6.19355 38.7097H41.8065C42.6604 38.7097 43.3548 38.0152 43.3548 37.1613V15.4839C43.3548 14.6299 42.6604 13.9355 41.8065 13.9355H40.2581V12.3871H42.5806C43.8612 12.3871 44.9032 13.4292 44.9032 14.7097V40.2581H3.09677V14.7097ZM46.4516 44.129C46.4516 45.4095 45.4095 46.4516 44.129 46.4516H3.87097C2.59045 46.4516 1.54839 45.4095 1.54839 44.129V41.8065H46.4516V44.129Z" fill="#44545F"/>
<path d="M20 43H28V44H20V43Z" fill="#44545F"/>
<path d="M29 43H31V44H29V43Z" fill="#44545F"/>
<path d="M17 43H18V44H17V43Z" fill="#44545F"/>
<path d="M11 3H12V5H11V3Z" fill="#44545F"/>
<path d="M14 3H15V5H14V3Z" fill="#44545F"/>
<path d="M17 3H18V5H17V3Z" fill="#44545F"/>
</svg>
