<svg width="48" height="48" viewBox="0 0 48 48" fill="none" xmlns="http://www.w3.org/2000/svg">
<g clip-path="url(#clip0)">
<path d="M34.3895 44.0874L33.8916 42.6203C39.5518 40.7045 43.3547 35.3989 43.3547 29.4189H44.9031C44.9031 36.0631 40.6775 41.9576 34.3895 44.0874V44.0874Z" fill="#44545F"/>
<path d="M43.277 27.9509C43.2268 27.4602 43.1485 26.9669 43.0449 26.4853L44.5585 26.1602C44.6731 26.6958 44.7611 27.2447 44.8179 27.7913L43.277 27.9509Z" fill="#44545F"/>
<path d="M16.46 24.2856L15.0205 23.7148C15.222 23.2094 15.4503 22.7107 15.7002 22.2341L17.0713 22.9538C16.846 23.3821 16.6403 23.8301 16.46 24.2856ZM17.8194 21.6927L16.5326 20.8327C16.8324 20.3844 17.1597 19.9463 17.5056 19.5282L18.6964 20.5159C18.3845 20.8928 18.0889 21.2894 17.8194 21.6927ZM19.6921 19.4397L18.6114 18.3302C19.0022 17.9495 19.4143 17.5889 19.8362 17.2559L20.7944 18.472C20.4145 18.7717 20.0437 19.0968 19.6921 19.4397Z" fill="#44545F"/>
<path d="M29.419 37.9357C23.8696 37.9357 19.3545 33.4206 19.3545 27.8712C19.3545 22.3218 23.8696 17.8066 29.419 17.8066C34.9684 17.8066 39.4835 22.3218 39.4835 27.8712C39.4835 33.4206 34.9684 37.9357 29.419 37.9357Z" fill="#FFD200"/>
<path d="M29.419 27.0969C28.5651 27.0969 27.8707 26.4024 27.8707 25.5485V24.0001H29.419C30.273 24.0001 30.9674 24.6945 30.9674 25.5485H32.5158C32.5158 24.1101 31.5258 22.9076 30.1932 22.5617V20.9033H28.6448V22.4517H26.3223V25.5485C26.3223 27.2564 27.7111 28.6453 29.419 28.6453C30.273 28.6453 30.9674 29.3397 30.9674 30.1936V31.742H29.419C28.5651 31.742 27.8707 31.0476 27.8707 30.1936H26.3223C26.3223 31.632 27.3123 32.8345 28.6448 33.1804V34.8388H30.1932V33.2904H32.5158V30.1936C32.5158 28.4857 31.127 27.0969 29.419 27.0969Z" fill="#44545F"/>
<path d="M31.0736 5.7746C32.2764 7.0304 34.2902 9.13221 37.9041 9.28078L37.9676 7.73428C34.977 7.61104 33.3674 5.93035 32.1906 4.70328C31.1231 3.59 30.601 3.09744 29.4205 3.09668L29.4189 4.64507C29.8813 4.64507 29.9901 4.64507 31.0736 5.7746V5.7746Z" fill="#44545F"/>
<path d="M41.586 8.65445L40.966 7.23535C40.4814 7.44667 39.9472 7.59372 39.3779 7.67197L39.5896 9.20561C40.2996 9.10884 40.9705 8.92285 41.586 8.65445Z" fill="#44545F"/>
<path d="M41.3474 15.3879C44.6423 11.3464 46.4515 6.29183 46.4515 1.06074V0H45.6773C43.0209 0 42.0906 1.48942 41.3417 2.68662C40.6303 3.82371 40.1169 4.64516 38.3202 4.64516C36.424 4.64516 35.4975 3.67893 34.4258 2.56111C33.2747 1.36013 31.9709 0 29.4147 0C26.8589 0 25.5558 1.36089 24.4047 2.56187C23.3349 3.67969 22.4088 4.64516 20.5152 4.64516C18.7185 4.64516 18.2051 3.82296 17.4945 2.68662C16.7463 1.48942 15.816 0 13.1612 0H12.387V1.06074C12.387 6.29183 14.1962 11.3464 17.4911 15.3879C13.4609 18.8608 11.0522 23.6896 10.8594 28.7582L12.4062 28.8172C12.5892 24.0325 14.9356 19.4701 18.8546 16.2581H39.9846C44.0979 19.6274 46.4515 24.4086 46.4515 29.4194C46.4515 38.811 38.8109 46.4516 29.4192 46.4516C25.3732 46.4516 21.4497 45.0038 18.3707 42.3761L17.3652 43.5537C20.7251 46.4206 25.0054 48 29.4192 48C39.6641 48 47.9999 39.6642 47.9999 29.4194C47.9999 24.1013 45.582 19.032 41.3474 15.3879V15.3879ZM17.7613 13.1613H41.0764C40.704 13.6932 40.309 14.2103 39.8863 14.7097H18.9521C18.5287 14.2103 18.1337 13.6932 17.7613 13.1613V13.1613ZM16.1812 3.50693C16.9293 4.70413 17.8596 6.19355 20.5152 6.19355C23.0699 6.19355 24.373 4.83342 25.5233 3.63243C26.595 2.51462 27.52 1.54839 29.4147 1.54839C31.3097 1.54839 32.2366 2.51462 33.308 3.63243C34.459 4.83342 35.7629 6.19355 38.3202 6.19355C40.9754 6.19355 41.9069 4.70413 42.655 3.50693C43.2511 2.55469 43.707 1.82397 44.8971 1.61114C44.8048 5.14907 43.8129 8.57964 42.0634 11.6121H16.7758C15.0263 8.57964 14.0344 5.14907 13.9422 1.61114C15.1299 1.82397 15.5866 2.55469 16.1812 3.50693V3.50693Z" fill="#44545F"/>
<path d="M10.0645 48.0001C4.51512 48.0001 0 43.485 0 37.9356C0 32.3862 4.51512 27.8711 10.0645 27.8711C15.6139 27.8711 20.129 32.3862 20.129 37.9356C20.129 43.485 15.6139 48.0001 10.0645 48.0001Z" fill="#FFD200"/>
<path d="M10.0645 37.1613C9.21059 37.1613 8.51616 36.4669 8.51616 35.6129V34.0645H10.0645C10.9185 34.0645 11.6129 34.759 11.6129 35.6129H13.1613C13.1613 34.1746 12.1713 32.9721 10.8387 32.6262V30.9678H9.29035V32.5162H6.96777V35.6129C6.96777 37.3208 8.35663 38.7097 10.0645 38.7097C10.9185 38.7097 11.6129 39.4041 11.6129 40.2581V41.8065H10.0645C9.21059 41.8065 8.51616 41.1121 8.51616 40.2581H6.96777C6.96777 41.6965 7.95782 42.899 9.29035 43.2449V44.9033H10.8387V43.3549H13.1613V40.2581C13.1613 38.5502 11.7725 37.1613 10.0645 37.1613Z" fill="#44545F"/>
</g>
<defs>
<clipPath id="clip0">
<rect width="48" height="48" fill="white"/>
</clipPath>
</defs>
</svg>
