<svg width="48" height="48" viewBox="0 0 48 48" fill="none" xmlns="http://www.w3.org/2000/svg">
<path d="M23.2256 13.1611V19.3547H24.774V25.5482H32.5159V16.2579H44.903V13.1611H23.2256Z" fill="#FFD200"/>
<path d="M48 0H17.0323V7.78692H18.5806V1.54839H46.4516V38.7097H41.8065V32.5161H23.2258V23.2258H0V48H41.8065V40.2581H48V0ZM40.2581 34.0645V37.1613H38.7097V35.6129H37.1613V37.1613H35.6129V35.6129H34.0645V37.1613H32.5161V35.6129H30.9677V37.1613H29.4194V35.6129H27.871V37.1613H26.3226V35.6129H24.7742V37.1613H23.2258V34.0645H40.2581ZM1.54839 24.7742H21.6774V27.871H20.129V26.3226H18.5806V27.871H17.0323V26.3226H15.4839V27.871H13.9355V26.3226H12.3871V27.871H10.8387V26.3226H9.29032V27.871H7.74194V26.3226H6.19355V27.871H4.64516V26.3226H3.09677V27.871H1.54839V24.7742ZM1.54839 29.4194H21.6774V32.5161H20.129V30.9677H18.5806V32.5161H17.0323V30.9677H15.4839V32.5161H13.9355V30.9677H12.3871V32.5161H10.8387V30.9677H9.29032V32.5161H7.74194V30.9677H6.19355V32.5161H4.64516V30.9677H3.09677V32.5161H1.54839V29.4194ZM1.54839 34.0645H21.6774V37.1613H20.129V35.6129H18.5806V37.1613H17.0323V35.6129H15.4839V37.1613H13.9355V35.6129H12.3871V37.1613H10.8387V35.6129H9.29032V37.1613H7.74194V35.6129H6.19355V37.1613H4.64516V35.6129H3.09677V37.1613H1.54839V34.0645ZM1.54839 38.7097H21.6774V41.8065H20.129V40.2581H18.5806V41.8065H17.0323V40.2581H15.4839V41.8065H13.9355V40.2581H12.3871V41.8065H10.8387V40.2581H9.29032V41.8065H7.74194V40.2581H6.19355V41.8065H4.64516V40.2581H3.09677V41.8065H1.54839V38.7097ZM21.6774 46.4516H20.129V44.9032H18.5806V46.4516H17.0323V44.9032H15.4839V46.4516H13.9355V44.9032H12.3871V46.4516H10.8387V44.9032H9.29032V46.4516H7.74194V44.9032H6.19355V46.4516H4.64516V44.9032H3.09677V46.4516H1.54839V43.3548H21.6774V46.4516ZM40.2581 46.4516H38.7097V44.9032H37.1613V46.4516H35.6129V44.9032H34.0645V46.4516H32.5161V44.9032H30.9677V46.4516H29.4194V44.9032H27.871V46.4516H26.3226V44.9032H24.7742V46.4516H23.2258V43.3548H40.2581V46.4516ZM38.7097 41.8065V40.2581H37.1613V41.8065H35.6129V40.2581H34.0645V41.8065H32.5161V40.2581H30.9677V41.8065H29.4194V40.2581H27.871V41.8065H26.3226V40.2581H24.7742V41.8065H23.2258V38.7097H40.2581V41.8065H38.7097Z" fill="#44545F"/>
<path d="M20.1289 10.8386H44.9031V3.09668H20.1289V10.8386ZM21.6773 4.64507H43.3547V9.29023H21.6773V4.64507Z" fill="#44545F"/>
<path d="M11.6133 4.64551C6.0545 4.64551 1.54883 9.15118 1.54883 14.71C1.54883 18.3016 3.4363 21.4449 6.26695 23.2262H16.9597C19.7904 21.4449 21.6779 18.3016 21.6779 14.71C21.6779 9.15118 17.1722 4.64551 11.6133 4.64551Z" fill="#FFD200"/>
<path d="M33.5176 30.4214L44.4659 19.4727L45.561 20.5678L34.6123 31.5161L33.5176 30.4214Z" fill="#44545F"/>
<path d="M34.0645 22.4515C34.0645 23.7319 35.1067 24.7741 36.387 24.7741C37.6674 24.7741 38.7096 23.7319 38.7096 22.4515C38.7096 21.1711 37.6674 20.1289 36.387 20.1289C35.1067 20.1289 34.0645 21.1711 34.0645 22.4515ZM37.1612 22.4515C37.1612 22.8787 36.8134 23.2257 36.387 23.2257C35.9606 23.2257 35.6128 22.8787 35.6128 22.4515C35.6128 22.0243 35.9606 21.6773 36.387 21.6773C36.8134 21.6773 37.1612 22.0243 37.1612 22.4515Z" fill="#44545F"/>
<path d="M40.2578 28.6448C40.2578 29.9252 41.3 30.9674 42.5804 30.9674C43.8608 30.9674 44.903 29.9252 44.903 28.6448C44.903 27.3645 43.8608 26.3223 42.5804 26.3223C41.3 26.3223 40.2578 27.3645 40.2578 28.6448ZM43.3546 28.6448C43.3546 29.072 43.0068 29.419 42.5804 29.419C42.154 29.419 41.8062 29.072 41.8062 28.6448C41.8062 28.2177 42.154 27.8707 42.5804 27.8707C43.0068 27.8707 43.3546 28.2177 43.3546 28.6448Z" fill="#44545F"/>
<path d="M11.6134 18.5809C10.7594 18.5809 10.065 17.8865 10.065 17.0325H8.5166C8.5166 18.4716 9.5074 19.6734 10.8392 20.0193V21.6777H12.3876V20.0193C13.7193 19.6734 14.7102 18.4716 14.7102 17.0325C14.7102 15.3246 13.3213 13.9357 11.6134 13.9357C10.7594 13.9357 10.065 13.2413 10.065 12.3873C10.065 11.5334 10.7594 10.839 11.6134 10.839C12.4673 10.839 13.1618 11.5334 13.1618 12.3873H14.7102C14.7102 10.9482 13.7193 9.74647 12.3876 9.40058V7.74219H10.8392V9.40058C9.5074 9.74647 8.5166 10.9482 8.5166 12.3873C8.5166 14.0953 9.90546 15.4841 11.6134 15.4841C12.4673 15.4841 13.1618 16.1786 13.1618 17.0325C13.1618 17.8865 12.4673 18.5809 11.6134 18.5809Z" fill="#44545F"/>
<path d="M23.2256 12.3867H44.903V13.9351H23.2256V12.3867Z" fill="#44545F"/>
<path d="M23.2256 15.4834H44.903V17.0318H23.2256V15.4834Z" fill="#44545F"/>
<path d="M23.2256 18.5811H32.5159V20.1294H23.2256V18.5811Z" fill="#44545F"/>
<path d="M24.7744 21.6777H32.5163V23.2261H24.7744V21.6777Z" fill="#44545F"/>
<path d="M24.7744 24.7744H32.5163V26.3228H24.7744V24.7744Z" fill="#44545F"/>
</svg>
