<svg width="48" height="48" viewBox="0 0 48 48" fill="none" xmlns="http://www.w3.org/2000/svg">
<path d="M13.1613 41.9177H6.96777V34.1758H13.1613V41.9177Z" fill="#FFD200"/>
<path d="M20.9035 41.9177H14.71V34.1758H20.9035V41.9177Z" fill="#FFD200"/>
<path d="M24.7744 21.7884H10.8389V12.498H24.7744V21.7884Z" fill="#FFD200"/>
<path d="M45.3677 29.4624C46.8194 29.4624 48 28.2845 48 26.8363V26.691C48 25.7379 47.4813 24.8581 46.6459 24.3955L44.129 23.0005V15.5592H47.6261L42.3166 3.20082H23.5804L17.8065 0L4.45084 7.40268C3.61548 7.86534 3.09677 8.74511 3.09677 9.69825V9.84346C3.09677 11.2917 4.27742 12.4696 5.72903 12.4696C6.16026 12.4696 6.58839 12.3623 6.96774 12.1614L7.74194 11.7497V20.1936H5.68335L0.373936 32.552H3.87097V43.3656C1.73652 43.3656 0 45.0981 0 47.2276V48H48V47.2276C48 45.0981 46.2635 43.3656 44.129 43.3656V29.1535C44.5084 29.355 44.9365 29.4624 45.3677 29.4624V29.4624ZM46.4516 26.691V26.8363C46.4516 27.4325 45.9654 27.9176 45.3677 27.9176C45.1904 27.9176 45.0139 27.8736 44.8575 27.7902L33.2903 21.6349L21.7231 27.7909C21.5667 27.8736 21.3902 27.9176 21.2129 27.9176C20.6152 27.9176 20.129 27.4325 20.129 26.8363V26.691C20.129 26.2987 20.3427 25.9364 20.6865 25.7456L33.2903 18.76L45.8942 25.7464C46.2379 25.9372 46.4516 26.2987 46.4516 26.691ZM42.5806 22.1424L33.2903 16.9928L27.871 19.9967V15.5592H42.5806V22.1424ZM41.2963 4.74562L45.2779 14.0144H27.871V11.7482L28.6452 12.1599C29.0245 12.3623 29.4526 12.4688 29.8839 12.4688C31.3355 12.4688 32.5161 11.2909 32.5161 9.84269V9.69748C32.5161 8.74434 31.9974 7.86457 31.1621 7.40191L26.3683 4.74562H41.2963ZM6.23923 10.7981C6.08284 10.8808 5.90632 10.9248 5.72903 10.9248C5.13135 10.9248 4.64516 10.4398 4.64516 9.84346V9.69825C4.64516 9.30587 4.85884 8.94361 5.20258 8.75283L17.8065 1.76725L30.4103 8.7536C30.7541 8.94439 30.9677 9.30664 30.9677 9.69902V9.84346C30.9677 10.4398 30.4815 10.9248 29.8839 10.9248C29.7066 10.9248 29.5301 10.8808 29.3737 10.7974L17.8065 4.64212L6.23923 10.7981ZM17.8065 6.39392L26.3226 10.9248V20.8556L19.9347 24.3962C19.721 24.5144 19.5283 24.6612 19.3595 24.8288H9.29032V10.9256L17.8065 6.39392ZM6.70374 21.7384H7.74194V26.3728H18.6023C18.5892 26.4779 18.5806 26.5837 18.5806 26.691V26.8363C18.5806 28.2845 19.7613 29.4624 21.2129 29.4624C21.6441 29.4624 22.0723 29.355 22.4516 29.1542V31.0072H2.72284L6.70374 21.7384ZM5.41935 32.552H22.4516V43.3656H5.41935V32.552ZM46.3192 46.4552H1.68077C2.00052 45.5561 2.86142 44.9104 3.87097 44.9104H44.129C45.1386 44.9104 45.9995 45.5561 46.3192 46.4552ZM42.5806 43.3656H24V28.3301L33.2903 23.3867L42.5806 28.3293V43.3656Z" fill="#44545F"/>
<path d="M17 12H19V22H17V12Z" fill="#44545F"/>
<path d="M32.25 26V27.5556H30V30.6667C30 32.3824 31.3455 33.7778 33 33.7778C33.8273 33.7778 34.5 34.4754 34.5 35.3333V36.8889H33C32.1727 36.8889 31.5 36.1912 31.5 35.3333H30C30 36.7792 30.96 37.9863 32.25 38.334V40H33.75V38.4444H36V35.3333C36 33.6176 34.6545 32.2222 33 32.2222C32.1727 32.2222 31.5 31.5246 31.5 30.6667V29.1111H33C33.8273 29.1111 34.5 29.8088 34.5 30.6667H36C36 29.2208 35.04 28.0137 33.75 27.666V26H32.25Z" fill="#44545F"/>
<path d="M39 40H41V42H39V40Z" fill="#44545F"/>
<path d="M39 37H41V39H39V37Z" fill="#44545F"/>
<path d="M39 34H41V36H39V34Z" fill="#44545F"/>
<path d="M26 29H27V30H26V29Z" fill="#44545F"/>
<path d="M26 32H27V33H26V32Z" fill="#44545F"/>
<path d="M26 35H27V36H26V35Z" fill="#44545F"/>
<path d="M39 6H40V8H39V6Z" fill="#44545F"/>
<path d="M36 6H37V8H36V6Z" fill="#44545F"/>
<path d="M33 6H34V8H33V6Z" fill="#44545F"/>
<path d="M5 28H7V30H5V28Z" fill="#44545F"/>
<path d="M9 28H10V30H9V28Z" fill="#44545F"/>
<path d="M12 28H13V30H12V28Z" fill="#44545F"/>
</svg>
