<svg width="48" height="48" viewBox="0 0 48 48" fill="none" xmlns="http://www.w3.org/2000/svg">
<path d="M44.8865 26.162H27.7637V18.541H44.8865V26.162Z" fill="#FFD200"/>
<path d="M27.7646 11.6819H19.2031V3.29883H19.9814C24.273 3.29883 27.7646 6.71759 27.7646 10.9198V11.6819Z" fill="#FFD200"/>
<path d="M9.08496 23.875H23.0946V30.7339H9.08496V23.875Z" fill="#FFD200"/>
<path d="M31.3333 40H29.6667C28.7475 40 28 40.598 28 41.3333V42.6667C28 43.402 28.7475 44 29.6667 44H31.3333C32.2525 44 33 43.402 33 42.6667V41.3333C33 40.598 32.2525 40 31.3333 40ZM31.3333 42.6667H29.6667V41.3333H31.3333V42.6667Z" fill="#44545F"/>
<path d="M37.3333 40H35.6667C34.7475 40 34 40.598 34 41.3333V42.6667C34 43.402 34.7475 44 35.6667 44H37.3333C38.2525 44 39 43.402 39 42.6667V41.3333C39 40.598 38.2525 40 37.3333 40ZM37.3333 42.6667H35.6667V41.3333H37.3333V42.6667Z" fill="#44545F"/>
<path d="M43.3333 40H41.6667C40.7475 40 40 40.598 40 41.3333V42.6667C40 43.402 40.7475 44 41.6667 44H43.3333C44.2525 44 45 43.402 45 42.6667V41.3333C45 40.598 44.2525 40 43.3333 40ZM43.3333 42.6667H41.6667V41.3333H43.3333V42.6667Z" fill="#44545F"/>
<path d="M31.3333 34H29.6667C28.7475 34 28 34.598 28 35.3333V36.6667C28 37.402 28.7475 38 29.6667 38H31.3333C32.2525 38 33 37.402 33 36.6667V35.3333C33 34.598 32.2525 34 31.3333 34ZM31.3333 36.6667H29.6667V35.3333H31.3333V36.6667Z" fill="#44545F"/>
<path d="M37.3333 34H35.6667C34.7475 34 34 34.598 34 35.3333V36.6667C34 37.402 34.7475 38 35.6667 38H37.3333C38.2525 38 39 37.402 39 36.6667V35.3333C39 34.598 38.2525 34 37.3333 34ZM37.3333 36.6667H35.6667V35.3333H37.3333V36.6667Z" fill="#44545F"/>
<path d="M43.3333 34H41.6667C40.7475 34 40 34.598 40 35.3333V36.6667C40 37.402 40.7475 38 41.6667 38H43.3333C44.2525 38 45 37.402 45 36.6667V35.3333C45 34.598 44.2525 34 43.3333 34ZM43.3333 36.6667H41.6667V35.3333H43.3333V36.6667Z" fill="#44545F"/>
<path d="M31.3333 28H29.6667C28.7475 28 28 28.598 28 29.3333V30.6667C28 31.402 28.7475 32 29.6667 32H31.3333C32.2525 32 33 31.402 33 30.6667V29.3333C33 28.598 32.2525 28 31.3333 28ZM31.3333 30.6667H29.6667V29.3333H31.3333V30.6667Z" fill="#44545F"/>
<path d="M37.3333 28H35.6667C34.7475 28 34 28.598 34 29.3333V30.6667C34 31.402 34.7475 32 35.6667 32H37.3333C38.2525 32 39 31.402 39 30.6667V29.3333C39 28.598 38.2525 28 37.3333 28ZM37.3333 30.6667H35.6667V29.3333H37.3333V30.6667Z" fill="#44545F"/>
<path d="M43.3333 28H41.6667C40.7475 28 40 28.598 40 29.3333V30.6667C40 31.402 40.7475 32 41.6667 32H43.3333C44.2525 32 45 31.402 45 30.6667V29.3333C45 28.598 44.2525 28 43.3333 28ZM43.3333 30.6667H41.6667V29.3333H43.3333V30.6667Z" fill="#44545F"/>
<path d="M44.129 15.4839H34.0645V3.87097C34.0645 1.73652 32.328 0 30.1935 0H3.87097C1.73652 0 0 1.73652 0 3.87097V17.0323H6.19355V36.3871C6.19355 38.5215 7.93006 40.2581 10.0645 40.2581H24.7742V44.129C24.7742 46.2635 26.5107 48 28.6452 48H44.129C46.2635 48 48 46.2635 48 44.129V19.3548C48 17.2204 46.2635 15.4839 44.129 15.4839ZM6.19355 15.4839H1.54839V3.87097C1.54839 2.59045 2.59045 1.54839 3.87097 1.54839C5.15148 1.54839 6.19355 2.59045 6.19355 3.87097V15.4839ZM13.1412 38.7097C13.6328 38.0609 13.9355 37.2619 13.9355 36.3871V34.0645H24.7742V38.7097H13.1412ZM24.7742 19.3548V32.5161H12.3871V36.3871C12.3871 37.6676 11.345 38.7097 10.0645 38.7097C8.784 38.7097 7.74194 37.6676 7.74194 36.3871V3.87097C7.74194 2.99613 7.43923 2.19716 6.94761 1.54839H30.1935C31.4741 1.54839 32.5161 2.59045 32.5161 3.87097V15.4839H28.6452C26.5107 15.4839 24.7742 17.2204 24.7742 19.3548ZM46.4516 44.129C46.4516 45.4095 45.4095 46.4516 44.129 46.4516H28.6452C27.3646 46.4516 26.3226 45.4095 26.3226 44.129V19.3548C26.3226 18.0743 27.3646 17.0323 28.6452 17.0323H44.129C45.4095 17.0323 46.4516 18.0743 46.4516 19.3548V44.129Z" fill="#44545F"/>
<path d="M17.8 6H17C12.5888 6 9 9.5888 9 14C9 18.4112 12.5888 22 17 22C21.4112 22 25 18.4112 25 14V13.2H17.8V6ZM16.2 7.6496V13.6688L11.9504 17.9184C11.1072 16.8336 10.6 15.4768 10.6 14C10.6 10.7424 13.0472 8.0448 16.2 7.6496V7.6496ZM23.3504 14.8C22.9552 17.9528 20.2576 20.4 17 20.4C15.5232 20.4 14.1664 19.8928 13.0816 19.0496L17.3312 14.8H23.3504Z" fill="#44545F"/>
<path d="M30 3H31V5H30V3Z" fill="#44545F"/>
<path d="M30 6H31V8H30V6Z" fill="#44545F"/>
<path d="M30 9H31V11H30V9Z" fill="#44545F"/>
<path d="M9 23H23V25H9V23Z" fill="#44545F"/>
<path d="M9 26H23V28H9V26Z" fill="#44545F"/>
<path d="M21 29H23V31H21V29Z" fill="#44545F"/>
<path d="M18 29H20V31H18V29Z" fill="#44545F"/>
<path d="M15 29H17V31H15V29Z" fill="#44545F"/>
<path d="M9 29H13V31H9V29Z" fill="#44545F"/>
<path d="M3 12H4V14H3V12Z" fill="#44545F"/>
<path d="M3 9H4V11H3V9Z" fill="#44545F"/>
<path d="M3 6H4V8H3V6Z" fill="#44545F"/>
</svg>
