<svg width="48" height="48" viewBox="0 0 48 48" fill="none" xmlns="http://www.w3.org/2000/svg">
<path d="M43.4791 22C43.3619 21.5228 43.2009 21.0547 43 20.6087L44.4334 20C44.6702 20.5281 44.8609 21.0821 45 21.6451L43.4791 22Z" fill="#44545F"/>
<path d="M44.9051 14.0812L40.3102 8.85649L42.8716 4.60809C43.1419 4.1583 43.2857 3.6467 43.2857 3.12989V2.97872C43.2857 1.33596 41.8761 0 40.1429 0C39.0979 0 38.5431 0.601702 38.1754 0.999362C37.8329 1.36947 37.6961 1.48936 37.3905 1.48936C37.0841 1.48936 36.9481 1.36947 36.6048 0.998617C36.2371 0.600957 35.6824 0 34.6381 0C33.5947 0 33.04 0.601702 32.6723 0.999362C32.3313 1.36947 32.1946 1.48936 31.8897 1.48936C31.5849 1.48936 31.4489 1.36947 31.1079 0.999362C30.741 0.601702 30.1863 0 29.1429 0C27.4096 0 26 1.33596 26 2.97872V3.12989C26 3.6467 26.1438 4.1583 26.4141 4.60734L28.9755 8.85574L26.8627 11.2581L28.0704 12.212L30.2963 9.68011H38.9879L43.6959 15.0336C45.459 17.039 46.4286 19.5791 46.4286 22.1863V22.3404C46.4286 28.4997 41.1415 33.5106 34.6429 33.5106C33.1319 33.5106 31.6493 33.2366 30.2366 32.6952L29.6481 34.0758C31.2494 34.6895 32.9292 35 34.6429 35C42.0081 35 48 29.3211 48 22.3404V22.1863C48 19.2314 46.9008 16.3532 44.9051 14.0812V14.0812ZM27.5714 3.12989V2.97872C27.5714 2.15734 28.2762 1.48936 29.1429 1.48936C29.4477 1.48936 29.5836 1.60926 29.9246 1.97936C30.2916 2.37702 30.8463 2.97872 31.8897 2.97872C32.9331 2.97872 33.4879 2.37702 33.8556 1.97936C34.1974 1.60926 34.3333 1.48936 34.6381 1.48936C34.9438 1.48936 35.0797 1.60926 35.4231 1.97936C35.7908 2.37702 36.3455 2.97872 37.3905 2.97872C38.4347 2.97872 38.9894 2.37777 39.3571 1.98011C39.7005 1.60926 39.8364 1.48936 40.1429 1.48936C41.0095 1.48936 41.7143 2.15734 41.7143 2.97872V3.12989C41.7143 3.3883 41.6428 3.64372 41.5069 3.86862L38.9014 8.19149H30.3843L27.7781 3.86862C27.6429 3.64447 27.5714 3.3883 27.5714 3.12989V3.12989Z" fill="#44545F"/>
<path d="M37.2379 32L37 30.7212C40.8058 30.1424 43.5671 27.1863 43.5671 23.6916V23.5574C43.5671 23.4005 43.5613 23.2431 43.5499 23.0862L44.9799 23C44.9928 23.186 45 23.3714 45 23.5574V23.6916C45 27.8208 41.7351 31.3156 37.2379 32Z" fill="#44545F"/>
<path d="M18 33.5562L16.8727 32.3663L14.3509 35.0281L12.2891 32.8518L14.8109 30.19L13.6836 29L11.1618 31.6619L10.414 30.8725L1.84967 38.4045C0.674492 39.4379 0 40.9578 0 42.5736C0 45.5654 2.30651 48 5.14081 48C6.67157 48 8.11144 47.288 9.09049 46.0484L16.2261 37.0083L15.4782 36.2181L18 33.5562ZM7.86508 44.9695C7.19059 45.8262 6.19639 46.3169 5.14081 46.3169C3.1851 46.3169 1.59454 44.6379 1.59454 42.5736C1.59454 41.4594 2.05935 40.4108 2.87097 39.698L10.3159 33.1489L14.0702 37.1118L7.86508 44.9695Z" fill="#44545F"/>
<path d="M24 37C16.8316 37 11 31.1684 11 24C11 16.8316 16.8316 11 24 11C31.1684 11 37 16.8316 37 24C37 31.1684 31.1684 37 24 37ZM24 14.8235C18.9399 14.8235 14.8235 18.9399 14.8235 24C14.8235 29.0601 18.9399 33.1765 24 33.1765C29.0601 33.1765 33.1765 29.0601 33.1765 24C33.1765 18.9399 29.0601 14.8235 24 14.8235Z" fill="#FFD200"/>
<path d="M24 33C19.0375 33 15 28.9625 15 24C15 19.0375 19.0375 15 24 15C28.9625 15 33 19.0375 33 24C33 28.9625 28.9625 33 24 33ZM24 16.3846C19.8012 16.3846 16.3846 19.8012 16.3846 24C16.3846 28.1988 19.8012 31.6154 24 31.6154C28.1988 31.6154 31.6154 28.1988 31.6154 24C31.6154 19.8012 28.1988 16.3846 24 16.3846Z" fill="#44545F"/>
<path d="M24 23.3333C23.1727 23.3333 22.5 22.7353 22.5 22V20.6667H24C24.8273 20.6667 25.5 21.2647 25.5 22H27C27 20.7607 26.0407 19.726 24.75 19.428V18H23.25V19.3333H21V22C21 23.4707 22.3455 24.6667 24 24.6667C24.8273 24.6667 25.5 25.2647 25.5 26V27.3333H24C23.1727 27.3333 22.5 26.7353 22.5 26H21C21 27.2393 21.9593 28.274 23.25 28.572V30H24.75V28.6667H27V26C27 24.5293 25.6545 23.3333 24 23.3333Z" fill="#44545F"/>
<path d="M4 44C4.55228 44 5 43.7761 5 43.5C5 43.2239 4.55228 43 4 43C3.44772 43 3 43.2239 3 43.5C3 43.7761 3.44772 44 4 44Z" fill="#44545F"/>
</svg>
