<svg width="48" height="48" viewBox="0 0 48 48" fill="none" xmlns="http://www.w3.org/2000/svg">
<path d="M23.2256 23.2256H47.9998V44.903H23.2256V23.2256Z" fill="#FFD200"/>
<path d="M20.9031 24.7746H3.09668V18.5811H20.9031V24.7746ZM4.64507 23.2262H19.3547V20.1294H4.64507V23.2262Z" fill="#44545F"/>
<path d="M18.1931 40.2581C16.6987 40.2581 15.4834 39.0427 15.4834 37.5484V33.6775C15.4834 32.1831 16.6987 30.9678 18.1931 30.9678C19.6874 30.9678 20.9028 32.1831 20.9028 33.6775V37.5484C20.9028 39.0427 19.6874 40.2581 18.1931 40.2581ZM18.1931 32.5162C17.5527 32.5162 17.0318 33.0371 17.0318 33.6775V37.5484C17.0318 38.1888 17.5527 38.7097 18.1931 38.7097C18.8334 38.7097 19.3544 38.1888 19.3544 37.5484V33.6775C19.3544 33.0371 18.8334 32.5162 18.1931 32.5162Z" fill="#44545F"/>
<path d="M4.64551 27.0967H6.19389V28.6451H4.64551V27.0967Z" fill="#44545F"/>
<path d="M8.5166 27.0967H10.065V28.6451H8.5166V27.0967Z" fill="#44545F"/>
<path d="M12.3867 27.0967H13.9351V28.6451H12.3867V27.0967Z" fill="#44545F"/>
<path d="M16.2578 27.0967H17.8062V28.6451H16.2578V27.0967Z" fill="#44545F"/>
<path d="M4.64551 30.9678H6.19389V32.5162H4.64551V30.9678Z" fill="#44545F"/>
<path d="M8.5166 30.9678H10.065V32.5162H8.5166V30.9678Z" fill="#44545F"/>
<path d="M12.3867 30.9678H13.9351V32.5162H12.3867V30.9678Z" fill="#44545F"/>
<path d="M4.64551 34.8389H6.19389V36.3873H4.64551V34.8389Z" fill="#44545F"/>
<path d="M8.5166 34.8389H10.065V36.3873H8.5166V34.8389Z" fill="#44545F"/>
<path d="M12.3867 34.8389H13.9351V36.3873H12.3867V34.8389Z" fill="#44545F"/>
<path d="M4.64551 38.71H6.19389V40.2583H4.64551V38.71Z" fill="#44545F"/>
<path d="M8.5166 38.71H10.065V40.2583H8.5166V38.71Z" fill="#44545F"/>
<path d="M12.3867 38.71H13.9351V40.2583H12.3867V38.71Z" fill="#44545F"/>
<path d="M30.1935 34.064C30.1935 30.4834 27.4786 27.5284 24 27.142V17.806C24 16.5256 22.9578 15.4834 21.6774 15.4834H19.3548V17.0318H21.6774C22.1046 17.0318 22.4516 17.3788 22.4516 17.806V45.6769C22.4516 46.1041 22.1046 46.4511 21.6774 46.4511H20.6076L19.0592 43.3544H4.94078L3.39239 46.4511H2.32258C1.89541 46.4511 1.54839 46.1041 1.54839 45.6769V17.806C1.54839 17.3788 1.89541 17.0318 2.32258 17.0318H5.41935V15.4834H2.32258C1.04221 15.4834 0 16.5256 0 17.806V45.6769C0 46.9573 1.04221 47.9995 2.32258 47.9995H21.6774C22.9578 47.9995 24 46.9573 24 45.6769V40.986C27.4786 40.5997 30.1935 37.6447 30.1935 34.064ZM5.12374 46.4511L5.89793 44.9028H18.1021L18.8763 46.4511H5.12374ZM24 39.4214V28.7067C26.6216 29.0843 28.6452 31.3396 28.6452 34.064C28.6452 36.7885 26.6216 39.0438 24 39.4214Z" fill="#44545F"/>
<path d="M44.9032 30.1932H43.3548V27.8707H41.0322V26.3223H44.9032V30.1932Z" fill="#44545F"/>
<path d="M44.9032 41.8065H41.0322V40.2581H43.3548V37.9355H44.9032V41.8065Z" fill="#44545F"/>
<path d="M29.2569 15.8967L26.5385 7.74194H20.9033V6.19355H27.6552L29.582 11.9743L35.9203 0H44.9033V1.54839H36.8541L29.2569 15.8967Z" fill="#44545F"/>
<path d="M35.6572 15.1227L40.9843 5.05859L42.3528 5.78289L37.0257 15.847L35.6572 15.1227Z" fill="#44545F"/>
<path d="M41.0322 12.3867H42.5806V13.9351H41.0322V12.3867Z" fill="#44545F"/>
<path d="M35.6133 6.96777H37.1617V8.51616H35.6133V6.96777Z" fill="#44545F"/>
<path d="M12.3868 20.129C6.83739 20.129 2.32227 15.6139 2.32227 10.0645C2.32227 4.51512 6.83739 0 12.3868 0C17.9362 0 22.4513 4.51512 22.4513 10.0645C22.4513 15.6139 17.9362 20.129 12.3868 20.129Z" fill="#FFD200"/>
<path d="M12.387 7.74153C12.8142 7.74153 13.1612 8.08855 13.1612 8.51572H14.7096C14.7096 7.50791 14.0602 6.65622 13.1612 6.33565V5.41895H11.6128V6.33565C10.7139 6.65622 10.0645 7.50791 10.0645 8.51572C10.0645 9.79609 11.1067 10.8383 12.387 10.8383C12.8142 10.8383 13.1612 11.1853 13.1612 11.6125C13.1612 12.0397 12.8142 12.3867 12.387 12.3867C11.9599 12.3867 11.6128 12.0397 11.6128 11.6125H10.0645C10.0645 12.6203 10.7139 13.472 11.6128 13.7926V14.7093H13.1612V13.7926C14.0602 13.472 14.7096 12.6203 14.7096 11.6125C14.7096 10.3321 13.6674 9.28991 12.387 9.28991C11.9599 9.28991 11.6128 8.94289 11.6128 8.51572C11.6128 8.08855 11.9599 7.74153 12.387 7.74153Z" fill="#44545F"/>
<path d="M12.3872 3.09668C10.8294 3.09668 9.35393 3.60361 8.11816 4.56455L9.06814 5.78783C10.0298 5.03972 11.1779 4.64507 12.3872 4.64507C15.3747 4.64507 17.8065 7.0769 17.8065 10.0644C17.8065 11.2737 17.4119 12.4218 16.6638 13.3835L17.8871 14.3334C18.848 13.0977 19.3549 11.6223 19.3549 10.0644C19.3549 6.22218 16.2294 3.09668 12.3872 3.09668Z" fill="#44545F"/>
<path d="M12.3867 17.0327C8.54445 17.0327 5.41895 13.9072 5.41895 10.0649C5.41895 8.50709 5.92588 7.03166 6.88681 5.7959L8.1101 6.74587C7.36199 7.70757 6.96733 8.85563 6.96733 10.0649C6.96733 13.0525 9.39916 15.4843 12.3867 15.4843C13.596 15.4843 14.744 15.0896 15.7057 14.3415L16.6557 15.5648C15.42 16.5257 13.9445 17.0327 12.3867 17.0327Z" fill="#44545F"/>
</svg>
