<svg width="48" height="48" viewBox="0 0 48 48" fill="none" xmlns="http://www.w3.org/2000/svg">
<path d="M29.4992 32.2501C25.5997 32.2501 22.4277 29.1503 22.4277 25.3394C22.4277 21.5286 25.5997 18.4287 29.4992 18.4287C33.3987 18.4287 36.5706 21.5286 36.5706 25.3394C36.5706 29.1503 33.3987 32.2501 29.4992 32.2501Z" fill="#FFD200"/>
<path d="M28.7143 15.3569H24V6.14258H28.7143V15.3569Z" fill="#FFD200"/>
<path d="M34.9994 15.357H30.2852V3.07129H34.9994V15.357Z" fill="#FFD200"/>
<path d="M22.4291 15.3567H17.7148V9.21387H22.4291V15.3567Z" fill="#FFD200"/>
<path d="M13 17.6602H19.2857V30.7137H13V17.6602Z" fill="#FFD200"/>
<path d="M42.0714 9.29032H38.1429V3.87097C38.1429 1.73652 36.3805 0 34.2143 0H7.5C5.33379 0 3.57143 1.73652 3.57143 3.87097V7.74194H9.85714V9.29032H5.92857C3.76236 9.29032 2 11.0268 2 13.1613V36.3871C2 38.5215 3.76236 40.2581 5.92857 40.2581H17.2287L15.6573 43.3548H13C11.7004 43.3548 10.6429 44.3969 10.6429 45.6774C10.6429 46.9579 11.7004 48 13 48H35C36.2996 48 37.3571 46.9579 37.3571 45.6774C37.3571 44.3969 36.2996 43.3548 35 43.3548H32.3427L30.7713 40.2581H34.2143H38.9286H42.0714C44.2376 40.2581 46 38.5215 46 36.3871V13.1613C46 11.0268 44.2376 9.29032 42.0714 9.29032ZM38.1429 13.9355H41.2857V32.5161H38.1429V13.9355ZM36.5714 3.87097V32.5161H11.4286V3.87097C11.4286 2.99613 11.1214 2.19716 10.6224 1.54839H34.2143C35.5139 1.54839 36.5714 2.59045 36.5714 3.87097ZM9.85714 32.5161H6.71429V13.9355H9.85714V32.5161ZM5.14286 6.19355V3.87097C5.14286 2.59045 6.20043 1.54839 7.5 1.54839C8.79957 1.54839 9.85714 2.59045 9.85714 3.87097V6.19355H5.14286ZM35.7857 45.6774C35.7857 46.104 35.4329 46.4516 35 46.4516H13C12.5671 46.4516 12.2143 46.104 12.2143 45.6774C12.2143 45.2508 12.5671 44.9032 13 44.9032H35C35.4329 44.9032 35.7857 45.2508 35.7857 45.6774ZM30.5859 43.3548H17.4141L18.9856 40.2581H29.0144L30.5859 43.3548ZM34.2143 38.7097C33.7814 38.7097 33.4286 38.3621 33.4286 37.9355C33.4286 37.5089 33.7814 37.1613 34.2143 37.1613H38.9286C39.3615 37.1613 39.7143 37.5089 39.7143 37.9355C39.7143 38.3621 39.3615 38.7097 38.9286 38.7097H34.2143ZM44.4286 36.3871C44.4286 37.6676 43.371 38.7097 42.0714 38.7097H41.1411C41.2291 38.4666 41.2857 38.208 41.2857 37.9355C41.2857 36.655 40.2281 35.6129 38.9286 35.6129H34.2143C32.9147 35.6129 31.8571 36.655 31.8571 37.9355C31.8571 38.208 31.9137 38.4666 32.0017 38.7097H5.92857C4.629 38.7097 3.57143 37.6676 3.57143 36.3871V13.1613C3.57143 11.8808 4.629 10.8387 5.92857 10.8387H9.85714V12.3871H6.71429C5.84764 12.3871 5.14286 13.0815 5.14286 13.9355V32.5161C5.14286 33.3701 5.84764 34.0645 6.71429 34.0645H41.2857C42.1524 34.0645 42.8571 33.3701 42.8571 32.5161V13.9355C42.8571 13.0815 42.1524 12.3871 41.2857 12.3871H38.1429V10.8387H42.0714C43.371 10.8387 44.4286 11.8808 44.4286 13.1613V36.3871Z" fill="#44545F"/>
<path d="M30 27.8571C29.6327 27.8571 29.3333 27.5044 29.3333 27.0714H28C28 28.0944 28.5593 28.9587 29.3333 29.284V31H30.6667V29.4286H32V27.0714C32 25.7719 31.1027 24.7143 30 24.7143C29.6327 24.7143 29.3333 24.3615 29.3333 23.9286V23.1429H30C30.3673 23.1429 30.6667 23.4956 30.6667 23.9286H32C32 22.9056 31.4407 22.0413 30.6667 21.716V20H29.3333V21.5714H28V23.9286C28 25.2281 28.8973 26.2857 30 26.2857C30.3673 26.2857 30.6667 26.6385 30.6667 27.0714V27.8571H30Z" fill="#44545F"/>
<path d="M24.5 26C25.3284 26 26 25.7761 26 25.5C26 25.2239 25.3284 25 24.5 25C23.6716 25 23 25.2239 23 25.5C23 25.7761 23.6716 26 24.5 26Z" fill="#44545F"/>
<path d="M34.5 26C34.7761 26 35 25.7761 35 25.5C35 25.2239 34.7761 25 34.5 25C34.2239 25 34 25.2239 34 25.5C34 25.7761 34.2239 26 34.5 26Z" fill="#44545F"/>
<path d="M7 35H8V37H7V35Z" fill="#44545F"/>
<path d="M10 35H11V37H10V35Z" fill="#44545F"/>
<path d="M13 35H14V37H13V35Z" fill="#44545F"/>
<path d="M13 29H19V31H13V29Z" fill="#44545F"/>
<path d="M13 26H19V28H13V26Z" fill="#44545F"/>
<path d="M13 23H19V25H13V23Z" fill="#44545F"/>
<path d="M13 20H19V21H13V20Z" fill="#44545F"/>
<path d="M13 17H19V18H13V17Z" fill="#44545F"/>
<path d="M13 3H14V5H13V3Z" fill="#44545F"/>
<path d="M13 6H14V8H13V6Z" fill="#44545F"/>
</svg>
