<svg width="48" height="48" viewBox="0 0 48 48" fill="none" xmlns="http://www.w3.org/2000/svg">
<path d="M33.291 20.9033H44.1297V22.4517H33.291V20.9033Z" fill="#44545F"/>
<path d="M33.291 17.8066H44.1297V19.355H33.291V17.8066Z" fill="#44545F"/>
<path d="M16.2589 12.3875L15.4847 11.6133H13.9363L13.1621 12.3875L13.9363 13.1617L13.1621 20.1294L14.7105 21.6778L16.2589 20.1294L15.4847 13.1617L16.2589 12.3875Z" fill="#FFD200"/>
<path d="M11.6134 28.6455H0.774666L0.27832 29.2409L4.32885 32.6155C4.85241 33.0506 5.51433 33.2907 6.19402 33.2907C6.87371 33.2907 7.53563 33.0506 8.05919 32.6155L12.109 29.2409L11.6134 28.6455Z" fill="#FFD200"/>
<path d="M32.5164 10.1273L29.535 7.74194H23.2261C22.3722 7.74194 21.6777 7.0475 21.6777 6.19355V1.54839C21.6777 0.69443 22.3722 0 23.2261 0H30.9681C31.822 0 32.5164 0.69443 32.5164 1.54839V10.1273Z" fill="#FFD200"/>
<path d="M21.068 11.8235L17.8065 11.0084V9.64642C18.7542 8.79549 19.3548 7.5654 19.3548 6.19355V4.64516C19.3548 2.08329 17.2715 0 14.7097 0C12.1478 0 10.0645 2.08329 10.0645 4.64516V6.19355C10.0645 7.56464 10.6652 8.79473 11.6129 9.64642V11.0084L8.35131 11.8242C6.62487 12.2555 5.41935 13.7994 5.41935 15.5791V27.871H0V37.1613H8.51613V48H20.9032V15.4839H19.3548V24H10.0645V15.4839H8.51613V27.871H6.96774V15.5791C6.96774 14.5116 7.69166 13.5847 8.72669 13.3254L13.1613 12.2174V10.5677C13.6467 10.7404 14.1661 10.8387 14.7097 10.8387C15.2533 10.8387 15.7727 10.7397 16.2581 10.5677V12.2174L20.6927 13.3254C21.7277 13.5847 22.4516 14.5116 22.4516 15.5791V28.6452H24V15.5791C24 13.7994 22.7945 12.2555 21.068 11.8235ZM1.54839 29.4194H10.8387V35.6129H1.54839V29.4194ZM10.0645 25.5484H19.3548V46.4516H15.4839V28.6452H13.9355V46.4516H10.0645V37.1613H12.3871V27.871H10.0645V25.5484ZM11.6129 6.19355V4.64516C11.6129 2.93725 13.0018 1.54839 14.7097 1.54839C16.4176 1.54839 17.8065 2.93725 17.8065 4.64516V6.19355C17.8065 7.90146 16.4176 9.29032 14.7097 9.29032C13.0018 9.29032 11.6129 7.90146 11.6129 6.19355Z" fill="#44545F"/>
<path d="M45.0676 11.8235L41.806 11.0084V9.64642C42.7537 8.79549 43.3544 7.5654 43.3544 6.19355V4.64516C43.3544 2.08329 41.2711 0 38.7093 0C36.1474 0 34.0641 2.08329 34.0641 4.64516V6.19355C34.0641 7.56464 34.6648 8.79473 35.6125 9.64642V11.0084L32.3509 11.8242C30.6245 12.2555 29.4189 13.7994 29.4189 15.5791V28.6452H30.9673V15.5791C30.9673 14.5116 31.6912 13.5847 32.7263 13.3254L37.1609 12.2174V10.5677C37.6463 10.7404 38.1657 10.8387 38.7093 10.8387C39.2529 10.8387 39.7723 10.7397 40.2577 10.5677V12.2174L44.6923 13.3254C45.7273 13.5847 46.4512 14.5116 46.4512 15.5791V28.6452H47.9996V15.5791C47.9996 13.7994 46.7941 12.2555 45.0676 11.8235ZM35.6125 6.19355V4.64516C35.6125 2.93725 37.0014 1.54839 38.7093 1.54839C40.4172 1.54839 41.806 2.93725 41.806 4.64516V6.19355C41.806 7.90146 40.4172 9.29032 38.7093 9.29032C37.0014 9.29032 35.6125 7.90146 35.6125 6.19355Z" fill="#44545F"/>
<path d="M43.3553 23.9995H34.065V15.4834H32.5166V47.9995H44.9037V15.4834H43.3553V23.9995ZM39.4843 46.4511V28.6447H37.936V46.4511H34.065V25.5479H43.3553V46.4511H39.4843Z" fill="#44545F"/>
<path d="M24.7744 3.09668H26.3228V4.64507H24.7744V3.09668Z" fill="#44545F"/>
<path d="M27.8711 3.09668H29.4195V4.64507H27.8711V3.09668Z" fill="#44545F"/>
</svg>
