<svg width="48" height="48" viewBox="0 0 48 48" fill="none" xmlns="http://www.w3.org/2000/svg">
<g clip-path="url(#clip0)">
<path d="M12.2905 17.0323C7.5951 17.0323 3.77441 13.2116 3.77441 8.51613C3.77441 3.82069 7.5951 0 12.2905 0C16.986 0 20.8067 3.82069 20.8067 8.51613C20.8067 13.2116 16.986 17.0323 12.2905 17.0323Z" fill="#FFD200"/>
<path d="M32.4193 29.4197C25.5896 29.4197 20.0322 23.8624 20.0322 17.0326C20.0322 10.2028 25.5896 4.64551 32.4193 4.64551C39.2491 4.64551 44.8064 10.2028 44.8064 17.0326C44.8064 23.8624 39.2491 29.4197 32.4193 29.4197Z" fill="#FFD200"/>
<path d="M12.2904 10.8386C11.8639 10.8386 11.5162 10.4908 11.5162 10.0644H9.96777C9.96777 11.0722 10.6172 11.9239 11.5162 12.2445V13.9354H13.0645V12.2445C13.9635 11.9239 14.6129 11.0722 14.6129 10.0644C14.6129 8.78405 13.5707 7.74184 12.2904 7.74184C11.8639 7.74184 11.5162 7.39406 11.5162 6.96765C11.5162 6.54124 11.8639 6.19345 12.2904 6.19345C12.7168 6.19345 13.0645 6.54124 13.0645 6.96765H14.6129C14.6129 5.95984 13.9635 5.10815 13.0645 4.78758V3.09668H11.5162V4.78758C10.6172 5.10815 9.96777 5.95984 9.96777 6.96765C9.96777 8.24802 11.01 9.29023 12.2904 9.29023C12.7168 9.29023 13.0645 9.63801 13.0645 10.0644C13.0645 10.4908 12.7168 10.8386 12.2904 10.8386Z" fill="#44545F"/>
<path d="M32.4192 26.3228C37.5422 26.3228 41.7096 22.1555 41.7096 17.0325C41.7096 11.9095 37.5422 7.74219 32.4192 7.74219C27.2962 7.74219 23.1289 11.9095 23.1289 17.0325C23.1289 22.1555 27.2962 26.3228 32.4192 26.3228ZM32.4192 9.29057C36.6883 9.29057 40.1612 12.7635 40.1612 17.0325C40.1612 21.3015 36.6883 24.7744 32.4192 24.7744C28.1502 24.7744 24.6773 21.3015 24.6773 17.0325C24.6773 12.7635 28.1502 9.29057 32.4192 9.29057Z" fill="#44545F"/>
<path d="M28.04 20.2783L35.7041 12.6143L36.7992 13.709L29.1352 21.3731L28.04 20.2783Z" fill="#44545F"/>
<path d="M33.5137 19.185L34.6084 18.0898L35.7036 19.1846L34.6088 20.2797L33.5137 19.185Z" fill="#44545F"/>
<path d="M29.1348 14.8031L30.2295 13.708L31.3243 14.8031L30.2295 15.8979L29.1348 14.8031Z" fill="#44545F"/>
<path d="M4.54839 20.1286H3V26.3221H4.54839V29.4189H3V35.6124H4.54839V40.2576H21.5806V34.064H20.0323V30.9673H21.5806V24.7737H20.0323V21.6769H21.5806V15.4834H4.54839V20.1286ZM20.0323 38.7092H6.09677V35.6124H7.64516V37.1608H9.19355V35.6124H10.7419V37.1608H12.2903V35.6124H13.8387V37.1608H15.3871V35.6124H16.9355V37.1608H18.4839V35.6124H20.0323V38.7092ZM18.4839 34.064H4.54839V30.9673H6.09677V32.5157H7.64516V30.9673H9.19355V32.5157H10.7419V30.9673H12.2903V32.5157H13.8387V30.9673H15.3871V32.5157H16.9355V30.9673H18.4839V34.064ZM20.0323 29.4189H6.09677V26.3221H7.64516V27.8705H9.19355V26.3221H10.7419V27.8705H12.2903V26.3221H13.8387V27.8705H15.3871V26.3221H16.9355V27.8705H18.4839V26.3221H20.0323V29.4189ZM18.4839 24.7737H4.54839V21.6769H6.09677V23.2253H7.64516V21.6769H9.19355V23.2253H10.7419V21.6769H12.2903V23.2253H13.8387V21.6769H15.3871V23.2253H16.9355V21.6769H18.4839V24.7737ZM6.09677 17.0318H7.64516V18.5802H9.19355V17.0318H10.7419V18.5802H12.2903V17.0318H13.8387V18.5802H15.3871V17.0318H16.9355V18.5802H18.4839V17.0318H20.0323V20.1286H6.09677V17.0318Z" fill="#44545F"/>
<path d="M40.1612 27.8711H23.1289V34.0646H24.6773V37.1614H23.1289V43.355H24.6773V48.0001H41.7096V41.8066H40.1612V38.7098H41.7096V32.5163H40.1612V27.8711ZM24.6773 29.4195H26.2257V30.9679H27.7741V29.4195H29.3225V30.9679H30.8708V29.4195H32.4192V30.9679H33.9676V29.4195H35.516V30.9679H37.0644V29.4195H38.6128V32.5163H24.6773V29.4195ZM40.1612 46.4517H26.2257V43.355H27.7741V44.9034H29.3225V43.355H30.8708V44.9034H32.4192V43.355H33.9676V44.9034H35.516V43.355H37.0644V44.9034H38.6128V43.355H40.1612V46.4517ZM38.6128 41.8066H24.6773V38.7098H26.2257V40.2582H27.7741V38.7098H29.3225V40.2582H30.8708V38.7098H32.4192V40.2582H33.9676V38.7098H35.516V40.2582H37.0644V38.7098H38.6128V41.8066ZM40.1612 37.1614H26.2257V34.0646H27.7741V35.613H29.3225V34.0646H30.8708V35.613H32.4192V34.0646H33.9676V35.613H35.516V34.0646H37.0644V35.613H38.6128V34.0646H40.1612V37.1614Z" fill="#44545F"/>
</g>
<defs>
<clipPath id="clip0">
<rect width="48" height="48" fill="white"/>
</clipPath>
</defs>
</svg>
