<svg width="48" height="48" viewBox="0 0 48 48" fill="none" xmlns="http://www.w3.org/2000/svg">
<path d="M43.9244 30.2743C44.9348 29.4068 45.5769 28.1407 45.5769 26.7273C45.5769 24.1202 43.4034 22 40.7308 22C38.0581 22 35.8846 24.1202 35.8846 26.7273C35.8846 28.4945 36.8853 30.0364 38.3618 30.8471C36.761 31.8493 35.6383 33.5401 35.4719 35.4948L35.1472 39.3333H29.8269C28.2681 39.3333 27 40.5703 27 42.0909C27 43.6115 28.2681 44.8485 29.8269 44.8485H34.2692V48H48V35.9982C48 33.3793 46.3006 31.1457 43.9244 30.2743V30.2743ZM40.7308 23.5758C42.5125 23.5758 43.9615 24.9892 43.9615 26.7273C43.9615 28.4653 42.5125 29.8788 40.7308 29.8788C38.949 29.8788 37.5 28.4653 37.5 26.7273C37.5 24.9892 38.949 23.5758 40.7308 23.5758ZM46.3846 46.4242H35.8846V44.8485H36.8853C38.5516 44.8485 39.9667 43.5792 40.1048 41.9585L40.7275 34.6715L39.1186 34.5407L38.4959 41.8278C38.4264 42.6377 37.7189 43.2727 36.8853 43.2727H29.8269C29.159 43.2727 28.6154 42.7425 28.6154 42.0909C28.6154 41.4393 29.159 40.9091 29.8269 40.9091H35.1472C35.988 40.9091 36.6794 40.293 36.7569 39.4696L37.0816 35.6248C37.2811 33.2864 39.3205 31.4545 41.725 31.4545C44.2943 31.4545 46.3846 33.4928 46.3846 35.9982V46.4242Z" fill="#44545F"/>
<path d="M17.3077 39.3333L12.2415 39.3404L11.9308 35.494C11.7723 33.5401 10.7038 31.8493 9.17923 30.8471C10.5854 30.0364 11.5385 28.4945 11.5385 26.7273C11.5385 24.1202 9.46846 22 6.92308 22C4.37769 22 2.30769 24.1202 2.30769 26.7273C2.30769 28.1407 2.91923 29.4068 3.88154 30.2743C1.61846 31.1457 0 33.3793 0 35.9982V48H13.0769V44.8485H17.3077C18.7923 44.8485 20 43.6115 20 42.0909C20 40.5703 18.7923 39.3333 17.3077 39.3333ZM6.92308 23.5758C8.62 23.5758 10 24.9892 10 26.7273C10 28.4653 8.62 29.8788 6.92308 29.8788C5.22615 29.8788 3.84615 28.4653 3.84615 26.7273C3.84615 24.9892 5.22615 23.5758 6.92308 23.5758ZM17.3077 43.2727H10.5854C9.79154 43.2727 9.11769 42.6377 9.05154 41.8278L8.45846 34.5407L6.92615 34.6715L7.51923 41.9585C7.65 43.5792 8.99769 44.8485 10.5854 44.8485H11.5385V46.4242H1.53846V35.9982C1.53846 33.4928 3.52923 31.4545 5.97615 31.4545C8.26692 31.4545 10.2092 33.2864 10.3977 35.624L10.7085 39.4767C10.7815 40.293 11.44 40.9091 12.2408 40.9091H17.3077C17.9438 40.9091 18.4615 41.4393 18.4615 42.0909C18.4615 42.7425 17.9438 43.2727 17.3077 43.2727V43.2727Z" fill="#44545F"/>
<path d="M37.5 20C35.5074 20 33.5617 19.4585 31.8728 18.4338L32.7403 17.1354C34.1699 18.0031 35.816 18.4615 37.5 18.4615C42.3987 18.4615 46.3846 14.6654 46.3846 10C46.3846 5.33462 42.3987 1.53846 37.5 1.53846C32.6013 1.53846 28.6154 5.33462 28.6154 10C28.6154 11.6038 29.0968 13.1715 30.0078 14.5331L28.6445 15.3592C27.5686 13.7508 27 11.8977 27 10C27 4.48615 31.7105 0 37.5 0C43.2895 0 48 4.48615 48 10C48 15.5138 43.2895 20 37.5 20V20Z" fill="#44545F"/>
<path d="M10 20C4.48615 20 0 15.5138 0 10C0 4.48615 4.48615 0 10 0C15.5138 0 20 4.48615 20 10C20 11.8977 19.4585 13.7508 18.4338 15.3592L17.1354 14.5331C18.0031 13.1715 18.4615 11.6038 18.4615 10C18.4615 5.33462 14.6654 1.53846 10 1.53846C5.33462 1.53846 1.53846 5.33462 1.53846 10C1.53846 14.6654 5.33462 18.4615 10 18.4615C11.6038 18.4615 13.1715 18.0031 14.5331 17.1354L15.3592 18.4338C13.7508 19.4585 11.8977 20 10 20V20Z" fill="#44545F"/>
<path d="M37.5 9.22222C36.5349 9.22222 35.75 8.52456 35.75 7.66667V6.11111H37.5C38.4651 6.11111 39.25 6.80878 39.25 7.66667H41C41 6.22078 39.8809 5.01367 38.375 4.666V3H36.625V4.55556H34V7.66667C34 9.38244 35.5697 10.7778 37.5 10.7778C38.4651 10.7778 39.25 11.4754 39.25 12.3333V13.8889H37.5C36.5349 13.8889 35.75 13.1912 35.75 12.3333H34C34 13.7792 35.1191 14.9863 36.625 15.334V17H38.375V15.4444H41V12.3333C41 10.6176 39.4303 9.22222 37.5 9.22222Z" fill="#44545F"/>
<path d="M6 9H13V10H6V9Z" fill="#44545F"/>
<path d="M6 9H7V10H6V9Z" fill="#44545F"/>
<path d="M9 9H10V10H9V9Z" fill="#44545F"/>
<path d="M12 9H13V10H12V9Z" fill="#44545F"/>
<path d="M12.3333 15L8.26089 12.9252H5.33333C4.04689 12.9252 3 11.8585 3 10.5476V7.37756C3 6.06673 4.04689 5 5.33333 5H14.6667C15.9531 5 17 6.06673 17 7.37756V10.5476C17 11.8585 15.9531 12.9252 14.6667 12.9252H12.3333V15ZM5.33333 6.58504C4.904 6.58504 4.55556 6.94009 4.55556 7.37756V10.5476C4.55556 10.9851 4.904 11.3401 5.33333 11.3401H8.628L10.7778 12.4354V11.3401H14.6667C15.096 11.3401 15.4444 10.9851 15.4444 10.5476V7.37756C15.4444 6.94009 15.096 6.58504 14.6667 6.58504H5.33333Z" fill="#44545F"/>
<path d="M23.5 35C17.1589 35 12 30.0654 12 24C12 17.9346 17.1589 13 23.5 13C29.8411 13 35 17.9346 35 24C35 30.0654 29.8411 35 23.5 35Z" fill="#FFD200"/>
<path d="M28.4444 28.375V17H23.7778V20.25H20.6667V23.5H17.5556V28.375H16V30H30V28.375H28.4444ZM26.8889 18.625V28.375H25.3333V18.625H26.8889ZM23.7778 21.875V28.375H22.2222V21.875H23.7778ZM19.1111 25.125H20.6667V28.375H19.1111V25.125Z" fill="#44545F"/>
</svg>
