<svg width="48" height="48" viewBox="0 0 48 48" fill="none" xmlns="http://www.w3.org/2000/svg">
<path d="M9.29004 0.774414H17.032V3.87119H9.29004V0.774414Z" fill="#FFD200"/>
<path d="M9.29004 13.1611H17.032V16.2579H9.29004V13.1611Z" fill="#FFD200"/>
<path d="M32.5156 30.1934H40.2576V33.2901H32.5156V30.1934Z" fill="#FFD200"/>
<path d="M37.1611 41.0322H44.9031V44.9032H37.1611V41.0322Z" fill="#FFD200"/>
<path d="M30.9678 0.774414H38.7097V3.87119H30.9678V0.774414Z" fill="#FFD200"/>
<path d="M30.9678 13.1611H38.7097V16.2579H30.9678V13.1611Z" fill="#FFD200"/>
<path d="M25 48H48V29H25V48ZM26.5333 30.5833H46.4667V46.4167H26.5333V30.5833Z" fill="#44545F"/>
<path d="M43 43H45V45H43V43Z" fill="#44545F"/>
<path d="M40 43H42V45H40V43Z" fill="#44545F"/>
<path d="M37 43H39V45H37V43Z" fill="#44545F"/>
<path d="M46.4516 15.4839H44.9032V0H24.7742V15.4839H23.2258V0H3.09677V15.4839H1.54839C0.694452 15.4839 0 16.1783 0 17.0323V18.5806C0 19.4346 0.694452 20.129 1.54839 20.129H5.62297C5.49445 20.6253 5.41935 21.1417 5.41935 21.6774C5.41935 23.8297 6.52413 25.7272 8.19484 26.8374C3.45445 28.3006 0 32.7213 0 37.9355C0 39.5187 0.957677 40.879 2.32258 41.4782V48H23.2258V37.9355C23.2258 32.7213 19.7714 28.3006 15.031 26.8374C16.7017 25.7272 17.8065 23.8297 17.8065 21.6774C17.8065 21.1417 17.7314 20.6253 17.6028 20.129H46.4516C47.3055 20.129 48 19.4346 48 18.5806V17.0323C48 16.1783 47.3055 15.4839 46.4516 15.4839ZM26.3226 1.54839H43.3548V15.4839H26.3226V1.54839ZM4.64516 1.54839H21.6774V15.4839H4.64516V1.54839ZM1.54839 18.5806V17.0323H7.52981C7.02658 17.4751 6.59613 17.9977 6.25703 18.5806H1.54839ZM3.87097 41.8065H6.96774V46.4516H3.87097V41.8065ZM11.2258 36.3871H8.51613V32.5161H13.9355V36.3871H17.8065V46.4516H8.51613V41.8065H11.2258C12.72 41.8065 13.9355 40.591 13.9355 39.0968C13.9355 37.6026 12.72 36.3871 11.2258 36.3871ZM15.4839 33.6108L16.7117 34.8387H15.4839V33.6108ZM21.6774 37.9355V46.4516H19.3548V35.2924L15.0302 30.9677H6.96774V36.3871H4.64516V37.9355H11.2258C11.8661 37.9355 12.3871 38.4565 12.3871 39.0968C12.3871 39.737 11.8661 40.2581 11.2258 40.2581H3.87097C2.59045 40.2581 1.54839 39.216 1.54839 37.9355C1.54839 32.3861 6.06348 27.871 11.6129 27.871C17.1623 27.871 21.6774 32.3861 21.6774 37.9355ZM11.6129 26.3226C9.0511 26.3226 6.96774 24.2392 6.96774 21.6774C6.96774 19.1156 9.0511 17.0323 11.6129 17.0323C14.1747 17.0323 16.2581 19.1156 16.2581 21.6774C16.2581 24.2392 14.1747 26.3226 11.6129 26.3226ZM46.4516 18.5806H16.9688C16.6305 17.9977 16.1992 17.4751 15.696 17.0323H46.4516V18.5806Z" fill="#44545F"/>
<path d="M37 40H45V42H37V40Z" fill="#44545F"/>
</svg>
