<svg width="48" height="48" viewBox="0 0 48 48" fill="none" xmlns="http://www.w3.org/2000/svg">
<path d="M35.6134 30.1934H32.5166V34.8385H37.1618H37.936H38.7101V30.1934H35.6134Z" fill="#FFD200"/>
<path d="M32.5166 20.9033V25.5485H35.6134H38.7101V20.9033H32.5166Z" fill="#FFD200"/>
<path d="M17.8064 35.6136H3.87087C3.44352 35.6136 3.09668 35.2667 3.09668 34.8394V27.0974C3.09668 26.6701 3.44352 26.3232 3.87087 26.3232H17.8064C18.2337 26.3232 18.5806 26.6701 18.5806 27.0974V34.8394C18.5806 35.2667 18.2337 35.6136 17.8064 35.6136Z" fill="#FFD200"/>
<path d="M39.4842 39.4839C39.9117 39.4839 40.2583 39.1373 40.2583 38.7097C40.2583 38.2822 39.9117 37.9355 39.4842 37.9355C39.0566 37.9355 38.71 38.2822 38.71 38.7097C38.71 39.1373 39.0566 39.4839 39.4842 39.4839Z" fill="#44545F"/>
<path d="M38.6895 6.19355H48V1.54839H38.6895C37.9827 0.613935 36.8725 0 35.6129 0C34.3533 0 33.2431 0.613935 32.5363 1.54839H13.793C13.4725 0.649548 12.6209 0 11.6129 0H10.0645C8.784 0 7.74194 1.04206 7.74194 2.32258V14.0779C6.8431 14.3985 6.19355 15.2501 6.19355 16.2581V23.2258H2.32258C1.04206 23.2258 0 24.2679 0 25.5484V45.6774C0 46.9579 1.04206 48 2.32258 48H18.5806H19.3548H44.9032V43.2766C46.6676 42.9166 48 41.3535 48 39.4839V37.9355C48 36.0108 46.584 34.4222 44.7414 34.1265C44.8421 33.8663 44.9032 33.5861 44.9032 33.2903V22.4516C44.9032 21.1711 43.8612 20.129 42.5806 20.129H28.6452C27.3646 20.129 26.3226 21.1711 26.3226 22.4516V33.2903C26.3226 33.5628 26.3783 33.8214 26.465 34.0645H21.6774V25.5484C21.6774 24.2679 20.6354 23.2258 19.3548 23.2258H15.4839V16.2581C15.4839 15.2501 14.8343 14.3985 13.9355 14.0779V6.19355H32.5363C33.0945 6.93135 33.9004 7.47252 34.8387 7.66374V10.0645H32.9698L29.2514 13.783L31.8232 18.9275L33.2083 18.2346L31.135 14.0888L33.6108 11.6129H34.8387V18.5806H36.3871V11.6129H37.615L40.0901 14.088L38.0168 18.2338L39.4018 18.9267L41.9737 13.7822L38.256 10.0645H36.3871V7.66374C37.3262 7.47252 38.1314 6.93135 38.6895 6.19355ZM46.4516 3.09677V4.64516H39.4057C39.4568 4.3951 39.4839 4.13574 39.4839 3.87097C39.4839 3.60619 39.4568 3.34684 39.4057 3.09677H46.4516ZM10.0645 1.54839H11.6129C12.0395 1.54839 12.3871 1.896 12.3871 2.32258V13.9355H9.29032V2.32258C9.29032 1.896 9.63794 1.54839 10.0645 1.54839ZM21.535 46.4516C21.6217 46.2085 21.6774 45.9499 21.6774 45.6774V43.3548H43.3548V46.4516H21.535ZM39.4839 41.0323C38.2034 41.0323 37.1613 39.9902 37.1613 38.7097C37.1613 37.4292 38.2034 36.3871 39.4839 36.3871C40.7644 36.3871 41.8065 37.4292 41.8065 38.7097C41.8065 39.9902 40.7644 41.0323 39.4839 41.0323ZM35.6129 38.7097C35.6129 39.9801 36.2369 41.1004 37.1853 41.8065H34.0405C34.9889 41.1004 35.6129 39.9801 35.6129 38.7097C35.6129 37.4392 34.9889 36.319 34.0405 35.6129H37.1853C36.2369 36.319 35.6129 37.4392 35.6129 38.7097ZM31.7419 36.3871C33.0225 36.3871 34.0645 37.4292 34.0645 38.7097C34.0645 39.9902 33.0225 41.0323 31.7419 41.0323C30.4614 41.0323 29.4194 39.9902 29.4194 38.7097C29.4194 37.4292 30.4614 36.3871 31.7419 36.3871ZM27.871 38.7097C27.871 39.9801 28.495 41.1004 29.4434 41.8065H23.2018C24.1502 41.1004 24.7742 39.9801 24.7742 38.7097C24.7742 37.4392 24.1502 36.319 23.2018 35.6129H28.6452H29.4434C28.495 36.319 27.871 37.4392 27.871 38.7097ZM23.2258 38.7097C23.2258 39.7177 22.5763 40.5693 21.6774 40.8898V36.5303C22.5763 36.8501 23.2258 37.7017 23.2258 38.7097ZM46.4516 37.9355V39.4839C46.4516 40.7644 45.4095 41.8065 44.129 41.8065H41.7825C42.7308 41.1004 43.3548 39.9801 43.3548 38.7097C43.3548 37.4392 42.7308 36.319 41.7825 35.6129H42.5806H44.129C45.4095 35.6129 46.4516 36.655 46.4516 37.9355ZM27.871 33.2903V22.4516C27.871 22.025 28.2186 21.6774 28.6452 21.6774H42.5806C43.0072 21.6774 43.3548 22.025 43.3548 22.4516V33.2903C43.3548 33.7177 43.0072 34.0645 42.5806 34.0645H28.6452C28.2186 34.0645 27.871 33.7177 27.871 33.2903ZM20.129 25.5484V45.6774C20.129 46.1048 19.7814 46.4516 19.3548 46.4516H18.5806H2.32258C1.896 46.4516 1.54839 46.1048 1.54839 45.6774V25.5484C1.54839 25.121 1.896 24.7742 2.32258 24.7742H19.3548C19.7814 24.7742 20.129 25.121 20.129 25.5484ZM7.74194 23.2258V21.6774H12.3871V20.129H7.74194V16.2581C7.74194 15.8315 8.08955 15.4839 8.51613 15.4839H13.1613C13.5879 15.4839 13.9355 15.8315 13.9355 16.2581V17.0323H9.29032V18.5806H13.9355V23.2258H7.74194ZM13.9355 4.64516V3.09677H31.8201C31.769 3.34684 31.7419 3.60619 31.7419 3.87097C31.7419 4.13574 31.769 4.3951 31.8201 4.64516H13.9355ZM33.2903 3.87097C33.2903 2.59045 34.3324 1.54839 35.6129 1.54839C36.8934 1.54839 37.9355 2.59045 37.9355 3.87097C37.9355 5.15148 36.8934 6.19355 35.6129 6.19355C34.3324 6.19355 33.2903 5.15148 33.2903 3.87097Z" fill="#44545F"/>
<path d="M35.6131 4.64507C36.0406 4.64507 36.3873 4.29845 36.3873 3.87087C36.3873 3.4433 36.0406 3.09668 35.6131 3.09668C35.1855 3.09668 34.8389 3.4433 34.8389 3.87087C34.8389 4.29845 35.1855 4.64507 35.6131 4.64507Z" fill="#44545F"/>
<path d="M31.742 39.4839C32.1695 39.4839 32.5162 39.1373 32.5162 38.7097C32.5162 38.2822 32.1695 37.9355 31.742 37.9355C31.3144 37.9355 30.9678 38.2822 30.9678 38.7097C30.9678 39.1373 31.3144 39.4839 31.742 39.4839Z" fill="#44545F"/>
<path d="M7.7425 41.8063C9.02302 41.8063 10.0651 40.7642 10.0651 39.4837C10.0651 38.2032 9.02302 37.1611 7.7425 37.1611C6.46199 37.1611 5.41992 38.2032 5.41992 39.4837C5.41992 40.7642 6.46199 41.8063 7.7425 41.8063ZM7.7425 38.7095C8.16908 38.7095 8.5167 39.0564 8.5167 39.4837C8.5167 39.9111 8.16908 40.2579 7.7425 40.2579C7.31592 40.2579 6.96831 39.9111 6.96831 39.4837C6.96831 39.0564 7.31592 38.7095 7.7425 38.7095Z" fill="#44545F"/>
<path d="M13.9359 41.8063C15.2164 41.8063 16.2584 40.7642 16.2584 39.4837C16.2584 38.2032 15.2164 37.1611 13.9359 37.1611C12.6553 37.1611 11.6133 38.2032 11.6133 39.4837C11.6133 40.7642 12.6553 41.8063 13.9359 41.8063ZM13.9359 38.7095C14.3624 38.7095 14.7101 39.0564 14.7101 39.4837C14.7101 39.9111 14.3624 40.2579 13.9359 40.2579C13.5093 40.2579 13.1617 39.9111 13.1617 39.4837C13.1617 39.0564 13.5093 38.7095 13.9359 38.7095Z" fill="#44545F"/>
<path d="M5.41948 43.3545H3.87109V44.9029H5.41948V43.3545Z" fill="#44545F"/>
<path d="M8.51616 43.3545H6.96777V44.9029H8.51616V43.3545Z" fill="#44545F"/>
<path d="M11.6128 43.3545H10.0645V44.9029H11.6128V43.3545Z" fill="#44545F"/>
<path d="M14.7095 43.3545H13.1611V44.9029H14.7095V43.3545Z" fill="#44545F"/>
<path d="M17.8062 43.3545H16.2578V44.9029H17.8062V43.3545Z" fill="#44545F"/>
</svg>
