<svg width="48" height="48" viewBox="0 0 48 48" fill="none" xmlns="http://www.w3.org/2000/svg">
<path d="M19.4244 47.1098H13.2461V40.1592H19.4244V47.1098Z" fill="#FFD200"/>
<path d="M11.7017 47.1098H5.52344V40.1592H11.7017V47.1098Z" fill="#FFD200"/>
<path d="M27.148 47.1098H20.9697V40.1592H27.148V47.1098Z" fill="#FFD200"/>
<path d="M5.52344 33.9805H25.6029V38.6142H5.52344V33.9805Z" fill="#FFD200"/>
<path d="M25.6025 13.9014V18.5351H28.6917V21.6242H31.7808V37.07H33.3254V13.9014H25.6025Z" fill="#FFD200"/>
<path d="M37.96 23.9414H45.6828V28.5751H37.96V23.9414Z" fill="#FFD200"/>
<path d="M37.96 35.5254H45.6828V40.1591H37.96V35.5254Z" fill="#FFD200"/>
<path d="M36.4156 12.8955V10.812H34.871V7.72288H31.7818V2.31686H30.2373V7.72288H28.6927V0H27.1481V7.72288H25.6035V2.31686H24.0589V7.72288H20.9698V10.812H19.4252V21.6241H6.46565L5.69336 24.7132H0L3.08915 46.3373H0.11803V47.8818H47.9999V9.80632L36.4156 12.8955ZM46.4553 16.218H44.1384V12.4354L46.4553 11.8174V16.218ZM2.44281 30.8915L2.22184 29.3469H5.52404V30.8915H2.44281ZM7.06862 29.3469H10.1578V30.8915H7.06862V29.3469ZM28.6927 27.8024H25.6035V26.2578H28.6927V27.8024ZM24.0589 27.8024H20.9698V26.2578H24.0589V27.8024ZM19.4252 27.8024H16.3361V26.2578H19.4252V27.8024ZM14.7915 27.8024H11.7023V26.2578H14.7915V27.8024ZM10.1578 27.8024H7.06862V26.2578H10.1578V27.8024ZM11.7023 29.3469H14.7915V30.8915H11.7023V29.3469ZM16.3361 29.3469H19.4252V30.8915H16.3361V29.3469ZM20.9698 29.3469H24.0589V30.8915H20.9698V29.3469ZM25.6035 29.3469H28.6927V30.8915H25.6035V29.3469ZM26.9792 24.7132L26.2069 21.6241H24.0589V12.3566H34.871V46.3373H30.2373V24.7132H26.9792ZM36.4156 17.7626H38.7324V20.8518H36.4156V17.7626ZM40.277 17.7626H42.5939V20.8518H40.277V17.7626ZM40.277 16.218V13.4649L42.5939 12.8468V16.218H40.277ZM44.1384 17.7626H46.4553V20.8518H44.1384V17.7626ZM38.7324 13.8763V16.218H36.4156V14.4943L38.7324 13.8763ZM22.5144 9.26745H33.3264V10.812H22.5144V9.26745ZM20.9698 12.3566H22.5144V21.6241H20.9698V12.3566ZM7.67197 23.1686H25.0006L25.3867 24.7132H7.28583L7.67197 23.1686ZM5.52404 26.2578V27.8024H2.00161L1.78101 26.2578H5.52404ZM2.66379 32.4361H28.6927V46.3373H4.64919L2.66379 32.4361ZM36.4156 46.3373V22.3963H46.4553V46.3373H36.4156Z" fill="#44545F"/>
<path d="M5.52344 33.9814H7.06801V35.526H5.52344V33.9814Z" fill="#44545F"/>
<path d="M10.1582 33.9814H11.7028V35.526H10.1582V33.9814Z" fill="#44545F"/>
<path d="M14.792 33.9814H16.3366V35.526H14.792V33.9814Z" fill="#44545F"/>
<path d="M19.4258 33.9814H20.9704V35.526H19.4258V33.9814Z" fill="#44545F"/>
<path d="M24.0586 33.9814H25.6032V35.526H24.0586V33.9814Z" fill="#44545F"/>
<path d="M5.52344 37.0703H7.06801V38.6149H5.52344V37.0703Z" fill="#44545F"/>
<path d="M10.1582 37.0703H11.7028V38.6149H10.1582V37.0703Z" fill="#44545F"/>
<path d="M14.792 37.0703H16.3366V38.6149H14.792V37.0703Z" fill="#44545F"/>
<path d="M19.4258 37.0703H20.9704V38.6149H19.4258V37.0703Z" fill="#44545F"/>
<path d="M24.0586 37.0703H25.6032V38.6149H24.0586V37.0703Z" fill="#44545F"/>
<path d="M25.6035 13.9014H27.1481V15.4459H25.6035V13.9014Z" fill="#44545F"/>
<path d="M28.6924 13.9014H30.237V15.4459H28.6924V13.9014Z" fill="#44545F"/>
<path d="M31.7822 13.9014H33.3268V15.4459H31.7822V13.9014Z" fill="#44545F"/>
<path d="M25.6035 16.9912H27.1481V18.5358H25.6035V16.9912Z" fill="#44545F"/>
<path d="M28.6924 16.9912H30.237V18.5358H28.6924V16.9912Z" fill="#44545F"/>
<path d="M31.7822 16.9912H33.3268V18.5358H31.7822V16.9912Z" fill="#44545F"/>
<path d="M37.96 23.9414H39.5046V25.486H37.96V23.9414Z" fill="#44545F"/>
<path d="M41.0488 23.9414H42.5934V25.486H41.0488V23.9414Z" fill="#44545F"/>
<path d="M44.1387 23.9414H45.6832V25.486H44.1387V23.9414Z" fill="#44545F"/>
<path d="M37.96 27.0303H39.5046V28.5749H37.96V27.0303Z" fill="#44545F"/>
<path d="M41.0488 27.0303H42.5934V28.5749H41.0488V27.0303Z" fill="#44545F"/>
<path d="M44.1387 27.0303H45.6832V28.5749H44.1387V27.0303Z" fill="#44545F"/>
<path d="M37.96 35.5254H39.5046V37.07H37.96V35.5254Z" fill="#44545F"/>
<path d="M41.0488 35.5254H42.5934V37.07H41.0488V35.5254Z" fill="#44545F"/>
<path d="M44.1387 35.5254H45.6832V37.07H44.1387V35.5254Z" fill="#44545F"/>
<path d="M37.96 38.6143H39.5046V40.1588H37.96V38.6143Z" fill="#44545F"/>
<path d="M41.0488 38.6143H42.5934V40.1588H41.0488V38.6143Z" fill="#44545F"/>
<path d="M44.1387 38.6143H45.6832V40.1588H44.1387V38.6143Z" fill="#44545F"/>
<path d="M28.6924 20.0791H30.237V21.6237H28.6924V20.0791Z" fill="#44545F"/>
<path d="M31.7822 20.0791H33.3268V21.6237H31.7822V20.0791Z" fill="#44545F"/>
<path d="M31.7822 23.1689H33.3268V24.7135H31.7822V23.1689Z" fill="#44545F"/>
<path d="M31.7822 26.2578H33.3268V27.8024H31.7822V26.2578Z" fill="#44545F"/>
<path d="M31.7822 29.3477H33.3268V30.8922H31.7822V29.3477Z" fill="#44545F"/>
<path d="M31.7822 32.4355H33.3268V33.9801H31.7822V32.4355Z" fill="#44545F"/>
<path d="M31.7822 35.5254H33.3268V37.07H31.7822V35.5254Z" fill="#44545F"/>
<path d="M5.52344 41.7041H11.7017V43.2487H5.52344V41.7041Z" fill="#44545F"/>
<path d="M13.2471 41.7041H19.4254V43.2487H13.2471V41.7041Z" fill="#44545F"/>
<path d="M20.9697 41.7041H27.148V43.2487H20.9697V41.7041Z" fill="#44545F"/>
</svg>
