<svg width="48" height="48" viewBox="0 0 48 48" fill="none" xmlns="http://www.w3.org/2000/svg">
<g clip-path="url(#clip0)">
<path d="M8.54883 14.71V48.0003H39.5166V14.71H8.54883ZM35.6456 43.3551C35.6456 43.7823 35.2986 44.1293 34.8714 44.1293H13.194C12.7668 44.1293 12.4198 43.7823 12.4198 43.3551V30.968C12.4198 30.5409 12.7668 30.1938 13.194 30.1938H34.8714C35.2986 30.1938 35.6456 30.5409 35.6456 30.968V43.3551ZM35.6456 27.0971H12.4198V17.8067H35.6456V27.0971Z" fill="#FFD200"/>
<path d="M39.5161 9.29032H32.1465L26.3238 2.01147C26.17 0.878528 25.2068 0 24.0323 0C22.8577 0 21.8945 0.878528 21.7414 2.01147L15.918 9.29032H8.54839C7.69443 9.29032 7 9.98475 7 10.8387V13.9355C7 14.7894 7.69443 15.4839 8.54839 15.4839H11.6452V13.9355H8.54839V10.8387H39.5161V13.9355H13.1935V15.4839H39.5161C40.3701 15.4839 41.0645 14.7894 41.0645 13.9355V10.8387C41.0645 9.98475 40.3701 9.29032 39.5161 9.29032ZM24.0323 1.54839C24.4594 1.54839 24.8065 1.89617 24.8065 2.32258C24.8065 2.74899 24.4594 3.09677 24.0323 3.09677C23.6051 3.09677 23.2581 2.74899 23.2581 2.32258C23.2581 1.89617 23.6051 1.54839 24.0323 1.54839ZM22.2748 3.82371C22.7005 4.32233 23.3261 4.64516 24.0323 4.64516C24.7384 4.64516 25.364 4.32233 25.7897 3.82371L30.1631 9.29032H17.9015L22.2748 3.82371Z" fill="#44545F"/>
<path d="M34.8713 29.4189H13.1939C12.3399 29.4189 11.6455 30.1134 11.6455 30.9673V43.3544C11.6455 44.2084 12.3399 44.9028 13.1939 44.9028H34.8713C35.7253 44.9028 36.4197 44.2084 36.4197 43.3544V30.9673C36.4197 30.1134 35.7253 29.4189 34.8713 29.4189ZM34.8713 34.0641H31.7745V30.9673H34.8713V34.0641ZM17.8391 35.6125H20.9358V38.7093H17.8391V35.6125ZM16.2907 38.7093H13.1939V35.6125H16.2907V38.7093ZM25.581 34.0641H22.4842V30.9673H25.581V34.0641ZM27.1294 30.9673H30.2262V34.0641H27.1294V30.9673ZM25.581 35.6125V38.7093H22.4842V35.6125H25.581ZM20.9358 34.0641H17.8391V30.9673H20.9358V34.0641ZM20.9358 40.2577V43.3544H17.8391V40.2577H20.9358ZM22.4842 40.2577H25.581V43.3544H22.4842V40.2577ZM27.1294 40.2577H30.2262V43.3544H27.1294V40.2577ZM27.1294 38.7093V35.6125H30.2262V38.7093H27.1294ZM31.7745 35.6125H34.8713V38.7093H31.7745V35.6125ZM16.2907 30.9673V34.0641H13.1939V30.9673H16.2907ZM13.1939 40.2577H16.2907V43.3544H13.1939V40.2577ZM31.7745 43.3544V40.2577H34.8721V43.3544H31.7745Z" fill="#44545F"/>
<path d="M11.6455 27.8709H36.4197V17.0322H11.6455V27.8709ZM22.4842 26.3226H13.9681L16.9874 22.2973C17.2777 21.9087 17.7415 21.6774 18.2262 21.6774C18.7108 21.6774 19.1746 21.9087 19.4657 22.2966L22.4842 26.3226ZM22.1939 23.3543L22.3772 23.1097C22.9749 22.3121 24.295 22.2705 24.9429 23.0262L27.769 26.3226H24.4197L22.1939 23.3543ZM34.8713 18.5806V26.3226H29.8081L26.1197 22.018C25.5114 21.3096 24.628 20.9032 23.6935 20.9032C22.7413 20.9032 21.834 21.3398 21.2314 22.0713L20.7037 21.3678C20.1204 20.5928 19.1947 20.129 18.2262 20.129C17.2577 20.129 16.3319 20.5921 15.7486 21.3678L13.1939 24.7742V18.5806H34.8713Z" fill="#44545F"/>
</g>
<defs>
<clipPath id="clip0">
<rect width="48" height="48" fill="white"/>
</clipPath>
</defs>
</svg>
