<svg width="48" height="48" viewBox="0 0 48 48" fill="none" xmlns="http://www.w3.org/2000/svg">
<path d="M37.1608 30.9688H32.5156V44.13H37.1608V30.9688Z" fill="#FFD200"/>
<path d="M29.4196 34.0654H24.7744V44.13H29.4196V34.0654Z" fill="#FFD200"/>
<path d="M21.6774 30.9688H17.0322V44.13H21.6774V30.9688Z" fill="#FFD200"/>
<path d="M24.7741 23.2257H3.09668V3.09668H24.7741V23.2257Z" fill="#FFD200"/>
<path d="M41.8065 10.8387V0H0V44.129C0 46.2635 1.73652 48 3.87097 48H44.129C46.2635 48 48 46.2635 48 44.129V10.8387H41.8065ZM1.54839 44.129V1.54839H40.2581V10.8387V14.7097V44.129C40.2581 45.0039 40.5608 45.8028 41.0524 46.4516H3.87097C2.59045 46.4516 1.54839 45.4095 1.54839 44.129ZM46.4516 44.129C46.4516 45.4095 45.4095 46.4516 44.129 46.4516C42.8485 46.4516 41.8065 45.4095 41.8065 44.129V14.7097V12.3871H46.4516V44.129Z" fill="#44545F"/>
<path d="M13.9356 17.0321C13.0817 17.0321 12.3873 16.3376 12.3873 15.4837H10.8389C10.8389 16.9221 11.8291 18.1245 13.1614 18.4705V20.1288H14.7098V18.4705C16.0422 18.1245 17.0324 16.9221 17.0324 15.4837C17.0324 13.7758 15.6435 12.3869 13.9356 12.3869C13.0817 12.3869 12.3873 11.6925 12.3873 10.8385C12.3873 9.98459 13.0817 9.29013 13.9356 9.29013C14.7896 9.29013 15.484 9.98459 15.484 10.8385H17.0324C17.0324 9.40007 16.0422 8.19775 14.7098 7.85168V6.19336H13.1614V7.85168C11.8291 8.19775 10.8389 9.40007 10.8389 10.8385C10.8389 12.5464 12.2278 13.9353 13.9356 13.9353C14.7896 13.9353 15.484 14.6297 15.484 15.4837C15.484 16.3376 14.7896 17.0321 13.9356 17.0321Z" fill="#44545F"/>
<path d="M19.3548 29.4196C20.0485 29.4196 20.6647 29.1084 21.0905 28.6245L24.7835 30.1016C24.7819 30.1334 24.7742 30.162 24.7742 30.1938C24.7742 31.4743 25.8162 32.5164 27.0967 32.5164C28.3773 32.5164 29.4193 31.4743 29.4193 30.1938C29.4193 30.162 29.4116 30.1334 29.41 30.1024L33.1029 28.6253C33.5287 29.1084 34.145 29.4196 34.8387 29.4196C36.1192 29.4196 37.1613 28.3775 37.1613 27.097C37.1613 25.8165 36.1192 24.7744 34.8387 24.7744C33.5582 24.7744 32.5161 25.8165 32.5161 27.097C32.5161 27.1287 32.5238 27.1574 32.5254 27.1884L28.8325 28.6655C28.4067 28.1824 27.7904 27.8712 27.0967 27.8712C26.4031 27.8712 25.7868 28.1824 25.361 28.6663L21.6681 27.1891C21.6696 27.1574 21.6774 27.1287 21.6774 27.097C21.6774 25.8165 20.6353 24.7744 19.3548 24.7744C18.0743 24.7744 17.0322 25.8165 17.0322 27.097C17.0322 28.3775 18.0743 29.4196 19.3548 29.4196ZM34.8387 26.3228C35.266 26.3228 35.6129 26.6704 35.6129 27.097C35.6129 27.5236 35.266 27.8712 34.8387 27.8712C34.4113 27.8712 34.0645 27.5236 34.0645 27.097C34.0645 26.6704 34.4113 26.3228 34.8387 26.3228ZM27.0967 29.4196C27.5241 29.4196 27.8709 29.7672 27.8709 30.1938C27.8709 30.6204 27.5241 30.968 27.0967 30.968C26.6694 30.968 26.3225 30.6204 26.3225 30.1938C26.3225 29.7672 26.6694 29.4196 27.0967 29.4196ZM19.3548 26.3228C19.7822 26.3228 20.129 26.6704 20.129 27.097C20.129 27.5236 19.7822 27.8712 19.3548 27.8712C18.9275 27.8712 18.5806 27.5236 18.5806 27.097C18.5806 26.6704 18.9275 26.3228 19.3548 26.3228Z" fill="#44545F"/>
<path d="M38.7092 43.3555H15.4834V44.9039H38.7092V43.3555Z" fill="#44545F"/>
<path d="M38.7094 3.09668H26.3223V4.64507H38.7094V3.09668Z" fill="#44545F"/>
<path d="M38.7094 6.19336H26.3223V7.74175H38.7094V6.19336Z" fill="#44545F"/>
<path d="M38.7094 9.29102H26.3223V10.8394H38.7094V9.29102Z" fill="#44545F"/>
<path d="M38.7094 12.3877H26.3223V13.9361H38.7094V12.3877Z" fill="#44545F"/>
<path d="M35.6126 15.4844H26.3223V17.0328H35.6126V15.4844Z" fill="#44545F"/>
<path d="M38.7095 15.4844H37.1611V17.0328H38.7095V15.4844Z" fill="#44545F"/>
<path d="M15.4838 24.7744H3.09668V26.3228H15.4838V24.7744Z" fill="#44545F"/>
<path d="M15.4838 27.8721H3.09668V29.4205H15.4838V27.8721Z" fill="#44545F"/>
<path d="M15.4838 30.9688H3.09668V32.5171H15.4838V30.9688Z" fill="#44545F"/>
<path d="M15.4838 34.0654H3.09668V35.6138H15.4838V34.0654Z" fill="#44545F"/>
<path d="M15.4839 37.1621H13.9355V38.7105H15.4839V37.1621Z" fill="#44545F"/>
<path d="M12.387 37.1621H3.09668V38.7105H12.387V37.1621Z" fill="#44545F"/>
<path d="M20.1294 12.3877H18.5811V13.9361H20.1294V12.3877Z" fill="#44545F"/>
<path d="M9.29057 12.3877H7.74219V13.9361H9.29057V12.3877Z" fill="#44545F"/>
</svg>
