<svg width="48" height="48" viewBox="0 0 48 48" fill="none" xmlns="http://www.w3.org/2000/svg">
<path d="M27.8705 3.87109V6.96787H24.7737V9.29045H15.4834V28.6453H34.064V3.87109H27.8705Z" fill="#FFD200"/>
<path d="M38.7099 39.4843C38.7099 43.3326 35.5904 46.4521 31.7422 46.4521C27.8939 46.4521 24.7744 43.3326 24.7744 39.4843C24.7744 35.6361 27.8939 32.5166 31.7422 32.5166C35.5904 32.5166 38.7099 35.6361 38.7099 39.4843Z" fill="#FFD200"/>
<path d="M31.7415 41.8064C31.3144 41.8064 30.9673 41.4594 30.9673 41.0322H29.4189C29.4189 42.04 30.0684 42.8917 30.9673 43.2123V44.9032H32.5157V43.2123C33.4147 42.8917 34.0641 42.04 34.0641 41.0322C34.0641 39.7518 33.0219 38.7096 31.7415 38.7096C31.3144 38.7096 30.9673 38.3626 30.9673 37.9354C30.9673 37.5083 31.3144 37.1612 31.7415 37.1612C32.1687 37.1612 32.5157 37.5083 32.5157 37.9354H34.0641C34.0641 36.9276 33.4147 36.0759 32.5157 35.7554V34.0645H30.9673V35.7554C30.0684 36.0759 29.4189 36.9276 29.4189 37.9354C29.4189 39.2158 30.4612 40.258 31.7415 40.258C32.1687 40.258 32.5157 40.605 32.5157 41.0322C32.5157 41.4594 32.1687 41.8064 31.7415 41.8064Z" fill="#44545F"/>
<path d="M37.1613 30.9677V3.87097C37.1613 1.73664 35.4246 0 33.2903 0H10.0645C7.93019 0 6.19355 1.73664 6.19355 3.87097V13.9355H0V20.9032C0 23.0375 1.73664 24.7742 3.87097 24.7742H12.3871V41.8065H15.4839V48H48V30.9677H37.1613ZM46.4516 35.5347C44.9372 35.2258 43.7419 34.0305 43.4331 32.5161H46.4516V35.5347ZM1.54839 20.9032V15.4839H6.19355V20.9032C6.19355 22.1836 5.15134 23.2258 3.87097 23.2258C2.5906 23.2258 1.54839 22.1836 1.54839 20.9032ZM6.94771 23.2258C7.43914 22.5771 7.74194 21.778 7.74194 20.9032V3.87097C7.74194 2.5906 8.78415 1.54839 10.0645 1.54839C11.3449 1.54839 12.3871 2.5906 12.3871 3.87097V23.2258H6.94771ZM13.9355 40.2581V3.87097C13.9355 2.99622 13.6327 2.19708 13.1413 1.54839H33.2903C34.5707 1.54839 35.6129 2.5906 35.6129 3.87097V30.9677H15.4839V38.7097H17.0323V37.0993C19.4006 36.7579 21.2741 34.8844 21.6154 32.5161H41.8684C42.2098 34.8844 44.0833 36.7579 46.4516 37.0993V41.8684C44.0833 42.2098 42.2098 44.0833 41.8684 46.4516H21.6154C21.2741 44.0833 19.4006 42.2098 17.0323 41.8684V40.2581H13.9355ZM20.0508 32.5161C19.7419 34.0305 18.5466 35.2258 17.0323 35.5347V32.5161H20.0508ZM17.0323 43.4331C18.5466 43.7419 19.7419 44.9372 20.0508 46.4516H17.0323V43.4331ZM43.4331 46.4516C43.7419 44.9372 44.9372 43.7419 46.4516 43.4331V46.4516H43.4331Z" fill="#44545F"/>
<path d="M27.8711 3.09668H34.0646V4.64507H27.8711V3.09668Z" fill="#44545F"/>
<path d="M24.7744 6.19336H34.0647V7.74175H24.7744V6.19336Z" fill="#44545F"/>
<path d="M15.4834 9.29004H17.0318V10.8384H15.4834V9.29004Z" fill="#44545F"/>
<path d="M18.5811 9.29004H34.0649V10.8384H18.5811V9.29004Z" fill="#44545F"/>
<path d="M15.4834 12.3867H17.0318V13.9351H15.4834V12.3867Z" fill="#44545F"/>
<path d="M18.5811 12.3867H34.0649V13.9351H18.5811V12.3867Z" fill="#44545F"/>
<path d="M15.4834 15.4834H17.0318V17.0318H15.4834V15.4834Z" fill="#44545F"/>
<path d="M18.5811 15.4834H34.0649V17.0318H18.5811V15.4834Z" fill="#44545F"/>
<path d="M15.4834 18.5811H17.0318V20.1294H15.4834V18.5811Z" fill="#44545F"/>
<path d="M18.5811 18.5811H34.0649V20.1294H18.5811V18.5811Z" fill="#44545F"/>
<path d="M15.4834 21.6777H17.0318V23.2261H15.4834V21.6777Z" fill="#44545F"/>
<path d="M18.5811 21.6777H34.0649V23.2261H18.5811V21.6777Z" fill="#44545F"/>
<path d="M15.4834 24.7744H34.064V26.3228H15.4834V24.7744Z" fill="#44545F"/>
<path d="M15.4834 27.8711H34.064V29.4195H15.4834V27.8711Z" fill="#44545F"/>
</svg>
