<svg width="48" height="48" viewBox="0 0 48 48" fill="none" xmlns="http://www.w3.org/2000/svg">
<path d="M34 17.5667V3H3V26H25.475L34 17.5667Z" fill="#FFD200"/>
<path d="M11.5 45C6.81341 45 3 41.1866 3 36.5C3 31.8134 6.81341 28 11.5 28C16.1866 28 20 31.8134 20 36.5C20 41.1866 16.1866 45 11.5 45Z" fill="#FFD200"/>
<path d="M46.5608 15.6945L46.8109 15.4444C47.5773 14.6779 48 13.6583 48 12.5745C47.9992 10.337 46.1784 8.51613 43.9402 8.51613C42.8563 8.51613 41.8367 8.93806 41.0703 9.70529L37.1607 13.615V0H0V48H27.4168L37.1607 38.256V25.0947L44.6757 17.5796L44.9691 17.2862C45.1332 17.1228 45.3508 17.0323 45.583 17.0323C46.0615 17.0323 46.4509 17.4217 46.4509 17.9001C46.4509 18.1324 46.3603 18.3499 46.1969 18.5141L39.7101 25.001L40.8048 26.0957L47.2916 19.6088C47.7476 19.1528 47.9992 18.5458 47.9992 17.9001C47.9992 16.9161 47.4062 16.0715 46.5608 15.6945V15.6945ZM23.7728 30.288C23.8316 29.8777 23.9578 29.4782 24.1421 29.1089L27.4076 32.3745C27.0375 32.5587 26.6388 32.6849 26.2285 32.7437L23.364 33.1525L23.7728 30.288ZM28.6447 31.4214L25.0943 27.871L37.9349 15.0302L41.4853 18.5806L28.6447 31.4214ZM27.8705 45.3569V38.7097H34.5176L27.8705 45.3569ZM35.6123 37.1613H26.3222V46.4516H1.54836V1.54839H35.6123V15.1634L27.8705 22.9053V9.29032H34.064V7.74194H23.2254V3.09677H21.6771V7.74194H10.8385V3.09677H9.29017V7.74194H3.09672V9.29032H9.29017V26.3226H10.8385V9.29032H15.4836V26.3226H17.032V9.29032H21.6771V26.3226H23.2254V9.29032H26.3222V24.4537L23.7728 27.0031C22.949 27.8261 22.4048 28.9154 22.2407 30.0681L21.5393 34.9765L26.4476 34.2751C27.6011 34.111 28.6896 33.5659 29.5126 32.743L35.6123 26.6431V37.1613ZM42.58 17.4859L39.0296 13.9355L42.165 10.8C42.6396 10.3262 43.2698 10.0645 43.9402 10.0645C45.3244 10.0645 46.4509 11.191 46.4509 12.5752C46.4509 13.2457 46.19 13.8759 45.7154 14.3505L43.8744 16.1915L43.581 16.4849L42.58 17.4859Z" fill="#44545F"/>
<path d="M11.5 34.1429C11.9592 34.1429 12.3333 34.4956 12.3333 34.9286H14C14 33.9056 13.3008 33.0413 12.3333 32.716V31H10.6667V32.5714H9V34.9286C9 36.2281 10.1217 37.2857 11.5 37.2857C11.9592 37.2857 12.3333 37.6385 12.3333 38.0714V38.8571H11.5C11.0408 38.8571 10.6667 38.5044 10.6667 38.0714H9C9 39.0944 9.69917 39.9587 10.6667 40.284V42H12.3333V40.4286H14V38.0714C14 36.7719 12.8783 35.7143 11.5 35.7143C11.0408 35.7143 10.6667 35.3615 10.6667 34.9286V34.1429H11.5Z" fill="#44545F"/>
<path d="M7 37C7.55228 37 8 36.7761 8 36.5C8 36.2239 7.55228 36 7 36C6.44772 36 6 36.2239 6 36.5C6 36.7761 6.44772 37 7 37Z" fill="#44545F"/>
<path d="M16 37C16.5523 37 17 36.7761 17 36.5C17 36.2239 16.5523 36 16 36C15.4477 36 15 36.2239 15 36.5C15 36.7761 15.4477 37 16 37Z" fill="#44545F"/>
<path d="M23 43H25V45H23V43Z" fill="#44545F"/>
<path d="M23 40H25V42H23V40Z" fill="#44545F"/>
</svg>
