<svg width="72" height="72" viewBox="0 0 72 72" fill="none" xmlns="http://www.w3.org/2000/svg">
<g clip-path="url(#clip0)">
<path d="M51.0967 51.0967V56.9031L53.4782 57.6975C54.1371 57.917 54.5805 58.5322 54.5805 59.2257C54.5805 59.9192 54.1371 60.5344 53.4782 60.7539L51.0967 61.5483V67.3547H67.3547V51.0967H51.0967Z" fill="#FFD200"/>
<path d="M17.4194 0V2.32258H69.6774V69.6774H18.5806V65.0323H45.5007L53.9002 61.8829C55.002 61.4707 55.7419 60.4024 55.7419 59.2258C55.7419 58.0492 55.002 56.9809 53.9013 56.5687L45.5007 53.4194H18.5806V37.1613H16.2581V53.4194H5.80645C2.60496 53.4194 0 56.0243 0 59.2258C0 62.4273 2.60496 65.0323 5.80645 65.0323H16.2581V72H72V0H17.4194ZM44.129 58.0645H16.2581V55.7419H44.129V58.0645ZM13.9355 62.7097H11.6129V55.7419H13.9355V62.7097ZM16.2581 60.3871H44.129V62.7097H16.2581V60.3871ZM53.4194 59.2258C53.4194 59.4396 53.2855 59.6324 53.0848 59.7078L46.4516 62.1954V56.2562L53.0859 58.7438C53.2855 58.8192 53.4194 59.012 53.4194 59.2258ZM2.32258 59.2258C2.32258 57.3053 3.8859 55.7419 5.80645 55.7419H9.29032V62.7097H5.80645C3.8859 62.7097 2.32258 61.1464 2.32258 59.2258Z" fill="#44545F"/>
<path d="M20.9033 46.4517H48.7743V48.7742H20.9033V46.4517Z" fill="#44545F"/>
<path d="M20.9033 41.8066H48.7743V44.1292H20.9033V41.8066Z" fill="#44545F"/>
<path d="M67.3545 20.9031H37.1609V18.5805H65.0319V6.9676H30.4404V4.64502H67.3545V20.9031Z" fill="#44545F"/>
<path d="M37.1613 22.9712V14.1901L33.9842 13.3968C33.746 12.688 33.4648 12.003 33.1399 11.3481L34.8234 8.54694L28.6144 2.33789L25.8132 4.02142C25.1594 3.69764 24.4744 3.41639 23.7645 3.1771L22.9712 0H14.1901L13.3968 3.1771C12.688 3.41526 12.003 3.69651 11.3481 4.02142L8.54694 2.33789L2.33789 8.54694L4.02142 11.3481C3.69764 12.0019 3.41639 12.6869 3.1771 13.3968L0 14.1901V22.9712L3.1771 23.7645C3.41526 24.4733 3.69651 25.1583 4.02142 25.8132L2.33789 28.6144L8.54807 34.8245L11.3492 33.141C12.003 33.4648 12.688 33.746 13.3979 33.9853L14.1901 37.1613H22.9712L23.7645 33.9842C24.4733 33.746 25.1583 33.4648 25.8132 33.1399L28.6144 34.8234L34.8245 28.6132L33.141 25.8121C33.4648 25.1583 33.746 24.4733 33.9853 23.7634L37.1613 22.9712ZM18.5806 24.3871C15.3741 24.3871 12.7742 21.7872 12.7742 18.5806C12.7742 15.3741 15.3741 12.7742 18.5806 12.7742C21.7872 12.7742 24.3871 15.3741 24.3871 18.5806C24.3871 21.7872 21.7872 24.3871 18.5806 24.3871Z" fill="#FFD200"/>
<path d="M18.5807 30.1936C12.1771 30.1936 6.96777 24.9842 6.96777 18.5807C6.96777 12.1771 12.1771 6.96777 18.5807 6.96777C24.9842 6.96777 30.1936 12.1771 30.1936 18.5807C30.1936 24.9842 24.9842 30.1936 18.5807 30.1936ZM18.5807 9.29035C13.4581 9.29035 9.29035 13.4581 9.29035 18.5807C9.29035 23.7033 13.4581 27.871 18.5807 27.871C23.7033 27.871 27.871 23.7033 27.871 18.5807C27.871 13.4581 23.7033 9.29035 18.5807 9.29035Z" fill="#44545F"/>
<path d="M18.581 25.5483C14.7382 25.5483 11.6133 22.4233 11.6133 18.5805C11.6133 14.7377 14.7382 11.6128 18.581 11.6128C22.4238 11.6128 25.5488 14.7377 25.5488 18.5805C25.5488 22.4233 22.4238 25.5483 18.581 25.5483ZM18.581 13.9354C16.0192 13.9354 13.9359 16.0187 13.9359 18.5805C13.9359 21.1424 16.0192 23.2257 18.581 23.2257C21.1429 23.2257 23.2262 21.1424 23.2262 18.5805C23.2262 16.0187 21.1429 13.9354 18.581 13.9354Z" fill="#44545F"/>
<path d="M67.3547 48.7742H51.0967V32.5161H67.3547V48.7742Z" fill="#FFD200"/>
<path d="M27.8711 37.1611H48.7743V39.4837H27.8711V37.1611Z" fill="#44545F"/>
<path d="M34.8389 32.5161H48.7743V34.8387H34.8389V32.5161Z" fill="#44545F"/>
<path d="M65.0322 27.8711H67.3548V30.1937H65.0322V27.8711Z" fill="#44545F"/>
<path d="M39.4834 27.8711H62.7092V30.1937H39.4834V27.8711Z" fill="#44545F"/>
<path d="M39.4834 23.2256H41.806V25.5482H39.4834V23.2256Z" fill="#44545F"/>
<path d="M44.1289 23.2256H67.3547V25.5482H44.1289V23.2256Z" fill="#44545F"/>
</g>
<defs>
<clipPath id="clip0">
<rect width="72" height="72" fill="white"/>
</clipPath>
</defs>
</svg>
