<svg width="72" height="72" viewBox="0 0 72 72" fill="none" xmlns="http://www.w3.org/2000/svg">
<path d="M41.4651 44.1292V41.8066H14.8229L8.6479 44.8936C7.61249 45.4124 6.96777 46.4541 6.96777 47.6131C6.96777 48.7721 7.61249 49.8138 8.6479 50.3326L14.8229 53.4195H41.464V51.097H16.2581V48.7744H38.3226V46.4518H16.2581V44.1292H41.4651ZM9.29035 47.6131C9.29035 47.3403 9.44232 47.0943 9.68728 46.9706L13.9355 44.8471V50.3791L9.68728 48.2555C9.44232 48.1319 9.29035 47.8858 9.29035 47.6131Z" fill="#44545F"/>
<path d="M4.64551 20.9035V30.1938H20.9036V16.2583H18.581V27.8712H16.2584V23.226H13.9358V27.8712H11.6132V17.4196H9.29067V27.8712H6.96809V20.9035H4.64551Z" fill="#44545F"/>
<path d="M4.64551 32.5161H25.5487V34.8387H4.64551V32.5161Z" fill="#44545F"/>
<path d="M4.64551 37.1611H25.5487V39.4837H4.64551V37.1611Z" fill="#44545F"/>
<path d="M4.64551 55.7417H37.1616V58.0643H4.64551V55.7417Z" fill="#44545F"/>
<path d="M4.64551 60.3872H37.1616V62.7098H4.64551V60.3872Z" fill="#44545F"/>
<path d="M4.64551 65.0322H41.8068V67.3548H4.64551V65.0322Z" fill="#44545F"/>
<path d="M60.3871 5.80645C60.3871 2.60496 57.7821 0 54.5806 0H5.80645C2.60496 0 0 2.60496 0 5.80645V72H51.0968V60.7353H48.7742V69.6774H2.32258V5.80645C2.32258 3.8859 3.8859 2.32258 5.80645 2.32258C7.727 2.32258 9.29032 3.8859 9.29032 5.80645V11.6129H48.7742V34.4928H51.0968V11.6129H60.3871V5.80645ZM58.0645 9.29032H11.6129V5.80645C11.6129 4.5 11.1786 3.29335 10.4493 2.32258H54.5806C56.5012 2.32258 58.0645 3.8859 58.0645 5.80645V9.29032Z" fill="#44545F"/>
<path d="M46.4514 30.1936H23.2256V13.9355H46.4514V30.1936Z" fill="#FFD200"/>
<path d="M71.9998 50.7751V44.4515L69.0921 43.4915C68.7751 42.3705 68.3266 41.2908 67.7556 40.2696L69.134 37.5325L64.663 33.062L61.9259 34.4405C60.9035 33.8689 59.8239 33.4204 58.704 33.1034L57.7429 30.1934H51.4193L50.4593 33.1011C49.3382 33.4181 48.2586 33.8666 47.2374 34.4376L44.5003 33.0592L40.0298 37.5302L41.4082 40.2673C40.8367 41.2897 40.3881 42.3693 40.0712 43.4892L37.1611 44.4504V50.7739L40.0689 51.7339C40.3859 52.855 40.8344 53.9346 41.4054 54.9558L40.0269 57.6929L44.498 62.1634L47.2351 60.785C48.2575 61.3565 49.3371 61.8051 50.457 62.122L51.4181 65.0321H57.7417L58.7017 62.1243C59.8227 61.8073 60.9024 61.3588 61.9236 60.7878L64.6607 62.1663L69.1312 57.6952L67.7527 54.9581C68.3243 53.9357 68.7728 52.8561 69.0898 51.7362L71.9998 50.7751ZM54.5805 56.903C49.4499 56.903 45.2902 52.7433 45.2902 47.6127C45.2902 42.4822 49.4499 38.3224 54.5805 38.3224C59.711 38.3224 63.8708 42.4822 63.8708 47.6127C63.8708 52.7433 59.711 56.903 54.5805 56.903Z" fill="#FFD200"/>
<path d="M54.5805 58.0644C48.8183 58.0644 44.1289 53.3761 44.1289 47.6127C44.1289 41.8494 48.8183 37.1611 54.5805 37.1611C60.3427 37.1611 65.0321 41.8494 65.0321 47.6127C65.0321 53.3761 60.3427 58.0644 54.5805 58.0644ZM54.5805 39.4837C50.0981 39.4837 46.4515 43.1315 46.4515 47.6127C46.4515 52.094 50.0981 55.7418 54.5805 55.7418C59.0629 55.7418 62.7095 52.094 62.7095 47.6127C62.7095 43.1315 59.0629 39.4837 54.5805 39.4837Z" fill="#44545F"/>
<path d="M27.8711 18.5806H41.8066V20.9031H27.8711V18.5806Z" fill="#44545F"/>
<path d="M27.8711 23.2256H41.8066V25.5482H27.8711V23.2256Z" fill="#44545F"/>
<path d="M44.1289 65.0322H46.4515V67.3548H44.1289V65.0322Z" fill="#44545F"/>
</svg>
