<svg width="72" height="72" viewBox="0 0 72 72" fill="none" xmlns="http://www.w3.org/2000/svg">
<g clip-path="url(#clip0)">
<path d="M4.78125 47.5625H16.3438V67.2188H4.78125V47.5625Z" fill="#FFD200"/>
<path d="M52.1875 25.847L49.394 25.1497L50.8752 22.6823L44.6927 16.4998L42.2252 17.981L41.528 15.1875H32.7845L32.0872 17.981L29.6198 16.4998L23.4373 22.6823L24.9185 25.1497L22.125 25.847V34.5905L24.9185 35.2878L23.4373 37.7563L29.6198 43.9377L32.0872 42.4565L32.7845 45.25H41.528L42.2252 42.4565L44.6927 43.9377L50.8752 37.7563L49.394 35.2878L52.1875 34.5905V25.847ZM37.1562 37.1562C33.3244 37.1562 30.2188 34.0506 30.2188 30.2188C30.2188 26.3869 33.3244 23.2812 37.1562 23.2812C40.9881 23.2812 44.0938 26.3869 44.0938 30.2188C44.0938 34.0506 40.9881 37.1562 37.1562 37.1562Z" fill="#FFD200"/>
<path d="M62.5936 53.3438C59.1792 53.3438 56.1972 55.2088 54.5947 57.9688H47.5542C58.4114 53.4316 66.0623 42.7028 66.0623 30.2188C66.0623 13.6427 52.5758 0.15625 35.9998 0.15625C19.8112 0.15625 6.56981 13.0195 5.95931 29.0625H2.3125L10.5623 38.9623L18.8122 29.0625H15.2186C15.821 18.1221 24.9114 9.40625 35.9998 9.40625C47.4756 9.40625 56.8123 18.743 56.8123 30.2188C56.8123 41.6945 47.4756 51.0312 35.9998 51.0312H23.2811V64.9062H53.6477C54.6791 68.8895 58.2923 71.8438 62.5936 71.8438C67.6938 71.8438 71.8436 67.694 71.8436 62.5938C71.8436 57.4935 67.6938 53.3438 62.5936 53.3438V53.3438ZM35.9998 53.3438C48.751 53.3438 59.1248 42.9699 59.1248 30.2188C59.1248 17.4676 48.751 7.09375 35.9998 7.09375C23.2487 7.09375 12.8748 17.4676 12.8748 30.2188V31.375H13.875L10.5623 35.3502L7.24969 31.375H8.24984V30.2188C8.24984 14.9181 20.6992 2.46875 35.9998 2.46875C51.3005 2.46875 63.7498 14.9181 63.7498 30.2188C63.7498 45.5194 51.3005 57.9688 35.9998 57.9688H25.5936V53.3438H35.9998ZM25.5936 62.5938V60.2812H53.6477C53.4557 61.0224 53.3436 61.7936 53.3436 62.5938H25.5936ZM62.5936 69.5312C58.7676 69.5312 55.6561 66.4198 55.6561 62.5938C55.6561 58.7677 58.7676 55.6562 62.5936 55.6562C66.4196 55.6562 69.5311 58.7677 69.5311 62.5938C69.5311 66.4198 66.4196 69.5312 62.5936 69.5312Z" fill="#44545F"/>
<path d="M66.4014 59.4639L61.4376 64.4276L59.9426 62.9326L58.3076 64.5676L61.4376 67.6975L68.0363 61.0988L66.4014 59.4639Z" fill="#44545F"/>
<path d="M17.5 41.7812H3.625C1.71256 41.7812 0.15625 43.3376 0.15625 45.25V68.375C0.15625 70.2874 1.71256 71.8438 3.625 71.8438H17.5C19.4124 71.8438 20.9688 70.2874 20.9688 68.375V45.25C20.9688 43.3376 19.4124 41.7812 17.5 41.7812ZM18.6562 68.375C18.6562 69.0132 18.1371 69.5312 17.5 69.5312H3.625C2.98791 69.5312 2.46875 69.0132 2.46875 68.375V45.25C2.46875 44.6118 2.98791 44.0938 3.625 44.0938H17.5C18.1371 44.0938 18.6562 44.6118 18.6562 45.25V68.375Z" fill="#44545F"/>
<path d="M45.25 30.2188C45.25 25.7556 41.6194 22.125 37.1562 22.125C32.6931 22.125 29.0625 25.7556 29.0625 30.2188C29.0625 34.6819 32.6931 38.3125 37.1562 38.3125C41.6194 38.3125 45.25 34.6819 45.25 30.2188ZM31.375 30.2188C31.375 27.031 33.9685 24.4375 37.1562 24.4375C40.344 24.4375 42.9375 27.031 42.9375 30.2188C42.9375 33.4065 40.344 36 37.1562 36C33.9685 36 31.375 33.4065 31.375 30.2188Z" fill="#44545F"/>
<path d="M40.625 30.2188C40.625 28.3063 39.0687 26.75 37.1562 26.75C35.2438 26.75 33.6875 28.3063 33.6875 30.2188C33.6875 32.1312 35.2438 33.6875 37.1562 33.6875C39.0687 33.6875 40.625 32.1312 40.625 30.2188ZM36 30.2188C36 29.5817 36.5192 29.0625 37.1562 29.0625C37.7933 29.0625 38.3125 29.5817 38.3125 30.2188C38.3125 30.8558 37.7933 31.375 37.1562 31.375C36.5192 31.375 36 30.8558 36 30.2188Z" fill="#44545F"/>
<path d="M4.78125 46.4062H16.3438V48.7188H4.78125V46.4062Z" fill="#44545F"/>
<path d="M4.78125 51.0312H16.3438V53.3438H4.78125V51.0312Z" fill="#44545F"/>
<path d="M4.78125 55.6562H16.3438V57.9688H4.78125V55.6562Z" fill="#44545F"/>
<path d="M4.78125 60.2812H16.3438V62.5938H4.78125V60.2812Z" fill="#44545F"/>
<path d="M14.0312 64.9062H16.3438V67.2188H14.0312V64.9062Z" fill="#44545F"/>
<path d="M9.40625 64.9062H11.7188V67.2188H9.40625V64.9062Z" fill="#44545F"/>
<path d="M4.78125 64.9062H7.09375V67.2188H4.78125V64.9062Z" fill="#44545F"/>
</g>
<defs>
<clipPath id="clip0">
<rect width="72" height="72" fill="white"/>
</clipPath>
</defs>
</svg>
