<svg width="72" height="72" viewBox="0 0 72 72" fill="none" xmlns="http://www.w3.org/2000/svg">
<path d="M18.5801 19.7422H37.1607V42.968H18.5801V19.7422Z" fill="#FFD200"/>
<path d="M15.0968 30.7477C11.0402 29.3114 8.12903 25.4522 8.12903 20.9034C8.12903 15.1304 12.8076 10.4518 18.5806 10.4518C19.8049 10.4518 20.973 10.678 22.0645 11.0648V2.32275H14.1901L13.3968 5.49986C12.688 5.73801 12.003 6.01926 11.3481 6.34418L8.54694 4.66064L2.33789 10.8697L4.02142 13.6709C3.69764 14.3246 3.41639 15.0096 3.1771 15.7196L0 16.5128V25.294L3.1771 26.0872C3.41526 26.796 3.69651 27.481 4.02142 28.1359L2.33789 30.9371L8.54807 37.1473L11.3317 35.4751C12.3863 36.0642 13.7693 36.8235 14.773 37.115L15.0968 36.8876V30.7477Z" fill="#FFD200"/>
<path d="M72.0005 44.1289H39.4844V11.6128H72.0005V44.1289Z" fill="#FFD200"/>
<path d="M62.7097 51.0968H58.0645V44.129H55.7419V65.0323H53.302C52.7622 62.3859 50.4175 60.3871 47.6129 60.3871H16.2581V16.2581H39.4839V13.9355H27.871V6.96774H58.0645V11.6129H60.3871V4.64516H25.5484V13.9355H23.2258V2.32258H62.7097V11.6129H65.0323V0H20.9032V9.53301C20.1417 9.37765 19.3666 9.29032 18.5806 9.29032C12.1771 9.29032 6.96774 14.4997 6.96774 20.9032C6.96774 25.5382 9.73601 29.7127 13.9355 31.5465V60.3871H10.2401L1.84173 63.5364C0.741116 63.9486 0 65.0169 0 66.1935C0 67.3701 0.741116 68.4384 1.8406 68.8507L10.2401 72H47.6129C50.4163 72 52.7622 70.0012 53.302 67.3548H58.0645V53.4194H65.0323V44.129H62.7097V51.0968ZM9.29032 20.9032C9.29032 15.7806 13.458 11.6129 18.5806 11.6129C19.3705 11.6129 20.1485 11.7116 20.9032 11.9066V13.9355H13.9355V28.9325C11.1077 27.2937 9.29032 24.2533 9.29032 20.9032ZM37.1613 65.0323H11.6129V62.7097H37.1613V65.0323ZM11.6129 67.3548H37.1613V69.6774H11.6129V67.3548ZM39.4839 62.7097H41.8065V69.6774H39.4839V62.7097ZM2.32258 66.1935C2.32258 65.9798 2.4564 65.787 2.65713 65.7116L9.29032 63.224V69.1631L2.656 66.6755C2.4564 66.6001 2.32258 66.4073 2.32258 66.1935V66.1935ZM47.6129 69.6774H44.129V62.7097H47.6129C49.5335 62.7097 51.0968 64.273 51.0968 66.1935C51.0968 68.1141 49.5335 69.6774 47.6129 69.6774Z" fill="#44545F"/>
<path d="M18.5801 18.5806H37.1607V20.9031H18.5801V18.5806Z" fill="#44545F"/>
<path d="M18.5801 23.2261H37.1607V25.5487H18.5801V23.2261Z" fill="#44545F"/>
<path d="M18.5801 27.8711H37.1607V30.1937H18.5801V27.8711Z" fill="#44545F"/>
<path d="M18.5801 32.5161H37.1607V34.8387H18.5801V32.5161Z" fill="#44545F"/>
<path d="M18.5801 37.1611H37.1607V39.4837H18.5801V37.1611Z" fill="#44545F"/>
<path d="M18.5801 41.8066H37.1607V44.1292H18.5801V41.8066Z" fill="#44545F"/>
<path d="M18.5801 58.0646H53.4188V46.4517H18.5801V58.0646ZM20.9027 48.7742H51.0962V55.742H20.9027V48.7742Z" fill="#44545F"/>
<path d="M23.2256 51.0967H25.5482V53.4193H23.2256V51.0967Z" fill="#44545F"/>
<path d="M27.8711 51.0967H48.7743V53.4193H27.8711V51.0967Z" fill="#44545F"/>
</svg>
