<svg width="88" height="44" viewBox="0 0 88 44" fill="none" xmlns="http://www.w3.org/2000/svg">
<path d="M20.8057 10.3543C20.4919 10.0406 19.6713 9.3165 18.2714 8.13384C16.7991 6.9029 15.9302 6.08227 15.6406 5.72023C15.4475 5.47887 15.3509 5.21338 15.3509 4.94788C15.3509 4.70652 15.4716 4.46516 15.7371 4.24794C16.0026 4.03071 16.3405 3.91003 16.7749 3.91003C17.668 3.91003 18.5852 4.53757 19.4782 5.79264L19.623 5.98573L22.6641 3.30663L22.5193 3.13768C21.5056 1.95502 20.5402 1.11026 19.6471 0.675807C18.7541 0.217223 17.8128 0 16.8232 0C15.2785 0 13.9752 0.506856 12.9373 1.4723C11.8753 2.46187 11.3443 3.66867 11.3443 5.04443C11.3443 6.00987 11.6581 6.97531 12.2856 7.91661C12.9132 8.85792 14.2407 10.1613 16.3646 11.8991C17.4266 12.768 18.1266 13.4196 18.4403 13.8541C18.73 14.2402 18.8748 14.6264 18.8748 15.0126C18.8748 15.4229 18.6817 15.785 18.3197 16.0987C17.9335 16.4366 17.4749 16.5814 16.8956 16.5814C15.7854 16.5814 14.7958 15.7608 13.9269 14.1678L13.8062 13.9506L10.3789 16.0263L10.4754 16.2194C11.1995 17.6676 12.1167 18.7537 13.1545 19.4536C14.1924 20.1536 15.4233 20.4915 16.8232 20.4915C18.6093 20.4915 20.1057 19.9605 21.216 18.8985C22.3504 17.8365 22.9055 16.4849 22.9055 14.8436C22.9055 13.9989 22.7365 13.2265 22.4228 12.5266C22.109 11.8508 21.578 11.1267 20.8057 10.3543Z" fill="white"/>
<path d="M42.045 0.482422L39.4624 11.9953L36.2041 0.482422H32.825L29.6149 11.9953L27.0082 0.482422H22.9775L27.3944 20.0326H31.2079L34.4904 8.27835L37.8453 20.0326H41.683L46.0757 0.482422H42.045Z" fill="white"/>
<path d="M49.2376 0.482422L45.7861 20.0326H49.841L53.2924 0.482422H49.2376Z" fill="white"/>
<path d="M72.9395 0.482422H69.0537L64.7574 13.3228L60.4854 0.482422H56.5995L53.1963 20.0326H57.2029L59.182 8.66453L62.9714 20.0326H66.4952L70.3329 8.66453L72.2637 20.0326H76.2221L72.9395 0.482422Z" fill="white"/>
<path d="M10.8371 32.9934C11.4646 32.1245 11.7784 31.0142 11.7784 29.7109C11.7784 28.48 11.4887 27.3938 10.9336 26.4767C10.3543 25.5595 9.60613 24.9078 8.66483 24.5216C7.72352 24.1355 6.22709 23.9424 4.07898 23.9424H0V43.4926H4.07898V35.4553L8.35105 43.4926H12.8404L8.25451 34.9001C9.3889 34.4657 10.2578 33.814 10.8371 32.9934ZM7.26493 30.9901C6.87876 31.2556 6.10641 31.4004 4.99615 31.4004H4.07898V27.9248H4.85133C5.79264 27.9248 6.42018 27.9972 6.75808 28.1179C7.07185 28.2386 7.33734 28.4317 7.53043 28.6972C7.72352 28.9627 7.82007 29.2764 7.82007 29.6626C7.82007 30.3143 7.65111 30.7487 7.26493 30.9901Z" fill="#FF4D00"/>
<path d="M39.1245 27.4427C41.2244 27.4427 43.1311 28.3357 44.7965 30.1218L44.9413 30.2907L47.7894 27.5634L47.6445 27.3944C46.5826 26.1393 45.2792 25.1739 43.8069 24.4981C42.3346 23.8223 40.7658 23.4844 39.1728 23.4844C37.2902 23.4844 35.5041 23.943 33.887 24.8601C32.6319 25.5601 31.57 26.4531 30.7735 27.5392C30.4838 27.1772 30.1942 26.8151 29.8563 26.5014C27.8771 24.4981 25.4877 23.5085 22.7362 23.5085C20.926 23.5085 19.2123 23.9671 17.6193 24.8843C16.0505 25.8014 14.7954 27.0565 13.9024 28.6012C13.0094 30.1701 12.5508 31.8837 12.5508 33.7422C12.5508 36.5178 13.5404 38.9556 15.4471 40.9588C17.378 42.9863 19.8399 44 22.7603 44C25.536 44 27.9496 43.0104 29.9046 41.0313C30.2183 40.7175 30.508 40.3796 30.7735 40.0417C31.0631 40.4037 31.3527 40.7658 31.6906 41.1037C33.6215 43.0104 36.1317 44 39.1487 44C40.7899 44 42.2622 43.7345 43.5414 43.1794C44.8206 42.6484 46.1964 41.6588 47.6204 40.2589L47.7894 40.1141L45.0137 37.2178L44.8448 37.3867C43.8311 38.4004 42.8656 39.1004 42.0209 39.4866C41.1761 39.8727 40.2348 40.0658 39.2211 40.0658C38.0384 40.0658 36.9282 39.8003 35.9627 39.2452C34.9973 38.7142 34.2249 37.9418 33.6939 37.0005C33.1629 36.0592 32.8974 34.949 32.8974 33.718C32.8974 31.9561 33.5008 30.4597 34.7076 29.2529C35.8662 28.0461 37.3867 27.4427 39.1245 27.4427ZM26.9841 38.2073C25.8256 39.4141 24.4016 40.0175 22.7362 40.0175C21.2639 40.0175 19.9605 39.559 18.8261 38.6177C17.378 37.435 16.6298 35.8179 16.6298 33.7663C16.6298 31.932 17.209 30.4114 18.3676 29.2287C19.5261 28.0461 20.9742 27.4427 22.6638 27.4427C24.3533 27.4427 25.8014 28.0461 26.96 29.2529C28.1426 30.4597 28.7219 31.9561 28.7219 33.718C28.746 35.5041 28.1668 37.0005 26.9841 38.2073Z" fill="#FF4D00"/>
<path d="M62.8506 23.9424H57.9268L53.0755 30.1212V23.9424H48.9482V43.4926H53.0755V35.5035L58.6268 43.4926H63.4781L55.996 32.7038L62.8506 23.9424Z" fill="#FF4D00"/>
<path d="M64.1533 43.4926H75.0387V39.486H68.2082V34.9001H75.0387V30.966H68.2082V27.949H75.0387V23.9424H64.1533V43.4926Z" fill="#FF4D00"/>
<path d="M76.5352 23.9424V27.9731H79.9383V43.4926H84.0656V27.9731H87.5412V23.9424H76.5352Z" fill="#FF4D00"/>
</svg>
