<svg width="136" height="68" viewBox="0 0 136 68" fill="none" xmlns="http://www.w3.org/2000/svg">
<path d="M49.2958 15.9993C48.811 15.5145 47.5429 14.3957 45.3799 12.5682C43.1049 10.6662 41.7623 9.39821 41.3148 8.83879C41.0164 8.46585 40.8672 8.05561 40.8672 7.64537C40.8672 7.27242 41.0537 6.89948 41.4639 6.56383C41.8742 6.22818 42.3963 6.0417 43.0676 6.0417C44.4475 6.0417 45.8647 7.01136 47.2446 8.95067L47.4684 9.24903L52.1675 5.10934L51.9437 4.84828C50.3773 3.02085 48.8855 1.71554 47.5056 1.04424C46.1258 0.335649 44.6713 0 43.1422 0C40.7554 0 38.7414 0.783183 37.1378 2.27496C35.4968 3.80404 34.6763 5.66876 34.6763 7.79454C34.6763 9.28632 35.1612 10.7781 36.1308 12.2326C37.1005 13.6871 39.1517 15.701 42.4336 18.3862C44.0746 19.7288 45.1561 20.7357 45.6409 21.407C46.0885 22.0037 46.3122 22.6005 46.3122 23.1972C46.3122 23.8312 46.0139 24.3906 45.4544 24.8754C44.8577 25.3975 44.1491 25.6213 43.2541 25.6213C41.5385 25.6213 40.0095 24.3533 38.6669 21.8919L38.4804 21.5562L33.1846 24.7635L33.3337 25.0619C34.4526 27.2996 35.8698 28.9778 37.4734 30.0593C39.0771 31.1409 40.9791 31.663 43.1422 31.663C45.902 31.663 48.2142 30.8425 49.9298 29.2016C51.6826 27.5606 52.5404 25.4721 52.5404 22.9361C52.5404 21.6308 52.2793 20.4374 51.7945 19.3558C51.3097 18.3116 50.4892 17.1928 49.2958 15.9993Z" fill="white"/>
<path d="M82.115 0.746094L78.1245 18.5356L73.0897 0.746094H67.8685L62.9083 18.5356L58.8805 0.746094H52.6523L59.4772 30.9546H65.3698L70.4418 12.7922L75.6257 30.9546H81.5556L88.3432 0.746094H82.115Z" fill="white"/>
<path d="M93.2286 0.746094L87.8955 30.9546H94.161L99.4941 0.746094H93.2286Z" fill="white"/>
<path d="M129.852 0.746094H123.847L117.209 20.5868L110.608 0.746094H104.603L99.3447 30.9546H105.536L108.594 13.3889L114.449 30.9546H119.894L125.824 13.3889L128.807 30.9546H134.924L129.852 0.746094Z" fill="white"/>
<path d="M16.7452 50.9805C17.7149 49.6379 18.1997 47.9224 18.1997 45.9085C18.1997 44.0065 17.7522 42.3282 16.8944 40.911C15.9993 39.4938 14.8432 38.4869 13.3887 37.8902C11.9342 37.2935 9.62197 36.9951 6.30276 36.9951H0V67.2036H6.30276V54.7846L12.9039 67.2036H19.8407L12.7547 53.9268C14.5075 53.2555 15.8501 52.2486 16.7452 50.9805ZM11.2256 47.8851C10.6289 48.2953 9.43549 48.5191 7.71995 48.5191H6.30276V43.1487H7.49618C8.95066 43.1487 9.92033 43.2606 10.4425 43.4471C10.9273 43.6335 11.3375 43.9319 11.6359 44.3421C11.9342 44.7524 12.0834 45.2372 12.0834 45.8339C12.0834 46.8409 11.8223 47.5122 11.2256 47.8851Z" fill="#FF4D00"/>
<path d="M60.4548 42.4034C63.6994 42.4034 66.6457 43.7833 69.219 46.5431L69.4427 46.8042L73.8435 42.5899L73.6197 42.3288C71.9788 40.3895 69.9649 38.8977 67.6899 37.8535C65.4149 36.8092 62.9908 36.2871 60.5294 36.2871C57.6204 36.2871 54.8606 36.9957 52.3619 38.4129C50.4226 39.4944 48.7816 40.8743 47.5509 42.5526C47.1034 41.9932 46.6558 41.4337 46.1337 40.9489C43.0755 37.8535 39.3834 36.3244 35.1318 36.3244C32.3347 36.3244 29.6868 37.033 27.2254 38.4502C24.8013 39.8674 22.8619 41.8067 21.482 44.1935C20.1021 46.6177 19.3936 49.2656 19.3936 52.1373C19.3936 56.4261 20.9226 60.1929 23.8689 63.2883C26.8525 66.421 30.6565 67.9874 35.1691 67.9874C39.458 67.9874 43.1874 66.4583 46.2083 63.4002C46.6931 62.9154 47.1406 62.3932 47.5509 61.8711C47.9984 62.4305 48.4459 62.99 48.9681 63.5121C51.9516 66.4583 55.8303 67.9874 60.4921 67.9874C63.0281 67.9874 65.3031 67.5772 67.2797 66.7194C69.2563 65.8989 71.3821 64.3699 73.5824 62.2068L73.8435 61.983L69.5546 57.5077L69.2936 57.7687C67.7272 59.3351 66.2354 60.4166 64.9301 61.0133C63.6248 61.6101 62.1703 61.9084 60.604 61.9084C58.7765 61.9084 57.061 61.4982 55.5692 60.6404C54.0774 59.8199 52.884 58.6265 52.0635 57.172C51.243 55.7175 50.8328 54.002 50.8328 52.1C50.8328 49.3775 51.7652 47.0652 53.6299 45.2005C55.42 43.3358 57.7696 42.4034 60.4548 42.4034ZM41.6957 59.0367C39.9055 60.9015 37.7051 61.8338 35.1318 61.8338C32.8569 61.8338 30.843 61.1252 29.0901 59.6707C26.8525 57.8433 25.6963 55.3446 25.6963 52.1746C25.6963 49.3402 26.5914 46.9906 28.3815 45.1632C30.1717 43.3358 32.4093 42.4034 35.0199 42.4034C37.6306 42.4034 39.8682 43.3358 41.6584 45.2005C43.4858 47.0652 44.3809 49.3775 44.3809 52.1C44.4182 54.8598 43.5231 57.172 41.6957 59.0367Z" fill="#FF4D00"/>
<path d="M97.1144 36.9951H89.5064L82.0102 46.5425V36.9951H75.6328V67.2036H82.0102V54.8592L90.5879 67.2036H98.0841L86.5228 50.533L97.1144 36.9951Z" fill="#FF4D00"/>
<path d="M99.1289 67.2036H115.949V61.0128H105.394V53.9268H115.949V47.8478H105.394V43.186H115.949V36.9951H99.1289V67.2036Z" fill="#FF4D00"/>
<path d="M118.261 36.9951V43.2233H123.519V67.2036H129.897V43.2233H135.267V36.9951H118.261Z" fill="#FF4D00"/>
</svg>
