<?xml version="1.0" encoding="utf-8"?>
<!-- Generator: Adobe Illustrator 19.2.0, SVG Export Plug-In . SVG Version: 6.00 Build 0)  -->
<svg version="1.1" id="Слой_1" xmlns="http://www.w3.org/2000/svg" xmlns:xlink="http://www.w3.org/1999/xlink" x="0px" y="0px"
	 viewBox="0 0 640 336" style="enable-background:new 0 0 640 336;" xml:space="preserve">
<style type="text/css">
	.st0{fill:#D46435;}
	.st1{fill:#FFFFFF;}
</style>
<g>
	<g>
		<path class="st0" d="M203,98.9c0.4-0.6,0.7-1.2,1-1.8L203,98.9z"/>
		<path class="st0" d="M277.3,4.1c-0.1-0.3-0.2-0.5-0.4-0.8c-0.3-0.1-0.5-0.2-0.8-0.2c-0.2,0-4.4-0.2-11.9,1.2
			c-23,4.2-70.4,21.2-130,87.3c-10.4,11.5-19.6,22.9-27.5,34l-43.2,15.9c-0.5,0.2-1,0.6-1.4,1L30,183.6c-0.6,0.8-0.8,1.7-0.6,2.6
			c0.2,0.8,0.9,1.4,1.7,1.6l32.4,5.9c-3.3,5.1-32.1,46.9-32.1,46.9l17-6.6l-34.5,47.6l24.4-8.6L1,333.5l54.2-46l-4.8,25.5l41.8-41.3
			l-4,17.8c0,0,35.7-37.5,40-41.5l11.5,30.3c0.3,0.8,1,1.3,1.9,1.4c0.9,0.1,1.7-0.3,2.4-1l34.7-38.9c0.4-0.5,0.7-1,0.8-1.6l7.8-45.3
			c9.5-9.8,19-20.9,28.5-33.2C270,89.1,278.2,39.4,278.2,16.1C278.2,8.4,277.3,4.3,277.3,4.1z M262,35.2l-2.8,2.3l-4.4,2.3l-1.2,1.6
			l-0.4,1.3l1.1-0.2l3.4-2.7l0.9-0.4l0.5,1.1l-0.9,1.7l-3.2,3.3c0,0-1.3,2.1-2.6,2.4c-1.3,0.3-1.1,0.7-2.5,1.1
			c-1.4,0.4-3.5,3.2-3.5,3.2l-2.9,5.4l-2.8,8c0,0-1.9,5.1-3.1,7.9c-1.2,2.8-3.3,3.6-3.3,3.6s-3.2,2.6-4.3,4.5
			c-1.1,2-3.2,4.9-3.2,4.9s-2.9,3.1-5,5.6l0,0.5c-0.8,0.9-1.5,1.7-2.3,2.5c0,0,0,0,0,0l0,0c-1.8,1.8-17.5,31.4-23.7,31.7l-0.9,1
			c-4,6.7-6.5,9.6-12.1,14.7c-1,0.9-6.7,6.2-10.2,9.6c-0.6,1.5-1.3,2.9-2.1,4.3c-0.9,1.6-2.4,3.5-4.3,5.6
			c-2.9,3.7-7.2,11.1-7.7,12.4c-0.6,1.7-5,5-5,5s-15.7,12.8-18.2,15c-0.5,0.4-0.9,0.9-1.2,1.3l-0.1-0.1c-1.3,1.6-2.1,3.5-2.7,4.4
			c-0.9,1.3-4.4,3.3-4.4,3.3s-4,4.2-5.3,6.4c-1.3,2.2-14.3,17.4-16.8,19.5c-2.6,2.1-3.2,4.9-4.7,6.6c-1.5,1.7-3.4,4.4-4.3,6.4
			c-0.9,2-1.6,3.6-2.4,4.7c-0.7,1.1-3.1,5.1-3.1,5.1l-1.1,3.1l-0.3,4.7l0,1.6l-1.6,0.2c0,0-1.3-1.5-1.8-2.6c-0.5-1-0.8-2.5-1.1-3.8
			c-0.3-1.2-0.4-6,0.2-9.3c0.6-3.3,1.1-5.1,1.3-6.7c0.1-0.6,0-4.4-0.1-4.9c-0.2-1,0.1-2.1,0.8-2.9c0.3-0.4,0.6-0.8,0.8-0.9
			c0.5-0.3,1.9-0.5,2.5-0.5c0.6,0,2.8-0.4,4.9-1.8c2.1-1.5,4.8-6.6,4.9-7c0.1-0.3,1.8-5.4,4-10.3c-1.6,0.8-3.1,1.6-4.5,2.3
			c-0.8,0.3-11.8,7.6-11.8,7.6l-5.2,3.5l-4,4.7c0,0-3.9,4.1-4.6,4.3c-0.7,0.2-6,4.7-6,4.7l-3.4,2.9c0,0-1.9,1.1-2.3,1.3
			c-0.3,0.2-0.7-1.1-0.8-2c0-0.9,4.7-6.8,5.6-8.2c0.9-1.4,3.9-9.7,3.9-11.2c0-1.5,0.1-3.2,0.1-3.2s0.8-1.9,1.6-2.5
			c0.8-0.6,2.8,0.1,3.5,0.2c0.7,0.1,8-2,9.9-2.7c1.9-0.7,6.3-6.1,6.3-6.1s5.2-8.1,9.5-11.7c4.2-3.6,7.1-3.5,7.3-3.8
			c0.2-0.2,6-2.2,6-2.2s0.4-0.1,0.9-0.3c0.3-0.2,0.5-0.6,0.8-1.2c5.1-9.8,14.8-18.1,22.8-26c2.4-8.1,6.6-13.4,6.6-13.4
			c0.2-0.3,0.4-0.6,0.6-0.9c1.9-3,3.9-4.5,4.7-5.5c0.9-1,4.7-3.8,4.7-3.8l5.1-4.7l2.7-5.2l3.3-8.1c0.9-4.5,2.9-11.1,5-13.1l0,0
			c-2.7,0.1-5.7-0.5-9.9-1.8c-2.6-0.8-5-2-7.4-3.2l0.1,4.3c0,0-0.8,3.7-0.8,3.7l-1.1,4.2l-0.8,5c0,0.1-0.4,4.4-0.6,6.2l-0.6,6
			c-0.1,1.2-0.3,2.1-0.8,3.7c-0.5,1.6-2.8,7.4-4.4,8.2c-3,1.5-3.2,3-5.5,2c-0.4-2.4-0.2-3.6,1.2-5.4c0.8-1,1.3-3.6,1-5.2
			c-0.1-1.7,2.4-6.7,3.5-7.8c0.1-0.8,0.2-1.6,0.3-2.3l0,0c0,0-0.7-17.5,0.1-22.9c0.5-3.7-0.1-7.7,1.6-8.8c0.8-0.5,5.9-1.1,6.2-1
			c3.2,0.4,5-0.6,6.9-0.8c5.4-0.5,11.1,1.3,15.9,2.5c4.2,1,6.3,1.4,8.2,1.2l0,0l4.5,0.2l-0.1,0.1l1.7,1.6c-0.6-1.8-0.9-4-0.8-6.3
			c-1.5-1.6-1.4-5.5,0.9-6.2l0,0c1.3-4.9,4-9.1,7.7-9.8c5.2-0.9,7.9,2.3,8.7,6.8l0,0l0,0c1.1,6.1-1.1,14.6-4.7,18.4l1.8-0.6
			c3.2-4.9,8.9-15.9,15.5-21.5l3-4.2c0,0,5.5-7.1,7.1-9.5c1.6-2.4,8.1-9.2,9.4-10.6c1.4-1.4,6.1-7.4,6.1-7.4l2.3-4.1l2.7-2.8
			l6.3-2.9l4.7-2.2c0,0,1-0.1,1.2,0.3C263.4,34,262,35.2,262,35.2z"/>
	</g>
	<g>
		<g>
			<path class="st1" d="M314.1,129.2c-1.3-1.3-4.7-4.3-10.5-9.2c-6.1-5.1-9.7-8.5-10.9-10c-0.8-1-1.2-2.1-1.2-3.2c0-1,0.5-2,1.6-2.9
				c1.1-0.9,2.5-1.4,4.3-1.4c3.7,0,7.5,2.6,11.2,7.8l0.6,0.8l12.6-11.1l-0.6-0.7c-4.2-4.9-8.2-8.4-11.9-10.2
				c-3.7-1.9-7.6-2.8-11.7-2.8c-6.4,0-11.8,2.1-16.1,6.1c-4.4,4.1-6.6,9.1-6.6,14.8c0,4,1.3,8,3.9,11.9c2.6,3.9,8.1,9.3,16.9,16.5
				c4.4,3.6,7.3,6.3,8.6,8.1c1.2,1.6,1.8,3.2,1.8,4.8c0,1.7-0.8,3.2-2.3,4.5c-1.6,1.4-3.5,2-5.9,2c-4.6,0-8.7-3.4-12.3-10l-0.5-0.9
				l-14.2,8.6l0.4,0.8c3,6,6.8,10.5,11.1,13.4c4.3,2.9,9.4,4.3,15.2,4.3c7.4,0,13.6-2.2,18.2-6.6c4.7-4.4,7-10,7-16.8
				c0-3.5-0.7-6.7-2-9.6C319.5,135.4,317.3,132.4,314.1,129.2z"/>
			<polygon class="st1" points="402.1,88.3 391.4,136 377.9,88.3 363.9,88.3 350.6,136 339.8,88.3 323.1,88.3 341.4,169.3 
				357.2,169.3 370.8,120.6 384.7,169.3 400.6,169.3 418.8,88.3 			"/>
			<polygon class="st1" points="431.9,88.3 417.6,169.3 434.4,169.3 448.7,88.3 			"/>
			<polygon class="st1" points="530.1,88.3 514,88.3 496.2,141.5 478.5,88.3 462.4,88.3 448.3,169.3 464.9,169.3 473.1,122.2 
				488.8,169.3 503.4,169.3 519.3,122.2 527.3,169.3 543.7,169.3 			"/>
		</g>
		<g>
			<path class="st0" d="M319.6,223c2.6-3.6,3.9-8.2,3.9-13.6c0-5.1-1.2-9.6-3.5-13.4c-2.4-3.8-5.5-6.5-9.4-8.1
				c-3.9-1.6-10.1-2.4-19-2.4h-16.9v81h16.9v-33.3l17.7,33.3h18.6l-19-35.6C313.6,229.1,317.2,226.4,319.6,223z M304.8,214.7
				c-1.6,1.1-4.8,1.7-9.4,1.7h-3.8v-14.4h3.2c3.9,0,6.5,0.3,7.9,0.8c1.3,0.5,2.4,1.3,3.2,2.4c0.8,1.1,1.2,2.4,1.2,4
				C307.1,211.9,306.4,213.7,304.8,214.7z"/>
			<path class="st0" d="M436.8,200c8.7,0,16.6,3.7,23.5,11.1l0.6,0.7l11.8-11.3l-0.6-0.7c-4.4-5.2-9.8-9.2-15.9-12
				c-6.1-2.8-12.6-4.2-19.2-4.2c-7.8,0-15.2,1.9-21.9,5.7c-5.2,2.9-9.6,6.6-12.9,11.1c-1.2-1.5-2.4-3-3.8-4.3
				c-8.2-8.3-18.1-12.4-29.5-12.4c-7.5,0-14.6,1.9-21.2,5.7c-6.5,3.8-11.7,9-15.4,15.4c-3.7,6.5-5.6,13.6-5.6,21.3
				c0,11.5,4.1,21.6,12,29.9c8,8.4,18.2,12.6,30.3,12.6c11.5,0,21.5-4.1,29.6-12.3c1.3-1.3,2.5-2.7,3.6-4.1c1.2,1.5,2.4,3,3.8,4.4
				c8,7.9,18.4,12,30.9,12c6.8,0,12.9-1.1,18.2-3.4c5.3-2.2,11-6.3,16.9-12.1l0.7-0.6l-11.5-12l-0.7,0.7c-4.2,4.2-8.2,7.1-11.7,8.7
				c-3.5,1.6-7.4,2.4-11.6,2.4c-4.9,0-9.5-1.1-13.5-3.4c-4-2.2-7.2-5.4-9.4-9.3c-2.2-3.9-3.3-8.5-3.3-13.6c0-7.3,2.5-13.5,7.5-18.5
				C423.3,202.5,429.6,200,436.8,200z M386.5,244.6c-4.8,5-10.7,7.5-17.6,7.5c-6.1,0-11.5-1.9-16.2-5.8c-6-4.9-9.1-11.6-9.1-20.1
				c0-7.6,2.4-13.9,7.2-18.8c4.8-4.9,10.8-7.4,17.8-7.4c7,0,13,2.5,17.8,7.5c4.9,5,7.3,11.2,7.3,18.5
				C393.8,233.4,391.4,239.6,386.5,244.6z"/>
			<polygon class="st0" points="535.1,185.5 514.7,185.5 494.6,211.1 494.6,185.5 477.5,185.5 477.5,266.5 494.6,266.5 494.6,233.4 
				517.6,266.5 537.7,266.5 506.7,221.8 			"/>
			<polygon class="st0" points="540.5,266.5 585.6,266.5 585.6,249.9 557.3,249.9 557.3,230.9 585.6,230.9 585.6,214.6 557.3,214.6 
				557.3,202.1 585.6,202.1 585.6,185.5 540.5,185.5 			"/>
			<polygon class="st0" points="591.8,185.5 591.8,202.2 605.9,202.2 605.9,266.5 623,266.5 623,202.2 637.4,202.2 637.4,185.5 			
				"/>
		</g>
	</g>
</g>
</svg>
