<svg width="56" height="56" viewBox="0 0 56 56" fill="none" xmlns="http://www.w3.org/2000/svg">
<path d="M14.7346 29.2432H10.1658C9.78099 29.2432 9.46875 29.5554 9.46875 29.9403V34.5095C9.46875 34.8944 9.78099 35.2066 10.1658 35.2066H14.7351C15.1199 35.2066 15.4322 34.8944 15.4322 34.5095V29.9403C15.4322 29.555 15.1199 29.2432 14.7346 29.2432V29.2432ZM14.0375 33.8124H10.8629V30.6374H14.038L14.0375 33.8124Z" fill="#0F0F0F"/>
<path d="M22.3884 29.2432H17.8192C17.4343 29.2432 17.1221 29.5554 17.1221 29.9403V34.5095C17.1221 34.8944 17.4343 35.2066 17.8192 35.2066H22.3884C22.7737 35.2066 23.0855 34.8944 23.0855 34.5095V29.9403C23.0855 29.5554 22.7737 29.2432 22.3884 29.2432V29.2432ZM21.6913 33.8124H18.5163V30.6374H21.6913V33.8124Z" fill="#0F0F0F"/>
<path d="M30.7277 29.2432H26.158C25.7732 29.2432 25.4609 29.5554 25.4609 29.9403V34.5095C25.4609 34.8944 25.7732 35.2066 26.158 35.2066H30.7277C31.1126 35.2066 31.4248 34.8944 31.4248 34.5095V29.9403C31.4248 29.5554 31.1126 29.2432 30.7277 29.2432V29.2432ZM30.0306 33.8124H26.8551V30.6374H30.0306V33.8124Z" fill="#0F0F0F"/>
<path d="M14.7346 37.2393H10.1658C9.78099 37.2393 9.46875 37.5515 9.46875 37.9364V42.5056C9.46875 42.8909 9.78099 43.2027 10.1658 43.2027H14.7351C15.1199 43.2027 15.4322 42.8909 15.4322 42.5056V37.9364C15.4322 37.5515 15.1199 37.2393 14.7346 37.2393ZM14.0375 41.8085H10.8629V38.6334H14.038L14.0375 41.8085Z" fill="#0F0F0F"/>
<path d="M22.3884 37.2393H17.8192C17.4343 37.2393 17.1221 37.5515 17.1221 37.9364V42.5056C17.1221 42.8909 17.4343 43.2027 17.8192 43.2027H22.3884C22.7737 43.2027 23.0855 42.8909 23.0855 42.5056V37.9364C23.0855 37.5515 22.7737 37.2393 22.3884 37.2393ZM21.6913 41.8085H18.5163V38.6334H21.6913V41.8085Z" fill="#0F0F0F"/>
<path d="M30.7277 37.2393H26.158C25.7732 37.2393 25.4609 37.5515 25.4609 37.9364V42.5056C25.4609 42.8909 25.7732 43.2027 26.158 43.2027H30.7277C31.1126 43.2027 31.4248 42.8909 31.4248 42.5056V37.9364C31.4248 37.5515 31.1126 37.2393 30.7277 37.2393ZM30.0306 41.8085H26.8551V38.6334H30.0306V41.8085Z" fill="#0F0F0F"/>
<path d="M14.7346 45.2363H10.1658C9.78099 45.2363 9.46875 45.5481 9.46875 45.9334V50.5027C9.46875 50.8875 9.78099 51.1998 10.1658 51.1998H14.7351C15.1199 51.1998 15.4322 50.8875 15.4322 50.5027V45.9334C15.4322 45.5481 15.1199 45.2359 14.7346 45.2363ZM14.0375 49.8056H10.8629V46.6305H14.038L14.0375 49.8056Z" fill="#0F0F0F"/>
<path d="M22.3884 45.2363H17.8192C17.4343 45.2363 17.1221 45.5481 17.1221 45.9334V50.5027C17.1221 50.8875 17.4343 51.1998 17.8192 51.1998H22.3884C22.7737 51.1998 23.0855 50.8875 23.0855 50.5027V45.9334C23.0855 45.5481 22.7737 45.2363 22.3884 45.2363ZM21.6913 49.8056H18.5163V46.6305H21.6913V49.8056Z" fill="#0F0F0F"/>
<path d="M30.7277 45.2363H26.158C25.7732 45.2363 25.4609 45.5481 25.4609 45.9334V50.5027C25.4609 50.8875 25.7732 51.1998 26.158 51.1998H30.7277C31.1126 51.1998 31.4248 50.8875 31.4248 50.5027V45.9334C31.4248 45.5481 31.1126 45.2363 30.7277 45.2363ZM30.0306 49.8056H26.8551V46.6305H30.0306V49.8056Z" fill="#0F0F0F"/>
<path d="M16.6727 20.5986C16.6686 20.5986 16.6646 20.5981 16.6605 20.5981C16.6564 20.5981 16.6523 20.5986 16.6482 20.5986C16.0977 20.5918 15.6552 20.1438 15.6543 19.5933C15.6543 19.2085 15.3425 18.8962 14.9572 18.8962C14.5724 18.8962 14.2601 19.2085 14.2601 19.5933C14.2615 20.6499 14.9527 21.5816 15.9629 21.8897V22.3095C15.9629 22.6949 16.2752 23.0066 16.66 23.0066C17.0453 23.0066 17.3571 22.6949 17.3571 22.3095V21.8897C18.4953 21.5444 19.2088 20.4175 19.0345 19.2407C18.8598 18.0643 17.8495 17.193 16.66 17.1934C16.1045 17.1934 15.6543 16.7428 15.6539 16.1873C15.6539 15.6318 16.1045 15.1811 16.66 15.1811C17.2155 15.1811 17.6662 15.6318 17.6662 16.1873C17.6662 16.5721 17.9784 16.8844 18.3633 16.8844C18.7481 16.8844 19.0604 16.5721 19.0604 16.1873C19.059 15.1307 18.3678 14.199 17.3571 13.8913V13.5487C17.3571 13.1633 17.0453 12.8516 16.66 12.8516C16.2752 12.8516 15.9629 13.1633 15.9629 13.5487V13.8913C14.8252 14.2367 14.1113 15.3636 14.286 16.5399C14.4607 17.7163 15.471 18.5876 16.66 18.5876C17.2123 18.589 17.6598 19.0351 17.663 19.587C17.6666 20.1388 17.2246 20.5904 16.6727 20.5986Z" fill="#0F0F0F"/>
<path d="M24.2908 8.19497H25.7136C26.0989 8.19497 26.4107 7.88319 26.4107 7.49788C26.4107 7.11302 26.0989 6.80078 25.7136 6.80078H24.2908C23.906 6.80078 23.5938 7.11302 23.5938 7.49788C23.5938 7.88319 23.906 8.19497 24.2908 8.19497Z" fill="#0F0F0F"/>
<path d="M14.9578 8.19497H21.833C22.2183 8.19497 22.5301 7.88319 22.5301 7.49788C22.5301 7.11302 22.2183 6.80078 21.833 6.80078H14.9578C14.573 6.80078 14.2607 7.11302 14.2607 7.49788C14.2607 7.88319 14.573 8.19497 14.9578 8.19497Z" fill="#0F0F0F"/>
<path d="M23.1483 21.8424H25.7134C26.0987 21.8424 26.4105 21.5302 26.4105 21.1453C26.4105 20.7605 26.0987 20.4482 25.7134 20.4482H23.1483C22.7634 20.4482 22.4512 20.7605 22.4512 21.1453C22.4512 21.5302 22.7634 21.8424 23.1483 21.8424Z" fill="#0F0F0F"/>
<path d="M21.2462 20.4482H20.8641C20.4792 20.4482 20.167 20.7605 20.167 21.1453C20.167 21.5302 20.4792 21.8424 20.8641 21.8424H21.2462C21.6315 21.8424 21.9433 21.5302 21.9433 21.1453C21.9433 20.7605 21.6315 20.4482 21.2462 20.4482Z" fill="#0F0F0F"/>
<path d="M14.9578 11.6217H21.833C22.2183 11.6217 22.5301 11.3099 22.5301 10.9246C22.5301 10.5398 22.2183 10.2275 21.833 10.2275H14.9578C14.573 10.2275 14.2607 10.5398 14.2607 10.9246C14.2607 11.3099 14.573 11.6217 14.9578 11.6217Z" fill="#0F0F0F"/>
<path d="M24.2908 4.76724H25.7136C26.0989 4.76724 26.4107 4.45545 26.4107 4.07014C26.4107 3.68529 26.0989 3.37305 25.7136 3.37305H24.2908C23.906 3.37305 23.5938 3.68529 23.5938 4.07014C23.5938 4.45545 23.906 4.76724 24.2908 4.76724Z" fill="#0F0F0F"/>
<path d="M14.9578 4.76724H21.833C22.2183 4.76724 22.5301 4.45545 22.5301 4.07014C22.5301 3.68529 22.2183 3.37305 21.833 3.37305H14.9578C14.573 3.37305 14.2607 3.68529 14.2607 4.07014C14.2607 4.45545 14.573 4.76724 14.9578 4.76724Z" fill="#0F0F0F"/>
<path d="M48.0011 25.5751H37.2524V15.6601C37.2515 14.6445 36.4282 13.8207 35.4121 13.8198H31.7523C31.7355 13.8198 31.7192 13.8212 31.7028 13.8221H29.1396V11.3795L35.3168 11.478C35.5033 11.4821 35.6839 11.4099 35.816 11.2779C35.9494 11.1467 36.0243 10.9679 36.0243 10.7814V4.13991C36.0216 1.85484 34.1699 0.00272303 31.8848 0H15.8766C13.5997 0.00226919 11.7544 1.84758 11.7521 4.12448V13.8221H9.02182C7.37621 13.8248 6.04283 15.1582 6.04102 16.8038V53.0156C6.04283 54.6616 7.37666 55.9959 9.02273 55.9977H31.7028C31.7192 55.9986 31.7355 56 31.7523 56H35.4121C36.4282 55.9986 37.2515 55.1754 37.2528 54.1592V51.8773H48.0015C49.0177 51.8755 49.8405 51.0523 49.8418 50.0366V27.4155C49.8405 26.3998 49.0172 25.5765 48.0011 25.5751V25.5751ZM35.8582 15.6601V25.5751H34.8511V16.8038C34.8516 16.2411 34.6914 15.6892 34.39 15.214H35.4121C35.6585 15.2145 35.8582 15.4142 35.8582 15.6601ZM29.1396 18.6432H30.03V24.1033H29.1396V18.6432ZM34.6306 4.13991V10.0729L29.1396 9.98535V4.13991C29.1328 3.15463 29.6547 2.24151 30.507 1.74728C31.3593 1.25259 32.4108 1.25259 33.2631 1.74728C34.115 2.24151 34.6369 3.15463 34.6306 4.13991ZM13.1468 4.12448C13.1481 2.61728 14.3699 1.39555 15.8771 1.39419H28.7906C28.1171 2.14983 27.7449 3.1274 27.7458 4.13991V24.1033H13.1468V4.12448ZM10.8626 24.1033V18.6432H11.753V24.1033H10.8626ZM7.43521 53.0156V16.8038C7.43611 15.9275 8.14637 15.2176 9.02273 15.2163H11.753V17.2495H10.1655C9.78064 17.2495 9.4684 17.5617 9.4684 17.9466V24.8009C9.4684 25.1857 9.78064 25.498 10.1655 25.498H30.7271C31.1119 25.498 31.4242 25.1857 31.4242 24.8009V17.9461C31.4242 17.5613 31.1119 17.249 30.7271 17.249H29.1396V15.2158H31.8699C32.7462 15.2172 33.456 15.927 33.4574 16.8034V53.0151C33.456 53.8915 32.7462 54.6017 31.8699 54.6031H9.02273C8.14637 54.6017 7.43657 53.8919 7.43521 53.0156V53.0156ZM35.8586 54.1592C35.8582 54.4057 35.6585 54.6054 35.4121 54.6058H34.3896C34.6914 54.1302 34.8511 53.5788 34.8507 53.0156V51.8773H35.8582L35.8586 54.1592ZM48.4477 50.0366C48.4472 50.283 48.2475 50.4827 48.0011 50.4831H34.8511V26.9693H48.0011C48.248 26.9698 48.4477 27.1695 48.4477 27.4159V50.0366Z" fill="#0F0F0F"/>
<path d="M44.2316 29.4541C43.1279 29.4536 42.0981 30.0078 41.4904 30.9295C40.8832 31.8508 40.7792 33.0158 41.2145 34.0302C40.6245 35.4053 41.0388 37.0051 42.222 37.9209C43.4056 38.8368 45.058 38.8368 46.2412 37.9209C47.4248 37.0051 47.8392 35.4053 47.2492 34.0302C47.6844 33.0158 47.5805 31.8508 46.9728 30.9295C46.3656 30.0078 45.3353 29.4536 44.2316 29.4541ZM44.2316 30.8483C45.235 30.8497 46.0624 31.6353 46.1159 32.6373C44.9859 31.8417 43.4778 31.8417 42.3477 32.6373C42.4013 31.6353 43.2282 30.8497 44.2316 30.8483V30.8483ZM45.6049 34.0302C45.2496 34.4105 44.7522 34.626 44.2316 34.626C43.711 34.626 43.2141 34.4105 42.8583 34.0302C43.2141 33.6498 43.711 33.4343 44.2316 33.4343C44.7522 33.4343 45.2496 33.6498 45.6049 34.0302ZM44.2316 37.2129C43.2282 37.2111 42.4013 36.4255 42.3477 35.4234C43.4778 36.219 44.9859 36.219 46.1159 35.4234C46.0624 36.4255 45.235 37.2111 44.2316 37.2129V37.2129Z" fill="#0F0F0F"/>
<path d="M45.6746 43.2559C45.2898 43.2559 44.9775 43.5681 44.9775 43.953V43.9725C44.9775 44.3573 45.2898 44.6696 45.6746 44.6696C46.0595 44.6696 46.3717 44.3573 46.3717 43.9725V43.953C46.3717 43.5681 46.0595 43.2559 45.6746 43.2559Z" fill="#0F0F0F"/>
<path d="M45.6746 44.9131C45.2898 44.9131 44.9775 45.2253 44.9775 45.6102V48.7861C44.9775 49.171 45.2898 49.4832 45.6746 49.4832C46.0595 49.4832 46.3717 49.171 46.3717 48.7861V45.6102C46.3717 45.2253 46.0595 44.9131 45.6746 44.9131Z" fill="#0F0F0F"/>
<path d="M43.3465 43.2559C42.9617 43.2559 42.6494 43.5681 42.6494 43.953V47.1162C42.6494 47.5011 42.9617 47.8133 43.3465 47.8133C43.7318 47.8133 44.0436 47.5011 44.0436 47.1162V43.953C44.0436 43.5681 43.7318 43.2559 43.3465 43.2559Z" fill="#0F0F0F"/>
<path d="M43.3465 48.0566C42.9617 48.0566 42.6494 48.3684 42.6494 48.7537V48.7855C42.6494 49.1704 42.9617 49.4826 43.3465 49.4826C43.7318 49.4826 44.0436 49.1704 44.0436 48.7855V48.7537C44.0436 48.3684 43.7318 48.0566 43.3465 48.0566Z" fill="black"/>
<path d="M39.5547 23.887C39.5547 24.2719 39.8669 24.5841 40.2518 24.5841C40.6366 24.5841 40.9489 24.2719 40.9489 23.887V16.4813C40.9489 16.0964 40.6366 15.7842 40.2518 15.7842C39.8669 15.7842 39.5547 16.0964 39.5547 16.4813V23.887Z" fill="#0F0F0F"/>
<path d="M39.5547 13.9899C39.5547 14.3747 39.8669 14.687 40.2518 14.687C40.6366 14.687 40.9489 14.3747 40.9489 13.9899V12.0828C40.9489 11.698 40.6366 11.3857 40.2518 11.3857C39.8669 11.3857 39.5547 11.698 39.5547 12.0828V13.9899Z" fill="#0F0F0F"/>
<path d="M40.2518 10.6125C40.6366 10.6125 40.9489 10.3003 40.9489 9.91542V9.56233C40.9489 9.17702 40.6366 8.86523 40.2518 8.86523C39.8669 8.86523 39.5547 9.17702 39.5547 9.56233V9.91542C39.5547 10.3003 39.8669 10.6125 40.2518 10.6125Z" fill="#0F0F0F"/>
<path d="M43.04 23.8872C43.04 24.2721 43.3523 24.5843 43.7371 24.5843C44.122 24.5843 44.4342 24.2721 44.4342 23.8872V23.452C44.4342 23.0671 44.122 22.7549 43.7371 22.7549C43.3523 22.7549 43.04 23.0671 43.04 23.452V23.8872Z" fill="#0F0F0F"/>
<path d="M43.04 20.9613C43.04 21.3461 43.3523 21.6584 43.7371 21.6584C44.122 21.6584 44.4342 21.3461 44.4342 20.9613V17.8924C44.4342 17.5076 44.122 17.1953 43.7371 17.1953C43.3523 17.1953 43.04 17.5076 43.04 17.8924V20.9613Z" fill="#0F0F0F"/>
<path d="M43.7371 16.0682C44.122 16.0682 44.4342 15.7559 44.4342 15.3711V14.5623C44.4342 14.1775 44.122 13.8652 43.7371 13.8652C43.3523 13.8652 43.04 14.1775 43.04 14.5623V15.3711C43.04 15.7559 43.3523 16.0682 43.7371 16.0682Z" fill="#0F0F0F"/>
<path d="M46.5254 23.8869C46.5254 24.2717 46.8376 24.584 47.2225 24.584C47.6073 24.584 47.9196 24.2717 47.9196 23.8869V19.9666C47.9196 19.5818 47.6073 19.2695 47.2225 19.2695C46.8376 19.2695 46.5254 19.5818 46.5254 19.9666V23.8869Z" fill="#0F0F0F"/>
<path d="M46.5254 17.4755C46.5254 17.8604 46.8376 18.1726 47.2225 18.1726C47.6073 18.1726 47.9196 17.8604 47.9196 17.4755V16.7303C47.9196 16.3454 47.6073 16.0332 47.2225 16.0332C46.8376 16.0332 46.5254 16.3454 46.5254 16.7303V17.4755Z" fill="#0F0F0F"/>
<path d="M47.2225 8.54304C47.6073 8.54304 47.9196 8.23125 47.9196 7.84595V6.42952C47.9196 6.04466 47.6073 5.73242 47.2225 5.73242C46.8376 5.73242 46.5254 6.04466 46.5254 6.42952V7.84595C46.5254 8.23125 46.8376 8.54304 47.2225 8.54304Z" fill="#0F0F0F"/>
<path d="M46.5254 14.209C46.5254 14.5939 46.8376 14.9061 47.2225 14.9061C47.6073 14.9061 47.9196 14.5939 47.9196 14.209V10.3192C47.9196 9.93386 47.6073 9.62207 47.2225 9.62207C46.8376 9.62207 46.5254 9.93386 46.5254 10.3192V14.209Z" fill="#0F0F0F"/>
</svg>
