<svg width="64" height="64" viewBox="0 0 64 64" fill="none" xmlns="http://www.w3.org/2000/svg">
<path d="M54.3867 37.2747L54.0902 37.4347C52.8925 35.9812 50.8173 35.4179 49.2363 36.2192C49.2307 36.2219 49.2251 36.2249 49.2196 36.2278L48.5196 36.6047C47.6848 35.8978 46.6522 35.4657 45.5628 35.3673C44.4733 35.2688 43.3801 35.5089 42.4321 36.0547L38.6627 38.1047H33.647C32.5609 38.1032 31.489 37.8576 30.5107 37.3861L29.8207 37.0523C27.8563 36.0965 25.6657 35.703 23.4914 35.9153C21.3172 36.1277 19.2441 36.9376 17.5017 38.2554C17.4853 38.2679 17.4693 38.2804 17.4541 38.2946L15.7882 39.7776C15.1586 40.3367 14.4145 40.7515 13.6078 40.9929L12.6617 37.8872C12.6148 37.7335 12.5198 37.5989 12.3907 37.5032C12.2615 37.4076 12.105 37.3559 11.9443 37.3559H3.88771C3.78155 37.3559 3.67661 37.3785 3.57981 37.422C3.48302 37.4656 3.39657 37.5293 3.3262 37.6087C3.25583 37.6882 3.20312 37.7817 3.17158 37.8831C3.14003 37.9844 3.13036 38.0913 3.14321 38.1967L5.82871 60.2167C5.85087 60.3985 5.93883 60.566 6.07599 60.6874C6.21314 60.8089 6.39001 60.8759 6.57321 60.8759H18.6575C18.7747 60.8759 18.8902 60.8485 18.9949 60.7957C19.0996 60.743 19.1904 60.6665 19.2602 60.5723C19.3299 60.4781 19.3766 60.3689 19.3965 60.2534C19.4165 60.1379 19.409 60.0193 19.3748 59.9072L17.7873 54.6979L22.7316 51.5729C23.3931 51.2069 24.1693 51.1065 24.9022 51.2921C24.9177 51.2959 24.9333 51.2994 24.9491 51.3022L35.0065 53.1542C37.7397 53.6433 40.5576 53.2454 43.0486 52.0187C43.0804 52.003 43.1111 51.985 43.1403 51.9649L60.5358 40.0209C60.6934 39.9127 60.8037 39.7484 60.8443 39.5616C60.8848 39.3748 60.8524 39.1796 60.7538 39.0158C60.1209 37.9616 59.1056 37.1922 57.9196 36.8679C56.7335 36.5436 55.468 36.6893 54.3867 37.2747V37.2747ZM49.9221 37.5532C50.8365 37.0953 51.9876 37.4707 52.7228 38.1723L46.1263 41.7311L45.7388 41.9352C45.5299 41.3421 45.2247 40.7875 44.8353 40.2938L49.9221 37.5532ZM43.158 37.3676C43.1638 37.3642 43.1705 37.3609 43.1757 37.3574C43.7665 37.0159 44.4381 36.8392 45.1205 36.8456C45.8029 36.852 46.471 37.0414 47.0553 37.3939L43.7015 39.1997C43.0621 38.733 42.3325 38.4047 41.5592 38.2356L43.158 37.3676ZM7.23671 59.3759L4.73483 38.8559H11.3885L17.6447 59.3759H7.23671ZM42.3347 50.6971C40.1446 51.7632 37.6726 52.1067 35.2748 51.6781L25.2422 49.8306C24.1387 49.5581 22.9728 49.7161 21.9816 50.2724C21.97 50.2788 21.9583 50.2858 21.947 50.2931L17.3326 53.2102L14.0451 42.4288C15.0588 42.1233 15.9937 41.6005 16.7847 40.8967L18.4271 39.4342C19.9487 38.2902 21.7566 37.5884 23.6516 37.4061C25.5465 37.2238 27.455 37.5681 29.1668 38.4011L29.8567 38.7348C31.0388 39.3046 32.3338 39.6013 33.6461 39.6031H40.3367C41.3199 39.6045 42.272 39.9482 43.0293 40.5753C43.7866 41.2024 44.3019 42.0736 44.4867 43.0393L39.6373 42.8199C37.8744 42.7407 36.1079 42.8223 34.3598 43.0638C34.1643 43.0928 33.9882 43.1978 33.8697 43.356C33.7512 43.5142 33.6999 43.7128 33.727 43.9086C33.7542 44.1043 33.8574 44.2815 34.0145 44.4015C34.1715 44.5216 34.3695 44.5748 34.5656 44.5496C36.223 44.3205 37.8979 44.2432 39.5695 44.3186L45.2765 44.5767C45.2878 44.5767 45.2992 44.5774 45.3105 44.5774C45.5094 44.5774 45.7001 44.4984 45.8408 44.3578C45.9814 44.2171 46.0605 44.0264 46.0605 43.8274C46.0605 43.7061 46.0553 43.5858 46.048 43.4662L46.8306 43.0537L55.0992 38.5942C55.7342 38.2503 56.4651 38.1259 57.1781 38.2401C57.8912 38.3544 58.5465 38.7011 59.0422 39.2262L42.3347 50.6971Z" fill="#0F0F0F"/>
<path d="M9.62207 56.2734C9.62207 56.7404 9.76056 57.1969 10.02 57.5852C10.2795 57.9735 10.6482 58.2761 11.0797 58.4549C11.5112 58.6336 11.9859 58.6803 12.444 58.5892C12.902 58.4981 13.3227 58.2732 13.653 57.943C13.9832 57.6128 14.2081 57.1921 14.2992 56.734C14.3903 56.276 14.3435 55.8012 14.1648 55.3697C13.9861 54.9383 13.6835 54.5695 13.2952 54.3101C12.9069 54.0506 12.4503 53.9121 11.9833 53.9121C11.3573 53.9128 10.7571 54.1618 10.3144 54.6045C9.87176 55.0471 9.62277 55.6473 9.62207 56.2734V56.2734ZM11.9833 55.4121C12.1537 55.4121 12.3202 55.4626 12.4618 55.5573C12.6034 55.6519 12.7138 55.7864 12.779 55.9438C12.8442 56.1011 12.8613 56.2743 12.828 56.4414C12.7948 56.6084 12.7128 56.7619 12.5923 56.8824C12.4719 57.0028 12.3184 57.0848 12.1513 57.1181C11.9843 57.1513 11.8111 57.1342 11.6537 57.069C11.4964 57.0039 11.3619 56.8935 11.2672 56.7518C11.1726 56.6102 11.1221 56.4437 11.1221 56.2734C11.1225 56.0451 11.2133 55.8263 11.3748 55.6649C11.5362 55.5035 11.755 55.4127 11.9833 55.4124V55.4121Z" fill="#0F0F0F"/>
<path d="M37.7023 11.2882V8.81671C37.6952 7.31147 37.0923 5.87029 36.0255 4.80841C34.9586 3.74653 33.5146 3.15039 32.0093 3.15039C30.5041 3.15039 29.0601 3.74653 27.9932 4.80841C26.9264 5.87029 26.3235 7.31147 26.3164 8.81671V11.2882C26.3235 12.7935 26.9264 14.2346 27.9932 15.2965C29.0601 16.3584 30.5041 16.9545 32.0093 16.9545C33.5146 16.9545 34.9586 16.3584 36.0255 15.2965C37.0923 14.2346 37.6952 12.7935 37.7023 11.2882ZM27.8164 11.2882V8.81671C27.8225 7.70864 28.2669 6.64802 29.0525 5.86663C29.8382 5.08523 30.9013 4.64661 32.0093 4.64661C33.1174 4.64661 34.1805 5.08523 34.9661 5.86663C35.7518 6.64802 36.1962 7.70864 36.2023 8.81671V11.2882C36.1962 12.3963 35.7518 13.4569 34.9661 14.2383C34.1805 15.0197 33.1174 15.4583 32.0093 15.4583C30.9013 15.4583 29.8382 15.0197 29.0525 14.2383C28.2669 13.4569 27.8225 12.3963 27.8164 11.2882V11.2882Z" fill="#0F0F0F"/>
<path d="M22.8335 32.4283H41.1862C41.3852 32.4283 41.5759 32.3493 41.7166 32.2087C41.8572 32.068 41.9362 31.8773 41.9362 31.6784V29.9569H54.5C54.6989 29.9569 54.8897 29.8778 55.0303 29.7372C55.171 29.5965 55.25 29.4058 55.25 29.2069V24.3389C55.2492 22.9105 54.7047 21.5359 53.727 20.4945C52.7494 19.4531 51.412 18.8228 49.9865 18.7318C49.5865 18.7025 49.3809 18.9557 49.2141 19.1591C48.8823 19.5645 48.4623 19.8888 47.9862 20.1073C47.5101 20.3258 46.9903 20.4328 46.4666 20.42C45.9429 20.4072 45.429 20.275 44.9641 20.0335C44.4991 19.792 44.0955 19.4476 43.7839 19.0265C43.7123 18.9296 43.6184 18.8513 43.5101 18.7984C43.4019 18.7454 43.2825 18.7194 43.162 18.7223C42.1877 18.7442 41.2363 19.0218 40.4031 19.5272C39.853 18.8876 39.1802 18.3648 38.4244 17.99C37.6686 17.6151 36.8452 17.3957 36.0031 17.3449C35.6156 17.3291 35.4196 17.5643 35.2298 17.7948C34.8404 18.2706 34.3476 18.6513 33.7889 18.9077C33.2301 19.1642 32.6202 19.2897 32.0056 19.2747C31.3911 19.2597 30.788 19.1045 30.2424 18.8211C29.6969 18.5377 29.2233 18.1335 28.8576 17.6392C28.7861 17.5422 28.6923 17.4639 28.584 17.4109C28.4757 17.358 28.3562 17.332 28.2358 17.3352C26.591 17.3733 25.0269 18.0555 23.8801 19.2352C23.7854 19.3321 23.6955 19.4325 23.6079 19.5343C22.8334 19.0629 21.9557 18.7873 21.0508 18.7316C20.6521 18.7022 20.445 18.9555 20.2784 19.1588C19.9466 19.5643 19.5266 19.8886 19.0505 20.1071C18.5743 20.3256 18.0546 20.4325 17.5309 20.4197C17.0072 20.4069 16.4933 20.2748 16.0284 20.0333C15.5635 19.7918 15.1599 19.4473 14.8483 19.0262C14.7765 18.9294 14.6826 18.8513 14.5744 18.7983C14.4662 18.7454 14.3468 18.7193 14.2264 18.7221C12.7614 18.7594 11.369 19.3675 10.3459 20.4168C9.32288 21.466 8.75021 22.8734 8.75 24.3389V29.2069C8.75 29.4058 8.82902 29.5965 8.96967 29.7372C9.11032 29.8778 9.30109 29.9569 9.5 29.9569H22.0835V31.6784C22.0835 31.8773 22.1625 32.068 22.3032 32.2087C22.4438 32.3493 22.6346 32.4283 22.8335 32.4283V32.4283ZM42.8418 20.2461C43.3041 20.7709 43.8727 21.1916 44.5097 21.4804C45.1468 21.7692 45.8379 21.9195 46.5374 21.9213C47.2369 21.9231 47.9287 21.7765 48.5673 21.491C49.2059 21.2056 49.7766 20.7879 50.2417 20.2655C51.217 20.4126 52.1073 20.9045 52.751 21.6518C53.3946 22.3992 53.7491 23.3525 53.75 24.3389V28.4569H41.9362V23.6455C41.937 22.6467 41.6994 21.6622 41.2431 20.7737C41.7332 20.4879 42.2778 20.3082 42.8418 20.2461V20.2461ZM27.9125 18.858C28.4311 19.4583 29.0725 19.9403 29.7935 20.2712C30.5144 20.6022 31.2981 20.7744 32.0913 20.7763C32.8846 20.7782 33.6691 20.6097 34.3916 20.2821C35.1141 19.9546 35.7578 19.4757 36.2793 18.8778C37.4309 19.0371 38.486 19.6075 39.2501 20.4837C40.0142 21.3599 40.4357 22.4829 40.4367 23.6455V30.9284H23.5835V23.6455C23.5909 22.455 24.0364 21.309 24.8348 20.426C25.6332 19.543 26.7288 18.9848 27.9125 18.858V18.858ZM10.25 28.4569V24.3389C10.2563 23.3283 10.6314 22.3549 11.3047 21.6014C11.978 20.8479 12.9033 20.3661 13.9067 20.2466C14.3691 20.7713 14.9376 21.1918 15.5746 21.4805C16.2116 21.7691 16.9026 21.9193 17.6019 21.9211C18.3013 21.9229 18.993 21.7762 19.6315 21.4908C20.2699 21.2054 20.8406 20.7878 21.3056 20.2655C21.822 20.3427 22.3189 20.518 22.7694 20.782C22.3172 21.6687 22.0821 22.6501 22.0835 23.6455V28.4569H10.25Z" fill="#0F0F0F"/>
<path d="M51.5446 13.5221V11.3587C51.5446 10.0124 51.0098 8.72113 50.0577 7.7691C49.1057 6.81707 47.8145 6.28223 46.4681 6.28223C45.1217 6.28223 43.8305 6.81707 42.8785 7.7691C41.9264 8.72113 41.3916 10.0124 41.3916 11.3587V13.5221C41.3916 14.8685 41.9264 16.1597 42.8785 17.1117C43.8305 18.0638 45.1217 18.5986 46.4681 18.5986C47.8145 18.5986 49.1057 18.0638 50.0577 17.1117C51.0098 16.1597 51.5446 14.8685 51.5446 13.5221V13.5221ZM42.8916 13.5221V11.3587C42.8916 10.4102 43.2684 9.50048 43.9391 8.82976C44.6099 8.15904 45.5196 7.78223 46.4681 7.78223C47.4166 7.78223 48.3263 8.15904 48.9971 8.82976C49.6678 9.50048 50.0446 10.4102 50.0446 11.3587V13.5221C50.0446 14.4706 49.6678 15.3803 48.9971 16.0511C48.3263 16.7218 47.4166 17.0986 46.4681 17.0986C45.5196 17.0986 44.6099 16.7218 43.9391 16.0511C43.2684 15.3803 42.8916 14.4706 42.8916 13.5221V13.5221Z" fill="#0F0F0F"/>
<path d="M22.6081 13.5221V11.3587C22.6081 10.6921 22.4768 10.0319 22.2216 9.41603C21.9665 8.80012 21.5926 8.2405 21.1212 7.7691C20.6498 7.2977 20.0902 6.92377 19.4743 6.66865C18.8584 6.41353 18.1982 6.28223 17.5316 6.28223C16.8649 6.28223 16.2048 6.41353 15.5889 6.66865C14.973 6.92377 14.4133 7.2977 13.9419 7.7691C13.4706 8.2405 13.0966 8.80012 12.8415 9.41603C12.5864 10.0319 12.4551 10.6921 12.4551 11.3587V13.5221C12.4551 14.1888 12.5864 14.8489 12.8415 15.4648C13.0966 16.0807 13.4706 16.6403 13.9419 17.1117C14.4133 17.5831 14.973 17.9571 15.5889 18.2122C16.2048 18.4673 16.8649 18.5986 17.5316 18.5986C18.1982 18.5986 18.8584 18.4673 19.4743 18.2122C20.0902 17.9571 20.6498 17.5831 21.1212 17.1117C21.5926 16.6403 21.9665 16.0807 22.2216 15.4648C22.4768 14.8489 22.6081 14.1888 22.6081 13.5221V13.5221ZM13.9551 13.5221V11.3587C13.9551 10.4102 14.3319 9.50048 15.0026 8.82976C15.6733 8.15904 16.583 7.78223 17.5316 7.78223C18.4801 7.78223 19.3898 8.15904 20.0605 8.82976C20.7313 9.50048 21.1081 10.4102 21.1081 11.3587V13.5221C21.1081 13.9918 21.0156 14.4568 20.8358 14.8908C20.6561 15.3247 20.3926 15.719 20.0605 16.0511C19.7284 16.3832 19.3342 16.6466 18.9002 16.8264C18.4663 17.0061 18.0012 17.0986 17.5316 17.0986C17.0619 17.0986 16.5968 17.0061 16.1629 16.8264C15.729 16.6466 15.3347 16.3832 15.0026 16.0511C14.6705 15.719 14.4071 15.3247 14.2273 14.8908C14.0476 14.4568 13.9551 13.9918 13.9551 13.5221V13.5221Z" fill="#0F0F0F"/>
</svg>
