<svg width="56" height="56" viewBox="0 0 56 56" fill="none" xmlns="http://www.w3.org/2000/svg">
<g clip-path="url(#clip0)">
<path d="M28.953 0H18.4985C13.7686 0.00520809 9.93594 3.83836 9.93026 8.56825V18.4257H6.54785C4.80835 18.4276 3.39838 19.8376 3.39648 21.5771V46.7856C3.39838 48.5251 4.80835 49.9351 6.54785 49.937H34.672C36.2377 54.2427 40.7304 56.743 45.215 55.8046C49.6996 54.8667 52.8131 50.775 52.5215 46.2023C52.2303 41.6301 48.6225 37.9665 44.055 37.6052V21.5771C44.0531 19.8376 42.6432 18.4276 40.9037 18.4257H37.5213V8.56825C37.5156 3.83836 33.6829 0.00520809 28.953 0ZM36.0668 8.56825V18.4257H34.9073V8.56825C34.9035 5.281 32.2398 2.6173 28.953 2.61351H26.4129V1.45448H28.953C32.8799 1.45874 36.062 4.64135 36.0668 8.56825V8.56825ZM22.4926 2.61351V1.45448H24.9584V2.61351H22.4926ZM28.953 4.06799C31.4373 4.07083 33.45 6.08399 33.4528 8.56825V18.4257H13.9987V8.56825C14.0016 6.08399 16.0142 4.07083 18.4985 4.06799H28.953ZM11.3847 8.56825C11.3895 4.64135 14.5716 1.45874 18.4985 1.45448H21.0382V2.61351H18.4985C15.2117 2.6173 12.548 5.281 12.5442 8.56825V18.4257H11.3847V8.56825ZM51.085 46.7856C51.085 51.07 47.6122 54.5429 43.3278 54.5429C39.0434 54.5429 35.5706 51.07 35.5706 46.7856C35.5706 42.5013 39.0434 39.0284 43.3278 39.0284C47.6098 39.0332 51.0803 42.5037 51.085 46.7856ZM42.6006 21.5771V37.6052C39.9951 37.8083 37.5989 39.1103 36.0104 41.1855C34.422 43.2612 33.7909 45.9145 34.2757 48.4825H6.54785C5.61087 48.4816 4.85191 47.7226 4.85096 46.7856V21.5771C4.85191 20.6406 5.61087 19.8816 6.54785 19.8802H40.9037C41.8407 19.8816 42.5996 20.6406 42.6006 21.5771V21.5771Z" fill="#0F0F0F"/>
<path d="M20.2409 35.7181C21.0226 35.7181 21.6561 35.0846 21.6561 34.3029C21.6561 33.5212 21.0226 32.8877 20.2414 32.8877C19.4597 32.8877 18.8262 33.5212 18.8262 34.3029C18.8271 35.0841 19.4597 35.7171 20.2409 35.7181ZM20.2409 34.2636C20.2627 34.2636 20.2802 34.2811 20.2802 34.3029C20.2802 34.3247 20.2627 34.3422 20.2409 34.3422C20.2191 34.3422 20.2016 34.3247 20.2016 34.3029C20.2016 34.2811 20.2191 34.2636 20.2409 34.2636Z" fill="#0F0F0F"/>
<path d="M27.2101 35.7181C27.9913 35.7181 28.6248 35.0841 28.6248 34.3029C28.6248 33.5212 27.9913 32.8877 27.2101 32.8877C26.4284 32.8877 25.7949 33.5212 25.7949 34.3029C25.7959 35.0841 26.4289 35.7171 27.2101 35.7181ZM27.2101 34.2636C27.2319 34.2636 27.2494 34.2811 27.2494 34.3029C27.2494 34.3247 27.2314 34.3422 27.2096 34.3422C27.1878 34.3422 27.1703 34.3247 27.1703 34.3029C27.1703 34.2811 27.1883 34.2636 27.2101 34.2636Z" fill="#0F0F0F"/>
<path d="M34.1789 35.7181C34.9605 35.7181 35.594 35.0841 35.594 34.3029C35.594 33.5212 34.9605 32.8877 34.1789 32.8877C33.3972 32.8877 32.7637 33.5212 32.7637 34.3029C32.7646 35.0841 33.3976 35.7171 34.1789 35.7181V35.7181ZM34.1789 34.2636C34.2006 34.2636 34.2181 34.2811 34.2181 34.3029C34.2181 34.3247 34.2006 34.3422 34.1789 34.3422C34.1571 34.3422 34.1396 34.3247 34.1396 34.3029C34.1396 34.2811 34.1571 34.2636 34.1789 34.2636Z" fill="#0F0F0F"/>
<path d="M13.2726 35.7181C14.0538 35.7181 14.6878 35.0841 14.6878 34.3029C14.6878 33.5212 14.0538 32.8877 13.2726 32.8877C12.4909 32.8877 11.8574 33.5212 11.8574 34.3029C11.8584 35.0841 12.4914 35.7171 13.2726 35.7181ZM13.2726 34.2636C13.2944 34.2636 13.3119 34.2811 13.3119 34.3029C13.3119 34.3247 13.2944 34.3422 13.2726 34.3422C13.2508 34.3422 13.2333 34.3247 13.2333 34.3029C13.2333 34.2811 13.2508 34.2636 13.2726 34.2636Z" fill="#0F0F0F"/>
<path d="M39.761 45.9129C39.4769 45.6288 39.0163 45.6288 38.7322 45.9129C38.4486 46.1969 38.4486 46.6571 38.7326 46.9412L41.6923 49.9008C41.9759 50.1849 42.4365 50.1849 42.7206 49.9008L47.924 44.6975C48.2081 44.4139 48.2081 43.9532 47.924 43.6691C47.6399 43.385 47.1792 43.385 46.8951 43.6691L42.2064 48.3588L39.761 45.9129Z" fill="#0F0F0F"/>
</g>
<defs>
<clipPath id="clip0">
<rect width="56" height="56" fill="white"/>
</clipPath>
</defs>
</svg>
