<svg width="64" height="64" viewBox="0 0 64 64" fill="none" xmlns="http://www.w3.org/2000/svg">
<path d="M50.3015 23.5115C50.9034 23.5087 51.4864 23.3015 51.9551 22.9238C52.4237 22.5461 52.75 22.0204 52.8805 21.4329C52.9369 21.1792 53.0778 20.9523 53.2801 20.7893C53.4824 20.6262 53.7341 20.5368 53.9939 20.5356H57.2832C57.4618 21.0866 57.8312 21.5557 58.3249 21.8586C58.8186 22.1615 59.4042 22.2782 59.9763 22.1878C60.5484 22.0974 61.0694 21.8058 61.4457 21.3654C61.8219 20.925 62.0286 20.3648 62.0286 19.7856C62.0286 19.2064 61.8219 18.6462 61.4457 18.2059C61.0694 17.7655 60.5484 17.4739 59.9763 17.3834C59.4042 17.293 58.8186 17.4098 58.3249 17.7126C57.8312 18.0155 57.4618 18.4847 57.2832 19.0356H53.9939C53.392 19.0384 52.809 19.2456 52.3403 19.6233C51.8717 20.0009 51.5453 20.5267 51.4148 21.1143C51.3584 21.3679 51.2176 21.5948 51.0153 21.7578C50.813 21.9209 50.5613 22.0103 50.3015 22.0115H47.7497V10.125C47.7479 8.60054 47.1415 7.13903 46.0636 6.06107C44.9856 4.98312 43.5241 4.37675 41.9997 4.375H21.9997C20.4752 4.37675 19.0137 4.98312 17.9357 6.06107C16.8578 7.13903 16.2514 8.60054 16.2497 10.125V22.0115H13.6978C13.438 22.0103 13.1863 21.9209 12.984 21.7578C12.7818 21.5948 12.6409 21.3679 12.5845 21.1143C12.454 20.5267 12.1276 20.0009 11.659 19.6233C11.1904 19.2456 10.6073 19.0384 10.0054 19.0356H6.71617C6.53755 18.4847 6.16815 18.0155 5.67445 17.7126C5.18074 17.4098 4.59515 17.293 4.02305 17.3834C3.45094 17.4739 2.92989 17.7655 2.55366 18.2059C2.17742 18.6462 1.9707 19.2064 1.9707 19.7856C1.9707 20.3648 2.17742 20.925 2.55366 21.3654C2.92989 21.8058 3.45094 22.0974 4.02305 22.1878C4.59515 22.2782 5.18074 22.1615 5.67445 21.8586C6.16815 21.5557 6.53755 21.0866 6.71617 20.5356H10.0054C10.2652 20.5368 10.5169 20.6262 10.7192 20.7893C10.9215 20.9523 11.0624 21.1792 11.1188 21.4329C11.2493 22.0204 11.5757 22.5461 12.0443 22.9238C12.5129 23.3015 13.0959 23.5087 13.6978 23.5115H16.2497V28.7165H15.992C15.6418 28.7171 15.2993 28.6137 15.0079 28.4194C14.7166 28.225 14.4895 27.9486 14.3554 27.625C14.1078 27.0279 13.6884 26.5178 13.1505 26.1593C12.6127 25.8008 11.9805 25.61 11.334 25.6112H10.7272C10.5485 25.0603 10.1792 24.5911 9.68545 24.2883C9.19174 23.9854 8.60615 23.8686 8.03405 23.9591C7.46195 24.0495 6.94089 24.3411 6.56466 24.7815C6.18842 25.2219 5.9817 25.782 5.9817 26.3612C5.9817 26.9405 6.18842 27.5006 6.56466 27.941C6.94089 28.3814 7.46195 28.673 8.03405 28.7634C8.60615 28.8539 9.19174 28.7371 9.68545 28.4342C10.1792 28.1314 10.5485 27.6622 10.7272 27.1112H11.334C11.6842 27.1106 12.0268 27.214 12.3181 27.4082C12.6095 27.6025 12.8367 27.8789 12.9708 28.2024C13.2183 28.7995 13.6376 29.3097 14.1755 29.6683C14.7134 30.0269 15.3456 30.2177 15.992 30.2165H16.2497V32.2454L13.1922 32.2309C12.5733 32.2304 11.9658 32.3975 11.4343 32.7144C10.9027 33.0313 10.4668 33.4862 10.1729 34.0309C10.0075 34.3376 9.76209 34.5938 9.46278 34.7723C9.16346 34.9507 8.8214 35.0448 8.47292 35.0445H7.27854C7.09143 34.4973 6.7152 34.0348 6.21754 33.7403C5.71987 33.4457 5.13343 33.3385 4.56371 33.4377C3.994 33.537 3.47839 33.8363 3.10966 34.2818C2.74093 34.7273 2.54326 35.2897 2.55222 35.8679C2.56119 36.4462 2.77619 37.0022 3.15855 37.4361C3.54092 37.8699 4.06555 38.1531 4.63807 38.2347C5.21058 38.3162 5.79342 38.1908 6.28172 37.881C6.77001 37.5711 7.13173 37.0972 7.30179 36.5445H8.47329C9.09223 36.5449 9.69973 36.3777 10.2313 36.0607C10.7629 35.7437 11.1987 35.2886 11.4925 34.7439C11.6576 34.4377 11.9023 34.1818 12.2009 34.0034C12.4995 33.825 12.8407 33.7307 13.1885 33.7304L16.2497 33.745V39.0648H15.9558C15.1329 39.0681 14.3329 39.3361 13.6739 39.829C13.015 40.322 12.5321 41.0138 12.2965 41.8022C12.1537 42.2807 11.8607 42.7005 11.4609 42.9996C11.0611 43.2987 10.5757 43.4613 10.0764 43.4634H8.80254C8.62392 42.9124 8.25453 42.4433 7.76082 42.1404C7.26712 41.8375 6.68153 41.7208 6.10942 41.8112C5.53732 41.9016 5.01627 42.1932 4.64003 42.6336C4.2638 43.074 4.05708 43.6342 4.05708 44.2134C4.05708 44.7926 4.2638 45.3528 4.64003 45.7931C5.01627 46.2335 5.53732 46.5251 6.10942 46.6156C6.68153 46.706 7.26712 46.5892 7.76082 46.2864C8.25453 45.9835 8.62392 45.5144 8.80254 44.9634H10.0764C10.8993 44.96 11.6993 44.6921 12.3583 44.1991C13.0172 43.7062 13.5001 43.0144 13.7357 42.2259C13.8785 41.7474 14.1715 41.3276 14.5713 41.0285C14.9711 40.7293 15.4565 40.5667 15.9558 40.5646H16.2497V53.875C16.2514 55.3995 16.8578 56.861 17.9357 57.9389C19.0137 59.0169 20.4752 59.6232 21.9997 59.625H41.9997C43.5241 59.6232 44.9856 59.0169 46.0636 57.9389C47.1415 56.861 47.7479 55.3995 47.7497 53.875V40.5653H48.0435C48.5429 40.5673 49.0283 40.7299 49.4281 41.0291C49.8279 41.3282 50.1208 41.748 50.2637 42.2265C50.4992 43.015 50.9821 43.7068 51.6411 44.1997C52.3 44.6927 53.1 44.9606 53.9229 44.964H55.1968C55.3754 45.515 55.7448 45.9841 56.2385 46.287C56.7322 46.5899 57.3178 46.7066 57.8899 46.6162C58.462 46.5258 58.9831 46.2341 59.3593 45.7938C59.7355 45.3534 59.9423 44.7932 59.9423 44.214C59.9423 43.6348 59.7355 43.0746 59.3593 42.6342C58.9831 42.1939 58.462 41.9022 57.8899 41.8118C57.3178 41.7214 56.7322 41.8381 56.2385 42.141C55.7448 42.4439 55.3754 42.913 55.1968 43.464H53.9229C53.4236 43.462 52.9382 43.2994 52.5384 43.0002C52.1386 42.7011 51.8456 42.2813 51.7028 41.8029C51.4672 41.0144 50.9843 40.3226 50.3254 39.8296C49.6665 39.3367 48.8665 39.0687 48.0435 39.0654H47.7497V33.7455L50.8072 33.7309C51.1556 33.7306 51.4977 33.8246 51.797 34.0031C52.0963 34.1815 52.3417 34.4377 52.5072 34.7444C52.801 35.2891 53.2368 35.7442 53.7684 36.0612C54.3 36.3782 54.9075 36.5454 55.5264 36.545H56.6979C56.868 37.0997 57.2305 37.5754 57.7202 37.8866C58.2098 38.1977 58.7945 38.3239 59.3689 38.2424C59.9433 38.1608 60.4697 37.8769 60.8534 37.4417C61.2371 37.0066 61.4529 36.4488 61.4618 35.8687C61.4708 35.2886 61.2725 34.7243 60.9024 34.2775C60.5324 33.8306 60.015 33.5305 59.4434 33.4312C58.8718 33.3319 58.2836 33.4399 57.7845 33.7358C57.2854 34.0316 56.9084 34.4959 56.7212 35.045H55.5264C55.1779 35.0453 54.8359 34.9512 54.5366 34.7728C54.2372 34.5943 53.9918 34.3381 53.8264 34.0314C53.5321 33.4863 53.0956 33.0311 52.5634 32.7142C52.0311 32.3973 51.423 32.2304 50.8035 32.2314L47.7497 32.2454V30.2165H48.0073C48.6537 30.2177 49.286 30.0269 49.8238 29.6683C50.3617 29.3097 50.781 28.7995 51.0285 28.2024C51.1626 27.8789 51.3898 27.6025 51.6812 27.4082C51.9726 27.214 52.3151 27.1106 52.6653 27.1112H53.2722C53.4508 27.6622 53.8202 28.1314 54.3139 28.4342C54.8076 28.7371 55.3932 28.8539 55.9653 28.7634C56.5374 28.673 57.0584 28.3814 57.4347 27.941C57.8109 27.5006 58.0176 26.9405 58.0176 26.3612C58.0176 25.782 57.8109 25.2219 57.4347 24.7815C57.0584 24.3411 56.5374 24.0495 55.9653 23.9591C55.3932 23.8686 54.8076 23.9854 54.3139 24.2883C53.8202 24.5911 53.4508 25.0603 53.2722 25.6112H52.6653C52.0189 25.61 51.3867 25.8008 50.8488 26.1593C50.3109 26.5178 49.8916 27.0279 49.6439 27.625C49.5098 27.9485 49.2827 28.2248 48.9913 28.4191C48.6999 28.6133 48.3575 28.7166 48.0073 28.716H47.7497V23.511L50.3015 23.5115ZM59.5955 18.8536C59.7799 18.8536 59.9601 18.9083 60.1133 19.0107C60.2666 19.1131 60.3861 19.2587 60.4566 19.429C60.5271 19.5993 60.5456 19.7867 60.5096 19.9674C60.4737 20.1482 60.3849 20.3143 60.2546 20.4446C60.1242 20.575 59.9582 20.6638 59.7774 20.6997C59.5966 20.7357 59.4092 20.7172 59.2389 20.6467C59.0686 20.5761 58.923 20.4567 58.8206 20.3034C58.7182 20.1502 58.6635 19.97 58.6635 19.7856C58.6638 19.5385 58.7621 19.3016 58.9368 19.1269C59.1115 18.9522 59.3484 18.8539 59.5955 18.8536ZM4.40379 20.7176C4.21946 20.7176 4.03927 20.663 3.886 20.5606C3.73274 20.4581 3.61328 20.3126 3.54274 20.1423C3.4722 19.972 3.45374 19.7846 3.4897 19.6038C3.52566 19.423 3.61443 19.2569 3.74477 19.1266C3.87511 18.9963 4.04118 18.9075 4.22197 18.8715C4.40276 18.8356 4.59015 18.854 4.76046 18.9246C4.93076 18.9951 5.07631 19.1146 5.17872 19.2678C5.28113 19.4211 5.33579 19.6013 5.33579 19.7856C5.3355 20.0327 5.23721 20.2696 5.06249 20.4443C4.88777 20.619 4.65088 20.7173 4.40379 20.7176V20.7176ZM8.41479 27.2926C8.23046 27.2926 8.05027 27.238 7.897 27.1356C7.74374 27.0331 7.62428 26.8876 7.55374 26.7173C7.4832 26.547 7.46474 26.3596 7.5007 26.1788C7.53666 25.998 7.62543 25.8319 7.75577 25.7016C7.88611 25.5713 8.05218 25.4825 8.23297 25.4465C8.41376 25.4106 8.60115 25.429 8.77145 25.4996C8.94176 25.5701 9.08731 25.6896 9.18972 25.8428C9.29213 25.9961 9.34679 26.1763 9.34679 26.3606C9.34666 26.6078 9.24845 26.8449 9.07371 27.0197C8.89897 27.1946 8.66199 27.293 8.41479 27.2932V27.2926ZM4.97804 36.7594C4.79368 36.7594 4.61344 36.7048 4.46014 36.6023C4.30683 36.4999 4.18734 36.3543 4.11677 36.184C4.04621 36.0137 4.02774 35.8263 4.0637 35.6454C4.09966 35.4646 4.18844 35.2985 4.31881 35.1681C4.44917 35.0378 4.61527 34.949 4.7961 34.913C4.97693 34.8771 5.16436 34.8955 5.33469 34.9661C5.50501 35.0367 5.65059 35.1562 5.753 35.3095C5.85542 35.4628 5.91007 35.643 5.91004 35.8274C5.90978 36.0745 5.8115 36.3114 5.63678 36.4861C5.46205 36.6608 5.22514 36.7591 4.97804 36.7594ZM6.49054 45.1469C6.30621 45.1469 6.12602 45.0922 5.97275 44.9898C5.81949 44.8874 5.70003 44.7418 5.62949 44.5715C5.55895 44.4012 5.54049 44.2138 5.57645 44.0331C5.61241 43.8523 5.70118 43.6862 5.83152 43.5559C5.96186 43.4255 6.12793 43.3367 6.30872 43.3008C6.48951 43.2648 6.6769 43.2833 6.84721 43.3538C7.01751 43.4244 7.16306 43.5438 7.26547 43.6971C7.36788 43.8503 7.42254 44.0305 7.42254 44.2149C7.42215 44.462 7.32376 44.6988 7.14897 44.8734C6.97417 45.048 6.73725 45.1462 6.49017 45.1464L6.49054 45.1469ZM57.5095 43.2829C57.6939 43.2829 57.8741 43.3375 58.0273 43.4399C58.1806 43.5424 58.3001 43.6879 58.3706 43.8582C58.4411 44.0285 58.4596 44.2159 58.4236 44.3967C58.3877 44.5775 58.2989 44.7436 58.1686 44.8739C58.0382 45.0042 57.8722 45.093 57.6914 45.129C57.5106 45.1649 57.3232 45.1465 57.1529 45.0759C56.9826 45.0054 56.837 44.8859 56.7346 44.7327C56.6322 44.5794 56.5775 44.3992 56.5775 44.2149C56.5777 43.9678 56.6759 43.7308 56.8505 43.556C57.0252 43.3812 57.2621 43.2828 57.5092 43.2824L57.5095 43.2829ZM59.022 34.8954C59.2064 34.8953 59.3866 34.95 59.5399 35.0524C59.6932 35.1548 59.8127 35.3004 59.8833 35.4707C59.9539 35.641 59.9723 35.8285 59.9364 36.0093C59.9004 36.1901 59.8117 36.3562 59.6813 36.4866C59.551 36.6169 59.3849 36.7057 59.2041 36.7417C59.0232 36.7777 58.8358 36.7592 58.6655 36.6887C58.4952 36.6181 58.3496 36.4987 58.2471 36.3454C58.1447 36.1921 58.09 36.0119 58.09 35.8275C58.0902 35.5805 58.1884 35.3436 58.363 35.1689C58.5375 34.9941 58.7743 34.8957 59.0213 34.8952L59.022 34.8954ZM55.5853 25.4294C55.7696 25.4294 55.9498 25.484 56.1031 25.5864C56.2564 25.6889 56.3758 25.8344 56.4464 26.0047C56.5169 26.175 56.5353 26.3624 56.4994 26.5432C56.4634 26.724 56.3747 26.8901 56.2443 27.0204C56.114 27.1507 55.9479 27.2395 55.7671 27.2755C55.5863 27.3114 55.3989 27.293 55.2286 27.2224C55.0583 27.1519 54.9128 27.0324 54.8104 26.8792C54.708 26.7259 54.6533 26.5457 54.6533 26.3614C54.6536 26.1144 54.7517 25.8776 54.9263 25.7029C55.1008 25.5281 55.3376 25.4297 55.5845 25.4293L55.5853 25.4294ZM21.9997 5.875H41.9997C43.1265 5.87626 44.2067 6.32443 45.0035 7.12118C45.8002 7.91794 46.2484 8.99822 46.2497 10.125V11.875H44.4997C44.3008 11.875 44.11 11.954 43.9693 12.0947C43.8287 12.2353 43.7497 12.4261 43.7497 12.625C43.7497 12.8239 43.8287 13.0147 43.9693 13.1553C44.11 13.296 44.3008 13.375 44.4997 13.375H46.2497V49.125H17.7497V13.375H38.1247C38.3236 13.375 38.5143 13.296 38.655 13.1553C38.7957 13.0147 38.8747 12.8239 38.8747 12.625C38.8747 12.4261 38.7957 12.2353 38.655 12.0947C38.5143 11.954 38.3236 11.875 38.1247 11.875H17.7497V10.125C17.7509 8.99822 18.1991 7.91794 18.9959 7.12118C19.7926 6.32443 20.8729 5.87626 21.9997 5.875V5.875ZM41.9997 58.125H21.9997C20.8729 58.1237 19.7926 57.6756 18.9959 56.8788C18.1991 56.0821 17.7509 55.0018 17.7497 53.875V50.625H46.2497V53.875C46.2484 55.0018 45.8002 56.0821 45.0035 56.8788C44.2067 57.6756 43.1265 58.1237 41.9997 58.125V58.125Z" fill="#0F0F0F"/>
<path d="M40.5869 13.375H41.9764C42.1753 13.375 42.3661 13.296 42.5067 13.1553C42.6474 13.0147 42.7264 12.8239 42.7264 12.625C42.7264 12.4261 42.6474 12.2353 42.5067 12.0947C42.3661 11.954 42.1753 11.875 41.9764 11.875H40.5869C40.388 11.875 40.1972 11.954 40.0566 12.0947C39.9159 12.2353 39.8369 12.4261 39.8369 12.625C39.8369 12.8239 39.9159 13.0147 40.0566 13.1553C40.1972 13.296 40.388 13.375 40.5869 13.375Z" fill="#0F0F0F"/>
<path d="M32 51.75C31.4808 51.75 30.9733 51.904 30.5416 52.1924C30.11 52.4808 29.7735 52.8908 29.5748 53.3705C29.3761 53.8501 29.3242 54.3779 29.4254 54.8871C29.5267 55.3963 29.7767 55.8641 30.1438 56.2312C30.511 56.5983 30.9787 56.8483 31.4879 56.9496C31.9971 57.0509 32.5249 56.9989 33.0046 56.8002C33.4842 56.6015 33.8942 56.2651 34.1826 55.8334C34.4711 55.4017 34.625 54.8942 34.625 54.375C34.6243 53.679 34.3474 53.0118 33.8553 52.5197C33.3632 52.0276 32.696 51.7508 32 51.75V51.75ZM32 55.5C31.7775 55.5 31.56 55.434 31.375 55.3104C31.19 55.1868 31.0458 55.0111 30.9606 54.8055C30.8755 54.6 30.8532 54.3738 30.8966 54.1555C30.94 53.9373 31.0472 53.7368 31.2045 53.5795C31.3618 53.4222 31.5623 53.315 31.7805 53.2716C31.9988 53.2282 32.225 53.2505 32.4305 53.3356C32.6361 53.4208 32.8118 53.565 32.9354 53.75C33.059 53.935 33.125 54.1525 33.125 54.375C33.1246 54.6733 33.006 54.9592 32.7951 55.1701C32.5842 55.381 32.2983 55.4996 32 55.5Z" fill="#0F0F0F"/>
</svg>
