<svg width="64" height="64" viewBox="0 0 64 64" fill="none" xmlns="http://www.w3.org/2000/svg">
<path d="M48.9176 16.2226L37.2914 3.29446C37.2845 3.28704 37.2765 3.28069 37.2691 3.2738C37.1151 3.09957 36.8932 3 36.6601 3C36.6251 3 36.5906 3.00265 36.5555 3.00741L36.5226 3.00424C36.4955 3.00106 36.4684 3 36.4414 3H20.0001C17.1701 3.00318 14.877 5.29053 14.8738 8.11332V19.2228L5.69106 24.7741C4.64351 25.4176 4.00425 26.5552 4 27.7822V54.1602C4.00372 57.9357 7.071 60.9958 10.8566 61H53.1434C56.9285 60.9958 59.9963 57.9357 60 54.1602V27.7822C59.9963 26.5562 59.3576 25.4197 58.3116 24.7757L49.4294 19.3086C49.4023 19.2916 49.3736 19.2763 49.3444 19.263L49.1262 19.1619V16.766C49.1262 16.5653 49.0519 16.3719 48.9176 16.2226V16.2226ZM32 45.3735L16.5049 35.9281V32.5418H47.4951V35.9281L32 45.3735ZM14.3301 30.9148C14.0296 30.9148 13.7864 30.6723 13.7864 30.3725V24.1359C13.7864 23.8367 14.0296 23.5936 14.3301 23.5936H49.6699C49.9699 23.5936 50.2136 23.8367 50.2136 24.1359V30.3725C50.2136 30.6723 49.9699 30.9148 49.6699 30.9148H14.3301ZM37.4757 5.93559L45.2859 14.6211H40.9709C39.0414 14.6184 37.4778 13.0587 37.4757 11.1342V5.93559ZM20.0001 4.62641H35.8446V11.1342C35.8478 13.957 38.1409 16.2448 40.9709 16.248H46.7492L47.4951 17.0774V21.9667H16.5049V8.11332C16.507 6.18821 18.0706 4.62853 20.0001 4.62641V4.62641ZM6.53899 26.1638L14.8738 21.1251V21.9667H14.3301C13.1296 21.9683 12.1569 22.9385 12.1553 24.1359V30.3725C12.1569 31.57 13.1296 32.5407 14.3301 32.5418H14.8738V34.934L5.63107 29.3001V27.7822C5.63319 27.1224 5.97618 26.5107 6.53899 26.1638ZM53.1434 59.3731H10.8566C7.97148 59.3699 5.63425 57.0375 5.63107 54.1602V31.2067L15.1154 36.9883C15.2051 37.0773 15.315 37.144 15.435 37.1832L31.5747 47.0217C31.8359 47.1811 32.1641 47.1811 32.4253 47.0217L48.5645 37.1838C48.685 37.1446 48.7944 37.0778 48.8846 36.9889L58.3689 31.2067V54.1602C58.3657 57.0375 56.0285 59.3699 53.1434 59.3731V59.3731ZM57.4584 26.1622C58.0222 26.5085 58.3668 27.1213 58.3689 27.7822V29.3001L49.1262 34.934V32.5418H49.6699C50.8704 32.5407 51.8431 31.57 51.8447 30.3725V24.1359C51.8431 22.9385 50.8704 21.9683 49.6699 21.9667H49.1262V21.0335L57.4584 26.1622Z" fill="#0F0F0F"/>
<path d="M22.5003 26C21.6718 26 21 26.4474 21 26.9998C21 27.5521 21.6718 28 22.4997 28C23.3282 28 24 27.5521 24 26.9998C23.9987 26.4479 23.3282 26.0004 22.5003 26ZM22.5003 27.3103C22.2431 27.3103 22.0345 27.1713 22.0345 26.9998C22.0345 26.8287 22.2431 26.6897 22.5003 26.6897C22.7575 26.6897 22.9655 26.8287 22.9655 26.9998C22.9655 27.1713 22.7569 27.3099 22.5003 27.3103Z" fill="#0F0F0F"/>
<path d="M27.0002 26C26.4479 26 26 26.4479 26 26.9998C26 27.5521 26.4479 28 27.0002 28C27.5521 28 28 27.5521 28 26.9998C27.9996 26.4479 27.5521 26.0004 27.0002 26ZM27.0002 27.3103C26.8287 27.3103 26.6897 27.1713 26.6897 26.9998C26.6897 26.8283 26.8287 26.6897 27.0002 26.6897C27.1717 26.6897 27.3103 26.8287 27.3103 26.9998C27.3103 27.1713 27.1713 27.3103 27.0002 27.3103Z" fill="#0F0F0F"/>
<path d="M32.0002 26C31.4479 26 31 26.4479 31 26.9998C31 27.5521 31.4479 28 32.0002 28C32.5526 28 33 27.5521 33 26.9998C32.9996 26.4479 32.5521 26.0004 32.0002 26ZM32.0002 27.3103C31.8287 27.3103 31.6897 27.1713 31.6897 26.9998C31.6897 26.8287 31.8287 26.6897 32.0002 26.6897C32.1717 26.6897 32.3103 26.8287 32.3103 26.9998C32.3103 27.1713 32.1717 27.3103 32.0002 27.3103Z" fill="#0F0F0F"/>
<path d="M37.0002 26C36.4479 26 36.0004 26.4474 36 26.9998C36 27.5521 36.4479 28 37.0002 28C37.5526 28 38 27.5521 38 26.9998C37.9996 26.4479 37.5521 26.0004 37.0002 26ZM37.0002 27.3103C36.8287 27.3103 36.6901 27.1713 36.6901 26.9998C36.6901 26.8287 36.8287 26.6897 37.0002 26.6897C37.1717 26.6897 37.3107 26.8287 37.3107 26.9998C37.3103 27.1713 37.1717 27.3099 37.0002 27.3103Z" fill="#0F0F0F"/>
<path d="M41.4997 26C40.6711 26 40 26.4479 40 26.9998C40 27.5521 40.6711 28 41.4997 28C42.3282 28 43 27.5521 43 26.9998C42.9987 26.4479 42.3276 26.0004 41.4997 26V26ZM41.4997 27.3103C41.2425 27.3103 41.0345 27.1713 41.0345 26.9998C41.0345 26.8283 41.2431 26.6897 41.4997 26.6897C41.7569 26.6897 41.9655 26.8287 41.9655 26.9998C41.9648 27.1713 41.7569 27.3103 41.4997 27.3103Z" fill="#0F0F0F"/>
<path d="M17.4997 26C16.6718 26 16 26.4479 16 26.9998C16 27.5521 16.6718 28 17.4997 28C18.3282 28 19 27.5521 19 26.9998C18.9994 26.4479 18.3282 26.0004 17.4997 26ZM17.4997 27.3103C17.2431 27.3103 17.0345 27.1713 17.0345 26.9998C17.0345 26.8287 17.2431 26.6897 17.4997 26.6897C17.7569 26.6897 17.9655 26.8287 17.9655 26.9998C17.9655 27.1713 17.7569 27.3103 17.4997 27.3103Z" fill="#0F0F0F"/>
<path d="M46.4997 26C45.6718 26 45 26.4479 45 26.9998C45 27.5521 45.6718 28 46.4997 28C47.3282 28 48 27.5521 48 26.9998C47.9987 26.4479 47.3282 26.0004 46.4997 26ZM46.4997 27.3103C46.2425 27.3103 46.0345 27.1713 46.0345 26.9998C46.0345 26.8287 46.2425 26.6897 46.4997 26.6897C46.7569 26.6897 46.9655 26.8287 46.9655 26.9998C46.9648 27.1713 46.7569 27.3103 46.4997 27.3103Z" fill="#0F0F0F"/>
</svg>
