<svg width="56" height="56" viewBox="0 0 56 56" fill="none" xmlns="http://www.w3.org/2000/svg">
<g clip-path="url(#clip0)">
<path d="M13.9118 15.4505H20.0781C20.4855 15.4505 20.8161 15.1204 20.8161 14.7126C20.8161 14.3051 20.4855 13.9746 20.0781 13.9746H13.9118C13.5044 13.9746 13.1738 14.3051 13.1738 14.7126C13.1738 15.1204 13.5044 15.4505 13.9118 15.4505Z" fill="#0F0F0F"/>
<path d="M38.4439 24.139C38.8513 24.139 39.1819 23.8089 39.1819 23.401C39.1819 22.9936 38.8513 22.6631 38.4439 22.6631H29.2633C28.8559 22.6631 28.5254 22.9936 28.5254 23.401C28.5254 23.8089 28.8559 24.139 29.2633 24.139H38.4439Z" fill="#0F0F0F"/>
<path d="M23.2672 22.6631C22.8598 22.6631 22.5293 22.9936 22.5293 23.401C22.5293 23.8089 22.8598 24.139 23.2672 24.139H26.1421C26.55 24.139 26.8801 23.8089 26.8801 23.401C26.8801 22.9936 26.55 22.6631 26.1421 22.6631H23.2672Z" fill="#0F0F0F"/>
<path d="M13.9118 24.139H20.0954C20.5028 24.139 20.8334 23.8089 20.8334 23.401C20.8334 22.9936 20.5028 22.6631 20.0954 22.6631H13.9118C13.5044 22.6631 13.1738 22.9936 13.1738 23.401C13.1738 23.8089 13.5044 24.139 13.9118 24.139Z" fill="#0F0F0F"/>
<path d="M26.858 31.3535H13.9118C13.5044 31.3535 13.1738 31.6836 13.1738 32.0915C13.1738 32.4989 13.5044 32.8294 13.9118 32.8294H26.858C27.2654 32.8294 27.5959 32.4989 27.5959 32.0915C27.5959 31.6836 27.2654 31.3535 26.858 31.3535Z" fill="#0F0F0F"/>
<path d="M7.64127 54.3344C7.69315 54.3459 7.74648 54.3516 7.79981 54.3516H37.0692C37.1062 54.3516 37.1427 54.3488 37.1792 54.343C37.2954 54.3478 37.4117 54.3516 37.5294 54.3516C41.5497 54.3516 44.966 51.3148 45.5762 47.3258C51.4317 46.903 55.9737 42.0425 56.0001 36.1716C56.026 30.3008 51.5273 25.4003 45.6756 24.9252V17.5213H54.1716C54.5795 17.5213 54.9095 17.1907 54.9095 16.7833V6.99405C54.9066 4.03795 52.5107 1.64203 49.5546 1.63867C49.4931 1.63867 49.4326 1.64107 49.3716 1.64348C49.3447 1.64011 49.3178 1.63867 49.2909 1.63867H13.7202C10.4263 1.64924 7.74937 4.29978 7.70613 7.59362L7.43805 40.3994H0.737943C0.330537 40.3994 0 40.73 0 41.1374V46.0411C0 50.4505 3.38368 54.0672 7.64127 54.3344ZM51.6604 43.0231C49.8631 44.8194 47.4364 45.8446 44.8959 45.8802H44.8944C44.8454 45.8812 44.7969 45.884 44.7484 45.884C40.0901 45.8812 36.0824 42.5888 35.1753 38.0194C34.2687 33.4505 36.7151 28.8768 41.0193 27.0953C45.323 25.3139 50.2863 26.82 52.8739 30.6933C55.462 34.5665 54.9537 39.7283 51.6604 43.0226V43.0231ZM53.4336 6.99405V16.0449H45.6756V6.99405C45.6876 4.85997 47.421 3.13666 49.5546 3.13666C51.6887 3.13666 53.4216 4.85997 53.4336 6.99405ZM9.18153 7.60756C9.21468 5.12228 11.2344 3.12273 13.7202 3.11504H45.8687C44.8032 4.12395 44.1992 5.52681 44.1997 6.99405V24.8993C39.8225 25.1116 35.969 27.8525 34.3331 31.9184C34.2533 31.5869 33.9569 31.3529 33.6163 31.3524H29.9813C29.5739 31.3524 29.2434 31.683 29.2434 32.0904C29.2434 32.4978 29.5739 32.8283 29.9813 32.8283H33.6163C33.7772 32.8283 33.9343 32.7755 34.0621 32.6774C32.9956 35.9823 33.5178 39.5947 35.477 42.4624C37.4357 45.3301 40.6109 47.1303 44.0777 47.3388C43.4805 50.4995 40.7397 52.8758 37.5251 52.8758C33.8474 52.8758 30.8543 49.8096 30.8543 46.0411V41.1374C30.8543 40.73 30.5242 40.3994 30.1163 40.3994H8.91393L9.18153 7.60756ZM1.47589 41.8758H29.3784V46.0416C29.3717 48.7565 30.6847 51.3052 32.899 52.8758H8.1462C4.46802 52.8767 1.47589 49.8101 1.47589 46.0416V41.8758Z" fill="#0F0F0F"/>
<path d="M36.6715 15.4505H38.4424C38.8503 15.4505 39.1804 15.1204 39.1804 14.7126C39.1804 14.3051 38.8503 13.9746 38.4424 13.9746H36.6715C36.2641 13.9746 35.9336 14.3051 35.9336 14.7126C35.9336 15.1204 36.2641 15.4505 36.6715 15.4505Z" fill="#0F0F0F"/>
<path d="M23.1461 15.4505H33.5624C33.9703 15.4505 34.3003 15.1204 34.3003 14.7126C34.3003 14.3051 33.9703 13.9746 33.5624 13.9746H23.1461C22.7387 13.9746 22.4082 14.3051 22.4082 14.7126C22.4082 15.1204 22.7387 15.4505 23.1461 15.4505Z" fill="#0F0F0F"/>
<path d="M44.0184 29.7912V30.4916C42.4411 30.8669 41.3943 32.3634 41.5826 33.9738C41.7709 35.5842 43.1349 36.7988 44.7563 36.8002C45.6927 36.816 46.4446 37.5771 46.4489 38.5134C46.4537 39.4498 45.709 40.218 44.7732 40.243C44.7674 40.243 44.7621 40.242 44.7563 40.242C44.7511 40.242 44.7453 40.243 44.74 40.243C43.7964 40.2329 43.0364 39.4661 43.0345 38.5225C43.0345 38.1151 42.7044 37.7846 42.2965 37.7846C41.8891 37.7846 41.5586 38.1151 41.5586 38.5225C41.561 40.0037 42.5781 41.2898 44.0184 41.6333V42.4462C44.0184 42.8536 44.3489 43.1842 44.7563 43.1842C45.1642 43.1842 45.4943 42.8536 45.4943 42.4462V41.6338C47.0716 41.2581 48.1184 39.7616 47.9301 38.1512C47.7418 36.5408 46.3778 35.3262 44.7563 35.3253C43.8056 35.3253 43.0345 34.5542 43.0345 33.6034C43.0345 32.6521 43.8056 31.8815 44.7563 31.8815C45.7076 31.8815 46.4782 32.6521 46.4782 33.6034C46.4782 34.0108 46.8088 34.3413 47.2162 34.3413C47.624 34.3413 47.9541 34.0108 47.9541 33.6034C47.9522 32.1222 46.9351 30.8356 45.4943 30.4921V29.7917C45.4943 29.3842 45.1642 29.0537 44.7563 29.0537C44.3489 29.0537 44.0184 29.3842 44.0184 29.7917V29.7912Z" fill="#0F0F0F"/>
</g>
<defs>
<clipPath id="clip0">
<rect width="56" height="56" fill="white"/>
</clipPath>
</defs>
</svg>
