<svg width="56" height="56" viewBox="0 0 56 56" fill="none" xmlns="http://www.w3.org/2000/svg">
<path d="M3.19847 42.2727H5.44092C6.58701 44.5039 8.36379 46.5435 10.6182 48.2146V53.7886C10.6189 54.3749 10.8507 54.937 11.2629 55.3515C11.675 55.7661 12.2338 55.9993 12.8167 56H18.3128C18.8957 55.9993 19.4545 55.7661 19.8667 55.3516C20.2788 54.937 20.5107 54.3749 20.5113 53.7886V52.477C20.5119 51.9639 20.7147 51.4721 21.0753 51.1093C21.436 50.7466 21.925 50.5425 22.435 50.542H30.3728C30.8829 50.5425 31.3718 50.7466 31.7325 51.1093C32.0931 51.4721 32.296 51.9639 32.2965 52.477V53.7886C32.2972 54.3749 32.529 54.937 32.9412 55.3515C33.3533 55.7661 33.9121 55.9993 34.495 56H39.9912C40.574 55.9993 41.1328 55.7661 41.545 55.3516C41.9571 54.937 42.189 54.3749 42.1896 53.7886V47.2512C45.4369 44.4323 47.3446 40.8811 47.6446 37.1263H48.2354C48.4715 37.1265 48.6979 37.221 48.8648 37.3889C49.0317 37.5568 49.1257 37.7844 49.126 38.0219V38.8741C49.1266 39.5513 49.3944 40.2006 49.8704 40.6794C50.3465 41.1583 50.9919 41.4277 51.6652 41.4284H54.1756C54.3942 41.4284 54.6039 41.341 54.7585 41.1855C54.9131 41.03 55 40.8191 55 40.5991C55 40.3792 54.9131 40.1683 54.7585 40.0127C54.6039 39.8572 54.3942 39.7698 54.1756 39.7698H51.6652C51.4291 39.7696 51.2028 39.6751 51.0359 39.5072C50.8689 39.3392 50.7751 39.1116 50.7748 38.8741V38.0227C50.7741 37.3455 50.5063 36.6962 50.0302 36.2174C49.5542 35.7386 48.9087 35.4692 48.2354 35.4685H47.666C47.235 26.4484 39.8042 19.2441 30.7361 19.2441C30.2103 19.2413 26.1957 19.2208 24.6799 19.2347C23.7474 17.6497 22.4229 16.3345 20.8352 15.4172C19.2475 14.4998 17.4508 14.0116 15.6198 14C15.488 14 15.3582 14.0318 15.2411 14.0927C15.124 14.1536 15.0232 14.2419 14.947 14.3501C14.8709 14.4583 14.8216 14.5833 14.8034 14.7146C14.7852 14.8459 14.7985 14.9797 14.8423 15.1047L15.0311 15.6438C15.69 17.5213 15.6718 19.5721 14.9797 21.4375C11.572 22.9288 8.7635 25.0813 6.81524 27.6923H3.19847C2.61561 27.693 2.05683 27.9262 1.64468 28.3408C1.23254 28.7553 1.00069 29.3174 1 29.9037V40.0609C1.00058 40.6473 1.23238 41.2095 1.64454 41.6241C2.05669 42.0388 2.61554 42.272 3.19847 42.2727V42.2727ZM2.64885 29.9041C2.64885 29.7575 2.70676 29.6169 2.80983 29.5132C2.91291 29.4095 3.05271 29.3513 3.19847 29.3513H7.23405C7.36566 29.3513 7.49536 29.3196 7.6123 29.2588C7.72924 29.1981 7.83003 29.1101 7.90623 29.0021C9.74058 26.4037 12.5179 24.2692 15.9381 22.8297C16.1381 22.7455 16.2971 22.5854 16.3807 22.3841C17.2566 20.2772 17.4 17.9345 16.7878 15.7354C18.7012 15.989 20.4771 16.8729 21.8384 18.2491C22.4921 18.8904 23.0395 19.633 23.4597 20.4484C23.5323 20.5926 23.6452 20.7122 23.7846 20.7926C23.9239 20.873 24.0836 20.9106 24.2439 20.9008C24.6134 20.8786 28.3236 20.8895 30.7315 20.9023C34.7692 20.9067 38.642 22.5141 41.508 25.375C44.3739 28.236 46.0014 32.1192 46.0365 36.1805C46.0043 39.8948 44.1614 43.4594 40.8392 46.2285C40.7459 46.3063 40.6707 46.4039 40.6191 46.5143C40.5675 46.6246 40.5408 46.7451 40.5408 46.8671V53.7887C40.5408 53.9354 40.4829 54.076 40.3798 54.1797C40.2767 54.2833 40.1369 54.3416 39.9912 54.3416H34.495C34.3492 54.3416 34.2094 54.2833 34.1063 54.1797C34.0033 54.076 33.9454 53.9354 33.9454 53.7887V52.4771C33.9443 51.5244 33.5675 50.611 32.8978 49.9373C32.228 49.2636 31.32 48.8847 30.3728 48.8836H22.4351C21.488 48.8847 20.5799 49.2636 19.9102 49.9373C19.2404 50.611 18.8637 51.5244 18.8626 52.4771V53.7887C18.8626 53.9354 18.8047 54.076 18.7016 54.1797C18.5985 54.2833 18.4587 54.3416 18.313 54.3416H12.8168C12.671 54.3416 12.5312 54.2833 12.4282 54.1797C12.3251 54.076 12.2672 53.9354 12.2672 53.7887V47.7903C12.2671 47.6575 12.2353 47.5267 12.1745 47.4089C12.1137 47.291 12.0256 47.1896 11.9178 47.1131C9.56731 45.4465 7.76278 43.3641 6.6994 41.091C6.63279 40.9486 6.52727 40.8283 6.39518 40.744C6.26309 40.6596 6.10988 40.6149 5.95344 40.6149H3.19847C3.05271 40.6149 2.91291 40.5566 2.80983 40.453C2.70676 40.3493 2.64885 40.2087 2.64885 40.062V29.9041Z" fill="#0F0F0F"/>
<path d="M13 35C13.7954 34.9991 14.5579 34.6645 15.1203 34.0698C15.6827 33.475 15.9991 32.6687 16 31.8276C16 31.6081 15.9175 31.3976 15.7708 31.2424C15.624 31.0872 15.425 31 15.2174 31C15.0098 31 14.8108 31.0872 14.664 31.2424C14.5172 31.3976 14.4348 31.6081 14.4348 31.8276C14.4348 32.23 14.2836 32.6159 14.0145 32.9004C13.7455 33.185 13.3805 33.3448 13 33.3448C12.6195 33.3448 12.2545 33.185 11.9855 32.9004C11.7164 32.6159 11.5652 32.23 11.5652 31.8276C11.5652 31.6081 11.4828 31.3976 11.336 31.2424C11.1892 31.0872 10.9902 31 10.7826 31C10.575 31 10.376 31.0872 10.2292 31.2424C10.0825 31.3976 10 31.6081 10 31.8276C10.0009 32.6687 10.3173 33.475 10.8797 34.0698C11.4421 34.6645 12.2046 34.9991 13 35V35Z" fill="#0F0F0F"/>
<path d="M26.8264 26H34.1736C34.3928 26 34.603 25.9473 34.758 25.8536C34.9129 25.7598 35 25.6326 35 25.5C35 25.3674 34.9129 25.2402 34.758 25.1464C34.603 25.0527 34.3928 25 34.1736 25H26.8264C26.6072 25 26.397 25.0527 26.242 25.1464C26.0871 25.2402 26 25.3674 26 25.5C26 25.6326 26.0871 25.7598 26.242 25.8536C26.397 25.9473 26.6072 26 26.8264 26V26Z" fill="#0F0F0F"/>
<path d="M31 18C32.78 18 34.5201 17.4722 36.0001 16.4832C37.4802 15.4943 38.6337 14.0887 39.3149 12.4442C39.9961 10.7996 40.1743 8.99002 39.8271 7.24419C39.4798 5.49836 38.6226 3.89472 37.364 2.63604C36.1053 1.37737 34.5016 0.520203 32.7558 0.172936C31.01 -0.17433 29.2004 0.00389957 27.5558 0.685088C25.9113 1.36628 24.5057 2.51983 23.5168 3.99987C22.5278 5.47991 22 7.21997 22 9C22.0027 11.3861 22.9518 13.6737 24.639 15.361C26.3263 17.0482 28.6139 17.9973 31 18V18ZM31 1.63637C32.4564 1.63637 33.8801 2.06824 35.091 2.87736C36.302 3.68649 37.2458 4.83653 37.8031 6.18206C38.3604 7.52759 38.5063 9.00817 38.2221 10.4366C37.938 11.865 37.2367 13.1771 36.2069 14.2069C35.1771 15.2367 33.865 15.938 32.4366 16.2221C31.0082 16.5063 29.5276 16.3605 28.1821 15.8031C26.8365 15.2458 25.6865 14.302 24.8774 13.091C24.0682 11.8801 23.6364 10.4564 23.6364 9C23.6386 7.04772 24.4151 5.17603 25.7956 3.79556C27.176 2.41509 29.0477 1.63857 31 1.63637V1.63637Z" fill="#0F0F0F"/>
<path d="M31.0151 12.1063C31.0103 12.1063 31.0057 12.1056 31.0002 12.1056C30.9947 12.1056 30.9906 12.1056 30.9853 12.1063C30.667 12.1024 30.3632 11.9796 30.1394 11.7644C29.9157 11.5492 29.79 11.2588 29.7895 10.9561C29.7895 10.7304 29.6953 10.514 29.5275 10.3544C29.3597 10.1948 29.1321 10.1051 28.8948 10.1051C28.6575 10.1051 28.4299 10.1948 28.2621 10.3544C28.0943 10.514 28 10.7304 28 10.9561C28.0008 11.564 28.2054 12.1557 28.5841 12.6454C28.9627 13.1351 29.4956 13.4972 30.1054 13.6791V14.149C30.1054 14.3747 30.1997 14.5911 30.3675 14.7507C30.5353 14.9103 30.7629 15 31.0002 15C31.2375 15 31.4651 14.9103 31.6329 14.7507C31.8007 14.5911 31.895 14.3747 31.895 14.149V13.6791C32.5795 13.4757 33.1647 13.0458 33.5446 12.4673C33.9245 11.8888 34.0739 11.2 33.9657 10.5257C33.8575 9.85144 33.4988 9.23637 32.9548 8.79198C32.4108 8.34759 31.7173 8.1033 31.0002 8.10339C30.7609 8.10339 30.5269 8.03589 30.3279 7.90942C30.1289 7.78296 29.9738 7.60321 29.8822 7.39291C29.7907 7.18261 29.7667 6.95121 29.8134 6.72796C29.8601 6.50471 29.9754 6.29965 30.1446 6.13871C30.3138 5.97776 30.5295 5.86817 30.7642 5.82378C30.9989 5.77939 31.2422 5.8022 31.4633 5.88932C31.6844 5.97645 31.8734 6.12398 32.0064 6.31326C32.1393 6.50253 32.2102 6.72505 32.2102 6.95268C32.2102 7.17838 32.3045 7.39484 32.4723 7.55443C32.6401 7.71403 32.8677 7.80369 33.105 7.80369C33.3423 7.80369 33.5699 7.71403 33.7377 7.55443C33.9055 7.39484 33.9998 7.17838 33.9998 6.95268C33.9989 6.34497 33.7943 5.75336 33.4158 5.26376C33.0373 4.77415 32.5046 4.41204 31.895 4.23V3.85101C31.895 3.62531 31.8007 3.40885 31.6329 3.24926C31.4651 3.08966 31.2375 3 31.0002 3C30.7629 3 30.5353 3.08966 30.3675 3.24926C30.1997 3.40885 30.1054 3.62531 30.1054 3.85101V4.23C29.421 4.43347 28.8358 4.86342 28.456 5.44192C28.0762 6.02041 27.9269 6.70918 28.0351 7.3834C28.1432 8.05761 28.5018 8.67265 29.0458 9.11705C29.5897 9.56145 30.2831 9.80581 31.0002 9.80584C31.321 9.80396 31.6294 9.92336 31.8577 10.1378C32.0859 10.3522 32.2152 10.6441 32.2172 10.9492C32.2192 11.2543 32.0937 11.5477 31.8682 11.7647C31.6428 11.9818 31.3359 12.1048 31.0151 12.1067V12.1063Z" fill="#0F0F0F"/>
</svg>
