<svg width="64" height="64" viewBox="0 0 64 64" fill="none" xmlns="http://www.w3.org/2000/svg">
<path d="M52.6315 51.8554C52.1138 51.8554 51.694 52.2751 51.694 52.7929V61.6071C51.694 61.8925 51.4618 62.1247 51.1764 62.1247H46.1368V43.6626C46.1368 43.1449 45.717 42.7251 45.1993 42.7251C44.6815 42.7251 44.2618 43.1449 44.2618 43.6626V62.1249H34.1137L37.0565 58.8874C37.378 58.5336 37.5297 58.0298 37.462 57.539C37.4608 57.5295 37.4593 57.52 37.4577 57.5105L34.6548 40.9521L35.4099 39.8154C35.8274 40.1119 36.149 40.3974 36.7522 40.3974C37.3657 40.3974 37.9393 40.054 38.2215 39.4888V39.4886L41.1778 33.5636L47.9123 36.1717C48.1559 36.2762 51.6938 37.8695 51.6938 42.0765V48.4178C51.6937 48.9354 52.1134 49.3553 52.6313 49.3553C53.149 49.3553 53.5688 48.9355 53.5688 48.4178V42.0765C53.5688 36.5335 48.8227 34.5186 48.6207 34.4355C48.6148 34.433 48.6088 34.4306 48.6028 34.4284L37.3943 30.0876V27.4589C39.1745 26.0744 40.4089 24.022 40.7188 21.6805C41.6064 21.618 42.43 21.2865 43.1027 20.7081C43.981 19.9527 44.485 18.8534 44.485 17.6924C44.485 16.7289 44.1374 15.8089 43.5179 15.092V11.6191C43.5178 5.21238 38.3055 0 31.8988 0C25.492 0 20.2798 5.21238 20.2798 11.6191V15.183C19.6537 15.8926 19.3132 16.7661 19.3132 17.6922C19.3132 18.8536 19.8169 19.9529 20.6955 20.7084C21.3677 21.2865 22.1908 21.6176 23.0782 21.6803C23.3905 24.0656 24.6609 26.1945 26.5928 27.5976V30.0876L15.3964 34.4282C15.3905 34.4305 15.3847 34.4329 15.3788 34.4352C15.1767 34.5184 10.4307 36.5332 10.4307 42.0762V61.6069C10.4307 62.9263 11.504 63.9996 12.8234 63.9996H21.7555C22.2733 63.9996 22.693 63.5799 22.693 63.0621C22.693 62.5444 22.2733 62.1246 21.7555 62.1246H19.7384V43.6626C19.7384 43.1449 19.3187 42.7251 18.8009 42.7251C18.2832 42.7251 17.8634 43.1449 17.8634 43.6626V62.1249H12.8235C12.5382 62.1249 12.3059 61.8926 12.3059 61.6073V42.0764C12.3059 37.8552 15.8675 36.2656 16.0863 36.1721L22.8155 33.5634L25.772 39.4886C26.0549 40.0552 26.6293 40.3974 27.2415 40.3974C27.8417 40.3974 28.1602 40.1163 28.5838 39.8154L29.3389 40.9521L26.5363 57.5106C26.5347 57.52 26.5333 57.5294 26.5319 57.5389C26.4642 58.0294 26.6158 58.5335 26.9374 58.8875L29.8803 62.125H26.1309C25.6132 62.125 25.1934 62.5447 25.1934 63.0625C25.1934 63.5803 25.6132 64 26.1309 64H51.1765C52.4959 64 53.5693 62.9265 53.5693 61.6073V52.793C53.569 52.2751 53.1493 51.8554 52.6315 51.8554ZM39.4217 32.8836L36.6655 38.4074C36.597 38.3588 35.1364 37.321 33.3509 36.0531C34.1257 35.0967 33.2193 36.2155 36.7553 31.851L39.4217 32.8836ZM33.8802 38.7291L33.1654 39.805H30.8275L30.1128 38.7291L31.9965 37.3913L33.8802 38.7291ZM28.4677 30.3901V28.6356C29.6067 29.0948 30.8239 29.3076 32.0127 29.3076C33.2418 29.3076 34.4472 29.0456 35.5192 28.5769V30.3978L31.9965 34.7459L28.4677 30.3901ZM42.6099 17.6924C42.6098 18.3065 42.3438 18.8876 41.88 19.2865C41.5734 19.5503 41.203 19.7189 40.7974 19.7849V15.6003C41.8749 15.7753 42.6099 16.669 42.6099 17.6924ZM23.0007 19.7849C21.9109 19.608 21.1882 18.707 21.1882 17.6922C21.1882 16.69 22.019 15.8743 23.0007 15.6474V19.7849ZM23.051 13.737C22.7524 13.7713 22.4102 13.8521 22.155 13.9389V11.6191C22.155 6.24625 26.526 1.87513 31.8989 1.87513C37.2718 1.87513 41.6428 6.24625 41.6428 11.6191V13.8745C41.3703 13.7916 41.0877 13.7369 40.7975 13.7111C40.7975 12.8065 40.8054 12.981 37.846 9.79937C37.3018 9.21462 36.4015 9.09213 35.7164 9.53975C32.4502 11.6734 28.4658 12.7452 24.7895 12.4812C23.9832 12.4209 23.2487 12.952 23.051 13.737ZM24.8758 20.523V14.674V14.3659C28.9227 14.6029 33.1655 13.4006 36.5932 11.2055C37.9504 12.6627 38.6854 13.4271 38.9224 13.7179C38.9224 14.4534 38.9224 19.681 38.9224 20.5229C38.9224 24.3287 35.8192 27.4324 32.0128 27.4324C27.7385 27.4325 24.8758 24.1168 24.8758 20.523ZM27.3277 38.4074L24.5715 32.8836L27.2332 31.8528L30.6383 36.0559C28.9067 37.2855 27.4848 38.2958 27.3277 38.4074ZM28.4033 57.7127L31.1169 41.6799H32.8758L35.5894 57.7127L31.9964 61.6656L28.4033 57.7127Z" fill="#0F0F0F"/>
</svg>
