<svg width="64" height="64" viewBox="0 0 64 64" fill="none" xmlns="http://www.w3.org/2000/svg">
<path d="M22.5184 3.69991C22.241 3.49166 21.9253 3.34008 21.5894 3.25384C21.2534 3.1676 20.9037 3.14838 20.5603 3.19728C20.2169 3.24618 19.8865 3.36225 19.5879 3.53885C19.2894 3.71545 19.0286 3.94913 18.8203 4.22654C18.8101 4.24029 18.7999 4.25404 18.7899 4.26791C18.4417 4.19612 18.0826 4.19544 17.7341 4.26591C17.3856 4.33639 17.055 4.47657 16.762 4.67803C16.469 4.87949 16.2198 5.13808 16.0293 5.43827C15.8388 5.73846 15.7109 6.07406 15.6533 6.42491C15.1194 6.4688 14.6115 6.67406 14.197 7.01344C13.7826 7.35281 13.4811 7.81025 13.3328 8.32499C13.1844 8.83973 13.1961 9.38743 13.3664 9.89534C13.5367 10.4033 13.8574 10.8474 14.2861 11.1687C14.3401 11.2092 14.3954 11.2475 14.4519 11.2835C14.5527 11.6159 14.7179 11.9251 14.9382 12.1936C15.1585 12.4621 15.4296 12.6845 15.7359 12.8482C16.0422 13.0118 16.3777 13.1135 16.7234 13.1474C17.069 13.1813 17.4179 13.1468 17.7502 13.0458C18.1286 13.2115 18.5408 13.2853 18.9531 13.2611C19.3655 13.237 19.7663 13.1155 20.1227 12.9068C20.536 13.1618 21.0121 13.2968 21.4977 13.2965C21.6242 13.2965 21.7505 13.2875 21.8757 13.2695C22.3929 13.1958 22.8767 12.9704 23.2658 12.6218C23.6548 12.2731 23.9318 11.8169 24.0616 11.3109C24.1914 10.8048 24.1682 10.2716 23.9949 9.77873C23.8216 9.28586 23.5061 8.85544 23.0882 8.54191C23.0175 8.48891 22.9448 8.43971 22.8699 8.39429C22.8946 8.14355 22.8836 7.89057 22.8373 7.64291C23.0963 7.37324 23.295 7.05169 23.4205 6.6995C23.5459 6.34732 23.5952 5.97252 23.565 5.59988C23.5349 5.22723 23.426 4.86523 23.2455 4.5378C23.0651 4.21036 22.8172 3.92495 22.5183 3.70041L22.5184 3.69991ZM22.4158 11.3395C22.234 11.5816 21.9636 11.7415 21.6639 11.7841C21.3642 11.8267 21.0599 11.7485 20.8178 11.5668C20.7676 11.5292 20.7207 11.4874 20.6776 11.4418C20.6086 11.3689 20.5258 11.3106 20.4339 11.2703C20.342 11.2301 20.243 11.2086 20.1427 11.2073H20.1327C20.034 11.2073 19.9364 11.2268 19.8452 11.2646C19.7541 11.3024 19.6714 11.3578 19.6017 11.4277C19.4192 11.6084 19.1812 11.7225 18.926 11.7515C18.6708 11.7806 18.4132 11.723 18.1947 11.5879C18.0875 11.5208 17.9651 11.4819 17.8388 11.4748C17.7125 11.4678 17.5865 11.4927 17.4724 11.5474C17.3109 11.6246 17.1334 11.6627 16.9543 11.6586C16.7753 11.6545 16.5998 11.6083 16.4419 11.5238C16.284 11.4393 16.1483 11.3187 16.0456 11.172C15.9429 11.0253 15.8763 10.8564 15.8509 10.6792C15.8328 10.5523 15.7825 10.4321 15.7048 10.3302C15.627 10.2283 15.5244 10.148 15.4068 10.097C15.3286 10.0628 15.2546 10.0194 15.1864 9.96791C14.9722 9.80731 14.8213 9.57651 14.7601 9.31588C14.6988 9.05525 14.7311 8.78139 14.8514 8.54218C14.9717 8.30298 15.1722 8.11367 15.4179 8.00737C15.6636 7.90106 15.9389 7.88453 16.1956 7.96066C16.3202 7.99771 16.4523 8.00173 16.5789 7.97234C16.7055 7.94295 16.8223 7.88115 16.9179 7.79301C17.0134 7.70487 17.0844 7.5934 17.1239 7.46955C17.1634 7.3457 17.17 7.21372 17.1431 7.08654C17.0984 6.87434 17.1153 6.65381 17.1916 6.45083C17.2679 6.24786 17.4005 6.07086 17.5739 5.94061C17.7473 5.81037 17.9542 5.73227 18.1704 5.7155C18.3866 5.69873 18.6031 5.74397 18.7944 5.84591C18.8901 5.89708 18.9957 5.92689 19.104 5.9333C19.2122 5.9397 19.3206 5.92255 19.4216 5.88301C19.5226 5.84348 19.6138 5.78251 19.689 5.70431C19.7641 5.6261 19.8215 5.53253 19.8569 5.43004C19.8951 5.32107 19.9499 5.21868 20.0194 5.12654C20.1194 4.99395 20.247 4.88475 20.3935 4.80657C20.54 4.72839 20.7017 4.6831 20.8675 4.67387C21.0333 4.66464 21.1991 4.69169 21.3533 4.75312C21.5075 4.81456 21.6465 4.9089 21.7606 5.02958C21.8746 5.15026 21.9609 5.29436 22.0135 5.45184C22.0661 5.60931 22.0837 5.77637 22.0651 5.94135C22.0465 6.10633 21.9922 6.26527 21.9058 6.40708C21.8195 6.54889 21.7032 6.67015 21.5652 6.76241C21.4191 6.85964 21.3117 7.00502 21.2617 7.17326C21.2117 7.3415 21.2223 7.52194 21.2917 7.68316C21.4101 7.95955 21.4146 8.27149 21.3042 8.55116C21.2648 8.64958 21.2468 8.75522 21.2512 8.86113C21.2557 8.96703 21.2825 9.07079 21.33 9.16556C21.3774 9.26034 21.4445 9.34397 21.5266 9.41096C21.6088 9.47794 21.7042 9.52675 21.8066 9.55416C21.9447 9.59153 22.0742 9.65519 22.1882 9.74166C22.43 9.92366 22.5898 10.1941 22.6325 10.4938C22.6752 10.7934 22.5972 11.0978 22.4158 11.34V11.3395Z" fill="#0F0F0F"/>
<path d="M60.75 59.3745H59.45V37.438C59.45 37.293 59.408 37.151 59.329 37.0294C59.25 36.9077 59.1374 36.8116 59.0049 36.7526L56.7605 35.7543V26.9613C56.7605 26.7624 56.6815 26.5716 56.5408 26.4309C56.4002 26.2903 56.2094 26.2113 56.0105 26.2113H53.973V7.55664C53.973 7.35773 53.894 7.16696 53.7533 7.02631C53.6127 6.88566 53.4219 6.80664 53.223 6.80664H50.3815C50.1826 6.80664 49.9918 6.88566 49.8512 7.02631C49.7105 7.16696 49.6315 7.35773 49.6315 7.55664V26.2113H43.4275C43.2286 26.2113 43.0378 26.2903 42.8972 26.4309C42.7565 26.5716 42.6775 26.7624 42.6775 26.9613V29.4891L40.2186 28.3954C40.1183 28.3508 40.0094 28.3287 39.8997 28.3307C39.7899 28.3328 39.6819 28.3589 39.5834 28.4073L32.8576 31.7073L25.9156 28.619C25.4076 22.9634 25.0301 18.4968 25.0006 17.4071C24.9819 16.5541 24.6288 15.7425 24.0173 15.1475C23.4058 14.5524 22.585 14.2214 21.7318 14.2259H16.9368C16.0837 14.2215 15.2631 14.5525 14.6517 15.1473C14.0402 15.7422 13.6869 16.5534 13.6679 17.4063C13.6304 18.7813 13.0222 25.7043 12.3006 33.5788L5.242 36.7193C5.10949 36.7782 4.99692 36.8743 4.91792 36.9959C4.83892 37.1176 4.79687 37.2595 4.79688 37.4045V59.3745H3.25C3.05109 59.3745 2.86032 59.4535 2.71967 59.5942C2.57902 59.7348 2.5 59.9256 2.5 60.1245C2.5 60.3234 2.57902 60.5142 2.71967 60.6548C2.86032 60.7955 3.05109 60.8745 3.25 60.8745H60.75C60.9489 60.8745 61.1397 60.7955 61.2803 60.6548C61.421 60.5142 61.5 60.3234 61.5 60.1245C61.5 59.9256 61.421 59.7348 61.2803 59.5942C61.1397 59.4535 60.9489 59.3745 60.75 59.3745V59.3745ZM51.1315 8.30664H52.4731V26.2113H51.1315V8.30664ZM44.1775 27.7113H55.2607V35.087L44.1775 30.1565V27.7113ZM39.9294 29.9084L57.95 37.9245V59.3745H56.0431V45.6636C56.0431 45.4647 55.9641 45.274 55.8235 45.1333C55.6828 44.9927 55.492 44.9136 55.2931 44.9136H47.5161C47.3172 44.9136 47.1264 44.9927 46.9858 45.1333C46.8451 45.274 46.7661 45.4647 46.7661 45.6636V59.3745H44.644V37.438C44.644 37.293 44.602 37.151 44.523 37.0294C44.444 36.9077 44.3314 36.8116 44.1989 36.7526L34.6437 32.5026L39.9294 29.9084ZM54.5431 59.3745H48.2661V46.4136H54.5431V59.3745ZM43.144 37.9245V59.3745H28.7932C28.7462 58.8841 28.6709 58.0971 28.5731 57.0745H32.7334C32.9323 57.0745 33.1231 56.9955 33.2637 56.8548C33.4044 56.7142 33.4834 56.5234 33.4834 56.3245V51.3891C33.4834 51.1902 33.4044 50.9995 33.2637 50.8588C33.1231 50.7182 32.9323 50.6391 32.7334 50.6391H27.9606C27.9329 50.3464 27.9047 50.0492 27.8761 49.7475L32.733 49.7498C32.9319 49.7498 33.1227 49.6707 33.2633 49.5301C33.404 49.3894 33.483 49.1987 33.483 48.9998V44.0644C33.483 43.8655 33.404 43.6747 33.2633 43.5341C33.1227 43.3934 32.9319 43.3144 32.733 43.3144H27.27C27.2423 43.0191 27.2145 42.7226 27.1866 42.4249H32.7334C32.9323 42.4249 33.1231 42.3459 33.2637 42.2052C33.4044 42.0646 33.4834 41.8738 33.4834 41.6749V36.7395C33.4834 36.5406 33.4044 36.3498 33.2637 36.2092C33.1231 36.0685 32.9323 35.9895 32.7334 35.9895H26.5875C26.4086 34.0528 26.2339 32.1449 26.0694 30.3296L43.144 37.9245ZM13.719 34.5526H24.9487C25.0158 35.282 25.0836 36.0167 25.152 36.7569C25.1529 36.7904 25.156 36.8238 25.1612 36.8569C25.3102 38.4674 25.4612 40.0914 25.6112 41.6926C25.6121 41.7267 25.6152 41.7606 25.6208 41.7941C26.3599 49.706 27.0625 57.0379 27.2864 59.3745H11.3833C11.675 56.3285 12.7779 44.7936 13.7185 34.5533L13.719 34.5526ZM28.1029 52.1391H31.9834V55.5745H28.4299C28.3332 54.561 28.223 53.4041 28.1029 52.1391ZM27.4107 44.8141H31.9834V48.2495L27.7344 48.2475C27.6299 47.1414 27.5215 45.9918 27.4107 44.8144V44.8141ZM26.7267 37.4891H31.9834V40.9245H27.0459C26.9399 39.7845 26.8329 38.635 26.7267 37.4895V37.4891ZM24.3304 27.7418H14.3361C14.3725 27.334 14.4081 26.9337 14.4429 26.5408H24.2237C24.2585 26.9336 24.294 27.3341 24.3304 27.7421V27.7418ZM24.4649 29.2418C24.5752 30.4683 24.6912 31.7455 24.8107 33.0529H13.856C13.9755 31.7454 14.0914 30.4683 14.2017 29.2418H24.4649ZM15.1672 17.4474C15.1776 16.9857 15.3688 16.5466 15.6998 16.2246C16.0308 15.9026 16.475 15.7234 16.9368 15.7258H21.7318C22.1936 15.7233 22.6379 15.9024 22.9689 16.2245C23.2999 16.5466 23.4911 16.9858 23.5012 17.4475C23.5246 18.313 23.7546 21.177 24.0919 25.0408H14.575C14.9125 21.1694 15.1437 18.3029 15.1672 17.4478V17.4474ZM6.29688 37.8918L12.1434 35.2909C11.2025 45.506 10.129 56.7361 9.87625 59.3745H6.29688V37.8918Z" fill="#0F0F0F"/>
</svg>
