<svg width="64" height="64" viewBox="0 0 64 64" fill="none" xmlns="http://www.w3.org/2000/svg">
<g clip-path="url(#clip0)">
<path d="M32.0002 16.6455C30.4047 16.6455 29.1113 17.9395 29.1113 19.535C29.1113 21.1299 30.4047 22.4239 32.0002 22.4239C33.5958 22.4239 34.8897 21.1299 34.8897 19.535C34.8879 17.9401 33.5952 16.6473 32.0002 16.6455ZM32.0002 20.5559C31.4365 20.5559 30.9793 20.0987 30.9793 19.535C30.9793 18.9707 31.4365 18.5135 32.0002 18.5135C32.5645 18.5135 33.0218 18.9707 33.0218 19.535C33.0205 20.0981 32.5639 20.5547 32.0002 20.5559Z" fill="#0F0F0F"/>
<path d="M0.933979 58.5272H63.0661C63.5817 58.5272 64.0001 58.1094 64.0001 57.5932C64.0001 57.0775 63.5817 56.6592 63.0661 56.6592H60.7025V54.7675H60.7427C62.5419 54.7578 63.9964 53.2978 64.0001 51.4986V50.409C64.0001 49.8933 63.5817 49.475 63.0661 49.475C62.5504 49.475 62.1321 49.8933 62.1321 50.409V51.4986C62.1309 52.2684 61.5094 52.8941 60.739 52.8996H60.7025V49.8276C62.5255 49.3929 63.8128 47.7651 63.8158 45.8905V41.7392C63.8158 39.504 62.0038 37.692 59.7686 37.692C57.5333 37.692 55.7213 39.504 55.7213 41.7392V45.8905C55.7238 47.7651 57.011 49.3929 58.8346 49.8276V56.6592H53.8819V21.3607H56.5343C56.8639 21.3607 57.1685 21.1874 57.3369 20.9047C57.5054 20.6213 57.5127 20.2711 57.3558 19.9817L49.8371 6.11486C49.6736 5.81387 49.3586 5.62598 49.0163 5.62598H14.9844C14.6421 5.62598 14.3271 5.81387 14.1635 6.11486L6.64487 19.9817C6.48799 20.2711 6.49529 20.6213 6.66372 20.9047C6.83215 21.1874 7.13679 21.3607 7.46636 21.3607H10.1187V45.8491C8.86003 45.4241 7.46879 45.8047 6.6017 46.8117C5.73461 47.8192 5.56557 49.2512 6.17302 50.4327H3.66173C3.1461 50.4327 2.72775 50.851 2.72775 51.3666V56.6592H0.933979C0.418345 56.6592 0 57.0775 0 57.5932C0 58.1094 0.418345 58.5272 0.933979 58.5272V58.5272ZM57.5893 45.8905V41.7392C57.5893 40.5359 58.5646 39.56 59.7686 39.56C60.9719 39.56 61.9479 40.5359 61.9479 41.7392V45.8905C61.946 46.7314 61.462 47.4963 60.7025 47.8563V47.078C60.7025 46.5624 60.2842 46.144 59.7686 46.144C59.2523 46.144 58.8346 46.5624 58.8346 47.078V47.8563C58.0751 47.4963 57.5905 46.7314 57.5893 45.8905ZM31.0657 56.6592H28.5289V44.1551H31.0657V56.6592ZM35.4711 56.6592H32.9337V44.1551H35.4711V56.6592ZM35.4711 42.2871H28.5289V40.9044C28.5289 38.9872 30.0831 37.433 32.0003 37.433C33.9181 37.433 35.4723 38.9872 35.4723 40.9044L35.4711 42.2871ZM52.0134 56.6592H37.3391V40.9044C37.3391 37.9553 34.9482 35.565 31.9991 35.565C29.05 35.565 26.6597 37.9553 26.6597 40.9044V56.6592H23.2753V51.3666C23.2753 50.851 22.8576 50.4327 22.3413 50.4327H19.9267C20.6333 49.0578 20.2794 47.3753 19.0791 46.4012C17.8788 45.4265 16.1592 45.4265 14.9589 46.4012C13.7586 47.3753 13.4047 49.0578 14.1112 50.4327H11.9879C12.4701 49.4993 12.4695 48.3896 11.9861 47.4562V21.3607H25.0599C25.3403 21.3607 25.606 21.2349 25.7835 21.0184L31.9997 13.4067L38.2165 21.0178C38.3941 21.2343 38.6592 21.3601 38.9395 21.3601H52.014L52.0134 56.6592ZM18.4199 48.9466C18.4199 49.72 17.7924 50.3475 17.019 50.3475C16.2455 50.3475 15.618 49.72 15.618 48.9466C15.618 48.1725 16.2455 47.5456 17.019 47.5456C17.7924 47.5462 18.4193 48.1731 18.4199 48.9466ZM9.03454 19.4928L15.5414 7.49394H48.4593L54.9661 19.4928H39.3828L32.7233 11.3393C32.5458 11.1222 32.2806 10.9964 31.9997 10.9964C31.7194 10.9964 31.4543 11.1222 31.2767 11.3393L24.6173 19.4928H9.03454ZM9.08015 47.5456C9.8536 47.5456 10.4811 48.1725 10.4811 48.9466C10.4811 49.72 9.8536 50.3475 9.08015 50.3475C8.3067 50.3475 7.67918 49.72 7.67918 48.9466C7.67979 48.1731 8.3067 47.5462 9.08015 47.5456ZM4.59571 52.3006H21.4073V56.6592H4.59571V52.3006Z" fill="#0F0F0F"/>
</g>
<defs>
<clipPath id="clip0">
<rect width="64" height="64" fill="white"/>
</clipPath>
</defs>
</svg>
