<svg width="64" height="64" viewBox="0 0 64 64" fill="none" xmlns="http://www.w3.org/2000/svg">
<path d="M41.2308 14.3544H37.8504L37.7697 9.73177C37.7627 9.32593 37.4207 9 37.0005 9H36.988C36.5628 9.00678 36.2243 9.34579 36.2313 9.75647L36.3114 14.3539H32.7692C32.3446 14.3539 32 14.6871 32 15.0977V19.1891C32 19.5997 32.3446 19.9329 32.7692 19.9329H36.1847L36.2308 44.2576C36.2318 44.6678 36.5758 45 37 45H37.0015C37.4262 44.9995 37.7702 44.6658 37.7692 44.2552L37.7232 19.9334H41.2308C41.6559 19.9334 42 19.6007 42 19.1895V15.0982C42.0005 14.6875 41.6559 14.3544 41.2308 14.3544V14.3544ZM40.4615 18.4457H36.979C36.9695 18.4457 36.9609 18.4442 36.9519 18.4442C36.9424 18.4442 36.9344 18.4452 36.9254 18.4457H33.5385V15.8421H40.4615V18.4457Z" fill="#0F0F0F"/>
<path d="M30.3077 22.9086H27.2721L27.1923 9.73904C27.1896 9.32981 26.8804 9 26.5 9H26.495C26.1128 9.00242 25.805 9.33756 25.8072 9.74873L25.887 22.9086H22.6923C22.3096 22.9086 22 23.2413 22 23.6525V27.7439C22 28.1546 22.3096 28.4878 22.6923 28.4878H25.7667L25.8077 44.2581C25.8086 44.6683 26.1182 45 26.5 45H26.5018C26.884 44.999 27.1932 44.6649 27.1923 44.2542L27.1513 28.4878H30.3077C30.6899 28.4878 31 28.1546 31 27.7439V23.6525C31 23.2413 30.6899 22.9086 30.3077 22.9086ZM29.6154 27H26.4815C26.4734 27 26.4657 26.9985 26.4572 26.9985H26.4554C26.4473 26.9985 26.4401 26.9995 26.4324 27H23.3846V24.3964H29.6154V27Z" fill="#0F0F0F"/>
<path d="M20.3077 32.4552H17.2739L17.1923 9.74098C17.191 9.33126 16.8813 9 16.5 9H16.4973C16.1151 9.00145 15.8063 9.33562 15.8077 9.74679L15.8893 32.4552H12.6923C12.3101 32.4552 12 32.7879 12 33.199V37.2904C12 37.7011 12.3101 38.0343 12.6923 38.0343H15.7694L15.8077 44.261C15.8104 44.6697 16.1196 45 16.5 45H16.5045C16.8872 44.9971 17.195 44.662 17.1923 44.2513L17.1544 38.0343H20.3077C20.6904 38.0343 21 37.7011 21 37.2904V33.199C21 32.7879 20.6904 32.4552 20.3077 32.4552V32.4552ZM19.6154 36.5465H16.4824C16.4739 36.5465 16.4657 36.5451 16.4576 36.5451H16.4527C16.4455 36.5451 16.4383 36.546 16.431 36.5465H13.3846V33.9429H19.6154V36.5465Z" fill="#0F0F0F"/>
<path d="M51.3077 34.3144H48.2739L48.1923 9.74146C48.191 9.33126 47.8813 9 47.5 9H47.4973C47.1151 9.00145 46.8059 9.33562 46.8077 9.74679L46.8893 34.3149H43.6923C43.3096 34.3149 43 34.6481 43 35.0588V39.1501C43 39.5608 43.3096 39.894 43.6923 39.894H46.7712L46.8077 44.2629C46.8108 44.6712 47.12 45 47.5 45H47.5063C47.8885 44.9966 48.1959 44.6605 48.1923 44.2498L48.1558 39.894H51.3077C51.6899 39.894 52 39.5613 52 39.1501V35.0588C52 34.8617 51.9274 34.6723 51.7972 34.5323C51.6674 34.3928 51.4911 34.3144 51.3077 34.3144V34.3144ZM50.6154 38.4058H47.482C47.4739 38.4058 47.4657 38.4043 47.4572 38.4043H47.4509C47.4441 38.4043 47.4378 38.4053 47.431 38.4058H44.3846V35.8022H50.6154V38.4058Z" fill="#0F0F0F"/>
<path d="M55.8938 4H8.10619C6.39163 4.00189 5.00187 5.40888 5 7.14471V56.8553C5.00187 58.5911 6.39163 59.9981 8.10619 60H55.8938C57.6084 59.9981 58.9981 58.5911 59 56.8553V7.14471C58.9981 5.40888 57.6084 4.00189 55.8938 4ZM57.5664 56.8553C57.5654 57.7903 56.8174 58.5477 55.8938 58.5486H8.10619C7.18264 58.5477 6.43456 57.7903 6.43363 56.8553V50.2876H57.5664V56.8553ZM57.5664 48.8362H6.43363V7.14471C6.43456 6.20971 7.18264 5.45235 8.10619 5.4514H55.8938C56.8174 5.45235 57.5654 6.20971 57.5664 7.14471V48.8362Z" fill="#0F0F0F"/>
<path d="M12 57C13.6568 57 15 55.6568 15 54C15 52.3427 13.6568 51 12 51C10.3432 51 9 52.3427 9 54C9.00208 55.6557 10.3443 56.9979 12 57ZM12 52.6C12.7734 52.6 13.4 53.2266 13.4 54C13.4 54.7729 12.7734 55.4 12 55.4C11.2271 55.4 10.6 54.7729 10.6 54C10.601 53.2271 11.2271 52.6005 12 52.6Z" fill="#0F0F0F"/>
<path d="M21.5 57C22.8806 57 24 55.6573 24 54C24 52.3432 22.8806 51 21.5 51C20.1189 51 19 52.3432 19 54C19.0013 55.6563 20.1198 56.9984 21.5 57ZM21.5 52.6C22.1441 52.6 22.6667 53.2271 22.6667 54C22.6667 54.7734 22.1441 55.4 21.5 55.4C20.8555 55.4 20.3333 54.7734 20.3333 54C20.3338 53.2276 20.8559 52.601 21.5 52.6Z" fill="#0F0F0F"/>
<path d="M31.5 57C32.8806 57 34 55.6573 34 54C34 52.3432 32.8806 51 31.5 51C30.1194 51 29 52.3432 29 54C29.0017 55.6563 30.1198 56.9984 31.5 57ZM31.5 52.6C32.1445 52.6 32.6667 53.2271 32.6667 54C32.6667 54.7734 32.1445 55.4 31.5 55.4C30.8555 55.4 30.3333 54.7734 30.3333 54C30.3342 53.2276 30.8559 52.601 31.5 52.6Z" fill="#0F0F0F"/>
<path d="M41 57C42.6573 57 44 55.6573 44 54C44 52.3432 42.6573 51 41 51C39.3432 51 38 52.3432 38 54C38.0021 55.6563 39.3443 56.9984 41 57ZM41 52.6C41.7734 52.6 42.4 53.2271 42.4 54C42.4 54.7734 41.7734 55.4 41 55.4C40.2271 55.4 39.6 54.7734 39.6 54C39.601 53.2276 40.2276 52.601 41 52.6Z" fill="#0F0F0F"/>
<path d="M51 57C52.6568 57 54 55.6573 54 54C54 52.3432 52.6568 51 51 51C49.3432 51 48 52.3432 48 54C48.0016 55.6563 49.3438 56.9984 51 57ZM51 52.6C51.7729 52.6 52.4 53.2271 52.4 54C52.4 54.7734 51.7729 55.4 51 55.4C50.2266 55.4 49.6 54.7734 49.6 54C49.6005 53.2276 50.2271 52.601 51 52.6Z" fill="#0F0F0F"/>
</svg>
