<svg width="64" height="64" viewBox="0 0 64 64" fill="none" xmlns="http://www.w3.org/2000/svg">
<path d="M57.9375 4.07949H42.1608C41.7533 3.23196 41.1148 2.51673 40.3187 2.01615C39.5225 1.51558 38.6012 1.25 37.6608 1.25C36.7204 1.25 35.7991 1.51558 35.003 2.01615C34.2069 2.51673 33.5683 3.23196 33.1608 4.07949H17.3847C16.5607 4.08039 15.7707 4.40817 15.188 4.9909C14.6054 5.57364 14.2778 6.36372 14.2771 7.18774V28.766C10.8676 31.0297 7.26156 32.9823 3.50245 34.6002L3.40895 34.6404C3.27421 34.6983 3.1594 34.7944 3.07873 34.9169C2.99806 35.0394 2.95507 35.1828 2.95508 35.3295V45.6315C2.95508 50.9027 5.47733 55.535 10.2491 59.0276C12.4456 60.6319 14.8822 61.8783 17.4685 62.7207C17.6036 62.7602 17.7472 62.7609 17.8827 62.7226C20.3763 61.9392 22.743 60.7982 24.909 59.3351H57.9375C58.7614 59.3342 59.5513 59.0065 60.1339 58.4238C60.7165 57.8412 61.0442 57.0513 61.0451 56.2274V7.18774C61.0444 6.36372 60.7167 5.57364 60.1341 4.9909C59.5515 4.40817 58.7615 4.08039 57.9375 4.07949V4.07949ZM34.1671 8.36599V6.24412C34.1632 5.78283 34.2507 5.32533 34.4245 4.89802C34.5983 4.47072 34.8551 4.08207 35.1799 3.75449C35.5047 3.42692 35.8911 3.16692 36.317 2.98948C36.7428 2.81204 37.1995 2.72069 37.6608 2.72069C38.1221 2.72069 38.5789 2.81204 39.0047 2.98948C39.4305 3.16692 39.817 3.42692 40.1418 3.75449C40.4666 4.08207 40.7233 4.47072 40.8972 4.89802C41.071 5.32533 41.1585 5.78283 41.1546 6.24412V8.36599C41.1546 8.56491 41.2336 8.75567 41.3743 8.89632C41.5149 9.03698 41.7057 9.11599 41.9046 9.11599H48.9348V13.2745H26.3867V9.11599H33.4171C33.616 9.11599 33.8068 9.03698 33.9474 8.89632C34.0881 8.75567 34.1671 8.56491 34.1671 8.36599ZM50.4351 14.0245V12.0726H53.6476C53.7613 12.0728 53.8703 12.118 53.9507 12.1984C54.0311 12.2789 54.0764 12.3879 54.0765 12.5016V44.5675H50.31C49.486 44.5684 48.6961 44.8961 48.1134 45.4787C47.5308 46.0613 47.2031 46.8513 47.2022 47.6752V51.3419H31.7786C32.5233 49.5304 32.903 47.5896 32.8958 45.631V35.3289C32.8959 35.1822 32.8529 35.0388 32.7722 34.9163C32.6916 34.7938 32.5768 34.6977 32.4421 34.6397L32.3488 34.5997C28.4682 32.9293 24.751 30.9024 21.245 28.545V12.5016C21.2451 12.3879 21.2903 12.2789 21.3707 12.1984C21.4511 12.118 21.5601 12.0728 21.6738 12.0726H24.8863V14.0245C24.8863 14.2234 24.9653 14.4142 25.106 14.5548C25.2467 14.6955 25.4374 14.7745 25.6363 14.7745H49.6851C49.884 14.7745 50.0748 14.6955 50.2154 14.5548C50.3561 14.4142 50.4351 14.2234 50.4351 14.0245V14.0245ZM53.0455 46.0675L48.7022 50.4106V47.6752C48.7027 47.249 48.8723 46.8404 49.1737 46.539C49.4751 46.2376 49.8837 46.0681 50.31 46.0676L53.0455 46.0675ZM15.7771 7.18774C15.7775 6.76152 15.9471 6.35288 16.2485 6.05149C16.5498 5.75011 16.9585 5.58058 17.3847 5.58012H32.7125C32.6825 5.8004 32.6673 6.02244 32.667 6.24474V7.61599H25.6367C25.4378 7.61599 25.247 7.69501 25.1064 7.83566C24.9657 7.97632 24.8867 8.16708 24.8867 8.36599V10.5726H21.6742C21.1628 10.5732 20.6725 10.7767 20.3109 11.1383C19.9493 11.4999 19.7459 11.9902 19.7453 12.5016V27.5076C19.2851 27.18 18.8286 26.8472 18.3758 26.509C18.246 26.4116 18.0881 26.359 17.9258 26.359C17.7636 26.359 17.6057 26.4116 17.4758 26.509C16.9162 26.9287 16.3501 27.3397 15.7775 27.7417L15.7771 7.18774ZM17.6825 61.2147C15.3439 60.4121 13.1374 59.2669 11.135 57.8165C6.70258 54.5724 4.45508 50.4725 4.45508 45.6309V35.8215C9.22103 33.7389 13.7392 31.1302 17.9256 28.0437C22.1118 31.1302 26.63 33.7389 31.3958 35.8215V45.6309C31.3958 50.4545 29.0806 54.5434 24.5141 57.7847C22.4155 59.2537 20.1141 60.4092 17.6825 61.2147V61.2147ZM59.545 56.2272C59.5445 56.6535 59.375 57.0621 59.0736 57.3635C58.7723 57.6649 58.3637 57.8345 57.9375 57.835H26.895C28.6692 56.335 30.0636 54.66 31.0597 52.8417H47.4958C47.5909 52.8411 47.6858 52.8342 47.78 52.8211C47.9116 52.8528 48.0494 52.8479 48.1785 52.807C48.3075 52.7662 48.423 52.6909 48.5125 52.5892C48.7017 52.4881 48.8749 52.3595 49.0265 52.2076L54.9428 46.2914C55.1444 46.0908 55.3043 45.8523 55.4131 45.5895C55.5219 45.3268 55.5776 45.0451 55.5768 44.7607V12.5016C55.5762 11.9902 55.3728 11.4999 55.0112 11.1383C54.6496 10.7767 54.1594 10.5732 53.648 10.5726H50.4355V8.36599C50.4355 8.16708 50.3564 7.97632 50.2158 7.83566C50.0751 7.69501 49.8844 7.61599 49.6855 7.61599H42.6548V6.24412C42.6544 6.02181 42.6392 5.79978 42.6092 5.57949H57.9375C58.3637 5.58006 58.7724 5.74971 59.0737 6.05122C59.375 6.35273 59.5444 6.76147 59.5447 7.18774L59.545 56.2272Z" fill="#0F0F0F"/>
<path d="M48.7988 20.7217C48.5999 20.7217 48.4091 20.8007 48.2685 20.9414C48.1278 21.082 48.0488 21.2728 48.0488 21.4717C48.0488 21.6706 48.1278 21.8614 48.2685 22.002C48.4091 22.1427 48.5999 22.2217 48.7988 22.2217H49.685C49.8839 22.2217 50.0746 22.1427 50.2153 22.002C50.3559 21.8614 50.435 21.6706 50.435 21.4717C50.435 21.2728 50.3559 21.082 50.2153 20.9414C50.0746 20.8007 49.8839 20.7217 49.685 20.7217H48.7988Z" fill="#0F0F0F"/>
<path d="M34.2959 22.2217H46.0386C46.2376 22.2217 46.4283 22.1427 46.569 22.002C46.7096 21.8614 46.7886 21.6706 46.7886 21.4717C46.7886 21.2728 46.7096 21.082 46.569 20.9414C46.4283 20.8007 46.2376 20.7217 46.0386 20.7217H34.2959C34.097 20.7217 33.9062 20.8007 33.7656 20.9414C33.6249 21.082 33.5459 21.2728 33.5459 21.4717C33.5459 21.6706 33.6249 21.8614 33.7656 22.002C33.9062 22.1427 34.097 22.2217 34.2959 22.2217Z" fill="#0F0F0F"/>
<path d="M25.6367 22.2217H30.2301C30.429 22.2217 30.6198 22.1427 30.7604 22.002C30.9011 21.8614 30.9801 21.6706 30.9801 21.4717C30.9801 21.2728 30.9011 21.082 30.7604 20.9414C30.6198 20.8007 30.429 20.7217 30.2301 20.7217H25.6367C25.4378 20.7217 25.247 20.8007 25.1064 20.9414C24.9657 21.082 24.8867 21.2728 24.8867 21.4717C24.8867 21.6706 24.9657 21.8614 25.1064 22.002C25.247 22.1427 25.4378 22.2217 25.6367 22.2217V22.2217Z" fill="#0F0F0F"/>
<path d="M49.6847 27.0781H47.2012C47.0023 27.0781 46.8115 27.1571 46.6708 27.2978C46.5302 27.4384 46.4512 27.6292 46.4512 27.8281C46.4512 28.027 46.5302 28.2178 46.6708 28.3585C46.8115 28.4991 47.0023 28.5781 47.2012 28.5781H49.6847C49.8836 28.5781 50.0743 28.4991 50.215 28.3585C50.3557 28.2178 50.4347 28.027 50.4347 27.8281C50.4347 27.6292 50.3557 27.4384 50.215 27.2978C50.0743 27.1571 49.8836 27.0781 49.6847 27.0781V27.0781Z" fill="#0F0F0F"/>
<path d="M45.2627 27.8281C45.2627 27.6292 45.1837 27.4384 45.043 27.2978C44.9024 27.1571 44.7116 27.0781 44.5127 27.0781H41.1279C40.929 27.0781 40.7383 27.1571 40.5976 27.2978C40.4569 27.4384 40.3779 27.6292 40.3779 27.8281C40.3779 28.027 40.4569 28.2178 40.5976 28.3585C40.7383 28.4991 40.929 28.5781 41.1279 28.5781H44.5127C44.7116 28.5781 44.9024 28.4991 45.043 28.3585C45.1837 28.2178 45.2627 28.027 45.2627 27.8281V27.8281Z" fill="#0F0F0F"/>
<path d="M38.8895 27.8281C38.8895 27.6292 38.8105 27.4384 38.6698 27.2978C38.5291 27.1571 38.3384 27.0781 38.1395 27.0781H25.6367C25.4378 27.0781 25.247 27.1571 25.1064 27.2978C24.9657 27.4384 24.8867 27.6292 24.8867 27.8281C24.8867 28.027 24.9657 28.2178 25.1064 28.3585C25.247 28.4991 25.4378 28.5781 25.6367 28.5781H38.1395C38.3384 28.5781 38.5291 28.4991 38.6698 28.3585C38.8105 28.2178 38.8895 28.027 38.8895 27.8281V27.8281Z" fill="#0F0F0F"/>
<path d="M49.6842 33.8301H44.4062C44.2073 33.8301 44.0166 33.9091 43.8759 34.0497C43.7353 34.1904 43.6562 34.3812 43.6562 34.5801C43.6562 34.779 43.7353 34.9698 43.8759 35.1104C44.0166 35.2511 44.2073 35.3301 44.4062 35.3301H49.6842C49.8832 35.3301 50.0739 35.2511 50.2146 35.1104C50.3552 34.9698 50.4342 34.779 50.4342 34.5801C50.4342 34.3812 50.3552 34.1904 50.2146 34.0497C50.0739 33.9091 49.8832 33.8301 49.6842 33.8301Z" fill="#0F0F0F"/>
<path d="M34.9688 33.8301C34.7698 33.8301 34.5791 33.9091 34.4384 34.0497C34.2978 34.1904 34.2188 34.3812 34.2188 34.5801C34.2188 34.779 34.2978 34.9698 34.4384 35.1104C34.5791 35.2511 34.7698 35.3301 34.9688 35.3301H41.7188C41.9177 35.3301 42.1084 35.2511 42.2491 35.1104C42.3897 34.9698 42.4688 34.779 42.4688 34.5801C42.4688 34.3812 42.3897 34.1904 42.2491 34.0497C42.1084 33.9091 41.9177 33.8301 41.7188 33.8301H34.9688Z" fill="#0F0F0F"/>
<path d="M49.6849 40.0713H34.7949C34.596 40.0713 34.4052 40.1503 34.2646 40.291C34.1239 40.4316 34.0449 40.6224 34.0449 40.8213C34.0449 41.0202 34.1239 41.211 34.2646 41.3516C34.4052 41.4923 34.596 41.5713 34.7949 41.5713H49.6849C49.8838 41.5713 50.0746 41.4923 50.2153 41.3516C50.3559 41.211 50.4349 41.0202 50.4349 40.8213C50.4349 40.6224 50.3559 40.4316 50.2153 40.291C50.0746 40.1503 49.8838 40.0713 49.6849 40.0713V40.0713Z" fill="#0F0F0F"/>
<path d="M23.5758 40.3099L16.0681 47.1869L12.3191 43.1214C12.2528 43.0474 12.1724 42.9874 12.0827 42.9447C11.9929 42.9021 11.8956 42.8777 11.7963 42.873C11.6971 42.8682 11.5979 42.8833 11.5045 42.9173C11.4111 42.9512 11.3254 43.0034 11.2523 43.0708C11.1793 43.1381 11.1203 43.2193 11.0789 43.3097C11.0375 43.4 11.0145 43.4977 11.0112 43.597C11.0078 43.6963 11.0243 43.7953 11.0595 43.8882C11.0948 43.9811 11.1481 44.0661 11.2165 44.1382L15.4721 48.7529C15.6067 48.8989 15.7936 48.9855 15.9919 48.9939C16.1902 49.0023 16.3838 48.9317 16.5301 48.7977L24.5889 41.4162C24.7306 41.2807 24.8137 41.0951 24.8202 40.8991C24.8268 40.7031 24.7563 40.5123 24.6239 40.3677C24.4915 40.223 24.3077 40.1359 24.1119 40.1252C23.9161 40.1144 23.7239 40.1807 23.5764 40.3099H23.5758Z" fill="#0F0F0F"/>
</svg>
