<svg width="64" height="64" viewBox="0 0 64 64" fill="none" xmlns="http://www.w3.org/2000/svg">
<path d="M50.6689 6.31215H47.9459V2.96728C47.9459 2.71074 47.8463 2.46471 47.6689 2.28331C47.4915 2.10191 47.2509 2 47 2C46.7491 2 46.5085 2.10191 46.3311 2.28331C46.1537 2.46471 46.054 2.71074 46.054 2.96728V6.31215H17.946V2.96728C17.946 2.71074 17.8463 2.46471 17.6689 2.28331C17.4915 2.10191 17.2509 2 17 2C16.7491 2 16.5085 2.10191 16.3311 2.28331C16.1537 2.46471 16.0541 2.71074 16.0541 2.96728V6.31215H13.3311C11.6473 6.31942 10.035 7.00942 8.84812 8.23075C7.66121 9.45208 6.99656 11.105 7.00001 12.8268V55.5338C6.99921 56.3839 7.16248 57.2257 7.48045 58.0111C7.79843 58.7965 8.26486 59.51 8.85302 60.1107C9.44117 60.7114 10.1395 61.1875 10.9079 61.5117C11.6764 61.8359 12.4998 62.0018 13.3311 62H50.6689C51.5002 62.0018 52.3236 61.8359 53.0921 61.5117C53.8605 61.1875 54.5588 60.7114 55.147 60.1107C55.7351 59.51 56.2016 58.7965 56.5195 58.0111C56.8375 57.2257 57.0008 56.3839 57 55.5338V12.8268C57.0034 11.105 56.3388 9.45208 55.1519 8.23075C53.965 7.00942 52.3527 6.31942 50.6689 6.31215V6.31215ZM55.1081 55.5338C55.1092 56.1299 54.995 56.7203 54.7722 57.2711C54.5494 57.8219 54.2223 58.3222 53.8098 58.7433C53.3973 59.1644 52.9074 59.498 52.3684 59.7249C51.8294 59.9518 51.2518 60.0675 50.6689 60.0654H13.3311C12.7482 60.0675 12.1706 59.9518 11.6316 59.7249C11.0926 59.498 10.6027 59.1644 10.1902 58.7433C9.77765 58.3222 9.45059 57.8219 9.22778 57.2711C9.00498 56.7203 8.89083 56.1299 8.8919 55.5338V12.8268C8.88788 11.6179 9.35301 10.4567 10.1853 9.59804C11.0175 8.73939 12.1489 8.2534 13.3311 8.24671H16.0541V10.8238C16.0541 11.0804 16.1537 11.3264 16.3311 11.5078C16.5085 11.6892 16.7491 11.7911 17 11.7911C17.2509 11.7911 17.4915 11.6892 17.6689 11.5078C17.8463 11.3264 17.946 11.0804 17.946 10.8238V8.24671H46.054V10.8238C46.054 11.0804 46.1537 11.3264 46.3311 11.5078C46.5085 11.6892 46.7491 11.7911 47 11.7911C47.2509 11.7911 47.4915 11.6892 47.6689 11.5078C47.8463 11.3264 47.9459 11.0804 47.9459 10.8238V8.24671H50.6689C51.8511 8.2534 52.9825 8.73939 53.8148 9.59804C54.647 10.4567 55.1121 11.6179 55.1081 12.8268V55.5338Z" fill="#0F0F0F"/>
<path d="M24.263 31.2427L18.546 35.9013L15.7527 33.5201C15.6574 33.4389 15.5442 33.3744 15.4196 33.3305C15.2951 33.2865 15.1616 33.2639 15.0267 33.2639C14.8919 33.2639 14.7584 33.2865 14.6338 33.3305C14.5092 33.3744 14.3961 33.4389 14.3007 33.5201C14.2054 33.6014 14.1298 33.6979 14.0782 33.804C14.0266 33.9102 14 34.024 14 34.1389C14 34.2538 14.0266 34.3676 14.0782 34.4737C14.1298 34.5799 14.2054 34.6764 14.3007 34.7576L17.8045 37.7437C17.9942 37.9054 18.2507 37.9974 18.519 37.9999C18.7873 38.0025 19.0461 37.9155 19.2401 37.7574L25.6828 32.5075C25.8796 32.3472 25.9936 32.1267 25.9997 31.8947C26.0058 31.6627 25.9036 31.4381 25.7154 31.2703C25.5272 31.1026 25.2685 31.0054 24.9962 31.0002C24.724 30.995 24.4605 31.0822 24.2636 31.2426L24.263 31.2427Z" fill="#0F0F0F"/>
<path d="M49.0233 34H32.9767C32.7177 34 32.4693 34.1054 32.2861 34.2929C32.1029 34.4804 32 34.7348 32 35C32 35.2652 32.1029 35.5196 32.2861 35.7071C32.4693 35.8946 32.7177 36 32.9767 36H49.0233C49.2823 36 49.5307 35.8946 49.7139 35.7071C49.8971 35.5196 50 35.2652 50 35C50 34.7348 49.8971 34.4804 49.7139 34.2929C49.5307 34.1054 49.2823 34 49.0233 34Z" fill="#0F0F0F"/>
<path d="M24.263 17.2774L18.546 22.6015L15.7527 19.8802C15.6574 19.7873 15.5442 19.7136 15.4196 19.6634C15.2951 19.6131 15.1616 19.5873 15.0267 19.5873C14.8919 19.5873 14.7584 19.6131 14.6338 19.6634C14.5092 19.7136 14.3961 19.7873 14.3007 19.8802C14.2054 19.973 14.1298 20.0833 14.0782 20.2046C14.0266 20.3259 14 20.456 14 20.5873C14 20.7186 14.0266 20.8487 14.0782 20.97C14.1298 21.0913 14.2054 21.2016 14.3007 21.2944L17.8045 24.707C17.9942 24.8919 18.2507 24.997 18.519 24.9999C18.7873 25.0029 19.0461 24.9034 19.2401 24.7228L25.6828 18.7229C25.8796 18.5396 25.9936 18.2877 25.9997 18.0225C26.0058 17.7573 25.9036 17.5007 25.7154 17.3089C25.5272 17.1172 25.2685 17.0062 24.9962 17.0003C24.724 16.9943 24.4605 17.0939 24.2636 17.2772L24.263 17.2774Z" fill="#0F0F0F"/>
<path d="M49.0233 20H32.9767C32.7177 20 32.4693 20.1054 32.2861 20.2929C32.1029 20.4804 32 20.7348 32 21C32 21.2652 32.1029 21.5196 32.2861 21.7071C32.4693 21.8946 32.7177 22 32.9767 22H49.0233C49.2823 22 49.5307 21.8946 49.7139 21.7071C49.8971 21.5196 50 21.2652 50 21C50 20.7348 49.8971 20.4804 49.7139 20.2929C49.5307 20.1054 49.2823 20 49.0233 20V20Z" fill="#0F0F0F"/>
<path d="M24.263 45.2427L18.546 49.9013L15.7527 47.5201C15.6574 47.4389 15.5442 47.3744 15.4196 47.3305C15.2951 47.2865 15.1616 47.2639 15.0267 47.2639C14.8919 47.2639 14.7584 47.2865 14.6338 47.3305C14.5092 47.3744 14.3961 47.4389 14.3007 47.5201C14.2054 47.6014 14.1298 47.6979 14.0782 47.804C14.0266 47.9102 14 48.024 14 48.1389C14 48.2538 14.0266 48.3676 14.0782 48.4737C14.1298 48.5799 14.2054 48.6764 14.3007 48.7576L17.8045 51.7437C17.9942 51.9054 18.2507 51.9974 18.519 51.9999C18.7873 52.0025 19.0461 51.9155 19.2401 51.7574L25.6828 46.5075C25.8796 46.3472 25.9936 46.1267 25.9997 45.8947C26.0058 45.6627 25.9036 45.4381 25.7154 45.2703C25.5272 45.1026 25.2685 45.0054 24.9962 45.0002C24.724 44.995 24.4605 45.0822 24.2636 45.2426L24.263 45.2427Z" fill="#0F0F0F"/>
<path d="M49.0233 48H32.9767C32.7177 48 32.4693 48.1054 32.2861 48.2929C32.1029 48.4804 32 48.7348 32 49C32 49.2652 32.1029 49.5196 32.2861 49.7071C32.4693 49.8946 32.7177 50 32.9767 50H49.0233C49.2823 50 49.5307 49.8946 49.7139 49.7071C49.8971 49.5196 50 49.2652 50 49C50 48.7348 49.8971 48.4804 49.7139 48.2929C49.5307 48.1054 49.2823 48 49.0233 48Z" fill="#0F0F0F"/>
</svg>
