<svg width="24" height="24" viewBox="0 0 24 24" fill="none" xmlns="http://www.w3.org/2000/svg">
<g opacity="0.7">
<path d="M12.0003 15.0013C11.7666 15.0017 11.5402 14.9203 11.3603 14.7713L5.36028 9.77125C5.15606 9.60151 5.02763 9.3576 5.00325 9.09318C4.97888 8.82875 5.06054 8.56547 5.23028 8.36125C5.40001 8.15704 5.64393 8.02861 5.90835 8.00423C6.17278 7.97985 6.43606 8.06151 6.64028 8.23125L12.0003 12.7113L17.3603 8.39125C17.4626 8.30819 17.5803 8.24615 17.7066 8.20872C17.8329 8.17129 17.9654 8.1592 18.0965 8.17314C18.2275 8.18708 18.3545 8.22677 18.4701 8.28995C18.5857 8.35312 18.6878 8.43853 18.7703 8.54125C18.8619 8.64407 18.9312 8.7647 18.974 8.89557C19.0168 9.02645 19.0321 9.16475 19.019 9.30181C19.0058 9.43887 18.9645 9.57175 18.8976 9.6921C18.8307 9.81246 18.7397 9.91771 18.6303 10.0013L12.6303 14.8313C12.4452 14.9568 12.2234 15.0166 12.0003 15.0013Z" fill="#353535"/>
</g>
</svg>
