<svg width="31" height="31" viewBox="0 0 31 31" fill="none" xmlns="http://www.w3.org/2000/svg">
<path fill-rule="evenodd" clip-rule="evenodd" d="M15.5 29.0625C19.097 29.0625 22.5467 27.6336 25.0901 25.0901C27.6336 22.5467 29.0625 19.097 29.0625 15.5C29.0625 11.903 27.6336 8.45333 25.0901 5.90986C22.5467 3.3664 19.097 1.9375 15.5 1.9375C11.903 1.9375 8.45333 3.3664 5.90986 5.90986C3.3664 8.45333 1.9375 11.903 1.9375 15.5C1.9375 19.097 3.3664 22.5467 5.90986 25.0901C8.45333 27.6336 11.903 29.0625 15.5 29.0625V29.0625ZM15.5 31C19.6109 31 23.5533 29.367 26.4602 26.4602C29.367 23.5533 31 19.6109 31 15.5C31 11.3891 29.367 7.44666 26.4602 4.53985C23.5533 1.63303 19.6109 0 15.5 0C11.3891 0 7.44666 1.63303 4.53985 4.53985C1.63303 7.44666 0 11.3891 0 15.5C0 19.6109 1.63303 23.5533 4.53985 26.4602C7.44666 29.367 11.3891 31 15.5 31V31Z" fill="#20B0BB"/>
<path fill-rule="evenodd" clip-rule="evenodd" d="M14.8139 21.9984C14.7237 21.9084 14.6521 21.8015 14.6033 21.6838C14.5544 21.5661 14.5293 21.4399 14.5293 21.3125C14.5293 21.1851 14.5544 21.0589 14.6033 20.9412C14.6521 20.8235 14.7237 20.7166 14.8139 20.6266L19.9425 15.5L14.8139 10.3734C14.7238 10.2833 14.6524 10.1764 14.6036 10.0587C14.5549 9.94101 14.5298 9.81488 14.5298 9.6875C14.5298 9.56012 14.5549 9.43399 14.6036 9.31631C14.6524 9.19863 14.7238 9.0917 14.8139 9.00163C14.904 8.91156 15.0109 8.84011 15.1286 8.79136C15.2463 8.74262 15.3724 8.71753 15.4998 8.71753C15.6272 8.71753 15.7533 8.74262 15.871 8.79136C15.9887 8.84011 16.0956 8.91156 16.1857 9.00163L21.9982 14.8141C22.0884 14.9041 22.1599 15.011 22.2088 15.1287C22.2576 15.2464 22.2828 15.3726 22.2828 15.5C22.2828 15.6274 22.2576 15.7536 22.2088 15.8713C22.1599 15.989 22.0884 16.0959 21.9982 16.1859L16.1857 21.9984C16.0957 22.0886 15.9888 22.1602 15.8711 22.209C15.7534 22.2578 15.6272 22.283 15.4998 22.283C15.3724 22.283 15.2462 22.2578 15.1285 22.209C15.0108 22.1602 14.9039 22.0886 14.8139 21.9984Z" fill="#20B0BB"/>
<path fill-rule="evenodd" clip-rule="evenodd" d="M8.71875 15.5C8.71875 15.2431 8.82081 14.9967 9.00249 14.815C9.18417 14.6333 9.43057 14.5312 9.6875 14.5312H19.375C19.6319 14.5312 19.8783 14.6333 20.06 14.815C20.2417 14.9967 20.3438 15.2431 20.3438 15.5C20.3438 15.7569 20.2417 16.0033 20.06 16.185C19.8783 16.3667 19.6319 16.4688 19.375 16.4688H9.6875C9.43057 16.4688 9.18417 16.3667 9.00249 16.185C8.82081 16.0033 8.71875 15.7569 8.71875 15.5Z" fill="#20B0BB"/>
</svg>
