<svg width="31" height="31" viewBox="0 0 31 31" fill="none" xmlns="http://www.w3.org/2000/svg">
<path fill-rule="evenodd" clip-rule="evenodd" d="M15.5 29.0625C11.903 29.0625 8.45333 27.6336 5.90986 25.0901C3.3664 22.5467 1.9375 19.097 1.9375 15.5C1.9375 11.903 3.3664 8.45333 5.90986 5.90986C8.45333 3.3664 11.903 1.9375 15.5 1.9375C19.097 1.9375 22.5467 3.3664 25.0901 5.90986C27.6336 8.45333 29.0625 11.903 29.0625 15.5C29.0625 19.097 27.6336 22.5467 25.0901 25.0901C22.5467 27.6336 19.097 29.0625 15.5 29.0625ZM15.5 31C11.3891 31 7.44666 29.367 4.53984 26.4602C1.63303 23.5533 0 19.6109 0 15.5C0 11.3891 1.63303 7.44666 4.53984 4.53984C7.44666 1.63303 11.3891 0 15.5 0C19.6109 0 23.5533 1.63303 26.4602 4.53984C29.367 7.44666 31 11.3891 31 15.5C31 19.6109 29.367 23.5533 26.4602 26.4602C23.5533 29.367 19.6109 31 15.5 31Z" fill="#20B0BB"/>
<path fill-rule="evenodd" clip-rule="evenodd" d="M16.1861 21.9984C16.2763 21.9084 16.3479 21.8015 16.3967 21.6838C16.4456 21.5661 16.4707 21.4399 16.4707 21.3125C16.4707 21.1851 16.4456 21.0589 16.3967 20.9412C16.3479 20.8235 16.2763 20.7166 16.1861 20.6266L11.0575 15.5L16.1861 10.3734C16.2762 10.2833 16.3476 10.1764 16.3964 10.0587C16.4451 9.94101 16.4702 9.81488 16.4702 9.6875C16.4702 9.56012 16.4451 9.43399 16.3964 9.31631C16.3476 9.19863 16.2762 9.0917 16.1861 9.00163C16.096 8.91156 15.9891 8.84011 15.8714 8.79136C15.7537 8.74262 15.6276 8.71753 15.5002 8.71753C15.3728 8.71753 15.2467 8.74262 15.129 8.79136C15.0113 8.84011 14.9044 8.91156 14.8143 9.00163L9.00185 14.8141C8.91163 14.9041 8.84006 15.011 8.79122 15.1287C8.74238 15.2464 8.71724 15.3726 8.71724 15.5C8.71724 15.6274 8.74238 15.7536 8.79122 15.8713C8.84006 15.989 8.91163 16.0959 9.00185 16.1859L14.8143 21.9984C14.9043 22.0886 15.0112 22.1602 15.1289 22.209C15.2466 22.2578 15.3728 22.283 15.5002 22.283C15.6276 22.283 15.7538 22.2578 15.8715 22.209C15.9892 22.1602 16.0961 22.0886 16.1861 21.9984Z" fill="#20B0BB"/>
<path fill-rule="evenodd" clip-rule="evenodd" d="M22.2812 15.5C22.2812 15.2431 22.1792 14.9967 21.9975 14.815C21.8158 14.6333 21.5694 14.5312 21.3125 14.5312H11.625C11.3681 14.5312 11.1217 14.6333 10.94 14.815C10.7583 14.9967 10.6562 15.2431 10.6562 15.5C10.6562 15.7569 10.7583 16.0033 10.94 16.185C11.1217 16.3667 11.3681 16.4688 11.625 16.4688H21.3125C21.5694 16.4688 21.8158 16.3667 21.9975 16.185C22.1792 16.0033 22.2812 15.7569 22.2812 15.5Z" fill="#20B0BB"/>
</svg>
