<svg width="512" height="512" viewBox="0 0 512 512" fill="none" xmlns="http://www.w3.org/2000/svg">
<path d="M437.02 74.98C388.667 26.629 324.38 0 256 0C187.62 0 123.333 26.629 74.98 74.98C26.629 123.333 0 187.62 0 256C0 324.38 26.629 388.667 74.98 437.02C123.333 485.371 187.62 512 256 512C324.38 512 388.667 485.371 437.02 437.02C485.371 388.667 512 324.38 512 256C512 187.62 485.371 123.333 437.02 74.98V74.98ZM256 482C131.383 482 30 380.617 30 256C30 131.383 131.383 30 256 30C380.617 30 482 131.383 482 256C482 380.617 380.617 482 256 482V482Z" fill="white"/>
<path d="M374.782 243.84L194.782 113.84C190.216 110.542 184.186 110.081 179.171 112.645C174.156 115.209 171 120.367 171 126V386C171 391.633 174.156 396.791 179.171 399.355C181.325 400.457 183.666 401 185.998 401C189.095 401 192.177 400.042 194.782 398.16L374.782 268.16C378.686 265.34 381 260.816 381 256C381 251.184 378.688 246.66 374.782 243.84ZM201 356.664V155.336L340.381 256L201 356.664Z" fill="white"/>
</svg>
