<svg width="137" height="137" viewBox="0 0 137 137" fill="none" xmlns="http://www.w3.org/2000/svg">
<path d="M68.5 2.14062C31.8506 2.14062 2.14062 31.8506 2.14062 68.5C2.14062 105.149 31.8506 134.859 68.5 134.859C105.149 134.859 134.859 105.149 134.859 68.5C134.859 31.8506 105.149 2.14062 68.5 2.14062ZM68.5 14.9844C98.0759 14.9844 122.016 38.9195 122.016 68.5C122.016 98.0759 98.0805 122.016 68.5 122.016C38.9241 122.016 14.9844 98.0805 14.9844 68.5C14.9844 38.9241 38.9195 14.9844 68.5 14.9844ZM106.016 49.841L99.9854 43.7621C98.7366 42.5032 96.7035 42.4949 95.4446 43.7439L57.6219 81.2627L41.6228 65.1339C40.3741 63.8749 38.341 63.8666 37.082 65.1154L31.0029 71.1455C29.744 72.3943 29.7357 74.4274 30.9847 75.6866L55.2758 100.174C56.5245 101.433 58.5576 101.442 59.8166 100.192L105.998 54.382C107.256 53.133 107.264 51.0999 106.016 49.841Z" fill="#20B0BB"/>
</svg>
