<svg width="28" height="28" viewBox="0 0 28 28" fill="none" xmlns="http://www.w3.org/2000/svg">
<g opacity="0.3">
<path d="M15.0971 14L20.7671 8.33004C20.8945 8.18125 20.9611 7.98986 20.9535 7.79411C20.946 7.59836 20.8648 7.41268 20.7263 7.27416C20.5878 7.13564 20.4021 7.05449 20.2063 7.04693C20.0106 7.03937 19.8192 7.10595 19.6704 7.23337L14.0004 12.9034L8.33041 7.2256C8.18162 7.09818 7.99023 7.03159 7.79448 7.03915C7.59873 7.04672 7.41305 7.12786 7.27453 7.26638C7.13601 7.4049 7.05487 7.59058 7.0473 7.78633C7.03974 7.98208 7.10633 8.17347 7.23375 8.32226L12.9037 14L7.22597 19.67C7.14455 19.7398 7.07842 19.8256 7.03174 19.9221C6.98505 20.0186 6.95882 20.1237 6.95468 20.2308C6.95054 20.3379 6.96859 20.4447 7.0077 20.5445C7.0468 20.6443 7.10611 20.735 7.18191 20.8108C7.25771 20.8866 7.34835 20.9459 7.44816 20.985C7.54797 21.0241 7.65478 21.0421 7.7619 21.038C7.86901 21.0339 7.97412 21.0076 8.07061 20.9609C8.16711 20.9143 8.25291 20.8481 8.32264 20.7667L14.0004 15.0967L19.6704 20.7667C19.8192 20.8941 20.0106 20.9607 20.2063 20.9531C20.4021 20.9456 20.5878 20.8644 20.7263 20.7259C20.8648 20.5874 20.946 20.4017 20.9535 20.206C20.9611 20.0102 20.8945 19.8188 20.7671 19.67L15.0971 14Z" fill="#353535"/>
</g>
</svg>
