<svg width="26" height="26" viewBox="0 0 26 26" fill="none" xmlns="http://www.w3.org/2000/svg">
<path fill-rule="evenodd" clip-rule="evenodd" d="M13 0C5.8203 0 0 5.8203 0 13C0 20.1797 5.8203 26 13 26C20.1797 26 26 20.1797 26 13C26 5.8203 20.1797 0 13 0ZM10.1418 6.10855C10.8814 6.07489 11.1177 6.06666 13.0007 6.06666H12.9985C14.8821 6.06666 15.1175 6.07489 15.8571 6.10855C16.5952 6.14235 17.0993 6.25921 17.5413 6.43067C17.9978 6.60761 18.3835 6.8445 18.7691 7.23017C19.1548 7.61556 19.3917 8.00238 19.5694 8.4584C19.7398 8.89925 19.8568 9.40307 19.8915 10.1412C19.9247 10.8808 19.9334 11.1171 19.9334 13.0001C19.9334 14.8831 19.9247 15.1188 19.8915 15.8584C19.8568 16.5962 19.7398 17.1002 19.5694 17.5412C19.3917 17.997 19.1548 18.3839 18.7691 18.7692C18.3839 19.1549 17.9976 19.3924 17.5418 19.5695C17.1006 19.7409 16.5962 19.8578 15.8581 19.8916C15.1185 19.9252 14.8829 19.9335 12.9998 19.9335C11.117 19.9335 10.8808 19.9252 10.1412 19.8916C9.40325 19.8578 8.89927 19.7409 8.45814 19.5695C8.00241 19.3924 7.61558 19.1549 7.23035 18.7692C6.84482 18.3839 6.60793 17.997 6.43069 17.541C6.25938 17.1002 6.14252 16.5963 6.10858 15.8582C6.07507 15.1187 6.06669 14.8831 6.06669 13.0001C6.06669 11.1171 6.07536 10.8806 6.10843 10.141C6.14166 9.40322 6.25866 8.89925 6.43055 8.45825C6.60822 8.00238 6.84511 7.61556 7.23078 7.23017C7.61616 6.84465 8.00299 6.60776 8.459 6.43067C8.89985 6.25921 9.40368 6.14235 10.1418 6.10855Z" fill="#353535"/>
<path fill-rule="evenodd" clip-rule="evenodd" d="M12.3784 7.31619C12.4991 7.316 12.6291 7.31606 12.7693 7.31612L13.0004 7.31619C14.8516 7.31619 15.071 7.32283 15.802 7.35605C16.478 7.38697 16.8449 7.49992 17.0893 7.59482C17.4129 7.72049 17.6436 7.87071 17.8861 8.11338C18.1288 8.35605 18.279 8.58717 18.4049 8.91073C18.4998 9.15484 18.6129 9.52173 18.6437 10.1977C18.6769 10.9286 18.6842 11.1482 18.6842 12.9985C18.6842 14.8489 18.6769 15.0685 18.6437 15.7994C18.6128 16.4754 18.4998 16.8423 18.4049 17.0864C18.2793 17.4099 18.1288 17.6403 17.8861 17.8828C17.6434 18.1255 17.413 18.2757 17.0893 18.4014C16.8452 18.4967 16.478 18.6094 15.802 18.6403C15.0711 18.6735 14.8516 18.6808 13.0004 18.6808C11.149 18.6808 10.9296 18.6735 10.1987 18.6403C9.52267 18.6091 9.15578 18.4962 8.91123 18.4013C8.58767 18.2756 8.35656 18.1254 8.11389 17.8827C7.87122 17.64 7.721 17.4095 7.59504 17.0858C7.50014 16.8417 7.38704 16.4748 7.35627 15.7988C7.32305 15.0679 7.31641 14.8483 7.31641 12.9968C7.31641 11.1453 7.32305 10.9269 7.35627 10.196C7.38718 9.52 7.50014 9.15311 7.59504 8.9087C7.72071 8.58514 7.87122 8.35403 8.11389 8.11136C8.35656 7.86869 8.58767 7.71847 8.91123 7.59251C9.15564 7.49718 9.52267 7.38451 10.1987 7.35345C10.8383 7.32456 11.0862 7.3159 12.3784 7.31445V7.31619ZM16.7013 8.46742C16.242 8.46742 15.8693 8.83966 15.8693 9.29914C15.8693 9.75848 16.242 10.1311 16.7013 10.1311C17.1607 10.1311 17.5334 9.75848 17.5334 9.29914C17.5334 8.8398 17.1607 8.46713 16.7013 8.46713V8.46742ZM9.43976 13.0001C9.43976 11.0338 11.0339 9.43962 13.0002 9.43954C14.9666 9.43954 16.5604 11.0338 16.5604 13.0001C16.5604 14.9665 14.9667 16.56 13.0004 16.56C11.034 16.56 9.43976 14.9665 9.43976 13.0001Z" fill="#353535"/>
<path d="M13.0006 10.689C14.2769 10.689 15.3117 11.7236 15.3117 13.0001C15.3117 14.2764 14.2769 15.3112 13.0006 15.3112C11.7241 15.3112 10.6895 14.2764 10.6895 13.0001C10.6895 11.7236 11.7241 10.689 13.0006 10.689Z" fill="#353535"/>
</svg>
