<svg width="13" height="8" viewBox="0 0 13 8" fill="none" xmlns="http://www.w3.org/2000/svg">
<path fill-rule="evenodd" clip-rule="evenodd" d="M8.14689 0.146894C8.19334 0.10033 8.24852 0.0633873 8.30926 0.0381808C8.37001 0.0129744 8.43513 0 8.50089 0C8.56666 0 8.63178 0.0129744 8.69253 0.0381808C8.75327 0.0633873 8.80845 0.10033 8.85489 0.146894L11.8549 3.14689C11.9015 3.19334 11.9384 3.24851 11.9636 3.30926C11.9888 3.37001 12.0018 3.43513 12.0018 3.50089C12.0018 3.56666 11.9888 3.63178 11.9636 3.69253C11.9384 3.75327 11.9015 3.80845 11.8549 3.85489L8.85489 6.85489C8.76101 6.94878 8.63367 7.00152 8.50089 7.00152C8.36812 7.00152 8.24078 6.94878 8.14689 6.85489C8.05301 6.76101 8.00026 6.63367 8.00026 6.50089C8.00026 6.36812 8.05301 6.24078 8.14689 6.14689L10.7939 3.50089L8.14689 0.854894C8.10033 0.808448 8.06339 0.753272 8.03818 0.692527C8.01297 0.631782 8 0.566661 8 0.500894C8 0.435126 8.01297 0.370005 8.03818 0.30926C8.06339 0.248515 8.10033 0.193339 8.14689 0.146894Z" fill="black"/>
<path fill-rule="evenodd" clip-rule="evenodd" d="M0 3.50092C0 3.36831 0.0526785 3.24113 0.146447 3.14736C0.240215 3.05359 0.367392 3.00092 0.5 3.00092H11C11.1326 3.00092 11.2598 3.05359 11.3536 3.14736C11.4473 3.24113 11.5 3.36831 11.5 3.50092C11.5 3.63352 11.4473 3.7607 11.3536 3.85447C11.2598 3.94824 11.1326 4.00092 11 4.00092H0.5C0.367392 4.00092 0.240215 3.94824 0.146447 3.85447C0.0526785 3.7607 0 3.63352 0 3.50092Z" fill="black"/>
</svg>
