<svg width="26" height="26" viewBox="0 0 26 26" fill="none" xmlns="http://www.w3.org/2000/svg">
<path fill-rule="evenodd" clip-rule="evenodd" d="M0 13C0 5.8203 5.8203 0 13 0C20.1797 0 26 5.8203 26 13C26 20.1797 20.1797 26 13 26C5.8203 26 0 20.1797 0 13ZM12.9912 13.2087C14.9082 13.2087 16.4665 11.7043 16.4665 9.85486C16.4665 8.00481 14.9082 6.5 12.9912 6.5C11.0746 6.5 9.51589 8.00481 9.51589 9.85486C9.51589 11.7043 11.0746 13.2087 12.9912 13.2087ZM16.4242 15.1401C15.7958 15.5211 15.1135 15.7913 14.4061 15.9468L16.3489 17.8224C16.7469 18.2058 16.7469 18.8284 16.3489 19.2122C15.9513 19.5959 15.3069 19.5959 14.9098 19.2122L12.9996 17.3691L11.0912 19.2122C10.8922 19.4039 10.6314 19.4998 10.3706 19.4998C10.1103 19.4998 9.84996 19.4039 9.65096 19.2122C9.25338 18.8284 9.25338 18.2062 9.65055 17.8224L11.5935 15.9468C10.8861 15.7913 10.2039 15.5207 9.57548 15.1401C9.09992 14.8507 8.95707 14.2443 9.25671 13.7849C9.55552 13.3248 10.1839 13.1863 10.6603 13.4758C12.083 14.3397 13.9158 14.3399 15.3394 13.4758C15.8157 13.1863 16.4439 13.3248 16.7434 13.7849C17.043 14.2439 16.8997 14.8507 16.4242 15.1401Z" fill="#353535"/>
<path d="M12.9917 8.46606C13.7852 8.46606 14.4306 9.0889 14.4306 9.85486C14.4306 10.6202 13.7852 11.2434 12.9917 11.2434C12.1988 11.2434 11.5527 10.6202 11.5527 9.85486C11.5527 9.0889 12.1988 8.46606 12.9917 8.46606Z" fill="#353535"/>
</svg>
