<svg width="88" height="88" viewBox="0 0 88 88" fill="none" xmlns="http://www.w3.org/2000/svg">
<path fill-rule="evenodd" clip-rule="evenodd" d="M44.0003 77.0001C48.3339 77.0001 52.6251 76.1465 56.6289 74.4881C60.6326 72.8297 64.2705 70.3989 67.3348 67.3346C70.3992 64.2703 72.8299 60.6324 74.4883 56.6286C76.1468 52.6249 77.0003 48.3337 77.0003 44.0001C77.0003 39.6665 76.1468 35.3753 74.4883 31.3715C72.8299 27.3678 70.3992 23.7299 67.3348 20.6656C64.2705 17.6012 60.6326 15.1705 56.6289 13.5121C52.6251 11.8537 48.3339 11.0001 44.0003 11.0001C35.2482 11.0001 26.8545 14.4769 20.6658 20.6656C14.4771 26.8543 11.0003 35.2479 11.0003 44.0001C11.0003 52.7522 14.4771 61.1459 20.6658 67.3346C26.8545 73.5233 35.2482 77.0001 44.0003 77.0001ZM44.0003 84.3334C66.2753 84.3334 84.3337 66.2751 84.3337 44.0001C84.3337 21.7251 66.2753 3.66675 44.0003 3.66675C21.7253 3.66675 3.66699 21.7251 3.66699 44.0001C3.66699 66.2751 21.7253 84.3334 44.0003 84.3334Z" fill="white"/>
<path d="M58.667 44.0002L36.667 59.8769V28.1235L58.667 44.0002Z" fill="white"/>
</svg>
