<svg width="26" height="26" viewBox="0 0 26 26" fill="none" xmlns="http://www.w3.org/2000/svg">
<path fill-rule="evenodd" clip-rule="evenodd" d="M13 0C5.8203 0 0 5.8203 0 13C0 20.1797 5.8203 26 13 26C20.1797 26 26 20.1797 26 13C26 5.8203 20.1797 0 13 0ZM14.0585 17.1038C13.9303 17.2389 13.6801 17.2662 13.6801 17.2662H12.8513C12.8513 17.2662 11.0228 17.3741 9.41203 15.7284C7.65544 13.9329 6.10436 10.3705 6.10436 10.3705C6.10436 10.3705 6.01483 10.1368 6.11182 10.0243C6.22101 9.89716 6.51875 9.88917 6.51875 9.88917L8.49983 9.87652C8.49983 9.87652 8.68634 9.90648 8.81995 10.003C8.9305 10.0829 8.99221 10.2314 8.99221 10.2314C8.99221 10.2314 9.31233 11.0262 9.73622 11.7452C10.5643 13.1493 10.9496 13.4562 11.2303 13.3057C11.64 13.0867 11.5172 11.3212 11.5172 11.3212C11.5172 11.3212 11.5247 10.6807 11.311 10.3951C11.1456 10.1741 10.8336 10.1095 10.6959 10.0916C10.584 10.0769 10.7671 9.8226 11.0045 9.70875C11.3612 9.53766 11.9906 9.52767 12.7346 9.535C13.3145 9.54099 13.4813 9.57627 13.7079 9.6302C14.2336 9.75473 14.2172 10.1538 14.1818 11.0152C14.1712 11.2728 14.1589 11.5717 14.1589 11.917C14.1589 11.9946 14.1566 12.0773 14.1542 12.1624C14.1419 12.6037 14.1278 13.109 14.4241 13.2971C14.576 13.3929 14.947 13.3111 15.8755 11.7639C16.3156 11.0302 16.6452 10.1681 16.6452 10.1681C16.6452 10.1681 16.7178 10.0143 16.8297 9.94842C16.9443 9.88118 17.099 9.90182 17.099 9.90182L19.1838 9.88917C19.1838 9.88917 19.8105 9.81527 19.9115 10.0936C20.018 10.3845 19.6776 11.0649 18.8257 12.1793C18.0177 13.2367 17.6244 13.6261 17.6605 13.9704C17.6869 14.222 17.9425 14.4496 18.433 14.8962C19.457 15.8294 19.7315 16.3204 19.7974 16.4383C19.8029 16.4481 19.8069 16.4553 19.8098 16.46C20.269 17.2076 19.3005 17.2662 19.3005 17.2662L17.4483 17.2915C17.4483 17.2915 17.0508 17.3687 16.5272 17.0159C16.253 16.8312 15.9849 16.5296 15.7297 16.2423C15.3398 15.8036 14.9797 15.3983 14.6723 15.494C14.1562 15.6551 14.1718 16.7463 14.1718 16.7463C14.1718 16.7463 14.1758 16.9799 14.0585 17.1038Z" fill="#353535"/>
</svg>
