<svg width="72" height="72" viewBox="0 0 72 72" fill="none" xmlns="http://www.w3.org/2000/svg">
<path d="M45.8162 51.1534L46.9682 58.0642L42.323 61.5481L44.6456 65.032L38.8392 70.8384H36.5166L43.4065 50.1675L45.8162 51.1534Z" fill="#FFD200"/>
<path d="M24.8932 51.1534L23.7412 58.0642L28.3864 61.5481L26.0638 65.032L31.8702 70.8384H34.1928L27.3029 50.1675L24.8932 51.1534Z" fill="#FFD200"/>
<path d="M47.9467 4.17367C44.5813 1.4818 40.3565 0 36.047 0H32.0742C25.002 0 18.5138 3.56167 14.7176 9.52721L11.6982 14.2722L12.9129 15.0793C14.6026 16.2058 15.6118 18.0917 15.6118 20.124V30.1935H16.9368C16.8404 29.8207 16.7731 29.4352 16.7731 29.0322C16.7731 26.4669 18.8529 24.387 21.4182 24.387V15.0967H21.5065C25.2772 15.0967 29.0049 15.8876 32.4505 17.4193C35.896 18.9511 39.6249 19.7419 43.3944 19.7419H49.2891V24.387C51.8544 24.387 53.9343 26.4669 53.9343 29.0322C53.9343 29.4352 53.8669 29.8207 53.7705 30.1935H55.0956V19.0486C55.0956 13.2317 52.4896 7.80966 47.9467 4.17367V4.17367Z" fill="#FFD200"/>
<path d="M55.2395 53.7538L43.3258 48.8799C42.0101 48.3422 41.1612 47.0764 41.1612 45.655V44.8212C44.7345 42.3523 47.4635 38.8684 49.0104 34.8387H49.2902C52.4919 34.8387 55.0967 32.234 55.0967 29.0323C55.0967 26.2289 53.0981 23.8831 50.4515 23.3431V18.5807H43.3967C39.7653 18.5807 36.242 17.8328 32.923 16.358C29.3056 14.7508 25.4641 13.9355 21.4193 13.9355H20.258V23.3431C17.6115 23.8831 15.6129 26.2278 15.6129 29.0323C15.6129 32.234 18.2176 34.8387 21.4193 34.8387H21.6992C23.246 38.8696 25.975 42.3523 29.5483 44.8212V45.655C29.5483 47.0764 28.6994 48.341 27.3837 48.8787L15.47 53.7526C8.50231 56.6036 4 63.3112 4 70.8386V71.9999H66.7095V70.8386C66.7095 63.3112 62.2072 56.6036 55.2395 53.7538ZM35.3548 57.5059L41.4771 50.5091C41.6362 50.6125 41.8034 50.7054 41.9741 50.7948L35.6799 69.6774H35.0296L28.7354 50.7948C28.9061 50.7066 29.0734 50.6125 29.2325 50.5091L35.3548 57.5059ZM52.7741 29.0323C52.7741 30.7893 51.463 32.2305 49.771 32.4674C50.2111 30.7463 50.4515 28.9545 50.4515 27.1173V25.7633C51.7998 26.2429 52.7741 27.5203 52.7741 29.0323ZM31.9801 18.4808C35.5975 20.088 39.439 20.9033 43.3967 20.9033H48.1289V22.0646H41.1612C39.4495 22.0646 37.9677 23.0052 37.1617 24.3871H33.5478C32.7419 23.0052 31.2601 22.0646 29.5483 22.0646H22.5806V16.2802C25.8322 16.4137 28.9898 17.1523 31.9801 18.4808V18.4808ZM45.8064 24.3871V26.7097C45.8064 27.9906 44.7647 29.0323 43.4838 29.0323H41.1612C39.8803 29.0323 38.8386 27.9906 38.8386 26.7097C38.8386 25.4288 39.8803 24.3871 41.1612 24.3871H45.8064ZM31.8709 26.7097C31.8709 27.9906 30.8292 29.0323 29.5483 29.0323H27.2258C25.9449 29.0323 24.9032 27.9906 24.9032 26.7097V24.3871H29.5483C30.8292 24.3871 31.8709 25.4288 31.8709 26.7097ZM17.9355 29.0323C17.9355 27.5203 18.9098 26.2429 20.258 25.7621V27.1162C20.258 28.9533 20.4984 30.7463 20.9385 32.4674C19.2465 32.2305 17.9355 30.7893 17.9355 29.0323ZM22.5806 27.1173V26.7097C22.5806 29.2715 24.664 31.3549 27.2258 31.3549H29.5483C32.1101 31.3549 34.1935 29.2715 34.1935 26.7097H36.5161C36.5161 29.2715 38.5994 31.3549 41.1612 31.3549H43.4838C46.0456 31.3549 48.1289 29.2715 48.1289 26.7097V27.1173C48.1289 35.273 43.0123 42.5009 35.3548 45.2241C27.6972 42.5009 22.5806 35.273 22.5806 27.1173ZM34.9878 47.5525L35.3548 47.6756L35.7217 47.5537C36.8215 47.1867 37.8759 46.7384 38.8793 46.2159C38.9722 47.1855 39.2892 48.1006 39.813 48.8833L35.3548 53.9779L30.8954 48.8822C31.418 48.0995 31.7362 47.1844 31.8291 46.2147C32.8325 46.7373 33.8881 47.1867 34.9878 47.5525V47.5525ZM16.3503 55.9045L26.594 51.7134L32.5828 69.6774H17.9355V62.7096H15.6129V69.6774H6.36322C6.79638 63.5748 10.6193 58.248 16.3503 55.9045V55.9045ZM55.0967 69.6774V62.7096H52.7741V69.6774H38.1268L44.1155 51.7122L54.3592 55.9033C60.0902 58.248 63.9132 63.5736 64.3463 69.6762H55.0967V69.6774Z" fill="#44545F"/>
<path d="M39.9993 36H37.6767C37.6767 37.2809 36.635 38.3226 35.3541 38.3226C34.0732 38.3226 33.0316 37.2809 33.0316 36H30.709C30.709 38.5618 32.7923 40.6452 35.3541 40.6452C37.9159 40.6452 39.9993 38.5618 39.9993 36Z" fill="#44545F"/>
<path d="M43.594 9.61301C44.5474 10.3771 45.3742 11.2702 46.0513 12.2654L47.972 10.9589C47.1649 9.7721 46.1802 8.70953 45.0456 7.80024C42.5001 5.76566 39.3042 4.64502 36.0479 4.64502H34.1934V6.96759H36.0479C38.7793 6.96759 41.4607 7.90824 43.594 9.61301V9.61301Z" fill="#44545F"/>
<path d="M47.8623 16.5013L50.1326 16.0136C49.9468 15.1484 49.6809 14.2972 49.343 13.4878L47.1992 14.382C47.4826 15.0613 47.7055 15.7744 47.8623 16.5013V16.5013Z" fill="#44545F"/>
</svg>
