<svg width="72" height="72" viewBox="0 0 72 72" fill="none" xmlns="http://www.w3.org/2000/svg">
<path d="M36.3542 0C25.4683 0 16.6123 8.85598 16.6123 19.7419V30.1935H17.9373C17.8409 29.8207 17.7736 29.4352 17.7736 29.0322C17.7736 26.4669 19.8535 24.387 22.4187 24.387C22.4187 20.5385 25.538 17.4193 29.3865 17.4193H37.1288C38.1333 17.4193 39.1123 17.093 39.9159 16.4903L41.9284 14.9806C42.833 14.3024 43.9328 13.9355 45.0639 13.9355C47.9497 13.9355 50.2896 16.2754 50.2896 19.1612V24.387C52.8549 24.387 54.9348 26.4669 54.9348 29.0322C54.9348 29.4352 54.8674 29.8207 54.7711 30.1935H56.0961V19.7419C56.0961 8.85598 47.2401 0 36.3542 0Z" fill="#FFD200"/>
<path d="M40.9993 36H38.6767C38.6767 37.2809 37.635 38.3226 36.3541 38.3226C35.0732 38.3226 34.0316 37.2809 34.0316 36H31.709C31.709 38.5618 33.7923 40.6452 36.3541 40.6452C38.9159 40.6452 40.9993 38.5618 40.9993 36Z" fill="#44545F"/>
<path d="M56.2395 53.7546L44.3258 48.8795C43.0101 48.3418 42.1612 47.076 42.1612 45.6546V44.8208C45.7345 42.3519 48.4635 38.8681 50.0103 34.8372H50.2902C53.4919 34.8372 56.0967 32.2325 56.0967 29.0308C56.0967 26.2274 54.0981 23.8816 51.4515 23.3416V19.161C51.4515 15.6388 48.5866 12.7739 45.0644 12.7739C43.6918 12.7739 42.3308 13.228 41.2322 14.0513L39.2197 15.561C38.6204 16.0104 37.8772 16.2578 37.1282 16.2578H29.387C25.2621 16.2578 21.8526 19.3491 21.3335 23.3347C18.6509 23.8456 16.6129 26.2019 16.6129 29.032C16.6129 32.2336 19.2176 34.8384 22.4193 34.8384H22.6992C24.246 38.8692 26.975 42.3519 30.5483 44.822V45.6558C30.5483 47.0772 29.6994 48.3418 28.3837 48.8795L16.47 53.7534C9.50231 56.6044 5 63.3108 5 70.8383V71.9996H67.7095V70.8383C67.7095 63.3108 63.2072 56.6044 56.2395 53.7546ZM43.4467 51.0291L45.1852 51.7409L41.843 58.4265L37.9968 54.5803L42.2367 50.3404C42.6095 50.6098 43.0078 50.8502 43.4467 51.0291V51.0291ZM47.9676 27.8707H40.9999C40.36 27.8707 39.8386 27.3492 39.8386 26.7094V24.3868C39.8386 23.7469 40.36 23.2255 40.9999 23.2255H47.9676C48.6075 23.2255 49.1289 23.7469 49.1289 24.3868V26.7094C49.1289 27.3492 48.6075 27.8707 47.9676 27.8707ZM53.7741 29.032C53.7741 30.7878 52.463 32.2301 50.771 32.467C51.2111 30.746 51.4515 28.9541 51.4515 27.117V26.7094V25.7618C52.7998 26.2425 53.7741 27.52 53.7741 29.032ZM29.387 18.5804H37.1293C38.3777 18.5804 39.6145 18.1681 40.6132 17.4191L42.6257 15.9094C43.326 15.3857 44.1911 15.0965 45.0644 15.0965C47.3057 15.0965 49.1289 16.9197 49.1289 19.161V21.1166C48.7643 20.9866 48.3764 20.9029 47.9676 20.9029H40.9999C39.4879 20.9029 38.2105 21.8773 37.7297 23.2255H34.9786C34.4979 21.8773 33.2205 20.9029 31.7085 20.9029H24.7709C25.8323 19.5013 27.4976 18.5804 29.387 18.5804ZM23.5806 24.3868C23.5806 23.7469 24.102 23.2255 24.7419 23.2255H31.7096C32.3495 23.2255 32.8709 23.7469 32.8709 24.3868V26.7094C32.8709 27.3492 32.3495 27.8707 31.7096 27.8707H24.7419C24.102 27.8707 23.5806 27.3492 23.5806 26.7094V24.3868ZM18.9355 29.032C18.9355 27.52 19.9098 26.2425 21.258 25.7618V26.7094V27.117C21.258 28.9541 21.4984 30.746 21.9385 32.467C20.2465 32.2301 18.9355 30.7878 18.9355 29.032ZM23.8071 30.0492C24.1067 30.134 24.4156 30.1932 24.7419 30.1932H31.7096C33.6304 30.1932 35.1935 28.6301 35.1935 26.7094V25.5481H37.5161V26.7094C37.5161 28.6301 39.0791 30.1932 40.9999 30.1932H47.9676C48.294 30.1932 48.6029 30.134 48.9025 30.0492C47.8422 36.967 43.0786 42.8315 36.3548 45.2226C29.6309 42.8315 24.8673 36.967 23.8071 30.0492V30.0492ZM35.9878 47.5533L36.3548 47.6753L36.7217 47.5533C37.8215 47.1864 38.8759 46.7381 39.8793 46.2155C39.9629 47.0842 40.2346 47.9017 40.6666 48.6264L36.3548 52.9382L32.0417 48.6252C32.4737 47.9006 32.7455 47.083 32.8291 46.2144C33.8325 46.7369 34.8881 47.1864 35.9878 47.5533ZM29.2628 51.0291C29.7017 50.8491 30.1001 50.6087 30.4728 50.3393L34.7127 54.5803L30.8665 58.4265L27.5243 51.7409L29.2628 51.0291ZM56.0967 69.677V62.7093H53.7741V69.677H37.5161V67.3544H35.1935V69.677H18.9355V62.7093H16.6129V69.677H7.36322C7.79638 63.5745 11.6193 58.2476 17.3491 55.903L25.3678 52.6223L30.2301 62.347L36.3548 56.2223L42.4794 62.347L47.3417 52.6223L55.3616 55.903C61.0914 58.2465 64.9143 63.5733 65.3475 69.6759H56.0967V69.677Z" fill="#44545F"/>
<path d="M35.1943 58.0645H37.5169V60.387H35.1943V58.0645Z" fill="#44545F"/>
<path d="M35.1943 62.7095H37.5169V65.032H35.1943V62.7095Z" fill="#44545F"/>
</svg>
