<svg width="72" height="72" viewBox="0 0 72 72" fill="none" xmlns="http://www.w3.org/2000/svg">
<g clip-path="url(#clip0)">
<path d="M56.1115 22.0645C55.8848 22.0645 55.6568 21.9983 55.4593 21.8671C55.077 21.6116 54.8818 21.1587 54.9589 20.707L55.7269 16.2581H52.6046C50.6711 16.2581 49.0977 14.695 49.0977 12.7742V3.48387C49.0977 1.5631 50.6711 0 52.6046 0H68.9703C70.9038 0 72.4773 1.5631 72.4773 3.48387V12.7742C72.4773 14.695 70.9038 16.2581 68.9703 16.2581H65.7989L56.7311 21.888C56.5417 22.0053 56.3266 22.0645 56.1115 22.0645Z" fill="#FFD200"/>
<path d="M11.774 48.856L14.7969 45.853L7.78339 38.8857L4.76056 41.8886L11.774 48.856Z" fill="#FFD200"/>
<path d="M30.5369 67.4964L33.9012 64.4341L26.8873 57.4663L23.502 60.5077L30.5369 67.4964Z" fill="#FFD200"/>
<path d="M56.2815 54.7546C55.3315 51.9565 52.9078 49.8912 49.9532 49.3627L42.1055 47.9596V47.3619C43.4712 46.5831 44.6595 45.5412 45.606 44.3077H47.9769C49.9192 44.3077 51.4998 42.7546 51.4998 40.8462V27C51.4998 18.7292 44.6513 12 36.234 12C27.8166 12 20.9682 18.7292 20.9682 27V35.0769C20.9682 37.3015 22.5781 39.1627 24.713 39.5965C25.3718 42.9127 27.4808 45.7188 30.3625 47.3619V47.9596L22.5135 49.3627C19.5602 49.8912 17.1353 51.9565 16.1865 54.7546L15.7167 56.1404L11.7171 52.2104C11.2591 51.7604 11.2591 51.0277 11.7171 50.5777L16.3556 46.0212L7.64934 37.4665L2.4073 42.6173C0.854885 44.1427 0 46.1712 0 48.3288C0 50.4865 0.854885 52.5138 2.4073 54.0392L18.2779 69.6335C19.8303 71.1588 21.8947 72 24.0906 72C26.2865 72 28.3498 71.1588 29.8658 69.6681L35.5858 64.5185L33.802 62.7692H59L56.2815 54.7546ZM36.234 51.9069L32.7111 48.4454V48.3912C33.8243 48.735 35.0068 48.9231 36.234 48.9231C37.4611 48.9231 38.6436 48.735 39.7569 48.3912V48.4454L36.234 51.9069ZM47.9769 42H46.9893C47.3299 41.2373 47.5882 40.4331 47.755 39.5965C48.2576 39.4938 48.7202 39.2977 49.1512 39.0508V40.8462C49.1512 41.4831 48.624 42 47.9769 42ZM47.9769 33.09C48.6756 33.4904 49.1512 34.2265 49.1512 35.0769C49.1512 35.9273 48.6756 36.6635 47.9769 37.0638V33.09ZM23.3168 35.0769C23.3168 34.2265 23.7923 33.4904 24.4911 33.09V37.0638C23.7923 36.6635 23.3168 35.9273 23.3168 35.0769ZM24.4911 29.3077V30.6254C24.073 30.7327 23.6808 30.8942 23.3168 31.1031V27C23.3168 20.0019 29.1119 14.3077 36.234 14.3077C43.3561 14.3077 49.1512 20.0019 49.1512 27V31.1031C48.7872 30.8942 48.395 30.7315 47.9769 30.6254V29.3077H46.8026C43.3302 29.3077 40.0657 27.9785 37.6091 25.5658L36.234 24.2146L34.8589 25.5658C32.4023 27.9785 29.1377 29.3077 25.6653 29.3077H24.4911ZM26.8396 37.3846V31.5715C30.366 31.3108 33.6541 29.8812 36.234 27.4708C38.8139 29.8812 42.1019 31.3119 45.6283 31.5715V37.3846C45.6283 39.0669 45.161 40.6408 44.3577 42H36.234V44.3077H42.4272C40.7715 45.7396 38.6072 46.6154 36.234 46.6154C31.0542 46.6154 26.8396 42.4742 26.8396 37.3846ZM13.0335 46.0212L11.7582 47.2742L6.37289 41.9827L7.64817 40.7296L13.0335 46.0212ZM24.0883 69.6923C22.5206 69.6923 21.0457 69.0912 19.936 68.0019L4.0654 52.4088C2.95687 51.3196 2.34624 49.8704 2.34624 48.33C2.34624 46.7885 2.95687 45.3392 4.0654 44.25L4.71126 43.6154L10.0966 48.9069L10.0543 48.9485C8.68155 50.2985 8.68155 52.4942 10.0543 53.8442L18.4752 62.1185C19.141 62.7715 20.0252 63.1327 20.967 63.1327C21.9088 63.1327 22.793 62.7727 23.4154 62.1588L23.5035 62.0815L28.9134 67.3973L28.2394 68.0042C27.1309 69.0912 25.656 69.6923 24.0883 69.6923ZM30.6467 65.835L25.2485 60.5308L26.7997 59.1531L32.1885 64.4481L30.6467 65.835ZM31.4534 60.4615L26.8796 55.9673L21.7972 60.4846C21.3545 60.9219 20.5807 60.9219 20.1368 60.4846L17.5721 57.9646L18.4129 55.4838C19.0905 53.4854 20.8226 52.0096 22.9328 51.6312L31.1411 50.1658L36.234 55.17L41.3257 50.1669L49.5329 51.6323C51.6431 52.0108 53.3751 53.4854 54.0527 55.485L55.7425 60.4615H31.4534Z" fill="#44545F"/>
<path d="M68 5H54V7H68V5Z" fill="#44545F"/>
<path d="M63 10H54V12H63V10Z" fill="#44545F"/>
<path d="M68 10H65V12H68V10Z" fill="#44545F"/>
<path d="M11.011 28.9824L9.80201 27.0222L6.61809 28.8807C9.94769 15.6985 22.1323 6.28598 36.2532 6.28598C39.3396 6.28598 42.3849 6.73175 45.3045 7.61186L46 5.42874C42.8548 4.48006 39.5758 4 36.2532 4C20.9023 4 7.679 14.3304 4.24131 28.7401L2.01492 25.1294L0 26.3055L4.1297 33L11.011 28.9824Z" fill="#44545F"/>
<path d="M72 26.1006L65.1856 22L61.096 28.8327L63.0913 30.0331L65.1274 26.6302C66.199 29.7741 66.7469 33.0628 66.7469 36.433C66.7469 43.3707 64.3502 50.1533 60 55.5301L61.8069 57C66.4933 51.2091 69.0739 43.9039 69.0739 36.433C69.0739 32.8644 68.5003 29.3798 67.3822 26.0434L70.8016 28.1001L72 26.1006Z" fill="#44545F"/>
</g>
<defs>
<clipPath id="clip0">
<rect width="72" height="72" fill="white"/>
</clipPath>
</defs>
</svg>
