<svg width="72" height="72" viewBox="0 0 72 72" fill="none" xmlns="http://www.w3.org/2000/svg">
<path d="M48.3232 19.8893C49.1814 17.388 51.4262 15.522 54.1612 15.1647L56 10.9332L49.6732 4.71593L45.9436 7.10204C44.5265 6.31757 43.0278 5.70685 41.4713 5.27848L40.5501 1H31.4446L30.5234 5.27848C28.967 5.70685 27.4671 6.31757 26.0512 7.10204L22.3216 4.71593L16 10.9298L17.8038 15.1538C20.5458 15.5134 22.748 17.4722 23.6295 20L24.049 19.098C26.1889 14.5247 30.8781 11.5698 35.9968 11.5698C41.0699 11.5698 45.7429 14.4869 47.9002 19.0039L48.3232 19.8893Z" fill="#FFD200"/>
<path d="M44.7384 32.7757L39.9989 31.5593V31.0066C42.0956 29.5058 43.375 27.0263 43.375 24.3852V22.3682C43.375 17.886 39.9506 14.1349 35.7417 14.0042C33.5851 13.9338 31.5581 14.7462 30.0167 16.2809C28.4742 17.8155 27.625 19.8736 27.625 22.0775V24.3852C27.625 27.0263 28.9033 29.5047 31 31.0055V31.5593L26.2616 32.7757C23.7529 33.4185 22 35.7205 22 38.3729V40.4107L25.1388 39.6952C26.0435 39.4884 26.968 39.3847 27.8936 39.3847C29.2065 39.3847 30.5117 39.5938 31.7614 40.0033L36.9117 41.6924C37.4677 41.6924 38.0214 41.7718 38.5553 41.929L45.625 44H46.75L49 42.7848V38.3729C49 35.7205 47.2471 33.4185 44.7384 32.7757Z" fill="#FFD200"/>
<path d="M72 31.059H69.3905L65.5012 33.0631C65.0634 32.8265 64.6081 32.626 64.1171 32.5055L59.2247 31.3067V30.7619C61.389 29.2826 62.7097 26.8387 62.7097 24.2355V22.2475C62.7097 17.8296 59.1748 14.1324 54.8301 14.0036C52.6074 13.9397 50.5116 14.7349 48.9205 16.2475C47.3282 17.7602 46.4516 19.7887 46.4516 21.961V24.2355C46.4516 26.8387 47.7711 29.2815 49.9355 30.7608V31.3067L45.2903 32.4456L45.5364 32.5055C46.6121 32.7682 47.5409 33.3246 48.2724 34.0593L52.2581 33.0842V29.4825L51.6786 29.1543C49.8867 28.1398 48.7742 26.254 48.7742 24.2355V21.961C48.7742 20.41 49.4002 18.9596 50.5382 17.8795C51.6752 16.8 53.1835 16.2181 54.7604 16.2781C57.8627 16.3691 60.3871 19.0473 60.3871 22.2475V24.2355C60.3871 26.254 59.2734 28.1398 57.4805 29.1565L56.8998 29.4853L56.9044 33.0842L62.7063 34.5035L47.326 42.4315H46.6143L39.4748 40.4335C38.9134 40.2775 38.3339 40.2136 37.7521 40.192L32.4951 38.5466C30.0994 37.7948 27.5064 37.6826 25.0539 38.2146L18.4434 39.6533L18.5375 39.3313L18.5806 37.2295L12.4561 33.7305L15.0968 33.0842V29.4825L14.5173 29.1543C12.7254 28.1398 11.6129 26.254 11.6129 24.2355V21.961C11.6129 20.41 12.2389 18.9596 13.377 17.8795C14.5139 16.8 16.0256 16.2181 17.5991 16.2781C20.7014 16.3691 23.2258 19.0473 23.2258 22.2475V24.2355C23.2258 26.254 22.1121 28.1398 20.3192 29.1565L19.7385 29.4853L19.7431 33.0842L23.7276 34.0593C24.4602 33.3246 25.3879 32.7682 26.4636 32.5055L26.7097 32.4456L22.0634 31.3067V30.7619C24.2278 29.2826 25.5484 26.8387 25.5484 24.2355V22.2475C25.5484 17.8296 22.0135 14.1324 17.6688 14.0036C15.4449 13.9397 13.3503 14.7349 11.7592 16.2475C10.167 17.7602 9.29032 19.7887 9.29032 21.961V24.2355C9.29032 26.8387 10.6098 29.2815 12.7742 30.7608V31.3067L9.58291 32.088L3.79858 28.7845H0V52.3497L11.4246 56.0785H13.6497L13.9275 55.1256L17.4296 57.1841C17.4868 59.0488 19.0139 60.5492 20.9163 60.6147C20.9832 62.47 22.5057 63.9609 24.4001 64.0265C24.467 65.8817 25.9895 67.3727 27.884 67.4382C27.9532 69.3368 29.5409 70.8628 31.4955 70.8628C32.2213 70.8628 32.9329 70.6412 33.5311 70.2464L34.5597 71.136C35.2044 71.6918 36.0346 72 36.8965 72H37.1114C39.0438 72 40.6162 70.4702 40.6406 68.5838C42.5521 68.5599 44.1001 67.044 44.1245 65.1721C46.0371 65.1482 47.5862 63.63 47.6084 61.757C49.5386 61.7125 51.0968 60.1683 51.0968 58.2675C51.0968 58.1531 51.0911 58.0404 51.0792 57.9265L72 47.6835V31.059ZM2.32258 31.059H3.16917L11.521 35.8296L7.30683 52.3369L2.32258 50.7093V31.059ZM11.8012 53.804L9.51544 53.0582L13.6094 37.0229L16.2581 38.5355V38.8604L11.8987 53.804H11.8012ZM19.7419 57.078C19.7419 56.7426 19.8803 56.4139 20.123 56.1762L22.1643 54.1772C22.407 53.9395 22.7427 53.804 23.0852 53.804C23.803 53.804 24.3871 54.376 24.3871 55.079C24.3871 55.4144 24.2487 55.7431 24.006 55.9808L21.9647 57.9798C21.722 58.2175 21.3863 58.353 21.0438 58.353C20.326 58.353 19.7419 57.781 19.7419 57.078ZM23.2258 60.4898C23.2258 60.1544 23.3642 59.8256 23.6069 59.588L25.6482 57.5889C25.8909 57.3512 26.2266 57.2157 26.5691 57.2157C27.2869 57.2157 27.871 57.7877 27.871 58.4907C27.871 58.8261 27.7326 59.1548 27.4899 59.3925L25.4486 61.3916C25.2059 61.6293 24.8702 61.7647 24.5277 61.7647C23.8099 61.7647 23.2258 61.1928 23.2258 60.4898ZM26.7097 63.9015C26.7097 63.5661 26.848 63.2374 27.0907 62.9997L29.1321 61.0007C29.3747 60.763 29.7104 60.6275 30.0529 60.6275C30.7708 60.6275 31.3548 61.1995 31.3548 61.9025C31.3548 62.2379 31.2165 62.5666 30.9738 62.8043L28.9325 64.8033C28.6898 65.041 28.3541 65.1765 28.0116 65.1765C27.2937 65.1765 26.7097 64.6045 26.7097 63.9015ZM31.4955 68.5882C30.7776 68.5882 30.1935 68.0163 30.1935 67.3133C30.1935 66.9779 30.3319 66.6491 30.5746 66.4115L32.6159 64.4124C32.8586 64.1747 33.1943 64.0392 33.5368 64.0392C34.2547 64.0392 34.8387 64.6112 34.8387 65.3142C34.8387 65.6496 34.7004 65.9783 34.4577 66.216L32.4163 68.2151C32.1736 68.4528 31.838 68.5882 31.4955 68.5882ZM37.1114 69.7255H36.8965C36.6005 69.7255 36.317 69.62 36.0964 69.4284L35.2277 68.6782L36.0998 67.8242C36.4111 67.5193 36.6527 67.1567 36.8313 66.7674L37.8871 67.6281C38.1632 67.8536 38.3226 68.1857 38.3226 68.5394C38.3226 69.1935 37.7794 69.7255 37.1114 69.7255ZM47.5256 59.4902H47.3248C47.0334 59.4902 46.7487 59.3892 46.5259 59.2059L40.2284 54.0667L38.7405 55.8147L44.856 60.8046C45.131 61.0301 45.2903 61.3622 45.2903 61.7159C45.2903 62.37 44.7471 62.902 44.0791 62.902H43.8257C43.5439 62.902 43.2683 62.8043 43.0511 62.6266L36.7434 57.4795L35.2555 59.2276L41.371 64.2181C41.6471 64.4418 41.8064 64.7739 41.8064 65.1276C41.8064 65.7818 41.2632 66.3137 40.5953 66.3137C40.1496 66.3137 39.7152 66.1588 39.3733 65.8806L36.7814 63.7649C36.2104 62.6221 35.0372 61.8253 33.6632 61.7775C33.5963 59.9223 32.0738 58.4313 30.1794 58.3658C30.1125 56.5105 28.59 55.0195 26.6955 54.954C26.6275 53.0555 25.0398 51.5295 23.0852 51.5295C22.1309 51.5295 21.1969 51.9082 20.5222 52.569L18.4808 54.5681C18.3589 54.6875 18.258 54.823 18.1554 54.9573L14.5881 52.8611L17.7153 42.1427L25.5552 40.4358C27.6118 39.9854 29.7802 40.0831 31.7858 40.7117L33.4965 41.2476L27.6969 44.0874C26.3717 44.7376 25.5484 46.0432 25.5484 47.4947V47.7196C25.5484 49.8203 27.2937 51.5295 29.4388 51.5295C30.1436 51.5295 30.8371 51.3418 31.4399 50.9859L35.7641 48.4465C36.6328 47.9367 37.7986 48.0483 38.5488 48.7091L48.3608 57.3568C48.6234 57.59 48.7742 57.921 48.7742 58.2675C48.7742 58.9422 48.2145 59.4902 47.5256 59.4902ZM69.6774 46.2775L50.113 55.858C50.0495 55.792 49.9831 55.7292 49.9134 55.6681L40.1031 47.0205C39.2434 46.2608 38.1321 45.8432 36.9742 45.8432C36.1276 45.8432 35.2963 46.0687 34.5682 46.4963L30.2423 49.0368C29.9996 49.18 29.7223 49.255 29.4388 49.255C28.5735 49.255 27.871 48.567 27.871 47.7196V47.4947C27.871 46.9089 28.2032 46.3836 28.7374 46.122L35.2152 42.9501C36.3238 42.4065 37.6399 42.2849 38.8346 42.6214L46.1324 44.6627L47.8998 44.706L69.6774 33.4812V46.2775Z" fill="#44545F"/>
</svg>
