<svg width="72" height="72" viewBox="0 0 72 72" fill="none" xmlns="http://www.w3.org/2000/svg">
<path d="M53.5 64C58.7467 64 63 59.7467 63 54.5C63 49.2533 58.7467 45 53.5 45C48.2533 45 44 49.2533 44 54.5C44 59.7467 48.2533 64 53.5 64Z" fill="#FFD200"/>
<path d="M66.4643 33H40.5357C38.5864 33 37 31.3848 37 29.4V24.6C37 22.6152 38.5864 21 40.5357 21H66.4643C68.4136 21 70 22.6152 70 24.6V29.4C70 31.3848 68.4136 33 66.4643 33ZM40.5357 23.4C39.8851 23.4 39.3571 23.9388 39.3571 24.6V29.4C39.3571 30.0612 39.8851 30.6 40.5357 30.6H66.4643C67.1149 30.6 67.6429 30.0612 67.6429 29.4V24.6C67.6429 23.9388 67.1149 23.4 66.4643 23.4H40.5357Z" fill="#FFD200"/>
<path d="M27 6H6V27H27V6Z" fill="#FFD200"/>
<path d="M53.4194 61.5483C55.3402 61.5483 56.9033 59.9852 56.9033 58.0644V55.7418V53.4192V51.0967C56.9033 49.1759 55.3402 47.6128 53.4194 47.6128C51.4986 47.6128 49.9355 49.1759 49.9355 51.0967V53.4192V55.7418V58.0644C49.9355 59.9852 51.4986 61.5483 53.4194 61.5483ZM52.2581 51.0967C52.2581 50.4568 52.7784 49.9354 53.4194 49.9354C54.0605 49.9354 54.5807 50.4568 54.5807 51.0967V53.4192H52.2581V51.0967ZM54.5807 55.7418V58.0644C54.5807 58.7043 54.0605 59.2257 53.4194 59.2257C52.7784 59.2257 52.2581 58.7043 52.2581 58.0644V55.7418H54.5807Z" fill="#44545F"/>
<path d="M42.9678 54.5805C42.9678 60.3428 47.6559 65.0321 53.4194 65.0321C59.1829 65.0321 63.871 60.3428 63.871 54.5805C63.871 48.8182 59.1829 44.1289 53.4194 44.1289C47.6559 44.1289 42.9678 48.8182 42.9678 54.5805ZM53.4194 46.4515C57.9008 46.4515 61.5484 50.0979 61.5484 54.5805C61.5484 59.0631 57.9008 62.7096 53.4194 62.7096C48.938 62.7096 45.2904 59.0631 45.2904 54.5805C45.2904 50.0979 48.938 46.4515 53.4194 46.4515Z" fill="#44545F"/>
<path d="M68.3491 37.576L66.1937 36.7144V34.8389H63.8711V38.2867L67.4874 39.7337C68.8182 40.2656 69.6776 41.5349 69.6776 42.9679V44.1292H61.5485V46.4518H69.6776V62.7098H61.5485V65.0324H69.6776V67.355C69.6776 68.6359 68.6359 69.6776 67.355 69.6776H39.484C38.2031 69.6776 37.1614 68.6359 37.1614 67.355V65.0324H45.2905V62.7098H37.1614V46.4518H45.2905V44.1292H37.1614V42.9679C37.1614 41.5349 38.0208 40.2656 39.3516 39.7337L42.9679 38.2867V34.8389H40.6453V36.7144L38.49 37.5772C36.2707 38.4644 34.8389 40.5803 34.8389 42.9679V67.355C34.8389 69.9168 36.9222 72.0002 39.484 72.0002H67.355C69.9168 72.0002 72.0002 69.9168 72.0002 67.355V42.9679C72.0002 40.5803 70.5683 38.4644 68.3491 37.576Z" fill="#44545F"/>
<path d="M51.097 16.2583H48.7744V18.5809H51.097V16.2583Z" fill="#44545F"/>
<path d="M2.32258 2.32258H37.1613V13.9355H48.7742H49.9355H51.0968V12.2934L38.8034 0H0V72H32.5161V69.6774H2.32258V2.32258ZM39.4839 3.96465L47.1321 11.6129H39.4839V3.96465Z" fill="#44545F"/>
<path d="M12.7739 23.226H19.7417V19.7421H23.2255V12.7744H19.7417V9.29053H12.7739V12.7744H9.29004V19.7421H12.7739V23.226ZM11.6126 17.4196V15.097H15.0965V11.6131H17.4191V15.097H20.9029V17.4196H17.4191V20.9034H15.0965V17.4196H11.6126Z" fill="#44545F"/>
<path d="M27.8713 4.64502H4.64551V27.8708H27.8713V4.64502ZM25.5487 25.5482H6.96809V6.9676H25.5487V25.5482Z" fill="#44545F"/>
<path d="M6.96809 32.5161H4.64551V34.8387H6.96809V32.5161Z" fill="#44545F"/>
<path d="M32.5158 32.5161H9.29004V34.8387H32.5158V32.5161Z" fill="#44545F"/>
<path d="M32.5165 37.1611H4.64551V39.4837H32.5165V37.1611Z" fill="#44545F"/>
<path d="M32.5165 48.7744H4.64551V51.097H32.5165V48.7744Z" fill="#44545F"/>
<path d="M32.5165 53.4194H4.64551V55.742H32.5165V53.4194Z" fill="#44545F"/>
<path d="M32.5159 58.0645H30.1934V60.387H32.5159V58.0645Z" fill="#44545F"/>
<path d="M27.8713 58.0645H4.64551V60.387H27.8713V58.0645Z" fill="#44545F"/>
</svg>
