<svg width="72" height="72" viewBox="0 0 72 72" fill="none" xmlns="http://www.w3.org/2000/svg">
<g clip-path="url(#clip0)">
<path d="M12 72H4V53H6.66667V69.625H9.33333V53H12V72Z" fill="#44545F"/>
<path d="M68 72H60V53H62.6667V69.625H65.3333V53H68V72Z" fill="#44545F"/>
<path d="M27.871 48.7739H26.7097C24.5474 48.7739 22.7474 47.2898 22.2283 45.29H0V54.5804H27.871V48.7739Z" fill="#FFD200"/>
<path d="M49.7716 45.29C49.2537 47.2898 47.4525 48.7739 45.2902 48.7739H44.1289V54.5804H71.9999V45.29H49.7716Z" fill="#FFD200"/>
<path d="M31.935 42.9676C33.9811 42.9676 35.6569 44.4842 35.9414 46.4514H36.0587C36.3432 44.4842 38.019 42.9676 40.0651 42.9676C40.2637 42.9676 40.4542 42.9989 40.6458 43.0256V30.1934H31.3555V43.0256C31.5459 42.9989 31.7364 42.9676 31.935 42.9676Z" fill="#FFD200"/>
<path d="M65.6147 34C65.0114 30.6588 61.9116 28.2334 58.2435 28.2334H56.025C53.0836 28.2334 50.4081 29.8347 49.2064 32.3104L47 31.397C48.591 28.1184 52.1333 26 56.0263 26H58.2447C63.0988 26 67.2021 29.2105 68 33.6337L65.6147 34Z" fill="#44545F"/>
<path d="M4 4H7V7H4V4Z" fill="#44545F"/>
<path d="M57 16C53.6916 16 51 18.6916 51 22C51 25.3084 53.6916 28 57 28C60.3084 28 63 25.3084 63 22C63 18.6916 60.3084 16 57 16ZM57 25.6C55.0152 25.6 53.4 23.9848 53.4 22C53.4 20.0152 55.0152 18.4 57 18.4C58.9848 18.4 60.6 20.0152 60.6 22C60.6 23.9848 58.9848 25.6 57 25.6Z" fill="#44545F"/>
<path d="M67.3548 11.6129H46.4516C45.6968 11.6129 44.9745 11.8115 44.3206 12.1506C42.8005 9.08477 39.6465 6.96774 36 6.96774C33.804 6.96774 31.7857 7.73768 30.1935 9.01742V4.64516C30.1935 2.08335 28.1102 0 25.5484 0H4.64516C2.08335 0 0 2.08335 0 4.64516V18.5806C0 21.1425 2.08335 23.2258 4.64516 23.2258H11.304L20.9032 28.7117V23.2258H25.5484C26.7445 23.2258 27.8594 22.7659 28.7013 21.9867C29.3493 22.8112 30.1332 23.5208 31.0192 24.0875C25.1385 26.1523 20.9032 31.745 20.9032 38.3226V44.129C20.9032 47.3307 23.508 49.9355 26.7097 49.9355V66.7742C26.7097 69.6553 29.0543 72 31.9355 72C33.5857 72 35.0419 71.2161 36 70.0188C36.9581 71.2161 38.4143 72 40.0645 72C42.9457 72 45.2903 69.6553 45.2903 66.7742V49.9355C48.492 49.9355 51.0968 47.3307 51.0968 44.129V38.3226C51.0968 37.1218 50.9412 35.9594 50.6752 34.8387H53.4194V40.4919L61.9003 34.8387H67.3548C69.9166 34.8387 72 32.7554 72 30.1935V16.2581C72 13.6963 69.9166 11.6129 67.3548 11.6129ZM36 9.29032C39.8427 9.29032 42.9677 12.4154 42.9677 16.2581C42.9677 20.1008 39.8427 23.2258 36 23.2258C32.1573 23.2258 29.0323 20.1008 29.0323 16.2581C29.0323 12.4154 32.1573 9.29032 36 9.29032ZM18.5806 20.9032V24.7076L11.9218 20.9032H7.3231C8.35665 18.1475 10.9858 16.2581 14.0319 16.2581H16.1628C19.2089 16.2581 21.8381 18.1475 22.8716 20.9032H18.5806ZM15.0968 13.9355C13.176 13.9355 11.6129 12.3724 11.6129 10.4516C11.6129 8.53084 13.176 6.96774 15.0968 6.96774C17.0175 6.96774 18.5806 8.53084 18.5806 10.4516C18.5806 12.3724 17.0175 13.9355 15.0968 13.9355ZM25.5484 20.9032H25.3138C24.473 17.8421 22.1876 15.4661 19.2774 14.4615C20.2796 13.4187 20.9032 12.0089 20.9032 10.4516C20.9032 7.24994 18.2985 4.64516 15.0968 4.64516C11.8951 4.64516 9.29032 7.24994 9.29032 10.4516C9.29032 12.0089 9.91393 13.4187 10.9161 14.4615C8.00477 15.4661 5.72052 17.8421 4.87974 20.9032H4.64516C3.36426 20.9032 2.32258 19.8615 2.32258 18.5806V4.64516C2.32258 3.36426 3.36426 2.32258 4.64516 2.32258H25.5484C26.8293 2.32258 27.871 3.36426 27.871 4.64516V11.7708C27.1324 13.1028 26.7097 14.6311 26.7097 16.2581C26.7097 17.5436 26.9721 18.7676 27.4459 19.8825C27.0186 20.5061 26.3253 20.9032 25.5484 20.9032ZM31.9355 69.6774C30.3352 69.6774 29.0323 68.3756 29.0323 66.7742V48.7742V47.0323C29.0323 45.4308 30.3352 44.129 31.9355 44.129C33.5357 44.129 34.8387 45.4308 34.8387 47.0323V66.7742C34.8387 68.3756 33.5357 69.6774 31.9355 69.6774ZM42.9677 66.7742C42.9677 68.3756 41.6648 69.6774 40.0645 69.6774C38.4643 69.6774 37.1613 68.3756 37.1613 66.7742V47.0323C37.1613 45.4308 38.4643 44.129 40.0645 44.129C41.6648 44.129 42.9677 45.4308 42.9677 47.0323V48.7742V66.7742ZM48.7742 44.129C48.7742 46.0498 47.2111 47.6129 45.2903 47.6129V47.0323V33.6774H42.9677V42.6914C42.1363 42.1339 41.1387 41.8064 40.0645 41.8064C38.4143 41.8064 36.9581 42.5903 36 43.7876C35.0419 42.5903 33.5857 41.8064 31.9355 41.8064C30.8613 41.8064 29.8637 42.1339 29.0323 42.6914V33.6774H26.7097V47.0323V47.6129C24.7889 47.6129 23.2258 46.0498 23.2258 44.129V38.3226C23.2258 31.2794 28.9568 25.5484 36 25.5484C43.0432 25.5484 48.7742 31.2794 48.7742 38.3226V44.129ZM69.6774 30.1935C69.6774 31.4745 68.6357 32.5161 67.3548 32.5161H61.1965L55.7419 36.1533V32.5161H49.932C48.2876 28.5852 45.0221 25.5066 40.9796 24.0875C43.567 22.4361 45.2903 19.548 45.2903 16.2581C45.2903 15.6135 45.2241 14.9853 45.0987 14.3768C45.4901 14.0957 45.9604 13.9355 46.4516 13.9355H67.3548C68.6357 13.9355 69.6774 14.9772 69.6774 16.2581V30.1935Z" fill="#44545F"/>
<path d="M65 16H68V19H65V16Z" fill="#44545F"/>
<path d="M65 21H68V23H65V21Z" fill="#44545F"/>
<path d="M4 9H7V12H4V9Z" fill="#44545F"/>
</g>
<defs>
<clipPath id="clip0">
<rect width="72" height="72" fill="white"/>
</clipPath>
</defs>
</svg>
