<svg width="72" height="72" viewBox="0 0 72 72" fill="none" xmlns="http://www.w3.org/2000/svg">
<g clip-path="url(#clip0)">
<path d="M9.29102 37.1611H16.2588V39.4837H9.29102V37.1611Z" fill="#FFD200"/>
<path d="M27.8711 37.1611H34.8388V39.4837H27.8711V37.1611Z" fill="#FFD200"/>
<path d="M55.7422 37.1611H62.7099V39.4837H55.7422V37.1611Z" fill="#FFD200"/>
<path d="M55.7422 18.5806H62.7099V20.9031H55.7422V18.5806Z" fill="#FFD200"/>
<path d="M37.1621 27.8711H44.1299V30.1937H37.1621V27.8711Z" fill="#FFD200"/>
<path d="M37.1621 9.29004H44.1299V11.6126H37.1621V9.29004Z" fill="#FFD200"/>
<path d="M27.8711 18.5806H34.8388V20.9031H27.8711V18.5806Z" fill="#FFD200"/>
<path d="M9.29102 18.5806H16.2588V20.9031H9.29102V18.5806Z" fill="#FFD200"/>
<path d="M24.5394 45.5237L24.3885 45.5504V6.96774C24.3885 6.32671 24.9087 5.80645 25.5498 5.80645H46.453C47.094 5.80645 47.6143 6.32671 47.6143 6.96774V41.5173L47.5922 41.5208C49.9589 42.4417 51.9819 44.0408 53.4207 46.0881V5.80645C53.4207 2.60477 50.816 0 47.6143 0H24.3885C21.1868 0 18.582 2.60477 18.582 5.80645V49.0854L18.6645 49.0877C20.1405 47.304 22.1925 46.0208 24.5394 45.5237V45.5237Z" fill="#FFD200"/>
<path d="M16.2588 65.0322H27.8717V67.3548H16.2588V65.0322Z" fill="#FFD200"/>
<path d="M-74.96 84.608L-76 84.792V-181C-76 -185.416 -72.416 -189 -68 -189H76C80.416 -189 84 -185.416 84 -181V57.008L83.848 57.032C100.152 63.376 114.088 74.392 124 88.496V-189C124 -211.056 106.056 -229 84 -229H-76C-98.056 -229 -116 -211.056 -116 -189V109.144L-115.432 109.16C-105.264 96.872 -91.128 88.032 -74.96 84.608V84.608Z" fill="#F0BC5E"/>
<path d="M66.1935 8.68966H52.2581V11.0345H66.1935C68.1143 11.0345 69.6774 12.6126 69.6774 14.5517V47.3793C69.6774 48.9058 68.7031 50.1955 67.3548 50.6808V15.7241C67.3548 14.431 66.3132 13.3793 65.0323 13.3793H53.4194V15.7241H65.0323V22.7586H53.4194V25.1034H65.0323V32.1379H53.4194V34.4828H65.0323V41.5172H53.4194V43.8621H65.0323V50.8966H56.693C55.9161 46.2526 52.8863 42.3813 48.7742 40.4679V6.34483C48.7742 5.05166 47.7325 4 46.4516 4H25.5484C24.2675 4 23.2258 5.05166 23.2258 6.34483V44.4072C20.023 45.4202 17.4054 47.7908 16.0665 50.8966H6.96774V43.8621H18.5806V41.5172H6.96774V34.4828H18.5806V32.1379H6.96774V25.1034H18.5806V22.7586H6.96774V15.7241H18.5806V13.3793H6.96774C5.68684 13.3793 4.64516 14.431 4.64516 15.7241V50.6808C3.2969 50.1955 2.32258 48.9058 2.32258 47.3793V14.5517C2.32258 12.6126 3.88568 11.0345 5.80645 11.0345H19.7419V8.68966H5.80645C2.60477 8.68966 0 11.3194 0 14.5517V47.3793C0 50.6117 2.60477 53.2414 5.80645 53.2414H15.3302C15.3267 53.2566 15.3255 53.273 15.3232 53.2895C10.6374 53.7643 6.96774 57.7681 6.96774 62.6207C6.96774 67.7922 11.1356 72 16.2581 72H55.7419C60.8644 72 65.0323 67.7922 65.0323 62.6207C65.0323 57.8454 61.4764 53.9003 56.8997 53.3223C56.8997 53.2953 56.9032 53.2683 56.9032 53.2414H66.1935C69.3952 53.2414 72 50.6117 72 47.3793V14.5517C72 11.3194 69.3952 8.68966 66.1935 8.68966ZM46.4516 22.7586H25.5484V15.7241H46.4516V22.7586ZM46.4516 25.1034V32.1379H25.5484V25.1034H46.4516ZM46.4516 6.34483V13.3793H25.5484V6.34483H46.4516ZM25.5484 34.4828H46.4516V39.6355C45.3356 39.3436 44.1732 39.1724 42.9677 39.1724C38.3272 39.1724 34.2197 41.4832 31.6858 45.0157C30.1366 44.2724 28.4423 43.8621 26.7097 43.8621C26.3183 43.8621 25.9305 43.8843 25.5484 43.923V34.4828ZM62.7097 62.6207C62.7097 66.5002 59.5846 69.6552 55.7419 69.6552H16.2581C12.4154 69.6552 9.29032 66.5002 9.29032 62.6207C9.29032 58.7412 12.4154 55.5862 16.2581 55.5862C20.1008 55.5862 23.2258 58.7412 23.2258 62.6207H25.5484C25.5484 57.9416 22.133 54.0632 17.6899 53.3645C18.6828 49.213 22.3676 46.2069 26.7097 46.2069C28.0185 46.2069 29.3028 46.4918 30.4862 47.0241C29.5641 48.9011 29.0323 51.0079 29.0323 53.2414H31.3548C31.3548 46.7767 36.5644 41.5172 42.9677 41.5172C49.3711 41.5172 54.5806 46.7767 54.5806 53.2414C54.5806 53.2683 54.5772 53.2953 54.5772 53.3234C50.004 53.905 46.4516 57.8478 46.4516 62.6207H48.7742C48.7742 58.7412 51.8992 55.5862 55.7419 55.5862C59.5846 55.5862 62.7097 58.7412 62.7097 62.6207Z" fill="#44545F"/>
<path d="M42 10H44V12H42V10Z" fill="#44545F"/>
<path d="M37 10H40V12H37V10Z" fill="#44545F"/>
<path d="M28 18H30V21H28V18Z" fill="#44545F"/>
<path d="M32 18H35V21H32V18Z" fill="#44545F"/>
<path d="M42 28H44V30H42V28Z" fill="#44545F"/>
<path d="M37 28H40V30H37V28Z" fill="#44545F"/>
<path d="M28 37H30V40H28V37Z" fill="#44545F"/>
<path d="M32 37H35V40H32V37Z" fill="#44545F"/>
<path d="M10 18H12V21H10V18Z" fill="#44545F"/>
<path d="M14 18H16V21H14V18Z" fill="#44545F"/>
<path d="M10 37H12V40H10V37Z" fill="#44545F"/>
<path d="M14 37H16V40H14V37Z" fill="#44545F"/>
<path d="M60 18H62V21H60V18Z" fill="#44545F"/>
<path d="M56 18H58V21H56V18Z" fill="#44545F"/>
<path d="M60 37H62V40H60V37Z" fill="#44545F"/>
<path d="M56 37H58V40H56V37Z" fill="#44545F"/>
<path d="M49.6713 52L52 51.683C51.3425 47.3022 47.339 44 42.6874 44C41.7748 44 40.8703 44.1243 40 44.3708L40.6704 46.5192C41.3231 46.3344 42.0018 46.2403 42.6874 46.2403C46.177 46.2403 49.1797 48.7158 49.6713 52V52Z" fill="#44545F"/>
<path d="M16 65H18V68H16V65Z" fill="#44545F"/>
<path d="M21 65H24V68H21V65Z" fill="#44545F"/>
<path d="M26 65H28V68H26V65Z" fill="#44545F"/>
</g>
<defs>
<clipPath id="clip0">
<rect width="72" height="72" fill="white"/>
</clipPath>
</defs>
</svg>
