<svg width="72" height="72" viewBox="0 0 72 72" fill="none" xmlns="http://www.w3.org/2000/svg">
<g clip-path="url(#clip0)">
<path d="M53.4189 42.1361V26.7104H46.4512V38.7067C49.0641 39.2777 51.4422 40.4741 53.4189 42.1361Z" fill="#FFD200"/>
<path d="M42.9676 38.3226C43.36 38.3226 43.7433 38.3538 44.1289 38.3804V32.5161H37.1611V39.4096C38.9671 38.7172 40.9189 38.3226 42.9676 38.3226Z" fill="#FFD200"/>
<path d="M59.175 55.7425H62.7099V20.9038H55.7422V44.5453C57.9173 47.3101 59.2261 50.7895 59.2261 54.5812C59.2261 54.9725 59.2028 55.3581 59.175 55.7425Z" fill="#FFD200"/>
<path d="M65.0322 11.6133H72V55.7423H65.0322V11.6133Z" fill="#FFD200"/>
<path d="M26.7097 54.5814C26.7097 48.8294 29.7048 43.7873 34.2127 40.8966C33.919 39.8492 33.53 38.8365 33.0423 37.8822L34.8784 35.3107L28.5622 28.9945L25.9907 30.8305C25.2161 30.4336 24.4069 30.0991 23.5694 29.8308L23.0495 26.7104H14.113L13.5941 29.8308C12.7566 30.0991 11.9475 30.4347 11.1729 30.8305L8.60194 28.9945L2.28516 35.3107L4.12122 37.8822C3.72429 38.6568 3.38974 39.4659 3.12153 40.3034L0 40.8223V49.7588L3.1204 50.2776C3.38861 51.1151 3.72429 51.9243 4.12009 52.6989L2.28402 55.2698L8.60024 61.5866L11.1717 59.7505C11.9463 60.1474 12.7555 60.482 13.593 60.7502L14.1118 63.8717H23.0483L23.5672 60.7513C24.4047 60.4831 25.2138 60.1474 25.9873 59.7517L26.7454 60.2949L27.4213 59.3496C26.9614 57.8413 26.7097 56.2411 26.7097 54.5814ZM18.5806 51.0975C15.3741 51.0975 12.7742 48.4977 12.7742 45.2911C12.7742 42.0845 15.3741 39.4846 18.5806 39.4846C21.7872 39.4846 24.3871 42.0845 24.3871 45.2911C24.3871 48.4977 21.7872 51.0975 18.5806 51.0975Z" fill="#FFD200"/>
<path d="M24.8203 41L22.8487 42.3048C23.3641 43.0839 23.636 43.983 23.636 44.9087C23.636 47.516 21.5155 49.6362 18.9079 49.6362C17.9822 49.6362 17.083 49.3644 16.3049 48.8491L15 50.8204C16.1659 51.592 17.517 52 18.9079 52C22.8193 52 26 48.8196 26 44.9087C26 43.5179 25.592 42.1669 24.8203 41Z" fill="#44545F"/>
<path d="M19.0921 40.3638C20.0178 40.3638 20.9182 40.6356 21.6939 41.1498L23 39.1796C21.8353 38.408 20.4848 38 19.0921 38C15.1807 38 12 41.1804 12 45.0913C12 46.4821 12.408 47.8331 13.1797 49L15.1513 47.6952C14.6359 46.9161 14.364 46.017 14.364 45.0913C14.364 42.484 16.4845 40.3638 19.0921 40.3638Z" fill="#44545F"/>
<path d="M42.7174 37.4545C37.5877 37.4545 32.9875 39.7115 29.8201 43.2695C28.7715 37.9909 24.1054 34 18.5217 34C12.1685 34 7 39.1655 7 45.5152C7 51.8648 12.1685 57.0303 18.5217 57.0303C21.0382 57.0303 23.459 56.1796 25.4359 54.6963C25.4359 54.7065 25.4348 54.7172 25.4348 54.7273C25.4348 64.2514 33.1878 72 42.7174 72C52.247 72 60 64.2514 60 54.7273C60 45.2031 52.247 37.4545 42.7174 37.4545ZM18.5217 54.7273C13.4393 54.7273 9.30435 50.5946 9.30435 45.5152C9.30435 40.4357 13.4393 36.303 18.5217 36.303C23.6041 36.303 27.7391 40.4357 27.7391 45.5152C27.7391 45.7446 27.7262 45.9689 27.7104 46.1932C26.8429 47.7125 26.1931 49.3683 25.8173 51.1288C24.0773 53.3823 21.3712 54.7273 18.5217 54.7273ZM42.7174 69.697C34.4586 69.697 27.7391 62.9813 27.7391 54.7273C27.7391 46.4732 34.4586 39.7576 42.7174 39.7576C50.9761 39.7576 57.6957 46.4732 57.6957 54.7273C57.6957 62.9813 50.9761 69.697 42.7174 69.697Z" fill="#44545F"/>
<path d="M41 48V56H46V53.3333H43.5V48H41Z" fill="#44545F"/>
<path d="M43.1388 41C40.1798 41 37.2893 42.0801 35 44.0425L36.4826 45.939C38.0503 44.5939 39.9668 43.7632 41.9696 43.5269V45.8995H44.308V43.5221C49.1777 44.0891 53.0513 48.1483 53.5925 53.2488H51.3232V55.6986H53.5879C53.3624 57.7978 52.5695 59.8044 51.2855 61.448L53.0947 63C54.9678 60.6017 56 57.5736 56 54.4737C56 47.0449 50.2299 41 43.1388 41Z" fill="#44545F"/>
<path d="M44.3623 64.5879V62.3232H42.1353V64.5925C37.4974 64.0513 33.8083 60.1766 33.2928 55.308H35.4541V52.9696H33.2972C33.512 50.9657 34.2672 49.0503 35.49 47.4815L33.767 46C31.983 48.2893 31 51.1798 31 54.1388C31 61.2299 36.4953 67 43.2488 67C46.0669 67 48.8197 65.969 51 64.0958L49.588 62.2855C48.0949 63.5695 46.2708 64.3624 44.3623 64.5879Z" fill="#44545F"/>
<path d="M65.0323 0V2.32H67.5278L59.312 8.88578L55.7419 5.31969L50.2666 10.7889C49.8124 10.5708 49.3106 10.44 48.7742 10.44C46.8536 10.44 45.2903 12.0016 45.2903 13.92C45.2903 14.5198 45.4576 15.0766 45.7258 15.5694L39.6557 22.3068C39.2446 22.1363 38.7955 22.04 38.3226 22.04C38.3005 22.04 38.2806 22.0457 38.2585 22.0468L33.589 9.60738C34.3465 8.96904 34.8387 8.02598 34.8387 6.96C34.8387 5.04158 33.2754 3.48 31.3548 3.48C29.4343 3.48 27.871 5.04158 27.871 6.96C27.871 7.21035 27.8999 7.45391 27.9509 7.69066L18.4309 13.5416C17.8339 13.0602 17.0837 12.76 16.2581 12.76C14.7463 12.76 13.4688 13.7331 12.988 15.08H6.75397C6.27312 13.7331 4.99559 12.76 3.48387 12.76C1.56332 12.76 0 14.3216 0 16.24C0 18.1584 1.56332 19.72 3.48387 19.72C4.99559 19.72 6.27312 18.7469 6.75397 17.4H12.9891C13.4699 18.7469 14.7475 19.72 16.2592 19.72C18.1798 19.72 19.7431 18.1584 19.7431 16.24C19.7431 15.9896 19.7141 15.7461 19.6631 15.5093L29.1831 9.65836C29.779 10.1398 30.5292 10.44 31.3548 10.44C31.377 10.44 31.3968 10.4343 31.4189 10.4332L36.0885 22.8715C35.3309 23.511 34.8387 24.454 34.8387 25.52C34.8387 27.4384 36.402 29 38.3226 29C40.2431 29 41.8064 27.4384 41.8064 25.52C41.8064 24.9202 41.6403 24.3634 41.371 23.8706L47.4411 17.1332C47.8522 17.3037 48.3013 17.4 48.7742 17.4C50.6947 17.4 52.2581 15.8384 52.2581 13.92C52.2581 13.3842 52.1271 12.8829 51.9088 12.4292L55.7419 8.60031L59.1396 11.9942L69.6774 3.57402V6.96H72V0H65.0323ZM3.48387 17.4C2.84312 17.4 2.32258 16.8789 2.32258 16.24C2.32258 15.6011 2.84312 15.08 3.48387 15.08C4.12462 15.08 4.64516 15.6011 4.64516 16.24C4.64516 16.8789 4.12462 17.4 3.48387 17.4ZM16.2581 17.4C15.6173 17.4 15.0968 16.8789 15.0968 16.24C15.0968 15.6011 15.6173 15.08 16.2581 15.08C16.8988 15.08 17.4194 15.6011 17.4194 16.24C17.4194 16.8789 16.8988 17.4 16.2581 17.4ZM30.1935 6.96C30.1935 6.32109 30.7141 5.8 31.3548 5.8C31.9956 5.8 32.5161 6.32109 32.5161 6.96C32.5161 7.59891 31.9956 8.12 31.3548 8.12C30.7141 8.12 30.1935 7.59891 30.1935 6.96ZM38.3226 26.68C37.6818 26.68 37.1613 26.1589 37.1613 25.52C37.1613 24.8811 37.6818 24.36 38.3226 24.36C38.9633 24.36 39.4839 24.8811 39.4839 25.52C39.4839 26.1589 38.9633 26.68 38.3226 26.68ZM48.7742 15.08C48.1334 15.08 47.6129 14.5589 47.6129 13.92C47.6129 13.2811 48.1334 12.76 48.7742 12.76C49.4149 12.76 49.9355 13.2811 49.9355 13.92C49.9355 14.5589 49.4149 15.08 48.7742 15.08Z" fill="#44545F"/>
</g>
<defs>
<clipPath id="clip0">
<rect width="72" height="72" fill="white"/>
</clipPath>
</defs>
</svg>
