<svg width="72" height="72" viewBox="0 0 72 72" fill="none" xmlns="http://www.w3.org/2000/svg">
<path d="M58.9688 8.09375C55.9671 8.09375 53.1262 9.12975 50.8484 11.0272C50.8565 11.2052 50.875 11.3821 50.875 11.5625C50.875 15.1515 49.0574 18.3162 46.2928 20.187C46.2835 20.3962 46.25 20.6021 46.25 20.8125C46.25 27.8252 51.9561 33.5312 58.9688 33.5312C65.9814 33.5312 71.6875 27.8252 71.6875 20.8125C71.6875 13.7998 65.9814 8.09375 58.9688 8.09375V8.09375Z" fill="#FFD200"/>
<path d="M62.4375 33.0387V69.375H57.8125V36.3224L60.7413 33.3937C60.1608 33.4746 59.5723 33.5312 58.9688 33.5312C58.4484 33.5312 57.9374 33.4919 57.4333 33.4318L37.6776 53.1875H27.4794L26.5938 51.711V50.875H36.3224L54.486 32.7115C53.7194 32.4201 52.9898 32.0536 52.3018 31.6257L35.3651 48.5625H26.5938V42.5407C30.1932 41.5718 33.3289 39.2454 35.2934 36.053L37 33.2803V34.6875C37 36.5999 38.5563 38.1562 40.4688 38.1562C42.3812 38.1562 43.9375 36.5999 43.9375 34.6875V22.592C48.6226 21.1154 52.0312 16.7298 52.0312 11.5625C52.0312 5.18694 46.8443 0 40.4688 0C34.0932 0 28.9062 5.18694 28.9062 11.5625C28.9062 15.9135 31.324 19.7071 34.8841 21.6797C34.5811 21.9237 34.3013 22.1977 34.0793 22.5307L28.3778 31.0823C27.4702 32.4432 26.1914 33.4665 24.7264 34.0689C25.8919 32.6675 26.5938 30.8684 26.5938 28.9062C26.5938 24.4431 22.962 20.8125 18.5 20.8125C14.038 20.8125 10.4062 24.4431 10.4062 28.9062C10.4062 31.2257 11.3925 33.315 12.9616 34.7916C9.2685 35.283 6.10847 37.6938 4.69438 41.2284L0.280969 52.2625C0.0948125 52.7296 0 53.221 0 53.7217V53.8812C0 56.0492 1.76328 57.8125 3.93125 57.8125C5.52456 57.8125 6.94791 56.8621 7.55956 55.3936L11.5625 45.7875V52.9562L6.08534 66.104C5.883 66.5873 5.78125 67.0972 5.78125 67.6198V67.7435C5.78125 69.9184 7.55031 71.6875 9.72406 71.6875C11.3035 71.6875 12.7268 70.7486 13.3489 69.2975L19.1591 55.7417L21.9688 60.3054V67.7435C21.9688 69.9184 23.7378 71.6875 25.9116 71.6875H26.0376H26.1185H64.75V32.1276C64.0169 32.5033 63.2446 32.8086 62.4375 33.0387ZM41.625 34.6875C41.625 35.3246 41.107 35.8438 40.4688 35.8438C39.8305 35.8438 39.3125 35.3246 39.3125 34.6875V23.066C39.6929 23.1042 40.0779 23.125 40.4688 23.125C40.8596 23.125 41.2446 23.1042 41.625 23.066V34.6875ZM31.2188 11.5625C31.2188 6.46228 35.3685 2.3125 40.4688 2.3125C45.569 2.3125 49.7188 6.46228 49.7188 11.5625C49.7188 16.6627 45.569 20.8125 40.4688 20.8125C35.3685 20.8125 31.2188 16.6627 31.2188 11.5625ZM12.7188 28.9062C12.7188 25.7185 15.3122 23.125 18.5 23.125C21.6878 23.125 24.2812 25.7185 24.2812 28.9062C24.2812 32.094 21.6878 34.6875 18.5 34.6875C15.3122 34.6875 12.7188 32.094 12.7188 28.9062ZM27.75 67.7435C27.75 68.6431 27.0181 69.375 26.1197 69.375H26.0387H25.9116C25.0132 69.375 24.2812 68.6431 24.2812 67.7435V60.3054C24.2812 59.8787 24.1622 59.4602 23.9378 59.0936L20.3026 53.1875H17.738L11.2237 68.3864C10.9659 68.9877 10.3785 69.375 9.72406 69.375C8.82566 69.375 8.09375 68.6431 8.09375 67.7435V67.6198C8.09375 67.4036 8.13538 67.1932 8.21863 66.9931L13.875 53.4188V41.625H10.7913L5.42513 54.5045C5.17422 55.1092 4.588 55.5 3.93125 55.5C3.03863 55.5 2.3125 54.7739 2.3125 53.8812V53.7217C2.3125 53.5159 2.35181 53.3124 2.42928 53.1204L6.84153 42.0875C8.07756 38.9968 11.0272 37 14.356 37H21.6438C25.1322 37 28.3674 35.2679 30.3018 32.3657L36.0033 23.8141C36.2357 23.4649 36.5976 23.2383 37 23.1608V28.8681L33.3243 34.8413C31.5275 37.7597 28.5698 39.8201 25.2097 40.4919L24.2812 40.6769V52.3515L27.2551 57.3095C27.5789 57.8483 27.75 58.4658 27.75 59.0936V67.7435ZM34.6875 69.375H29.6994C29.9272 68.8767 30.0625 68.3274 30.0625 67.7435V59.0936C30.0625 58.0461 29.7781 57.0182 29.2381 56.1186L28.8669 55.5H34.6875V69.375ZM41.625 69.375H37V55.5H38.6349L41.625 52.5099V69.375ZM48.5625 69.375H43.9375V50.1974L48.5625 45.5724V69.375ZM55.5 69.375H50.875V43.2599L55.5 38.6349V69.375Z" fill="#44545F"/>
<path d="M47.4062 11.5625C47.4062 7.73647 44.2948 4.625 40.4688 4.625C36.6427 4.625 33.5312 7.73647 33.5312 11.5625C33.5312 15.3885 36.6427 18.5 40.4688 18.5C44.2948 18.5 47.4062 15.3885 47.4062 11.5625ZM35.8438 11.5625C35.8438 9.01181 37.9181 6.9375 40.4688 6.9375C43.0194 6.9375 45.0938 9.01181 45.0938 11.5625C45.0938 14.1132 43.0194 16.1875 40.4688 16.1875C37.9181 16.1875 35.8438 14.1132 35.8438 11.5625Z" fill="#44545F"/>
<path d="M58.9688 19.6562C58.3305 19.6562 57.8125 19.1371 57.8125 18.5V17.3438H58.9688C59.607 17.3438 60.125 17.8629 60.125 18.5H62.4375C62.4375 16.9946 61.4674 15.7227 60.125 15.244V12.7188H57.8125V15.0312H55.5V18.5C55.5 20.4124 57.0563 21.9688 58.9688 21.9688C59.607 21.9688 60.125 22.4879 60.125 23.125V24.2812H58.9688C58.3305 24.2812 57.8125 23.7621 57.8125 23.125H55.5C55.5 24.6304 56.4701 25.9023 57.8125 26.381V28.9062H60.125V26.5938H62.4375V23.125C62.4375 21.2126 60.8812 19.6562 58.9688 19.6562Z" fill="#44545F"/>
</svg>
