<svg width="72" height="72" viewBox="0 0 72 72" fill="none" xmlns="http://www.w3.org/2000/svg">
<path d="M24.3867 18.5805H35.9996V16.2579C35.9996 16.2579 37.1609 13.9353 44.1286 13.9353C46.3711 13.9353 48.005 14.1769 49.2 14.5032L48.7738 13.9353V11.6127H52.6885C49.6703 5.4312 43.3424 1.16113 35.9996 1.16113C25.7373 1.16113 17.4189 9.47945 17.4189 19.7418V25.5482C17.4189 22.9829 19.4988 20.9031 22.0641 20.9031C22.0641 19.6198 23.1035 18.5805 24.3867 18.5805Z" fill="#FFD200"/>
<path d="M52.2571 18.5806L49.9346 20.9031C52.4999 20.9031 54.5797 22.983 54.5797 25.5483V19.7419C54.5797 19.3493 54.5449 18.9661 54.5217 18.5806H52.2571Z" fill="#FFD200"/>
<path d="M44.1294 27.8711C42.2086 27.8711 40.6455 26.308 40.6455 24.3872C40.6455 22.4664 42.2086 20.9033 44.1294 20.9033C46.0502 20.9033 47.6133 22.4664 47.6133 24.3872C47.6133 26.308 46.0502 27.8711 44.1294 27.8711ZM44.1294 23.2259C43.4895 23.2259 42.9681 23.7462 42.9681 24.3872C42.9681 25.0282 43.4895 25.5485 44.1294 25.5485C44.7693 25.5485 45.2907 25.0282 45.2907 24.3872C45.2907 23.7462 44.7693 23.2259 44.1294 23.2259Z" fill="#FFD200"/>
<path d="M65.004 56.6405C64.2236 51.9616 60.943 48.1224 56.443 46.622L46.4512 43.2914V41.8062H44.1286V43.9871L42.3948 50.9188L37.7044 45.29H34.2948L29.6044 50.9188L27.8706 43.9871V41.8062H25.548V43.2914L15.5562 46.622C11.0551 48.1224 7.77444 51.9616 6.99522 56.6405L4.43457 71.9997H67.5646L65.004 56.6405ZM56.7902 69.6771L55.7334 59.1082L53.4224 59.3393L54.456 69.6771H17.5386L18.5733 59.3416L16.2623 59.1105L15.2044 69.6771H7.17754L9.28528 57.0225C9.92399 53.1949 12.6077 50.0536 16.2902 48.825L25.8871 45.6268L28.4593 55.9193L35.3818 47.6126H36.6174L43.5399 55.9193L46.1121 45.6268L55.709 48.825C59.3915 50.0536 62.0764 53.1949 62.7139 57.0225L64.8228 69.6771H56.7902Z" fill="#44545F"/>
<path d="M21.4163 31.2898C22.0085 33.3279 23.1013 35.1976 24.6435 36.7386L29.1725 41.2665C30.2688 42.3627 31.7274 42.9677 33.2777 42.9677H38.7206C40.271 42.9677 41.7296 42.3627 42.827 41.2653L47.356 36.7374C48.8982 35.1952 49.9921 33.3267 50.5844 31.2886C53.4772 30.9612 55.7417 28.5283 55.7417 25.5484V19.7419H58.0643C59.3452 19.7419 60.3868 18.7003 60.3868 17.4194V12.7742C60.3868 11.4933 59.3452 10.4516 58.0643 10.4516H53.4098C49.9654 3.99019 43.3658 0 35.9997 0C25.1138 0 16.2578 8.856 16.2578 19.7419V25.5484C16.2578 28.5283 18.5223 30.9623 21.4163 31.2898ZM51.0965 16.6541V18.0999L49.3778 19.8186C48.0992 18.3519 46.2226 17.4194 44.1288 17.4194C42.035 17.4194 40.1583 18.3519 38.8809 19.8186L37.161 18.0987V16.6703C37.6348 16.2348 39.3338 15.0968 44.1288 15.0968C48.9888 15.0968 50.6668 16.2662 51.0965 16.6541ZM44.1288 19.7419C46.6906 19.7419 48.7739 21.8253 48.7739 24.3871C48.7739 26.9489 46.6906 29.0323 44.1288 29.0323C41.567 29.0323 39.4836 26.9489 39.4836 24.3871C39.4836 21.8253 41.567 19.7419 44.1288 19.7419ZM51.0431 28.8348C51.0756 28.4609 51.0977 28.0846 51.0977 27.7049V24.3871H51.0965C51.0965 23.609 50.963 22.8623 50.7261 22.1632C52.2659 22.5244 53.4191 23.9005 53.4191 25.5484C53.4191 27.0801 52.4192 28.3692 51.0431 28.8348ZM53.4191 20.9323C53.0568 20.6582 52.6724 20.4143 52.2508 20.2297L52.7386 19.7419H53.4191V20.9323ZM58.0643 17.4194H53.4191V15.984L53.2972 15.739C53.1369 15.4196 52.3995 14.2792 49.9352 13.5093V12.7742H58.0643V17.4194ZM35.9997 2.32258C42.0733 2.32258 47.5546 5.39652 50.7284 10.4516H47.6126V12.9983C46.6256 12.859 45.4759 12.7742 44.1288 12.7742C36.8138 12.7742 35.2089 15.2443 34.9604 15.739L34.8385 15.984V19.0614L37.6406 21.8636C37.3352 22.6475 37.161 23.4964 37.161 24.3871C37.161 28.2298 40.2861 31.3548 44.1288 31.3548C45.8185 31.3548 47.3688 30.7498 48.5765 29.7453C48.1805 31.7601 47.1981 33.6124 45.7139 35.0965L41.1849 39.6244C40.5357 40.2735 39.6392 40.6452 38.7218 40.6452H33.2788C32.3614 40.6452 31.4637 40.2736 30.8157 39.6232L26.2867 35.0954C24.3125 33.1212 23.2256 30.4966 23.2256 27.7049V20.9032C23.2256 20.2622 23.747 19.7419 24.3868 19.7419H32.5159V17.4194H24.3868C22.8388 17.4194 21.5394 18.4413 21.0865 19.8406C20.1539 19.9997 19.305 20.3841 18.5804 20.9323V19.7419C18.5804 10.1369 26.3947 2.32258 35.9997 2.32258ZM20.903 22.2782V27.7049C20.903 28.0846 20.925 28.4609 20.9576 28.8348C19.5814 28.3703 18.5804 27.0801 18.5804 25.5484C18.5804 24.0364 19.5547 22.7601 20.903 22.2782Z" fill="#44545F"/>
</svg>
