<svg width="72" height="72" viewBox="0 0 72 72" fill="none" xmlns="http://www.w3.org/2000/svg">
<path d="M15.3636 21L6.73255 15.5818H3.54545C1.59038 15.5818 0 14.0841 0 12.2428V3.33896C0 1.49829 1.59038 0 3.54545 0H22.4545C24.409 0 26 1.49829 26 3.33896V12.2428C26 14.0841 24.409 15.5818 22.4545 15.5818H15.3636V21Z" fill="#FFD200"/>
<path d="M56.6364 21V15.5818H49.5455C47.5904 15.5818 46 14.0841 46 12.2428V3.33896C46 1.49829 47.5904 0 49.5455 0H68.4545C70.409 0 72 1.49829 72 3.33896V12.2428C72 14.0841 70.409 15.5818 68.4545 15.5818H65.2669L56.6364 21Z" fill="#FFD200"/>
<path d="M72 44.5712V43.4283C72 40.9026 70.2762 38.6537 67.8073 37.959L63.871 36.8524V36.5471C65.3175 35.474 66.1936 33.7859 66.1936 31.9996V29.9505C66.1936 26.8796 63.8698 24.2752 60.9025 24.0213C59.2768 23.8829 57.6591 24.4226 56.4643 25.5001C55.2668 26.5816 54.5806 28.1174 54.5806 29.7139V31.9996C54.5806 33.7859 55.4561 35.474 56.9032 36.5471V36.8524L52.9663 37.959C52.2739 38.1543 51.6508 38.4813 51.0968 38.8914V28.571H39.4839V30.8568H48.7742V69.7143H23.2258V30.8568H32.5161V28.571H20.9032V38.8914C20.3504 38.4813 19.7255 38.1532 19.0331 37.959L15.0968 36.8524V36.5471C16.5433 35.474 17.4194 33.7859 17.4194 31.9996V29.9505C17.4194 26.8796 15.0956 24.2752 12.1283 24.0213C10.5015 23.8829 8.88489 24.4226 7.69015 25.5001C6.49257 26.5816 5.80645 28.1174 5.80645 29.7139V31.9996C5.80645 33.7859 6.68196 35.474 8.12903 36.5471V36.8524L4.1921 37.959C1.72322 38.6537 0 40.9026 0 43.4283V44.5712H20.9032V61.7488C20.3504 61.3386 19.7255 61.0105 19.0331 60.8163L15.0968 59.7097V59.4045C16.5433 58.3314 17.4194 56.6433 17.4194 54.857V52.8079C17.4194 49.737 15.0956 47.1326 12.1283 46.8787C10.5015 46.7392 8.88489 47.2788 7.69015 48.3575C6.49257 49.439 5.80645 50.9747 5.80645 52.5713V54.857C5.80645 56.6433 6.68196 58.3314 8.12903 59.4045V59.7097L4.1921 60.8163C1.72322 61.5111 0 63.76 0 66.2857V67.4285H20.9032V72H51.0968V67.4285H72V66.2857C72 63.76 70.2762 61.5111 67.8073 60.8163L63.871 59.7097V59.4045C65.3175 58.3314 66.1936 56.6433 66.1936 54.857V52.8079C66.1936 49.737 63.8698 47.1326 60.9025 46.8787C59.2768 46.7392 57.6591 47.2788 56.4643 48.3575C55.2668 49.439 54.5806 50.9747 54.5806 52.5713V54.857C54.5806 56.6433 55.4561 58.3314 56.9032 59.4045V59.7097L52.9663 60.8163C52.2739 61.0116 51.6508 61.3386 51.0968 61.7488V44.5712H72ZM53.6048 40.1576L59.2258 38.5762V35.2798L58.6486 34.9494C57.5559 34.3233 56.9032 33.2206 56.9032 31.9996V29.7139C56.9032 28.7552 57.3155 27.8339 58.0339 27.186C58.7608 26.5292 59.7027 26.2144 60.7029 26.2993C62.4783 26.451 63.871 28.0549 63.871 29.9505V31.9996C63.871 33.2206 63.2183 34.3233 62.1256 34.9494L61.5484 35.2798V38.5762L67.1688 40.1576C68.2581 40.464 69.1047 41.2754 69.4739 42.2855H51.2998C51.6689 41.2743 52.5155 40.4629 53.6048 40.1576ZM2.52558 42.2855C2.89472 41.2743 3.74131 40.4629 4.83058 40.1576L10.4516 38.5762V35.2798L9.87437 34.9494C8.78169 34.3233 8.12903 33.2206 8.12903 31.9996V29.7139C8.12903 28.7552 8.54127 27.8339 9.2597 27.186C9.98664 26.5292 10.9296 26.2144 11.9287 26.2993C13.7041 26.451 15.0968 28.0549 15.0968 29.9505V31.9996C15.0968 33.2206 14.4441 34.3233 13.3514 34.9494L12.7742 35.2798V38.5762L18.3947 40.1576C19.4839 40.464 20.3305 41.2754 20.6997 42.2855H2.52558ZM2.52558 65.1428C2.89472 64.1316 3.74131 63.3202 4.83058 63.015L10.4516 61.4335V58.1372L9.87437 57.8068C8.78169 57.1807 8.12903 56.078 8.12903 54.857V52.5713C8.12903 51.6125 8.54127 50.6912 9.2597 50.0433C9.98664 49.3865 10.9296 49.0718 11.9287 49.1566C13.7041 49.3084 15.0968 50.9122 15.0968 52.8079V54.857C15.0968 56.078 14.4441 57.1807 13.3514 57.8068L12.7742 58.1372V61.4335L18.3947 63.015C19.4839 63.3214 20.3305 64.1327 20.6997 65.1428H2.52558ZM53.6048 63.015L59.2258 61.4335V58.1372L58.6486 57.8068C57.5559 57.1807 56.9032 56.078 56.9032 54.857V52.5713C56.9032 51.6125 57.3155 50.6912 58.0339 50.0433C58.7608 49.3865 59.7027 49.0718 60.7029 49.1566C62.4783 49.3084 63.871 50.9122 63.871 52.8079V54.857C63.871 56.078 63.2183 57.1807 62.1256 57.8068L61.5484 58.1372V61.4335L67.1688 63.015C68.2581 63.3214 69.1047 64.1327 69.4739 65.1428H51.2998C51.6689 64.1316 52.5155 63.3202 53.6048 63.015Z" fill="#44545F"/>
<path d="M4 4H20V6H4V4Z" fill="#44545F"/>
<path d="M18 10H20V12H18V10Z" fill="#44545F"/>
<path d="M4 10H16V12H4V10Z" fill="#44545F"/>
<path d="M52 4H68V6H52V4Z" fill="#44545F"/>
<path d="M52 10H62V12H52V10Z" fill="#44545F"/>
<path d="M66 10H68V12H66V10Z" fill="#44545F"/>
<path d="M34.9 25.716V32.9413H32.7C30.8803 32.9413 29.4 34.525 29.4 36.4707V40H42.6V36.4707C42.6 34.525 41.1192 32.9413 39.3 32.9413H37.1V25.716C38.2473 25.3972 39.2039 24.5993 39.7882 23.5297H47V20.0004C47 17.4004 45.3672 15.0855 43.0286 14.3703L39.3 13.2312V12.917C40.6702 11.8123 41.5 10.0746 41.5 8.23586V6.12652C41.5 2.96539 39.2989 0.284487 36.4882 0.0231172C34.9505 -0.123939 33.416 0.436138 32.2843 1.54538C31.1499 2.65864 30.5 4.23949 30.5 5.88296V8.23586C30.5 10.0746 31.3293 11.8123 32.7 12.917V13.2312L28.9708 14.3703C26.6323 15.0855 25 17.4004 25 20.0004V23.5297H32.2112C32.7956 24.5993 33.7527 25.3972 34.9 25.716ZM40.4 36.4707V37.6471H31.6V36.4707C31.6 35.8215 32.0936 35.2942 32.7 35.2942H39.3C39.9059 35.2942 40.4 35.8215 40.4 36.4707ZM36 23.5297C34.7867 23.5297 33.8 22.4745 33.8 21.1768C33.8 19.8792 34.7867 18.8239 36 18.8239C37.2133 18.8239 38.2 19.8792 38.2 21.1768C38.2 22.4745 37.2133 23.5297 36 23.5297ZM27.2 21.1768V20.0004C27.2 18.4454 28.1765 17.0604 29.5756 16.6336L34.9 15.0056V11.6124L34.3532 11.2723C33.3182 10.6278 32.7 9.49273 32.7 8.23586V5.88296C32.7 4.89608 33.0905 3.94768 33.771 3.28076C34.4596 2.60464 35.3517 2.27606 36.2992 2.36797C37.9809 2.52422 39.3 4.17516 39.3 6.12652V8.23586C39.3 9.49273 38.6818 10.6278 37.6468 11.2723L37.1 11.6124V15.0056L42.4238 16.6336C43.823 17.0604 44.8 18.4454 44.8 20.0004V21.1768H40.4C40.4 18.5815 38.4267 16.471 36 16.471C33.5733 16.471 31.6 18.5815 31.6 21.1768H27.2Z" fill="#44545F"/>
<path d="M46.4525 48.7744H37.1621V41.8066H46.4525V48.7744Z" fill="#FFD200"/>
<path d="M34.8392 48.7744H25.5488V41.8066H34.8392V48.7744Z" fill="#FFD200"/>
<path d="M46.4525 67.3555H37.1621V60.3877H46.4525V67.3555Z" fill="#FFD200"/>
<path d="M34.8392 67.3555H25.5488V60.3877H34.8392V67.3555Z" fill="#FFD200"/>
</svg>
