<svg width="72" height="72" viewBox="0 0 72 72" fill="none" xmlns="http://www.w3.org/2000/svg">
<path d="M15.0967 27.8709C15.0967 34.9259 20.8158 40.6451 27.8709 40.6451V15.0967C20.8158 15.0967 15.0967 20.8158 15.0967 27.8709Z" fill="#FFD200"/>
<path d="M67.355 39.4835H41.8066V27.8706H67.355V39.4835Z" fill="#FFD200"/>
<path d="M62.7095 19.7418H44.1289V15.0967H62.7095V19.7418Z" fill="#FFD200"/>
<path d="M68.5161 23.2258H67.3548V9.29032H11.6129V0H5.80645C2.60496 0 0 2.60496 0 5.80645V49.9355C0 53.137 2.60496 55.7419 5.80645 55.7419H37.1613V68.5161C37.1613 70.4367 38.7246 72 40.6452 72H68.5161C70.4367 72 72 70.4367 72 68.5161V26.7097C72 24.7891 70.4367 23.2258 68.5161 23.2258ZM2.32258 5.80645C2.32258 3.8859 3.8859 2.32258 5.80645 2.32258H9.29032V44.129H5.80645C4.5 44.129 3.29335 44.5634 2.32258 45.2926V5.80645ZM5.80645 53.4194C3.8859 53.4194 2.32258 51.856 2.32258 49.9355C2.32258 48.0149 3.8859 46.4516 5.80645 46.4516H11.6129V11.6129H65.0323V23.2258H41.0052C39.0552 17.7131 33.7869 13.9355 27.871 13.9355C20.1865 13.9355 13.9355 20.1865 13.9355 27.871C13.9355 35.5554 20.1865 41.8065 27.871 41.8065C31.3316 41.8065 34.6295 40.5068 37.1613 38.2426V53.4194H5.80645ZM37.1613 26.7097H29.0323V16.3233C33.4092 16.7656 37.2021 19.6722 38.7479 23.7951C37.7941 24.4171 37.1613 25.4894 37.1613 26.7097ZM26.7097 39.4249C20.8499 38.8403 16.2581 33.8816 16.2581 27.871C16.2581 21.8604 20.8499 16.9017 26.7097 16.317V39.4249ZM29.0323 29.0323H37.1613V34.8132C35.2056 37.425 32.2513 39.0881 29.0323 39.413V29.0323ZM69.6774 68.5161C69.6774 69.1557 69.1557 69.6774 68.5161 69.6774H40.6452C40.0055 69.6774 39.4839 69.1557 39.4839 68.5161V26.7097C39.4839 26.0701 40.0055 25.5484 40.6452 25.5484H68.5161C69.1557 25.5484 69.6774 26.0701 69.6774 26.7097V68.5161Z" fill="#44545F"/>
<path d="M60.3867 67.3545H67.3545V60.3867H60.3867V67.3545ZM62.7093 62.7093H65.0319V65.0319H62.7093V62.7093Z" fill="#44545F"/>
<path d="M51.0967 67.3545H58.0644V60.3867H51.0967V67.3545ZM53.4193 62.7093H55.7418V65.0319H53.4193V62.7093Z" fill="#44545F"/>
<path d="M41.8066 67.3545H48.7744V60.3867H41.8066V67.3545ZM44.1292 62.7093H46.4518V65.0319H44.1292V62.7093Z" fill="#44545F"/>
<path d="M60.3867 58.0649H67.3545V51.0972H60.3867V58.0649ZM62.7093 53.4197H65.0319V55.7423H62.7093V53.4197Z" fill="#44545F"/>
<path d="M51.0967 58.0649H58.0644V51.0972H51.0967V58.0649ZM53.4193 53.4197H55.7418V55.7423H53.4193V53.4197Z" fill="#44545F"/>
<path d="M41.8066 58.0649H48.7744V51.0972H41.8066V58.0649ZM44.1292 53.4197H46.4518V55.7423H44.1292V53.4197Z" fill="#44545F"/>
<path d="M60.3867 48.7744H67.3545V41.8066H60.3867V48.7744ZM62.7093 44.1292H65.0319V46.4518H62.7093V44.1292Z" fill="#44545F"/>
<path d="M51.0967 48.7744H58.0644V41.8066H51.0967V48.7744ZM53.4193 44.1292H55.7418V46.4518H53.4193V44.1292Z" fill="#44545F"/>
<path d="M41.8066 48.7744H48.7744V41.8066H41.8066V48.7744ZM44.1292 44.1292H46.4518V46.4518H44.1292V44.1292Z" fill="#44545F"/>
<path d="M44.1289 13.9355H62.7095V16.2581H44.1289V13.9355Z" fill="#44545F"/>
<path d="M44.1289 18.5806H62.7095V20.9031H44.1289V18.5806Z" fill="#44545F"/>
<path d="M44.1289 34.8389H65.0321V37.1615H44.1289V34.8389Z" fill="#44545F"/>
</svg>
