<?xml version="1.0" standalone="no"?>
<!DOCTYPE svg PUBLIC "-//W3C//DTD SVG 1.1//EN" "http://www.w3.org/Graphics/SVG/1.1/DTD/svg11.dtd" >
<svg xmlns="http://www.w3.org/2000/svg" xmlns:xlink="http://www.w3.org/1999/xlink" version="1.1">
<metadata>
Created by FontForge 20170731 at Tue Jul 15 12:59:09 2014
 By Aleksey,,,
Core Sans D 35 Regular
</metadata>
<defs>
<font id="CoreSansD35Regular" horiz-adv-x="358" >
  <font-face 
    font-family="Core Sans D 35 Regular"
    font-weight="400"
    font-stretch="normal"
    units-per-em="1000"
    panose-1="2 11 5 3 3 3 2 2 2 4"
    ascent="800"
    descent="-200"
    x-height="500"
    cap-height="700"
    bbox="-379 -232 1050 995"
    underline-thickness="24"
    underline-position="-255"
    unicode-range="U+0008-FB04"
  />
<missing-glyph horiz-adv-x="500" 
d="M430 0h-360v750h360v-750zM145 65h210v620h-210v-620z" />
    <glyph glyph-name="f_f" unicode="ff" horiz-adv-x="625" 
d="M279 712q40 0 68 -10l-10 -66q-21 8 -55 8q-54 0 -73.5 -23.5t-19.5 -89.5v-31h210v31q0 104 39 142.5t136 38.5h29v-67h-35q-56 0 -75 -24t-19 -88v-33h129v-67h-129v-433h-75v433h-210v-433h-75v433h-77v67h77v31q0 98 39 139.5t126 41.5z" />
    <glyph glyph-name="f_i" unicode="fi" horiz-adv-x="548" 
d="M399 620v92h75v-92h-75zM189 500h285v-500h-75v433h-210v-433h-75v433h-77v67h77v31q0 104 39 142.5t136 38.5h29v-67h-35q-56 0 -75 -24t-19 -88v-33z" />
    <glyph glyph-name="f_l" unicode="fl" horiz-adv-x="583" 
d="M556 67v-67h-20q-142 0 -142 144v478q-49 22 -109 22q-57 0 -76.5 -22.5t-19.5 -84.5v-37h129v-67h-129v-433h-75v433h-77v67h77v31q0 100 38.5 140.5t126.5 40.5q65 0 115 -25v25h75v-560q0 -85 69 -85h18z" />
    <glyph glyph-name="f_f_i" unicode="ffi" horiz-adv-x="833" 
d="M474 500h285v-500h-75v433h-210v-433h-75v433h-210v-433h-75v433h-77v67h77v31q0 98 39 139.5t126 41.5q40 0 68 -10l-10 -66q-21 8 -55 8q-54 0 -73.5 -23.5t-19.5 -89.5v-31h210v31q0 104 39 142.5t136 38.5h29v-67h-35q-56 0 -75 -24t-19 -88v-33zM684 620v92h75v-92
h-75z" />
    <glyph glyph-name="f_f_l" unicode="ffl" horiz-adv-x="868" 
d="M841 67v-67h-20q-142 0 -142 144v478q-49 22 -109 22q-57 0 -76.5 -22.5t-19.5 -84.5v-37h129v-67h-129v-433h-75v433h-210v-433h-75v433h-77v67h77v31q0 98 39 139.5t126 41.5q40 0 68 -10l-10 -66q-21 8 -55 8q-54 0 -73.5 -23.5t-19.5 -89.5v-31h210v31
q0 100 38.5 140.5t126.5 40.5q65 0 115 -25v25h75v-560q0 -85 69 -85h18z" />
    <glyph glyph-name=".notdef" horiz-adv-x="500" 
d="M430 0h-360v750h360v-750zM145 65h210v620h-210v-620z" />
    <glyph glyph-name=".null" horiz-adv-x="0" 
 />
    <glyph glyph-name=".null" horiz-adv-x="0" 
 />
    <glyph glyph-name=".null" horiz-adv-x="0" 
 />
    <glyph glyph-name="nonmarkingreturn" horiz-adv-x="333" 
 />
    <glyph glyph-name="CR" unicode="&#x9;" horiz-adv-x="237" 
 />
    <glyph glyph-name="CR" unicode="&#xd;" horiz-adv-x="237" 
 />
    <glyph glyph-name="space" unicode=" " horiz-adv-x="260" 
 />
    <glyph glyph-name="exclam" unicode="!" horiz-adv-x="267" 
d="M171 700v-103l-13 -400h-49l-13 400v103h75zM171 94v-94h-75v94h75z" />
    <glyph glyph-name="quotedbl" unicode="&#x22;" horiz-adv-x="387" 
d="M92 513l-10 187h68l-10 -187h-48zM242 513l-10 187h68l-10 -187h-48z" />
    <glyph glyph-name="numbersign" unicode="#" horiz-adv-x="681" 
d="M639 443h-116l-40 -186h122v-67h-137l-41 -190h-75l41 190h-175l-41 -190h-76l41 190h-100v67h115l40 186h-121v67h136l42 190h75l-41 -190h175l41 190h76l-42 -190h101v-67zM273 443l-40 -186h175l40 186h-175z" />
    <glyph glyph-name="dollar" unicode="$" horiz-adv-x="573" 
d="M263 -87v78q-84 9 -141.5 60t-79.5 134l81 15q33 -118 140 -138v263l-9 2q-99 19 -146 66t-47 129q0 75 53 130.5t149 59.5v75h63v-79q73 -13 122 -60.5t66 -119.5l-80 -15q-26 99 -108 121v-247q204 -37 204 -202q0 -82 -53 -135.5t-151 -60.5v-76h-63zM451 185
q0 51 -30.5 82t-94.5 46v-253q59 7 92 40.5t33 84.5zM140 522q0 -100 123 -124v242q-58 -4 -90.5 -37.5t-32.5 -80.5z" />
    <glyph glyph-name="percent" unicode="%" horiz-adv-x="794" 
d="M504 700h65l-279 -700h-65zM60 484v86q0 60 35.5 101t97.5 41t97.5 -41t35.5 -101v-86q0 -60 -35.5 -101t-97.5 -41t-97.5 41t-35.5 101zM124 561v-68q0 -93 69 -93t69 93v68q0 93 -69 93t-69 -93zM734 216v-86q0 -60 -35.5 -101t-97.5 -41t-97.5 41t-35.5 101v86
q0 60 35.5 101t97.5 41t97.5 -41t35.5 -101zM670 139v68q0 93 -69 93t-69 -93v-68q0 -93 69 -93t69 93z" />
    <glyph glyph-name="ampersand" unicode="&#x26;" horiz-adv-x="653" 
d="M647 0h-89l-65 76q-82 -88 -209 -88q-98 0 -156.5 53t-58.5 134q0 52 26.5 98t90.5 98l31 25q-50 59 -68.5 97.5t-18.5 78.5q0 58 41.5 98.5t108.5 40.5q66 0 106.5 -39.5t40.5 -99.5q0 -94 -111 -182l168 -198q37 79 37 174l71 -4q0 -132 -58 -230zM285 56q97 0 160 76
l-184 215l-12 -10q-62 -49 -84.5 -83t-22.5 -77q0 -55 38.5 -88t104.5 -33zM203 568q0 -27 15.5 -55t53.5 -74q82 65 82 129q0 33 -21 54t-54 21q-34 0 -55 -20.5t-21 -54.5z" />
    <glyph glyph-name="quotesingle" unicode="'" horiz-adv-x="232" 
d="M92 513l-10 187h68l-10 -187h-48z" />
    <glyph glyph-name="parenleft" unicode="(" horiz-adv-x="330" 
d="M174 538v-385q0 -147 96 -192l-22 -69q-148 60 -148 247v413q0 187 148 247l22 -69q-96 -45 -96 -192z" />
    <glyph glyph-name="parenright" unicode=")" horiz-adv-x="330" 
d="M156 153v385q0 147 -96 192l22 69q148 -60 148 -247v-413q0 -187 -148 -247l-22 69q96 45 96 192z" />
    <glyph glyph-name="asterisk" unicode="*" horiz-adv-x="511" 
d="M49 406l34 59l144 -90l-6 170h69l-6 -170l144 90l34 -59l-150 -80l150 -80l-34 -59l-144 89l6 -169h-69l6 169l-144 -89l-34 59l149 80z" />
    <glyph glyph-name="plus" unicode="+" horiz-adv-x="520" 
d="M226 106v189h-175v61h175v189h68v-189h175v-61h-175v-189h-68z" />
    <glyph glyph-name="comma" unicode="," horiz-adv-x="262" 
d="M174 98v-95q0 -49 -20.5 -74.5t-65.5 -32.5v37q25 5 36 19.5t11 47.5h-47v98h86z" />
    <glyph glyph-name="hyphen" unicode="-" horiz-adv-x="399" 
d="M348 292h-297v67h297v-67z" />
    <glyph glyph-name="period" unicode="." horiz-adv-x="262" 
d="M174 98v-98h-86v98h86z" />
    <glyph glyph-name="slash" unicode="/" horiz-adv-x="391" 
d="M391 783l-312 -876h-79l312 876h79z" />
    <glyph glyph-name="zero" unicode="0" horiz-adv-x="524" 
d="M472 471v-242q0 -114 -57 -177.5t-153 -63.5t-153 63.5t-57 177.5v242q0 114 57 177.5t153 63.5t153 -63.5t57 -177.5zM396 239v222q0 183 -134 183t-134 -183v-222q0 -183 134 -183t134 183z" />
    <glyph glyph-name="one" unicode="1" horiz-adv-x="524" 
d="M101 0v68h148v552l-148 -66v73l155 73h69v-632h146v-68h-370z" />
    <glyph glyph-name="two" unicode="2" horiz-adv-x="524" 
d="M262 644q-57 0 -93.5 -36t-36.5 -99v-17l-76 6v12q0 87 56.5 144.5t149.5 57.5q91 0 148.5 -58t57.5 -144q0 -87 -72 -168l-242 -274h314v-68h-413v61l288 326q49 56 49 122q0 63 -36.5 99t-93.5 36z" />
    <glyph glyph-name="three" unicode="3" horiz-adv-x="524" 
d="M128 217v-6q0 -76 38 -115.5t96 -39.5t95.5 39.5t37.5 115.5q0 149 -128 149q-28 0 -55 -10l-44 50l186 232h-281v68h372v-65l-173 -217q6 1 17 1q79 0 130.5 -54.5t51.5 -154.5q0 -102 -56.5 -162t-152.5 -60t-153 61.5t-57 161.5z" />
    <glyph glyph-name="four" unicode="4" horiz-adv-x="524" 
d="M485 225v-69h-79v-156h-76v156h-292v68l286 476h82v-475h79zM122 225h208v347z" />
    <glyph glyph-name="five" unicode="5" horiz-adv-x="524" 
d="M55 211l76 6v-5q0 -74 36.5 -115t96.5 -41q61 0 97.5 42t36.5 123q0 83 -36 124t-95 41q-66 0 -103 -50h-76v364h350v-68h-274v-224q44 46 115 46q88 0 141.5 -60t53.5 -173q0 -111 -57 -172t-153 -61q-94 0 -151.5 59t-57.5 164z" />
    <glyph glyph-name="six" unicode="6" horiz-adv-x="524" 
d="M49 205q0 59 25 106l198 389h82l-150 -294q22 14 60 14q95 0 155 -62.5t60 -153.5t-60 -153.5t-155 -62.5q-96 0 -155.5 62.5t-59.5 154.5zM125 204q0 -65 39 -106.5t100 -41.5t100 41.5t39 106.5t-39 106.5t-100 41.5t-100 -41.5t-39 -106.5z" />
    <glyph glyph-name="seven" unicode="7" horiz-adv-x="524" 
d="M59 631v69h407v-61l-237 -639h-78l234 631h-326z" />
    <glyph glyph-name="eight" unicode="8" horiz-adv-x="524" 
d="M262 -12q-95 0 -155 63t-60 154q0 61 30.5 111.5t83.5 72.5q-40 19 -63.5 58t-23.5 85q0 76 53 128t135 52t135 -52t53 -128q0 -46 -23.5 -85t-63.5 -58q53 -22 83.5 -72.5t30.5 -111.5q0 -91 -60 -154t-155 -63zM262 354q-61 0 -100 -43.5t-39 -106.5t39 -106t100 -43
t100 43t39 106t-39 106.5t-100 43.5zM262 421q49 0 80.5 31.5t31.5 79.5t-31.5 80t-80.5 32t-80.5 -32t-31.5 -80t31.5 -79.5t80.5 -31.5z" />
    <glyph glyph-name="nine" unicode="9" horiz-adv-x="524" 
d="M475 495q0 -59 -25 -106l-198 -389h-82l150 294q-22 -14 -60 -14q-95 0 -155 62.5t-60 153.5t60 153.5t155 62.5q96 0 155.5 -62.5t59.5 -154.5zM399 496q0 65 -39 106.5t-100 41.5t-100 -41.5t-39 -106.5t39 -106.5t100 -41.5t100 41.5t39 106.5z" />
    <glyph glyph-name="colon" unicode=":" horiz-adv-x="262" 
d="M174 98v-98h-86v98h86zM174 549v-98h-86v98h86z" />
    <glyph glyph-name="semicolon" unicode=";" horiz-adv-x="262" 
d="M174 549v-98h-86v98h86zM174 98v-95q0 -49 -20.5 -74.5t-65.5 -32.5v37q25 5 36 19.5t11 47.5h-47v98h86z" />
    <glyph glyph-name="less" unicode="&#x3c;" horiz-adv-x="520" 
d="M60 358l400 188v-68l-328 -152l328 -152v-68l-400 188v64z" />
    <glyph glyph-name="equal" unicode="=" horiz-adv-x="520" 
d="M469 390h-418v61h418v-61zM469 200h-418v61h418v-61z" />
    <glyph glyph-name="greater" unicode="&#x3e;" horiz-adv-x="520" 
d="M61 546l400 -188v-64l-400 -188v68l328 152l-328 152v68z" />
    <glyph glyph-name="question" unicode="?" horiz-adv-x="508" 
d="M283 94v-94h-75v94h75zM283 181h-75v31q0 50 19.5 86.5t71.5 82.5q39 35 54.5 65t15.5 70q0 61 -32.5 95t-86.5 34q-52 0 -85 -32.5t-40 -94.5l-75 7q9 84 62.5 135.5t138.5 51.5q86 0 139.5 -53.5t53.5 -140.5q0 -55 -21.5 -95.5t-65.5 -80.5q-41 -38 -57.5 -66.5
t-16.5 -70.5v-24z" />
    <glyph glyph-name="at" unicode="@" horiz-adv-x="740" 
d="M483 75q54 0 85 42.5t31 121.5v86q-38 79 -120 79q-63 0 -94 -40t-31 -111v-27q0 -151 129 -151zM665 439v-189q0 -117 -49 -179.5t-145 -62.5q-91 0 -141.5 57.5t-50.5 145.5v57q0 89 47.5 146t133.5 57q46 0 83 -17.5t56 -46.5v16q0 99 -66.5 162t-162.5 63t-162.5 -63
t-66.5 -162v-324q0 -98 66.5 -161t162.5 -63q56 0 96 23l32 -55q-55 -32 -128 -32q-121 0 -208 79.5t-87 192.5v356q0 113 87 193t208 80q120 0 207.5 -80t87.5 -193z" />
    <glyph glyph-name="A" unicode="A" horiz-adv-x="570" 
d="M246 700h78l240 -700h-85l-57 173h-275l-56 -173h-85zM285 594l-115 -350h229z" />
    <glyph glyph-name="B" unicode="B" horiz-adv-x="577" 
d="M319 0h-245v700h222q91 0 154 -47t63 -141q0 -112 -97 -148q54 -17 86 -60t32 -107q0 -97 -61 -147t-154 -50zM455 198q0 62 -39.5 94.5t-107.5 32.5h-155v-254h153q149 0 149 127zM153 396h137q68 0 106 29t38 87q0 117 -151 117h-130v-233z" />
    <glyph glyph-name="C" unicode="C" horiz-adv-x="583" 
d="M297 641q-76 0 -120.5 -57.5t-44.5 -159.5v-148q0 -102 44.5 -159.5t120.5 -57.5q65 0 108 40.5t56 117.5l78 -13q-14 -100 -79 -158t-163 -58q-111 0 -177.5 76.5t-66.5 199.5v172q0 123 66.5 199.5t177.5 76.5q98 0 163 -58.5t79 -158.5l-78 -13q-13 77 -56 118
t-108 41z" />
    <glyph glyph-name="D" unicode="D" horiz-adv-x="591" 
d="M454 276v148q0 100 -46.5 152.5t-125.5 52.5h-129v-558h129q79 0 125.5 52.5t46.5 152.5zM533 436v-172q0 -123 -67 -193.5t-178 -70.5h-214v700h214q111 0 178 -70.5t67 -193.5z" />
    <glyph glyph-name="E" unicode="E" horiz-adv-x="539" 
d="M490 0h-416v700h416v-71h-337v-233h297v-71h-297v-254h337v-71z" />
    <glyph glyph-name="F" unicode="F" horiz-adv-x="525" 
d="M153 0h-79v700h416v-71h-337v-243h307v-71h-307v-315z" />
    <glyph glyph-name="G" unicode="G" horiz-adv-x="593" 
d="M132 424v-148q0 -102 44.5 -159.5t122.5 -57.5q77 0 121.5 58t44.5 154v20h-164v71h243v-97q0 -124 -65.5 -200.5t-179.5 -76.5q-113 0 -179.5 76t-66.5 200v172q0 123 66.5 199.5t177.5 76.5q98 0 163 -58.5t79 -158.5l-78 -13q-13 77 -56 118t-108 41
q-76 0 -120.5 -57.5t-44.5 -159.5z" />
    <glyph glyph-name="H" unicode="H" horiz-adv-x="615" 
d="M462 0v324h-309v-324h-79v700h79v-305h309v305h79v-700h-79z" />
    <glyph glyph-name="I" unicode="I" horiz-adv-x="227" 
d="M153 700v-700h-79v700h79z" />
    <glyph glyph-name="J" unicode="J" horiz-adv-x="504" 
d="M361 225v475h79v-487q0 -110 -57 -167.5t-153 -57.5q-78 0 -132.5 43.5t-75.5 126.5l79 13q33 -112 129 -112q59 0 95 39t36 127z" />
    <glyph glyph-name="K" unicode="K" horiz-adv-x="576" 
d="M483 0l-209 342l-121 -78v-264h-79v700h79v-346l114 73q99 63 131.5 121.5t32.5 144.5v7h78v-7q0 -104 -37 -175t-136 -136l236 -382h-89z" />
    <glyph glyph-name="L" unicode="L" horiz-adv-x="506" 
d="M490 71v-71h-416v700h79v-629h337z" />
    <glyph glyph-name="M" unicode="M" horiz-adv-x="752" 
d="M409 192h-66l-190 345v-537h-79v700h70l232 -421l232 421h70v-700h-79v537z" />
    <glyph glyph-name="N" unicode="N" horiz-adv-x="644" 
d="M74 700h75l342 -555v555h79v-700h-75l-342 555v-555h-79v700z" />
    <glyph glyph-name="O" unicode="O" horiz-adv-x="594" 
d="M541 436v-172q0 -123 -66.5 -199.5t-177.5 -76.5t-177.5 76.5t-66.5 199.5v172q0 123 66.5 199.5t177.5 76.5t177.5 -76.5t66.5 -199.5zM462 276v148q0 102 -44.5 159.5t-120.5 57.5t-120.5 -57.5t-44.5 -159.5v-148q0 -102 44.5 -159.5t120.5 -57.5t120.5 57.5
t44.5 159.5z" />
    <glyph glyph-name="P" unicode="P" horiz-adv-x="578" 
d="M317 284h-164v-284h-79v700h243q89 0 153.5 -54t64.5 -154t-64.5 -154t-153.5 -54zM456 492q0 67 -42 102t-109 35h-152v-274h152q67 0 109 35t42 102z" />
    <glyph glyph-name="Q" unicode="Q" horiz-adv-x="594" 
d="M495 93l79 -67l-43 -50l-79 67q-64 -55 -155 -55q-110 0 -177 76.5t-67 199.5v172q0 123 67 199.5t177 76.5t177 -76.5t67 -199.5v-172q0 -100 -46 -171zM462 276v148q0 102 -44.5 159.5t-120.5 57.5t-120.5 -57.5t-44.5 -159.5v-148q0 -102 44.5 -159.5t120.5 -57.5
q58 0 97 33l-78 66l43 50l76 -64q27 54 27 132z" />
    <glyph glyph-name="R" unicode="R" horiz-adv-x="583" 
d="M306 294h-153v-294h-79v700h243q89 0 153.5 -53t64.5 -150q0 -77 -41.5 -126.5t-107.5 -67.5l175 -303h-86zM153 365h152q67 0 109 34t42 98t-42 98t-109 34h-152v-264z" />
    <glyph glyph-name="S" unicode="S" horiz-adv-x="573" 
d="M530 185q0 -87 -59.5 -142t-169.5 -55q-99 0 -167 53t-92 144l81 15q19 -67 65 -104t113 -37q70 0 110 34.5t40 91.5q0 54 -33.5 86t-105.5 45l-58 11q-99 19 -146 66t-47 129q0 77 56.5 133.5t159.5 56.5q93 0 155.5 -49.5t81.5 -134.5l-80 -15q-14 58 -53.5 93
t-103.5 35q-65 0 -101 -34.5t-36 -84.5q0 -101 126 -124l60 -11q204 -37 204 -202z" />
    <glyph glyph-name="T" unicode="T" horiz-adv-x="511" 
d="M16 700h479v-71h-200v-629h-79v629h-200v71z" />
    <glyph glyph-name="U" unicode="U" horiz-adv-x="606" 
d="M303 -12q-112 0 -174.5 72t-62.5 195v445h79v-431q0 -104 40.5 -157t117.5 -53t117.5 53t40.5 157v431h79v-445q0 -123 -62.5 -195t-174.5 -72z" />
    <glyph glyph-name="V" unicode="V" horiz-adv-x="570" 
d="M325 0h-80l-235 700h85l190 -575l190 575h85z" />
    <glyph glyph-name="W" unicode="W" horiz-adv-x="912" 
d="M417 700h78l161 -560l154 560h86l-199 -700h-80l-161 564l-161 -564h-80l-199 700h86l154 -560z" />
    <glyph glyph-name="X" unicode="X" horiz-adv-x="591" 
d="M245 363l-208 337h89l169 -274l170 274h89l-208 -337l224 -363h-88l-187 300l-186 -300h-88z" />
    <glyph glyph-name="Y" unicode="Y" horiz-adv-x="560" 
d="M319 0h-79v318l-224 382h87l177 -304l177 304h87l-225 -382v-318z" />
    <glyph glyph-name="Z" unicode="Z" horiz-adv-x="512" 
d="M469 700v-63l-335 -566h336v-71h-428v63l335 566h-324v71h416z" />
    <glyph glyph-name="bracketleft" unicode="[" horiz-adv-x="321" 
d="M85 -93v876h193v-66h-119v-744h119v-66h-193z" />
    <glyph glyph-name="backslash" unicode="\" horiz-adv-x="391" 
d="M312 -93l-312 876h79l312 -876h-79z" />
    <glyph glyph-name="bracketright" unicode="]" horiz-adv-x="321" 
d="M236 783v-876h-193v66h119v744h-119v66h193z" />
    <glyph glyph-name="asciicircum" unicode="^" horiz-adv-x="452" 
d="M344 495l-118 153l-118 -153h-76l155 205h78l155 -205h-76z" />
    <glyph glyph-name="underscore" unicode="_" horiz-adv-x="500" 
d="M0 -164v54h500v-54h-500z" />
    <glyph glyph-name="grave" unicode="`" horiz-adv-x="372" 
d="M231 569l-112 161h82l92 -161h-62z" />
    <glyph glyph-name="a" unicode="a" horiz-adv-x="505" 
d="M222 55q100 0 147 81v90h-142q-52 0 -81 -24.5t-29 -62.5v-5q0 -35 27.5 -57t77.5 -22zM253 445q-79 0 -120 -75l-74 20q29 56 80 89t117 33q87 0 137.5 -52.5t50.5 -138.5v-321h-75v61q-51 -73 -158 -73q-77 0 -123 39.5t-46 99.5v13q0 63 50.5 105t157.5 42h119v25
q0 66 -30.5 99.5t-85.5 33.5z" />
    <glyph glyph-name="b" unicode="b" horiz-adv-x="511" 
d="M463 302v-104q0 -94 -48 -152t-134 -58q-97 0 -142 67v-55h-75v712h75v-267q45 67 142 67q86 0 134 -58t48 -152zM388 212v76q0 157 -127 157q-81 0 -122 -81v-228q41 -81 122 -81q127 0 127 157z" />
    <glyph glyph-name="c" unicode="c" horiz-adv-x="491" 
d="M48 198v104q0 88 58 149t149 61q77 0 129 -43.5t69 -113.5l-75 -13q-11 49 -43.5 76t-79.5 27q-58 0 -95 -42t-37 -115v-76q0 -73 37 -115t95 -42q47 0 79.5 27t43.5 76l75 -13q-17 -70 -69 -113.5t-129 -43.5q-91 0 -149 61t-58 149z" />
    <glyph glyph-name="d" unicode="d" horiz-adv-x="511" 
d="M372 0v55q-45 -67 -142 -67q-86 0 -134 58t-48 152v104q0 94 48 152t134 58q97 0 142 -67v267h75v-712h-75zM123 288v-76q0 -157 127 -157q82 0 122 81v228q-40 81 -122 81q-127 0 -127 -157z" />
    <glyph glyph-name="e" unicode="e" horiz-adv-x="510" 
d="M255 -12q-91 0 -149 61t-58 149v104q0 88 58 149t149 61t149 -61t58 -149v-80h-339v-10q0 -73 37 -115t95 -42q44 0 75.5 22.5t44.5 62.5l77 -12q-21 -65 -72 -102.5t-125 -37.5zM123 288v-5h264v5q0 73 -37 115t-95 42t-95 -42t-37 -115z" />
    <glyph glyph-name="f" unicode="f" horiz-adv-x="340" 
d="M318 712v-67h-35q-56 0 -75 -24t-19 -88v-33h129v-67h-129v-433h-75v433h-77v67h77v31q0 104 39 142.5t136 38.5h29z" />
    <glyph glyph-name="g" unicode="g" horiz-adv-x="511" 
d="M372 -7v62q-45 -67 -142 -67q-86 0 -134 58t-48 152v104q0 94 48 152t134 58q97 0 142 -67v55h75v-512q0 -101 -50 -160.5t-143 -59.5q-66 0 -114.5 33.5t-70.5 94.5l74 18q29 -79 111 -79q56 0 87 40t31 118zM123 288v-76q0 -157 127 -157q82 0 122 81v228
q-40 81 -122 81q-127 0 -127 -157z" />
    <glyph glyph-name="h" unicode="h" horiz-adv-x="524" 
d="M463 0h-75v290q0 80 -27 117.5t-89 37.5q-42 0 -78 -24t-55 -66v-355h-75v712h75v-276q53 76 154 76q82 0 126 -54.5t44 -151.5v-306z" />
    <glyph glyph-name="i" unicode="i" horiz-adv-x="223" 
d="M74 0v500h75v-500h-75zM74 620v92h75v-92h-75z" />
    <glyph glyph-name="j" unicode="j" horiz-adv-x="233" 
d="M84 620v92h75v-92h-75zM84 -57v557h75v-565q0 -76 -36 -111.5t-111 -35.5h-32v67h32q72 0 72 88z" />
    <glyph glyph-name="k" unicode="k" horiz-adv-x="472" 
d="M302 282l172 -282h-84l-147 243l-104 -67v-176h-75v712h75v-452l112 73q52 34 74.5 71t22.5 89v7h75v-8q0 -73 -27.5 -120t-93.5 -90z" />
    <glyph glyph-name="l" unicode="l" horiz-adv-x="263" 
d="M236 67v-67h-20q-142 0 -142 144v568h75v-560q0 -85 69 -85h18z" />
    <glyph glyph-name="m" unicode="m" horiz-adv-x="848" 
d="M463 0h-75v290q0 80 -27 117.5t-89 37.5q-42 0 -78 -24t-55 -66v-355h-75v500h75v-64q53 76 154 76q107 0 148 -91q69 91 177 91q82 0 126 -54.5t44 -151.5v-306h-75v289q0 80 -27 118t-89 38q-87 0 -137 -96q3 -42 3 -43v-306z" />
    <glyph glyph-name="n" unicode="n" horiz-adv-x="523" 
d="M463 0h-75v290q0 80 -27 117.5t-89 37.5q-42 0 -78 -24t-55 -66v-355h-75v500h75v-64q53 76 154 76q82 0 126 -54.5t44 -151.5v-306z" />
    <glyph glyph-name="o" unicode="o" horiz-adv-x="510" 
d="M48 198v104q0 88 58 149t149 61t149 -61t58 -149v-104q0 -88 -58 -149t-149 -61t-149 61t-58 149zM387 212v76q0 73 -37 115t-95 42t-95 -42t-37 -115v-76q0 -73 37 -115t95 -42t95 42t37 115z" />
    <glyph glyph-name="p" unicode="p" horiz-adv-x="511" 
d="M139 55v-273h-75v718h75v-55q45 67 142 67q86 0 134 -58t48 -152v-104q0 -94 -48 -152t-134 -58q-97 0 -142 67zM388 212v76q0 157 -127 157q-81 0 -122 -81v-228q41 -81 122 -81q127 0 127 157z" />
    <glyph glyph-name="q" unicode="q" horiz-adv-x="511" 
d="M372 -218v273q-45 -67 -142 -67q-86 0 -134 58t-48 152v104q0 94 48 152t134 58q97 0 142 -67v55h75v-718h-75zM123 288v-76q0 -157 127 -157q82 0 122 81v228q-40 81 -122 81q-127 0 -127 -157z" />
    <glyph glyph-name="r" unicode="r" horiz-adv-x="366" 
d="M349 500v-67q-34 12 -71 12q-43 0 -79.5 -22.5t-59.5 -63.5v-359h-75v500h75v-63q52 75 148 75q35 0 62 -12z" />
    <glyph glyph-name="s" unicode="s" horiz-adv-x="477" 
d="M57 372q0 63 47 101.5t124 38.5q74 0 124.5 -36.5t70.5 -102.5l-77 -13q-10 40 -40.5 62.5t-76.5 22.5t-71.5 -20t-25.5 -54q0 -65 99 -80l49 -8q82 -13 118 -49.5t36 -97.5q0 -66 -48.5 -107t-131.5 -41q-80 0 -134.5 39t-75.5 112l76 14q15 -48 50.5 -73t83.5 -25
q49 0 77 22.5t28 58.5q0 67 -99 82l-49 8q-83 14 -118.5 50.5t-35.5 95.5z" />
    <glyph glyph-name="t" unicode="t" horiz-adv-x="340" 
d="M173 500h126v-67h-126v-282q0 -84 68 -84h67v-67h-68q-142 0 -142 144v289h-77v67h77v142h75v-142z" />
    <glyph glyph-name="u" unicode="u" horiz-adv-x="524" 
d="M60 500h75v-290q0 -80 27 -117.5t89 -37.5q42 0 78 24t55 66v355h75v-500h-75v64q-53 -76 -154 -76q-82 0 -126 54.5t-44 151.5v306z" />
    <glyph glyph-name="v" unicode="v" horiz-adv-x="474" 
d="M276 0h-78l-191 500h78l152 -405l152 405h78z" />
    <glyph glyph-name="w" unicode="w" horiz-adv-x="778" 
d="M350 500h78l126 -398l135 398h79l-175 -500h-79l-125 395l-125 -395h-79l-175 500h79l135 -398z" />
    <glyph glyph-name="x" unicode="x" horiz-adv-x="459" 
d="M96 0h-86l172 259l-160 241h86l121 -185l122 185h86l-161 -241l173 -259h-86l-134 203z" />
    <glyph glyph-name="y" unicode="y" horiz-adv-x="480" 
d="M175 -87l36 100l-201 487h80l158 -391l142 391h80l-225 -605q-24 -63 -57 -84.5t-91 -21.5h-32v67h29q60 0 81 57z" />
    <glyph glyph-name="z" unicode="z" horiz-adv-x="474" 
d="M425 500v-60l-290 -373h301v-67h-398v60l290 373h-278v67h375z" />
    <glyph glyph-name="braceleft" unicode="{" horiz-adv-x="324" 
d="M197 234v-183q0 -77 67 -77h18v-67h-19q-71 0 -105.5 33t-34.5 108v163q0 50 -15 75t-52 25h-14v67h14q67 0 67 83v181q0 75 34.5 108t105.5 33h19v-67h-18q-67 0 -67 -77v-184q0 -86 -61 -110q61 -24 61 -111z" />
    <glyph glyph-name="bar" unicode="|" horiz-adv-x="287" 
d="M106 -93v876h75v-876h-75z" />
    <glyph glyph-name="braceright" unicode="}" horiz-adv-x="324" 
d="M127 51v183q0 87 61 111q-61 24 -61 110v184q0 77 -67 77h-18v67h19q71 0 105.5 -33t34.5 -108v-181q0 -83 67 -83h14v-67h-14q-37 0 -52 -25t-15 -75v-163q0 -75 -34.5 -108t-105.5 -33h-19v67h18q67 0 67 77z" />
    <glyph glyph-name="asciitilde" unicode="~" horiz-adv-x="520" 
d="M357 249q-34 0 -63 15t-46.5 33.5t-39.5 33.5t-43 15q-63 0 -73 -89l-68 5q5 71 42.5 108t96.5 37q34 0 63 -15t46.5 -33.5t39.5 -33.5t43 -15q63 0 73 89l68 -5q-5 -71 -42.5 -108t-96.5 -37z" />
    <glyph glyph-name="uni00A0" unicode="&#xa0;" horiz-adv-x="260" 
 />
    <glyph glyph-name="exclamdown" unicode="&#xa1;" horiz-adv-x="267" 
d="M171 -97v-103h-75v103l13 400h49zM171 500v-94h-75v94h75z" />
    <glyph glyph-name="cent" unicode="&#xa2;" horiz-adv-x="491" 
d="M221 -89v80q-78 11 -125.5 69.5t-47.5 137.5v104q0 79 47.5 137.5t125.5 69.5v80h57v-78q67 -7 113 -49.5t62 -106.5l-75 -13q-10 42 -36 68.5t-64 32.5v-387q80 13 100 102l75 -13q-16 -65 -61.5 -107t-113.5 -49v-78h-57zM123 212q0 -62 26.5 -101.5t71.5 -51.5v382
q-45 -12 -71.5 -52t-26.5 -101v-76z" />
    <glyph glyph-name="sterling" unicode="&#xa3;" horiz-adv-x="579" 
d="M532 518l-78 -13q-26 136 -136 136q-125 0 -125 -169v-112h206v-62h-206v-55q0 -113 -51 -172h394v-71h-485v64q63 63 63 167v67h-66v62h66v126q0 106 54 166t149 60q177 0 215 -194z" />
    <glyph glyph-name="currency" unicode="&#xa4;" horiz-adv-x="638" 
d="M538 326q0 -74 -43 -131l86 -88l-48 -48l-88 89q-55 -38 -126 -38t-126 38l-88 -89l-48 48l86 88q-43 57 -43 131t43 131l-86 88l48 48l88 -89q55 38 126 38t126 -38l88 89l48 -48l-86 -88q43 -57 43 -131zM470 326q0 67 -43.5 111t-107.5 44t-107.5 -44t-43.5 -111
t43.5 -111t107.5 -44t107.5 44t43.5 111z" />
    <glyph glyph-name="yen" unicode="&#xa5;" horiz-adv-x="560" 
d="M468 321h-147l-2 -3v-64h149v-50h-149v-204h-79v204h-148v50h148v64l-2 3h-146v50h116l-192 329h87l177 -304l177 304h87l-194 -329h118v-50z" />
    <glyph glyph-name="brokenbar" unicode="&#xa6;" horiz-adv-x="288" 
d="M181 395h-75v388h75v-388zM106 295h75v-388h-75v388z" />
    <glyph glyph-name="section" unicode="&#xa7;" horiz-adv-x="472" 
d="M424 268q0 -100 -68 -149q58 -44 58 -115q0 -68 -47 -111t-121 -43q-71 0 -119 36.5t-68 102.5l76 13q11 -40 39.5 -62t71.5 -22q41 0 67 23t26 60q0 36 -24 59t-73 37l-51 15q-143 42 -143 182q0 101 67 149q-57 42 -57 115q0 68 47 111t121 43q71 0 119 -36.5
t68 -102.5l-76 -13q-11 40 -39.5 62t-71.5 22q-41 0 -67 -23t-26 -60q0 -36 24 -59t73 -37l51 -15q143 -42 143 -182zM214 177l52 -16q4 -1 11 -3.5t12.5 -4t9.5 -3.5q50 42 50 118q0 90 -91 117l-52 16q-15 4 -33 11q-50 -43 -50 -118q0 -90 91 -117z" />
    <glyph glyph-name="dieresis" unicode="&#xa8;" horiz-adv-x="372" 
d="M136 699v-101h-79v101h79zM315 699v-101h-79v101h79z" />
    <glyph glyph-name="copyright" unicode="&#xa9;" horiz-adv-x="750" 
d="M702 372v-44q0 -157 -90 -248.5t-237 -91.5t-237 91.5t-90 248.5v44q0 157 90 248.5t237 91.5t237 -91.5t90 -248.5zM658 336v28q0 144 -75.5 225.5t-207.5 81.5t-207.5 -81.5t-75.5 -225.5v-28q0 -144 75.5 -225.5t207.5 -81.5t207.5 81.5t75.5 225.5zM224 398v-96
q0 -78 41.5 -123.5t113.5 -45.5q63 0 103 36t49 97l-60 9q-16 -87 -91 -87q-44 0 -69 30t-25 92v80q0 62 25 92t69 30q75 0 91 -87l60 9q-9 61 -49 97t-103 36q-72 0 -113.5 -45.5t-41.5 -123.5z" />
    <glyph glyph-name="ordfeminine" unicode="&#xaa;" horiz-adv-x="394" 
d="M177 378q63 0 98 51v65h-85q-85 0 -85 -59v-4q0 -23 19 -38t53 -15zM197 653q-57 0 -82 -51l-61 15q43 91 145 91q66 0 103 -38t37 -95v-242h-64v37q-39 -46 -108 -46q-55 0 -90 29.5t-35 73.5v9q0 48 37.5 78.5t109.5 30.5h86v20q0 42 -21 65t-57 23z" />
    <glyph glyph-name="guillemotleft" unicode="&#xab;" horiz-adv-x="502" 
d="M42 291v42l212 139v-64l-151 -96l151 -96v-64zM248 291v42l212 139v-64l-151 -96l151 -96v-64z" />
    <glyph glyph-name="logicalnot" unicode="&#xac;" horiz-adv-x="520" 
d="M46 295v61h418v-228h-68v167h-350z" />
    <glyph glyph-name="uni00AD" unicode="&#xad;" horiz-adv-x="399" 
d="M348 292h-297v67h297v-67z" />
    <glyph glyph-name="registered" unicode="&#xae;" horiz-adv-x="750" 
d="M302 310v-169h-63v417h157q54 0 94 -32.5t40 -91.5q0 -46 -24.5 -76t-63.5 -41l102 -176h-67l-96 169h-79zM302 367h83q80 0 80 69q0 33 -21.5 50t-58.5 17h-83v-136zM702 372v-44q0 -157 -90 -248.5t-237 -91.5t-237 91.5t-90 248.5v44q0 157 90 248.5t237 91.5
t237 -91.5t90 -248.5zM658 336v28q0 144 -75.5 225.5t-207.5 81.5t-207.5 -81.5t-75.5 -225.5v-28q0 -144 75.5 -225.5t207.5 -81.5t207.5 81.5t75.5 225.5z" />
    <glyph glyph-name="macron" unicode="&#xaf;" horiz-adv-x="372" 
d="M47 619v58h278v-58h-278z" />
    <glyph glyph-name="degree" unicode="&#xb0;" horiz-adv-x="346" 
d="M302 577q0 -57 -35.5 -94t-93.5 -37t-93.5 37t-35.5 94t35.5 94t93.5 37t93.5 -37t35.5 -94zM240 577q0 32 -19 52.5t-48 20.5t-48 -20.5t-19 -52.5t19 -52.5t48 -20.5t48 20.5t19 52.5z" />
    <glyph glyph-name="plusminus" unicode="&#xb1;" horiz-adv-x="520" 
d="M226 128v184h-175v61h175v184h68v-184h175v-61h-175v-184h-68zM469 0h-418v61h418v-61z" />
    <glyph glyph-name="twosuperior" unicode="&#xb2;" 
d="M256 570q0 38 -21 59t-53 21t-53 -21.5t-21 -58.5v-18l-69 5v14q0 59 39.5 98t103.5 39q62 0 102 -38.5t40 -98.5q0 -58 -50 -114l-143 -162h193v-58h-285v48l186 213q31 35 31 72z" />
    <glyph glyph-name="threesuperior" unicode="&#xb3;" 
d="M36 381l68 5q0 -48 20.5 -73.5t55.5 -25.5q33 0 54.5 21.5t21.5 64.5q0 93 -71 93q-19 0 -41 -10l-35 40l113 146h-174v58h259v-51l-106 -134h9q48 0 81 -37t33 -106q0 -65 -40.5 -104t-103.5 -39q-66 0 -105 42.5t-39 109.5z" />
    <glyph glyph-name="acute" unicode="&#xb4;" horiz-adv-x="372" 
d="M253 730l-112 -161h-62l92 161h82z" />
    <glyph glyph-name="mu" unicode="&#xb5;" horiz-adv-x="527" 
d="M139 500v-289q0 -80 27 -118t89 -38q41 0 77 25t56 67v353h75v-500h-75v70q-50 -82 -140 -82q-72 0 -109 52v-258h-75v718h75z" />
    <glyph glyph-name="paragraph" unicode="&#xb6;" horiz-adv-x="525" 
d="M286 270h-24q-100 0 -156 54.5t-56 158.5v5q0 104 53 158t153 54h182v-831h-50v775h-52v-775h-50v401z" />
    <glyph glyph-name="periodcentered" unicode="&#xb7;" horiz-adv-x="262" 
d="M174 375v-98h-86v98h86z" />
    <glyph glyph-name="cedilla" unicode="&#xb8;" horiz-adv-x="372" 
d="M223 -134q0 21 -21 34.5t-62 15.5q-1 2 -2.5 4t-1.5 3l33 77h62l-22 -48q81 -21 81 -90q0 -43 -28 -68.5t-81 -25.5q-61 0 -100 39l35 45q29 -25 61 -25q46 0 46 39z" />
    <glyph glyph-name="onesuperior" unicode="&#xb9;" 
d="M66 237v58h95v334l-95 -42v62l107 51h56v-405h94v-58h-257z" />
    <glyph glyph-name="ordmasculine" unicode="&#xba;" horiz-adv-x="394" 
d="M351 557v-82q0 -63 -43 -107t-111 -44t-111 44t-43 107v82q0 63 43 107t111 44t111 -44t43 -107zM288 486v60q0 50 -24.5 78.5t-66.5 28.5t-66.5 -28.5t-24.5 -78.5v-60q0 -50 24.5 -78.5t66.5 -28.5t66.5 28.5t24.5 78.5z" />
    <glyph glyph-name="guillemotright" unicode="&#xbb;" horiz-adv-x="502" 
d="M460 333v-42l-212 -139v64l151 96l-151 96v64zM254 333v-42l-212 -139v64l151 96l-151 96v64z" />
    <glyph glyph-name="onequarter" unicode="&#xbc;" horiz-adv-x="885" 
d="M648 700l-343 -700h-68l343 700h68zM626 157h115v192zM859 157v-58h-51v-99h-67v99h-189v52l187 312h69v-306h51zM66 237v58h95v334l-95 -42v62l107 51h56v-405h94v-58h-257z" />
    <glyph glyph-name="onehalf" unicode="&#xbd;" horiz-adv-x="885" 
d="M783 333q0 38 -21 59t-53 21t-53 -21.5t-21 -58.5v-18l-69 5v14q0 58 39 97.5t104 39.5q62 0 102 -38.5t40 -98.5q0 -58 -50 -114l-143 -162h193v-58h-285v48l186 213q31 35 31 72zM648 700l-343 -700h-68l343 700h68zM66 237v58h95v334l-95 -42v62l107 51h56v-405h94
v-58h-257z" />
    <glyph glyph-name="threequarters" unicode="&#xbe;" horiz-adv-x="885" 
d="M648 700l-343 -700h-68l343 700h68zM626 157h115v192zM859 157v-58h-51v-99h-67v99h-189v52l187 312h69v-306h51zM36 381l68 5q0 -48 20.5 -73.5t55.5 -25.5q33 0 54.5 21.5t21.5 64.5q0 93 -71 93q-19 0 -41 -10l-35 40l113 146h-174v58h259v-51l-106 -134h9
q48 0 81 -37t33 -106q0 -65 -40.5 -104t-103.5 -39q-66 0 -105 42.5t-39 109.5z" />
    <glyph glyph-name="questiondown" unicode="&#xbf;" horiz-adv-x="508" 
d="M225 406v94h75v-94h-75zM225 319h75v-31q0 -50 -19.5 -86.5t-71.5 -82.5q-39 -35 -54.5 -65t-15.5 -70q0 -61 32.5 -95t86.5 -34q52 0 85 32.5t40 94.5l75 -7q-9 -84 -62.5 -135.5t-138.5 -51.5q-86 0 -139.5 53.5t-53.5 140.5q0 55 21.5 95.5t65.5 80.5q41 38 57.5 66.5
t16.5 70.5v24z" />
    <glyph glyph-name="Agrave" unicode="&#xc0;" horiz-adv-x="570" 
d="M246 700h78l240 -700h-85l-57 173h-275l-56 -173h-85zM285 594l-115 -350h229zM273 763l-112 161h82l92 -161h-62z" />
    <glyph glyph-name="Aacute" unicode="&#xc1;" horiz-adv-x="570" 
d="M246 700h78l240 -700h-85l-57 173h-275l-56 -173h-85zM285 594l-115 -350h229zM409 924l-112 -161h-62l92 161h82z" />
    <glyph glyph-name="Acircumflex" unicode="&#xc2;" horiz-adv-x="570" 
d="M246 700h78l240 -700h-85l-57 173h-275l-56 -173h-85zM285 594l-115 -350h229zM377 763l-92 99l-92 -99h-67l126 161h66l126 -161h-67z" />
    <glyph glyph-name="Atilde" unicode="&#xc3;" horiz-adv-x="570" 
d="M324 700h-78l-240 -700h85l56 173h275l57 -173h85zM170 244l115 350l114 -350h-229zM350 783q-29 0 -70.5 27t-56.5 27q-28 0 -37 -46l-57 6q13 99 92 99q29 0 70.5 -27t56.5 -27q28 0 37 46l57 -6q-13 -99 -92 -99z" />
    <glyph glyph-name="Adieresis" unicode="&#xc4;" horiz-adv-x="570" 
d="M324 700h-78l-240 -700h85l56 173h275l57 -173h85zM170 244l115 350l114 -350h-229zM235 893v-101h-79v101h79zM414 893v-101h-79v101h79z" />
    <glyph glyph-name="Aring" unicode="&#xc5;" horiz-adv-x="570" 
d="M246 700h78l240 -700h-85l-57 173h-275l-56 -173h-85zM285 594l-115 -350h229zM388 843q0 -46 -30 -73.5t-73 -27.5t-73 27.5t-30 73.5t30 73.5t73 27.5t73 -27.5t30 -73.5zM332 843q0 24 -13 37.5t-34 13.5t-34 -13.5t-13 -37.5t13 -37.5t34 -13.5t34 13.5t13 37.5z" />
    <glyph glyph-name="AE" unicode="&#xc6;" horiz-adv-x="849" 
d="M800 0h-416v173h-223l-84 -173h-87l347 700h463v-71h-337v-233h297v-71h-297v-254h337v-71zM384 629l-188 -385h188v385z" />
    <glyph glyph-name="Ccedilla" unicode="&#xc7;" horiz-adv-x="583" 
d="M332 -134q0 21 -21 34.5t-62 15.5q-1 2 -2.5 4t-1.5 3l28 66q-101 8 -160.5 83t-59.5 192v172q0 123 66.5 199.5t177.5 76.5q98 0 163 -58.5t79 -158.5l-78 -13q-13 77 -56 118t-108 41q-76 0 -120.5 -57.5t-44.5 -159.5v-148q0 -102 44.5 -159.5t120.5 -57.5
q65 0 108 40.5t56 117.5l78 -13q-13 -89 -67 -146t-137 -67l-17 -39q81 -21 81 -90q0 -43 -28 -68.5t-81 -25.5q-61 0 -100 39l35 45q29 -25 61 -25q46 0 46 39z" />
    <glyph glyph-name="Egrave" unicode="&#xc8;" horiz-adv-x="539" 
d="M490 0h-416v700h416v-71h-337v-233h297v-71h-297v-254h337v-71zM281 763l-112 161h82l92 -161h-62z" />
    <glyph glyph-name="Eacute" unicode="&#xc9;" horiz-adv-x="539" 
d="M490 0h-416v700h416v-71h-337v-233h297v-71h-297v-254h337v-71zM391 924l-112 -161h-62l92 161h82z" />
    <glyph glyph-name="Ecircumflex" unicode="&#xca;" horiz-adv-x="539" 
d="M490 0h-416v700h416v-71h-337v-233h297v-71h-297v-254h337v-71zM376 763l-92 99l-92 -99h-67l126 161h66l126 -161h-67z" />
    <glyph glyph-name="Edieresis" unicode="&#xcb;" horiz-adv-x="539" 
d="M490 0h-416v700h416v-71h-337v-233h297v-71h-297v-254h337v-71zM229 893v-101h-79v101h79zM408 893v-101h-79v101h79z" />
    <glyph glyph-name="Igrave" unicode="&#xcc;" horiz-adv-x="227" 
d="M153 700v-700h-79v700h79zM99 763l-112 161h82l92 -161h-62z" />
    <glyph glyph-name="Iacute" unicode="&#xcd;" horiz-adv-x="227" 
d="M153 700v-700h-79v700h79zM240 924l-112 -161h-62l92 161h82z" />
    <glyph glyph-name="Icircumflex" unicode="&#xce;" horiz-adv-x="227" 
d="M153 700v-700h-79v700h79zM205 763l-92 99l-92 -99h-67l126 161h66l126 -161h-67z" />
    <glyph glyph-name="Idieresis" unicode="&#xcf;" horiz-adv-x="227" 
d="M153 700v-700h-79v700h79zM63 893v-101h-79v101h79zM242 893v-101h-79v101h79z" />
    <glyph glyph-name="Eth" unicode="&#xd0;" horiz-adv-x="591" 
d="M74 319h-62v62h62v319h214q111 0 178 -70.5t67 -193.5v-172q0 -123 -67 -193.5t-178 -70.5h-214v319zM454 276v148q0 100 -46.5 152.5t-125.5 52.5h-129v-248h134v-62h-134v-248h129q79 0 125.5 52.5t46.5 152.5z" />
    <glyph glyph-name="Ntilde" unicode="&#xd1;" horiz-adv-x="644" 
d="M74 700h75l342 -555v555h79v-700h-75l-342 555v-555h-79v700zM387 783q-29 0 -70.5 27t-56.5 27q-28 0 -37 -46l-57 6q13 99 92 99q29 0 70.5 -27t56.5 -27q28 0 37 46l57 -6q-13 -99 -92 -99z" />
    <glyph glyph-name="Ograve" unicode="&#xd2;" horiz-adv-x="594" 
d="M541 436v-172q0 -123 -66.5 -199.5t-177.5 -76.5t-177.5 76.5t-66.5 199.5v172q0 123 66.5 199.5t177.5 76.5t177.5 -76.5t66.5 -199.5zM462 276v148q0 102 -44.5 159.5t-120.5 57.5t-120.5 -57.5t-44.5 -159.5v-148q0 -102 44.5 -159.5t120.5 -57.5t120.5 57.5
t44.5 159.5zM297 763l-112 161h82l92 -161h-62z" />
    <glyph glyph-name="Oacute" unicode="&#xd3;" horiz-adv-x="594" 
d="M541 436v-172q0 -123 -66.5 -199.5t-177.5 -76.5t-177.5 76.5t-66.5 199.5v172q0 123 66.5 199.5t177.5 76.5t177.5 -76.5t66.5 -199.5zM462 276v148q0 102 -44.5 159.5t-120.5 57.5t-120.5 -57.5t-44.5 -159.5v-148q0 -102 44.5 -159.5t120.5 -57.5t120.5 57.5
t44.5 159.5zM409 924l-112 -161h-62l92 161h82z" />
    <glyph glyph-name="Ocircumflex" unicode="&#xd4;" horiz-adv-x="594" 
d="M541 436v-172q0 -123 -66.5 -199.5t-177.5 -76.5t-177.5 76.5t-66.5 199.5v172q0 123 66.5 199.5t177.5 76.5t177.5 -76.5t66.5 -199.5zM462 276v148q0 102 -44.5 159.5t-120.5 57.5t-120.5 -57.5t-44.5 -159.5v-148q0 -102 44.5 -159.5t120.5 -57.5t120.5 57.5
t44.5 159.5zM389 763l-92 99l-92 -99h-67l126 161h66l126 -161h-67z" />
    <glyph glyph-name="Otilde" unicode="&#xd5;" horiz-adv-x="594" 
d="M541 436v-172q0 -123 -66.5 -199.5t-177.5 -76.5t-177.5 76.5t-66.5 199.5v172q0 123 66.5 199.5t177.5 76.5t177.5 -76.5t66.5 -199.5zM462 276v148q0 102 -44.5 159.5t-120.5 57.5t-120.5 -57.5t-44.5 -159.5v-148q0 -102 44.5 -159.5t120.5 -57.5t120.5 57.5
t44.5 159.5zM362 783q-29 0 -70.5 27t-56.5 27q-28 0 -37 -46l-57 6q13 99 92 99q29 0 70.5 -27t56.5 -27q28 0 37 46l57 -6q-13 -99 -92 -99z" />
    <glyph glyph-name="Odieresis" unicode="&#xd6;" horiz-adv-x="594" 
d="M541 264v172q0 123 -66.5 199.5t-177.5 76.5t-177.5 -76.5t-66.5 -199.5v-172q0 -123 66.5 -199.5t177.5 -76.5t177.5 76.5t66.5 199.5zM462 424v-148q0 -102 -44.5 -159.5t-120.5 -57.5t-120.5 57.5t-44.5 159.5v148q0 102 44.5 159.5t120.5 57.5t120.5 -57.5
t44.5 -159.5zM247 893v-101h-79v101h79zM426 893v-101h-79v101h79z" />
    <glyph glyph-name="multiply" unicode="&#xd7;" horiz-adv-x="520" 
d="M405 133l-145 145l-145 -145l-48 47l146 146l-146 146l48 47l145 -146l145 146l48 -47l-146 -146l146 -146z" />
    <glyph glyph-name="Oslash" unicode="&#xd8;" horiz-adv-x="594" 
d="M436 670l33 62h65l-55 -103q62 -76 62 -193v-172q0 -123 -66.5 -199.5t-177.5 -76.5q-80 0 -139 42l-33 -62h-65l55 102q-62 76 -62 194v172q0 123 66.5 199.5t177.5 76.5q80 0 139 -42zM297 641q-76 0 -120.5 -57.5t-44.5 -159.5v-148q0 -74 25 -127l243 453
q-42 39 -103 39zM462 276v148q0 74 -25 127l-243 -454q41 -38 103 -38q76 0 120.5 57.5t44.5 159.5z" />
    <glyph glyph-name="Ugrave" unicode="&#xd9;" horiz-adv-x="606" 
d="M303 -12q-112 0 -174.5 72t-62.5 195v445h79v-431q0 -104 40.5 -157t117.5 -53t117.5 53t40.5 157v431h79v-445q0 -123 -62.5 -195t-174.5 -72zM298 763l-112 161h82l92 -161h-62z" />
    <glyph glyph-name="Uacute" unicode="&#xda;" horiz-adv-x="606" 
d="M303 -12q-112 0 -174.5 72t-62.5 195v445h79v-431q0 -104 40.5 -157t117.5 -53t117.5 53t40.5 157v431h79v-445q0 -123 -62.5 -195t-174.5 -72zM420 924l-112 -161h-62l92 161h82z" />
    <glyph glyph-name="Ucircumflex" unicode="&#xdb;" horiz-adv-x="606" 
d="M303 -12q-112 0 -174.5 72t-62.5 195v445h79v-431q0 -104 40.5 -157t117.5 -53t117.5 53t40.5 157v431h79v-445q0 -123 -62.5 -195t-174.5 -72zM395 763l-92 99l-92 -99h-67l126 161h66l126 -161h-67z" />
    <glyph glyph-name="Udieresis" unicode="&#xdc;" horiz-adv-x="606" 
d="M303 -12q112 0 174.5 72t62.5 195v445h-79v-431q0 -104 -40.5 -157t-117.5 -53t-117.5 53t-40.5 157v431h-79v-445q0 -123 62.5 -195t174.5 -72zM253 893v-101h-79v101h79zM432 893v-101h-79v101h79z" />
    <glyph glyph-name="Yacute" unicode="&#xdd;" horiz-adv-x="560" 
d="M319 0h-79v318l-224 382h87l177 -304l177 304h87l-225 -382v-318zM393 924l-112 -161h-62l92 161h82z" />
    <glyph glyph-name="Thorn" unicode="&#xde;" horiz-adv-x="578" 
d="M317 142h-164v-142h-79v700h79v-142h164q89 0 153.5 -54t64.5 -154t-64.5 -154t-153.5 -54zM456 350q0 67 -42 102t-109 35h-152v-274h152q67 0 109 35.5t42 101.5z" />
    <glyph glyph-name="germandbls" unicode="&#xdf;" horiz-adv-x="557" 
d="M265 322l-11 58q142 30 142 135v5q0 53 -33 87t-88 34q-59 0 -92.5 -41t-33.5 -126v-474h-79v488q0 108 56.5 166t150.5 58q88 0 143 -54t55 -134v-10q0 -107 -98 -146q152 -40 152 -187v-12q0 -84 -54.5 -132.5t-147.5 -48.5q-77 0 -128 30l20 66q47 -25 105 -25
q59 0 92.5 29t33.5 84v9q0 67 -49.5 104t-135.5 37z" />
    <glyph glyph-name="agrave" unicode="&#xe0;" horiz-adv-x="505" 
d="M222 55q100 0 147 81v90h-142q-52 0 -81 -24.5t-29 -62.5v-5q0 -35 27.5 -57t77.5 -22zM253 445q-79 0 -120 -75l-74 20q29 56 80 89t117 33q87 0 137.5 -52.5t50.5 -138.5v-321h-75v61q-51 -73 -158 -73q-77 0 -123 39.5t-46 99.5v13q0 63 50.5 105t157.5 42h119v25
q0 66 -30.5 99.5t-85.5 33.5zM267 564l-112 161h82l92 -161h-62z" />
    <glyph glyph-name="aacute" unicode="&#xe1;" horiz-adv-x="505" 
d="M222 55q100 0 147 81v90h-142q-52 0 -81 -24.5t-29 -62.5v-5q0 -35 27.5 -57t77.5 -22zM253 445q-79 0 -120 -75l-74 20q29 56 80 89t117 33q87 0 137.5 -52.5t50.5 -138.5v-321h-75v61q-51 -73 -158 -73q-77 0 -123 39.5t-46 99.5v13q0 63 50.5 105t157.5 42h119v25
q0 66 -30.5 99.5t-85.5 33.5zM357 725l-112 -161h-62l92 161h82z" />
    <glyph glyph-name="acircumflex" unicode="&#xe2;" horiz-adv-x="505" 
d="M222 55q100 0 147 81v90h-142q-52 0 -81 -24.5t-29 -62.5v-5q0 -35 27.5 -57t77.5 -22zM253 445q-79 0 -120 -75l-74 20q29 56 80 89t117 33q87 0 137.5 -52.5t50.5 -138.5v-321h-75v61q-51 -73 -158 -73q-77 0 -123 39.5t-46 99.5v13q0 63 50.5 105t157.5 42h119v25
q0 66 -30.5 99.5t-85.5 33.5zM344 564l-92 99l-92 -99h-67l126 161h66l126 -161h-67z" />
    <glyph glyph-name="atilde" unicode="&#xe3;" horiz-adv-x="505" 
d="M222 55q100 0 147 81v90h-142q-52 0 -81 -24.5t-29 -62.5v-5q0 -35 27.5 -57t77.5 -22zM253 445q-79 0 -120 -75l-74 20q29 56 80 89t117 33q87 0 137.5 -52.5t50.5 -138.5v-321h-75v61q-51 -73 -158 -73q-77 0 -123 39.5t-46 99.5v13q0 63 50.5 105t157.5 42h119v25
q0 66 -30.5 99.5t-85.5 33.5zM316 584q-29 0 -70.5 27t-56.5 27q-28 0 -37 -46l-57 6q13 99 92 99q29 0 70.5 -27t56.5 -27q28 0 37 46l57 -6q-13 -99 -92 -99z" />
    <glyph glyph-name="adieresis" unicode="&#xe4;" horiz-adv-x="505" 
d="M222 55q100 0 147 81v90h-142q-52 0 -81 -24.5t-29 -62.5v-5q0 -35 27.5 -57t77.5 -22zM253 445q-79 0 -120 -75l-74 20q29 56 80 89t117 33q87 0 137.5 -52.5t50.5 -138.5v-321h-75v61q-51 -73 -158 -73q-77 0 -123 39.5t-46 99.5v13q0 63 50.5 105t157.5 42h119v25
q0 66 -30.5 99.5t-85.5 33.5zM202 694v-101h-79v101h79zM381 694v-101h-79v101h79z" />
    <glyph glyph-name="aring" unicode="&#xe5;" horiz-adv-x="505" 
d="M222 55q100 0 147 81v90h-142q-52 0 -81 -24.5t-29 -62.5v-5q0 -35 27.5 -57t77.5 -22zM253 445q-79 0 -120 -75l-74 20q29 56 80 89t117 33q87 0 137.5 -52.5t50.5 -138.5v-321h-75v61q-51 -73 -158 -73q-77 0 -123 39.5t-46 99.5v13q0 63 50.5 105t157.5 42h119v25
q0 66 -30.5 99.5t-85.5 33.5zM355 644q0 -46 -30 -73.5t-73 -27.5t-73 27.5t-30 73.5t30 73.5t73 27.5t73 -27.5t30 -73.5zM299 644q0 24 -13 37.5t-34 13.5t-34 -13.5t-13 -37.5t13 -37.5t34 -13.5t34 13.5t13 37.5z" />
    <glyph glyph-name="ae" unicode="&#xe6;" horiz-adv-x="832" 
d="M577 -12q-115 0 -173 91q-70 -91 -193 -91q-77 0 -123 39.5t-46 99.5v13q0 63 50.5 105t157.5 42h119v25q0 66 -30.5 99.5t-85.5 33.5q-79 0 -120 -75l-74 20q29 56 80 89t117 33q111 0 157 -88q56 88 164 88q91 0 149 -61t58 -149v-80h-339v-10q0 -73 37 -115t95 -42
q44 0 75.5 22.5t44.5 62.5l77 -12q-21 -65 -72 -102.5t-125 -37.5zM222 55q100 0 147 81v90h-142q-52 0 -81 -24.5t-29 -62.5v-5q0 -35 27.5 -57t77.5 -22zM445 288v-5h264v5q0 73 -37 115t-95 42t-95 -42t-37 -115z" />
    <glyph glyph-name="ccedilla" unicode="&#xe7;" horiz-adv-x="491" 
d="M289 -134q0 21 -21 34.5t-62 15.5q-1 2 -2.5 4t-1.5 3l28 66q-81 8 -131.5 67.5t-50.5 141.5v104q0 88 58 149t149 61q77 0 129 -43.5t69 -113.5l-75 -13q-11 49 -43.5 76t-79.5 27q-58 0 -95 -42t-37 -115v-76q0 -73 37 -115t95 -42q47 0 79.5 27t43.5 76l75 -13
q-16 -61 -57.5 -102.5t-102.5 -51.5l-18 -39q81 -21 81 -90q0 -43 -28 -68.5t-81 -25.5q-61 0 -100 39l35 45q29 -25 61 -25q46 0 46 39z" />
    <glyph glyph-name="egrave" unicode="&#xe8;" horiz-adv-x="510" 
d="M255 -12q-91 0 -149 61t-58 149v104q0 88 58 149t149 61t149 -61t58 -149v-80h-339v-10q0 -73 37 -115t95 -42q44 0 75.5 22.5t44.5 62.5l77 -12q-21 -65 -72 -102.5t-125 -37.5zM123 288v-5h264v5q0 73 -37 115t-95 42t-95 -42t-37 -115zM257 564l-112 161h82l92 -161
h-62z" />
    <glyph glyph-name="eacute" unicode="&#xe9;" horiz-adv-x="510" 
d="M255 -12q-91 0 -149 61t-58 149v104q0 88 58 149t149 61t149 -61t58 -149v-80h-339v-10q0 -73 37 -115t95 -42q44 0 75.5 22.5t44.5 62.5l77 -12q-21 -65 -72 -102.5t-125 -37.5zM123 288v-5h264v5q0 73 -37 115t-95 42t-95 -42t-37 -115zM366 725l-112 -161h-62l92 161
h82z" />
    <glyph glyph-name="ecircumflex" unicode="&#xea;" horiz-adv-x="510" 
d="M255 -12q-91 0 -149 61t-58 149v104q0 88 58 149t149 61t149 -61t58 -149v-80h-339v-10q0 -73 37 -115t95 -42q44 0 75.5 22.5t44.5 62.5l77 -12q-21 -65 -72 -102.5t-125 -37.5zM123 288v-5h264v5q0 73 -37 115t-95 42t-95 -42t-37 -115zM344 564l-92 99l-92 -99h-67
l126 161h66l126 -161h-67z" />
    <glyph glyph-name="edieresis" unicode="&#xeb;" horiz-adv-x="510" 
d="M255 -12q-91 0 -149 61t-58 149v104q0 88 58 149t149 61t149 -61t58 -149v-80h-339v-10q0 -73 37 -115t95 -42q44 0 75.5 22.5t44.5 62.5l77 -12q-21 -65 -72 -102.5t-125 -37.5zM123 288v-5h264v5q0 73 -37 115t-95 42t-95 -42t-37 -115zM202 694v-101h-79v101h79z
M381 694v-101h-79v101h79z" />
    <glyph glyph-name="igrave" unicode="&#xec;" horiz-adv-x="223" 
d="M74 0v500h75v-500h-75zM96 564l-112 161h82l92 -161h-62z" />
    <glyph glyph-name="iacute" unicode="&#xed;" horiz-adv-x="223" 
d="M74 0v500h75v-500h-75zM239 725l-112 -161h-62l92 161h82z" />
    <glyph glyph-name="icircumflex" unicode="&#xee;" horiz-adv-x="223" 
d="M74 0v500h75v-500h-75zM203 564l-92 99l-92 -99h-67l126 161h66l126 -161h-67z" />
    <glyph glyph-name="idieresis" unicode="&#xef;" horiz-adv-x="223" 
d="M74 0v500h75v-500h-75zM61 694v-101h-79v101h79zM240 694v-101h-79v101h79z" />
    <glyph glyph-name="eth" unicode="&#xf0;" horiz-adv-x="510" 
d="M314 497l-49 90l-126 -28l-12 48l113 25l-43 80h82l34 -64l106 24l12 -48l-93 -21q12 -22 38.5 -70t36 -68t24.5 -54.5t20 -62.5t5 -59v-91q0 -88 -58 -149t-149 -61t-149 61t-58 149v104q0 90 57.5 150t145.5 60q37 0 63 -15zM387 212v76q0 73 -37 115t-95 42t-95 -42
t-37 -115v-76q0 -73 37 -115t95 -42t95 42t37 115z" />
    <glyph glyph-name="ntilde" unicode="&#xf1;" horiz-adv-x="523" 
d="M463 0h-75v290q0 80 -27 117.5t-89 37.5q-42 0 -78 -24t-55 -66v-355h-75v500h75v-64q53 76 154 76q82 0 126 -54.5t44 -151.5v-306zM326 584q-29 0 -70.5 27t-56.5 27q-28 0 -37 -46l-57 6q13 99 92 99q29 0 70.5 -27t56.5 -27q28 0 37 46l57 -6q-13 -99 -92 -99z" />
    <glyph glyph-name="ograve" unicode="&#xf2;" horiz-adv-x="510" 
d="M48 198v104q0 88 58 149t149 61t149 -61t58 -149v-104q0 -88 -58 -149t-149 -61t-149 61t-58 149zM387 212v76q0 73 -37 115t-95 42t-95 -42t-37 -115v-76q0 -73 37 -115t95 -42t95 42t37 115zM256 564l-112 161h82l92 -161h-62z" />
    <glyph glyph-name="oacute" unicode="&#xf3;" horiz-adv-x="510" 
d="M48 198v104q0 88 58 149t149 61t149 -61t58 -149v-104q0 -88 -58 -149t-149 -61t-149 61t-58 149zM387 212v76q0 73 -37 115t-95 42t-95 -42t-37 -115v-76q0 -73 37 -115t95 -42t95 42t37 115zM366 725l-112 -161h-62l92 161h82z" />
    <glyph glyph-name="ocircumflex" unicode="&#xf4;" horiz-adv-x="510" 
d="M48 198v104q0 88 58 149t149 61t149 -61t58 -149v-104q0 -88 -58 -149t-149 -61t-149 61t-58 149zM387 212v76q0 73 -37 115t-95 42t-95 -42t-37 -115v-76q0 -73 37 -115t95 -42t95 42t37 115zM347 564l-92 99l-92 -99h-67l126 161h66l126 -161h-67z" />
    <glyph glyph-name="otilde" unicode="&#xf5;" horiz-adv-x="510" 
d="M48 198v104q0 88 58 149t149 61t149 -61t58 -149v-104q0 -88 -58 -149t-149 -61t-149 61t-58 149zM387 212v76q0 73 -37 115t-95 42t-95 -42t-37 -115v-76q0 -73 37 -115t95 -42t95 42t37 115zM320 584q-29 0 -70.5 27t-56.5 27q-28 0 -37 -46l-57 6q13 99 92 99
q29 0 70.5 -27t56.5 -27q28 0 37 46l57 -6q-13 -99 -92 -99z" />
    <glyph glyph-name="odieresis" unicode="&#xf6;" horiz-adv-x="510" 
d="M48 302v-104q0 -88 58 -149t149 -61t149 61t58 149v104q0 88 -58 149t-149 61t-149 -61t-58 -149zM387 288v-76q0 -73 -37 -115t-95 -42t-95 42t-37 115v76q0 73 37 115t95 42t95 -42t37 -115zM205 694v-101h-79v101h79zM384 694v-101h-79v101h79z" />
    <glyph glyph-name="divide" unicode="&#xf7;" horiz-adv-x="520" 
d="M51 356h418v-61h-418v61zM303 545v-98h-86v98h86zM303 204v-98h-86v98h86z" />
    <glyph glyph-name="oslash" unicode="&#xf8;" horiz-adv-x="510" 
d="M353 489l26 49h61l-43 -80q65 -62 65 -156v-104q0 -88 -58 -149t-149 -61q-54 0 -98 22l-26 -48h-61l43 80q-65 60 -65 156v104q0 88 58 149t149 61q54 0 98 -23zM255 445q-58 0 -95 -42t-37 -115v-76q0 -60 27 -101l170 317q-29 17 -65 17zM387 212v76q0 60 -27 101
l-170 -317q27 -17 65 -17q58 0 95 42t37 115z" />
    <glyph glyph-name="ugrave" unicode="&#xf9;" horiz-adv-x="524" 
d="M60 500h75v-290q0 -80 27 -117.5t89 -37.5q42 0 78 24t55 66v355h75v-500h-75v64q-53 -76 -154 -76q-82 0 -126 54.5t-44 151.5v306zM260 564l-112 161h82l92 -161h-62z" />
    <glyph glyph-name="uacute" unicode="&#xfa;" horiz-adv-x="524" 
d="M60 500h75v-290q0 -80 27 -117.5t89 -37.5q42 0 78 24t55 66v355h75v-500h-75v64q-53 -76 -154 -76q-82 0 -126 54.5t-44 151.5v306zM375 725l-112 -161h-62l92 161h82z" />
    <glyph glyph-name="ucircumflex" unicode="&#xfb;" horiz-adv-x="524" 
d="M60 500h75v-290q0 -80 27 -117.5t89 -37.5q42 0 78 24t55 66v355h75v-500h-75v64q-53 -76 -154 -76q-82 0 -126 54.5t-44 151.5v306zM351 564l-92 99l-92 -99h-67l126 161h66l126 -161h-67z" />
    <glyph glyph-name="udieresis" unicode="&#xfc;" horiz-adv-x="524" 
d="M60 500h75v-290q0 -80 27 -117.5t89 -37.5q42 0 78 24t55 66v355h75v-500h-75v64q-53 -76 -154 -76q-82 0 -126 54.5t-44 151.5v306zM209 694v-101h-79v101h79zM388 694v-101h-79v101h79z" />
    <glyph glyph-name="yacute" unicode="&#xfd;" horiz-adv-x="480" 
d="M175 -87l36 100l-201 487h80l158 -391l142 391h80l-225 -605q-24 -63 -57 -84.5t-91 -21.5h-32v67h29q60 0 81 57zM358 725l-112 -161h-62l92 161h82z" />
    <glyph glyph-name="thorn" unicode="&#xfe;" horiz-adv-x="511" 
d="M463 302v-104q0 -94 -48 -152t-134 -58q-97 0 -142 67v-273h-75v930h75v-267q45 67 142 67q86 0 134 -58t48 -152zM388 212v76q0 157 -127 157q-81 0 -122 -81v-228q41 -81 122 -81q127 0 127 157z" />
    <glyph glyph-name="ydieresis" unicode="&#xff;" horiz-adv-x="480" 
d="M175 -87l36 100l-201 487h80l158 -391l142 391h80l-225 -605q-24 -63 -57 -84.5t-91 -21.5h-32v67h29q60 0 81 57zM193 694v-101h-79v101h79zM372 694v-101h-79v101h79z" />
    <glyph glyph-name="Amacron" unicode="&#x100;" horiz-adv-x="570" 
d="M324 700h-78l-240 -700h85l56 173h275l57 -173h85zM170 244l115 350l114 -350h-229zM146 814v58h278v-58h-278z" />
    <glyph glyph-name="amacron" unicode="&#x101;" horiz-adv-x="505" 
d="M222 55q100 0 147 81v90h-142q-52 0 -81 -24.5t-29 -62.5v-5q0 -35 27.5 -57t77.5 -22zM253 445q-79 0 -120 -75l-74 20q29 56 80 89t117 33q87 0 137.5 -52.5t50.5 -138.5v-321h-75v61q-51 -73 -158 -73q-77 0 -123 39.5t-46 99.5v13q0 63 50.5 105t157.5 42h119v25
q0 66 -30.5 99.5t-85.5 33.5zM116 615v58h278v-58h-278z" />
    <glyph glyph-name="Abreve" unicode="&#x102;" horiz-adv-x="570" 
d="M246 700h78l240 -700h-85l-57 173h-275l-56 -173h-85zM285 594l-115 -350h229zM285 767q-122 0 -150 131l62 12q21 -84 88 -84t88 84l62 -12q-28 -131 -150 -131z" />
    <glyph glyph-name="abreve" unicode="&#x103;" horiz-adv-x="505" 
d="M222 55q100 0 147 81v90h-142q-52 0 -81 -24.5t-29 -62.5v-5q0 -35 27.5 -57t77.5 -22zM253 445q-79 0 -120 -75l-74 20q29 56 80 89t117 33q87 0 137.5 -52.5t50.5 -138.5v-321h-75v61q-51 -73 -158 -73q-77 0 -123 39.5t-46 99.5v13q0 63 50.5 105t157.5 42h119v25
q0 66 -30.5 99.5t-85.5 33.5zM255 570q-122 0 -150 131l62 12q21 -84 88 -84t88 84l62 -12q-28 -131 -150 -131z" />
    <glyph glyph-name="Aogonek" unicode="&#x104;" horiz-adv-x="570" 
d="M246 700h78l240 -700h-22q-71 -49 -71 -101v-5q0 -22 14 -37t37 -15q34 0 56 24l38 -40q-40 -43 -103 -43q-48 0 -78 26t-30 69v7q0 32 20 63.5t54 51.5l-57 173h-275l-56 -173h-85zM285 594l-115 -350h229z" />
    <glyph glyph-name="aogonek" unicode="&#x105;" horiz-adv-x="505" 
d="M369 0v61q-51 -73 -158 -73q-77 0 -123 39.5t-46 99.5v13q0 63 50.5 105t157.5 42h119v25q0 66 -30.5 99.5t-85.5 33.5q-79 0 -120 -75l-74 20q29 56 80 89t117 33q87 0 137.5 -52.5t50.5 -138.5v-321h-12q-71 -49 -71 -101v-5q0 -22 14 -37t37 -15q34 0 56 24l38 -40
q-40 -43 -103 -43q-48 0 -78 26t-30 69v7q0 32 20 63.5t54 51.5zM222 55q100 0 147 81v90h-142q-52 0 -81 -24.5t-29 -62.5v-5q0 -35 27.5 -57t77.5 -22z" />
    <glyph glyph-name="Cacute" unicode="&#x106;" horiz-adv-x="583" 
d="M297 641q-76 0 -120.5 -57.5t-44.5 -159.5v-148q0 -102 44.5 -159.5t120.5 -57.5q65 0 108 40.5t56 117.5l78 -13q-14 -100 -79 -158t-163 -58q-111 0 -177.5 76.5t-66.5 199.5v172q0 123 66.5 199.5t177.5 76.5q98 0 163 -58.5t79 -158.5l-78 -13q-13 77 -56 118
t-108 41zM400 924l-112 -161h-62l92 161h82z" />
    <glyph glyph-name="cacute" unicode="&#x107;" horiz-adv-x="491" 
d="M48 198v104q0 88 58 149t149 61q77 0 129 -43.5t69 -113.5l-75 -13q-11 49 -43.5 76t-79.5 27q-58 0 -95 -42t-37 -115v-76q0 -73 37 -115t95 -42q47 0 79.5 27t43.5 76l75 -13q-17 -70 -69 -113.5t-129 -43.5q-91 0 -149 61t-58 149zM353 725l-112 -161h-62l92 161h82z
" />
    <glyph glyph-name="Ccircumflex" unicode="&#x108;" horiz-adv-x="583" 
d="M297 641q-76 0 -120.5 -57.5t-44.5 -159.5v-148q0 -102 44.5 -159.5t120.5 -57.5q65 0 108 40.5t56 117.5l78 -13q-14 -100 -79 -158t-163 -58q-111 0 -177.5 76.5t-66.5 199.5v172q0 123 66.5 199.5t177.5 76.5q98 0 163 -58.5t79 -158.5l-78 -13q-13 77 -56 118
t-108 41zM381 763l-92 99l-92 -99h-67l126 161h66l126 -161h-67z" />
    <glyph glyph-name="ccircumflex" unicode="&#x109;" horiz-adv-x="491" 
d="M48 198v104q0 88 58 149t149 61q77 0 129 -43.5t69 -113.5l-75 -13q-11 49 -43.5 76t-79.5 27q-58 0 -95 -42t-37 -115v-76q0 -73 37 -115t95 -42q47 0 79.5 27t43.5 76l75 -13q-17 -70 -69 -113.5t-129 -43.5q-91 0 -149 61t-58 149zM336 564l-92 99l-92 -99h-67
l126 161h66l126 -161h-67z" />
    <glyph glyph-name="Cdotaccent" unicode="&#x10a;" horiz-adv-x="583" 
d="M297 641q65 0 108 -41t56 -118l78 13q-14 100 -79 158.5t-163 58.5q-111 0 -177.5 -76.5t-66.5 -199.5v-172q0 -123 66.5 -199.5t177.5 -76.5q98 0 163 58t79 158l-78 13q-13 -77 -56 -117.5t-108 -40.5q-76 0 -120.5 57.5t-44.5 159.5v148q0 102 44.5 159.5t120.5 57.5z
M332 897v-108h-86v108h86z" />
    <glyph glyph-name="cdotaccent" unicode="&#x10b;" horiz-adv-x="491" 
d="M48 198v104q0 88 58 149t149 61q77 0 129 -43.5t69 -113.5l-75 -13q-11 49 -43.5 76t-79.5 27q-58 0 -95 -42t-37 -115v-76q0 -73 37 -115t95 -42q47 0 79.5 27t43.5 76l75 -13q-17 -70 -69 -113.5t-129 -43.5q-91 0 -149 61t-58 149zM288 698v-108h-86v108h86z" />
    <glyph glyph-name="Ccaron" unicode="&#x10c;" horiz-adv-x="583" 
d="M297 641q65 0 108 -41t56 -118l78 13q-14 100 -79 158.5t-163 58.5q-111 0 -177.5 -76.5t-66.5 -199.5v-172q0 -123 66.5 -199.5t177.5 -76.5q98 0 163 58t79 158l-78 13q-13 -77 -56 -117.5t-108 -40.5q-76 0 -120.5 57.5t-44.5 159.5v148q0 102 44.5 159.5t120.5 57.5z
M289 825l92 99h67l-126 -161h-66l-126 161h67z" />
    <glyph glyph-name="ccaron" unicode="&#x10d;" horiz-adv-x="491" 
d="M48 198v104q0 88 58 149t149 61q77 0 129 -43.5t69 -113.5l-75 -13q-11 49 -43.5 76t-79.5 27q-58 0 -95 -42t-37 -115v-76q0 -73 37 -115t95 -42q47 0 79.5 27t43.5 76l75 -13q-17 -70 -69 -113.5t-129 -43.5q-91 0 -149 61t-58 149zM245 626l92 99h67l-126 -161h-66
l-126 161h67z" />
    <glyph glyph-name="Dcaron" unicode="&#x10e;" horiz-adv-x="591" 
d="M454 276v148q0 100 -46.5 152.5t-125.5 52.5h-129v-558h129q79 0 125.5 52.5t46.5 152.5zM533 436v-172q0 -123 -67 -193.5t-178 -70.5h-214v700h214q111 0 178 -70.5t67 -193.5zM264 825l92 99h67l-126 -161h-66l-126 161h67z" />
    <glyph glyph-name="dcaron" unicode="&#x10f;" horiz-adv-x="597" 
d="M372 0v55q-45 -67 -142 -67q-86 0 -134 58t-48 152v104q0 94 48 152t134 58q97 0 142 -67v267h75v-712h-75zM123 288v-76q0 -157 127 -157q82 0 122 81v228q-40 81 -122 81q-127 0 -127 -157zM587 712v-95q0 -49 -20.5 -74.5t-65.5 -32.5v37q25 5 36 19.5t11 47.5h-47v98
h86z" />
    <glyph glyph-name="Dcroat" unicode="&#x110;" horiz-adv-x="591" 
d="M74 319h-62v62h62v319h214q111 0 178 -70.5t67 -193.5v-172q0 -123 -67 -193.5t-178 -70.5h-214v319zM454 276v148q0 100 -46.5 152.5t-125.5 52.5h-129v-248h134v-62h-134v-248h129q79 0 125.5 52.5t46.5 152.5z" />
    <glyph glyph-name="dcroat" unicode="&#x111;" horiz-adv-x="511" 
d="M225 646h147v66h75v-66h62v-58h-62v-588h-75v55q-45 -67 -142 -67q-86 0 -134 58t-48 152v104q0 94 48 152t134 58q97 0 142 -67v143h-147v58zM123 288v-76q0 -157 127 -157q82 0 122 81v228q-40 81 -122 81q-127 0 -127 -157z" />
    <glyph glyph-name="Emacron" unicode="&#x112;" horiz-adv-x="539" 
d="M490 0h-416v700h416v-71h-337v-233h297v-71h-297v-254h337v-71zM138 814v58h278v-58h-278z" />
    <glyph glyph-name="emacron" unicode="&#x113;" horiz-adv-x="510" 
d="M255 -12q-91 0 -149 61t-58 149v104q0 88 58 149t149 61t149 -61t58 -149v-80h-339v-10q0 -73 37 -115t95 -42q44 0 75.5 22.5t44.5 62.5l77 -12q-21 -65 -72 -102.5t-125 -37.5zM123 288v-5h264v5q0 73 -37 115t-95 42t-95 -42t-37 -115zM113 615v58h278v-58h-278z" />
    <glyph glyph-name="Ebreve" unicode="&#x114;" horiz-adv-x="539" 
d="M490 0h-416v700h416v-71h-337v-233h297v-71h-297v-254h337v-71zM279 767q-122 0 -150 131l62 12q21 -84 88 -84t88 84l62 -12q-28 -131 -150 -131z" />
    <glyph glyph-name="ebreve" unicode="&#x115;" horiz-adv-x="510" 
d="M255 -12q-91 0 -149 61t-58 149v104q0 88 58 149t149 61t149 -61t58 -149v-80h-339v-10q0 -73 37 -115t95 -42q44 0 75.5 22.5t44.5 62.5l77 -12q-21 -65 -72 -102.5t-125 -37.5zM123 288v-5h264v5q0 73 -37 115t-95 42t-95 -42t-37 -115zM251 570q-122 0 -150 131l62 12
q21 -84 88 -84t88 84l62 -12q-28 -131 -150 -131z" />
    <glyph glyph-name="Edotaccent" unicode="&#x116;" horiz-adv-x="539" 
d="M490 0h-416v700h416v-71h-337v-233h297v-71h-297v-254h337v-71zM317 897v-108h-86v108h86z" />
    <glyph glyph-name="edotaccent" unicode="&#x117;" horiz-adv-x="510" 
d="M255 -12q-91 0 -149 61t-58 149v104q0 88 58 149t149 61t149 -61t58 -149v-80h-339v-10q0 -73 37 -115t95 -42q44 0 75.5 22.5t44.5 62.5l77 -12q-21 -65 -72 -102.5t-125 -37.5zM123 288v-5h264v5q0 73 -37 115t-95 42t-95 -42t-37 -115zM294 698v-108h-86v108h86z" />
    <glyph glyph-name="Eogonek" unicode="&#x118;" horiz-adv-x="539" 
d="M368 0h-294v700h416v-71h-337v-233h297v-71h-297v-254h337v-71h-59q-71 -49 -71 -101v-5q0 -22 14 -37t37 -15q33 0 56 24l38 -40q-40 -43 -103 -43q-48 0 -78 26t-30 69v7q0 32 20 63.5t54 51.5z" />
    <glyph glyph-name="eogonek" unicode="&#x119;" horiz-adv-x="510" 
d="M452 128q-37 -114 -150 -135q-60 -45 -60 -94v-5q0 -22 14 -37t37 -15q33 0 56 24l38 -40q-40 -43 -103 -43q-48 0 -78 26t-30 69v7q0 60 58 104q-83 7 -134.5 66.5t-51.5 142.5v104q0 88 58 149t149 61t149 -61t58 -149v-80h-339v-10q0 -73 37 -115t95 -42
q44 0 75.5 22.5t44.5 62.5zM123 288v-5h264v5q0 73 -37 115t-95 42t-95 -42t-37 -115z" />
    <glyph glyph-name="Ecaron" unicode="&#x11a;" horiz-adv-x="539" 
d="M490 0h-416v700h416v-71h-337v-233h297v-71h-297v-254h337v-71zM279 825l92 99h67l-126 -161h-66l-126 161h67z" />
    <glyph glyph-name="ecaron" unicode="&#x11b;" horiz-adv-x="510" 
d="M255 -12q-91 0 -149 61t-58 149v104q0 88 58 149t149 61t149 -61t58 -149v-80h-339v-10q0 -73 37 -115t95 -42q44 0 75.5 22.5t44.5 62.5l77 -12q-21 -65 -72 -102.5t-125 -37.5zM123 288v-5h264v5q0 73 -37 115t-95 42t-95 -42t-37 -115zM251 626l92 99h67l-126 -161
h-66l-126 161h67z" />
    <glyph glyph-name="Gcircumflex" unicode="&#x11c;" horiz-adv-x="593" 
d="M132 424v-148q0 -102 44.5 -159.5t122.5 -57.5q77 0 121.5 58t44.5 154v20h-164v71h243v-97q0 -124 -65.5 -200.5t-179.5 -76.5q-113 0 -179.5 76t-66.5 200v172q0 123 66.5 199.5t177.5 76.5q98 0 163 -58.5t79 -158.5l-78 -13q-13 77 -56 118t-108 41
q-76 0 -120.5 -57.5t-44.5 -159.5zM384 763l-92 99l-92 -99h-67l126 161h66l126 -161h-67z" />
    <glyph glyph-name="gcircumflex" unicode="&#x11d;" horiz-adv-x="511" 
d="M372 -7v62q-45 -67 -142 -67q-86 0 -134 58t-48 152v104q0 94 48 152t134 58q97 0 142 -67v55h75v-512q0 -101 -50 -160.5t-143 -59.5q-66 0 -114.5 33.5t-70.5 94.5l74 18q29 -79 111 -79q56 0 87 40t31 118zM123 288v-76q0 -157 127 -157q82 0 122 81v228
q-40 81 -122 81q-127 0 -127 -157zM347 564l-92 99l-92 -99h-67l126 161h66l126 -161h-67z" />
    <glyph glyph-name="Gbreve" unicode="&#x11e;" horiz-adv-x="593" 
d="M132 424v-148q0 -102 44.5 -159.5t122.5 -57.5q77 0 121.5 58t44.5 154v20h-164v71h243v-97q0 -124 -65.5 -200.5t-179.5 -76.5q-113 0 -179.5 76t-66.5 200v172q0 123 66.5 199.5t177.5 76.5q98 0 163 -58.5t79 -158.5l-78 -13q-13 77 -56 118t-108 41
q-76 0 -120.5 -57.5t-44.5 -159.5zM292 767q-122 0 -150 131l62 12q21 -84 88 -84t88 84l62 -12q-28 -131 -150 -131z" />
    <glyph glyph-name="gbreve" unicode="&#x11f;" horiz-adv-x="511" 
d="M372 -7v62q-45 -67 -142 -67q-86 0 -134 58t-48 152v104q0 94 48 152t134 58q97 0 142 -67v55h75v-512q0 -101 -50 -160.5t-143 -59.5q-66 0 -114.5 33.5t-70.5 94.5l74 18q29 -79 111 -79q56 0 87 40t31 118zM123 288v-76q0 -157 127 -157q82 0 122 81v228
q-40 81 -122 81q-127 0 -127 -157zM256 570q-122 0 -150 131l62 12q21 -84 88 -84t88 84l62 -12q-28 -131 -150 -131z" />
    <glyph glyph-name="Gdotaccent" unicode="&#x120;" horiz-adv-x="593" 
d="M132 424v-148q0 -102 44.5 -159.5t122.5 -57.5q77 0 121.5 58t44.5 154v20h-164v71h243v-97q0 -124 -65.5 -200.5t-179.5 -76.5q-113 0 -179.5 76t-66.5 200v172q0 123 66.5 199.5t177.5 76.5q98 0 163 -58.5t79 -158.5l-78 -13q-13 77 -56 118t-108 41
q-76 0 -120.5 -57.5t-44.5 -159.5zM335 897v-108h-86v108h86z" />
    <glyph glyph-name="gdotaccent" unicode="&#x121;" horiz-adv-x="511" 
d="M372 -7v62q-45 -67 -142 -67q-86 0 -134 58t-48 152v104q0 94 48 152t134 58q97 0 142 -67v55h75v-512q0 -101 -50 -160.5t-143 -59.5q-66 0 -114.5 33.5t-70.5 94.5l74 18q29 -79 111 -79q56 0 87 40t31 118zM123 288v-76q0 -157 127 -157q82 0 122 81v228
q-40 81 -122 81q-127 0 -127 -157zM300 698v-108h-86v108h86z" />
    <glyph glyph-name="Gcommaaccent" unicode="&#x122;" horiz-adv-x="593" 
d="M132 424v-148q0 -102 44.5 -159.5t122.5 -57.5q77 0 121.5 58t44.5 154v20h-164v71h243v-97q0 -124 -65.5 -200.5t-179.5 -76.5q-113 0 -179.5 76t-66.5 200v172q0 123 66.5 199.5t177.5 76.5q98 0 163 -58.5t79 -158.5l-78 -13q-13 77 -56 118t-108 41
q-76 0 -120.5 -57.5t-44.5 -159.5zM297 -210h-61l40 156h79z" />
    <glyph glyph-name="gcommaaccent" unicode="&#x123;" horiz-adv-x="511" 
d="M372 -7v62q-45 -67 -142 -67q-86 0 -134 58t-48 152v104q0 94 48 152t134 58q97 0 142 -67v55h75v-512q0 -101 -50 -160.5t-143 -59.5q-66 0 -114.5 33.5t-70.5 94.5l74 18q29 -79 111 -79q56 0 87 40t31 118zM123 288v-76q0 -157 127 -157q82 0 122 81v228
q-40 81 -122 81q-127 0 -127 -157zM270 712h61l-40 -156h-79z" />
    <glyph glyph-name="Hcircumflex" unicode="&#x124;" horiz-adv-x="615" 
d="M462 0v324h-309v-324h-79v700h79v-305h309v305h79v-700h-79zM399 763l-92 99l-92 -99h-67l126 161h66l126 -161h-67z" />
    <glyph glyph-name="hcircumflex" unicode="&#x125;" horiz-adv-x="524" 
d="M463 0h-75v290q0 80 -27 117.5t-89 37.5q-42 0 -78 -24t-55 -66v-355h-75v712h75v-276q53 76 154 76q82 0 126 -54.5t44 -151.5v-306zM194 763l-92 99l-92 -99h-67l126 161h66l126 -161h-67z" />
    <glyph glyph-name="Hbar" unicode="&#x126;" horiz-adv-x="615" 
d="M603 528h-62v-528h-79v324h-309v-324h-79v528h-62v62h62v110h79v-110h309v110h79v-110h62v-62zM153 395h309v133h-309v-133z" />
    <glyph glyph-name="hbar" unicode="&#x127;" horiz-adv-x="524" 
d="M286 588h-147v-152q53 76 154 76q82 0 126 -54.5t44 -151.5v-306h-75v290q0 80 -27 117.5t-89 37.5q-42 0 -78 -24t-55 -66v-355h-75v588h-62v58h62v66h75v-66h147v-58z" />
    <glyph glyph-name="Itilde" unicode="&#x128;" horiz-adv-x="227" 
d="M153 700v-700h-79v700h79zM178 783q-29 0 -70.5 27t-56.5 27q-28 0 -37 -46l-57 6q13 99 92 99q29 0 70.5 -27t56.5 -27q28 0 37 46l57 -6q-13 -99 -92 -99z" />
    <glyph glyph-name="itilde" unicode="&#x129;" horiz-adv-x="223" 
d="M74 0v500h75v-500h-75zM176 584q-29 0 -70.5 27t-56.5 27q-28 0 -37 -46l-57 6q13 99 92 99q29 0 70.5 -27t56.5 -27q28 0 37 46l57 -6q-13 -99 -92 -99z" />
    <glyph glyph-name="Imacron" unicode="&#x12a;" horiz-adv-x="227" 
d="M153 700v-700h-79v700h79zM-26 814v58h278v-58h-278z" />
    <glyph glyph-name="imacron" unicode="&#x12b;" horiz-adv-x="223" 
d="M74 0v500h75v-500h-75zM-28 615v58h278v-58h-278z" />
    <glyph glyph-name="Ibreve" unicode="&#x12c;" horiz-adv-x="227" 
d="M153 700v-700h-79v700h79zM113 767q-122 0 -150 131l62 12q21 -84 88 -84t88 84l62 -12q-28 -131 -150 -131z" />
    <glyph glyph-name="ibreve" unicode="&#x12d;" horiz-adv-x="223" 
d="M74 0v500h75v-500h-75zM111 570q-122 0 -150 131l62 12q21 -84 88 -84t88 84l62 -12q-28 -131 -150 -131z" />
    <glyph glyph-name="Iogonek" unicode="&#x12e;" horiz-adv-x="227" 
d="M90 0h-16v700h79v-700q-71 -49 -71 -101v-5q0 -22 14 -37t37 -15q33 0 56 24l38 -40q-40 -43 -103 -43q-48 0 -78 26t-30 69v7q0 32 20 63.5t54 51.5z" />
    <glyph glyph-name="iogonek" unicode="&#x12f;" horiz-adv-x="223" 
d="M74 0v500h75v-500q-71 -49 -71 -101v-5q0 -22 14 -37t37 -15q33 0 56 24l38 -40q-40 -43 -103 -43q-48 0 -78 26t-30 69v7q0 32 20 63.5t54 51.5h-12zM74 620v92h75v-92h-75z" />
    <glyph glyph-name="Idotaccent" unicode="&#x130;" horiz-adv-x="227" 
d="M153 700v-700h-79v700h79zM156 897v-108h-86v108h86z" />
    <glyph glyph-name="dotlessi" unicode="&#x131;" horiz-adv-x="223" 
d="M74 0v500h75v-500h-75z" />
    <glyph glyph-name="IJ" unicode="&#x132;" horiz-adv-x="731" 
d="M153 700v-700h-79v700h79zM588 225v475h79v-487q0 -110 -57 -167.5t-153 -57.5q-78 0 -132.5 43.5t-75.5 126.5l79 13q33 -112 129 -112q59 0 95 39t36 127z" />
    <glyph glyph-name="ij" unicode="&#x133;" horiz-adv-x="456" 
d="M74 0v500h75v-500h-75zM74 620v92h75v-92h-75zM307 620v92h75v-92h-75zM307 -57v557h75v-565q0 -76 -36 -111.5t-111 -35.5h-32v67h32q72 0 72 88z" />
    <glyph glyph-name="Jcircumflex" unicode="&#x134;" horiz-adv-x="504" 
d="M361 225v475h79v-487q0 -110 -57 -167.5t-153 -57.5q-78 0 -132.5 43.5t-75.5 126.5l79 13q33 -112 129 -112q59 0 95 39t36 127zM493 763l-92 99l-92 -99h-67l126 161h66l126 -161h-67z" />
    <glyph glyph-name="jcircumflex" unicode="&#x135;" horiz-adv-x="233" 
d="M84 -57v557h75v-565q0 -76 -36 -111.5t-111 -35.5h-32v67h32q72 0 72 88zM213 564l-92 99l-92 -99h-67l126 161h66l126 -161h-67z" />
    <glyph glyph-name="Kcommaaccent" unicode="&#x136;" horiz-adv-x="576" 
d="M483 0l-209 342l-121 -78v-264h-79v700h79v-346l114 73q99 63 131.5 121.5t32.5 144.5v7h78v-7q0 -104 -37 -175t-136 -136l236 -382h-89zM295 -210h-61l40 156h79z" />
    <glyph glyph-name="kcommaaccent" unicode="&#x137;" horiz-adv-x="472" 
d="M302 282l172 -282h-84l-147 243l-104 -67v-176h-75v712h75v-452l112 73q52 34 74.5 71t22.5 89v7h75v-8q0 -73 -27.5 -120t-93.5 -90zM248 -210h-61l40 156h79z" />
    <glyph glyph-name="kgreenlandic" unicode="&#x138;" horiz-adv-x="472" 
d="M302 282l172 -282h-84l-147 243l-104 -67v-176h-75v500h75v-240l112 73q52 34 74.5 71t22.5 89v7h75v-8q0 -73 -27.5 -120t-93.5 -90z" />
    <glyph glyph-name="Lacute" unicode="&#x139;" horiz-adv-x="506" 
d="M490 71v-71h-416v700h79v-629h337zM242 924l-112 -161h-62l92 161h82z" />
    <glyph glyph-name="lacute" unicode="&#x13a;" horiz-adv-x="263" 
d="M236 67v-67h-20q-142 0 -142 144v568h75v-560q0 -85 69 -85h18zM239 924l-112 -161h-62l92 161h82z" />
    <glyph glyph-name="Lcommaaccent" unicode="&#x13b;" horiz-adv-x="506" 
d="M490 71v-71h-416v700h79v-629h337zM283 -210h-61l40 156h79z" />
    <glyph glyph-name="lcommaaccent" unicode="&#x13c;" horiz-adv-x="263" 
d="M236 67v-67h-20q-142 0 -142 144v568h75v-560q0 -85 69 -85h18zM153 -210h-61l40 156h79z" />
    <glyph glyph-name="Lcaron" unicode="&#x13d;" horiz-adv-x="506" 
d="M490 71v-71h-416v700h79v-629h337zM415 712v-95q0 -49 -20.5 -74.5t-65.5 -32.5v37q25 5 36 19.5t11 47.5h-47v98h86z" />
    <glyph glyph-name="lcaron" unicode="&#x13e;" horiz-adv-x="299" 
d="M236 67v-67h-20q-142 0 -142 144v568h75v-560q0 -85 69 -85h18zM289 712v-95q0 -49 -20.5 -74.5t-65.5 -32.5v37q25 5 36 19.5t11 47.5h-47v98h86z" />
    <glyph glyph-name="Ldot" unicode="&#x13f;" horiz-adv-x="506" 
d="M490 71v-71h-416v700h79v-629h337zM410 433v-108h-86v108h86z" />
    <glyph glyph-name="ldot" unicode="&#x140;" horiz-adv-x="356" 
d="M236 67v-67h-20q-142 0 -142 144v568h75v-560q0 -85 69 -85h18zM324 433v-108h-86v108h86z" />
    <glyph glyph-name="Lslash" unicode="&#x141;" horiz-adv-x="506" 
d="M10 282l64 34v384h79v-342l184 97v-63l-184 -97v-224h337v-71h-416v253l-64 -34v63z" />
    <glyph glyph-name="lslash" unicode="&#x142;" horiz-adv-x="263" 
d="M236 368l-87 -47v-169q0 -85 69 -85h18v-67h-20q-142 0 -142 144v136l-64 -34v63l64 34v369h75v-328l87 47v-63z" />
    <glyph glyph-name="Nacute" unicode="&#x143;" horiz-adv-x="644" 
d="M74 700h75l342 -555v555h79v-700h-75l-342 555v-555h-79v700zM434 924l-112 -161h-62l92 161h82z" />
    <glyph glyph-name="nacute" unicode="&#x144;" horiz-adv-x="523" 
d="M463 0h-75v290q0 80 -27 117.5t-89 37.5q-42 0 -78 -24t-55 -66v-355h-75v500h75v-64q53 76 154 76q82 0 126 -54.5t44 -151.5v-306zM374 725l-112 -161h-62l92 161h82z" />
    <glyph glyph-name="Ncommaaccent" unicode="&#x145;" horiz-adv-x="644" 
d="M74 700h75l342 -555v555h79v-700h-75l-342 555v-555h-79v700zM324 -210h-61l40 156h79z" />
    <glyph glyph-name="ncommaaccent" unicode="&#x146;" horiz-adv-x="523" 
d="M463 0h-75v290q0 80 -27 117.5t-89 37.5q-42 0 -78 -24t-55 -66v-355h-75v500h75v-64q53 76 154 76q82 0 126 -54.5t44 -151.5v-306zM253 -210h-61l40 156h79z" />
    <glyph glyph-name="Ncaron" unicode="&#x147;" horiz-adv-x="644" 
d="M74 700h75l342 -555v555h79v-700h-75l-342 555v-555h-79v700zM322 825l92 99h67l-126 -161h-66l-126 161h67z" />
    <glyph glyph-name="ncaron" unicode="&#x148;" horiz-adv-x="523" 
d="M463 0h-75v290q0 80 -27 117.5t-89 37.5q-42 0 -78 -24t-55 -66v-355h-75v500h75v-64q53 76 154 76q82 0 126 -54.5t44 -151.5v-306zM262 626l92 99h67l-126 -161h-66l-126 161h67z" />
    <glyph glyph-name="napostrophe" unicode="&#x149;" horiz-adv-x="545" 
d="M484 0h-75v290q0 80 -27 117.5t-89 37.5q-42 0 -78 -24t-55 -66v-355h-75v500h75v-64q53 76 154 76q82 0 126 -54.5t44 -151.5v-306zM100 712v-95q0 -49 -20.5 -74.5t-65.5 -32.5v37q25 5 36 19.5t11 47.5h-47v98h86z" />
    <glyph glyph-name="Eng" unicode="&#x14a;" horiz-adv-x="644" 
d="M491 -57v64l-338 548v-555h-79v700h75l342 -555v555h79v-765q0 -76 -36 -111.5t-111 -35.5h-32v71h32q68 0 68 84z" />
    <glyph glyph-name="eng" unicode="&#x14b;" horiz-adv-x="523" 
d="M388 -57v347q0 80 -27 117.5t-89 37.5q-42 0 -78 -24t-55 -66v-355h-75v500h75v-64q53 76 154 76q82 0 126 -54.5t44 -151.5v-371q0 -76 -36 -111.5t-111 -35.5h-32v67h32q72 0 72 88z" />
    <glyph glyph-name="Omacron" unicode="&#x14c;" horiz-adv-x="594" 
d="M541 436v-172q0 -123 -66.5 -199.5t-177.5 -76.5t-177.5 76.5t-66.5 199.5v172q0 123 66.5 199.5t177.5 76.5t177.5 -76.5t66.5 -199.5zM462 276v148q0 102 -44.5 159.5t-120.5 57.5t-120.5 -57.5t-44.5 -159.5v-148q0 -102 44.5 -159.5t120.5 -57.5t120.5 57.5
t44.5 159.5zM158 814v58h278v-58h-278z" />
    <glyph glyph-name="omacron" unicode="&#x14d;" horiz-adv-x="510" 
d="M48 198v104q0 88 58 149t149 61t149 -61t58 -149v-104q0 -88 -58 -149t-149 -61t-149 61t-58 149zM387 212v76q0 73 -37 115t-95 42t-95 -42t-37 -115v-76q0 -73 37 -115t95 -42t95 42t37 115zM116 615v58h278v-58h-278z" />
    <glyph glyph-name="Obreve" unicode="&#x14e;" horiz-adv-x="594" 
d="M541 436v-172q0 -123 -66.5 -199.5t-177.5 -76.5t-177.5 76.5t-66.5 199.5v172q0 123 66.5 199.5t177.5 76.5t177.5 -76.5t66.5 -199.5zM462 276v148q0 102 -44.5 159.5t-120.5 57.5t-120.5 -57.5t-44.5 -159.5v-148q0 -102 44.5 -159.5t120.5 -57.5t120.5 57.5
t44.5 159.5zM297 767q-122 0 -150 131l62 12q21 -84 88 -84t88 84l62 -12q-28 -131 -150 -131z" />
    <glyph glyph-name="obreve" unicode="&#x14f;" horiz-adv-x="510" 
d="M48 198v104q0 88 58 149t149 61t149 -61t58 -149v-104q0 -88 -58 -149t-149 -61t-149 61t-58 149zM387 212v76q0 73 -37 115t-95 42t-95 -42t-37 -115v-76q0 -73 37 -115t95 -42t95 42t37 115zM255 570q-122 0 -150 131l62 12q21 -84 88 -84t88 84l62 -12
q-28 -131 -150 -131z" />
    <glyph glyph-name="Ohungarumlaut" unicode="&#x150;" horiz-adv-x="594" 
d="M541 264v172q0 123 -66.5 199.5t-177.5 76.5t-177.5 -76.5t-66.5 -199.5v-172q0 -123 66.5 -199.5t177.5 -76.5t177.5 76.5t66.5 199.5zM462 424v-148q0 -102 -44.5 -159.5t-120.5 -57.5t-120.5 57.5t-44.5 159.5v148q0 102 44.5 159.5t120.5 57.5t120.5 -57.5
t44.5 -159.5zM337 924l-96 -161h-62l77 161h81zM480 924l-107 -161h-61l87 161h81z" />
    <glyph glyph-name="ohungarumlaut" unicode="&#x151;" horiz-adv-x="510" 
d="M48 302v-104q0 -88 58 -149t149 -61t149 61t58 149v104q0 88 -58 149t-149 61t-149 -61t-58 -149zM387 288v-76q0 -73 -37 -115t-95 -42t-95 42t-37 115v76q0 73 37 115t95 42t95 -42t37 -115zM291 725l-96 -161h-62l77 161h81zM434 725l-107 -161h-61l87 161h81z" />
    <glyph glyph-name="OE" unicode="&#x152;" horiz-adv-x="898" 
d="M53 264v172q0 123 67 193.5t178 70.5h551v-71h-337v-233h297v-71h-297v-254h337v-71h-551q-111 0 -178 70.5t-67 193.5zM132 424v-148q0 -100 46.5 -152.5t125.5 -52.5h129v558h-129q-79 0 -125.5 -52.5t-46.5 -152.5z" />
    <glyph glyph-name="oe" unicode="&#x153;" horiz-adv-x="849" 
d="M594 -12q-56 0 -100.5 25t-69.5 71q-25 -46 -69 -71t-100 -25q-91 0 -149 61t-58 149v104q0 88 58 149t149 61q56 0 100 -25t69 -71q25 46 69.5 71t100.5 25q91 0 149 -61t58 -149v-80h-339v-10q0 -73 37 -115t95 -42q44 0 75.5 22.5t44.5 62.5l77 -12
q-21 -65 -72 -102.5t-125 -37.5zM387 212v76q0 73 -37 115t-95 42t-95 -42t-37 -115v-76q0 -73 37 -115t95 -42t95 42t37 115zM462 288v-5h264v5q0 73 -37 115t-95 42t-95 -42t-37 -115z" />
    <glyph glyph-name="Racute" unicode="&#x154;" horiz-adv-x="583" 
d="M306 294h-153v-294h-79v700h243q89 0 153.5 -53t64.5 -150q0 -77 -41.5 -126.5t-107.5 -67.5l175 -303h-86zM153 365h152q67 0 109 34t42 98t-42 98t-109 34h-152v-264zM377 924l-112 -161h-62l92 161h82z" />
    <glyph glyph-name="racute" unicode="&#x155;" horiz-adv-x="366" 
d="M349 500v-67q-34 12 -71 12q-43 0 -79.5 -22.5t-59.5 -63.5v-359h-75v500h75v-63q52 75 148 75q35 0 62 -12zM308 725l-112 -161h-62l92 161h82z" />
    <glyph glyph-name="Rcommaaccent" unicode="&#x156;" horiz-adv-x="583" 
d="M306 294h-153v-294h-79v700h243q89 0 153.5 -53t64.5 -150q0 -77 -41.5 -126.5t-107.5 -67.5l175 -303h-86zM153 365h152q67 0 109 34t42 98t-42 98t-109 34h-152v-264zM294 -210h-61l40 156h79z" />
    <glyph glyph-name="rcommaaccent" unicode="&#x157;" horiz-adv-x="366" 
d="M349 500v-67q-34 12 -71 12q-43 0 -79.5 -22.5t-59.5 -63.5v-359h-75v500h75v-63q52 75 148 75q35 0 62 -12zM98 -210h-61l40 156h79z" />
    <glyph glyph-name="Rcaron" unicode="&#x158;" horiz-adv-x="583" 
d="M153 294h153l169 -294h86l-175 303q66 18 107.5 67.5t41.5 126.5q0 97 -64.5 150t-153.5 53h-243v-700h79v294zM305 365h-152v264h152q67 0 109 -34t42 -98t-42 -98t-109 -34zM267 825l92 99h67l-126 -161h-66l-126 161h67z" />
    <glyph glyph-name="rcaron" unicode="&#x159;" horiz-adv-x="366" 
d="M349 500v-67q-34 12 -71 12q-43 0 -79.5 -22.5t-59.5 -63.5v-359h-75v500h75v-63q52 75 148 75q35 0 62 -12zM201 626l92 99h67l-126 -161h-66l-126 161h67z" />
    <glyph glyph-name="Sacute" unicode="&#x15a;" horiz-adv-x="573" 
d="M530 185q0 -87 -59.5 -142t-169.5 -55q-99 0 -167 53t-92 144l81 15q19 -67 65 -104t113 -37q70 0 110 34.5t40 91.5q0 54 -33.5 86t-105.5 45l-58 11q-99 19 -146 66t-47 129q0 77 56.5 133.5t159.5 56.5q93 0 155.5 -49.5t81.5 -134.5l-80 -15q-14 58 -53.5 93
t-103.5 35q-65 0 -101 -34.5t-36 -84.5q0 -101 126 -124l60 -11q204 -37 204 -202zM377 924l-112 -161h-62l92 161h82z" />
    <glyph glyph-name="sacute" unicode="&#x15b;" horiz-adv-x="477" 
d="M57 372q0 63 47 101.5t124 38.5q74 0 124.5 -36.5t70.5 -102.5l-77 -13q-10 40 -40.5 62.5t-76.5 22.5t-71.5 -20t-25.5 -54q0 -65 99 -80l49 -8q82 -13 118 -49.5t36 -97.5q0 -66 -48.5 -107t-131.5 -41q-80 0 -134.5 39t-75.5 112l76 14q15 -48 50.5 -73t83.5 -25
q49 0 77 22.5t28 58.5q0 67 -99 82l-49 8q-83 14 -118.5 50.5t-35.5 95.5zM335 725l-112 -161h-62l92 161h82z" />
    <glyph glyph-name="Scircumflex" unicode="&#x15c;" horiz-adv-x="573" 
d="M530 185q0 -87 -59.5 -142t-169.5 -55q-99 0 -167 53t-92 144l81 15q19 -67 65 -104t113 -37q70 0 110 34.5t40 91.5q0 54 -33.5 86t-105.5 45l-58 11q-99 19 -146 66t-47 129q0 77 56.5 133.5t159.5 56.5q93 0 155.5 -49.5t81.5 -134.5l-80 -15q-14 58 -53.5 93
t-103.5 35q-65 0 -101 -34.5t-36 -84.5q0 -101 126 -124l60 -11q204 -37 204 -202zM373 763l-92 99l-92 -99h-67l126 161h66l126 -161h-67z" />
    <glyph glyph-name="scircumflex" unicode="&#x15d;" horiz-adv-x="477" 
d="M57 372q0 63 47 101.5t124 38.5q74 0 124.5 -36.5t70.5 -102.5l-77 -13q-10 40 -40.5 62.5t-76.5 22.5t-71.5 -20t-25.5 -54q0 -65 99 -80l49 -8q82 -13 118 -49.5t36 -97.5q0 -66 -48.5 -107t-131.5 -41q-80 0 -134.5 39t-75.5 112l76 14q15 -48 50.5 -73t83.5 -25
q49 0 77 22.5t28 58.5q0 67 -99 82l-49 8q-83 14 -118.5 50.5t-35.5 95.5zM323 564l-92 99l-92 -99h-67l126 161h66l126 -161h-67z" />
    <glyph glyph-name="Scedilla" unicode="&#x15e;" horiz-adv-x="573" 
d="M330 -134q0 21 -21 34.5t-62 15.5q-1 2 -2.5 4t-1.5 3l28 67q-88 7 -147.5 59t-81.5 136l81 15q19 -67 65 -104t113 -37q70 0 110 34.5t40 91.5q0 54 -33.5 86t-105.5 45l-58 11q-99 19 -146 66t-47 129q0 77 56.5 133.5t159.5 56.5q93 0 155.5 -49.5t81.5 -134.5
l-80 -15q-14 58 -53.5 93t-103.5 35q-65 0 -101 -34.5t-36 -84.5q0 -101 126 -124l60 -11q204 -37 204 -202q0 -80 -51 -133.5t-146 -61.5l-17 -38q81 -21 81 -90q0 -43 -28 -68.5t-81 -25.5q-61 0 -100 39l35 45q29 -25 61 -25q46 0 46 39z" />
    <glyph glyph-name="scedilla" unicode="&#x15f;" horiz-adv-x="477" 
d="M57 372q0 63 47 101.5t124 38.5q74 0 124.5 -36.5t70.5 -102.5l-77 -13q-10 40 -40.5 62.5t-76.5 22.5t-71.5 -20t-25.5 -54q0 -65 99 -80l49 -8q82 -13 118 -49.5t36 -97.5q0 -60 -39.5 -99.5t-108.5 -46.5l-17 -38q81 -21 81 -90q0 -43 -28 -68.5t-81 -25.5
q-61 0 -100 39l35 45q29 -25 61 -25q46 0 46 39q0 21 -21 34.5t-62 15.5q-1 2 -2.5 4t-1.5 3l28 67q-68 7 -114.5 45t-65.5 104l76 14q15 -48 50.5 -73t83.5 -25q49 0 77 22.5t28 58.5q0 67 -99 82l-49 8q-83 14 -118.5 50.5t-35.5 95.5z" />
    <glyph glyph-name="Scaron" unicode="&#x160;" horiz-adv-x="573" 
d="M530 185q0 -87 -59.5 -142t-169.5 -55q-99 0 -167 53t-92 144l81 15q19 -67 65 -104t113 -37q70 0 110 34.5t40 91.5q0 54 -33.5 86t-105.5 45l-58 11q-99 19 -146 66t-47 129q0 77 56.5 133.5t159.5 56.5q93 0 155.5 -49.5t81.5 -134.5l-80 -15q-14 58 -53.5 93
t-103.5 35q-65 0 -101 -34.5t-36 -84.5q0 -101 126 -124l60 -11q204 -37 204 -202zM281 825l92 99h67l-126 -161h-66l-126 161h67z" />
    <glyph glyph-name="scaron" unicode="&#x161;" horiz-adv-x="477" 
d="M57 372q0 63 47 101.5t124 38.5q74 0 124.5 -36.5t70.5 -102.5l-77 -13q-10 40 -40.5 62.5t-76.5 22.5t-71.5 -20t-25.5 -54q0 -65 99 -80l49 -8q82 -13 118 -49.5t36 -97.5q0 -66 -48.5 -107t-131.5 -41q-80 0 -134.5 39t-75.5 112l76 14q15 -48 50.5 -73t83.5 -25
q49 0 77 22.5t28 58.5q0 67 -99 82l-49 8q-83 14 -118.5 50.5t-35.5 95.5zM231 626l92 99h67l-126 -161h-66l-126 161h67z" />
    <glyph glyph-name="Tcommaaccent" unicode="&#x162;" horiz-adv-x="511" 
d="M280 -134q0 21 -21 34.5t-62 15.5q-1 2 -2.5 4t-1.5 3l33 77h-10v629h-200v71h479v-71h-200v-629h-7l-22 -48q81 -21 81 -90q0 -43 -28 -68.5t-81 -25.5q-61 0 -100 39l35 45q29 -25 61 -25q46 0 46 39z" />
    <glyph glyph-name="tcommaaccent" unicode="&#x163;" horiz-adv-x="340" 
d="M230 -134q0 21 -21 34.5t-62 15.5q-1 2 -2.5 4t-1.5 3l37 85q-82 26 -82 136v289h-77v67h77v142h75v-142h126v-67h-126v-282q0 -84 68 -84h67v-67h-70l-22 -48q81 -21 81 -90q0 -43 -28 -68.5t-81 -25.5q-61 0 -100 39l35 45q29 -25 61 -25q46 0 46 39z" />
    <glyph glyph-name="Tcaron" unicode="&#x164;" horiz-adv-x="511" 
d="M16 700h479v-71h-200v-629h-79v629h-200v71zM255 825l92 99h67l-126 -161h-66l-126 161h67z" />
    <glyph glyph-name="tcaron" unicode="&#x165;" horiz-adv-x="420" 
d="M173 500h126v-67h-126v-282q0 -84 68 -84h67v-67h-68q-142 0 -142 144v289h-77v67h77v142h75v-142zM410 712v-95q0 -49 -20.5 -74.5t-65.5 -32.5v37q25 5 36 19.5t11 47.5h-47v98h86z" />
    <glyph glyph-name="Tbar" unicode="&#x166;" horiz-adv-x="511" 
d="M91 388h125v241h-200v71h479v-71h-200v-241h125v-62h-125v-326h-79v326h-125v62z" />
    <glyph glyph-name="tbar" unicode="&#x167;" horiz-adv-x="340" 
d="M33 299h65v134h-77v67h77v142h75v-142h126v-67h-126v-134h104v-58h-104v-90q0 -84 68 -84h67v-67h-68q-142 0 -142 144v97h-65v58z" />
    <glyph glyph-name="Utilde" unicode="&#x168;" horiz-adv-x="606" 
d="M303 -12q-112 0 -174.5 72t-62.5 195v445h79v-431q0 -104 40.5 -157t117.5 -53t117.5 53t40.5 157v431h79v-445q0 -123 -62.5 -195t-174.5 -72zM368 783q-29 0 -70.5 27t-56.5 27q-28 0 -37 -46l-57 6q13 99 92 99q29 0 70.5 -27t56.5 -27q28 0 37 46l57 -6
q-13 -99 -92 -99z" />
    <glyph glyph-name="utilde" unicode="&#x169;" horiz-adv-x="524" 
d="M60 500h75v-290q0 -80 27 -117.5t89 -37.5q42 0 78 24t55 66v355h75v-500h-75v64q-53 -76 -154 -76q-82 0 -126 54.5t-44 151.5v306zM324 584q-29 0 -70.5 27t-56.5 27q-28 0 -37 -46l-57 6q13 99 92 99q29 0 70.5 -27t56.5 -27q28 0 37 46l57 -6q-13 -99 -92 -99z" />
    <glyph glyph-name="Umacron" unicode="&#x16a;" horiz-adv-x="606" 
d="M303 -12q-112 0 -174.5 72t-62.5 195v445h79v-431q0 -104 40.5 -157t117.5 -53t117.5 53t40.5 157v431h79v-445q0 -123 -62.5 -195t-174.5 -72zM164 814v58h278v-58h-278z" />
    <glyph glyph-name="umacron" unicode="&#x16b;" horiz-adv-x="524" 
d="M60 500h75v-290q0 -80 27 -117.5t89 -37.5q42 0 78 24t55 66v355h75v-500h-75v64q-53 -76 -154 -76q-82 0 -126 54.5t-44 151.5v306zM120 615v58h278v-58h-278z" />
    <glyph glyph-name="Ubreve" unicode="&#x16c;" horiz-adv-x="606" 
d="M303 -12q-112 0 -174.5 72t-62.5 195v445h79v-431q0 -104 40.5 -157t117.5 -53t117.5 53t40.5 157v431h79v-445q0 -123 -62.5 -195t-174.5 -72zM303 767q-122 0 -150 131l62 12q21 -84 88 -84t88 84l62 -12q-28 -131 -150 -131z" />
    <glyph glyph-name="ubreve" unicode="&#x16d;" horiz-adv-x="524" 
d="M60 500h75v-290q0 -80 27 -117.5t89 -37.5q42 0 78 24t55 66v355h75v-500h-75v64q-53 -76 -154 -76q-82 0 -126 54.5t-44 151.5v306zM259 570q-122 0 -150 131l62 12q21 -84 88 -84t88 84l62 -12q-28 -131 -150 -131z" />
    <glyph glyph-name="Uring" unicode="&#x16e;" horiz-adv-x="606" 
d="M303 -12q112 0 174.5 72t62.5 195v445h-79v-431q0 -104 -40.5 -157t-117.5 -53t-117.5 53t-40.5 157v431h-79v-445q0 -123 62.5 -195t174.5 -72zM406 843q0 -46 -30 -73.5t-73 -27.5t-73 27.5t-30 73.5t30 73.5t73 27.5t73 -27.5t30 -73.5zM350 843q0 24 -13 37.5
t-34 13.5t-34 -13.5t-13 -37.5t13 -37.5t34 -13.5t34 13.5t13 37.5z" />
    <glyph glyph-name="uring" unicode="&#x16f;" horiz-adv-x="524" 
d="M60 500h75v-290q0 -80 27 -117.5t89 -37.5q42 0 78 24t55 66v355h75v-500h-75v64q-53 -76 -154 -76q-82 0 -126 54.5t-44 151.5v306zM362 644q0 -46 -30 -73.5t-73 -27.5t-73 27.5t-30 73.5t30 73.5t73 27.5t73 -27.5t30 -73.5zM306 644q0 24 -13 37.5t-34 13.5
t-34 -13.5t-13 -37.5t13 -37.5t34 -13.5t34 13.5t13 37.5z" />
    <glyph glyph-name="Uhungarumlaut" unicode="&#x170;" horiz-adv-x="606" 
d="M303 -12q112 0 174.5 72t62.5 195v445h-79v-431q0 -104 -40.5 -157t-117.5 -53t-117.5 53t-40.5 157v431h-79v-445q0 -123 62.5 -195t174.5 -72zM349 924l-96 -161h-62l77 161h81zM492 924l-107 -161h-61l87 161h81z" />
    <glyph glyph-name="uhungarumlaut" unicode="&#x171;" horiz-adv-x="524" 
d="M60 500h75v-290q0 -80 27 -117.5t89 -37.5q42 0 78 24t55 66v355h75v-500h-75v64q-53 -76 -154 -76q-82 0 -126 54.5t-44 151.5v306zM298 725l-96 -161h-62l77 161h81zM441 725l-107 -161h-61l87 161h81z" />
    <glyph glyph-name="Uogonek" unicode="&#x172;" horiz-adv-x="606" 
d="M298 -101v-5q0 -22 14 -37t37 -15q33 0 56 24l38 -40q-40 -43 -103 -43q-48 0 -78 26t-30 69v7q0 59 57 103q-106 5 -164.5 76.5t-58.5 190.5v445h79v-431q0 -104 40.5 -157t117.5 -53t117.5 53t40.5 157v431h79v-445q0 -106 -47 -175t-133 -86q-62 -46 -62 -95z" />
    <glyph glyph-name="uogonek" unicode="&#x173;" horiz-adv-x="524" 
d="M384 0v64q-53 -76 -154 -76q-82 0 -126 54.5t-44 151.5v306h75v-290q0 -80 27 -117.5t89 -37.5q42 0 78 24t55 66v355h75v-500h-12q-71 -49 -71 -101v-5q0 -22 14 -37t37 -15q34 0 56 24l38 -40q-40 -43 -103 -43q-48 0 -78 26t-30 69v7q0 32 20 63.5t54 51.5z" />
    <glyph glyph-name="Wcircumflex" unicode="&#x174;" horiz-adv-x="912" 
d="M417 700h78l161 -560l154 560h86l-199 -700h-80l-161 564l-161 -564h-80l-199 700h86l154 -560zM548 765l-92 99l-92 -99h-67l126 161h66l126 -161h-67z" />
    <glyph glyph-name="wcircumflex" unicode="&#x175;" horiz-adv-x="778" 
d="M350 500h78l126 -398l135 398h79l-175 -500h-79l-125 395l-125 -395h-79l-175 500h79l135 -398zM481 564l-92 99l-92 -99h-67l126 161h66l126 -161h-67z" />
    <glyph glyph-name="Ycircumflex" unicode="&#x176;" horiz-adv-x="560" 
d="M319 0h-79v318l-224 382h87l177 -304l177 304h87l-225 -382v-318zM372 763l-92 99l-92 -99h-67l126 161h66l126 -161h-67z" />
    <glyph glyph-name="ycircumflex" unicode="&#x177;" horiz-adv-x="480" 
d="M175 -87l36 100l-201 487h80l158 -391l142 391h80l-225 -605q-24 -63 -57 -84.5t-91 -21.5h-32v67h29q60 0 81 57zM335 564l-92 99l-92 -99h-67l126 161h66l126 -161h-67z" />
    <glyph glyph-name="Ydieresis" unicode="&#x178;" horiz-adv-x="560" 
d="M319 0h-79v318l-224 382h87l177 -304l177 304h87l-225 -382v-318zM230 893v-101h-79v101h79zM409 893v-101h-79v101h79z" />
    <glyph glyph-name="Zacute" unicode="&#x179;" horiz-adv-x="512" 
d="M469 700v-63l-335 -566h336v-71h-428v63l335 566h-324v71h416zM370 924l-112 -161h-62l92 161h82z" />
    <glyph glyph-name="zacute" unicode="&#x17a;" horiz-adv-x="474" 
d="M425 500v-60l-290 -373h301v-67h-398v60l290 373h-278v67h375zM352 725l-112 -161h-62l92 161h82z" />
    <glyph glyph-name="Zdotaccent" unicode="&#x17b;" horiz-adv-x="512" 
d="M469 700v-63l-335 -566h336v-71h-428v63l335 566h-324v71h416zM303 897v-108h-86v108h86z" />
    <glyph glyph-name="zdotaccent" unicode="&#x17c;" horiz-adv-x="474" 
d="M425 500v-60l-290 -373h301v-67h-398v60l290 373h-278v67h375zM279 698v-108h-86v108h86z" />
    <glyph glyph-name="Zcaron" unicode="&#x17d;" horiz-adv-x="512" 
d="M469 700v-63l-335 -566h336v-71h-428v63l335 566h-324v71h416zM260 825l92 99h67l-126 -161h-66l-126 161h67z" />
    <glyph glyph-name="zcaron" unicode="&#x17e;" horiz-adv-x="474" 
d="M425 500v-60l-290 -373h301v-67h-398v60l290 373h-278v67h375zM239 626l92 99h67l-126 -161h-66l-126 161h67z" />
    <glyph glyph-name="longs" unicode="&#x17f;" horiz-adv-x="340" 
d="M318 712v-67h-35q-56 0 -75 -24t-19 -88v-533h-75v433h-77v67h77v31q0 104 39 142.5t136 38.5h29z" />
    <glyph glyph-name="uni0191" unicode="&#x191;" horiz-adv-x="525" 
d="M74 700h416v-71h-337v-243h307v-71h-307v-380q0 -76 -36 -111.5t-111 -35.5h-32v71h32q68 0 68 84v757z" />
    <glyph glyph-name="florin" unicode="&#x192;" horiz-adv-x="340" 
d="M-15 -211v67h35q56 0 75 24t19 88v465h-77v67h77v31q0 104 39 142.5t136 38.5h29v-67h-35q-56 0 -75 -24t-19 -88v-33h129v-67h-129v-463q0 -104 -39 -142.5t-136 -38.5h-29z" />
    <glyph glyph-name="Aringacute" unicode="&#x1fa;" horiz-adv-x="570" 
d="M388 761q0 46 -30 73.5t-73 27.5t-73 -27.5t-30 -73.5q0 -65 54 -90l-230 -671h85l56 173h275l57 -173h85l-230 671q54 25 54 90zM170 244l115 350l114 -350h-229zM332 761q0 -24 -13 -37.5t-34 -13.5t-34 13.5t-13 37.5t13 37.5t34 13.5t34 -13.5t13 -37.5zM298 995h79
l-73 -108h-59z" />
    <glyph glyph-name="aringacute" unicode="&#x1fb;" horiz-adv-x="505" 
d="M265 878h79l-73 -108h-59zM222 55q100 0 147 81v90h-142q-52 0 -81 -24.5t-29 -62.5v-5q0 -35 27.5 -57t77.5 -22zM253 445q-79 0 -120 -75l-74 20q29 56 80 89t117 33q87 0 137.5 -52.5t50.5 -138.5v-321h-75v61q-51 -73 -158 -73q-77 0 -123 39.5t-46 99.5v13
q0 63 50.5 105t157.5 42h119v25q0 66 -30.5 99.5t-85.5 33.5zM355 644q0 -46 -30 -73.5t-73 -27.5t-73 27.5t-30 73.5t30 73.5t73 27.5t73 -27.5t30 -73.5zM299 644q0 24 -13 37.5t-34 13.5t-34 -13.5t-13 -37.5t13 -37.5t34 -13.5t34 13.5t13 37.5z" />
    <glyph glyph-name="AEacute" unicode="&#x1fc;" horiz-adv-x="849" 
d="M800 0h-416v173h-223l-84 -173h-87l347 700h463v-71h-337v-233h297v-71h-297v-254h337v-71zM384 629l-188 -385h188v385zM638 924l-112 -161h-62l92 161h82z" />
    <glyph glyph-name="aeacute" unicode="&#x1fd;" horiz-adv-x="832" 
d="M577 -12q-115 0 -173 91q-70 -91 -193 -91q-77 0 -123 39.5t-46 99.5v13q0 63 50.5 105t157.5 42h119v25q0 66 -30.5 99.5t-85.5 33.5q-79 0 -120 -75l-74 20q29 56 80 89t117 33q111 0 157 -88q56 88 164 88q91 0 149 -61t58 -149v-80h-339v-10q0 -73 37 -115t95 -42
q44 0 75.5 22.5t44.5 62.5l77 -12q-21 -65 -72 -102.5t-125 -37.5zM222 55q100 0 147 81v90h-142q-52 0 -81 -24.5t-29 -62.5v-5q0 -35 27.5 -57t77.5 -22zM445 288v-5h264v5q0 73 -37 115t-95 42t-95 -42t-37 -115zM526 725l-112 -161h-62l92 161h82z" />
    <glyph glyph-name="Oslashacute" unicode="&#x1fe;" horiz-adv-x="594" 
d="M436 670l33 62h65l-55 -103q62 -76 62 -193v-172q0 -123 -66.5 -199.5t-177.5 -76.5q-80 0 -139 42l-33 -62h-65l55 102q-62 76 -62 194v172q0 123 66.5 199.5t177.5 76.5q80 0 139 -42zM297 641q-76 0 -120.5 -57.5t-44.5 -159.5v-148q0 -74 25 -127l243 453
q-42 39 -103 39zM462 276v148q0 74 -25 127l-243 -454q41 -38 103 -38q76 0 120.5 57.5t44.5 159.5zM409 924l-112 -161h-62l92 161h82z" />
    <glyph glyph-name="oslashacute" unicode="&#x1ff;" horiz-adv-x="510" 
d="M353 489l26 49h61l-43 -80q65 -62 65 -156v-104q0 -88 -58 -149t-149 -61q-54 0 -98 22l-26 -48h-61l43 80q-65 60 -65 156v104q0 88 58 149t149 61q54 0 98 -23zM255 445q-58 0 -95 -42t-37 -115v-76q0 -60 27 -101l170 317q-29 17 -65 17zM387 212v76q0 60 -27 101
l-170 -317q27 -17 65 -17q58 0 95 42t37 115zM366 725l-112 -161h-62l92 161h82z" />
    <glyph glyph-name="Scommaaccent" unicode="&#x218;" horiz-adv-x="573" 
d="M530 185q0 -87 -59.5 -142t-169.5 -55q-99 0 -167 53t-92 144l81 15q19 -67 65 -104t113 -37q70 0 110 34.5t40 91.5q0 54 -33.5 86t-105.5 45l-58 11q-99 19 -146 66t-47 129q0 77 56.5 133.5t159.5 56.5q93 0 155.5 -49.5t81.5 -134.5l-80 -15q-14 58 -53.5 93
t-103.5 35q-65 0 -101 -34.5t-36 -84.5q0 -101 126 -124l60 -11q204 -37 204 -202zM298 -210h-61l40 156h79z" />
    <glyph glyph-name="scommaaccent" unicode="&#x219;" horiz-adv-x="477" 
d="M57 372q0 63 47 101.5t124 38.5q74 0 124.5 -36.5t70.5 -102.5l-77 -13q-10 40 -40.5 62.5t-76.5 22.5t-71.5 -20t-25.5 -54q0 -65 99 -80l49 -8q82 -13 118 -49.5t36 -97.5q0 -66 -48.5 -107t-131.5 -41q-80 0 -134.5 39t-75.5 112l76 14q15 -48 50.5 -73t83.5 -25
q49 0 77 22.5t28 58.5q0 67 -99 82l-49 8q-83 14 -118.5 50.5t-35.5 95.5zM248 -210h-61l40 156h79z" />
    <glyph glyph-name="uni021A" unicode="&#x21a;" horiz-adv-x="511" 
d="M16 700h479v-71h-200v-629h-79v629h-200v71zM246 -210h-61l40 156h79z" />
    <glyph glyph-name="uni021B" unicode="&#x21b;" horiz-adv-x="340" 
d="M173 500h126v-67h-126v-282q0 -84 68 -84h67v-67h-68q-142 0 -142 144v289h-77v67h77v142h75v-142zM208 -210h-61l40 156h79z" />
    <glyph glyph-name="dotlessj" unicode="&#x237;" horiz-adv-x="233" 
d="M84 -57v557h75v-565q0 -76 -36 -111.5t-111 -35.5h-32v67h32q72 0 72 88z" />
    <glyph glyph-name="apostrophe" unicode="&#x2bc;" horiz-adv-x="372" 
d="M229 730v-95q0 -49 -20.5 -74.5t-65.5 -32.5v37q25 5 36 19.5t11 47.5h-47v98h86z" />
    <glyph glyph-name="circumflex" unicode="&#x2c6;" horiz-adv-x="372" 
d="M278 569l-92 99l-92 -99h-67l126 161h66l126 -161h-67z" />
    <glyph glyph-name="caron" unicode="&#x2c7;" horiz-adv-x="372" 
d="M186 631l92 99h67l-126 -161h-66l-126 161h67z" />
    <glyph glyph-name="uni02C9" unicode="&#x2c9;" horiz-adv-x="372" 
d="M47 619v58h278v-58h-278z" />
    <glyph glyph-name="breve" unicode="&#x2d8;" horiz-adv-x="372" 
d="M186 575q-122 0 -150 131l62 12q21 -84 88 -84t88 84l62 -12q-28 -131 -150 -131z" />
    <glyph glyph-name="dotaccent" unicode="&#x2d9;" horiz-adv-x="372" 
d="M229 703v-108h-86v108h86z" />
    <glyph glyph-name="ring" unicode="&#x2da;" horiz-adv-x="372" 
d="M289 649q0 -46 -30 -73.5t-73 -27.5t-73 27.5t-30 73.5t30 73.5t73 27.5t73 -27.5t30 -73.5zM233 649q0 24 -13 37.5t-34 13.5t-34 -13.5t-13 -37.5t13 -37.5t34 -13.5t34 13.5t13 37.5z" />
    <glyph glyph-name="ogonek" unicode="&#x2db;" horiz-adv-x="372" 
d="M154 0h63q-71 -49 -71 -101v-5q0 -22 14 -37t37 -15q33 0 56 24l38 -40q-40 -43 -103 -43q-48 0 -78 26t-30 69v7q0 32 20 63.5t54 51.5z" />
    <glyph glyph-name="tilde" unicode="&#x2dc;" horiz-adv-x="372" 
d="M250 590q-29 0 -70.5 27t-56.5 27q-28 0 -37 -46l-57 6q13 99 92 99q29 0 70.5 -27t56.5 -27q28 0 37 46l57 -6q-13 -99 -92 -99z" />
    <glyph glyph-name="hungarumlaut" unicode="&#x2dd;" horiz-adv-x="372" 
d="M193 730l-96 -161h-62l77 161h81zM336 730l-107 -161h-61l87 161h81z" />
    <glyph glyph-name="gravecomb" unicode="&#x300;" horiz-adv-x="0" 
d="M-195 569l-112 161h82l92 -161h-62z" />
    <glyph glyph-name="acutecomb" unicode="&#x301;" horiz-adv-x="0" 
d="M-133 730l-112 -161h-62l92 161h82z" />
    <glyph glyph-name="uni0302" unicode="&#x302;" horiz-adv-x="0" 
d="M-128 569l-92 99l-92 -99h-67l126 161h66l126 -161h-67z" />
    <glyph glyph-name="tildecomb" unicode="&#x303;" horiz-adv-x="0" 
d="M-156 590q-29 0 -70.5 27t-56.5 27q-28 0 -37 -46l-57 6q13 99 92 99q29 0 70.5 -27t56.5 -27q28 0 37 46l57 -6q-13 -99 -92 -99z" />
    <glyph glyph-name="uni0304" unicode="&#x304;" horiz-adv-x="0" 
d="M-359 620v58h278v-58h-278z" />
    <glyph glyph-name="uni0306" unicode="&#x306;" horiz-adv-x="0" 
d="M-220 575q-122 0 -150 131l62 12q21 -84 88 -84t88 84l62 -12q-28 -131 -150 -131z" />
    <glyph glyph-name="uni0307" unicode="&#x307;" horiz-adv-x="0" 
d="M-177 703v-108h-86v108h86z" />
    <glyph glyph-name="uni0308" unicode="&#x308;" horiz-adv-x="0" 
d="M-270 699v-101h-79v101h79zM-91 699v-101h-79v101h79z" />
    <glyph glyph-name="uni030A" unicode="&#x30a;" horiz-adv-x="0" 
d="M-117 649q0 -46 -30 -73.5t-73 -27.5t-73 27.5t-30 73.5t30 73.5t73 27.5t73 -27.5t30 -73.5zM-173 649q0 24 -13 37.5t-34 13.5t-34 -13.5t-13 -37.5t13 -37.5t34 -13.5t34 13.5t13 37.5z" />
    <glyph glyph-name="uni030C" unicode="&#x30c;" horiz-adv-x="0" 
d="M-220 631l92 99h67l-126 -161h-66l-126 161h67z" />
    <glyph glyph-name="uni0327" unicode="&#x327;" horiz-adv-x="0" 
d="M-183 -134q0 21 -21 34.5t-62 15.5q-1 2 -2.5 4t-1.5 3l33 77h62l-22 -48q81 -21 81 -90q0 -43 -28 -68.5t-81 -25.5q-61 0 -100 39l35 45q29 -25 61 -25q46 0 46 39z" />
    <glyph glyph-name="uni03A9" unicode="&#x3a9;" horiz-adv-x="602" 
d="M301 712q110 0 177.5 -76.5t67.5 -199.5v-169q0 -138 -87 -196h81v-71h-197v63q60 21 92 75.5t32 136.5v149q0 102 -45 159.5t-121 57.5t-121 -57.5t-45 -159.5v-149q0 -82 32 -136.5t92 -75.5v-63h-197v71h81q-87 58 -87 196v169q0 123 67.5 199.5t177.5 76.5z" />
    <glyph glyph-name="uni0400" unicode="&#x400;" horiz-adv-x="539" 
d="M490 0h-416v700h416v-71h-337v-233h297v-71h-297v-254h337v-71zM281 763l-112 161h82l92 -161h-62z" />
    <glyph glyph-name="afii10023" unicode="&#x401;" horiz-adv-x="539" 
d="M490 0h-416v700h416v-71h-337v-233h297v-71h-297v-254h337v-71zM229 893v-101h-79v101h79zM408 893v-101h-79v101h79z" />
    <glyph glyph-name="afii10051" unicode="&#x402;" horiz-adv-x="696" 
d="M16 700h479v-71h-200v-226q78 59 169 59q87 0 133 -53.5t46 -150.5v-260q0 -148 -153 -148h-26v71h28q37 0 54.5 21t17.5 66v230q0 79 -27 116t-93 37q-81 0 -149 -57v-334h-79v629h-200v71z" />
    <glyph glyph-name="afii10052" unicode="&#x403;" horiz-adv-x="525" 
d="M514 700v-71h-361v-629h-79v700h440zM403 924l-112 -161h-62l92 161h82z" />
    <glyph glyph-name="afii10053" unicode="&#x404;" horiz-adv-x="583" 
d="M132 386h220v-71h-220v-39q0 -102 44.5 -159.5t120.5 -57.5q65 0 108 40.5t56 117.5l78 -13q-14 -100 -79 -158t-163 -58q-111 0 -177.5 76.5t-66.5 199.5v172q0 123 66.5 199.5t177.5 76.5q98 0 163 -58.5t79 -158.5l-78 -13q-13 77 -56 118t-108 41q-76 0 -120.5 -57.5
t-44.5 -159.5v-38z" />
    <glyph glyph-name="afii10054" unicode="&#x405;" horiz-adv-x="573" 
d="M530 185q0 -87 -59.5 -142t-169.5 -55q-99 0 -167 53t-92 144l81 15q19 -67 65 -104t113 -37q70 0 110 34.5t40 91.5q0 54 -33.5 86t-105.5 45l-58 11q-99 19 -146 66t-47 129q0 77 56.5 133.5t159.5 56.5q93 0 155.5 -49.5t81.5 -134.5l-80 -15q-14 58 -53.5 93
t-103.5 35q-65 0 -101 -34.5t-36 -84.5q0 -101 126 -124l60 -11q204 -37 204 -202z" />
    <glyph glyph-name="afii10055" unicode="&#x406;" horiz-adv-x="227" 
d="M153 700v-700h-79v700h79z" />
    <glyph glyph-name="afii10056" unicode="&#x407;" horiz-adv-x="227" 
d="M153 700v-700h-79v700h79zM63 893v-101h-79v101h79zM242 893v-101h-79v101h79z" />
    <glyph glyph-name="afii10057" unicode="&#x408;" horiz-adv-x="504" 
d="M361 225v475h79v-487q0 -110 -57 -167.5t-153 -57.5q-78 0 -132.5 43.5t-75.5 126.5l79 13q33 -112 129 -112q59 0 95 39t36 127z" />
    <glyph glyph-name="afii10058" unicode="&#x409;" horiz-adv-x="985" 
d="M949 197q0 -94 -61 -145.5t-166 -51.5h-226v628h-289v-493q0 -76 -36 -111.5t-111 -35.5h-40v71h40q68 0 68 84v557h447v-306h147q105 0 166 -51.5t61 -145.5zM870 197q0 126 -156 126h-139v-252h139q156 0 156 126z" />
    <glyph glyph-name="afii10059" unicode="&#x40a;" horiz-adv-x="951" 
d="M915 197q0 -94 -61 -145.5t-166 -51.5h-226v324h-309v-324h-79v700h79v-305h309v305h79v-306h147q105 0 166 -51.5t61 -145.5zM836 197q0 126 -156 126h-139v-252h139q156 0 156 126z" />
    <glyph glyph-name="afii10060" unicode="&#x40b;" horiz-adv-x="696" 
d="M16 700h479v-71h-200v-226q78 59 169 59q87 0 133 -53.5t46 -150.5v-258h-79v238q0 79 -27 116t-93 37q-81 0 -149 -57v-334h-79v629h-200v71z" />
    <glyph glyph-name="afii10061" unicode="&#x40c;" horiz-adv-x="576" 
d="M483 0l-209 342l-121 -78v-264h-79v700h79v-346l114 73q99 63 131.5 121.5t32.5 144.5v7h78v-7q0 -104 -37 -175t-136 -136l236 -382h-89zM397 924l-112 -161h-62l92 161h82z" />
    <glyph glyph-name="uni040D" unicode="&#x40d;" horiz-adv-x="644" 
d="M74 0h75l342 555v-555h79v700h-75l-342 -555v555h-79v-700zM327 763l-112 161h82l92 -161h-62z" />
    <glyph glyph-name="afii10062" unicode="&#x40e;" horiz-adv-x="535" 
d="M94 0v71h35q26 0 42 11.5t28 42.5l40 96l-216 479h83l170 -384l156 384h83l-231 -567q-32 -78 -63 -105.5t-86 -27.5h-41zM269 767q-122 0 -150 131l62 12q21 -84 88 -84t88 84l62 -12q-28 -131 -150 -131z" />
    <glyph glyph-name="afii10145" unicode="&#x40f;" horiz-adv-x="615" 
d="M462 71v629h79v-700h-194v-120h-79v120h-194v700h79v-629h309z" />
    <glyph glyph-name="afii10017" unicode="&#x410;" horiz-adv-x="570" 
d="M246 700h78l240 -700h-85l-57 173h-275l-56 -173h-85zM285 594l-115 -350h229z" />
    <glyph glyph-name="afii10018" unicode="&#x411;" horiz-adv-x="566" 
d="M153 629v-235h147q105 0 166 -51.5t61 -145.5t-61 -145.5t-166 -51.5h-226v700h385v-71h-306zM448 197q0 126 -156 126h-139v-252h139q156 0 156 126z" />
    <glyph glyph-name="afii10019" unicode="&#x412;" horiz-adv-x="577" 
d="M319 0h-245v700h222q91 0 154 -47t63 -141q0 -112 -97 -148q54 -17 86 -60t32 -107q0 -97 -61 -147t-154 -50zM455 198q0 62 -39.5 94.5t-107.5 32.5h-155v-254h153q149 0 149 127zM153 396h137q68 0 106 29t38 87q0 117 -151 117h-130v-233z" />
    <glyph glyph-name="afii10020" unicode="&#x413;" horiz-adv-x="525" 
d="M514 700v-71h-361v-629h-79v700h440z" />
    <glyph glyph-name="afii10021" unicode="&#x414;" horiz-adv-x="599" 
d="M491 0h-396v-120h-79v191h58q52 168 52 357v272h378v-629h66v-191h-79v120zM158 71h267v558h-220v-207q0 -187 -47 -351z" />
    <glyph glyph-name="afii10022" unicode="&#x415;" horiz-adv-x="539" 
d="M490 0h-416v700h416v-71h-337v-233h297v-71h-297v-254h337v-71z" />
    <glyph glyph-name="afii10024" unicode="&#x416;" horiz-adv-x="817" 
d="M369 0v270l-109 75l-166 -345h-85l189 388q-79 58 -107 122t-28 183v7h79v-7q0 -111 25.5 -162t114.5 -112l87 -60v341h79v-341l87 60q89 61 114.5 112t25.5 162v7h79v-7q0 -119 -28 -183t-107 -122l189 -388h-85l-166 345l-109 -75v-270h-79z" />
    <glyph glyph-name="afii10025" unicode="&#x417;" horiz-adv-x="544" 
d="M283 59q68 0 106 36t38 94q0 70 -45.5 106t-123.5 36h-57v71h57q71 0 108.5 31t37.5 91q0 52 -33 84.5t-90 32.5q-114 0 -148 -121l-77 14q23 86 80.5 132t144.5 46q91 0 146.5 -53t55.5 -134q0 -116 -104 -158q59 -20 93 -65.5t34 -112.5q0 -88 -58 -144.5t-165 -56.5
q-95 0 -159.5 51t-86.5 146l78 14q17 -65 60.5 -102.5t107.5 -37.5z" />
    <glyph glyph-name="afii10026" unicode="&#x418;" horiz-adv-x="644" 
d="M149 0h-75v700h79v-555l342 555h75v-700h-79v555z" />
    <glyph glyph-name="afii10027" unicode="&#x419;" horiz-adv-x="644" 
d="M149 0h-75v700h79v-555l342 555h75v-700h-79v555zM322 767q-122 0 -150 131l62 12q21 -84 88 -84t88 84l62 -12q-28 -131 -150 -131z" />
    <glyph glyph-name="afii10028" unicode="&#x41a;" horiz-adv-x="576" 
d="M483 0l-209 342l-121 -78v-264h-79v700h79v-346l114 73q99 63 131.5 121.5t32.5 144.5v7h78v-7q0 -104 -37 -175t-136 -136l236 -382h-89z" />
    <glyph glyph-name="afii10029" unicode="&#x41b;" horiz-adv-x="649" 
d="M207 628v-493q0 -76 -36 -111.5t-111 -35.5h-40v71h40q68 0 68 84v557h447v-700h-79v628h-289z" />
    <glyph glyph-name="afii10030" unicode="&#x41c;" horiz-adv-x="752" 
d="M409 192h-66l-190 345v-537h-79v700h70l232 -421l232 421h70v-700h-79v537z" />
    <glyph glyph-name="afii10031" unicode="&#x41d;" horiz-adv-x="615" 
d="M462 0v324h-309v-324h-79v700h79v-305h309v305h79v-700h-79z" />
    <glyph glyph-name="afii10032" unicode="&#x41e;" horiz-adv-x="594" 
d="M541 436v-172q0 -123 -66.5 -199.5t-177.5 -76.5t-177.5 76.5t-66.5 199.5v172q0 123 66.5 199.5t177.5 76.5t177.5 -76.5t66.5 -199.5zM462 276v148q0 102 -44.5 159.5t-120.5 57.5t-120.5 -57.5t-44.5 -159.5v-148q0 -102 44.5 -159.5t120.5 -57.5t120.5 57.5
t44.5 159.5z" />
    <glyph glyph-name="afii10033" unicode="&#x41f;" horiz-adv-x="615" 
d="M462 0v629h-309v-629h-79v700h467v-700h-79z" />
    <glyph glyph-name="afii10034" unicode="&#x420;" horiz-adv-x="578" 
d="M317 284h-164v-284h-79v700h243q89 0 153.5 -54t64.5 -154t-64.5 -154t-153.5 -54zM456 492q0 67 -42 102t-109 35h-152v-274h152q67 0 109 35t42 102z" />
    <glyph glyph-name="afii10035" unicode="&#x421;" horiz-adv-x="583" 
d="M297 641q-76 0 -120.5 -57.5t-44.5 -159.5v-148q0 -102 44.5 -159.5t120.5 -57.5q65 0 108 40.5t56 117.5l78 -13q-14 -100 -79 -158t-163 -58q-111 0 -177.5 76.5t-66.5 199.5v172q0 123 66.5 199.5t177.5 76.5q98 0 163 -58.5t79 -158.5l-78 -13q-13 77 -56 118
t-108 41z" />
    <glyph glyph-name="afii10036" unicode="&#x422;" horiz-adv-x="511" 
d="M16 700h479v-71h-200v-629h-79v629h-200v71z" />
    <glyph glyph-name="afii10037" unicode="&#x423;" horiz-adv-x="535" 
d="M94 0v71h35q26 0 42 11.5t28 42.5l40 96l-216 479h83l170 -384l156 384h83l-231 -567q-32 -78 -63 -105.5t-86 -27.5h-41z" />
    <glyph glyph-name="afii10038" unicode="&#x424;" horiz-adv-x="747" 
d="M307 165h27v370h-27q-82 0 -131 -46t-49 -129v-20q0 -83 49 -129t131 -46zM413 165h27q82 0 131 46t49 129v20q0 83 -49 129t-131 46h-27v-370zM413 0h-79v94h-27q-115 0 -187 65t-72 168v46q0 103 72 168t187 65h27v94h79v-94h27q115 0 187 -65t72 -168v-46
q0 -103 -72 -168t-187 -65h-27v-94z" />
    <glyph glyph-name="afii10039" unicode="&#x425;" horiz-adv-x="591" 
d="M245 363l-208 337h89l169 -274l170 274h89l-208 -337l224 -363h-88l-187 300l-186 -300h-88z" />
    <glyph glyph-name="afii10040" unicode="&#x426;" horiz-adv-x="636" 
d="M153 700v-629h309v629h79v-629h66v-191h-79v120h-454v700h79z" />
    <glyph glyph-name="afii10041" unicode="&#x427;" horiz-adv-x="583" 
d="M509 0h-79v294q-75 -56 -182 -56q-91 0 -140 51t-49 152v259h79v-239q0 -81 30 -116.5t98 -35.5q99 0 164 57v334h79v-700z" />
    <glyph glyph-name="afii10042" unicode="&#x428;" horiz-adv-x="953" 
d="M800 71v629h79v-700h-805v700h79v-629h284v629h79v-629h284z" />
    <glyph glyph-name="afii10043" unicode="&#x429;" horiz-adv-x="974" 
d="M800 71v629h79v-629h66v-191h-79v120h-792v700h79v-629h284v629h79v-629h284z" />
    <glyph glyph-name="afii10044" unicode="&#x42a;" horiz-adv-x="681" 
d="M645 197q0 -94 -61 -145.5t-166 -51.5h-226v629h-176v71h255v-306h147q105 0 166 -51.5t61 -145.5zM566 197q0 126 -156 126h-139v-252h139q156 0 156 126z" />
    <glyph glyph-name="afii10045" unicode="&#x42b;" horiz-adv-x="766" 
d="M692 700v-700h-79v700h79zM448 197q0 126 -156 126h-139v-252h139q156 0 156 126zM527 197q0 -94 -61 -145.5t-166 -51.5h-226v700h79v-306h147q105 0 166 -51.5t61 -145.5z" />
    <glyph glyph-name="afii10046" unicode="&#x42c;" horiz-adv-x="563" 
d="M448 197q0 126 -156 126h-139v-252h139q156 0 156 126zM527 197q0 -94 -61 -145.5t-166 -51.5h-226v700h79v-306h147q105 0 166 -51.5t61 -145.5z" />
    <glyph glyph-name="afii10047" unicode="&#x42d;" horiz-adv-x="583" 
d="M231 386h220v38q0 102 -44.5 159.5t-120.5 57.5q-65 0 -108 -41t-56 -118l-78 13q14 100 79 158.5t163 58.5q111 0 177.5 -76.5t66.5 -199.5v-172q0 -123 -66.5 -199.5t-177.5 -76.5q-98 0 -163 58t-79 158l78 13q13 -77 56 -117.5t108 -40.5q76 0 120.5 57.5t44.5 159.5
v39h-220v71z" />
    <glyph glyph-name="afii10048" unicode="&#x42e;" horiz-adv-x="773" 
d="M720 436v-172q0 -123 -66.5 -199.5t-177.5 -76.5t-177.5 76.5t-66.5 199.5v50h-79v-314h-79v700h79v-315h79v51q0 123 66.5 199.5t177.5 76.5t177.5 -76.5t66.5 -199.5zM641 276v148q0 102 -44.5 159.5t-120.5 57.5t-120.5 -57.5t-44.5 -159.5v-148q0 -102 44.5 -159.5
t120.5 -57.5t120.5 57.5t44.5 159.5z" />
    <glyph glyph-name="afii10049" unicode="&#x42f;" horiz-adv-x="580" 
d="M427 294h-153l-169 -294h-86l175 303q-66 18 -107.5 67.5t-41.5 126.5q0 97 64.5 150t153.5 53h243v-700h-79v294zM275 365h152v264h-152q-67 0 -109 -34t-42 -98t42 -98t109 -34z" />
    <glyph glyph-name="afii10065" unicode="&#x430;" horiz-adv-x="505" 
d="M222 55q100 0 147 81v90h-142q-52 0 -81 -24.5t-29 -62.5v-5q0 -35 27.5 -57t77.5 -22zM253 445q-79 0 -120 -75l-74 20q29 56 80 89t117 33q87 0 137.5 -52.5t50.5 -138.5v-321h-75v61q-51 -73 -158 -73q-77 0 -123 39.5t-46 99.5v13q0 63 50.5 105t157.5 42h119v25
q0 66 -30.5 99.5t-85.5 33.5z" />
    <glyph glyph-name="afii10066" unicode="&#x431;" horiz-adv-x="503" 
d="M131 364v-154q0 -76 32.5 -115.5t92.5 -39.5q59 0 91.5 39.5t32.5 115.5v78q0 157 -125 157q-83 0 -124 -81zM131 471v-26q45 67 142 67q86 0 134 -58t48 -152v-107q0 -93 -51 -150t-148 -57q-98 0 -149 57t-51 150v264q0 110 38.5 156.5t135.5 65.5l160 31l16 -64
l-171 -31q-60 -11 -82 -42t-22 -104z" />
    <glyph glyph-name="afii10067" unicode="&#x432;" horiz-adv-x="467" 
d="M264 0h-200v500h194q77 0 118 -37t41 -95q0 -77 -66 -107q80 -28 80 -119q0 -66 -43 -104t-124 -38zM139 292h111q92 0 92 70q0 71 -92 71h-111v-141zM356 146q0 79 -102 79h-115v-158h112q105 0 105 79z" />
    <glyph glyph-name="afii10068" unicode="&#x433;" horiz-adv-x="418" 
d="M396 500v-67h-257v-433h-75v500h332z" />
    <glyph glyph-name="afii10069" unicode="&#x434;" horiz-adv-x="487" 
d="M468 67v-177h-75v110h-308v-110h-75v177h56q34 114 34 261v172h308v-433h60zM143 67h190v366h-158v-113q0 -138 -32 -253z" />
    <glyph glyph-name="afii10070" unicode="&#x435;" horiz-adv-x="510" 
d="M255 -12q-91 0 -149 61t-58 149v104q0 88 58 149t149 61t149 -61t58 -149v-80h-339v-10q0 -73 37 -115t95 -42q44 0 75.5 22.5t44.5 62.5l77 -12q-21 -65 -72 -102.5t-125 -37.5zM123 288v-5h264v5q0 73 -37 115t-95 42t-95 -42t-37 -115z" />
    <glyph glyph-name="afii10072" unicode="&#x436;" horiz-adv-x="661" 
d="M293 500h75v-248l73 48q56 37 74 76t18 117v7h75v-8q0 -87 -19 -135.5t-74 -90.5l141 -266h-81l-119 227l-88 -58v-169h-75v169l-88 58l-119 -227h-81l141 266q-55 42 -74 90.5t-19 135.5v8h75v-7q0 -78 18 -117t74 -76l73 -48v248z" />
    <glyph glyph-name="afii10073" unicode="&#x437;" horiz-adv-x="445" 
d="M233 55q46 0 74 22.5t28 59.5q0 41 -30.5 65t-88.5 24h-52v67h52q49 0 75 20t26 56q0 35 -24.5 55.5t-66.5 20.5q-78 0 -100 -77l-75 13q18 62 64.5 96.5t110.5 34.5q77 0 121.5 -40t44.5 -103q0 -83 -76 -110q94 -32 94 -123q0 -64 -47.5 -106t-128.5 -42
q-69 0 -123 36.5t-76 106.5l75 14q31 -90 123 -90z" />
    <glyph glyph-name="afii10074" unicode="&#x438;" horiz-adv-x="512" 
d="M373 370l-240 -370h-69v500h75v-370l240 370h69v-500h-75v370z" />
    <glyph glyph-name="afii10075" unicode="&#x439;" horiz-adv-x="512" 
d="M373 370l-240 -370h-69v500h75v-370l240 370h69v-500h-75v370zM256 570q-122 0 -150 131l62 12q21 -84 88 -84t88 84l62 -12q-28 -131 -150 -131z" />
    <glyph glyph-name="afii10076" unicode="&#x43a;" horiz-adv-x="472" 
d="M302 282l172 -282h-84l-147 243l-104 -67v-176h-75v500h75v-240l112 73q52 34 74.5 71t22.5 89v7h75v-8q0 -73 -27.5 -120t-93.5 -90z" />
    <glyph glyph-name="afii10077" unicode="&#x43b;" horiz-adv-x="545" 
d="M185 433v-298q0 -76 -35.5 -111.5t-108.5 -35.5h-25v67h25q69 0 69 88v357h371v-500h-75v433h-221z" />
    <glyph glyph-name="afii10078" unicode="&#x43c;" horiz-adv-x="612" 
d="M64 500h71l171 -280l171 280h71v-500h-76v369l-146 -238h-40l-146 238v-369h-76v500z" />
    <glyph glyph-name="afii10079" unicode="&#x43d;" horiz-adv-x="503" 
d="M439 500v-500h-75v223h-225v-223h-75v500h75v-210h225v210h75z" />
    <glyph glyph-name="afii10080" unicode="&#x43e;" horiz-adv-x="510" 
d="M48 198v104q0 88 58 149t149 61t149 -61t58 -149v-104q0 -88 -58 -149t-149 -61t-149 61t-58 149zM387 212v76q0 73 -37 115t-95 42t-95 -42t-37 -115v-76q0 -73 37 -115t95 -42t95 42t37 115z" />
    <glyph glyph-name="afii10081" unicode="&#x43f;" horiz-adv-x="507" 
d="M443 500v-500h-75v433h-229v-433h-75v500h379z" />
    <glyph glyph-name="afii10082" unicode="&#x440;" horiz-adv-x="511" 
d="M139 55v-273h-75v718h75v-55q45 67 142 67q86 0 134 -58t48 -152v-104q0 -94 -48 -152t-134 -58q-97 0 -142 67zM388 212v76q0 157 -127 157q-81 0 -122 -81v-228q41 -81 122 -81q127 0 127 157z" />
    <glyph glyph-name="afii10083" unicode="&#x441;" horiz-adv-x="491" 
d="M48 198v104q0 88 58 149t149 61q77 0 129 -43.5t69 -113.5l-75 -13q-11 49 -43.5 76t-79.5 27q-58 0 -95 -42t-37 -115v-76q0 -73 37 -115t95 -42q47 0 79.5 27t43.5 76l75 -13q-17 -70 -69 -113.5t-129 -43.5q-91 0 -149 61t-58 149z" />
    <glyph glyph-name="afii10084" unicode="&#x442;" horiz-adv-x="429" 
d="M16 500h397v-67h-161v-433h-75v433h-161v67z" />
    <glyph glyph-name="afii10085" unicode="&#x443;" horiz-adv-x="480" 
d="M175 -87l36 100l-201 487h80l158 -391l142 391h80l-225 -605q-24 -63 -57 -84.5t-91 -21.5h-32v67h29q60 0 81 57z" />
    <glyph glyph-name="afii10086" unicode="&#x444;" horiz-adv-x="819" 
d="M48 198v104q0 94 48 152t134 58q97 0 142 -67v267h75v-267q45 67 142 67q86 0 134 -58t48 -152v-104q0 -94 -48 -152t-134 -58q-97 0 -142 67v-273h-75v273q-45 -67 -142 -67q-86 0 -134 58t-48 152zM123 288v-76q0 -157 127 -157q82 0 122 81v228q-40 81 -122 81
q-127 0 -127 -157zM696 212v76q0 157 -127 157q-81 0 -122 -81v-228q41 -81 122 -81q127 0 127 157z" />
    <glyph glyph-name="afii10087" unicode="&#x445;" horiz-adv-x="459" 
d="M96 0h-86l172 259l-160 241h86l121 -185l122 185h86l-161 -241l173 -259h-86l-134 203z" />
    <glyph glyph-name="afii10088" unicode="&#x446;" horiz-adv-x="523" 
d="M443 500v-433h60v-177h-75v110h-364v500h75v-433h229v433h75z" />
    <glyph glyph-name="afii10089" unicode="&#x447;" horiz-adv-x="490" 
d="M53 500h75v-133q0 -76 23.5 -110t82.5 -34q72 0 117 42v235h75v-500h-75v197q-47 -41 -132 -41q-166 0 -166 194v150z" />
    <glyph glyph-name="afii10090" unicode="&#x448;" horiz-adv-x="765" 
d="M701 500v-500h-637v500h75v-433h206v433h75v-433h206v433h75z" />
    <glyph glyph-name="afii10091" unicode="&#x449;" horiz-adv-x="781" 
d="M701 500v-433h60v-177h-75v110h-622v500h75v-433h206v433h75v-433h206v433h75z" />
    <glyph glyph-name="afii10092" unicode="&#x44a;" horiz-adv-x="554" 
d="M527 157q0 -74 -47.5 -115.5t-127.5 -41.5h-191v432h-145v68h220v-186h116q80 0 127.5 -41.5t47.5 -115.5zM452 157q0 90 -108 90h-108v-180h108q108 0 108 90z" />
    <glyph glyph-name="afii10093" unicode="&#x44b;" horiz-adv-x="647" 
d="M508 0v500h75v-500h-75zM355 157q0 90 -108 90h-108v-180h108q108 0 108 90zM430 157q0 -74 -47.5 -115.5t-127.5 -41.5h-191v500h75v-186h116q80 0 127.5 -41.5t47.5 -115.5z" />
    <glyph glyph-name="afii10094" unicode="&#x44c;" horiz-adv-x="457" 
d="M355 157q0 90 -108 90h-108v-180h108q108 0 108 90zM430 157q0 -74 -47.5 -115.5t-127.5 -41.5h-191v500h75v-186h116q80 0 127.5 -41.5t47.5 -115.5z" />
    <glyph glyph-name="afii10095" unicode="&#x44d;" horiz-adv-x="491" 
d="M443 302v-104q0 -88 -58 -149t-149 -61q-77 0 -129 43.5t-69 113.5l75 13q11 -49 43.5 -76t79.5 -27q58 0 95 42t37 115v5h-166v67h166v4q0 73 -37 115t-95 42q-47 0 -79.5 -27t-43.5 -76l-75 13q17 70 69 113.5t129 43.5q91 0 149 -61t58 -149z" />
    <glyph glyph-name="afii10096" unicode="&#x44e;" horiz-adv-x="660" 
d="M198 198v19h-59v-217h-75v500h75v-216h59v18q0 88 58 149t149 61t149 -61t58 -149v-104q0 -88 -58 -149t-149 -61t-149 61t-58 149zM537 212v76q0 73 -37 115t-95 42t-95 -42t-37 -115v-76q0 -73 37 -115t95 -42t95 42t37 115z" />
    <glyph glyph-name="afii10097" unicode="&#x44f;" horiz-adv-x="489" 
d="M350 199h-128l-115 -199h-81l122 211q-46 15 -72.5 50.5t-26.5 88.5q0 71 48.5 110.5t121.5 39.5h206v-500h-75v199zM124 350q0 -41 27 -62.5t71 -21.5h128v167h-128q-44 0 -71 -21t-27 -62z" />
    <glyph glyph-name="uni0450" unicode="&#x450;" horiz-adv-x="510" 
d="M255 -12q-91 0 -149 61t-58 149v104q0 88 58 149t149 61t149 -61t58 -149v-80h-339v-10q0 -73 37 -115t95 -42q44 0 75.5 22.5t44.5 62.5l77 -12q-21 -65 -72 -102.5t-125 -37.5zM123 288v-5h264v5q0 73 -37 115t-95 42t-95 -42t-37 -115zM257 564l-112 161h82l92 -161
h-62z" />
    <glyph glyph-name="afii10071" unicode="&#x451;" horiz-adv-x="510" 
d="M255 -12q-91 0 -149 61t-58 149v104q0 88 58 149t149 61t149 -61t58 -149v-80h-339v-10q0 -73 37 -115t95 -42q44 0 75.5 22.5t44.5 62.5l77 -12q-21 -65 -72 -102.5t-125 -37.5zM123 288v-5h264v5q0 73 -37 115t-95 42t-95 -42t-37 -115zM202 694v-101h-79v101h79z
M381 694v-101h-79v101h79z" />
    <glyph glyph-name="afii10099" unicode="&#x452;" horiz-adv-x="524" 
d="M463 306v-371q0 -76 -36 -111.5t-111 -35.5h-32v67h32q72 0 72 88v347q0 80 -27 117.5t-89 37.5q-42 0 -78 -24t-55 -66v-355h-75v588h-62v58h62v66h75v-66h147v-58h-147v-152q53 76 154 76q82 0 126 -54.5t44 -151.5z" />
    <glyph glyph-name="afii10100" unicode="&#x453;" horiz-adv-x="418" 
d="M396 500v-67h-257v-433h-75v500h332zM334 725l-112 -161h-62l92 161h82z" />
    <glyph glyph-name="afii10101" unicode="&#x454;" horiz-adv-x="491" 
d="M48 198v104q0 88 58 149t149 61q77 0 129 -43.5t69 -113.5l-75 -13q-11 49 -43.5 76t-79.5 27q-58 0 -95 -42t-37 -115v-4h166v-67h-166v-5q0 -73 37 -115t95 -42q47 0 79.5 27t43.5 76l75 -13q-17 -70 -69 -113.5t-129 -43.5q-91 0 -149 61t-58 149z" />
    <glyph glyph-name="afii10102" unicode="&#x455;" horiz-adv-x="477" 
d="M57 372q0 63 47 101.5t124 38.5q74 0 124.5 -36.5t70.5 -102.5l-77 -13q-10 40 -40.5 62.5t-76.5 22.5t-71.5 -20t-25.5 -54q0 -65 99 -80l49 -8q82 -13 118 -49.5t36 -97.5q0 -66 -48.5 -107t-131.5 -41q-80 0 -134.5 39t-75.5 112l76 14q15 -48 50.5 -73t83.5 -25
q49 0 77 22.5t28 58.5q0 67 -99 82l-49 8q-83 14 -118.5 50.5t-35.5 95.5z" />
    <glyph glyph-name="afii10103" unicode="&#x456;" horiz-adv-x="223" 
d="M74 0v500h75v-500h-75zM74 620v92h75v-92h-75z" />
    <glyph glyph-name="afii10104" unicode="&#x457;" horiz-adv-x="223" 
d="M74 0v500h75v-500h-75zM61 694v-101h-79v101h79zM240 694v-101h-79v101h79z" />
    <glyph glyph-name="afii10105" unicode="&#x458;" horiz-adv-x="233" 
d="M84 620v92h75v-92h-75zM84 -57v557h75v-565q0 -76 -36 -111.5t-111 -35.5h-32v67h32q72 0 72 88z" />
    <glyph glyph-name="afii10106" unicode="&#x459;" horiz-adv-x="799" 
d="M772 157q0 -74 -47.5 -115.5t-127.5 -41.5h-191v433h-221v-298q0 -76 -35.5 -111.5t-108.5 -35.5h-25v67h25q69 0 69 88v357h371v-186h116q80 0 127.5 -41.5t47.5 -115.5zM697 157q0 90 -108 90h-108v-180h108q108 0 108 90z" />
    <glyph glyph-name="afii10107" unicode="&#x45a;" horiz-adv-x="757" 
d="M730 157q0 -74 -47.5 -115.5t-127.5 -41.5h-191v223h-225v-223h-75v500h75v-210h225v210h75v-186h116q80 0 127.5 -41.5t47.5 -115.5zM655 157q0 90 -108 90h-108v-180h108q108 0 108 90z" />
    <glyph glyph-name="afii10108" unicode="&#x45b;" horiz-adv-x="524" 
d="M286 588h-147v-152q53 76 154 76q82 0 126 -54.5t44 -151.5v-306h-75v290q0 80 -27 117.5t-89 37.5q-42 0 -78 -24t-55 -66v-355h-75v588h-62v58h62v66h75v-66h147v-58z" />
    <glyph glyph-name="afii10109" unicode="&#x45c;" horiz-adv-x="472" 
d="M302 282l172 -282h-84l-147 243l-104 -67v-176h-75v500h75v-240l112 73q52 34 74.5 71t22.5 89v7h75v-8q0 -73 -27.5 -120t-93.5 -90zM357 725l-112 -161h-62l92 161h82z" />
    <glyph glyph-name="uni045D" unicode="&#x45d;" horiz-adv-x="512" 
d="M133 0l240 370v-370h75v500h-69l-240 -370v370h-75v-500h69zM261 564l-112 161h82l92 -161h-62z" />
    <glyph glyph-name="afii10110" unicode="&#x45e;" horiz-adv-x="480" 
d="M175 -87l36 100l-201 487h80l158 -391l142 391h80l-225 -605q-24 -63 -57 -84.5t-91 -21.5h-32v67h29q60 0 81 57zM238 570q-122 0 -150 131l62 12q21 -84 88 -84t88 84l62 -12q-28 -131 -150 -131z" />
    <glyph glyph-name="afii10193" unicode="&#x45f;" horiz-adv-x="507" 
d="M443 500v-500h-152v-110h-75v110h-152v500h75v-433h229v433h75z" />
    <glyph glyph-name="afii10050" unicode="&#x490;" horiz-adv-x="525" 
d="M153 629v-629h-79v700h361v140h79v-211h-361z" />
    <glyph glyph-name="afii10098" unicode="&#x491;" horiz-adv-x="418" 
d="M321 500v105h75v-172h-257v-433h-75v500h257z" />
    <glyph glyph-name="Wgrave" unicode="&#x1e80;" horiz-adv-x="912" 
d="M417 700h78l161 -560l154 560h86l-199 -700h-80l-161 564l-161 -564h-80l-199 700h86l154 -560zM452 763l-112 161h82l92 -161h-62z" />
    <glyph glyph-name="wgrave" unicode="&#x1e81;" horiz-adv-x="778" 
d="M428 500h-78l-126 -398l-135 398h-79l175 -500h79l125 395l125 -395h79l175 500h-79l-135 -398zM385 564l-112 161h82l92 -161h-62z" />
    <glyph glyph-name="Wacute" unicode="&#x1e82;" horiz-adv-x="912" 
d="M417 700h78l161 -560l154 560h86l-199 -700h-80l-161 564l-161 -564h-80l-199 700h86l154 -560zM572 924l-112 -161h-62l92 161h82z" />
    <glyph glyph-name="wacute" unicode="&#x1e83;" horiz-adv-x="778" 
d="M350 500h78l126 -398l135 398h79l-175 -500h-79l-125 395l-125 -395h-79l-175 500h79l135 -398zM505 725l-112 -161h-62l92 161h82z" />
    <glyph glyph-name="Wdieresis" unicode="&#x1e84;" horiz-adv-x="912" 
d="M417 700h78l161 -560l154 560h86l-199 -700h-80l-161 564l-161 -564h-80l-199 700h86l154 -560zM406 895v-101h-79v101h79zM585 895v-101h-79v101h79z" />
    <glyph glyph-name="wdieresis" unicode="&#x1e85;" horiz-adv-x="778" 
d="M350 500h78l126 -398l135 398h79l-175 -500h-79l-125 395l-125 -395h-79l-175 500h79l135 -398zM339 694v-101h-79v101h79zM518 694v-101h-79v101h79z" />
    <glyph glyph-name="Ygrave" unicode="&#x1ef2;" horiz-adv-x="560" 
d="M319 0h-79v318l-224 382h87l177 -304l177 304h87l-225 -382v-318zM279 763l-112 161h82l92 -161h-62z" />
    <glyph glyph-name="ygrave" unicode="&#x1ef3;" horiz-adv-x="480" 
d="M175 -87l36 100l-201 487h80l158 -391l142 391h80l-225 -605q-24 -63 -57 -84.5t-91 -21.5h-32v67h29q60 0 81 57zM237 564l-112 161h82l92 -161h-62z" />
    <glyph glyph-name="thinspace" unicode="&#x2009;" horiz-adv-x="200" 
 />
    <glyph glyph-name="uni2010" unicode="&#x2010;" horiz-adv-x="399" 
d="M348 292h-297v67h297v-67z" />
    <glyph glyph-name="figuredash" unicode="&#x2012;" horiz-adv-x="596" 
d="M545 292h-494v67h494v-67z" />
    <glyph glyph-name="endash" unicode="&#x2013;" horiz-adv-x="500" 
d="M500 292h-500v67h500v-67z" />
    <glyph glyph-name="emdash" unicode="&#x2014;" horiz-adv-x="1000" 
d="M1000 292h-1000v67h1000v-67z" />
    <glyph glyph-name="afii00208" unicode="&#x2015;" horiz-adv-x="1000" 
d="M900 292h-800v67h800v-67z" />
    <glyph glyph-name="uni2016" unicode="&#x2016;" horiz-adv-x="412" 
d="M103 -130v879h61v-879h-61zM248 -130v879h61v-879h-61z" />
    <glyph glyph-name="underscoredbl" unicode="&#x2017;" horiz-adv-x="600" 
d="M50 -38h500v-50h-500v50zM50 -141h500v-50h-500v50z" />
    <glyph glyph-name="quoteleft" unicode="&#x2018;" horiz-adv-x="262" 
d="M88 563v95q0 49 20.5 74.5t65.5 32.5v-37q-25 -5 -36 -19.5t-11 -47.5h47v-98h-86z" />
    <glyph glyph-name="quoteright" unicode="&#x2019;" horiz-adv-x="262" 
d="M174 765v-95q0 -49 -20.5 -74.5t-65.5 -32.5v37q25 5 36 19.5t11 47.5h-47v98h86z" />
    <glyph glyph-name="quotesinglbase" unicode="&#x201a;" horiz-adv-x="262" 
d="M174 98v-95q0 -49 -20.5 -74.5t-65.5 -32.5v37q25 5 36 19.5t11 47.5h-47v98h86z" />
    <glyph glyph-name="quotereversed" unicode="&#x201b;" horiz-adv-x="262" 
d="M88 670v95h86v-98h-47q0 -33 11 -47.5t36 -19.5v-37q-45 7 -65.5 32.5t-20.5 74.5z" />
    <glyph glyph-name="quotedblleft" unicode="&#x201c;" horiz-adv-x="395" 
d="M221 563v95q0 49 20.5 74.5t65.5 32.5v-37q-25 -5 -36 -19.5t-11 -47.5h47v-98h-86zM88 563v95q0 49 20.5 74.5t65.5 32.5v-37q-25 -5 -36 -19.5t-11 -47.5h47v-98h-86z" />
    <glyph glyph-name="quotedblright" unicode="&#x201d;" horiz-adv-x="395" 
d="M307 765v-95q0 -49 -20.5 -74.5t-65.5 -32.5v37q25 5 36 19.5t11 47.5h-47v98h86zM174 765v-95q0 -49 -20.5 -74.5t-65.5 -32.5v37q25 5 36 19.5t11 47.5h-47v98h86z" />
    <glyph glyph-name="quotedblbase" unicode="&#x201e;" horiz-adv-x="395" 
d="M174 98v-95q0 -49 -20.5 -74.5t-65.5 -32.5v37q25 5 36 19.5t11 47.5h-47v98h86zM307 98v-95q0 -49 -20.5 -74.5t-65.5 -32.5v37q25 5 36 19.5t11 47.5h-47v98h86z" />
    <glyph glyph-name="uni201F" unicode="&#x201f;" horiz-adv-x="395" 
d="M88 670v95h86v-98h-47q0 -33 11 -47.5t36 -19.5v-37q-45 7 -65.5 32.5t-20.5 74.5zM221 670v95h86v-98h-47q0 -33 11 -47.5t36 -19.5v-37q-45 7 -65.5 32.5t-20.5 74.5z" />
    <glyph glyph-name="dagger" unicode="&#x2020;" horiz-adv-x="573" 
d="M321 510v-641h-69v641h-170v60h170v178h69v-178h170v-60h-170z" />
    <glyph glyph-name="daggerdbl" unicode="&#x2021;" horiz-adv-x="573" 
d="M252 106v404h-170v60h170v178h69v-178h170v-60h-170v-404h170v-60h-170v-177h-69v177h-170v60h170z" />
    <glyph glyph-name="bullet" unicode="&#x2022;" horiz-adv-x="361" 
d="M53 326q0 53 37.5 90t90.5 37t90 -37.5t37 -89.5t-37 -89.5t-90 -37.5t-90.5 37t-37.5 90z" />
    <glyph glyph-name="onedotenleader" unicode="&#x2024;" horiz-adv-x="262" 
d="M174 98v-98h-86v98h86z" />
    <glyph glyph-name="twodotenleader" unicode="&#x2025;" horiz-adv-x="524" 
d="M174 98v-98h-86v98h86zM436 98v-98h-86v98h86z" />
    <glyph glyph-name="ellipsis" unicode="&#x2026;" horiz-adv-x="786" 
d="M174 98v-98h-86v98h86zM436 98v-98h-86v98h86zM698 98v-98h-86v98h86z" />
    <glyph glyph-name="perthousand" unicode="&#x2030;" horiz-adv-x="1110" 
d="M504 700h65l-279 -700h-65zM60 484v86q0 60 35.5 101t97.5 41t97.5 -41t35.5 -101v-86q0 -60 -35.5 -101t-97.5 -41t-97.5 41t-35.5 101zM124 561v-68q0 -93 69 -93t69 93v68q0 93 -69 93t-69 -93zM734 216v-86q0 -60 -35.5 -101t-97.5 -41t-97.5 41t-35.5 101v86
q0 60 35.5 101t97.5 41t97.5 -41t35.5 -101zM670 139v68q0 93 -69 93t-69 -93v-68q0 -93 69 -93t69 93zM1050 216v-86q0 -60 -35.5 -101t-97.5 -41t-97.5 41t-35.5 101v86q0 60 35.5 101t97.5 41t97.5 -41t35.5 -101zM986 139v68q0 93 -69 93t-69 -93v-68q0 -93 69 -93
t69 93z" />
    <glyph glyph-name="minute" unicode="&#x2032;" horiz-adv-x="214" 
d="M103 478h-59l50 222h76z" />
    <glyph glyph-name="second" unicode="&#x2033;" horiz-adv-x="357" 
d="M103 478h-59l50 222h76zM246 478h-59l50 222h76z" />
    <glyph glyph-name="guilsinglleft" unicode="&#x2039;" horiz-adv-x="296" 
d="M42 291v42l212 139v-64l-151 -96l151 -96v-64z" />
    <glyph glyph-name="guilsinglright" unicode="&#x203a;" horiz-adv-x="296" 
d="M254 333v-42l-212 -139v64l151 96l-151 96v64z" />
    <glyph glyph-name="exclamdbl" unicode="&#x203c;" horiz-adv-x="464" 
d="M171 700v-103l-13 -400h-49l-13 400v103h75zM171 94v-94h-75v94h75zM368 700v-103l-13 -400h-49l-13 400v103h75zM368 94v-94h-75v94h75z" />
    <glyph glyph-name="uni203E" unicode="&#x203e;" horiz-adv-x="372" 
d="M47 619v58h278v-58h-278z" />
    <glyph glyph-name="fraction" unicode="&#x2044;" horiz-adv-x="169" 
d="M290 700l-343 -700h-68l343 700h68z" />
    <glyph glyph-name="zerosuperior" unicode="&#x2070;" 
d="M34 387v163q0 75 39.5 116.5t105.5 41.5t105.5 -41.5t39.5 -116.5v-163q0 -75 -39.5 -116.5t-105.5 -41.5t-105.5 41.5t-39.5 116.5zM102 542v-147q0 -108 77 -108t77 108v147q0 108 -77 108t-77 -108z" />
    <glyph glyph-name="uni2071" unicode="&#x2071;" 
d="M145 237v325h68v-325h-68zM145 627v73h68v-73h-68z" />
    <glyph glyph-name="foursuperior" unicode="&#x2074;" 
d="M99 394h115v192zM332 394v-58h-51v-99h-67v99h-189v52l187 312h69v-306h51z" />
    <glyph glyph-name="fivesuperior" unicode="&#x2075;" 
d="M59 453v247h245v-58h-177v-121q25 22 63 22q61 0 99 -40t38 -116q0 -74 -39 -115t-104 -41q-66 0 -105 40t-39 111l68 5v-5q0 -45 21 -69t55 -24q33 0 54 24t21 75q0 49 -21.5 74t-53.5 25q-40 0 -65 -34h-60z" />
    <glyph glyph-name="sixsuperior" unicode="&#x2076;" 
d="M180 229q-66 0 -107 42t-41 104q0 39 19 75l126 250h74l-97 -189q14 6 32 6q61 0 100.5 -41t39.5 -101q0 -62 -40.5 -104t-105.5 -42zM258 374q0 39 -21.5 63t-57.5 24t-57.5 -24t-21.5 -63t21.5 -63t57.5 -24t57.5 24t21.5 63z" />
    <glyph glyph-name="sevensuperior" unicode="&#x2077;" 
d="M38 642v58h283v-46l-155 -417h-72l154 405h-210z" />
    <glyph glyph-name="eightsuperior" unicode="&#x2078;" 
d="M179 708q58 0 94.5 -34.5t36.5 -86.5q0 -59 -49 -92q66 -36 66 -120q0 -63 -41 -104.5t-107 -41.5t-107 41.5t-41 104.5q0 84 66 120q-49 33 -49 92q0 52 36.5 86.5t94.5 34.5zM179 519q27 0 45 18.5t18 47.5t-18 47.5t-45 18.5t-45 -18.5t-18 -47.5t18 -47.5t45 -18.5z
M179 286q35 0 57.5 25t22.5 64t-22.5 64t-57.5 25t-57.5 -25t-22.5 -64t22.5 -64t57.5 -25z" />
    <glyph glyph-name="ninesuperior" unicode="&#x2079;" 
d="M178 708q66 0 107 -42t41 -104q0 -39 -19 -75l-126 -250h-74l97 189q-14 -6 -32 -6q-61 0 -100.5 41t-39.5 101q0 62 40.5 104t105.5 42zM100 563q0 -39 21.5 -63t57.5 -24t57.5 24t21.5 63t-21.5 63t-57.5 24t-57.5 -24t-21.5 -63z" />
    <glyph glyph-name="uni207A" unicode="&#x207a;" 
d="M147 317v123h-121v57h121v123h63v-123h121v-57h-121v-123h-63z" />
    <glyph glyph-name="uni207B" unicode="&#x207b;" 
d="M331 440h-305v57h305v-57z" />
    <glyph glyph-name="uni207C" unicode="&#x207c;" 
d="M331 367h-305v57h305v-57zM331 513h-305v57h305v-57z" />
    <glyph glyph-name="uni207D" unicode="&#x207d;" 
d="M193 532v-127q0 -129 85 -171l-19 -62q-133 56 -133 223v147q0 167 133 223l19 -62q-85 -43 -85 -171z" />
    <glyph glyph-name="uni207E" unicode="&#x207e;" 
d="M165 405v127q0 128 -85 171l19 62q133 -56 133 -223v-147q0 -167 -133 -223l-19 62q85 42 85 171z" />
    <glyph glyph-name="uni207F" unicode="&#x207f;" 
d="M318 237h-67v215q0 82 -61 82q-55 0 -83 -49v-248h-67v351h67v-39q35 48 99 48q53 0 82.5 -36t29.5 -99v-225z" />
    <glyph glyph-name="zeroinferior" unicode="&#x2080;" 
d="M34 24v163q0 75 39.5 116.5t105.5 41.5t105.5 -41.5t39.5 -116.5v-163q0 -75 -39.5 -116.5t-105.5 -41.5t-105.5 41.5t-39.5 116.5zM102 179v-147q0 -108 77 -108t77 108v147q0 108 -77 108t-77 -108z" />
    <glyph glyph-name="oneinferior" unicode="&#x2081;" 
d="M66 -126v58h95v334l-95 -42v62l107 51h56v-405h94v-58h-257z" />
    <glyph glyph-name="twoinferior" unicode="&#x2082;" 
d="M256 207q0 38 -21 59t-53 21t-53 -21.5t-21 -58.5v-18l-69 5v14q0 58 39.5 97.5t103.5 39.5q62 0 102 -38.5t40 -98.5q0 -58 -50 -114l-143 -162h193v-58h-285v48l186 213q31 35 31 72z" />
    <glyph glyph-name="threeinferior" unicode="&#x2083;" 
d="M36 18l68 5q0 -48 20.5 -73.5t55.5 -25.5q33 0 54.5 21.5t21.5 64.5q0 93 -71 93q-19 0 -41 -10l-35 40l113 146h-174v58h259v-51l-106 -134h9q48 0 81 -37t33 -106q0 -65 -40.5 -104t-103.5 -39q-66 0 -105 42.5t-39 109.5z" />
    <glyph glyph-name="fourinferior" unicode="&#x2084;" 
d="M99 31h115v192zM332 31v-58h-51v-99h-67v99h-189v52l187 312h69v-306h51z" />
    <glyph glyph-name="fiveinferior" unicode="&#x2085;" 
d="M59 90v247h245v-58h-177v-121q25 22 63 22q61 0 99 -40t38 -116q0 -74 -39 -115t-104 -41q-66 0 -105 40t-39 111l68 5v-5q0 -45 21 -69t55 -24q33 0 54 24t21 75q0 49 -21.5 74t-53.5 25q-40 0 -65 -34h-60z" />
    <glyph glyph-name="sixinferior" unicode="&#x2086;" 
d="M180 -134q-66 0 -107 42t-41 104q0 39 19 75l126 250h74l-97 -189q14 6 32 6q61 0 100.5 -41t39.5 -101q0 -62 -40.5 -104t-105.5 -42zM258 11q0 39 -21.5 63t-57.5 24t-57.5 -24t-21.5 -63t21.5 -63t57.5 -24t57.5 24t21.5 63z" />
    <glyph glyph-name="seveninferior" unicode="&#x2087;" 
d="M38 279v58h283v-46l-155 -417h-72l154 405h-210z" />
    <glyph glyph-name="eightinferior" unicode="&#x2088;" 
d="M179 345q58 0 94.5 -34.5t36.5 -86.5q0 -59 -49 -92q66 -36 66 -120q0 -63 -41 -104.5t-107 -41.5t-107 41.5t-41 104.5q0 84 66 120q-49 33 -49 92q0 52 36.5 86.5t94.5 34.5zM179 156q27 0 45 18.5t18 47.5t-18 47.5t-45 18.5t-45 -18.5t-18 -47.5t18 -47.5t45 -18.5z
M179 -77q35 0 57.5 25t22.5 64t-22.5 64t-57.5 25t-57.5 -25t-22.5 -64t22.5 -64t57.5 -25z" />
    <glyph glyph-name="nineinferior" unicode="&#x2089;" 
d="M178 345q66 0 107 -42t41 -104q0 -39 -19 -75l-126 -250h-74l97 189q-14 -6 -32 -6q-61 0 -100.5 41t-39.5 101q0 62 40.5 104t105.5 42zM100 200q0 -39 21.5 -63t57.5 -24t57.5 24t21.5 63t-21.5 63t-57.5 24t-57.5 -24t-21.5 -63z" />
    <glyph glyph-name="uni208A" unicode="&#x208a;" 
d="M147 -46v123h-121v57h121v123h63v-123h121v-57h-121v-123h-63z" />
    <glyph glyph-name="uni208B" unicode="&#x208b;" 
d="M331 77h-305v57h305v-57z" />
    <glyph glyph-name="uni208C" unicode="&#x208c;" 
d="M331 4h-305v57h305v-57zM331 150h-305v57h305v-57z" />
    <glyph glyph-name="uni208D" unicode="&#x208d;" 
d="M193 169v-127q0 -128 85 -171l-19 -62q-133 56 -133 223v147q0 167 133 223l19 -62q-85 -42 -85 -171z" />
    <glyph glyph-name="uni208E" unicode="&#x208e;" 
d="M165 42v127q0 129 -85 171l19 62q133 -56 133 -223v-147q0 -167 -133 -223l-19 62q85 43 85 171z" />
    <glyph glyph-name="uni2090" unicode="&#x2090;" 
d="M165 -77q59 0 87 42v63h-81q-35 0 -54 -15t-19 -38v-4q0 -23 18 -35.5t49 -12.5zM177 178q-51 0 -78 -50l-58 21q22 41 59 63.5t82 22.5q61 0 98.5 -35.5t37.5 -94.5v-230h-66v36q-37 -45 -103 -45q-49 0 -83 28t-34 74v5q0 49 38 77.5t107 28.5h75v22q0 36 -21 56.5
t-54 20.5z" />
    <glyph glyph-name="uni2091" unicode="&#x2091;" 
d="M179 -134q-64 0 -105 43.5t-41 111.5v59q0 68 41 111.5t105 43.5t105 -43.5t41 -111.5v-57h-226v-2q1 -48 23 -73t57 -25q59 0 76 58l65 -9q-13 -48 -51 -77t-90 -29zM99 73h160v2q0 50 -22 76.5t-58 26.5t-58 -26.5t-22 -76.5v-2z" />
    <glyph glyph-name="uni2092" unicode="&#x2092;" 
d="M325 80v-59q0 -68 -41 -111.5t-105 -43.5t-105 43.5t-41 111.5v59q0 68 41 111.5t105 43.5t105 -43.5t41 -111.5zM99 75v-49q0 -50 22 -76.5t58 -26.5t58 26.5t22 76.5v49q0 50 -22 76.5t-58 26.5t-58 -26.5t-22 -76.5z" />
    <glyph glyph-name="uni2093" unicode="&#x2093;" 
d="M97 -125h-72l115 178l-105 164h70l74 -116l75 116h70l-105 -165l115 -177h-72l-83 130z" />
    <glyph glyph-name="uni2094" unicode="&#x2094;" 
d="M179 235q64 0 105 -43.5t41 -111.5v-59q0 -68 -41 -111.5t-105 -43.5t-105 43.5t-41 111.5v57h226v2q-1 48 -23 73t-57 25q-59 0 -76 -58l-65 9q13 48 51 77t90 29zM99 28v-2q0 -50 22 -76.5t58 -26.5t58 26.5t22 76.5v2h-160z" />
    <glyph glyph-name="uni20A0" unicode="&#x20a0;" horiz-adv-x="703" 
d="M238 204q-83 0 -139.5 60t-56.5 146v95q0 87 57 147t144 60q70 0 119 -36.5t71 -99.5l-72 -14q-26 84 -118 84q-55 0 -91.5 -40t-36.5 -111v-74q0 -71 36.5 -111.5t91.5 -40.5q81 0 117 59v162h311v-68h-235v-138h199v-68h-199v-149h235v-67h-311v245q-42 -41 -122 -41z
" />
    <glyph glyph-name="colonmonetary" unicode="&#x20a1;" horiz-adv-x="583" 
d="M367 -94h-47v83q-8 -1 -23 -1q-18 0 -30 2v-84h-47v94q-78 24 -122.5 94t-44.5 170v172q0 99 44.5 169.5t122.5 94.5v89h47v-79q12 2 30 2q16 0 23 -1v78h47v-86q70 -19 115 -73.5t57 -134.5l-78 -13q-20 110 -94 144v-553q74 36 94 144l78 -13q-12 -80 -57 -134.5
t-115 -72.5v-91zM132 424v-148q0 -147 88 -198v543q-88 -50 -88 -197zM297 641q-17 0 -30 -3v-577q18 -2 30 -2q15 0 23 1v579q-16 2 -23 2z" />
    <glyph glyph-name="uni20A2" unicode="&#x20a2;" horiz-adv-x="583" 
d="M297 641q-76 0 -120.5 -57.5t-44.5 -159.5v-148q0 -86 32.5 -141.5t89.5 -70.5v328h72v-41q34 51 97 51q27 0 42 -7v-64q-20 7 -46 7q-62 0 -93 -57v-220q53 8 88 48t47 108l78 -13q-14 -100 -79 -158t-163 -58q-111 0 -177.5 76.5t-66.5 199.5v172q0 123 66.5 199.5
t177.5 76.5q98 0 163 -58.5t79 -158.5l-78 -13q-13 77 -56 118t-108 41z" />
    <glyph glyph-name="franc" unicode="&#x20a3;" horiz-adv-x="525" 
d="M13 310h61v68h-61v51h61v271h416v-71h-337v-200h220v-51h-220v-68h220v-51h-220v-259h-79v259h-61v51z" />
    <glyph glyph-name="lira" unicode="&#x20a4;" horiz-adv-x="579" 
d="M532 518l-78 -13q-26 136 -136 136q-125 0 -125 -169v-70h206v-50h-206v-69h206v-50h-206q-3 -106 -51 -162h394v-71h-485v64q63 63 63 167v2h-66v50h66v69h-66v50h66v84q0 106 54 166t149 60q177 0 215 -194z" />
    <glyph glyph-name="uni20A6" unicode="&#x20a6;" horiz-adv-x="644" 
d="M631 268h-61v-268h-75l-165 268h-177v-268h-79v268h-61v50h61v64h-61v50h61v268h75l165 -268h177v268h79v-268h61v-50h-61v-64h61v-50zM153 382v-64h146l-39 64h-107zM345 382l39 -64h107v64h-146zM153 555v-123h76zM415 268l76 -123v123h-76z" />
    <glyph glyph-name="peseta" unicode="&#x20a7;" horiz-adv-x="1062" 
d="M847 0h-175q-147 0 -147 144v288h-63q-18 -72 -75 -110t-130 -38h-104v-284h-79v700h183q85 0 147 -52t65 -148h56v142h75v-142h123v-25q42 37 110 37q137 0 175 -139q-28 -6 -76 -13q-21 84 -99 84q-36 0 -55.5 -18t-19.5 -48q0 -31 18 -49t64 -32l63 -19
q116 -35 116 -137q0 -67 -44.5 -104t-127.5 -37zM391 492q0 67 -40.5 102t-105.5 35h-92v-274h92q65 0 105.5 35t40.5 102zM681 374q0 31 13 58h-94v-281q0 -40 19.5 -62t53.5 -22h172q97 0 97 70q0 31 -18 49t-64 32l-63 19q-116 35 -116 137z" />
    <glyph glyph-name="uni20A8" unicode="&#x20a8;" horiz-adv-x="958" 
d="M286 294h-133v-294h-79v700h223q89 0 153.5 -53t64.5 -150q0 -77 -41.5 -126t-106.5 -68l174 -303h-87zM153 365h132q67 0 109 34t42 98t-42 98t-109 34h-132v-264zM561 374q0 59 45 98.5t115 39.5q69 0 116.5 -36.5t66.5 -102.5q-28 -6 -76 -13q-10 39 -38.5 61.5
t-68.5 22.5q-39 0 -61.5 -19t-22.5 -50q0 -60 88 -83l47 -12q75 -19 109 -54t34 -100q0 -60 -45.5 -99t-122.5 -39t-128.5 38.5t-72.5 112.5q26 5 76 13q29 -97 123 -97q44 0 69 20.5t25 54.5q0 36 -19 54t-69 31l-47 12q-71 18 -107 53t-36 94z" />
    <glyph glyph-name="uni20A9" unicode="&#x20a9;" horiz-adv-x="912" 
d="M898 434v-50h-92l-18 -64h110v-50h-124l-77 -270h-80l-77 270h-168l-77 -270h-80l-77 270h-124v50h109l-18 64h-91v50h77l-75 266h86l73 -266h166l76 266h78l76 -266h166l73 266h86l-76 -266h78zM404 384l-18 -64h139l-18 64h-103zM189 384l17 -64h102l18 64h-137z
M586 384l18 -64h101l18 64h-137zM456 564l-37 -130h74zM220 270l36 -130l37 130h-73zM619 270l37 -130l35 130h-72z" />
    <glyph glyph-name="afii57636" unicode="&#x20aa;" horiz-adv-x="824" 
d="M74 0v700h264q104 0 158.5 -59t54.5 -168v-211h-79v195q0 88 -33 130t-110 42h-176v-629h-79zM750 700v-700h-264q-104 0 -158.5 58.5t-54.5 167.5v212h79v-195q0 -88 33 -130t110 -42h176v629h79z" />
    <glyph glyph-name="dong" unicode="&#x20ab;" horiz-adv-x="537" 
d="M229 635h147v65h79v-65h62v-60h-62v-575h-79v55q-45 -67 -142 -67q-87 0 -136.5 58.5t-49.5 151.5v92q0 93 49.5 151.5t136.5 58.5q97 0 142 -67v142h-147v60zM127 272v-56q0 -157 127 -157q82 0 122 81v208q-40 81 -122 81q-127 0 -127 -157zM134 -90h309v-55h-309v55z
" />
    <glyph glyph-name="Euro" unicode="&#x20ac;" horiz-adv-x="602" 
d="M151 313h167l-7 -50h-160q3 -96 47.5 -150t117.5 -54q65 0 108 40.5t56 117.5l78 -13q-14 -100 -79 -158t-163 -58q-111 0 -177.5 76t-66.5 199h-51v50h51v69h-51v50h51v4q0 123 66.5 199.5t177.5 76.5q98 0 163 -58.5t79 -158.5l-78 -13q-13 77 -56 118t-108 41
q-74 0 -119 -55.5t-46 -153.5h185l-7 -50h-178v-69z" />
    <glyph glyph-name="afii61248" unicode="&#x2105;" horiz-adv-x="965" 
d="M48 434v95q0 73 50.5 126t128.5 53q66 0 110 -38t59 -98l-68 -11q-22 87 -101 87q-50 0 -80.5 -35.5t-30.5 -98.5v-65q0 -63 30.5 -98.5t80.5 -35.5q79 0 101 87l68 -11q-15 -60 -59 -98t-110 -38q-78 0 -128.5 53t-50.5 126zM686 700l-343 -700h-68l343 700h68zM738 -8
q-78 0 -128.5 53t-50.5 126v95q0 73 50.5 126t128.5 53t128.5 -53t50.5 -126v-95q0 -73 -50.5 -126t-128.5 -53zM738 52q50 0 80.5 35.5t30.5 98.5v65q0 63 -30.5 98.5t-80.5 35.5t-80.5 -35.5t-30.5 -98.5v-65q0 -63 30.5 -98.5t80.5 -35.5z" />
    <glyph glyph-name="uni2109" unicode="&#x2109;" horiz-adv-x="811" 
d="M302 577q0 -57 -35.5 -94t-93.5 -37t-93.5 37t-35.5 94t35.5 94t93.5 37t93.5 -37t35.5 -94zM240 577q0 32 -19 52.5t-48 20.5t-48 -20.5t-19 -52.5t19 -52.5t48 -20.5t48 20.5t19 52.5zM438 0h-79v700h416v-71h-337v-243h307v-71h-307v-315z" />
    <glyph glyph-name="afii61289" unicode="&#x2113;" horiz-adv-x="474" 
d="M262 -12q-70 0 -111 41.5t-48 117.5q-30 -11 -67 -19l-15 65q40 10 81 26v310q0 85 40.5 134t114.5 49q70 0 112 -46.5t42 -129.5v-16q0 -107 -62 -197.5t-172 -145.5q1 -123 87 -123q33 0 57.5 20t35.5 59l74 -13q-49 -132 -169 -132zM177 529v-272q77 47 118 117.5
t41 145.5v15q0 111 -81 111q-78 0 -78 -117z" />
    <glyph glyph-name="afii61352" unicode="&#x2116;" horiz-adv-x="880" 
d="M74 700h72l232 -522v522h77v-700h-72l-232 522v-522h-77v700zM520 0v66h310v-66h-310zM675 127q69 0 113.5 44t44.5 111v89q0 67 -44.5 111t-113.5 44t-113.5 -44t-44.5 -111v-89q0 -67 44.5 -111t113.5 -44zM675 197q-40 0 -60.5 27t-20.5 71v63q0 44 20.5 71t60.5 27
t60.5 -27t20.5 -71v-63q0 -44 -20.5 -71t-60.5 -27z" />
    <glyph glyph-name="uni2117" unicode="&#x2117;" horiz-adv-x="750" 
d="M702 372v-44q0 -157 -90 -248.5t-237 -91.5t-237 91.5t-90 248.5v44q0 157 90 248.5t237 91.5t237 -91.5t90 -248.5zM658 336v28q0 144 -75.5 225.5t-207.5 81.5t-207.5 -81.5t-75.5 -225.5v-28q0 -144 75.5 -225.5t207.5 -81.5t207.5 81.5t75.5 225.5zM404 304h-94v-163
h-63v417h157q54 0 94 -33t40 -94t-40 -94t-94 -33zM310 361h83q82 0 82 71t-82 71h-83v-142z" />
    <glyph glyph-name="uni2120" unicode="&#x2120;" horiz-adv-x="633" 
d="M202 458q0 37 -58 50l-33 8q-87 22 -87 95q0 40 30 67.5t81 27.5q48 0 79.5 -25.5t43.5 -69.5l-62 -12q-14 54 -61 54q-23 0 -36.5 -11t-13.5 -28q0 -20 12.5 -31t41.5 -18l33 -8q91 -22 91 -98q0 -43 -32.5 -70.5t-85.5 -27.5q-50 0 -84.5 26t-48.5 74l63 11
q17 -59 70 -59q57 0 57 45zM448 518l-98 182h-54v-334h62v215l70 -132h40l70 132v-215h62v334h-54z" />
    <glyph glyph-name="uni2121" unicode="&#x2121;" horiz-adv-x="955" 
d="M16 700h389v-71h-155v-629h-79v629h-155v71zM524 55q74 0 95 85l75 -12q-16 -65 -59.5 -102.5t-110.5 -37.5q-82 0 -131 54.5t-49 138.5v137q0 84 48.5 139t130.5 55t130.5 -55t48.5 -139v-96h-283v-31q0 -61 27 -98.5t78 -37.5zM627 283v25q0 62 -26.5 99t-77.5 37
t-77.5 -37t-26.5 -99v-25h208zM928 67v-67h-20q-73 0 -105 33t-32 106v573h75v-565q0 -43 14 -61.5t50 -18.5h18z" />
    <glyph glyph-name="trademark" unicode="&#x2122;" horiz-adv-x="612" 
d="M254 700v-53h-88v-281h-62v281h-88v53h238zM427 518l-98 182h-54v-334h62v215l70 -132h40l70 132v-215h62v334h-54z" />
    <glyph glyph-name="Omega" unicode="&#x2126;" horiz-adv-x="602" 
d="M301 712q110 0 177.5 -76.5t67.5 -199.5v-169q0 -138 -87 -196h81v-71h-197v63q60 21 92 75.5t32 136.5v149q0 102 -45 159.5t-121 57.5t-121 -57.5t-45 -159.5v-149q0 -82 32 -136.5t92 -75.5v-63h-197v71h81q-87 58 -87 196v169q0 123 67.5 199.5t177.5 76.5z" />
    <glyph glyph-name="estimated" unicode="&#x212e;" horiz-adv-x="738" 
d="M385 26q70 0 127.5 28.5t91.5 78.5l45 -8q-41 -64 -110.5 -100.5t-152.5 -36.5q-160 0 -250.5 101t-90.5 261q0 154 87.5 258t239.5 104q150 0 235.5 -104.5t85.5 -260.5v-19h-499v-234q70 -68 191 -68zM369 673q-107 0 -175 -62v-244h350v244q-68 62 -175 62z" />
    <glyph glyph-name="onethird" unicode="&#x2153;" horiz-adv-x="885" 
d="M648 700l-343 -700h-68l343 700h68zM563 144l68 5q0 -48 20.5 -73.5t55.5 -25.5q33 0 54.5 21.5t21.5 64.5q0 93 -71 93q-19 0 -41 -10l-35 40l113 146h-174v58h259v-51l-106 -134h9q48 0 81 -37t33 -106q0 -65 -40.5 -104t-103.5 -39q-66 0 -105 42.5t-39 109.5zM66 237
v58h95v334l-95 -42v62l107 51h56v-405h94v-58h-257z" />
    <glyph glyph-name="twothirds" unicode="&#x2154;" horiz-adv-x="885" 
d="M563 144l68 5q0 -48 20.5 -73.5t55.5 -25.5q33 0 54.5 21.5t21.5 64.5q0 93 -71 93q-19 0 -41 -10l-35 40l113 146h-174v58h259v-51l-106 -134h9q48 0 81 -37t33 -106q0 -65 -40.5 -104t-103.5 -39q-66 0 -105 42.5t-39 109.5zM648 700l-343 -700h-68l343 700h68z
M256 570q0 38 -21 59t-53 21t-53 -21.5t-21 -58.5v-18l-69 5v14q0 59 39.5 98t103.5 39q62 0 102 -38.5t40 -98.5q0 -58 -50 -114l-143 -162h193v-58h-285v48l186 213q31 35 31 72z" />
    <glyph glyph-name="onefifth" unicode="&#x2155;" horiz-adv-x="885" 
d="M648 700l-343 -700h-68l343 700h68zM586 216v247h245v-58h-177v-121q25 22 63 22q61 0 99 -40t38 -116q0 -74 -39 -115t-104 -41q-66 0 -105 40t-39 111l68 5v-5q0 -45 21 -69t55 -24q33 0 54 24t21 75q0 49 -21.5 74t-53.5 25q-39 0 -65 -34h-60zM66 237v58h95v334
l-95 -42v62l107 51h56v-405h94v-58h-257z" />
    <glyph glyph-name="twofifths" unicode="&#x2156;" horiz-adv-x="885" 
d="M648 700l-343 -700h-68l343 700h68zM586 216v247h245v-58h-177v-121q25 22 63 22q61 0 99 -40t38 -116q0 -74 -39 -115t-104 -41q-66 0 -105 40t-39 111l68 5v-5q0 -45 21 -69t55 -24q33 0 54 24t21 75q0 49 -21.5 74t-53.5 25q-39 0 -65 -34h-60zM256 570q0 38 -21 59
t-53 21t-53 -21.5t-21 -58.5v-18l-69 5v14q0 59 39.5 98t103.5 39q62 0 102 -38.5t40 -98.5q0 -58 -50 -114l-143 -162h193v-58h-285v48l186 213q31 35 31 72z" />
    <glyph glyph-name="threefifths" unicode="&#x2157;" horiz-adv-x="885" 
d="M648 700l-343 -700h-68l343 700h68zM586 216v247h245v-58h-177v-121q25 22 63 22q61 0 99 -40t38 -116q0 -74 -39 -115t-104 -41q-66 0 -105 40t-39 111l68 5v-5q0 -45 21 -69t55 -24q33 0 54 24t21 75q0 49 -21.5 74t-53.5 25q-39 0 -65 -34h-60zM36 381l68 5
q0 -48 20.5 -73.5t55.5 -25.5q33 0 54.5 21.5t21.5 64.5q0 93 -71 93q-19 0 -41 -10l-35 40l113 146h-174v58h259v-51l-106 -134h9q48 0 81 -37t33 -106q0 -65 -40.5 -104t-103.5 -39q-66 0 -105 42.5t-39 109.5z" />
    <glyph glyph-name="fourfifths" unicode="&#x2158;" horiz-adv-x="885" 
d="M586 216v247h245v-58h-177v-121q25 22 63 22q61 0 99 -40t38 -116q0 -74 -39 -115t-104 -41q-66 0 -105 40t-39 111l68 5v-5q0 -45 21 -69t55 -24q33 0 54 24t21 75q0 49 -21.5 74t-53.5 25q-39 0 -65 -34h-60zM648 700l-343 -700h-68l343 700h68zM99 394h115v192z
M332 394v-58h-51v-99h-67v99h-189v52l187 312h69v-306h51z" />
    <glyph glyph-name="onesixth" unicode="&#x2159;" horiz-adv-x="885" 
d="M648 700l-343 -700h-68l343 700h68zM707 -8q-66 0 -107 42t-41 104q0 39 19 75l126 250h74l-97 -189q13 6 32 6q61 0 100.5 -41t39.5 -101q0 -62 -40.5 -104t-105.5 -42zM785 137q0 39 -21.5 63t-57.5 24t-57.5 -24t-21.5 -63t21.5 -63t57.5 -24t57.5 24t21.5 63zM66 237
v58h95v334l-95 -42v62l107 51h56v-405h94v-58h-257z" />
    <glyph glyph-name="fivesixths" unicode="&#x215a;" horiz-adv-x="885" 
d="M707 -8q-66 0 -107 42t-41 104q0 39 19 75l126 250h74l-97 -189q13 6 32 6q61 0 100.5 -41t39.5 -101q0 -62 -40.5 -104t-105.5 -42zM785 137q0 39 -21.5 63t-57.5 24t-57.5 -24t-21.5 -63t21.5 -63t57.5 -24t57.5 24t21.5 63zM648 700l-343 -700h-68l343 700h68zM59 453
v247h245v-58h-177v-121q25 22 63 22q61 0 99 -40t38 -116q0 -74 -39 -115t-104 -41q-66 0 -105 40t-39 111l68 5v-5q0 -45 21 -69t55 -24q33 0 54 24t21 75q0 49 -21.5 74t-53.5 25q-40 0 -65 -34h-60z" />
    <glyph glyph-name="oneeighths" unicode="&#x215b;" horiz-adv-x="885" 
d="M648 700l-343 -700h-68l343 700h68zM706 471q58 0 94.5 -34.5t36.5 -86.5q0 -59 -49 -92q66 -36 66 -120q0 -63 -41 -104.5t-107 -41.5t-107 41.5t-41 104.5q0 84 66 120q-49 33 -49 92q0 52 36.5 86.5t94.5 34.5zM706 282q27 0 45 18.5t18 47.5t-18 47.5t-45 18.5
t-45 -18.5t-18 -47.5t18 -47.5t45 -18.5zM706 49q35 0 57.5 25t22.5 64t-22.5 64t-57.5 25t-57.5 -25t-22.5 -64t22.5 -64t57.5 -25zM66 237v58h95v334l-95 -42v62l107 51h56v-405h94v-58h-257z" />
    <glyph glyph-name="threeeighths" unicode="&#x215c;" horiz-adv-x="885" 
d="M648 700l-343 -700h-68l343 700h68zM706 471q58 0 94.5 -34.5t36.5 -86.5q0 -59 -49 -92q66 -36 66 -120q0 -63 -41 -104.5t-107 -41.5t-107 41.5t-41 104.5q0 84 66 120q-49 33 -49 92q0 52 36.5 86.5t94.5 34.5zM706 282q27 0 45 18.5t18 47.5t-18 47.5t-45 18.5
t-45 -18.5t-18 -47.5t18 -47.5t45 -18.5zM706 49q35 0 57.5 25t22.5 64t-22.5 64t-57.5 25t-57.5 -25t-22.5 -64t22.5 -64t57.5 -25zM36 381l68 5q0 -48 20.5 -73.5t55.5 -25.5q33 0 54.5 21.5t21.5 64.5q0 93 -71 93q-19 0 -41 -10l-35 40l113 146h-174v58h259v-51
l-106 -134h9q48 0 81 -37t33 -106q0 -65 -40.5 -104t-103.5 -39q-66 0 -105 42.5t-39 109.5z" />
    <glyph glyph-name="fiveeighths" unicode="&#x215d;" horiz-adv-x="885" 
d="M648 700l-343 -700h-68l343 700h68zM706 471q58 0 94.5 -34.5t36.5 -86.5q0 -59 -49 -92q66 -36 66 -120q0 -63 -41 -104.5t-107 -41.5t-107 41.5t-41 104.5q0 84 66 120q-49 33 -49 92q0 52 36.5 86.5t94.5 34.5zM706 282q27 0 45 18.5t18 47.5t-18 47.5t-45 18.5
t-45 -18.5t-18 -47.5t18 -47.5t45 -18.5zM706 49q35 0 57.5 25t22.5 64t-22.5 64t-57.5 25t-57.5 -25t-22.5 -64t22.5 -64t57.5 -25zM59 453v247h245v-58h-177v-121q25 22 63 22q61 0 99 -40t38 -116q0 -74 -39 -115t-104 -41q-66 0 -105 40t-39 111l68 5v-5q0 -45 21 -69
t55 -24q33 0 54 24t21 75q0 49 -21.5 74t-53.5 25q-40 0 -65 -34h-60z" />
    <glyph glyph-name="seveneighths" unicode="&#x215e;" horiz-adv-x="885" 
d="M648 700l-343 -700h-68l343 700h68zM706 471q58 0 94.5 -34.5t36.5 -86.5q0 -59 -49 -92q66 -36 66 -120q0 -63 -41 -104.5t-107 -41.5t-107 41.5t-41 104.5q0 84 66 120q-49 33 -49 92q0 52 36.5 86.5t94.5 34.5zM706 282q27 0 45 18.5t18 47.5t-18 47.5t-45 18.5
t-45 -18.5t-18 -47.5t18 -47.5t45 -18.5zM706 49q35 0 57.5 25t22.5 64t-22.5 64t-57.5 25t-57.5 -25t-22.5 -64t22.5 -64t57.5 -25zM38 642v58h283v-46l-155 -417h-72l154 405h-210z" />
    <glyph glyph-name="uni215F" unicode="&#x215f;" horiz-adv-x="885" 
d="M648 700l-343 -700h-68l343 700h68zM66 237v58h95v334l-95 -42v62l107 51h56v-405h94v-58h-257z" />
    <glyph glyph-name="arrowleft" unicode="&#x2190;" horiz-adv-x="834" 
d="M228 364h572v-64h-572v-112l-194 144l194 144v-112z" />
    <glyph glyph-name="arrowup" unicode="&#x2191;" horiz-adv-x="834" 
d="M449 556v-594h-64v594h-112l144 194l144 -194h-112z" />
    <glyph glyph-name="arrowright" unicode="&#x2192;" horiz-adv-x="834" 
d="M34 364h572v112l194 -144l-194 -144v112h-572v64z" />
    <glyph glyph-name="arrowdown" unicode="&#x2193;" horiz-adv-x="834" 
d="M449 750v-594h112l-144 -194l-144 194h112v594h64z" />
    <glyph glyph-name="arrowboth" unicode="&#x2194;" horiz-adv-x="834" 
d="M228 364h378v112l194 -144l-194 -144v112h-378v-112l-194 144l194 144v-112z" />
    <glyph glyph-name="arrowupdn" unicode="&#x2195;" horiz-adv-x="834" 
d="M385 156v400h-112l144 194l144 -194h-112v-400h112l-144 -194l-144 194h112z" />
    <glyph glyph-name="arrowupdnbse" unicode="&#x21a8;" horiz-adv-x="834" 
d="M253 -88v54h161l-141 190h112v400h-112l144 194l144 -194h-112v-400h112l-141 -190h161v-54h-328z" />
    <glyph glyph-name="partialdiff" unicode="&#x2202;" horiz-adv-x="580" 
d="M518 471v-265q0 -99 -64 -158.5t-169 -59.5t-169.5 59.5t-64.5 158.5v24q0 99 64.5 158.5t169.5 59.5q99 0 154 -47v55q0 93 -40.5 139t-107.5 46q-50 0 -89 -30t-56 -89l-78 14q22 82 83 129t142 47q99 0 162 -64.5t63 -176.5zM285 59q67 0 110.5 40t43.5 108v116
q-24 24 -67 39t-87 15q-68 0 -111.5 -39.5t-43.5 -107.5v-24q0 -68 43.5 -107.5t111.5 -39.5z" />
    <glyph glyph-name="Delta" unicode="&#x2206;" horiz-adv-x="572" 
d="M116 70h340l-170 475zM263 700h46l258 -700h-562z" />
    <glyph glyph-name="product" unicode="&#x220f;" horiz-adv-x="616" 
d="M74 -111v851h468v-851h-80v780h-309v-780h-79z" />
    <glyph glyph-name="summation" unicode="&#x2211;" horiz-adv-x="556" 
d="M46 -45l194 365l-194 351v69h474v-71h-386l186 -336v-29l-186 -344h386v-71h-474v66z" />
    <glyph glyph-name="minus" unicode="&#x2212;" horiz-adv-x="520" 
d="M469 295h-418v61h418v-61z" />
    <glyph glyph-name="uni2215" unicode="&#x2215;" horiz-adv-x="169" 
d="M290 700l-343 -700h-68l343 700h68z" />
    <glyph glyph-name="uni2219" unicode="&#x2219;" horiz-adv-x="262" 
d="M174 375v-98h-86v98h86z" />
    <glyph glyph-name="radical" unicode="&#x221a;" horiz-adv-x="491" 
d="M286 0h-63l-159 307h-59v68h106l132 -261l168 656h75z" />
    <glyph glyph-name="infinity" unicode="&#x221e;" horiz-adv-x="758" 
d="M341 331q-40 50 -69.5 68.5t-62.5 18.5q-37 0 -60 -23.5t-23 -63.5t23 -63.5t60 -23.5q33 0 62.5 18.5t69.5 68.5zM417 331q40 -50 69.5 -68.5t62.5 -18.5q37 0 60 23.5t23 63.5t-23 63.5t-60 23.5q-33 0 -62.5 -18.5t-69.5 -68.5zM379 285q-82 -99 -173 -99
q-67 0 -107.5 39.5t-40.5 105.5t40.5 105.5t107.5 39.5q91 0 173 -99q82 99 173 99q67 0 107.5 -39.5t40.5 -105.5t-40.5 -105.5t-107.5 -39.5q-91 0 -173 99z" />
    <glyph glyph-name="orthogonal" unicode="&#x221f;" horiz-adv-x="588" 
d="M563 70v-70h-472v575h78v-505h394z" />
    <glyph glyph-name="intersection" unicode="&#x2229;" horiz-adv-x="640" 
d="M320 617q105 0 175.5 -72t70.5 -192v-353h-78v332q0 106 -45 160t-123 54t-123 -54t-45 -160v-332h-78v353q0 120 70.5 192t175.5 72z" />
    <glyph glyph-name="integral" unicode="&#x222b;" horiz-adv-x="375" 
d="M21 -220v67h35q56 0 75 24t19 88v610q0 104 39 142.5t136 38.5h29v-67h-35q-56 0 -75 -24t-19 -88v-610q0 -104 -39 -142.5t-136 -38.5h-29z" />
    <glyph glyph-name="approxequal" unicode="&#x2248;" horiz-adv-x="520" 
d="M357 345q-34 0 -63 15t-46.5 33.5t-39.5 33.5t-43 15q-63 0 -73 -89l-68 5q5 71 42.5 108t96.5 37q34 0 63 -15t46.5 -33.5t39.5 -33.5t43 -15q63 0 73 89l68 -5q-5 -71 -42.5 -108t-96.5 -37zM357 148q-34 0 -63 15t-46.5 33.5t-39.5 33.5t-43 15q-63 0 -73 -89l-68 5
q5 71 42.5 108t96.5 37q34 0 63 -15t46.5 -33.5t39.5 -33.5t43 -15q63 0 73 89l68 -5q-5 -71 -42.5 -108t-96.5 -37z" />
    <glyph glyph-name="notequal" unicode="&#x2260;" horiz-adv-x="520" 
d="M93 77l68 123h-110v61h144l71 129h-215v61h249l68 123h59l-68 -123h110v-61h-144l-71 -129h215v-61h-249l-68 -123h-59z" />
    <glyph glyph-name="equivalence" unicode="&#x2261;" horiz-adv-x="520" 
d="M469 454h-418v61h418v-61zM469 136h-418v61h418v-61zM469 295h-418v61h418v-61z" />
    <glyph glyph-name="lessequal" unicode="&#x2264;" horiz-adv-x="520" 
d="M469 0h-418v61h418v-61zM60 375l400 188v-68l-328 -152l328 -152v-68l-400 188v64z" />
    <glyph glyph-name="greaterequal" unicode="&#x2265;" horiz-adv-x="520" 
d="M469 0h-418v61h418v-61zM60 563l400 -188v-64l-400 -188v68l328 152l-328 152v68z" />
    <glyph glyph-name="house" unicode="&#x2302;" horiz-adv-x="606" 
d="M536 328v-328h-466v328l233 288zM146 67h314v239l-157 197l-157 -197v-239z" />
    <glyph glyph-name="revlogicalnot" unicode="&#x2310;" horiz-adv-x="520" 
d="M474 356v-61h-350v-167h-68v228h418z" />
    <glyph glyph-name="uni2318" unicode="&#x2318;" horiz-adv-x="809" 
d="M542 510v-59h53q42 0 67.5 19.5t25.5 52.5q0 32 -19 52t-51 20q-76 0 -76 -85zM542 199v-59q0 -85 76 -85q32 0 51 20t19 52q0 33 -25.5 52.5t-67.5 19.5h-53zM267 451v59q0 85 -76 85q-32 0 -51 -20t-19 -52q0 -33 25.5 -52.5t67.5 -19.5h53zM474 199h-139v-60
q0 -66 -37 -105.5t-105 -39.5q-63 0 -101.5 37.5t-38.5 95.5q0 63 43.5 97.5t113.5 34.5h57v132h-57q-70 0 -113.5 34.5t-43.5 97.5q0 58 38.5 95.5t101.5 37.5q68 0 105 -39.5t37 -105.5v-60h139v60q0 66 37 105.5t105 39.5q63 0 101.5 -37.5t38.5 -95.5q0 -63 -43.5 -97.5
t-113.5 -34.5h-57v-132h57q70 0 113.5 -34.5t43.5 -97.5q0 -58 -38.5 -95.5t-101.5 -37.5q-68 0 -105 39.5t-37 105.5v60zM335 259h139v132h-139v-132zM267 140v59h-53q-42 0 -67.5 -19.5t-25.5 -52.5q0 -32 19 -52t51 -20q76 0 76 85z" />
    <glyph glyph-name="lozenge" unicode="&#x25ca;" horiz-adv-x="568" 
d="M528 302l-244 -459l-244 459l244 459zM446 302l-162 304l-162 -304l162 -304z" />
    <glyph glyph-name="H18533" unicode="&#x25cf;" horiz-adv-x="1000" 
d="M162 326q0 140 99 239t239 99t239 -99t99 -239t-99 -239t-239 -99t-239 99t-99 239z" />
    <glyph glyph-name="fi" horiz-adv-x="548" 
d="M399 620v92h75v-92h-75zM189 500h285v-500h-75v433h-210v-433h-75v433h-77v67h77v31q0 104 39 142.5t136 38.5h29v-67h-35q-56 0 -75 -24t-19 -88v-33z" />
    <glyph glyph-name="fl" horiz-adv-x="583" 
d="M556 67v-67h-20q-142 0 -142 144v478q-49 22 -109 22q-57 0 -76.5 -22.5t-19.5 -84.5v-37h129v-67h-129v-433h-75v433h-77v67h77v31q0 100 38.5 140.5t126.5 40.5q65 0 115 -25v25h75v-560q0 -85 69 -85h18z" />
    <glyph glyph-name="commaaccent" horiz-adv-x="372" 
d="M188 -210h-61l40 156h79z" />
    <glyph glyph-name="zero.tnum" horiz-adv-x="524" 
d="M472 471v-242q0 -114 -57 -177.5t-153 -63.5t-153 63.5t-57 177.5v242q0 114 57 177.5t153 63.5t153 -63.5t57 -177.5zM396 239v222q0 183 -134 183t-134 -183v-222q0 -183 134 -183t134 183z" />
    <glyph glyph-name="one.tnum" horiz-adv-x="441" 
d="M67 0v68h148v552l-148 -66v73l155 73h69v-632h146v-68h-370z" />
    <glyph glyph-name="two.tnum" horiz-adv-x="517" 
d="M259 644q-57 0 -93.5 -36t-36.5 -99v-17l-76 6v12q0 87 56.5 144.5t149.5 57.5q91 0 148.5 -58t57.5 -144q0 -87 -72 -168l-242 -274h314v-68h-413v61l288 326q49 56 49 122q0 63 -36.5 99t-93.5 36z" />
    <glyph glyph-name="three.tnum" horiz-adv-x="504" 
d="M118 217v-6q0 -76 38 -115.5t96 -39.5t95.5 39.5t37.5 115.5q0 149 -128 149q-28 0 -55 -10l-44 50l186 232h-281v68h372v-65l-173 -217q6 1 17 1q79 0 130.5 -54.5t51.5 -154.5q0 -102 -56.5 -162t-152.5 -60t-153 61.5t-57 161.5z" />
    <glyph glyph-name="four.tnum" horiz-adv-x="503" 
d="M476 225v-69h-79v-156h-76v156h-292v68l286 476h82v-475h79zM113 225h208v347z" />
    <glyph glyph-name="five.tnum" horiz-adv-x="515" 
d="M50 211l76 6v-5q0 -74 36.5 -115t96.5 -41q61 0 97.5 42t36.5 123q0 83 -36 124t-95 41q-66 0 -103 -50h-76v364h350v-68h-274v-224q44 46 115 46q88 0 141.5 -60t53.5 -173q0 -111 -57 -172t-153 -61q-94 0 -151.5 59t-57.5 164z" />
    <glyph glyph-name="six.tnum" horiz-adv-x="497" 
d="M37 205q0 59 25 106l198 389h82l-150 -294q22 14 60 14q95 0 155 -62.5t60 -153.5t-60 -153.5t-155 -62.5q-96 0 -155.5 62.5t-59.5 154.5zM113 204q0 -65 39 -106.5t100 -41.5t100 41.5t39 106.5t-39 106.5t-100 41.5t-100 -41.5t-39 -106.5z" />
    <glyph glyph-name="seven.tnum" horiz-adv-x="487" 
d="M40 631v69h407v-61l-237 -639h-78l234 631h-326z" />
    <glyph glyph-name="eight.tnum" horiz-adv-x="512" 
d="M256 -12q-95 0 -155 63t-60 154q0 61 30.5 111.5t83.5 72.5q-40 19 -63.5 58t-23.5 85q0 76 53 128t135 52t135 -52t53 -128q0 -46 -23.5 -85t-63.5 -58q53 -22 83.5 -72.5t30.5 -111.5q0 -91 -60 -154t-155 -63zM256 354q-61 0 -100 -43.5t-39 -106.5t39 -106t100 -43
t100 43t39 106t-39 106.5t-100 43.5zM256 421q49 0 80.5 31.5t31.5 79.5t-31.5 80t-80.5 32t-80.5 -32t-31.5 -80t31.5 -79.5t80.5 -31.5z" />
    <glyph glyph-name="nine.tnum" horiz-adv-x="497" 
d="M461 495q0 -59 -25 -106l-198 -389h-82l150 294q-22 -14 -60 -14q-95 0 -155 62.5t-60 153.5t60 153.5t155 62.5q96 0 155.5 -62.5t59.5 -154.5zM385 496q0 65 -39 106.5t-100 41.5t-100 -41.5t-39 -106.5t39 -106.5t100 -41.5t100 41.5t39 106.5z" />
    <glyph glyph-name="parenleft.case" horiz-adv-x="330" 
d="M174 543v-385q0 -147 96 -192l-22 -69q-148 60 -148 247v413q0 187 148 247l22 -69q-96 -45 -96 -192z" />
    <glyph glyph-name="parenright.case" horiz-adv-x="330" 
d="M156 158v385q0 147 -96 192l22 69q148 -60 148 -247v-413q0 -187 -148 -247l-22 69q96 45 96 192z" />
    <glyph glyph-name="hyphen.case" horiz-adv-x="399" 
d="M348 316h-297v67h297v-67z" />
    <glyph glyph-name="at.case" horiz-adv-x="740" 
d="M483 163q54 0 85 42.5t31 121.5v86q-38 79 -120 79q-63 0 -94 -40t-31 -111v-27q0 -151 129 -151zM665 527v-189q0 -117 -49 -179.5t-145 -62.5q-91 0 -141.5 57.5t-50.5 145.5v57q0 89 47.5 146t133.5 57q46 0 83 -17.5t56 -46.5v16q0 99 -66.5 162t-162.5 63
t-162.5 -63t-66.5 -162v-324q0 -98 66.5 -161t162.5 -63q56 0 96 23l32 -55q-55 -32 -128 -32q-121 0 -208 79.5t-87 192.5v356q0 113 87 193t208 80q120 0 207.5 -80t87.5 -193z" />
    <glyph glyph-name="bracketleft.case" horiz-adv-x="321" 
d="M85 -88v876h193v-66h-119v-744h119v-66h-193z" />
    <glyph glyph-name="bracketright.case" horiz-adv-x="321" 
d="M236 788v-876h-193v66h119v744h-119v66h193z" />
    <glyph glyph-name="braceleft.case" horiz-adv-x="324" 
d="M197 239v-183q0 -77 67 -77h18v-67h-19q-71 0 -105.5 33t-34.5 108v163q0 50 -15 75t-52 25h-14v67h14q67 0 67 83v181q0 75 34.5 108t105.5 33h19v-67h-18q-67 0 -67 -77v-184q0 -86 -61 -110q61 -24 61 -111z" />
    <glyph glyph-name="braceright.case" horiz-adv-x="324" 
d="M127 56v183q0 87 61 111q-61 24 -61 110v184q0 77 -67 77h-18v67h19q71 0 105.5 -33t34.5 -108v-181q0 -83 67 -83h14v-67h-14q-37 0 -52 -25t-15 -75v-163q0 -75 -34.5 -108t-105.5 -33h-19v67h18q67 0 67 77z" />
    <glyph glyph-name="exclamdown.case" horiz-adv-x="267" 
d="M171 103v-103h-75v103l13 400h49zM171 700v-94h-75v94h75z" />
    <glyph glyph-name="guillemotleft.case" horiz-adv-x="502" 
d="M42 329v42l212 139v-64l-151 -96l151 -96v-64zM248 329v42l212 139v-64l-151 -96l151 -96v-64z" />
    <glyph glyph-name="periodcentered.case" horiz-adv-x="262" 
d="M174 399v-98h-86v98h86z" />
    <glyph glyph-name="guillemotright.case" horiz-adv-x="502" 
d="M460 371v-42l-212 -139v64l151 96l-151 96v64zM254 371v-42l-212 -139v64l151 96l-151 96v64z" />
    <glyph glyph-name="questiondown.case" horiz-adv-x="508" 
d="M225 606v94h75v-94h-75zM225 519h75v-31q0 -50 -19.5 -86.5t-71.5 -82.5q-39 -35 -54.5 -65t-15.5 -70q0 -61 32.5 -95t86.5 -34q52 0 85 32.5t40 94.5l75 -7q-9 -84 -62.5 -135.5t-138.5 -51.5q-86 0 -139.5 53.5t-53.5 140.5q0 55 21.5 95.5t65.5 80.5q41 38 57.5 66.5
t16.5 70.5v24z" />
    <glyph glyph-name="endash.case" horiz-adv-x="500" 
d="M500 317h-500v67h500v-67z" />
    <glyph glyph-name="emdash.case" horiz-adv-x="1000" 
d="M1000 317h-1000v67h1000v-67z" />
    <glyph glyph-name="bullet.case" horiz-adv-x="361" 
d="M53 350q0 53 37.5 90t90.5 37t90 -37.5t37 -89.5t-37 -89.5t-90 -37.5t-90.5 37t-37.5 90z" />
    <glyph glyph-name="guilsinglleft.case" horiz-adv-x="296" 
d="M42 329v42l212 139v-64l-151 -96l151 -96v-64z" />
    <glyph glyph-name="guilsinglright.case" horiz-adv-x="296" 
d="M254 371v-42l-212 -139v64l151 96l-151 96v64z" />
    <glyph glyph-name="zero.numerator" 
d="M34 387v163q0 75 39.5 116.5t105.5 41.5t105.5 -41.5t39.5 -116.5v-163q0 -75 -39.5 -116.5t-105.5 -41.5t-105.5 41.5t-39.5 116.5zM102 542v-147q0 -108 77 -108t77 108v147q0 108 -77 108t-77 -108z" />
    <glyph glyph-name="one.numerator" 
d="M66 237v58h95v334l-95 -42v62l107 51h56v-405h94v-58h-257z" />
    <glyph glyph-name="two.numerator" 
d="M256 570q0 38 -21 59t-53 21t-53 -21.5t-21 -58.5v-18l-69 5v14q0 59 39.5 98t103.5 39q62 0 102 -38.5t40 -98.5q0 -58 -50 -114l-143 -162h193v-58h-285v48l186 213q31 35 31 72z" />
    <glyph glyph-name="three.numerator" 
d="M36 381l68 5q0 -48 20.5 -73.5t55.5 -25.5q33 0 54.5 21.5t21.5 64.5q0 93 -71 93q-19 0 -41 -10l-35 40l113 146h-174v58h259v-51l-106 -134h9q48 0 81 -37t33 -106q0 -65 -40.5 -104t-103.5 -39q-66 0 -105 42.5t-39 109.5z" />
    <glyph glyph-name="four.numerator" 
d="M99 394h115v192zM332 394v-58h-51v-99h-67v99h-189v52l187 312h69v-306h51z" />
    <glyph glyph-name="five.numerator" 
d="M59 453v247h245v-58h-177v-121q25 22 63 22q61 0 99 -40t38 -116q0 -74 -39 -115t-104 -41q-66 0 -105 40t-39 111l68 5v-5q0 -45 21 -69t55 -24q33 0 54 24t21 75q0 49 -21.5 74t-53.5 25q-40 0 -65 -34h-60z" />
    <glyph glyph-name="six.numerator" 
d="M180 229q-66 0 -107 42t-41 104q0 39 19 75l126 250h74l-97 -189q14 6 32 6q61 0 100.5 -41t39.5 -101q0 -62 -40.5 -104t-105.5 -42zM258 374q0 39 -21.5 63t-57.5 24t-57.5 -24t-21.5 -63t21.5 -63t57.5 -24t57.5 24t21.5 63z" />
    <glyph glyph-name="seven.numerator" 
d="M38 642v58h283v-46l-155 -417h-72l154 405h-210z" />
    <glyph glyph-name="eight.numerator" 
d="M179 708q58 0 94.5 -34.5t36.5 -86.5q0 -59 -49 -92q66 -36 66 -120q0 -63 -41 -104.5t-107 -41.5t-107 41.5t-41 104.5q0 84 66 120q-49 33 -49 92q0 52 36.5 86.5t94.5 34.5zM179 519q27 0 45 18.5t18 47.5t-18 47.5t-45 18.5t-45 -18.5t-18 -47.5t18 -47.5t45 -18.5z
M179 286q35 0 57.5 25t22.5 64t-22.5 64t-57.5 25t-57.5 -25t-22.5 -64t22.5 -64t57.5 -25z" />
    <glyph glyph-name="nine.numerator" 
d="M178 708q66 0 107 -42t41 -104q0 -39 -19 -75l-126 -250h-74l97 189q-14 -6 -32 -6q-61 0 -100.5 41t-39.5 101q0 62 40.5 104t105.5 42zM100 563q0 -39 21.5 -63t57.5 -24t57.5 24t21.5 63t-21.5 63t-57.5 24t-57.5 -24t-21.5 -63z" />
    <glyph glyph-name="zero.denominator" 
d="M34 150v163q0 75 39.5 116.5t105.5 41.5t105.5 -41.5t39.5 -116.5v-163q0 -75 -39.5 -116.5t-105.5 -41.5t-105.5 41.5t-39.5 116.5zM102 305v-147q0 -108 77 -108t77 108v147q0 108 -77 108t-77 -108z" />
    <glyph glyph-name="one.denominator" 
d="M66 0v58h95v334l-95 -42v62l107 51h56v-405h94v-58h-257z" />
    <glyph glyph-name="two.denominator" 
d="M256 333q0 38 -21 59t-53 21t-53 -21.5t-21 -58.5v-18l-69 5v14q0 58 39.5 97.5t103.5 39.5q62 0 102 -38.5t40 -98.5q0 -58 -50 -114l-143 -162h193v-58h-285v48l186 213q31 35 31 72z" />
    <glyph glyph-name="three.denominator" 
d="M36 144l68 5q0 -48 20.5 -73.5t55.5 -25.5q33 0 54.5 21.5t21.5 64.5q0 93 -71 93q-19 0 -41 -10l-35 40l113 146h-174v58h259v-51l-106 -134h9q48 0 81 -37t33 -106q0 -65 -40.5 -104t-103.5 -39q-66 0 -105 42.5t-39 109.5z" />
    <glyph glyph-name="four.denominator" 
d="M99 157h115v192zM332 157v-58h-51v-99h-67v99h-189v52l187 312h69v-306h51z" />
    <glyph glyph-name="five.denominator" 
d="M59 216v247h245v-58h-177v-121q25 22 63 22q61 0 99 -40t38 -116q0 -74 -39 -115t-104 -41q-66 0 -105 40t-39 111l68 5v-5q0 -45 21 -69t55 -24q33 0 54 24t21 75q0 49 -21.5 74t-53.5 25q-40 0 -65 -34h-60z" />
    <glyph glyph-name="six.denominator" 
d="M180 -8q-66 0 -107 42t-41 104q0 39 19 75l126 250h74l-97 -189q14 6 32 6q61 0 100.5 -41t39.5 -101q0 -62 -40.5 -104t-105.5 -42zM258 137q0 39 -21.5 63t-57.5 24t-57.5 -24t-21.5 -63t21.5 -63t57.5 -24t57.5 24t21.5 63z" />
    <glyph glyph-name="seven.denominator" horiz-adv-x="340" 
d="M38 405v58h283v-46l-155 -417h-72l154 405h-210z" />
    <glyph glyph-name="eight.denominator" 
d="M179 471q58 0 94.5 -34.5t36.5 -86.5q0 -59 -49 -92q66 -36 66 -120q0 -63 -41 -104.5t-107 -41.5t-107 41.5t-41 104.5q0 84 66 120q-49 33 -49 92q0 52 36.5 86.5t94.5 34.5zM179 282q27 0 45 18.5t18 47.5t-18 47.5t-45 18.5t-45 -18.5t-18 -47.5t18 -47.5t45 -18.5z
M179 49q35 0 57.5 25t22.5 64t-22.5 64t-57.5 25t-57.5 -25t-22.5 -64t22.5 -64t57.5 -25z" />
    <glyph glyph-name="nine.denominator" 
d="M178 471q66 0 107 -42t41 -104q0 -39 -19 -75l-126 -250h-74l97 189q-14 -6 -32 -6q-61 0 -100.5 41t-39.5 101q0 62 40.5 104t105.5 42zM100 326q0 -39 21.5 -63t57.5 -24t57.5 24t21.5 63t-21.5 63t-57.5 24t-57.5 -24t-21.5 -63z" />
    </font>
</defs>
</svg>
