<?xml version="1.0" standalone="no"?>
<!DOCTYPE svg PUBLIC "-//W3C//DTD SVG 1.1//EN" "http://www.w3.org/Graphics/SVG/1.1/DTD/svg11.dtd" >
<svg xmlns="http://www.w3.org/2000/svg" xmlns:xlink="http://www.w3.org/1999/xlink" version="1.1">
<metadata>
Created by FontForge 20170731 at Tue Jul 15 12:56:58 2014
 By Aleksey,,,
Core Sans D 25 Light
</metadata>
<defs>
<font id="CoreSansD25Light" horiz-adv-x="350" >
  <font-face 
    font-family="Core Sans D 25 Light"
    font-weight="400"
    font-stretch="normal"
    units-per-em="1000"
    panose-1="2 11 3 3 3 3 2 2 2 4"
    ascent="800"
    descent="-200"
    x-height="500"
    cap-height="700"
    bbox="-361 -232 1015 993"
    underline-thickness="24"
    underline-position="-255"
    unicode-range="U+0008-FB04"
  />
<missing-glyph horiz-adv-x="500" 
d="M430 0h-360v750h360v-750zM145 65h210v620h-210v-620z" />
    <glyph glyph-name="f_f" unicode="ff" horiz-adv-x="609" 
d="M170 542v-42h229v39q0 98 35 135.5t120 37.5h31v-43h-35q-60 0 -81.5 -26.5t-21.5 -98.5v-44h138v-43h-138v-457h-48v457h-229v-457h-48v457h-83v43h83v36q0 97 33.5 136.5t111.5 39.5q40 0 68 -11l-7 -41q-24 9 -57 9q-58 0 -79.5 -25.5t-21.5 -101.5z" />
    <glyph glyph-name="f_i" unicode="fi" horiz-adv-x="525" 
d="M399 0v457h-229v-457h-48v457h-83v43h83v39q0 98 35 135.5t120 37.5h31v-43h-35q-60 0 -81.5 -26.5t-21.5 -98.5v-44h277v-500h-48zM399 639v73h48v-73h-48z" />
    <glyph glyph-name="f_l" unicode="fl" horiz-adv-x="564" 
d="M535 43v-43h-18q-123 0 -123 136v508q-50 25 -118 25q-62 0 -84 -26.5t-22 -98.5v-44h138v-43h-138v-457h-48v457h-83v43h83v39q0 97 33.5 135t119.5 38q68 0 119 -27v27h48v-570q0 -99 77 -99h16z" />
    <glyph glyph-name="f_f_i" unicode="ffi" horiz-adv-x="802" 
d="M170 542v-42h229v39q0 98 35 135.5t120 37.5h31v-43h-35q-60 0 -81.5 -26.5t-21.5 -98.5v-44h277v-500h-48v457h-229v-457h-48v457h-229v-457h-48v457h-83v43h83v36q0 97 33.5 136.5t111.5 39.5q40 0 68 -11l-7 -41q-24 9 -57 9q-58 0 -79.5 -25.5t-21.5 -101.5zM676 639
v73h48v-73h-48z" />
    <glyph glyph-name="f_f_l" unicode="ffl" horiz-adv-x="841" 
d="M812 43v-43h-18q-123 0 -123 136v508q-50 25 -118 25q-62 0 -84 -26.5t-22 -98.5v-44h138v-43h-138v-457h-48v457h-229v-457h-48v457h-83v43h83v36q0 97 33.5 136.5t111.5 39.5q40 0 68 -11l-7 -41q-24 9 -57 9q-58 0 -79.5 -25.5t-21.5 -101.5v-42h229v39q0 97 33.5 135
t119.5 38q68 0 119 -27v27h48v-570q0 -99 77 -99h16z" />
    <glyph glyph-name=".notdef" horiz-adv-x="500" 
d="M430 0h-360v750h360v-750zM145 65h210v620h-210v-620z" />
    <glyph glyph-name=".null" horiz-adv-x="0" 
 />
    <glyph glyph-name=".null" horiz-adv-x="0" 
 />
    <glyph glyph-name=".null" horiz-adv-x="0" 
 />
    <glyph glyph-name="nonmarkingreturn" horiz-adv-x="333" 
 />
    <glyph glyph-name="CR" unicode="&#x9;" horiz-adv-x="237" 
 />
    <glyph glyph-name="CR" unicode="&#xd;" horiz-adv-x="237" 
 />
    <glyph glyph-name="space" unicode=" " horiz-adv-x="260" 
 />
    <glyph glyph-name="exclam" unicode="!" horiz-adv-x="234" 
d="M141 700v-105l-7 -412h-34l-7 412v105h48zM141 79v-79h-48v79h48z" />
    <glyph glyph-name="quotedbl" unicode="&#x22;" horiz-adv-x="348" 
d="M91 527l-5 173h44l-5 -173h-34zM223 527l-5 173h44l-5 -173h-34z" />
    <glyph glyph-name="numbersign" unicode="#" horiz-adv-x="675" 
d="M597 200h-139l-43 -200h-49l43 200h-210l-43 -200h-49l43 200h-106v42h115l48 216h-129v42h138l44 200h49l-44 -200h210l44 200h49l-44 -200h107v-42h-116l-48 -216h130v-42zM256 458l-48 -216h210l48 216h-210z" />
    <glyph glyph-name="dollar" unicode="$" horiz-adv-x="568" 
d="M522 178q0 -79 -54.5 -132t-153.5 -57v-77h-44v77q-86 7 -144.5 57.5t-80.5 131.5l51 9q19 -65 64 -105.5t110 -47.5v304l-16 3q-190 35 -190 190q0 73 54.5 126.5t151.5 54.5v75h44v-78q74 -10 124 -56.5t68 -119.5l-50 -9q-31 119 -142 139v-287l8 -1q104 -19 152 -68
t48 -129zM314 330v-297q74 5 116 44.5t42 99.5q0 64 -38.5 101.5t-119.5 51.5zM114 532q0 -120 147 -146l9 -2v283q-74 -1 -115 -39.5t-41 -95.5z" />
    <glyph glyph-name="percent" unicode="%" horiz-adv-x="770" 
d="M542 700l-271 -700h-43l271 700h43zM268 494v73q0 52 -23 79t-60 27t-60 -27t-23 -79v-73q0 -52 23 -79t60 -27t60 27t23 79zM310 574v-87q0 -59 -33 -98.5t-91 -39.5q-59 0 -92.5 39.5t-33.5 98.5v87q0 59 33.5 98.5t92.5 39.5q58 0 91 -39.5t33 -98.5zM502 206v-73
q0 -52 23 -79t60 -27t60 27t23 79v73q0 52 -23 79t-60 27t-60 -27t-23 -79zM460 126v87q0 59 33 98.5t91 39.5q59 0 92.5 -39.5t33.5 -98.5v-87q0 -59 -33.5 -98.5t-92.5 -39.5q-58 0 -91 39.5t-33 98.5z" />
    <glyph glyph-name="ampersand" unicode="&#x26;" horiz-adv-x="633" 
d="M415 579q0 -51 -28 -93t-87 -89l-6 -5l192 -227q41 80 46 194l50 -2q-6 -137 -63 -231l107 -126h-61l-73 86q-80 -98 -212 -98q-93 0 -150 50t-57 129q0 55 35 107.5t117 118.5l4 3q-55 66 -74.5 104.5t-19.5 78.5q0 56 39 94t101 38t101 -38t39 -94zM281 33
q110 0 179 91l-203 239l-7 -6q-68 -54 -97.5 -98t-29.5 -90q0 -64 43 -100t115 -36zM183 576q0 -31 16 -61t66 -90l6 5q96 77 96 146q0 41 -25.5 66.5t-66.5 25.5t-66.5 -25.5t-25.5 -66.5z" />
    <glyph glyph-name="quotesingle" unicode="'" horiz-adv-x="216" 
d="M91 527l-5 173h44l-5 -173h-34z" />
    <glyph glyph-name="parenleft" unicode="(" horiz-adv-x="344" 
d="M167 557v-423q0 -82 23.5 -127t73.5 -71l-14 -44q-66 32 -98 87t-32 145v443q0 90 32 145t98 87l14 -44q-50 -26 -73.5 -71t-23.5 -127z" />
    <glyph glyph-name="parenright" unicode=")" horiz-adv-x="344" 
d="M177 134v423q0 82 -23.5 127t-73.5 71l14 44q66 -32 98 -87t32 -145v-443q0 -90 -32 -145t-98 -87l-14 44q50 26 73.5 71t23.5 127z" />
    <glyph glyph-name="asterisk" unicode="*" horiz-adv-x="510" 
d="M274 293l3 -179h-44l3 179l-154 -92l-22 38l157 87l-157 87l22 38l154 -92l-3 179h44l-3 -179l154 92l22 -38l-157 -87l157 -87l-22 -38z" />
    <glyph glyph-name="plus" unicode="+" horiz-adv-x="510" 
d="M233 114v192h-180v40h180v192h44v-192h180v-40h-180v-192h-44z" />
    <glyph glyph-name="comma" unicode="," horiz-adv-x="260" 
d="M157 81v-94q0 -66 -54 -80v29q26 9 26 50v14h-26v81h54z" />
    <glyph glyph-name="hyphen" unicode="-" horiz-adv-x="387" 
d="M334 304h-281v44h281v-44z" />
    <glyph glyph-name="period" unicode="." horiz-adv-x="260" 
d="M157 81v-81h-54v81h54z" />
    <glyph glyph-name="slash" unicode="/" horiz-adv-x="354" 
d="M354 783l-304 -876h-50l304 876h50z" />
    <glyph glyph-name="zero" unicode="0" horiz-adv-x="520" 
d="M464 471v-242q0 -116 -56.5 -178.5t-147.5 -62.5t-147.5 62.5t-56.5 178.5v242q0 116 56.5 178.5t147.5 62.5t147.5 -62.5t56.5 -178.5zM414 235v230q0 102 -42 152t-112 50t-112 -50t-42 -152v-230q0 -102 42 -152t112 -50t112 50t42 152z" />
    <glyph glyph-name="one" unicode="1" horiz-adv-x="520" 
d="M105 0v45h156v602l-156 -72v50l161 75h45v-655h154v-45h-360z" />
    <glyph glyph-name="two" unicode="2" horiz-adv-x="520" 
d="M260 667q-64 0 -107.5 -40.5t-43.5 -108.5v-15l-50 4v12q0 83 56.5 138t144.5 55t144.5 -55t56.5 -138q0 -49 -17 -88.5t-56 -83.5l-265 -302h338v-45h-403v41l295 336q58 66 58 141q0 68 -43.5 108.5t-107.5 40.5z" />
    <glyph glyph-name="three" unicode="3" horiz-adv-x="520" 
d="M107 210v-4q0 -85 43.5 -129t109.5 -44q65 0 109 44t44 129q0 89 -42.5 129.5t-106.5 40.5q-34 0 -61 -11l-29 34l202 256h-298v45h360v-43l-195 -246q17 5 36 5q78 0 131 -53.5t53 -156.5q0 -102 -56.5 -160t-146.5 -58t-146.5 58t-56.5 160z" />
    <glyph glyph-name="four" unicode="4" horiz-adv-x="520" 
d="M476 210v-45h-82v-165h-50v165h-298v42l299 493h49v-490h82zM102 210h242v398z" />
    <glyph glyph-name="five" unicode="5" horiz-adv-x="520" 
d="M96 344v356h337v-45h-287v-259q48 50 127 50q86 0 140 -59t54 -170t-57 -170t-147 -59q-88 0 -145.5 57t-57.5 161l50 4v-5q0 -83 44 -127.5t109 -44.5q67 0 110.5 46t43.5 138t-41.5 138t-104.5 46q-79 0 -125 -57h-50z" />
    <glyph glyph-name="six" unicode="6" horiz-adv-x="520" 
d="M262 -12q-93 0 -151 61t-58 151q0 61 28 113l208 387h52l-166 -313q31 23 87 23q93 0 151 -60.5t58 -149.5q0 -90 -58 -151t-151 -61zM262 33q70 0 114.5 47.5t44.5 118.5t-44.5 118.5t-114.5 47.5t-114.5 -47.5t-44.5 -118.5t44.5 -118.5t114.5 -47.5z" />
    <glyph glyph-name="seven" unicode="7" horiz-adv-x="520" 
d="M64 655v45h393v-40l-244 -660h-52l243 655h-340z" />
    <glyph glyph-name="eight" unicode="8" horiz-adv-x="520" 
d="M260 -12q-93 0 -151 61.5t-58 150.5q0 65 32.5 117t92.5 74q-46 18 -70.5 58.5t-24.5 89.5q0 72 50.5 122.5t128.5 50.5t128.5 -50.5t50.5 -122.5q0 -49 -24.5 -89.5t-70.5 -58.5q60 -22 92.5 -74t32.5 -117q0 -89 -58 -150.5t-151 -61.5zM260 667q-55 0 -92 -36t-37 -92
t37 -91.5t92 -35.5t92 35.5t37 91.5t-37 92t-92 36zM260 33q71 0 115 48t44 119t-44 119t-115 48t-115 -48t-44 -119t44 -119t115 -48z" />
    <glyph glyph-name="nine" unicode="9" horiz-adv-x="520" 
d="M258 712q93 0 151 -61t58 -151q0 -61 -28 -113l-208 -387h-52l166 313q-31 -23 -87 -23q-93 0 -151 60.5t-58 149.5q0 90 58 151t151 61zM258 667q-70 0 -114.5 -47.5t-44.5 -118.5t44.5 -118.5t114.5 -47.5t114.5 47.5t44.5 118.5t-44.5 118.5t-114.5 47.5z" />
    <glyph glyph-name="colon" unicode=":" horiz-adv-x="260" 
d="M157 81v-81h-54v81h54zM157 549v-82h-54v82h54z" />
    <glyph glyph-name="semicolon" unicode=";" horiz-adv-x="260" 
d="M157 549v-82h-54v82h54zM157 81v-94q0 -66 -54 -80v29q26 9 26 50v14h-26v81h54z" />
    <glyph glyph-name="less" unicode="&#x3c;" horiz-adv-x="510" 
d="M450 114l-390 191v42l390 191v-44l-345 -168l345 -168v-44z" />
    <glyph glyph-name="equal" unicode="=" horiz-adv-x="510" 
d="M457 408h-404v40h404v-40zM457 204h-404v40h404v-40z" />
    <glyph glyph-name="greater" unicode="&#x3e;" horiz-adv-x="510" 
d="M450 305l-390 -191v44l345 168l-345 168v44l390 -191v-42z" />
    <glyph glyph-name="question" unicode="?" horiz-adv-x="495" 
d="M260 79v-79h-48v79h48zM260 181h-48v30q0 46 20.5 83t71.5 82q41 37 58 71t17 76q0 69 -38.5 107.5t-99.5 38.5q-58 0 -95.5 -36t-47.5 -106l-48 4q10 85 61.5 133t130.5 48q81 0 133 -51.5t52 -136.5q0 -94 -86 -175q-47 -43 -64 -72.5t-17 -71.5v-24z" />
    <glyph glyph-name="at" unicode="@" horiz-adv-x="736" 
d="M480 51q63 0 98 48t35 140v91q-42 95 -137 95q-69 0 -105 -45t-36 -121v-42q0 -76 37 -121t108 -45zM656 438v-188q0 -242 -186 -242q-84 0 -133 56t-49 144v60q0 88 48 144t133 56q47 0 85.5 -21t58.5 -54v35q0 105 -72 174.5t-173 69.5t-173 -69.5t-72 -174.5v-334
q0 -104 72 -173.5t173 -69.5q56 0 94 21l21 -35q-48 -26 -115 -26q-118 0 -203 80t-85 193v354q0 114 85 194t203 80t203 -80t85 -194z" />
    <glyph glyph-name="A" unicode="A" horiz-adv-x="548" 
d="M249 700h50l242 -700h-53l-63 184h-303l-62 -184h-53zM274 631l-136 -402h272z" />
    <glyph glyph-name="B" unicode="B" horiz-adv-x="571" 
d="M318 0h-239v700h214q90 0 150.5 -45t60.5 -136q0 -121 -104 -155q58 -16 91.5 -59t33.5 -114q0 -95 -58 -143t-149 -48zM475 192q0 72 -43.5 109.5t-123.5 37.5h-179v-294h179q80 0 123.5 37.5t43.5 109.5zM129 384h167q76 0 117 34.5t41 100.5q0 136 -172 136h-153v-271
z" />
    <glyph glyph-name="C" unicode="C" horiz-adv-x="576" 
d="M56 263v174q0 123 65.5 199t171.5 76q94 0 157.5 -57.5t77.5 -154.5l-50 -8q-13 84 -62 129.5t-123 45.5q-85 0 -136 -63.5t-51 -173.5v-160q0 -110 51 -173.5t136 -63.5q74 0 123 45.5t62 129.5l50 -8q-14 -97 -77.5 -154.5t-157.5 -57.5q-106 0 -171.5 76t-65.5 199z
" />
    <glyph glyph-name="D" unicode="D" horiz-adv-x="586" 
d="M474 270v160q0 110 -52.5 167.5t-141.5 57.5h-151v-610h151q89 0 141.5 57.5t52.5 167.5zM524 437v-174q0 -124 -64.5 -193.5t-172.5 -69.5h-208v700h208q108 0 172.5 -69.5t64.5 -193.5z" />
    <glyph glyph-name="E" unicode="E" horiz-adv-x="534" 
d="M481 0h-402v700h402v-45h-352v-271h313v-45h-313v-294h352v-45z" />
    <glyph glyph-name="F" unicode="F" horiz-adv-x="525" 
d="M129 0h-50v700h402v-45h-352v-280h323v-45h-323v-330z" />
    <glyph glyph-name="G" unicode="G" horiz-adv-x="587" 
d="M295 33q88 0 138.5 60.5t50.5 168.5v43h-183v45h233v-93q0 -124 -64.5 -196.5t-174.5 -72.5q-108 0 -173.5 76t-65.5 199v174q0 123 65.5 199t171.5 76q94 0 157.5 -57.5t77.5 -154.5l-50 -8q-13 84 -62 129.5t-123 45.5q-85 0 -136 -63.5t-51 -173.5v-160
q0 -110 51 -173.5t138 -63.5z" />
    <glyph glyph-name="H" unicode="H" horiz-adv-x="612" 
d="M483 0v337h-354v-337h-50v700h50v-318h354v318h50v-700h-50z" />
    <glyph glyph-name="I" unicode="I" horiz-adv-x="208" 
d="M129 700v-700h-50v700h50z" />
    <glyph glyph-name="J" unicode="J" horiz-adv-x="491" 
d="M372 219v481h50v-487q0 -111 -54.5 -168t-144.5 -57q-73 0 -125 40t-76 117l50 8q41 -120 151 -120q66 0 107.5 45.5t41.5 140.5z" />
    <glyph glyph-name="K" unicode="K" horiz-adv-x="566" 
d="M501 0l-226 362l-146 -94v-268h-50v700h50v-376l148 95q100 65 135 125.5t35 146.5v9h50v-9q0 -99 -39.5 -167.5t-142.5 -135.5l243 -388h-57z" />
    <glyph glyph-name="L" unicode="L" horiz-adv-x="498" 
d="M480 45v-45h-401v700h50v-655h351z" />
    <glyph glyph-name="M" unicode="M" horiz-adv-x="746" 
d="M394 200h-42l-223 401v-601h-50v700h47l247 -444l247 444h47v-700h-50v601z" />
    <glyph glyph-name="N" unicode="N" horiz-adv-x="640" 
d="M79 700h49l383 -612v612h50v-700h-49l-383 612v-612h-50v700z" />
    <glyph glyph-name="O" unicode="O" horiz-adv-x="586" 
d="M293 -12q-106 0 -171.5 76t-65.5 199v174q0 123 65.5 199t171.5 76t171.5 -76t65.5 -199v-174q0 -123 -65.5 -199t-171.5 -76zM293 33q85 0 136 63.5t51 173.5v160q0 110 -51 173.5t-136 63.5t-136 -63.5t-51 -173.5v-160q0 -110 51 -173.5t136 -63.5z" />
    <glyph glyph-name="P" unicode="P" horiz-adv-x="573" 
d="M315 296h-186v-296h-50v700h236q89 0 150.5 -52.5t61.5 -149.5t-61.5 -149.5t-150.5 -52.5zM477 498q0 77 -47.5 117t-124.5 40h-176v-314h176q77 0 124.5 40t47.5 117z" />
    <glyph glyph-name="Q" unicode="Q" horiz-adv-x="578" 
d="M293 -12q-106 0 -171.5 76t-65.5 199v174q0 123 65.5 199t171.5 76t171.5 -76t65.5 -199v-174q0 -108 -52 -182l82 -70l-28 -31l-81 69q-63 -61 -158 -61zM415 80l-86 74l28 31l84 -72q39 61 39 157v160q0 110 -51 173.5t-136 63.5t-136 -63.5t-51 -173.5v-160
q0 -110 51 -173.5t136 -63.5q73 0 122 47z" />
    <glyph glyph-name="R" unicode="R" horiz-adv-x="573" 
d="M319 306h-190v-306h-50v700h236q89 0 150.5 -51t61.5 -146q0 -80 -44 -129t-114 -63l180 -311h-55zM477 503q0 74 -47.5 113t-124.5 39h-176v-304h176q77 0 124.5 39t47.5 113z" />
    <glyph glyph-name="S" unicode="S" horiz-adv-x="568" 
d="M522 178q0 -83 -59.5 -136.5t-166.5 -53.5q-96 0 -161.5 51.5t-89.5 138.5l51 9q21 -72 73 -113t127 -41q82 0 129 40.5t47 103.5q0 64 -37.5 101t-117.5 51l-61 11q-192 34 -192 191q0 74 56 127.5t155 53.5q90 0 150.5 -48.5t80.5 -130.5l-50 -9q-16 64 -62 103.5
t-119 39.5q-76 0 -118.5 -38.5t-42.5 -96.5q0 -120 147 -146l61 -11q104 -19 152 -68t48 -129z" />
    <glyph glyph-name="T" unicode="T" horiz-adv-x="500" 
d="M17 700h466v-45h-208v-655h-50v655h-208v45z" />
    <glyph glyph-name="U" unicode="U" horiz-adv-x="598" 
d="M299 -12q-108 0 -168.5 70.5t-60.5 193.5v448h50v-437q0 -113 46.5 -171.5t132.5 -58.5t132.5 58.5t46.5 171.5v437h50v-448q0 -123 -60.5 -193.5t-168.5 -70.5z" />
    <glyph glyph-name="V" unicode="V" horiz-adv-x="556" 
d="M303 0h-50l-242 700h52l215 -623l215 623h52z" />
    <glyph glyph-name="W" unicode="W" horiz-adv-x="890" 
d="M419 700h52l175 -613l173 613h54l-201 -700h-51l-176 615l-176 -615h-51l-201 700h54l173 -613z" />
    <glyph glyph-name="X" unicode="X" horiz-adv-x="579" 
d="M501 0l-212 326l-211 -326h-56l236 365l-216 335h56l191 -295l192 295h56l-217 -335l237 -365h-56z" />
    <glyph glyph-name="Y" unicode="Y" horiz-adv-x="546" 
d="M298 0h-50v321l-231 379h56l200 -327l200 327h56l-231 -379v-321z" />
    <glyph glyph-name="Z" unicode="Z" horiz-adv-x="506" 
d="M459 700v-39l-354 -616h356v-45h-416v39l354 616h-343v45h403z" />
    <glyph glyph-name="bracketleft" unicode="[" horiz-adv-x="312" 
d="M91 -93v876h176v-42h-130v-792h130v-42h-176z" />
    <glyph glyph-name="backslash" unicode="\" horiz-adv-x="354" 
d="M304 -93l-304 876h50l304 -876h-50z" />
    <glyph glyph-name="bracketright" unicode="]" horiz-adv-x="312" 
d="M221 783v-876h-176v42h130v792h-130v42h176z" />
    <glyph glyph-name="asciicircum" unicode="^" horiz-adv-x="412" 
d="M230 700l148 -197h-50l-122 161l-122 -161h-50l148 197h48z" />
    <glyph glyph-name="underscore" unicode="_" horiz-adv-x="500" 
d="M0 -155v36h500v-36h-500z" />
    <glyph glyph-name="grave" unicode="`" horiz-adv-x="364" 
d="M235 569l-108 161h53l98 -161h-43z" />
    <glyph glyph-name="a" unicode="a" horiz-adv-x="501" 
d="M216 31q115 0 172 99v110h-157q-68 0 -103 -29.5t-35 -76.5v-5q0 -44 33 -71t90 -27zM251 469q-92 0 -140 -84l-47 13q28 53 77 83.5t112 30.5q85 0 134 -52.5t49 -138.5v-321h-48v70q-55 -82 -176 -82q-76 0 -121.5 38t-45.5 98v11q0 63 48.5 104.5t152.5 41.5h142v36
q0 74 -36 113t-101 39z" />
    <glyph glyph-name="b" unicode="b" horiz-adv-x="503" 
d="M404 209v82q0 178 -142 178q-48 0 -86 -27t-60 -72v-240q22 -45 60 -72t86 -27q142 0 142 178zM452 299v-98q0 -98 -49 -155.5t-134 -57.5q-103 0 -153 80v-68h-48v712h48v-280q50 80 153 80q85 0 134 -57.5t49 -155.5z" />
    <glyph glyph-name="c" unicode="c" horiz-adv-x="488" 
d="M99 291v-82q0 -80 42.5 -129t111.5 -49q57 0 95 32t51 89l48 -8q-16 -70 -66.5 -113t-127.5 -43q-91 0 -146.5 60.5t-55.5 152.5v98q0 92 55.5 152.5t146.5 60.5q77 0 127.5 -43t66.5 -113l-48 -8q-13 57 -51 89t-95 32q-69 0 -111.5 -49t-42.5 -129z" />
    <glyph glyph-name="d" unicode="d" horiz-adv-x="503" 
d="M99 291v-82q0 -178 142 -178q48 0 86 27t60 72v240q-22 45 -60 72t-86 27q-142 0 -142 -178zM51 201v98q0 98 49 155.5t134 57.5q103 0 153 -80v280h48v-712h-48v68q-50 -80 -153 -80q-85 0 -134 57.5t-49 155.5z" />
    <glyph glyph-name="e" unicode="e" horiz-adv-x="506" 
d="M396 136l49 -8q-20 -64 -70.5 -102t-123.5 -38q-92 0 -146 60t-54 153v98q0 92 55.5 152.5t146.5 60.5t146.5 -60.5t55.5 -152.5v-66h-356v-24q0 -81 41 -129.5t111 -48.5q53 0 91 28t54 77zM99 272h308v19q0 80 -42.5 129t-111.5 49t-111.5 -49t-42.5 -129v-19z" />
    <glyph glyph-name="f" unicode="f" horiz-adv-x="332" 
d="M308 712v-43h-35q-60 0 -81.5 -26.5t-21.5 -98.5v-44h138v-43h-138v-457h-48v457h-83v43h83v39q0 98 35 135.5t120 37.5h31z" />
    <glyph glyph-name="g" unicode="g" horiz-adv-x="503" 
d="M99 291v-82q0 -178 142 -178q48 0 86 27t60 72v240q-22 45 -60 72t-86 27q-142 0 -142 -178zM387 -14v82q-50 -80 -153 -80q-85 0 -134 57.5t-49 155.5v98q0 98 49 155.5t134 57.5q103 0 153 -80v68h48v-519q0 -96 -47 -154.5t-138 -58.5q-62 0 -108 32.5t-68 91.5l47 11
q36 -92 129 -92q67 0 102 46.5t35 128.5z" />
    <glyph glyph-name="h" unicode="h" horiz-adv-x="516" 
d="M451 0h-48v293q0 91 -31 133.5t-98 42.5q-50 0 -91 -28t-67 -79v-362h-48v712h48v-288q60 88 167 88q81 0 124.5 -54t43.5 -151v-307z" />
    <glyph glyph-name="i" unicode="i" horiz-adv-x="204" 
d="M78 0v500h48v-500h-48zM78 639v73h48v-73h-48z" />
    <glyph glyph-name="j" unicode="j" horiz-adv-x="214" 
d="M88 639v73h48v-73h-48zM88 -63v563h48v-569q0 -77 -32 -110t-100 -33h-24v43h25q44 0 63.5 24t19.5 82z" />
    <glyph glyph-name="k" unicode="k" horiz-adv-x="458" 
d="M412 490q0 -66 -30.5 -112t-99.5 -91l176 -287h-54l-160 263l-128 -83v-180h-48v712h48v-478l144 93q56 36 80 73.5t24 90.5v9h48v-10z" />
    <glyph glyph-name="l" unicode="l" horiz-adv-x="249" 
d="M220 43v-43h-18q-123 0 -123 136v576h48v-570q0 -99 77 -99h16z" />
    <glyph glyph-name="m" unicode="m" horiz-adv-x="851" 
d="M451 0h-48v293q0 91 -31 133.5t-98 42.5q-50 0 -91 -28t-67 -79v-362h-48v500h48v-76q60 88 167 88q112 0 151 -102q70 102 184 102q81 0 124.5 -54t43.5 -151v-307h-48v293q0 91 -31 133.5t-98 42.5q-47 0 -91 -29t-71 -78q4 -23 4 -55v-307z" />
    <glyph glyph-name="n" unicode="n" horiz-adv-x="516" 
d="M451 0h-48v293q0 91 -31 133.5t-98 42.5q-50 0 -91 -28t-67 -79v-362h-48v500h48v-76q60 88 167 88q81 0 124.5 -54t43.5 -151v-307z" />
    <glyph glyph-name="o" unicode="o" horiz-adv-x="506" 
d="M253 -12q-91 0 -146.5 60.5t-55.5 152.5v98q0 92 55.5 152.5t146.5 60.5t146.5 -60.5t55.5 -152.5v-98q0 -92 -55.5 -152.5t-146.5 -60.5zM253 31q69 0 111.5 49t42.5 129v82q0 80 -42.5 129t-111.5 49t-111.5 -49t-42.5 -129v-82q0 -80 42.5 -129t111.5 -49z" />
    <glyph glyph-name="p" unicode="p" horiz-adv-x="503" 
d="M404 209v82q0 178 -142 178q-48 0 -86 -27t-60 -72v-240q22 -45 60 -72t86 -27q142 0 142 178zM452 299v-98q0 -98 -49 -155.5t-134 -57.5q-103 0 -153 80v-286h-48v718h48v-68q50 80 153 80q85 0 134 -57.5t49 -155.5z" />
    <glyph glyph-name="q" unicode="q" horiz-adv-x="503" 
d="M99 291v-82q0 -178 142 -178q48 0 86 27t60 72v240q-22 45 -60 72t-86 27q-142 0 -142 -178zM51 201v98q0 98 49 155.5t134 57.5q103 0 153 -80v68h48v-718h-48v286q-50 -80 -153 -80q-85 0 -134 57.5t-49 155.5z" />
    <glyph glyph-name="r" unicode="r" horiz-adv-x="357" 
d="M339 501v-44q-30 12 -67 12q-98 0 -156 -105v-364h-48v500h48v-74q56 86 159 86q37 0 64 -11z" />
    <glyph glyph-name="s" unicode="s" horiz-adv-x="473" 
d="M428 131q0 -64 -47 -103.5t-127 -39.5q-76 0 -130 37t-76 108l49 9q16 -53 58.5 -82t97.5 -29q58 0 92.5 28t34.5 72t-25.5 68t-85.5 33l-52 8q-156 24 -156 137q0 59 46.5 97t117.5 38q73 0 121.5 -34.5t68.5 -97.5l-50 -9q-13 46 -50 72t-90 26q-50 0 -83 -25.5
t-33 -66.5q0 -78 119 -96l52 -8q148 -22 148 -142z" />
    <glyph glyph-name="t" unicode="t" horiz-adv-x="327" 
d="M153 500h132v-43h-132v-316q0 -98 77 -98h63v-43h-65q-123 0 -123 136v321h-83v43h83v142h48v-142z" />
    <glyph glyph-name="u" unicode="u" horiz-adv-x="516" 
d="M64 500h48v-293q0 -91 31 -133.5t98 -42.5q50 0 91 28t67 79v362h48v-500h-48v76q-60 -88 -167 -88q-81 0 -124.5 54t-43.5 151v307z" />
    <glyph glyph-name="v" unicode="v" horiz-adv-x="460" 
d="M255 0h-50l-198 500h50l173 -433l173 433h50z" />
    <glyph glyph-name="w" unicode="w" horiz-adv-x="772" 
d="M361 500h50l140 -437l160 437h50l-184 -500h-52l-139 433l-139 -433h-52l-184 500h50l160 -437z" />
    <glyph glyph-name="x" unicode="x" horiz-adv-x="446" 
d="M66 0h-55l183 259l-170 241h55l144 -205l144 205h55l-171 -241l184 -259h-55l-157 222z" />
    <glyph glyph-name="y" unicode="y" horiz-adv-x="463" 
d="M174 -108l43 114l-207 494h51l179 -432l162 432h51l-231 -611q-22 -58 -53.5 -79t-84.5 -21h-25v43h24q69 0 91 60z" />
    <glyph glyph-name="z" unicode="z" horiz-adv-x="473" 
d="M421 500v-39l-318 -418h329v-43h-391v39l318 418h-306v43h368z" />
    <glyph glyph-name="braceleft" unicode="{" horiz-adv-x="307" 
d="M45 324v42h8q74 0 74 96v192q0 129 119 129h16v-42h-16q-73 0 -73 -85v-196q0 -89 -60 -115q60 -26 60 -115v-196q0 -85 73 -85h16v-42h-16q-119 0 -119 129v192q0 96 -74 96h-8z" />
    <glyph glyph-name="bar" unicode="|" horiz-adv-x="274" 
d="M113 -93v876h48v-876h-48z" />
    <glyph glyph-name="braceright" unicode="}" horiz-adv-x="307" 
d="M262 366v-42h-8q-74 0 -74 -96v-192q0 -129 -119 -129h-16v42h16q73 0 73 85v196q0 89 60 115q-60 26 -60 115v196q0 85 -73 85h-16v42h16q119 0 119 -129v-192q0 -96 74 -96h8z" />
    <glyph glyph-name="asciitilde" unicode="~" horiz-adv-x="510" 
d="M444 390l44 -3q-8 -62 -42.5 -95t-86.5 -33q-33 0 -63 16.5t-49 35.5t-44.5 35.5t-50.5 16.5q-71 0 -86 -92l-44 3q8 62 42.5 95t86.5 33q33 0 63 -16t49 -36t44.5 -36t50.5 -16q71 0 86 92z" />
    <glyph glyph-name="uni00A0" unicode="&#xa0;" horiz-adv-x="260" 
 />
    <glyph glyph-name="exclamdown" unicode="&#xa1;" horiz-adv-x="234" 
d="M93 -200v105l7 412h34l7 -412v-105h-48zM93 421v79h48v-79h-48z" />
    <glyph glyph-name="cent" unicode="&#xa2;" horiz-adv-x="488" 
d="M227 510v79h42v-78q70 -4 116 -46.5t62 -108.5l-48 -8q-12 52 -46 84t-84 36v-436q51 4 84.5 35.5t45.5 84.5l48 -8q-15 -67 -61.5 -109t-116.5 -46v-78h-42v79q-81 8 -128.5 67t-47.5 144v98q0 85 47.5 143.5t128.5 67.5zM99 291v-82q0 -72 34.5 -119.5t93.5 -56.5v434
q-59 -10 -93.5 -57t-34.5 -119z" />
    <glyph glyph-name="sterling" unicode="&#xa3;" horiz-adv-x="572" 
d="M519 526l-49 -9q-29 150 -154 150q-67 0 -104.5 -47t-37.5 -140v-130h219v-40h-219v-70q0 -122 -62 -195h414v-45h-474v40q72 70 72 193v77h-73v40h73v140q0 104 50.5 163t141.5 59q166 0 203 -186z" />
    <glyph glyph-name="currency" unicode="&#xa4;" horiz-adv-x="638" 
d="M537 327q0 -79 -48 -138l85 -86l-31 -32l-86 87q-59 -46 -138 -46t-138 46l-86 -87l-31 32l85 86q-48 59 -48 138t48 138l-85 86l31 32l86 -87q59 46 138 46t138 -46l86 87l31 -32l-85 -86q48 -59 48 -138zM492 327q0 76 -49 125.5t-124 49.5t-124 -49.5t-49 -125.5
t49 -125.5t124 -49.5t124 49.5t49 125.5z" />
    <glyph glyph-name="yen" unicode="&#xa5;" horiz-adv-x="546" 
d="M91 247h157v74l-3 4h-154v34h134l-208 341h56l200 -327l200 327h56l-208 -341h134v-34h-155l-2 -4v-74h157v-34h-157v-213h-50v213h-157v34z" />
    <glyph glyph-name="brokenbar" unicode="&#xa6;" horiz-adv-x="274" 
d="M161 395h-48v388h48v-388zM113 295h48v-388h-48v388z" />
    <glyph glyph-name="section" unicode="&#xa7;" horiz-adv-x="471" 
d="M420 268q0 -101 -77 -153q67 -40 67 -120q0 -63 -44 -104t-117 -41q-144 0 -185 133l49 8q28 -98 136 -98q53 0 83 28.5t30 74.5q0 42 -25 66.5t-86 40.5l-56 15q-75 20 -109.5 61t-34.5 115q0 101 77 153q-67 40 -67 120q0 63 44 104t117 41q144 0 185 -133l-49 -8
q-28 98 -136 98q-53 0 -83 -28.5t-30 -74.5q0 -42 25 -66.5t86 -40.5l56 -15q75 -20 109.5 -61t34.5 -115zM206 416q-12 3 -38 12q-69 -48 -69 -134q0 -54 25.5 -85.5t84.5 -47.5l56 -15q22 -6 38 -13q69 50 69 135q0 54 -25.5 85.5t-84.5 47.5z" />
    <glyph glyph-name="dieresis" unicode="&#xa8;" horiz-adv-x="364" 
d="M119 698v-97h-50v97h50zM295 698v-97h-50v97h50z" />
    <glyph glyph-name="copyright" unicode="&#xa9;" horiz-adv-x="746" 
d="M266 390v-80q0 -71 31 -105.5t82 -34.5q90 0 109 101l41 -6q-9 -60 -48 -96t-102 -36q-72 0 -113 45.5t-41 126.5v90q0 81 41 126.5t113 45.5q63 0 102 -36t48 -96l-41 -6q-19 101 -109 101q-51 0 -82 -34.5t-31 -105.5zM373 17q134 0 211.5 84t77.5 232v34
q0 148 -77.5 232t-211.5 84t-211.5 -84t-77.5 -232v-34q0 -148 77.5 -232t211.5 -84zM373 712q144 0 232.5 -90.5t88.5 -246.5v-50q0 -156 -88.5 -246.5t-232.5 -90.5t-232.5 90.5t-88.5 246.5v50q0 156 88.5 246.5t232.5 90.5z" />
    <glyph glyph-name="ordfeminine" unicode="&#xaa;" horiz-adv-x="386" 
d="M172 360q71 0 114 63v85h-100q-49 0 -74 -20.5t-25 -55.5v-4q0 -29 23 -48.5t62 -19.5zM195 672q-66 0 -98 -61l-40 10q43 87 138 87q62 0 97.5 -37.5t35.5 -95.5v-242h-42v49q-49 -58 -121 -58q-52 0 -86 29.5t-34 71.5v8q0 46 36 77.5t107 31.5h98v25q0 48 -24.5 76.5
t-66.5 28.5z" />
    <glyph glyph-name="guillemotleft" unicode="&#xab;" horiz-adv-x="491" 
d="M45 298v27l206 136v-41l-166 -108l166 -109v-41zM240 298v27l206 136v-41l-166 -108l166 -109v-41z" />
    <glyph glyph-name="logicalnot" unicode="&#xac;" horiz-adv-x="510" 
d="M48 306v40h404v-214h-44v174h-360z" />
    <glyph glyph-name="uni00AD" unicode="&#xad;" horiz-adv-x="387" 
d="M334 304h-281v44h281v-44z" />
    <glyph glyph-name="registered" unicode="&#xae;" horiz-adv-x="746" 
d="M285 318v-177h-41v417h148q55 0 92.5 -30.5t37.5 -89.5q0 -94 -92 -116l106 -181h-46l-102 177h-103zM285 356h100q44 0 70 20.5t26 61.5q0 42 -26 62.5t-70 20.5h-100v-165zM373 17q134 0 211.5 84t77.5 232v34q0 148 -77.5 232t-211.5 84t-211.5 -84t-77.5 -232v-34
q0 -148 77.5 -232t211.5 -84zM373 712q144 0 232.5 -90.5t88.5 -246.5v-50q0 -156 -88.5 -246.5t-232.5 -90.5t-232.5 90.5t-88.5 246.5v50q0 156 88.5 246.5t232.5 90.5z" />
    <glyph glyph-name="macron" unicode="&#xaf;" horiz-adv-x="364" 
d="M49 629v38h266v-38h-266z" />
    <glyph glyph-name="degree" unicode="&#xb0;" horiz-adv-x="346" 
d="M298 582q0 -54 -35.5 -90t-89.5 -36t-89.5 36t-35.5 90t35.5 90t89.5 36t89.5 -36t35.5 -90zM257 582q0 38 -24 63t-60 25t-60 -25t-24 -63t24 -63t60 -25t60 25t24 63z" />
    <glyph glyph-name="plusminus" unicode="&#xb1;" horiz-adv-x="510" 
d="M233 118v192h-180v40h180v192h44v-192h180v-40h-180v-192h-44zM457 0h-404v40h404v-40z" />
    <glyph glyph-name="twosuperior" unicode="&#xb2;" 
d="M270 577q0 43 -26.5 68t-66.5 25q-39 0 -65.5 -25.5t-26.5 -67.5v-15l-45 3v12q0 56 38 93.5t99 37.5q60 0 98.5 -36.5t38.5 -94.5t-50 -115l-162 -187h212v-38h-274v32l192 221q38 45 38 87z" />
    <glyph glyph-name="threesuperior" unicode="&#xb3;" 
d="M37 376l45 2q0 -52 26.5 -81.5t66.5 -29.5t66.5 26t26.5 79q0 54 -24 81t-62 27q-28 0 -47 -11l-23 27l128 166h-190v38h246v-33l-122 -157q8 2 17 2q50 0 85.5 -35t35.5 -106q0 -68 -38.5 -105t-98.5 -37q-62 0 -100 40t-38 107z" />
    <glyph glyph-name="acute" unicode="&#xb4;" horiz-adv-x="364" 
d="M237 730l-108 -161h-43l98 161h53z" />
    <glyph glyph-name="mu" unicode="&#xb5;" horiz-adv-x="519" 
d="M116 500v-293q0 -91 31 -133.5t98 -42.5q49 0 90.5 29.5t67.5 80.5v359h48v-500h-48v79q-58 -91 -160 -91q-85 0 -127 65v-271h-48v718h48z" />
    <glyph glyph-name="paragraph" unicode="&#xb6;" horiz-adv-x="548" 
d="M315 273h-40q-106 0 -163 53t-57 159v3q0 106 57 159t163 53h169v-831h-35v794h-59v-794h-35v404z" />
    <glyph glyph-name="periodcentered" unicode="&#xb7;" horiz-adv-x="260" 
d="M157 366v-81h-54v81h54z" />
    <glyph glyph-name="cedilla" unicode="&#xb8;" horiz-adv-x="364" 
d="M232 -138q0 26 -22.5 42.5t-65.5 20.5l-3 6l31 69h44l-23 -49q39 -9 62.5 -32t23.5 -57q0 -40 -25.5 -64.5t-73.5 -24.5q-56 0 -95 36l25 32q30 -28 68 -28q54 0 54 49z" />
    <glyph glyph-name="onesuperior" unicode="&#xb9;" 
d="M67 237v38h102v379l-102 -48v42l109 52h37v-425h99v-38h-245z" />
    <glyph glyph-name="ordmasculine" unicode="&#xba;" horiz-adv-x="386" 
d="M298 481v70q0 54 -28.5 87t-76.5 33t-76.5 -33t-28.5 -87v-70q0 -54 28.5 -87t76.5 -33t76.5 33t28.5 87zM340 557v-82q0 -63 -40.5 -107t-106.5 -44t-106.5 44t-40.5 107v82q0 63 40.5 107t106.5 44t106.5 -44t40.5 -107z" />
    <glyph glyph-name="guillemotright" unicode="&#xbb;" horiz-adv-x="491" 
d="M446 325v-27l-206 -136v41l166 109l-166 108v41zM251 325v-27l-206 -136v41l166 109l-166 108v41z" />
    <glyph glyph-name="onequarter" unicode="&#xbc;" horiz-adv-x="865" 
d="M594 144h145v240zM836 144v-38h-53v-106h-44v106h-195v32l197 325h42v-319h53zM67 237v38h102v379l-102 -48v42l109 52h37v-425h99v-38h-245zM627 700l-344 -700h-45l344 700h45z" />
    <glyph glyph-name="onehalf" unicode="&#xbd;" horiz-adv-x="865" 
d="M785 340q0 43 -26.5 68t-66.5 25q-39 0 -65.5 -25.5t-26.5 -67.5v-15l-45 3v12q0 56 38 93.5t99 37.5q60 0 98.5 -36.5t38.5 -94.5t-50 -115l-162 -187h212v-38h-274v32l192 221q38 45 38 87zM67 237v38h102v379l-102 -48v42l109 52h37v-425h99v-38h-245zM627 700
l-344 -700h-45l344 700h45z" />
    <glyph glyph-name="threequarters" unicode="&#xbe;" horiz-adv-x="865" 
d="M594 144h145v240zM836 144v-38h-53v-106h-44v106h-195v32l197 325h42v-319h53zM627 700l-344 -700h-45l344 700h45zM37 376l45 2q0 -52 26.5 -81.5t66.5 -29.5t66.5 26t26.5 79q0 54 -24 81t-62 27q-28 0 -47 -11l-23 27l128 166h-190v38h246v-33l-122 -157q8 2 17 2
q50 0 85.5 -35t35.5 -106q0 -68 -38.5 -105t-98.5 -37q-62 0 -100 40t-38 107z" />
    <glyph glyph-name="questiondown" unicode="&#xbf;" horiz-adv-x="495" 
d="M235 421v79h48v-79h-48zM235 319h48v-30q0 -46 -20.5 -83t-71.5 -82q-41 -37 -58 -71t-17 -76q0 -69 38.5 -107.5t99.5 -38.5q58 0 95.5 36t47.5 106l48 -4q-10 -85 -61.5 -133t-130.5 -48q-81 0 -133 51.5t-52 136.5q0 94 86 175q47 43 64 72.5t17 71.5v24z" />
    <glyph glyph-name="Agrave" unicode="&#xc0;" horiz-adv-x="548" 
d="M249 700h50l242 -700h-53l-63 184h-303l-62 -184h-53zM274 631l-136 -402h272zM272 763l-108 161h53l98 -161h-43z" />
    <glyph glyph-name="Aacute" unicode="&#xc1;" horiz-adv-x="550" 
d="M249 700h50l242 -700h-53l-63 184h-303l-62 -184h-53zM274 631l-136 -402h272zM384 924l-108 -161h-43l98 161h53z" />
    <glyph glyph-name="Acircumflex" unicode="&#xc2;" horiz-adv-x="548" 
d="M249 700h50l242 -700h-53l-63 184h-303l-62 -184h-53zM274 631l-136 -402h272zM254 924h40l133 -161h-46l-107 116l-107 -116h-46z" />
    <glyph glyph-name="Atilde" unicode="&#xc3;" horiz-adv-x="548" 
d="M249 700h50l242 -700h-53l-63 184h-303l-62 -184h-53zM274 631l-136 -402h272zM340 792q-30 0 -72 27t-57 27q-32 0 -41 -47l-43 4q14 83 82 83q31 0 72 -27t57 -27q32 0 41 47l43 -4q-14 -83 -82 -83z" />
    <glyph glyph-name="Adieresis" unicode="&#xc4;" horiz-adv-x="548" 
d="M249 700h50l242 -700h-53l-63 184h-303l-62 -184h-53zM274 631l-136 -402h272zM211 892v-97h-50v97h50zM387 892v-97h-50v97h50z" />
    <glyph glyph-name="Aring" unicode="&#xc5;" horiz-adv-x="548" 
d="M249 700h50l242 -700h-53l-63 184h-303l-62 -184h-53zM274 631l-136 -402h272zM373 843q0 -45 -29 -72t-70 -27t-70 27t-29 72t29 72t70 27t70 -27t29 -72zM330 843q0 28 -16 44.5t-40 16.5t-40 -16.5t-16 -44.5t16 -44.5t40 -16.5t40 16.5t16 44.5z" />
    <glyph glyph-name="AE" unicode="&#xc6;" horiz-adv-x="831" 
d="M778 0h-402v184h-231l-90 -184h-56l347 700h432v-45h-352v-271h313v-45h-313v-294h352v-45zM376 655l-209 -426h209v426z" />
    <glyph glyph-name="Ccedilla" unicode="&#xc7;" horiz-adv-x="576" 
d="M345 -138q0 26 -22.5 42.5t-65.5 20.5l-3 6l26 57q-101 5 -162.5 80.5t-61.5 194.5v174q0 123 65.5 199t171.5 76q94 0 157.5 -57.5t77.5 -154.5l-50 -8q-13 84 -62 129.5t-123 45.5q-85 0 -136 -63.5t-51 -173.5v-160q0 -110 51 -173.5t136 -63.5q74 0 123 45.5
t62 129.5l50 -8q-13 -89 -67.5 -145t-136.5 -65l-18 -39q39 -9 62.5 -32t23.5 -57q0 -40 -25.5 -64.5t-73.5 -24.5q-56 0 -95 36l25 32q30 -28 68 -28q54 0 54 49z" />
    <glyph glyph-name="Egrave" unicode="&#xc8;" horiz-adv-x="534" 
d="M481 0h-402v700h402v-45h-352v-271h313v-45h-313v-294h352v-45zM286 763l-108 161h53l98 -161h-43z" />
    <glyph glyph-name="Eacute" unicode="&#xc9;" horiz-adv-x="534" 
d="M481 0h-402v700h402v-45h-352v-271h313v-45h-313v-294h352v-45zM372 924l-108 -161h-43l98 161h53z" />
    <glyph glyph-name="Ecircumflex" unicode="&#xca;" horiz-adv-x="534" 
d="M481 0h-402v700h402v-45h-352v-271h313v-45h-313v-294h352v-45zM257 924h40l133 -161h-46l-107 116l-107 -116h-46z" />
    <glyph glyph-name="Edieresis" unicode="&#xcb;" horiz-adv-x="534" 
d="M481 0h-402v700h402v-45h-352v-271h313v-45h-313v-294h352v-45zM205 892v-97h-50v97h50zM381 892v-97h-50v97h50z" />
    <glyph glyph-name="Igrave" unicode="&#xcc;" horiz-adv-x="208" 
d="M129 700v-700h-50v700h50zM97 763l-108 161h53l98 -161h-43z" />
    <glyph glyph-name="Iacute" unicode="&#xcd;" horiz-adv-x="208" 
d="M129 700v-700h-50v700h50zM220 924l-108 -161h-43l98 161h53z" />
    <glyph glyph-name="Icircumflex" unicode="&#xce;" horiz-adv-x="208" 
d="M129 700v-700h-50v700h50zM84 924h40l133 -161h-46l-107 116l-107 -116h-46z" />
    <glyph glyph-name="Idieresis" unicode="&#xcf;" horiz-adv-x="208" 
d="M129 700v-700h-50v700h50zM41 892v-97h-50v97h50zM217 892v-97h-50v97h50z" />
    <glyph glyph-name="Eth" unicode="&#xd0;" horiz-adv-x="586" 
d="M524 437v-174q0 -124 -64.5 -193.5t-172.5 -69.5h-208v330h-64v40h64v330h208q108 0 172.5 -69.5t64.5 -193.5zM129 370h151v-40h-151v-285h151q89 0 141.5 57.5t52.5 167.5v160q0 110 -52.5 167.5t-141.5 57.5h-151v-285z" />
    <glyph glyph-name="Ntilde" unicode="&#xd1;" horiz-adv-x="640" 
d="M79 700h49l383 -612v612h50v-700h-49l-383 612v-612h-50v700zM386 792q-30 0 -72 27t-57 27q-32 0 -41 -47l-43 4q14 83 82 83q31 0 72 -27t57 -27q32 0 41 47l43 -4q-14 -83 -82 -83z" />
    <glyph glyph-name="Ograve" unicode="&#xd2;" horiz-adv-x="586" 
d="M293 -12q-106 0 -171.5 76t-65.5 199v174q0 123 65.5 199t171.5 76t171.5 -76t65.5 -199v-174q0 -123 -65.5 -199t-171.5 -76zM293 33q85 0 136 63.5t51 173.5v160q0 110 -51 173.5t-136 63.5t-136 -63.5t-51 -173.5v-160q0 -110 51 -173.5t136 -63.5zM306 763l-108 161
h53l98 -161h-43z" />
    <glyph glyph-name="Oacute" unicode="&#xd3;" horiz-adv-x="586" 
d="M293 -12q-106 0 -171.5 76t-65.5 199v174q0 123 65.5 199t171.5 76t171.5 -76t65.5 -199v-174q0 -123 -65.5 -199t-171.5 -76zM293 33q85 0 136 63.5t51 173.5v160q0 110 -51 173.5t-136 63.5t-136 -63.5t-51 -173.5v-160q0 -110 51 -173.5t136 -63.5zM388 924l-108 -161
h-43l98 161h53z" />
    <glyph glyph-name="Ocircumflex" unicode="&#xd4;" horiz-adv-x="586" 
d="M293 -12q-106 0 -171.5 76t-65.5 199v174q0 123 65.5 199t171.5 76t171.5 -76t65.5 -199v-174q0 -123 -65.5 -199t-171.5 -76zM293 33q85 0 136 63.5t51 173.5v160q0 110 -51 173.5t-136 63.5t-136 -63.5t-51 -173.5v-160q0 -110 51 -173.5t136 -63.5zM273 924h40
l133 -161h-46l-107 116l-107 -116h-46z" />
    <glyph glyph-name="Otilde" unicode="&#xd5;" horiz-adv-x="586" 
d="M293 -12q-106 0 -171.5 76t-65.5 199v174q0 123 65.5 199t171.5 76t171.5 -76t65.5 -199v-174q0 -123 -65.5 -199t-171.5 -76zM293 33q85 0 136 63.5t51 173.5v160q0 110 -51 173.5t-136 63.5t-136 -63.5t-51 -173.5v-160q0 -110 51 -173.5t136 -63.5zM359 792
q-31 0 -72 27t-57 27q-32 0 -41 -47l-43 4q14 83 82 83q30 0 72 -27t57 -27q32 0 41 47l43 -4q-14 -83 -82 -83z" />
    <glyph glyph-name="Odieresis" unicode="&#xd6;" horiz-adv-x="586" 
d="M293 -12q106 0 171.5 76t65.5 199v174q0 123 -65.5 199t-171.5 76t-171.5 -76t-65.5 -199v-174q0 -123 65.5 -199t171.5 -76zM293 33q-85 0 -136 63.5t-51 173.5v160q0 110 51 173.5t136 63.5t136 -63.5t51 -173.5v-160q0 -110 -51 -173.5t-136 -63.5zM230 892v-97h-50
v97h50zM406 892v-97h-50v97h50z" />
    <glyph glyph-name="multiply" unicode="&#xd7;" horiz-adv-x="510" 
d="M74 177l149 149l-149 149l32 31l148 -149l149 149l32 -31l-149 -149l149 -149l-32 -31l-149 148l-148 -148z" />
    <glyph glyph-name="Oslash" unicode="&#xd8;" horiz-adv-x="586" 
d="M476 732h43l-53 -98q64 -75 64 -197v-174q0 -123 -65.5 -199t-171.5 -76q-85 0 -146 50l-37 -70h-43l52 98q-63 76 -63 197v174q0 123 65.5 199t171.5 76q84 0 145 -50zM293 667q-85 0 -136 -63.5t-51 -173.5v-160q0 -95 39 -157l270 506q-48 48 -122 48zM293 33
q85 0 136 63.5t51 173.5v160q0 95 -39 156l-271 -505q50 -48 123 -48z" />
    <glyph glyph-name="Ugrave" unicode="&#xd9;" horiz-adv-x="598" 
d="M299 -12q-108 0 -168.5 70.5t-60.5 193.5v448h50v-437q0 -113 46.5 -171.5t132.5 -58.5t132.5 58.5t46.5 171.5v437h50v-448q0 -123 -60.5 -193.5t-168.5 -70.5zM306 763l-108 161h53l98 -161h-43z" />
    <glyph glyph-name="Uacute" unicode="&#xda;" horiz-adv-x="598" 
d="M299 -12q-108 0 -168.5 70.5t-60.5 193.5v448h50v-437q0 -113 46.5 -171.5t132.5 -58.5t132.5 58.5t46.5 171.5v437h50v-448q0 -123 -60.5 -193.5t-168.5 -70.5zM400 924l-108 -161h-43l98 161h53z" />
    <glyph glyph-name="Ucircumflex" unicode="&#xdb;" horiz-adv-x="598" 
d="M299 -12q-108 0 -168.5 70.5t-60.5 193.5v448h50v-437q0 -113 46.5 -171.5t132.5 -58.5t132.5 58.5t46.5 171.5v437h50v-448q0 -123 -60.5 -193.5t-168.5 -70.5zM279 924h40l133 -161h-46l-107 116l-107 -116h-46z" />
    <glyph glyph-name="Udieresis" unicode="&#xdc;" horiz-adv-x="598" 
d="M299 -12q108 0 168.5 70.5t60.5 193.5v448h-50v-437q0 -113 -46.5 -171.5t-132.5 -58.5t-132.5 58.5t-46.5 171.5v437h-50v-448q0 -123 60.5 -193.5t168.5 -70.5zM237 892v-97h-50v97h50zM413 892v-97h-50v97h50z" />
    <glyph glyph-name="Yacute" unicode="&#xdd;" horiz-adv-x="546" 
d="M298 0h-50v321l-231 379h56l200 -327l200 327h56l-231 -379v-321zM371 924l-108 -161h-43l98 161h53z" />
    <glyph glyph-name="Thorn" unicode="&#xde;" horiz-adv-x="573" 
d="M315 149h-186v-149h-50v700h50v-147h186q89 0 150.5 -52.5t61.5 -149.5t-61.5 -149.5t-150.5 -52.5zM477 351q0 77 -47.5 117t-124.5 40h-176v-314h176q77 0 124.5 40t47.5 117z" />
    <glyph glyph-name="germandbls" unicode="&#xdf;" horiz-adv-x="538" 
d="M257 335l-7 38q163 29 163 150v4q0 63 -38.5 101.5t-102.5 38.5q-70 0 -109 -47.5t-39 -145.5v-474h-50v480q0 113 53.5 172.5t146.5 59.5q83 0 136 -51.5t53 -131.5v-7q0 -113 -117 -158q75 -16 118.5 -62.5t43.5 -122.5v-10q0 -84 -53 -132.5t-148 -48.5q-78 0 -129 29
l14 43q52 -27 113 -27q72 0 112.5 36t40.5 102v7q0 74 -52.5 115.5t-148.5 41.5z" />
    <glyph glyph-name="agrave" unicode="&#xe0;" horiz-adv-x="501" 
d="M216 31q115 0 172 99v110h-157q-68 0 -103 -29.5t-35 -76.5v-5q0 -44 33 -71t90 -27zM251 469q-92 0 -140 -84l-47 13q28 53 77 83.5t112 30.5q85 0 134 -52.5t49 -138.5v-321h-48v70q-55 -82 -176 -82q-76 0 -121.5 38t-45.5 98v11q0 63 48.5 104.5t152.5 41.5h142v36
q0 74 -36 113t-101 39zM280 564l-108 161h53l98 -161h-43z" />
    <glyph glyph-name="aacute" unicode="&#xe1;" horiz-adv-x="501" 
d="M216 31q115 0 172 99v110h-157q-68 0 -103 -29.5t-35 -76.5v-5q0 -44 33 -71t90 -27zM251 469q-92 0 -140 -84l-47 13q28 53 77 83.5t112 30.5q85 0 134 -52.5t49 -138.5v-321h-48v70q-55 -82 -176 -82q-76 0 -121.5 38t-45.5 98v11q0 63 48.5 104.5t152.5 41.5h142v36
q0 74 -36 113t-101 39zM339 725l-108 -161h-43l98 161h53z" />
    <glyph glyph-name="acircumflex" unicode="&#xe2;" horiz-adv-x="501" 
d="M216 31q115 0 172 99v110h-157q-68 0 -103 -29.5t-35 -76.5v-5q0 -44 33 -71t90 -27zM251 469q-92 0 -140 -84l-47 13q28 53 77 83.5t112 30.5q85 0 134 -52.5t49 -138.5v-321h-48v70q-55 -82 -176 -82q-76 0 -121.5 38t-45.5 98v11q0 63 48.5 104.5t152.5 41.5h142v36
q0 74 -36 113t-101 39zM227 725h40l133 -161h-46l-107 116l-107 -116h-46z" />
    <glyph glyph-name="atilde" unicode="&#xe3;" horiz-adv-x="501" 
d="M216 31q115 0 172 99v110h-157q-68 0 -103 -29.5t-35 -76.5v-5q0 -44 33 -71t90 -27zM251 469q-92 0 -140 -84l-47 13q28 53 77 83.5t112 30.5q85 0 134 -52.5t49 -138.5v-321h-48v70q-55 -82 -176 -82q-76 0 -121.5 38t-45.5 98v11q0 63 48.5 104.5t152.5 41.5h142v36
q0 74 -36 113t-101 39zM313 593q-31 0 -72 27t-57 27q-32 0 -41 -47l-43 4q14 83 82 83q30 0 72 -27t57 -27q32 0 41 47l43 -4q-14 -83 -82 -83z" />
    <glyph glyph-name="adieresis" unicode="&#xe4;" horiz-adv-x="501" 
d="M216 31q115 0 172 99v110h-157q-68 0 -103 -29.5t-35 -76.5v-5q0 -44 33 -71t90 -27zM251 469q-92 0 -140 -84l-47 13q28 53 77 83.5t112 30.5q85 0 134 -52.5t49 -138.5v-321h-48v70q-55 -82 -176 -82q-76 0 -121.5 38t-45.5 98v11q0 63 48.5 104.5t152.5 41.5h142v36
q0 74 -36 113t-101 39zM184 693v-97h-50v97h50zM360 693v-97h-50v97h50z" />
    <glyph glyph-name="aring" unicode="&#xe5;" horiz-adv-x="501" 
d="M216 31q115 0 172 99v110h-157q-68 0 -103 -29.5t-35 -76.5v-5q0 -44 33 -71t90 -27zM251 469q-92 0 -140 -84l-47 13q28 53 77 83.5t112 30.5q85 0 134 -52.5t49 -138.5v-321h-48v70q-55 -82 -176 -82q-76 0 -121.5 38t-45.5 98v11q0 63 48.5 104.5t152.5 41.5h142v36
q0 74 -36 113t-101 39zM346 644q0 -45 -29 -72t-70 -27t-70 27t-29 72t29 72t70 27t70 -27t29 -72zM303 644q0 28 -16 44.5t-40 16.5t-40 -16.5t-16 -44.5t16 -44.5t40 -16.5t40 16.5t16 44.5z" />
    <glyph glyph-name="ae" unicode="&#xe6;" horiz-adv-x="843" 
d="M733 136l49 -8q-20 -64 -70.5 -102t-123.5 -38q-122 0 -175 102q-31 -46 -83.5 -74t-117.5 -28q-76 0 -121.5 38t-45.5 98v11q0 63 48.5 104.5t152.5 41.5h142v36q0 74 -36 113t-101 39q-93 0 -140 -84l-47 13q60 114 189 114q59 0 102 -26.5t62 -75.5q23 48 68.5 75
t104.5 27q91 0 146.5 -60.5t55.5 -152.5v-66h-356v-24q0 -81 41 -129.5t111 -48.5q53 0 91 28t54 77zM216 31q55 0 103 26.5t77 78.5q-8 28 -8 65v39h-157q-68 0 -103 -29.5t-35 -76.5v-5q0 -44 33 -71t90 -27zM436 291v-19h308v19q0 80 -42.5 129t-111.5 49t-111.5 -49
t-42.5 -129z" />
    <glyph glyph-name="ccedilla" unicode="&#xe7;" horiz-adv-x="488" 
d="M301 -138q0 26 -22.5 42.5t-65.5 20.5l-3 6l26 58q-84 6 -134.5 65t-50.5 147v98q0 92 55.5 152.5t146.5 60.5q77 0 127.5 -43t66.5 -113l-48 -8q-13 57 -51 89t-95 32q-69 0 -111.5 -49t-42.5 -129v-82q0 -80 42.5 -129t111.5 -49q57 0 95 32t51 89l48 -8
q-15 -64 -58 -105.5t-109 -48.5l-18 -39q39 -9 62.5 -32t23.5 -57q0 -40 -25.5 -64.5t-73.5 -24.5q-56 0 -95 36l25 32q30 -28 68 -28q54 0 54 49z" />
    <glyph glyph-name="egrave" unicode="&#xe8;" horiz-adv-x="506" 
d="M396 136l49 -8q-20 -64 -70.5 -102t-123.5 -38q-92 0 -146 60t-54 153v98q0 92 55.5 152.5t146.5 60.5t146.5 -60.5t55.5 -152.5v-66h-356v-24q0 -81 41 -129.5t111 -48.5q53 0 91 28t54 77zM99 272h308v19q0 80 -42.5 129t-111.5 49t-111.5 -49t-42.5 -129v-19zM269 564
l-108 161h53l98 -161h-43z" />
    <glyph glyph-name="eacute" unicode="&#xe9;" horiz-adv-x="506" 
d="M396 136l49 -8q-20 -64 -70.5 -102t-123.5 -38q-92 0 -146 60t-54 153v98q0 92 55.5 152.5t146.5 60.5t146.5 -60.5t55.5 -152.5v-66h-356v-24q0 -81 41 -129.5t111 -48.5q53 0 91 28t54 77zM99 272h308v19q0 80 -42.5 129t-111.5 49t-111.5 -49t-42.5 -129v-19zM345 725
l-108 -161h-43l98 161h53z" />
    <glyph glyph-name="ecircumflex" unicode="&#xea;" horiz-adv-x="506" 
d="M396 136l49 -8q-20 -64 -70.5 -102t-123.5 -38q-92 0 -146 60t-54 153v98q0 92 55.5 152.5t146.5 60.5t146.5 -60.5t55.5 -152.5v-66h-356v-24q0 -81 41 -129.5t111 -48.5q53 0 91 28t54 77zM99 272h308v19q0 80 -42.5 129t-111.5 49t-111.5 -49t-42.5 -129v-19zM229 725
h40l133 -161h-46l-107 116l-107 -116h-46z" />
    <glyph glyph-name="edieresis" unicode="&#xeb;" horiz-adv-x="506" 
d="M396 136l49 -8q-20 -64 -70.5 -102t-123.5 -38q-92 0 -146 60t-54 153v98q0 92 55.5 152.5t146.5 60.5t146.5 -60.5t55.5 -152.5v-66h-356v-24q0 -81 41 -129.5t111 -48.5q53 0 91 28t54 77zM99 272h308v19q0 80 -42.5 129t-111.5 49t-111.5 -49t-42.5 -129v-19zM186 693
v-97h-50v97h50zM362 693v-97h-50v97h50z" />
    <glyph glyph-name="igrave" unicode="&#xec;" horiz-adv-x="204" 
d="M78 0v500h48v-500h-48zM94 564l-108 161h53l98 -161h-43z" />
    <glyph glyph-name="iacute" unicode="&#xed;" horiz-adv-x="204" 
d="M78 0v500h48v-500h-48zM218 725l-108 -161h-43l98 161h53z" />
    <glyph glyph-name="icircumflex" unicode="&#xee;" horiz-adv-x="204" 
d="M78 0v500h48v-500h-48zM82 725h40l133 -161h-46l-107 116l-107 -116h-46z" />
    <glyph glyph-name="idieresis" unicode="&#xef;" horiz-adv-x="204" 
d="M78 0v500h48v-500h-48zM39 693v-97h-50v97h50zM215 693v-97h-50v97h50z" />
    <glyph glyph-name="eth" unicode="&#xf0;" horiz-adv-x="506" 
d="M263 628l-45 84h51l39 -74l109 25l8 -34l-100 -22l93 -172q37 -68 37 -136v-98q0 -92 -55.5 -152.5t-146.5 -60.5t-146.5 60.5t-55.5 152.5v98q0 92 55.5 152.5t146.5 60.5q52 0 86 -22l-58 107l-138 -31l-8 34zM253 31q69 0 111.5 49t42.5 129v82q0 80 -42.5 129
t-111.5 49t-111.5 -49t-42.5 -129v-82q0 -80 42.5 -129t111.5 -49z" />
    <glyph glyph-name="ntilde" unicode="&#xf1;" horiz-adv-x="516" 
d="M451 0h-48v293q0 91 -31 133.5t-98 42.5q-50 0 -91 -28t-67 -79v-362h-48v500h48v-76q60 88 167 88q81 0 124.5 -54t43.5 -151v-307zM325 593q-31 0 -72 27t-57 27q-32 0 -41 -47l-43 4q14 83 82 83q30 0 72 -27t57 -27q32 0 41 47l43 -4q-14 -83 -82 -83z" />
    <glyph glyph-name="ograve" unicode="&#xf2;" horiz-adv-x="506" 
d="M253 -12q-91 0 -146.5 60.5t-55.5 152.5v98q0 92 55.5 152.5t146.5 60.5t146.5 -60.5t55.5 -152.5v-98q0 -92 -55.5 -152.5t-146.5 -60.5zM253 31q69 0 111.5 49t42.5 129v82q0 80 -42.5 129t-111.5 49t-111.5 -49t-42.5 -129v-82q0 -80 42.5 -129t111.5 -49zM267 564
l-108 161h53l98 -161h-43z" />
    <glyph glyph-name="oacute" unicode="&#xf3;" horiz-adv-x="506" 
d="M253 -12q-91 0 -146.5 60.5t-55.5 152.5v98q0 92 55.5 152.5t146.5 60.5t146.5 -60.5t55.5 -152.5v-98q0 -92 -55.5 -152.5t-146.5 -60.5zM253 31q69 0 111.5 49t42.5 129v82q0 80 -42.5 129t-111.5 49t-111.5 -49t-42.5 -129v-82q0 -80 42.5 -129t111.5 -49zM347 725
l-108 -161h-43l98 161h53z" />
    <glyph glyph-name="ocircumflex" unicode="&#xf4;" horiz-adv-x="506" 
d="M253 -12q-91 0 -146.5 60.5t-55.5 152.5v98q0 92 55.5 152.5t146.5 60.5t146.5 -60.5t55.5 -152.5v-98q0 -92 -55.5 -152.5t-146.5 -60.5zM253 31q69 0 111.5 49t42.5 129v82q0 80 -42.5 129t-111.5 49t-111.5 -49t-42.5 -129v-82q0 -80 42.5 -129t111.5 -49zM233 725h40
l133 -161h-46l-107 116l-107 -116h-46z" />
    <glyph glyph-name="otilde" unicode="&#xf5;" horiz-adv-x="506" 
d="M253 -12q-91 0 -146.5 60.5t-55.5 152.5v98q0 92 55.5 152.5t146.5 60.5t146.5 -60.5t55.5 -152.5v-98q0 -92 -55.5 -152.5t-146.5 -60.5zM253 31q69 0 111.5 49t42.5 129v82q0 80 -42.5 129t-111.5 49t-111.5 -49t-42.5 -129v-82q0 -80 42.5 -129t111.5 -49zM319 593
q-31 0 -72 27t-57 27q-32 0 -41 -47l-43 4q14 83 82 83q30 0 72 -27t57 -27q32 0 41 47l43 -4q-14 -83 -82 -83z" />
    <glyph glyph-name="odieresis" unicode="&#xf6;" horiz-adv-x="506" 
d="M253 -12q91 0 146.5 60.5t55.5 152.5v98q0 92 -55.5 152.5t-146.5 60.5t-146.5 -60.5t-55.5 -152.5v-98q0 -92 55.5 -152.5t146.5 -60.5zM253 31q-69 0 -111.5 49t-42.5 129v82q0 80 42.5 129t111.5 49t111.5 -49t42.5 -129v-82q0 -80 -42.5 -129t-111.5 -49zM190 693
v-97h-50v97h50zM366 693v-97h-50v97h50z" />
    <glyph glyph-name="divide" unicode="&#xf7;" horiz-adv-x="510" 
d="M53 346h404v-40h-404v40zM282 538v-81h-54v81h54zM282 114v81h-54v-81h54z" />
    <glyph glyph-name="oslash" unicode="&#xf8;" horiz-adv-x="506" 
d="M387 538h41l-41 -75q68 -62 68 -164v-98q0 -92 -55.5 -152.5t-146.5 -60.5q-58 0 -106 27l-28 -53h-41l40 75q-67 59 -67 164v98q0 92 55.5 152.5t146.5 60.5q60 0 105 -28zM253 469q-69 0 -111.5 -49t-42.5 -129v-82q0 -81 42 -129l196 364q-38 25 -84 25zM253 31
q69 0 111.5 49t42.5 129v82q0 80 -43 129l-195 -365q35 -24 84 -24z" />
    <glyph glyph-name="ugrave" unicode="&#xf9;" horiz-adv-x="516" 
d="M64 500h48v-293q0 -91 31 -133.5t98 -42.5q50 0 91 28t67 79v362h48v-500h-48v76q-60 -88 -167 -88q-81 0 -124.5 54t-43.5 151v307zM268 564l-108 161h53l98 -161h-43z" />
    <glyph glyph-name="uacute" unicode="&#xfa;" horiz-adv-x="516" 
d="M64 500h48v-293q0 -91 31 -133.5t98 -42.5q50 0 91 28t67 79v362h48v-500h-48v76q-60 -88 -167 -88q-81 0 -124.5 54t-43.5 151v307zM355 725l-108 -161h-43l98 161h53z" />
    <glyph glyph-name="ucircumflex" unicode="&#xfb;" horiz-adv-x="516" 
d="M64 500h48v-293q0 -91 31 -133.5t98 -42.5q50 0 91 28t67 79v362h48v-500h-48v76q-60 -88 -167 -88q-81 0 -124.5 54t-43.5 151v307zM239 725h40l133 -161h-46l-107 116l-107 -116h-46z" />
    <glyph glyph-name="udieresis" unicode="&#xfc;" horiz-adv-x="516" 
d="M64 500h48v-293q0 -91 31 -133.5t98 -42.5q50 0 91 28t67 79v362h48v-500h-48v76q-60 -88 -167 -88q-81 0 -124.5 54t-43.5 151v307zM196 693v-97h-50v97h50zM372 693v-97h-50v97h50z" />
    <glyph glyph-name="yacute" unicode="&#xfd;" horiz-adv-x="463" 
d="M174 -108l43 114l-207 494h51l179 -432l162 432h51l-231 -611q-22 -58 -53.5 -79t-84.5 -21h-25v43h24q69 0 91 60zM339 725l-108 -161h-43l98 161h53z" />
    <glyph glyph-name="thorn" unicode="&#xfe;" horiz-adv-x="503" 
d="M404 209v82q0 178 -142 178q-48 0 -86 -27t-60 -72v-240q22 -45 60 -72t86 -27q142 0 142 178zM452 299v-98q0 -98 -49 -155.5t-134 -57.5q-103 0 -153 80v-286h-48v930h48v-280q50 80 153 80q85 0 134 -57.5t49 -155.5z" />
    <glyph glyph-name="ydieresis" unicode="&#xff;" horiz-adv-x="463" 
d="M174 -108l43 114l-207 494h51l179 -432l162 432h51l-231 -611q-22 -58 -53.5 -79t-84.5 -21h-25v43h24q69 0 91 60zM175 693v-97h-50v97h50zM351 693v-97h-50v97h50z" />
    <glyph glyph-name="Amacron" unicode="&#x100;" horiz-adv-x="548" 
d="M249 700h50l242 -700h-53l-63 184h-303l-62 -184h-53zM274 631l-136 -402h272zM141 824v38h266v-38h-266z" />
    <glyph glyph-name="amacron" unicode="&#x101;" horiz-adv-x="501" 
d="M216 31q115 0 172 99v110h-157q-68 0 -103 -29.5t-35 -76.5v-5q0 -44 33 -71t90 -27zM251 469q-92 0 -140 -84l-47 13q28 53 77 83.5t112 30.5q85 0 134 -52.5t49 -138.5v-321h-48v70q-55 -82 -176 -82q-76 0 -121.5 38t-45.5 98v11q0 63 48.5 104.5t152.5 41.5h142v36
q0 74 -36 113t-101 39zM120 625v38h266v-38h-266z" />
    <glyph glyph-name="Abreve" unicode="&#x102;" horiz-adv-x="548" 
d="M249 700h50l242 -700h-53l-63 184h-303l-62 -184h-53zM274 631l-136 -402h272zM274 770q-120 0 -146 130l41 8q10 -48 37.5 -73.5t67.5 -25.5t67.5 25.5t37.5 73.5l41 -8q-26 -130 -146 -130z" />
    <glyph glyph-name="abreve" unicode="&#x103;" horiz-adv-x="501" 
d="M216 31q115 0 172 99v110h-157q-68 0 -103 -29.5t-35 -76.5v-5q0 -44 33 -71t90 -27zM251 469q-92 0 -140 -84l-47 13q28 53 77 83.5t112 30.5q85 0 134 -52.5t49 -138.5v-321h-48v70q-55 -82 -176 -82q-76 0 -121.5 38t-45.5 98v11q0 63 48.5 104.5t152.5 41.5h142v36
q0 74 -36 113t-101 39zM253 573q-120 0 -146 130l41 8q10 -48 37.5 -73.5t67.5 -25.5t67.5 25.5t37.5 73.5l41 -8q-26 -130 -146 -130z" />
    <glyph glyph-name="Aogonek" unicode="&#x104;" horiz-adv-x="548" 
d="M249 700h50l242 -700h-5q-75 -46 -75 -106v-5q0 -28 16 -45.5t45 -17.5q38 0 62 26l28 -28q-38 -38 -95 -38q-45 0 -74 25.5t-29 67.5v6q0 33 20.5 64.5t53.5 50.5l-63 184h-303l-62 -184h-53zM274 631l-136 -402h272z" />
    <glyph glyph-name="aogonek" unicode="&#x105;" horiz-adv-x="501" 
d="M388 0v70q-55 -82 -176 -82q-76 0 -121.5 38t-45.5 98v11q0 63 48.5 104.5t152.5 41.5h142v36q0 74 -36 113t-101 39q-92 0 -140 -84l-47 13q28 53 77 83.5t112 30.5q85 0 134 -52.5t49 -138.5v-321q-76 -46 -76 -106v-5q0 -28 16 -45.5t45 -17.5q38 0 62 26l28 -28
q-38 -38 -95 -38q-45 0 -74 25.5t-29 67.5v6q0 34 21 65t54 50zM216 31q115 0 172 99v110h-157q-68 0 -103 -29.5t-35 -76.5v-5q0 -44 33 -71t90 -27z" />
    <glyph glyph-name="Cacute" unicode="&#x106;" horiz-adv-x="576" 
d="M56 263v174q0 123 65.5 199t171.5 76q94 0 157.5 -57.5t77.5 -154.5l-50 -8q-13 84 -62 129.5t-123 45.5q-85 0 -136 -63.5t-51 -173.5v-160q0 -110 51 -173.5t136 -63.5q74 0 123 45.5t62 129.5l50 -8q-14 -97 -77.5 -154.5t-157.5 -57.5q-106 0 -171.5 76t-65.5 199z
M383 924l-108 -161h-43l98 161h53z" />
    <glyph glyph-name="cacute" unicode="&#x107;" horiz-adv-x="488" 
d="M99 291v-82q0 -80 42.5 -129t111.5 -49q57 0 95 32t51 89l48 -8q-16 -70 -66.5 -113t-127.5 -43q-91 0 -146.5 60.5t-55.5 152.5v98q0 92 55.5 152.5t146.5 60.5q77 0 127.5 -43t66.5 -113l-48 -8q-13 57 -51 89t-95 32q-69 0 -111.5 -49t-42.5 -129zM335 725l-108 -161
h-43l98 161h53z" />
    <glyph glyph-name="Ccircumflex" unicode="&#x108;" horiz-adv-x="576" 
d="M56 263v174q0 123 65.5 199t171.5 76q94 0 157.5 -57.5t77.5 -154.5l-50 -8q-13 84 -62 129.5t-123 45.5q-85 0 -136 -63.5t-51 -173.5v-160q0 -110 51 -173.5t136 -63.5q74 0 123 45.5t62 129.5l50 -8q-14 -97 -77.5 -154.5t-157.5 -57.5q-106 0 -171.5 76t-65.5 199z
M265 924h40l133 -161h-46l-107 116l-107 -116h-46z" />
    <glyph glyph-name="ccircumflex" unicode="&#x109;" horiz-adv-x="488" 
d="M99 291v-82q0 -80 42.5 -129t111.5 -49q57 0 95 32t51 89l48 -8q-16 -70 -66.5 -113t-127.5 -43q-91 0 -146.5 60.5t-55.5 152.5v98q0 92 55.5 152.5t146.5 60.5q77 0 127.5 -43t66.5 -113l-48 -8q-13 57 -51 89t-95 32q-69 0 -111.5 -49t-42.5 -129zM224 725h40
l133 -161h-46l-107 116l-107 -116h-46z" />
    <glyph glyph-name="Cdotaccent" unicode="&#x10a;" horiz-adv-x="576" 
d="M56 263v174q0 123 65.5 199t171.5 76q94 0 157.5 -57.5t77.5 -154.5l-50 -8q-13 84 -62 129.5t-123 45.5q-85 0 -136 -63.5t-51 -173.5v-160q0 -110 51 -173.5t136 -63.5q74 0 123 45.5t62 129.5l50 -8q-14 -97 -77.5 -154.5t-157.5 -57.5q-106 0 -171.5 76t-65.5 199z
M311 894v-101h-52v101h52z" />
    <glyph glyph-name="cdotaccent" unicode="&#x10b;" horiz-adv-x="488" 
d="M99 209v82q0 80 42.5 129t111.5 49q57 0 95 -32t51 -89l48 8q-16 70 -66.5 113t-127.5 43q-91 0 -146.5 -60.5t-55.5 -152.5v-98q0 -92 55.5 -152.5t146.5 -60.5q77 0 127.5 43t66.5 113l-48 8q-13 -57 -51 -89t-95 -32q-69 0 -111.5 49t-42.5 129zM270 695v-101h-52v101
h52z" />
    <glyph glyph-name="Ccaron" unicode="&#x10c;" horiz-adv-x="576" 
d="M56 263v174q0 123 65.5 199t171.5 76q94 0 157.5 -57.5t77.5 -154.5l-50 -8q-13 84 -62 129.5t-123 45.5q-85 0 -136 -63.5t-51 -173.5v-160q0 -110 51 -173.5t136 -63.5q74 0 123 45.5t62 129.5l50 -8q-14 -97 -77.5 -154.5t-157.5 -57.5q-106 0 -171.5 76t-65.5 199z
M305 763h-40l-133 161h46l107 -116l107 116h46z" />
    <glyph glyph-name="ccaron" unicode="&#x10d;" horiz-adv-x="488" 
d="M99 209v82q0 80 42.5 129t111.5 49q57 0 95 -32t51 -89l48 8q-16 70 -66.5 113t-127.5 43q-91 0 -146.5 -60.5t-55.5 -152.5v-98q0 -92 55.5 -152.5t146.5 -60.5q77 0 127.5 43t66.5 113l-48 8q-13 -57 -51 -89t-95 -32q-69 0 -111.5 49t-42.5 129zM264 564h-40l-133 161
h46l107 -116l107 116h46z" />
    <glyph glyph-name="Dcaron" unicode="&#x10e;" horiz-adv-x="586" 
d="M474 270v160q0 110 -52.5 167.5t-141.5 57.5h-151v-610h151q89 0 141.5 57.5t52.5 167.5zM524 437v-174q0 -124 -64.5 -193.5t-172.5 -69.5h-208v700h208q108 0 172.5 -69.5t64.5 -193.5zM280 763h-40l-133 161h46l107 -116l107 116h46z" />
    <glyph glyph-name="dcaron" unicode="&#x10f;" horiz-adv-x="562" 
d="M99 291v-82q0 -178 142 -178q48 0 86 27t60 72v240q-22 45 -60 72t-86 27q-142 0 -142 -178zM51 201v98q0 98 49 155.5t134 57.5q103 0 153 -80v280h48v-712h-48v68q-50 -80 -153 -80q-85 0 -134 57.5t-49 155.5zM547 712v-94q0 -66 -54 -80v29q26 9 26 50v14h-26v81h54z
" />
    <glyph glyph-name="Dcroat" unicode="&#x110;" horiz-adv-x="586" 
d="M524 437v-174q0 -124 -64.5 -193.5t-172.5 -69.5h-208v330h-64v40h64v330h208q108 0 172.5 -69.5t64.5 -193.5zM129 370h151v-40h-151v-285h151q89 0 141.5 57.5t52.5 167.5v160q0 110 -52.5 167.5t-141.5 57.5h-151v-285z" />
    <glyph glyph-name="dcroat" unicode="&#x111;" horiz-adv-x="503" 
d="M220 636h167v76h48v-76h63v-38h-63v-598h-48v68q-50 -80 -153 -80q-85 0 -134 57.5t-49 155.5v98q0 98 49 155.5t134 57.5q103 0 153 -80v166h-167v38zM99 291v-82q0 -178 142 -178q48 0 86 27t60 72v240q-22 45 -60 72t-86 27q-142 0 -142 -178z" />
    <glyph glyph-name="Emacron" unicode="&#x112;" horiz-adv-x="534" 
d="M481 0h-402v700h402v-45h-352v-271h313v-45h-313v-294h352v-45zM141 824v38h266v-38h-266z" />
    <glyph glyph-name="emacron" unicode="&#x113;" horiz-adv-x="506" 
d="M445 128l-49 8q-16 -49 -54 -77t-91 -28q-70 0 -111 48.5t-41 129.5v24h356v66q0 92 -55.5 152.5t-146.5 60.5t-146.5 -60.5t-55.5 -152.5v-98q0 -93 54 -153t146 -60q73 0 123.5 38t70.5 102zM407 272h-308v19q0 80 42.5 129t111.5 49t111.5 -49t42.5 -129v-19zM116 625
v38h266v-38h-266z" />
    <glyph glyph-name="Ebreve" unicode="&#x114;" horiz-adv-x="534" 
d="M481 0h-402v700h402v-45h-352v-271h313v-45h-313v-294h352v-45zM278 770q-120 0 -146 130l41 8q10 -48 37.5 -73.5t67.5 -25.5t67.5 25.5t37.5 73.5l41 -8q-26 -130 -146 -130z" />
    <glyph glyph-name="ebreve" unicode="&#x115;" horiz-adv-x="506" 
d="M396 136l49 -8q-20 -64 -70.5 -102t-123.5 -38q-92 0 -146 60t-54 153v98q0 92 55.5 152.5t146.5 60.5t146.5 -60.5t55.5 -152.5v-66h-356v-24q0 -81 41 -129.5t111 -48.5q53 0 91 28t54 77zM99 272h308v19q0 80 -42.5 129t-111.5 49t-111.5 -49t-42.5 -129v-19zM249 573
q-120 0 -146 130l41 8q10 -48 37.5 -73.5t67.5 -25.5t67.5 25.5t37.5 73.5l41 -8q-26 -130 -146 -130z" />
    <glyph glyph-name="Edotaccent" unicode="&#x116;" horiz-adv-x="534" 
d="M481 0h-402v700h402v-45h-352v-271h313v-45h-313v-294h352v-45zM294 894v-101h-52v101h52z" />
    <glyph glyph-name="edotaccent" unicode="&#x117;" horiz-adv-x="506" 
d="M445 128l-49 8q-16 -49 -54 -77t-91 -28q-70 0 -111 48.5t-41 129.5v24h356v66q0 92 -55.5 152.5t-146.5 60.5t-146.5 -60.5t-55.5 -152.5v-98q0 -93 54 -153t146 -60q73 0 123.5 38t70.5 102zM407 272h-308v19q0 80 42.5 129t111.5 49t111.5 -49t42.5 -129v-19zM275 695
v-101h-52v101h52z" />
    <glyph glyph-name="Eogonek" unicode="&#x118;" horiz-adv-x="534" 
d="M371 0h-292v700h402v-45h-352v-271h313v-45h-313v-294h352v-45h-63q-75 -46 -75 -106v-5q0 -28 16 -45.5t45 -17.5q38 0 62 26l28 -28q-38 -38 -95 -38q-45 0 -74 25.5t-29 67.5v6q0 34 21 65t54 50z" />
    <glyph glyph-name="eogonek" unicode="&#x119;" horiz-adv-x="506" 
d="M396 136l49 -8q-18 -56 -59 -92.5t-100 -44.5q-60 -44 -60 -97v-5q0 -28 16 -45.5t45 -17.5q38 0 62 26l28 -28q-38 -38 -95 -38q-45 0 -74 25.5t-29 67.5v6q0 60 57 104q-86 5 -135.5 64t-49.5 148v98q0 92 55.5 152.5t146.5 60.5t146.5 -60.5t55.5 -152.5v-66h-356v-24
q0 -81 41 -129.5t111 -48.5q53 0 91 28t54 77zM99 272h308v19q0 80 -42.5 129t-111.5 49t-111.5 -49t-42.5 -129v-19z" />
    <glyph glyph-name="Ecaron" unicode="&#x11a;" horiz-adv-x="534" 
d="M481 0h-402v700h402v-45h-352v-271h313v-45h-313v-294h352v-45zM297 763h-40l-133 161h46l107 -116l107 116h46z" />
    <glyph glyph-name="ecaron" unicode="&#x11b;" horiz-adv-x="506" 
d="M396 136l49 -8q-20 -64 -70.5 -102t-123.5 -38q-92 0 -146 60t-54 153v98q0 92 55.5 152.5t146.5 60.5t146.5 -60.5t55.5 -152.5v-66h-356v-24q0 -81 41 -129.5t111 -48.5q53 0 91 28t54 77zM99 272h308v19q0 80 -42.5 129t-111.5 49t-111.5 -49t-42.5 -129v-19zM269 564
h-40l-133 161h46l107 -116l107 116h46z" />
    <glyph glyph-name="Gcircumflex" unicode="&#x11c;" horiz-adv-x="587" 
d="M295 33q88 0 138.5 60.5t50.5 168.5v43h-183v45h233v-93q0 -124 -64.5 -196.5t-174.5 -72.5q-108 0 -173.5 76t-65.5 199v174q0 123 65.5 199t171.5 76q94 0 157.5 -57.5t77.5 -154.5l-50 -8q-13 84 -62 129.5t-123 45.5q-85 0 -136 -63.5t-51 -173.5v-160
q0 -110 51 -173.5t138 -63.5zM270 924h40l133 -161h-46l-107 116l-107 -116h-46z" />
    <glyph glyph-name="gcircumflex" unicode="&#x11d;" horiz-adv-x="503" 
d="M99 291v-82q0 -178 142 -178q48 0 86 27t60 72v240q-22 45 -60 72t-86 27q-142 0 -142 -178zM387 -14v82q-50 -80 -153 -80q-85 0 -134 57.5t-49 155.5v98q0 98 49 155.5t134 57.5q103 0 153 -80v68h48v-519q0 -96 -47 -154.5t-138 -58.5q-62 0 -108 32.5t-68 91.5l47 11
q36 -92 129 -92q67 0 102 46.5t35 128.5zM233 725h40l133 -161h-46l-107 116l-107 -116h-46z" />
    <glyph glyph-name="Gbreve" unicode="&#x11e;" horiz-adv-x="587" 
d="M295 33q88 0 138.5 60.5t50.5 168.5v43h-183v45h233v-93q0 -124 -64.5 -196.5t-174.5 -72.5q-108 0 -173.5 76t-65.5 199v174q0 123 65.5 199t171.5 76q94 0 157.5 -57.5t77.5 -154.5l-50 -8q-13 84 -62 129.5t-123 45.5q-85 0 -136 -63.5t-51 -173.5v-160
q0 -110 51 -173.5t138 -63.5zM290 770q-120 0 -146 130l41 8q10 -48 37.5 -73.5t67.5 -25.5t67.5 25.5t37.5 73.5l41 -8q-26 -130 -146 -130z" />
    <glyph glyph-name="gbreve" unicode="&#x11f;" horiz-adv-x="503" 
d="M99 291v-82q0 -178 142 -178q48 0 86 27t60 72v240q-22 45 -60 72t-86 27q-142 0 -142 -178zM387 -14v82q-50 -80 -153 -80q-85 0 -134 57.5t-49 155.5v98q0 98 49 155.5t134 57.5q103 0 153 -80v68h48v-519q0 -96 -47 -154.5t-138 -58.5q-62 0 -108 32.5t-68 91.5l47 11
q36 -92 129 -92q67 0 102 46.5t35 128.5zM253 573q-120 0 -146 130l41 8q10 -48 37.5 -73.5t67.5 -25.5t67.5 25.5t37.5 73.5l41 -8q-26 -130 -146 -130z" />
    <glyph glyph-name="Gdotaccent" unicode="&#x120;" horiz-adv-x="587" 
d="M295 33q88 0 138.5 60.5t50.5 168.5v43h-183v45h233v-93q0 -124 -64.5 -196.5t-174.5 -72.5q-108 0 -173.5 76t-65.5 199v174q0 123 65.5 199t171.5 76q94 0 157.5 -57.5t77.5 -154.5l-50 -8q-13 84 -62 129.5t-123 45.5q-85 0 -136 -63.5t-51 -173.5v-160
q0 -110 51 -173.5t138 -63.5zM316 894v-101h-52v101h52z" />
    <glyph glyph-name="gdotaccent" unicode="&#x121;" horiz-adv-x="503" 
d="M99 291v-82q0 -178 142 -178q48 0 86 27t60 72v240q-22 45 -60 72t-86 27q-142 0 -142 -178zM387 -14v82q-50 -80 -153 -80q-85 0 -134 57.5t-49 155.5v98q0 98 49 155.5t134 57.5q103 0 153 -80v68h48v-519q0 -96 -47 -154.5t-138 -58.5q-62 0 -108 32.5t-68 91.5l47 11
q36 -92 129 -92q67 0 102 46.5t35 128.5zM279 695v-101h-52v101h52z" />
    <glyph glyph-name="Gcommaaccent" unicode="&#x122;" horiz-adv-x="587" 
d="M295 33q88 0 138.5 60.5t50.5 168.5v43h-183v45h233v-93q0 -124 -64.5 -196.5t-174.5 -72.5q-108 0 -173.5 76t-65.5 199v174q0 123 65.5 199t171.5 76q94 0 157.5 -57.5t77.5 -154.5l-50 -8q-13 84 -62 129.5t-123 45.5q-85 0 -136 -63.5t-51 -173.5v-160
q0 -110 51 -173.5t138 -63.5zM283 -210h-41l43 152h51z" />
    <glyph glyph-name="gcommaaccent" unicode="&#x123;" horiz-adv-x="503" 
d="M99 209v82q0 178 142 178q48 0 86 -27t60 -72v-240q-22 -45 -60 -72t-86 -27q-142 0 -142 178zM387 68v-82q0 -82 -35 -128.5t-102 -46.5q-93 0 -129 92l-47 -11q22 -59 68 -91.5t108 -32.5q91 0 138 58.5t47 154.5v519h-48v-68q-50 80 -153 80q-85 0 -134 -57.5
t-49 -155.5v-98q0 -98 49 -155.5t134 -57.5q103 0 153 80zM269 712h41l-43 -152h-51z" />
    <glyph glyph-name="Hcircumflex" unicode="&#x124;" horiz-adv-x="612" 
d="M483 0v337h-354v-337h-50v700h50v-318h354v318h50v-700h-50zM286 924h40l133 -161h-46l-107 116l-107 -116h-46z" />
    <glyph glyph-name="hcircumflex" unicode="&#x125;" horiz-adv-x="516" 
d="M451 0h-48v293q0 91 -31 133.5t-98 42.5q-50 0 -91 -28t-67 -79v-362h-48v712h48v-288q60 88 167 88q81 0 124.5 -54t43.5 -151v-307zM72 924h40l133 -161h-46l-107 116l-107 -116h-46z" />
    <glyph glyph-name="Hbar" unicode="&#x126;" horiz-adv-x="612" 
d="M596 539h-63v-539h-50v337h-354v-337h-50v539h-64v40h64v121h50v-121h354v121h50v-121h63v-40zM129 382h354v157h-354v-157z" />
    <glyph glyph-name="hbar" unicode="&#x127;" horiz-adv-x="516" 
d="M451 0h-48v293q0 91 -31 133.5t-98 42.5q-50 0 -91 -28t-67 -79v-362h-48v598h-63v38h63v76h48v-76h167v-38h-167v-174q60 88 167 88q81 0 124.5 -54t43.5 -151v-307z" />
    <glyph glyph-name="Itilde" unicode="&#x128;" horiz-adv-x="208" 
d="M129 700v-700h-50v700h50zM170 792q-30 0 -72 27t-57 27q-32 0 -41 -47l-43 4q14 83 82 83q31 0 72 -27t57 -27q32 0 41 47l43 -4q-14 -83 -82 -83z" />
    <glyph glyph-name="itilde" unicode="&#x129;" horiz-adv-x="204" 
d="M78 0v500h48v-500h-48zM168 593q-31 0 -72 27t-57 27q-32 0 -41 -47l-43 4q14 83 82 83q30 0 72 -27t57 -27q32 0 41 47l43 -4q-14 -83 -82 -83z" />
    <glyph glyph-name="Imacron" unicode="&#x12a;" horiz-adv-x="208" 
d="M129 700v-700h-50v700h50zM-29 824v38h266v-38h-266z" />
    <glyph glyph-name="imacron" unicode="&#x12b;" horiz-adv-x="204" 
d="M78 0v500h48v-500h-48zM-31 625v38h266v-38h-266z" />
    <glyph glyph-name="Ibreve" unicode="&#x12c;" horiz-adv-x="208" 
d="M129 700v-700h-50v700h50zM104 770q-120 0 -146 130l41 8q10 -48 37.5 -73.5t67.5 -25.5t67.5 25.5t37.5 73.5l41 -8q-26 -130 -146 -130z" />
    <glyph glyph-name="ibreve" unicode="&#x12d;" horiz-adv-x="204" 
d="M78 0v500h48v-500h-48zM102 573q-120 0 -146 130l41 8q10 -48 37.5 -73.5t67.5 -25.5t67.5 25.5t37.5 73.5l41 -8q-26 -130 -146 -130z" />
    <glyph glyph-name="Iogonek" unicode="&#x12e;" horiz-adv-x="208" 
d="M82 0h-3v700h50v-700q-75 -46 -75 -106v-5q0 -28 16 -45.5t45 -17.5q38 0 62 26l28 -28q-38 -38 -95 -38q-45 0 -74 25.5t-29 67.5v6q0 34 21 65t54 50z" />
    <glyph glyph-name="iogonek" unicode="&#x12f;" horiz-adv-x="204" 
d="M78 0v500h48v-500q-75 -46 -75 -106v-5q0 -28 16 -45.5t45 -17.5q38 0 62 26l28 -28q-38 -38 -95 -38q-45 0 -74 25.5t-29 67.5v6q0 33 20.5 64.5t53.5 50.5zM78 639v73h48v-73h-48z" />
    <glyph glyph-name="Idotaccent" unicode="&#x130;" horiz-adv-x="208" 
d="M129 700v-700h-50v700h50zM130 894v-101h-52v101h52z" />
    <glyph glyph-name="dotlessi" unicode="&#x131;" horiz-adv-x="204" 
d="M78 0v500h48v-500h-48z" />
    <glyph glyph-name="IJ" unicode="&#x132;" horiz-adv-x="699" 
d="M129 700v-700h-50v700h50zM580 219v481h50v-487q0 -111 -54.5 -168t-144.5 -57q-73 0 -125 40t-76 117l50 8q41 -120 151 -120q66 0 107.5 45.5t41.5 140.5z" />
    <glyph glyph-name="ij" unicode="&#x133;" horiz-adv-x="418" 
d="M78 0v500h48v-500h-48zM78 639v73h48v-73h-48zM292 639v73h48v-73h-48zM292 -63v563h48v-569q0 -77 -32 -110t-100 -33h-24v43h25q44 0 63.5 24t19.5 82z" />
    <glyph glyph-name="Jcircumflex" unicode="&#x134;" horiz-adv-x="491" 
d="M372 219v481h50v-487q0 -111 -54.5 -168t-144.5 -57q-73 0 -125 40t-76 117l50 8q41 -120 151 -120q66 0 107.5 45.5t41.5 140.5zM377 924h40l133 -161h-46l-107 116l-107 -116h-46z" />
    <glyph glyph-name="jcircumflex" unicode="&#x135;" horiz-adv-x="216" 
d="M88 -63v563h48v-569q0 -77 -32 -110t-100 -33h-24v43h25q44 0 63.5 24t19.5 82zM92 725h40l133 -161h-46l-107 116l-107 -116h-46z" />
    <glyph glyph-name="Kcommaaccent" unicode="&#x136;" horiz-adv-x="566" 
d="M501 0l-226 362l-146 -94v-268h-50v700h50v-376l148 95q100 65 135 125.5t35 146.5v9h50v-9q0 -99 -39.5 -167.5t-142.5 -135.5l243 -388h-57zM280 -210h-41l43 152h51z" />
    <glyph glyph-name="kcommaaccent" unicode="&#x137;" horiz-adv-x="458" 
d="M412 490q0 -66 -30.5 -112t-99.5 -91l176 -287h-54l-160 263l-128 -83v-180h-48v712h48v-478l144 93q56 36 80 73.5t24 90.5v9h48v-10zM230 -210h-41l43 152h51z" />
    <glyph glyph-name="kgreenlandic" unicode="&#x138;" horiz-adv-x="458" 
d="M412 490q0 -66 -30.5 -112t-99.5 -91l176 -287h-54l-160 263l-128 -83v-180h-48v500h48v-266l144 93q56 36 80 73.5t24 90.5v9h48v-10z" />
    <glyph glyph-name="Lacute" unicode="&#x139;" horiz-adv-x="498" 
d="M480 45v-45h-401v700h50v-655h351zM220 924l-108 -161h-43l98 161h53z" />
    <glyph glyph-name="lacute" unicode="&#x13a;" horiz-adv-x="249" 
d="M220 43v-43h-18q-123 0 -123 136v576h48v-570q0 -99 77 -99h16zM218 924l-108 -161h-43l98 161h53z" />
    <glyph glyph-name="Lcommaaccent" unicode="&#x13b;" horiz-adv-x="498" 
d="M480 45v-45h-401v700h50v-655h351zM266 -210h-41l43 152h51z" />
    <glyph glyph-name="lcommaaccent" unicode="&#x13c;" horiz-adv-x="249" 
d="M220 43v-43h-18q-123 0 -123 136v576h48v-570q0 -99 77 -99h16zM137 -210h-41l43 152h51z" />
    <glyph glyph-name="Lcaron" unicode="&#x13d;" horiz-adv-x="498" 
d="M480 45v-45h-401v700h50v-655h351zM389 712v-94q0 -66 -54 -80v29q26 9 26 50v14h-26v81h54z" />
    <glyph glyph-name="lcaron" unicode="&#x13e;" horiz-adv-x="254" 
d="M220 43v-43h-18q-123 0 -123 136v576h48v-570q0 -99 77 -99h16zM239 712v-94q0 -66 -54 -80v29q26 9 26 50v14h-26v81h54z" />
    <glyph glyph-name="Ldot" unicode="&#x13f;" horiz-adv-x="498" 
d="M480 45v-45h-401v700h50v-655h351zM384 430v-101h-52v101h52z" />
    <glyph glyph-name="ldot" unicode="&#x140;" horiz-adv-x="316" 
d="M220 43v-43h-18q-123 0 -123 136v576h48v-570q0 -99 77 -99h16zM281 430v-101h-52v101h52z" />
    <glyph glyph-name="Lslash" unicode="&#x141;" horiz-adv-x="498" 
d="M10 272l69 36v392h50v-365l204 107v-42l-204 -107v-248h351v-45h-401v266l-69 -36v42z" />
    <glyph glyph-name="lslash" unicode="&#x142;" horiz-adv-x="249" 
d="M220 416v-42l-93 -50v-182q0 -99 77 -99h16v-43h-18q-123 0 -123 136v163l-69 -37v42l69 37v371h48v-346z" />
    <glyph glyph-name="Nacute" unicode="&#x143;" horiz-adv-x="640" 
d="M79 700h49l383 -612v612h50v-700h-49l-383 612v-612h-50v700zM419 924l-108 -161h-43l98 161h53z" />
    <glyph glyph-name="nacute" unicode="&#x144;" horiz-adv-x="516" 
d="M451 0h-48v293q0 91 -31 133.5t-98 42.5q-50 0 -91 -28t-67 -79v-362h-48v500h48v-76q60 88 167 88q81 0 124.5 -54t43.5 -151v-307zM354 725l-108 -161h-43l98 161h53z" />
    <glyph glyph-name="Ncommaaccent" unicode="&#x145;" horiz-adv-x="640" 
d="M79 700h49l383 -612v612h50v-700h-49l-383 612v-612h-50v700zM307 -210h-41l43 152h51z" />
    <glyph glyph-name="ncommaaccent" unicode="&#x146;" horiz-adv-x="516" 
d="M451 0h-48v293q0 91 -31 133.5t-98 42.5q-50 0 -91 -28t-67 -79v-362h-48v500h48v-76q60 88 167 88q81 0 124.5 -54t43.5 -151v-307zM238 -210h-41l43 152h51z" />
    <glyph glyph-name="Ncaron" unicode="&#x147;" horiz-adv-x="640" 
d="M79 700h49l383 -612v612h50v-700h-49l-383 612v-612h-50v700zM340 763h-40l-133 161h46l107 -116l107 116h46z" />
    <glyph glyph-name="ncaron" unicode="&#x148;" horiz-adv-x="516" 
d="M451 0h-48v293q0 91 -31 133.5t-98 42.5q-50 0 -91 -28t-67 -79v-362h-48v500h48v-76q60 88 167 88q81 0 124.5 -54t43.5 -151v-307zM279 564h-40l-133 161h46l107 -116l107 116h46z" />
    <glyph glyph-name="napostrophe" unicode="&#x149;" horiz-adv-x="516" 
d="M451 0h-48v293q0 91 -31 133.5t-98 42.5q-50 0 -91 -28t-67 -79v-362h-48v500h48v-76q60 88 167 88q81 0 124.5 -54t43.5 -151v-307zM77 712v-94q0 -66 -54 -80v29q26 9 26 50v14h-26v81h54z" />
    <glyph glyph-name="Eng" unicode="&#x14a;" horiz-adv-x="640" 
d="M511 -63v65l-382 610v-612h-50v700h49l383 -612v612h50v-769q0 -77 -32 -110t-100 -33h-24v43h24q44 0 63 24t19 82z" />
    <glyph glyph-name="eng" unicode="&#x14b;" horiz-adv-x="516" 
d="M403 -63v356q0 91 -31 133.5t-98 42.5q-50 0 -91 -28t-67 -79v-362h-48v500h48v-76q60 88 167 88q81 0 124.5 -54t43.5 -151v-376q0 -77 -32 -110t-100 -33h-24v43h25q44 0 63.5 24t19.5 82z" />
    <glyph glyph-name="Omacron" unicode="&#x14c;" horiz-adv-x="586" 
d="M293 -12q-106 0 -171.5 76t-65.5 199v174q0 123 65.5 199t171.5 76t171.5 -76t65.5 -199v-174q0 -123 -65.5 -199t-171.5 -76zM293 33q85 0 136 63.5t51 173.5v160q0 110 -51 173.5t-136 63.5t-136 -63.5t-51 -173.5v-160q0 -110 51 -173.5t136 -63.5zM160 824v38h266
v-38h-266z" />
    <glyph glyph-name="omacron" unicode="&#x14d;" horiz-adv-x="506" 
d="M253 -12q-91 0 -146.5 60.5t-55.5 152.5v98q0 92 55.5 152.5t146.5 60.5t146.5 -60.5t55.5 -152.5v-98q0 -92 -55.5 -152.5t-146.5 -60.5zM253 31q69 0 111.5 49t42.5 129v82q0 80 -42.5 129t-111.5 49t-111.5 -49t-42.5 -129v-82q0 -80 42.5 -129t111.5 -49zM120 625v38
h266v-38h-266z" />
    <glyph glyph-name="Obreve" unicode="&#x14e;" horiz-adv-x="586" 
d="M293 -12q-106 0 -171.5 76t-65.5 199v174q0 123 65.5 199t171.5 76t171.5 -76t65.5 -199v-174q0 -123 -65.5 -199t-171.5 -76zM293 33q85 0 136 63.5t51 173.5v160q0 110 -51 173.5t-136 63.5t-136 -63.5t-51 -173.5v-160q0 -110 51 -173.5t136 -63.5zM293 770
q-120 0 -146 130l41 8q10 -48 37.5 -73.5t67.5 -25.5t67.5 25.5t37.5 73.5l41 -8q-26 -130 -146 -130z" />
    <glyph glyph-name="obreve" unicode="&#x14f;" horiz-adv-x="506" 
d="M253 -12q-91 0 -146.5 60.5t-55.5 152.5v98q0 92 55.5 152.5t146.5 60.5t146.5 -60.5t55.5 -152.5v-98q0 -92 -55.5 -152.5t-146.5 -60.5zM253 31q69 0 111.5 49t42.5 129v82q0 80 -42.5 129t-111.5 49t-111.5 -49t-42.5 -129v-82q0 -80 42.5 -129t111.5 -49zM253 573
q-120 0 -146 130l41 8q10 -48 37.5 -73.5t67.5 -25.5t67.5 25.5t37.5 73.5l41 -8q-26 -130 -146 -130z" />
    <glyph glyph-name="Ohungarumlaut" unicode="&#x150;" horiz-adv-x="586" 
d="M293 -12q106 0 171.5 76t65.5 199v174q0 123 -65.5 199t-171.5 76t-171.5 -76t-65.5 -199v-174q0 -123 65.5 -199t171.5 -76zM293 33q-85 0 -136 63.5t-51 173.5v160q0 110 51 173.5t136 63.5t136 -63.5t51 -173.5v-160q0 -110 -51 -173.5t-136 -63.5zM323 924l-93 -161
h-42l84 161h51zM448 924l-99 -161h-41l89 161h51z" />
    <glyph glyph-name="ohungarumlaut" unicode="&#x151;" horiz-adv-x="506" 
d="M253 -12q91 0 146.5 60.5t55.5 152.5v98q0 92 -55.5 152.5t-146.5 60.5t-146.5 -60.5t-55.5 -152.5v-98q0 -92 55.5 -152.5t146.5 -60.5zM253 31q-69 0 -111.5 49t-42.5 129v82q0 80 42.5 129t111.5 49t111.5 -49t42.5 -129v-82q0 -80 -42.5 -129t-111.5 -49zM283 725
l-93 -161h-42l84 161h51zM408 725l-99 -161h-41l89 161h51z" />
    <glyph glyph-name="OE" unicode="&#x152;" horiz-adv-x="906" 
d="M56 263v174q0 124 64.5 193.5t172.5 69.5h560v-45h-352v-271h313v-45h-313v-294h352v-45h-560q-108 0 -172.5 69.5t-64.5 193.5zM106 430v-160q0 -110 52.5 -167.5t141.5 -57.5h151v610h-151q-89 0 -141.5 -57.5t-52.5 -167.5z" />
    <glyph glyph-name="oe" unicode="&#x153;" horiz-adv-x="862" 
d="M607 31q53 0 91 28t54 77l49 -8q-20 -64 -70.5 -102t-123.5 -38q-62 0 -109 29.5t-67 80.5q-21 -51 -68.5 -80.5t-109.5 -29.5q-91 0 -146.5 60.5t-55.5 152.5v98q0 92 55.5 152.5t146.5 60.5q62 0 109.5 -30t68.5 -81q21 51 68.5 81t109.5 30q91 0 146.5 -60.5
t55.5 -152.5v-66h-356v-24q0 -81 41 -129.5t111 -48.5zM253 31q69 0 111.5 49t42.5 129v82q0 80 -42.5 129t-111.5 49t-111.5 -49t-42.5 -129v-82q0 -80 42.5 -129t111.5 -49zM455 272h308v19q0 80 -42.5 129t-111.5 49t-111.5 -49t-42.5 -129v-19z" />
    <glyph glyph-name="Racute" unicode="&#x154;" horiz-adv-x="573" 
d="M319 306h-190v-306h-50v700h236q89 0 150.5 -51t61.5 -146q0 -80 -44 -129t-114 -63l180 -311h-55zM477 503q0 74 -47.5 113t-124.5 39h-176v-304h176q77 0 124.5 39t47.5 113zM360 924l-108 -161h-43l98 161h53z" />
    <glyph glyph-name="racute" unicode="&#x155;" horiz-adv-x="357" 
d="M339 501v-44q-30 12 -67 12q-98 0 -156 -105v-364h-48v500h48v-74q56 86 159 86q37 0 64 -11zM290 725l-108 -161h-43l98 161h53z" />
    <glyph glyph-name="Rcommaaccent" unicode="&#x156;" horiz-adv-x="573" 
d="M319 306h-190v-306h-50v700h236q89 0 150.5 -51t61.5 -146q0 -80 -44 -129t-114 -63l180 -311h-55zM477 503q0 74 -47.5 113t-124.5 39h-176v-304h176q77 0 124.5 39t47.5 113zM280 -210h-41l43 152h51z" />
    <glyph glyph-name="rcommaaccent" unicode="&#x157;" horiz-adv-x="357" 
d="M339 501v-44q-30 12 -67 12q-98 0 -156 -105v-364h-48v500h48v-74q56 86 159 86q37 0 64 -11zM79 -210h-41l43 152h51z" />
    <glyph glyph-name="Rcaron" unicode="&#x158;" horiz-adv-x="573" 
d="M129 306h190l175 -306h55l-180 311q70 14 114 63t44 129q0 95 -61.5 146t-150.5 51h-236v-700h50v306zM477 503q0 -74 -47.5 -113t-124.5 -39h-176v304h176q77 0 124.5 -39t47.5 -113zM284 763h-40l-133 161h46l107 -116l107 116h46z" />
    <glyph glyph-name="rcaron" unicode="&#x159;" horiz-adv-x="357" 
d="M339 501v-44q-30 12 -67 12q-98 0 -156 -105v-364h-48v500h48v-74q56 86 159 86q37 0 64 -11zM217 564h-40l-133 161h46l107 -116l107 116h46z" />
    <glyph glyph-name="Sacute" unicode="&#x15a;" horiz-adv-x="568" 
d="M522 178q0 -83 -59.5 -136.5t-166.5 -53.5q-96 0 -161.5 51.5t-89.5 138.5l51 9q21 -72 73 -113t127 -41q82 0 129 40.5t47 103.5q0 64 -37.5 101t-117.5 51l-61 11q-192 34 -192 191q0 74 56 127.5t155 53.5q90 0 150.5 -48.5t80.5 -130.5l-50 -9q-16 64 -62 103.5
t-119 39.5q-76 0 -118.5 -38.5t-42.5 -96.5q0 -120 147 -146l61 -11q104 -19 152 -68t48 -129zM362 924l-108 -161h-43l98 161h53z" />
    <glyph glyph-name="sacute" unicode="&#x15b;" horiz-adv-x="473" 
d="M428 131q0 -64 -47 -103.5t-127 -39.5q-76 0 -130 37t-76 108l49 9q16 -53 58.5 -82t97.5 -29q58 0 92.5 28t34.5 72t-25.5 68t-85.5 33l-52 8q-156 24 -156 137q0 59 46.5 97t117.5 38q73 0 121.5 -34.5t68.5 -97.5l-50 -9q-13 46 -50 72t-90 26q-50 0 -83 -25.5
t-33 -66.5q0 -78 119 -96l52 -8q148 -22 148 -142zM320 725l-108 -161h-43l98 161h53z" />
    <glyph glyph-name="Scircumflex" unicode="&#x15c;" horiz-adv-x="568" 
d="M522 178q0 -83 -59.5 -136.5t-166.5 -53.5q-96 0 -161.5 51.5t-89.5 138.5l51 9q21 -72 73 -113t127 -41q82 0 129 40.5t47 103.5q0 64 -37.5 101t-117.5 51l-61 11q-192 34 -192 191q0 74 56 127.5t155 53.5q90 0 150.5 -48.5t80.5 -130.5l-50 -9q-16 64 -62 103.5
t-119 39.5q-76 0 -118.5 -38.5t-42.5 -96.5q0 -120 147 -146l61 -11q104 -19 152 -68t48 -129zM256 924h40l133 -161h-46l-107 116l-107 -116h-46z" />
    <glyph glyph-name="scircumflex" unicode="&#x15d;" horiz-adv-x="473" 
d="M428 131q0 -64 -47 -103.5t-127 -39.5q-76 0 -130 37t-76 108l49 9q16 -53 58.5 -82t97.5 -29q58 0 92.5 28t34.5 72t-25.5 68t-85.5 33l-52 8q-156 24 -156 137q0 59 46.5 97t117.5 38q73 0 121.5 -34.5t68.5 -97.5l-50 -9q-13 46 -50 72t-90 26q-50 0 -83 -25.5
t-33 -66.5q0 -78 119 -96l52 -8q148 -22 148 -142zM213 725h40l133 -161h-46l-107 116l-107 -116h-46z" />
    <glyph glyph-name="Scedilla" unicode="&#x15e;" horiz-adv-x="568" 
d="M342 -138q0 26 -22.5 42.5t-65.5 20.5l-3 6l26 58q-89 5 -149.5 55.5t-82.5 133.5l51 9q21 -72 73 -113t127 -41q82 0 129 40.5t47 103.5q0 64 -37.5 101t-117.5 51l-61 11q-192 34 -192 191q0 74 56 127.5t155 53.5q90 0 150.5 -48.5t80.5 -130.5l-50 -9
q-16 64 -62 103.5t-119 39.5q-76 0 -118.5 -38.5t-42.5 -96.5q0 -120 147 -146l61 -11q104 -19 152 -68t48 -129q0 -78 -53 -130t-149 -59l-17 -38q39 -9 62.5 -32t23.5 -57q0 -40 -25.5 -64.5t-73.5 -24.5q-56 0 -95 36l25 32q30 -28 68 -28q54 0 54 49z" />
    <glyph glyph-name="scedilla" unicode="&#x15f;" horiz-adv-x="473" 
d="M296 -138q0 26 -22.5 42.5t-65.5 20.5l-3 6l26 58q-142 11 -183 144l49 9q16 -53 58.5 -82t97.5 -29q58 0 92.5 28t34.5 72t-25.5 68t-85.5 33l-52 8q-156 24 -156 137q0 59 46.5 97t117.5 38q73 0 121.5 -34.5t68.5 -97.5l-50 -9q-13 46 -50 72t-90 26q-50 0 -83 -25.5
t-33 -66.5q0 -78 119 -96l52 -8q148 -22 148 -142q0 -60 -41.5 -98.5t-111.5 -43.5l-18 -38q39 -9 62.5 -32t23.5 -57q0 -40 -25.5 -64.5t-73.5 -24.5q-56 0 -95 36l25 32q30 -28 68 -28q54 0 54 49z" />
    <glyph glyph-name="Scaron" unicode="&#x160;" horiz-adv-x="568" 
d="M522 178q0 -83 -59.5 -136.5t-166.5 -53.5q-96 0 -161.5 51.5t-89.5 138.5l51 9q21 -72 73 -113t127 -41q82 0 129 40.5t47 103.5q0 64 -37.5 101t-117.5 51l-61 11q-192 34 -192 191q0 74 56 127.5t155 53.5q90 0 150.5 -48.5t80.5 -130.5l-50 -9q-16 64 -62 103.5
t-119 39.5q-76 0 -118.5 -38.5t-42.5 -96.5q0 -120 147 -146l61 -11q104 -19 152 -68t48 -129zM296 763h-40l-133 161h46l107 -116l107 116h46z" />
    <glyph glyph-name="scaron" unicode="&#x161;" horiz-adv-x="473" 
d="M428 131q0 -64 -47 -103.5t-127 -39.5q-76 0 -130 37t-76 108l49 9q16 -53 58.5 -82t97.5 -29q58 0 92.5 28t34.5 72t-25.5 68t-85.5 33l-52 8q-156 24 -156 137q0 59 46.5 97t117.5 38q73 0 121.5 -34.5t68.5 -97.5l-50 -9q-13 46 -50 72t-90 26q-50 0 -83 -25.5
t-33 -66.5q0 -78 119 -96l52 -8q148 -22 148 -142zM253 564h-40l-133 161h46l107 -116l107 116h46z" />
    <glyph glyph-name="Tcommaaccent" unicode="&#x162;" horiz-adv-x="500" 
d="M291 -138q0 26 -22.5 42.5t-65.5 20.5l-3 6l31 69h-6v655h-208v45h466v-45h-208v-655l-23 -49q39 -9 62.5 -32t23.5 -57q0 -40 -25.5 -64.5t-73.5 -24.5q-56 0 -95 36l25 32q30 -28 68 -28q54 0 54 49z" />
    <glyph glyph-name="tcommaaccent" unicode="&#x163;" horiz-adv-x="327" 
d="M236 -138q0 26 -22.5 42.5t-65.5 20.5l-3 6l34 75q-74 22 -74 130v321h-83v43h83v142h48v-142h132v-43h-132v-316q0 -98 77 -98h63v-43h-73l-23 -49q39 -9 62.5 -32t23.5 -57q0 -40 -25.5 -64.5t-73.5 -24.5q-56 0 -95 36l25 32q30 -28 68 -28q54 0 54 49z" />
    <glyph glyph-name="Tcaron" unicode="&#x164;" horiz-adv-x="500" 
d="M17 700h466v-45h-208v-655h-50v655h-208v45zM270 763h-40l-133 161h46l107 -116l107 116h46z" />
    <glyph glyph-name="tcaron" unicode="&#x165;" horiz-adv-x="383" 
d="M158 500h132v-43h-132v-316q0 -98 77 -98h63v-43h-65q-123 0 -123 136v321h-83v43h83v142h48v-142zM368 712v-94q0 -66 -54 -80v29q26 9 26 50v14h-26v81h54z" />
    <glyph glyph-name="Tbar" unicode="&#x166;" horiz-adv-x="500" 
d="M92 377h133v278h-208v45h466v-45h-208v-278h133v-40h-133v-337h-50v337h-133v40z" />
    <glyph glyph-name="tbar" unicode="&#x167;" horiz-adv-x="327" 
d="M36 289h69v168h-83v43h83v142h48v-142h132v-43h-132v-168h110v-38h-110v-110q0 -98 77 -98h63v-43h-65q-123 0 -123 136v115h-69v38z" />
    <glyph glyph-name="Utilde" unicode="&#x168;" horiz-adv-x="598" 
d="M299 -12q-108 0 -168.5 70.5t-60.5 193.5v448h50v-437q0 -113 46.5 -171.5t132.5 -58.5t132.5 58.5t46.5 171.5v437h50v-448q0 -123 -60.5 -193.5t-168.5 -70.5zM365 792q-31 0 -72 27t-57 27q-32 0 -41 -47l-43 4q14 83 82 83q30 0 72 -27t57 -27q32 0 41 47l43 -4
q-14 -83 -82 -83z" />
    <glyph glyph-name="utilde" unicode="&#x169;" horiz-adv-x="516" 
d="M64 500h48v-293q0 -91 31 -133.5t98 -42.5q50 0 91 28t67 79v362h48v-500h-48v76q-60 -88 -167 -88q-81 0 -124.5 54t-43.5 151v307zM322 593q-30 0 -72 27t-57 27q-32 0 -41 -47l-43 4q14 83 82 83q31 0 72 -27t57 -27q32 0 41 47l43 -4q-14 -83 -82 -83z" />
    <glyph glyph-name="Umacron" unicode="&#x16a;" horiz-adv-x="598" 
d="M299 -12q-108 0 -168.5 70.5t-60.5 193.5v448h50v-437q0 -113 46.5 -171.5t132.5 -58.5t132.5 58.5t46.5 171.5v437h50v-448q0 -123 -60.5 -193.5t-168.5 -70.5zM166 824v38h266v-38h-266z" />
    <glyph glyph-name="umacron" unicode="&#x16b;" horiz-adv-x="516" 
d="M64 500h48v-293q0 -91 31 -133.5t98 -42.5q50 0 91 28t67 79v362h48v-500h-48v76q-60 -88 -167 -88q-81 0 -124.5 54t-43.5 151v307zM123 625v38h266v-38h-266z" />
    <glyph glyph-name="Ubreve" unicode="&#x16c;" horiz-adv-x="598" 
d="M299 -12q-108 0 -168.5 70.5t-60.5 193.5v448h50v-437q0 -113 46.5 -171.5t132.5 -58.5t132.5 58.5t46.5 171.5v437h50v-448q0 -123 -60.5 -193.5t-168.5 -70.5zM299 770q-120 0 -146 130l41 8q10 -48 37.5 -73.5t67.5 -25.5t67.5 25.5t37.5 73.5l41 -8
q-26 -130 -146 -130z" />
    <glyph glyph-name="ubreve" unicode="&#x16d;" horiz-adv-x="516" 
d="M64 500h48v-293q0 -91 31 -133.5t98 -42.5q50 0 91 28t67 79v362h48v-500h-48v76q-60 -88 -167 -88q-81 0 -124.5 54t-43.5 151v307zM256 573q-120 0 -146 130l41 8q10 -48 37.5 -73.5t67.5 -25.5t67.5 25.5t37.5 73.5l41 -8q-26 -130 -146 -130z" />
    <glyph glyph-name="Uring" unicode="&#x16e;" horiz-adv-x="598" 
d="M299 -12q108 0 168.5 70.5t60.5 193.5v448h-50v-437q0 -113 -46.5 -171.5t-132.5 -58.5t-132.5 58.5t-46.5 171.5v437h-50v-448q0 -123 60.5 -193.5t168.5 -70.5zM398 843q0 -45 -29 -72t-70 -27t-70 27t-29 72t29 72t70 27t70 -27t29 -72zM355 843q0 28 -16 44.5
t-40 16.5t-40 -16.5t-16 -44.5t16 -44.5t40 -16.5t40 16.5t16 44.5z" />
    <glyph glyph-name="uring" unicode="&#x16f;" horiz-adv-x="516" 
d="M64 500h48v-293q0 -91 31 -133.5t98 -42.5q50 0 91 28t67 79v362h48v-500h-48v76q-60 -88 -167 -88q-81 0 -124.5 54t-43.5 151v307zM355 644q0 -45 -29 -72t-70 -27t-70 27t-29 72t29 72t70 27t70 -27t29 -72zM312 644q0 28 -16 44.5t-40 16.5t-40 -16.5t-16 -44.5
t16 -44.5t40 -16.5t40 16.5t16 44.5z" />
    <glyph glyph-name="Uhungarumlaut" unicode="&#x170;" horiz-adv-x="598" 
d="M299 -12q108 0 168.5 70.5t60.5 193.5v448h-50v-437q0 -113 -46.5 -171.5t-132.5 -58.5t-132.5 58.5t-46.5 171.5v437h-50v-448q0 -123 60.5 -193.5t168.5 -70.5zM336 924l-93 -161h-42l84 161h51zM461 924l-99 -161h-41l89 161h51z" />
    <glyph glyph-name="uhungarumlaut" unicode="&#x171;" horiz-adv-x="516" 
d="M64 500h48v-293q0 -91 31 -133.5t98 -42.5q50 0 91 28t67 79v362h48v-500h-48v76q-60 -88 -167 -88q-81 0 -124.5 54t-43.5 151v307zM292 725l-93 -161h-42l84 161h51zM417 725l-99 -161h-41l89 161h51z" />
    <glyph glyph-name="Uogonek" unicode="&#x172;" horiz-adv-x="598" 
d="M70 252v448h50v-437q0 -113 46.5 -171.5t132.5 -58.5t132.5 58.5t46.5 171.5v437h50v-448q0 -110 -49 -178.5t-137 -81.5q-61 -44 -61 -98v-5q0 -28 16 -45.5t45 -17.5q38 0 62 26l28 -28q-38 -38 -95 -38q-45 0 -74 25.5t-29 67.5v6q0 59 57 103q-104 3 -162.5 73
t-58.5 191z" />
    <glyph glyph-name="uogonek" unicode="&#x173;" horiz-adv-x="516" 
d="M399 0v76q-60 -88 -167 -88q-81 0 -124.5 54t-43.5 151v307h48v-293q0 -91 31 -133.5t98 -42.5q50 0 91 28t67 79v362h48v-500q-75 -46 -75 -106v-5q0 -28 16 -45.5t45 -17.5q38 0 62 26l28 -28q-38 -38 -95 -38q-45 0 -74 25.5t-29 67.5v6q0 33 20.5 64.5t53.5 50.5z
" />
    <glyph glyph-name="Wcircumflex" unicode="&#x174;" horiz-adv-x="890" 
d="M419 700h52l175 -613l173 613h54l-201 -700h-51l-176 615l-176 -615h-51l-201 700h54l173 -613zM425 928h40l133 -161h-46l-107 116l-107 -116h-46z" />
    <glyph glyph-name="wcircumflex" unicode="&#x175;" horiz-adv-x="772" 
d="M361 500h50l140 -437l160 437h50l-184 -500h-52l-139 433l-139 -433h-52l-184 500h50l160 -437zM366 725h40l133 -161h-46l-107 116l-107 -116h-46z" />
    <glyph glyph-name="Ycircumflex" unicode="&#x176;" horiz-adv-x="546" 
d="M298 0h-50v321l-231 379h56l200 -327l200 327h56l-231 -379v-321zM253 924h40l133 -161h-46l-107 116l-107 -116h-46z" />
    <glyph glyph-name="ycircumflex" unicode="&#x177;" horiz-adv-x="463" 
d="M174 -108l43 114l-207 494h51l179 -432l162 432h51l-231 -611q-22 -58 -53.5 -79t-84.5 -21h-25v43h24q69 0 91 60zM215 725h40l133 -161h-46l-107 116l-107 -116h-46z" />
    <glyph glyph-name="Ydieresis" unicode="&#x178;" horiz-adv-x="546" 
d="M298 0h-50v321l-231 379h56l200 -327l200 327h56l-231 -379v-321zM210 892v-97h-50v97h50zM386 892v-97h-50v97h50z" />
    <glyph glyph-name="Zacute" unicode="&#x179;" horiz-adv-x="506" 
d="M459 700v-39l-354 -616h356v-45h-416v39l354 616h-343v45h403zM350 924l-108 -161h-43l98 161h53z" />
    <glyph glyph-name="zacute" unicode="&#x17a;" horiz-adv-x="473" 
d="M421 500v-39l-318 -418h329v-43h-391v39l318 418h-306v43h368zM332 725l-108 -161h-43l98 161h53z" />
    <glyph glyph-name="Zdotaccent" unicode="&#x17b;" horiz-adv-x="506" 
d="M459 700v-39l-354 -616h356v-45h-416v39l354 616h-343v45h403zM284 894v-101h-52v101h52z" />
    <glyph glyph-name="zdotaccent" unicode="&#x17c;" horiz-adv-x="473" 
d="M421 500v-39l-318 -418h329v-43h-391v39l318 418h-306v43h368zM264 695v-101h-52v101h52z" />
    <glyph glyph-name="Zcaron" unicode="&#x17d;" horiz-adv-x="506" 
d="M459 700v-39l-354 -616h356v-45h-416v39l354 616h-343v45h403zM278 763h-40l-133 161h46l107 -116l107 116h46z" />
    <glyph glyph-name="zcaron" unicode="&#x17e;" horiz-adv-x="473" 
d="M421 500v-39l-318 -418h329v-43h-391v39l318 418h-306v43h368zM258 564h-40l-133 161h46l107 -116l107 116h46z" />
    <glyph glyph-name="longs" unicode="&#x17f;" horiz-adv-x="332" 
d="M308 712v-43h-35q-60 0 -81.5 -26.5t-21.5 -98.5v-544h-48v457h-83v43h83v39q0 98 35 135.5t120 37.5h31z" />
    <glyph glyph-name="uni0191" unicode="&#x191;" horiz-adv-x="525" 
d="M79 -61v761h402v-45h-352v-280h323v-45h-323v-399q0 -77 -32 -110t-100 -33h-24v45h23q44 0 63.5 24t19.5 82z" />
    <glyph glyph-name="florin" unicode="&#x192;" horiz-adv-x="332" 
d="M170 457v-496q0 -98 -35 -135.5t-120 -37.5h-31v43h35q60 0 81.5 26.5t21.5 98.5v501h-83v43h83v39q0 98 35 135.5t120 37.5h31v-43h-35q-60 0 -81.5 -26.5t-21.5 -98.5v-44h138v-43h-138z" />
    <glyph glyph-name="Aringacute" unicode="&#x1fa;" horiz-adv-x="548" 
d="M373 761q0 -70 -63 -93l231 -668h-53l-63 184h-303l-62 -184h-53l231 668q-63 22 -63 93q0 45 29 72t70 27t70 -27t29 -72zM274 631l-136 -402h272zM294 993h52l-62 -104h-42zM330 761q0 28 -16 44.5t-40 16.5t-40 -16.5t-16 -44.5t16 -44.5t40 -16.5t40 16.5t16 44.5z
" />
    <glyph glyph-name="aringacute" unicode="&#x1fb;" horiz-adv-x="501" 
d="M267 876h52l-62 -104h-42zM216 31q115 0 172 99v110h-157q-68 0 -103 -29.5t-35 -76.5v-5q0 -44 33 -71t90 -27zM251 469q-92 0 -140 -84l-47 13q28 53 77 83.5t112 30.5q85 0 134 -52.5t49 -138.5v-321h-48v70q-55 -82 -176 -82q-76 0 -121.5 38t-45.5 98v11
q0 63 48.5 104.5t152.5 41.5h142v36q0 74 -36 113t-101 39zM346 644q0 -45 -29 -72t-70 -27t-70 27t-29 72t29 72t70 27t70 -27t29 -72zM303 644q0 28 -16 44.5t-40 16.5t-40 -16.5t-16 -44.5t16 -44.5t40 -16.5t40 16.5t16 44.5z" />
    <glyph glyph-name="AEacute" unicode="&#x1fc;" horiz-adv-x="831" 
d="M778 0h-402v184h-231l-90 -184h-56l347 700h432v-45h-352v-271h313v-45h-313v-294h352v-45zM376 655l-209 -426h209v426zM607 924l-108 -161h-43l98 161h53z" />
    <glyph glyph-name="aeacute" unicode="&#x1fd;" horiz-adv-x="843" 
d="M733 136l49 -8q-20 -64 -70.5 -102t-123.5 -38q-122 0 -175 102q-31 -46 -83.5 -74t-117.5 -28q-76 0 -121.5 38t-45.5 98v11q0 63 48.5 104.5t152.5 41.5h142v36q0 74 -36 113t-101 39q-93 0 -140 -84l-47 13q60 114 189 114q59 0 102 -26.5t62 -75.5q23 48 68.5 75
t104.5 27q91 0 146.5 -60.5t55.5 -152.5v-66h-356v-24q0 -81 41 -129.5t111 -48.5q53 0 91 28t54 77zM216 31q55 0 103 26.5t77 78.5q-8 28 -8 65v39h-157q-68 0 -103 -29.5t-35 -76.5v-5q0 -44 33 -71t90 -27zM436 291v-19h308v19q0 80 -42.5 129t-111.5 49t-111.5 -49
t-42.5 -129zM530 725l-108 -161h-43l98 161h53z" />
    <glyph glyph-name="Oslashacute" unicode="&#x1fe;" horiz-adv-x="586" 
d="M476 732h43l-53 -98q64 -75 64 -197v-174q0 -123 -65.5 -199t-171.5 -76q-85 0 -146 50l-37 -70h-43l52 98q-63 76 -63 197v174q0 123 65.5 199t171.5 76q84 0 145 -50zM293 667q-85 0 -136 -63.5t-51 -173.5v-160q0 -95 39 -157l270 506q-48 48 -122 48zM293 33
q85 0 136 63.5t51 173.5v160q0 95 -39 156l-271 -505q50 -48 123 -48zM388 924l-108 -161h-43l98 161h53z" />
    <glyph glyph-name="oslashacute" unicode="&#x1ff;" horiz-adv-x="506" 
d="M387 538h41l-41 -75q68 -62 68 -164v-98q0 -92 -55.5 -152.5t-146.5 -60.5q-58 0 -106 27l-28 -53h-41l40 75q-67 59 -67 164v98q0 92 55.5 152.5t146.5 60.5q60 0 105 -28zM253 469q-69 0 -111.5 -49t-42.5 -129v-82q0 -81 42 -129l196 364q-38 25 -84 25zM253 31
q69 0 111.5 49t42.5 129v82q0 80 -43 129l-195 -365q35 -24 84 -24zM347 725l-108 -161h-43l98 161h53z" />
    <glyph glyph-name="Scommaaccent" unicode="&#x218;" horiz-adv-x="568" 
d="M522 178q0 -83 -59.5 -136.5t-166.5 -53.5q-96 0 -161.5 51.5t-89.5 138.5l51 9q21 -72 73 -113t127 -41q82 0 129 40.5t47 103.5q0 64 -37.5 101t-117.5 51l-61 11q-192 34 -192 191q0 74 56 127.5t155 53.5q90 0 150.5 -48.5t80.5 -130.5l-50 -9q-16 64 -62 103.5
t-119 39.5q-76 0 -118.5 -38.5t-42.5 -96.5q0 -120 147 -146l61 -11q104 -19 152 -68t48 -129zM286 -210h-41l43 152h51z" />
    <glyph glyph-name="scommaaccent" unicode="&#x219;" horiz-adv-x="473" 
d="M428 131q0 -64 -47 -103.5t-127 -39.5q-76 0 -130 37t-76 108l49 9q16 -53 58.5 -82t97.5 -29q58 0 92.5 28t34.5 72t-25.5 68t-85.5 33l-52 8q-156 24 -156 137q0 59 46.5 97t117.5 38q73 0 121.5 -34.5t68.5 -97.5l-50 -9q-13 46 -50 72t-90 26q-50 0 -83 -25.5
t-33 -66.5q0 -78 119 -96l52 -8q148 -22 148 -142zM235 -210h-41l43 152h51z" />
    <glyph glyph-name="uni021A" unicode="&#x21a;" horiz-adv-x="500" 
d="M17 700h466v-45h-208v-655h-50v655h-208v45zM229 -210h-41l43 152h51z" />
    <glyph glyph-name="uni021B" unicode="&#x21b;" horiz-adv-x="327" 
d="M153 500h132v-43h-132v-316q0 -98 77 -98h63v-43h-65q-123 0 -123 136v321h-83v43h83v142h48v-142zM191 -210h-41l43 152h51z" />
    <glyph glyph-name="dotlessj" unicode="&#x237;" horiz-adv-x="216" 
d="M88 -63v563h48v-569q0 -77 -32 -110t-100 -33h-24v43h25q44 0 63.5 24t19.5 82z" />
    <glyph glyph-name="apostrophe" unicode="&#x2bc;" horiz-adv-x="364" 
d="M209 730v-94q0 -66 -54 -80v29q26 9 26 50v14h-26v81h54z" />
    <glyph glyph-name="circumflex" unicode="&#x2c6;" horiz-adv-x="364" 
d="M162 730h40l133 -161h-46l-107 116l-107 -116h-46z" />
    <glyph glyph-name="caron" unicode="&#x2c7;" horiz-adv-x="364" 
d="M202 569h-40l-133 161h46l107 -116l107 116h46z" />
    <glyph glyph-name="uni02C9" unicode="&#x2c9;" horiz-adv-x="364" 
d="M49 629v38h266v-38h-266z" />
    <glyph glyph-name="breve" unicode="&#x2d8;" horiz-adv-x="364" 
d="M182 578q-120 0 -146 130l41 8q10 -48 37.5 -73.5t67.5 -25.5t67.5 25.5t37.5 73.5l41 -8q-26 -130 -146 -130z" />
    <glyph glyph-name="dotaccent" unicode="&#x2d9;" horiz-adv-x="364" 
d="M208 700v-101h-52v101h52z" />
    <glyph glyph-name="ring" unicode="&#x2da;" horiz-adv-x="364" 
d="M281 649q0 -45 -29 -72t-70 -27t-70 27t-29 72t29 72t70 27t70 -27t29 -72zM238 649q0 28 -16 44.5t-40 16.5t-40 -16.5t-16 -44.5t16 -44.5t40 -16.5t40 16.5t16 44.5z" />
    <glyph glyph-name="ogonek" unicode="&#x2db;" horiz-adv-x="364" 
d="M158 0h47q-75 -46 -75 -106v-5q0 -28 16 -45.5t45 -17.5q38 0 62 26l28 -28q-38 -38 -95 -38q-45 0 -74 25.5t-29 67.5v6q0 34 21 65t54 50z" />
    <glyph glyph-name="tilde" unicode="&#x2dc;" horiz-adv-x="364" 
d="M247 599q-31 0 -72 27t-57 27q-32 0 -41 -47l-43 4q14 83 82 83q30 0 72 -27t57 -27q32 0 41 47l43 -4q-14 -83 -82 -83z" />
    <glyph glyph-name="hungarumlaut" unicode="&#x2dd;" horiz-adv-x="364" 
d="M187 730l-93 -161h-42l84 161h51zM312 730l-99 -161h-41l89 161h51z" />
    <glyph glyph-name="gravecomb" unicode="&#x300;" horiz-adv-x="0" 
d="M-176 569l-108 161h53l98 -161h-43z" />
    <glyph glyph-name="acutecomb" unicode="&#x301;" horiz-adv-x="0" 
d="M-133 730l-108 -161h-43l98 161h53z" />
    <glyph glyph-name="uni0302" unicode="&#x302;" horiz-adv-x="0" 
d="M-228 730h40l133 -161h-46l-107 116l-107 -116h-46z" />
    <glyph glyph-name="tildecomb" unicode="&#x303;" horiz-adv-x="0" 
d="M-143 599q-31 0 -72 27t-57 27q-32 0 -41 -47l-43 4q14 83 82 83q30 0 72 -27t57 -27q32 0 41 47l43 -4q-14 -83 -82 -83z" />
    <glyph glyph-name="uni0304" unicode="&#x304;" horiz-adv-x="0" 
d="M-341 630v38h266v-38h-266z" />
    <glyph glyph-name="uni0306" unicode="&#x306;" horiz-adv-x="0" 
d="M-208 578q-120 0 -146 130l41 8q10 -48 37.5 -73.5t67.5 -25.5t67.5 25.5t37.5 73.5l41 -8q-26 -130 -146 -130z" />
    <glyph glyph-name="uni0307" unicode="&#x307;" horiz-adv-x="0" 
d="M-182 700v-101h-52v101h52z" />
    <glyph glyph-name="uni0308" unicode="&#x308;" horiz-adv-x="0" 
d="M-271 698v-97h-50v97h50zM-95 698v-97h-50v97h50z" />
    <glyph glyph-name="uni030A" unicode="&#x30a;" horiz-adv-x="0" 
d="M-109 649q0 -45 -29 -72t-70 -27t-70 27t-29 72t29 72t70 27t70 -27t29 -72zM-152 649q0 28 -16 44.5t-40 16.5t-40 -16.5t-16 -44.5t16 -44.5t40 -16.5t40 16.5t16 44.5z" />
    <glyph glyph-name="uni030C" unicode="&#x30c;" horiz-adv-x="0" 
d="M-188 569h-40l-133 161h46l107 -116l107 116h46z" />
    <glyph glyph-name="uni0327" unicode="&#x327;" horiz-adv-x="0" 
d="M-158 -138q0 26 -22.5 42.5t-65.5 20.5l-3 6l31 69h44l-23 -49q39 -9 62.5 -32t23.5 -57q0 -40 -25.5 -64.5t-73.5 -24.5q-56 0 -95 36l25 32q30 -28 68 -28q54 0 54 49z" />
    <glyph glyph-name="uni03A9" unicode="&#x3a9;" horiz-adv-x="590" 
d="M295 712q106 0 171.5 -76t65.5 -199v-176q0 -154 -95 -216h89v-45h-183v39q65 22 102 82t37 148v161q0 110 -51 173.5t-136 63.5t-136 -63.5t-51 -173.5v-161q0 -88 37 -148t102 -82v-39h-183v45h89q-95 62 -95 216v176q0 123 65.5 199t171.5 76z" />
    <glyph glyph-name="uni0400" unicode="&#x400;" horiz-adv-x="534" 
d="M481 0h-402v700h402v-45h-352v-271h313v-45h-313v-294h352v-45zM286 763l-108 161h53l98 -161h-43z" />
    <glyph glyph-name="afii10023" unicode="&#x401;" horiz-adv-x="534" 
d="M481 0h-402v700h402v-45h-352v-271h313v-45h-313v-294h352v-45zM205 892v-97h-50v97h50zM381 892v-97h-50v97h50z" />
    <glyph glyph-name="afii10051" unicode="&#x402;" horiz-adv-x="692" 
d="M17 700h466v-45h-208v-258q82 65 182 65q174 0 174 -201v-268q0 -76 -32.5 -109.5t-100.5 -33.5h-23v45h22q44 0 64 24t20 81v246q0 89 -30.5 130t-105.5 41q-92 0 -170 -67v-350h-50v655h-208v45z" />
    <glyph glyph-name="afii10052" unicode="&#x403;" horiz-adv-x="518" 
d="M506 700v-45h-377v-655h-50v700h427zM390 924l-108 -161h-43l98 161h53z" />
    <glyph glyph-name="afii10053" unicode="&#x404;" horiz-adv-x="576" 
d="M56 263v174q0 123 65.5 199t171.5 76q94 0 157.5 -57.5t77.5 -154.5l-50 -8q-13 84 -62 129.5t-123 45.5q-85 0 -136 -63.5t-51 -173.5v-57h245v-45h-245v-58q0 -110 51 -173.5t136 -63.5q74 0 123 45.5t62 129.5l50 -8q-14 -97 -77.5 -154.5t-157.5 -57.5
q-106 0 -171.5 76t-65.5 199z" />
    <glyph glyph-name="afii10054" unicode="&#x405;" horiz-adv-x="568" 
d="M522 178q0 -83 -59.5 -136.5t-166.5 -53.5q-96 0 -161.5 51.5t-89.5 138.5l51 9q21 -72 73 -113t127 -41q82 0 129 40.5t47 103.5q0 64 -37.5 101t-117.5 51l-61 11q-192 34 -192 191q0 74 56 127.5t155 53.5q90 0 150.5 -48.5t80.5 -130.5l-50 -9q-16 64 -62 103.5
t-119 39.5q-76 0 -118.5 -38.5t-42.5 -96.5q0 -120 147 -146l61 -11q104 -19 152 -68t48 -129z" />
    <glyph glyph-name="afii10055" unicode="&#x406;" horiz-adv-x="208" 
d="M129 700v-700h-50v700h50z" />
    <glyph glyph-name="afii10056" unicode="&#x407;" horiz-adv-x="208" 
d="M129 700v-700h-50v700h50zM41 892v-97h-50v97h50zM217 892v-97h-50v97h50z" />
    <glyph glyph-name="afii10057" unicode="&#x408;" horiz-adv-x="491" 
d="M372 219v481h50v-487q0 -111 -54.5 -168t-144.5 -57q-73 0 -125 40t-76 117l50 8q41 -120 151 -120q66 0 107.5 45.5t41.5 140.5z" />
    <glyph glyph-name="afii10058" unicode="&#x409;" horiz-adv-x="980" 
d="M722 0h-216v654h-324v-524q0 -76 -33 -109t-101 -33h-27v45h26q45 0 65 22.5t20 79.5v565h424v-318h166q98 0 157 -48.5t59 -142.5t-59 -142.5t-157 -48.5zM556 337v-292h157q83 0 129 36t46 110t-46 110t-129 36h-157z" />
    <glyph glyph-name="afii10059" unicode="&#x40a;" horiz-adv-x="957" 
d="M699 0h-216v337h-354v-337h-50v700h50v-318h354v318h50v-318h166q98 0 157 -48.5t59 -142.5t-59 -142.5t-157 -48.5zM533 337v-292h157q83 0 129 36t46 110t-46 110t-129 36h-157z" />
    <glyph glyph-name="afii10060" unicode="&#x40b;" horiz-adv-x="692" 
d="M17 700h466v-45h-208v-258q82 65 182 65q174 0 174 -201v-261h-50v246q0 89 -30.5 130t-105.5 41q-92 0 -170 -67v-350h-50v655h-208v45z" />
    <glyph glyph-name="afii10061" unicode="&#x40c;" horiz-adv-x="566" 
d="M501 0l-226 362l-146 -94v-268h-50v700h50v-376l148 95q100 65 135 125.5t35 146.5v9h50v-9q0 -99 -39.5 -167.5t-142.5 -135.5l243 -388h-57zM379 924l-108 -161h-43l98 161h53z" />
    <glyph glyph-name="uni040D" unicode="&#x40d;" horiz-adv-x="640" 
d="M79 0h49l383 612v-612h50v700h-49l-383 -612v612h-50v-700zM332 763l-108 161h53l98 -161h-43z" />
    <glyph glyph-name="afii10062" unicode="&#x40e;" horiz-adv-x="519" 
d="M83 0v45h38q26 0 41.5 12t28.5 43l51 120l-216 480h52l190 -417l174 417h52l-256 -614q-21 -49 -46 -67.5t-67 -18.5h-42zM262 770q-120 0 -146 130l41 8q10 -48 37.5 -73.5t67.5 -25.5t67.5 25.5t37.5 73.5l41 -8q-26 -130 -146 -130z" />
    <glyph glyph-name="afii10145" unicode="&#x40f;" horiz-adv-x="612" 
d="M483 45v655h50v-700h-200v-120h-50v120h-204v700h50v-655h354z" />
    <glyph glyph-name="afii10017" unicode="&#x410;" horiz-adv-x="548" 
d="M249 700h50l242 -700h-53l-63 184h-303l-62 -184h-53zM274 631l-136 -402h272z" />
    <glyph glyph-name="afii10018" unicode="&#x411;" horiz-adv-x="555" 
d="M449 655h-320v-273h166q98 0 157 -48.5t59 -142.5t-59 -142.5t-157 -48.5h-216v700h370v-45zM129 337v-292h157q83 0 129 36t46 110t-46 110t-129 36h-157z" />
    <glyph glyph-name="afii10019" unicode="&#x412;" horiz-adv-x="571" 
d="M318 0h-239v700h214q90 0 150.5 -45t60.5 -136q0 -121 -104 -155q58 -16 91.5 -59t33.5 -114q0 -95 -58 -143t-149 -48zM475 192q0 72 -43.5 109.5t-123.5 37.5h-179v-294h179q80 0 123.5 37.5t43.5 109.5zM129 384h167q76 0 117 34.5t41 100.5q0 136 -172 136h-153v-271
z" />
    <glyph glyph-name="afii10020" unicode="&#x413;" horiz-adv-x="518" 
d="M506 700v-45h-377v-655h-50v700h427z" />
    <glyph glyph-name="afii10021" unicode="&#x414;" horiz-adv-x="576" 
d="M495 0h-427v-120h-50v165h55q53 178 53 380v275h355v-655h64v-165h-50v120zM126 45h305v610h-255v-233q0 -202 -50 -377z" />
    <glyph glyph-name="afii10022" unicode="&#x415;" horiz-adv-x="534" 
d="M481 0h-402v700h402v-45h-352v-271h313v-45h-313v-294h352v-45z" />
    <glyph glyph-name="afii10024" unicode="&#x416;" horiz-adv-x="793" 
d="M371 281l-126 85l-182 -366h-54l195 394q-82 58 -111.5 120.5t-29.5 176.5v9h50v-9q0 -106 28 -161t115 -114l115 -78v362h50v-362l115 78q87 59 115 114t28 161v9h50v-9q0 -114 -30 -176.5t-112 -120.5l196 -394h-54l-182 366l-126 -85v-281h-50v281z" />
    <glyph glyph-name="afii10025" unicode="&#x417;" horiz-adv-x="528" 
d="M273 33q77 0 121 42.5t44 109.5q0 79 -49 119.5t-128 40.5h-69v45h69q71 0 112.5 36.5t41.5 104.5q0 59 -39 97.5t-105 38.5q-126 0 -167 -130l-49 9q25 79 79.5 122.5t136.5 43.5q87 0 140.5 -51.5t53.5 -128.5q0 -123 -113 -164q60 -16 98 -63t38 -119
q0 -87 -57 -142.5t-158 -55.5q-88 0 -149.5 50t-83.5 138l49 9q17 -67 65 -109.5t119 -42.5z" />
    <glyph glyph-name="afii10026" unicode="&#x418;" horiz-adv-x="640" 
d="M128 0h-49v700h50v-612l383 612h49v-700h-50v612z" />
    <glyph glyph-name="afii10027" unicode="&#x419;" horiz-adv-x="640" 
d="M128 0h-49v700h50v-612l383 612h49v-700h-50v612zM320 770q-120 0 -146 130l41 8q10 -48 37.5 -73.5t67.5 -25.5t67.5 25.5t37.5 73.5l41 -8q-26 -130 -146 -130z" />
    <glyph glyph-name="afii10028" unicode="&#x41a;" horiz-adv-x="566" 
d="M501 0l-226 362l-146 -94v-268h-50v700h50v-376l148 95q100 65 135 125.5t35 146.5v9h50v-9q0 -99 -39.5 -167.5t-142.5 -135.5l243 -388h-57z" />
    <glyph glyph-name="afii10029" unicode="&#x41b;" horiz-adv-x="635" 
d="M556 0h-50v654h-324v-524q0 -76 -33 -109t-101 -33h-27v45h26q45 0 65 22.5t20 79.5v565h424v-700z" />
    <glyph glyph-name="afii10030" unicode="&#x41c;" horiz-adv-x="746" 
d="M394 200h-42l-223 401v-601h-50v700h47l247 -444l247 444h47v-700h-50v601z" />
    <glyph glyph-name="afii10031" unicode="&#x41d;" horiz-adv-x="612" 
d="M483 0v337h-354v-337h-50v700h50v-318h354v318h50v-700h-50z" />
    <glyph glyph-name="afii10032" unicode="&#x41e;" horiz-adv-x="586" 
d="M293 -12q-106 0 -171.5 76t-65.5 199v174q0 123 65.5 199t171.5 76t171.5 -76t65.5 -199v-174q0 -123 -65.5 -199t-171.5 -76zM293 33q85 0 136 63.5t51 173.5v160q0 110 -51 173.5t-136 63.5t-136 -63.5t-51 -173.5v-160q0 -110 51 -173.5t136 -63.5z" />
    <glyph glyph-name="afii10033" unicode="&#x41f;" horiz-adv-x="612" 
d="M483 0v655h-354v-655h-50v700h454v-700h-50z" />
    <glyph glyph-name="afii10034" unicode="&#x420;" horiz-adv-x="573" 
d="M315 296h-186v-296h-50v700h236q89 0 150.5 -52.5t61.5 -149.5t-61.5 -149.5t-150.5 -52.5zM477 498q0 77 -47.5 117t-124.5 40h-176v-314h176q77 0 124.5 40t47.5 117z" />
    <glyph glyph-name="afii10035" unicode="&#x421;" horiz-adv-x="576" 
d="M56 263v174q0 123 65.5 199t171.5 76q94 0 157.5 -57.5t77.5 -154.5l-50 -8q-13 84 -62 129.5t-123 45.5q-85 0 -136 -63.5t-51 -173.5v-160q0 -110 51 -173.5t136 -63.5q74 0 123 45.5t62 129.5l50 -8q-14 -97 -77.5 -154.5t-157.5 -57.5q-106 0 -171.5 76t-65.5 199z
" />
    <glyph glyph-name="afii10036" unicode="&#x422;" horiz-adv-x="500" 
d="M17 700h466v-45h-208v-655h-50v655h-208v45z" />
    <glyph glyph-name="afii10037" unicode="&#x423;" horiz-adv-x="519" 
d="M83 0v45h38q26 0 41.5 12t28.5 43l51 120l-216 480h52l190 -417l174 417h52l-256 -614q-21 -49 -46 -67.5t-67 -18.5h-42z" />
    <glyph glyph-name="afii10038" unicode="&#x424;" horiz-adv-x="744" 
d="M107 362v-24q0 -95 54 -144.5t151 -49.5h35v412h-35q-97 0 -151 -49.5t-54 -144.5zM397 0h-50v99h-35q-116 0 -185.5 61.5t-69.5 168.5v42q0 107 69.5 168.5t185.5 61.5h35v99h50v-99h35q116 0 185.5 -61.5t69.5 -168.5v-42q0 -107 -69.5 -168.5t-185.5 -61.5h-35v-99z
M637 338v24q0 95 -54 144.5t-151 49.5h-35v-412h35q97 0 151 49.5t54 144.5z" />
    <glyph glyph-name="afii10039" unicode="&#x425;" horiz-adv-x="579" 
d="M501 0l-212 326l-211 -326h-56l236 365l-216 335h56l191 -295l192 295h56l-217 -335l237 -365h-56z" />
    <glyph glyph-name="afii10040" unicode="&#x426;" horiz-adv-x="629" 
d="M129 700v-655h354v655h50v-655h64v-165h-50v120h-468v700h50z" />
    <glyph glyph-name="afii10041" unicode="&#x427;" horiz-adv-x="569" 
d="M490 0h-50v303q-35 -30 -87 -47.5t-106 -17.5q-90 0 -137 50.5t-47 149.5v262h50v-247q0 -89 33.5 -129.5t107.5 -40.5q111 0 186 69v348h50v-700z" />
    <glyph glyph-name="afii10042" unicode="&#x428;" horiz-adv-x="956" 
d="M827 45v655h50v-700h-798v700h50v-655h324v655h50v-655h324z" />
    <glyph glyph-name="afii10043" unicode="&#x429;" horiz-adv-x="973" 
d="M827 45v655h50v-655h64v-165h-50v120h-812v700h50v-655h324v655h50v-655h324z" />
    <glyph glyph-name="afii10044" unicode="&#x42a;" horiz-adv-x="662" 
d="M404 0h-216v655h-171v45h221v-318h166q98 0 157 -48.5t59 -142.5t-59 -142.5t-157 -48.5zM238 337v-292h157q83 0 129 36t46 110t-46 110t-129 36h-157z" />
    <glyph glyph-name="afii10045" unicode="&#x42b;" horiz-adv-x="735" 
d="M295 0h-216v700h50v-318h166q98 0 157 -48.5t59 -142.5t-59 -142.5t-157 -48.5zM129 337v-292h157q83 0 129 36t46 110t-46 110t-129 36h-157zM656 700v-700h-50v700h50z" />
    <glyph glyph-name="afii10046" unicode="&#x42c;" horiz-adv-x="553" 
d="M295 0h-216v700h50v-318h166q98 0 157 -48.5t59 -142.5t-59 -142.5t-157 -48.5zM129 337v-292h157q83 0 129 36t46 110t-46 110t-129 36h-157z" />
    <glyph glyph-name="afii10047" unicode="&#x42d;" horiz-adv-x="576" 
d="M520 437v-174q0 -123 -65.5 -199t-171.5 -76q-94 0 -157.5 57.5t-77.5 154.5l50 8q13 -84 62 -129.5t123 -45.5q85 0 136 63.5t51 173.5v58h-245v45h245v57q0 110 -51 173.5t-136 63.5q-74 0 -123 -45.5t-62 -129.5l-50 8q14 97 77.5 154.5t157.5 57.5q106 0 171.5 -76
t65.5 -199z" />
    <glyph glyph-name="afii10048" unicode="&#x42e;" horiz-adv-x="755" 
d="M462 -12q-106 0 -171.5 76t-65.5 199v65h-96v-328h-50v700h50v-327h96v64q0 123 65.5 199t171.5 76t171.5 -76t65.5 -199v-174q0 -123 -65.5 -199t-171.5 -76zM462 33q85 0 136 63.5t51 173.5v160q0 110 -51 173.5t-136 63.5t-136 -63.5t-51 -173.5v-160
q0 -110 51 -173.5t136 -63.5z" />
    <glyph glyph-name="afii10049" unicode="&#x42f;" horiz-adv-x="570" 
d="M441 306h-190l-175 -306h-55l179 311q-70 14 -113.5 63t-43.5 129q0 95 61.5 146t150.5 51h236v-700h-50v306zM93 503q0 -74 47.5 -113t124.5 -39h176v304h-176q-77 0 -124.5 -39t-47.5 -113z" />
    <glyph glyph-name="afii10065" unicode="&#x430;" horiz-adv-x="501" 
d="M216 31q115 0 172 99v110h-157q-68 0 -103 -29.5t-35 -76.5v-5q0 -44 33 -71t90 -27zM251 469q-92 0 -140 -84l-47 13q28 53 77 83.5t112 30.5q85 0 134 -52.5t49 -138.5v-321h-48v70q-55 -82 -176 -82q-76 0 -121.5 38t-45.5 98v11q0 63 48.5 104.5t152.5 41.5h142v36
q0 74 -36 113t-101 39z" />
    <glyph glyph-name="afii10066" unicode="&#x431;" horiz-adv-x="494" 
d="M251 31q144 0 144 178v82q0 178 -142 178q-48 0 -86 -27t-60 -72v-161q0 -178 144 -178zM251 -12q-94 0 -143 56t-49 151v262q0 111 35.5 160t125.5 66l159 29l10 -39l-159 -29q-71 -13 -97 -51.5t-26 -123.5v-37q50 80 153 80q85 0 134 -57.5t49 -155.5v-104
q0 -95 -49 -151t-143 -56z" />
    <glyph glyph-name="afii10067" unicode="&#x432;" horiz-adv-x="458" 
d="M251 0h-183v500h185q76 0 114.5 -36t38.5 -92q0 -80 -74 -110q88 -27 88 -124q0 -65 -43 -101.5t-126 -36.5zM116 281h130q112 0 112 88t-112 88h-130v-176zM372 140q0 50 -30 74t-94 24h-132v-195h125q131 0 131 97z" />
    <glyph glyph-name="afii10068" unicode="&#x433;" horiz-adv-x="415" 
d="M391 500v-43h-275v-457h-48v500h323z" />
    <glyph glyph-name="afii10069" unicode="&#x434;" horiz-adv-x="464" 
d="M443 43v-153h-48v110h-336v-110h-48v153h56q36 124 36 275v182h282v-457h58zM117 43h220v414h-186v-144q0 -144 -34 -270z" />
    <glyph glyph-name="afii10070" unicode="&#x435;" horiz-adv-x="506" 
d="M396 136l49 -8q-20 -64 -70.5 -102t-123.5 -38q-92 0 -146 60t-54 153v98q0 92 55.5 152.5t146.5 60.5t146.5 -60.5t55.5 -152.5v-66h-356v-24q0 -81 41 -129.5t111 -48.5q53 0 91 28t54 77zM99 272h308v19q0 80 -42.5 129t-111.5 49t-111.5 -49t-42.5 -129v-19z" />
    <glyph glyph-name="afii10072" unicode="&#x436;" horiz-adv-x="640" 
d="M296 500h48v-271l98 64q57 37 79.5 81t22.5 117v9h48v-10q0 -79 -21 -127t-81 -91l143 -272h-52l-129 247l-108 -71v-176h-48v176l-108 71l-129 -247h-52l143 272q-60 43 -81 91t-21 127v10h48v-9q0 -73 22.5 -117t79.5 -81l98 -64v271z" />
    <glyph glyph-name="afii10073" unicode="&#x437;" horiz-adv-x="437" 
d="M225 31q56 0 91 28.5t35 73.5q0 48 -32 77t-93 29h-67v43h66q51 0 79 26t28 68t-30 67.5t-79 25.5q-45 0 -77 -23.5t-44 -65.5l-48 8q17 58 61.5 91t106.5 33q71 0 114.5 -38t43.5 -98q0 -42 -23 -73t-60 -42q48 -13 75 -46.5t27 -81.5q0 -63 -47 -104t-126 -41
q-68 0 -117.5 35t-70.5 103l48 9q16 -50 53 -77t86 -27z" />
    <glyph glyph-name="afii10074" unicode="&#x438;" horiz-adv-x="503" 
d="M387 416l-276 -416h-43v500h48v-416l276 416h43v-500h-48v416z" />
    <glyph glyph-name="afii10075" unicode="&#x439;" horiz-adv-x="503" 
d="M387 416l-276 -416h-43v500h48v-416l276 416h43v-500h-48v416zM251 573q-120 0 -146 130l41 8q10 -48 37.5 -73.5t67.5 -25.5t67.5 25.5t37.5 73.5l41 -8q-26 -130 -146 -130z" />
    <glyph glyph-name="afii10076" unicode="&#x43a;" horiz-adv-x="458" 
d="M412 490q0 -66 -30.5 -112t-99.5 -91l176 -287h-54l-160 263l-128 -83v-180h-48v500h48v-266l144 93q56 36 80 73.5t24 90.5v9h48v-10z" />
    <glyph glyph-name="afii10077" unicode="&#x43b;" horiz-adv-x="542" 
d="M169 457v-326q0 -77 -32 -110t-100 -33h-20v43h21q44 0 63.5 24t19.5 82v363h353v-500h-48v457h-257z" />
    <glyph glyph-name="afii10078" unicode="&#x43c;" horiz-adv-x="606" 
d="M113 500l190 -300l190 300h45v-500h-50v411l-171 -270h-28l-171 270v-411h-50v500h45z" />
    <glyph glyph-name="afii10079" unicode="&#x43d;" horiz-adv-x="494" 
d="M426 500v-500h-48v235h-262v-235h-48v500h48v-222h262v222h48z" />
    <glyph glyph-name="afii10080" unicode="&#x43e;" horiz-adv-x="506" 
d="M253 -12q-91 0 -146.5 60.5t-55.5 152.5v98q0 92 55.5 152.5t146.5 60.5t146.5 -60.5t55.5 -152.5v-98q0 -92 -55.5 -152.5t-146.5 -60.5zM253 31q69 0 111.5 49t42.5 129v82q0 80 -42.5 129t-111.5 49t-111.5 -49t-42.5 -129v-82q0 -80 42.5 -129t111.5 -49z" />
    <glyph glyph-name="afii10081" unicode="&#x43f;" horiz-adv-x="498" 
d="M430 500v-500h-48v457h-266v-457h-48v500h362z" />
    <glyph glyph-name="afii10082" unicode="&#x440;" horiz-adv-x="503" 
d="M404 209v82q0 178 -142 178q-48 0 -86 -27t-60 -72v-240q22 -45 60 -72t86 -27q142 0 142 178zM452 299v-98q0 -98 -49 -155.5t-134 -57.5q-103 0 -153 80v-286h-48v718h48v-68q50 80 153 80q85 0 134 -57.5t49 -155.5z" />
    <glyph glyph-name="afii10083" unicode="&#x441;" horiz-adv-x="488" 
d="M99 291v-82q0 -80 42.5 -129t111.5 -49q57 0 95 32t51 89l48 -8q-16 -70 -66.5 -113t-127.5 -43q-91 0 -146.5 60.5t-55.5 152.5v98q0 92 55.5 152.5t146.5 60.5q77 0 127.5 -43t66.5 -113l-48 -8q-13 57 -51 89t-95 32q-69 0 -111.5 -49t-42.5 -129z" />
    <glyph glyph-name="afii10084" unicode="&#x442;" horiz-adv-x="420" 
d="M17 500h386v-43h-169v-457h-48v457h-169v43z" />
    <glyph glyph-name="afii10085" unicode="&#x443;" horiz-adv-x="463" 
d="M174 -108l43 114l-207 494h51l179 -432l162 432h51l-231 -611q-22 -58 -53.5 -79t-84.5 -21h-25v43h24q69 0 91 60z" />
    <glyph glyph-name="afii10086" unicode="&#x444;" horiz-adv-x="822" 
d="M387 130v240q-22 45 -60 72t-86 27q-142 0 -142 -178v-82q0 -178 142 -178q48 0 86 27t60 72zM387 432v280h48v-280q50 80 153 80q85 0 134 -57.5t49 -155.5v-98q0 -98 -49 -155.5t-134 -57.5q-103 0 -153 80v-286h-48v286q-50 -80 -153 -80q-85 0 -134 57.5t-49 155.5
v98q0 98 49 155.5t134 57.5q103 0 153 -80zM723 209v82q0 178 -142 178q-48 0 -86 -27t-60 -72v-240q22 -45 60 -72t86 -27q142 0 142 178z" />
    <glyph glyph-name="afii10087" unicode="&#x445;" horiz-adv-x="446" 
d="M66 0h-55l183 259l-170 241h55l144 -205l144 205h55l-171 -241l184 -259h-55l-157 222z" />
    <glyph glyph-name="afii10088" unicode="&#x446;" horiz-adv-x="509" 
d="M430 500v-457h58v-153h-48v110h-372v500h48v-457h266v457h48z" />
    <glyph glyph-name="afii10089" unicode="&#x447;" horiz-adv-x="480" 
d="M56 500h48v-140q0 -83 28 -118.5t90 -35.5q91 0 142 55v239h48v-500h-48v212q-56 -49 -148 -49q-160 0 -160 180v157z" />
    <glyph glyph-name="afii10090" unicode="&#x448;" horiz-adv-x="751" 
d="M683 500v-500h-615v500h48v-457h235v457h48v-457h236v457h48z" />
    <glyph glyph-name="afii10091" unicode="&#x449;" horiz-adv-x="762" 
d="M68 0v500h48v-457h235v457h48v-457h236v457h48v-457h58v-153h-48v110h-625z" />
    <glyph glyph-name="afii10092" unicode="&#x44a;" horiz-adv-x="536" 
d="M508 153q0 -72 -44.5 -112.5t-125.5 -40.5h-177v457h-144v43h192v-194h129q81 0 125.5 -40.5t44.5 -112.5zM460 153q0 110 -126 110h-125v-220h125q126 0 126 110z" />
    <glyph glyph-name="afii10093" unicode="&#x44b;" horiz-adv-x="625" 
d="M367 153q0 110 -126 110h-125v-220h125q126 0 126 110zM415 153q0 -72 -44.5 -112.5t-125.5 -40.5h-177v500h48v-194h129q81 0 125.5 -40.5t44.5 -112.5zM509 0v500h48v-500h-48z" />
    <glyph glyph-name="afii10094" unicode="&#x44c;" horiz-adv-x="443" 
d="M367 153q0 110 -126 110h-125v-220h125q126 0 126 110zM415 153q0 -72 -44.5 -112.5t-125.5 -40.5h-177v500h48v-194h129q81 0 125.5 -40.5t44.5 -112.5z" />
    <glyph glyph-name="afii10095" unicode="&#x44d;" horiz-adv-x="488" 
d="M202 272h187v19q0 80 -42.5 129t-111.5 49q-57 0 -95 -32t-51 -89l-48 8q16 70 66.5 113t127.5 43q91 0 146.5 -60.5t55.5 -152.5v-98q0 -92 -55.5 -152.5t-146.5 -60.5q-77 0 -127.5 43t-66.5 113l48 8q13 -57 51 -89t95 -32q69 0 111.5 49t42.5 129v20h-187v43z" />
    <glyph glyph-name="afii10096" unicode="&#x44e;" horiz-adv-x="639" 
d="M386 -12q-91 0 -146.5 60.5t-55.5 152.5v28h-68v-229h-48v500h48v-228h68v27q0 92 55.5 152.5t146.5 60.5t146.5 -60.5t55.5 -152.5v-98q0 -92 -55.5 -152.5t-146.5 -60.5zM386 31q69 0 111.5 49t42.5 129v82q0 80 -42.5 129t-111.5 49t-111.5 -49t-42.5 -129v-82
q0 -80 42.5 -129t111.5 -49z" />
    <glyph glyph-name="afii10097" unicode="&#x44f;" horiz-adv-x="483" 
d="M367 212h-168l-118 -212h-53l123 220q-46 13 -73 47.5t-27 88.5q0 70 45.5 107t115.5 37h203v-500h-48v212zM99 356q0 -51 31 -76t82 -25h155v202h-155q-51 0 -82 -25t-31 -76z" />
    <glyph glyph-name="uni0450" unicode="&#x450;" horiz-adv-x="506" 
d="M396 136l49 -8q-20 -64 -70.5 -102t-123.5 -38q-92 0 -146 60t-54 153v98q0 92 55.5 152.5t146.5 60.5t146.5 -60.5t55.5 -152.5v-66h-356v-24q0 -81 41 -129.5t111 -48.5q53 0 91 28t54 77zM99 272h308v19q0 80 -42.5 129t-111.5 49t-111.5 -49t-42.5 -129v-19zM269 564
l-108 161h53l98 -161h-43z" />
    <glyph glyph-name="afii10071" unicode="&#x451;" horiz-adv-x="506" 
d="M445 128l-49 8q-16 -49 -54 -77t-91 -28q-70 0 -111 48.5t-41 129.5v24h356v66q0 92 -55.5 152.5t-146.5 60.5t-146.5 -60.5t-55.5 -152.5v-98q0 -93 54 -153t146 -60q73 0 123.5 38t70.5 102zM407 272h-308v19q0 80 42.5 129t111.5 49t111.5 -49t42.5 -129v-19zM186 693
v-97h-50v97h50zM362 693v-97h-50v97h50z" />
    <glyph glyph-name="afii10099" unicode="&#x452;" horiz-adv-x="516" 
d="M403 -63v356q0 91 -31 133.5t-98 42.5q-50 0 -91 -28t-67 -79v-362h-48v598h-63v38h63v76h48v-76h167v-38h-167v-174q60 88 167 88q81 0 124.5 -54t43.5 -151v-376q0 -77 -32 -110t-100 -33h-24v43h25q44 0 63.5 24t19.5 82z" />
    <glyph glyph-name="afii10100" unicode="&#x453;" horiz-adv-x="415" 
d="M391 500v-43h-275v-457h-48v500h323zM320 725l-108 -161h-43l98 161h53z" />
    <glyph glyph-name="afii10101" unicode="&#x454;" horiz-adv-x="488" 
d="M99 272h187v-43h-187v-20q0 -80 42.5 -129t111.5 -49q57 0 95 32t51 89l48 -8q-16 -70 -66.5 -113t-127.5 -43q-91 0 -146.5 60.5t-55.5 152.5v98q0 92 55.5 152.5t146.5 60.5q77 0 127.5 -43t66.5 -113l-48 -8q-13 57 -51 89t-95 32q-69 0 -111.5 -49t-42.5 -129v-19z
" />
    <glyph glyph-name="afii10102" unicode="&#x455;" horiz-adv-x="473" 
d="M428 131q0 -64 -47 -103.5t-127 -39.5q-76 0 -130 37t-76 108l49 9q16 -53 58.5 -82t97.5 -29q58 0 92.5 28t34.5 72t-25.5 68t-85.5 33l-52 8q-156 24 -156 137q0 59 46.5 97t117.5 38q73 0 121.5 -34.5t68.5 -97.5l-50 -9q-13 46 -50 72t-90 26q-50 0 -83 -25.5
t-33 -66.5q0 -78 119 -96l52 -8q148 -22 148 -142z" />
    <glyph glyph-name="afii10103" unicode="&#x456;" horiz-adv-x="204" 
d="M78 0v500h48v-500h-48zM78 639v73h48v-73h-48z" />
    <glyph glyph-name="afii10104" unicode="&#x457;" horiz-adv-x="204" 
d="M78 0v500h48v-500h-48zM39 693v-97h-50v97h50zM215 693v-97h-50v97h50z" />
    <glyph glyph-name="afii10105" unicode="&#x458;" horiz-adv-x="214" 
d="M88 639v73h48v-73h-48zM88 -63v563h48v-569q0 -77 -32 -110t-100 -33h-24v43h25q44 0 63.5 24t19.5 82z" />
    <glyph glyph-name="afii10106" unicode="&#x459;" horiz-adv-x="801" 
d="M773 153q0 -72 -44.5 -112.5t-125.5 -40.5h-177v457h-257v-326q0 -77 -32 -110t-100 -33h-20v43h21q44 0 63.5 24t19.5 82v363h353v-194h129q81 0 125.5 -40.5t44.5 -112.5zM725 153q0 110 -126 110h-125v-220h125q126 0 126 110z" />
    <glyph glyph-name="afii10107" unicode="&#x45a;" horiz-adv-x="753" 
d="M725 153q0 -72 -44.5 -112.5t-125.5 -40.5h-177v235h-262v-235h-48v500h48v-222h262v222h48v-194h129q81 0 125.5 -40.5t44.5 -112.5zM677 153q0 110 -126 110h-125v-220h125q126 0 126 110z" />
    <glyph glyph-name="afii10108" unicode="&#x45b;" horiz-adv-x="516" 
d="M451 0h-48v293q0 91 -31 133.5t-98 42.5q-50 0 -91 -28t-67 -79v-362h-48v598h-63v38h63v76h48v-76h167v-38h-167v-174q60 88 167 88q81 0 124.5 -54t43.5 -151v-307z" />
    <glyph glyph-name="afii10109" unicode="&#x45c;" horiz-adv-x="458" 
d="M412 490q0 -66 -30.5 -112t-99.5 -91l176 -287h-54l-160 263l-128 -83v-180h-48v500h48v-266l144 93q56 36 80 73.5t24 90.5v9h48v-10zM342 725l-108 -161h-43l98 161h53z" />
    <glyph glyph-name="uni045D" unicode="&#x45d;" horiz-adv-x="503" 
d="M111 0l276 416v-416h48v500h-43l-276 -416v416h-48v-500h43zM269 564l-108 161h53l98 -161h-43z" />
    <glyph glyph-name="afii10110" unicode="&#x45e;" horiz-adv-x="463" 
d="M174 -108l43 114l-207 494h51l179 -432l162 432h51l-231 -611q-22 -58 -53.5 -79t-84.5 -21h-25v43h24q69 0 91 60zM231 573q-120 0 -146 130l41 8q10 -48 37.5 -73.5t67.5 -25.5t67.5 25.5t37.5 73.5l41 -8q-26 -130 -146 -130z" />
    <glyph glyph-name="afii10193" unicode="&#x45f;" horiz-adv-x="498" 
d="M430 500v-500h-157v-110h-48v110h-157v500h48v-457h266v457h48z" />
    <glyph glyph-name="afii10050" unicode="&#x490;" horiz-adv-x="518" 
d="M129 655v-655h-50v700h377v140h50v-185h-377z" />
    <glyph glyph-name="afii10098" unicode="&#x491;" horiz-adv-x="415" 
d="M343 500v103h48v-146h-275v-457h-48v500h275z" />
    <glyph glyph-name="Wgrave" unicode="&#x1e80;" horiz-adv-x="890" 
d="M419 700h52l175 -613l173 613h54l-201 -700h-51l-176 615l-176 -615h-51l-201 700h54l173 -613zM449 763l-108 161h53l98 -161h-43z" />
    <glyph glyph-name="wgrave" unicode="&#x1e81;" horiz-adv-x="772" 
d="M411 500h-50l-140 -437l-160 437h-50l184 -500h52l139 433l139 -433h52l184 500h-50l-160 -437zM390 564l-108 161h53l98 -161h-43z" />
    <glyph glyph-name="Wacute" unicode="&#x1e82;" horiz-adv-x="890" 
d="M419 700h52l175 -613l173 613h54l-201 -700h-51l-176 615l-176 -615h-51l-201 700h54l173 -613zM549 924l-108 -161h-43l98 161h53z" />
    <glyph glyph-name="wacute" unicode="&#x1e83;" horiz-adv-x="772" 
d="M361 500h50l140 -437l160 437h50l-184 -500h-52l-139 433l-139 -433h-52l-184 500h50l160 -437zM490 725l-108 -161h-43l98 161h53z" />
    <glyph glyph-name="Wdieresis" unicode="&#x1e84;" horiz-adv-x="890" 
d="M419 700h52l175 -613l173 613h54l-201 -700h-51l-176 615l-176 -615h-51l-201 700h54l173 -613zM382 896v-97h-50v97h50zM558 896v-97h-50v97h50z" />
    <glyph glyph-name="wdieresis" unicode="&#x1e85;" horiz-adv-x="772" 
d="M361 500h50l140 -437l160 437h50l-184 -500h-52l-139 433l-139 -433h-52l-184 500h50l160 -437zM323 693v-97h-50v97h50zM499 693v-97h-50v97h50z" />
    <glyph glyph-name="Ygrave" unicode="&#x1ef2;" horiz-adv-x="546" 
d="M298 0h-50v321l-231 379h56l200 -327l200 327h56l-231 -379v-321zM285 763l-108 161h53l98 -161h-43z" />
    <glyph glyph-name="ygrave" unicode="&#x1ef3;" horiz-adv-x="463" 
d="M174 -108l43 114l-207 494h51l179 -432l162 432h51l-231 -611q-22 -58 -53.5 -79t-84.5 -21h-25v43h24q69 0 91 60zM234 564l-108 161h53l98 -161h-43z" />
    <glyph glyph-name="thinspace" unicode="&#x2009;" horiz-adv-x="200" 
 />
    <glyph glyph-name="uni2010" unicode="&#x2010;" horiz-adv-x="387" 
d="M334 304h-281v44h281v-44z" />
    <glyph glyph-name="figuredash" unicode="&#x2012;" horiz-adv-x="593" 
d="M540 304h-487v44h487v-44z" />
    <glyph glyph-name="endash" unicode="&#x2013;" horiz-adv-x="500" 
d="M500 304h-500v44h500v-44z" />
    <glyph glyph-name="emdash" unicode="&#x2014;" horiz-adv-x="1000" 
d="M1000 304h-1000v44h1000v-44z" />
    <glyph glyph-name="afii00208" unicode="&#x2015;" horiz-adv-x="1000" 
d="M900 304h-800v44h800v-44z" />
    <glyph glyph-name="uni2016" unicode="&#x2016;" horiz-adv-x="394" 
d="M107 -130v879h40v-879h-40zM247 -130v879h40v-879h-40z" />
    <glyph glyph-name="underscoredbl" unicode="&#x2017;" horiz-adv-x="600" 
d="M50 -47h500v-33h-500v33zM50 -150h500v-33h-500v33z" />
    <glyph glyph-name="quoteleft" unicode="&#x2018;" horiz-adv-x="260" 
d="M103 580v94q0 66 54 80v-29q-26 -9 -26 -50v-14h26v-81h-54z" />
    <glyph glyph-name="quoteright" unicode="&#x2019;" horiz-adv-x="260" 
d="M157 754v-94q0 -66 -54 -80v29q26 9 26 50v14h-26v81h54z" />
    <glyph glyph-name="quotesinglbase" unicode="&#x201a;" horiz-adv-x="260" 
d="M157 81v-94q0 -66 -54 -80v29q26 9 26 50v14h-26v81h54z" />
    <glyph glyph-name="quotereversed" unicode="&#x201b;" horiz-adv-x="260" 
d="M103 660v94h54v-81h-26v-14q0 -41 26 -50v-29q-54 14 -54 80z" />
    <glyph glyph-name="quotedblleft" unicode="&#x201c;" horiz-adv-x="359" 
d="M202 580v94q0 66 54 80v-29q-26 -9 -26 -50v-14h26v-81h-54zM103 580v94q0 66 54 80v-29q-26 -9 -26 -50v-14h26v-81h-54z" />
    <glyph glyph-name="quotedblright" unicode="&#x201d;" horiz-adv-x="359" 
d="M256 754v-94q0 -66 -54 -80v29q26 9 26 50v14h-26v81h54zM157 754v-94q0 -66 -54 -80v29q26 9 26 50v14h-26v81h54z" />
    <glyph glyph-name="quotedblbase" unicode="&#x201e;" horiz-adv-x="359" 
d="M157 81v-94q0 -66 -54 -80v29q26 9 26 50v14h-26v81h54zM256 81v-94q0 -66 -54 -80v29q26 9 26 50v14h-26v81h54z" />
    <glyph glyph-name="uni201F" unicode="&#x201f;" horiz-adv-x="359" 
d="M103 660v94h54v-81h-26v-14q0 -41 26 -50v-29q-54 14 -54 80zM202 660v94h54v-81h-26v-14q0 -41 26 -50v-29q-54 14 -54 80z" />
    <glyph glyph-name="dagger" unicode="&#x2020;" horiz-adv-x="582" 
d="M313 523v-654h-44v654h-174v38h174v187h44v-187h174v-38h-174z" />
    <glyph glyph-name="daggerdbl" unicode="&#x2021;" horiz-adv-x="582" 
d="M269 94v429h-174v38h174v187h44v-187h174v-38h-174v-429h174v-38h-174v-187h-44v187h-174v38h174z" />
    <glyph glyph-name="bullet" unicode="&#x2022;" horiz-adv-x="362" 
d="M305 326q0 -51 -36 -87t-88 -36t-88 36t-36 87t36 87t88 36t88 -36t36 -87z" />
    <glyph glyph-name="onedotenleader" unicode="&#x2024;" horiz-adv-x="260" 
d="M157 81v-81h-54v81h54z" />
    <glyph glyph-name="twodotenleader" unicode="&#x2025;" horiz-adv-x="520" 
d="M157 81v-81h-54v81h54zM417 81v-81h-54v81h54z" />
    <glyph glyph-name="ellipsis" unicode="&#x2026;" horiz-adv-x="780" 
d="M157 81v-81h-54v81h54zM417 81v-81h-54v81h54zM677 81v-81h-54v81h54z" />
    <glyph glyph-name="perthousand" unicode="&#x2030;" horiz-adv-x="1075" 
d="M542 700l-271 -700h-43l271 700h43zM268 494v73q0 52 -23 79t-60 27t-60 -27t-23 -79v-73q0 -52 23 -79t60 -27t60 27t23 79zM310 574v-87q0 -59 -33 -98.5t-91 -39.5q-59 0 -92.5 39.5t-33.5 98.5v87q0 59 33.5 98.5t92.5 39.5q58 0 91 -39.5t33 -98.5zM502 206v-73
q0 -52 23 -79t60 -27t60 27t23 79v73q0 52 -23 79t-60 27t-60 -27t-23 -79zM460 126v87q0 59 33 98.5t91 39.5q59 0 92.5 -39.5t33.5 -98.5v-87q0 -59 -33.5 -98.5t-92.5 -39.5q-58 0 -91 39.5t-33 98.5zM807 206v-73q0 -52 23 -79t60 -27t60 27t23 79v73q0 52 -23 79
t-60 27t-60 -27t-23 -79zM765 126v87q0 59 33 98.5t91 39.5q59 0 92.5 -39.5t33.5 -98.5v-87q0 -59 -33.5 -98.5t-92.5 -39.5q-58 0 -91 39.5t-33 98.5z" />
    <glyph glyph-name="minute" unicode="&#x2032;" horiz-adv-x="207" 
d="M93 478h-41l53 222h50z" />
    <glyph glyph-name="second" unicode="&#x2033;" horiz-adv-x="336" 
d="M93 478h-41l53 222h50zM222 478h-41l53 222h50z" />
    <glyph glyph-name="guilsinglleft" unicode="&#x2039;" horiz-adv-x="296" 
d="M45 298v27l206 136v-41l-166 -108l166 -109v-41z" />
    <glyph glyph-name="guilsinglright" unicode="&#x203a;" horiz-adv-x="296" 
d="M251 325v-27l-206 -136v41l166 109l-166 108v41z" />
    <glyph glyph-name="exclamdbl" unicode="&#x203c;" horiz-adv-x="400" 
d="M307 700v-105l-7 -412h-34l-7 412v105h48zM307 79v-79h-48v79h48zM141 700v-105l-7 -412h-34l-7 412v105h48zM141 79v-79h-48v79h48z" />
    <glyph glyph-name="uni203E" unicode="&#x203e;" horiz-adv-x="364" 
d="M49 629v38h266v-38h-266z" />
    <glyph glyph-name="fraction" unicode="&#x2044;" horiz-adv-x="165" 
d="M277 700l-344 -700h-45l344 700h45z" />
    <glyph glyph-name="zerosuperior" unicode="&#x2070;" 
d="M175 229q-62 0 -100 41t-38 117v163q0 76 38 117t100 41t100 -41t38 -117v-163q0 -76 -38 -117t-100 -41zM175 267q42 0 68 31t26 95v151q0 64 -26 95t-68 31t-68 -31t-26 -95v-151q0 -64 26 -95t68 -31z" />
    <glyph glyph-name="uni2071" unicode="&#x2071;" 
d="M153 237v329h44v-329h-44zM153 642v58h44v-58h-44z" />
    <glyph glyph-name="foursuperior" unicode="&#x2074;" 
d="M79 381h145v240zM321 381v-38h-53v-106h-44v106h-195v32l197 325h42v-319h53z" />
    <glyph glyph-name="fivesuperior" unicode="&#x2075;" 
d="M63 460v240h232v-38h-188v-156q28 31 75 31q59 0 96.5 -37.5t37.5 -113.5q0 -75 -37.5 -113.5t-98.5 -38.5q-62 0 -99 38t-37 111l44 3v-6q0 -52 26 -80t66 -28t66 27.5t26 86.5q0 58 -27 86t-66 28q-46 0 -78 -40h-38z" />
    <glyph glyph-name="sixsuperior" unicode="&#x2076;" 
d="M176 229q-63 0 -102 41t-39 101q0 38 21 78l132 251h48l-105 -199q18 10 45 10q62 0 101.5 -40.5t39.5 -99.5q0 -60 -39 -101t-102 -41zM176 266q44 0 71 29.5t27 74.5t-27 74.5t-71 29.5t-71 -29.5t-27 -74.5t27 -74.5t71 -29.5z" />
    <glyph glyph-name="sevensuperior" unicode="&#x2077;" 
d="M40 662v38h271v-30l-160 -433h-46l159 425h-224z" />
    <glyph glyph-name="eightsuperior" unicode="&#x2078;" 
d="M175 229q-63 0 -102.5 40.5t-39.5 101.5q0 43 21.5 77.5t59.5 47.5q-28 12 -44.5 38t-16.5 58q0 50 34 83t88 33t88 -33t34 -83q0 -32 -16.5 -58t-44.5 -38q38 -13 59.5 -47.5t21.5 -77.5q0 -61 -39.5 -101.5t-102.5 -40.5zM175 475q-43 0 -70.5 -29.5t-27.5 -74.5
t27.5 -74.5t70.5 -29.5t70.5 29.5t27.5 74.5t-27.5 74.5t-70.5 29.5zM175 513q33 0 55.5 22t22.5 56q0 35 -22.5 57t-55.5 22t-55.5 -22t-22.5 -57q0 -34 22.5 -56t55.5 -22z" />
    <glyph glyph-name="ninesuperior" unicode="&#x2079;" 
d="M174 708q63 0 102 -41t39 -101q0 -38 -21 -78l-132 -251h-48l105 199q-18 -10 -45 -10q-62 0 -101.5 40.5t-39.5 99.5q0 60 39 101t102 41zM174 671q-44 0 -71 -29.5t-27 -74.5t27 -74.5t71 -29.5t71 29.5t27 74.5t-27 74.5t-71 29.5z" />
    <glyph glyph-name="uni207A" unicode="&#x207a;" 
d="M154 324v126h-121v37h121v126h41v-126h121v-37h-121v-126h-41z" />
    <glyph glyph-name="uni207B" unicode="&#x207b;" 
d="M316 450h-283v37h283v-37z" />
    <glyph glyph-name="uni207C" unicode="&#x207c;" 
d="M316 521h-283v37h283v-37zM316 379h-283v37h283v-37z" />
    <glyph glyph-name="uni207D" unicode="&#x207d;" 
d="M179 549v-161q0 -127 86 -175l-13 -41q-117 61 -117 207v179q0 146 117 207l13 -41q-86 -48 -86 -175z" />
    <glyph glyph-name="uni207E" unicode="&#x207e;" 
d="M171 388v161q0 127 -86 175l13 41q117 -61 117 -207v-179q0 -146 -117 -207l-13 41q86 48 86 175z" />
    <glyph glyph-name="uni207F" unicode="&#x207f;" 
d="M307 237h-44v214q0 58 -18.5 83t-57.5 25q-62 0 -100 -59v-263h-44v351h44v-40q39 49 107 49q54 0 83.5 -37t29.5 -101v-222z" />
    <glyph glyph-name="zeroinferior" unicode="&#x2080;" 
d="M175 -134q-62 0 -100 41t-38 117v163q0 76 38 117t100 41t100 -41t38 -117v-163q0 -76 -38 -117t-100 -41zM175 -96q42 0 68 31t26 95v151q0 64 -26 95t-68 31t-68 -31t-26 -95v-151q0 -64 26 -95t68 -31z" />
    <glyph glyph-name="oneinferior" unicode="&#x2081;" 
d="M67 -126v38h102v379l-102 -48v42l109 52h37v-425h99v-38h-245z" />
    <glyph glyph-name="twoinferior" unicode="&#x2082;" 
d="M270 214q0 43 -26.5 68t-66.5 25q-39 0 -65.5 -25.5t-26.5 -67.5v-15l-45 3v12q0 56 38 93.5t99 37.5q60 0 98.5 -36.5t38.5 -94.5t-50 -115l-162 -187h212v-38h-274v32l192 221q38 45 38 87z" />
    <glyph glyph-name="threeinferior" unicode="&#x2083;" 
d="M37 13l45 2q0 -52 26.5 -81.5t66.5 -29.5t66.5 26t26.5 79q0 54 -24 81t-62 27q-28 0 -47 -11l-23 27l128 166h-190v38h246v-33l-122 -157q8 2 17 2q50 0 85.5 -35t35.5 -106q0 -68 -38.5 -105t-98.5 -37q-62 0 -100 40t-38 107z" />
    <glyph glyph-name="fourinferior" unicode="&#x2084;" 
d="M79 18h145v240zM321 18v-38h-53v-106h-44v106h-195v32l197 325h42v-319h53z" />
    <glyph glyph-name="fiveinferior" unicode="&#x2085;" 
d="M63 97v240h232v-38h-188v-156q28 31 75 31q59 0 96.5 -37.5t37.5 -113.5q0 -75 -37.5 -113.5t-98.5 -38.5q-62 0 -99 38t-37 111l44 3v-6q0 -52 26 -80t66 -28t66 27.5t26 86.5q0 58 -27 86t-66 28q-46 0 -78 -40h-38z" />
    <glyph glyph-name="sixinferior" unicode="&#x2086;" 
d="M176 -134q-63 0 -102 41t-39 101q0 38 21 78l132 251h48l-105 -199q18 10 45 10q62 0 101.5 -40.5t39.5 -99.5q0 -60 -39 -101t-102 -41zM176 -97q44 0 71 29.5t27 74.5t-27 74.5t-71 29.5t-71 -29.5t-27 -74.5t27 -74.5t71 -29.5z" />
    <glyph glyph-name="seveninferior" unicode="&#x2087;" 
d="M40 299v38h271v-30l-160 -433h-46l159 425h-224z" />
    <glyph glyph-name="eightinferior" unicode="&#x2088;" 
d="M175 -134q-63 0 -102.5 40.5t-39.5 101.5q0 43 21.5 77.5t59.5 47.5q-28 12 -44.5 38t-16.5 58q0 50 34 83t88 33t88 -33t34 -83q0 -32 -16.5 -58t-44.5 -38q38 -13 59.5 -47.5t21.5 -77.5q0 -61 -39.5 -101.5t-102.5 -40.5zM175 112q-43 0 -70.5 -29.5t-27.5 -74.5
t27.5 -74.5t70.5 -29.5t70.5 29.5t27.5 74.5t-27.5 74.5t-70.5 29.5zM175 150q33 0 55.5 22t22.5 56q0 35 -22.5 57t-55.5 22t-55.5 -22t-22.5 -57q0 -34 22.5 -56t55.5 -22z" />
    <glyph glyph-name="nineinferior" unicode="&#x2089;" 
d="M174 345q63 0 102 -41t39 -101q0 -38 -21 -78l-132 -251h-48l105 199q-18 -10 -45 -10q-62 0 -101.5 40.5t-39.5 99.5q0 60 39 101t102 41zM174 308q-44 0 -71 -29.5t-27 -74.5t27 -74.5t71 -29.5t71 29.5t27 74.5t-27 74.5t-71 29.5z" />
    <glyph glyph-name="uni208A" unicode="&#x208a;" 
d="M154 -39v126h-121v37h121v126h41v-126h121v-37h-121v-126h-41z" />
    <glyph glyph-name="uni208B" unicode="&#x208b;" 
d="M316 87h-283v37h283v-37z" />
    <glyph glyph-name="uni208C" unicode="&#x208c;" 
d="M316 158h-283v37h283v-37zM316 16h-283v37h283v-37z" />
    <glyph glyph-name="uni208D" unicode="&#x208d;" 
d="M179 186v-161q0 -127 86 -175l-13 -41q-117 61 -117 207v179q0 146 117 207l13 -41q-86 -48 -86 -175z" />
    <glyph glyph-name="uni208E" unicode="&#x208e;" 
d="M171 25v161q0 127 -86 175l13 41q117 -61 117 -207v-179q0 -146 -117 -207l-13 41q86 48 86 175z" />
    <glyph glyph-name="uni2090" unicode="&#x2090;" 
d="M153 -96q33 0 62.5 15.5t44.5 39.5v84h-97q-44 0 -66.5 -20.5t-22.5 -50.5v-5q0 -28 22.5 -45.5t56.5 -17.5zM171 197q-60 0 -92 -57l-39 14q42 81 133 81q58 0 94.5 -34.5t36.5 -95.5v-230h-44v40q-42 -49 -112 -49q-50 0 -84 27t-34 72v6q0 49 36.5 78.5t101.5 29.5h92
v23q0 46 -24 70.5t-65 24.5z" />
    <glyph glyph-name="uni2091" unicode="&#x2091;" 
d="M175 197q-45 0 -70 -33t-25 -93v-9h190v9q0 60 -25 93t-70 33zM175 -134q-64 0 -101.5 44t-37.5 116v49q0 72 37.5 116t101.5 44t101.5 -44t37.5 -116v-48h-234v-3q0 -56 25.5 -88t69.5 -32q35 0 58 19t32 51l44 -5q-12 -47 -48 -75t-86 -28z" />
    <glyph glyph-name="uni2092" unicode="&#x2092;" 
d="M175 -96q45 0 70 33t25 93v41q0 60 -25 93t-70 33t-70 -33t-25 -93v-41q0 -60 25 -93t70 -33zM175 235q64 0 101.5 -44t37.5 -116v-49q0 -72 -37.5 -116t-101.5 -44t-101.5 44t-37.5 116v49q0 72 37.5 116t101.5 44z" />
    <glyph glyph-name="uni2093" unicode="&#x2093;" 
d="M75 -125h-48l121 178l-111 164h48l89 -132l90 132h48l-112 -164l122 -178h-48l-100 145z" />
    <glyph glyph-name="uni2094" unicode="&#x2094;" 
d="M175 -96q45 0 70 33t25 93v9h-190v-9q0 -60 25 -93t70 -33zM175 235q64 0 101.5 -44t37.5 -116v-49q0 -72 -37.5 -116t-101.5 -44t-101.5 44t-37.5 116v48h234v3q0 56 -25.5 88t-69.5 32q-35 0 -58 -19t-32 -51l-44 5q12 47 48 75t86 28z" />
    <glyph glyph-name="uni20A0" unicode="&#x20a0;" horiz-adv-x="684" 
d="M230 204q-80 0 -132.5 58.5t-52.5 147.5v96q0 89 52.5 147.5t132.5 58.5q139 0 181 -131l-45 -9q-29 97 -136 97q-60 0 -98.5 -45t-38.5 -119v-94q0 -74 38.5 -119t98.5 -45q92 0 128 66v177h292v-43h-244v-174h213v-43h-213v-188h244v-42h-292v253q-45 -49 -128 -49z
" />
    <glyph glyph-name="colonmonetary" unicode="&#x20a1;" horiz-adv-x="576" 
d="M258 -94h-38v93q-76 23 -120 93.5t-44 170.5v174q0 100 44 170t120 94v84h38v-76q16 3 35 3q17 0 26 -2v75h38v-81q69 -18 114 -71.5t57 -132.5l-50 -8q-21 129 -121 164v-613q100 35 121 165l50 -8q-12 -80 -57 -133.5t-114 -70.5v-90h-38v83q-9 -1 -26 -1q-19 0 -35 3
v-85zM106 270q0 -84 30 -141.5t84 -81.5v605q-54 -24 -84 -81t-30 -141v-160zM293 33q17 0 26 1v631q-9 2 -26 2q-19 0 -35 -3v-628q16 -3 35 -3z" />
    <glyph glyph-name="uni20A2" unicode="&#x20a2;" horiz-adv-x="576" 
d="M56 263v174q0 123 65.5 199t171.5 76q94 0 157.5 -57.5t77.5 -154.5l-50 -8q-13 84 -62 129.5t-123 45.5q-85 0 -136 -63.5t-51 -173.5v-160q0 -99 41 -160.5t112 -73.5v355h47v-48q38 59 114 59q28 0 45 -8v-41q-20 8 -47 8q-72 0 -112 -74v-254q69 5 114 50t58 125
l50 -8q-14 -97 -77.5 -154.5t-157.5 -57.5q-106 0 -171.5 76t-65.5 199z" />
    <glyph glyph-name="franc" unicode="&#x20a3;" horiz-adv-x="525" 
d="M16 302h63v83h-63v34h63v281h402v-45h-352v-236h238v-34h-238v-83h238v-34h-238v-268h-50v268h-63v34z" />
    <glyph glyph-name="lira" unicode="&#x20a4;" horiz-adv-x="572" 
d="M51 279h73v83h-73v34h73v94q0 104 50.5 163t141.5 59q166 0 203 -186l-49 -9q-29 150 -154 150q-67 0 -104.5 -47t-37.5 -140v-84h219v-34h-219v-83h219v-34h-219v-5q0 -122 -62 -195h414v-45h-474v40q72 70 72 193v12h-73v34z" />
    <glyph glyph-name="uni20A6" unicode="&#x20a6;" horiz-adv-x="640" 
d="M623 392h-62v-83h62v-34h-62v-275h-49l-172 275h-211v-275h-50v275h-62v34h62v83h-62v34h62v274h49l171 -274h212v274h50v-274h62v-34zM321 392l52 -83h138v83h-190zM129 392v-83h190l-52 83h-138zM394 275l117 -187v187h-117zM129 612v-186h116z" />
    <glyph glyph-name="peseta" unicode="&#x20a7;" horiz-adv-x="1038" 
d="M835 0h-173q-66 0 -99.5 35.5t-33.5 100.5v321h-66q-13 -78 -71.5 -119.5t-136.5 -41.5h-126v-296h-50v700h176q88 0 149.5 -52t62.5 -148h62v142h48v-142h132v-20q40 32 101 32q133 0 171 -133l-48 -8q-27 98 -123 98q-47 0 -73.5 -24.5t-26.5 -63.5q0 -37 22.5 -58
t80.5 -37l52 -14q71 -19 99.5 -51t28.5 -89q0 -59 -42.5 -95.5t-115.5 -36.5zM577 457v-316q0 -47 22.5 -72.5t64.5 -25.5h169q52 0 82 24t30 67q0 38 -22 61t-79 38l-52 14q-67 18 -98.5 50.5t-31.5 83.5q0 44 24 76h-109zM417 498q0 77 -47.5 117t-124.5 40h-116v-314h116
q77 0 124.5 40t47.5 117z" />
    <glyph glyph-name="uni20A8" unicode="&#x20a8;" horiz-adv-x="940" 
d="M297 306h-168v-306h-50v700h216q89 0 150.5 -50.5t61.5 -146.5q0 -80 -44 -129t-114 -63l180 -311h-57zM129 351h156q77 0 124.5 38.5t47.5 113.5t-47.5 113.5t-124.5 38.5h-156v-304zM554 377q0 59 43.5 97t109.5 38q67 0 112.5 -34.5t63.5 -98.5l-48 -8
q-13 46 -46.5 72t-81.5 26q-47 0 -76 -26.5t-29 -65.5q0 -40 24 -61.5t84 -35.5l52 -12q72 -16 102.5 -50t30.5 -95q0 -59 -45 -97t-118 -38q-70 0 -121 37t-72 108l48 8q16 -53 55 -81.5t88 -28.5q52 0 84.5 25.5t32.5 68.5q0 42 -24 66.5t-82 37.5l-52 12
q-69 16 -102 48.5t-33 87.5z" />
    <glyph glyph-name="uni20A9" unicode="&#x20a9;" horiz-adv-x="890" 
d="M105 392h-86v34h76l-78 274h54l77 -274h192l79 274h52l78 -274h192l78 274h54l-79 -274h77v-34h-87l-24 -83h111v-34h-120l-79 -275h-51l-79 275h-194l-79 -275h-51l-79 275h-120v34h110zM381 392l-24 -83h175l-24 83h-127zM559 392l23 -83h126l24 83h-173zM158 392
l23 -83h126l24 83h-173zM445 615l-54 -189h108zM592 275l54 -188l53 188h-107zM191 275l53 -188l53 188h-106z" />
    <glyph glyph-name="afii57636" unicode="&#x20aa;" horiz-adv-x="805" 
d="M79 0v700h249q104 0 152 -56.5t48 -168.5v-213h-50v204q0 99 -34.5 144t-122.5 45h-192v-655h-50zM726 700v-700h-249q-104 0 -152 56.5t-48 168.5v213h50v-204q0 -99 34.5 -144t122.5 -45h192v655h50z" />
    <glyph glyph-name="dong" unicode="&#x20ab;" horiz-adv-x="521" 
d="M220 625h166v75h50v-75h62v-40h-62v-585h-50v68q-50 -80 -152 -80q-85 0 -134 57.5t-49 155.5v86q0 98 49 155.5t134 57.5q102 0 152 -80v165h-166v40zM101 279v-70q0 -176 140 -176q47 0 85 26.5t60 70.5v228q-51 97 -145 97q-140 0 -140 -176zM133 -97h295v-36h-295v36
z" />
    <glyph glyph-name="Euro" unicode="&#x20ac;" horiz-adv-x="593" 
d="M323 388h-198v-83h186l-5 -34h-181q0 -111 51 -174.5t136 -63.5q74 0 123 45.5t62 129.5l50 -8q-14 -97 -77.5 -154.5t-157.5 -57.5q-106 0 -171.5 76t-65.5 199v8h-53v34h53v83h-53v34h53v15q0 123 65.5 199t171.5 76q94 0 157.5 -57.5t77.5 -154.5l-50 -8
q-13 84 -62 129.5t-123 45.5q-85 0 -136 -63.5t-51 -173.5v-8h203z" />
    <glyph glyph-name="afii61248" unicode="&#x2105;" horiz-adv-x="947" 
d="M668 700l-344 -700h-45l344 700h45zM722 -8q-78 0 -126 52.5t-48 126.5v95q0 74 48 126.5t126 52.5t126 -52.5t48 -126.5v-95q0 -74 -48 -126.5t-126 -52.5zM722 30q60 0 95 41.5t35 110.5v73q0 69 -35 110.5t-95 41.5t-95 -41.5t-35 -110.5v-73q0 -69 35 -110.5
t95 -41.5zM51 434v95q0 74 48 126.5t126 52.5q66 0 108 -37t56 -98l-43 -7q-24 104 -121 104q-60 0 -95 -41.5t-35 -110.5v-73q0 -69 35 -110.5t95 -41.5q97 0 121 104l43 -7q-14 -61 -56 -98t-108 -37q-78 0 -126 52.5t-48 126.5z" />
    <glyph glyph-name="uni2109" unicode="&#x2109;" horiz-adv-x="803" 
d="M298 582q0 -54 -35.5 -90t-89.5 -36t-89.5 36t-35.5 90t35.5 90t89.5 36t89.5 -36t35.5 -90zM257 582q0 38 -24 63t-60 25t-60 -25t-24 -63t24 -63t60 -25t60 25t24 63zM406 0h-50v700h402v-45h-352v-280h323v-45h-323v-330z" />
    <glyph glyph-name="afii61289" unicode="&#x2113;" horiz-adv-x="453" 
d="M248 -12q-68 0 -105.5 42.5t-42.5 119.5q-29 -12 -68 -22l-10 41q42 11 78 27v327q0 89 36.5 139t109.5 50q65 0 104 -46.5t39 -130.5v-13q0 -104 -66.5 -198.5t-174.5 -151.5q1 -142 100 -142q81 0 110 93l49 -8q-45 -127 -159 -127zM148 534v-313q93 54 143 137t50 164
v17q0 64 -25.5 97.5t-71.5 33.5q-47 0 -71.5 -36t-24.5 -100z" />
    <glyph glyph-name="afii61352" unicode="&#x2116;" horiz-adv-x="857" 
d="M79 700h48l261 -586v586h50v-700h-48l-261 586v-586h-50v700zM510 0v43h294v-43h-294zM758 290v73q0 51 -27 83.5t-74 32.5t-74 -32.5t-27 -83.5v-73q0 -51 27 -83.5t74 -32.5t74 32.5t27 83.5zM806 372v-91q0 -63 -41.5 -106.5t-107.5 -43.5t-107.5 43.5t-41.5 106.5v91
q0 63 41.5 106.5t107.5 43.5t107.5 -43.5t41.5 -106.5z" />
    <glyph glyph-name="uni2117" unicode="&#x2117;" horiz-adv-x="746" 
d="M373 17q134 0 211.5 84t77.5 232v34q0 148 -77.5 232t-211.5 84t-211.5 -84t-77.5 -232v-34q0 -148 77.5 -232t211.5 -84zM373 712q144 0 232.5 -90.5t88.5 -246.5v-50q0 -156 -88.5 -246.5t-232.5 -90.5t-232.5 90.5t-88.5 246.5v50q0 156 88.5 246.5t232.5 90.5z
M400 312h-107v-171h-41v417h148q54 0 92 -31.5t38 -91.5t-38 -91.5t-92 -31.5zM293 349h100q44 0 70 21.5t26 64.5t-26 64.5t-70 21.5h-100v-172z" />
    <glyph glyph-name="uni2120" unicode="&#x2120;" horiz-adv-x="620" 
d="M214 456q0 26 -14.5 40t-49.5 21l-27 5q-52 10 -75.5 32.5t-23.5 62.5q0 37 29.5 63t77.5 26q46 0 76 -25t42 -68l-41 -8q-16 66 -77 66q-30 0 -48 -15.5t-18 -40.5q0 -47 64 -58l27 -5q52 -10 75.5 -32.5t23.5 -63.5t-30.5 -68t-83.5 -27q-48 0 -81 26t-47 72l41 7
q21 -70 87 -70q33 0 53 17t20 43zM439 502l-109 198h-37v-334h41v255l92 -167h26l92 167v-255h41v334h-37z" />
    <glyph glyph-name="uni2121" unicode="&#x2121;" horiz-adv-x="938" 
d="M17 700h388v-45h-169v-655h-50v655h-169v45zM524 31q91 0 118 104q15 -3 45 -7q-14 -65 -56 -102.5t-107 -37.5q-80 0 -128 57.5t-48 142.5v123q0 85 47.5 143t126.5 58t127 -58t48 -143v-79h-301v-34q0 -74 33.5 -120.5t94.5 -46.5zM649 273v28q0 75 -33.5 121.5
t-93.5 46.5q-59 0 -92.5 -46.5t-33.5 -121.5v-28h253zM909 43v-43h-16q-61 0 -88 29.5t-27 96.5v586h48v-579q0 -50 15 -70t52 -20h16z" />
    <glyph glyph-name="trademark" unicode="&#x2122;" horiz-adv-x="597" 
d="M307 700l109 -198l109 198h37v-334h-41v255l-92 -167h-26l-92 167v-255h-41v334h37zM252 700v-34h-97v-300h-41v300h-97v34h235z" />
    <glyph glyph-name="Omega" unicode="&#x2126;" horiz-adv-x="590" 
d="M295 712q106 0 171.5 -76t65.5 -199v-176q0 -154 -95 -216h89v-45h-183v39q65 22 102 82t37 148v161q0 110 -51 173.5t-136 63.5t-136 -63.5t-51 -173.5v-161q0 -88 37 -148t102 -82v-39h-183v45h89q-95 62 -95 216v176q0 123 65.5 199t171.5 76z" />
    <glyph glyph-name="estimated" unicode="&#x212e;" horiz-adv-x="738" 
d="M369 712q152 0 238 -104t86 -258v-17h-499v-254q74 -62 202 -62q71 0 128 28.5t90 75.5l35 -5q-39 -59 -106.5 -93.5t-147.5 -34.5q-173 0 -261.5 100.5t-88.5 261.5q0 154 86 258t238 104zM544 362v264q-69 57 -175 57t-175 -57v-264h350z" />
    <glyph glyph-name="onethird" unicode="&#x2153;" horiz-adv-x="865" 
d="M553 139l45 2q0 -52 26.5 -81.5t66.5 -29.5t66.5 26t26.5 79q0 54 -24 81t-62 27q-28 0 -47 -11l-23 27l128 166h-190v38h246v-33l-122 -157q8 2 17 2q50 0 85.5 -35t35.5 -106q0 -68 -38.5 -105t-98.5 -37q-62 0 -100 40t-38 107zM627 700l-344 -700h-45l344 700h45z
M67 237v38h102v379l-102 -48v42l109 52h37v-425h99v-38h-245z" />
    <glyph glyph-name="twothirds" unicode="&#x2154;" horiz-adv-x="865" 
d="M552 139l45 2q0 -52 26.5 -81.5t66.5 -29.5t66.5 26t26.5 79q0 54 -24 81t-62 27q-28 0 -47 -11l-23 27l128 166h-190v38h246v-33l-122 -157q8 2 17 2q50 0 85.5 -35t35.5 -106q0 -68 -38.5 -105t-98.5 -37q-62 0 -100 40t-38 107zM627 700l-344 -700h-45l344 700h45z
M270 577q0 43 -26.5 68t-66.5 25q-39 0 -65.5 -25.5t-26.5 -67.5v-15l-45 3v12q0 56 38 93.5t99 37.5q60 0 98.5 -36.5t38.5 -94.5t-50 -115l-162 -187h212v-38h-274v32l192 221q38 45 38 87z" />
    <glyph glyph-name="onefifth" unicode="&#x2155;" horiz-adv-x="865" 
d="M574 215v240h232v-38h-188v-156q28 31 75 31q59 0 96.5 -37.5t37.5 -113.5q0 -75 -37.5 -113.5t-98.5 -38.5q-62 0 -99 38t-37 111l44 3v-6q0 -52 26 -80t66 -28t66 27.5t26 86.5q0 58 -27 86t-66 28q-46 0 -78 -40h-38zM627 700l-344 -700h-45l344 700h45zM67 237v38
h102v379l-102 -48v42l109 52h37v-425h99v-38h-245z" />
    <glyph glyph-name="twofifths" unicode="&#x2156;" horiz-adv-x="865" 
d="M574 215v240h232v-38h-188v-156q28 31 75 31q59 0 96.5 -37.5t37.5 -113.5q0 -75 -37.5 -113.5t-98.5 -38.5q-62 0 -99 38t-37 111l44 3v-6q0 -52 26 -80t66 -28t66 27.5t26 86.5q0 58 -27 86t-66 28q-46 0 -78 -40h-38zM627 700l-344 -700h-45l344 700h45zM270 577
q0 43 -26.5 68t-66.5 25q-39 0 -65.5 -25.5t-26.5 -67.5v-15l-45 3v12q0 56 38 93.5t99 37.5q60 0 98.5 -36.5t38.5 -94.5t-50 -115l-162 -187h212v-38h-274v32l192 221q38 45 38 87z" />
    <glyph glyph-name="threefifths" unicode="&#x2157;" horiz-adv-x="865" 
d="M574 215v240h232v-38h-188v-156q28 31 75 31q59 0 96.5 -37.5t37.5 -113.5q0 -75 -37.5 -113.5t-98.5 -38.5q-62 0 -99 38t-37 111l44 3v-6q0 -52 26 -80t66 -28t66 27.5t26 86.5q0 58 -27 86t-66 28q-46 0 -78 -40h-38zM627 700l-344 -700h-45l344 700h45zM37 376l45 2
q0 -52 26.5 -81.5t66.5 -29.5t66.5 26t26.5 79q0 54 -24 81t-62 27q-28 0 -47 -11l-23 27l128 166h-190v38h246v-33l-122 -157q8 2 17 2q50 0 85.5 -35t35.5 -106q0 -68 -38.5 -105t-98.5 -37q-62 0 -100 40t-38 107z" />
    <glyph glyph-name="fourfifths" unicode="&#x2158;" horiz-adv-x="865" 
d="M578 215v240h232v-38h-188v-156q28 31 75 31q59 0 96.5 -37.5t37.5 -113.5q0 -75 -37.5 -113.5t-98.5 -38.5q-62 0 -99 38t-37 111l44 3v-6q0 -52 26 -80t66 -28t66 27.5t26 86.5q0 58 -27 86t-66 28q-46 0 -78 -40h-38zM627 700l-344 -700h-45l344 700h45zM79 381h145
v240zM321 381v-38h-53v-106h-44v106h-195v32l197 325h42v-319h53z" />
    <glyph glyph-name="onesixth" unicode="&#x2159;" horiz-adv-x="865" 
d="M691 -8q-63 0 -102 41t-39 101q0 38 21 78l132 251h48l-105 -199q18 10 45 10q62 0 101.5 -40.5t39.5 -99.5q0 -60 -39 -101t-102 -41zM691 29q44 0 71 29.5t27 74.5t-27 74.5t-71 29.5t-71 -29.5t-27 -74.5t27 -74.5t71 -29.5zM627 700l-344 -700h-45l344 700h45z
M67 237v38h102v379l-102 -48v42l109 52h37v-425h99v-38h-245z" />
    <glyph glyph-name="fivesixths" unicode="&#x215a;" horiz-adv-x="865" 
d="M691 -8q-63 0 -102 41t-39 101q0 38 21 78l132 251h48l-105 -199q18 10 45 10q62 0 101.5 -40.5t39.5 -99.5q0 -60 -39 -101t-102 -41zM691 29q44 0 71 29.5t27 74.5t-27 74.5t-71 29.5t-71 -29.5t-27 -74.5t27 -74.5t71 -29.5zM627 700l-344 -700h-45l344 700h45z
M63 460v240h232v-38h-188v-156q28 31 75 31q59 0 96.5 -37.5t37.5 -113.5q0 -75 -37.5 -113.5t-98.5 -38.5q-62 0 -99 38t-37 111l44 3v-6q0 -52 26 -80t66 -28t66 27.5t26 86.5q0 58 -27 86t-66 28q-46 0 -78 -40h-38z" />
    <glyph glyph-name="oneeighth" unicode="&#x215b;" horiz-adv-x="865" 
d="M627 700l-344 -700h-45l344 700h45zM690 -8q63 0 102.5 40.5t39.5 101.5q0 43 -21.5 77.5t-59.5 47.5q28 12 44.5 38t16.5 58q0 50 -34 83t-88 33t-88 -33t-34 -83q0 -32 16.5 -58t44.5 -38q-38 -13 -59.5 -47.5t-21.5 -77.5q0 -61 39.5 -101.5t102.5 -40.5zM690 238
q43 0 70.5 -29.5t27.5 -74.5t-27.5 -74.5t-70.5 -29.5t-70.5 29.5t-27.5 74.5t27.5 74.5t70.5 29.5zM690 276q-33 0 -55.5 22t-22.5 56q0 35 22.5 57t55.5 22t55.5 -22t22.5 -57q0 -34 -22.5 -56t-55.5 -22zM67 237v38h102v379l-102 -48v42l109 52h37v-425h99v-38h-245z" />
    <glyph glyph-name="threeeighths" unicode="&#x215c;" horiz-adv-x="865" 
d="M627 700l-344 -700h-45l344 700h45zM690 -8q63 0 102.5 40.5t39.5 101.5q0 43 -21.5 77.5t-59.5 47.5q28 12 44.5 38t16.5 58q0 50 -34 83t-88 33t-88 -33t-34 -83q0 -32 16.5 -58t44.5 -38q-38 -13 -59.5 -47.5t-21.5 -77.5q0 -61 39.5 -101.5t102.5 -40.5zM690 238
q43 0 70.5 -29.5t27.5 -74.5t-27.5 -74.5t-70.5 -29.5t-70.5 29.5t-27.5 74.5t27.5 74.5t70.5 29.5zM690 276q-33 0 -55.5 22t-22.5 56q0 35 22.5 57t55.5 22t55.5 -22t22.5 -57q0 -34 -22.5 -56t-55.5 -22zM37 376l45 2q0 -52 26.5 -81.5t66.5 -29.5t66.5 26t26.5 79
q0 54 -24 81t-62 27q-28 0 -47 -11l-23 27l128 166h-190v38h246v-33l-122 -157q8 2 17 2q50 0 85.5 -35t35.5 -106q0 -68 -38.5 -105t-98.5 -37q-62 0 -100 40t-38 107z" />
    <glyph glyph-name="fiveeighths" unicode="&#x215d;" horiz-adv-x="865" 
d="M627 700l-344 -700h-45l344 700h45zM690 -8q63 0 102.5 40.5t39.5 101.5q0 43 -21.5 77.5t-59.5 47.5q28 12 44.5 38t16.5 58q0 50 -34 83t-88 33t-88 -33t-34 -83q0 -32 16.5 -58t44.5 -38q-38 -13 -59.5 -47.5t-21.5 -77.5q0 -61 39.5 -101.5t102.5 -40.5zM690 238
q43 0 70.5 -29.5t27.5 -74.5t-27.5 -74.5t-70.5 -29.5t-70.5 29.5t-27.5 74.5t27.5 74.5t70.5 29.5zM690 276q-33 0 -55.5 22t-22.5 56q0 35 22.5 57t55.5 22t55.5 -22t22.5 -57q0 -34 -22.5 -56t-55.5 -22zM63 460v240h232v-38h-188v-156q28 31 75 31q59 0 96.5 -37.5
t37.5 -113.5q0 -75 -37.5 -113.5t-98.5 -38.5q-62 0 -99 38t-37 111l44 3v-6q0 -52 26 -80t66 -28t66 27.5t26 86.5q0 58 -27 86t-66 28q-46 0 -78 -40h-38z" />
    <glyph glyph-name="seveneighths" unicode="&#x215e;" horiz-adv-x="865" 
d="M627 700l-344 -700h-45l344 700h45zM690 -8q63 0 102.5 40.5t39.5 101.5q0 43 -21.5 77.5t-59.5 47.5q28 12 44.5 38t16.5 58q0 50 -34 83t-88 33t-88 -33t-34 -83q0 -32 16.5 -58t44.5 -38q-38 -13 -59.5 -47.5t-21.5 -77.5q0 -61 39.5 -101.5t102.5 -40.5zM690 238
q43 0 70.5 -29.5t27.5 -74.5t-27.5 -74.5t-70.5 -29.5t-70.5 29.5t-27.5 74.5t27.5 74.5t70.5 29.5zM690 276q-33 0 -55.5 22t-22.5 56q0 35 22.5 57t55.5 22t55.5 -22t22.5 -57q0 -34 -22.5 -56t-55.5 -22zM40 662v38h271v-30l-160 -433h-46l159 425h-224z" />
    <glyph glyph-name="uni215F" unicode="&#x215f;" horiz-adv-x="865" 
d="M627 700l-344 -700h-45l344 700h45zM67 237v38h102v379l-102 -48v42l109 52h37v-425h99v-38h-245z" />
    <glyph glyph-name="arrowleft" unicode="&#x2190;" horiz-adv-x="812" 
d="M198 352h581v-40h-581v-105l-165 125l165 125v-105z" />
    <glyph glyph-name="arrowup" unicode="&#x2191;" horiz-adv-x="812" 
d="M426 585v-623h-40v623h-105l125 165l125 -165h-105z" />
    <glyph glyph-name="arrowright" unicode="&#x2192;" horiz-adv-x="812" 
d="M614 312h-581v40h581v105l165 -125l-165 -125v105z" />
    <glyph glyph-name="arrowdown" unicode="&#x2193;" horiz-adv-x="812" 
d="M386 127v623h40v-623h105l-125 -165l-125 165h105z" />
    <glyph glyph-name="arrowboth" unicode="&#x2194;" horiz-adv-x="812" 
d="M614 312h-416v-105l-165 125l165 125v-105h416v105l165 -125l-165 -125v105z" />
    <glyph glyph-name="arrowupdn" unicode="&#x2195;" horiz-adv-x="812" 
d="M426 585v-458h105l-125 -165l-125 165h105v458h-105l125 165l125 -165h-105z" />
    <glyph glyph-name="arrowupdnbse" unicode="&#x21a8;" horiz-adv-x="812" 
d="M426 585v-458h105l-125 -165l-125 165h105v458h-105l125 165l125 -165h-105zM263 -88v43h286v-43h-286z" />
    <glyph glyph-name="partialdiff" unicode="&#x2202;" horiz-adv-x="571" 
d="M507 476v-274q0 -99 -65 -156.5t-162 -57.5t-162 57.5t-65 156.5v27q0 99 65 156.5t162 57.5q110 0 177 -60v82q0 103 -48 152.5t-123 49.5q-56 0 -101.5 -33.5t-65.5 -101.5l-49 9q22 82 81.5 126.5t135.5 44.5q95 0 157.5 -61.5t62.5 -174.5zM280 33q74 0 125.5 45.5
t51.5 128.5v124q-27 30 -75.5 48.5t-101.5 18.5q-74 0 -125.5 -45t-51.5 -128v-19q0 -83 51.5 -128t125.5 -45z" />
    <glyph glyph-name="Delta" unicode="&#x2206;" horiz-adv-x="558" 
d="M553 0h-548l257 700h34zM75 44h408l-204 568z" />
    <glyph glyph-name="product" unicode="&#x220f;" horiz-adv-x="613" 
d="M79 -111v851h455v-851h-51v806h-354v-806h-50z" />
    <glyph glyph-name="summation" unicode="&#x2211;" horiz-adv-x="556" 
d="M53 -70l209 390l-209 378v42h461v-45h-406l203 -367v-19l-203 -375h406v-45h-461v41z" />
    <glyph glyph-name="minus" unicode="&#x2212;" horiz-adv-x="510" 
d="M457 306h-404v40h404v-40z" />
    <glyph glyph-name="uni2215" unicode="&#x2215;" horiz-adv-x="165" 
d="M277 700l-344 -700h-45l344 700h45z" />
    <glyph glyph-name="uni2219" unicode="&#x2219;" horiz-adv-x="260" 
d="M157 366v-81h-54v81h54z" />
    <glyph glyph-name="radical" unicode="&#x221a;" horiz-adv-x="474" 
d="M272 0h-45l-154 331h-67v44h97l141 -307l175 702h49z" />
    <glyph glyph-name="infinity" unicode="&#x221e;" horiz-adv-x="778" 
d="M364 332q-47 60 -80.5 82t-72.5 22q-42 0 -69 -28t-27 -76t27 -76t69 -28q39 0 72.5 22t80.5 82zM414 332q47 -60 80.5 -82t72.5 -22q42 0 69 28t27 76t-27 76t-69 28q-39 0 -72.5 -22t-80.5 -82zM389 301q-50 -62 -90.5 -86.5t-89.5 -24.5q-60 0 -99 39t-39 103t39 103
t99 39q49 0 89.5 -24.5t90.5 -86.5q50 62 90.5 86.5t89.5 24.5q60 0 99 -39t39 -103t-39 -103t-99 -39q-49 0 -89.5 24.5t-90.5 86.5z" />
    <glyph glyph-name="orthogonal" unicode="&#x221f;" horiz-adv-x="602" 
d="M571 43v-43h-459v575h48v-532h411z" />
    <glyph glyph-name="intersection" unicode="&#x2229;" horiz-adv-x="636" 
d="M318 617q101 0 170 -71t69 -192v-354h-48v344q0 112 -54 171t-137 59t-137 -59t-54 -171v-344h-48v354q0 121 69 192t170 71z" />
    <glyph glyph-name="integral" unicode="&#x222b;" horiz-adv-x="370" 
d="M209 582v-629q0 -98 -35 -135.5t-120 -37.5h-31v43h35q60 0 81.5 26.5t21.5 98.5v629q0 98 35 135.5t120 37.5h31v-43h-35q-60 0 -81.5 -26.5t-21.5 -98.5z" />
    <glyph glyph-name="approxequal" unicode="&#x2248;" horiz-adv-x="510" 
d="M444 295l44 -3q-8 -62 -42.5 -95t-86.5 -33q-33 0 -63 16t-49 36t-44.5 36t-50.5 16q-71 0 -86 -92l-44 3q8 62 42.5 95t86.5 33q33 0 63 -16.5t49 -35.5t44.5 -35.5t50.5 -16.5q71 0 86 92zM444 476l44 -3q-8 -62 -42.5 -95t-86.5 -33q-33 0 -63 16.5t-49 35.5
t-44.5 35.5t-50.5 16.5q-71 0 -86 -92l-44 3q8 62 42.5 95t86.5 33q33 0 63 -16t49 -36t44.5 -36t50.5 -16q71 0 86 92z" />
    <glyph glyph-name="notequal" unicode="&#x2260;" horiz-adv-x="510" 
d="M371 575h40l-70 -127h116v-40h-138l-89 -164h227v-40h-249l-69 -127h-40l69 127h-115v40h137l90 164h-227v40h249z" />
    <glyph glyph-name="equivalence" unicode="&#x2261;" horiz-adv-x="510" 
d="M457 464h-404v40h404v-40zM457 148h-404v40h404v-40zM457 306h-404v40h404v-40z" />
    <glyph glyph-name="lessequal" unicode="&#x2264;" horiz-adv-x="510" 
d="M457 0h-404v40h404v-40zM450 118l-390 191v42l390 191v-44l-345 -168l345 -168v-44z" />
    <glyph glyph-name="greaterequal" unicode="&#x2265;" horiz-adv-x="510" 
d="M53 0h404v40h-404v-40zM450 309l-390 -191v44l345 168l-345 168v44l390 -191v-42z" />
    <glyph glyph-name="house" unicode="&#x2302;" horiz-adv-x="600" 
d="M526 328v-328h-452v328l226 288zM122 43h356v271l-178 228l-178 -228v-271z" />
    <glyph glyph-name="revlogicalnot" unicode="&#x2310;" horiz-adv-x="510" 
d="M462 346v-40h-360v-174h-44v214h404z" />
    <glyph glyph-name="uni2318" unicode="&#x2318;" horiz-adv-x="794" 
d="M273 442v74q0 100 -88 100q-39 0 -62 -24.5t-23 -63.5t29.5 -62.5t80.5 -23.5h63zM521 516v-74h63q51 0 80.5 23.5t29.5 62.5t-23 63.5t-62 24.5q-88 0 -88 -100zM273 133v74h-63q-51 0 -80.5 -23.5t-29.5 -62.5t23 -63.5t62 -24.5q88 0 88 100zM521 403v-157h65
q68 0 110 -33t42 -92q0 -56 -35.5 -91.5t-94.5 -35.5q-64 0 -97.5 37.5t-33.5 101.5v74h-160v-74q0 -64 -33.5 -101.5t-97.5 -37.5q-59 0 -94.5 35.5t-35.5 91.5q0 59 42 92t110 33h65v157h-65q-68 0 -110 33t-42 92q0 56 35.5 91.5t94.5 35.5q64 0 97.5 -37.5t33.5 -101.5
v-74h160v74q0 64 33.5 101.5t97.5 37.5q59 0 94.5 -35.5t35.5 -91.5q0 -59 -42 -92t-110 -33h-65zM521 207v-74q0 -100 88 -100q39 0 62 24.5t23 63.5t-29.5 62.5t-80.5 23.5h-63zM317 403v-157h160v157h-160z" />
    <glyph glyph-name="lozenge" unicode="&#x25ca;" horiz-adv-x="568" 
d="M528 302l-244 -459l-244 459l244 459zM476 302l-192 362l-192 -362l192 -362z" />
    <glyph glyph-name="H18533" unicode="&#x25cf;" horiz-adv-x="1000" 
d="M162 326q0 140 99 239t239 99t239 -99t99 -239t-99 -239t-239 -99t-239 99t-99 239z" />
    <glyph glyph-name="fi" horiz-adv-x="525" 
d="M399 0v457h-229v-457h-48v457h-83v43h83v39q0 98 35 135.5t120 37.5h31v-43h-35q-60 0 -81.5 -26.5t-21.5 -98.5v-44h277v-500h-48zM399 639v73h48v-73h-48z" />
    <glyph glyph-name="fl" horiz-adv-x="564" 
d="M535 43v-43h-18q-123 0 -123 136v508q-50 25 -118 25q-62 0 -84 -26.5t-22 -98.5v-44h138v-43h-138v-457h-48v457h-83v43h83v39q0 97 33.5 135t119.5 38q68 0 119 -27v27h48v-570q0 -99 77 -99h16z" />
    <glyph glyph-name="commaaccent" horiz-adv-x="364" 
d="M176 -210h-41l43 152h51z" />
    <glyph glyph-name="zero.tnum" horiz-adv-x="520" 
d="M464 471v-242q0 -116 -56.5 -178.5t-147.5 -62.5t-147.5 62.5t-56.5 178.5v242q0 116 56.5 178.5t147.5 62.5t147.5 -62.5t56.5 -178.5zM414 235v230q0 102 -42 152t-112 50t-112 -50t-42 -152v-230q0 -102 42 -152t112 -50t112 50t42 152z" />
    <glyph glyph-name="one.tnum" horiz-adv-x="436" 
d="M70 0v45h156v602l-156 -72v50l161 75h45v-655h154v-45h-360z" />
    <glyph glyph-name="two.tnum" horiz-adv-x="517" 
d="M259 667q-64 0 -107.5 -40.5t-43.5 -108.5v-15l-50 4v12q0 83 56.5 138t144.5 55t144.5 -55t56.5 -138q0 -49 -17 -88.5t-56 -83.5l-265 -302h338v-45h-403v41l295 336q58 66 58 141q0 68 -43.5 108.5t-107.5 40.5z" />
    <glyph glyph-name="three.tnum" horiz-adv-x="500" 
d="M97 210v-4q0 -85 43.5 -129t109.5 -44q65 0 109 44t44 129q0 89 -42.5 129.5t-106.5 40.5q-34 0 -61 -11l-29 34l202 256h-298v45h360v-43l-195 -246q17 5 36 5q78 0 131 -53.5t53 -156.5q0 -102 -56.5 -160t-146.5 -58t-146.5 58t-56.5 160z" />
    <glyph glyph-name="four.tnum" horiz-adv-x="496" 
d="M464 210v-45h-82v-165h-50v165h-298v42l299 493h49v-490h82zM90 210h242v398z" />
    <glyph glyph-name="five.tnum" horiz-adv-x="513" 
d="M91 344v356h337v-45h-287v-259q48 50 127 50q86 0 140 -59t54 -170t-57 -170t-147 -59q-88 0 -145.5 57t-57.5 161l50 4v-5q0 -83 44 -127.5t109 -44.5q67 0 110.5 46t43.5 138t-41.5 138t-104.5 46q-79 0 -125 -57h-50z" />
    <glyph glyph-name="six.tnum" horiz-adv-x="492" 
d="M249 -12q-93 0 -151 61t-58 151q0 61 28 113l208 387h52l-166 -313q31 23 87 23q93 0 151 -60.5t58 -149.5q0 -90 -58 -151t-151 -61zM249 33q70 0 114.5 47.5t44.5 118.5t-44.5 118.5t-114.5 47.5t-114.5 -47.5t-44.5 -118.5t44.5 -118.5t114.5 -47.5z" />
    <glyph glyph-name="seven.tnum" horiz-adv-x="477" 
d="M42 655v45h393v-40l-244 -660h-52l243 655h-340z" />
    <glyph glyph-name="eight.tnum" horiz-adv-x="506" 
d="M253 -12q-93 0 -151 61.5t-58 150.5q0 65 32.5 117t92.5 74q-46 18 -70.5 58.5t-24.5 89.5q0 72 50.5 122.5t128.5 50.5t128.5 -50.5t50.5 -122.5q0 -49 -24.5 -89.5t-70.5 -58.5q60 -22 92.5 -74t32.5 -117q0 -89 -58 -150.5t-151 -61.5zM253 667q-55 0 -92 -36t-37 -92
t37 -91.5t92 -35.5t92 35.5t37 91.5t-37 92t-92 36zM253 33q71 0 115 48t44 119t-44 119t-115 48t-115 -48t-44 -119t44 -119t115 -48z" />
    <glyph glyph-name="nine.tnum" horiz-adv-x="492" 
d="M243 712q93 0 151 -61t58 -151q0 -61 -28 -113l-208 -387h-52l166 313q-31 -23 -87 -23q-93 0 -151 60.5t-58 149.5q0 90 58 151t151 61zM243 667q-70 0 -114.5 -47.5t-44.5 -118.5t44.5 -118.5t114.5 -47.5t114.5 47.5t44.5 118.5t-44.5 118.5t-114.5 47.5z" />
    <glyph glyph-name="parenleft.case" horiz-adv-x="344" 
d="M167 562v-423q0 -82 23.5 -127t73.5 -71l-14 -44q-66 32 -98 87t-32 145v443q0 90 32 145t98 87l14 -44q-50 -26 -73.5 -71t-23.5 -127z" />
    <glyph glyph-name="parenright.case" horiz-adv-x="344" 
d="M177 139v423q0 82 -23.5 127t-73.5 71l14 44q66 -32 98 -87t32 -145v-443q0 -90 -32 -145t-98 -87l-14 44q50 26 73.5 71t23.5 127z" />
    <glyph glyph-name="hyphen.case" horiz-adv-x="387" 
d="M334 328h-281v44h281v-44z" />
    <glyph glyph-name="at.case" horiz-adv-x="736" 
d="M479 140q63 0 98 48t35 140v91q-42 95 -137 95q-69 0 -105 -45t-36 -121v-42q0 -76 37 -121t108 -45zM655 527v-188q0 -242 -186 -242q-84 0 -133 56t-49 144v60q0 88 48 144t133 56q47 0 85.5 -21t58.5 -54v35q0 105 -72 174.5t-173 69.5t-173 -69.5t-72 -174.5v-334
q0 -104 72 -173.5t173 -69.5q56 0 94 21l21 -35q-48 -26 -115 -26q-118 0 -203 80t-85 193v354q0 114 85 194t203 80t203 -80t85 -194z" />
    <glyph glyph-name="bracketleft.case" horiz-adv-x="312" 
d="M91 -88v876h176v-42h-130v-792h130v-42h-176z" />
    <glyph glyph-name="bracketright.case" horiz-adv-x="312" 
d="M221 788v-876h-176v42h130v792h-130v42h176z" />
    <glyph glyph-name="braceleft.case" horiz-adv-x="307" 
d="M45 329v42h8q74 0 74 96v192q0 129 119 129h16v-42h-16q-73 0 -73 -85v-196q0 -89 -60 -115q60 -26 60 -115v-196q0 -85 73 -85h16v-42h-16q-119 0 -119 129v192q0 96 -74 96h-8z" />
    <glyph glyph-name="braceright.case" horiz-adv-x="307" 
d="M262 371v-42h-8q-74 0 -74 -96v-192q0 -129 -119 -129h-16v42h16q73 0 73 85v196q0 89 60 115q-60 26 -60 115v196q0 85 -73 85h-16v42h16q119 0 119 -129v-192q0 -96 74 -96h8z" />
    <glyph glyph-name="exclamdown.case" horiz-adv-x="234" 
d="M141 105v-105h-48v105l7 412h34zM141 700v-79h-48v79h48z" />
    <glyph glyph-name="guillemotleft.case" horiz-adv-x="492" 
d="M45 336v27l206 136v-41l-166 -108l166 -109v-41zM240 336v27l206 136v-41l-166 -108l166 -109v-41z" />
    <glyph glyph-name="periodcentered.case" horiz-adv-x="260" 
d="M157 390v-81h-54v81h54z" />
    <glyph glyph-name="guillemotright.case" horiz-adv-x="492" 
d="M446 363v-27l-206 -136v41l166 109l-166 108v41zM251 363v-27l-206 -136v41l166 109l-166 108v41z" />
    <glyph glyph-name="questiondown.case" horiz-adv-x="495" 
d="M234 621v79h48v-79h-48zM234 519h48v-30q0 -46 -20.5 -83t-71.5 -82q-41 -37 -58 -71t-17 -76q0 -69 38.5 -107.5t99.5 -38.5q58 0 95.5 36t47.5 106l48 -4q-10 -85 -61.5 -133t-130.5 -48q-81 0 -133 51.5t-52 136.5q0 94 86 175q47 43 64 72.5t17 71.5v24z" />
    <glyph glyph-name="endash.case" horiz-adv-x="500" 
d="M500 328h-500v44h500v-44z" />
    <glyph glyph-name="emdash.case" horiz-adv-x="1000" 
d="M1000 328h-1000v44h1000v-44z" />
    <glyph glyph-name="bullet.case" horiz-adv-x="362" 
d="M305 350q0 -51 -36 -87t-88 -36t-88 36t-36 87t36 87t88 36t88 -36t36 -87z" />
    <glyph glyph-name="guilsinglleft.case" horiz-adv-x="297" 
d="M45 336v27l206 136v-41l-166 -108l166 -109v-41z" />
    <glyph glyph-name="guilsinglright.case" horiz-adv-x="297" 
d="M251 363v-27l-206 -136v41l166 109l-166 108v41z" />
    <glyph glyph-name="zero.numerator" 
d="M175 229q-62 0 -100 41t-38 117v163q0 76 38 117t100 41t100 -41t38 -117v-163q0 -76 -38 -117t-100 -41zM175 267q42 0 68 31t26 95v151q0 64 -26 95t-68 31t-68 -31t-26 -95v-151q0 -64 26 -95t68 -31z" />
    <glyph glyph-name="one.numerator" 
d="M67 237v38h102v379l-102 -48v42l109 52h37v-425h99v-38h-245z" />
    <glyph glyph-name="two.numerator" 
d="M270 577q0 43 -26.5 68t-66.5 25q-39 0 -65.5 -25.5t-26.5 -67.5v-15l-45 3v12q0 56 38 93.5t99 37.5q60 0 98.5 -36.5t38.5 -94.5t-50 -115l-162 -187h212v-38h-274v32l192 221q38 45 38 87z" />
    <glyph glyph-name="three.numerator" 
d="M37 376l45 2q0 -52 26.5 -81.5t66.5 -29.5t66.5 26t26.5 79q0 54 -24 81t-62 27q-28 0 -47 -11l-23 27l128 166h-190v38h246v-33l-122 -157q8 2 17 2q50 0 85.5 -35t35.5 -106q0 -68 -38.5 -105t-98.5 -37q-62 0 -100 40t-38 107z" />
    <glyph glyph-name="four.numerator" 
d="M79 381h145v240zM321 381v-38h-53v-106h-44v106h-195v32l197 325h42v-319h53z" />
    <glyph glyph-name="five.numerator" 
d="M63 460v240h232v-38h-188v-156q28 31 75 31q59 0 96.5 -37.5t37.5 -113.5q0 -75 -37.5 -113.5t-98.5 -38.5q-62 0 -99 38t-37 111l44 3v-6q0 -52 26 -80t66 -28t66 27.5t26 86.5q0 58 -27 86t-66 28q-46 0 -78 -40h-38z" />
    <glyph glyph-name="six.numerator" 
d="M176 229q-63 0 -102 41t-39 101q0 38 21 78l132 251h48l-105 -199q18 10 45 10q62 0 101.5 -40.5t39.5 -99.5q0 -60 -39 -101t-102 -41zM176 266q44 0 71 29.5t27 74.5t-27 74.5t-71 29.5t-71 -29.5t-27 -74.5t27 -74.5t71 -29.5z" />
    <glyph glyph-name="seven.numerator" 
d="M40 662v38h271v-30l-160 -433h-46l159 425h-224z" />
    <glyph glyph-name="eight.numerator" 
d="M175 229q-63 0 -102.5 40.5t-39.5 101.5q0 43 21.5 77.5t59.5 47.5q-28 12 -44.5 38t-16.5 58q0 50 34 83t88 33t88 -33t34 -83q0 -32 -16.5 -58t-44.5 -38q38 -13 59.5 -47.5t21.5 -77.5q0 -61 -39.5 -101.5t-102.5 -40.5zM175 475q-43 0 -70.5 -29.5t-27.5 -74.5
t27.5 -74.5t70.5 -29.5t70.5 29.5t27.5 74.5t-27.5 74.5t-70.5 29.5zM175 513q33 0 55.5 22t22.5 56q0 35 -22.5 57t-55.5 22t-55.5 -22t-22.5 -57q0 -34 22.5 -56t55.5 -22z" />
    <glyph glyph-name="nine.numerator" 
d="M174 708q63 0 102 -41t39 -101q0 -38 -21 -78l-132 -251h-48l105 199q-18 -10 -45 -10q-62 0 -101.5 40.5t-39.5 99.5q0 60 39 101t102 41zM174 671q-44 0 -71 -29.5t-27 -74.5t27 -74.5t71 -29.5t71 29.5t27 74.5t-27 74.5t-71 29.5z" />
    <glyph glyph-name="zero.denominator" 
d="M175 -8q-62 0 -100 41t-38 117v163q0 76 38 117t100 41t100 -41t38 -117v-163q0 -76 -38 -117t-100 -41zM175 30q42 0 68 31t26 95v151q0 64 -26 95t-68 31t-68 -31t-26 -95v-151q0 -64 26 -95t68 -31z" />
    <glyph glyph-name="one.denominator" 
d="M67 0v38h102v379l-102 -48v42l109 52h37v-425h99v-38h-245z" />
    <glyph glyph-name="two.denominator" 
d="M270 340q0 43 -26.5 68t-66.5 25q-39 0 -65.5 -25.5t-26.5 -67.5v-15l-45 3v12q0 56 38 93.5t99 37.5q60 0 98.5 -36.5t38.5 -94.5t-50 -115l-162 -187h212v-38h-274v32l192 221q38 45 38 87z" />
    <glyph glyph-name="three.denominator" 
d="M37 139l45 2q0 -52 26.5 -81.5t66.5 -29.5t66.5 26t26.5 79q0 54 -24 81t-62 27q-28 0 -47 -11l-23 27l128 166h-190v38h246v-33l-122 -157q8 2 17 2q50 0 85.5 -35t35.5 -106q0 -68 -38.5 -105t-98.5 -37q-62 0 -100 40t-38 107z" />
    <glyph glyph-name="four.denominator" 
d="M79 144h145v240zM321 144v-38h-53v-106h-44v106h-195v32l197 325h42v-319h53z" />
    <glyph glyph-name="five.denominator" 
d="M63 223v240h232v-38h-188v-156q28 31 75 31q59 0 96.5 -37.5t37.5 -113.5q0 -75 -37.5 -113.5t-98.5 -38.5q-62 0 -99 38t-37 111l44 3v-6q0 -52 26 -80t66 -28t66 27.5t26 86.5q0 58 -27 86t-66 28q-46 0 -78 -40h-38z" />
    <glyph glyph-name="six.denominator" 
d="M176 -8q-63 0 -102 41t-39 101q0 38 21 78l132 251h48l-105 -199q18 10 45 10q62 0 101.5 -40.5t39.5 -99.5q0 -60 -39 -101t-102 -41zM176 29q44 0 71 29.5t27 74.5t-27 74.5t-71 29.5t-71 -29.5t-27 -74.5t27 -74.5t71 -29.5z" />
    <glyph glyph-name="seven.denominator" 
d="M40 425v38h271v-30l-160 -433h-46l159 425h-224z" />
    <glyph glyph-name="eight.denominator" 
d="M175 -8q-63 0 -102.5 40.5t-39.5 101.5q0 43 21.5 77.5t59.5 47.5q-28 12 -44.5 38t-16.5 58q0 50 34 83t88 33t88 -33t34 -83q0 -32 -16.5 -58t-44.5 -38q38 -13 59.5 -47.5t21.5 -77.5q0 -61 -39.5 -101.5t-102.5 -40.5zM175 238q-43 0 -70.5 -29.5t-27.5 -74.5
t27.5 -74.5t70.5 -29.5t70.5 29.5t27.5 74.5t-27.5 74.5t-70.5 29.5zM175 276q33 0 55.5 22t22.5 56q0 35 -22.5 57t-55.5 22t-55.5 -22t-22.5 -57q0 -34 22.5 -56t55.5 -22z" />
    <glyph glyph-name="nine.denominator" 
d="M174 471q63 0 102 -41t39 -101q0 -38 -21 -78l-132 -251h-48l105 199q-18 -10 -45 -10q-62 0 -101.5 40.5t-39.5 99.5q0 60 39 101t102 41zM174 434q-44 0 -71 -29.5t-27 -74.5t27 -74.5t71 -29.5t71 29.5t27 74.5t-27 74.5t-71 29.5z" />
    </font>
</defs>
</svg>
