<svg width="60" height="60" viewBox="0 0 60 60" fill="none" xmlns="http://www.w3.org/2000/svg">
<path d="M55.2205 5.08804H51.996V2.91412C51.996 1.30737 50.6886 0 49.0819 0C47.4742 0 46.1664 1.30737 46.1664 2.91412V5.08804H44.2062V2.91412C44.2062 1.30737 42.8989 0 41.2921 0C39.6844 0 38.3766 1.30737 38.3766 2.91412V5.08804H36.015C35.5142 5.08804 35.1105 5.49316 35.1105 5.99258C35.1105 6.492 35.5142 6.89713 36.015 6.89713H38.3766V9.07059C38.3766 10.6787 39.6844 11.9861 41.2921 11.9861C42.8989 11.9861 44.2062 10.6787 44.2062 9.07059V6.89713H46.1664V9.07059C46.1664 10.6787 47.4742 11.9861 49.0819 11.9861C50.6886 11.9861 51.996 10.6787 51.996 9.07059V6.89713H55.2205C55.8069 6.89713 56.2843 7.37503 56.2843 7.96097V15.0742C55.7167 15.0742 6.67877 15.0742 3.80173 15.0742V7.96097C3.80173 7.37503 4.27917 6.89713 4.86557 6.89713H8.0896V9.07059C8.0896 10.6787 9.39697 11.9861 11.0037 11.9861C12.6118 11.9861 13.9192 10.6787 13.9192 9.07059V6.89713H15.8794V9.07059C15.8794 10.6787 17.1872 11.9861 18.7935 11.9861C20.4016 11.9861 21.709 10.6787 21.709 9.07059V6.89713H32.3964C32.8958 6.89713 33.3009 6.492 33.3009 5.99258C33.3009 5.49316 32.8958 5.08804 32.3964 5.08804H21.709V2.91412C21.709 1.30737 20.4016 0 18.7935 0C17.1872 0 15.8794 1.30737 15.8794 2.91412V5.08804H13.9192V2.91412C13.9192 1.30737 12.6118 0 11.0037 0C9.39697 0 8.0896 1.30737 8.0896 2.91412V5.08804H4.86557C3.28171 5.08804 1.99219 6.37711 1.99219 7.96097V55.052C1.99219 57.7808 4.2128 60 6.94153 60H8.5144C9.01382 60 9.41895 59.5958 9.41895 59.0955C9.41895 58.596 9.01382 58.1905 8.5144 58.1905H6.94153C5.21027 58.1905 3.80173 56.7828 3.80173 55.052V50.5952H56.2843V55.052C56.2843 56.7828 54.8753 58.1905 53.1445 58.1905H12.133C11.6336 58.1905 11.228 58.596 11.228 59.0955C11.228 59.5958 11.6336 60 12.133 60H53.1445C55.8728 60 58.0939 57.7808 58.0939 55.052C58.0939 53.1592 58.0939 9.97192 58.0939 7.96097C58.0939 6.37711 56.8044 5.08804 55.2205 5.08804V5.08804ZM42.0726 9.85245C41.8735 10.0525 41.5961 10.177 41.2921 10.177C40.6819 10.177 40.1862 9.68124 40.1862 9.07059C40.1862 5.9166 40.1862 6.07132 40.1862 2.91412C40.1862 2.3053 40.6819 1.80954 41.2921 1.80954C41.9014 1.80954 42.3972 2.3053 42.3972 2.91412C42.3972 9.56863 42.5171 9.40796 42.0726 9.85245V9.85245ZM50.1869 9.07059C50.1869 9.68124 49.6912 10.177 49.0819 10.177C48.4717 10.177 47.9759 9.68124 47.9759 9.07059C47.9759 5.91522 47.9759 6.07132 47.9759 2.91412C47.9759 2.3053 48.4717 1.80954 49.0819 1.80954C49.6912 1.80954 50.1869 2.3053 50.1869 2.91412V9.07059ZM17.6889 2.91412C17.6889 2.3053 18.1847 1.80954 18.7935 1.80954C19.4041 1.80954 19.8999 2.3053 19.8999 2.91412V9.07059C19.8999 9.68124 19.4041 10.177 18.7935 10.177C18.1847 10.177 17.6889 9.68124 17.6889 9.07059C17.6889 7.22717 17.6889 4.75845 17.6889 2.91412ZM9.89914 2.91412C9.89914 2.3053 10.3949 1.80954 11.0037 1.80954C11.6144 1.80954 12.1101 2.3053 12.1101 2.91412V9.07059C12.1101 9.68124 11.6144 10.177 11.0037 10.177C10.3949 10.177 9.89914 9.68124 9.89914 9.07059C9.89914 7.22717 9.89914 4.75845 9.89914 2.91412ZM12.8508 48.7857H3.80173V39.4002H12.8508V48.7857ZM12.8508 37.5906H3.80173V28.2065H12.8508V37.5906ZM12.8508 26.2679H3.80173C3.80173 24.3539 3.80173 18.7752 3.80173 16.8837H12.8508V26.2679ZM23.709 48.7857H14.6599V39.4002H23.709V48.7857ZM23.709 37.5906H14.6599V28.2065H23.709V37.5906ZM23.709 26.2679H14.6599V16.8837H23.709V26.2679ZM34.5676 48.7857H25.5185V39.4002H34.5676V48.7857ZM34.5676 37.5906H25.5185V28.2065H34.5676V37.5906ZM34.5676 26.2679H25.5185V16.8837H34.5676V26.2679ZM45.4257 48.7857H36.3766V39.4002H45.4257V48.7857ZM45.4257 37.5906H36.3766V28.2065H45.4257V37.5906ZM45.4257 26.2679H36.3766V16.8837H45.4257V26.2679ZM56.2843 48.7857H47.2353V39.4002H56.2843V48.7857ZM56.2843 37.5906H47.2353V28.2065H56.2843V37.5906ZM56.2843 26.2679H47.2353V16.8837H56.2843V26.2679Z" fill="#0F0F0F"/>
<path d="M39.1764 36.2786C39.5572 36.6595 40.1889 36.6261 40.5258 36.1994L44.8352 30.7415C45.1447 30.3492 45.0778 29.7802 44.6855 29.4708C44.2932 29.1613 43.7247 29.2282 43.4152 29.62L39.7362 34.28L38.373 32.9164C38.0196 32.563 37.4469 32.563 37.0935 32.9164C36.7401 33.2698 36.7401 33.8424 37.0935 34.1958L39.1764 36.2786Z" fill="#0F0F0F"/>
<path d="M7.32831 24.9641C7.60617 24.9641 7.8671 24.8363 8.0383 24.6198L12.3472 19.1614C12.6567 18.7696 12.5898 18.2006 12.198 17.8911C11.8057 17.5817 11.2367 17.6481 10.9272 18.0404L7.24866 22.7L5.88544 21.3367C5.53204 20.9833 4.95892 20.9833 4.60599 21.3367C4.25259 21.6901 4.25259 22.2628 4.60599 22.6162C6.83072 24.8409 6.83255 24.9641 7.32831 24.9641Z" fill="#0F0F0F"/>
<path d="M18.0936 47.6111C18.3719 47.6111 18.6328 47.4833 18.804 47.2668L23.1129 41.8084C23.4224 41.4166 23.3556 40.8476 22.9633 40.5377C22.5714 40.2282 22.0024 40.2951 21.693 40.6874L18.0139 45.347L16.6507 43.9837C16.2973 43.6303 15.7246 43.6303 15.3712 43.9837C15.0179 44.3371 15.0179 44.9098 15.3712 45.2627C17.596 47.4879 17.5978 47.6111 18.0936 47.6111V47.6111Z" fill="#0F0F0F"/>
</svg>
