<svg width="60" height="60" viewBox="0 0 60 60" fill="none" xmlns="http://www.w3.org/2000/svg">
<g clip-path="url(#clip0)">
<path d="M25 35.0357V0.892857C25 0.399777 24.6002 0 24.1071 0H0.892857C0.399777 0 0 0.399777 0 0.892857V35.0357C0 35.5288 0.399777 35.9286 0.892857 35.9286H24.1071C24.6002 35.9286 25 35.5288 25 35.0357ZM1.78571 1.78571H23.2143V20.5357H20.0125L18.7723 19.2955C21.5504 15.8201 20.9853 10.7506 17.5098 7.97243C14.0344 5.19431 8.96484 5.75949 6.18672 9.23493C3.40859 12.7104 3.97377 17.7799 7.44922 20.558C10.3906 22.9093 14.5684 22.9093 17.5098 20.558L19.0116 22.0598C19.179 22.2272 19.406 22.3214 19.6429 22.3214H23.2143V26.7857H1.78571V1.78571ZM13.1312 13.6545C12.7766 13.3119 12.2113 13.3218 11.8687 13.6765C11.5346 14.0224 11.5346 14.571 11.8687 14.917L16.2357 19.2857C13.461 21.3622 9.52846 20.7961 7.45201 18.0214C5.37556 15.2468 5.94163 11.3142 8.71629 9.23772C11.491 7.16127 15.4235 7.72734 17.5 10.502C19.1681 12.7309 19.1681 15.7924 17.5 18.0214L13.1312 13.6545ZM23.2143 34.1429H1.78571V28.5714H23.2143V34.1429Z" fill="#0F0F0F"/>
<path d="M7.14282 30.4643H8.92854V32.25H7.14282V30.4643Z" fill="#0F0F0F"/>
<path d="M3.57141 30.4643H5.35713V32.25H3.57141V30.4643Z" fill="#0F0F0F"/>
<path d="M12.5001 9.82141C10.0358 9.82431 8.03867 11.8214 8.03577 14.2857C8.03577 14.7788 8.43554 15.1786 8.92862 15.1786C9.4217 15.1786 9.82148 14.7788 9.82148 14.2857C9.82148 12.8063 11.0207 11.6071 12.5001 11.6071C12.9931 11.6071 13.3929 11.2073 13.3929 10.7143C13.3929 10.2212 12.9931 9.82141 12.5001 9.82141Z" fill="#0F0F0F"/>
<path d="M12.5 30.4643H21.4286V32.25H12.5V30.4643Z" fill="#0F0F0F"/>
<path d="M42.1428 54.4643H43.9285V56.25H42.1428V54.4643Z" fill="#0F0F0F"/>
<path d="M38.5714 54.4643H40.3571V56.25H38.5714V54.4643Z" fill="#0F0F0F"/>
<path d="M47.5 33.8214C45.0358 33.8243 43.0387 35.8214 43.0358 38.2857C43.0358 38.7788 43.4355 39.1786 43.9286 39.1786C44.4217 39.1786 44.8215 38.7788 44.8215 38.2857C44.8215 36.8063 46.0207 35.6071 47.5 35.6071C47.9931 35.6071 48.3929 35.2073 48.3929 34.7143C48.3929 34.2212 47.9931 33.8214 47.5 33.8214Z" fill="#0F0F0F"/>
<path d="M47.5 54.4643H56.4286V56.25H47.5V54.4643Z" fill="#0F0F0F"/>
<path d="M59.1071 24H35.8929C35.3998 24 35 24.3998 35 24.8929V59.0357C35 59.5288 35.3998 59.9286 35.8929 59.9286H59.1071C59.6002 59.9286 60 59.5288 60 59.0357V24.8929C60 24.3998 59.6002 24 59.1071 24ZM36.7857 25.7857H58.2143V44.5357H55.0125L53.7723 43.2955C56.5504 39.8201 55.9853 34.7506 52.5098 31.9724C49.0344 29.1943 43.9648 29.7595 41.1867 33.2349C38.4086 36.7104 38.9738 41.7799 42.4492 44.558C45.3906 46.9093 49.5684 46.9093 52.5098 44.558L54.0116 46.0598C54.179 46.2272 54.406 46.3214 54.6429 46.3214H58.2143V50.7857H36.7857V25.7857ZM48.1313 37.6545C47.7766 37.3118 47.2114 37.3217 46.8687 37.6763C46.5345 38.0223 46.5345 38.571 46.8687 38.917L51.2357 43.2857C48.461 45.3622 44.5285 44.7961 42.452 42.0214C40.3756 39.2468 40.9416 35.3142 43.7163 33.2377C46.491 31.1613 50.4235 31.7273 52.5 34.502C54.1681 36.7309 54.1681 39.7924 52.5 42.0214L48.1313 37.6545ZM58.2143 58.1429H36.7857V52.5714H58.2143V58.1429Z" fill="#0F0F0F"/>
<path d="M36.7016 9.82073L34.6636 7.78271H44.5663C45.8984 7.78271 46.9782 8.86252 46.9782 10.1946V21.2341H48.5861V10.1946C48.5834 7.97566 46.7852 6.17742 44.5663 6.17481H34.6636L36.7016 4.13679L35.5648 3L31.5861 6.97876L35.5648 10.9575L36.7016 9.82073Z" fill="#0F0F0F"/>
<path d="M23.8845 50.3623L25.9225 52.4003H16.0198C14.6877 52.4003 13.6079 51.3205 13.6079 49.9885V38.949H12V49.9885C12.0026 52.2074 13.8009 54.0056 16.0198 54.0082H25.9225L23.8845 56.0463L25.0212 57.1831L29 53.2043L25.0212 49.2255L23.8845 50.3623Z" fill="#0F0F0F"/>
</g>
<defs>
<clipPath id="clip0">
<rect width="60" height="60" fill="white"/>
</clipPath>
</defs>
</svg>
