<svg width="56" height="56" viewBox="0 0 56 56" fill="none" xmlns="http://www.w3.org/2000/svg">
<path d="M26.25 47.5588V45.8088H29.75V47.5588H26.25Z" fill="#0F0F0F"/>
<path d="M28.875 26.5588H27.125V33.5588H28.875V26.5588Z" fill="#0F0F0F"/>
<path d="M11.5895 35.3037L10.6102 36.755L16.4135 40.6699L17.3928 39.2181L11.5895 35.3037Z" fill="#0F0F0F"/>
<path d="M17.6175 29.6841L19.1329 28.8091L22.6329 34.8709L21.1175 35.7463L17.6175 29.6841Z" fill="#0F0F0F"/>
<path d="M44.4105 35.3041L38.6081 39.2198L39.5878 40.6711L45.3898 36.755L44.4105 35.3041Z" fill="#0F0F0F"/>
<path d="M7.875 44.9338H14.875V46.6838H7.875V44.9338Z" fill="#0F0F0F"/>
<path d="M48.125 44.9338H41.125V46.6838H48.125V44.9338Z" fill="#0F0F0F"/>
<path d="M3.5 8.44116H5.25V10.1912H3.5V8.44116Z" fill="#0F0F0F"/>
<path d="M12.25 8.44116H10.5V10.1912H12.25V8.44116Z" fill="#0F0F0F"/>
<path d="M7 8.44116H8.75V10.1912H7V8.44116Z" fill="#0F0F0F"/>
<path d="M52.5 8.44116H15.75V10.1912H52.5V8.44116Z" fill="#0F0F0F"/>
<path fill-rule="evenodd" clip-rule="evenodd" d="M0 50.1838V4.94116H56V50.1838H33.0671C31.9196 51.8513 30.0243 52.8477 28 52.8477C25.9757 52.8477 24.0804 51.8513 22.9329 50.1838H0ZM23.6635 46.6838C23.6635 49.0789 25.6049 51.0204 28 51.0204C30.3939 51.0178 32.334 49.0777 32.3365 46.6838C32.3365 44.2887 30.3951 42.3473 28 42.3473C25.6049 42.3473 23.6635 44.2887 23.6635 46.6838ZM30.3084 40.9728C30.8514 41.1941 31.3607 41.4915 31.8204 41.8564L41.6885 23.4788L40.1466 22.6512L30.3084 40.9728ZM33.9063 48.4338H54.25V13.6912H1.75V48.4338H22.0938C21.537 46.5697 21.8947 44.5523 23.0585 42.9928C24.2223 41.4338 26.0547 40.5169 28 40.5204C28.1854 40.5204 28.3691 40.5319 28.5503 40.5481L29.7368 38.338C27.2228 37.8039 24.6025 38.4358 22.6082 40.0568C20.6138 41.6778 19.4598 44.1139 19.4688 46.6838H17.7188C17.7141 43.4974 19.1885 40.4896 21.7101 38.5418C24.2313 36.5935 27.5142 35.9266 30.5959 36.7358L36.4702 25.7983C29.5227 22.9875 21.6328 23.8125 15.4172 27.9999C9.20203 32.1873 5.47345 39.1895 5.46875 46.6838H3.71875C3.7196 38.5725 7.76947 30.9975 14.5144 26.4917C21.2593 21.9864 29.8081 21.146 37.3011 24.2513L39.4318 20.2826L44.0589 22.7649L41.9022 26.7801C43.0681 27.5953 44.1614 28.5105 45.1693 29.5145C49.7379 34.0583 52.2988 40.2405 52.2813 46.6838H50.5313C50.5466 40.7058 48.1703 34.97 43.932 30.7544C43.0459 29.8704 42.0884 29.0608 41.069 28.334L35.1628 39.3339C37.1529 41.2616 38.2778 43.9131 38.2813 46.6838H36.5313C36.5308 44.5583 35.7349 42.51 34.3002 40.942L33.0821 43.2039C34.1357 44.7321 34.4386 46.6556 33.9063 48.4338ZM1.75 11.9412H54.25V6.69116H1.75V11.9412Z" fill="#0F0F0F"/>
</svg>
