<svg width="60" height="60" viewBox="0 0 60 60" fill="none" xmlns="http://www.w3.org/2000/svg">
<path d="M17.9999 6.3158H10.421C9.89781 6.3158 9.47363 6.73984 9.47363 7.26314V14.8421C9.47363 15.3654 9.89781 15.7894 10.421 15.7894H17.9999C18.5231 15.7894 18.9472 15.3654 18.9472 14.8421V7.26314C18.9472 6.73984 18.5231 6.3158 17.9999 6.3158ZM17.0525 13.8947H11.3683V8.21049H17.0525V13.8947Z" fill="#0F0F0F"/>
<path d="M24.3157 15.7895H31.8946C32.4177 15.7895 32.8419 15.3655 32.8419 14.8422V7.26314C32.8419 6.73984 32.4177 6.3158 31.8946 6.3158H24.3157C23.7925 6.3158 23.3683 6.73984 23.3683 7.26314V14.8421C23.3683 15.3654 23.7925 15.7895 24.3157 15.7895ZM25.263 8.21049H30.9472V13.8947H25.263V8.21049Z" fill="#0F0F0F"/>
<path d="M17.9999 18.9474H10.421C9.89781 18.9474 9.47363 19.3714 9.47363 19.8947V27.4737C9.47363 27.997 9.89781 28.421 10.421 28.421H17.9999C18.5231 28.421 18.9472 27.997 18.9472 27.4737V19.8947C18.9472 19.3716 18.5231 18.9474 17.9999 18.9474ZM17.0525 26.5263H11.3683V20.8421H17.0525V26.5263Z" fill="#0F0F0F"/>
<path d="M24.3157 28.4211H31.8946C32.4177 28.4211 32.8419 27.9971 32.8419 27.4738V19.8949C32.8419 19.3716 32.4177 18.9475 31.8946 18.9475H24.3157C23.7925 18.9475 23.3683 19.3716 23.3683 19.8949V27.4738C23.3683 27.9969 23.7925 28.4211 24.3157 28.4211ZM25.263 20.8421H30.9472V26.5263H25.263V20.8421Z" fill="#0F0F0F"/>
<path d="M17.9999 31.579H10.421C9.89781 31.579 9.47363 32.003 9.47363 32.5263V40.1052C9.47363 40.6285 9.89781 41.0526 10.421 41.0526H17.9999C18.5231 41.0526 18.9472 40.6285 18.9472 40.1052V32.5263C18.9472 32.0032 18.5231 31.579 17.9999 31.579ZM17.0525 39.158H11.3683V33.4738H17.0525V39.158Z" fill="#0F0F0F"/>
<path d="M56.7813 35.0388C56.7664 34.7426 56.6135 34.4705 56.3684 34.3036C56.1232 34.1365 55.8141 34.0938 55.533 34.1887L51.2587 35.6262C51.4141 34.2391 51.5754 30.0476 51.4484 27.545C51.4484 21.6507 48.714 14.6082 46.7079 12.5698C46.3846 12.2412 45.8716 12.193 45.4927 12.4559C45.3548 12.5514 42.5401 18.5167 39.1578 21.7548V4.23157C39.1577 1.89835 37.2595 0 34.9261 0H7.38941C5.05606 0 3.15771 1.89835 3.15771 4.23157V59.0527C3.15771 59.576 3.58189 60 4.10506 60H38.2104C38.7335 60 39.1577 59.576 39.1577 59.0527V57.2986C39.9312 57.4214 40.7178 57.4837 41.51 57.4837C43.4687 57.4837 45.4607 57.105 47.3644 56.3328C51.2031 54.7762 57.5308 49.9397 56.7813 35.0388ZM24.6315 58.1053H16.421V47.6211C16.421 46.7853 17.1009 46.1053 17.9368 46.1053H23.1157C23.9515 46.1053 24.6315 46.7853 24.6315 47.6211V58.1053ZM37.263 58.1053H26.5261V47.6211C26.5261 45.7405 24.9961 44.2106 23.1157 44.2106H17.9368C16.0561 44.2106 14.5263 45.7406 14.5263 47.6211V58.1053H5.05254V4.23157C5.05254 2.943 6.10084 1.8947 7.38941 1.8947H34.9263C36.2148 1.8947 37.2631 2.943 37.2631 4.23157V23.6507C34.7118 26.3206 32.6579 28.9684 31.1099 31.5789H24.3157C23.7925 31.5789 23.3683 32.003 23.3683 32.5263V40.1052C23.3683 40.6285 23.7925 41.0525 24.3157 41.0525H27.7045C27.0402 46.7093 28.8051 51.4792 32.7042 54.5236C34.0701 55.59 35.6186 56.3725 37.263 56.865V58.1053ZM28.0194 39.158H25.263V33.4737H30.0725C29.1084 35.393 28.4227 37.2897 28.0194 39.158ZM43.0632 45.3552C43.3627 45.608 43.7868 45.6503 44.1303 45.4617L48.714 42.9447C48.7062 50.6939 45.4248 53.231 43.3846 54.0584C40.6104 55.1834 37.3906 54.796 35.1818 53.0716C32.9721 51.3463 32.0143 48.5617 32.4847 45.2307C33.4301 38.5362 40.6478 32.5204 42.9369 30.7643C45.935 35.0382 42.8126 44.224 42.7791 44.3208C42.6509 44.6913 42.7637 45.1023 43.0632 45.3552ZM46.6524 54.577C46.3688 54.6921 46.0829 54.7967 45.7955 54.892C48.2499 53.1861 50.9769 49.4553 50.5676 41.3182C50.5512 40.9923 50.3682 40.6977 50.0833 40.5386C49.7983 40.3797 49.4516 40.3784 49.1655 40.5353L45.2176 42.703C46.104 39.1542 47.211 32.3078 43.7657 28.807C43.4422 28.4783 42.9294 28.4303 42.5506 28.6932C42.1141 28.9959 31.8453 36.2099 30.6088 44.9657C30.4037 46.418 30.4308 47.789 30.6774 49.0504C29.571 46.7233 29.2062 43.9231 29.6443 40.821C31.1471 30.1799 44.1303 20.5 45.9065 15.4998C51.2767 21.8392 49.2007 36.7191 49.1784 36.8418C49.1182 37.1717 49.2369 37.5087 49.4905 37.7281C49.7439 37.9474 50.0944 38.0168 50.4124 37.9096L54.9356 36.3883C55.2359 49.1316 49.92 53.252 46.6524 54.577Z" fill="#0F0F0F"/>
<path d="M52.2674 6.81569C51.9928 6.59236 51.5991 6.59236 51.3246 6.81569C48.871 8.81136 48.8661 12.5538 51.3246 14.5535C51.5991 14.7768 51.9928 14.7768 52.2674 14.5535C54.7305 12.5501 54.7163 8.80758 52.2674 6.81569ZM51.796 12.9315C50.7115 11.6456 50.6956 9.74211 51.796 8.43753C52.8806 9.72349 52.8964 11.6269 51.796 12.9315Z" fill="#0F0F0F"/>
<path d="M57.484 17.4551C57.3403 17.2525 57.1219 17.1153 56.8769 17.0738C56.6319 17.0323 56.3805 17.0898 56.178 17.2337C54.2137 18.6284 53.2971 20.7676 53.5277 23.4198C53.6933 25.3267 54.4042 26.8342 54.4343 26.8975C54.5655 27.1726 54.8224 27.3667 55.1231 27.4176C55.4236 27.4686 55.7302 27.3701 55.9448 27.1536C55.9942 27.1038 57.1622 25.915 57.9472 24.1691C59.039 21.741 58.8788 19.4194 57.484 17.4551ZM55.6125 24.5625C55.269 23.1479 55.0983 21.0338 56.472 19.4697C57.2658 21.4105 56.4083 23.3438 55.6125 24.5625Z" fill="#0F0F0F"/>
</svg>
