<svg width="60" height="60" viewBox="0 0 60 60" fill="none" xmlns="http://www.w3.org/2000/svg">
<path d="M48.3346 29.7069L44.909 20.001C44.6527 19.2747 43.9629 18.7867 43.1928 18.7867H16.5722C15.8019 18.7867 15.1123 19.2746 14.856 20.0009L11.4304 29.7069C11.2314 30.2707 11.6638 30.8807 12.2608 30.8807H47.5042C47.7899 30.8807 48.0579 30.7419 48.2229 30.5087C48.388 30.2754 48.4298 29.9764 48.3346 29.7069ZM13.5054 29.1193L16.5168 20.587C16.5248 20.5644 16.5481 20.5479 16.5721 20.5479H43.1928C43.2168 20.5479 43.2401 20.5644 43.2482 20.5871L46.2596 29.1193H13.5054Z" fill="#0F0F0F"/>
<path d="M46.7907 41.3307C43.6632 41.3307 41.2134 42.9554 41.2134 45.0294C41.2134 47.1034 43.6632 48.7281 46.7907 48.7281C49.9182 48.7281 52.368 47.1034 52.368 45.0294C52.368 42.9554 49.9182 41.3307 46.7907 41.3307ZM46.7907 46.9668C44.6065 46.9668 42.9746 45.944 42.9746 45.0294C42.9746 44.1149 44.6064 43.0921 46.7907 43.0921C48.9748 43.0921 50.6068 44.1149 50.6068 45.0294C50.6068 45.944 48.9748 46.9668 46.7907 46.9668Z" fill="#0F0F0F"/>
<path d="M12.9745 41.3307C9.84702 41.3307 7.39722 42.9554 7.39722 45.0294C7.39722 47.1034 9.84702 48.7281 12.9745 48.7281C16.102 48.7281 18.5518 47.1034 18.5518 45.0294C18.5518 42.9554 16.102 41.3307 12.9745 41.3307ZM12.9745 46.9668C10.7905 46.9668 9.15843 45.944 9.15843 45.0294C9.15843 44.1149 10.7904 43.0921 12.9745 43.0921C15.1587 43.0921 16.7906 44.1149 16.7906 45.0294C16.7906 45.944 15.1587 46.9668 12.9745 46.9668Z" fill="#0F0F0F"/>
<path fill-rule="evenodd" clip-rule="evenodd" d="M21.7443 15.9686H16.5724C14.6096 15.9686 12.852 17.2122 12.1988 19.0631L7.87225 31.3216L7.25362 28.8471C7.15553 28.455 6.80327 28.18 6.39932 28.18H1.70256C1.21624 28.18 0.821899 28.5743 0.821899 29.0607V32.8181C0.821899 33.3045 1.21624 33.6987 1.70256 33.6987H6.56667L3.56444 37.9018C2.99936 38.6929 2.70065 39.6253 2.70065 40.5976V51.6048C2.70065 53.13 3.44092 54.4854 4.58081 55.3311C4.58066 55.3353 4.58038 55.3396 4.5801 55.3438C4.57969 55.3498 4.57928 55.3559 4.57928 55.362V58.18C4.57928 59.1836 5.39573 60 6.3992 60H12.0352C13.0388 60 13.8551 59.1835 13.8551 58.18V56.2427H45.9099V58.18C45.9099 59.1836 46.7264 60 47.7298 60H53.3658C54.3694 60 55.1858 59.1835 55.1858 58.18V55.362C55.1858 55.3516 55.1846 55.3414 55.1842 55.3311C56.3241 54.4854 57.0644 53.13 57.0644 51.6048V40.5976C57.0644 39.6252 56.7656 38.6928 56.2005 37.9018L53.1983 33.6987H58.0625C58.5489 33.6987 58.9432 33.3045 58.9432 32.8181V29.0607C58.9433 28.5741 58.5492 28.18 58.0627 28.18H53.3661C52.962 28.18 52.6098 28.4551 52.5118 28.8471L51.8932 31.3215L47.5665 19.063C46.9133 17.2122 45.1557 15.9686 43.1929 15.9686H37.2557C36.6177 16.6459 35.8866 17.2393 35.082 17.7298H43.193C44.4104 17.7298 45.5005 18.5012 45.9058 19.6491L50.2427 31.9373H44.9119C44.4255 31.9373 44.0313 32.3315 44.0313 32.818C44.0313 33.3044 44.4255 33.6986 44.9119 33.6986H51.0342L54.7676 38.9254C55.1182 39.4161 55.3034 39.9943 55.3034 40.5975V50.7241H39.2173V44.09C39.2173 41.5326 37.1367 39.4521 34.5794 39.4521H25.186C22.6286 39.4521 20.5481 41.5327 20.5481 44.09V50.7241H4.46186V40.5975C4.46186 39.9943 4.64713 39.4161 4.99764 38.9254L8.73112 33.6986H41.1546C41.641 33.6986 42.0352 33.3044 42.0352 32.818C42.0352 32.3315 41.641 31.9373 41.1546 31.9373H9.5226L13.8596 19.6491C14.2648 18.5013 15.3549 17.7298 16.5724 17.7298H23.918C23.1134 17.2393 22.3823 16.6459 21.7443 15.9686ZM2.58323 29.9412V31.9373H6.21065L5.71167 29.9412H2.58323ZM12.0353 58.2388C12.0678 58.2388 12.094 58.2124 12.094 58.18V56.2427H6.34061V58.18C6.34061 58.2124 6.36698 58.2388 6.39932 58.2388H12.0353ZM53.366 58.2388C53.3983 58.2388 53.4247 58.2124 53.4247 58.18V56.2427H47.6712V58.18C47.6712 58.2124 47.6976 58.2388 47.7299 58.2388H53.366ZM7.33858 54.4814H52.4267C53.7058 54.4814 54.792 53.6421 55.1649 52.4853H4.60026C4.97315 53.6421 6.05948 54.4814 7.33858 54.4814ZM37.456 46.9667V44.9707H22.3093V46.9667H37.456ZM25.186 41.2133C23.9068 41.2133 22.8206 42.0526 22.4477 43.2093H37.3177C36.9448 42.0526 35.8585 41.2133 34.5794 41.2133H25.186ZM37.456 50.724V48.7279H22.3093V50.724H37.456ZM53.5545 31.9373H57.1821V29.9412H54.0535L53.5545 31.9373Z" fill="#0F0F0F"/>
<path d="M15.7924 38.5128H10.1564C9.67009 38.5128 9.27576 38.907 9.27576 39.3934C9.27576 39.8799 9.67009 40.2741 10.1564 40.2741H15.7924C16.2788 40.2741 16.6731 39.8799 16.6731 39.3934C16.6731 38.907 16.2788 38.5128 15.7924 38.5128Z" fill="#0F0F0F"/>
<path d="M49.6086 38.5128H43.9726C43.4861 38.5128 43.0919 38.907 43.0919 39.3934C43.0919 39.8799 43.4861 40.2741 43.9726 40.2741H49.6086C50.095 40.2741 50.4893 39.8799 50.4893 39.3934C50.4893 38.907 50.095 38.5128 49.6086 38.5128Z" fill="#0F0F0F"/>
<path d="M29.4643 0C24.4426 0 20.3572 4.08544 20.3572 9.10714C20.3572 14.1288 24.4426 18.2143 29.4643 18.2143C34.486 18.2143 38.5715 14.1288 38.5715 9.10714C38.5715 4.08544 34.4861 0 29.4643 0ZM29.4643 16.6531C25.3035 16.6531 21.9184 13.268 21.9184 9.10714C21.9184 4.94628 25.3035 1.56119 29.4643 1.56119C33.6252 1.56119 37.0103 4.94628 37.0103 9.10714C37.0103 13.268 33.6252 16.6531 29.4643 16.6531Z" fill="#0F0F0F"/>
<path d="M34.3299 7.51C34.1284 7.10723 33.6239 6.93894 33.221 7.14033L30.2273 8.63728L27.122 5.53197C26.8036 5.21355 26.2715 5.21355 25.9531 5.53197C25.6346 5.85038 25.6346 6.3824 25.9531 6.70082L29.4797 10.2274C29.7283 10.4761 30.119 10.5398 30.4338 10.3823L33.9603 8.61902C34.3631 8.41752 34.5313 7.91278 34.3299 7.51Z" fill="#0F0F0F"/>
</svg>
