<svg width="60" height="60" viewBox="0 0 60 60" fill="none" xmlns="http://www.w3.org/2000/svg">
<path d="M25.125 35.875H12V34H25.125V35.875Z" fill="#0F0F0F"/>
<path d="M27 40.5H17.625V38.625H27V40.5ZM15.75 40.5H12V38.625H15.75V40.5Z" fill="#0F0F0F"/>
<path d="M12 52H19.5V53.875H12V52Z" fill="#0F0F0F"/>
<path d="M12 47H23.25V48.875H12V47Z" fill="#0F0F0F"/>
<path d="M8.38003 9.375C6.82684 9.375 5.56754 8.11569 5.56754 6.5625C5.56754 5.00931 6.82684 3.75 8.38003 3.75V5.625C7.8623 5.625 7.44253 6.04477 7.44253 6.5625C7.44253 7.08023 7.8623 7.5 8.38003 7.5V9.375Z" fill="#0F0F0F"/>
<path d="M49.688 2.125e-06H8.37992C4.93616 -0.00274446 2.07606 2.65732 1.82932 6.09238C1.58259 9.52789 4.03345 12.5693 7.44242 13.0586V60H56.1924V6.5625C56.1888 2.96219 53.2884 0.0361655 49.688 2.125e-06ZM3.69242 6.5625C3.69562 3.97476 5.79264 1.87821 8.37992 1.875H45.0363C43.7742 3.10822 43.0628 4.79828 43.0628 6.5625C43.0628 8.32672 43.7742 10.0168 45.0363 11.25H8.37992C5.79264 11.2468 3.69562 9.15024 3.69242 6.5625ZM54.3174 58.125H9.31742V13.125H50.5674V11.25H49.6299C47.0413 11.25 44.9424 9.15116 44.9424 6.5625C44.9424 3.97385 47.0413 1.875 49.6299 1.875C52.219 1.875 54.3174 3.97385 54.3174 6.5625V58.125Z" fill="#0F0F0F"/>
<path d="M51.3145 34.2188C51.2485 33.8983 51.2289 33.5701 51.2554 33.2437C51.3511 32.4774 51.1858 31.7011 50.7867 31.0396C50.2744 30.4537 49.5818 30.055 48.8178 29.9062C48.5038 29.8311 48.2021 29.7125 47.9215 29.5537C47.6885 29.3386 47.4866 29.0918 47.3214 28.8208C46.9437 28.1374 46.3482 27.5995 45.6304 27.2924C44.8856 27.1202 44.1047 27.2035 43.413 27.5286C43.1031 27.6567 42.7762 27.74 42.4425 27.7762C42.1093 27.74 41.7824 27.6567 41.4725 27.5286C40.7804 27.2045 39.9999 27.1216 39.2551 27.2924C38.5351 27.5995 37.9386 28.1388 37.56 28.8245C37.3952 29.0955 37.1938 29.3422 36.9613 29.5574C36.6797 29.7162 36.3781 29.8348 36.0641 29.9098C35.3019 30.0582 34.6107 30.4555 34.0989 31.0396C33.6997 31.7011 33.5345 32.4774 33.6301 33.2437C33.6562 33.5701 33.6356 33.8988 33.5692 34.2197C33.4383 34.5008 33.2699 34.7626 33.0675 34.9979C32.5287 35.5751 32.1987 36.3158 32.13 37.1027C32.1987 37.8891 32.5287 38.6302 33.0675 39.207C33.2694 39.4423 33.4383 39.7037 33.5692 39.9843C33.6356 40.3052 33.6562 40.6339 33.6301 40.9603C33.5345 41.727 33.6992 42.5038 34.0989 43.1653C34.5589 43.7087 35.1847 44.0854 35.88 44.2369V54.9545L40.5675 52.6108V56.9229L44.7863 54.5128L49.005 56.928V44.2369C49.7008 44.0854 50.3266 43.7087 50.7867 43.1653C51.1858 42.5038 51.3506 41.727 51.2554 40.9603C51.2293 40.6339 51.2499 40.3052 51.3163 39.9843C51.4472 39.7037 51.6161 39.4423 51.8175 39.207C52.3568 38.6302 52.6868 37.8891 52.755 37.1027C52.6868 36.3158 52.3568 35.5751 51.8175 34.9979C51.6147 34.7626 51.4454 34.5003 51.3145 34.2188ZM40.5675 50.5142L37.755 51.9205V45.6564C38.1048 46.2282 38.6317 46.6699 39.2551 46.9153C39.6822 47.0421 40.1359 47.0513 40.5675 46.9414V50.5142ZM47.13 53.7021L44.7863 52.3622L42.4425 53.6971V46.4278C42.7762 46.4644 43.1031 46.5477 43.413 46.6763C43.901 46.8746 44.4187 46.9904 44.9447 47.0183C45.1777 47.0197 45.4088 46.984 45.6304 46.9125C46.2534 46.6676 46.7798 46.2268 47.13 45.6564V53.7021ZM50.3252 38.0745C49.9869 38.4718 49.7187 38.9237 49.531 39.4107C49.3914 39.9294 49.3397 40.4682 49.3781 41.0042C49.4221 41.3635 49.385 41.7275 49.2696 42.0703C48.9776 42.291 48.6384 42.4411 48.2786 42.5089C47.7608 42.6361 47.2678 42.8494 46.821 43.1401C46.4104 43.4729 46.0598 43.873 45.7828 44.323C45.5411 44.6718 45.2683 45.0673 45.0518 45.1378C44.6975 45.1373 44.3477 45.0604 44.0259 44.9117C43.5219 44.7048 42.9868 44.5834 42.4425 44.5528C41.8992 44.5807 41.364 44.6993 40.8591 44.9034C40.5373 45.0513 40.1876 45.1282 39.8337 45.1296C39.6172 45.0591 39.3435 44.6608 39.1022 44.3138C38.8248 43.8643 38.4742 43.4647 38.0645 43.1314C37.6168 42.8412 37.1238 42.6274 36.606 42.4997C36.2467 42.432 35.908 42.2823 35.6159 42.063C35.5001 41.7201 35.4621 41.3562 35.5051 40.9969C35.544 40.4608 35.4923 39.922 35.3522 39.4029C35.165 38.9163 34.8963 38.4645 34.5585 38.0672C34.2989 37.7948 34.1094 37.4639 34.005 37.1027C34.1099 36.7401 34.2998 36.4083 34.5603 36.135C34.8981 35.7376 35.1668 35.2858 35.3541 34.7992C35.4941 34.2801 35.5459 33.7413 35.507 33.2053C35.4635 32.8469 35.5005 32.4829 35.6159 32.1405C35.908 31.9199 36.2467 31.7697 36.606 31.7015C37.1242 31.5747 37.6172 31.3614 38.0645 31.0707C38.4746 30.7375 38.8257 30.3374 39.1031 29.8874C39.3444 29.5386 39.6181 29.1431 39.8337 29.0731C40.1876 29.0731 40.5378 29.15 40.8591 29.2978C41.3636 29.5033 41.8987 29.6228 42.4425 29.6512C42.9864 29.6237 43.5215 29.5052 44.0259 29.3006C44.3477 29.1532 44.697 29.0767 45.0509 29.0758C45.2674 29.1458 45.5421 29.5445 45.7828 29.8911C46.0607 30.3406 46.4113 30.7398 46.821 31.0735C47.2683 31.3642 47.7613 31.5775 48.2795 31.7043C48.6388 31.7725 48.9776 31.9226 49.2696 32.1433C49.3845 32.4857 49.4221 32.8496 49.3781 33.208C49.3397 33.7441 49.3914 34.2829 49.531 34.802C49.7187 35.289 49.9869 35.7404 50.3252 36.1377C50.5848 36.4101 50.7752 36.741 50.88 37.1027C50.7761 37.4652 50.5857 37.7971 50.3252 38.0699V38.0745Z" fill="#0F0F0F"/>
<path d="M42.4425 31.4777C39.3362 31.4777 36.8175 33.9958 36.8175 37.1027C36.8175 40.209 39.3362 42.7277 42.4425 42.7277C45.5494 42.7277 48.0675 40.209 48.0675 37.1027C48.0639 33.9972 45.548 31.4813 42.4425 31.4777ZM42.4425 40.8527C40.3716 40.8527 38.6925 39.1736 38.6925 37.1027C38.6925 35.0313 40.3716 33.3527 42.4425 33.3527C44.5139 33.3527 46.1925 35.0313 46.1925 37.1027C46.1925 39.1736 44.5139 40.8527 42.4425 40.8527Z" fill="#0F0F0F"/>
<path d="M14.8369 27H13.1143V17.0469H14.8369V27Z" fill="#0F0F0F"/>
<path d="M23.9492 18.4414H20.8457V27H19.1299V18.4414H16.0537V17.0469H23.9492V18.4414Z" fill="#0F0F0F"/>
<path d="M27.0869 27H25.3643V17.0469H27.0869V27Z" fill="#0F0F0F"/>
<path d="M30.9424 25.6191H35.4609V27H29.2129V17.0469H30.9424V25.6191Z" fill="#0F0F0F"/>
</svg>
