<svg width="60" height="60" viewBox="0 0 60 60" fill="none" xmlns="http://www.w3.org/2000/svg">
<g clip-path="url(#clip0)">
<path d="M38.9795 7.65318C36.2033 6.53362 33.1723 5.91707 30 5.91707C16.7207 5.91707 5.91706 16.7207 5.91706 30C5.91706 43.2793 16.7207 54.083 30 54.083C43.2793 54.083 54.083 43.2793 54.083 30C54.083 26.5656 53.3603 23.2969 52.0591 20.3377C51.4858 20.5134 50.8914 20.6408 50.2806 20.7152C51.4639 23.2897 52.1707 26.1264 52.2881 29.1124H50.8283C50.338 29.1124 49.9407 29.5098 49.9407 29.9996C49.9407 30.4898 50.338 30.8872 50.8283 30.8872H52.2881C52.1539 34.3007 51.2494 37.5192 49.7434 40.3739L48.4813 39.6451C48.057 39.4002 47.514 39.5453 47.2691 39.9701C47.0238 40.3945 47.1693 40.9374 47.5937 41.1827L48.8535 41.9097C47.0819 44.7057 44.7057 47.0819 41.9101 48.8539L41.1827 47.5942C40.9378 47.1698 40.3949 47.0242 39.9706 47.2692C39.5462 47.5145 39.4006 48.0574 39.6455 48.4818L40.3743 49.7438C37.5192 51.2494 34.3012 52.1544 30.8876 52.2885V50.8283C30.8876 50.3385 30.4903 49.9407 30 49.9407C29.5097 49.9407 29.1124 50.3385 29.1124 50.8283V52.2885C25.6993 52.1544 22.4808 51.2494 19.6262 49.7438L20.3545 48.4818C20.5998 48.0574 20.4543 47.5145 20.0299 47.2692C19.6056 47.0242 19.0627 47.1698 18.8173 47.5942L18.0899 48.8539C15.2948 47.0819 12.9186 44.7057 11.1465 41.9101L12.4059 41.1832C12.8307 40.9378 12.9762 40.3949 12.7309 39.9706C12.486 39.5462 11.9431 39.4007 11.5183 39.6456L10.2567 40.3743C8.75061 37.5197 7.84607 34.3012 7.71195 30.8876H9.17176C9.66202 30.8876 10.0594 30.4903 10.0594 30.0005C10.0594 29.5102 9.66202 29.1129 9.17176 29.1129H7.71149C7.84562 25.6993 8.75061 22.4808 10.2562 19.6262L11.5183 20.3549C11.6579 20.4355 11.8108 20.474 11.9614 20.474C12.2681 20.474 12.5661 20.3147 12.7309 20.0299C12.9758 19.6056 12.8302 19.0627 12.4059 18.8173L11.1461 18.0904C12.9186 15.2948 15.2943 12.9186 18.0899 11.1466L18.8173 12.4063C18.9816 12.6911 19.2801 12.8504 19.5868 12.8504C19.7374 12.8504 19.8898 12.8119 20.0295 12.7313C20.4538 12.486 20.5994 11.9431 20.3545 11.5187L19.6257 10.2567C22.4808 8.75108 25.6989 7.84608 29.1124 7.71196V9.17222C29.1124 9.66203 29.5097 10.0598 30 10.0598C30.4903 10.0598 30.8876 9.66203 30.8876 9.17222V7.7115C33.6326 7.81937 36.2518 8.42587 38.657 9.44241C38.7128 8.82906 38.8218 8.23109 38.9795 7.65318Z" fill="#0F0F0F"/>
<path d="M40.864 3.93617C37.4718 2.52374 33.7916 1.77521 30 1.77521C14.437 1.77521 1.77521 14.4365 1.77521 30C1.77521 45.5635 14.437 58.2248 30 58.2248C45.5635 58.2248 58.2248 45.5635 58.2248 30C58.2248 25.9602 57.3625 21.9857 55.7119 18.3437C56.1949 17.936 56.6403 17.485 57.042 16.9968C58.9835 21.0336 60 25.4784 60 30C60 38.0136 56.8794 45.547 51.2132 51.2132C45.547 56.8794 38.0136 60 30 60C21.9868 60 14.453 56.8794 8.78677 51.2132C3.12057 45.547 0 38.0136 0 30C0 21.9864 3.12057 14.453 8.78677 8.78677C14.453 3.12057 21.9868 0 30 0C34.2639 0 38.3954 0.89065 42.1717 2.56531C41.6955 2.98152 41.2576 3.44046 40.864 3.93617Z" fill="#0F0F0F"/>
<path d="M40.166 36.2329L34.4114 30.4793C34.4284 30.3218 34.4375 30.162 34.4375 30C34.4375 28.6052 33.7903 27.3592 32.7809 26.5453V14.8521C32.7809 14.1101 32.4925 13.412 31.9661 12.8838C31.4401 12.3596 30.7416 12.0712 30 12.0712C28.4665 12.0712 27.2186 13.3186 27.2186 14.8521V17.0512C27.2186 17.5415 27.6159 17.9388 28.1062 17.9388C28.5965 17.9388 28.9938 17.5415 28.9938 17.0512V14.8521C28.9938 14.2973 29.4452 13.846 30 13.846C30.2691 13.846 30.5223 13.9508 30.7109 14.1389C30.9009 14.3298 31.0057 14.583 31.0057 14.8521V25.6787C30.6825 25.6032 30.346 25.5624 30 25.5624C29.6539 25.5624 29.3174 25.6032 28.9938 25.6787V21.1835C28.9938 20.6932 28.5965 20.2959 28.1062 20.2959C27.6159 20.2959 27.2186 20.6932 27.2186 21.1835V26.5453C26.2092 27.3592 25.562 28.6052 25.562 30C25.562 30.9032 25.8339 31.7436 26.299 32.4454L17.3012 41.4432C16.9546 41.7902 16.9546 42.3518 17.3012 42.6988C17.4746 42.8719 17.7017 42.9584 17.9287 42.9584C18.1558 42.9584 18.3833 42.8719 18.5563 42.6988L27.5546 33.7006C28.2559 34.1661 29.0968 34.438 30 34.438C30.1726 34.438 30.3428 34.427 30.5104 34.4078C30.5456 34.465 30.5877 34.5195 30.6372 34.5694L36.2329 40.166C36.757 40.6924 37.4565 40.9822 38.2013 40.9822C38.9433 40.9822 39.6419 40.6929 40.1674 40.1674C40.5061 39.8282 40.7391 39.4231 40.8664 38.9928C41.1456 38.0466 40.9126 36.9795 40.1674 36.2338C40.1669 36.2334 40.1664 36.2334 40.166 36.2329V36.2329ZM27.3372 30C27.3372 28.532 28.5319 27.3372 30 27.3372C31.468 27.3372 32.6628 28.532 32.6628 30C32.6628 31.468 31.468 32.6628 30 32.6628C28.5319 32.6628 27.3372 31.468 27.3372 30ZM38.9122 38.9122C38.7217 39.1022 38.4695 39.207 38.2013 39.207C38.1674 39.207 38.134 39.2056 38.101 39.2024C37.8694 39.1795 37.6552 39.0788 37.489 38.9122L32.3442 33.766C32.9191 33.4067 33.4067 32.9192 33.766 32.3442L38.9122 37.4895C39.3045 37.8813 39.3045 38.5199 38.9122 38.9122Z" fill="#0F0F0F"/>
<path d="M54.9485 14.7011H53.315V13.0677H50.0481V11.2081L52.8528 6.53381H54.9485V11.4342H55.7652V13.0677H54.9485V14.7011ZM51.8171 11.4342H53.315V8.93814L51.8171 11.4342Z" fill="#0F0F0F"/>
<path d="M48.4147 14.7011H43.5143V12.7295L46.443 9.80074C46.6588 9.58339 46.7804 9.29028 46.7812 8.98401C46.7812 8.53297 46.4155 8.16727 45.9645 8.16727C45.5134 8.16727 45.1477 8.53297 45.1477 8.98401V9.80074H43.5143V8.98401C43.5143 7.6309 44.6114 6.53381 45.9645 6.53381C47.3176 6.53381 48.4147 7.6309 48.4147 8.98401C48.4171 9.72377 48.1227 10.434 47.5979 10.9556L45.4859 13.0677H48.4147V14.7011Z" fill="#0F0F0F"/>
<path d="M57.4267 17.4438C61.1871 12.9444 60.588 6.2485 56.0886 2.48814C51.5892 -1.27223 44.8933 -0.673114 41.1329 3.82629C37.3725 8.32569 37.9716 15.0216 42.471 18.782L43.5185 17.5286C40.1569 14.7295 39.2947 9.91865 41.4751 6.12628C43.6553 2.33365 48.2467 0.658156 52.357 2.15471C56.4676 3.65153 58.9065 7.88673 58.1384 12.1931C57.3697 16.4996 53.6159 19.6298 49.2419 19.6124L49.9979 19.1736L49.1782 17.7614L45.6449 19.8114L47.6948 23.3447L49.1073 22.5252L48.3429 21.2061C51.8033 21.5083 55.1934 20.1042 57.4267 17.4438Z" fill="#0F0F0F"/>
</g>
<defs>
<clipPath id="clip0">
<rect width="60" height="60" fill="white"/>
</clipPath>
</defs>
</svg>
