<svg width="60" height="60" viewBox="0 0 60 60" fill="none" xmlns="http://www.w3.org/2000/svg">
<path d="M57 0H3C1.34344 0 0 1.34344 0 3V15C0 16.6565 1.34344 18 3 18H57C58.6566 18 60 16.6565 60 15V3C60 1.34344 58.6566 0 57 0ZM58 15C58 15.5525 57.5525 16 57 16H3C2.4475 16 2 15.5525 2 15V3C2 2.4475 2.4475 2 3 2H57C57.5525 2 58 2.4475 58 3V15Z" fill="#0F0F0F"/>
<path d="M53 6C51.3434 6 50 7.34344 50 9C50 10.6566 51.3434 12 53 12C54.6566 12 56 10.6566 56 9C56 7.34344 54.6566 6 53 6ZM53 10C52.4475 10 52 9.5525 52 9C52 8.4475 52.4475 8 53 8C53.5525 8 54 8.4475 54 9C54 9.5525 53.5525 10 53 10Z" fill="#0F0F0F"/>
<path d="M45 6C43.3434 6 42 7.34344 42 9C42 10.6566 43.3434 12 45 12C46.6566 12 48 10.6566 48 9C48 7.34344 46.6566 6 45 6ZM45 10C44.4475 10 44 9.5525 44 9C44 8.4475 44.4475 8 45 8C45.5525 8 46 8.4475 46 9C46 9.5525 45.5525 10 45 10Z" fill="#0F0F0F"/>
<path d="M37 6C35.3434 6 34 7.34344 34 9C34 10.6566 35.3434 12 37 12C38.6566 12 40 10.6566 40 9C40 7.34344 38.6566 6 37 6ZM37 10C36.4475 10 36 9.5525 36 9C36 8.4475 36.4475 8 37 8C37.5525 8 38 8.4475 38 9C38 9.5525 37.5525 10 37 10Z" fill="#0F0F0F"/>
<path d="M4 10H6V14H4V10Z" fill="#0F0F0F"/>
<path d="M8 10H10V14H8V10Z" fill="#0F0F0F"/>
<path d="M12 10H14V14H12V10Z" fill="#0F0F0F"/>
<path d="M16 10H18V14H16V10Z" fill="#0F0F0F"/>
<path d="M20 10H22V14H20V10Z" fill="#0F0F0F"/>
<path d="M24 10H26V14H24V10Z" fill="#0F0F0F"/>
<path d="M4 4H6V8H4V4Z" fill="#0F0F0F"/>
<path d="M8 4H10V8H8V4Z" fill="#0F0F0F"/>
<path d="M12 4H14V8H12V4Z" fill="#0F0F0F"/>
<path d="M16 4H18V8H16V4Z" fill="#0F0F0F"/>
<path d="M20 4H22V8H20V4Z" fill="#0F0F0F"/>
<path d="M24 4H26V8H24V4Z" fill="#0F0F0F"/>
<path d="M57 42H3C1.34344 42 0 43.3434 0 45V57C0 58.6566 1.34344 60 3 60H57C58.6566 60 60 58.6566 60 57V45C60 43.3434 58.6566 42 57 42ZM58 57C58 57.5525 57.5525 58 57 58H3C2.4475 58 2 57.5525 2 57V45C2 44.4475 2.4475 44 3 44H57C57.5525 44 58 44.4475 58 45V57Z" fill="#0F0F0F"/>
<path d="M53 48C51.3434 48 50 49.3434 50 51C50 52.6566 51.3434 54 53 54C54.6566 54 56 52.6566 56 51C56 49.3434 54.6566 48 53 48ZM53 52C52.4475 52 52 51.5525 52 51C52 50.4475 52.4475 50 53 50C53.5525 50 54 50.4475 54 51C54 51.5525 53.5525 52 53 52Z" fill="#0F0F0F"/>
<path d="M45 48C43.3434 48 42 49.3434 42 51C42 52.6566 43.3434 54 45 54C46.6566 54 48 52.6566 48 51C48 49.3434 46.6566 48 45 48ZM45 52C44.4475 52 44 51.5525 44 51C44 50.4475 44.4475 50 45 50C45.5525 50 46 50.4475 46 51C46 51.5525 45.5525 52 45 52Z" fill="#0F0F0F"/>
<path d="M37 48C35.3434 48 34 49.3434 34 51C34 52.6566 35.3434 54 37 54C38.6566 54 40 52.6566 40 51C40 49.3434 38.6566 48 37 48ZM37 52C36.4475 52 36 51.5525 36 51C36 50.4475 36.4475 50 37 50C37.5525 50 38 50.4475 38 51C38 51.5525 37.5525 52 37 52Z" fill="#0F0F0F"/>
<path d="M41 40H49C49.5525 40 50 39.5525 50 39V31H54C54.4043 31 54.769 30.7562 54.9237 30.3828C55.0784 30.0094 54.9925 29.5787 54.7068 29.2931L45.7069 20.2931C45.3162 19.9028 44.6837 19.9028 44.2931 20.2931L35.2931 29.2931C35.0075 29.5787 34.9216 30.0094 35.0762 30.3828C35.2309 30.7562 35.5956 31 36 31H40V39C40 39.5525 40.4475 40 41 40ZM38.4141 29L45 22.414L51.5859 29H49C48.4475 29 48 29.4475 48 30V38H42V30C42 29.4475 41.5525 29 41 29H38.4141Z" fill="#0F0F0F"/>
<path d="M19 20H11C10.4475 20 9.99999 20.4475 9.99999 21V29H5.99999C5.59562 29 5.23093 29.2438 5.07624 29.6172C4.92156 29.9906 5.00749 30.4213 5.29312 30.7069L14.2931 39.7069C14.6837 40.0972 15.3162 40.0972 15.7069 39.7069L24.7069 30.7069C24.9925 30.4213 25.0784 29.9906 24.9237 29.6172C24.7691 29.2438 24.4044 29 24 29H20V21C20 20.4475 19.5525 20 19 20ZM21.5859 31L15 37.586L8.41406 31H11C11.5525 31 12 30.5525 12 30V22H18V30C18 30.5525 18.4475 31 19 31H21.5859Z" fill="#0F0F0F"/>
<path d="M4 52H6V56H4V52Z" fill="#0F0F0F"/>
<path d="M8 52H10V56H8V52Z" fill="#0F0F0F"/>
<path d="M12 52H14V56H12V52Z" fill="#0F0F0F"/>
<path d="M16 52H18V56H16V52Z" fill="#0F0F0F"/>
<path d="M20 52H22V56H20V52Z" fill="#0F0F0F"/>
<path d="M24 52H26V56H24V52Z" fill="#0F0F0F"/>
<path d="M4 46H6V50H4V46Z" fill="#0F0F0F"/>
<path d="M8 46H10V50H8V46Z" fill="#0F0F0F"/>
<path d="M12 46H14V50H12V46Z" fill="#0F0F0F"/>
<path d="M16 46H18V50H16V46Z" fill="#0F0F0F"/>
<path d="M20 46H22V50H20V46Z" fill="#0F0F0F"/>
<path d="M24 46H26V50H24V46Z" fill="#0F0F0F"/>
</svg>
