<svg width="60" height="60" viewBox="0 0 60 60" fill="none" xmlns="http://www.w3.org/2000/svg">
<path d="M56 40.1586V23.3235C56 21.2928 54.3479 19.6408 52.3173 19.6408H29.2509V19.2083C29.2509 18.6403 29.05 18.1188 28.7161 17.7098C28.9638 17.4066 29.1366 17.0435 29.2106 16.65C30.1491 16.0967 30.7474 15.0832 30.7474 13.9706C30.7474 13.4452 30.6121 12.9317 30.3586 12.4742C30.612 12.0166 30.7474 11.5032 30.7474 10.9777C30.7474 9.86972 30.1538 8.86522 29.2334 8.31156C29.2451 8.20306 29.2509 8.09413 29.2509 7.98475C29.2509 6.40877 28.0769 5.10174 26.5575 4.8925C26.0027 3.9603 24.9928 3.36683 23.8847 3.36683C23.7424 3.36683 23.5986 3.37777 23.4547 3.39964C22.8357 2.89849 22.0626 2.6186 21.2659 2.6186C21.1595 2.6186 21.0528 2.62396 20.9448 2.63467C20.2793 2.1391 19.4784 1.87036 18.6472 1.87036C17.8161 1.87036 17.0151 2.1391 16.3496 2.63467C16.2414 2.62396 16.1348 2.6186 16.0285 2.6186C15.2297 2.6186 14.4689 2.88733 13.851 3.38214C12.8655 3.48047 11.9883 4.04714 11.4853 4.89261C9.96581 5.10174 8.79178 6.40877 8.79178 7.98475C8.79178 8.09402 8.79758 8.20306 8.80928 8.31156C7.889 8.86522 7.29531 9.86972 7.29531 10.9777C7.29531 11.5032 7.43061 12.0166 7.68414 12.4742C7.43061 12.9317 7.29531 13.4452 7.29531 13.9706C7.29531 15.0832 7.89348 16.0967 8.83225 16.65C8.87348 16.8696 8.94644 17.0794 9.04509 17.275C8.44003 17.7056 8.04355 18.4107 8.04355 19.2082V20.7046C8.04355 22.0132 9.10809 23.078 10.4169 23.078H10.8066L10.8703 23.4763C11.0181 24.4001 11.4953 25.2388 12.2141 25.8378L12.5331 26.1036V28.5782C12.5331 28.8519 12.3572 29.09 12.0956 29.1704L5.53744 31.1882C3.90359 31.691 2.8058 33.1773 2.8058 34.8868V45.7703C2.8058 46.8517 3.18052 47.8468 3.80548 48.6346H1.81213C0.812875 48.6346 0 49.4475 0 50.4468V52.3173C0 53.3165 0.812875 54.1294 1.81213 54.1294H54.1879C55.1871 54.1294 56 53.3165 56 52.3173V50.4468C56 49.4475 55.1871 48.6346 54.1879 48.6346H44.6674L44.0283 43.8413H52.3173C54.3479 43.8413 56 42.1893 56 40.1586ZM10.4167 21.3243C10.0751 21.3243 9.79705 21.0464 9.79705 20.7047V19.2083C9.79705 18.9819 9.92042 18.7855 10.1022 18.6774L10.5258 21.3243H10.4167ZM10.546 16.2414C10.5495 16.2148 10.5528 16.1883 10.5552 16.1614C10.5917 15.7607 10.3505 15.3865 9.97052 15.254C9.41927 15.062 9.04892 14.5463 9.04892 13.9707C9.04892 13.5467 9.24317 13.2421 9.40603 13.0612C9.70638 12.7276 9.70638 12.221 9.40592 11.8874C9.24295 11.7065 9.04881 11.4018 9.04881 10.9778C9.04881 10.3668 9.46531 9.82739 10.0618 9.66596C10.3036 9.60044 10.5059 9.43485 10.6175 9.21063C10.7293 8.98652 10.7397 8.72522 10.6465 8.4928C10.5792 8.32578 10.5452 8.15483 10.5452 7.98497C10.5452 7.24144 11.1415 6.63452 11.8811 6.61746C11.9184 6.62249 11.9559 6.62664 11.9941 6.62894C12.3867 6.65147 12.7452 6.41271 12.8743 6.04214C13.0632 5.49986 13.5652 5.1328 14.1294 5.12088C14.1463 5.12208 14.1634 5.12285 14.1806 5.12306C14.4176 5.12591 14.6423 5.03688 14.81 4.87227C15.1388 4.54983 15.5715 4.37221 16.0283 4.37221C16.1465 4.37221 16.2718 4.38752 16.4114 4.41891C16.6948 4.48267 16.992 4.40185 17.204 4.20278C17.6016 3.82971 18.114 3.62419 18.6471 3.62419C19.1802 3.62419 19.6926 3.82971 20.0901 4.20289C20.3021 4.40196 20.5991 4.48289 20.8827 4.41902C21.0223 4.38752 21.1477 4.37231 21.2659 4.37231C21.7556 4.37231 22.2115 4.57772 22.5498 4.95058C22.7841 5.20881 23.1491 5.30364 23.4794 5.1923C23.6227 5.14406 23.7554 5.12055 23.8848 5.12055C24.4603 5.12055 24.9761 5.49089 25.1682 6.04203C25.2972 6.41249 25.6561 6.65224 26.0484 6.62883C26.0842 6.62675 26.1194 6.62282 26.1612 6.61735C26.9008 6.6343 27.4972 7.24133 27.4972 7.98486C27.4972 8.15472 27.4632 8.32567 27.396 8.49258C27.3026 8.725 27.3131 8.9863 27.4249 9.21052C27.5367 9.43474 27.7389 9.60044 27.9808 9.66585C28.5771 9.82728 28.9937 10.3667 28.9937 10.9777C28.9937 11.4017 28.7994 11.7063 28.6366 11.8873C28.3361 12.2207 28.3361 12.7275 28.6366 13.0611C28.7995 13.242 28.9937 13.5466 28.9937 13.9706C28.9937 14.5462 28.6233 15.062 28.0721 15.2539C27.6921 15.3864 27.4509 15.7606 27.4874 16.1613C27.4898 16.1882 27.493 16.2149 27.4968 16.2415C27.4852 16.5077 27.2988 16.7386 27.0355 16.8086C27.0074 16.816 26.1688 16.8349 26.1688 16.8349L25.6646 13.8096C25.59 13.3622 25.1856 13.0455 24.7343 13.0794C24.6936 13.0825 24.6538 13.0874 24.6137 13.0929L24.6086 13.0935C24.1593 13.0856 23.7437 12.8573 23.4931 12.4793C23.3306 12.2344 23.0564 12.0871 22.7624 12.0871C22.4685 12.0871 22.194 12.2344 22.0316 12.4792C21.7765 12.864 21.3504 13.0937 20.8917 13.0937C20.4331 13.0937 20.0071 12.864 19.7518 12.4792C19.5893 12.2343 19.3151 12.087 19.0211 12.087C18.7272 12.087 18.4528 12.2343 18.2903 12.4791C18.0352 12.8639 17.6092 13.0935 17.1504 13.0935C16.6918 13.0935 16.2658 12.8639 16.0105 12.4791C15.848 12.2342 15.5738 12.0869 15.2798 12.0869C14.9859 12.0869 14.7115 12.2342 14.5491 12.479C14.2984 12.857 13.8828 13.0852 13.4335 13.0932L13.4284 13.0926C13.3886 13.0871 13.3485 13.0822 13.3078 13.0791C12.8566 13.0447 12.4521 13.362 12.3775 13.8093L11.8734 16.8349C11.8734 16.8349 11.035 16.8161 11.0068 16.8087C10.7438 16.7387 10.5573 16.5076 10.546 16.2414ZM27.4973 19.2083V19.6408H27.0379L27.1922 18.6774C27.3739 18.7855 27.4973 18.9819 27.4973 19.2083ZM11.8639 18.5887H11.9826C12.7801 18.5887 13.4542 18.0175 13.5856 17.2308L13.9918 14.7929C14.4612 14.7041 14.9011 14.5086 15.2801 14.2242C15.8125 14.6239 16.4653 14.8475 17.1507 14.8475C17.8359 14.8475 18.4889 14.6238 19.0212 14.2242C19.5535 14.6239 20.2064 14.8475 20.8917 14.8475C21.577 14.8475 22.2299 14.6238 22.7622 14.2242C23.1411 14.5088 23.5811 14.704 24.0506 14.7929L24.4568 17.2309C24.5525 17.8051 24.9382 18.2632 25.4493 18.4694L25.2619 19.6408H24.2587C22.2281 19.6408 20.5761 21.293 20.5761 23.3235V27.2151C20.4182 27.2766 20.2496 27.3101 20.0791 27.3101H17.2151C16.8957 27.3101 16.5848 27.1976 16.3394 26.993L13.3363 24.4904C12.9432 24.1628 12.6824 23.7043 12.6015 23.1991L11.8639 18.5887ZM12.6112 30.8465C13.6134 30.5382 14.2866 29.6266 14.2866 28.5782V27.565L15.2169 28.3403C15.7768 28.8069 16.4864 29.0638 17.2153 29.0638H20.0793C20.2461 29.0638 20.4123 29.0496 20.5763 29.0229V34.6649C20.0618 34.7489 19.5388 34.7925 19.0138 34.7925C16.0887 34.7925 13.3303 33.4541 11.5141 31.1842L12.6112 30.8465ZM4.55952 34.8867C4.55952 33.9519 5.15988 33.1391 6.05325 32.8642L9.73339 31.7319C11.8613 34.7473 15.3254 36.546 19.0138 36.546C19.5375 36.546 20.0598 36.5091 20.5763 36.4379V40.1586C20.5763 42.1893 22.2283 43.8413 24.2589 43.8413H28.0585V48.5761C28.0585 48.5959 28.0602 48.6152 28.0615 48.6345H23.2652V47.6407C23.2652 45.6101 21.613 43.9581 19.5825 43.9581H10.2296C10.1974 43.9581 10.1712 43.9319 10.1712 43.8997V38.288C10.1712 37.8038 9.77867 37.4111 9.29436 37.4111C8.81005 37.4111 8.4175 37.8037 8.4175 38.288V43.8997C8.4175 44.8989 9.23037 45.7118 10.2296 45.7118H15.8997V48.6345H7.42383C5.84445 48.6345 4.55952 47.3496 4.55952 45.7702V34.8867ZM21.5114 47.6408V48.6346H17.6535V45.7119H19.5825C20.6461 45.7118 21.5114 46.5772 21.5114 47.6408ZM54.1879 50.3882C54.2201 50.3882 54.2463 50.4144 54.2463 50.4466V52.3172C54.2463 52.3494 54.2201 52.3756 54.1879 52.3756H1.81213C1.77986 52.3756 1.75372 52.3494 1.75372 52.3172V50.4466C1.75372 50.4144 1.77986 50.3882 1.81213 50.3882H54.1879ZM29.8092 48.6346C29.8105 48.6153 29.8121 48.5959 29.8121 48.5762V43.8414H32.5478L31.9086 48.6347L29.8092 48.6346ZM33.6779 48.6346L35.1996 37.2215C35.2652 36.7297 35.6886 36.359 36.1847 36.359H40.3915C40.8875 36.359 41.311 36.7297 41.3766 37.2215L42.8984 48.6346H33.6779ZM43.8998 42.0877C43.8644 42.0877 43.8298 42.0904 43.7954 42.0944L43.1147 36.9897C42.9335 35.6305 41.7628 34.6054 40.3915 34.6054H36.1847C34.8135 34.6054 33.6427 35.6305 33.4614 36.9897L32.7808 42.0944C32.7465 42.0904 32.7118 42.0877 32.6763 42.0877H24.2588C23.1952 42.0877 22.3298 41.2223 22.3298 40.1586V23.3235C22.3298 22.2598 23.1952 21.3945 24.2588 21.3945H52.3173C53.381 21.3945 54.2464 22.2598 54.2464 23.3235V40.1586C54.2464 41.2223 53.381 42.0877 52.3173 42.0877H43.8998Z" fill="#0F0F0F"/>
<path d="M38.2881 27.1232C36.7731 27.1232 35.5407 28.3557 35.5407 29.8706C35.5407 31.3856 36.7731 32.618 38.2881 32.618C39.803 32.618 41.0355 31.3856 41.0355 29.8706C41.0355 28.3558 39.8029 27.1232 38.2881 27.1232ZM38.2881 30.8644C37.7401 30.8644 37.2943 30.4186 37.2943 29.8706C37.2943 29.3226 37.7401 28.8768 38.2881 28.8768C38.836 28.8768 39.2818 29.3226 39.2818 29.8706C39.2817 30.4186 38.836 30.8644 38.2881 30.8644Z" fill="#0F0F0F"/>
</svg>
