<svg width="60" height="60" viewBox="0 0 60 60" fill="none" xmlns="http://www.w3.org/2000/svg">
<path d="M18.75 3.75H56.25V5.625H18.75V3.75Z" fill="#0F0F0F"/>
<path d="M3.75 3.75H5.625V5.625H3.75V3.75Z" fill="#0F0F0F"/>
<path d="M7.5 3.75H9.375V5.625H7.5V3.75Z" fill="#0F0F0F"/>
<path d="M11.25 3.75H13.125V5.625H11.25V3.75Z" fill="#0F0F0F"/>
<path fill-rule="evenodd" clip-rule="evenodd" d="M0 0V50.625H20V48.75H1.875V9.375H58.125V48.75H54V50.625H60V0H0ZM58.125 7.5H1.875V1.875H58.125V7.5Z" fill="#0F0F0F"/>
<path d="M34 14H26.5V19.625H34V14ZM32.125 17.75H28.375V15.875H32.125V17.75Z" fill="#0F0F0F"/>
<path d="M22.75 14H15.25V19.625H22.75V14ZM20.875 17.75H17.125V15.875H20.875V17.75Z" fill="#0F0F0F"/>
<path d="M45.25 14H37.75V19.625H45.25V14ZM43.375 17.75H39.625V15.875H43.375V17.75Z" fill="#0F0F0F"/>
<path d="M56.25 14H48.75V19.625H56.25V14ZM54.375 17.75H50.625V15.875H54.375V17.75Z" fill="#0F0F0F"/>
<path d="M11.5 14H4V19.625H11.5V14ZM9.625 17.75H5.875V15.875H9.625V17.75Z" fill="#0F0F0F"/>
<path d="M22.75 21.5H15.25V27.125H22.75V21.5ZM20.875 25.25H17.125V23.375H20.875V25.25Z" fill="#0F0F0F"/>
<path d="M45.25 21.5H37.75V27.125H45.25V21.5ZM43.375 25.25H39.625V23.375H43.375V25.25Z" fill="#0F0F0F"/>
<path d="M4 35.625H11.5V30H4V35.625ZM5.875 31.875H9.625V33.75H5.875V31.875Z" fill="#0F0F0F"/>
<path d="M56.2 21.375H48.7V27H56.2V21.375ZM54.325 25.125H50.575V23.25H54.325V25.125Z" fill="#0F0F0F"/>
<path d="M4 44.125H11.5V38.5H4V44.125ZM5.875 40.375H9.625V42.25H5.875V40.375Z" fill="#0F0F0F"/>
<path d="M43.2291 47.2498L36.4609 54.0178L33.1308 50.6878C32.9712 50.5325 32.7569 50.4463 32.5342 50.4478C32.3115 50.4493 32.0983 50.5385 31.9409 50.696C31.7834 50.8535 31.6943 51.0666 31.6928 51.2893C31.6913 51.512 31.7775 51.7263 31.9329 51.8859L35.862 55.815C36.0208 55.9739 36.2363 56.0631 36.4609 56.0631C36.6856 56.0631 36.901 55.9739 37.0599 55.815L44.427 48.4479C44.5075 48.3697 44.5715 48.2762 44.6155 48.173C44.6595 48.0697 44.6826 47.9588 44.6834 47.8465C44.6841 47.7343 44.6626 47.6231 44.62 47.5192C44.5774 47.4154 44.5146 47.3211 44.4353 47.2417C44.3559 47.1623 44.2616 47.0995 44.1578 47.0569C44.054 47.0143 43.9427 46.9928 43.8305 46.9935C43.7183 46.9943 43.6073 47.0173 43.5041 47.0613C43.4008 47.1053 43.3073 47.1694 43.2291 47.2498V47.2498Z" fill="#0F0F0F"/>
<path fill-rule="evenodd" clip-rule="evenodd" d="M50.9776 39.7H23.4V58.2842H50.9776V39.7ZM21.7 38V59.9842H52.6776V38H21.7Z" fill="#0F0F0F"/>
<path fill-rule="evenodd" clip-rule="evenodd" d="M45.6827 43.9957H28.6949V42.2957H45.6827V43.9957Z" fill="#0F0F0F"/>
</svg>
