<svg width="60" height="60" viewBox="0 0 60 60" fill="none" xmlns="http://www.w3.org/2000/svg">
<path d="M18.75 3.86719H56.25V5.74219H18.75V3.86719Z" fill="#0F0F0F"/>
<path d="M3.75 3.86719H5.625V5.74219H3.75V3.86719Z" fill="#0F0F0F"/>
<path d="M7.5 3.86719H9.375V5.74219H7.5V3.86719Z" fill="#0F0F0F"/>
<path d="M11.25 3.86719H13.125V5.74219H11.25V3.86719Z" fill="#0F0F0F"/>
<path d="M60 0.117188H0V50.7422H43.277L51.3908 58.5732C52.2784 59.4356 53.4682 59.9167 54.706 59.9139H54.8936C56.8163 59.8402 58.5077 58.6208 59.1856 56.8199C59.8631 55.0186 59.3948 52.9866 57.9973 51.6637L57.03 50.7422H60V0.117188ZM31.6933 48.8672H28.3067L26.8126 44.6764L22.6163 42.9382L18.598 44.8471L16.2039 42.453L18.1123 38.4348L16.3783 34.2421L12.1875 32.748V29.3614L16.3783 27.8709L18.1165 23.6746L16.2076 19.6564L18.6017 17.2623L22.6199 19.1711L26.8126 17.433L28.3067 13.2422H31.6933L33.1837 17.433L37.3801 19.1711L41.3983 17.2623L43.7924 19.6564L41.8835 23.6746L43.6217 27.8673L47.8125 29.3614V32.748L45.3433 33.6255L45.7256 32.1977L37.3059 23.7767L36.2306 24.0656C34.5135 22.4817 32.2627 21.6037 29.9268 21.6064C24.7517 21.6124 20.5577 25.8064 20.5518 30.9814C20.549 33.3174 21.4265 35.5682 23.0099 37.2853L22.722 38.3606L31.1417 46.7802L32.5708 46.398L31.6933 48.8672ZM33.9647 24.6721L28.9407 26.0184L35.5499 32.628L31.572 36.6046L24.9637 29.9963L23.6174 35.0203C22.8387 33.8173 22.4254 32.4147 22.4268 30.9814C22.4313 26.8414 25.7867 23.486 29.9268 23.4814C31.3596 23.4801 32.7621 23.8934 33.9647 24.6721ZM33.6836 48.8672L34.7708 45.808L37.4268 45.0975L41.3333 48.8672H33.6836ZM56.8835 57.063C56.3594 57.6572 55.6133 58.0096 54.8213 58.0367C54.0303 58.065 53.2617 57.7716 52.6913 57.2232L44.0625 48.8951V48.8672H44.0337L37.9688 43.0115L31.7052 44.6896L24.8135 37.8049L25.9387 33.6223L31.577 39.2606L38.2059 32.6326L32.5667 26.9934L36.7502 25.8682L43.6395 32.7571L41.9522 39.0468L56.7096 53.0223C57.8563 54.0976 57.9337 55.8925 56.8835 57.063ZM58.125 48.8672H55.0493L44.0492 38.4544L44.7542 35.8292L49.6875 34.0714V28.038L45.0357 26.385L43.9339 23.7273L46.0538 19.2664L41.7883 15.0009L37.3274 17.1208L34.6696 16.019L33.0167 11.3672H26.9833L25.3304 16.019L22.6726 17.1208L18.2117 15.0009L13.9462 19.2664L16.0661 23.7273L14.9643 26.385L10.3125 28.038V34.0714L14.9643 35.7243L16.0661 38.3821L13.9462 42.843L18.2117 47.1085L22.6726 44.9886L25.3304 46.0904L26.3164 48.8672H1.875V9.49219H58.125V48.8672ZM58.125 7.61719H1.875V1.99219H58.125V7.61719Z" fill="#0F0F0F"/>
</svg>
