<svg width="60" height="60" viewBox="0 0 60 60" fill="none" xmlns="http://www.w3.org/2000/svg">
<path d="M57.2725 35.1438H56.3746V27.0561C56.3746 25.7757 55.7373 24.6421 54.7641 23.9532V22.852C54.7641 21.2546 53.4646 19.9551 51.8672 19.9551H51.1968L53.7619 16.1911C54.6217 14.9294 54.2947 13.2034 53.0331 12.3435L35.6271 0.481728C35.016 0.0651264 34.2793 -0.0886236 33.5523 0.0493061C32.8256 0.187002 32.196 0.599385 31.7795 1.21063L16.7559 23.2563H12.5753L13.5839 13.0458C13.5953 12.9307 13.67 12.831 13.7743 12.7917C15.0738 12.3017 16.2 11.3867 16.9453 10.2153C17.004 10.1231 17.1148 10.0704 17.2294 10.082L23.7866 10.7298C24.2567 10.7754 24.675 10.4329 24.7214 9.96302C24.7678 9.4931 24.4246 9.07462 23.9546 9.02822L17.3974 8.3804C16.6363 8.30587 15.9104 8.65662 15.5026 9.2974C14.9546 10.1587 14.1266 10.8314 13.1712 11.1916C12.452 11.4628 11.9581 12.1087 11.8822 12.8776L10.8571 23.2562H9.76686L11.362 7.10728C11.4194 6.52603 11.9382 6.099 12.5202 6.15724L25.771 7.46622C26.241 7.51158 26.6594 7.16939 26.7059 6.69947C26.7523 6.22954 26.409 5.81107 25.9391 5.76466L12.6882 4.45568C11.169 4.30579 9.81045 5.41966 9.66034 6.93911L8.37455 19.9551H6.18491C4.58764 19.9551 3.28803 21.2546 3.28803 22.852V23.6032C1.98127 24.2048 1.07143 25.5258 1.07143 27.0561V56.2001C1.07143 58.2954 2.77604 60 4.87147 60H52.5747C54.67 60 56.3746 58.2954 56.3746 56.2001V48.1125H57.2725C58.3323 48.1125 59.1945 47.2503 59.1945 46.1906V37.0658C59.1946 36.006 58.3323 35.1438 57.2725 35.1438ZM51.8672 21.6651C52.5218 21.665 53.0542 22.1975 53.0542 22.8521V23.2877C52.8969 23.2678 52.7372 23.2564 52.5747 23.2564H48.9471L50.0314 21.6651H51.8672ZM33.1924 2.17345C33.3518 1.93966 33.5926 1.78192 33.8706 1.72919C33.937 1.71665 34.0037 1.71032 34.0699 1.71032C34.2805 1.71032 34.4863 1.77337 34.6642 1.89454L52.0702 13.7563C52.5527 14.0852 52.6779 14.7454 52.3491 15.228L46.878 23.2561H45.5651L48.2474 19.3201C48.6824 18.6818 48.7182 17.8694 48.3407 17.1999C47.8389 16.3105 47.6354 15.2632 47.7679 14.2508C47.8663 13.4976 47.5349 12.7624 46.903 12.3319L37.8798 6.18279C37.2478 5.75212 36.4423 5.71263 35.7773 6.07978C34.8838 6.57314 33.8346 6.76685 32.8233 6.62529C32.0733 6.52005 31.3126 6.85872 30.8841 7.48743L20.1381 23.2562H18.8251L33.1924 2.17345ZM33.5689 16.6919C29.8458 16.6919 26.7895 19.595 26.5405 23.2562H22.207L32.2968 8.45037C32.2969 8.45037 32.2969 8.45037 32.2969 8.45037C32.3542 8.36611 32.4492 8.31595 32.5468 8.31595C32.5598 8.31595 32.5728 8.31689 32.5859 8.31865C33.9614 8.51107 35.3882 8.24787 36.6036 7.57673C36.6993 7.52376 36.8221 7.53138 36.9168 7.59583L45.9401 13.745C46.0345 13.8095 46.0864 13.921 46.0724 14.0293C45.8923 15.4062 46.1691 16.8304 46.8514 18.0401C46.9062 18.1372 46.8995 18.2617 46.8346 18.3572L43.4961 23.2561H40.5977C40.3485 19.595 37.2923 16.6919 33.5689 16.6919ZM38.8832 23.2563H28.2548C28.4998 20.5388 30.7889 18.4019 33.5689 18.4019C36.3491 18.4018 38.6384 20.5388 38.8832 23.2563ZM4.99791 22.852C4.99791 22.1974 5.5303 21.6649 6.18491 21.6649H8.20569L8.04854 23.2562H4.99791V22.852ZM2.78131 27.0561C2.78131 25.9037 3.71893 24.9661 4.87147 24.9661H52.5747C53.7272 24.9661 54.6647 25.9037 54.6647 27.0561V29.4285H2.78131V27.0561ZM54.6647 56.2001C54.6647 57.3525 53.7272 58.2901 52.5747 58.2901H4.87147C3.71893 58.2901 2.78131 57.3525 2.78131 56.2001V53.8277H7.3917C7.86397 53.8277 8.24659 53.445 8.24659 52.9729C8.24659 52.5007 7.86385 52.118 7.3917 52.118H2.78131V31.1383H54.6647V35.1438H46.5359H46.5357C43.9745 35.1438 41.7559 36.6368 40.703 38.7978C40.6994 38.8051 40.6955 38.8121 40.6918 38.8194C40.6829 38.8378 40.6752 38.8569 40.6665 38.8754C40.5411 39.1418 40.4321 39.4175 40.3434 39.7021C40.3432 39.7029 40.343 39.7036 40.3427 39.7044C40.1535 40.3125 40.0514 40.9585 40.0514 41.6282C40.0514 45.2037 42.9602 48.1125 46.5356 48.1125H46.5357H54.6646V52.118H12.866C12.3937 52.118 12.0111 52.5007 12.0111 52.9729C12.0111 53.445 12.3939 53.8277 12.866 53.8277H54.6647V56.2001ZM57.4847 46.1905C57.4847 46.3075 57.3895 46.4026 57.2725 46.4026H46.536C44.726 46.4026 43.148 45.3902 42.3386 43.9021C42.3018 43.8344 42.2666 43.7658 42.233 43.6963C42.1658 43.5572 42.1052 43.4143 42.0517 43.2681C41.8639 42.7564 41.7615 42.204 41.7615 41.6282C41.7615 41.0523 41.8641 40.4999 42.0517 39.9882C42.1053 39.8421 42.1659 39.6993 42.233 39.56C42.2666 39.4905 42.3018 39.4219 42.3386 39.3542C43.148 37.8661 44.726 36.8537 46.536 36.8537H57.2725C57.3894 36.8537 57.4847 36.9489 57.4847 37.0658V46.1905Z" fill="#0F0F0F"/>
</svg>
