<svg width="60" height="60" viewBox="0 0 60 60" fill="none" xmlns="http://www.w3.org/2000/svg">
<path d="M5.35457 12.0066C5.03828 11.8174 4.62872 11.9199 4.43908 12.2362C2.35273 15.7216 1.25002 19.7219 1.25002 23.8054C1.25002 29.8304 3.59621 35.4944 7.85633 39.7545C11.9923 43.8905 17.4515 46.2225 23.2797 46.3549C23.139 45.9115 23.0089 45.4619 22.8898 45.0067C11.6115 44.5256 2.5847 35.2001 2.5847 23.8054C2.5847 19.9635 3.62203 16.2 5.58413 12.9218C5.77342 12.6055 5.67086 12.1959 5.35457 12.0066Z" fill="black"/>
<path d="M42.3217 13.4462C42.4486 13.4435 42.5758 13.4421 42.7032 13.4421C43.0953 13.4421 43.4848 13.4549 43.8714 13.4802C42.8137 11.4302 41.4326 9.53437 39.7546 7.85632C35.4944 3.5962 29.8301 1.25 23.8054 1.25C16.9389 1.25 10.5295 4.32205 6.22119 9.67834C5.9899 9.96573 6.03568 10.386 6.32272 10.6169C6.6101 10.8478 7.02998 10.8021 7.26092 10.515C11.3149 5.47501 17.3451 2.58469 23.8054 2.58469C31.7472 2.58469 38.684 6.96988 42.3217 13.4462Z" fill="black"/>
<path d="M5.35457 12.0066C5.03828 11.8174 4.62872 11.9199 4.43908 12.2362C2.35273 15.7216 1.25002 19.7219 1.25002 23.8054C1.25002 29.8304 3.59621 35.4944 7.85633 39.7545C11.9923 43.8905 17.4515 46.2225 23.2797 46.3549C23.139 45.9115 23.0089 45.4619 22.8898 45.0067C11.6115 44.5256 2.5847 35.2001 2.5847 23.8054C2.5847 19.9635 3.62203 16.2 5.58413 12.9218C5.77342 12.6055 5.67086 12.1959 5.35457 12.0066Z" stroke="#0F0F0F" stroke-width="0.5"/>
<path d="M42.3217 13.4462C42.4486 13.4435 42.5758 13.4421 42.7032 13.4421C43.0953 13.4421 43.4848 13.4549 43.8714 13.4802C42.8137 11.4302 41.4326 9.53437 39.7546 7.85632C35.4944 3.5962 29.8301 1.25 23.8054 1.25C16.9389 1.25 10.5295 4.32205 6.22119 9.67834C5.9899 9.96573 6.03568 10.386 6.32272 10.6169C6.6101 10.8478 7.02998 10.8021 7.26092 10.515C11.3149 5.47501 17.3451 2.58469 23.8054 2.58469C31.7472 2.58469 38.684 6.96988 42.3217 13.4462Z" stroke="#0F0F0F" stroke-width="0.5"/>
<path d="M38.9213 13.847C35.6785 8.94117 30.1134 5.69861 23.8054 5.69861C13.8214 5.69861 5.69864 13.8213 5.69864 23.8053C5.69864 33.2678 12.9949 41.0583 22.2569 41.8464C22.1937 41.3982 22.1409 40.9459 22.0988 40.4898C19.9181 40.2685 17.8599 39.6276 16.0055 38.6497L16.5534 37.7008C16.7375 37.3817 16.6281 36.9736 16.309 36.7891C15.99 36.6049 15.5818 36.7144 15.3977 37.0334L14.8508 37.9806C12.7489 36.6483 10.9624 34.8617 9.63042 32.7596L10.5776 32.213C10.8966 32.0285 11.0061 31.6204 10.8216 31.3013C10.6375 30.9819 10.2293 30.8728 9.91023 31.057L8.96136 31.6049C7.82904 29.4586 7.14897 27.0388 7.04812 24.4723H8.14568C8.51428 24.4723 8.81302 24.1736 8.81302 23.805C8.81302 23.4367 8.51428 23.138 8.14568 23.138H7.04812C7.14897 20.5715 7.82904 18.1517 8.96136 16.0054L9.91023 16.5533C10.0152 16.6139 10.1298 16.6428 10.243 16.6428C10.4736 16.6428 10.698 16.5231 10.8216 16.309C11.0061 15.9899 10.8966 15.5818 10.5776 15.3973L9.63042 14.8507C10.9627 12.7489 12.7493 10.9623 14.8508 9.63005L15.3977 10.5772C15.5212 10.7913 15.7456 10.911 15.9762 10.911C16.0894 10.911 16.204 10.8821 16.3094 10.8216C16.6284 10.6371 16.7378 10.2289 16.5534 9.90986L16.0058 8.96098C18.152 7.82901 20.5719 7.14859 23.138 7.04775V8.14599C23.138 8.51425 23.4367 8.81333 23.8054 8.81333C24.174 8.81333 24.4727 8.51425 24.4727 8.14599V7.04809C27.0392 7.14893 29.4587 7.82936 31.6052 8.96133L31.0573 9.9102C30.8732 10.2292 30.9826 10.6374 31.3017 10.8219C31.4067 10.8825 31.5213 10.9114 31.6345 10.9114C31.8651 10.9114 32.0895 10.7916 32.213 10.5775L32.7599 9.63039C34.642 10.8234 36.271 12.3806 37.5479 14.2023C37.9999 14.0662 38.4579 13.9475 38.9213 13.847Z" fill="black" stroke="#0F0F0F" stroke-width="0.5"/>
<path fill-rule="evenodd" clip-rule="evenodd" d="M20.4887 24.1659L16.1621 28.4917L16.1611 28.4924C15.6008 29.0531 15.4256 29.8553 15.6355 30.5667C15.7312 30.8902 15.9064 31.1948 16.1611 31.4498C16.5562 31.8449 17.0814 32.0625 17.6393 32.0625C18.1993 32.0625 18.7251 31.8446 19.1192 31.4488L23.3263 27.241C23.3635 27.2035 23.3952 27.1625 23.4217 27.1195C23.5476 27.134 23.6757 27.1422 23.8054 27.1422C24.4845 27.1422 25.1167 26.9378 25.644 26.5878L25.6563 26.6001L26.7541 25.365C27.0015 24.8993 27.1421 24.3686 27.1421 23.8055C27.1421 22.7568 26.6555 21.82 25.8966 21.2081V17.1768C25.8966 16.8082 25.5979 16.5095 25.2292 16.5095C24.8606 16.5095 24.5619 16.8082 24.5619 17.1768V20.5566C24.3186 20.4998 24.0656 20.4691 23.8054 20.4691C23.5452 20.4691 23.2923 20.4998 23.0493 20.5566V12.4166C23.0493 12.2143 23.1281 12.0239 23.2709 11.8804C23.4127 11.739 23.6031 11.6601 23.8054 11.6601C24.2226 11.6601 24.5619 11.9995 24.5619 12.4166V14.07C24.5619 14.4386 24.8606 14.7374 25.2292 14.7374C25.5979 14.7374 25.8966 14.4386 25.8966 14.07V12.4166C25.8966 11.2637 24.9584 10.3258 23.8054 10.3258C23.2479 10.3258 22.7227 10.5426 22.3272 10.9367C21.9314 11.3339 21.7146 11.8587 21.7146 12.4166V21.2081C20.9557 21.82 20.4691 22.7568 20.4691 23.8055C20.4691 23.9273 20.4759 24.0475 20.4887 24.1659ZM23.8054 21.8035C24.9092 21.8035 25.8075 22.7018 25.8075 23.8055C25.8075 24.9093 24.9092 25.8075 23.8054 25.8075C22.7017 25.8075 21.8034 24.9093 21.8034 23.8055C21.8034 22.7018 22.7017 21.8035 23.8054 21.8035ZM17.6393 30.7278C17.4376 30.7278 17.248 30.649 17.1048 30.5061C16.8099 30.2112 16.8099 29.7311 17.1048 29.4365L20.9739 25.568C21.2441 26.0003 21.6107 26.3668 22.0429 26.637L18.1748 30.5061C18.0499 30.6314 17.8888 30.7071 17.7147 30.7243C17.6899 30.7267 17.6648 30.7278 17.6393 30.7278Z" fill="black" stroke="#0F0F0F" stroke-width="0.5"/>
<path d="M55.8254 43.6304C55.9426 42.3772 57.0744 39.3586 57.5247 38.2398C58.7098 35.964 59.2977 33.4246 59.2333 30.8596C59.1689 28.2946 58.4542 25.7879 57.1563 23.5745C56.0516 21.6555 54.5325 20.0072 52.7098 18.75C50.8871 17.4927 48.8068 16.6581 46.6205 16.307C46.6205 16.2881 46.6205 16.2689 46.6205 16.25H42.0982C38.335 16.7369 34.8607 18.5253 32.2777 21.3051C29.6947 24.0849 28.1657 27.6809 27.9559 31.4697C27.9399 31.7327 27.9331 33.667 27.9309 34.5043L25.5688 40.6905L25 42.9277C25.0763 43.313 25.2841 43.6598 25.588 43.9088C25.8918 44.1577 26.2727 44.2932 26.6655 44.2921H30.1294V46.918C29.7236 46.9255 29.3232 47.013 28.9512 47.1753C28.5792 47.3376 28.2427 47.5716 27.9611 47.8639C27.6795 48.1562 27.4582 48.5011 27.3099 48.879C27.1616 49.2568 27.0891 49.6602 27.0967 50.066C27.1043 50.4718 27.1917 50.8722 27.354 51.2442C27.5163 51.6163 27.7503 51.9527 28.0426 52.2343C28.3349 52.516 28.6799 52.7372 29.0577 52.8855C29.4355 53.0339 29.8389 53.1063 30.2447 53.0987H30.2803L36.3868 53.0053C36.5299 53.0032 36.6711 52.9712 36.801 52.9111C36.9309 52.851 37.0468 52.7643 37.1411 52.6566C37.7975 52.6534 38.4887 52.6505 39.0931 52.6478H39.0981C39.3566 52.6474 39.6079 52.7335 39.8117 52.8925C40.0156 53.0515 40.1604 53.2742 40.223 53.525L41.4974 58.5934C41.5531 58.8149 41.6811 59.0115 41.8613 59.1519C42.0414 59.2924 42.2633 59.3687 42.4917 59.3687H56.6767C56.8338 59.3687 56.9888 59.3326 57.1298 59.2631C57.2707 59.1937 57.3938 59.0928 57.4896 58.9682C57.5853 58.8436 57.6512 58.6987 57.682 58.5446C57.7129 58.3906 57.7079 58.2315 57.6675 58.0796C57.644 57.9901 55.3114 49.1535 55.8254 43.6304ZM45.4851 33.8951C46.4219 33.8973 47.3203 34.2673 47.987 34.9253C48.6538 35.5832 49.0356 36.4767 49.0502 37.4133L49.058 37.9868C49.0643 38.4563 48.9778 38.9225 48.8035 39.3585C48.6292 39.7945 48.3705 40.1918 48.0423 40.5276C47.714 40.8634 47.3227 41.131 46.8908 41.3152C46.4588 41.4994 45.9948 41.5965 45.5252 41.6009H45.4919C44.5551 41.5986 43.6568 41.2287 42.99 40.5708C42.3233 39.9129 41.9415 39.0195 41.9267 38.0829L41.919 37.5093C41.9126 37.0398 41.9991 36.5736 42.1734 36.1376C42.3477 35.7016 42.6063 35.3043 42.9346 34.9685C43.2628 34.6327 43.6541 34.365 44.086 34.1808C44.518 33.9967 44.982 33.8996 45.4516 33.8952L45.4851 33.8951ZM30.2537 51.0484C29.9794 51.0498 29.7156 50.943 29.5196 50.7512C29.3235 50.5595 29.211 50.2981 29.2063 50.0239C29.2017 49.7497 29.3054 49.4847 29.4949 49.2864C29.6843 49.0881 29.9444 48.9725 30.2185 48.9646H35.3022L35.3315 50.9707L30.2537 51.0484ZM37.3519 48.869L37.3381 47.9245C37.3342 47.6551 37.2245 47.398 37.0326 47.2089C36.8407 47.0197 36.5821 46.9137 36.3127 46.9137H32.1808V43.267C32.1808 42.995 32.0728 42.7342 31.8805 42.5419C31.6882 42.3496 31.4274 42.2416 31.1554 42.2416H27.1724L29.9137 35.0609C29.958 34.9449 29.9808 34.8218 29.9812 34.6977C29.9843 33.3324 29.9931 31.7807 30.0033 31.5879C30.194 27.959 31.7722 24.5422 34.4114 22.0442C37.0507 19.5462 40.5491 18.1582 44.183 18.1672C44.2365 18.1672 44.2914 18.1672 44.3449 18.1682C44.369 18.1682 44.3932 18.1695 44.4172 18.17V31.9467C43.1239 32.1972 41.9597 32.8944 41.1283 33.9163C40.2969 34.9382 39.8511 36.2198 39.8689 37.5371L39.8767 38.1107C39.8967 39.3809 40.3456 40.607 41.1504 41.5899C41.9552 42.5728 43.0687 43.2546 44.31 43.5248L44.3213 44.727C44.3313 45.8102 43.9108 46.853 43.1522 47.6262C42.3936 48.3994 41.359 48.8398 40.2758 48.8504L37.3519 48.869ZM55.642 37.425C55.4695 37.8513 53.9507 41.6417 53.7835 43.4404C53.3524 48.0712 54.7161 54.5743 55.3655 57.3175H43.2915L42.2118 53.0243C42.0957 52.5606 41.8773 52.1288 41.5726 51.7605C41.268 51.3922 40.8847 51.0967 40.451 50.8957C42.05 50.8403 43.564 50.1622 44.67 49.0061C45.776 47.8501 46.3866 46.3076 46.3713 44.7078L46.3609 43.585C47.6969 43.3756 48.9126 42.6914 49.7847 41.6579C50.6569 40.6245 51.1271 39.3112 51.1091 37.959L51.1013 37.3855C51.0807 36.0803 50.6072 34.8229 49.762 33.8282C48.9167 32.8336 47.7521 32.1634 46.4674 31.9325V18.3608C48.3202 18.6852 50.0791 19.4125 51.6199 20.4915C53.1606 21.5704 54.4455 22.9747 55.3838 24.6049C56.5108 26.5265 57.1298 28.7036 57.1823 30.9308C57.2348 33.1579 56.719 35.3618 55.6838 37.3344C55.6683 37.3639 55.6544 37.3941 55.642 37.425Z" fill="#0F0F0F"/>
<path fill-rule="evenodd" clip-rule="evenodd" d="M29.0869 30.864C29.0869 30.864 29.087 30.864 29.375 30C29.663 29.136 29.6631 29.1361 29.6632 29.1361L29.6671 29.1374L29.6766 29.1406L29.7111 29.1523C29.7408 29.1624 29.7838 29.1772 29.8385 29.1963C29.9479 29.2344 30.1043 29.2899 30.2953 29.3603C30.6767 29.5008 31.1998 29.702 31.765 29.9442C32.3283 30.1856 32.9447 30.4726 33.5087 30.7859C34.0601 31.0923 34.6165 31.4536 35.019 31.856C35.3041 32.1411 35.492 32.4962 35.5327 32.9026C35.5717 33.2932 35.466 33.6434 35.3263 33.9229C35.0594 34.4566 34.5794 34.9091 34.1627 35.2424C33.7252 35.5924 33.2549 35.8906 32.9032 36.0975C32.7253 36.2021 32.5731 36.2861 32.4643 36.3445C32.4098 36.3737 32.366 36.3967 32.335 36.4127L32.2983 36.4315L32.2876 36.4369L32.2843 36.4386L32.2831 36.4392C32.2829 36.4393 32.2823 36.4396 31.875 35.625C31.4677 34.8104 31.4676 34.8105 31.4674 34.8106L31.4732 34.8077L31.4987 34.7946C31.522 34.7826 31.5575 34.764 31.6031 34.7395C31.6945 34.6905 31.8255 34.6182 31.9797 34.5275C32.2919 34.3439 32.6811 34.0951 33.0248 33.8201C33.3881 33.5295 33.6109 33.2795 33.6963 33.1101C33.4699 32.8949 33.1021 32.6437 32.6241 32.3782C32.1334 32.1055 31.578 31.8457 31.0475 31.6183C30.5189 31.3918 30.0264 31.2023 29.6656 31.0694C29.4856 31.0031 29.3392 30.9512 29.2386 30.9161C29.1883 30.8985 29.1495 30.8852 29.1238 30.8764L29.095 30.8667L29.0884 30.8645L29.0869 30.864ZM33.7205 33.0502C33.7206 33.0496 33.7205 33.0502 33.7205 33.0502Z" fill="#0F0F0F"/>
</svg>
