<svg width="60" height="60" viewBox="0 0 60 60" fill="none" xmlns="http://www.w3.org/2000/svg">
<path d="M41.0963 58.2387H7.74857V14.7944C7.74857 14.3079 7.35424 13.9137 6.86791 13.9137C6.38158 13.9137 5.98724 14.3079 5.98724 14.7944V58.5322C5.98724 59.3417 6.64572 60 7.45502 60H41.0963C41.5826 60 41.9768 59.6058 41.9769 59.1193C41.9769 58.6329 41.5826 58.2387 41.0963 58.2387Z" fill="#0F0F0F"/>
<path d="M53.7635 7.96301L46.2781 0.266719C46.1122 0.0962109 45.8845 0 45.6468 0H7.45502C6.64572 0 5.98736 0.658594 5.98724 1.46789V8.3366C5.98724 8.82305 6.38158 9.21727 6.86791 9.21727C7.35424 9.21727 7.74857 8.82305 7.74857 8.3366V1.76145H45.2748L52.2517 8.93473V58.2387H47.2607C46.7743 58.2387 46.38 58.6329 46.38 59.1193C46.38 59.6058 46.7743 60 47.2607 60H52.5451C53.3545 60 54.0129 59.3416 54.0129 58.5323V8.57695C54.0129 8.34762 53.9235 8.12742 53.7635 7.96301Z" fill="#0F0F0F"/>
<path d="M53.7634 7.96301L46.2779 0.266721C46.0279 0.00984604 45.6473 -0.0700759 45.3153 0.064807C44.9833 0.19969 44.7661 0.522307 44.7661 0.880783V8.57695C44.7661 9.0634 45.1604 9.45762 45.6467 9.45762H53.1322C53.4862 9.45762 53.8058 9.24574 53.9434 8.91961C54.0811 8.5936 54.0102 8.2166 53.7634 7.96301ZM46.5274 7.69629V3.0491L51.0472 7.69629H46.5274Z" fill="#0F0F0F"/>
<path d="M34.0758 4.6756H12.8571C12.0477 4.6756 11.3893 5.33408 11.3893 6.14337V11.0105C11.3893 11.8199 12.0478 12.4783 12.8571 12.4783H34.0758C34.8851 12.4783 35.5436 11.8198 35.5436 11.0106V6.14326C35.5436 5.33384 34.8851 4.6756 34.0758 4.6756ZM33.7822 10.7168H13.1507V6.43681H33.7822V10.7168Z" fill="#0F0F0F"/>
<path d="M20.1852 17.0872C19.7981 16.7932 19.2456 16.8682 18.9512 17.2555L15.0602 22.3752L13.8916 21.3526C13.5257 21.0322 12.9694 21.0694 12.649 21.4355C12.3287 21.8016 12.3658 22.3579 12.7318 22.6781L14.6105 24.3219C14.7717 24.4629 14.9781 24.5398 15.1903 24.5398C15.2198 24.5398 15.2495 24.5383 15.2792 24.5354C15.5221 24.5107 15.7439 24.3865 15.8916 24.1921L20.3535 18.3212C20.6477 17.934 20.5724 17.3815 20.1852 17.0872Z" fill="#0F0F0F"/>
<path d="M46.6886 16.9075H24.5082C24.0218 16.9075 23.6275 17.3017 23.6275 17.7881C23.6275 18.2746 24.0218 18.6688 24.5082 18.6688H46.6886C47.1749 18.6688 47.5693 18.2746 47.5693 17.7881C47.5693 17.3017 47.1749 16.9075 46.6886 16.9075Z" fill="#0F0F0F"/>
<path d="M38.9088 19.8428H24.5082C24.0218 19.8428 23.6275 20.2371 23.6275 20.7235C23.6275 21.2099 24.0218 21.6042 24.5082 21.6042H38.9088C39.3951 21.6042 39.7894 21.2099 39.7894 20.7235C39.7894 20.2371 39.3951 19.8428 38.9088 19.8428Z" fill="#0F0F0F"/>
<path d="M42.1964 22.7784H24.5082C24.0218 22.7784 23.6275 23.1727 23.6275 23.6591C23.6275 24.1456 24.0218 24.5398 24.5082 24.5398H42.1964C42.6828 24.5398 43.0771 24.1456 43.0771 23.6591C43.0771 23.1727 42.6828 22.7784 42.1964 22.7784Z" fill="#0F0F0F"/>
<path d="M20.1852 29.0642C19.7981 28.77 19.2456 28.8451 18.9512 29.2324L15.0602 34.3521L13.8916 33.3295C13.5257 33.0093 12.9694 33.0464 12.649 33.4124C12.3287 33.7785 12.3658 34.3348 12.7318 34.6551L14.6105 36.2988C14.7717 36.4398 14.9781 36.5167 15.1903 36.5167C15.2198 36.5167 15.2495 36.5152 15.2792 36.5124C15.5221 36.4876 15.7439 36.3634 15.8916 36.169L20.3535 30.2981C20.6477 29.911 20.5724 29.3586 20.1852 29.0642Z" fill="#0F0F0F"/>
<path d="M46.6886 28.8845H24.5082C24.0218 28.8845 23.6275 29.2787 23.6275 29.7652C23.6275 30.2516 24.0218 30.6459 24.5082 30.6459H46.6886C47.1749 30.6459 47.5693 30.2516 47.5693 29.7652C47.5693 29.2787 47.1749 28.8845 46.6886 28.8845Z" fill="#0F0F0F"/>
<path d="M38.9088 31.8199H24.5082C24.0218 31.8199 23.6275 32.2142 23.6275 32.7006C23.6275 33.1871 24.0218 33.5813 24.5082 33.5813H38.9088C39.3951 33.5813 39.7894 33.1871 39.7894 32.7006C39.7894 32.2142 39.3951 31.8199 38.9088 31.8199Z" fill="#0F0F0F"/>
<path d="M42.1964 34.7554H24.5082C24.0218 34.7554 23.6275 35.1496 23.6275 35.636C23.6275 36.1225 24.0218 36.5167 24.5082 36.5167H42.1964C42.6828 36.5167 43.0771 36.1225 43.0771 35.636C43.0771 35.1496 42.6828 34.7554 42.1964 34.7554Z" fill="#0F0F0F"/>
<path d="M46.6886 40.8615H24.5082C24.0218 40.8615 23.6275 41.2557 23.6275 41.7422C23.6275 42.2286 24.0218 42.6228 24.5082 42.6228H46.6886C47.1749 42.6228 47.5691 42.2286 47.5693 41.7422C47.5693 41.2557 47.1749 40.8615 46.6886 40.8615Z" fill="#0F0F0F"/>
<path d="M38.9088 43.797H24.5082C24.0218 43.797 23.6275 44.1912 23.6275 44.6777C23.6275 45.1641 24.0218 45.5583 24.5082 45.5583H38.9088C39.3951 45.5583 39.7894 45.1641 39.7894 44.6777C39.7894 44.1912 39.3951 43.797 38.9088 43.797Z" fill="#0F0F0F"/>
<path d="M42.1964 46.7324H24.5082C24.0218 46.7324 23.6275 47.1266 23.6275 47.6131C23.6275 48.0995 24.0218 48.4937 24.5082 48.4937H42.1964C42.6828 48.4937 43.0771 48.0995 43.0771 47.6131C43.0771 47.1266 42.6828 46.7324 42.1964 46.7324Z" fill="#0F0F0F"/>
<path d="M18.5954 40.8615H13.8986C13.0892 40.8615 12.4308 41.52 12.4308 42.3293V47.0259C12.4308 47.8353 13.0893 48.4937 13.8986 48.4937H18.5954C19.4048 48.4937 20.0631 47.8353 20.0631 47.026V42.3293C20.0631 41.5199 19.4047 40.8615 18.5954 40.8615ZM18.3019 46.7325H14.1923V42.6228H18.3019V46.7325Z" fill="#0F0F0F"/>
</svg>
