<svg xmlns="http://www.w3.org/2000/svg" xmlns:xlink="http://www.w3.org/1999/xlink" version="1.1" width="72" height="72"  viewBox="0 0 95 95" xml:space="preserve"><g><path fill="#FFD205" d="M85.975,51.777l-13.377,8.004c-0.202,0.12-0.706,0.373-1.337,0.685c-0.536,0.266-1.479,0.732-2.276,1.157   l-0.263,0.141l-0.002,0.298c-0.001,0.215-0.07,0.419-0.199,0.592l-0.151,0.201l0.071,0.242c0.021,0.066,0.039,0.134,0.056,0.201   c0.327,1.344-0.038,2.737-1.028,3.924c-1.053,1.263-2.611,2.064-4.336,2.254H43.993c-0.36,0-0.593-0.251-0.683-0.467   c-0.051-0.121-0.14-0.431,0.136-0.709c0.56-0.558,1.301-0.864,2.105-0.864l16.758,0.09c1.44,0,2.795-0.593,3.622-1.585   c0.591-0.707,0.8-1.437,0.621-2.17c-0.068-0.282-0.197-0.565-0.381-0.844l-0.091-0.103c-0.089-0.077-0.161-0.166-0.22-0.273   l-0.077-0.104c-0.383-0.402-0.861-0.73-1.384-0.95c-1.402-0.587-3.025-0.574-4.599-0.561c-0.803,0.006-1.626,0.021-2.486,0.039   c-4.172,0.077-8.9,0.169-13.145-0.938c-0.896-0.232-1.757-0.481-2.688-0.751c-2.621-0.76-4.885-1.416-7.327-1.416   c-1.493,0-2.944,0.25-4.436,0.765c-4.082,1.407-8.015,4.194-12.361,8.754l-8.794,7.98c-0.322,0.294-0.352,0.781-0.067,1.11   l11.826,13.759c0.157,0.182,0.38,0.275,0.604,0.275c0.169,0,0.34-0.054,0.482-0.165l11.833-9.063   c0.236-0.182,0.538-0.245,0.831-0.181c0.834,0.189,1.725,0.206,2.72,0.207l25.122,0.004c1.106,0,2.251,0,3.232-0.357   c1.147-0.419,2.148-1.368,3.031-2.205c10.699-10.137,22.317-24.12,23.454-28.23l0.164-0.593l-0.613-0.04   C89.488,49.774,87.601,50.804,85.975,51.777z"/><rect x="63.178" y="23.609" fill="none" width="13.842" height="6.601"/><path fill="none" d="M68.292,18.059c1.951-1.952,1.951-5.129,0-7.081c-0.946-0.946-2.203-1.467-3.541-1.467   s-2.595,0.521-3.541,1.467c-1.611,1.611-2.7,8.124-2.902,9.413l-0.106,0.678l0.678-0.106C60.168,20.76,66.682,19.672,68.292,18.059   z"/><rect x="39.35" y="32.21" fill="none" width="11.214" height="18.068"/><rect x="63.178" y="32.21" fill="none" width="11.215" height="18.068"/><rect x="52.563" y="23.609" fill="none" width="8.614" height="26.669"/><path fill="none" d="M54.852,21.067l-0.108-0.683c-0.254-1.581-1.186-6.845-2.553-8.212c-0.831-0.831-1.938-1.289-3.115-1.289   c-1.179,0-2.285,0.458-3.116,1.289c-1.718,1.719-1.718,4.514,0,6.232c1.366,1.365,6.63,2.299,8.211,2.553L54.852,21.067z"/><rect x="36.722" y="23.609" fill="none" width="13.842" height="6.601"/><path fill="#FFD205" d="M76.393,52.278V32.21h2.627V21.609H65.872l2.012-0.952c0.804-0.38,1.417-0.778,1.822-1.184   c1.321-1.321,2.049-3.081,2.049-4.954c0-1.874-0.728-3.634-2.049-4.955c-1.324-1.323-3.084-2.053-4.955-2.053   s-3.631,0.729-4.955,2.053c-1.056,1.056-2.022,3.453-2.797,6.934l-0.472,2.117l-0.503-2.109c-0.682-2.858-1.519-4.846-2.42-5.747   c-1.208-1.208-2.817-1.873-4.53-1.873c-1.714,0-3.322,0.665-4.529,1.873c-2.497,2.498-2.497,6.563,0,9.061   c0.278,0.278,0.688,0.564,1.219,0.85l1.745,0.94H34.722V32.21h2.628v20.068H76.393z M50.563,50.278H39.35V32.21h11.214V50.278z    M74.393,50.278H63.178V32.21h11.215V50.278z M77.019,23.609v6.601H63.178v-6.601H77.019z M58.308,20.391   c0.202-1.289,1.291-7.802,2.902-9.413c0.946-0.946,2.203-1.467,3.541-1.467s2.595,0.521,3.541,1.467   c1.951,1.952,1.951,5.129,0,7.081c-1.61,1.612-8.124,2.701-9.413,2.903l-0.678,0.106L58.308,20.391z M61.178,23.609v26.669h-8.614   V23.609H61.178z M45.959,18.405c-1.718-1.719-1.718-4.514,0-6.232c0.831-0.831,1.938-1.289,3.116-1.289   c1.178,0,2.284,0.458,3.115,1.289c1.367,1.367,2.299,6.631,2.553,8.212l0.108,0.683l-0.682-0.109   C52.589,20.704,47.325,19.77,45.959,18.405z M36.722,30.21v-6.601h13.842v6.601H36.722z"/><path fill="#2E4346" d="M93.539,48.783c-0.107-0.24-0.302-0.426-0.546-0.521l-0.001-0.001c-3.033-1.195-6.289,0.75-8.038,1.796L71.57,58.064   c-0.155,0.093-0.511,0.27-0.966,0.494l-0.23,0.114c-1.467,0.727-2.57,1.273-3.34,1.746l-0.289,0.178l-0.271-0.203   c-0.399-0.298-0.837-0.547-1.299-0.741c-1.786-0.749-3.703-0.73-5.388-0.717c-0.723,0.005-1.461,0.019-2.212,0.033l-0.277,0.005   c-4.244,0.08-8.632,0.168-12.622-0.872c-0.91-0.237-1.783-0.49-2.632-0.736c-2.62-0.758-5.146-1.489-7.903-1.489   c-1.593,0-3.263,0.244-5.072,0.867c-4.383,1.51-8.558,4.447-13.139,9.243l-8.708,7.899c-1.131,1.025-1.236,2.737-0.242,3.896   l11.825,13.757c0.936,1.087,2.683,1.271,3.821,0.396l11.472-8.787l0.209,0.03c0.823,0.12,1.646,0.131,2.486,0.132l25.123,0.004   c1.221,0,2.605,0,3.918-0.479c1.539-0.563,2.749-1.71,3.722-2.632C73.949,76.038,95.793,53.821,93.539,48.783z M91.634,50.521   c-1.137,4.11-12.755,18.094-23.454,28.23c-0.883,0.837-1.884,1.786-3.031,2.205c-0.981,0.357-2.126,0.357-3.232,0.357L36.794,81.31   c-0.995-0.001-1.886-0.018-2.72-0.207c-0.293-0.064-0.595-0.001-0.831,0.181L21.41,90.347c-0.143,0.111-0.313,0.165-0.482,0.165   c-0.225,0-0.447-0.094-0.604-0.275L8.497,76.478c-0.284-0.329-0.255-0.816,0.067-1.11l8.794-7.98   c4.347-4.56,8.279-7.347,12.361-8.754c1.491-0.515,2.942-0.765,4.436-0.765c2.442,0,4.706,0.656,7.327,1.416   c0.932,0.27,1.792,0.519,2.688,0.751c4.244,1.107,8.973,1.016,13.145,0.938c0.86-0.018,1.684-0.033,2.486-0.039   c1.573-0.014,3.196-0.026,4.599,0.561c0.522,0.22,1.001,0.548,1.384,0.95l0.077,0.104c0.059,0.107,0.131,0.196,0.22,0.273   l0.091,0.103c0.184,0.278,0.313,0.562,0.381,0.844c0.179,0.733-0.03,1.463-0.621,2.17c-0.827,0.992-2.182,1.585-3.622,1.585   l-16.758-0.09c-0.805,0-1.546,0.307-2.105,0.864c-0.275,0.278-0.187,0.588-0.136,0.709c0.09,0.216,0.322,0.467,0.683,0.467h19.139   c1.725-0.189,3.283-0.991,4.336-2.254c0.99-1.187,1.355-2.58,1.028-3.924c-0.017-0.067-0.035-0.135-0.056-0.201l-0.071-0.242   l0.151-0.201c0.129-0.173,0.198-0.377,0.199-0.592l0.002-0.298l0.263-0.141c0.798-0.425,1.74-0.892,2.276-1.157   c0.631-0.312,1.135-0.564,1.337-0.685l13.377-8.004c1.626-0.973,3.514-2.003,5.21-1.889l0.613,0.04L91.634,50.521z"/></g></svg>