<svg width="72" height="72" viewBox="0 0 72 72" fill="none" xmlns="http://www.w3.org/2000/svg">
<path d="M23.9467 18L24.75 29.25L22.5 31.5L20.25 29.25L21.0533 18H23.9467Z" fill="#FFD200"/>
<path d="M70.875 33.507V24.993L67.7318 24.2201C67.5934 23.8455 67.437 23.472 67.2626 23.1007L68.9423 20.3276L62.9212 14.3066L60.147 15.9851C59.7746 15.8119 59.4011 15.6555 59.0276 15.5171L58.257 12.375H49.743L48.9701 15.5182C48.5966 15.6566 48.2231 15.813 47.8507 15.9862L45.0765 14.3078L39.0555 20.3287L40.7351 23.103C40.5619 23.4742 40.4055 23.8478 40.266 24.2213L37.125 24.993V33.507L40.2682 34.2799C40.4089 34.6613 40.5686 35.0415 40.7464 35.4195L39.1511 38.25H54C49.0297 38.25 45 34.2203 45 29.25C45 24.2797 49.0297 20.25 54 20.25C58.9703 20.25 63 24.2797 63 29.25C63 34.2203 58.9703 38.25 54 38.25H64.125L65.7056 41.4101L68.9434 38.1712L67.2638 35.3981C67.437 35.0269 67.5934 34.6534 67.7329 34.2787L70.875 33.507Z" fill="#FFD200"/>
<path d="M54 23.625C50.8984 23.625 48.375 26.1484 48.375 29.25C48.375 32.3516 50.8984 34.875 54 34.875C57.1016 34.875 59.625 32.3516 59.625 29.25C59.625 26.1484 57.1016 23.625 54 23.625ZM54 32.625C52.1393 32.625 50.625 31.1108 50.625 29.25C50.625 27.3893 52.1393 25.875 54 25.875C55.8608 25.875 57.375 27.3893 57.375 29.25C57.375 31.1108 55.8608 32.625 54 32.625Z" fill="#44545F"/>
<path d="M60.75 41.625H63V43.875H60.75V41.625Z" fill="#44545F"/>
<path d="M56.25 41.625H58.5V43.875H56.25V41.625Z" fill="#44545F"/>
<path d="M51.75 41.625H54V43.875H51.75V41.625Z" fill="#44545F"/>
<path d="M70.3856 57.0454L69.5981 55.6864C68.5766 53.9235 67.0421 52.5566 65.25 51.6836V48.375H70.4453L64.8203 37.125H60.3495C62.649 35.2676 64.125 32.4293 64.125 29.25C64.125 23.6666 59.5822 19.125 54 19.125C48.4178 19.125 43.875 23.6666 43.875 29.25C43.875 32.4293 45.351 35.2676 47.6505 37.125H32.625V24.75H38.1127L40.2682 24.2201C40.4066 23.8466 40.563 23.4731 40.7374 23.1019L40.3717 22.5H32.625C31.3841 22.5 30.375 23.5091 30.375 24.75V37.125H14.625V24.75C14.625 23.5091 13.6159 22.5 12.375 22.5H6.75C4.88925 22.5 3.375 20.9858 3.375 19.125V5.0625C3.375 4.13212 4.13212 3.375 5.0625 3.375C5.99288 3.375 6.75 4.13212 6.75 5.0625V16.875C6.75 18.1159 7.75912 19.125 9 19.125H40.2604L42.5104 16.875H28.0001C29.4638 15.444 30.375 13.4528 30.375 11.25C30.375 6.90863 26.8425 3.375 22.5 3.375C18.1575 3.375 14.625 6.90863 14.625 11.25C14.625 13.4528 15.5363 15.444 16.9999 16.875H9V5.0625C9 2.89125 7.23375 1.125 5.0625 1.125C2.89125 1.125 1.125 2.89125 1.125 5.0625V19.125C1.125 22.2266 3.64838 24.75 6.75 24.75H12.375V37.125H7.17975L1.55475 48.375H6.75V68.625H16.0965C17.8841 70.0492 20.1341 70.875 22.5 70.875C25.8739 70.875 29.0385 69.1661 30.9094 66.375H52.3406C54.2126 69.1661 57.3761 70.875 60.75 70.875C64.3995 70.875 67.7903 68.9355 69.5981 65.8136L70.3856 64.4546L63.6772 63.1136L62.1022 60.75L63.6772 58.3864L70.3856 57.0454ZM16.875 11.25C16.875 8.14838 19.3984 5.625 22.5 5.625C25.6016 5.625 28.125 8.14838 28.125 11.25C28.125 14.3516 25.6016 16.875 22.5 16.875C19.3984 16.875 16.875 14.3516 16.875 11.25ZM63 50.8939C62.2676 50.7285 61.5173 50.625 60.75 50.625C57.3761 50.625 54.2115 52.3339 52.3406 55.125H45V40.7655L48.8047 48.375H63V50.8939ZM46.125 29.25C46.125 24.9086 49.6575 21.375 54 21.375C58.3425 21.375 61.875 24.9086 61.875 29.25C61.875 33.5914 58.3425 37.125 54 37.125C49.6575 37.125 46.125 33.5914 46.125 29.25ZM63.4297 39.375L66.8047 46.125H50.1953L46.8203 39.375H63.4297ZM8.57025 39.375H40.9297L37.5547 46.125H5.19525L8.57025 39.375ZM9 48.375H38.9453L42.75 40.7655V55.125H30.9094C29.0374 52.3339 25.8739 50.625 22.5 50.625C18.8505 50.625 15.4598 52.5645 13.6519 55.6864L12.8644 57.0454L19.5728 58.3864L21.1478 60.75L19.5728 63.1136L12.8644 64.4546L13.6519 65.8136C13.7655 66.0105 13.9039 66.1882 14.0299 66.375H9V48.375ZM59.3978 60.75L62.3228 65.1364L66.6844 66.0082C65.1949 67.6519 63.0382 68.625 60.75 68.625C57.9555 68.625 55.3444 67.1152 53.937 64.6864L53.6119 64.125H29.6381L29.313 64.6864C27.9056 67.1152 25.2945 68.625 22.5 68.625C20.2118 68.625 18.0551 67.6519 16.5656 66.0094L20.9272 65.1375L23.8522 60.7511L20.9272 56.3647L16.5656 55.4929C18.0551 53.8481 20.2118 52.875 22.5 52.875C25.2945 52.875 27.9056 54.3848 29.313 56.8136L29.6381 57.375H53.613L53.9381 56.8136C55.3444 54.3848 57.9555 52.875 60.75 52.875C63.0382 52.875 65.1949 53.8481 66.6844 55.4906L62.3228 56.3625L59.3978 60.75Z" fill="#44545F"/>
<path d="M51.75 59.625H54V61.875H51.75V59.625Z" fill="#44545F"/>
<path d="M47.25 59.625H49.5V61.875H47.25V59.625Z" fill="#44545F"/>
<path d="M42.75 59.625H45V61.875H42.75V59.625Z" fill="#44545F"/>
</svg>
