<svg width="72" height="72" viewBox="0 0 72 72" fill="none" xmlns="http://www.w3.org/2000/svg">
<path d="M17.027 29.25H13.5305C14.1166 18.6052 22.9613 10.125 33.7501 10.125C44.9157 10.125 54.0001 19.2094 54.0001 30.375C54.0001 41.5406 44.9157 50.625 33.7501 50.625V57.375L32.6251 57.6517V58.5H41.7635C54.0068 55.0057 63.0001 43.7254 63.0001 30.375C63.0001 14.247 49.8781 1.125 33.7501 1.125C17.999 1.125 5.11546 13.6406 4.52146 29.25H0.973206L9.00008 38.8823L17.027 29.25Z" fill="#FFD200"/>
<path d="M32.625 59.5664V59.6249H32.7296L32.625 59.5664Z" fill="#44545F"/>
<path d="M70.812 61.875L56.25 53.1383V57.375H34.875V49.743L31.7317 48.9701C31.5934 48.5955 31.437 48.222 31.2626 47.8507L32.3089 46.125H40.5C43.6016 46.125 46.125 43.6016 46.125 40.5V20.25C46.125 17.1484 43.6016 14.625 40.5 14.625H27C23.8984 14.625 21.375 17.1484 21.375 20.25V34.875H23.625V20.25C23.625 18.3893 25.1392 16.875 27 16.875H40.5C42.3607 16.875 43.875 18.3893 43.875 20.25V40.5C43.875 41.9648 42.9311 43.2023 41.625 43.668V19.125H25.875V39.6911L24.1481 40.7362C23.7769 40.563 23.4034 40.4066 23.0287 40.2682L22.257 37.125H13.7441L12.9712 40.2682C12.5977 40.4066 12.2242 40.563 11.8519 40.7374L9.07762 39.0577L3.05662 45.0788L4.73625 47.853C4.563 48.2254 4.40662 48.5989 4.26712 48.9724L1.125 49.743V58.2559L4.26825 59.0288C4.40662 59.4034 4.563 59.7769 4.73625 60.1481L3.05775 62.9224L9.07762 68.9423L11.8519 67.2626C12.2242 67.437 12.5977 67.5923 12.9701 67.7318L13.743 70.875H22.2559L23.0287 67.7318C23.4022 67.5934 23.7757 67.437 24.1481 67.2626L26.9224 68.9423L32.9434 62.9212L31.2637 60.147C31.3447 59.9738 31.4089 59.7983 31.4831 59.6239H58.5V57.1106L66.438 61.875L58.5 66.6383V64.125H42.75V66.375H56.25V70.6117L70.812 61.875ZM28.125 39.375H39.375V43.875H31.7407L28.125 40.2592V39.375ZM39.375 37.125H28.125V30.375H39.375V37.125ZM39.375 21.375V28.125H28.125V21.375H39.375ZM26.5781 66.1039L24.246 64.692L23.6857 64.9823C23.04 65.3164 22.3864 65.5909 21.7429 65.7945L21.141 65.9857L20.493 68.625H15.5059L14.8579 65.9869L14.256 65.7956C13.6125 65.5909 12.9589 65.3186 12.312 64.9834L11.7517 64.6931L9.42187 66.105L5.895 62.5781L7.30687 60.246L7.01662 59.6858C6.6825 59.0423 6.40912 58.3886 6.20437 57.7429L6.01312 57.141L3.375 56.493V51.5059L6.01312 50.8579L6.20437 50.256C6.40912 49.6125 6.6825 48.9589 7.01662 48.3131L7.30687 47.7529L5.895 45.4207L9.42075 41.895L11.7529 43.3069L12.3131 43.0166C12.9589 42.6825 13.6125 42.408 14.256 42.2044L14.8579 42.0131L15.507 39.375H20.4941L21.1421 42.0131L21.744 42.2044C22.3897 42.4091 23.0434 42.6825 23.6869 43.0166L24.2471 43.3069L26.5792 41.895L30.105 45.4207L28.6931 47.7529L28.9845 48.3142C29.3175 48.9566 29.5909 49.6102 29.7967 50.2571L29.988 50.859L32.625 51.507V56.4941L29.9869 57.1421L29.7956 57.744C29.5897 58.3909 29.3175 59.0434 28.9834 59.6869L28.692 60.2483L30.1039 62.5804L26.5781 66.1039Z" fill="#44545F"/>
<path d="M18 43.875C12.4178 43.875 7.875 48.4178 7.875 54C7.875 59.5822 12.4178 64.125 18 64.125C23.5822 64.125 28.125 59.5822 28.125 54C28.125 48.4178 23.5822 43.875 18 43.875ZM18 61.875C13.6575 61.875 10.125 58.3425 10.125 54C10.125 49.6575 13.6575 46.125 18 46.125C22.3425 46.125 25.875 49.6575 25.875 54C25.875 58.3425 22.3425 61.875 18 61.875Z" fill="#44545F"/>
<path d="M18 48.375C14.8984 48.375 12.375 50.8984 12.375 54C12.375 57.1016 14.8984 59.625 18 59.625C21.1016 59.625 23.625 57.1016 23.625 54C23.625 50.8984 21.1016 48.375 18 48.375ZM18 57.375C16.1393 57.375 14.625 55.8608 14.625 54C14.625 52.1393 16.1393 50.625 18 50.625C19.8608 50.625 21.375 52.1393 21.375 54C21.375 55.8608 19.8608 57.375 18 57.375Z" fill="#44545F"/>
<path d="M38.25 64.125H40.5V66.375H38.25V64.125Z" fill="#44545F"/>
<path d="M33.75 64.125H36V66.375H33.75V64.125Z" fill="#44545F"/>
<path d="M30.375 23.625H32.625V25.875H30.375V23.625Z" fill="#44545F"/>
<path d="M34.875 23.625H37.125V25.875H34.875V23.625Z" fill="#44545F"/>
<path d="M34.875 32.625H37.125V34.875H34.875V32.625Z" fill="#44545F"/>
<path d="M30.375 32.625H32.625V34.875H30.375V32.625Z" fill="#44545F"/>
</svg>
