<svg width="72" height="72" viewBox="0 0 72 72" fill="none" xmlns="http://www.w3.org/2000/svg">
<path d="M67.8397 21.9915C67.2604 19.7213 66.3593 17.5522 65.1533 15.5228L66.771 12.8363L59.1626 5.229L56.4761 6.84675C54.4466 5.64075 52.2765 4.73962 50.0074 4.16025L49.2548 1.125H38.4952L37.7415 4.16025C35.4724 4.73962 33.3022 5.63963 31.2728 6.84675L28.5863 5.229L20.9779 12.8363L22.5956 15.5228C21.3896 17.5522 20.4885 19.7213 19.9091 21.9915L16.875 22.7453V33.5047L19.9001 34.2563C20.0351 34.8446 20.1802 35.46 20.3366 36.0821L20.412 36.3836L20.8564 36.828C21.6214 34.5859 23.1086 32.6531 25.038 31.3031C24.8625 30.267 24.75 29.2106 24.75 28.125C24.75 17.5624 33.3124 9 43.875 9C54.4376 9 63 17.5624 63 28.125C63 38.6876 54.4376 47.25 43.875 47.25C42.7894 47.25 41.733 47.1375 40.6969 46.962C39.3469 48.8903 37.4141 50.3775 35.172 51.1425L35.6164 51.5869L35.9179 51.6623C36.54 51.8198 37.1542 51.9638 37.7437 52.0988L38.4952 55.125H49.2548L50.0085 52.0897C52.2776 51.5104 54.4478 50.6104 56.4772 49.4033L59.1637 51.021L66.7721 43.4126L65.1544 40.7272C66.3604 38.6978 67.2615 36.5288 67.8409 34.2585L70.875 33.5047V22.7453L67.8397 21.9915Z" fill="#FFD200"/>
<path d="M43.875 7.875C32.7094 7.875 23.625 16.9594 23.625 28.125C23.625 28.9958 23.7083 29.8867 23.8343 30.8014C21.6068 32.5519 19.998 35.0235 19.4029 37.8439C18.9439 40.0185 19.0643 42.2426 19.746 44.3284L3.67875 58.0511C2.05538 59.4371 1.125 61.4565 1.125 63.5895C1.125 67.6069 4.39312 70.875 8.4105 70.875C10.5446 70.875 12.564 69.9446 13.9489 68.3213L27.6716 52.2529C29.7551 52.9324 31.9804 53.055 34.1561 52.5971C36.9776 52.002 39.4493 50.3932 41.1998 48.1657C42.111 48.2917 43.002 48.375 43.875 48.375C55.0406 48.375 64.125 39.2906 64.125 28.125C64.125 16.9594 55.0406 7.875 43.875 7.875ZM33.6926 50.3955C31.6867 50.8162 29.6269 50.6419 27.7403 49.8859L26.9899 49.5844L12.2378 66.861C11.2804 67.9826 9.88538 68.625 8.4105 68.625C5.634 68.625 3.375 66.366 3.375 63.5895C3.375 62.1146 4.0185 60.7185 5.14012 59.7611L22.4145 45.0079L22.1141 44.2586C21.3581 42.372 21.1815 40.3144 21.6045 38.3074C22.3267 34.8795 24.8647 32.0501 28.2274 30.9229C29.3197 30.5561 30.4132 30.3739 31.5034 30.3739C32.0535 30.3739 32.6014 30.42 33.147 30.5134L28.8787 34.7816C27.8269 35.8324 27.1721 37.143 27.0326 38.4716C26.8459 40.2604 27.4635 42.0109 28.728 43.2743C29.9914 44.5376 31.7385 45.1654 33.5284 44.9674C34.857 44.829 36.1676 44.1743 37.2195 43.1224L41.4877 38.8541C41.7656 40.4831 41.6284 42.1301 41.0771 43.7726C39.9499 47.1341 37.1205 49.6721 33.6926 50.3955ZM43.875 46.125C43.4396 46.125 42.9975 46.0969 42.5531 46.062C42.8051 45.5558 43.029 45.0326 43.2124 44.4881C44.1191 41.7859 44.0899 38.9531 43.1291 36.2981L42.5272 34.6342L35.6299 41.5316C34.9425 42.2179 34.1134 42.6442 33.2955 42.7297C32.1829 42.8422 31.1018 42.4642 30.3188 41.6824C29.5369 40.9005 29.1544 39.8149 29.2703 38.7045C29.3557 37.8877 29.781 37.0598 30.4684 36.3724L37.3657 29.475L35.7019 28.8731C33.0469 27.9124 30.2141 27.8831 27.5107 28.7899C26.9663 28.9721 26.4431 29.196 25.9369 29.4491C25.9031 29.0014 25.875 28.5592 25.875 28.125C25.875 18.2003 33.9502 10.125 43.875 10.125C53.7998 10.125 61.875 18.2003 61.875 28.125C61.875 38.0497 53.7998 46.125 43.875 46.125Z" fill="#44545F"/>
<path d="M50.625 16.875V19.125H46.125V23.625H41.625V32.625H57.375V16.875H50.625ZM43.875 25.875H46.125V30.375H43.875V25.875ZM48.375 30.375V21.375H50.625V30.375H48.375ZM55.125 30.375H52.875V19.125H55.125V30.375Z" fill="#44545F"/>
<path d="M28.884 23.2782L31.0249 23.9701C32.3547 19.8549 35.6048 16.6048 39.72 15.275L39.0282 13.1353C34.2278 14.6866 30.4354 18.4779 28.884 23.2782Z" fill="#44545F"/>
<path d="M43.8754 14.625V12.375C43.0586 12.375 42.2441 12.438 41.4521 12.5606L41.7986 14.7847C42.4759 14.679 43.1745 14.625 43.8754 14.625Z" fill="#44545F"/>
<path d="M9 59.625C7.13925 59.625 5.625 61.1392 5.625 63C5.625 64.8608 7.13925 66.375 9 66.375C10.8608 66.375 12.375 64.8608 12.375 63C12.375 61.1392 10.8608 59.625 9 59.625ZM9 64.125C8.38013 64.125 7.875 63.621 7.875 63C7.875 62.379 8.38013 61.875 9 61.875C9.61987 61.875 10.125 62.379 10.125 63C10.125 63.621 9.61987 64.125 9 64.125Z" fill="#44545F"/>
<path d="M15.8788 54.519L17.4695 52.9283L19.0603 54.519L17.4695 56.1098L15.8788 54.519Z" fill="#44545F"/>
<path d="M12.6967 57.7002L14.2874 56.1095L15.8782 57.7002L14.2874 59.2909L12.6967 57.7002Z" fill="#44545F"/>
<path d="M19.0612 51.3374L20.5716 49.827L22.1624 51.4177L20.652 52.9281L19.0612 51.3374Z" fill="#44545F"/>
<path d="M53.2706 37.8188L54.8366 39.4343C55.416 38.8729 55.956 38.2643 56.4409 37.623L54.6465 36.2651C54.2291 36.8141 53.7668 37.3361 53.2706 37.8188Z" fill="#44545F"/>
<path d="M49.8952 40.2114L50.8998 42.224C51.6198 41.8662 52.3185 41.4477 52.9755 40.9809L51.6749 39.146C51.1102 39.5442 50.5117 39.9042 49.8952 40.2114Z" fill="#44545F"/>
<path d="M45.9539 41.4652L46.2959 43.6893C47.0969 43.5667 47.8911 43.3799 48.6561 43.1347L47.971 40.9927C47.3174 41.2008 46.639 41.3606 45.9539 41.4652Z" fill="#44545F"/>
</svg>
