<svg width="72" height="72" viewBox="0 0 72 72" fill="none" xmlns="http://www.w3.org/2000/svg">
<path d="M13.5 18L11.25 27L14.625 31.5L18 27L15.75 18H13.5Z" fill="#FFD200"/>
<path d="M67.5 21.375H29.25C27.3892 21.375 25.875 22.8892 25.875 24.75V25.2416C26.5905 26.8065 27 28.5413 27 30.375V40.5C27 41.634 26.5669 42.6566 25.875 43.4475V47.25C25.875 49.1108 27.3892 50.625 29.25 50.625H67.5C69.3607 50.625 70.875 49.1108 70.875 47.25V24.75C70.875 22.8892 69.3607 21.375 67.5 21.375ZM37.125 38.25H32.625V33.75H37.125V38.25ZM46.125 36H41.625V31.5H46.125V36ZM55.125 42.75H50.625V38.25H55.125V42.75ZM64.125 33.75H59.625V29.25H64.125V33.75Z" fill="#FFD200"/>
<path d="M40.5 37.125H42.75V46.125H45V37.125H47.25V30.375H45V25.875H42.75V30.375H40.5V37.125ZM42.75 32.625H45V34.875H42.75V32.625Z" fill="#44545F"/>
<path d="M65.25 28.125H63V25.875H60.75V28.125H58.5V34.875H60.75V46.125H63V34.875H65.25V28.125ZM63 32.625H60.75V30.375H63V32.625Z" fill="#44545F"/>
<path d="M28.125 30.375C28.125 24.6049 24.4789 19.683 19.3759 17.7547C21.9217 16.1629 23.625 13.3425 23.625 10.125C23.625 5.16263 19.5874 1.125 14.625 1.125C9.66263 1.125 5.625 5.16263 5.625 10.125C5.625 13.3425 7.32825 16.1629 9.87413 17.7547C4.77113 19.683 1.125 24.6049 1.125 30.375V40.5C1.125 43.6016 3.64838 46.125 6.75 46.125V66.375C6.75 68.8568 8.76825 70.875 11.25 70.875C12.6 70.875 13.7992 70.2653 14.625 69.3203C15.4508 70.2653 16.65 70.875 18 70.875C20.4818 70.875 22.5 68.8568 22.5 66.375V46.125C25.6016 46.125 28.125 43.6016 28.125 40.5V30.375ZM7.875 10.125C7.875 6.40238 10.9024 3.375 14.625 3.375C18.3476 3.375 21.375 6.40238 21.375 10.125C21.375 13.8476 18.3476 16.875 14.625 16.875C10.9024 16.875 7.875 13.8476 7.875 10.125ZM25.875 40.5C25.875 42.3607 24.3608 43.875 22.5 43.875V28.125H20.25V66.375C20.25 67.6159 19.2409 68.625 18 68.625C16.7591 68.625 15.75 67.6159 15.75 66.375V41.625H13.5V66.375C13.5 67.6159 12.4909 68.625 11.25 68.625C10.0091 68.625 9 67.6159 9 66.375V28.125H6.75V43.875C4.88925 43.875 3.375 42.3607 3.375 40.5V30.375C3.375 24.1717 8.42175 19.125 14.625 19.125C20.8283 19.125 25.875 24.1717 25.875 30.375V40.5Z" fill="#44545F"/>
<path d="M33.75 25.875V32.625H31.5V39.375H33.75V46.125H36V39.375H38.25V32.625H36V25.875H33.75ZM36 37.125H33.75V34.875H36V37.125Z" fill="#44545F"/>
<path d="M54 46.125V43.875H56.25V37.125H54V25.875H51.75V37.125H49.5V43.875H51.75V46.125H54ZM51.75 39.375H54V41.625H51.75V39.375Z" fill="#44545F"/>
<path d="M53.9999 19.1254H56.2499V10.1254H54.2294L59.6249 3.95925L65.0204 10.1254H62.9999V14.6254H65.2499V12.3754H69.9794L59.6249 0.541504L49.2704 12.3754H53.9999V19.1254Z" fill="#44545F"/>
<path d="M63 16.875H65.25V19.125H63V16.875Z" fill="#44545F"/>
<path d="M26.7704 12.3754H31.4999V19.1254H33.7499V10.1254H31.7294L37.1249 3.95925L42.5204 10.1254H40.4999V14.6254H42.7499V12.3754H47.4794L37.1249 0.541504L26.7704 12.3754Z" fill="#44545F"/>
<path d="M40.5 16.875H42.75V19.125H40.5V16.875Z" fill="#44545F"/>
<path d="M65.2499 57.375H62.9999V61.875H65.0204L59.6249 68.0411L54.2294 61.875H56.2499V52.875H53.9999V59.625H49.2704L59.6249 71.4589L69.9794 59.625H65.2499V57.375Z" fill="#44545F"/>
<path d="M63 52.875H65.25V55.125H63V52.875Z" fill="#44545F"/>
<path d="M42.7499 57.375H40.4999V61.875H42.5204L37.1249 68.0411L31.7294 61.875H33.7499V52.875H31.4999V59.625H26.7704L37.1249 71.4589L47.4794 59.625H42.7499V57.375Z" fill="#44545F"/>
<path d="M40.5 52.875H42.75V55.125H40.5V52.875Z" fill="#44545F"/>
</svg>
