<svg width="72" height="72" viewBox="0 0 72 72" fill="none" xmlns="http://www.w3.org/2000/svg">
<path d="M70.875 25.641V17.109L67.9106 16.4115C67.5371 15.1076 67.0163 13.8521 66.357 12.663L67.9613 10.0721L61.9279 4.03875L59.337 5.643C58.1479 4.98375 56.8924 4.46287 55.5885 4.08938L54.891 1.125H46.359L45.6615 4.08938C44.3576 4.46287 43.1021 4.98375 41.913 5.643L39.3221 4.03875L33.2888 10.0721L34.893 12.663C34.2338 13.8521 33.7129 15.1076 33.3394 16.4115L30.375 17.109V20.4266C30.6968 20.313 31.0365 20.25 31.3819 20.25H31.8521C33.5216 20.25 34.875 21.6034 34.875 23.2718C34.875 24.2044 34.4441 25.0841 33.7084 25.6567L33.1571 26.0854L33.2764 26.325L33.3394 26.3396C33.7129 27.6435 34.2338 28.899 34.893 30.087L33.2888 32.6779L39.3221 38.7113L41.913 37.107C43.1021 37.7663 44.3576 38.2871 45.6615 38.6606L46.359 41.625H54.891L55.5885 38.6606C56.8924 38.2871 58.1479 37.7663 59.337 37.107L61.9279 38.7113L67.9613 32.6779L66.357 30.087C67.0163 28.8979 67.5371 27.6424 67.9106 26.3385L70.875 25.641ZM50.625 33.75C43.7906 33.75 38.25 28.2094 38.25 21.375C38.25 14.5406 43.7906 9 50.625 9C57.4594 9 63 14.5406 63 21.375C63 28.2094 57.4594 33.75 50.625 33.75Z" fill="#FFD200"/>
<path d="M25.6353 56.4795L27.4696 55.2037L28.7537 57.0501L26.9194 58.3258L25.6353 56.4795Z" fill="#44545F"/>
<path d="M29.7693 53.6157L45.0858 42.9446L46.3721 44.7909L31.0556 55.462L29.7693 53.6157Z" fill="#44545F"/>
<path d="M68.625 26.1709V68.625H9.4995C9.8865 67.9601 10.125 67.1985 10.125 66.375V64.5131L15.885 60.4879C15.9052 60.5092 15.9199 60.5351 15.9412 60.5565C16.7917 61.407 17.9224 61.875 19.1239 61.875C21.6056 61.875 23.625 59.8556 23.625 57.3739V55.1182L45.8876 39.6225L45.6615 38.6606C45.1339 38.5099 44.6209 38.3175 44.1101 38.1195L23.625 52.3777V47.25C23.625 44.1484 21.1016 41.625 18 41.625H15.75V33.75H22.4336C24.1774 33.75 25.8941 33.1616 27.2689 32.0906L34.3991 26.5444C35.4161 25.7546 36 24.561 36 23.2729C36 20.9846 34.1404 19.125 31.8521 19.125H31.3819C30.4909 19.125 29.6077 19.4197 28.8934 19.9541L21.2996 25.65C21.1061 25.7951 20.8665 25.875 20.6246 25.875H17.8751C19.3388 24.444 20.25 22.4528 20.25 20.25C20.25 15.9086 16.7164 12.375 12.375 12.375C8.03363 12.375 4.5 15.9086 4.5 20.25C4.5 22.824 5.7465 25.1055 7.66237 26.5433C3.8475 27.9956 1.125 31.6811 1.125 36V45V66.375C1.125 68.8568 3.14325 70.875 5.625 70.875H70.875V25.641L68.625 26.1709ZM10.125 61.7681V50.625H14.625L14.6239 57.3727V57.3739C14.6239 57.7654 14.6902 58.1422 14.7859 58.5112L10.125 61.7681ZM6.75 20.25C6.75 17.1484 9.27337 14.625 12.375 14.625C15.4766 14.625 18 17.1484 18 20.25C18 23.3516 15.4766 25.875 12.375 25.875C9.27337 25.875 6.75 23.3516 6.75 20.25ZM3.375 36C3.375 31.6586 6.90863 28.125 11.25 28.125H20.6246C21.3514 28.125 22.0702 27.8843 22.6496 27.4489L30.2434 21.7541C30.5707 21.51 30.9746 21.375 31.383 21.375H31.8532C32.8984 21.375 33.75 22.2266 33.75 23.2729C33.75 23.8624 33.4834 24.408 33.0176 24.7702L25.8874 30.3165C24.9064 31.0793 23.6801 31.5 22.4336 31.5H13.5V43.875H18C19.8608 43.875 21.375 45.3893 21.375 47.25V57.3739C21.375 58.6159 20.3659 59.625 19.1239 59.625C18.5231 59.625 17.9572 59.391 17.532 58.9658C17.1079 58.5405 16.8739 57.9757 16.8739 57.375L16.875 50.625C16.875 49.3841 15.8659 48.375 14.625 48.375H6.75C4.88925 48.375 3.375 46.8607 3.375 45V36ZM3.375 66.375V49.4707C4.31775 50.1851 5.47875 50.625 6.75 50.625H7.875V66.375C7.875 67.6159 6.86588 68.625 5.625 68.625C4.38412 68.625 3.375 67.6159 3.375 66.375Z" fill="#44545F"/>
<path d="M50.625 34.875C58.0691 34.875 64.125 28.8191 64.125 21.375C64.125 13.9309 58.0691 7.875 50.625 7.875C43.1809 7.875 37.125 13.9309 37.125 21.375C37.125 28.8191 43.1809 34.875 50.625 34.875ZM50.625 10.125C56.8283 10.125 61.875 15.1718 61.875 21.375C61.875 27.5783 56.8283 32.625 50.625 32.625C44.4218 32.625 39.375 27.5783 39.375 21.375C39.375 15.1718 44.4218 10.125 50.625 10.125Z" fill="#44545F"/>
<path d="M50.625 28.125C54.3476 28.125 57.375 25.0976 57.375 21.375C57.375 17.6524 54.3476 14.625 50.625 14.625C46.9024 14.625 43.875 17.6524 43.875 21.375C43.875 25.0976 46.9024 28.125 50.625 28.125ZM50.625 16.875C53.1068 16.875 55.125 18.8932 55.125 21.375C55.125 23.8568 53.1068 25.875 50.625 25.875C48.1432 25.875 46.125 23.8568 46.125 21.375C46.125 18.8932 48.1432 16.875 50.625 16.875Z" fill="#44545F"/>
<path d="M64.125 64.125H66.375V66.375H64.125V64.125Z" fill="#44545F"/>
<path d="M64.125 59.625H66.375V61.875H64.125V59.625Z" fill="#44545F"/>
<path d="M64.125 55.125H66.375V57.375H64.125V55.125Z" fill="#44545F"/>
<path d="M12.375 64.125H14.625V66.375H12.375V64.125Z" fill="#44545F"/>
<path d="M16.875 64.125H19.125V66.375H16.875V64.125Z" fill="#44545F"/>
<path d="M21.375 64.125H23.625V66.375H21.375V64.125Z" fill="#44545F"/>
</svg>
