<svg width="72" height="72" viewBox="0 0 72 72" fill="none" xmlns="http://www.w3.org/2000/svg">
<path d="M60.75 3.375C56.9644 3.375 53.7964 6.06037 53.046 9.6255L33.7185 8.379C33.4001 4.32675 30.0071 1.125 25.875 1.125C21.5325 1.125 18 4.6575 18 9C18 13.3425 21.5325 16.875 25.875 16.875C29.6606 16.875 32.8286 14.1896 33.579 10.6245L52.9065 11.871C53.0505 13.7036 53.8234 15.3574 55.0103 16.6241L48.393 24.8962L50.1502 26.3014L56.7664 18.0315C57.9364 18.7211 59.2954 19.125 60.75 19.125C65.0925 19.125 68.625 15.5925 68.625 11.25C68.625 6.9075 65.0925 3.375 60.75 3.375ZM25.875 14.625C22.7734 14.625 20.25 12.1016 20.25 9C20.25 5.89838 22.7734 3.375 25.875 3.375C28.9766 3.375 31.5 5.89838 31.5 9C31.5 12.1016 28.9766 14.625 25.875 14.625ZM60.75 16.875C57.6484 16.875 55.125 14.3516 55.125 11.25C55.125 8.14838 57.6484 5.625 60.75 5.625C63.8516 5.625 66.375 8.14838 66.375 11.25C66.375 14.3516 63.8516 16.875 60.75 16.875Z" fill="#44545F"/>
<path d="M60.75 7.875C58.8892 7.875 57.375 9.38925 57.375 11.25C57.375 13.1108 58.8892 14.625 60.75 14.625C62.6108 14.625 64.125 13.1108 64.125 11.25C64.125 9.38925 62.6108 7.875 60.75 7.875ZM60.75 12.375C60.1301 12.375 59.625 11.8699 59.625 11.25C59.625 10.6301 60.1301 10.125 60.75 10.125C61.3699 10.125 61.875 10.6301 61.875 11.25C61.875 11.8699 61.3699 12.375 60.75 12.375Z" fill="#44545F"/>
<path d="M25.875 5.625C24.0142 5.625 22.5 7.13925 22.5 9C22.5 10.8608 24.0142 12.375 25.875 12.375C27.7358 12.375 29.25 10.8608 29.25 9C29.25 7.13925 27.7358 5.625 25.875 5.625ZM25.875 10.125C25.2551 10.125 24.75 9.61987 24.75 9C24.75 8.38013 25.2551 7.875 25.875 7.875C26.4949 7.875 27 8.38013 27 9C27 9.61987 26.4949 10.125 25.875 10.125Z" fill="#44545F"/>
<path d="M53.2856 34.4115C52.911 33.1065 52.3913 31.851 51.732 30.663L53.3351 28.0733L47.3018 22.0399L44.712 23.643C43.524 22.9838 42.2685 22.4629 40.9635 22.0883L40.266 19.125H31.734L31.0365 22.0883C29.7315 22.4629 28.476 22.9826 27.288 23.643L24.6983 22.0399L18.6649 28.0733L20.268 30.663C19.6088 31.851 19.0879 33.1065 18.7133 34.4115L15.75 35.109V42.75H24.0907C23.787 41.6768 23.625 40.545 23.625 39.375C23.625 32.5406 29.1656 27 36 27C42.8344 27 48.375 32.5406 48.375 39.375C48.375 40.545 48.213 41.6768 47.9092 42.75H56.25V35.109L53.2856 34.4115Z" fill="#FFD200"/>
<path d="M70.4456 52.875L64.8206 41.625H49.3057C49.4294 40.8836 49.5003 40.1321 49.5003 39.375C49.5003 31.9309 43.4444 25.875 36.0003 25.875C28.5562 25.875 22.5003 31.9309 22.5003 39.375C22.5003 40.1321 22.5712 40.8836 22.6949 41.625H7.18005L1.55505 52.875H6.7503V70.875H65.2503V52.875H70.4456ZM66.8051 50.625H43.4456L40.0706 43.875H63.4301L66.8051 50.625ZM32.1157 41.625C31.7186 40.9432 31.5003 40.1771 31.5003 39.375C31.5003 36.8932 33.5186 34.875 36.0003 34.875C38.4821 34.875 40.5003 36.8932 40.5003 39.375C40.5003 40.1783 40.2821 40.9421 39.8861 41.625H32.1157ZM24.7503 39.375C24.7503 33.1718 29.7971 28.125 36.0003 28.125C42.2036 28.125 47.2503 33.1718 47.2503 39.375C47.2503 40.1366 47.1479 40.8859 46.9983 41.625H42.3588C42.6119 40.9095 42.7503 40.1535 42.7503 39.375C42.7503 35.6524 39.7229 32.625 36.0003 32.625C32.2777 32.625 29.2503 35.6524 29.2503 39.375C29.2503 40.1535 29.3887 40.9095 29.6429 41.625H25.0023C24.8527 40.8859 24.7503 40.1355 24.7503 39.375ZM8.57055 43.875H34.1801L30.8051 50.625H5.19555L8.57055 43.875ZM9.0003 52.875H32.1956L36.0003 45.2655V68.625H9.0003V52.875ZM63.0003 68.625H38.2503V45.2655L42.0551 52.875H63.0003V68.625Z" fill="#44545F"/>
<path d="M5.625 21.375H12.375V23.625H5.625V21.375Z" fill="#44545F"/>
<path d="M16.875 28.125H6.75C3.64838 28.125 1.125 25.6016 1.125 22.5C1.125 19.3984 3.64838 16.875 6.75 16.875H11.25C14.3516 16.875 16.875 19.3984 16.875 22.5V28.125ZM6.75 19.125C4.88925 19.125 3.375 20.6393 3.375 22.5C3.375 24.3608 4.88925 25.875 6.75 25.875H14.625V22.5C14.625 20.6393 13.1108 19.125 11.25 19.125H6.75Z" fill="#44545F"/>
<path d="M5.625 21.375H7.875V23.625H5.625V21.375Z" fill="#44545F"/>
<path d="M10.125 21.375H12.375V23.625H10.125V21.375Z" fill="#44545F"/>
<path d="M59.625 25.875H66.375V28.125H59.625V25.875Z" fill="#44545F"/>
<path d="M65.25 32.625H55.125V27C55.125 23.8984 57.6484 21.375 60.75 21.375H65.25C68.3516 21.375 70.875 23.8984 70.875 27C70.875 30.1016 68.3516 32.625 65.25 32.625ZM57.375 30.375H65.25C67.1108 30.375 68.625 28.8608 68.625 27C68.625 25.1393 67.1108 23.625 65.25 23.625H60.75C58.8893 23.625 57.375 25.1393 57.375 27V30.375Z" fill="#44545F"/>
<path d="M64.125 25.875H66.375V28.125H64.125V25.875Z" fill="#44545F"/>
<path d="M59.625 25.875H61.875V28.125H59.625V25.875Z" fill="#44545F"/>
<path d="M33.75 66.375H11.25V55.125H33.75V66.375Z" fill="#FFD200"/>
<path d="M27 59.625H29.25V61.875H27V59.625Z" fill="#44545F"/>
<path d="M22.5 59.625H24.75V61.875H22.5V59.625Z" fill="#44545F"/>
<path d="M18 59.625H20.25V61.875H18V59.625Z" fill="#44545F"/>
<path d="M49.5 60.75H60.75V66.375H49.5V60.75Z" fill="#FFD200"/>
<path d="M58.5 64.125H60.75V66.375H58.5V64.125Z" fill="#44545F"/>
<path d="M54 64.125H56.25V66.375H54V64.125Z" fill="#44545F"/>
<path d="M49.5 64.125H51.75V66.375H49.5V64.125Z" fill="#44545F"/>
<path d="M49.5 59.625H60.75V61.875H49.5V59.625Z" fill="#44545F"/>
</svg>
