<svg width="72" height="72" viewBox="0 0 72 72" fill="none" xmlns="http://www.w3.org/2000/svg">
<path d="M30.0269 18.871V11.5514L26.8914 10.7164C26.8002 10.4739 26.6986 10.2325 26.5889 9.99231L28.2161 7.18133L23.0422 2.00745L20.2312 3.63468C19.991 3.52497 19.7496 3.42334 19.5071 3.33211L18.6733 0.197754H11.3537L10.5187 3.33326C10.2761 3.4245 10.0348 3.52613 9.79456 3.63584L6.98473 2.00745L1.81086 7.18133L3.43809 9.99231C3.32837 10.2325 3.22674 10.4739 3.13551 10.7164L0 11.5514V18.871L3.13551 19.706C3.22674 19.9486 3.32837 20.1899 3.43809 20.4301L1.81086 23.2411L6.98473 28.415L9.79571 26.7878C10.0359 26.8975 10.2773 26.9991 10.5198 27.0903L11.3537 30.2247H18.6733L19.5083 27.0892C19.7508 26.998 19.9922 26.8963 20.2324 26.7866L23.0434 28.4138L28.2172 23.24L26.59 20.429C26.6997 20.1888 26.8014 19.9474 26.8926 19.7049L30.0269 18.871ZM15.0135 22.1405C11.1862 22.1405 8.08418 19.0385 8.08418 15.2112C8.08418 11.3839 11.1862 8.28193 15.0135 8.28193C18.8408 8.28193 21.9428 11.3839 21.9428 15.2112C21.9428 19.0385 18.8408 22.1405 15.0135 22.1405Z" fill="#FFD200"/>
<path d="M30.0269 35.999H0V45.2381H30.0269V35.999Z" fill="#FFD200"/>
<path d="M59.5007 24.5725L58.9233 23.9951C56.237 21.31 52.6661 19.8306 48.8666 19.8306C41.0249 19.8306 34.6465 26.209 34.6465 34.0506V42.9282H35.8014C35.8014 41.0146 37.3524 39.4636 39.266 39.4636V38.3087C42.2237 38.3087 45.0601 37.1342 47.1516 35.0427L48.5051 33.6892L48.624 33.8474C50.7305 36.656 54.0358 38.3087 57.5455 38.3087H60.0539V39.4636C61.9675 39.4636 63.5185 41.0146 63.5185 42.9282H64.6734V31.5214C64.6734 28.2982 62.5623 25.4872 59.5007 24.5725Z" fill="#FFD200"/>
<path d="M69.3102 62.8328C68.4314 59.9064 66.0188 57.749 63.0127 57.2028L55.4343 55.8239V55.2256C58.2684 53.5799 60.3437 50.7724 60.9905 47.4533C63.09 47.019 64.6734 45.1562 64.6734 42.9296C64.6734 40.7827 63.1951 38.9903 61.2087 38.474V37.1552H57.5466C54.4169 37.1552 51.4257 35.6608 49.549 33.1581L48.6309 31.9316L46.3362 34.2275C44.4468 36.1158 41.936 37.1552 39.266 37.1552H38.1111V38.474C36.1247 38.9903 34.6464 40.7827 34.6464 42.9296C34.6464 45.1562 36.2298 47.019 38.3293 47.4533C38.9772 50.7724 41.0514 53.5811 43.8855 55.2256V55.8239L36.3071 57.2016C33.301 57.749 30.8884 59.9064 30.0096 62.8328L27.3199 71.8017H72L69.3102 62.8328ZM36.9562 42.9296C36.9562 42.0784 37.4239 41.3416 38.1111 40.9409V44.9183C37.4239 44.5176 36.9562 43.7807 36.9562 42.9296ZM44.7517 58.0147L47.9022 60.3776L45.5451 62.7335L44.016 58.1475L44.7517 58.0147ZM49.6599 58.8092L46.2934 56.2846C47.3594 56.6103 48.4889 56.7882 49.6599 56.7882C50.831 56.7882 51.9604 56.6103 53.0264 56.2846L49.6599 58.8092ZM54.5682 58.0147L55.3027 58.1486L53.7736 62.7347L51.4165 60.3787L54.5682 58.0147ZM62.3636 42.9296C62.3636 43.7807 61.8959 44.5176 61.2087 44.9183V40.9409C61.8959 41.3416 62.3636 42.0784 62.3636 42.9296ZM40.4208 45.2394V39.4118C43.2722 39.1473 45.9181 37.9105 47.9692 35.8606L48.4184 35.4113C50.7339 37.9671 54.0692 39.4649 57.5466 39.4649H58.899V45.2394C58.899 50.3335 54.7541 54.4784 49.6599 54.4784C44.5657 54.4784 40.4208 50.3335 40.4208 45.2394ZM30.4242 69.4919L32.2235 63.4969C32.8506 61.4066 34.5737 59.8648 36.7218 59.4756L41.7224 58.5667L44.5368 67.0112L49.6599 61.8858L54.7841 67.01L57.5986 58.5655L62.5992 59.4744C64.7461 59.8648 66.4704 61.4066 67.0975 63.4957L68.8956 69.4919H30.4242Z" fill="#44545F"/>
<path d="M15.0135 23.2953C16.8151 23.2953 18.5185 22.7167 19.9414 21.6207L18.5324 19.7914C17.5161 20.5733 16.3 20.9856 15.0135 20.9856C11.8295 20.9856 9.23906 18.3951 9.23906 15.2111C9.23906 12.0271 11.8295 9.43672 15.0135 9.43672C18.1975 9.43672 20.7879 12.0271 20.7879 15.2111C20.7879 16.4642 20.3941 17.6549 19.6492 18.655L21.5016 20.0351C22.5456 18.6331 23.0976 16.9654 23.0976 15.2111C23.0976 10.7544 19.4713 7.12695 15.0135 7.12695C10.5556 7.12695 6.92929 10.7544 6.92929 15.2111C6.92929 19.6678 10.5556 23.2953 15.0135 23.2953Z" fill="#44545F"/>
<path d="M65.8283 11.7466V15.888L64.335 14.3947L62.702 16.0277L66.9832 20.3089L71.2643 16.0277L69.6313 14.3947L68.1381 15.888V11.7466C68.1381 5.37856 62.9573 0.197754 56.5892 0.197754H49.6599V2.50752H56.5892C61.6834 2.50752 65.8283 6.65239 65.8283 11.7466Z" fill="#44545F"/>
<path d="M5.77462 60.2522V56.1108L7.26789 57.6041L8.90089 55.9711L4.61974 51.6899L0.338593 55.9711L1.9716 57.6041L3.46486 56.1108V60.2522C3.46486 66.6203 8.64566 71.8011 15.0137 71.8011V69.4913C9.9195 69.4913 5.77462 65.3464 5.77462 60.2522Z" fill="#44545F"/>
<path d="M30.0269 34.8442H0V37.154H30.0269V34.8442Z" fill="#44545F"/>
<path d="M30.0269 44.0835H0V46.3933H30.0269V44.0835Z" fill="#44545F"/>
<path d="M13.8586 39.4639H0V41.7736H13.8586V39.4639Z" fill="#44545F"/>
<path d="M16.1684 39.4639V41.7736H17.3232H22.8089H30.027V39.4639H22.8089H17.3232H16.1684Z" fill="#44545F"/>
<path d="M47.3502 0.197754H45.0404V2.50752H47.3502V0.197754Z" fill="#44545F"/>
<path d="M42.7307 0.197754H40.4209V2.50752H42.7307V0.197754Z" fill="#44545F"/>
<path d="M19.633 69.4907H17.3232V71.8005H19.633V69.4907Z" fill="#44545F"/>
<path d="M24.2525 69.4907H21.9428V71.8005H24.2525V69.4907Z" fill="#44545F"/>
</svg>
