<svg width="72" height="72" viewBox="0 0 72 72" fill="none" xmlns="http://www.w3.org/2000/svg">
<path d="M4.64514 30.1934H18.5806V44.1288H4.64514V30.1934Z" fill="#FFD200"/>
<path d="M4.64514 49.9355H18.5806V63.871H4.64514V49.9355Z" fill="#FFD200"/>
<path d="M34.8387 23.2257H4.64514V11.6128H34.8387V23.2257Z" fill="#FFD200"/>
<path d="M51.1699 37.1613C51.86 37.1613 52.5274 37.3632 53.1024 37.7465L61.2127 43.1537C62.171 43.7911 63.2846 44.129 64.434 44.129H72V41.8064H64.4352C63.7457 41.8064 63.0765 41.6046 62.5016 41.2213L59.2258 39.037V0H15.0968V6.96774H0V72H44.129V65.0323H59.2258V55.2622C59.299 55.2446 59.3744 55.239 59.4475 55.2214L64.8497 53.8713C66.0484 53.5713 67.2817 53.4194 68.5161 53.4194H72V51.0968H68.5161C67.0923 51.0968 65.6685 51.272 64.2866 51.6173L58.8844 52.9674C56.1077 53.6609 53.1523 53.5481 50.4396 52.6436L48.4827 51.991C46.7011 51.3973 44.8458 51.0968 42.9677 51.0968H32.8342C32.8342 49.1762 34.3976 47.6129 36.3181 47.6129H49.0923C51.0134 47.6129 52.5762 46.0496 52.5762 44.129C52.5762 42.3474 51.2266 40.8913 49.5 40.686L50.4532 37.1613H51.1699ZM49.703 54.8466C51.4846 55.4414 53.3405 55.7419 55.218 55.7419C55.7816 55.7419 56.3436 55.6932 56.9032 55.6387V62.7097H44.129V58.9111C44.5367 58.441 44.8526 57.8848 45.0221 57.2554L45.973 53.7329C46.5713 53.8548 47.1644 54 47.7467 54.1951L49.703 54.8466ZM43.6459 53.446L42.7806 56.6486C42.5555 57.4827 41.7951 58.0645 40.9321 58.0645H40.5556C39.5003 58.0645 38.6418 57.2066 38.6418 56.1508C38.6418 55.9812 38.6639 55.8139 38.7082 55.6512L39.3109 53.4194H42.9677C43.194 53.4194 43.4197 53.4369 43.6459 53.446ZM36.9044 53.4194L36.4655 55.0439C36.368 55.404 36.3192 55.7754 36.3192 56.1508C36.3192 57.7209 37.1879 59.0784 38.4598 59.8099L38.0952 61.266L40.348 61.8296L40.7092 60.3871H40.9321C41.2315 60.3871 41.5218 60.3451 41.8064 60.285V69.6774H2.32258V9.29032H17.4194V2.32258H56.9032V37.489L54.3913 35.814C53.4335 35.1767 52.3199 34.8387 51.1699 34.8387H51.0803L55.9137 16.9561C56.0113 16.596 56.06 16.2246 56.06 15.8492C56.06 13.513 54.1593 11.6129 51.8237 11.6129H51.4472C49.5374 11.6129 47.8556 12.9006 47.3572 14.7446L44.129 26.6898V6.96774H19.7419V9.29032H41.8064V34.8387H39.4039C38.14 34.8387 36.9498 35.2577 35.9546 36H24.3871V38.3226H33.5147L31.1921 40.6452H24.3871V42.9677H28.8707L26.9303 44.9081C26.2453 45.592 25.8676 46.5026 25.8676 47.4723C25.8676 49.4711 27.4933 51.0968 29.4933 51.0968C29.8511 51.0968 30.1958 51.0282 30.5304 50.9284C30.5292 50.9851 30.5128 51.0389 30.5128 51.0968C30.5128 52.3777 31.5544 53.4194 32.8354 53.4194H36.9044ZM45.85 45.2903H41.5082L46.4119 27.1463L50.3953 28.4737L45.85 45.2903ZM36.9407 38.1808C37.59 37.5327 38.4876 37.1613 39.4039 37.1613H41.299L40.3514 40.6661C38.8822 40.7194 37.5049 41.3001 36.4599 42.3451L30.413 48.392C30.1703 48.6347 29.8346 48.7742 29.4921 48.7742C28.7731 48.7742 28.1891 48.1901 28.1891 47.4723C28.1891 47.1241 28.3252 46.7975 28.5713 46.5514L36.9407 38.1808ZM38.102 43.9873C38.5409 43.5484 39.0994 43.249 39.6954 43.0931L39.1017 45.2903H36.8001L38.102 43.9873ZM53.6711 16.3499L52.249 21.6115L48.2656 20.284L49.5987 15.3514C49.8249 14.5173 50.5847 13.9355 51.4472 13.9355H51.8237C52.8795 13.9355 53.7375 14.7934 53.7375 15.8492C53.7375 16.0188 53.7153 16.1861 53.6711 16.3499ZM47.6594 22.5301L51.6428 23.8575L51.0015 26.2277L47.0181 24.9003L47.6594 22.5301ZM49.0923 42.9677C49.7325 42.9677 50.2536 43.4894 50.2536 44.129C50.2536 44.7686 49.7325 45.2903 49.0923 45.2903H48.2554L48.8836 42.9677H49.0923Z" fill="#44545F"/>
<path d="M9.29028 16.2583H11.6129V18.5809H9.29028V16.2583Z" fill="#44545F"/>
<path d="M13.9354 16.2583H16.258V18.5809H13.9354V16.2583Z" fill="#44545F"/>
<path d="M18.5807 16.2583H20.9033V18.5809H18.5807V16.2583Z" fill="#44545F"/>
<path d="M23.2258 16.2583H25.5484V18.5809H23.2258V16.2583Z" fill="#44545F"/>
<path d="M27.871 16.2583H30.1936V18.5809H27.871V16.2583Z" fill="#44545F"/>
<path d="M24.0469 27.5308L22.4047 25.8887L11.6129 36.6805L10.1114 35.179L8.46924 36.8211L11.6129 39.9648L24.0469 27.5308Z" fill="#44545F"/>
<path d="M22.4047 45.6304L11.6129 56.4222L10.1114 54.9207L8.46924 56.5628L11.6129 59.7065L24.0469 47.2725L22.4047 45.6304Z" fill="#44545F"/>
<path d="M37.1613 63.8711H39.4839V66.1937H37.1613V63.8711Z" fill="#44545F"/>
<path d="M22.0646 63.8711H34.8388V66.1937H22.0646V63.8711Z" fill="#44545F"/>
<path d="M24.3871 31.355H39.4839V33.6776H24.3871V31.355Z" fill="#44545F"/>
</svg>
