<svg width="72" height="72" viewBox="0 0 72 72" fill="none" xmlns="http://www.w3.org/2000/svg">
<path d="M5.625 47.25H16.875V66.375H5.625V47.25Z" fill="#FFD200"/>
<path d="M51.75 26.1214L49.032 25.443L50.4731 23.0423L44.4578 17.0269L42.057 18.468L41.3786 15.75H32.8714L32.193 18.468L29.7923 17.0269L23.7769 23.0423L25.218 25.443L22.5 26.1214V34.6286L25.218 35.307L23.7769 37.7089L29.7923 43.7231L32.193 42.282L32.8714 45H41.3786L42.057 42.282L44.4578 43.7231L50.4731 37.7089L49.032 35.307L51.75 34.6286V26.1214ZM37.125 37.125C33.3968 37.125 30.375 34.1033 30.375 30.375C30.375 26.6468 33.3968 23.625 37.125 23.625C40.8533 23.625 43.875 26.6468 43.875 30.375C43.875 34.1033 40.8533 37.125 37.125 37.125Z" fill="#FFD200"/>
<path d="M61.8751 52.875C58.553 52.875 55.6516 54.6896 54.0923 57.375H47.2422C57.806 52.9605 65.2501 42.5216 65.2501 30.375C65.2501 14.247 52.1281 1.125 36.0001 1.125C20.249 1.125 7.36546 13.6406 6.77146 29.25H3.22321L11.2501 38.8823L19.277 29.25H15.7805C16.3666 18.6052 25.2113 10.125 36.0001 10.125C47.1657 10.125 56.2501 19.2094 56.2501 30.375C56.2501 41.5406 47.1657 50.625 36.0001 50.625H23.6251V64.125H53.171C54.1745 68.0006 57.6901 70.875 61.8751 70.875C66.8375 70.875 70.8751 66.8374 70.8751 61.875C70.8751 56.9126 66.8375 52.875 61.8751 52.875ZM36.0001 52.875C48.4066 52.875 58.5001 42.7815 58.5001 30.375C58.5001 17.9685 48.4066 7.875 36.0001 7.875C23.5936 7.875 13.5001 17.9685 13.5001 30.375V31.5H14.4732L11.2501 35.3677L8.02696 31.5H9.00008V30.375C9.00008 15.4879 21.113 3.375 36.0001 3.375C50.8872 3.375 63.0001 15.4879 63.0001 30.375C63.0001 45.2621 50.8872 57.375 36.0001 57.375H25.8751V52.875H36.0001ZM25.8751 61.875V59.625H53.171C52.9842 60.3461 52.8751 61.0965 52.8751 61.875H25.8751ZM61.8751 68.625C58.1525 68.625 55.1251 65.5976 55.1251 61.875C55.1251 58.1524 58.1525 55.125 61.8751 55.125C65.5977 55.125 68.6251 58.1524 68.6251 61.875C68.6251 65.5976 65.5977 68.625 61.8751 68.625Z" fill="#44545F"/>
<path d="M65.5798 58.8301L60.7502 63.6597L59.2956 62.2051L57.7048 63.7958L60.7502 66.8412L67.1706 60.4208L65.5798 58.8301Z" fill="#44545F"/>
<path d="M18 41.625H4.5C2.63925 41.625 1.125 43.1392 1.125 45V67.5C1.125 69.3608 2.63925 70.875 4.5 70.875H18C19.8608 70.875 21.375 69.3608 21.375 67.5V45C21.375 43.1392 19.8608 41.625 18 41.625ZM19.125 67.5C19.125 68.121 18.6199 68.625 18 68.625H4.5C3.88013 68.625 3.375 68.121 3.375 67.5V45C3.375 44.379 3.88013 43.875 4.5 43.875H18C18.6199 43.875 19.125 44.379 19.125 45V67.5Z" fill="#44545F"/>
<path d="M45 30.375C45 26.0325 41.4675 22.5 37.125 22.5C32.7825 22.5 29.25 26.0325 29.25 30.375C29.25 34.7175 32.7825 38.25 37.125 38.25C41.4675 38.25 45 34.7175 45 30.375ZM31.5 30.375C31.5 27.2734 34.0234 24.75 37.125 24.75C40.2266 24.75 42.75 27.2734 42.75 30.375C42.75 33.4766 40.2266 36 37.125 36C34.0234 36 31.5 33.4766 31.5 30.375Z" fill="#44545F"/>
<path d="M40.5 30.375C40.5 28.5142 38.9858 27 37.125 27C35.2642 27 33.75 28.5142 33.75 30.375C33.75 32.2358 35.2642 33.75 37.125 33.75C38.9858 33.75 40.5 32.2358 40.5 30.375ZM36 30.375C36 29.7551 36.5051 29.25 37.125 29.25C37.7449 29.25 38.25 29.7551 38.25 30.375C38.25 30.9949 37.7449 31.5 37.125 31.5C36.5051 31.5 36 30.9949 36 30.375Z" fill="#44545F"/>
<path d="M5.625 46.125H16.875V48.375H5.625V46.125Z" fill="#44545F"/>
<path d="M5.625 50.625H16.875V52.875H5.625V50.625Z" fill="#44545F"/>
<path d="M5.625 55.125H16.875V57.375H5.625V55.125Z" fill="#44545F"/>
<path d="M5.625 59.625H16.875V61.875H5.625V59.625Z" fill="#44545F"/>
<path d="M14.625 64.125H16.875V66.375H14.625V64.125Z" fill="#44545F"/>
<path d="M10.125 64.125H12.375V66.375H10.125V64.125Z" fill="#44545F"/>
<path d="M5.625 64.125H7.875V66.375H5.625V64.125Z" fill="#44545F"/>
</svg>
