<svg width="72" height="72" viewBox="0 0 72 72" fill="none" xmlns="http://www.w3.org/2000/svg">
<path d="M68.625 59.625V24.75C68.625 21.6484 66.1016 19.125 63 19.125H51.75V21.375H63C64.8607 21.375 66.375 22.8893 66.375 24.75V59.625H5.625V24.75C5.625 22.8893 7.13925 21.375 9 21.375H20.25V19.125H9C5.89838 19.125 3.375 21.6484 3.375 24.75V59.625H1.125V65.25C1.125 68.3516 3.64838 70.875 6.75 70.875H65.25C68.3516 70.875 70.875 68.3516 70.875 65.25V59.625H68.625ZM68.625 65.25C68.625 67.1107 67.1107 68.625 65.25 68.625H6.75C4.88925 68.625 3.375 67.1107 3.375 65.25V61.875H68.625V65.25Z" fill="#44545F"/>
<path d="M5.625 64.125H7.875V66.375H5.625V64.125Z" fill="#44545F"/>
<path d="M10.125 64.125H12.375V66.375H10.125V64.125Z" fill="#44545F"/>
<path d="M14.625 64.125H16.875V66.375H14.625V64.125Z" fill="#44545F"/>
<path d="M61.875 57.375H10.125C8.88412 57.375 7.875 56.3659 7.875 55.125V25.875C7.875 24.6341 8.88412 23.625 10.125 23.625H23.625V25.875H10.125V55.125H61.875V25.875H48.375V23.625H61.875C63.1159 23.625 64.125 24.6341 64.125 25.875V55.125C64.125 56.3659 63.1159 57.375 61.875 57.375Z" fill="#44545F"/>
<path d="M52.875 22.257V13.743L49.7318 12.9701C49.5934 12.5966 49.437 12.2231 49.2638 11.8519L50.9423 9.0765L44.9224 3.05663L42.1481 4.73625C41.7758 4.563 41.4023 4.40662 41.0288 4.26825L40.257 1.125H31.743L30.9701 4.26825C30.5966 4.40662 30.2231 4.563 29.8507 4.73625L27.0765 3.05775L21.0555 9.07875L22.7351 11.853C22.5619 12.2242 22.4055 12.5977 22.266 12.9712L19.125 13.743V22.257L22.2683 23.0299C22.4066 23.4034 22.563 23.7769 22.7362 24.1481L21.0578 26.9235L27.0776 32.9434L29.8519 31.2649C30.2231 31.4381 30.5966 31.5945 30.9713 31.7329L31.743 34.875H40.257L41.0299 31.7317C41.4034 31.5934 41.7769 31.437 42.1493 31.2638L44.9235 32.9422L50.9434 26.9224L49.2649 24.147C49.4381 23.7758 49.5945 23.4022 49.7329 23.0287L52.875 22.257ZM36 27C31.0297 27 27 22.9703 27 18C27 13.0297 31.0297 9 36 9C40.9703 9 45 13.0297 45 18C45 22.9703 40.9703 27 36 27Z" fill="#FFD200"/>
<path d="M36 28.125C30.4178 28.125 25.875 23.5834 25.875 18C25.875 12.4166 30.4178 7.875 36 7.875C41.5822 7.875 46.125 12.4166 46.125 18C46.125 23.5834 41.5822 28.125 36 28.125ZM36 10.125C31.6575 10.125 28.125 13.6586 28.125 18C28.125 22.3414 31.6575 25.875 36 25.875C40.3425 25.875 43.875 22.3414 43.875 18C43.875 13.6586 40.3425 10.125 36 10.125Z" fill="#44545F"/>
<path d="M36 23.625C32.8984 23.625 30.375 21.1016 30.375 18C30.375 14.8984 32.8984 12.375 36 12.375C39.1016 12.375 41.625 14.8984 41.625 18C41.625 21.1016 39.1016 23.625 36 23.625ZM36 14.625C34.1393 14.625 32.625 16.1393 32.625 18C32.625 19.8608 34.1393 21.375 36 21.375C37.8608 21.375 39.375 19.8608 39.375 18C39.375 16.1393 37.8608 14.625 36 14.625Z" fill="#44545F"/>
<path d="M23.625 52.875C18.6626 52.875 14.625 48.8374 14.625 43.875C14.625 38.9126 18.6626 34.875 23.625 34.875C28.5874 34.875 32.625 38.9126 32.625 43.875C32.625 48.8374 28.5874 52.875 23.625 52.875Z" fill="#FFD200"/>
<path d="M48.375 52.875C43.4126 52.875 39.375 48.8374 39.375 43.875C39.375 38.9126 43.4126 34.875 48.375 34.875C53.3374 34.875 57.375 38.9126 57.375 43.875C57.375 48.8374 53.3374 52.875 48.375 52.875Z" fill="#FFD200"/>
<path d="M22.417 47.6327L18.3298 43.5456L19.9206 41.9548L22.5835 44.6177L33.0471 36.2466L34.4533 38.0038L22.417 47.6327Z" fill="#44545F"/>
<path d="M52.5456 41.2958L50.9548 39.7051L48.3752 42.2847L45.7956 39.7051L44.2048 41.2958L46.7845 43.8755L44.2048 46.4551L45.7956 48.0458L48.3752 45.4662L50.9548 48.0458L52.5456 46.4551L49.966 43.8755L52.5456 41.2958Z" fill="#44545F"/>
</svg>
