<svg width="72" height="72" viewBox="0 0 72 72" fill="none" xmlns="http://www.w3.org/2000/svg">
<path d="M25.875 25.875H7.875C6.63188 25.875 5.625 26.8819 5.625 28.125V30.375C5.625 31.6181 6.63188 32.625 7.875 32.625H25.875C27.1181 32.625 28.125 31.6181 28.125 30.375V28.125C28.125 26.8819 27.1181 25.875 25.875 25.875Z" fill="#FFD200"/>
<path d="M25.875 39.375H7.875C6.63188 39.375 5.625 40.3819 5.625 41.625V43.875C5.625 45.1181 6.63188 46.125 7.875 46.125H25.875C27.1181 46.125 28.125 45.1181 28.125 43.875V41.625C28.125 40.3819 27.1181 39.375 25.875 39.375Z" fill="#FFD200"/>
<path d="M28.125 5.625H52.875V15.75H32.625V11.25H28.125V5.625Z" fill="#FFD200"/>
<path d="M64.125 66.375H57.375C56.1341 66.375 55.125 65.3659 55.125 64.125V59.625C55.125 58.3841 56.1341 57.375 57.375 57.375H64.125C65.3659 57.375 66.375 58.3841 66.375 59.625V64.125C66.375 65.3659 65.3659 66.375 64.125 66.375Z" fill="#FFD200"/>
<path d="M4.5 40.5H29.25C31.1108 40.5 32.625 38.9858 32.625 37.125V34.875C32.625 33.0142 31.1108 31.5 29.25 31.5H4.5C2.63925 31.5 1.125 33.0142 1.125 34.875V37.125C1.125 38.9858 2.63925 40.5 4.5 40.5ZM3.375 34.875C3.375 34.2551 3.879 33.75 4.5 33.75H29.25C29.871 33.75 30.375 34.2551 30.375 34.875V37.125C30.375 37.7449 29.871 38.25 29.25 38.25H4.5C3.879 38.25 3.375 37.7449 3.375 37.125V34.875Z" fill="#44545F"/>
<path d="M56.7158 1.125H23.625V3.375H13.5C11.6392 3.375 10.125 4.88925 10.125 6.75V12.5426L7.62862 9.42188L5.87138 10.8281L11.25 17.5511L16.6286 10.8281L14.8714 9.423L12.375 12.5426V6.75C12.375 6.13013 12.879 5.625 13.5 5.625H23.625V18H4.5C2.63925 18 1.125 19.5142 1.125 21.375V23.625C1.125 25.4858 2.63925 27 4.5 27H29.25C30.2434 27 31.1287 26.5601 31.7475 25.875H39.375V46.125H31.7475C31.1299 45.4399 30.2434 45 29.25 45H4.5C2.63925 45 1.125 46.5143 1.125 48.375V50.625C1.125 52.4857 2.63925 54 4.5 54H23.625V70.875H70.875V15.2843L56.7158 1.125ZM57.375 4.96575L67.0342 14.625H57.375V4.96575ZM30.375 23.625C30.375 24.2449 29.871 24.75 29.25 24.75H4.5C3.879 24.75 3.375 24.2449 3.375 23.625V21.375C3.375 20.7551 3.879 20.25 4.5 20.25H29.25C29.871 20.25 30.375 20.7551 30.375 21.375V23.625ZM37.125 48.375H48.375V43.875H57.375V28.125H48.375V23.625H37.125V21.375H64.125V52.875H37.125V48.375ZM48.375 30.375H55.125V41.625H48.375V30.375ZM41.625 25.875H46.125V46.125H41.625V25.875ZM4.5 51.75C3.879 51.75 3.375 51.2449 3.375 50.625V48.375C3.375 47.7551 3.879 47.25 4.5 47.25H29.25C29.871 47.25 30.375 47.7551 30.375 48.375V50.625C30.375 51.2449 29.871 51.75 29.25 51.75H25.875H23.625H4.5ZM25.875 68.625V54H29.25C31.1108 54 32.625 52.4857 32.625 50.625V48.375H34.875V55.125H66.375V19.125H34.875V23.625H32.625V21.375C32.625 19.5142 31.1108 18 29.25 18H25.875V3.375H55.125V16.875H68.625V68.625H25.875Z" fill="#44545F"/>
<path d="M50.625 32.625H52.875V34.875H50.625V32.625Z" fill="#44545F"/>
<path d="M50.625 37.125H52.875V39.375H50.625V37.125Z" fill="#44545F"/>
<path d="M13.9219 59.3786L17.0426 61.875H11.25C10.629 61.875 10.125 61.3699 10.125 60.75V56.25H7.875V60.75C7.875 62.6108 9.38925 64.125 11.25 64.125H17.0426L13.9219 66.6214L15.3281 68.3786L22.0511 63L15.3281 57.6214L13.9219 59.3786Z" fill="#44545F"/>
<path d="M28.125 5.625H30.375V7.875H28.125V5.625Z" fill="#44545F"/>
<path d="M32.625 5.625H34.875V7.875H32.625V5.625Z" fill="#44545F"/>
<path d="M37.125 5.625H52.875V7.875H37.125V5.625Z" fill="#44545F"/>
<path d="M28.125 10.125H52.875V12.375H28.125V10.125Z" fill="#44545F"/>
<path d="M32.625 14.625H52.875V16.875H32.625V14.625Z" fill="#44545F"/>
<path d="M50.625 57.375H43.875C42.6341 57.375 41.625 58.3841 41.625 59.625V64.125C41.625 65.3659 42.6341 66.375 43.875 66.375H50.625C51.8659 66.375 52.875 65.3659 52.875 64.125V59.625C52.875 58.3841 51.8659 57.375 50.625 57.375ZM50.625 64.125H43.875L43.8739 59.625H43.875H50.625V64.125Z" fill="#44545F"/>
<path d="M37.125 57.375H30.375C29.1341 57.375 28.125 58.3841 28.125 59.625V64.125C28.125 65.3659 29.1341 66.375 30.375 66.375H37.125C38.3659 66.375 39.375 65.3659 39.375 64.125V59.625C39.375 58.3841 38.3659 57.375 37.125 57.375ZM37.125 64.125H30.375L30.3739 59.625H30.375H37.125V64.125Z" fill="#44545F"/>
<path d="M59.625 48.375H61.875V50.625H59.625V48.375Z" fill="#44545F"/>
<path d="M55.125 48.375H57.375V50.625H55.125V48.375Z" fill="#44545F"/>
<path d="M50.625 48.375H52.875V50.625H50.625V48.375Z" fill="#44545F"/>
</svg>
