<svg width="72" height="72" viewBox="0 0 72 72" fill="none" xmlns="http://www.w3.org/2000/svg">
<path d="M65.25 19.125H63V21.375H65.25C67.1107 21.375 68.625 22.8893 68.625 24.75V55.125H3.375V24.75C3.375 22.8893 4.88925 21.375 6.75 21.375H9V19.125H6.75C3.64838 19.125 1.125 21.6484 1.125 24.75V58.5C1.125 61.6016 3.64838 64.125 6.75 64.125H21.375V68.625H16.875V70.875H55.125V68.625H50.625V64.125H65.25C68.3516 64.125 70.875 61.6016 70.875 58.5V24.75C70.875 21.6484 68.3516 19.125 65.25 19.125ZM48.375 68.625H23.625V64.125H48.375V68.625ZM65.25 61.875H6.75C4.88925 61.875 3.375 60.3607 3.375 58.5V57.375H68.625V58.5C68.625 60.3607 67.1107 61.875 65.25 61.875Z" fill="#44545F"/>
<path d="M58.5 49.5C61.6066 49.5 64.125 46.9816 64.125 43.875C64.125 40.7684 61.6066 38.25 58.5 38.25C55.3934 38.25 52.875 40.7684 52.875 43.875C52.875 46.9816 55.3934 49.5 58.5 49.5Z" fill="#FFD200"/>
<path d="M13.5 49.5C16.6066 49.5 19.125 46.9816 19.125 43.875C19.125 40.7684 16.6066 38.25 13.5 38.25C10.3934 38.25 7.875 40.7684 7.875 43.875C7.875 46.9816 10.3934 49.5 13.5 49.5Z" fill="#FFD200"/>
<path d="M36 55.125C39.1066 55.125 41.625 52.6066 41.625 49.5C41.625 46.3934 39.1066 43.875 36 43.875C32.8934 43.875 30.375 46.3934 30.375 49.5C30.375 52.6066 32.8934 55.125 36 55.125Z" fill="#FFD200"/>
<path d="M55.125 12.375C54.621 12.375 54.117 12.4178 53.6209 12.5021C52.1257 5.9355 46.206 1.125 39.375 1.125C34.6444 1.125 30.2828 3.37613 27.5299 7.19325C26.6321 6.8985 25.7006 6.75 24.75 6.75C21.0802 6.75 17.7626 9.02925 16.4047 12.3874C11.6595 12.6326 7.875 16.5701 7.875 21.375C7.875 26.3374 11.9126 30.375 16.875 30.375H23.625H48.375H55.125C60.0874 30.375 64.125 26.3374 64.125 21.375C64.125 16.4126 60.0874 12.375 55.125 12.375Z" fill="#FFD200"/>
<path d="M44.944 10.1817C41.8739 7.11158 36.8778 7.11158 33.8077 10.1817L32.2169 8.59096C36.1645 4.64221 42.5883 4.64221 46.5359 8.59096L44.944 10.1817Z" fill="#44545F"/>
<path d="M55.125 25.875V23.625C56.3659 23.625 57.375 22.6159 57.375 21.375C57.375 20.1341 56.3659 19.125 55.125 19.125V16.875C57.6068 16.875 59.625 18.8932 59.625 21.375C59.625 23.8568 57.6068 25.875 55.125 25.875Z" fill="#44545F"/>
<path d="M36 52.875C34.1392 52.875 32.625 51.3608 32.625 49.5C32.625 47.6392 34.1392 46.125 36 46.125C37.8608 46.125 39.375 47.6392 39.375 49.5C39.375 51.3608 37.8608 52.875 36 52.875ZM36 48.375C35.3801 48.375 34.875 48.879 34.875 49.5C34.875 50.121 35.3801 50.625 36 50.625C36.6199 50.625 37.125 50.121 37.125 49.5C37.125 48.879 36.6199 48.375 36 48.375Z" fill="#44545F"/>
<path d="M37.125 22.5H34.875V38.25H37.125V22.5Z" fill="#44545F"/>
<path d="M37.125 40.5H34.875V47.25H37.125V40.5Z" fill="#44545F"/>
<path d="M58.5 40.5C57.0352 40.5 55.7977 41.4439 55.332 42.75H46.125V27H43.875V45H55.332C55.7977 46.3061 57.0352 47.25 58.5 47.25C60.3608 47.25 61.875 45.7358 61.875 43.875C61.875 42.0142 60.3608 40.5 58.5 40.5ZM58.5 45C57.8801 45 57.375 44.496 57.375 43.875C57.375 43.254 57.8801 42.75 58.5 42.75C59.1199 42.75 59.625 43.254 59.625 43.875C59.625 44.496 59.1199 45 58.5 45Z" fill="#44545F"/>
<path d="M46.125 22.5H43.875V24.75H46.125V22.5Z" fill="#44545F"/>
<path d="M28.125 32.625H25.875V42.75H16.668C16.2023 41.4439 14.9648 40.5 13.5 40.5C11.6392 40.5 10.125 42.0142 10.125 43.875C10.125 45.7358 11.6392 47.25 13.5 47.25C14.9648 47.25 16.2023 46.3061 16.668 45H28.125V32.625ZM13.5 45C12.8801 45 12.375 44.496 12.375 43.875C12.375 43.254 12.8801 42.75 13.5 42.75C14.1199 42.75 14.625 43.254 14.625 43.875C14.625 44.496 14.1199 45 13.5 45Z" fill="#44545F"/>
<path d="M28.125 22.5H25.875V30.375H28.125V22.5Z" fill="#44545F"/>
</svg>
