<svg width="72" height="72" viewBox="0 0 72 72" fill="none" xmlns="http://www.w3.org/2000/svg">
<path d="M63 16.875H51.4384C51.6307 17.2069 51.75 17.5883 51.75 18C51.75 19.2431 50.7431 20.25 49.5 20.25C50.7431 20.25 51.75 21.2569 51.75 22.5H61.875C62.496 22.5 63 23.004 63 23.625V55.125C63 55.746 62.496 56.25 61.875 56.25H10.125C9.504 56.25 9 55.746 9 55.125V23.625C9 23.004 9.504 22.5 10.125 22.5H18V16.875H9C5.89838 16.875 3.375 19.3984 3.375 22.5V60.75H68.625V22.5C68.625 19.3984 66.1016 16.875 63 16.875Z" fill="#FFD200"/>
<path d="M61.875 21.375H52.668C52.5184 20.9542 52.2911 20.5751 51.9975 20.25C52.5375 19.6515 52.875 18.8674 52.875 18C52.875 17.1326 52.5364 16.3485 51.9975 15.75C52.5375 15.1515 52.875 14.3674 52.875 13.5C52.875 11.6392 51.3608 10.125 49.5 10.125H43.0661L43.722 7.5015C43.8232 7.0965 43.875 6.67687 43.875 6.25725C43.875 3.42675 41.5732 1.125 38.7427 1.125H37.4389L35.3531 7.38338C35.1472 8.00213 34.7692 8.54325 34.2596 8.95162L30.9049 11.6359C30.3086 12.1129 29.5594 12.375 28.7966 12.375H28.125V10.125H16.875V21.375H10.125C8.88412 21.375 7.875 22.3841 7.875 23.625V55.125C7.875 56.3659 8.88412 57.375 10.125 57.375H61.875C63.1159 57.375 64.125 56.3659 64.125 55.125V23.625C64.125 22.3841 63.1159 21.375 61.875 21.375V21.375ZM28.7966 14.625C30.069 14.625 31.3166 14.1874 32.3111 13.392L35.6659 10.7077C36.5141 10.0294 37.1453 9.12488 37.4884 8.09438L39.0566 3.39075C40.4977 3.54825 41.625 4.77337 41.625 6.25725C41.625 6.49237 41.5958 6.7275 41.5384 6.95588L40.1839 12.375H49.5C50.1199 12.375 50.625 12.8801 50.625 13.5C50.625 14.1199 50.1199 14.625 49.5 14.625H43.875V16.875H49.5C50.1199 16.875 50.625 17.3801 50.625 18C50.625 18.6199 50.1199 19.125 49.5 19.125H43.875V21.375H49.5C50.1199 21.375 50.625 21.8801 50.625 22.5C50.625 23.1199 50.1199 23.625 49.5 23.625H47.25H43.875V25.875H47.25C47.8699 25.875 48.375 26.3801 48.375 27C48.375 27.6199 47.8699 28.125 47.25 28.125H35.3441C34.4756 28.125 33.606 27.9191 32.8286 27.531L29.5155 25.875H28.125V14.625H28.7966ZM19.125 12.375H25.875V28.125H19.125V12.375ZM61.875 55.125H10.125V23.625H16.875V30.375H28.125V28.125H28.9845L31.8217 29.5436C32.9096 30.0881 34.1269 30.375 35.3441 30.375H47.25C49.1108 30.375 50.625 28.8608 50.625 27C50.625 26.5556 50.5339 26.1338 50.3775 25.7445C51.4462 25.4543 52.299 24.6589 52.668 23.625H61.875V55.125Z" fill="#44545F"/>
<path d="M65.25 70.875H6.75C3.64838 70.875 1.125 68.3516 1.125 65.25V59.625H70.875V65.25C70.875 68.3516 68.3516 70.875 65.25 70.875ZM3.375 61.875V65.25C3.375 67.1108 4.88925 68.625 6.75 68.625H65.25C67.1108 68.625 68.625 67.1108 68.625 65.25V61.875H3.375Z" fill="#44545F"/>
<path d="M30.375 64.125H41.625V66.375H30.375V64.125Z" fill="#44545F"/>
<path d="M43.875 64.125H46.125V66.375H43.875V64.125Z" fill="#44545F"/>
<path d="M25.875 64.125H28.125V66.375H25.875V64.125Z" fill="#44545F"/>
<path d="M50.625 37.125L52.875 42.75H57.375L53.7379 45.7335L55.6605 51.75L50.625 48.0319L45.5895 51.75L47.5121 45.7335L42.75 42.75H48.375L50.625 37.125Z" fill="#FFD200"/>
<path d="M36 33.75L38.25 39.375H43.875L39.1129 42.3585L41.0355 48.375L36 44.6569L30.9645 48.375L32.8871 42.3585L28.125 39.375H33.75L36 33.75Z" fill="#FFD200"/>
<path d="M21.375 37.125L23.625 42.75H29.25L24.4879 45.7335L26.4105 51.75L21.375 48.0319L16.3395 51.75L18.2621 45.7335L14.625 42.75H19.125L21.375 37.125Z" fill="#FFD200"/>
<path d="M59.625 34.875H57.375V28.125H55.125V25.875H59.625V34.875Z" fill="#44545F"/>
<path d="M57.375 37.125H59.625V39.375H57.375V37.125Z" fill="#44545F"/>
</svg>
