<svg width="56" height="56" viewBox="0 0 56 56" fill="none" xmlns="http://www.w3.org/2000/svg">
<path d="M23.3543 14.678V8.98491L20.9156 8.33548C20.8446 8.14685 20.7656 7.95912 20.6802 7.77229L21.9458 5.58597L17.9217 1.56184L15.7354 2.82747C15.5486 2.74213 15.3608 2.66309 15.1722 2.59213L14.5237 0.154297H8.83062L8.18119 2.59302C7.99256 2.66399 7.80482 2.74303 7.61799 2.82836L5.43257 1.56184L1.40844 5.58597L2.67407 7.77229C2.58873 7.95912 2.50969 8.14685 2.43873 8.33548L0 8.98491V14.678L2.43873 15.3274C2.50969 15.516 2.58873 15.7038 2.67407 15.8906L1.40844 18.0769L5.43257 22.101L7.61889 20.8354C7.80572 20.9208 7.99346 20.9998 8.18209 21.0708L8.83062 23.5086H14.5237L15.1731 21.0699C15.3617 20.9989 15.5495 20.9199 15.7363 20.8345L17.9226 22.1001L21.9467 18.076L20.6811 15.8897C20.7665 15.7029 20.8455 15.5151 20.9165 15.3265L23.3543 14.678ZM11.6771 17.2209C8.70037 17.2209 6.28769 14.8082 6.28769 11.8314C6.28769 8.85467 8.70037 6.44199 11.6771 6.44199C14.6539 6.44199 17.0666 8.85467 17.0666 11.8314C17.0666 14.8082 14.6539 17.2209 11.6771 17.2209Z" fill="#FFD200"/>
<path d="M23.3543 28H0V35.1859H23.3543V28Z" fill="#FFD200"/>
<path d="M46.2783 19.1127L45.8292 18.6636C43.7399 16.5752 40.9625 15.4246 38.0073 15.4246C31.9083 15.4246 26.9473 20.3856 26.9473 26.4846V33.3894H27.8455C27.8455 31.901 29.0518 30.6947 30.5402 30.6947V29.7964C32.8406 29.7964 35.0467 28.8829 36.6734 27.2562L37.7262 26.2035L37.8187 26.3265C39.4571 28.511 42.0279 29.7964 44.7576 29.7964H46.7086V30.6947C48.197 30.6947 49.4033 31.901 49.4033 33.3894H50.3016V24.5175C50.3016 22.0105 48.6596 19.8241 46.2783 19.1127Z" fill="#FFD200"/>
<path d="M53.9078 48.8697C53.2243 46.5936 51.3478 44.9156 49.0097 44.4908L43.1155 43.4183V42.953C45.3197 41.673 46.9339 39.4894 47.4369 36.9078C49.0699 36.5701 50.3014 35.1212 50.3014 33.3894C50.3014 31.7196 49.1516 30.3255 47.6067 29.924V28.8982H44.7583C42.3241 28.8982 39.9977 27.7359 38.538 25.7894L37.8239 24.8354L36.0391 26.6212C34.5696 28.0898 32.6168 28.8982 30.5401 28.8982H29.6418V29.924C28.0969 30.3255 26.9471 31.7196 26.9471 33.3894C26.9471 35.1212 28.1786 36.5701 29.8116 36.9078C30.3155 39.4894 31.9288 41.6739 34.133 42.953V43.4183L28.2388 44.4899C25.9007 44.9156 24.0242 46.5936 23.3407 48.8697L21.2487 55.8454H55.9998L53.9078 48.8697ZM28.7436 33.3894C28.7436 32.7274 29.1074 32.1543 29.6418 31.8426V34.9362C29.1074 34.6245 28.7436 34.0514 28.7436 33.3894ZM34.8067 45.1222L37.2571 46.96L35.4238 48.7925L34.2345 45.2255L34.8067 45.1222ZM38.6243 45.7402L36.0059 43.7767C36.835 44.03 37.7134 44.1683 38.6243 44.1683C39.5351 44.1683 40.4135 44.03 41.2426 43.7767L38.6243 45.7402ZM42.4418 45.1222L43.0131 45.2264L41.8238 48.7934L39.9905 46.9609L42.4418 45.1222ZM48.5049 33.3894C48.5049 34.0514 48.1411 34.6245 47.6067 34.9362V31.8426C48.1411 32.1543 48.5049 32.7274 48.5049 33.3894ZM31.4383 35.1859V30.6534C33.6561 30.4477 35.7139 29.4856 37.3092 27.8913L37.6586 27.5419C39.4596 29.5297 42.0537 30.6947 44.7583 30.6947H45.8102V35.1859C45.8102 39.148 42.5864 42.3718 38.6243 42.3718C34.6621 42.3718 31.4383 39.148 31.4383 35.1859ZM23.6631 54.049L25.0626 49.3862C25.5503 47.7604 26.8905 46.5612 28.5612 46.2585L32.4506 45.5516L34.6396 52.1195L38.6243 48.1331L42.6098 52.1186L44.7988 45.5507L48.6882 46.2576C50.358 46.5612 51.6991 47.7604 52.1868 49.3853L53.5854 54.049H23.6631Z" fill="#44545F"/>
<path d="M11.6771 18.1196C13.0784 18.1196 14.4033 17.6696 15.5099 16.8171L14.414 15.3943C13.6236 16.0024 12.6777 16.3231 11.6771 16.3231C9.20064 16.3231 7.18589 14.3083 7.18589 11.8319C7.18589 9.35543 9.20064 7.34067 11.6771 7.34067C14.1536 7.34067 16.1683 9.35543 16.1683 11.8319C16.1683 12.8065 15.862 13.7326 15.2826 14.5104L16.7234 15.5838C17.5354 14.4934 17.9648 13.1963 17.9648 11.8319C17.9648 8.36557 15.1443 5.54419 11.6771 5.54419C8.20988 5.54419 5.3894 8.36557 5.3894 11.8319C5.3894 15.2982 8.20988 18.1196 11.6771 18.1196Z" fill="#44545F"/>
<path d="M51.1998 9.13672V12.3578L50.0384 11.1964L48.7682 12.4665L52.098 15.7963L55.4278 12.4665L54.1577 11.1964L52.9963 12.3578V9.13672C52.9963 4.18381 48.9667 0.154297 44.0138 0.154297H38.6244V1.95078H44.0138C47.976 1.95078 51.1998 5.17457 51.1998 9.13672Z" fill="#44545F"/>
<path d="M4.49109 46.8632V43.6421L5.65251 44.8035L6.92263 43.5334L3.59284 40.2036L0.263062 43.5334L1.53318 44.8035L2.6946 43.6421V46.8632C2.6946 51.8161 6.72412 55.8456 11.677 55.8456V54.0491C7.71488 54.0491 4.49109 50.8253 4.49109 46.8632Z" fill="#44545F"/>
<path d="M23.3543 27.1016H0V28.898H23.3543V27.1016Z" fill="#44545F"/>
<path d="M23.3543 34.2878H0V36.0843H23.3543V34.2878Z" fill="#44545F"/>
<path d="M10.7789 30.6946H0V32.4911H10.7789V30.6946Z" fill="#44545F"/>
<path d="M12.5754 30.6946V32.4911H13.4737H17.7403H23.3543V30.6946H17.7403H13.4737H12.5754Z" fill="#44545F"/>
<path d="M36.828 0.154297H35.0315V1.95078H36.828V0.154297Z" fill="#44545F"/>
<path d="M33.235 0.154297H31.4385V1.95078H33.235V0.154297Z" fill="#44545F"/>
<path d="M15.2701 54.0488H13.4736V55.8453H15.2701V54.0488Z" fill="#44545F"/>
<path d="M18.8631 54.0488H17.0667V55.8453H18.8631V54.0488Z" fill="#44545F"/>
</svg>
