<svg width="56" height="56" viewBox="0 0 56 56" fill="none" xmlns="http://www.w3.org/2000/svg">
<g clip-path="url(#clip0)">
<path d="M10.0008 3.60767V9.92129H3.68719V16.2349H36.1572V3.60767H10.0008Z" fill="#FFD200"/>
<path d="M42.4709 47.803C38.9904 47.803 36.1573 44.9699 36.1573 41.4894C36.1573 38.0089 38.9904 35.1758 42.4709 35.1758C45.9514 35.1758 48.7845 38.0089 48.7845 41.4894C48.7845 44.9699 45.9514 47.803 42.4709 47.803Z" fill="#FFD200"/>
<path d="M27.1378 48.7047H3.68719V32.4697H27.1378V48.7047Z" fill="#FFD200"/>
<path d="M55.098 30.6661C51.6175 30.6661 48.7844 27.833 48.7844 24.3525V23.4506H39.7649V0H9.62729L0.0793457 9.54794V52.3128H36.4703C38.1333 53.7477 40.0248 54.9517 42.1154 55.8475L42.4708 55.9999L42.8262 55.8475C50.8292 52.4185 56 44.5758 56 35.8695V30.6661H55.098ZM9.0988 3.0793V9.01946H3.15864L9.0988 3.0793ZM1.88324 10.8233H10.9027V1.80389H37.9611V23.4506H36.1572V24.3525C36.1572 27.833 33.3241 30.6661 29.8435 30.6661H28.9416V35.8695C28.9416 41.4045 31.0379 46.5845 34.6158 50.509H1.88324V10.8233ZM54.1961 35.8695C54.1961 43.7245 49.6071 50.8111 42.4708 54.0339C35.3345 50.812 30.7455 43.7245 30.7455 35.8695V32.4203C34.5021 32.0037 37.4938 29.012 37.9104 25.2554H47.0303C47.4469 29.012 50.4386 32.0037 54.1952 32.4203V35.8695H54.1961Z" fill="#44545F"/>
<path d="M42.0696 41.9414L40.2657 40.7391L39.2642 42.24L42.872 44.6455L48.7113 31.0216L47.0536 30.3108L42.0696 41.9414Z" fill="#44545F"/>
<path d="M7.29498 18.0388H27.1378V19.8427H7.29498V18.0388Z" fill="#44545F"/>
<path d="M3.68719 18.0388H5.49108V19.8427H3.68719V18.0388Z" fill="#44545F"/>
<path d="M3.68719 21.6465H27.1378V23.4504H3.68719V21.6465Z" fill="#44545F"/>
<path d="M3.68719 25.2544H27.1378V27.0583H3.68719V25.2544Z" fill="#44545F"/>
<path d="M3.68719 28.8621H27.1378V30.6659H3.68719V28.8621Z" fill="#44545F"/>
</g>
<defs>
<clipPath id="clip0">
<rect width="56" height="56" fill="white"/>
</clipPath>
</defs>
</svg>
