<svg width="56" height="56" viewBox="0 0 56 56" fill="none" xmlns="http://www.w3.org/2000/svg">
<path d="M20.5765 18.6287C21.9345 16.8595 22.75 14.6528 22.75 12.25C22.75 6.45138 18.0486 1.75 12.25 1.75C6.45138 1.75 1.75 6.45138 1.75 12.25C1.75 18.0486 6.45138 22.75 12.25 22.75C14.2118 22.75 16.0405 22.2023 17.612 21.266L21.875 21.875L20.5765 18.6287Z" fill="#FFD200"/>
<path d="M12.25 38.5C10.8027 38.5 9.625 37.3222 9.625 35.875C9.625 34.4277 10.8027 33.25 12.25 33.25C13.6972 33.25 14.875 34.4277 14.875 35.875C14.875 37.3222 13.6972 38.5 12.25 38.5Z" fill="#FFD200"/>
<path d="M42 49.875H49V51.625H42V49.875Z" fill="#FFD200"/>
<path d="M7 46.375H14V48.125H7V46.375Z" fill="#FFD200"/>
<path d="M55.125 39.375H52.5V36.75C52.5 29.9705 47.936 24.2471 41.7226 22.4621C43.9836 21.077 45.5 18.5903 45.5 15.75C45.5 11.4083 41.9668 7.875 37.625 7.875C33.2832 7.875 29.75 11.4083 29.75 15.75C29.75 18.5903 31.2664 21.077 33.5274 22.4621C27.314 24.2471 22.75 29.9705 22.75 36.75V39.375H20.1766C20.6885 38.675 21 37.8201 21 36.8883C21 36.0526 20.7559 35.2432 20.2939 34.5467L19.9937 34.0944C21.0543 33.943 21.875 33.0382 21.875 31.9375V29.2933C21.875 28.1085 21.1216 27.0471 19.999 26.6525C18.3374 26.0697 15.6433 25.375 12.25 25.375C8.85675 25.375 6.16263 26.0697 4.501 26.6534C3.37838 27.0471 2.625 28.1085 2.625 29.2933V31.9375C2.625 33.0382 3.44575 33.943 4.50625 34.0944L4.20613 34.5467C3.74413 35.2432 3.5 36.0526 3.5 36.8883C3.5 37.8201 3.8115 38.675 4.32337 39.375H0.875V44.625H2.625V55.125H53.375V44.625H55.125V39.375ZM37.625 25.7801L35.8881 23.7536C36.4577 23.6775 37.0344 23.625 37.625 23.625C38.2156 23.625 38.7923 23.6775 39.3619 23.7536L37.625 25.7801ZM33.9334 24.1631L36.2311 26.8441L34.5467 27.6859L33.0838 24.4519C33.3638 24.3477 33.6446 24.2471 33.9334 24.1631ZM41.3166 24.1631C41.6054 24.248 41.8862 24.3486 42.1662 24.4519L40.7033 27.6859L39.0189 26.8441L41.3166 24.1631ZM31.5 15.75C31.5 12.3725 34.2475 9.625 37.625 9.625C41.0025 9.625 43.75 12.3725 43.75 15.75C43.75 19.1275 41.0025 21.875 37.625 21.875C34.2475 21.875 31.5 19.1275 31.5 15.75ZM24.5 36.75C24.5 31.731 27.3341 27.3656 31.4834 25.1589L33.7033 30.0641L37.625 28.1033L41.5467 30.0641L43.7666 25.158C47.9159 27.3665 50.75 31.7319 50.75 36.75V39.375H34.2492C34.6404 37.87 35.9992 36.75 37.625 36.75H45.5C46.4651 36.75 47.25 35.9651 47.25 35V32.375H45.5V35H37.625C35.0289 35 32.8729 36.8961 32.4538 39.375H29.75V32.375H28V39.375H24.5V36.75ZM4.375 31.9375V29.2933C4.375 28.8496 4.6585 28.4524 5.08025 28.3045C6.61413 27.7664 9.10262 27.125 12.25 27.125C15.3974 27.125 17.8859 27.7664 19.4198 28.3045C19.8415 28.4524 20.125 28.8496 20.125 29.2933V31.9375C20.125 32.179 19.929 32.375 19.6875 32.375H16.1875C15.946 32.375 15.75 32.179 15.75 31.9375C15.75 30.7318 14.7683 29.75 13.5625 29.75H10.9375C9.73175 29.75 8.75 30.7318 8.75 31.9375C8.75 32.179 8.554 32.375 8.3125 32.375H4.8125C4.571 32.375 4.375 32.179 4.375 31.9375ZM5.25 36.8883C5.25 36.3974 5.3935 35.9223 5.66475 35.5136L6.58525 34.125H8.3125C9.51825 34.125 10.5 33.1432 10.5 31.9375C10.5 31.696 10.696 31.5 10.9375 31.5H13.5625C13.804 31.5 14 31.696 14 31.9375C14 33.1432 14.9817 34.125 16.1875 34.125H17.9148L18.8361 35.5136C19.1074 35.9223 19.2509 36.3974 19.2509 36.8883C19.25 38.2594 18.1344 39.375 16.7633 39.375H7.73675C6.36562 39.375 5.25 38.2594 5.25 36.8883ZM51.625 53.375H4.375V44.625H51.625V53.375ZM53.375 42.875H2.625V41.125H7.73675H16.7633H53.375V42.875Z" fill="#44545F"/>
<path d="M11.375 14H8.23725L10.6059 11.6314C11.102 11.1361 11.375 10.4764 11.375 9.77462V9.625C11.375 8.17775 10.1972 7 8.75 7C7.30275 7 6.125 8.17775 6.125 9.625V10.5H7.875V9.625C7.875 9.14287 8.26787 8.75 8.75 8.75C9.23213 8.75 9.625 9.14287 9.625 9.625V9.77462C9.625 10.0082 9.534 10.2287 9.36862 10.3941L6.125 13.6378V15.75H11.375V14Z" fill="#44545F"/>
<path d="M15.75 15.75H17.5V14H19.25V12.25H17.5V7H15.2548L12.25 12.0076V14H15.75V15.75ZM14.1453 12.25L15.75 9.576V12.25H14.1453Z" fill="#44545F"/>
<path d="M48.125 49.875H49.875V51.625H48.125V49.875Z" fill="#44545F"/>
<path d="M44.625 49.875H46.375V51.625H44.625V49.875Z" fill="#44545F"/>
<path d="M41.125 49.875H42.875V51.625H41.125V49.875Z" fill="#44545F"/>
<path d="M6.125 46.375H7.875V48.125H6.125V46.375Z" fill="#44545F"/>
<path d="M9.625 46.375H11.375V48.125H9.625V46.375Z" fill="#44545F"/>
<path d="M13.125 46.375H14.875V48.125H13.125V46.375Z" fill="#44545F"/>
<path d="M10.0956 19.8265L10.5734 18.143C10.0825 18.0039 9.60999 17.8027 9.16986 17.5454L8.28699 19.0574C8.85486 19.3882 9.46299 19.6472 10.0956 19.8265Z" fill="#44545F"/>
<path d="M15.8376 19.2622C16.4212 18.963 16.9672 18.5902 17.4589 18.1562L16.3013 16.8438C15.9181 17.1824 15.4928 17.472 15.0387 17.7047L15.8376 19.2622Z" fill="#44545F"/>
<path d="M13.9903 19.9315L13.6053 18.2244C13.1625 18.3241 12.7066 18.3749 12.2499 18.3749L12.0836 18.3731L12.0364 20.1222L12.2499 20.1249C12.8361 20.1249 13.4224 20.0601 13.9903 19.9315Z" fill="#44545F"/>
</svg>
