<svg width="56" height="56" viewBox="0 0 56 56" fill="none" xmlns="http://www.w3.org/2000/svg">
<path d="M32.3391 14.8621L28 26.2502H29.75L33.25 22.7502L32.375 21.0002L34.125 19.2502L34.8066 16.2612L32.3391 14.8621Z" fill="#FFD200"/>
<path d="M23.659 14.8577L27.9999 26.2502H26.2499L22.7499 22.7502L23.6249 21.0002L21.8749 19.2502L21.1932 16.2612L23.659 14.8577Z" fill="#FFD200"/>
<path d="M49.8689 27.8582C49.8094 18.431 43.862 10.2568 34.9694 7.2765C34.664 3.696 31.6575 0.875 28 0.875C24.3425 0.875 21.336 3.696 21.0306 7.27562C12.138 10.2559 6.19063 18.431 6.13112 27.8582C3.0415 29.2101 0.875 32.2927 0.875 35.875C0.875 40.6997 4.80025 44.625 9.625 44.625C10.836 44.625 11.991 44.3765 13.041 43.9294C14.9196 45.696 17.0607 47.0995 19.4241 48.1084C20.2309 52.1054 23.7694 55.125 28 55.125C32.2306 55.125 35.7691 52.1054 36.5759 48.1092C38.9401 47.1004 41.0812 45.6969 42.959 43.9303C44.009 44.3765 45.164 44.625 46.375 44.625C51.1997 44.625 55.125 40.6997 55.125 35.875C55.125 32.2927 52.9585 29.2101 49.8689 27.8582ZM28 2.625C30.8954 2.625 33.25 4.97962 33.25 7.875C33.25 10.7704 30.8954 13.125 28 13.125C25.1046 13.125 22.75 10.7704 22.75 7.875C22.75 4.97962 25.1046 2.625 28 2.625ZM23.1796 16.0571L26.7304 25.375H17.5C17.5 21.3229 19.81 17.8071 23.1796 16.0571ZM38.5 25.375H29.2696L32.8204 16.0571C36.1891 17.8071 38.5 21.3229 38.5 25.375ZM31.2051 15.3799L28 23.7921L24.7949 15.3799C25.8055 15.0544 26.8818 14.875 28 14.875C29.1182 14.875 30.1945 15.0544 31.2051 15.3799ZM2.625 35.875C2.625 32.0154 5.76538 28.875 9.625 28.875C13.4846 28.875 16.625 32.0154 16.625 35.875C16.625 37.5314 16.044 39.0539 15.078 40.2535C14.385 39.3908 13.5065 38.7109 12.5134 38.2603C13.4181 37.4579 14 36.3011 14 35C14 32.5876 12.0374 30.625 9.625 30.625C7.21263 30.625 5.25 32.5876 5.25 35C5.25 36.3011 5.83187 37.4579 6.73662 38.2603C5.7435 38.7118 4.865 39.3908 4.172 40.2535C3.206 39.0539 2.625 37.5314 2.625 35.875ZM7 35C7 33.5527 8.17775 32.375 9.625 32.375C11.0723 32.375 12.25 33.5527 12.25 35C12.25 36.4473 11.0723 37.625 9.625 37.625C8.17775 37.625 7 36.4473 7 35ZM5.432 41.4671C6.41638 40.1616 7.96513 39.375 9.625 39.375C11.2849 39.375 12.8336 40.1616 13.818 41.4671C12.6481 42.3465 11.1991 42.875 9.625 42.875C8.05088 42.875 6.60188 42.3465 5.432 41.4671ZM23.807 51.9671C24.7914 50.6616 26.3401 49.875 28 49.875C29.6599 49.875 31.2086 50.6616 32.193 51.9671C31.0231 52.8465 29.5741 53.375 28 53.375C26.4259 53.375 24.9769 52.8465 23.807 51.9671ZM25.375 45.5C25.375 44.0527 26.5527 42.875 28 42.875C29.4473 42.875 30.625 44.0527 30.625 45.5C30.625 46.9473 29.4473 48.125 28 48.125C26.5527 48.125 25.375 46.9473 25.375 45.5ZM33.453 50.7535C32.76 49.8908 31.8815 49.2109 30.8884 48.7603C31.7931 47.9579 32.375 46.8011 32.375 45.5C32.375 43.0876 30.4124 41.125 28 41.125C25.5876 41.125 23.625 43.0876 23.625 45.5C23.625 46.8011 24.2069 47.9579 25.1116 48.7603C24.1185 49.2118 23.24 49.8908 22.547 50.7535C21.581 49.5539 21 48.0314 21 46.375C21 42.5154 24.1404 39.375 28 39.375C31.8596 39.375 35 42.5154 35 46.375C35 48.0314 34.419 49.5539 33.453 50.7535ZM36.7369 46.1116C36.596 41.4094 32.7355 37.625 28 37.625C23.2645 37.625 19.404 41.4094 19.2631 46.1116C17.5875 45.3031 16.0458 44.2697 14.6493 43.0272C16.8989 41.4417 18.375 38.8299 18.375 35.875C18.375 31.0503 14.4497 27.125 9.625 27.125C9.03525 27.125 8.46037 27.1854 7.903 27.2974C8.18387 19.0347 13.3761 11.9035 21.1137 9.09912C21.4576 11.0381 22.5986 12.7024 24.1894 13.7393C19.2964 15.3457 15.75 19.9509 15.75 25.375V27.125H40.25V25.375C40.25 19.9509 36.7036 15.3457 31.8097 13.7393C33.4005 12.7024 34.5415 11.0381 34.8854 9.09912C42.6239 11.9035 47.8153 19.0347 48.0961 27.2974C47.5396 27.1854 46.9647 27.125 46.375 27.125C41.5503 27.125 37.625 31.0503 37.625 35.875C37.625 38.829 39.1011 41.4417 41.3499 43.0264C39.9543 44.2697 38.4125 45.3031 36.7369 46.1116ZM42.182 41.4671C43.1664 40.1616 44.7151 39.375 46.375 39.375C48.0349 39.375 49.5836 40.1616 50.568 41.4671C49.3981 42.3465 47.9491 42.875 46.375 42.875C44.8009 42.875 43.3519 42.3465 42.182 41.4671ZM43.75 35C43.75 33.5527 44.9277 32.375 46.375 32.375C47.8223 32.375 49 33.5527 49 35C49 36.4473 47.8223 37.625 46.375 37.625C44.9277 37.625 43.75 36.4473 43.75 35ZM51.828 40.2535C51.135 39.3908 50.2565 38.7109 49.2634 38.2603C50.1681 37.4579 50.75 36.3011 50.75 35C50.75 32.5876 48.7874 30.625 46.375 30.625C43.9626 30.625 42 32.5876 42 35C42 36.3011 42.5819 37.4579 43.4866 38.2603C42.4935 38.7118 41.615 39.3908 40.922 40.2535C39.956 39.0539 39.375 37.5314 39.375 35.875C39.375 32.0154 42.5154 28.875 46.375 28.875C50.2346 28.875 53.375 32.0154 53.375 35.875C53.375 37.5314 52.794 39.0539 51.828 40.2535Z" fill="#44545F"/>
</svg>
