<svg width="56" height="56" viewBox="0 0 56 56" fill="none" xmlns="http://www.w3.org/2000/svg">
<path d="M40.25 36.75H52.5V40.25H40.25V36.75Z" fill="#FFD200"/>
<path d="M40.25 45.5H52.5V49H40.25V45.5Z" fill="#FFD200"/>
<path d="M3.5 36.75H15.75V40.25H3.5V36.75Z" fill="#FFD200"/>
<path d="M3.5 45.5H15.75V49H3.5V45.5Z" fill="#FFD200"/>
<path d="M46.7653 2.625C45.7161 2.625 44.7291 3.03363 43.9863 3.77562L36.9434 10.8185C35.7866 11.9753 34.3315 12.7216 32.753 12.999C34.1311 11.7198 35 9.89888 35 7.875C35 4.01538 31.8596 0.875 28 0.875C24.1404 0.875 21 4.01538 21 7.875C21 9.89888 21.8689 11.7198 23.247 12.999C21.6685 12.7216 20.2134 11.9753 19.0566 10.8185L12.0137 3.77562C11.2709 3.03363 10.2839 2.625 9.17963 2.625C7.01313 2.625 5.25 4.38813 5.25 6.55463C5.25 7.6335 5.70063 8.67737 6.48638 9.41675L19.299 21.4751C19.824 21.9686 20.125 22.6651 20.125 23.387V50.75C20.125 53.1624 22.0876 55.125 24.5 55.125C25.9298 55.125 27.2011 54.4355 28 53.3724C28.7989 54.4355 30.0702 55.125 31.5 55.125C33.9124 55.125 35.875 53.1624 35.875 50.75V23.3879C35.875 22.6669 36.176 21.9704 36.701 21.476L49.5136 9.41762C50.2994 8.67737 50.75 7.63438 50.75 6.55463C50.75 4.38813 48.9869 2.625 46.7653 2.625ZM30.2636 14.875C29.8016 15.9276 28.9468 16.625 28 16.625C27.0532 16.625 26.1984 15.9276 25.7364 14.875H30.2636ZM22.75 7.875C22.75 4.97962 25.1046 2.625 28 2.625C30.8954 2.625 33.25 4.97962 33.25 7.875C33.25 10.7704 30.8954 13.125 28 13.125C25.1046 13.125 22.75 10.7704 22.75 7.875ZM31.5 53.375C30.0527 53.375 28.875 52.1973 28.875 50.75V34.125H27.125V50.75C27.125 52.1973 25.9473 53.375 24.5 53.375C23.0527 53.375 21.875 52.1973 21.875 50.75V30.625H34.125V50.75C34.125 52.1973 32.9473 53.375 31.5 53.375ZM48.314 8.14275L35.5014 20.2011C34.6264 21.0245 34.125 22.1865 34.125 23.3879V28.875H21.875V23.3879C21.875 22.1865 21.3736 21.0254 20.4986 20.2011L7.686 8.14275C7.25025 7.73237 7 7.154 7 6.55463C7 5.35238 7.97825 4.375 9.23475 4.375C9.81663 4.375 10.3644 4.60162 10.7765 5.01288L17.8194 12.0557C19.4591 13.6946 21.588 14.6624 23.8752 14.8383C24.4737 16.9216 26.117 18.375 28 18.375C29.8839 18.375 31.5263 16.9216 32.1256 14.8383C34.4129 14.6624 36.5417 13.6946 38.1806 12.0557L45.2235 5.01288C45.6356 4.60162 46.1834 4.375 46.8204 4.375C48.0217 4.375 49 5.35238 49 6.55463C49 7.154 48.7497 7.73237 48.314 8.14275Z" fill="#44545F"/>
<path d="M27.125 20.125H28.875V21.875H27.125V20.125Z" fill="#44545F"/>
<path d="M27.125 23.625H28.875V25.375H27.125V23.625Z" fill="#44545F"/>
<path d="M52.5 37.625H40.25C38.8027 37.625 37.625 36.4472 37.625 35V33.25C37.625 31.8027 38.8027 30.625 40.25 30.625H52.5C53.9473 30.625 55.125 31.8027 55.125 33.25V35C55.125 36.4472 53.9473 37.625 52.5 37.625ZM40.25 32.375C39.7679 32.375 39.375 32.767 39.375 33.25V35C39.375 35.483 39.7679 35.875 40.25 35.875H52.5C52.9821 35.875 53.375 35.483 53.375 35V33.25C53.375 32.767 52.9821 32.375 52.5 32.375H40.25Z" fill="#44545F"/>
<path d="M52.5 46.375H40.25C38.8027 46.375 37.625 45.1972 37.625 43.75V42C37.625 40.5527 38.8027 39.375 40.25 39.375H52.5C53.9473 39.375 55.125 40.5527 55.125 42V43.75C55.125 45.1972 53.9473 46.375 52.5 46.375ZM40.25 41.125C39.7679 41.125 39.375 41.517 39.375 42V43.75C39.375 44.233 39.7679 44.625 40.25 44.625H52.5C52.9821 44.625 53.375 44.233 53.375 43.75V42C53.375 41.517 52.9821 41.125 52.5 41.125H40.25Z" fill="#44545F"/>
<path d="M52.5 55.125H40.25C38.8027 55.125 37.625 53.9472 37.625 52.5V50.75C37.625 49.3027 38.8027 48.125 40.25 48.125H52.5C53.9473 48.125 55.125 49.3027 55.125 50.75V52.5C55.125 53.9472 53.9473 55.125 52.5 55.125ZM40.25 49.875C39.7679 49.875 39.375 50.267 39.375 50.75V52.5C39.375 52.983 39.7679 53.375 40.25 53.375H52.5C52.9821 53.375 53.375 52.983 53.375 52.5V50.75C53.375 50.267 52.9821 49.875 52.5 49.875H40.25Z" fill="#44545F"/>
<path d="M15.75 37.625H3.5C2.05275 37.625 0.875 36.4472 0.875 35V33.25C0.875 31.8027 2.05275 30.625 3.5 30.625H15.75C17.1973 30.625 18.375 31.8027 18.375 33.25V35C18.375 36.4472 17.1973 37.625 15.75 37.625ZM3.5 32.375C3.01787 32.375 2.625 32.767 2.625 33.25V35C2.625 35.483 3.01787 35.875 3.5 35.875H15.75C16.2321 35.875 16.625 35.483 16.625 35V33.25C16.625 32.767 16.2321 32.375 15.75 32.375H3.5Z" fill="#44545F"/>
<path d="M15.75 46.375H3.5C2.05275 46.375 0.875 45.1972 0.875 43.75V42C0.875 40.5527 2.05275 39.375 3.5 39.375H15.75C17.1973 39.375 18.375 40.5527 18.375 42V43.75C18.375 45.1972 17.1973 46.375 15.75 46.375ZM3.5 41.125C3.01787 41.125 2.625 41.517 2.625 42V43.75C2.625 44.233 3.01787 44.625 3.5 44.625H15.75C16.2321 44.625 16.625 44.233 16.625 43.75V42C16.625 41.517 16.2321 41.125 15.75 41.125H3.5Z" fill="#44545F"/>
<path d="M15.75 55.125H3.5C2.05275 55.125 0.875 53.9472 0.875 52.5V50.75C0.875 49.3027 2.05275 48.125 3.5 48.125H15.75C17.1973 48.125 18.375 49.3027 18.375 50.75V52.5C18.375 53.9472 17.1973 55.125 15.75 55.125ZM3.5 49.875C3.01787 49.875 2.625 50.267 2.625 50.75V52.5C2.625 52.983 3.01787 53.375 3.5 53.375H15.75C16.2321 53.375 16.625 52.983 16.625 52.5V50.75C16.625 50.267 16.2321 49.875 15.75 49.875H3.5Z" fill="#44545F"/>
<path d="M45.5 22.75H47.25V25.375H45.5V22.75Z" fill="#44545F"/>
<path d="M45.5 27.125H47.25V28.875H45.5V27.125Z" fill="#44545F"/>
<path d="M8.75 22.75H10.5V25.375H8.75V22.75Z" fill="#44545F"/>
<path d="M46.375 23.625C44.9277 23.625 43.75 22.4472 43.75 21C43.75 19.5527 44.9277 18.375 46.375 18.375C47.8222 18.375 49 19.5527 49 21C49 22.4472 47.8222 23.625 46.375 23.625Z" fill="#FFD200"/>
<path d="M9.625 23.625C8.17775 23.625 7 22.4472 7 21C7 19.5527 8.17775 18.375 9.625 18.375C11.0722 18.375 12.25 19.5527 12.25 21C12.25 22.4472 11.0722 23.625 9.625 23.625Z" fill="#FFD200"/>
<path d="M8.75 27.125H10.5V28.875H8.75V27.125Z" fill="#44545F"/>
</svg>
