<svg width="56" height="56" viewBox="0 0 56 56" fill="none" xmlns="http://www.w3.org/2000/svg">
<path d="M55.125 42.693V36.057L52.8194 35.5145C52.528 34.4995 52.1238 33.5221 51.611 32.599L52.8579 30.5839L49.399 27.125H42.875L41.2685 29.9364C45.6776 30.8158 49 34.7077 49 39.375C49 44.6906 44.6906 49 39.375 49C34.0594 49 29.75 44.6906 29.75 39.375C29.75 34.7235 33.0496 30.8429 37.4351 29.9451H37.4867L35.875 27.125H29.351L25.8913 30.5839L27.1381 32.599C26.6262 33.5221 26.2211 34.4995 25.9298 35.5145L23.625 36.057V42.693L25.9306 43.2355C26.222 44.2505 26.6263 45.2279 27.139 46.151L25.8921 48.1661L30.5847 52.8587L32.599 51.611C33.5239 52.1238 34.5004 52.5289 35.5145 52.8194L36.057 55.125H42.693L43.2355 52.8194C44.2496 52.5289 45.2261 52.1238 46.151 51.611L48.1653 52.8587L52.8579 48.1661L51.611 46.151C52.1238 45.227 52.5289 44.2505 52.8194 43.2355L55.125 42.693Z" fill="#FFD200"/>
<path d="M50.75 9.625H47.726C47.2972 8.253 46.5316 7.00175 45.4676 5.96925C43.7544 4.30763 41.5065 3.42825 39.1055 3.5035C35.3351 3.61725 32.1422 6.18362 31.0406 9.625H28C25.8878 9.625 24.1203 11.1309 23.7134 13.125H17.7397C19.1984 11.8414 20.125 9.96625 20.125 7.875C20.125 4.01538 16.9846 0.875 13.125 0.875C9.26538 0.875 6.125 4.01538 6.125 7.875C6.125 10.0608 7.133 12.0138 8.70713 13.2991C4.25513 14.1418 0.875 18.0556 0.875 22.75V25.375C0.875 27.7874 2.83763 29.75 5.25 29.75H6.125V33.25V34.125V51.1875C6.125 53.3584 7.89162 55.125 10.0625 55.125C11.3059 55.125 12.4031 54.5344 13.125 53.6322C13.8469 54.5344 14.9441 55.125 16.1875 55.125C18.3584 55.125 20.125 53.3584 20.125 51.1875V19.25H23.625V23.625C23.625 26.0374 25.5876 28 28 28H35.3675L36.1585 29.3851C31.8789 30.7633 28.875 34.7935 28.875 39.375C28.875 45.1649 33.5851 49.875 39.375 49.875C45.1649 49.875 49.875 45.1649 49.875 39.375C49.875 34.7856 46.8729 30.7633 42.5906 29.386L43.3825 28H50.75C53.1624 28 55.125 26.0374 55.125 23.625V14C55.125 11.5876 53.1624 9.625 50.75 9.625ZM39.158 5.2535C41.0681 5.18263 42.8785 5.89575 44.2487 7.22575C45.6199 8.55575 46.375 10.3399 46.375 12.25C46.375 14.4051 45.4002 16.4071 43.701 17.7432C43.1716 18.1597 42.7551 18.6751 42.4655 19.25H40.25V14.875H38.5V19.25H36.2933C36.0115 18.6795 35.609 18.1746 35.105 17.787C34.9702 17.6829 34.8478 17.5639 34.72 17.4501C34.8959 17.0643 35 16.639 35 16.1875C35 14.6711 33.8896 13.4181 32.4415 13.1757C32.4021 12.8774 32.3759 12.5772 32.375 12.2745C32.3619 8.5155 35.4042 5.36637 39.158 5.2535ZM36.7386 21H42.0114C42.0088 21.0665 42 21.1321 42 21.1995V21.875C42 22.358 41.6071 22.75 41.125 22.75H37.625C37.1429 22.75 36.75 22.358 36.75 21.875V21.1995C36.75 21.1321 36.7421 21.0665 36.7386 21ZM28 11.375H30.6714C30.6408 11.6734 30.6241 11.9761 30.625 12.2815C30.6259 12.5641 30.6477 12.845 30.6749 13.125H25.536C25.8983 12.1091 26.8608 11.375 28 11.375ZM7.875 7.875C7.875 4.97962 10.2296 2.625 13.125 2.625C16.0204 2.625 18.375 4.97962 18.375 7.875C18.375 10.7704 16.0204 13.125 13.125 13.125C10.2296 13.125 7.875 10.7704 7.875 7.875ZM11.8125 29.75C13.5013 29.75 14.875 28.3762 14.875 26.6875C14.875 24.9988 13.5013 23.625 11.8125 23.625H7.875V21.875H14.875V26.6875V32.375H7.875V29.75H11.8125ZM10.0625 53.375C8.85675 53.375 7.875 52.3941 7.875 51.1875V34.125H12.25V51.1875C12.25 52.3941 11.2683 53.375 10.0625 53.375ZM18.375 17.5V51.1875C18.375 52.3941 17.3932 53.375 16.1875 53.375C14.9817 53.375 14 52.3941 14 51.1875V34.125H16.625V20.125H6.125V23.625H4.375V25.375H11.8125C12.5361 25.375 13.125 25.9639 13.125 26.6875C13.125 27.4111 12.5361 28 11.8125 28H5.25C3.80275 28 2.625 26.8223 2.625 25.375V22.75C2.625 18.4074 6.15825 14.875 10.5 14.875H31.9375C32.6611 14.875 33.25 15.4639 33.25 16.1875C33.25 16.9111 32.6611 17.5 31.9375 17.5H18.375ZM48.125 39.375C48.125 44.1997 44.1997 48.125 39.375 48.125C34.5503 48.125 30.625 44.1997 30.625 39.375C30.625 35.4305 33.2955 31.9769 37.0492 30.9435L37.9505 32.5211C34.7716 33.1809 32.375 36.0028 32.375 39.375C32.375 43.2346 35.5154 46.375 39.375 46.375C43.2346 46.375 46.375 43.2346 46.375 39.375C46.375 36.0028 43.9784 33.1809 40.7986 32.5211L41.7008 30.9426C45.4571 31.976 48.125 35.4244 48.125 39.375ZM39.375 34.125C42.2704 34.125 44.625 36.4796 44.625 39.375C44.625 42.2704 42.2704 44.625 39.375 44.625C36.4796 44.625 34.125 42.2704 34.125 39.375C34.125 36.4796 36.4796 34.125 39.375 34.125ZM53.375 23.625C53.375 25.0723 52.1973 26.25 50.75 26.25H42.3675L39.375 31.4869L36.3825 26.25H28C26.5527 26.25 25.375 25.0723 25.375 23.625V19.25H31.9375C32.5378 19.25 33.0951 19.0697 33.5685 18.7696C33.7225 18.9061 33.8739 19.047 34.0366 19.173C34.6395 19.6376 35 20.3954 35 21.1995V21.875C35 23.3223 36.1777 24.5 37.625 24.5H41.125C42.5723 24.5 43.75 23.3223 43.75 21.875V21.1995C43.75 20.3936 44.1263 19.6359 44.7825 19.1196C46.907 17.4484 48.125 14.945 48.125 12.25C48.125 11.956 48.1101 11.6637 48.0821 11.375H50.75C52.1973 11.375 53.375 12.5527 53.375 14V23.625Z" fill="#44545F"/>
<path d="M49.875 22.75H51.625V24.5H49.875V22.75Z" fill="#44545F"/>
<path d="M49.875 19.25H51.625V21H49.875V19.25Z" fill="#44545F"/>
<path d="M49.875 15.75H51.625V17.5H49.875V15.75Z" fill="#44545F"/>
<path d="M27.125 22.75H28.875V24.5H27.125V22.75Z" fill="#44545F"/>
<path d="M30.625 22.75H32.375V24.5H30.625V22.75Z" fill="#44545F"/>
<path d="M39.375 15.75C37.4447 15.75 35.875 14.1803 35.875 12.25C35.875 10.3197 37.4447 8.75 39.375 8.75C41.3053 8.75 42.875 10.3197 42.875 12.25C42.875 14.1803 41.3053 15.75 39.375 15.75Z" fill="#FFD200"/>
</svg>
