<svg width="56" height="56" viewBox="0 0 56 56" fill="none" xmlns="http://www.w3.org/2000/svg">
<path d="M30.4983 11.077L28 10.442L25.5017 11.077L25.3075 8.40435L23.9951 6.16345L26.32 5.15635L28 3.07983L29.6791 5.15545L32.004 6.16254L30.6916 8.40345L30.4983 11.077Z" fill="#FFD200"/>
<path d="M39.5306 11.077L37.0322 10.442L34.5339 11.077L34.3397 8.40435L33.0273 6.16345L35.3522 5.15635L37.0322 3.07983L38.7113 5.15545L41.0362 6.16254L39.7239 8.40345L39.5306 11.077Z" fill="#FFD200"/>
<path d="M35.0145 18.3026L32.5161 17.6676L30.0178 18.3026L29.8236 15.6299L28.5112 13.389L30.8361 12.3819L32.5161 10.3054L34.1952 12.381L36.5201 13.3881L35.2077 15.629L35.0145 18.3026Z" fill="#FFD200"/>
<path d="M44.0468 18.3026L41.5485 17.6676L39.0502 18.3026L38.856 15.6299L37.5436 13.389L39.8685 12.3819L41.5485 10.3054L43.2276 12.381L45.5525 13.3881L44.2401 15.629L44.0468 18.3026Z" fill="#FFD200"/>
<path d="M48.5629 11.077L46.0646 10.442L43.5663 11.077L43.3721 8.40435L42.0597 6.16345L44.3846 5.15635L46.0646 3.07983L47.7437 5.15545L50.0686 6.16254L48.7562 8.40345L48.5629 11.077Z" fill="#FFD200"/>
<path d="M18.0645 0V26.1935H17.1613H15.0631C14.7262 26.1935 14.4516 25.919 14.4516 25.5821C14.4516 25.5306 14.4579 25.48 14.4706 25.4294C15.6403 23.7052 16.2581 21.6955 16.2581 19.609V16.2581C16.2581 14.7641 15.0423 13.5484 13.5484 13.5484C12.0545 13.5484 10.8387 14.7641 10.8387 16.2581C10.8387 18.9298 9.7991 21.4408 7.91045 23.3294L5.83935 25.4005C5.32723 25.9117 4.6471 26.1935 3.92271 26.1935H1.80645V25.2903V24.3871H0V25.2903V40.6452V41.5484H1.80645V40.6452V39.7419H4.21535C4.79794 39.7419 5.3751 39.9343 5.84116 40.2839L7.52658 41.5484C8.30245 42.131 9.26529 42.4516 10.2363 42.4516H17.1613H18.0645V56H46.4384L56 46.4384V0H18.0645ZM23.4839 28C23.9825 28 24.3871 28.4055 24.3871 28.9032C24.3871 29.4018 23.9825 29.8064 23.4839 29.8064H17.1613C16.6627 29.8064 16.2581 29.4018 16.2581 28.9032C16.2581 28.4055 16.6627 28 17.1613 28H23.4839ZM24.3871 32.5161C24.3871 33.0147 23.9825 33.4194 23.4839 33.4194H17.1613C16.6627 33.4194 16.2581 33.0147 16.2581 32.5161C16.2581 32.0175 16.6627 31.6129 17.1613 31.6129H23.4839C23.9825 31.6129 24.3871 32.0175 24.3871 32.5161ZM16.2581 36.129C16.2581 35.6305 16.6627 35.2258 17.1613 35.2258H23.4839C23.9825 35.2258 24.3871 35.6305 24.3871 36.129C24.3871 36.6276 23.9825 37.0323 23.4839 37.0323H17.1613C16.6627 37.0323 16.2581 36.6276 16.2581 36.129ZM8.61045 40.1032L6.92503 38.8387C6.14916 38.2561 5.18632 37.9355 4.21535 37.9355H1.80645V28H3.92271C5.12942 28 6.26387 27.5303 7.11652 26.6777L9.18761 24.6066C11.4177 22.3765 12.6452 19.4121 12.6452 16.2581C12.6452 15.7604 13.0498 15.3548 13.5484 15.3548C14.047 15.3548 14.4516 15.7604 14.4516 16.2581V19.609C14.4516 21.3676 13.9205 23.0603 12.9161 24.5036L12.8186 24.6852C12.703 24.9724 12.6452 25.2741 12.6452 25.5821C12.6452 26.768 13.5041 27.7516 14.6314 27.9566C14.5203 28.252 14.4516 28.569 14.4516 28.9032C14.4516 29.5996 14.7235 30.2292 15.1561 30.7097C14.7226 31.1902 14.4516 31.8197 14.4516 32.5161C14.4516 33.2125 14.7235 33.8421 15.1561 34.3226C14.7226 34.8031 14.4516 35.4326 14.4516 36.129C14.4516 36.8254 14.7235 37.455 15.1561 37.9355C14.7226 38.416 14.4516 39.0455 14.4516 39.7419C14.4516 40.0599 14.5166 40.3615 14.6178 40.6452H10.2363C9.65368 40.6452 9.07652 40.4528 8.61045 40.1032ZM17.1613 40.6452C16.6627 40.6452 16.2581 40.2405 16.2581 39.7419C16.2581 39.2434 16.6627 38.8387 17.1613 38.8387H23.4839C23.9825 38.8387 24.3871 39.2434 24.3871 39.7419C24.3871 40.2405 23.9825 40.6452 23.4839 40.6452H21.6774H17.1613ZM19.871 42.4516H21.6774H23.4839C24.9778 42.4516 26.1935 41.2359 26.1935 39.7419C26.1935 39.0455 25.9217 38.416 25.489 37.9355C25.9226 37.455 26.1935 36.8254 26.1935 36.129C26.1935 35.4326 25.9217 34.8031 25.489 34.3226C25.9226 33.8421 26.1935 33.2125 26.1935 32.5161C26.1935 31.8197 25.9217 31.1902 25.489 30.7097C25.9226 30.2292 26.1935 29.5996 26.1935 28.9032C26.1935 27.4093 24.9778 26.1935 23.4839 26.1935H19.871V1.80645H54.1935V45.1613H45.1613V54.1935H19.871V42.4516ZM52.9164 46.9677L46.9677 52.9164V46.9677H52.9164Z" fill="#44545F"/>
<path d="M39.1034 20.1355L36.6583 22.5805H28V31.6128H37.0323V24.7609L40.3805 21.4127L39.1034 20.1355ZM35.2258 29.8063H29.8065V24.387H34.8519L32.5161 26.7227L31.3483 25.5549L30.0711 26.832L32.5161 29.277L35.2258 26.5674V29.8063Z" fill="#44545F"/>
<path d="M28 43.3548H37.0323V34.3225H28V43.3548ZM29.8065 36.129H35.2258V41.5483H29.8065V36.129Z" fill="#44545F"/>
<path d="M52.3872 22.5803H41.5485V24.3868H52.3872V22.5803Z" fill="#44545F"/>
<path d="M52.3872 29.8066H41.5485V31.6131H52.3872V29.8066Z" fill="#44545F"/>
<path d="M46.0646 26.1934H41.5485V27.9998H46.0646V26.1934Z" fill="#44545F"/>
<path d="M52.387 26.1934H47.8708V27.9998H52.387V26.1934Z" fill="#44545F"/>
<path d="M52.3872 34.3225H41.5485V36.129H52.3872V34.3225Z" fill="#44545F"/>
<path d="M52.3872 41.5483H41.5485V43.3548H52.3872V41.5483Z" fill="#44545F"/>
<path d="M46.0646 37.9355H41.5485V39.742H46.0646V37.9355Z" fill="#44545F"/>
<path d="M52.387 37.9355H47.8708V39.742H52.387V37.9355Z" fill="#44545F"/>
</svg>
