<svg width="56" height="56" viewBox="0 0 56 56" fill="none" xmlns="http://www.w3.org/2000/svg">
<path d="M43.3549 25.5421L41.1365 24.8034L42.1826 22.7125L38.7069 19.2367L36.6159 20.2828L35.8772 18.0645H30.9624L30.2237 20.2828L28.1328 19.2367L24.657 22.7125L25.7031 24.8034L23.4839 25.5421V30.4569L25.7023 31.1956L24.6561 33.2865L28.1319 36.7623L30.2228 35.7162L30.9615 37.9354H35.8763L36.6151 35.7171L38.706 36.7632L42.1817 33.2874L41.1356 31.1965L43.3549 30.4578V25.5421ZM33.4194 31.6128C31.4242 31.6128 29.8065 29.9951 29.8065 27.9999C29.8065 26.0047 31.4242 24.387 33.4194 24.387C35.4146 24.387 37.0323 26.0047 37.0323 27.9999C37.0323 29.9951 35.4146 31.6128 33.4194 31.6128Z" fill="#FFD200"/>
<path d="M25.2904 19.8709H12.6452V10.8386H25.2904V19.8709Z" fill="#FFD200"/>
<path d="M54.1935 46.9677V15.3548C54.1935 12.8648 52.1675 10.8387 49.6774 10.8387H46.9677V0H9.03226V10.8387H6.32258C3.83254 10.8387 1.80645 12.8648 1.80645 15.3548V46.9677H0V51.4839C0 53.9739 2.02608 56 4.51613 56H51.4839C53.9739 56 56 53.9739 56 51.4839V46.9677H54.1935ZM49.6774 12.6452C51.1712 12.6452 52.3871 13.8611 52.3871 15.3548V46.9677H50.5806V16.2581C50.5806 15.2618 49.7705 14.4516 48.7742 14.4516H46.9677V12.6452H49.6774ZM19.871 48.7742H36.129V49.6774C36.129 50.1749 35.7242 50.5806 35.2258 50.5806H20.7742C20.2758 50.5806 19.871 50.1749 19.871 49.6774V48.7742ZM7.22581 46.9677V16.2581H9.03226V41.5484H46.9677V16.2581H48.7742V46.9677H7.22581ZM10.8387 9.03226H45.1613V39.7419H10.8387V9.03226ZM45.1613 1.80645V7.22581H10.8387V1.80645H45.1613ZM3.6129 15.3548C3.6129 13.8611 4.82882 12.6452 6.32258 12.6452H9.03226V14.4516H7.22581C6.22952 14.4516 5.41935 15.2618 5.41935 16.2581V46.9677H3.6129V15.3548ZM54.1935 51.4839C54.1935 52.9776 52.9776 54.1935 51.4839 54.1935H4.51613C3.02237 54.1935 1.80645 52.9776 1.80645 51.4839V48.7742H18.0645V49.6774C18.0645 51.1712 19.2804 52.3871 20.7742 52.3871H35.2258C36.7196 52.3871 37.9355 51.1712 37.9355 49.6774V48.7742H54.1935V51.4839Z" fill="#44545F"/>
<path d="M5.41937 50.5803H7.22582V52.3868H5.41937V50.5803Z" fill="#44545F"/>
<path d="M9.03217 50.5803H10.8386V52.3868H9.03217V50.5803Z" fill="#44545F"/>
<path d="M12.6452 50.5803H14.4517V52.3868H12.6452V50.5803Z" fill="#44545F"/>
<path d="M12.6452 3.61304H14.4517V5.41949H12.6452V3.61304Z" fill="#44545F"/>
<path d="M16.2581 3.61304H18.0645V5.41949H16.2581V3.61304Z" fill="#44545F"/>
<path d="M19.8708 3.61304H21.6773V5.41949H19.8708V3.61304Z" fill="#44545F"/>
<path d="M33.4194 23.4839C30.9293 23.4839 28.9033 25.51 28.9033 28C28.9033 30.4901 30.9293 32.5161 33.4194 32.5161C35.9094 32.5161 37.9355 30.4901 37.9355 28C37.9355 25.51 35.9094 23.4839 33.4194 23.4839ZM33.4194 30.7097C31.9256 30.7097 30.7097 29.4938 30.7097 28C30.7097 26.5063 31.9256 25.2903 33.4194 25.2903C34.9131 25.2903 36.1291 26.5063 36.1291 28C36.1291 29.4938 34.9131 30.7097 33.4194 30.7097Z" fill="#44545F"/>
<path d="M27.0967 10.8386H28.9032V12.6451H27.0967V10.8386Z" fill="#44545F"/>
<path d="M30.7098 10.8386H43.3549V12.6451H30.7098V10.8386Z" fill="#44545F"/>
<path d="M41.5485 14.4517H43.3549V16.2581H41.5485V14.4517Z" fill="#44545F"/>
<path d="M27.0967 14.4517H39.7419V16.2581H27.0967V14.4517Z" fill="#44545F"/>
<path d="M12.6452 21.6775H21.6775V23.4839H12.6452V21.6775Z" fill="#44545F"/>
<path d="M12.6452 25.2905H21.6775V27.097H12.6452V25.2905Z" fill="#44545F"/>
<path d="M12.6452 28.9031H21.6775V30.7095H12.6452V28.9031Z" fill="#44545F"/>
</svg>
