<svg width="72" height="72" viewBox="0 0 72 72" fill="none" xmlns="http://www.w3.org/2000/svg">
<path d="M31.5146 39.1894L34.389 51.75H37.6099L40.4854 39.1894C39.1106 38.5897 37.5964 38.25 36 38.25C34.4036 38.25 32.8894 38.5897 31.5146 39.1894Z" fill="#44545F"/>
<path d="M60.75 28.125V23.5676C66.4268 23.0017 70.875 18.198 70.875 12.375C70.875 6.17175 65.8282 1.125 59.625 1.125C53.4217 1.125 48.375 6.17175 48.375 12.375C48.375 18.1991 52.8232 23.0017 58.5 23.5676V28.125C58.5 28.7449 57.996 29.25 57.375 29.25H51.4564C48.8464 23.2976 42.9053 19.125 36 19.125C34.7051 19.125 33.4496 19.2847 32.238 19.5626L33.4901 14.8905L31.3166 14.3078L29.6955 20.358C28.7595 20.7371 27.8696 21.2006 27.0259 21.7339L24.138 10.9586L21.9645 11.5414L25.0774 23.1593C24.6229 23.5463 24.1931 23.9591 23.7825 24.3911L8.0595 8.66813L6.46875 10.2589L22.3403 26.1304C22.0387 26.5466 21.7575 26.9764 21.4943 27.4207L9.288 24.1504L8.70525 26.3239L20.4424 29.4683C20.1701 30.1129 19.953 30.7834 19.7617 31.4662L12.1151 33.5149L12.6979 35.6884L19.2668 33.9289C19.1824 34.6084 19.125 35.2969 19.125 36C19.125 37.5604 19.3545 39.0645 19.7528 40.5H14.625C12.7642 40.5 11.25 42.0143 11.25 43.875V48.4324C5.57325 48.9982 1.125 53.8009 1.125 59.625C1.125 65.8282 6.17175 70.875 12.375 70.875C18.5783 70.875 23.625 65.8282 23.625 59.625C23.625 53.8009 19.1768 48.9982 13.5 48.4324V43.875C13.5 43.2551 14.004 42.75 14.625 42.75H20.5436C23.1536 48.7024 29.0947 52.875 36 52.875C37.2892 52.875 38.5403 52.7164 39.7474 52.4408L38.5099 57.0566L40.6834 57.6394L42.2899 51.6465C43.2349 51.2651 44.1349 50.7971 44.9865 50.2583L47.862 60.9896L50.0355 60.4069L46.9327 48.8295C47.3917 48.438 47.826 48.0184 48.2411 47.5807L63.9405 63.2812L65.5312 61.6905L49.6811 45.8404C49.9849 45.4196 50.2673 44.9843 50.5316 44.5354L62.712 47.799L63.2948 45.6255L51.5756 42.4856C51.8468 41.8376 52.0639 41.1649 52.2529 40.4797L59.886 38.4345L59.3032 36.261L52.7422 38.0194C52.8221 37.3556 52.875 36.6851 52.875 36C52.875 34.4396 52.6455 32.9355 52.2473 31.5H57.375C59.2357 31.5 60.75 29.9858 60.75 28.125ZM56.25 11.25C56.25 9.38925 57.7643 7.875 59.625 7.875C61.4857 7.875 63 9.38925 63 11.25C63 13.1108 61.4857 14.625 59.625 14.625C57.7643 14.625 56.25 13.1108 56.25 11.25ZM59.625 21.375C57.6011 21.375 55.7381 20.6955 54.234 19.5637C55.4996 17.8864 57.4909 16.875 59.625 16.875C61.7591 16.875 63.7504 17.8864 65.016 19.5649C63.5119 20.6955 61.6489 21.375 59.625 21.375ZM50.625 12.375C50.625 7.41263 54.6626 3.375 59.625 3.375C64.5874 3.375 68.625 7.41263 68.625 12.375C68.625 14.5046 67.8769 16.4621 66.636 18.0056C65.745 16.8964 64.6155 16.0223 63.3386 15.4429C64.5019 14.4101 65.25 12.9229 65.25 11.25C65.25 8.14838 62.7266 5.625 59.625 5.625C56.5234 5.625 54 8.14838 54 11.25C54 12.9229 54.7481 14.4101 55.9114 15.4417C54.6345 16.0223 53.505 16.8964 52.614 18.0045C51.372 16.4621 50.625 14.5046 50.625 12.375ZM6.984 66.8138C8.24963 65.1364 10.2409 64.125 12.375 64.125C14.5091 64.125 16.5004 65.1364 17.766 66.8149C16.2619 67.9455 14.3989 68.625 12.375 68.625C10.3511 68.625 8.48813 67.9455 6.984 66.8138ZM9 58.5C9 56.6393 10.5142 55.125 12.375 55.125C14.2358 55.125 15.75 56.6393 15.75 58.5C15.75 60.3607 14.2358 61.875 12.375 61.875C10.5142 61.875 9 60.3607 9 58.5ZM21.375 59.625C21.375 61.7546 20.6269 63.7121 19.386 65.2556C18.495 64.1464 17.3655 63.2723 16.0886 62.6929C17.2519 61.6601 18 60.1729 18 58.5C18 55.3984 15.4766 52.875 12.375 52.875C9.27337 52.875 6.75 55.3984 6.75 58.5C6.75 60.1729 7.49812 61.6601 8.66138 62.6918C7.3845 63.2723 6.255 64.1464 5.364 65.2545C4.122 63.7121 3.375 61.7546 3.375 59.625C3.375 54.6626 7.41263 50.625 12.375 50.625C17.3374 50.625 21.375 54.6626 21.375 59.625ZM36 21.375C44.064 21.375 50.625 27.936 50.625 36C50.625 39.3851 49.4584 42.4969 47.52 44.9786C46.2476 41.7442 43.6567 39.2186 40.4707 37.9755C42.525 36.5524 43.875 34.182 43.875 31.5C43.875 27.1575 40.3414 23.625 36 23.625C31.6586 23.625 28.125 27.1575 28.125 31.5C28.125 34.182 29.475 36.5524 31.5292 37.9755C28.3432 39.2186 25.7524 41.7442 24.48 44.9786C22.5416 42.4969 21.375 39.3851 21.375 36C21.375 27.936 27.936 21.375 36 21.375ZM30.375 31.5C30.375 28.3984 32.8984 25.875 36 25.875C39.1016 25.875 41.625 28.3984 41.625 31.5C41.625 34.6016 39.1016 37.125 36 37.125C32.8984 37.125 30.375 34.6016 30.375 31.5ZM26.2327 46.854C27.4129 42.4867 31.4201 39.375 36 39.375C40.5799 39.375 44.5871 42.4867 45.7673 46.854C43.1753 49.1895 39.7564 50.625 36 50.625C32.2436 50.625 28.8248 49.1895 26.2327 46.854Z" fill="#44545F"/>
<path d="M5.625 11.1993C3.76425 11.1993 2.25 9.68509 2.25 7.82434C2.25 5.96359 3.76425 4.44934 5.625 4.44934C7.48575 4.44934 9 5.96359 9 7.82434C9 9.68509 7.48575 11.1993 5.625 11.1993Z" fill="#FFD200"/>
<path d="M6.80176 28.125C4.94101 28.125 3.42676 26.6108 3.42676 24.75C3.42676 22.8892 4.94101 21.375 6.80176 21.375C8.66251 21.375 10.1768 22.8892 10.1768 24.75C10.1768 26.6108 8.66251 28.125 6.80176 28.125Z" fill="#FFD200"/>
<path d="M32.6768 15.75C30.816 15.75 29.3018 14.2358 29.3018 12.375C29.3018 10.5142 30.816 9 32.6768 9C34.5375 9 36.0518 10.5142 36.0518 12.375C36.0518 14.2358 34.5375 15.75 32.6768 15.75Z" fill="#FFD200"/>
<path d="M22.5518 12.375C20.691 12.375 19.1768 10.8608 19.1768 9C19.1768 7.13925 20.691 5.625 22.5518 5.625C24.4125 5.625 25.9268 7.13925 25.9268 9C25.9268 10.8608 24.4125 12.375 22.5518 12.375Z" fill="#FFD200"/>
<path d="M10.1768 38.25C8.31601 38.25 6.80176 36.7358 6.80176 34.875C6.80176 33.0142 8.31601 31.5 10.1768 31.5C12.0375 31.5 13.5518 33.0142 13.5518 34.875C13.5518 36.7358 12.0375 38.25 10.1768 38.25Z" fill="#FFD200"/>
<path d="M66.375 67.5C64.5142 67.5 63 65.9858 63 64.125C63 62.2642 64.5142 60.75 66.375 60.75C68.2358 60.75 69.75 62.2642 69.75 64.125C69.75 65.9858 68.2358 67.5 66.375 67.5Z" fill="#FFD200"/>
<path d="M65.1981 50.5743C63.3374 50.5743 61.8231 49.0601 61.8231 47.1993C61.8231 45.3386 63.3374 43.8243 65.1981 43.8243C67.0589 43.8243 68.5731 45.3386 68.5731 47.1993C68.5731 49.0601 67.0589 50.5743 65.1981 50.5743Z" fill="#FFD200"/>
<path d="M39.3232 62.9493C37.4625 62.9493 35.9482 61.4351 35.9482 59.5743C35.9482 57.7136 37.4625 56.1993 39.3232 56.1993C41.184 56.1993 42.6982 57.7136 42.6982 59.5743C42.6982 61.4351 41.184 62.9493 39.3232 62.9493Z" fill="#FFD200"/>
<path d="M49.4481 66.3243C47.5874 66.3243 46.0731 64.8101 46.0731 62.9493C46.0731 61.0886 47.5874 59.5743 49.4481 59.5743C51.3089 59.5743 52.8231 61.0886 52.8231 62.9493C52.8231 64.8101 51.3089 66.3243 49.4481 66.3243Z" fill="#FFD200"/>
<path d="M61.8231 40.4494C59.9624 40.4494 58.4481 38.9351 58.4481 37.0743C58.4481 35.2136 59.9624 33.6993 61.8231 33.6993C63.6839 33.6993 65.1981 35.2136 65.1981 37.0743C65.1981 38.9351 63.6839 40.4494 61.8231 40.4494Z" fill="#FFD200"/>
</svg>
