<svg width="72" height="72" viewBox="0 0 72 72" fill="none" xmlns="http://www.w3.org/2000/svg">
<path d="M23.8028 46.3871C26.0618 47.1128 28.3624 47.6404 30.6495 47.9722C31.1872 47.2241 31.5 46.3162 31.5 45.3544V43.9493C25.9841 40.3695 22.5 34.191 22.5 27.3949V19.125H23.625L23.8185 19.3185C25.8559 21.3559 28.6189 22.5 31.5 22.5V19.125L31.6935 19.3185C33.7309 21.3559 36.4939 22.5 39.375 22.5V19.125L39.5685 19.3185C41.6059 21.3559 44.3689 22.5 47.25 22.5H49.5V27.3949C49.5 34.191 46.0159 40.3695 40.5 43.9493V45.3544C40.5 46.3162 40.8127 47.2241 41.3505 47.9734C43.6376 47.6426 45.9382 47.115 48.1972 46.3883C52.3406 45.054 55.125 41.1919 55.125 36.7796V20.25C55.125 9.70425 46.5457 1.125 36 1.125C25.4543 1.125 16.875 9.70425 16.875 20.25V36.7796C16.875 41.1919 19.6594 45.054 23.8028 46.3871Z" fill="#FFD200"/>
<path d="M55.2634 53.1989L43.722 48.4773C42.4474 47.9564 41.625 46.7302 41.625 45.3532V44.5454C47.1611 40.7193 50.625 34.3765 50.625 27.3948V21.3749H47.25C44.649 21.3749 42.2033 20.3624 40.3639 18.5219L38.25 16.4148V21.3119C36.0731 21.0633 34.0594 20.0947 32.4878 18.5219L30.375 16.4148V21.3119C28.1981 21.0633 26.1844 20.0947 24.6128 18.5219L24.0896 17.9999H21.375V27.3948C21.375 34.3765 24.8389 40.7204 30.375 44.5454V45.3532C30.375 46.7302 29.5526 47.9553 28.278 48.4762L16.7366 53.1978C9.98662 55.9597 5.625 62.4577 5.625 69.7499V70.8749H66.375V69.7499C66.375 62.4577 62.0134 55.9597 55.2634 53.1989ZM23.625 27.3948V20.6763C25.8075 22.5843 28.5728 23.6249 31.5 23.6249H32.625V21.5482C34.5994 22.8982 36.9304 23.6249 39.375 23.6249H40.5V21.5482C42.4744 22.8982 44.8054 23.6249 47.25 23.6249H48.375V27.3948C48.375 35.2957 43.4183 42.2977 36 44.9347C28.5818 42.2977 23.625 35.2957 23.625 27.3948ZM35.6445 47.1914L36 47.3107L36.3555 47.1926C37.4209 46.837 38.4424 46.4028 39.4144 45.8965C39.5066 46.8607 39.8317 47.7663 40.3616 48.5392C39.2996 49.8554 37.719 50.6249 36 50.6249C34.281 50.6249 32.7004 49.8554 31.6372 48.5369C32.1671 47.7652 32.4923 46.8595 32.5845 45.8943C33.5565 46.4017 34.5791 46.8371 35.6445 47.1914ZM29.1307 50.5597C29.4446 50.4314 29.736 50.2694 30.0161 50.0928C31.4989 51.8489 33.6532 52.8749 36 52.8749C38.3467 52.8749 40.5011 51.8489 41.985 50.0928C42.264 50.2694 42.5554 50.4314 42.8704 50.5597L46.7854 52.1617C45.3218 54.7616 42.9491 56.7798 40.1254 57.7799L39.375 58.0454V68.6249H32.625V58.0454L31.8757 57.7811C29.0509 56.7798 26.6794 54.7627 25.2157 52.1628L29.1307 50.5597ZM17.5894 55.2824L23.1255 53.0178C24.714 55.9709 27.2812 58.3188 30.375 59.6125V68.6249H19.125V61.8749H16.875V68.6249H7.91437C8.334 62.7131 12.0375 57.5527 17.5894 55.2824ZM55.125 68.6249V61.8749H52.875V68.6249H41.625V59.6114C44.7188 58.3188 47.286 55.9698 48.8745 53.0167L54.4106 55.2813C59.9625 57.5527 63.666 62.7119 64.0856 68.6238H55.125V68.6249Z" fill="#44545F"/>
<path d="M29.25 28.125C29.8713 28.125 30.375 27.6213 30.375 27C30.375 26.3787 29.8713 25.875 29.25 25.875C28.6287 25.875 28.125 26.3787 28.125 27C28.125 27.6213 28.6287 28.125 29.25 28.125Z" fill="#44545F"/>
<path d="M42.75 28.125C43.3713 28.125 43.875 27.6213 43.875 27C43.875 26.3787 43.3713 25.875 42.75 25.875C42.1287 25.875 41.625 26.3787 41.625 27C41.625 27.6213 42.1287 28.125 42.75 28.125Z" fill="#44545F"/>
<path d="M40.5 36H38.25C38.25 37.2409 37.2409 38.25 36 38.25C34.7591 38.25 33.75 37.2409 33.75 36H31.5C31.5 38.4818 33.5182 40.5 36 40.5C38.4818 40.5 40.5 38.4818 40.5 36Z" fill="#44545F"/>
<path d="M34.875 64.125H37.125V66.375H34.875V64.125Z" fill="#44545F"/>
<path d="M34.875 59.625H37.125V61.875H34.875V59.625Z" fill="#44545F"/>
<path d="M34.875 55.125H37.125V57.375H34.875V55.125Z" fill="#44545F"/>
<path d="M36 7.875V5.625C31.8454 5.625 27.8719 7.4025 25.0999 10.4996L26.7761 12.0004C29.1229 9.378 32.4844 7.875 36 7.875Z" fill="#44545F"/>
<path d="M25.2799 14.0626L23.3336 12.9353C22.8859 13.7093 22.5067 14.5306 22.2086 15.3743L24.3292 16.1247C24.5812 15.4114 24.9007 14.7184 25.2799 14.0626Z" fill="#44545F"/>
</svg>
