<svg width="72" height="72" viewBox="0 0 72 72" fill="none" xmlns="http://www.w3.org/2000/svg">
<path d="M16.3766 15.6048L15.1245 13.7362C14.0973 14.4236 13.1242 15.2077 12.231 16.0627L13.7868 17.6872C14.5856 16.9211 15.4575 16.2202 16.3766 15.6048Z" fill="#44545F"/>
<path d="M16.3103 12.9949L17.4398 14.9412C22.2312 12.1613 28.2544 11.6427 33.3743 13.4573L34.1258 11.3367C28.3917 9.30495 21.6676 9.88995 16.3103 12.9949Z" fill="#44545F"/>
<path d="M6.32812 20.0891C11.0014 21.7609 13.1119 25.4059 15.3383 29.2511C17.6805 33.2966 20.1026 37.4805 25.5803 39.42L26.3318 37.2994C21.6349 35.6355 19.5233 31.9871 17.2868 28.1239C15.012 24.1954 12.6562 20.151 7.53188 18.1462C11.7934 11.9497 18.927 7.875 27 7.875C30.852 7.875 34.6748 8.82225 38.0542 10.6155L39.1095 8.62763C35.406 6.66338 31.2176 5.625 27 5.625C12.7316 5.625 1.125 17.2327 1.125 31.5V44.6861L4.57088 45.8348L5.72287 58.5H14.625V70.875H16.875V58.4336C21.9296 57.8723 25.875 53.5781 25.875 48.375V47.25H23.625V48.375C23.625 52.7164 20.0914 56.25 15.75 56.25H7.77713L6.67912 44.1652L3.375 43.0639V31.5C3.375 27.3622 4.45163 23.4743 6.32812 20.0891Z" fill="#44545F"/>
<path d="M50.5901 35.9359C50.3617 40.1187 49.0421 44.0787 46.8303 47.4897L39.8801 40.5394L38.2893 42.1302L45.5017 49.3425C44.6512 50.4102 43.7017 51.4069 42.6644 52.3238L35.3801 45.0394L33.7893 46.6302L40.9049 53.7458C40.9016 53.748 40.8993 53.7503 40.8959 53.7525L38.2499 55.6774V70.875H40.4999V56.8227L42.2178 55.5728C48.5392 50.976 52.4103 43.8638 52.8356 36.0597L50.5901 35.9359Z" fill="#44545F"/>
<path d="M33.75 64.125H36V66.375H33.75V64.125Z" fill="#44545F"/>
<path d="M33.75 59.625H36V61.875H33.75V59.625Z" fill="#44545F"/>
<path d="M57.1286 37.125H48.6214L47.8519 34.0459C47.1679 33.8164 46.5052 33.5441 45.8707 33.2303L43.1539 34.8604L37.1396 28.845L38.7686 26.1281C38.4547 25.4948 38.1825 24.8321 37.953 24.147L34.875 23.3786V14.8714L37.9541 14.1019C38.1825 13.4179 38.4548 12.7552 38.7698 12.1208L37.1407 9.40388L43.155 3.3885L45.8719 5.01863C46.5053 4.70475 47.1679 4.4325 47.853 4.203L48.6214 1.125H57.1286L57.8981 4.20412C58.5821 4.43362 59.2448 4.70587 59.8793 5.01975L62.5961 3.38963L68.6104 9.405L66.9814 12.1219C67.2952 12.7552 67.5675 13.4179 67.797 14.103L70.875 14.8714V23.3786L67.7959 24.1481C67.5675 24.8321 67.2952 25.4947 66.9802 26.1292L68.6092 28.8461L62.595 34.8615L59.8781 33.2314C59.2447 33.5452 58.5821 33.8175 57.897 34.047L57.1286 37.125Z" fill="#FFD200"/>
<path d="M32.625 47.25C28.2836 47.25 24.75 43.7164 24.75 39.375C24.75 35.0325 28.2836 31.5 32.625 31.5C36.9664 31.5 40.5 35.0325 40.5 39.375C40.5 43.7164 36.9664 47.25 32.625 47.25ZM32.625 37.125C31.3841 37.125 30.375 38.1341 30.375 39.375C30.375 40.6159 31.3841 41.625 32.625 41.625C33.8659 41.625 34.875 40.6159 34.875 39.375C34.875 38.1341 33.8659 37.125 32.625 37.125Z" fill="#FFD200"/>
<path d="M32.625 42.75C30.7642 42.75 29.25 41.2358 29.25 39.375C29.25 37.5142 30.7642 36 32.625 36C34.4858 36 36 37.5142 36 39.375C36 41.2358 34.4858 42.75 32.625 42.75ZM32.625 38.25C32.004 38.25 31.5 38.754 31.5 39.375C31.5 39.996 32.004 40.5 32.625 40.5C33.246 40.5 33.75 39.996 33.75 39.375C33.75 38.754 33.246 38.25 32.625 38.25Z" fill="#44545F"/>
<path d="M52.875 30.375C46.6718 30.375 41.625 25.3283 41.625 19.125C41.625 12.9218 46.6718 7.875 52.875 7.875C59.0783 7.875 64.125 12.9218 64.125 19.125C64.125 25.3283 59.0783 30.375 52.875 30.375ZM52.875 10.125C47.9126 10.125 43.875 14.1626 43.875 19.125C43.875 24.0874 47.9126 28.125 52.875 28.125C57.8374 28.125 61.875 24.0874 61.875 19.125C61.875 14.1626 57.8374 10.125 52.875 10.125Z" fill="#44545F"/>
<path d="M52.875 25.875C49.1524 25.875 46.125 22.8476 46.125 19.125C46.125 15.4024 49.1524 12.375 52.875 12.375C56.5976 12.375 59.625 15.4024 59.625 19.125C59.625 22.8476 56.5976 25.875 52.875 25.875ZM52.875 14.625C50.3932 14.625 48.375 16.6432 48.375 19.125C48.375 21.6068 50.3932 23.625 52.875 23.625C55.3568 23.625 57.375 21.6068 57.375 19.125C57.375 16.6432 55.3568 14.625 52.875 14.625Z" fill="#44545F"/>
</svg>
