<svg width="72" height="72" viewBox="0 0 72 72" fill="none" xmlns="http://www.w3.org/2000/svg">
<path d="M65.25 35.6861V22.8139L60.5464 21.2456C60.2156 20.2849 59.8117 19.3174 59.3381 18.3611L61.5634 13.9129L52.4621 4.81163L48.0139 7.03688C47.0565 6.56325 46.0901 6.15938 45.1294 5.82863L43.5611 1.125H30.6889L29.1206 5.82863C28.1599 6.15938 27.1924 6.56325 26.2361 7.03688L21.7879 4.81163L12.6866 13.9129L14.9119 18.3611C14.4383 19.3185 14.0344 20.2849 13.7036 21.2456L9 22.8139V35.685L13.7036 37.2533C14.0321 38.2072 14.4315 39.1646 14.8984 40.1141L12.834 43.875H13.5V46.125H25.875L26.9831 45.0169L26.2733 45C21.2749 41.5496 18 35.7829 18 29.25C18 18.6874 26.5624 10.125 37.125 10.125C47.6876 10.125 56.25 18.6874 56.25 29.25C56.25 36.0945 52.6545 42.0986 47.25 45.4781L46.593 45.4635C46.1857 45.8719 45.6221 46.125 45 46.125H49.5011C50.7443 46.125 51.7511 47.1319 51.7511 48.375C51.7511 49.6181 50.7443 50.625 49.5011 50.625C50.7443 50.625 51.7511 51.6319 51.7511 52.875C51.7511 53.1585 51.6926 53.4263 51.597 53.676L52.5476 53.667L61.5611 44.5826L59.3381 40.1389C59.8106 39.1815 60.2145 38.2151 60.5452 37.2544L65.25 35.6861Z" fill="#FFD200"/>
<path d="M67.5 64.125C65.6392 64.125 64.125 65.6392 64.125 67.5C64.125 69.3608 65.6392 70.875 67.5 70.875C69.3608 70.875 70.875 69.3608 70.875 67.5C70.875 65.6392 69.3608 64.125 67.5 64.125ZM67.5 68.625C66.8801 68.625 66.375 68.121 66.375 67.5C66.375 66.879 66.8801 66.375 67.5 66.375C68.1199 66.375 68.625 66.879 68.625 67.5C68.625 68.121 68.1199 68.625 67.5 68.625Z" fill="#44545F"/>
<path d="M7.875 3.375C7.875 1.51425 6.36075 0 4.5 0C2.63925 0 1.125 1.51425 1.125 3.375C1.125 5.23575 2.63925 6.75 4.5 6.75C6.36075 6.75 7.875 5.23575 7.875 3.375ZM3.375 3.375C3.375 2.75513 3.88013 2.25 4.5 2.25C5.11987 2.25 5.625 2.75513 5.625 3.375C5.625 3.99487 5.11987 4.5 4.5 4.5C3.88013 4.5 3.375 3.99487 3.375 3.375Z" fill="#44545F"/>
<path d="M57.375 29.25C57.375 18.0844 48.2906 9 37.125 9C25.9594 9 16.875 18.0844 16.875 29.25C16.875 35.3914 19.6672 41.1683 24.4069 45H14.625V42.75H6.75V65.25H14.625V61.875H23.1593L26.5343 65.25H32.625V66.375C32.625 68.8568 34.6432 70.875 37.125 70.875C39.6068 70.875 41.625 68.8568 41.625 66.375V65.25H49.5011C51.3619 65.25 52.8761 63.7357 52.8761 61.875C52.8761 61.0076 52.5375 60.2235 51.9986 59.625C52.5386 59.0265 52.8761 58.2424 52.8761 57.375C52.8761 56.5076 52.5375 55.7235 51.9986 55.125C52.5386 54.5265 52.8761 53.7424 52.8761 52.875C52.8761 52.0076 52.5375 51.2235 51.9986 50.625C52.5386 50.0265 52.8761 49.2424 52.8761 48.375C52.8761 46.62 51.525 45.1912 49.8116 45.0315C54.5839 41.2065 57.375 35.4667 57.375 29.25ZM12.375 63H9V45H12.375V63ZM27.4657 63L24.0907 59.625H14.625V47.25H26.3407L30.8407 42.75H45C45.6199 42.75 46.125 43.254 46.125 43.875C46.125 44.496 45.6199 45 45 45H40.5H33.2843L28.4546 49.8296L30.0454 51.4204L32.625 48.8408V63H27.4657ZM44.5342 40.5H41.625V35.3407L46.125 30.8407V24.75C46.125 22.2682 44.1068 20.25 41.625 20.25H39.375V26.5343L38.9092 27H35.3407L34.875 26.5343V20.25H32.625C30.1432 20.25 28.125 22.2682 28.125 24.75V30.8407L32.625 35.3407V40.5H29.9093L29.8384 40.5709C25.9976 38.0925 23.625 33.8434 23.625 29.25C23.625 21.8059 29.6809 15.75 37.125 15.75C44.5691 15.75 50.625 21.8059 50.625 29.25C50.625 33.8096 48.3469 37.9856 44.5342 40.5ZM34.4093 29.25H39.8408L41.625 27.4657V22.5C42.8659 22.5 43.875 23.5091 43.875 24.75V29.9093L40.0342 33.75H34.2157L30.375 29.9093V24.75C30.375 23.5091 31.3841 22.5 32.625 22.5V27.4657L34.4093 29.25ZM34.875 36H39.375V40.5H34.875V36ZM50.6261 52.875C50.6261 53.496 50.121 54 49.5011 54H40.5C39.8801 54 39.375 53.496 39.375 52.875C39.375 52.254 39.8801 51.75 40.5 51.75H49.5011C50.121 51.75 50.6261 52.254 50.6261 52.875ZM50.6261 57.375C50.6261 57.996 50.121 58.5 49.5011 58.5H40.5C39.8801 58.5 39.375 57.996 39.375 57.375C39.375 56.754 39.8801 56.25 40.5 56.25H49.5011C50.121 56.25 50.6261 56.754 50.6261 57.375ZM37.125 68.625C35.8841 68.625 34.875 67.6159 34.875 66.375V47.25H37.332C37.206 47.6032 37.125 47.979 37.125 48.375C37.125 49.2424 37.4636 50.0265 38.0025 50.625C37.4625 51.2235 37.125 52.0076 37.125 52.875C37.125 53.7424 37.4636 54.5265 38.0025 55.125C37.4625 55.7235 37.125 56.5076 37.125 57.375C37.125 58.2424 37.4636 59.0265 38.0025 59.625C37.4625 60.2235 37.125 61.0076 37.125 61.875C37.125 63.3397 38.0689 64.5773 39.375 65.043V66.375C39.375 67.6159 38.3659 68.625 37.125 68.625ZM49.5011 63H40.5C39.8801 63 39.375 62.496 39.375 61.875C39.375 61.254 39.8801 60.75 40.5 60.75H49.5011C50.121 60.75 50.6261 61.254 50.6261 61.875C50.6261 62.496 50.121 63 49.5011 63ZM50.6261 48.375C50.6261 48.996 50.121 49.5 49.5011 49.5H40.5C39.8801 49.5 39.375 48.996 39.375 48.375C39.375 47.754 39.8801 47.25 40.5 47.25H45H49.5011C50.121 47.25 50.6261 47.754 50.6261 48.375ZM48.321 43.3406C48.1927 42.543 47.7855 41.8455 47.2005 41.3381C50.7859 38.3614 52.875 33.9784 52.875 29.25C52.875 20.565 45.81 13.5 37.125 13.5C28.44 13.5 21.375 20.565 21.375 29.25C21.375 34.4464 23.9602 39.285 28.2004 42.2089L26.5804 43.8289C21.9083 40.4449 19.125 35.0291 19.125 29.25C19.125 19.3253 27.2003 11.25 37.125 11.25C47.0498 11.25 55.125 19.3253 55.125 29.25C55.125 34.8097 52.6117 39.9398 48.321 43.3406Z" fill="#44545F"/>
<path d="M5.625 10.125H3.375V12.375H5.625V10.125Z" fill="#44545F"/>
<path d="M5.625 15.75H3.375V18H5.625V15.75Z" fill="#44545F"/>
<path d="M5.625 21.375H3.375V23.625H5.625V21.375Z" fill="#44545F"/>
<path d="M68.625 47.25H66.375V49.5H68.625V47.25Z" fill="#44545F"/>
<path d="M68.625 52.875H66.375V55.125H68.625V52.875Z" fill="#44545F"/>
<path d="M68.625 58.5H66.375V60.75H68.625V58.5Z" fill="#44545F"/>
</svg>
