<svg width="72" height="72" viewBox="0 0 72 72" fill="none" xmlns="http://www.w3.org/2000/svg">
<path d="M55.4248 39.1345L53.7822 37.4919C54.6105 36.6636 54.6105 35.3161 53.7822 34.4879C52.9796 33.6853 51.581 33.6853 50.7782 34.4879L49.1356 32.8453L50.2971 31.6837C51.1254 30.8555 51.1254 29.508 50.2971 28.6797C49.4945 27.8771 48.0959 27.8771 47.2931 28.6797L46.1316 29.8412L44.4889 28.1986L46.8123 25.8753C47.6405 25.0471 47.6405 23.6996 46.8123 22.8713C45.984 22.043 44.6365 22.043 43.8082 22.8713L41.4849 25.1946L39.8423 23.552L41.0038 22.3905C41.4057 21.9886 41.6253 21.4554 41.6253 20.8885C41.6253 20.3215 41.4057 19.7883 41.0038 19.3864C40.1756 18.5582 38.8281 18.5582 37.9998 19.3864L36.8383 20.548L35.1957 18.9054L36.3572 17.7438C38.0903 16.0108 40.9132 16.0108 42.6462 17.7438C43.3281 18.4257 43.7403 19.2749 43.8867 20.16C45.4362 19.6408 47.2204 19.9952 48.4542 21.2287C49.6877 22.4622 50.0433 24.2454 49.5228 25.7961C50.408 25.9425 51.2571 26.3549 51.939 27.0366C53.1725 28.2701 53.5281 30.0533 53.0077 31.6041C53.8928 31.7504 54.742 32.1629 55.4239 32.8445C57.1591 34.5786 57.1591 37.4014 55.4248 39.1345Z" fill="#44545F"/>
<path d="M37.5201 52.5929L34.1934 55.9187L26.0909 59.3918L14.332 69.974L15.8863 71.7001L19.8357 68.1456C20.3074 68.3837 20.7765 68.6289 21.2518 68.8415L22.202 66.7226C22.0324 66.6458 21.8639 66.5529 21.6943 66.4728L27.3582 61.3746L35.5185 57.8782L39.1613 54.2343L37.5201 52.5929Z" fill="#44545F"/>
<path d="M29.9137 12.2772L12.3049 29.8859L16.3532 33.9342L20.3328 30.0858L20.3467 30.0719C21.3016 29.1169 22.8557 29.1169 23.8107 30.0719C24.6332 30.8944 24.762 32.1941 24.1173 33.1618L20.7023 38.2821L42.1234 59.7032L59.7322 42.0945L29.9137 12.2772ZM40.2449 40.2172C37.9113 42.5508 34.1268 42.5508 31.7919 40.2172C29.4583 37.8835 29.4583 34.099 31.7919 31.7642C34.1256 29.4305 37.9101 29.4305 40.2449 31.7642C42.5786 34.0978 42.5786 37.8823 40.2449 40.2172Z" fill="#FFD200"/>
<path d="M36.0193 43.1293C34.1121 43.1293 32.3185 42.3859 30.971 41.0372C29.6224 39.6898 28.879 37.8962 28.879 35.9902C28.879 34.0817 29.6224 32.2894 30.971 30.9419C32.3185 29.5932 34.1109 28.8499 36.0193 28.8499C37.9266 28.8499 39.7192 29.5932 41.0664 30.9419C42.4151 32.2894 43.1584 34.0817 43.1584 35.9902C43.1584 37.8974 42.4151 39.6898 41.0664 41.0372C39.7189 42.3869 37.9266 43.1293 36.0193 43.1293ZM36.0193 31.1741C34.7335 31.1741 33.5242 31.6758 32.6134 32.5854C31.7026 33.495 31.2021 34.7041 31.2021 35.9914C31.2021 37.276 31.7038 38.4853 32.6134 39.3961C33.523 40.3057 34.7323 40.8074 36.0193 40.8074C37.304 40.8074 38.5132 40.3057 39.424 39.3961C40.3348 38.4865 40.8354 37.2772 40.8354 35.9914C40.8354 34.7055 40.3336 33.4962 39.424 32.5854C38.5144 31.6746 37.304 31.1741 36.0193 31.1741Z" fill="#44545F"/>
<path d="M18.789 41.1533L20.722 42.4416L26.0503 34.4497C27.3071 32.5633 27.0563 30.031 25.4533 28.428C23.5923 26.567 20.5641 26.567 18.7031 28.428L11.715 35.4162L9.39164 47.0323L5.72323 50.7028C5.62438 50.4996 5.51305 50.3022 5.41899 50.0977L3.30946 51.0712C3.52204 51.5299 3.76126 51.9796 3.99472 52.4314L0.348389 56.0777L1.991 57.7203L11.5324 48.1789L13.8557 36.5628L20.3467 30.0716C21.3017 29.1166 22.8557 29.1166 23.8107 30.0716C24.6332 30.8941 24.762 32.1938 24.1173 33.1615L18.789 41.1533Z" fill="#44545F"/>
<path d="M4.75343 23.424L2.59855 22.5573C1.99222 24.0663 1.48332 25.6309 1.08838 27.2049L3.34067 27.7695C3.71138 26.2965 4.18645 24.8341 4.75343 23.424Z" fill="#44545F"/>
<path d="M9.27314 15.505L7.4309 14.0892C6.44116 15.3762 5.53155 16.7458 4.72656 18.1583L6.743 19.3083C7.49712 17.9898 8.34842 16.7086 9.27314 15.505Z" fill="#44545F"/>
<path d="M0.466797 41.7494C0.72353 43.3512 1.09399 44.953 1.56907 46.5085L3.79017 45.8302C3.34653 44.376 3.0003 42.8797 2.75988 41.3825L0.466797 41.7494Z" fill="#44545F"/>
<path d="M2.33125 35.9902C2.33125 34.7461 2.40084 33.4927 2.53568 32.2637L0.226522 32.0094C0.0813597 33.3221 0.00817871 34.6602 0.00817871 35.9948C0.0093784 36.2944 0.0127375 36.5908 0.0196957 36.8869L2.34301 36.8321C2.33605 36.5512 2.33245 36.2688 2.33125 35.9902Z" fill="#44545F"/>
<path d="M65.9724 16C65.0697 14.6501 64.0661 13.3504 62.9928 12.1353L61.2528 13.6733C62.2589 14.8106 63.1973 16.0278 64.0418 17.2906L65.9724 16Z" fill="#44545F"/>
<path d="M15.7458 9.08264L14.346 7.22864C13.052 8.20566 11.8101 9.28226 10.6567 10.4253L12.2924 12.0749C13.3726 11.0038 14.5341 9.998 15.7458 9.08264Z" fill="#44545F"/>
<path d="M69.6709 34.4473L71.9919 34.3406C71.9187 32.7155 71.7327 31.0822 71.4424 29.491L69.1575 29.9056C69.4293 31.397 69.6011 32.9235 69.6709 34.4473Z" fill="#44545F"/>
<path d="M70.2389 24.7561C69.7324 23.2136 69.1155 21.6907 68.4048 20.2304L66.3152 21.2468C66.9808 22.6139 67.5581 24.037 68.0319 25.4798L70.2389 24.7561Z" fill="#44545F"/>
<path d="M23.692 4.6301L22.8417 2.46826C21.3327 3.06187 19.8494 3.76584 18.4321 4.56028L19.5694 6.58607C20.8925 5.84298 22.2807 5.18436 23.692 4.6301Z" fill="#44545F"/>
<path d="M37.111 2.32092C38.6326 2.36962 40.1613 2.52294 41.6563 2.77512L42.0419 0.483234C40.4449 0.214984 38.8104 0.0511067 37.1853 0L37.111 2.32092Z" fill="#44545F"/>
<path d="M53.0785 65.0454L54.2587 67.0469C55.6549 66.2244 57.0106 65.2975 58.2873 64.2915L56.8494 62.4677C55.6537 63.4073 54.3864 64.2752 53.0785 65.0454Z" fill="#44545F"/>
<path d="M54.3458 7.72117C55.6201 8.54823 56.8491 9.47175 58.0003 10.4649L59.5186 8.70395C58.2861 7.64343 56.9736 6.65609 55.6122 5.77216L54.3458 7.72117Z" fill="#44545F"/>
<path d="M46.0983 3.83685C47.5492 4.29105 48.9802 4.84987 50.3555 5.49674L51.3452 3.39536C49.8758 2.70194 48.3436 2.10594 46.7929 1.62054L46.0983 3.83685Z" fill="#44545F"/>
<path d="M65.6354 52.0527L67.6775 53.162C68.4534 51.7343 69.1387 50.2393 69.7126 48.7212L67.5393 47.8999C67.0025 49.3206 66.3626 50.718 65.6354 52.0527Z" fill="#44545F"/>
<path d="M68.8578 43.5254L71.1218 44.0422C71.4841 42.4613 71.7399 40.8386 71.8839 39.2192L69.5699 39.0124C69.4363 40.5283 69.1959 42.0467 68.8578 43.5254Z" fill="#44545F"/>
<path d="M60.2375 59.4034L61.908 61.0191C63.0359 59.854 64.0953 58.5996 65.0584 57.2869L63.1871 55.9116C62.283 57.1396 61.2921 58.3138 60.2375 59.4034Z" fill="#44545F"/>
<path d="M44.673 68.5545L45.2699 70.801C46.8394 70.3852 48.3934 69.8566 49.8919 69.2294L48.9962 67.0851C47.5957 67.6705 46.1414 68.1653 44.673 68.5545Z" fill="#44545F"/>
<path d="M25.9607 70.5758C27.5232 71.0276 29.1283 71.3763 30.7326 71.6143L31.0706 69.3154C29.5698 69.0947 28.0678 68.7672 26.6066 68.3432L25.9607 70.5758Z" fill="#44545F"/>
<path d="M27.4965 0.995526L28.0435 3.25262C29.5165 2.89607 31.03 2.63574 32.5459 2.48026L32.3079 0.168701C30.6874 0.335698 29.0692 0.614505 27.4965 0.995526Z" fill="#44545F"/>
<path d="M36.0181 69.6767L35.6232 69.6743L35.6023 71.9976L36.0181 72C37.5084 72 39.008 71.9084 40.4752 71.727L40.1894 69.4224C38.8175 69.5908 37.4143 69.6767 36.0181 69.6767Z" fill="#44545F"/>
</svg>
