<svg width="72" height="72" viewBox="0 0 72 72" fill="none" xmlns="http://www.w3.org/2000/svg">
<path d="M27 57.375C30.7279 57.375 33.75 54.3529 33.75 50.625C33.75 46.8971 30.7279 43.875 27 43.875C23.2721 43.875 20.25 46.8971 20.25 50.625C20.25 54.3529 23.2721 57.375 27 57.375Z" fill="#FFD200"/>
<path d="M46.125 23.625H39.375V5.625H46.125V23.625Z" fill="#FFD200"/>
<path d="M37.125 23.625H30.375V10.125H37.125V23.625Z" fill="#FFD200"/>
<path d="M28.125 23.625H21.375V14.625H28.125V23.625Z" fill="#FFD200"/>
<path d="M1.125 10.7843V55.125H16.6961C17.6614 57.3255 19.3118 59.1548 21.375 60.3529V70.4453L27 67.6328L32.625 70.4453V60.3529C34.6883 59.1548 36.3386 57.3255 37.3039 55.125H50.625V1.125H10.7843L1.125 10.7843ZM10.125 4.96575V10.125H4.96575L10.125 4.96575ZM30.375 66.8047L27 65.1172L23.625 66.8047V61.3564C24.6915 61.6916 25.8244 61.875 27 61.875C28.1756 61.875 29.3085 61.6916 30.375 61.3564V66.8047ZM27 59.625C22.0376 59.625 18 55.5874 18 50.625C18 45.6626 22.0376 41.625 27 41.625C31.9624 41.625 36 45.6626 36 50.625C36 55.5874 31.9624 59.625 27 59.625ZM48.375 52.875H38.0228C38.1712 52.1483 38.25 51.3956 38.25 50.625C38.25 44.4217 33.2033 39.375 27 39.375C20.7967 39.375 15.75 44.4217 15.75 50.625C15.75 51.3956 15.8287 52.1483 15.9772 52.875H3.375V12.375H12.375V3.375H48.375V52.875Z" fill="#44545F"/>
<path d="M25.5667 53.2259L23.2953 50.9546L21.7046 52.5453L26.1832 57.0239L32.5068 44.3778L30.4931 43.3721L25.5667 53.2259Z" fill="#44545F"/>
<path d="M7.875 25.875H5.625V28.125H7.875V25.875Z" fill="#44545F"/>
<path d="M28.125 25.875H10.125V28.125H28.125V25.875Z" fill="#44545F"/>
<path d="M7.875 30.375H5.625V32.625H7.875V30.375Z" fill="#44545F"/>
<path d="M28.125 30.375H10.125V32.625H28.125V30.375Z" fill="#44545F"/>
<path d="M7.875 34.875H5.625V37.125H7.875V34.875Z" fill="#44545F"/>
<path d="M28.125 34.875H10.125V37.125H28.125V34.875Z" fill="#44545F"/>
<path d="M60.75 17.8527L70.6534 11.25L60.75 4.6474V7.87503H57.375V10.125H63V8.85265L66.5966 11.25L63 13.6474V12.375H52.875V14.625H60.75V17.8527Z" fill="#44545F"/>
<path d="M55.125 7.875H52.875V10.125H55.125V7.875Z" fill="#44545F"/>
<path d="M60.75 24.75H52.875V27H63V25.7276L66.5966 28.125L63 30.5224V29.25H52.875V31.5H60.75V34.7276L70.6534 28.125L60.75 21.5224V24.75Z" fill="#44545F"/>
<path d="M60.75 41.625H52.875V43.875H63V42.6015L66.5966 45L63 47.3985V46.125H57.375V48.375H60.75V51.6015L70.6534 45L60.75 38.3985V41.625Z" fill="#44545F"/>
<path d="M55.125 46.125H52.875V48.375H55.125V46.125Z" fill="#44545F"/>
</svg>
