<svg width="938" height="326" viewBox="0 0 938 326" fill="none" xmlns="http://www.w3.org/2000/svg">
<rect width="938" height="326" fill="#F7F7F7"/>
<g filter="url(#filter0_d)">
<rect x="40" y="39" width="282" height="72" fill="white"/>
</g>
<path d="M144.832 80H143.67V71.0381H138.536V80H137.374V70.0059H144.832V80ZM152.023 80L151.798 78.9336H151.743C151.369 79.403 150.996 79.722 150.622 79.8906C150.253 80.0547 149.79 80.1367 149.234 80.1367C148.492 80.1367 147.908 79.9453 147.484 79.5625C147.065 79.1797 146.855 78.6351 146.855 77.9287C146.855 76.4157 148.065 75.6227 150.485 75.5498L151.757 75.5088V75.0439C151.757 74.4561 151.629 74.0231 151.374 73.7451C151.123 73.4626 150.72 73.3213 150.164 73.3213C149.54 73.3213 148.833 73.5127 148.045 73.8955L147.696 73.0273C148.065 72.8268 148.469 72.6696 148.906 72.5557C149.348 72.4417 149.79 72.3848 150.232 72.3848C151.126 72.3848 151.786 72.583 152.215 72.9795C152.648 73.376 152.864 74.0117 152.864 74.8867V80H152.023ZM149.46 79.2002C150.166 79.2002 150.72 79.0065 151.121 78.6191C151.527 78.2318 151.729 77.6895 151.729 76.9922V76.3154L150.595 76.3633C149.692 76.3952 149.041 76.5365 148.64 76.7871C148.243 77.0332 148.045 77.4183 148.045 77.9424C148.045 78.3525 148.168 78.6647 148.414 78.8789C148.665 79.0931 149.013 79.2002 149.46 79.2002ZM158.695 80.1367C158.208 80.1367 157.761 80.0479 157.355 79.8701C156.954 79.6878 156.617 79.4098 156.344 79.0361H156.262C156.316 79.4736 156.344 79.8883 156.344 80.2803V83.3633H155.209V72.5078H156.132L156.289 73.5332H156.344C156.635 73.123 156.975 72.8268 157.362 72.6445C157.75 72.4622 158.194 72.3711 158.695 72.3711C159.689 72.3711 160.454 72.7106 160.992 73.3896C161.535 74.0687 161.806 75.0212 161.806 76.2471C161.806 77.4775 161.53 78.4346 160.979 79.1182C160.432 79.7972 159.671 80.1367 158.695 80.1367ZM158.531 73.335C157.766 73.335 157.212 73.5469 156.87 73.9707C156.528 74.3945 156.353 75.069 156.344 75.9941V76.2471C156.344 77.2998 156.519 78.054 156.87 78.5098C157.221 78.9609 157.784 79.1865 158.559 79.1865C159.206 79.1865 159.712 78.9245 160.076 78.4004C160.445 77.8763 160.63 77.154 160.63 76.2334C160.63 75.2992 160.445 74.5837 160.076 74.0869C159.712 73.5856 159.197 73.335 158.531 73.335ZM168.402 80L168.177 78.9336H168.122C167.748 79.403 167.375 79.722 167.001 79.8906C166.632 80.0547 166.169 80.1367 165.613 80.1367C164.87 80.1367 164.287 79.9453 163.863 79.5625C163.444 79.1797 163.234 78.6351 163.234 77.9287C163.234 76.4157 164.444 75.6227 166.864 75.5498L168.136 75.5088V75.0439C168.136 74.4561 168.008 74.0231 167.753 73.7451C167.502 73.4626 167.099 73.3213 166.543 73.3213C165.919 73.3213 165.212 73.5127 164.424 73.8955L164.075 73.0273C164.444 72.8268 164.848 72.6696 165.285 72.5557C165.727 72.4417 166.169 72.3848 166.611 72.3848C167.505 72.3848 168.165 72.583 168.594 72.9795C169.027 73.376 169.243 74.0117 169.243 74.8867V80H168.402ZM165.839 79.2002C166.545 79.2002 167.099 79.0065 167.5 78.6191C167.906 78.2318 168.108 77.6895 168.108 76.9922V76.3154L166.974 76.3633C166.071 76.3952 165.42 76.5365 165.019 76.7871C164.622 77.0332 164.424 77.4183 164.424 77.9424C164.424 78.3525 164.547 78.6647 164.793 78.8789C165.044 79.0931 165.392 79.2002 165.839 79.2002ZM177.173 80H176.024V73.4785H173.775C173.652 75.1009 173.481 76.3883 173.263 77.3408C173.044 78.2933 172.759 78.9906 172.408 79.4326C172.062 79.8747 171.62 80.0957 171.082 80.0957C170.836 80.0957 170.64 80.0684 170.494 80.0137V79.1729C170.594 79.2002 170.708 79.2139 170.836 79.2139C171.36 79.2139 171.777 78.6602 172.087 77.5527C172.397 76.4453 172.632 74.7637 172.791 72.5078H177.173V80ZM185.171 80H184.022V73.4785H181.773C181.65 75.1009 181.479 76.3883 181.261 77.3408C181.042 78.2933 180.757 78.9906 180.406 79.4326C180.06 79.8747 179.618 80.0957 179.08 80.0957C178.834 80.0957 178.638 80.0684 178.492 80.0137V79.1729C178.592 79.2002 178.706 79.2139 178.834 79.2139C179.358 79.2139 179.775 78.6602 180.085 77.5527C180.395 76.4453 180.63 74.7637 180.789 72.5078H185.171V80ZM190.749 80.1367C189.642 80.1367 188.767 79.7995 188.124 79.125C187.486 78.4505 187.167 77.514 187.167 76.3154C187.167 75.1077 187.463 74.1484 188.056 73.4375C188.653 72.7266 189.452 72.3711 190.455 72.3711C191.394 72.3711 192.137 72.681 192.684 73.3008C193.23 73.916 193.504 74.7295 193.504 75.7412V76.459H188.343C188.366 77.3385 188.587 78.0062 189.006 78.4619C189.43 78.9176 190.024 79.1455 190.79 79.1455C191.597 79.1455 192.394 78.9769 193.183 78.6396V79.6514C192.782 79.8245 192.401 79.9476 192.041 80.0205C191.686 80.098 191.255 80.1367 190.749 80.1367ZM190.441 73.3213C189.84 73.3213 189.359 73.5173 188.999 73.9092C188.644 74.3011 188.434 74.8434 188.37 75.5361H192.287C192.287 74.8206 192.128 74.2738 191.809 73.8955C191.49 73.5127 191.034 73.3213 190.441 73.3213ZM201.03 80H199.882V73.4785H197.633C197.51 75.1009 197.339 76.3883 197.12 77.3408C196.901 78.2933 196.617 78.9906 196.266 79.4326C195.919 79.8747 195.477 80.0957 194.939 80.0957C194.693 80.0957 194.497 80.0684 194.352 80.0137V79.1729C194.452 79.2002 194.566 79.2139 194.693 79.2139C195.217 79.2139 195.634 78.6602 195.944 77.5527C196.254 76.4453 196.489 74.7637 196.648 72.5078H201.03V80ZM204.578 75.6045H206.889C208.803 75.6045 209.76 76.3086 209.76 77.7168C209.76 78.4551 209.509 79.0202 209.008 79.4121C208.511 79.804 207.782 80 206.82 80H203.443V72.5078H204.578V75.6045ZM204.578 76.582V79.0498H206.766C207.367 79.0498 207.827 78.945 208.146 78.7354C208.465 78.5257 208.625 78.209 208.625 77.7852C208.625 77.3704 208.477 77.0674 208.181 76.876C207.889 76.68 207.406 76.582 206.731 76.582H204.578ZM212.863 72.5078V75.6455H217.061V72.5078H218.195V80H217.061V76.623H212.863V80H211.729V72.5078H212.863ZM221.736 75.6045H223.78C224.733 75.6045 225.437 75.7822 225.893 76.1377C226.353 76.4886 226.583 77.015 226.583 77.7168C226.583 78.4688 226.339 79.0384 225.852 79.4258C225.368 79.8086 224.655 80 223.712 80H220.602V72.5078H221.736V75.6045ZM228.976 80H227.841V72.5078H228.976V80ZM221.736 76.582V79.0498H223.657C224.86 79.0498 225.462 78.6283 225.462 77.7852C225.462 77.3659 225.323 77.0605 225.045 76.8691C224.767 76.6777 224.293 76.582 223.623 76.582H221.736ZM232.455 72.5078V77.2588L232.407 78.5029L232.387 78.8926L236.44 72.5078H237.855V80H236.796V75.4199L236.816 74.5176L236.851 73.6289L232.804 80H231.389V72.5078H232.455ZM234.595 71.5166C233.752 71.5166 233.136 71.3548 232.749 71.0312C232.362 70.7031 232.145 70.1654 232.1 69.418H233.166C233.207 69.8919 233.33 70.2223 233.535 70.4092C233.745 70.596 234.107 70.6895 234.622 70.6895C235.091 70.6895 235.438 70.5892 235.661 70.3887C235.889 70.1882 236.028 69.8646 236.078 69.418H237.151C237.097 70.138 236.867 70.6689 236.461 71.0107C236.055 71.348 235.433 71.5166 234.595 71.5166ZM242.709 72.5078H243.926L245.566 76.7803C245.926 77.7555 246.15 78.4596 246.236 78.8926H246.291C246.35 78.6602 246.473 78.2637 246.66 77.7031C246.852 77.138 247.471 75.4062 248.52 72.5078H249.736L246.517 81.0391C246.198 81.8822 245.824 82.4792 245.396 82.8301C244.972 83.1855 244.45 83.3633 243.83 83.3633C243.484 83.3633 243.142 83.3245 242.805 83.2471V82.3379C243.055 82.3926 243.336 82.4199 243.646 82.4199C244.425 82.4199 244.981 81.9824 245.313 81.1074L245.73 80.041L242.709 72.5078ZM251.951 72.5078V75.2422C251.951 76.1172 252.45 76.5547 253.448 76.5547C253.863 76.5547 254.259 76.4909 254.638 76.3633C255.016 76.2357 255.444 76.0192 255.923 75.7139V72.5078H257.058V80H255.923V76.6094C255.444 76.9375 255 77.1699 254.59 77.3066C254.184 77.4388 253.724 77.5049 253.209 77.5049C252.462 77.5049 251.876 77.3089 251.452 76.917C251.028 76.5251 250.816 75.9941 250.816 75.3242V72.5078H251.951ZM262.636 80.1367C261.528 80.1367 260.653 79.7995 260.011 79.125C259.373 78.4505 259.054 77.514 259.054 76.3154C259.054 75.1077 259.35 74.1484 259.942 73.4375C260.539 72.7266 261.339 72.3711 262.342 72.3711C263.281 72.3711 264.023 72.681 264.57 73.3008C265.117 73.916 265.391 74.7295 265.391 75.7412V76.459H260.229C260.252 77.3385 260.473 78.0062 260.893 78.4619C261.316 78.9176 261.911 79.1455 262.677 79.1455C263.483 79.1455 264.281 78.9769 265.069 78.6396V79.6514C264.668 79.8245 264.288 79.9476 263.928 80.0205C263.572 80.098 263.142 80.1367 262.636 80.1367ZM262.328 73.3213C261.727 73.3213 261.246 73.5173 260.886 73.9092C260.53 74.3011 260.321 74.8434 260.257 75.5361H264.174C264.174 74.8206 264.014 74.2738 263.695 73.8955C263.376 73.5127 262.921 73.3213 262.328 73.3213ZM272.384 73.4785H269.95V80H268.815V73.4785H266.409V72.5078H272.384V73.4785Z" fill="#444444"/>
<rect x="40" y="39" width="72" height="72" fill="#FFD205"/>
<path d="M89.7769 59.528H88.5979V88.2624C88.5979 90.1713 87.0316 91.7252 85.1075 91.7252H73.1623H63.6634V92.7903C63.6634 94.0101 64.6613 95 65.8907 95H77.8317H89.7727C91.0021 95 92 94.0101 92 92.7903V61.7377C92 60.518 91.0063 59.528 89.7769 59.528Z" fill="white"/>
<path d="M73.1641 90.472H85.1051C86.3345 90.472 87.3324 89.4821 87.3324 88.2624V59.528V57.2097C87.3324 55.99 86.3345 55 85.1051 55H73.1641H69.1936V55.731C69.202 55.8062 69.2062 55.8855 69.2062 55.9649V60.7811V62.0175C69.2062 63.7343 67.7999 65.1295 66.0694 65.1295H64.8231H59.9684C59.9053 65.1295 59.8379 65.1253 59.7747 65.1211H59V88.2624C59 89.4821 59.9979 90.472 61.2274 90.472H63.6694H73.1641ZM73.6146 82.9616H65.8294C65.2484 82.9616 64.7768 82.4937 64.7768 81.9173C64.7768 81.3408 65.2484 80.873 65.8294 80.873H73.6188C74.1999 80.873 74.6715 81.3408 74.6715 81.9173C74.6715 82.4937 74.1957 82.9616 73.6146 82.9616ZM81.4041 77.6316H65.8294C65.2484 77.6316 64.7768 77.1638 64.7768 76.5874C64.7768 76.0109 65.2484 75.5431 65.8294 75.5431H81.4041C81.9851 75.5431 82.4567 76.0109 82.4567 76.5874C82.4567 77.1638 81.9851 77.6316 81.4041 77.6316ZM65.8294 69.8831H81.4041C81.9851 69.8831 82.4567 70.3509 82.4567 70.9273C82.4567 71.5038 81.9851 71.9716 81.4041 71.9716H65.8294C65.2484 71.9716 64.7768 71.5038 64.7768 70.9273C64.7768 70.3509 65.2484 69.8831 65.8294 69.8831Z" fill="white"/>
<path d="M59.9607 63.8697H66.0617C66.0659 63.8697 66.0743 63.8697 66.0785 63.8697C67.0974 63.8614 67.9227 63.0426 67.9311 62.0318C67.9311 62.0276 67.9311 62.0193 67.9311 62.0151V55.9583C67.9311 55.3985 67.468 55.0268 66.988 55.0268C66.7564 55.0268 66.5249 55.1103 66.3312 55.3025L59.2954 62.2824C58.7059 62.8672 59.1228 63.8697 59.9607 63.8697Z" fill="white"/>
<g filter="url(#filter1_d)">
<rect x="40" y="127" width="282" height="72" fill="white"/>
</g>
<path d="M140.45 149H139.288V140.038H136.123V139.006H143.615V140.038H140.45V149ZM148.441 149.137C147.954 149.137 147.507 149.048 147.102 148.87C146.701 148.688 146.363 148.41 146.09 148.036H146.008C146.062 148.474 146.09 148.888 146.09 149.28V152.363H144.955V141.508H145.878L146.035 142.533H146.09C146.382 142.123 146.721 141.827 147.108 141.645C147.496 141.462 147.94 141.371 148.441 141.371C149.435 141.371 150.201 141.711 150.738 142.39C151.281 143.069 151.552 144.021 151.552 145.247C151.552 146.478 151.276 147.435 150.725 148.118C150.178 148.797 149.417 149.137 148.441 149.137ZM148.277 142.335C147.512 142.335 146.958 142.547 146.616 142.971C146.274 143.395 146.099 144.069 146.09 144.994V145.247C146.09 146.3 146.265 147.054 146.616 147.51C146.967 147.961 147.53 148.187 148.305 148.187C148.952 148.187 149.458 147.924 149.822 147.4C150.191 146.876 150.376 146.154 150.376 145.233C150.376 144.299 150.191 143.584 149.822 143.087C149.458 142.586 148.943 142.335 148.277 142.335ZM158.148 149L157.923 147.934H157.868C157.494 148.403 157.121 148.722 156.747 148.891C156.378 149.055 155.915 149.137 155.359 149.137C154.617 149.137 154.033 148.945 153.609 148.562C153.19 148.18 152.98 147.635 152.98 146.929C152.98 145.416 154.19 144.623 156.61 144.55L157.882 144.509V144.044C157.882 143.456 157.754 143.023 157.499 142.745C157.248 142.463 156.845 142.321 156.289 142.321C155.665 142.321 154.958 142.513 154.17 142.896L153.821 142.027C154.19 141.827 154.594 141.67 155.031 141.556C155.473 141.442 155.915 141.385 156.357 141.385C157.251 141.385 157.911 141.583 158.34 141.979C158.773 142.376 158.989 143.012 158.989 143.887V149H158.148ZM155.585 148.2C156.291 148.2 156.845 148.007 157.246 147.619C157.652 147.232 157.854 146.689 157.854 145.992V145.315L156.72 145.363C155.817 145.395 155.166 145.536 154.765 145.787C154.368 146.033 154.17 146.418 154.17 146.942C154.17 147.353 154.293 147.665 154.539 147.879C154.79 148.093 155.138 148.2 155.585 148.2ZM162.469 141.508V144.646H166.666V141.508H167.801V149H166.666V145.623H162.469V149H161.334V141.508H162.469ZM173.201 149.137C172.117 149.137 171.276 148.804 170.679 148.139C170.086 147.469 169.79 146.523 169.79 145.302C169.79 144.049 170.091 143.08 170.692 142.396C171.299 141.713 172.16 141.371 173.276 141.371C173.636 141.371 173.996 141.41 174.356 141.487C174.716 141.565 174.999 141.656 175.204 141.761L174.855 142.725C174.605 142.624 174.331 142.542 174.035 142.479C173.739 142.41 173.477 142.376 173.249 142.376C171.727 142.376 170.966 143.347 170.966 145.288C170.966 146.209 171.15 146.915 171.52 147.407C171.893 147.899 172.445 148.146 173.174 148.146C173.798 148.146 174.438 148.011 175.095 147.742V148.747C174.593 149.007 173.962 149.137 173.201 149.137ZM182.464 149H181.315V142.479H179.066C178.943 144.101 178.772 145.388 178.554 146.341C178.335 147.293 178.05 147.991 177.699 148.433C177.353 148.875 176.911 149.096 176.373 149.096C176.127 149.096 175.931 149.068 175.785 149.014V148.173C175.885 148.2 175.999 148.214 176.127 148.214C176.651 148.214 177.068 147.66 177.378 146.553C177.688 145.445 177.923 143.764 178.082 141.508H182.464V149ZM185.253 149H183.927L186.08 145.835C185.501 145.707 185.057 145.461 184.747 145.097C184.442 144.728 184.289 144.265 184.289 143.709C184.289 143.025 184.519 142.488 184.979 142.096C185.44 141.704 186.082 141.508 186.907 141.508H190.243V149H189.108V146.006H187.215L185.253 149ZM185.396 143.723C185.396 144.589 186.025 145.021 187.283 145.021H189.108V142.492H187.051C185.948 142.492 185.396 142.902 185.396 143.723ZM199.964 151.591H198.829V149H192.656V141.508H193.791V148.022H197.77V141.508H198.904V148.022H199.964V151.591ZM202.486 141.508V146.259L202.438 147.503L202.418 147.893L206.472 141.508H207.887V149H206.827V144.42L206.848 143.518L206.882 142.629L202.835 149H201.42V141.508H202.486ZM210.669 149H209.343L211.496 145.835C210.917 145.707 210.473 145.461 210.163 145.097C209.858 144.728 209.705 144.265 209.705 143.709C209.705 143.025 209.935 142.488 210.396 142.096C210.856 141.704 211.498 141.508 212.323 141.508H215.659V149H214.524V146.006H212.631L210.669 149ZM210.812 143.723C210.812 144.589 211.441 145.021 212.699 145.021H214.524V142.492H212.467C211.364 142.492 210.812 142.902 210.812 143.723ZM228.176 145.247C228.176 146.468 227.868 147.423 227.253 148.111C226.638 148.795 225.788 149.137 224.703 149.137C224.033 149.137 223.438 148.979 222.919 148.665C222.399 148.351 221.998 147.899 221.716 147.312C221.433 146.724 221.292 146.035 221.292 145.247C221.292 144.026 221.597 143.076 222.208 142.396C222.819 141.713 223.666 141.371 224.751 141.371C225.799 141.371 226.631 141.72 227.246 142.417C227.866 143.114 228.176 144.058 228.176 145.247ZM222.468 145.247C222.468 146.204 222.659 146.933 223.042 147.435C223.425 147.936 223.988 148.187 224.73 148.187C225.473 148.187 226.036 147.938 226.419 147.441C226.806 146.94 227 146.209 227 145.247C227 144.295 226.806 143.572 226.419 143.08C226.036 142.583 225.469 142.335 224.717 142.335C223.974 142.335 223.413 142.579 223.035 143.066C222.657 143.554 222.468 144.281 222.468 145.247ZM231.307 149H230.172V141.508H236.461V149H235.312V142.492H231.307V149ZM242.032 149.137C240.925 149.137 240.05 148.799 239.407 148.125C238.769 147.451 238.45 146.514 238.45 145.315C238.45 144.108 238.746 143.148 239.339 142.438C239.936 141.727 240.736 141.371 241.738 141.371C242.677 141.371 243.42 141.681 243.967 142.301C244.514 142.916 244.787 143.729 244.787 144.741V145.459H239.626C239.649 146.339 239.87 147.006 240.289 147.462C240.713 147.918 241.308 148.146 242.073 148.146C242.88 148.146 243.677 147.977 244.466 147.64V148.651C244.065 148.825 243.684 148.948 243.324 149.021C242.969 149.098 242.538 149.137 242.032 149.137ZM241.725 142.321C241.123 142.321 240.642 142.517 240.282 142.909C239.927 143.301 239.717 143.843 239.653 144.536H243.57C243.57 143.821 243.411 143.274 243.092 142.896C242.773 142.513 242.317 142.321 241.725 142.321ZM250.215 149.137C249.727 149.137 249.281 149.048 248.875 148.87C248.474 148.688 248.137 148.41 247.863 148.036H247.781C247.836 148.474 247.863 148.888 247.863 149.28V152.363H246.729V141.508H247.651L247.809 142.533H247.863C248.155 142.123 248.494 141.827 248.882 141.645C249.269 141.462 249.714 141.371 250.215 141.371C251.208 141.371 251.974 141.711 252.512 142.39C253.054 143.069 253.325 144.021 253.325 145.247C253.325 146.478 253.049 147.435 252.498 148.118C251.951 148.797 251.19 149.137 250.215 149.137ZM250.051 142.335C249.285 142.335 248.731 142.547 248.39 142.971C248.048 143.395 247.872 144.069 247.863 144.994V145.247C247.863 146.3 248.039 147.054 248.39 147.51C248.741 147.961 249.303 148.187 250.078 148.187C250.725 148.187 251.231 147.924 251.596 147.4C251.965 146.876 252.149 146.154 252.149 145.233C252.149 144.299 251.965 143.584 251.596 143.087C251.231 142.586 250.716 142.335 250.051 142.335ZM259.922 149L259.696 147.934H259.642C259.268 148.403 258.894 148.722 258.521 148.891C258.151 149.055 257.689 149.137 257.133 149.137C256.39 149.137 255.807 148.945 255.383 148.562C254.964 148.18 254.754 147.635 254.754 146.929C254.754 145.416 255.964 144.623 258.384 144.55L259.655 144.509V144.044C259.655 143.456 259.528 143.023 259.272 142.745C259.022 142.463 258.618 142.321 258.062 142.321C257.438 142.321 256.732 142.513 255.943 142.896L255.595 142.027C255.964 141.827 256.367 141.67 256.805 141.556C257.247 141.442 257.689 141.385 258.131 141.385C259.024 141.385 259.685 141.583 260.113 141.979C260.546 142.376 260.763 143.012 260.763 143.887V149H259.922ZM257.358 148.2C258.065 148.2 258.618 148.007 259.02 147.619C259.425 147.232 259.628 146.689 259.628 145.992V145.315L258.493 145.363C257.591 145.395 256.939 145.536 256.538 145.787C256.142 146.033 255.943 146.418 255.943 146.942C255.943 147.353 256.066 147.665 256.312 147.879C256.563 148.093 256.912 148.2 257.358 148.2ZM270.415 151.591H269.28V149H263.107V141.508H264.242V148.022H268.221V141.508H269.355V148.022H270.415V151.591ZM272.938 141.508V146.259L272.89 147.503L272.869 147.893L276.923 141.508H278.338V149H277.278V144.42L277.299 143.518L277.333 142.629L273.286 149H271.871V141.508H272.938ZM281.811 141.508V146.259L281.763 147.503L281.742 147.893L285.796 141.508H287.211V149H286.151V144.42L286.172 143.518L286.206 142.629L282.159 149H280.744V141.508H281.811ZM283.95 140.517C283.107 140.517 282.492 140.355 282.104 140.031C281.717 139.703 281.501 139.165 281.455 138.418H282.521C282.562 138.892 282.686 139.222 282.891 139.409C283.1 139.596 283.463 139.689 283.978 139.689C284.447 139.689 284.793 139.589 285.017 139.389C285.244 139.188 285.383 138.865 285.434 138.418H286.507C286.452 139.138 286.222 139.669 285.816 140.011C285.411 140.348 284.789 140.517 283.95 140.517ZM140.197 168.137C139.113 168.137 138.272 167.804 137.675 167.139C137.082 166.469 136.786 165.523 136.786 164.302C136.786 163.049 137.087 162.08 137.688 161.396C138.295 160.713 139.156 160.371 140.272 160.371C140.632 160.371 140.993 160.41 141.353 160.487C141.713 160.565 141.995 160.656 142.2 160.761L141.852 161.725C141.601 161.624 141.327 161.542 141.031 161.479C140.735 161.41 140.473 161.376 140.245 161.376C138.723 161.376 137.962 162.347 137.962 164.288C137.962 165.209 138.146 165.915 138.516 166.407C138.889 166.899 139.441 167.146 140.17 167.146C140.794 167.146 141.435 167.011 142.091 166.742V167.747C141.59 168.007 140.958 168.137 140.197 168.137ZM150.998 168.137C150.51 168.137 150.064 168.048 149.658 167.87C149.257 167.688 148.92 167.41 148.646 167.036H148.564C148.619 167.474 148.646 167.888 148.646 168.28V171.363H147.512V160.508H148.435L148.592 161.533H148.646C148.938 161.123 149.278 160.827 149.665 160.645C150.052 160.462 150.497 160.371 150.998 160.371C151.992 160.371 152.757 160.711 153.295 161.39C153.837 162.069 154.108 163.021 154.108 164.247C154.108 165.478 153.833 166.435 153.281 167.118C152.734 167.797 151.973 168.137 150.998 168.137ZM150.834 161.335C150.068 161.335 149.515 161.547 149.173 161.971C148.831 162.395 148.656 163.069 148.646 163.994V164.247C148.646 165.3 148.822 166.054 149.173 166.51C149.524 166.961 150.087 167.187 150.861 167.187C151.508 167.187 152.014 166.924 152.379 166.4C152.748 165.876 152.933 165.154 152.933 164.233C152.933 163.299 152.748 162.584 152.379 162.087C152.014 161.586 151.499 161.335 150.834 161.335ZM162.564 164.247C162.564 165.468 162.257 166.423 161.642 167.111C161.026 167.795 160.176 168.137 159.092 168.137C158.422 168.137 157.827 167.979 157.308 167.665C156.788 167.351 156.387 166.899 156.104 166.312C155.822 165.724 155.681 165.035 155.681 164.247C155.681 163.026 155.986 162.076 156.597 161.396C157.207 160.713 158.055 160.371 159.14 160.371C160.188 160.371 161.02 160.72 161.635 161.417C162.255 162.114 162.564 163.058 162.564 164.247ZM156.856 164.247C156.856 165.204 157.048 165.933 157.431 166.435C157.813 166.936 158.376 167.187 159.119 167.187C159.862 167.187 160.425 166.938 160.808 166.441C161.195 165.94 161.389 165.209 161.389 164.247C161.389 163.295 161.195 162.572 160.808 162.08C160.425 161.583 159.857 161.335 159.105 161.335C158.363 161.335 157.802 161.579 157.424 162.066C157.046 162.554 156.856 163.281 156.856 164.247ZM167.555 168.137C166.47 168.137 165.629 167.804 165.032 167.139C164.44 166.469 164.144 165.523 164.144 164.302C164.144 163.049 164.444 162.08 165.046 161.396C165.652 160.713 166.513 160.371 167.63 160.371C167.99 160.371 168.35 160.41 168.71 160.487C169.07 160.565 169.353 160.656 169.558 160.761L169.209 161.725C168.958 161.624 168.685 161.542 168.389 161.479C168.092 161.41 167.83 161.376 167.603 161.376C166.08 161.376 165.319 162.347 165.319 164.288C165.319 165.209 165.504 165.915 165.873 166.407C166.247 166.899 166.798 167.146 167.527 167.146C168.152 167.146 168.792 167.011 169.448 166.742V167.747C168.947 168.007 168.316 168.137 167.555 168.137ZM174.227 168.137C173.142 168.137 172.301 167.804 171.704 167.139C171.112 166.469 170.815 165.523 170.815 164.302C170.815 163.049 171.116 162.08 171.718 161.396C172.324 160.713 173.185 160.371 174.302 160.371C174.662 160.371 175.022 160.41 175.382 160.487C175.742 160.565 176.024 160.656 176.229 160.761L175.881 161.725C175.63 161.624 175.357 161.542 175.061 161.479C174.764 161.41 174.502 161.376 174.274 161.376C172.752 161.376 171.991 162.347 171.991 164.288C171.991 165.209 172.176 165.915 172.545 166.407C172.919 166.899 173.47 167.146 174.199 167.146C174.824 167.146 175.464 167.011 176.12 166.742V167.747C175.619 168.007 174.988 168.137 174.227 168.137ZM178.971 160.508V165.259L178.923 166.503L178.902 166.893L182.956 160.508H184.371V168H183.312V163.42L183.332 162.518L183.366 161.629L179.319 168H177.904V160.508H178.971ZM187.844 160.508V165.259L187.796 166.503L187.775 166.893L191.829 160.508H193.244V168H192.185V163.42L192.205 162.518L192.239 161.629L188.192 168H186.777V160.508H187.844ZM189.983 159.517C189.14 159.517 188.525 159.355 188.138 159.031C187.75 158.703 187.534 158.165 187.488 157.418H188.555C188.596 157.892 188.719 158.222 188.924 158.409C189.133 158.596 189.496 158.689 190.011 158.689C190.48 158.689 190.826 158.589 191.05 158.389C191.278 158.188 191.417 157.865 191.467 157.418H192.54C192.485 158.138 192.255 158.669 191.85 159.011C191.444 159.348 190.822 159.517 189.983 159.517ZM198.645 168.137C197.56 168.137 196.719 167.804 196.122 167.139C195.53 166.469 195.233 165.523 195.233 164.302C195.233 163.049 195.534 162.08 196.136 161.396C196.742 160.713 197.603 160.371 198.72 160.371C199.08 160.371 199.44 160.41 199.8 160.487C200.16 160.565 200.442 160.656 200.647 160.761L200.299 161.725C200.048 161.624 199.775 161.542 199.479 161.479C199.182 161.41 198.92 161.376 198.692 161.376C197.17 161.376 196.409 162.347 196.409 164.288C196.409 165.209 196.594 165.915 196.963 166.407C197.337 166.899 197.888 167.146 198.617 167.146C199.242 167.146 199.882 167.011 200.538 166.742V167.747C200.037 168.007 199.406 168.137 198.645 168.137ZM206.69 160.508H207.935L204.701 164.124L208.201 168H206.875L203.457 164.206V168H202.322V160.508H203.457V164.151L206.69 160.508ZM216.062 164.247C216.062 165.468 215.755 166.423 215.14 167.111C214.524 167.795 213.674 168.137 212.59 168.137C211.92 168.137 211.325 167.979 210.806 167.665C210.286 167.351 209.885 166.899 209.603 166.312C209.32 165.724 209.179 165.035 209.179 164.247C209.179 163.026 209.484 162.076 210.095 161.396C210.705 160.713 211.553 160.371 212.638 160.371C213.686 160.371 214.518 160.72 215.133 161.417C215.753 162.114 216.062 163.058 216.062 164.247ZM210.354 164.247C210.354 165.204 210.546 165.933 210.929 166.435C211.312 166.936 211.874 167.187 212.617 167.187C213.36 167.187 213.923 166.938 214.306 166.441C214.693 165.94 214.887 165.209 214.887 164.247C214.887 163.295 214.693 162.572 214.306 162.08C213.923 161.583 213.355 161.335 212.604 161.335C211.861 161.335 211.3 161.579 210.922 162.066C210.544 162.554 210.354 163.281 210.354 164.247ZM222.57 161.479H219.193V168H218.059V160.508H222.57V161.479ZM230.527 164.247C230.527 165.468 230.22 166.423 229.604 167.111C228.989 167.795 228.139 168.137 227.055 168.137C226.385 168.137 225.79 167.979 225.271 167.665C224.751 167.351 224.35 166.899 224.067 166.312C223.785 165.724 223.644 165.035 223.644 164.247C223.644 163.026 223.949 162.076 224.56 161.396C225.17 160.713 226.018 160.371 227.103 160.371C228.151 160.371 228.982 160.72 229.598 161.417C230.217 162.114 230.527 163.058 230.527 164.247ZM224.819 164.247C224.819 165.204 225.011 165.933 225.394 166.435C225.776 166.936 226.339 167.187 227.082 167.187C227.825 167.187 228.388 166.938 228.771 166.441C229.158 165.94 229.352 165.209 229.352 164.247C229.352 163.295 229.158 162.572 228.771 162.08C228.388 161.583 227.82 161.335 227.068 161.335C226.326 161.335 225.765 161.579 225.387 162.066C225.008 162.554 224.819 163.281 224.819 164.247ZM237.295 168H236.16V160.508H242.449V168H241.301V161.492H237.295V168ZM250.44 168H249.292V161.479H247.043C246.92 163.101 246.749 164.388 246.53 165.341C246.312 166.293 246.027 166.991 245.676 167.433C245.329 167.875 244.887 168.096 244.35 168.096C244.104 168.096 243.908 168.068 243.762 168.014V167.173C243.862 167.2 243.976 167.214 244.104 167.214C244.628 167.214 245.045 166.66 245.354 165.553C245.664 164.445 245.899 162.764 246.059 160.508H250.44V168ZM257.461 168L257.235 166.934H257.181C256.807 167.403 256.433 167.722 256.06 167.891C255.69 168.055 255.228 168.137 254.672 168.137C253.929 168.137 253.346 167.945 252.922 167.562C252.503 167.18 252.293 166.635 252.293 165.929C252.293 164.416 253.503 163.623 255.923 163.55L257.194 163.509V163.044C257.194 162.456 257.067 162.023 256.812 161.745C256.561 161.463 256.158 161.321 255.602 161.321C254.977 161.321 254.271 161.513 253.482 161.896L253.134 161.027C253.503 160.827 253.906 160.67 254.344 160.556C254.786 160.442 255.228 160.385 255.67 160.385C256.563 160.385 257.224 160.583 257.652 160.979C258.085 161.376 258.302 162.012 258.302 162.887V168H257.461ZM254.897 167.2C255.604 167.2 256.158 167.007 256.559 166.619C256.964 166.232 257.167 165.689 257.167 164.992V164.315L256.032 164.363C255.13 164.395 254.478 164.536 254.077 164.787C253.681 165.033 253.482 165.418 253.482 165.942C253.482 166.353 253.605 166.665 253.852 166.879C254.102 167.093 254.451 167.2 254.897 167.2ZM261.781 160.508V163.646H265.979V160.508H267.113V168H265.979V164.623H261.781V168H260.646V160.508H261.781ZM274.127 168L273.901 166.934H273.847C273.473 167.403 273.099 167.722 272.726 167.891C272.356 168.055 271.894 168.137 271.338 168.137C270.595 168.137 270.012 167.945 269.588 167.562C269.169 167.18 268.959 166.635 268.959 165.929C268.959 164.416 270.169 163.623 272.589 163.55L273.86 163.509V163.044C273.86 162.456 273.733 162.023 273.478 161.745C273.227 161.463 272.824 161.321 272.268 161.321C271.643 161.321 270.937 161.513 270.148 161.896L269.8 161.027C270.169 160.827 270.572 160.67 271.01 160.556C271.452 160.442 271.894 160.385 272.336 160.385C273.229 160.385 273.89 160.583 274.318 160.979C274.751 161.376 274.968 162.012 274.968 162.887V168H274.127ZM271.563 167.2C272.27 167.2 272.824 167.007 273.225 166.619C273.63 166.232 273.833 165.689 273.833 164.992V164.315L272.698 164.363C271.796 164.395 271.144 164.536 270.743 164.787C270.347 165.033 270.148 165.418 270.148 165.942C270.148 166.353 270.271 166.665 270.518 166.879C270.768 167.093 271.117 167.2 271.563 167.2ZM140.197 187.137C139.113 187.137 138.272 186.804 137.675 186.139C137.082 185.469 136.786 184.523 136.786 183.302C136.786 182.049 137.087 181.08 137.688 180.396C138.295 179.713 139.156 179.371 140.272 179.371C140.632 179.371 140.993 179.41 141.353 179.487C141.713 179.565 141.995 179.656 142.2 179.761L141.852 180.725C141.601 180.624 141.327 180.542 141.031 180.479C140.735 180.41 140.473 180.376 140.245 180.376C138.723 180.376 137.962 181.347 137.962 183.288C137.962 184.209 138.146 184.915 138.516 185.407C138.889 185.899 139.441 186.146 140.17 186.146C140.794 186.146 141.435 186.011 142.091 185.742V186.747C141.59 187.007 140.958 187.137 140.197 187.137ZM144.873 179.508V182.242C144.873 183.117 145.372 183.555 146.37 183.555C146.785 183.555 147.181 183.491 147.56 183.363C147.938 183.236 148.366 183.019 148.845 182.714V179.508H149.979V187H148.845V183.609C148.366 183.938 147.922 184.17 147.512 184.307C147.106 184.439 146.646 184.505 146.131 184.505C145.383 184.505 144.798 184.309 144.374 183.917C143.95 183.525 143.738 182.994 143.738 182.324V179.508H144.873ZM155.558 187.137C154.45 187.137 153.575 186.799 152.933 186.125C152.295 185.451 151.976 184.514 151.976 183.315C151.976 182.108 152.272 181.148 152.864 180.438C153.461 179.727 154.261 179.371 155.264 179.371C156.202 179.371 156.945 179.681 157.492 180.301C158.039 180.916 158.312 181.729 158.312 182.741V183.459H153.151C153.174 184.339 153.395 185.006 153.814 185.462C154.238 185.918 154.833 186.146 155.599 186.146C156.405 186.146 157.203 185.977 157.991 185.64V186.651C157.59 186.825 157.21 186.948 156.85 187.021C156.494 187.098 156.063 187.137 155.558 187.137ZM155.25 180.321C154.648 180.321 154.168 180.517 153.808 180.909C153.452 181.301 153.243 181.843 153.179 182.536H157.096C157.096 181.821 156.936 181.274 156.617 180.896C156.298 180.513 155.842 180.321 155.25 180.321ZM165.306 180.479H162.872V187H161.737V180.479H159.331V179.508H165.306V180.479ZM173.256 183.247C173.256 184.468 172.948 185.423 172.333 186.111C171.718 186.795 170.868 187.137 169.783 187.137C169.113 187.137 168.519 186.979 167.999 186.665C167.479 186.351 167.078 185.899 166.796 185.312C166.513 184.724 166.372 184.035 166.372 183.247C166.372 182.026 166.677 181.076 167.288 180.396C167.899 179.713 168.746 179.371 169.831 179.371C170.879 179.371 171.711 179.72 172.326 180.417C172.946 181.114 173.256 182.058 173.256 183.247ZM167.548 183.247C167.548 184.204 167.739 184.933 168.122 185.435C168.505 185.936 169.068 186.187 169.811 186.187C170.553 186.187 171.116 185.938 171.499 185.441C171.886 184.94 172.08 184.209 172.08 183.247C172.08 182.295 171.886 181.572 171.499 181.08C171.116 180.583 170.549 180.335 169.797 180.335C169.054 180.335 168.493 180.579 168.115 181.066C167.737 181.554 167.548 182.281 167.548 183.247ZM181.329 181.388C181.329 181.875 181.188 182.247 180.905 182.502C180.627 182.753 180.235 182.921 179.729 183.008V183.069C180.368 183.156 180.832 183.343 181.124 183.63C181.42 183.917 181.568 184.313 181.568 184.819C181.568 185.517 181.311 186.054 180.796 186.433C180.285 186.811 179.538 187 178.554 187H175.252V179.508H178.54C180.399 179.508 181.329 180.134 181.329 181.388ZM180.434 184.744C180.434 184.339 180.279 184.045 179.969 183.862C179.663 183.675 179.155 183.582 178.444 183.582H176.387V186.05H178.472C179.78 186.05 180.434 185.615 180.434 184.744ZM180.222 181.497C180.222 181.132 180.08 180.875 179.798 180.725C179.52 180.57 179.096 180.492 178.526 180.492H176.387V182.604H178.308C179.009 182.604 179.504 182.518 179.791 182.345C180.078 182.172 180.222 181.889 180.222 181.497Z" fill="#444444"/>
<rect x="40" y="127" width="72" height="72" fill="#FFD205"/>
<path d="M73.7304 182V165.273H57C57 174.508 64.4936 182 73.7304 182ZM70.5458 178.431C65.6331 177.239 61.7542 173.369 60.5694 168.457H70.5458V178.431Z" fill="white"/>
<path d="M77.2774 145C68.0331 145 60.5395 152.492 60.5395 161.727H77.2699V178.454C86.5142 178.454 94.0003 170.962 94.0003 161.727C94.0003 152.492 86.5142 145 77.2774 145Z" fill="white"/>
<g filter="url(#filter2_d)">
<rect x="40" y="215" width="282" height="72" fill="white"/>
</g>
<path d="M143.711 229.918C143.711 230.93 143.365 231.709 142.672 232.256C141.984 232.798 140.997 233.069 139.712 233.069H138.536V237H137.374V227.006H139.965C142.462 227.006 143.711 227.977 143.711 229.918ZM138.536 232.071H139.582C140.612 232.071 141.357 231.905 141.817 231.572C142.278 231.24 142.508 230.706 142.508 229.973C142.508 229.312 142.291 228.82 141.858 228.496C141.425 228.173 140.751 228.011 139.835 228.011H138.536V232.071ZM148.804 237.137C147.696 237.137 146.821 236.799 146.179 236.125C145.541 235.451 145.222 234.514 145.222 233.315C145.222 232.108 145.518 231.148 146.11 230.438C146.707 229.727 147.507 229.371 148.51 229.371C149.449 229.371 150.191 229.681 150.738 230.301C151.285 230.916 151.559 231.729 151.559 232.741V233.459H146.397C146.42 234.339 146.641 235.006 147.061 235.462C147.484 235.918 148.079 236.146 148.845 236.146C149.651 236.146 150.449 235.977 151.237 235.64V236.651C150.836 236.825 150.456 236.948 150.096 237.021C149.74 237.098 149.31 237.137 148.804 237.137ZM148.496 230.321C147.895 230.321 147.414 230.517 147.054 230.909C146.698 231.301 146.489 231.843 146.425 232.536H150.342C150.342 231.821 150.182 231.274 149.863 230.896C149.544 230.513 149.089 230.321 148.496 230.321ZM158.012 230.479H154.635V237H153.5V229.508H158.012V230.479ZM165.087 237H163.938V230.479H161.689C161.566 232.101 161.396 233.388 161.177 234.341C160.958 235.293 160.673 235.991 160.322 236.433C159.976 236.875 159.534 237.096 158.996 237.096C158.75 237.096 158.554 237.068 158.408 237.014V236.173C158.508 236.2 158.622 236.214 158.75 236.214C159.274 236.214 159.691 235.66 160.001 234.553C160.311 233.445 160.546 231.764 160.705 229.508H165.087V237ZM172.107 237L171.882 235.934H171.827C171.453 236.403 171.08 236.722 170.706 236.891C170.337 237.055 169.874 237.137 169.318 237.137C168.576 237.137 167.992 236.945 167.568 236.562C167.149 236.18 166.939 235.635 166.939 234.929C166.939 233.416 168.149 232.623 170.569 232.55L171.841 232.509V232.044C171.841 231.456 171.713 231.023 171.458 230.745C171.207 230.463 170.804 230.321 170.248 230.321C169.624 230.321 168.917 230.513 168.129 230.896L167.78 230.027C168.149 229.827 168.553 229.67 168.99 229.556C169.432 229.442 169.874 229.385 170.316 229.385C171.21 229.385 171.87 229.583 172.299 229.979C172.732 230.376 172.948 231.012 172.948 231.887V237H172.107ZM169.544 236.2C170.25 236.2 170.804 236.007 171.205 235.619C171.611 235.232 171.813 234.689 171.813 233.992V233.315L170.679 233.363C169.776 233.395 169.125 233.536 168.724 233.787C168.327 234.033 168.129 234.418 168.129 234.942C168.129 235.353 168.252 235.665 168.498 235.879C168.749 236.093 169.097 236.2 169.544 236.2ZM179.183 235.906L179.395 235.271L179.688 234.464L181.719 229.521H183.161V237H182.156V230.813L182.02 231.21L181.623 232.256L179.688 237H178.738L176.804 232.242C176.562 231.632 176.396 231.155 176.305 230.813V237H175.293V229.521H176.681L178.643 234.272C178.839 234.774 179.019 235.318 179.183 235.906ZM188.753 237.137C187.646 237.137 186.771 236.799 186.128 236.125C185.49 235.451 185.171 234.514 185.171 233.315C185.171 232.108 185.467 231.148 186.06 230.438C186.657 229.727 187.456 229.371 188.459 229.371C189.398 229.371 190.141 229.681 190.688 230.301C191.234 230.916 191.508 231.729 191.508 232.741V233.459H186.347C186.369 234.339 186.59 235.006 187.01 235.462C187.434 235.918 188.028 236.146 188.794 236.146C189.601 236.146 190.398 235.977 191.187 235.64V236.651C190.785 236.825 190.405 236.948 190.045 237.021C189.689 237.098 189.259 237.137 188.753 237.137ZM188.445 230.321C187.844 230.321 187.363 230.517 187.003 230.909C186.647 231.301 186.438 231.843 186.374 232.536H190.291C190.291 231.821 190.132 231.274 189.812 230.896C189.493 230.513 189.038 230.321 188.445 230.321ZM194.584 229.508V232.646H198.781V229.508H199.916V237H198.781V233.623H194.584V237H193.449V229.508H194.584ZM207.374 230.479H204.94V237H203.806V230.479H201.399V229.508H207.374V230.479ZM209.992 229.508V232.646H214.189V229.508H215.324V237H214.189V233.623H209.992V237H208.857V229.508H209.992ZM218.865 232.604H220.909C221.862 232.604 222.566 232.782 223.021 233.138C223.482 233.489 223.712 234.015 223.712 234.717C223.712 235.469 223.468 236.038 222.98 236.426C222.497 236.809 221.784 237 220.841 237H217.73V229.508H218.865V232.604ZM226.104 237H224.97V229.508H226.104V237ZM218.865 233.582V236.05H220.786C221.989 236.05 222.591 235.628 222.591 234.785C222.591 234.366 222.452 234.061 222.174 233.869C221.896 233.678 221.422 233.582 220.752 233.582H218.865ZM231.683 237.137C230.575 237.137 229.7 236.799 229.058 236.125C228.42 235.451 228.101 234.514 228.101 233.315C228.101 232.108 228.397 231.148 228.989 230.438C229.586 229.727 230.386 229.371 231.389 229.371C232.327 229.371 233.07 229.681 233.617 230.301C234.164 230.916 234.438 231.729 234.438 232.741V233.459H229.276C229.299 234.339 229.52 235.006 229.939 235.462C230.363 235.918 230.958 236.146 231.724 236.146C232.53 236.146 233.328 235.977 234.116 235.64V236.651C233.715 236.825 233.335 236.948 232.975 237.021C232.619 237.098 232.188 237.137 231.683 237.137ZM231.375 230.321C230.773 230.321 230.293 230.517 229.933 230.909C229.577 231.301 229.368 231.843 229.304 232.536H233.221C233.221 231.821 233.061 231.274 232.742 230.896C232.423 230.513 231.967 230.321 231.375 230.321ZM143.67 252.247C143.67 253.468 143.362 254.423 142.747 255.111C142.132 255.795 141.282 256.137 140.197 256.137C139.527 256.137 138.933 255.979 138.413 255.665C137.894 255.351 137.493 254.899 137.21 254.312C136.927 253.724 136.786 253.035 136.786 252.247C136.786 251.026 137.091 250.076 137.702 249.396C138.313 248.713 139.16 248.371 140.245 248.371C141.293 248.371 142.125 248.72 142.74 249.417C143.36 250.114 143.67 251.058 143.67 252.247ZM137.962 252.247C137.962 253.204 138.153 253.933 138.536 254.435C138.919 254.936 139.482 255.187 140.225 255.187C140.967 255.187 141.53 254.938 141.913 254.441C142.3 253.94 142.494 253.209 142.494 252.247C142.494 251.295 142.3 250.572 141.913 250.08C141.53 249.583 140.963 249.335 140.211 249.335C139.468 249.335 138.908 249.579 138.529 250.066C138.151 250.554 137.962 251.281 137.962 252.247ZM146.801 256H145.666V248.508H151.955V256H150.807V249.492H146.801V256ZM157.526 256.137C156.419 256.137 155.544 255.799 154.901 255.125C154.263 254.451 153.944 253.514 153.944 252.315C153.944 251.108 154.241 250.148 154.833 249.438C155.43 248.727 156.23 248.371 157.232 248.371C158.171 248.371 158.914 248.681 159.461 249.301C160.008 249.916 160.281 250.729 160.281 251.741V252.459H155.12C155.143 253.339 155.364 254.006 155.783 254.462C156.207 254.918 156.802 255.146 157.567 255.146C158.374 255.146 159.172 254.977 159.96 254.64V255.651C159.559 255.825 159.178 255.948 158.818 256.021C158.463 256.098 158.032 256.137 157.526 256.137ZM157.219 249.321C156.617 249.321 156.136 249.517 155.776 249.909C155.421 250.301 155.211 250.843 155.147 251.536H159.064C159.064 250.821 158.905 250.274 158.586 249.896C158.267 249.513 157.811 249.321 157.219 249.321ZM165.709 256.137C165.221 256.137 164.775 256.048 164.369 255.87C163.968 255.688 163.631 255.41 163.357 255.036H163.275C163.33 255.474 163.357 255.888 163.357 256.28V259.363H162.223V248.508H163.146L163.303 249.533H163.357C163.649 249.123 163.989 248.827 164.376 248.645C164.763 248.462 165.208 248.371 165.709 248.371C166.702 248.371 167.468 248.711 168.006 249.39C168.548 250.069 168.819 251.021 168.819 252.247C168.819 253.478 168.544 254.435 167.992 255.118C167.445 255.797 166.684 256.137 165.709 256.137ZM165.545 249.335C164.779 249.335 164.226 249.547 163.884 249.971C163.542 250.395 163.367 251.069 163.357 251.994V252.247C163.357 253.3 163.533 254.054 163.884 254.51C164.235 254.961 164.798 255.187 165.572 255.187C166.219 255.187 166.725 254.924 167.09 254.4C167.459 253.876 167.644 253.154 167.644 252.233C167.644 251.299 167.459 250.584 167.09 250.087C166.725 249.586 166.21 249.335 165.545 249.335ZM175.416 256L175.19 254.934H175.136C174.762 255.403 174.388 255.722 174.015 255.891C173.646 256.055 173.183 256.137 172.627 256.137C171.884 256.137 171.301 255.945 170.877 255.562C170.458 255.18 170.248 254.635 170.248 253.929C170.248 252.416 171.458 251.623 173.878 251.55L175.149 251.509V251.044C175.149 250.456 175.022 250.023 174.767 249.745C174.516 249.463 174.113 249.321 173.557 249.321C172.932 249.321 172.226 249.513 171.438 249.896L171.089 249.027C171.458 248.827 171.861 248.67 172.299 248.556C172.741 248.442 173.183 248.385 173.625 248.385C174.518 248.385 175.179 248.583 175.607 248.979C176.04 249.376 176.257 250.012 176.257 250.887V256H175.416ZM172.853 255.2C173.559 255.2 174.113 255.007 174.514 254.619C174.919 254.232 175.122 253.689 175.122 252.992V252.315L173.987 252.363C173.085 252.395 172.433 252.536 172.032 252.787C171.636 253.033 171.438 253.418 171.438 253.942C171.438 254.353 171.561 254.665 171.807 254.879C172.057 255.093 172.406 255.2 172.853 255.2ZM185.909 258.591H184.774V256H178.602V248.508H179.736V255.022H183.715V248.508H184.85V255.022H185.909V258.591ZM188.432 248.508V253.259L188.384 254.503L188.363 254.893L192.417 248.508H193.832V256H192.772V251.42L192.793 250.518L192.827 249.629L188.78 256H187.365V248.508H188.432ZM197.305 248.508V253.259L197.257 254.503L197.236 254.893L201.29 248.508H202.705V256H201.646V251.42L201.666 250.518L201.7 249.629L197.653 256H196.238V248.508H197.305ZM209.883 256H208.748V248.508H215.037V256H213.889V249.492H209.883V256ZM223.91 252.247C223.91 253.468 223.603 254.423 222.987 255.111C222.372 255.795 221.522 256.137 220.438 256.137C219.768 256.137 219.173 255.979 218.653 255.665C218.134 255.351 217.733 254.899 217.45 254.312C217.168 253.724 217.026 253.035 217.026 252.247C217.026 251.026 217.332 250.076 217.942 249.396C218.553 248.713 219.401 248.371 220.485 248.371C221.534 248.371 222.365 248.72 222.98 249.417C223.6 250.114 223.91 251.058 223.91 252.247ZM218.202 252.247C218.202 253.204 218.394 253.933 218.776 254.435C219.159 254.936 219.722 255.187 220.465 255.187C221.208 255.187 221.771 254.938 222.153 254.441C222.541 253.94 222.734 253.209 222.734 252.247C222.734 251.295 222.541 250.572 222.153 250.08C221.771 249.583 221.203 249.335 220.451 249.335C219.708 249.335 219.148 249.579 218.77 250.066C218.391 250.554 218.202 251.281 218.202 252.247ZM140.197 275.137C139.113 275.137 138.272 274.804 137.675 274.139C137.082 273.469 136.786 272.523 136.786 271.302C136.786 270.049 137.087 269.08 137.688 268.396C138.295 267.713 139.156 267.371 140.272 267.371C140.632 267.371 140.993 267.41 141.353 267.487C141.713 267.565 141.995 267.656 142.2 267.761L141.852 268.725C141.601 268.624 141.327 268.542 141.031 268.479C140.735 268.41 140.473 268.376 140.245 268.376C138.723 268.376 137.962 269.347 137.962 271.288C137.962 272.209 138.146 272.915 138.516 273.407C138.889 273.899 139.441 274.146 140.17 274.146C140.794 274.146 141.435 274.011 142.091 273.742V274.747C141.59 275.007 140.958 275.137 140.197 275.137ZM148.927 268.479H146.493V275H145.358V268.479H142.952V267.508H148.927V268.479ZM155.018 275L154.792 273.934H154.737C154.364 274.403 153.99 274.722 153.616 274.891C153.247 275.055 152.785 275.137 152.229 275.137C151.486 275.137 150.902 274.945 150.479 274.562C150.059 274.18 149.85 273.635 149.85 272.929C149.85 271.416 151.06 270.623 153.479 270.55L154.751 270.509V270.044C154.751 269.456 154.623 269.023 154.368 268.745C154.118 268.463 153.714 268.321 153.158 268.321C152.534 268.321 151.827 268.513 151.039 268.896L150.69 268.027C151.06 267.827 151.463 267.67 151.9 267.556C152.342 267.442 152.785 267.385 153.227 267.385C154.12 267.385 154.781 267.583 155.209 267.979C155.642 268.376 155.858 269.012 155.858 269.887V275H155.018ZM152.454 274.2C153.16 274.2 153.714 274.007 154.115 273.619C154.521 273.232 154.724 272.689 154.724 271.992V271.315L153.589 271.363C152.687 271.395 152.035 271.536 151.634 271.787C151.237 272.033 151.039 272.418 151.039 272.942C151.039 273.353 151.162 273.665 151.408 273.879C151.659 274.093 152.007 274.2 152.454 274.2ZM159.338 267.508V270.646H163.535V267.508H164.67V275H163.535V271.623H159.338V275H158.203V267.508H159.338ZM173.584 277.591H172.483V275H167.247V277.591H166.153V274.022H166.741C167.352 273.193 167.83 272.22 168.177 271.104C168.523 269.987 168.703 268.788 168.717 267.508H172.511V274.022H173.584V277.591ZM171.417 274.022V268.403H169.735C169.676 269.415 169.48 270.44 169.147 271.479C168.819 272.514 168.409 273.362 167.917 274.022H171.417ZM179.695 275L179.47 273.934H179.415C179.041 274.403 178.668 274.722 178.294 274.891C177.925 275.055 177.462 275.137 176.906 275.137C176.163 275.137 175.58 274.945 175.156 274.562C174.737 274.18 174.527 273.635 174.527 272.929C174.527 271.416 175.737 270.623 178.157 270.55L179.429 270.509V270.044C179.429 269.456 179.301 269.023 179.046 268.745C178.795 268.463 178.392 268.321 177.836 268.321C177.212 268.321 176.505 268.513 175.717 268.896L175.368 268.027C175.737 267.827 176.141 267.67 176.578 267.556C177.02 267.442 177.462 267.385 177.904 267.385C178.798 267.385 179.458 267.583 179.887 267.979C180.32 268.376 180.536 269.012 180.536 269.887V275H179.695ZM177.132 274.2C177.838 274.2 178.392 274.007 178.793 273.619C179.199 273.232 179.401 272.689 179.401 271.992V271.315L178.267 271.363C177.364 271.395 176.713 271.536 176.312 271.787C175.915 272.033 175.717 272.418 175.717 272.942C175.717 273.353 175.84 273.665 176.086 273.879C176.337 274.093 176.685 274.2 177.132 274.2ZM186.367 275.137C185.88 275.137 185.433 275.048 185.027 274.87C184.626 274.688 184.289 274.41 184.016 274.036H183.934C183.988 274.474 184.016 274.888 184.016 275.28V278.363H182.881V267.508H183.804L183.961 268.533H184.016C184.307 268.123 184.647 267.827 185.034 267.645C185.422 267.462 185.866 267.371 186.367 267.371C187.361 267.371 188.126 267.711 188.664 268.39C189.206 269.069 189.478 270.021 189.478 271.247C189.478 272.478 189.202 273.435 188.65 274.118C188.104 274.797 187.342 275.137 186.367 275.137ZM186.203 268.335C185.438 268.335 184.884 268.547 184.542 268.971C184.2 269.395 184.025 270.069 184.016 270.994V271.247C184.016 272.3 184.191 273.054 184.542 273.51C184.893 273.961 185.456 274.187 186.23 274.187C186.878 274.187 187.383 273.924 187.748 273.4C188.117 272.876 188.302 272.154 188.302 271.233C188.302 270.299 188.117 269.584 187.748 269.087C187.383 268.586 186.868 268.335 186.203 268.335ZM196.519 268.479H194.085V275H192.95V268.479H190.544V267.508H196.519V268.479ZM202.609 275L202.384 273.934H202.329C201.955 274.403 201.582 274.722 201.208 274.891C200.839 275.055 200.376 275.137 199.82 275.137C199.077 275.137 198.494 274.945 198.07 274.562C197.651 274.18 197.441 273.635 197.441 272.929C197.441 271.416 198.651 270.623 201.071 270.55L202.343 270.509V270.044C202.343 269.456 202.215 269.023 201.96 268.745C201.709 268.463 201.306 268.321 200.75 268.321C200.126 268.321 199.419 268.513 198.631 268.896L198.282 268.027C198.651 267.827 199.055 267.67 199.492 267.556C199.934 267.442 200.376 267.385 200.818 267.385C201.712 267.385 202.372 267.583 202.801 267.979C203.234 268.376 203.45 269.012 203.45 269.887V275H202.609ZM200.046 274.2C200.752 274.2 201.306 274.007 201.707 273.619C202.113 273.232 202.315 272.689 202.315 271.992V271.315L201.181 271.363C200.278 271.395 199.627 271.536 199.226 271.787C198.829 272.033 198.631 272.418 198.631 272.942C198.631 273.353 198.754 273.665 199 273.879C199.251 274.093 199.599 274.2 200.046 274.2ZM209.685 273.906L209.896 273.271L210.19 272.464L212.221 267.521H213.663V275H212.658V268.813L212.521 269.21L212.125 270.256L210.19 275H209.24L207.306 270.242C207.064 269.632 206.898 269.155 206.807 268.813V275H205.795V267.521H207.183L209.145 272.272C209.34 272.774 209.521 273.318 209.685 273.906ZM224.32 275L220.93 266.141H220.875C220.939 266.842 220.971 267.676 220.971 268.643V275H219.897V265.006H221.647L224.812 273.25H224.867L228.06 265.006H229.796V275H228.634V268.561C228.634 267.822 228.666 267.02 228.729 266.154H228.675L225.257 275H224.32ZM236.823 265.901C235.725 265.901 234.857 266.268 234.219 267.002C233.585 267.731 233.269 268.731 233.269 270.003C233.269 271.311 233.574 272.323 234.185 273.038C234.8 273.749 235.675 274.104 236.81 274.104C237.507 274.104 238.302 273.979 239.195 273.729V274.747C238.503 275.007 237.648 275.137 236.632 275.137C235.16 275.137 234.023 274.69 233.221 273.797C232.423 272.904 232.024 271.634 232.024 269.989C232.024 268.959 232.216 268.057 232.599 267.282C232.986 266.507 233.542 265.91 234.267 265.491C234.996 265.072 235.853 264.862 236.837 264.862C237.885 264.862 238.801 265.054 239.585 265.437L239.093 266.435C238.336 266.079 237.58 265.901 236.823 265.901ZM244.999 264.862H246.175V266.093H246.653C247.433 266.093 248.107 266.248 248.677 266.558C249.251 266.868 249.688 267.305 249.989 267.87C250.295 268.435 250.447 269.08 250.447 269.805C250.447 270.561 250.276 271.236 249.935 271.828C249.597 272.416 249.132 272.858 248.54 273.154C247.952 273.451 247.257 273.599 246.455 273.599H246.175V275.137H244.999V273.599H244.691C243.889 273.599 243.194 273.448 242.606 273.147C242.019 272.847 241.558 272.4 241.226 271.808C240.893 271.215 240.727 270.552 240.727 269.818C240.727 269.098 240.879 268.456 241.185 267.891C241.494 267.326 241.937 266.886 242.511 266.571C243.085 266.252 243.762 266.093 244.541 266.093H244.999V264.862ZM246.175 272.621H246.346C247.262 272.621 247.973 272.373 248.479 271.876C248.989 271.375 249.244 270.68 249.244 269.791C249.244 268.948 249.009 268.287 248.54 267.809C248.071 267.33 247.414 267.091 246.571 267.091H246.175V272.621ZM244.999 267.091H244.609C243.78 267.091 243.126 267.332 242.647 267.815C242.174 268.299 241.937 268.957 241.937 269.791C241.937 270.689 242.189 271.386 242.695 271.883C243.201 272.375 243.914 272.621 244.835 272.621H244.999V267.091ZM261.221 269.989C261.221 271.589 260.815 272.847 260.004 273.763C259.197 274.679 258.074 275.137 256.634 275.137C255.162 275.137 254.025 274.688 253.223 273.79C252.425 272.888 252.026 271.616 252.026 269.976C252.026 268.349 252.427 267.089 253.229 266.195C254.032 265.298 255.171 264.849 256.647 264.849C258.083 264.849 259.204 265.304 260.011 266.216C260.817 267.127 261.221 268.385 261.221 269.989ZM253.257 269.989C253.257 271.343 253.544 272.37 254.118 273.072C254.697 273.77 255.535 274.118 256.634 274.118C257.741 274.118 258.577 273.77 259.143 273.072C259.708 272.375 259.99 271.347 259.99 269.989C259.99 268.645 259.708 267.626 259.143 266.934C258.582 266.236 257.75 265.888 256.647 265.888C255.54 265.888 254.697 266.239 254.118 266.94C253.544 267.638 253.257 268.654 253.257 269.989Z" fill="#444444"/>
<rect x="40" y="215" width="72" height="72" fill="#FFD205"/>
<g filter="url(#filter3_d)">
<rect x="744" y="90" width="160" height="133" fill="white"/>
</g>
<path d="M781.239 185.989C781.239 187.589 780.834 188.847 780.022 189.763C779.216 190.679 778.092 191.137 776.652 191.137C775.18 191.137 774.043 190.688 773.241 189.79C772.444 188.888 772.045 187.616 772.045 185.976C772.045 184.349 772.446 183.089 773.248 182.195C774.05 181.298 775.189 180.849 776.666 180.849C778.102 180.849 779.223 181.304 780.029 182.216C780.836 183.127 781.239 184.385 781.239 185.989ZM773.275 185.989C773.275 187.343 773.562 188.37 774.137 189.072C774.715 189.77 775.554 190.118 776.652 190.118C777.76 190.118 778.596 189.77 779.161 189.072C779.726 188.375 780.009 187.347 780.009 185.989C780.009 184.645 779.726 183.626 779.161 182.934C778.601 182.236 777.769 181.888 776.666 181.888C775.559 181.888 774.715 182.239 774.137 182.94C773.562 183.638 773.275 184.654 773.275 185.989ZM788.355 184.479H785.922V191H784.787V184.479H782.381V183.508H788.355V184.479ZM790.837 183.508V186.242C790.837 187.117 791.336 187.555 792.334 187.555C792.749 187.555 793.145 187.491 793.523 187.363C793.902 187.236 794.33 187.019 794.809 186.714V183.508H795.943V191H794.809V187.609C794.33 187.938 793.886 188.17 793.476 188.307C793.07 188.439 792.61 188.505 792.095 188.505C791.347 188.505 790.762 188.309 790.338 187.917C789.914 187.525 789.702 186.994 789.702 186.324V183.508H790.837ZM801.521 191.137C800.414 191.137 799.539 190.799 798.896 190.125C798.258 189.451 797.939 188.514 797.939 187.315C797.939 186.108 798.236 185.148 798.828 184.438C799.425 183.727 800.225 183.371 801.228 183.371C802.166 183.371 802.909 183.681 803.456 184.301C804.003 184.916 804.276 185.729 804.276 186.741V187.459H799.115C799.138 188.339 799.359 189.006 799.778 189.462C800.202 189.918 800.797 190.146 801.562 190.146C802.369 190.146 803.167 189.977 803.955 189.64V190.651C803.554 190.825 803.174 190.948 802.813 191.021C802.458 191.098 802.027 191.137 801.521 191.137ZM801.214 184.321C800.612 184.321 800.132 184.517 799.771 184.909C799.416 185.301 799.206 185.843 799.143 186.536H803.06C803.06 185.821 802.9 185.274 802.581 184.896C802.262 184.513 801.806 184.321 801.214 184.321ZM811.27 184.479H808.836V191H807.701V184.479H805.295V183.508H811.27V184.479ZM813.888 183.508V186.646H818.085V183.508H819.22V191H818.085V187.623H813.888V191H812.753V183.508H813.888ZM828.093 187.247C828.093 188.468 827.785 189.423 827.17 190.111C826.555 190.795 825.705 191.137 824.62 191.137C823.95 191.137 823.355 190.979 822.836 190.665C822.316 190.351 821.915 189.899 821.633 189.312C821.35 188.724 821.209 188.035 821.209 187.247C821.209 186.026 821.514 185.076 822.125 184.396C822.736 183.713 823.583 183.371 824.668 183.371C825.716 183.371 826.548 183.72 827.163 184.417C827.783 185.114 828.093 186.058 828.093 187.247ZM822.385 187.247C822.385 188.204 822.576 188.933 822.959 189.435C823.342 189.936 823.905 190.187 824.647 190.187C825.39 190.187 825.953 189.938 826.336 189.441C826.723 188.94 826.917 188.209 826.917 187.247C826.917 186.295 826.723 185.572 826.336 185.08C825.953 184.583 825.386 184.335 824.634 184.335C823.891 184.335 823.33 184.579 822.952 185.066C822.574 185.554 822.385 186.281 822.385 187.247ZM833.083 191.137C831.998 191.137 831.158 190.804 830.561 190.139C829.968 189.469 829.672 188.523 829.672 187.302C829.672 186.049 829.973 185.08 830.574 184.396C831.18 183.713 832.042 183.371 833.158 183.371C833.518 183.371 833.878 183.41 834.238 183.487C834.598 183.565 834.881 183.656 835.086 183.761L834.737 184.725C834.487 184.624 834.213 184.542 833.917 184.479C833.621 184.41 833.359 184.376 833.131 184.376C831.609 184.376 830.848 185.347 830.848 187.288C830.848 188.209 831.032 188.915 831.401 189.407C831.775 189.899 832.326 190.146 833.056 190.146C833.68 190.146 834.32 190.011 834.977 189.742V190.747C834.475 191.007 833.844 191.137 833.083 191.137ZM841.812 184.479H839.379V191H838.244V184.479H835.838V183.508H841.812V184.479ZM844.431 186.604H846.741C848.655 186.604 849.612 187.309 849.612 188.717C849.612 189.455 849.362 190.02 848.86 190.412C848.364 190.804 847.634 191 846.673 191H843.296V183.508H844.431V186.604ZM844.431 187.582V190.05H846.618C847.22 190.05 847.68 189.945 847.999 189.735C848.318 189.526 848.478 189.209 848.478 188.785C848.478 188.37 848.329 188.067 848.033 187.876C847.742 187.68 847.258 187.582 846.584 187.582H844.431ZM856.353 191H855.218V183.508H861.507V191H860.358V184.492H856.353V191ZM870.38 187.247C870.38 188.468 870.072 189.423 869.457 190.111C868.842 190.795 867.992 191.137 866.907 191.137C866.237 191.137 865.643 190.979 865.123 190.665C864.604 190.351 864.202 189.899 863.92 189.312C863.637 188.724 863.496 188.035 863.496 187.247C863.496 186.026 863.801 185.076 864.412 184.396C865.023 183.713 865.87 183.371 866.955 183.371C868.003 183.371 868.835 183.72 869.45 184.417C870.07 185.114 870.38 186.058 870.38 187.247ZM864.672 187.247C864.672 188.204 864.863 188.933 865.246 189.435C865.629 189.936 866.192 190.187 866.935 190.187C867.677 190.187 868.24 189.938 868.623 189.441C869.01 188.94 869.204 188.209 869.204 187.247C869.204 186.295 869.01 185.572 868.623 185.08C868.24 184.583 867.673 184.335 866.921 184.335C866.178 184.335 865.618 184.579 865.239 185.066C864.861 185.554 864.672 186.281 864.672 187.247ZM807.018 210L803.627 201.141H803.572C803.636 201.842 803.668 202.676 803.668 203.643V210H802.595V200.006H804.345L807.51 208.25H807.564L810.757 200.006H812.493V210H811.331V203.561C811.331 202.822 811.363 202.02 811.427 201.154H811.372L807.954 210H807.018ZM819.521 200.901C818.422 200.901 817.554 201.268 816.916 202.002C816.283 202.731 815.966 203.731 815.966 205.003C815.966 206.311 816.271 207.323 816.882 208.038C817.497 208.749 818.372 209.104 819.507 209.104C820.204 209.104 820.999 208.979 821.893 208.729V209.747C821.2 210.007 820.345 210.137 819.329 210.137C817.857 210.137 816.72 209.69 815.918 208.797C815.12 207.904 814.722 206.634 814.722 204.989C814.722 203.959 814.913 203.057 815.296 202.282C815.683 201.507 816.239 200.91 816.964 200.491C817.693 200.072 818.55 199.862 819.534 199.862C820.582 199.862 821.498 200.054 822.282 200.437L821.79 201.435C821.034 201.079 820.277 200.901 819.521 200.901ZM827.696 199.862H828.872V201.093H829.351C830.13 201.093 830.804 201.248 831.374 201.558C831.948 201.868 832.386 202.305 832.687 202.87C832.992 203.435 833.145 204.08 833.145 204.805C833.145 205.561 832.974 206.236 832.632 206.828C832.295 207.416 831.83 207.858 831.237 208.154C830.649 208.451 829.954 208.599 829.152 208.599H828.872V210.137H827.696V208.599H827.389C826.587 208.599 825.892 208.448 825.304 208.147C824.716 207.847 824.256 207.4 823.923 206.808C823.59 206.215 823.424 205.552 823.424 204.818C823.424 204.098 823.576 203.456 823.882 202.891C824.192 202.326 824.634 201.886 825.208 201.571C825.782 201.252 826.459 201.093 827.238 201.093H827.696V199.862ZM828.872 207.621H829.043C829.959 207.621 830.67 207.373 831.176 206.876C831.686 206.375 831.941 205.68 831.941 204.791C831.941 203.948 831.707 203.287 831.237 202.809C830.768 202.33 830.112 202.091 829.269 202.091H828.872V207.621ZM827.696 202.091H827.307C826.477 202.091 825.823 202.332 825.345 202.815C824.871 203.299 824.634 203.957 824.634 204.791C824.634 205.689 824.887 206.386 825.393 206.883C825.898 207.375 826.612 207.621 827.532 207.621H827.696V202.091ZM843.918 204.989C843.918 206.589 843.512 207.847 842.701 208.763C841.895 209.679 840.771 210.137 839.331 210.137C837.859 210.137 836.722 209.688 835.92 208.79C835.122 207.888 834.724 206.616 834.724 204.976C834.724 203.349 835.125 202.089 835.927 201.195C836.729 200.298 837.868 199.849 839.345 199.849C840.78 199.849 841.901 200.304 842.708 201.216C843.515 202.127 843.918 203.385 843.918 204.989ZM835.954 204.989C835.954 206.343 836.241 207.37 836.815 208.072C837.394 208.77 838.233 209.118 839.331 209.118C840.438 209.118 841.275 208.77 841.84 208.072C842.405 207.375 842.688 206.347 842.688 204.989C842.688 203.645 842.405 202.626 841.84 201.934C841.279 201.236 840.448 200.888 839.345 200.888C838.237 200.888 837.394 201.239 836.815 201.94C836.241 202.638 835.954 203.654 835.954 204.989Z" fill="#444444"/>
<path d="M840.576 119.207H839.214V152.252C839.214 154.447 837.403 156.234 835.179 156.234H821.371H810.391V157.459C810.391 158.862 811.544 160 812.965 160H826.768H840.571C841.993 160 843.146 158.862 843.146 157.459V121.748C843.146 120.346 841.997 119.207 840.576 119.207Z" fill="#FFD205"/>
<path d="M821.373 154.793H835.176C836.597 154.793 837.751 153.654 837.751 152.252V119.207V116.541C837.751 115.138 836.597 114 835.176 114H821.373H816.783V114.841C816.793 114.927 816.798 115.018 816.798 115.11V120.648V122.07C816.798 124.044 815.172 125.649 813.172 125.649H811.731H806.119C806.046 125.649 805.969 125.644 805.896 125.639H805V152.252C805 153.654 806.154 154.793 807.575 154.793H810.398H821.373ZM821.894 146.156H812.894C812.223 146.156 811.678 145.618 811.678 144.955C811.678 144.292 812.223 143.754 812.894 143.754H821.899C822.57 143.754 823.115 144.292 823.115 144.955C823.115 145.618 822.565 146.156 821.894 146.156ZM830.898 140.026H812.894C812.223 140.026 811.678 139.488 811.678 138.825C811.678 138.163 812.223 137.625 812.894 137.625H830.898C831.569 137.625 832.115 138.163 832.115 138.825C832.115 139.488 831.569 140.026 830.898 140.026ZM812.894 131.116H830.898C831.569 131.116 832.115 131.654 832.115 132.316C832.115 132.979 831.569 133.517 830.898 133.517H812.894C812.223 133.517 811.678 132.979 811.678 132.316C811.678 131.654 812.223 131.116 812.894 131.116Z" fill="#FFD205"/>
<path d="M806.112 124.2H813.165C813.169 124.2 813.179 124.2 813.184 124.2C814.362 124.191 815.316 123.249 815.326 122.087C815.326 122.082 815.326 122.072 815.326 122.067V115.102C815.326 114.458 814.79 114.031 814.235 114.031C813.968 114.031 813.7 114.127 813.476 114.348L805.343 122.375C804.662 123.047 805.144 124.2 806.112 124.2Z" fill="#FFD205"/>
<path d="M447 77L432 68.3397V85.6603L447 77ZM433.5 75.5L322 75.5V78.5L433.5 78.5V75.5Z" fill="#FFD205"/>
<path d="M744 160L729 151.34V168.66L744 160ZM730.5 158.5H676V161.5H730.5V158.5Z" fill="#FFD205"/>
<path d="M447 163L431.971 154.39L432.029 171.71L447 163ZM433.495 161.545L321.995 161.918L322.005 164.918L433.505 164.545L433.495 161.545Z" fill="#FFD205"/>
<path d="M447 251L431.977 242.38L432.023 259.7L447 251ZM433.496 249.536L321.996 249.834L322.004 252.834L433.504 252.536L433.496 249.536Z" fill="#FFD205"/>
<g filter="url(#filter4_d)">
<rect x="447" y="39" width="229" height="248" fill="white"/>
</g>
<rect x="525" y="103" width="72" height="72" fill="#FFD205"/>
<path d="M579.341 128.348H554.224V131.521H577.347V148.417H554.224V152.593H558.425L555.465 155.481C555.367 155.576 555.312 155.708 555.312 155.846V156.494C555.312 156.773 555.536 157 555.812 157H570.95C571.226 157 571.45 156.773 571.45 156.494V155.846C571.45 155.708 571.395 155.576 571.297 155.481L568.337 152.593H579.341C579.705 152.593 580.001 152.294 580.001 151.924V129.016C580.001 128.647 579.705 128.348 579.341 128.348ZM563.381 149.887C563.782 149.887 564.106 150.216 564.106 150.622C564.106 151.028 563.782 151.357 563.381 151.357C562.981 151.357 562.656 151.028 562.656 150.622C562.656 150.216 562.981 149.887 563.381 149.887Z" fill="white"/>
<path d="M551.161 122H541.808C541.362 122 541 122.366 541 122.818V156.148C541 156.6 541.362 156.966 541.808 156.966H551.161C551.607 156.966 551.968 156.6 551.968 156.148V122.818C551.968 122.366 551.607 122 551.161 122ZM545.617 126.155C545.617 126.084 545.674 126.026 545.745 126.026H547.224C547.295 126.026 547.352 126.084 547.352 126.155V139.062C547.352 139.133 547.295 139.191 547.224 139.191H545.745C545.674 139.191 545.617 139.133 545.617 139.062V126.155ZM547.244 145.845C547.244 146.27 546.904 146.615 546.484 146.615C546.065 146.615 545.724 146.27 545.724 145.845C545.724 145.42 546.064 145.076 546.484 145.076C546.904 145.076 547.244 145.42 547.244 145.845ZM546.484 151.988C545.497 151.988 544.696 151.177 544.696 150.176C544.696 149.176 545.497 148.365 546.484 148.365C547.472 148.365 548.273 149.176 548.273 150.176C548.273 151.177 547.472 151.988 546.484 151.988Z" fill="white"/>
<path d="M579.341 128.348H554.224V131.521H577.347V148.417H554.224V152.593H558.425L555.465 155.481C555.367 155.576 555.312 155.708 555.312 155.846V156.494C555.312 156.773 555.536 157 555.812 157H570.95C571.226 157 571.45 156.773 571.45 156.494V155.846C571.45 155.708 571.395 155.576 571.297 155.481L568.337 152.593H579.341C579.705 152.593 580.001 152.294 580.001 151.924V129.016C580.001 128.647 579.705 128.348 579.341 128.348ZM563.381 149.887C563.782 149.887 564.106 150.216 564.106 150.622C564.106 151.028 563.782 151.357 563.381 151.357C562.981 151.357 562.656 151.028 562.656 150.622C562.656 150.216 562.981 149.887 563.381 149.887Z" fill="white"/>
<path d="M551.161 122H541.808C541.362 122 541 122.366 541 122.818V156.148C541 156.6 541.362 156.966 541.808 156.966H551.161C551.607 156.966 551.968 156.6 551.968 156.148V122.818C551.968 122.366 551.607 122 551.161 122ZM545.617 126.155C545.617 126.084 545.674 126.026 545.745 126.026H547.224C547.295 126.026 547.352 126.084 547.352 126.155V139.062C547.352 139.133 547.295 139.191 547.224 139.191H545.745C545.674 139.191 545.617 139.133 545.617 139.062V126.155ZM547.244 145.845C547.244 146.27 546.904 146.615 546.484 146.615C546.065 146.615 545.724 146.27 545.724 145.845C545.724 145.42 546.064 145.076 546.484 145.076C546.904 145.076 547.244 145.42 547.244 145.845ZM546.484 151.988C545.497 151.988 544.696 151.177 544.696 150.176C544.696 149.176 545.497 148.365 546.484 148.365C547.472 148.365 548.273 149.176 548.273 150.176C548.273 151.177 547.472 151.988 546.484 151.988Z" fill="white"/>
<path d="M535.371 198.989C535.371 200.589 534.965 201.847 534.154 202.763C533.348 203.679 532.224 204.137 530.784 204.137C529.312 204.137 528.175 203.688 527.373 202.79C526.576 201.888 526.177 200.616 526.177 198.976C526.177 197.349 526.578 196.089 527.38 195.195C528.182 194.298 529.321 193.849 530.798 193.849C532.233 193.849 533.354 194.304 534.161 195.216C534.968 196.127 535.371 197.385 535.371 198.989ZM527.407 198.989C527.407 200.343 527.694 201.37 528.269 202.072C528.847 202.77 529.686 203.118 530.784 203.118C531.892 203.118 532.728 202.77 533.293 202.072C533.858 201.375 534.141 200.347 534.141 198.989C534.141 197.645 533.858 196.626 533.293 195.934C532.732 195.236 531.901 194.888 530.798 194.888C529.69 194.888 528.847 195.239 528.269 195.94C527.694 196.638 527.407 197.654 527.407 198.989ZM538.57 204H537.436V196.508H543.725V204H542.576V197.492H538.57V204ZM549.296 204.137C548.188 204.137 547.313 203.799 546.671 203.125C546.033 202.451 545.714 201.514 545.714 200.315C545.714 199.108 546.01 198.148 546.603 197.438C547.2 196.727 547.999 196.371 549.002 196.371C549.941 196.371 550.684 196.681 551.23 197.301C551.777 197.916 552.051 198.729 552.051 199.741V200.459H546.89C546.912 201.339 547.133 202.006 547.553 202.462C547.977 202.918 548.571 203.146 549.337 203.146C550.144 203.146 550.941 202.977 551.729 202.64V203.651C551.328 203.825 550.948 203.948 550.588 204.021C550.232 204.098 549.802 204.137 549.296 204.137ZM548.988 197.321C548.387 197.321 547.906 197.517 547.546 197.909C547.19 198.301 546.981 198.843 546.917 199.536H550.834C550.834 198.821 550.674 198.274 550.355 197.896C550.036 197.513 549.581 197.321 548.988 197.321ZM557.479 204.137C556.991 204.137 556.544 204.048 556.139 203.87C555.738 203.688 555.4 203.41 555.127 203.036H555.045C555.1 203.474 555.127 203.888 555.127 204.28V207.363H553.992V196.508H554.915L555.072 197.533H555.127C555.419 197.123 555.758 196.827 556.146 196.645C556.533 196.462 556.977 196.371 557.479 196.371C558.472 196.371 559.238 196.711 559.775 197.39C560.318 198.069 560.589 199.021 560.589 200.247C560.589 201.478 560.313 202.435 559.762 203.118C559.215 203.797 558.454 204.137 557.479 204.137ZM557.314 197.335C556.549 197.335 555.995 197.547 555.653 197.971C555.312 198.395 555.136 199.069 555.127 199.994V200.247C555.127 201.3 555.302 202.054 555.653 202.51C556.004 202.961 556.567 203.187 557.342 203.187C557.989 203.187 558.495 202.924 558.859 202.4C559.229 201.876 559.413 201.154 559.413 200.233C559.413 199.299 559.229 198.584 558.859 198.087C558.495 197.586 557.98 197.335 557.314 197.335ZM567.186 204L566.96 202.934H566.905C566.532 203.403 566.158 203.722 565.784 203.891C565.415 204.055 564.952 204.137 564.396 204.137C563.654 204.137 563.07 203.945 562.646 203.562C562.227 203.18 562.018 202.635 562.018 201.929C562.018 200.416 563.228 199.623 565.647 199.55L566.919 199.509V199.044C566.919 198.456 566.791 198.023 566.536 197.745C566.285 197.463 565.882 197.321 565.326 197.321C564.702 197.321 563.995 197.513 563.207 197.896L562.858 197.027C563.228 196.827 563.631 196.67 564.068 196.556C564.51 196.442 564.952 196.385 565.395 196.385C566.288 196.385 566.949 196.583 567.377 196.979C567.81 197.376 568.026 198.012 568.026 198.887V204H567.186ZM564.622 203.2C565.328 203.2 565.882 203.007 566.283 202.619C566.689 202.232 566.892 201.689 566.892 200.992V200.315L565.757 200.363C564.854 200.395 564.203 200.536 563.802 200.787C563.405 201.033 563.207 201.418 563.207 201.942C563.207 202.353 563.33 202.665 563.576 202.879C563.827 203.093 564.175 203.2 564.622 203.2ZM577.679 206.591H576.544V204H570.371V196.508H571.506V203.022H575.484V196.508H576.619V203.022H577.679V206.591ZM580.201 196.508V201.259L580.153 202.503L580.133 202.893L584.187 196.508H585.602V204H584.542V199.42L584.562 198.518L584.597 197.629L580.55 204H579.135V196.508H580.201ZM589.074 196.508V201.259L589.026 202.503L589.006 202.893L593.06 196.508H594.475V204H593.415V199.42L593.436 198.518L593.47 197.629L589.423 204H588.008V196.508H589.074ZM546.589 217.388C546.589 217.875 546.448 218.247 546.165 218.502C545.887 218.753 545.495 218.921 544.989 219.008V219.069C545.627 219.156 546.092 219.343 546.384 219.63C546.68 219.917 546.828 220.313 546.828 220.819C546.828 221.517 546.571 222.054 546.056 222.433C545.545 222.811 544.798 223 543.813 223H540.512V215.508H543.8C545.659 215.508 546.589 216.134 546.589 217.388ZM545.693 220.744C545.693 220.339 545.538 220.045 545.229 219.862C544.923 219.675 544.415 219.582 543.704 219.582H541.646V222.05H543.731C545.039 222.05 545.693 221.615 545.693 220.744ZM545.481 217.497C545.481 217.132 545.34 216.875 545.058 216.725C544.78 216.57 544.356 216.492 543.786 216.492H541.646V218.604H543.567C544.269 218.604 544.764 218.518 545.051 218.345C545.338 218.172 545.481 217.889 545.481 217.497ZM551.729 218.509C551.729 216.868 551.971 215.59 552.454 214.674C552.937 213.753 553.703 213.179 554.751 212.951C556.054 212.673 557.203 212.448 558.196 212.274L558.408 213.272C556.827 213.537 555.697 213.746 555.018 213.901C554.357 214.052 553.86 214.407 553.527 214.968C553.199 215.528 553.019 216.292 552.987 217.258H553.069C553.352 216.875 553.716 216.574 554.163 216.355C554.61 216.137 555.077 216.027 555.564 216.027C556.485 216.027 557.203 216.326 557.718 216.923C558.233 217.52 558.49 218.347 558.49 219.404C558.49 220.576 558.192 221.492 557.595 222.152C556.998 222.809 556.166 223.137 555.1 223.137C554.047 223.137 553.222 222.733 552.625 221.927C552.028 221.12 551.729 219.981 551.729 218.509ZM555.202 222.187C556.592 222.187 557.287 221.3 557.287 219.527C557.287 217.837 556.656 216.991 555.394 216.991C555.047 216.991 554.712 217.064 554.389 217.21C554.07 217.351 553.776 217.54 553.507 217.777C553.243 218.014 553.037 218.258 552.892 218.509C552.892 219.707 553.081 220.621 553.459 221.25C553.837 221.874 554.418 222.187 555.202 222.187ZM565.08 223L564.854 221.934H564.8C564.426 222.403 564.052 222.722 563.679 222.891C563.31 223.055 562.847 223.137 562.291 223.137C561.548 223.137 560.965 222.945 560.541 222.562C560.122 222.18 559.912 221.635 559.912 220.929C559.912 219.416 561.122 218.623 563.542 218.55L564.813 218.509V218.044C564.813 217.456 564.686 217.023 564.431 216.745C564.18 216.463 563.777 216.321 563.221 216.321C562.596 216.321 561.89 216.513 561.102 216.896L560.753 216.027C561.122 215.827 561.525 215.67 561.963 215.556C562.405 215.442 562.847 215.385 563.289 215.385C564.182 215.385 564.843 215.583 565.271 215.979C565.704 216.376 565.921 217.012 565.921 217.887V223H565.08ZM562.517 222.2C563.223 222.2 563.777 222.007 564.178 221.619C564.583 221.232 564.786 220.689 564.786 219.992V219.315L563.651 219.363C562.749 219.395 562.097 219.536 561.696 219.787C561.3 220.033 561.102 220.418 561.102 220.942C561.102 221.353 561.225 221.665 561.471 221.879C561.721 222.093 562.07 222.2 562.517 222.2ZM569.694 218.618C571.112 218.618 571.82 218.226 571.82 217.442C571.82 216.704 571.246 216.335 570.098 216.335C569.747 216.335 569.428 216.367 569.141 216.431C568.854 216.494 568.478 216.622 568.013 216.813L567.609 215.891C568.384 215.544 569.229 215.371 570.146 215.371C571.007 215.371 571.686 215.549 572.183 215.904C572.679 216.255 572.928 216.736 572.928 217.347C572.928 218.185 572.461 218.734 571.526 218.994V219.049C572.101 219.217 572.52 219.459 572.784 219.773C573.049 220.083 573.181 220.473 573.181 220.942C573.181 221.635 572.9 222.175 572.34 222.562C571.784 222.945 571.014 223.137 570.029 223.137C568.949 223.137 568.115 222.975 567.527 222.651V221.612C568.361 222.004 569.204 222.2 570.057 222.2C570.713 222.2 571.207 222.089 571.54 221.865C571.877 221.637 572.046 221.312 572.046 220.888C572.046 220.017 571.337 219.582 569.92 219.582H568.881V218.618H569.694ZM578.198 223.137C577.091 223.137 576.216 222.799 575.573 222.125C574.935 221.451 574.616 220.514 574.616 219.315C574.616 218.108 574.912 217.148 575.505 216.438C576.102 215.727 576.902 215.371 577.904 215.371C578.843 215.371 579.586 215.681 580.133 216.301C580.68 216.916 580.953 217.729 580.953 218.741V219.459H575.792C575.815 220.339 576.036 221.006 576.455 221.462C576.879 221.918 577.474 222.146 578.239 222.146C579.046 222.146 579.843 221.977 580.632 221.64V222.651C580.231 222.825 579.85 222.948 579.49 223.021C579.135 223.098 578.704 223.137 578.198 223.137ZM577.891 216.321C577.289 216.321 576.808 216.517 576.448 216.909C576.093 217.301 575.883 217.843 575.819 218.536H579.736C579.736 217.821 579.577 217.274 579.258 216.896C578.939 216.513 578.483 216.321 577.891 216.321Z" fill="#444444"/>
<path fill-rule="evenodd" clip-rule="evenodd" d="M93.8905 248.557C93.8351 248.065 93.2615 247.695 92.7654 247.695C91.1617 247.695 89.7385 246.753 89.1417 245.297C88.532 243.806 88.9251 242.066 90.1204 240.97C90.4966 240.626 90.5423 240.05 90.2268 239.65C89.4059 238.608 88.473 237.666 87.4543 236.85C87.0554 236.53 86.4702 236.575 86.1243 236.958C85.0812 238.113 83.2074 238.542 81.7596 237.938C80.2528 237.304 79.3027 235.778 79.3956 234.139C79.4263 233.624 79.05 233.176 78.5368 233.117C77.2296 232.965 75.9109 232.961 74.5997 233.106C74.0923 233.162 73.7161 233.599 73.7332 234.107C73.7902 235.73 72.8286 237.23 71.3368 237.841C69.9063 238.426 68.0457 238 67.0047 236.855C66.6606 236.478 66.0849 236.431 65.684 236.744C64.6351 237.567 63.6812 238.509 62.8528 239.543C62.5297 239.945 62.5773 240.527 62.9573 240.873C64.1753 241.976 64.5686 243.731 63.9358 245.239C63.3317 246.678 61.838 247.605 60.1279 247.605C59.573 247.587 59.1778 247.959 59.1171 248.464C58.9632 249.779 58.9613 251.118 59.1095 252.444C59.1645 252.938 59.7556 253.304 60.2571 253.304C61.7811 253.265 63.2442 254.209 63.8579 255.702C64.4698 257.194 64.0765 258.933 62.8794 260.03C62.505 260.374 62.4575 260.949 62.773 261.348C63.5862 262.384 64.5192 263.327 65.5415 264.149C65.9425 264.472 66.5259 264.427 66.8735 264.044C67.9206 262.886 69.7942 262.457 71.2363 263.063C72.7468 263.694 73.697 265.221 73.604 266.861C73.5736 267.376 73.9517 267.824 74.4628 267.883C75.1316 267.961 75.8043 268 76.4789 268C77.1193 268 77.7597 267.965 78.4001 267.894C78.9076 267.838 79.2835 267.401 79.2665 266.891C79.2077 265.27 80.171 263.769 81.6608 263.16C83.101 262.571 84.9538 263.002 85.995 264.146C86.341 264.522 86.9127 264.567 87.3158 264.256C88.3627 263.435 89.3146 262.494 90.1469 261.457C90.4699 261.056 90.4243 260.473 90.0424 260.127C88.8243 259.024 88.4291 257.269 89.0619 255.761C89.6567 254.342 91.095 253.389 92.642 253.389L92.8584 253.395C93.3602 253.435 93.8219 253.049 93.8827 252.537C94.0369 251.221 94.0387 249.882 93.8905 248.557ZM76.5278 256.374C73.3088 256.374 70.6904 253.756 70.6904 250.537C70.6904 247.318 73.3088 244.7 76.5278 244.7C79.7466 244.7 82.365 247.318 82.365 250.537C82.365 253.756 79.7466 256.374 76.5278 256.374Z" fill="white"/>
<defs>
<filter id="filter0_d" x="32" y="35" width="298" height="88" filterUnits="userSpaceOnUse" color-interpolation-filters="sRGB">
<feFlood flood-opacity="0" result="BackgroundImageFix"/>
<feColorMatrix in="SourceAlpha" type="matrix" values="0 0 0 0 0 0 0 0 0 0 0 0 0 0 0 0 0 0 127 0"/>
<feOffset dy="4"/>
<feGaussianBlur stdDeviation="4"/>
<feColorMatrix type="matrix" values="0 0 0 0 0 0 0 0 0 0 0 0 0 0 0 0 0 0 0.08 0"/>
<feBlend mode="normal" in2="BackgroundImageFix" result="effect1_dropShadow"/>
<feBlend mode="normal" in="SourceGraphic" in2="effect1_dropShadow" result="shape"/>
</filter>
<filter id="filter1_d" x="32" y="123" width="298" height="88" filterUnits="userSpaceOnUse" color-interpolation-filters="sRGB">
<feFlood flood-opacity="0" result="BackgroundImageFix"/>
<feColorMatrix in="SourceAlpha" type="matrix" values="0 0 0 0 0 0 0 0 0 0 0 0 0 0 0 0 0 0 127 0"/>
<feOffset dy="4"/>
<feGaussianBlur stdDeviation="4"/>
<feColorMatrix type="matrix" values="0 0 0 0 0 0 0 0 0 0 0 0 0 0 0 0 0 0 0.08 0"/>
<feBlend mode="normal" in2="BackgroundImageFix" result="effect1_dropShadow"/>
<feBlend mode="normal" in="SourceGraphic" in2="effect1_dropShadow" result="shape"/>
</filter>
<filter id="filter2_d" x="32" y="211" width="298" height="88" filterUnits="userSpaceOnUse" color-interpolation-filters="sRGB">
<feFlood flood-opacity="0" result="BackgroundImageFix"/>
<feColorMatrix in="SourceAlpha" type="matrix" values="0 0 0 0 0 0 0 0 0 0 0 0 0 0 0 0 0 0 127 0"/>
<feOffset dy="4"/>
<feGaussianBlur stdDeviation="4"/>
<feColorMatrix type="matrix" values="0 0 0 0 0 0 0 0 0 0 0 0 0 0 0 0 0 0 0.08 0"/>
<feBlend mode="normal" in2="BackgroundImageFix" result="effect1_dropShadow"/>
<feBlend mode="normal" in="SourceGraphic" in2="effect1_dropShadow" result="shape"/>
</filter>
<filter id="filter3_d" x="736" y="86" width="176" height="149" filterUnits="userSpaceOnUse" color-interpolation-filters="sRGB">
<feFlood flood-opacity="0" result="BackgroundImageFix"/>
<feColorMatrix in="SourceAlpha" type="matrix" values="0 0 0 0 0 0 0 0 0 0 0 0 0 0 0 0 0 0 127 0"/>
<feOffset dy="4"/>
<feGaussianBlur stdDeviation="4"/>
<feColorMatrix type="matrix" values="0 0 0 0 0 0 0 0 0 0 0 0 0 0 0 0 0 0 0.08 0"/>
<feBlend mode="normal" in2="BackgroundImageFix" result="effect1_dropShadow"/>
<feBlend mode="normal" in="SourceGraphic" in2="effect1_dropShadow" result="shape"/>
</filter>
<filter id="filter4_d" x="439" y="35" width="245" height="264" filterUnits="userSpaceOnUse" color-interpolation-filters="sRGB">
<feFlood flood-opacity="0" result="BackgroundImageFix"/>
<feColorMatrix in="SourceAlpha" type="matrix" values="0 0 0 0 0 0 0 0 0 0 0 0 0 0 0 0 0 0 127 0"/>
<feOffset dy="4"/>
<feGaussianBlur stdDeviation="4"/>
<feColorMatrix type="matrix" values="0 0 0 0 0 0 0 0 0 0 0 0 0 0 0 0 0 0 0.08 0"/>
<feBlend mode="normal" in2="BackgroundImageFix" result="effect1_dropShadow"/>
<feBlend mode="normal" in="SourceGraphic" in2="effect1_dropShadow" result="shape"/>
</filter>
</defs>
</svg>
