<svg width="749" height="430" viewBox="0 0 749 430" fill="none" xmlns="http://www.w3.org/2000/svg">
<rect width="749" height="430" fill="#F7F7F7"/>
<g filter="url(#filter0_d)">
<rect x="61" y="118" width="282" height="72" fill="white"/>
</g>
<path d="M164.711 142.918C164.711 143.93 164.365 144.709 163.672 145.256C162.984 145.798 161.997 146.069 160.712 146.069H159.536V150H158.374V140.006H160.965C163.462 140.006 164.711 140.977 164.711 142.918ZM159.536 145.071H160.582C161.612 145.071 162.357 144.905 162.817 144.572C163.278 144.24 163.508 143.706 163.508 142.973C163.508 142.312 163.291 141.82 162.858 141.496C162.425 141.173 161.751 141.011 160.835 141.011H159.536V145.071ZM169.804 150.137C168.696 150.137 167.821 149.799 167.179 149.125C166.541 148.451 166.222 147.514 166.222 146.315C166.222 145.108 166.518 144.148 167.11 143.438C167.707 142.727 168.507 142.371 169.51 142.371C170.449 142.371 171.191 142.681 171.738 143.301C172.285 143.916 172.559 144.729 172.559 145.741V146.459H167.397C167.42 147.339 167.641 148.006 168.061 148.462C168.484 148.918 169.079 149.146 169.845 149.146C170.651 149.146 171.449 148.977 172.237 148.64V149.651C171.836 149.825 171.456 149.948 171.096 150.021C170.74 150.098 170.31 150.137 169.804 150.137ZM169.496 143.321C168.895 143.321 168.414 143.517 168.054 143.909C167.698 144.301 167.489 144.843 167.425 145.536H171.342C171.342 144.821 171.182 144.274 170.863 143.896C170.544 143.513 170.089 143.321 169.496 143.321ZM180.085 149.022H183.407V142.508H184.556V150H174.5V142.508H175.635V149.022H178.95V142.508H180.085V149.022ZM190.134 150.137C189.026 150.137 188.151 149.799 187.509 149.125C186.871 148.451 186.552 147.514 186.552 146.315C186.552 145.108 186.848 144.148 187.44 143.438C188.037 142.727 188.837 142.371 189.84 142.371C190.779 142.371 191.521 142.681 192.068 143.301C192.615 143.916 192.889 144.729 192.889 145.741V146.459H187.728C187.75 147.339 187.971 148.006 188.391 148.462C188.814 148.918 189.409 149.146 190.175 149.146C190.981 149.146 191.779 148.977 192.567 148.64V149.651C192.166 149.825 191.786 149.948 191.426 150.021C191.07 150.098 190.64 150.137 190.134 150.137ZM189.826 143.321C189.225 143.321 188.744 143.517 188.384 143.909C188.028 144.301 187.819 144.843 187.755 145.536H191.672C191.672 144.821 191.512 144.274 191.193 143.896C190.874 143.513 190.419 143.321 189.826 143.321ZM195.965 142.508V145.646H200.162V142.508H201.297V150H200.162V146.623H195.965V150H194.83V142.508H195.965ZM204.77 142.508V147.259L204.722 148.503L204.701 148.893L208.755 142.508H210.17V150H209.11V145.42L209.131 144.518L209.165 143.629L205.118 150H203.703V142.508H204.77ZM215.741 150.137C214.634 150.137 213.759 149.799 213.116 149.125C212.478 148.451 212.159 147.514 212.159 146.315C212.159 145.108 212.455 144.148 213.048 143.438C213.645 142.727 214.445 142.371 215.447 142.371C216.386 142.371 217.129 142.681 217.676 143.301C218.223 143.916 218.496 144.729 218.496 145.741V146.459H213.335C213.358 147.339 213.579 148.006 213.998 148.462C214.422 148.918 215.017 149.146 215.782 149.146C216.589 149.146 217.386 148.977 218.175 148.64V149.651C217.774 149.825 217.393 149.948 217.033 150.021C216.678 150.098 216.247 150.137 215.741 150.137ZM215.434 143.321C214.832 143.321 214.351 143.517 213.991 143.909C213.636 144.301 213.426 144.843 213.362 145.536H217.279C217.279 144.821 217.12 144.274 216.801 143.896C216.482 143.513 216.026 143.321 215.434 143.321ZM227.068 150.137C225.984 150.137 225.143 149.804 224.546 149.139C223.953 148.469 223.657 147.523 223.657 146.302C223.657 145.049 223.958 144.08 224.56 143.396C225.166 142.713 226.027 142.371 227.144 142.371C227.504 142.371 227.864 142.41 228.224 142.487C228.584 142.565 228.866 142.656 229.071 142.761L228.723 143.725C228.472 143.624 228.199 143.542 227.902 143.479C227.606 143.41 227.344 143.376 227.116 143.376C225.594 143.376 224.833 144.347 224.833 146.288C224.833 147.209 225.018 147.915 225.387 148.407C225.76 148.899 226.312 149.146 227.041 149.146C227.665 149.146 228.306 149.011 228.962 148.742V149.747C228.461 150.007 227.829 150.137 227.068 150.137ZM235.798 143.479H233.364V150H232.229V143.479H229.823V142.508H235.798V143.479ZM243.748 146.247C243.748 147.468 243.44 148.423 242.825 149.111C242.21 149.795 241.36 150.137 240.275 150.137C239.605 150.137 239.011 149.979 238.491 149.665C237.972 149.351 237.571 148.899 237.288 148.312C237.006 147.724 236.864 147.035 236.864 146.247C236.864 145.026 237.17 144.076 237.78 143.396C238.391 142.713 239.239 142.371 240.323 142.371C241.371 142.371 242.203 142.72 242.818 143.417C243.438 144.114 243.748 145.058 243.748 146.247ZM238.04 146.247C238.04 147.204 238.231 147.933 238.614 148.435C238.997 148.936 239.56 149.187 240.303 149.187C241.046 149.187 241.608 148.938 241.991 148.441C242.379 147.94 242.572 147.209 242.572 146.247C242.572 145.295 242.379 144.572 241.991 144.08C241.608 143.583 241.041 143.335 240.289 143.335C239.546 143.335 238.986 143.579 238.607 144.066C238.229 144.554 238.04 145.281 238.04 146.247ZM249.23 150.137C248.743 150.137 248.296 150.048 247.891 149.87C247.49 149.688 247.152 149.41 246.879 149.036H246.797C246.852 149.474 246.879 149.888 246.879 150.28V153.363H245.744V142.508H246.667L246.824 143.533H246.879C247.171 143.123 247.51 142.827 247.897 142.645C248.285 142.462 248.729 142.371 249.23 142.371C250.224 142.371 250.99 142.711 251.527 143.39C252.07 144.069 252.341 145.021 252.341 146.247C252.341 147.478 252.065 148.435 251.514 149.118C250.967 149.797 250.206 150.137 249.23 150.137ZM249.066 143.335C248.301 143.335 247.747 143.547 247.405 143.971C247.063 144.395 246.888 145.069 246.879 145.994V146.247C246.879 147.3 247.054 148.054 247.405 148.51C247.756 148.961 248.319 149.187 249.094 149.187C249.741 149.187 250.247 148.924 250.611 148.4C250.98 147.876 251.165 147.154 251.165 146.233C251.165 145.299 250.98 144.584 250.611 144.087C250.247 143.586 249.732 143.335 249.066 143.335ZM260.797 146.247C260.797 147.468 260.489 148.423 259.874 149.111C259.259 149.795 258.409 150.137 257.324 150.137C256.654 150.137 256.06 149.979 255.54 149.665C255.021 149.351 254.619 148.899 254.337 148.312C254.054 147.724 253.913 147.035 253.913 146.247C253.913 145.026 254.218 144.076 254.829 143.396C255.44 142.713 256.287 142.371 257.372 142.371C258.42 142.371 259.252 142.72 259.867 143.417C260.487 144.114 260.797 145.058 260.797 146.247ZM255.089 146.247C255.089 147.204 255.28 147.933 255.663 148.435C256.046 148.936 256.609 149.187 257.352 149.187C258.094 149.187 258.657 148.938 259.04 148.441C259.427 147.94 259.621 147.209 259.621 146.247C259.621 145.295 259.427 144.572 259.04 144.08C258.657 143.583 258.09 143.335 257.338 143.335C256.595 143.335 256.035 143.579 255.656 144.066C255.278 144.554 255.089 145.281 255.089 146.247ZM263.928 142.508V145.646H268.125V142.508H269.26V150H268.125V146.623H263.928V150H262.793V142.508H263.928ZM272.801 142.508V145.646H276.998V142.508H278.133V150H276.998V146.623H272.801V150H271.666V142.508H272.801ZM281.605 142.508V147.259L281.558 148.503L281.537 148.893L285.591 142.508H287.006V150H285.946V145.42L285.967 144.518L286.001 143.629L281.954 150H280.539V142.508H281.605ZM291.217 146.165L288.612 142.508H289.904L291.88 145.379L293.849 142.508H295.127L292.522 146.165L295.264 150H293.979L291.88 146.965L289.761 150H288.476L291.217 146.165ZM164.67 165.247C164.67 166.468 164.362 167.423 163.747 168.111C163.132 168.795 162.282 169.137 161.197 169.137C160.527 169.137 159.933 168.979 159.413 168.665C158.894 168.351 158.493 167.899 158.21 167.312C157.927 166.724 157.786 166.035 157.786 165.247C157.786 164.026 158.091 163.076 158.702 162.396C159.313 161.713 160.16 161.371 161.245 161.371C162.293 161.371 163.125 161.72 163.74 162.417C164.36 163.114 164.67 164.058 164.67 165.247ZM158.962 165.247C158.962 166.204 159.153 166.933 159.536 167.435C159.919 167.936 160.482 168.187 161.225 168.187C161.967 168.187 162.53 167.938 162.913 167.441C163.3 166.94 163.494 166.209 163.494 165.247C163.494 164.295 163.3 163.572 162.913 163.08C162.53 162.583 161.963 162.335 161.211 162.335C160.468 162.335 159.908 162.579 159.529 163.066C159.151 163.554 158.962 164.281 158.962 165.247ZM170.152 169.137C169.665 169.137 169.218 169.048 168.812 168.87C168.411 168.688 168.074 168.41 167.801 168.036H167.719C167.773 168.474 167.801 168.888 167.801 169.28V172.363H166.666V161.508H167.589L167.746 162.533H167.801C168.092 162.123 168.432 161.827 168.819 161.645C169.207 161.462 169.651 161.371 170.152 161.371C171.146 161.371 171.911 161.711 172.449 162.39C172.992 163.069 173.263 164.021 173.263 165.247C173.263 166.478 172.987 167.435 172.436 168.118C171.889 168.797 171.128 169.137 170.152 169.137ZM169.988 162.335C169.223 162.335 168.669 162.547 168.327 162.971C167.985 163.395 167.81 164.069 167.801 164.994V165.247C167.801 166.3 167.976 167.054 168.327 167.51C168.678 167.961 169.241 168.187 170.016 168.187C170.663 168.187 171.169 167.924 171.533 167.4C171.902 166.876 172.087 166.154 172.087 165.233C172.087 164.299 171.902 163.584 171.533 163.087C171.169 162.586 170.654 162.335 169.988 162.335ZM179.764 162.479H176.387V169H175.252V161.508H179.764V162.479ZM185.861 169L185.636 167.934H185.581C185.207 168.403 184.834 168.722 184.46 168.891C184.091 169.055 183.628 169.137 183.072 169.137C182.329 169.137 181.746 168.945 181.322 168.562C180.903 168.18 180.693 167.635 180.693 166.929C180.693 165.416 181.903 164.623 184.323 164.55L185.595 164.509V164.044C185.595 163.456 185.467 163.023 185.212 162.745C184.961 162.463 184.558 162.321 184.002 162.321C183.378 162.321 182.671 162.513 181.883 162.896L181.534 162.027C181.903 161.827 182.307 161.67 182.744 161.556C183.186 161.442 183.628 161.385 184.07 161.385C184.964 161.385 185.624 161.583 186.053 161.979C186.486 162.376 186.702 163.012 186.702 163.887V169H185.861ZM183.298 168.2C184.004 168.2 184.558 168.007 184.959 167.619C185.365 167.232 185.567 166.689 185.567 165.992V165.315L184.433 165.363C183.53 165.395 182.879 165.536 182.478 165.787C182.081 166.033 181.883 166.418 181.883 166.942C181.883 167.353 182.006 167.665 182.252 167.879C182.503 168.093 182.851 168.2 183.298 168.2ZM190.182 161.508V164.646H194.379V161.508H195.514V169H194.379V165.623H190.182V169H189.047V161.508H190.182ZM198.986 161.508V166.259L198.938 167.503L198.918 167.893L202.972 161.508H204.387V169H203.327V164.42L203.348 163.518L203.382 162.629L199.335 169H197.92V161.508H198.986ZM208.222 164.618C209.639 164.618 210.348 164.226 210.348 163.442C210.348 162.704 209.773 162.335 208.625 162.335C208.274 162.335 207.955 162.367 207.668 162.431C207.381 162.494 207.005 162.622 206.54 162.813L206.137 161.891C206.911 161.544 207.757 161.371 208.673 161.371C209.534 161.371 210.213 161.549 210.71 161.904C211.207 162.255 211.455 162.736 211.455 163.347C211.455 164.185 210.988 164.734 210.054 164.994V165.049C210.628 165.217 211.047 165.459 211.312 165.773C211.576 166.083 211.708 166.473 211.708 166.942C211.708 167.635 211.428 168.175 210.867 168.562C210.311 168.945 209.541 169.137 208.557 169.137C207.477 169.137 206.643 168.975 206.055 168.651V167.612C206.889 168.004 207.732 168.2 208.584 168.2C209.24 168.2 209.735 168.089 210.067 167.865C210.405 167.637 210.573 167.312 210.573 166.888C210.573 166.017 209.865 165.582 208.447 165.582H207.408V164.618H208.222ZM218.168 169L217.942 167.934H217.888C217.514 168.403 217.14 168.722 216.767 168.891C216.397 169.055 215.935 169.137 215.379 169.137C214.636 169.137 214.053 168.945 213.629 168.562C213.21 168.18 213 167.635 213 166.929C213 165.416 214.21 164.623 216.63 164.55L217.901 164.509V164.044C217.901 163.456 217.774 163.023 217.519 162.745C217.268 162.463 216.865 162.321 216.309 162.321C215.684 162.321 214.978 162.513 214.189 162.896L213.841 162.027C214.21 161.827 214.613 161.67 215.051 161.556C215.493 161.442 215.935 161.385 216.377 161.385C217.27 161.385 217.931 161.583 218.359 161.979C218.792 162.376 219.009 163.012 219.009 163.887V169H218.168ZM215.604 168.2C216.311 168.2 216.865 168.007 217.266 167.619C217.671 167.232 217.874 166.689 217.874 165.992V165.315L216.739 165.363C215.837 165.395 215.185 165.536 214.784 165.787C214.388 166.033 214.189 166.418 214.189 166.942C214.189 167.353 214.312 167.665 214.559 167.879C214.809 168.093 215.158 168.2 215.604 168.2ZM228.661 171.591H227.526V169H221.354V161.508H222.488V168.022H226.467V161.508H227.602V168.022H228.661V171.591ZM231.184 161.508V166.259L231.136 167.503L231.115 167.893L235.169 161.508H236.584V169H235.524V164.42L235.545 163.518L235.579 162.629L231.532 169H230.117V161.508H231.184ZM240.057 161.508V166.259L240.009 167.503L239.988 167.893L244.042 161.508H245.457V169H244.397V164.42L244.418 163.518L244.452 162.629L240.405 169H238.99V161.508H240.057ZM242.196 160.517C241.353 160.517 240.738 160.355 240.351 160.031C239.963 159.703 239.747 159.165 239.701 158.418H240.768C240.809 158.892 240.932 159.222 241.137 159.409C241.346 159.596 241.709 159.689 242.224 159.689C242.693 159.689 243.039 159.589 243.263 159.389C243.491 159.188 243.63 158.865 243.68 158.418H244.753C244.698 159.138 244.468 159.669 244.062 160.011C243.657 160.348 243.035 160.517 242.196 160.517Z" fill="#444444"/>
<rect x="61" y="118" width="72" height="72" fill="#FFD205"/>
<path d="M110.777 138.528H109.598V167.262C109.598 169.171 108.032 170.725 106.107 170.725H94.1623H84.6634V171.79C84.6634 173.01 85.6613 174 86.8907 174H98.8317H110.773C112.002 174 113 173.01 113 171.79V140.738C113 139.518 112.006 138.528 110.777 138.528Z" fill="white"/>
<path d="M94.1641 169.472H106.105C107.335 169.472 108.332 168.482 108.332 167.262V138.528V136.21C108.332 134.99 107.335 134 106.105 134H94.1641H90.1936V134.731C90.202 134.806 90.2062 134.886 90.2062 134.965V139.781V141.018C90.2062 142.734 88.7999 144.129 87.0694 144.129H85.8231H80.9684C80.9053 144.129 80.8379 144.125 80.7747 144.121H80V167.262C80 168.482 80.9979 169.472 82.2274 169.472H84.6694H94.1641ZM94.6146 161.962H86.8294C86.2484 161.962 85.7768 161.494 85.7768 160.917C85.7768 160.341 86.2484 159.873 86.8294 159.873H94.6188C95.1999 159.873 95.6715 160.341 95.6715 160.917C95.6715 161.494 95.1957 161.962 94.6146 161.962ZM102.404 156.632H86.8294C86.2484 156.632 85.7768 156.164 85.7768 155.587C85.7768 155.011 86.2484 154.543 86.8294 154.543H102.404C102.985 154.543 103.457 155.011 103.457 155.587C103.457 156.164 102.985 156.632 102.404 156.632ZM86.8294 148.883H102.404C102.985 148.883 103.457 149.351 103.457 149.927C103.457 150.504 102.985 150.972 102.404 150.972H86.8294C86.2484 150.972 85.7768 150.504 85.7768 149.927C85.7768 149.351 86.2484 148.883 86.8294 148.883Z" fill="white"/>
<path d="M80.9607 142.87H87.0617C87.0659 142.87 87.0743 142.87 87.0785 142.87C88.0974 142.861 88.9227 142.043 88.9311 141.032C88.9311 141.028 88.9311 141.019 88.9311 141.015V134.958C88.9311 134.399 88.468 134.027 87.988 134.027C87.7564 134.027 87.5249 134.11 87.3312 134.302L80.2954 141.282C79.7059 141.867 80.1228 142.87 80.9607 142.87Z" fill="white"/>
<g filter="url(#filter1_d)">
<rect x="61" y="206" width="282" height="72" fill="white"/>
</g>
<path d="M160.192 237.901C159.409 237.901 158.647 238.075 157.909 238.421L157.417 237.437C158.201 237.054 159.131 236.862 160.206 236.862C161.195 236.862 162.045 237.063 162.756 237.464C163.471 237.865 164.014 238.437 164.383 239.18C164.752 239.923 164.937 240.798 164.937 241.805C164.937 243.518 164.522 244.835 163.692 245.756C162.863 246.676 161.669 247.137 160.11 247.137C159.076 247.137 158.203 247.007 157.492 246.747V245.729C157.87 245.824 158.256 245.911 158.647 245.988C159.039 246.066 159.461 246.104 159.912 246.104C161.147 246.104 162.079 245.776 162.708 245.12C163.337 244.459 163.67 243.509 163.706 242.27H158.791V241.23H163.692C163.592 240.187 163.232 239.371 162.612 238.783C161.997 238.195 161.19 237.901 160.192 237.901ZM172.606 247H171.458V240.479H169.209C169.086 242.101 168.915 243.388 168.696 244.341C168.478 245.293 168.193 245.991 167.842 246.433C167.495 246.875 167.053 247.096 166.516 247.096C166.27 247.096 166.074 247.068 165.928 247.014V246.173C166.028 246.2 166.142 246.214 166.27 246.214C166.794 246.214 167.211 245.66 167.521 244.553C167.83 243.445 168.065 241.764 168.225 239.508H172.606V247ZM178.185 247.137C177.077 247.137 176.202 246.799 175.56 246.125C174.922 245.451 174.603 244.514 174.603 243.315C174.603 242.108 174.899 241.148 175.491 240.438C176.088 239.727 176.888 239.371 177.891 239.371C178.829 239.371 179.572 239.681 180.119 240.301C180.666 240.916 180.939 241.729 180.939 242.741V243.459H175.778C175.801 244.339 176.022 245.006 176.441 245.462C176.865 245.918 177.46 246.146 178.226 246.146C179.032 246.146 179.83 245.977 180.618 245.64V246.651C180.217 246.825 179.837 246.948 179.477 247.021C179.121 247.098 178.69 247.137 178.185 247.137ZM177.877 240.321C177.275 240.321 176.795 240.517 176.435 240.909C176.079 241.301 175.869 241.843 175.806 242.536H179.723C179.723 241.821 179.563 241.274 179.244 240.896C178.925 240.513 178.469 240.321 177.877 240.321ZM187.249 239.508H188.493L185.26 243.124L188.76 247H187.434L184.016 243.206V247H182.881V239.508H184.016V243.151L187.249 239.508ZM195.206 240.479H192.772V247H191.638V240.479H189.231V239.508H195.206V240.479ZM200.176 247.137C199.688 247.137 199.242 247.048 198.836 246.87C198.435 246.688 198.098 246.41 197.824 246.036H197.742C197.797 246.474 197.824 246.888 197.824 247.28V250.363H196.689V239.508H197.612L197.77 240.533H197.824C198.116 240.123 198.455 239.827 198.843 239.645C199.23 239.462 199.674 239.371 200.176 239.371C201.169 239.371 201.935 239.711 202.473 240.39C203.015 241.069 203.286 242.021 203.286 243.247C203.286 244.478 203.01 245.435 202.459 246.118C201.912 246.797 201.151 247.137 200.176 247.137ZM200.012 240.335C199.246 240.335 198.692 240.547 198.351 240.971C198.009 241.395 197.833 242.069 197.824 242.994V243.247C197.824 244.3 198 245.054 198.351 245.51C198.701 245.961 199.264 246.187 200.039 246.187C200.686 246.187 201.192 245.924 201.557 245.4C201.926 244.876 202.11 244.154 202.11 243.233C202.11 242.299 201.926 241.584 201.557 241.087C201.192 240.586 200.677 240.335 200.012 240.335ZM211.742 243.247C211.742 244.468 211.435 245.423 210.819 246.111C210.204 246.795 209.354 247.137 208.27 247.137C207.6 247.137 207.005 246.979 206.485 246.665C205.966 246.351 205.565 245.899 205.282 245.312C205 244.724 204.858 244.035 204.858 243.247C204.858 242.026 205.164 241.076 205.774 240.396C206.385 239.713 207.233 239.371 208.317 239.371C209.366 239.371 210.197 239.72 210.812 240.417C211.432 241.114 211.742 242.058 211.742 243.247ZM206.034 243.247C206.034 244.204 206.226 244.933 206.608 245.435C206.991 245.936 207.554 246.187 208.297 246.187C209.04 246.187 209.603 245.938 209.985 245.441C210.373 244.94 210.566 244.209 210.566 243.247C210.566 242.295 210.373 241.572 209.985 241.08C209.603 240.583 209.035 240.335 208.283 240.335C207.54 240.335 206.98 240.579 206.602 241.066C206.223 241.554 206.034 242.281 206.034 243.247ZM214.873 239.508V242.646H219.07V239.508H220.205V247H219.07V243.623H214.873V247H213.738V239.508H214.873ZM223.746 239.508V242.646H227.943V239.508H229.078V247H227.943V243.623H223.746V247H222.611V239.508H223.746ZM232.619 242.604H234.663C235.616 242.604 236.32 242.782 236.775 243.138C237.236 243.489 237.466 244.015 237.466 244.717C237.466 245.469 237.222 246.038 236.734 246.426C236.251 246.809 235.538 247 234.595 247H231.484V239.508H232.619V242.604ZM239.858 247H238.724V239.508H239.858V247ZM232.619 243.582V246.05H234.54C235.743 246.05 236.345 245.628 236.345 244.785C236.345 244.366 236.206 244.061 235.928 243.869C235.65 243.678 235.176 243.582 234.506 243.582H232.619ZM245.437 247.137C244.329 247.137 243.454 246.799 242.812 246.125C242.174 245.451 241.854 244.514 241.854 243.315C241.854 242.108 242.151 241.148 242.743 240.438C243.34 239.727 244.14 239.371 245.143 239.371C246.081 239.371 246.824 239.681 247.371 240.301C247.918 240.916 248.191 241.729 248.191 242.741V243.459H243.03C243.053 244.339 243.274 245.006 243.693 245.462C244.117 245.918 244.712 246.146 245.478 246.146C246.284 246.146 247.082 245.977 247.87 245.64V246.651C247.469 246.825 247.089 246.948 246.729 247.021C246.373 247.098 245.942 247.137 245.437 247.137ZM245.129 240.321C244.527 240.321 244.047 240.517 243.687 240.909C243.331 241.301 243.121 241.843 243.058 242.536H246.975C246.975 241.821 246.815 241.274 246.496 240.896C246.177 240.513 245.721 240.321 245.129 240.321ZM258.821 240.479H256.388V247H255.253V240.479H252.847V239.508H258.821V240.479ZM264.912 247L264.687 245.934H264.632C264.258 246.403 263.884 246.722 263.511 246.891C263.142 247.055 262.679 247.137 262.123 247.137C261.38 247.137 260.797 246.945 260.373 246.562C259.954 246.18 259.744 245.635 259.744 244.929C259.744 243.416 260.954 242.623 263.374 242.55L264.646 242.509V242.044C264.646 241.456 264.518 241.023 264.263 240.745C264.012 240.463 263.609 240.321 263.053 240.321C262.428 240.321 261.722 240.513 260.934 240.896L260.585 240.027C260.954 239.827 261.357 239.67 261.795 239.556C262.237 239.442 262.679 239.385 263.121 239.385C264.014 239.385 264.675 239.583 265.104 239.979C265.536 240.376 265.753 241.012 265.753 241.887V247H264.912ZM262.349 246.2C263.055 246.2 263.609 246.007 264.01 245.619C264.415 245.232 264.618 244.689 264.618 243.992V243.315L263.483 243.363C262.581 243.395 261.929 243.536 261.528 243.787C261.132 244.033 260.934 244.418 260.934 244.942C260.934 245.353 261.057 245.665 261.303 245.879C261.553 246.093 261.902 246.2 262.349 246.2ZM267.708 242.509C267.708 240.868 267.95 239.59 268.433 238.674C268.916 237.753 269.681 237.179 270.729 236.951C272.033 236.673 273.181 236.448 274.175 236.274L274.387 237.272C272.805 237.537 271.675 237.746 270.996 237.901C270.335 238.052 269.839 238.407 269.506 238.968C269.178 239.528 268.998 240.292 268.966 241.258H269.048C269.33 240.875 269.695 240.574 270.142 240.355C270.588 240.137 271.055 240.027 271.543 240.027C272.464 240.027 273.181 240.326 273.696 240.923C274.211 241.52 274.469 242.347 274.469 243.404C274.469 244.576 274.17 245.492 273.573 246.152C272.976 246.809 272.145 247.137 271.078 247.137C270.025 247.137 269.201 246.733 268.604 245.927C268.007 245.12 267.708 243.981 267.708 242.509ZM271.181 246.187C272.571 246.187 273.266 245.3 273.266 243.527C273.266 241.837 272.634 240.991 271.372 240.991C271.026 240.991 270.691 241.064 270.367 241.21C270.048 241.351 269.754 241.54 269.485 241.777C269.221 242.014 269.016 242.258 268.87 242.509C268.87 243.707 269.059 244.621 269.438 245.25C269.816 245.874 270.397 246.187 271.181 246.187ZM282.036 247H280.888V240.479H278.639C278.516 242.101 278.345 243.388 278.126 244.341C277.907 245.293 277.622 245.991 277.271 246.433C276.925 246.875 276.483 247.096 275.945 247.096C275.699 247.096 275.503 247.068 275.357 247.014V246.173C275.458 246.2 275.572 246.214 275.699 246.214C276.223 246.214 276.64 245.66 276.95 244.553C277.26 243.445 277.495 241.764 277.654 239.508H282.036V247ZM285.516 239.508V244.259L285.468 245.503L285.447 245.893L289.501 239.508H290.916V247H289.856V242.42L289.877 241.518L289.911 240.629L285.864 247H284.449V239.508H285.516ZM300.63 249.591H299.495V247H293.322V239.508H294.457V246.022H298.436V239.508H299.57V246.022H300.63V249.591ZM303.221 242.604H305.265C306.217 242.604 306.921 242.782 307.377 243.138C307.837 243.489 308.067 244.015 308.067 244.717C308.067 245.469 307.824 246.038 307.336 246.426C306.853 246.809 306.14 247 305.196 247H302.086V239.508H303.221V242.604ZM310.46 247H309.325V239.508H310.46V247ZM303.221 243.582V246.05H305.142C306.345 246.05 306.946 245.628 306.946 244.785C306.946 244.366 306.807 244.061 306.529 243.869C306.251 243.678 305.777 243.582 305.107 243.582H303.221Z" fill="#444444"/>
<rect x="61" y="206" width="72" height="72" fill="#FFD205"/>
<path d="M94.7304 261V244.273H78C78 253.508 85.4936 261 94.7304 261ZM91.5458 257.431C86.6331 256.239 82.7542 252.369 81.5694 247.457H91.5458V257.431Z" fill="white"/>
<path d="M98.2774 224C89.0331 224 81.5395 231.492 81.5395 240.727H98.2699V257.454C107.514 257.454 115 249.962 115 240.727C115 231.492 107.514 224 98.2774 224Z" fill="white"/>
<g filter="url(#filter2_d)">
<rect x="61" y="294" width="282" height="72" fill="white"/>
</g>
<path d="M167.097 335H165.948L163.932 328.308C163.836 328.011 163.729 327.638 163.61 327.187C163.492 326.735 163.43 326.464 163.426 326.373C163.326 326.975 163.166 327.633 162.947 328.349L160.992 335H159.844L157.185 325.006H158.415L159.994 331.179C160.213 332.045 160.372 332.828 160.473 333.53C160.596 332.696 160.778 331.881 161.02 331.083L162.811 325.006H164.041L165.921 331.138C166.14 331.844 166.324 332.642 166.475 333.53C166.561 332.883 166.725 332.095 166.967 331.165L168.539 325.006H169.77L167.097 335ZM176.906 335H171.335V325.006H176.906V326.038H172.497V329.258H176.64V330.283H172.497V333.961H176.906V335ZM179.128 325.006H181.951C183.277 325.006 184.237 325.204 184.829 325.601C185.422 325.997 185.718 326.624 185.718 327.48C185.718 328.073 185.551 328.563 185.219 328.95C184.891 329.333 184.41 329.581 183.776 329.695V329.764C185.294 330.023 186.053 330.821 186.053 332.156C186.053 333.049 185.75 333.747 185.144 334.248C184.542 334.749 183.699 335 182.614 335H179.128V325.006ZM180.29 329.285H182.204C183.024 329.285 183.615 329.158 183.975 328.902C184.335 328.643 184.515 328.207 184.515 327.597C184.515 327.036 184.314 326.633 183.913 326.387C183.512 326.136 182.874 326.011 181.999 326.011H180.29V329.285ZM180.29 330.27V334.009H182.375C183.182 334.009 183.788 333.854 184.193 333.544C184.604 333.229 184.809 332.74 184.809 332.074C184.809 331.454 184.599 330.999 184.18 330.707C183.765 330.415 183.132 330.27 182.279 330.27H180.29ZM187.406 331.767V330.728H190.763V331.767H187.406ZM193.613 327.508V332.259L193.565 333.503L193.545 333.893L197.599 327.508H199.014V335H197.954V330.42L197.975 329.518L198.009 328.629L193.962 335H192.547V327.508H193.613ZM202.555 327.508V330.646H206.752V327.508H207.887V335H206.752V331.623H202.555V335H201.42V327.508H202.555ZM215.345 328.479H212.911V335H211.776V328.479H209.37V327.508H215.345V328.479ZM219.993 335.137C218.886 335.137 218.011 334.799 217.368 334.125C216.73 333.451 216.411 332.514 216.411 331.315C216.411 330.108 216.707 329.148 217.3 328.438C217.897 327.727 218.697 327.371 219.699 327.371C220.638 327.371 221.381 327.681 221.928 328.301C222.475 328.916 222.748 329.729 222.748 330.741V331.459H217.587C217.61 332.339 217.831 333.006 218.25 333.462C218.674 333.918 219.269 334.146 220.034 334.146C220.841 334.146 221.638 333.977 222.427 333.64V334.651C222.026 334.825 221.645 334.948 221.285 335.021C220.93 335.098 220.499 335.137 219.993 335.137ZM219.686 328.321C219.084 328.321 218.603 328.517 218.243 328.909C217.888 329.301 217.678 329.843 217.614 330.536H221.531C221.531 329.821 221.372 329.274 221.053 328.896C220.734 328.513 220.278 328.321 219.686 328.321ZM228.176 335.137C227.688 335.137 227.242 335.048 226.836 334.87C226.435 334.688 226.098 334.41 225.824 334.036H225.742C225.797 334.474 225.824 334.888 225.824 335.28V338.363H224.689V327.508H225.612L225.77 328.533H225.824C226.116 328.123 226.455 327.827 226.843 327.645C227.23 327.462 227.674 327.371 228.176 327.371C229.169 327.371 229.935 327.711 230.473 328.39C231.015 329.069 231.286 330.021 231.286 331.247C231.286 332.478 231.01 333.435 230.459 334.118C229.912 334.797 229.151 335.137 228.176 335.137ZM228.012 328.335C227.246 328.335 226.692 328.547 226.351 328.971C226.009 329.395 225.833 330.069 225.824 330.994V331.247C225.824 332.3 226 333.054 226.351 333.51C226.701 333.961 227.264 334.187 228.039 334.187C228.686 334.187 229.192 333.924 229.557 333.4C229.926 332.876 230.11 332.154 230.11 331.233C230.11 330.299 229.926 329.584 229.557 329.087C229.192 328.586 228.677 328.335 228.012 328.335ZM241.301 331.247C241.301 332.382 240.977 333.286 240.33 333.961C239.688 334.631 238.787 335.014 237.63 335.109V338.363H236.509V335.109C235.379 335.023 234.485 334.635 233.829 333.947C233.173 333.259 232.845 332.359 232.845 331.247C232.845 330.112 233.171 329.21 233.822 328.54C234.479 327.87 235.388 327.49 236.55 327.398V324.363H237.63V327.398C238.774 327.503 239.672 327.897 240.323 328.581C240.975 329.265 241.301 330.153 241.301 331.247ZM234.034 331.247C234.034 332.122 234.235 332.808 234.636 333.305C235.037 333.801 235.675 334.091 236.55 334.173V328.349C235.707 328.426 235.076 328.702 234.656 329.176C234.242 329.645 234.034 330.336 234.034 331.247ZM240.125 331.247C240.125 329.502 239.293 328.54 237.63 328.362V334.173C238.496 334.086 239.127 333.795 239.523 333.298C239.924 332.801 240.125 332.118 240.125 331.247ZM246.448 335.137C245.341 335.137 244.466 334.799 243.823 334.125C243.185 333.451 242.866 332.514 242.866 331.315C242.866 330.108 243.162 329.148 243.755 328.438C244.352 327.727 245.152 327.371 246.154 327.371C247.093 327.371 247.836 327.681 248.383 328.301C248.93 328.916 249.203 329.729 249.203 330.741V331.459H244.042C244.065 332.339 244.286 333.006 244.705 333.462C245.129 333.918 245.724 334.146 246.489 334.146C247.296 334.146 248.093 333.977 248.882 333.64V334.651C248.481 334.825 248.1 334.948 247.74 335.021C247.385 335.098 246.954 335.137 246.448 335.137ZM246.141 328.321C245.539 328.321 245.058 328.517 244.698 328.909C244.343 329.301 244.133 329.843 244.069 330.536H247.986C247.986 329.821 247.827 329.274 247.508 328.896C247.189 328.513 246.733 328.321 246.141 328.321ZM252.211 327.508V332.259L252.163 333.503L252.143 333.893L256.196 327.508H257.611V335H256.552V330.42L256.572 329.518L256.606 328.629L252.56 335H251.145V327.508H252.211ZM254.351 326.517C253.507 326.517 252.892 326.355 252.505 326.031C252.118 325.703 251.901 325.165 251.855 324.418H252.922C252.963 324.892 253.086 325.222 253.291 325.409C253.501 325.596 253.863 325.689 254.378 325.689C254.847 325.689 255.194 325.589 255.417 325.389C255.645 325.188 255.784 324.865 255.834 324.418H256.907C256.853 325.138 256.622 325.669 256.217 326.011C255.811 326.348 255.189 326.517 254.351 326.517ZM263.012 335.137C261.927 335.137 261.086 334.804 260.489 334.139C259.897 333.469 259.601 332.523 259.601 331.302C259.601 330.049 259.901 329.08 260.503 328.396C261.109 327.713 261.97 327.371 263.087 327.371C263.447 327.371 263.807 327.41 264.167 327.487C264.527 327.565 264.81 327.656 265.015 327.761L264.666 328.725C264.415 328.624 264.142 328.542 263.846 328.479C263.549 328.41 263.287 328.376 263.06 328.376C261.537 328.376 260.776 329.347 260.776 331.288C260.776 332.209 260.961 332.915 261.33 333.407C261.704 333.899 262.255 334.146 262.984 334.146C263.609 334.146 264.249 334.011 264.905 333.742V334.747C264.404 335.007 263.773 335.137 263.012 335.137Z" fill="#444444"/>
<rect x="61" y="294" width="72" height="72" fill="#FFD205"/>
<path d="M97.5 313C87.8505 313 80 320.402 80 329.5C80 338.598 87.8505 346 97.5 346C107.149 346 115 338.598 115 329.5C115 320.402 107.149 313 97.5 313ZM91.8102 316.194C90.7554 317.549 89.9718 319.153 89.4112 320.728C88.3921 320.384 87.4488 319.972 86.6013 319.498C88.0647 318.081 89.835 316.947 91.8102 316.194ZM85.1197 321.166C86.2115 321.809 87.4464 322.356 88.7872 322.798C88.3451 324.56 88.0801 326.46 88.0091 328.424H82.3253C82.538 325.731 83.5427 323.243 85.1197 321.166ZM85.1196 337.834C83.5427 335.757 82.538 333.269 82.3252 330.576H88.009C88.0799 332.54 88.345 334.44 88.7871 336.202C87.4463 336.644 86.2115 337.191 85.1196 337.834ZM86.6014 339.502C87.4488 339.028 88.3922 338.616 89.4112 338.272C89.9718 339.846 90.7554 341.451 91.8103 342.806C89.835 342.053 88.0647 340.919 86.6014 339.502ZM96.3587 343.649C94.0018 342.834 92.413 339.912 91.5996 337.662C93.0926 337.326 94.696 337.121 96.3587 337.056V343.649ZM96.3587 334.902C94.4854 334.97 92.6717 335.205 90.978 335.593C90.5936 334.026 90.3602 332.333 90.2925 330.576H96.3587V334.902V334.902ZM96.3587 328.424H90.2925C90.3601 326.667 90.5935 324.974 90.978 323.407C92.6717 323.794 94.4854 324.03 96.3587 324.098V328.424V328.424ZM96.3587 321.944C94.696 321.879 93.0927 321.673 91.5996 321.338C92.4124 319.089 94.0011 316.167 96.3587 315.351V321.944ZM109.88 321.166C111.457 323.243 112.462 325.731 112.675 328.424H106.991C106.92 326.46 106.655 324.56 106.213 322.798C107.554 322.356 108.788 321.809 109.88 321.166ZM108.399 319.498C107.551 319.972 106.608 320.384 105.589 320.728C105.028 319.154 104.245 317.549 103.19 316.194C105.165 316.947 106.935 318.081 108.399 319.498ZM98.6413 315.351C100.998 316.166 102.587 319.088 103.4 321.338C101.907 321.674 100.304 321.879 98.6413 321.944V315.351ZM98.6413 324.098C100.515 324.03 102.328 323.795 104.022 323.407C104.406 324.974 104.64 326.667 104.708 328.424H98.6413V324.098ZM98.6413 330.569H104.708C104.64 332.325 104.406 334.026 104.022 335.593C102.328 335.205 100.515 334.97 98.6413 334.902V330.569ZM98.6413 343.649V337.056C100.304 337.121 101.907 337.327 103.4 337.662C102.588 339.91 100.999 342.833 98.6413 343.649ZM103.19 342.806C104.245 341.451 105.028 339.847 105.589 338.272C106.608 338.616 107.551 339.028 108.399 339.502C106.935 340.919 105.165 342.053 103.19 342.806ZM109.88 337.834C108.789 337.191 107.554 336.644 106.213 336.202C106.655 334.44 106.92 332.533 106.991 330.569H112.675C112.462 333.262 111.457 335.757 109.88 337.834Z" fill="white"/>
<g filter="url(#filter3_d)">
<rect x="546" y="158" width="160" height="160" fill="white"/>
</g>
<path d="M561.782 270H560.374L555.753 264.935V270H554.591V260.006H555.753V264.846L560.258 260.006H561.591L557.168 264.859L561.782 270ZM569.459 266.247C569.459 267.468 569.151 268.423 568.536 269.111C567.921 269.795 567.071 270.137 565.986 270.137C565.316 270.137 564.722 269.979 564.202 269.665C563.683 269.351 563.282 268.899 562.999 268.312C562.716 267.724 562.575 267.035 562.575 266.247C562.575 265.026 562.881 264.076 563.491 263.396C564.102 262.713 564.95 262.371 566.034 262.371C567.082 262.371 567.914 262.72 568.529 263.417C569.149 264.114 569.459 265.058 569.459 266.247ZM563.751 266.247C563.751 267.204 563.942 267.933 564.325 268.435C564.708 268.936 565.271 269.187 566.014 269.187C566.757 269.187 567.319 268.938 567.702 268.441C568.09 267.94 568.283 267.209 568.283 266.247C568.283 265.295 568.09 264.572 567.702 264.08C567.319 263.583 566.752 263.335 566 263.335C565.257 263.335 564.697 263.579 564.318 264.066C563.94 264.554 563.751 265.281 563.751 266.247ZM572.59 262.508V265.646H576.787V262.508H577.922V270H576.787V266.623H572.59V270H571.455V262.508H572.59ZM583.322 270.137C582.238 270.137 581.397 269.804 580.8 269.139C580.207 268.469 579.911 267.523 579.911 266.302C579.911 265.049 580.212 264.08 580.813 263.396C581.42 262.713 582.281 262.371 583.397 262.371C583.757 262.371 584.118 262.41 584.478 262.487C584.838 262.565 585.12 262.656 585.325 262.761L584.977 263.725C584.726 263.624 584.452 263.542 584.156 263.479C583.86 263.41 583.598 263.376 583.37 263.376C581.848 263.376 581.087 264.347 581.087 266.288C581.087 267.209 581.271 267.915 581.641 268.407C582.014 268.899 582.566 269.146 583.295 269.146C583.919 269.146 584.56 269.011 585.216 268.742V269.747C584.715 270.007 584.083 270.137 583.322 270.137ZM593.467 266.247C593.467 267.468 593.159 268.423 592.544 269.111C591.929 269.795 591.079 270.137 589.994 270.137C589.324 270.137 588.729 269.979 588.21 269.665C587.69 269.351 587.289 268.899 587.007 268.312C586.724 267.724 586.583 267.035 586.583 266.247C586.583 265.026 586.888 264.076 587.499 263.396C588.11 262.713 588.957 262.371 590.042 262.371C591.09 262.371 591.922 262.72 592.537 263.417C593.157 264.114 593.467 265.058 593.467 266.247ZM587.759 266.247C587.759 267.204 587.95 267.933 588.333 268.435C588.716 268.936 589.279 269.187 590.021 269.187C590.764 269.187 591.327 268.938 591.71 268.441C592.097 267.94 592.291 267.209 592.291 266.247C592.291 265.295 592.097 264.572 591.71 264.08C591.327 263.583 590.76 263.335 590.008 263.335C589.265 263.335 588.704 263.579 588.326 264.066C587.948 264.554 587.759 265.281 587.759 266.247ZM601.048 270H599.899V263.479H597.65C597.527 265.101 597.356 266.388 597.138 267.341C596.919 268.293 596.634 268.991 596.283 269.433C595.937 269.875 595.495 270.096 594.957 270.096C594.711 270.096 594.515 270.068 594.369 270.014V269.173C594.469 269.2 594.583 269.214 594.711 269.214C595.235 269.214 595.652 268.66 595.962 267.553C596.272 266.445 596.507 264.764 596.666 262.508H601.048V270ZM604.527 262.508V267.259L604.479 268.503L604.459 268.893L608.513 262.508H609.928V270H608.868V265.42L608.889 264.518L608.923 263.629L604.876 270H603.461V262.508H604.527ZM618.842 272.591H617.741V270H612.505V272.591H611.411V269.022H611.999C612.61 268.193 613.088 267.22 613.435 266.104C613.781 264.987 613.961 263.788 613.975 262.508H617.769V269.022H618.842V272.591ZM616.675 269.022V263.403H614.993C614.934 264.415 614.738 265.44 614.405 266.479C614.077 267.514 613.667 268.362 613.175 269.022H616.675ZM621.412 262.508V267.259L621.364 268.503L621.344 268.893L625.397 262.508H626.812V270H625.753V265.42L625.773 264.518L625.808 263.629L621.761 270H620.346V262.508H621.412ZM632.705 270.137C632.217 270.137 631.771 270.048 631.365 269.87C630.964 269.688 630.627 269.41 630.354 269.036H630.271C630.326 269.474 630.354 269.888 630.354 270.28V273.363H629.219V262.508H630.142L630.299 263.533H630.354C630.645 263.123 630.985 262.827 631.372 262.645C631.759 262.462 632.204 262.371 632.705 262.371C633.699 262.371 634.464 262.711 635.002 263.39C635.544 264.069 635.815 265.021 635.815 266.247C635.815 267.478 635.54 268.435 634.988 269.118C634.441 269.797 633.68 270.137 632.705 270.137ZM632.541 263.335C631.775 263.335 631.222 263.547 630.88 263.971C630.538 264.395 630.363 265.069 630.354 265.994V266.247C630.354 267.3 630.529 268.054 630.88 268.51C631.231 268.961 631.794 269.187 632.568 269.187C633.215 269.187 633.721 268.924 634.086 268.4C634.455 267.876 634.64 267.154 634.64 266.233C634.64 265.299 634.455 264.584 634.086 264.087C633.721 263.586 633.206 263.335 632.541 263.335ZM644.271 266.247C644.271 267.468 643.964 268.423 643.349 269.111C642.733 269.795 641.883 270.137 640.799 270.137C640.129 270.137 639.534 269.979 639.015 269.665C638.495 269.351 638.094 268.899 637.812 268.312C637.529 267.724 637.388 267.035 637.388 266.247C637.388 265.026 637.693 264.076 638.304 263.396C638.914 262.713 639.762 262.371 640.847 262.371C641.895 262.371 642.727 262.72 643.342 263.417C643.962 264.114 644.271 265.058 644.271 266.247ZM638.563 266.247C638.563 267.204 638.755 267.933 639.138 268.435C639.521 268.936 640.083 269.187 640.826 269.187C641.569 269.187 642.132 268.938 642.515 268.441C642.902 267.94 643.096 267.209 643.096 266.247C643.096 265.295 642.902 264.572 642.515 264.08C642.132 263.583 641.564 263.335 640.812 263.335C640.07 263.335 639.509 263.579 639.131 264.066C638.753 264.554 638.563 265.281 638.563 266.247ZM652.345 264.388C652.345 264.875 652.203 265.247 651.921 265.502C651.643 265.753 651.251 265.921 650.745 266.008V266.069C651.383 266.156 651.848 266.343 652.14 266.63C652.436 266.917 652.584 267.313 652.584 267.819C652.584 268.517 652.326 269.054 651.812 269.433C651.301 269.811 650.554 270 649.569 270H646.268V262.508H649.556C651.415 262.508 652.345 263.134 652.345 264.388ZM651.449 267.744C651.449 267.339 651.294 267.045 650.984 266.862C650.679 266.675 650.171 266.582 649.46 266.582H647.402V269.05H649.487C650.795 269.05 651.449 268.615 651.449 267.744ZM651.237 264.497C651.237 264.132 651.096 263.875 650.813 263.725C650.535 263.57 650.112 263.492 649.542 263.492H647.402V265.604H649.323C650.025 265.604 650.52 265.518 650.807 265.345C651.094 265.172 651.237 264.889 651.237 264.497ZM658.846 270L658.62 268.934H658.565C658.192 269.403 657.818 269.722 657.444 269.891C657.075 270.055 656.613 270.137 656.057 270.137C655.314 270.137 654.73 269.945 654.307 269.562C653.887 269.18 653.678 268.635 653.678 267.929C653.678 266.416 654.888 265.623 657.308 265.55L658.579 265.509V265.044C658.579 264.456 658.451 264.023 658.196 263.745C657.946 263.463 657.542 263.321 656.986 263.321C656.362 263.321 655.656 263.513 654.867 263.896L654.519 263.027C654.888 262.827 655.291 262.67 655.729 262.556C656.171 262.442 656.613 262.385 657.055 262.385C657.948 262.385 658.609 262.583 659.037 262.979C659.47 263.376 659.687 264.012 659.687 264.887V270H658.846ZM656.282 269.2C656.989 269.2 657.542 269.007 657.943 268.619C658.349 268.232 658.552 267.689 658.552 266.992V266.315L657.417 266.363C656.515 266.395 655.863 266.536 655.462 266.787C655.065 267.033 654.867 267.418 654.867 267.942C654.867 268.353 654.99 268.665 655.236 268.879C655.487 269.093 655.836 269.2 656.282 269.2ZM663.166 262.508V265.646H667.363V262.508H668.498V270H667.363V266.623H663.166V270H662.031V262.508H663.166ZM672.039 262.508V265.646H676.236V262.508H677.371V270H676.236V266.623H672.039V270H670.904V262.508H672.039ZM684.385 270L684.159 268.934H684.104C683.731 269.403 683.357 269.722 682.983 269.891C682.614 270.055 682.152 270.137 681.596 270.137C680.853 270.137 680.27 269.945 679.846 269.562C679.426 269.18 679.217 268.635 679.217 267.929C679.217 266.416 680.427 265.623 682.847 265.55L684.118 265.509V265.044C684.118 264.456 683.991 264.023 683.735 263.745C683.485 263.463 683.081 263.321 682.525 263.321C681.901 263.321 681.195 263.513 680.406 263.896L680.058 263.027C680.427 262.827 680.83 262.67 681.268 262.556C681.71 262.442 682.152 262.385 682.594 262.385C683.487 262.385 684.148 262.583 684.576 262.979C685.009 263.376 685.226 264.012 685.226 264.887V270H684.385ZM681.821 269.2C682.528 269.2 683.081 269.007 683.482 268.619C683.888 268.232 684.091 267.689 684.091 266.992V266.315L682.956 266.363C682.054 266.395 681.402 266.536 681.001 266.787C680.604 267.033 680.406 267.418 680.406 267.942C680.406 268.353 680.529 268.665 680.775 268.879C681.026 269.093 681.375 269.2 681.821 269.2ZM687.946 270H686.62L688.773 266.835C688.195 266.707 687.75 266.461 687.44 266.097C687.135 265.728 686.982 265.265 686.982 264.709C686.982 264.025 687.213 263.488 687.673 263.096C688.133 262.704 688.776 262.508 689.601 262.508H692.937V270H691.802V267.006H689.908L687.946 270ZM688.09 264.723C688.09 265.589 688.719 266.021 689.977 266.021H691.802V263.492H689.744C688.641 263.492 688.09 263.902 688.09 264.723ZM568.071 285.247C568.071 286.468 567.764 287.423 567.148 288.111C566.533 288.795 565.683 289.137 564.599 289.137C563.929 289.137 563.334 288.979 562.814 288.665C562.295 288.351 561.894 287.899 561.611 287.312C561.329 286.724 561.188 286.035 561.188 285.247C561.188 284.026 561.493 283.076 562.104 282.396C562.714 281.713 563.562 281.371 564.646 281.371C565.695 281.371 566.526 281.72 567.142 282.417C567.761 283.114 568.071 284.058 568.071 285.247ZM562.363 285.247C562.363 286.204 562.555 286.933 562.938 287.435C563.32 287.936 563.883 288.187 564.626 288.187C565.369 288.187 565.932 287.938 566.314 287.441C566.702 286.94 566.896 286.209 566.896 285.247C566.896 284.295 566.702 283.572 566.314 283.08C565.932 282.583 565.364 282.335 564.612 282.335C563.869 282.335 563.309 282.579 562.931 283.066C562.552 283.554 562.363 284.281 562.363 285.247ZM575.119 282.479H572.686V289H571.551V282.479H569.145V281.508H575.119V282.479ZM577.601 281.508V284.242C577.601 285.117 578.1 285.555 579.098 285.555C579.512 285.555 579.909 285.491 580.287 285.363C580.665 285.236 581.094 285.019 581.572 284.714V281.508H582.707V289H581.572V285.609C581.094 285.938 580.649 286.17 580.239 286.307C579.834 286.439 579.373 286.505 578.858 286.505C578.111 286.505 577.525 286.309 577.102 285.917C576.678 285.525 576.466 284.994 576.466 284.324V281.508H577.601ZM588.285 289.137C587.178 289.137 586.303 288.799 585.66 288.125C585.022 287.451 584.703 286.514 584.703 285.315C584.703 284.108 584.999 283.148 585.592 282.438C586.189 281.727 586.989 281.371 587.991 281.371C588.93 281.371 589.673 281.681 590.22 282.301C590.767 282.916 591.04 283.729 591.04 284.741V285.459H585.879C585.902 286.339 586.123 287.006 586.542 287.462C586.966 287.918 587.561 288.146 588.326 288.146C589.133 288.146 589.93 287.977 590.719 287.64V288.651C590.318 288.825 589.937 288.948 589.577 289.021C589.222 289.098 588.791 289.137 588.285 289.137ZM587.978 282.321C587.376 282.321 586.895 282.517 586.535 282.909C586.18 283.301 585.97 283.843 585.906 284.536H589.823C589.823 283.821 589.664 283.274 589.345 282.896C589.026 282.513 588.57 282.321 587.978 282.321ZM598.033 282.479H595.6V289H594.465V282.479H592.059V281.508H598.033V282.479ZM600.651 281.508V284.646H604.849V281.508H605.983V289H604.849V285.623H600.651V289H599.517V281.508H600.651ZM614.856 285.247C614.856 286.468 614.549 287.423 613.934 288.111C613.318 288.795 612.468 289.137 611.384 289.137C610.714 289.137 610.119 288.979 609.6 288.665C609.08 288.351 608.679 287.899 608.396 287.312C608.114 286.724 607.973 286.035 607.973 285.247C607.973 284.026 608.278 283.076 608.889 282.396C609.499 281.713 610.347 281.371 611.432 281.371C612.48 281.371 613.312 281.72 613.927 282.417C614.547 283.114 614.856 284.058 614.856 285.247ZM609.148 285.247C609.148 286.204 609.34 286.933 609.723 287.435C610.105 287.936 610.668 288.187 611.411 288.187C612.154 288.187 612.717 287.938 613.1 287.441C613.487 286.94 613.681 286.209 613.681 285.247C613.681 284.295 613.487 283.572 613.1 283.08C612.717 282.583 612.149 282.335 611.397 282.335C610.655 282.335 610.094 282.579 609.716 283.066C609.338 283.554 609.148 284.281 609.148 285.247ZM619.847 289.137C618.762 289.137 617.921 288.804 617.324 288.139C616.732 287.469 616.436 286.523 616.436 285.302C616.436 284.049 616.736 283.08 617.338 282.396C617.944 281.713 618.805 281.371 619.922 281.371C620.282 281.371 620.642 281.41 621.002 281.487C621.362 281.565 621.645 281.656 621.85 281.761L621.501 282.725C621.25 282.624 620.977 282.542 620.681 282.479C620.384 282.41 620.122 282.376 619.895 282.376C618.372 282.376 617.611 283.347 617.611 285.288C617.611 286.209 617.796 286.915 618.165 287.407C618.539 287.899 619.09 288.146 619.819 288.146C620.444 288.146 621.084 288.011 621.74 287.742V288.747C621.239 289.007 620.608 289.137 619.847 289.137ZM628.576 282.479H626.143V289H625.008V282.479H622.602V281.508H628.576V282.479ZM631.194 284.604H633.505C635.419 284.604 636.376 285.309 636.376 286.717C636.376 287.455 636.125 288.02 635.624 288.412C635.127 288.804 634.398 289 633.437 289H630.06V281.508H631.194V284.604ZM631.194 285.582V288.05H633.382C633.983 288.05 634.444 287.945 634.763 287.735C635.082 287.526 635.241 287.209 635.241 286.785C635.241 286.37 635.093 286.067 634.797 285.876C634.505 285.68 634.022 285.582 633.348 285.582H631.194ZM646.493 282.479H643.116V289H641.981V281.508H646.493V282.479ZM651.47 289.137C650.982 289.137 650.535 289.048 650.13 288.87C649.729 288.688 649.392 288.41 649.118 288.036H649.036C649.091 288.474 649.118 288.888 649.118 289.28V292.363H647.983V281.508H648.906L649.063 282.533H649.118C649.41 282.123 649.749 281.827 650.137 281.645C650.524 281.462 650.968 281.371 651.47 281.371C652.463 281.371 653.229 281.711 653.767 282.39C654.309 283.069 654.58 284.021 654.58 285.247C654.58 286.478 654.304 287.435 653.753 288.118C653.206 288.797 652.445 289.137 651.47 289.137ZM651.306 282.335C650.54 282.335 649.986 282.547 649.645 282.971C649.303 283.395 649.127 284.069 649.118 284.994V285.247C649.118 286.3 649.294 287.054 649.645 287.51C649.995 287.961 650.558 288.187 651.333 288.187C651.98 288.187 652.486 287.924 652.851 287.4C653.22 286.876 653.404 286.154 653.404 285.233C653.404 284.299 653.22 283.584 652.851 283.087C652.486 282.586 651.971 282.335 651.306 282.335ZM655.38 281.508H656.597L658.237 285.78C658.597 286.756 658.821 287.46 658.907 287.893H658.962C659.021 287.66 659.144 287.264 659.331 286.703C659.522 286.138 660.142 284.406 661.19 281.508H662.407L659.188 290.039C658.868 290.882 658.495 291.479 658.066 291.83C657.643 292.186 657.121 292.363 656.501 292.363C656.155 292.363 655.813 292.325 655.476 292.247V291.338C655.726 291.393 656.007 291.42 656.316 291.42C657.096 291.42 657.652 290.982 657.984 290.107L658.401 289.041L655.38 281.508ZM664.759 289H663.624V281.508H669.913V289H668.765V282.492H664.759V289ZM673.454 289H672.319V281.508H678.608V289H677.46V282.492H673.454V289ZM682.149 284.604H684.193C685.146 284.604 685.85 284.782 686.306 285.138C686.766 285.489 686.996 286.015 686.996 286.717C686.996 287.469 686.752 288.038 686.265 288.426C685.782 288.809 685.068 289 684.125 289H681.015V281.508H682.149V284.604ZM689.389 289H688.254V281.508H689.389V289ZM682.149 285.582V288.05H684.07C685.273 288.05 685.875 287.628 685.875 286.785C685.875 286.366 685.736 286.061 685.458 285.869C685.18 285.678 684.706 285.582 684.036 285.582H682.149Z" fill="#444444"/>
<path d="M546.002 240.5L531.002 231.84V249.16L546.002 240.5ZM532.502 239L438.998 239V242L532.502 242V239Z" fill="#FFD205"/>
<line x1="343" y1="152.5" x2="439" y2="152.5" stroke="#FFD205" stroke-width="3"/>
<line x1="343" y1="240.5" x2="439" y2="240.5" stroke="#FFD205" stroke-width="3"/>
<line x1="343" y1="328.5" x2="439" y2="328.5" stroke="#FFD205" stroke-width="3"/>
<line x1="440.5" y1="151" x2="440.5" y2="330" stroke="#FFD205" stroke-width="3"/>
<path d="M126.895 70.0059H128.802V74.832L128.774 76.124L128.706 77.5938H128.747L133.361 70.0059H135.897V80H134.011V75.2012C134.011 74.5586 134.052 73.6061 134.134 72.3438H134.079L129.444 80H126.895V70.0059ZM140.341 72.3574V75.2969H143.253V72.3574H145.338V80H143.253V76.8486H140.341V80H138.256V72.3574H140.341ZM152.311 78.4756V73.9229H150.745C150.631 74.7705 150.474 75.5749 150.273 76.3359C150.077 77.097 149.804 77.8102 149.453 78.4756H152.311ZM155.517 82.7412H153.644V80H148.503V82.7412H146.63V78.4756H147.272C147.71 77.7965 148.077 76.9398 148.373 75.9053C148.669 74.8708 148.877 73.6882 148.995 72.3574H154.396V78.4756H155.517V82.7412ZM158.839 72.3574V75.3789C158.839 75.6979 158.786 76.4772 158.682 77.7168L162.209 72.3574H164.718V80H162.701V76.9512C162.701 76.4089 162.747 75.6432 162.838 74.6543L159.324 80H156.822V72.3574H158.839ZM173.967 74.3604C173.967 74.7705 173.837 75.1214 173.577 75.4131C173.322 75.7002 172.944 75.8848 172.442 75.9668V76.0215C172.985 76.0853 173.413 76.2721 173.728 76.582C174.047 76.8874 174.206 77.2656 174.206 77.7168C174.206 78.4596 173.914 79.027 173.331 79.4189C172.748 79.8063 171.914 80 170.829 80H166.912V72.3574H170.829C171.877 72.3574 172.661 72.5283 173.181 72.8701C173.705 73.2074 173.967 73.7041 173.967 74.3604ZM172.046 77.6074C172.046 77.3066 171.93 77.0902 171.697 76.958C171.465 76.8213 171.116 76.7529 170.651 76.7529H168.997V78.5576H170.692C171.134 78.5576 171.469 78.4756 171.697 78.3115C171.93 78.1429 172.046 77.9082 172.046 77.6074ZM171.854 74.5244C171.854 74.0596 171.485 73.8271 170.747 73.8271H168.997V75.3379H170.508C170.95 75.3379 171.285 75.2741 171.513 75.1465C171.741 75.0189 171.854 74.8115 171.854 74.5244ZM177.884 72.3574V75.3789C177.884 75.6979 177.831 76.4772 177.727 77.7168L181.254 72.3574H183.763V80H181.746V76.9512C181.746 76.4089 181.792 75.6432 181.883 74.6543L178.369 80H175.867V72.3574H177.884ZM190.742 78.4756V73.9229H189.177C189.063 74.7705 188.906 75.5749 188.705 76.3359C188.509 77.097 188.236 77.8102 187.885 78.4756H190.742ZM193.948 82.7412H192.075V80H186.935V82.7412H185.062V78.4756H185.704C186.142 77.7965 186.508 76.9398 186.805 75.9053C187.101 74.8708 187.308 73.6882 187.427 72.3574H192.827V78.4756H193.948V82.7412ZM194.16 72.3574H196.443L197.886 76.6572C198.009 77.0309 198.093 77.473 198.139 77.9834H198.18C198.23 77.514 198.328 77.0719 198.474 76.6572L199.889 72.3574H202.124L198.891 80.9775C198.594 81.7751 198.171 82.3721 197.619 82.7686C197.072 83.165 196.432 83.3633 195.698 83.3633C195.338 83.3633 194.985 83.3245 194.639 83.2471V81.5928C194.889 81.652 195.163 81.6816 195.459 81.6816C195.828 81.6816 196.149 81.5677 196.423 81.3398C196.701 81.1165 196.917 80.777 197.072 80.3213L197.195 79.9453L194.16 72.3574ZM208.078 80L207.675 78.9609H207.62C207.269 79.403 206.907 79.7106 206.533 79.8838C206.164 80.0524 205.681 80.1367 205.084 80.1367C204.35 80.1367 203.771 79.9271 203.348 79.5078C202.928 79.0885 202.719 78.4915 202.719 77.7168C202.719 76.9056 203.001 76.3086 203.566 75.9258C204.136 75.5384 204.993 75.3242 206.137 75.2832L207.463 75.2422V74.9072C207.463 74.1325 207.066 73.7451 206.273 73.7451C205.663 73.7451 204.945 73.9297 204.12 74.2988L203.43 72.8906C204.309 72.4303 205.285 72.2002 206.355 72.2002C207.381 72.2002 208.167 72.4235 208.714 72.8701C209.261 73.3167 209.534 73.9958 209.534 74.9072V80H208.078ZM207.463 76.459L206.656 76.4863C206.05 76.5046 205.599 76.6139 205.303 76.8145C205.007 77.015 204.858 77.3203 204.858 77.7305C204.858 78.3184 205.196 78.6123 205.87 78.6123C206.353 78.6123 206.738 78.4733 207.025 78.1953C207.317 77.9173 207.463 77.5482 207.463 77.0879V76.459ZM218.53 80H216.445V73.9229H214.524C214.379 75.6318 214.201 76.9079 213.991 77.751C213.782 78.5895 213.501 79.1979 213.15 79.5762C212.804 79.9499 212.348 80.1367 211.783 80.1367C211.3 80.1367 210.904 80.0638 210.594 79.918V78.25C210.817 78.3411 211.04 78.3867 211.264 78.3867C211.523 78.3867 211.74 78.1999 211.913 77.8262C212.091 77.4525 212.248 76.8304 212.385 75.96C212.526 75.085 212.647 73.8841 212.747 72.3574H218.53V80ZM222.81 75.3105H224.279C225.455 75.3105 226.326 75.4974 226.891 75.8711C227.456 76.2448 227.738 76.8099 227.738 77.5664C227.738 79.1888 226.613 80 224.361 80H220.725V72.3574H222.81V75.3105ZM225.653 77.5938C225.653 77.2975 225.535 77.0833 225.298 76.9512C225.061 76.819 224.708 76.7529 224.238 76.7529H222.81V78.5576H224.266C225.191 78.5576 225.653 78.2363 225.653 77.5938ZM231.409 72.3574V75.2969H234.321V72.3574H236.406V80H234.321V76.8486H231.409V80H229.324V72.3574H231.409ZM243.447 80L243.044 78.9609H242.989C242.638 79.403 242.276 79.7106 241.902 79.8838C241.533 80.0524 241.05 80.1367 240.453 80.1367C239.719 80.1367 239.141 79.9271 238.717 79.5078C238.298 79.0885 238.088 78.4915 238.088 77.7168C238.088 76.9056 238.37 76.3086 238.936 75.9258C239.505 75.5384 240.362 75.3242 241.506 75.2832L242.832 75.2422V74.9072C242.832 74.1325 242.436 73.7451 241.643 73.7451C241.032 73.7451 240.314 73.9297 239.489 74.2988L238.799 72.8906C239.678 72.4303 240.654 72.2002 241.725 72.2002C242.75 72.2002 243.536 72.4235 244.083 72.8701C244.63 73.3167 244.903 73.9958 244.903 74.9072V80H243.447ZM242.832 76.459L242.025 76.4863C241.419 76.5046 240.968 76.6139 240.672 76.8145C240.376 77.015 240.228 77.3203 240.228 77.7305C240.228 78.3184 240.565 78.6123 241.239 78.6123C241.722 78.6123 242.107 78.4733 242.395 78.1953C242.686 77.9173 242.832 77.5482 242.832 77.0879V76.459ZM248.219 80H245.963L248.021 76.9785C247.528 76.7734 247.155 76.4772 246.899 76.0898C246.649 75.7025 246.523 75.2467 246.523 74.7227C246.523 73.9844 246.799 73.4056 247.351 72.9863C247.907 72.5671 248.663 72.3574 249.62 72.3574H253.175V80H251.09V77.1562H249.941L248.219 80ZM248.567 74.7363C248.567 75.0553 248.693 75.306 248.943 75.4883C249.194 75.666 249.522 75.7549 249.928 75.7549H251.09V73.8271H249.661C249.319 73.8271 249.05 73.9115 248.854 74.0801C248.663 74.2441 248.567 74.4629 248.567 74.7363ZM260.653 76.165C260.653 76.9215 260.776 77.4935 261.022 77.8809C261.273 78.2682 261.679 78.4619 262.239 78.4619C262.795 78.4619 263.194 78.2705 263.436 77.8877C263.682 77.5003 263.805 76.9261 263.805 76.165C263.805 75.4085 263.682 74.8411 263.436 74.4629C263.189 74.0846 262.786 73.8955 262.226 73.8955C261.67 73.8955 261.269 74.0846 261.022 74.4629C260.776 74.8366 260.653 75.404 260.653 76.165ZM265.938 76.165C265.938 77.4092 265.609 78.3822 264.953 79.084C264.297 79.7858 263.383 80.1367 262.212 80.1367C261.478 80.1367 260.831 79.9772 260.271 79.6582C259.71 79.3346 259.279 78.8721 258.979 78.2705C258.678 77.6689 258.527 76.9671 258.527 76.165C258.527 74.9163 258.853 73.9456 259.505 73.2529C260.157 72.5602 261.073 72.2139 262.253 72.2139C262.987 72.2139 263.634 72.3734 264.194 72.6924C264.755 73.0114 265.186 73.4694 265.486 74.0664C265.787 74.6634 265.938 75.363 265.938 76.165ZM273.983 72.3574V73.9229H271.481V80H269.396V73.9229H266.888V72.3574H273.983ZM277.244 72.3574V75.1533C277.244 75.8187 277.552 76.1514 278.167 76.1514C278.568 76.1514 278.939 76.1058 279.281 76.0146C279.628 75.9235 279.976 75.805 280.327 75.6592V72.3574H282.412V80H280.327V76.9648C279.844 77.2201 279.395 77.4001 278.98 77.5049C278.566 77.6097 278.165 77.6621 277.777 77.6621C276.943 77.6621 276.299 77.4502 275.843 77.0264C275.387 76.598 275.159 75.9896 275.159 75.2012V72.3574H277.244ZM287.765 73.6973C287.323 73.6973 286.976 73.8385 286.726 74.1211C286.475 74.3991 286.331 74.7956 286.295 75.3105H289.221C289.212 74.7956 289.077 74.3991 288.817 74.1211C288.558 73.8385 288.207 73.6973 287.765 73.6973ZM288.059 80.1367C286.828 80.1367 285.867 79.7972 285.174 79.1182C284.481 78.4391 284.135 77.4775 284.135 76.2334C284.135 74.9528 284.454 73.9639 285.092 73.2666C285.734 72.5648 286.621 72.2139 287.751 72.2139C288.831 72.2139 289.672 72.5215 290.273 73.1367C290.875 73.752 291.176 74.6019 291.176 75.6865V76.6982H286.247C286.27 77.2907 286.445 77.7533 286.773 78.0859C287.102 78.4186 287.562 78.585 288.154 78.585C288.615 78.585 289.05 78.5371 289.46 78.4414C289.87 78.3457 290.299 78.193 290.745 77.9834V79.5967C290.381 79.779 289.991 79.9134 289.576 80C289.161 80.0911 288.656 80.1367 288.059 80.1367ZM299.194 72.3574V73.9229H296.692V80H294.607V73.9229H292.099V72.3574H299.194ZM302.708 72.3574V75.2969H305.62V72.3574H307.705V80H305.62V76.8486H302.708V80H300.623V72.3574H302.708ZM311.554 76.165C311.554 76.9215 311.677 77.4935 311.923 77.8809C312.174 78.2682 312.579 78.4619 313.14 78.4619C313.696 78.4619 314.094 78.2705 314.336 77.8877C314.582 77.5003 314.705 76.9261 314.705 76.165C314.705 75.4085 314.582 74.8411 314.336 74.4629C314.09 74.0846 313.687 73.8955 313.126 73.8955C312.57 73.8955 312.169 74.0846 311.923 74.4629C311.677 74.8366 311.554 75.404 311.554 76.165ZM316.838 76.165C316.838 77.4092 316.51 78.3822 315.854 79.084C315.197 79.7858 314.284 80.1367 313.112 80.1367C312.379 80.1367 311.731 79.9772 311.171 79.6582C310.61 79.3346 310.18 78.8721 309.879 78.2705C309.578 77.6689 309.428 76.9671 309.428 76.165C309.428 74.9163 309.754 73.9456 310.405 73.2529C311.057 72.5602 311.973 72.2139 313.153 72.2139C313.887 72.2139 314.534 72.3734 315.095 72.6924C315.655 73.0114 316.086 73.4694 316.387 74.0664C316.688 74.6634 316.838 75.363 316.838 76.165ZM321.664 80.1367C319.285 80.1367 318.096 78.8311 318.096 76.2197C318.096 74.9209 318.419 73.9297 319.066 73.2461C319.714 72.5579 320.641 72.2139 321.849 72.2139C322.733 72.2139 323.526 72.387 324.228 72.7334L323.612 74.3467C323.284 74.2145 322.979 74.1074 322.696 74.0254C322.414 73.9388 322.131 73.8955 321.849 73.8955C320.764 73.8955 320.222 74.6657 320.222 76.2061C320.222 77.7008 320.764 78.4482 321.849 78.4482C322.25 78.4482 322.621 78.3958 322.963 78.291C323.305 78.1816 323.646 78.013 323.988 77.7852V79.5693C323.651 79.7835 323.309 79.9316 322.963 80.0137C322.621 80.0957 322.188 80.1367 321.664 80.1367ZM332.089 72.3574V73.9229H329.587V80H327.502V73.9229H324.993V72.3574H332.089ZM335.603 75.3105H337.072C338.248 75.3105 339.118 75.4974 339.684 75.8711C340.249 76.2448 340.531 76.8099 340.531 77.5664C340.531 79.1888 339.406 80 337.154 80H333.518V72.3574H335.603V75.3105ZM338.446 77.5938C338.446 77.2975 338.328 77.0833 338.091 76.9512C337.854 76.819 337.501 76.7529 337.031 76.7529H335.603V78.5576H337.059C337.984 78.5576 338.446 78.2363 338.446 77.5938ZM351.031 72.3574V73.9229H347.839V80H345.754V72.3574H351.031ZM356.65 80.1367C355.753 80.1367 355.049 79.8109 354.538 79.1592H354.429C354.502 79.7972 354.538 80.1663 354.538 80.2666V83.3633H352.453V72.3574H354.148L354.442 73.3486H354.538C355.026 72.5921 355.748 72.2139 356.705 72.2139C357.607 72.2139 358.314 72.5625 358.824 73.2598C359.335 73.957 359.59 74.9255 359.59 76.165C359.59 76.9808 359.469 77.6895 359.228 78.291C358.991 78.8926 358.651 79.3506 358.209 79.665C357.767 79.9795 357.247 80.1367 356.65 80.1367ZM356.035 73.8818C355.52 73.8818 355.144 74.0413 354.907 74.3604C354.67 74.6748 354.547 75.1966 354.538 75.9258V76.1514C354.538 76.9717 354.659 77.5596 354.9 77.915C355.146 78.2705 355.534 78.4482 356.062 78.4482C356.997 78.4482 357.464 77.6781 357.464 76.1377C357.464 75.3857 357.348 74.8229 357.115 74.4492C356.887 74.071 356.527 73.8818 356.035 73.8818ZM360.219 72.3574H362.502L363.944 76.6572C364.067 77.0309 364.152 77.473 364.197 77.9834H364.238C364.288 77.514 364.386 77.0719 364.532 76.6572L365.947 72.3574H368.183L364.949 80.9775C364.653 81.7751 364.229 82.3721 363.678 82.7686C363.131 83.165 362.491 83.3633 361.757 83.3633C361.397 83.3633 361.044 83.3245 360.697 83.2471V81.5928C360.948 81.652 361.221 81.6816 361.518 81.6816C361.887 81.6816 362.208 81.5677 362.481 81.3398C362.759 81.1165 362.976 80.777 363.131 80.3213L363.254 79.9453L360.219 72.3574ZM376.229 72.3574V80H374.137V73.9229H371.368V80H369.283V72.3574H376.229ZM385.361 72.3574V80H383.27V73.9229H380.501V80H378.416V72.3574H385.361ZM389.634 75.3105H390.639C391.805 75.3105 392.669 75.4974 393.229 75.8711C393.79 76.2448 394.07 76.8099 394.07 77.5664C394.07 78.373 393.79 78.9814 393.229 79.3916C392.669 79.7972 391.83 80 390.714 80H387.549V72.3574H389.634V75.3105ZM391.985 77.5938C391.985 77.2975 391.867 77.0833 391.63 76.9512C391.393 76.819 391.04 76.7529 390.57 76.7529H389.634V78.5576H390.598C391.523 78.5576 391.985 78.2363 391.985 77.5938ZM397.263 80H395.178V72.3574H397.263V80Z" fill="#444444"/>
<path d="M606.892 239.922H621.2V226.555H629.8V239.922H644.108V180.078H606.892V239.922ZM628.111 187.131H636.711V194.988H628.111V187.131ZM628.111 199.758H636.711V207.615H628.111V199.758ZM628.111 212.385H636.711V220.242H628.111V212.385ZM614.289 187.131H622.889V194.988H614.289V187.131ZM614.289 199.758H622.889V207.615H614.289V199.758ZM614.289 212.385H622.889V220.242H614.289V212.385Z" fill="#FFD205"/>
<path d="M647.449 185.439V227.753H652.974V239.922H666V185.439H647.449ZM659.266 222.005H651.436V214.852H659.266V222.005H659.266ZM659.266 210.509H651.436V203.356H659.266V210.509H659.266ZM659.266 199.013H651.436V191.86H659.266V199.013H659.266Z" fill="#FFD205"/>
<path d="M585 239.922H598.026V227.753H603.551V185.439H585V239.922ZM591.734 191.86H599.564V199.013H591.734V191.86ZM591.734 203.356H599.564V210.509H591.734V203.356ZM591.734 214.852H599.564V222.005H591.734V214.852Z" fill="#FFD205"/>
<path d="M484 43H44V389H484V43Z" stroke="#44545F" stroke-width="2.88753" stroke-linecap="round" stroke-linejoin="round" stroke-dasharray="11.55 5.78"/>
<defs>
<filter id="filter0_d" x="53" y="114" width="298" height="88" filterUnits="userSpaceOnUse" color-interpolation-filters="sRGB">
<feFlood flood-opacity="0" result="BackgroundImageFix"/>
<feColorMatrix in="SourceAlpha" type="matrix" values="0 0 0 0 0 0 0 0 0 0 0 0 0 0 0 0 0 0 127 0"/>
<feOffset dy="4"/>
<feGaussianBlur stdDeviation="4"/>
<feColorMatrix type="matrix" values="0 0 0 0 0 0 0 0 0 0 0 0 0 0 0 0 0 0 0.08 0"/>
<feBlend mode="normal" in2="BackgroundImageFix" result="effect1_dropShadow"/>
<feBlend mode="normal" in="SourceGraphic" in2="effect1_dropShadow" result="shape"/>
</filter>
<filter id="filter1_d" x="53" y="202" width="298" height="88" filterUnits="userSpaceOnUse" color-interpolation-filters="sRGB">
<feFlood flood-opacity="0" result="BackgroundImageFix"/>
<feColorMatrix in="SourceAlpha" type="matrix" values="0 0 0 0 0 0 0 0 0 0 0 0 0 0 0 0 0 0 127 0"/>
<feOffset dy="4"/>
<feGaussianBlur stdDeviation="4"/>
<feColorMatrix type="matrix" values="0 0 0 0 0 0 0 0 0 0 0 0 0 0 0 0 0 0 0.08 0"/>
<feBlend mode="normal" in2="BackgroundImageFix" result="effect1_dropShadow"/>
<feBlend mode="normal" in="SourceGraphic" in2="effect1_dropShadow" result="shape"/>
</filter>
<filter id="filter2_d" x="53" y="290" width="298" height="88" filterUnits="userSpaceOnUse" color-interpolation-filters="sRGB">
<feFlood flood-opacity="0" result="BackgroundImageFix"/>
<feColorMatrix in="SourceAlpha" type="matrix" values="0 0 0 0 0 0 0 0 0 0 0 0 0 0 0 0 0 0 127 0"/>
<feOffset dy="4"/>
<feGaussianBlur stdDeviation="4"/>
<feColorMatrix type="matrix" values="0 0 0 0 0 0 0 0 0 0 0 0 0 0 0 0 0 0 0.08 0"/>
<feBlend mode="normal" in2="BackgroundImageFix" result="effect1_dropShadow"/>
<feBlend mode="normal" in="SourceGraphic" in2="effect1_dropShadow" result="shape"/>
</filter>
<filter id="filter3_d" x="538" y="154" width="176" height="176" filterUnits="userSpaceOnUse" color-interpolation-filters="sRGB">
<feFlood flood-opacity="0" result="BackgroundImageFix"/>
<feColorMatrix in="SourceAlpha" type="matrix" values="0 0 0 0 0 0 0 0 0 0 0 0 0 0 0 0 0 0 127 0"/>
<feOffset dy="4"/>
<feGaussianBlur stdDeviation="4"/>
<feColorMatrix type="matrix" values="0 0 0 0 0 0 0 0 0 0 0 0 0 0 0 0 0 0 0.08 0"/>
<feBlend mode="normal" in2="BackgroundImageFix" result="effect1_dropShadow"/>
<feBlend mode="normal" in="SourceGraphic" in2="effect1_dropShadow" result="shape"/>
</filter>
</defs>
</svg>
