<svg width="44" height="42" viewBox="0 0 44 42" fill="none" xmlns="http://www.w3.org/2000/svg">
<path d="M30.649 4.54054V0H27.439V4.54054H16.561V0H13.351V4.54054H0.867928V11.9189H43.1321V4.54054H30.649Z" fill="#44545F"/>
<path d="M0.867928 42H43.1321V15.3243H0.867928V42ZM23.3855 24.6114C23.5452 24.6114 23.7525 24.5533 24.0072 24.4366C24.2618 24.3202 24.5139 24.1799 24.7637 24.0155C25.0132 23.8513 25.2379 23.6845 25.4377 23.5149C25.6374 23.3455 25.7622 23.2077 25.8122 23.1017H28.2539V29.8875H30.1563V32.176H23.6851V29.8875H25.8122V25.8351C25.7224 25.9622 25.5825 26.0921 25.3928 26.2245C25.203 26.357 24.9907 26.4787 24.7562 26.59C24.5215 26.7012 24.2817 26.7913 24.0371 26.8601C23.7923 26.9292 23.5751 26.9634 23.3855 26.9634V24.6114V24.6114ZM18.48 29.7923C18.1453 29.5487 17.6187 29.4268 16.8996 29.4268H16.4502V27.5992H16.9446C17.5037 27.5992 17.9407 27.4775 18.2553 27.2337C18.5699 26.9901 18.7272 26.6671 18.7272 26.2643C18.7272 25.9147 18.6122 25.65 18.3826 25.4697C18.1528 25.2897 17.8483 25.1995 17.4689 25.1995C17.0593 25.1995 16.6873 25.3028 16.3529 25.5094C16.0182 25.716 15.7361 26.01 15.5065 26.3914L13.9936 24.548C14.1532 24.3255 14.3629 24.1189 14.6227 23.9282C14.8823 23.7375 15.177 23.5761 15.5065 23.4435C15.8361 23.3111 16.1904 23.2078 16.5701 23.1336C16.9495 23.0596 17.339 23.0224 17.7385 23.0224C18.2677 23.0224 18.752 23.0886 19.1915 23.221C19.6309 23.3536 20.0053 23.5443 20.315 23.7931C20.6244 24.0422 20.8641 24.3389 21.034 24.6831C21.2037 25.0275 21.2887 25.4116 21.2887 25.8352C21.2887 26.1531 21.2412 26.455 21.1464 26.7411C21.0514 27.0271 20.9191 27.2868 20.7494 27.5198C20.5795 27.7529 20.3773 27.9463 20.1427 28.0998C19.908 28.2535 19.6508 28.3568 19.3713 28.4097C19.6807 28.4733 19.9653 28.5872 20.2251 28.7514C20.4847 28.9158 20.7068 29.1223 20.8917 29.3712C21.0764 29.6202 21.2187 29.9063 21.3186 30.2293C21.4184 30.5526 21.4684 30.8995 21.4684 31.2703C21.4684 31.7683 21.3734 32.2158 21.1838 32.6131C20.994 33.0104 20.7218 33.3494 20.3674 33.6302C20.0128 33.9108 19.5859 34.1281 19.0867 34.2818C18.5872 34.4352 18.028 34.5122 17.4089 34.5122C15.8909 34.5122 14.7025 34.0407 13.8438 33.0978L15.132 31.2861C15.4017 31.5829 15.7087 31.8081 16.0533 31.9615C16.3978 32.1152 16.8098 32.192 17.2891 32.192C18.4175 32.192 18.9818 31.7525 18.9818 30.873C18.9818 30.3961 18.8145 30.0361 18.48 29.7923Z" fill="#44545F"/>
</svg>
