<svg width="44" height="42" viewBox="0 0 44 42" fill="none" xmlns="http://www.w3.org/2000/svg">
<path d="M16.7951 4.48393C15.7778 5.71814 14.8881 7.04022 14.1332 8.43512H20.7853V0.625793C19.6961 1.45802 18.2396 2.73127 16.7951 4.48393Z" fill="#44545F"/>
<path d="M12.9736 10.8955C12.9369 10.986 12.8997 11.0761 12.8642 11.1671C11.8198 13.8343 11.2302 16.7231 11.1055 19.7698H20.7853V10.8955H12.9736Z" fill="#44545F"/>
<path d="M11.1055 22.2302C11.2312 25.301 11.8291 28.2111 12.889 30.8964C12.9166 30.9661 12.9455 31.0352 12.9736 31.1046H20.7853V22.2302H11.1055Z" fill="#44545F"/>
<path d="M27.1382 4.4035C25.7082 2.68328 24.2831 1.43795 23.2146 0.62178V8.43512H29.8673C29.0959 7.00979 28.1833 5.66079 27.1382 4.4035Z" fill="#44545F"/>
<path d="M35.3246 22.2302C35.2069 25.3515 34.64 28.3284 33.6326 31.1045H40.6803C42.1183 28.3857 42.9577 25.3714 43.132 22.2302H35.3246Z" fill="#44545F"/>
<path d="M31.1108 11.1037C31.0832 11.034 31.0543 10.9649 31.0262 10.8955H23.2146V19.7698H32.8942C32.7685 16.699 32.1707 13.7889 31.1108 11.1037Z" fill="#44545F"/>
<path d="M3.31956 10.8955C1.88168 13.6143 1.04226 16.6286 0.86792 19.7698H8.67528C8.79299 16.6486 9.36001 13.6717 10.3673 10.8956H3.31956V10.8955Z" fill="#44545F"/>
<path d="M8.67528 22.2302H0.86792C1.04226 25.3714 1.88168 28.3858 3.31956 31.1045H10.3672C9.35993 28.3284 8.79299 25.3515 8.67528 22.2302Z" fill="#44545F"/>
<path d="M7.03234 5.84022C6.22916 6.65371 5.49969 7.52189 4.84485 8.43513H11.4006V8.43505C12.3627 6.42722 13.5692 4.54397 15.0034 2.81873C15.9315 1.70233 16.8586 0.767347 17.7089 0C13.6914 0.833648 9.99899 2.83546 7.03234 5.84022Z" fill="#44545F"/>
<path d="M36.9676 5.84017C34.001 2.83549 30.3084 0.833686 26.2909 0.00012207C27.1413 0.767469 28.0684 1.70245 28.9965 2.81886C30.4306 4.54401 31.6372 6.42734 32.5993 8.43517H39.1551C38.5001 7.52193 37.7708 6.65367 36.9676 5.84017Z" fill="#44545F"/>
<path d="M15.0034 39.1813C13.5692 37.4562 12.3627 35.5729 11.4005 33.565H4.84482C5.49974 34.4783 6.22905 35.3465 7.03231 36.1599C9.99896 39.1645 13.6914 41.1664 17.7089 42C16.8584 41.2327 15.9314 40.2978 15.0034 39.1813Z" fill="#44545F"/>
<path d="M32.5993 33.5649C31.6371 35.5728 30.4306 37.456 28.9964 39.1813C28.0684 40.2977 27.1413 41.2327 26.2909 42C30.3084 41.1665 34.0009 39.1646 36.9675 36.1599C37.7707 35.3464 38.5001 34.4781 39.155 33.5649H32.5993V33.5649Z" fill="#44545F"/>
<path d="M14.1325 33.565C14.9039 34.9903 15.8165 36.3393 16.8617 37.5966C18.2917 39.3168 19.7167 40.5622 20.7853 41.3783V33.565H14.1325V33.565Z" fill="#44545F"/>
<path d="M23.2145 33.565V41.3742C24.3039 40.5418 25.7602 39.2686 27.2047 37.5162C28.2221 36.2819 29.1117 34.9599 29.8666 33.565H23.2145Z" fill="#44545F"/>
<path d="M23.2145 22.2302V31.1045H31.0262C31.0629 31.014 31.1001 30.9239 31.1356 30.8329C32.18 28.1657 32.7696 25.277 32.8943 22.2302H23.2145Z" fill="#44545F"/>
<path d="M40.6803 10.8955H33.6327C34.6401 13.6716 35.207 16.6485 35.3247 19.7698H43.1321C42.9577 16.6286 42.1183 13.6143 40.6803 10.8955Z" fill="#44545F"/>
</svg>
