<svg width="40" height="42" viewBox="0 0 40 42" fill="none" xmlns="http://www.w3.org/2000/svg">
<path d="M3.46136 17.3218L0.55011 14.7943L3.46136 13.0538V17.3218Z" fill="#44545F"/>
<path d="M14.189 28.7642L0 41.0892V16.4503L14.189 28.7642Z" fill="#44545F"/>
<path d="M20.0034 25.7833L38.6734 42H1.33334L20.0034 25.7833Z" fill="#44545F"/>
<path d="M25.7711 28.7299L40 16.4448V41.0892L25.7711 28.7299Z" fill="#44545F"/>
<path d="M36.7273 13.1758L39.4458 14.7943L36.7273 17.1424V13.1758Z" fill="#44545F"/>
<path d="M5.09296 0V11.6314V18.7379L15.4169 27.6975L19.9991 23.7172L24.5415 27.6631L35.0946 18.5506V11.7558V0H5.09296ZM32.6778 17.0092H7.28043V15.4146H32.6778V17.0092ZM32.6778 13.82H7.28043V12.2253H32.6778V13.82ZM32.6778 10.6307H7.28043V9.03611H32.6778V10.6307ZM32.6778 7.44143H7.28043V5.84675H32.6778V7.44143ZM32.6778 4.25207H7.28043V2.65753H32.6778V4.25207Z" fill="#44545F"/>
</svg>
