<svg width="44" height="42" viewBox="0 0 44 42" fill="none" xmlns="http://www.w3.org/2000/svg">
<path d="M34.8026 7.10101V29.2109V31.8716H32.3261H15.7555V36.3119H31.5465L38.9669 42V36.3119H43.1321V7.10101H34.8026Z" fill="#44545F"/>
<path d="M16.597 10.2551C14.3645 10.2551 12.5481 12.2066 12.5481 14.6053C12.5481 17.004 14.3645 18.9555 16.597 18.9555C18.8296 18.9555 20.646 17.004 20.646 14.6053C20.646 12.2066 18.8296 10.2551 16.597 10.2551Z" fill="#44545F"/>
<path d="M0.86792 0V29.2109H5.03309V34.899L12.4535 29.2109H32.3261V29.2109V0H0.86792ZM24.8192 15.9358H23.0031C22.8333 16.8816 22.4873 17.7606 22.0013 18.5304L23.2866 19.9113L21.5354 21.7927L20.2502 20.4118C19.5337 20.9338 18.7154 21.3056 17.8353 21.4881V23.4394H15.3588V21.4881C14.4785 21.3056 13.6604 20.9338 12.944 20.4117L11.6587 21.7925L9.90758 19.9111L11.1928 18.5303C10.707 17.7605 10.3609 16.8814 10.191 15.9357H8.37476V13.275H10.1909C10.3607 12.3293 10.7067 11.4502 11.1926 10.6805L9.90741 9.2996L11.6586 7.41817L12.9437 8.79904C13.6603 8.27702 14.4785 7.90515 15.3587 7.72263V5.77158H17.8352V7.72272C18.7154 7.90515 19.5336 8.27702 20.2501 8.79913L21.5353 7.41825L23.2864 9.29969L22.0012 10.6806C22.4871 11.4504 22.8331 12.3295 23.0029 13.2751H24.8191V15.9358H24.8192Z" fill="#44545F"/>
</svg>
