<svg width="14" height="14" viewBox="0 0 14 14" fill="none" xmlns="http://www.w3.org/2000/svg">
<path d="M12.9769 7C12.9769 10.3137 10.2906 13 6.97687 13C3.66316 13 0.976868 10.3137 0.976868 7C0.976868 3.68629 3.66316 1 6.97687 1C10.2906 1 12.9769 3.68629 12.9769 7Z" fill="#FFD205" stroke="#465861" stroke-width="0.5"/>
<path d="M6.3807 7.40737L6.20373 4.76107C6.17052 4.24542 6.1543 3.87528 6.1543 3.65069C6.1543 3.34499 6.23449 3.10636 6.39433 2.93541C6.55458 2.76371 6.76565 2.67807 7.02685 2.67807C7.3438 2.67807 7.55584 2.78772 7.66244 3.00688C7.76902 3.22626 7.82267 3.54212 7.82267 3.95426C7.82267 4.19747 7.80962 4.44461 7.78413 4.69462L7.54647 7.41834C7.52076 7.74271 7.46559 7.99115 7.38057 8.16444C7.29584 8.33734 7.15575 8.42376 6.9608 8.42376C6.76168 8.42376 6.62377 8.34033 6.54647 8.17244C6.46907 8.0052 6.41362 7.74984 6.3807 7.40737ZM6.99393 11.0425C6.76932 11.0425 6.57289 10.9701 6.40561 10.8245C6.23794 10.6793 6.1543 10.4758 6.1543 10.2141C6.1543 9.98566 6.23449 9.79128 6.39433 9.63104C6.55458 9.4708 6.75083 9.39082 6.98286 9.39082C7.21499 9.39082 7.4127 9.4708 7.57672 9.63104C7.74063 9.79128 7.8227 9.98575 7.8227 10.2141C7.8227 10.4718 7.73984 10.6742 7.57387 10.8217C7.40827 10.9689 7.21499 11.0425 6.99393 11.0425Z" fill="#465861"/>
</svg>
