<svg width="40" height="40" viewBox="0 0 40 40" fill="none" xmlns="http://www.w3.org/2000/svg">
<path fill-rule="evenodd" clip-rule="evenodd" d="M38.8281 23.5938H27.1094C26.4621 23.5938 25.9375 24.1183 25.9375 24.7656V28.2031H14.0625V24.7656C14.0625 24.1183 13.5379 23.5938 12.8906 23.5938H1.17188C0.524597 23.5938 0 24.1183 0 24.7656V38.7698C0 39.4168 0.524597 39.9417 1.17188 39.9417H38.8281C39.4754 39.9417 40 39.4168 40 38.7698V24.7656C40 24.1183 39.4754 23.5938 38.8281 23.5938ZM23.5938 35.2344H16.4062C15.759 35.2344 15.2344 34.7098 15.2344 34.0625C15.2344 33.4152 15.759 32.8906 16.4062 32.8906H23.5938C24.241 32.8906 24.7656 33.4152 24.7656 34.0625C24.7656 34.7098 24.241 35.2344 23.5938 35.2344Z" fill="#444444"/>
<path fill-rule="evenodd" clip-rule="evenodd" d="M25.9848 0.343323C25.9451 0.30365 25.903 0.267334 25.8594 0.234375V7.34802L32.9868 7.34528L25.9848 0.343323Z" fill="#444444"/>
<path fill-rule="evenodd" clip-rule="evenodd" d="M15.3763 22.28C16.0129 22.9163 16.4062 23.7952 16.4062 24.7656V25.8594H23.5938V24.7656C23.5938 23.7952 23.9874 22.9163 24.6237 22.28C25.26 21.6437 26.1389 21.25 27.1094 21.25H33.6673L33.6719 9.6875C30.6772 9.6875 27.6825 9.6875 24.6875 9.6875C24.0405 9.6875 23.5156 9.1629 23.5156 8.51562V0H7.5C6.85272 0 6.32812 0.524597 6.32812 1.17188V21.25H12.8906C13.8614 21.25 14.74 21.6437 15.3763 22.28ZM9.84375 2.57812H15.4297C16.077 2.57812 16.6016 3.10303 16.6016 3.75C16.6016 4.39728 16.077 4.92188 15.4297 4.92188H9.84375C9.19647 4.92188 8.67188 4.39728 8.67188 3.75C8.67188 3.10303 9.19647 2.57812 9.84375 2.57812ZM9.84375 7.26562H15.419C16.0663 7.26562 16.5909 7.79053 16.5909 8.4375C16.5909 9.08478 16.0663 9.60938 15.419 9.60938H9.84375C9.19647 9.60938 8.67188 9.08478 8.67188 8.4375C8.67188 7.79053 9.19647 7.26562 9.84375 7.26562ZM9.84375 11.9531H25.5078C26.1548 11.9531 26.6797 12.478 26.6797 13.125C26.6797 13.7723 26.1548 14.2969 25.5078 14.2969H9.84375C9.19647 14.2969 8.67188 13.7723 8.67188 13.125C8.67188 12.478 9.19647 11.9531 9.84375 11.9531ZM8.67188 17.8125C8.67188 17.1655 9.19647 16.6406 9.84375 16.6406H25.5078C26.1548 16.6406 26.6797 17.1655 26.6797 17.8125C26.6797 18.4598 26.1548 18.9844 25.5078 18.9844H9.84375C9.19647 18.9844 8.67188 18.4598 8.67188 17.8125Z" fill="#444444"/>
</svg>
