<svg width="40" height="40" viewBox="0 0 40 40" fill="none" xmlns="http://www.w3.org/2000/svg">
<g clip-path="url(#clip0)">
<path d="M23.8031 35.9193C24.1802 35.9193 24.4859 35.6136 24.4859 35.2365V31.794C24.4859 31.4169 24.1802 31.1112 23.8031 31.1112H16.1973C15.8201 31.1112 15.5144 31.4169 15.5144 31.794V35.2365C15.5144 35.6136 15.8201 35.9193 16.1973 35.9193H23.8031Z" fill="#444444"/>
<path d="M30.0169 37.5381H9.98314C9.38718 37.5381 8.90395 38.0213 8.90395 38.6173C8.90395 39.2132 9.38718 39.6965 9.98314 39.6965H30.0169C30.6128 39.6965 31.0961 39.2132 31.0961 38.6173C31.0962 38.0213 30.613 37.5381 30.0169 37.5381Z" fill="#444444"/>
<path d="M38.9209 0.303589H1.0792C0.483234 0.303589 0 0.786823 0 1.38278V28.0945C0 28.6905 0.483234 29.1737 1.0792 29.1737H38.9208C39.5168 29.1737 40 28.6905 40 28.0945V1.38278C40.0001 0.786823 39.5169 0.303589 38.9209 0.303589ZM33.3559 20.2699H24.4521C23.8561 20.2699 23.3729 19.7866 23.3729 19.1907C23.3729 18.5947 23.8561 18.1115 24.4521 18.1115H33.3559C33.9519 18.1115 34.4351 18.5947 34.4351 19.1907C34.4351 19.7866 33.9519 20.2699 33.3559 20.2699ZM33.3559 15.818H24.4521C23.8561 15.818 23.3729 15.3348 23.3729 14.7388C23.3729 14.1428 23.8561 13.6596 24.4521 13.6596H33.3559C33.9519 13.6596 34.4351 14.1428 34.4351 14.7388C34.4351 15.3348 33.9519 15.818 33.3559 15.818ZM33.3559 11.366H24.4521C23.8561 11.366 23.3729 10.8827 23.3729 10.2868C23.3729 9.69083 23.8561 9.20759 24.4521 9.20759H33.3559C33.9519 9.20759 34.4351 9.69083 34.4351 10.2868C34.4351 10.8827 33.9519 11.366 33.3559 11.366Z" fill="#444444"/>
<path d="M4.48729 20.5834H7.17965V22.9237C7.17965 23.0376 7.21558 23.1308 7.28787 23.2036C7.35995 23.277 7.45211 23.3136 7.56437 23.3136H9.57149C9.67566 23.3136 9.76579 23.277 9.84193 23.2036C9.91806 23.1308 9.95601 23.0375 9.95601 22.9237V20.5834H16.0257C16.1378 20.5834 16.23 20.5472 16.3022 20.4739C16.3745 20.4006 16.4104 20.3074 16.4104 20.1935V18.6334C16.4104 18.5203 16.3745 18.4264 16.3022 18.3535C16.2302 18.2802 16.1378 18.2435 16.0257 18.2435H9.95582V16.8053H14.0424C15.6449 16.8053 16.9528 16.3102 17.9667 15.3186C18.9802 14.328 19.4872 13.0483 19.4872 11.4796C19.4872 9.91193 18.9802 8.63227 17.9667 7.64065C16.953 6.65 15.6448 6.15387 14.0424 6.15387H7.56418C7.45188 6.15387 7.35992 6.1905 7.28767 6.2634C7.21558 6.33669 7.17945 6.43054 7.17945 6.54377V14.2098H4.48729C4.37502 14.2098 4.28303 14.2483 4.21078 14.3255C4.13872 14.4027 4.10256 14.4941 4.10256 14.5997V16.4154C4.10256 16.5292 4.13849 16.6225 4.21078 16.6958C4.28306 16.7691 4.37482 16.8053 4.48729 16.8053H7.17965V18.2435H4.48729C4.37502 18.2435 4.28303 18.2801 4.21078 18.3535C4.13872 18.4263 4.10256 18.52 4.10256 18.6334V20.1935C4.10256 20.3073 4.13849 20.4006 4.21078 20.4739C4.28303 20.5472 4.37499 20.5834 4.48729 20.5834ZM9.95582 8.75003H13.802C14.6512 8.75003 15.3362 9.00182 15.8572 9.50555C16.378 10.0093 16.6385 10.6676 16.6385 11.4798C16.6385 12.2924 16.378 12.9509 15.8572 13.4541C15.3362 13.9582 14.6512 14.21 13.802 14.21H9.95582V8.75003Z" fill="#F7F7F7"/>
</g>
<defs>
<clipPath id="clip0">
<rect width="40" height="40" fill="white"/>
</clipPath>
</defs>
</svg>
