<svg width="40" height="42" viewBox="0 0 40 42" fill="none" xmlns="http://www.w3.org/2000/svg">
<path d="M16.4848 19.4706H23.5152V21.8944H16.4848V19.4706Z" fill="#444444"/>
<path d="M28.2028 3.89087C28.8305 4.11848 29.459 4.34816 30.0705 4.62973L31.0228 2.41424C24.0171 -0.804747 15.9829 -0.804747 8.97717 2.41424L9.92955 4.62973C10.541 4.34816 11.1695 4.11848 11.7972 3.89087V7.35195H0V21.8944H14.141V17.0469H25.859V21.8944H40V7.35195H28.2028V3.89087ZM25.859 7.35195H14.141V3.17703C17.9914 2.20978 22.0086 2.20978 25.859 3.17703V7.35195Z" fill="#444444"/>
<path d="M18.8286 24.3181H21.1714V26.7418H18.8286V24.3181Z" fill="#444444"/>
<path d="M23.5152 29.1656H16.4848V24.3181H0V41.365H40V24.3181H23.5152V29.1656ZM25.859 29.1656H35.3124V31.5893H25.859V29.1656ZM25.859 34.0131H35.3124V36.4368H25.859V34.0131Z" fill="#444444"/>
</svg>
