<svg width="71" height="71" viewBox="0 0 71 71" fill="none" xmlns="http://www.w3.org/2000/svg">
<path d="M57.8177 44.5459H55.244V42.0712H57.8177C63.4428 42.0712 68.0207 37.0759 68.0207 30.9346C68.0207 25.1844 64.0719 20.4204 58.8367 19.8536L57.8155 19.7436L57.8201 18.4987C57.8179 9.69083 51.2061 2.47451 43.0799 2.47451C37.4228 2.47451 32.1977 6.09388 29.7681 11.6955L29.2024 12.9984L28.1085 12.1917C27.1721 11.5012 26.0769 11.1364 24.941 11.1364C22.7224 11.1364 20.6965 12.5655 19.7793 14.7779L19.3677 15.7715L18.4132 15.451C17.2228 15.0514 15.9872 14.8484 14.7377 14.8484C7.86188 14.8484 2.26737 20.955 2.26737 28.4598C2.26737 35.9646 7.86212 42.0712 14.7377 42.0712H15.0439V44.5459H14.7377C6.61151 44.5459 0 37.3296 0 28.46C0 19.5905 6.61151 12.3739 14.7377 12.3739C15.8974 12.3739 17.0482 12.5225 18.1706 12.8144C19.6002 10.2618 22.1623 8.66185 24.941 8.66185C26.1041 8.66185 27.2379 8.93533 28.2764 9.46117C31.2715 3.67402 36.9569 0 43.0799 0C52.1447 0 59.5749 7.77938 60.0601 17.5436C65.9574 18.7006 70.2882 24.2763 70.2882 30.9346C70.2882 38.4394 64.6935 44.5459 57.8177 44.5459Z" fill="#44545F"/>
<path d="M37.2005 70.979C50.2327 70.979 60.7972 60.4576 60.7972 47.479C60.7972 34.5003 50.2327 23.979 37.2005 23.979C24.1684 23.979 13.6037 34.5003 13.6037 47.479C13.6037 60.4576 24.1684 70.979 37.2005 70.979Z" fill="#FFD200"/>
<path d="M37.0701 49.8017C36.6407 49.8017 36.2209 49.6613 35.8638 49.3983C35.5068 49.1352 35.2285 48.7614 35.0642 48.3241C34.8999 47.8867 34.857 47.4055 34.9409 46.9412C35.0247 46.4769 35.2316 46.0505 35.5353 45.7159C35.8391 45.3812 36.226 45.1534 36.6472 45.0612C37.0684 44.969 37.505 45.0166 37.9017 45.1979C38.2984 45.3792 38.6374 45.6861 38.8758 46.0798C39.1142 46.4735 39.2414 46.9363 39.2412 47.4097H41.0978C41.0978 46.5316 40.8616 45.6732 40.419 44.9431C39.9764 44.213 39.3474 43.644 38.6114 43.3079C37.8755 42.9719 37.0656 42.884 36.2844 43.0553C35.5031 43.2266 34.7854 43.6494 34.2221 44.2703C33.6588 44.8912 33.2753 45.6823 33.1198 46.5435C32.9644 47.4048 33.0442 48.2975 33.349 49.1087C33.6539 49.92 34.1701 50.6133 34.8325 51.1012C35.4948 51.589 36.2735 51.8494 37.0701 51.8494H53.6257V49.8017H37.0701Z" fill="#44545F"/>
<path d="M53.6259 55.1464V52.9666H37.0703C36.0734 52.9666 35.0988 52.6408 34.2699 52.0303C33.441 51.4197 32.795 50.552 32.4135 49.5367C32.032 48.5215 31.9322 47.4043 32.1267 46.3265C32.3212 45.2487 32.8012 44.2587 33.5061 43.4817C34.211 42.7047 35.1092 42.1755 36.0869 41.9611C37.0647 41.7467 38.0782 41.8567 38.9992 42.2773C39.9202 42.6978 40.7074 43.4099 41.2613 44.3237C41.8152 45.2374 42.1107 46.3116 42.1107 47.4105H44.0882C44.0882 45.8805 43.6766 44.3848 42.9055 43.1126C42.1343 41.8405 41.0383 40.8489 39.7559 40.2634C38.4736 39.6779 37.0625 39.5247 35.7011 39.8232C34.3398 40.1217 33.0893 40.8585 32.1079 41.9404C31.1264 43.0222 30.458 44.4007 30.1872 45.9013C29.9164 47.4019 30.0554 48.9573 30.5866 50.3709C31.1177 51.7845 32.0172 52.9926 33.1713 53.8427C34.3254 54.6927 35.6823 55.1464 37.0703 55.1464H53.6259Z" fill="#44545F"/>
<path d="M23.749 55.1516V44.7607H21.7768V42.6399H25.5286V55.1516H23.749Z" fill="#44545F"/>
<path d="M23.746 41.7919H26.3427V55.1512H28.1705V39.5649H23.746V41.7919Z" fill="#44545F"/>
<path d="M16.9138 24.1404C19.6831 17.3596 21.984 16.9495 26.5717 18.4071C33.7149 10.3538 37.9252 14.1362 42.2336 19.2663" stroke="#44545F" stroke-width="2"/>
</svg>
