<svg width="72" height="72" viewBox="0 0 72 72" fill="none" xmlns="http://www.w3.org/2000/svg">
<rect width="72" height="72" fill="white"/>
<path d="M9.29032 18.5806H16.2581V23.2257H9.29032V18.5806Z" fill="#FFD200"/>
<path d="M9.29032 25.5483H16.2581V30.1935H9.29032V25.5483Z" fill="#FFD200"/>
<path d="M9.29032 32.5161H16.2581V37.1613H9.29032V32.5161Z" fill="#FFD200"/>
<path d="M9.29032 39.4839H16.2581V44.129H9.29032V39.4839Z" fill="#FFD200"/>
<path d="M9.29032 46.4517H16.2581V51.0968H9.29032V46.4517Z" fill="#FFD200"/>
<path d="M9.29032 53.4194H16.2581V58.0646H9.29032V53.4194Z" fill="#FFD200"/>
<path d="M9.29032 60.3872H16.2581V65.0324H9.29032V60.3872Z" fill="#FFD200"/>
<path d="M20.9032 18.5806H27.871V23.2257H20.9032V18.5806Z" fill="#FFD200"/>
<path d="M46.4516 20.9033H53.4194V13.9355H46.4516V20.9033Z" fill="#FFD200"/>
<path d="M55.7419 13.9355V20.9033H62.7097V13.9355H55.7419Z" fill="#FFD200"/>
<path d="M55.7419 31.3549H62.7097V24.3872H55.7419V31.3549Z" fill="#FFD200"/>
<path d="M55.7419 52.2583H62.7097V45.2905H55.7419V52.2583Z" fill="#FFD200"/>
<path d="M55.7419 41.8066H62.7097V34.8389H55.7419V41.8066Z" fill="#FFD200"/>
<path d="M55.7419 62.7099H62.7097V55.7422H55.7419V62.7099Z" fill="#FFD200"/>
<path d="M69.6774 65.246V9.29032H67.3548V4.64516H65.0323V0H44.129V4.64516H41.8064V9.29032H39.4839V23.2258H34.2881L32.3375 11.6129H25.5484V4.64516H18.5806V11.6129H11.6129V4.64516H4.64516V11.6129H2.32258V65.246C0.974168 65.7269 0 67.0044 0 68.5161V72H72V68.5161C72 67.0044 71.0258 65.7269 69.6774 65.246ZM46.4516 2.32258H62.7097V4.64516H46.4516V2.32258ZM44.129 6.96774H65.0323V9.29032H44.129V6.96774ZM41.8064 11.6129H67.3548V65.0323H50.2371L58.1654 31.0554L51.64 23.2258H41.8064V11.6129ZM44.129 65.0323H39.4839V58.0645H44.129V65.0323ZM37.1613 55.7419V65.0323H34.8387V55.7419H25.5484V65.0323H24.1467L16.5597 32.5161H55.4403L47.8533 65.0323H46.4516V55.7419H37.1613ZM32.5161 65.0323H27.871V58.0645H32.5161V65.0323ZM21.7629 65.0323H18.5806V51.395L21.7629 65.0323ZM17.5759 30.1935L21.4464 25.5484H50.5518L54.4224 30.1935H17.5759ZM20.9032 6.96774H23.2258V11.6129H20.9032V6.96774ZM6.96774 6.96774H9.29032V11.6129H6.96774V6.96774ZM30.3722 13.9355L31.9332 23.2258H20.36L13.8346 31.0554L16.2581 41.4418V65.0323H4.64516V13.9355H30.3722ZM69.6774 69.6774H2.32258V68.5161C2.32258 67.8765 2.84425 67.3548 3.48387 67.3548H68.5161C69.1557 67.3548 69.6774 67.8765 69.6774 68.5161V69.6774Z" fill="#44545F"/>
<path d="M48.7742 34.8389H23.2258V41.8066H48.7742V34.8389ZM34.8387 37.1614H37.1613V39.484H34.8387V37.1614ZM32.5161 39.484H30.1935V37.1614H32.5161V39.484ZM39.4839 37.1614H41.8065V39.484H39.4839V37.1614ZM25.5484 37.1614H27.871V39.484H25.5484V37.1614ZM46.4516 39.484H44.129V37.1614H46.4516V39.484Z" fill="#44545F"/>
<path d="M48.7742 44.1289H23.2258V51.0966H48.7742V44.1289ZM34.8387 46.4515H37.1613V48.7741H34.8387V46.4515ZM32.5161 48.7741H30.1935V46.4515H32.5161V48.7741ZM39.4839 46.4515H41.8065V48.7741H39.4839V46.4515ZM25.5484 46.4515H27.871V48.7741H25.5484V46.4515ZM46.4516 48.7741H44.129V46.4515H46.4516V48.7741Z" fill="#44545F"/>
</svg>
