<svg width="40" height="40" viewBox="0 0 40 40" fill="none" xmlns="http://www.w3.org/2000/svg">
<path d="M23.8031 35.9193C24.1802 35.9193 24.4859 35.6136 24.4859 35.2365V31.794C24.4859 31.4169 24.1802 31.1112 23.8031 31.1112H16.1972C15.8201 31.1112 15.5144 31.4169 15.5144 31.794V35.2365C15.5144 35.6136 15.8201 35.9193 16.1972 35.9193H23.8031Z" fill="#444444"/>
<path d="M30.0169 37.5381H9.98313C9.38716 37.5381 8.90393 38.0213 8.90393 38.6173C8.90393 39.2132 9.38716 39.6965 9.98313 39.6965H30.0169C30.6128 39.6965 31.0961 39.2132 31.0961 38.6173C31.0962 38.0213 30.613 37.5381 30.0169 37.5381Z" fill="#444444"/>
<path d="M38.9209 0.303589H1.0792C0.483234 0.303589 0 0.786823 0 1.38278V28.0945C0 28.6905 0.483234 29.1737 1.0792 29.1737H38.9208C39.5168 29.1737 40 28.6905 40 28.0945V1.38278C40.0001 0.786823 39.5169 0.303589 38.9209 0.303589ZM13.3222 22.4959C9.04474 22.4959 5.565 19.0161 5.565 14.7387C5.565 10.4612 9.04474 6.98146 13.3222 6.98146C17.5997 6.98146 21.0794 10.4612 21.0794 14.7387C21.0794 19.0161 17.5995 22.4959 13.3222 22.4959ZM33.3559 20.2699H24.4521C23.8561 20.2699 23.3729 19.7866 23.3729 19.1907C23.3729 18.5947 23.8561 18.1115 24.4521 18.1115H33.3559C33.9519 18.1115 34.4351 18.5947 34.4351 19.1907C34.4351 19.7866 33.9519 20.2699 33.3559 20.2699ZM33.3559 15.818H24.4521C23.8561 15.818 23.3729 15.3348 23.3729 14.7388C23.3729 14.1428 23.8561 13.6596 24.4521 13.6596H33.3559C33.9519 13.6596 34.4351 14.1428 34.4351 14.7388C34.4351 15.3348 33.9519 15.818 33.3559 15.818ZM33.3559 11.366H24.4521C23.8561 11.366 23.3729 10.8827 23.3729 10.2868C23.3729 9.69083 23.8561 9.20759 24.4521 9.20759H33.3559C33.9519 9.20759 34.4351 9.69083 34.4351 10.2868C34.4351 10.8827 33.9519 11.366 33.3559 11.366Z" fill="#444444"/>
<path d="M13.3222 9.13995C12.168 9.13995 11.0943 9.4912 10.2022 10.0923L13.7692 13.6594H18.8154C18.3109 11.087 16.0401 9.13995 13.3222 9.13995Z" fill="#444444"/>
<path d="M8.67578 11.6188C8.07483 12.5109 7.72345 13.5846 7.72345 14.7388C7.72345 17.8258 10.2351 20.3375 13.3221 20.3375C13.8621 20.3375 14.3837 20.2591 14.878 20.1158L12.4401 15.3831L8.67578 11.6188Z" fill="#444444"/>
<path d="M16.933 19.0125C17.8856 18.2063 18.5662 17.0887 18.8153 15.818H15.1562L16.933 19.0125Z" fill="#444444"/>
</svg>
