<svg width="72" height="72" viewBox="0 0 72 72" fill="none" xmlns="http://www.w3.org/2000/svg">
<path d="M40.6452 29.0322C40.6452 36.0873 34.926 41.8064 27.871 41.8064C20.8159 41.8064 15.0968 36.0873 15.0968 29.0322C15.0968 21.9771 20.8159 16.258 27.871 16.258C34.926 16.258 40.6452 21.9771 40.6452 29.0322Z" fill="#FFD200"/>
<path d="M27.871 34.8387C26.59 34.8387 25.5484 33.797 25.5484 32.5161H23.2258C23.2258 34.6737 24.712 36.4774 26.7097 36.9963V39.4838H29.0323V36.9963C31.0299 36.4774 32.5161 34.6737 32.5161 32.5161C32.5161 29.9542 30.4328 27.8709 27.871 27.8709C26.59 27.8709 25.5484 26.8293 25.5484 25.5484C25.5484 24.2674 26.59 23.2258 27.871 23.2258C29.1519 23.2258 30.1935 24.2674 30.1935 25.5484H32.5161C32.5161 23.3908 31.0299 21.587 29.0323 21.0682V18.5806H26.7097V21.0682C24.712 21.587 23.2258 23.3908 23.2258 25.5484C23.2258 28.1102 25.3091 30.1935 27.871 30.1935C29.1519 30.1935 30.1935 31.2352 30.1935 32.5161C30.1935 33.797 29.1519 34.8387 27.871 34.8387Z" fill="#44545F"/>
<path d="M34.8387 4.64523H51.0968V6.96781H34.8387V4.64523Z" fill="#44545F"/>
<path d="M27.871 9.2903H51.0968V11.6129H27.871V9.2903Z" fill="#44545F"/>
<path d="M72 51.0968V41.8064H55.7419V0H9.97077L0 9.97077V65.0323H13.9355V72H39.4839V65.0323H44.129V72H69.6774V65.0323H72V55.7419H69.6774V51.0968H72ZM69.6774 48.7742H48.7742V44.129H51.0968V46.4516H53.4194V44.129H55.7419V46.4516H58.0645V44.129H60.3871V46.4516H62.7097V44.129H65.0323V46.4516H67.3548V44.129H69.6774V48.7742ZM48.7742 41.8064H6.96774V16.2581H48.7742V41.8064ZM9.29032 3.96472V9.29032H3.96472L9.29032 3.96472ZM37.1613 69.6774H16.2581V65.0323H18.5806V67.3548H20.9032V65.0323H23.2258V67.3548H25.5484V65.0323H27.871V67.3548H30.1935V65.0323H32.5161V67.3548H34.8387V65.0323H37.1613V69.6774ZM39.4839 62.7097H18.5806V58.0645H20.9032V60.3871H23.2258V58.0645H25.5484V60.3871H27.871V58.0645H30.1935V60.3871H32.5161V58.0645H34.8387V60.3871H37.1613V58.0645H39.4839V62.7097ZM44.129 62.7097H41.8064V55.7419H16.2581V62.7097H2.32258V11.6129H11.6129V2.32258H53.4194V41.8064H51.0968V13.9355H4.64516V44.129H46.4516V48.7742H44.129V58.0645H46.4516V62.7097H44.129ZM67.3548 69.6774H46.4516V65.0323H48.7742V67.3548H51.0968V65.0323H53.4194V67.3548H55.7419V65.0323H58.0645V67.3548H60.3871V65.0323H62.7097V67.3548H65.0323V65.0323H67.3548V69.6774ZM69.6774 62.7097H48.7742V58.0645H51.0968V60.3871H53.4194V58.0645H55.7419V60.3871H58.0645V58.0645H60.3871V60.3871H62.7097V58.0645H65.0323V60.3871H67.3548V58.0645H69.6774V62.7097ZM67.3548 55.7419H46.4516V51.0968H48.7742V53.4194H51.0968V51.0968H53.4194V53.4194H55.7419V51.0968H58.0645V53.4194H60.3871V51.0968H62.7097V53.4194H65.0323V51.0968H67.3548V55.7419Z" fill="#44545F"/>
<path d="M39.4839 51.0968H41.8064V53.4193H39.4839V51.0968Z" fill="#44545F"/>
<path d="M4.64516 51.0968H37.1613V53.4193H4.64516V51.0968Z" fill="#44545F"/>
<path d="M4.64516 46.4515H41.8064V48.7741H4.64516V46.4515Z" fill="#44545F"/>
</svg>
