<svg width="72" height="72" viewBox="0 0 72 72" fill="none" xmlns="http://www.w3.org/2000/svg">
<path d="M48.9692 5.80646C44.1058 5.80646 39.5712 7.96403 36.5098 11.7326C32.8252 12.6699 30.1935 16.0188 30.1935 19.857V31.3548H31.3548C31.3548 28.7896 33.4347 26.7097 36 26.7097V22.0645C36 24.6298 38.0799 26.7097 40.6452 26.7097C42.0412 26.7097 43.2779 26.0814 44.129 25.1072C44.9801 26.0814 46.2169 26.7097 47.6129 26.7097C49.0089 26.7097 50.2456 26.0814 51.0968 25.1072C51.9479 26.0814 53.1846 26.7097 54.5806 26.7097C57.1459 26.7097 59.2258 24.6298 59.2258 22.0645V26.7097C61.7911 26.7097 63.871 28.7896 63.871 31.3548H65.0322V21.8695C65.0322 13.0124 57.8263 5.80646 48.9692 5.80646Z" fill="#FFD200"/>
<path d="M51.7574 57.5406L49.9355 61.5484L51.0968 70.8387H44.129L45.2903 61.5484L43.4684 57.5406L47.6129 54.5806L51.7574 57.5406Z" fill="#FFD200"/>
<path d="M2.32259 39.4839H9.29033V41.8064H2.32259V39.4839Z" fill="#44545F"/>
<path d="M66.4419 51.8912L54.5806 47.9367V45.5307C57.4782 43.6368 59.5547 40.5998 60.1801 37.0638C62.9268 36.6062 65.0323 34.2291 65.0323 31.3548C65.0323 28.5514 63.0335 26.2056 60.3871 25.6658V22.0645H58.0645C58.0645 23.9851 56.5012 25.5484 54.5806 25.5484C53.5776 25.5484 52.6505 25.1197 51.97 24.3429L51.0968 23.3443L50.2235 24.344C48.8638 25.8977 46.3632 25.8977 45.0034 24.344L44.129 23.3443L43.2558 24.344C42.5754 25.1197 41.6482 25.5484 40.6452 25.5484C38.7246 25.5484 37.1613 23.9851 37.1613 22.0645H34.8387V25.6658C32.1923 26.2056 30.1935 28.5503 30.1935 31.3548V28.5514L21.2366 19.5945L27.7644 9.80236C29.4791 11.1888 30.8417 13.0226 31.6639 15.1722C32.1425 14.4674 32.7231 13.8425 33.3916 13.3106C31.0889 8.41368 26.332 5.1073 20.9032 4.69166V2.36341C27.165 2.77337 32.6658 6.47442 35.4052 12.1147C35.763 11.9673 36.1264 11.8289 36.5098 11.7314C36.7734 11.4059 37.0626 11.1099 37.3473 10.8105C34.0001 4.1921 27.2682 0 19.7419 0C8.85597 0 0 8.85597 0 19.7419C0 29.2585 6.76815 37.2231 15.7438 39.0762L10.895 48.7742H0V51.0968H12.3308L18.1763 39.4051C18.6946 39.4453 19.2135 39.4839 19.7419 39.4839C24.1291 39.4839 28.362 38.0124 31.809 35.3451C32.6545 36.2285 33.7749 36.842 35.044 37.0604C35.6677 40.5975 37.7453 43.6357 40.644 45.5307V47.9367L28.7828 51.8901C25.4588 52.9992 23.2258 56.0986 23.2258 59.6035V72H72V59.6035C72 56.0986 69.767 52.9992 66.4419 51.8912ZM55.6455 50.7401L54.8058 58.2919L49.4036 54.4332L53.7329 50.1028L55.6455 50.7401ZM62.7097 31.3548C62.7097 32.8666 61.7355 34.1441 60.3871 34.6249V28.0859C61.7355 28.5656 62.7097 29.8431 62.7097 31.3548ZM19.1205 18.5806H7.02671C7.61586 12.0796 13.09 6.96774 19.7419 6.96774C21.925 6.96774 24.0015 7.52741 25.8285 8.51915L19.1205 18.5806ZM18.5806 2.38155V4.70413C13.902 5.06307 9.81313 7.55292 7.29549 11.216L5.27684 10.0496C8.20331 5.69588 13.0435 2.74899 18.5806 2.38155ZM4.12859 12.0682L6.14327 13.2307C5.19349 15.2062 4.64516 17.4091 4.64516 19.7419C4.64516 22.0747 5.19349 24.2777 6.14214 26.2532L4.12746 27.4156C2.98318 25.0965 2.32258 22.4977 2.32258 19.7419C2.32258 16.9861 2.98318 14.3874 4.12859 12.0682ZM5.27684 29.4343L7.29549 28.269C9.81313 31.9309 13.902 34.4208 18.5806 34.7797V37.1023C13.0435 36.7349 8.20331 33.788 5.27684 29.4343ZM20.9032 37.1091V34.7945C23.6647 34.5858 26.2895 33.6321 28.5514 32.003L27.1951 30.1181C25.0154 31.6871 22.4371 32.5161 19.7419 32.5161C13.09 32.5161 7.61586 27.4043 7.02671 20.9032H19.2611L30.248 31.8901C30.2956 32.4033 30.4005 32.8972 30.5746 33.3627C27.8024 35.5668 24.4359 36.8732 20.9032 37.1091ZM32.5161 31.3548C32.5161 29.8431 33.4903 28.5656 34.8387 28.0847V34.6238C33.4903 34.1441 32.5161 32.8666 32.5161 31.3548ZM37.1613 34.8387V26.6796C38.1343 27.4168 39.333 27.871 40.6452 27.871C41.9062 27.871 43.1282 27.4497 44.129 26.6887C46.1324 28.2112 49.0934 28.2112 51.0968 26.6887C52.0976 27.4497 53.3196 27.871 54.5806 27.871C55.8928 27.871 57.0915 27.4168 58.0645 26.6796V34.8387C58.0645 40.6009 53.3751 45.2903 47.6129 45.2903C41.8507 45.2903 37.1613 40.6009 37.1613 34.8387ZM47.6129 47.6129C49.2528 47.6129 50.8155 47.2914 52.2581 46.7255V48.2933L47.6129 52.9385L42.9677 48.2933V46.7255C44.4103 47.2914 45.973 47.6129 47.6129 47.6129ZM41.4929 50.1028L45.8222 54.4332L40.42 58.2919L39.5803 50.7401L41.4929 50.1028ZM69.6774 69.6774H62.7097V60.3871H60.3871V69.6774H34.8387V60.3871H32.5161V69.6774H25.5484V59.6035C25.5484 57.0994 27.144 54.8863 29.5188 54.0941L37.3274 51.4914L38.5477 62.4823L47.6129 56.0079L56.6781 62.4823L57.8984 51.4914L65.707 54.0941C68.0818 54.8863 69.6774 57.0994 69.6774 59.6035V69.6774Z" fill="#44545F"/>
<path d="M42.9677 30.1935C42.9677 30.8349 42.4478 31.3548 41.8064 31.3548C41.1651 31.3548 40.6452 30.8349 40.6452 30.1935C40.6452 29.5522 41.1651 29.0323 41.8064 29.0323C42.4478 29.0323 42.9677 29.5522 42.9677 30.1935Z" fill="#44545F"/>
<path d="M54.5806 30.1935C54.5806 30.8349 54.0607 31.3548 53.4194 31.3548C52.778 31.3548 52.2581 30.8349 52.2581 30.1935C52.2581 29.5522 52.778 29.0323 53.4194 29.0323C54.0607 29.0323 54.5806 29.5522 54.5806 30.1935Z" fill="#44545F"/>
<path d="M52.2581 37.1613H49.9355C49.9355 38.4422 48.8938 39.4839 47.6129 39.4839C46.332 39.4839 45.2903 38.4422 45.2903 37.1613H42.9677C42.9677 39.7232 45.051 41.8064 47.6129 41.8064C50.1748 41.8064 52.2581 39.7232 52.2581 37.1613Z" fill="#44545F"/>
<path d="M2.32259 44.129H9.29033V46.4516H2.32259V44.129Z" fill="#44545F"/>
</svg>
