<svg width="71" height="71" viewBox="0 0 71 71" fill="none" xmlns="http://www.w3.org/2000/svg">
<path d="M53.8529 20H17.1471C16.5127 20 16 19.3295 16 18.5V6.5C16 5.6705 16.5127 5 17.1471 5H53.8529C54.4873 5 55 5.6705 55 6.5V18.5C55 19.3295 54.4873 20 53.8529 20Z" fill="#FFD205"/>
<path d="M23.5977 16.7012H18.752V8.13477H23.5977V9.31836H20.1524V11.6504H23.3809V12.8223H20.1524V15.5117H23.5977V16.7012Z" fill="#44545F"/>
<path d="M26.8438 16.7012H25.4551V8.13477H30.2891V9.31836H26.8438V11.9961H30.0723V13.1855H26.8438V16.7012Z" fill="#44545F"/>
<path d="M36.7813 14.375C36.7813 15.1367 36.5059 15.7344 35.9551 16.168C35.4043 16.6016 34.6446 16.8184 33.6758 16.8184C32.7071 16.8184 31.9141 16.668 31.2969 16.3672V15.043C31.6875 15.2266 32.1016 15.3711 32.5391 15.4766C32.9805 15.582 33.3907 15.6348 33.7696 15.6348C34.3242 15.6348 34.7325 15.5293 34.9942 15.3184C35.2598 15.1074 35.3926 14.8242 35.3926 14.4688C35.3926 14.1484 35.2715 13.877 35.0293 13.6543C34.7871 13.4316 34.2871 13.168 33.5293 12.8633C32.7481 12.5469 32.1973 12.1855 31.877 11.7793C31.5567 11.373 31.3965 10.8848 31.3965 10.3145C31.3965 9.59961 31.6504 9.03711 32.1582 8.62695C32.666 8.2168 33.3477 8.01172 34.2032 8.01172C35.0235 8.01172 35.8399 8.19141 36.6524 8.55078L36.2071 9.69336C35.4453 9.37305 34.7657 9.21289 34.168 9.21289C33.7149 9.21289 33.3711 9.3125 33.1367 9.51172C32.9024 9.70703 32.7852 9.9668 32.7852 10.291C32.7852 10.5137 32.8321 10.7051 32.9258 10.8652C33.0196 11.0215 33.1739 11.1699 33.3887 11.3105C33.6035 11.4512 33.9903 11.6367 34.5489 11.8672C35.1778 12.1289 35.6387 12.373 35.9317 12.5996C36.2246 12.8262 36.4395 13.082 36.5762 13.3672C36.7129 13.6523 36.7813 13.9883 36.7813 14.375Z" fill="#44545F"/>
<path d="M46.045 12.4062C46.045 13.8008 45.6953 14.8848 44.9961 15.6582C44.3008 16.4316 43.3145 16.8184 42.0371 16.8184C40.7442 16.8184 39.75 16.4355 39.0547 15.6699C38.3633 14.9004 38.0176 13.8086 38.0176 12.3945C38.0176 10.9805 38.3653 9.89453 39.0606 9.13672C39.7598 8.37891 40.7559 8 42.0489 8C43.3223 8 44.3067 8.38477 45.002 9.1543C45.6973 9.92383 46.045 11.0078 46.045 12.4062ZM39.5059 12.4062C39.5059 13.4609 39.7188 14.2617 40.1446 14.8086C40.5703 15.3516 41.2012 15.623 42.0371 15.623C42.8692 15.623 43.4961 15.3535 43.918 14.8145C44.3438 14.2754 44.5567 13.4727 44.5567 12.4062C44.5567 11.3555 44.3457 10.5586 43.9239 10.0156C43.5059 9.47266 42.8809 9.20117 42.0489 9.20117C41.209 9.20117 40.5742 9.47266 40.1446 10.0156C39.7188 10.5586 39.5059 11.3555 39.5059 12.4062Z" fill="#44545F"/>
<path d="M47.8848 16.7012V8.13477H49.2852V15.5H52.9121V16.7012H47.8848Z" fill="#44545F"/>
<path d="M71 54.7204V28.7916C71 25.4272 69.6899 22.2642 67.3103 19.8846L62.4216 14.9959C61.6498 14.224 60.6329 13.7958 59.5484 13.7568V0H11.4516V13.7568C10.366 13.7958 9.3491 14.224 8.5784 14.9959L3.68971 19.8846C1.31006 22.2642 0 25.4272 0 28.7916V54.7204C0 56.5881 0.507306 58.4216 1.46924 60.0225L2.55829 61.8387H0V71H20.6129V61.8387H18.3226V57.597C19.8227 55.2288 20.6129 52.5034 20.6129 49.6931V48.0968H24.0484V45.8064H20.6129V41.2258C20.6129 38.6996 18.5585 36.6452 16.0323 36.6452C15.194 36.6452 14.4187 36.8879 13.7419 37.2819V2.29032H57.2581V37.2819C56.5813 36.8879 55.806 36.6452 54.9677 36.6452C52.4415 36.6452 50.3871 38.6996 50.3871 41.2258V45.8064H46.9516V48.0968H50.3871V49.6943C50.3871 52.5045 51.1773 55.2288 52.6774 57.5982V61.8387H50.3871V71H71V61.8387H68.4417L69.5308 60.0236C70.4927 58.4215 71 56.5881 71 54.7204ZM11.4516 44.1872L10.1667 42.9023C9.52774 42.2633 9.16129 41.3781 9.16129 40.4734V34.8816L11.4516 32.9188V41.2258V44.1872ZM11.4516 29.9013L9.16129 31.8641V28.2351C9.16129 27.3304 9.52774 26.4464 10.1667 25.8062L11.4516 24.5225V29.9013ZM18.3226 68.7097H2.29032V64.129H18.3226V68.7097ZM16.0323 38.9355C17.2954 38.9355 18.3226 39.9627 18.3226 41.2258V49.6943C18.3226 52.169 17.5977 54.5646 16.2246 56.6236L16.0323 56.9111V61.8387H5.22881L3.43205 58.8441C2.6854 57.5993 2.29032 56.1736 2.29032 54.7204V28.7916C2.29032 26.0387 3.36219 23.4506 5.30897 21.5038L10.1977 16.6151C10.5366 16.2762 10.9787 16.0838 11.4516 16.0471V21.284L8.54748 24.1881C7.46645 25.2691 6.87097 26.7063 6.87097 28.2362V40.4746C6.87097 42.0034 7.46645 43.4417 8.54748 44.5227L11.4516 47.4257V49.2419H13.7419V46.9516V41.2258C13.7419 39.9627 14.7691 38.9355 16.0323 38.9355ZM59.5484 32.9188L61.8387 34.8816V40.4734C61.8387 41.3781 61.4723 42.2622 60.8333 42.9023L59.5484 44.1872V41.2258V32.9188ZM61.8387 31.8653L59.5484 29.9025V24.5236L60.8333 25.8085C61.4723 26.4464 61.8387 27.3316 61.8387 28.2362V31.8653ZM68.7097 68.7097H52.6774V64.129H68.7097V68.7097ZM68.7097 54.7204C68.7097 56.1736 68.3146 57.5993 67.5668 58.8441L65.7712 61.8387H54.9677V56.9111L54.7754 56.6225C53.4023 54.5635 52.6774 52.1678 52.6774 49.6943V41.2258C52.6774 39.9627 53.7046 38.9355 54.9677 38.9355C56.2309 38.9355 57.2581 39.9627 57.2581 41.2258V46.9516V49.2419H59.5484V47.4257L62.4525 44.5216C63.5335 43.4405 64.129 42.0034 64.129 40.4734V28.2362C64.129 26.7075 63.5335 25.2691 62.4525 24.1881L59.5484 21.284V16.0471C60.0213 16.0838 60.4634 16.2762 60.8023 16.6151L65.691 21.5038C67.6378 23.4506 68.7097 26.0387 68.7097 28.7916V54.7204Z" fill="#44545F"/>
<path d="M42.5336 53.1791L46.2118 62.4778L42.9023 61.6499L41.3426 64.7716L37.709 55.687L35.5813 56.539L41.109 70.3577L44.1299 64.3181L49.9817 65.7805L44.6624 52.3374L42.5336 53.1791Z" fill="#44545F"/>
<path d="M29.6574 64.7716L28.0977 61.6499L24.7882 62.4778L28.4676 53.1802L26.3387 52.3374L21.0183 65.7805L26.8701 64.3181L29.891 70.3577L35.4187 56.539L33.291 55.687L29.6574 64.7716Z" fill="#44545F"/>
<path d="M35.5 57.258C33.796 57.258 32.21 56.5068 31.1278 55.2162C29.4581 55.357 27.7988 54.7741 26.5929 53.5694C25.3882 52.3647 24.7996 50.7123 24.9462 49.0335C23.6545 47.9513 22.9032 46.3652 22.9032 44.6612C22.9032 42.9572 23.6545 41.3712 24.9451 40.289C24.7973 38.6113 25.3882 36.9589 26.5918 35.7542C27.7976 34.5483 29.4558 33.9586 31.1266 34.1074C32.21 32.8157 33.796 32.0645 35.5 32.0645C37.204 32.0645 38.7901 32.8157 39.8722 34.1063C41.5407 33.9586 43.2012 34.5483 44.4071 35.753C45.6118 36.9577 46.2015 38.6102 46.0538 40.2879C47.3456 41.3712 48.0968 42.9572 48.0968 44.6612C48.0968 46.3652 47.3456 47.9513 46.055 49.0323C46.2015 50.7111 45.6118 52.3636 44.4082 53.5683C43.2024 54.7741 41.5407 55.357 39.8734 55.215C38.7901 56.5068 37.204 57.258 35.5 57.258Z" fill="#FFD205"/>
<path d="M41.2258 44.6614C41.2258 41.5041 38.6572 38.9355 35.5 38.9355C32.3428 38.9355 29.7742 41.5041 29.7742 44.6614C29.7742 47.8186 32.3428 50.3872 35.5 50.3872C38.6572 50.3872 41.2258 47.8186 41.2258 44.6614ZM35.5 48.0968C33.6059 48.0968 32.0645 46.5555 32.0645 44.6614C32.0645 42.7673 33.6059 41.2259 35.5 41.2259C37.3941 41.2259 38.9355 42.7673 38.9355 44.6614C38.9355 46.5555 37.3941 48.0968 35.5 48.0968Z" fill="#44545F"/>
<path d="M54.9677 22.9033H16.0323V25.1936H54.9677V22.9033Z" fill="#44545F"/>
<path d="M50.3871 27.4839H16.0323V29.7742H50.3871V27.4839Z" fill="#44545F"/>
<path d="M54.9678 27.4839H52.6774V29.7742H54.9678V27.4839Z" fill="#44545F"/>
</svg>
