<svg width="40" height="40" viewBox="0 0 40 40" fill="none" xmlns="http://www.w3.org/2000/svg">
<g clip-path="url(#clip0)">
<path d="M0.90912 18.1818H15.5007C15.7671 18.1818 16.0192 18.0655 16.1932 17.8622C16.7046 17.2612 17.2674 16.6992 17.8622 16.1932C18.0646 16.0201 18.1818 15.7671 18.1818 15.5007V0.90912C18.1818 0.40662 17.7752 0 17.2728 0H3.63639C1.63176 0 0 1.63083 0 3.63639V17.2728C0 17.7752 0.40662 18.1818 0.90912 18.1818ZM5.45455 8.18182H8.18182V5.45455C8.18182 4.95205 8.58844 4.54543 9.09094 4.54543C9.59344 4.54543 9.99998 4.95205 9.99998 5.45455V8.18182H12.7273C13.2298 8.18182 13.6364 8.58844 13.6364 9.09094C13.6364 9.59344 13.2298 10.0001 12.7273 10.0001H9.99998V12.7273C9.99998 13.2298 9.59336 13.6365 9.09086 13.6365C8.58836 13.6365 8.18182 13.2298 8.18182 12.7273V9.99998H5.45455C4.95205 9.99998 4.54543 9.59336 4.54543 9.09086C4.54543 8.58836 4.95205 8.18182 5.45455 8.18182Z" fill="#444444"/>
<path d="M20.4172 13.9648C20.6783 14.1317 21.0049 14.1557 21.2837 14.0288C26.3654 11.725 32.4769 12.6154 36.6832 16.194C36.8518 16.337 37.0614 16.4107 37.2727 16.4107C37.4023 16.4107 37.532 16.3832 37.6544 16.3273C37.9758 16.1781 38.1818 15.8559 38.1818 15.5016V3.63639C38.1818 1.63082 36.5501 0 34.5454 0H20.9091C20.4066 0 19.9999 0.40662 19.9999 0.90912V13.2005C20 13.5094 20.1562 13.797 20.4172 13.9648ZM25.4546 8.18182H32.7273C33.2298 8.18182 33.6364 8.58844 33.6364 9.09094C33.6364 9.59344 33.2298 10.0001 32.7273 10.0001H25.4546C24.9521 10.0001 24.5455 9.59344 24.5455 9.09094C24.5455 8.58844 24.9521 8.18182 25.4546 8.18182Z" fill="#444444"/>
<path d="M12.7273 27.2728C12.7273 25.206 13.164 23.1917 14.027 21.2838C14.1548 21.0023 14.1317 20.6757 13.963 20.4164C13.7962 20.1571 13.5085 20.0001 13.1996 20.0001H0.90912C0.40662 20.0001 0 20.4066 0 20.9091V34.5455C0 36.551 1.63176 38.1818 3.63639 38.1818H15.5007C15.8559 38.1818 16.1773 37.9758 16.3264 37.6545C16.4738 37.3322 16.4223 36.954 16.1932 36.6841C13.9578 34.0545 12.7273 30.713 12.7273 27.2728ZM12.4609 32.461C12.2834 32.6385 12.0507 32.7273 11.8181 32.7273C11.5855 32.7273 11.353 32.6385 11.1753 32.461L9.09086 30.3765L7.00637 32.461C6.82884 32.6385 6.59617 32.7273 6.36358 32.7273C6.131 32.7273 5.89841 32.6385 5.7208 32.461C5.36566 32.1058 5.36566 31.5305 5.7208 31.1755L7.80529 29.091L5.7208 27.0065C5.36566 26.6514 5.36566 26.0761 5.7208 25.721C6.07594 25.3659 6.65123 25.3659 7.00628 25.721L9.09077 27.8055L11.1753 25.721C11.5304 25.3659 12.1057 25.3659 12.4607 25.721C12.8159 26.0762 12.8159 26.6515 12.4607 27.0065L10.3763 29.091L12.4607 31.1755C12.8161 31.5305 12.8161 32.1058 12.4609 32.461Z" fill="#444444"/>
<path d="M27.2728 14.5455C20.2557 14.5455 14.5455 20.2549 14.5455 27.2728C14.5455 34.2907 20.2557 40 27.2728 40C34.2898 40 40 34.2907 40 27.2728C40 20.2548 34.2898 14.5455 27.2728 14.5455ZM31.8182 30.9092H22.7273C22.2248 30.9092 21.8182 30.5026 21.8182 30.0001C21.8182 29.4976 22.2248 29.0909 22.7273 29.0909H31.8183C32.3208 29.0909 32.7274 29.4976 32.7274 30.0001C32.7273 30.5026 32.3207 30.9092 31.8182 30.9092ZM31.8182 25.4546H22.7273C22.2248 25.4546 21.8182 25.048 21.8182 24.5455C21.8182 24.043 22.2248 23.6364 22.7273 23.6364H31.8183C32.3208 23.6364 32.7274 24.043 32.7274 24.5455C32.7273 25.048 32.3207 25.4546 31.8182 25.4546Z" fill="#444444"/>
</g>
<defs>
<clipPath id="clip0">
<rect width="40" height="40" fill="white"/>
</clipPath>
</defs>
</svg>
