<svg width="72" height="72" viewBox="0 0 72 72" fill="none" xmlns="http://www.w3.org/2000/svg">
<path d="M36.4528 31.3548C37.9445 31.3548 39.3729 31.8007 40.5968 32.5857V12.7741C40.5968 12.1319 40.0831 11.6128 39.4476 11.6128H32.5524C31.9169 11.6128 31.4032 12.1319 31.4032 12.7741V32.4998C32.9374 31.7705 34.6451 31.3548 36.4528 31.3548Z" fill="#FFD200"/>
<path d="M44.5961 35.5739H44.6179C46.7164 33.1004 49.7928 31.5106 53.2381 31.3793V18.5807C53.2381 17.9385 52.7244 17.4194 52.0889 17.4194H45.1937C44.5581 17.4194 44.0444 17.9385 44.0444 18.5807V35.2824C44.2306 35.3753 44.4202 35.4648 44.5961 35.5739Z" fill="#FFD200"/>
<path d="M19.2147 31.3549C21.8039 31.3549 24.2207 32.6626 25.6572 34.8388C26.0594 34.9399 26.4432 35.0815 26.8064 35.2569L27.6637 35.272C27.7568 35.1698 27.8602 35.0792 27.9556 34.9817V18.5807C27.9556 17.9385 27.4419 17.4194 26.8064 17.4194H19.9112C19.2756 17.4194 18.7619 17.9385 18.7619 18.5807V31.3782C18.9136 31.3724 19.0619 31.3549 19.2147 31.3549Z" fill="#FFD200"/>
<path d="M60.1333 34.8386C62.8351 35.5215 64.7302 37.9741 64.7302 40.7879V41.8064H65.8794V12.7741C65.8794 12.1319 65.3657 11.6128 64.7302 11.6128H57.8349C57.1994 11.6128 56.6857 12.1319 56.6857 12.7741V31.9749C58.0682 32.5613 59.2772 33.5415 60.1333 34.8386Z" fill="#FFD200"/>
<path d="M7.38482 41.8064C7.99275 37.2425 11.122 33.4915 15.3143 32.026V12.7741C15.3143 12.1319 14.8006 11.6128 14.1651 11.6128H7.2699C6.63439 11.6128 6.1207 12.1319 6.1207 12.7741V41.8064H7.38482Z" fill="#FFD200"/>
<path d="M10.7175 6.96776C11.6001 6.96776 12.3965 6.62169 13.0067 6.06891L19.9651 9.90466C19.9376 10.0835 19.9111 10.2647 19.9111 10.4516C19.9111 12.3724 21.458 13.9355 23.3588 13.9355C25.2595 13.9355 26.8064 12.3724 26.8064 10.4516C26.8064 10.2647 26.7799 10.0835 26.7512 9.90466L33.7096 6.06891C34.321 6.62169 35.1174 6.96776 36 6.96776C36.9125 6.96776 37.7376 6.60195 38.3547 6.0155L45.2396 9.99176C45.2201 10.1427 45.1936 10.2937 45.1936 10.4516C45.1936 12.3724 46.7405 13.9355 48.6413 13.9355C50.542 13.9355 52.0889 12.3724 52.0889 10.4516C52.0889 10.2937 52.0624 10.1427 52.0429 9.9906L58.9278 6.01433C59.5449 6.60195 60.3701 6.96776 61.2825 6.96776C63.1833 6.96776 64.7301 5.40466 64.7301 3.48388C64.7301 1.5631 63.1833 0 61.2825 0C59.3817 0 57.8349 1.5631 57.8349 3.48388C57.8349 3.64181 57.8613 3.79278 57.8809 3.94491L50.996 7.92001C50.3789 7.33356 49.5537 6.96776 48.6413 6.96776C47.7288 6.96776 46.9037 7.33356 46.2865 7.92001L39.4017 3.94491C39.4212 3.79278 39.4476 3.64181 39.4476 3.48388C39.4476 1.5631 37.9008 0 36 0C34.0992 0 32.5524 1.5631 32.5524 3.48388C32.5524 3.67085 32.5788 3.85201 32.6076 4.03085L25.6491 7.8666C25.0377 7.31382 24.2413 6.96776 23.3588 6.96776C22.4762 6.96776 21.6798 7.31382 21.0695 7.8666L14.1111 4.03085C14.1387 3.85201 14.1651 3.67085 14.1651 3.48388C14.1651 1.5631 12.6183 0 10.7175 0C8.81671 0 7.26988 1.5631 7.26988 3.48388C7.26988 5.40466 8.81671 6.96776 10.7175 6.96776ZM61.2825 2.32259C61.9157 2.32259 62.4317 2.84401 62.4317 3.48388C62.4317 4.12375 61.9157 4.64517 61.2825 4.64517C60.6493 4.64517 60.1333 4.12375 60.1333 3.48388C60.1333 2.84401 60.6493 2.32259 61.2825 2.32259ZM48.6413 9.29034C49.2745 9.29034 49.7905 9.81176 49.7905 10.4516C49.7905 11.0915 49.2745 11.6129 48.6413 11.6129C48.0081 11.6129 47.4921 11.0915 47.4921 10.4516C47.4921 9.81176 48.0081 9.29034 48.6413 9.29034ZM36 2.32259C36.6332 2.32259 37.1492 2.84401 37.1492 3.48388C37.1492 4.12375 36.6332 4.64517 36 4.64517C35.3668 4.64517 34.8508 4.12375 34.8508 3.48388C34.8508 2.84401 35.3668 2.32259 36 2.32259ZM23.3588 9.29034C23.992 9.29034 24.508 9.81176 24.508 10.4516C24.508 11.0915 23.992 11.6129 23.3588 11.6129C22.7255 11.6129 22.2095 11.0915 22.2095 10.4516C22.2095 9.81176 22.7255 9.29034 23.3588 9.29034ZM10.7175 2.32259C11.3507 2.32259 11.8667 2.84401 11.8667 3.48388C11.8667 4.12375 11.3507 4.64517 10.7175 4.64517C10.0843 4.64517 9.56829 4.12375 9.56829 3.48388C9.56829 2.84401 10.0843 2.32259 10.7175 2.32259Z" fill="#465861"/>
<path d="M70.4371 66.4756C69.6062 63.5364 67.2469 61.3381 64.2808 60.7388L57.8349 59.4347V59.1293C59.9609 57.8821 61.5445 55.801 62.1513 53.3298C64.2716 52.9175 65.8793 51.0351 65.8793 48.774V40.7878C65.8793 37.585 63.828 34.7874 60.8389 33.834C59.1657 31.5463 56.5248 30.1934 53.692 30.1934C50.1697 30.1934 46.8313 31.6345 44.3766 34.1522C44.1226 34.0372 43.8709 33.9199 43.6008 33.834C41.9276 31.5463 39.2867 30.1934 36.4539 30.1934C32.811 30.1934 29.5127 31.7077 27.1373 34.1418C26.8845 34.0268 26.6282 33.9176 26.3639 33.8328C24.6895 31.5463 22.0486 30.1934 19.2159 30.1934C11.9943 30.1934 6.12067 36.1287 6.12067 43.4263V48.774C6.12067 51.0351 7.7284 52.9175 9.84869 53.331C10.4555 55.8022 12.0391 57.8832 14.1651 59.1304V59.4359L7.72036 60.7388C4.75311 61.3381 2.39379 63.5364 1.56292 66.4756L0 71.9999H17.2381H18.7619H53.2381H54.7619H72L70.4371 66.4756ZM53.2381 58.0644C50.0249 58.0644 47.2611 55.7732 46.5463 52.6609C47.8046 51.8317 48.6413 50.4022 48.6413 48.774V45.7779C49.8525 45.2983 50.973 44.576 51.8912 43.6481L52.1969 43.3392L52.3187 43.4321C54.5815 45.1462 57.3189 46.1809 60.1333 46.4038V51.0966C60.1333 54.9393 57.0408 58.0644 53.2381 58.0644ZM44.619 60.2476L40.5968 59.4347V59.1293C42.4378 58.0493 43.8709 56.3445 44.6179 54.303C45.3683 56.3503 46.8106 58.0481 48.6413 59.1246V59.4347L44.619 60.2476ZM27.3821 60.2476L23.3587 59.4347V59.1246C25.1894 58.0481 26.6317 56.3503 27.3821 54.303C28.1291 56.3457 29.5622 58.0504 31.4032 59.1293V59.4347L27.3821 60.2476ZM26.8064 50.7738C26.1226 50.3708 25.6572 49.6299 25.6572 48.774C25.6572 47.9182 26.1226 47.1773 26.8064 46.7743V50.7738ZM29.1048 51.0966V46.3736C31.1986 46.1193 33.1385 45.1787 34.6531 43.6481L34.9588 43.3392L35.0806 43.4321C37.3434 45.1462 40.0808 46.1809 42.8952 46.4038V51.0966C42.8952 54.9393 39.8027 58.0644 36 58.0644C32.1973 58.0644 29.1048 54.9393 29.1048 51.0966ZM45.1936 50.7738V46.7743C45.8774 47.1773 46.3428 47.9182 46.3428 48.774C46.3428 49.6299 45.8774 50.3708 45.1936 50.7738ZM62.4317 50.7738V46.7743C63.1155 47.1773 63.5809 47.9182 63.5809 48.774C63.5809 49.6299 63.1155 50.3708 62.4317 50.7738ZM53.692 32.5159C55.9008 32.5159 57.9521 33.625 59.1772 35.483L59.4231 35.857L59.854 35.9661C62.049 36.5201 63.5809 38.5024 63.5809 40.7878V44.7745C62.9017 44.3751 62.1237 44.1289 61.2825 44.1289C58.5658 44.1289 55.8721 43.2219 53.6978 41.574L51.9808 40.2722L50.2662 42.0049C49.7882 42.488 49.2342 42.8921 48.6413 43.2207V40.7867C48.6413 38.6998 47.7598 36.7953 46.3256 35.4505C48.316 33.5739 50.9397 32.5159 53.692 32.5159ZM36.4539 32.5159C38.6627 32.5159 40.714 33.625 41.9391 35.483L42.185 35.857L42.616 35.9661C44.811 36.5201 46.3428 38.5024 46.3428 40.7878V44.7745C45.6637 44.3751 44.8857 44.1289 44.0444 44.1289C41.3277 44.1289 38.634 43.2219 36.4597 41.574L34.7428 40.2722L33.0282 42.0049C31.6732 43.3752 29.8713 44.1289 27.9556 44.1289C27.1143 44.1289 26.3363 44.3751 25.6572 44.7745V43.4251C25.6572 37.4096 30.4999 32.5159 36.4539 32.5159ZM19.2159 32.5159C21.4246 32.5159 23.476 33.625 24.701 35.483L24.9469 35.857L25.3779 35.9661C25.4514 35.9847 25.5181 36.0219 25.5905 36.044C24.1827 38.1529 23.3587 40.6938 23.3587 43.4263V43.6365C21.8705 43.208 20.4593 42.5124 19.2216 41.574L17.5047 40.2722L15.7901 42.0049C14.4352 43.3752 12.6332 44.1289 10.7175 44.1289C9.87627 44.1289 9.09826 44.3751 8.41908 44.7745V43.4251C8.41908 37.4096 13.2618 32.5159 19.2159 32.5159ZM8.41908 48.774C8.41908 47.9182 8.8845 47.1773 9.56828 46.7743V50.7738C8.8845 50.3708 8.41908 49.6299 8.41908 48.774ZM11.8667 51.0966V46.3736C13.9605 46.1193 15.9004 45.1787 17.4151 43.6481L17.7207 43.3392L17.8426 43.4321C19.4767 44.6712 21.3718 45.5375 23.3587 46.016V48.774C23.3587 50.4022 24.1954 51.8317 25.4537 52.6609C24.7389 55.7732 21.9751 58.0644 18.7619 58.0644C14.9592 58.0644 11.8667 54.9393 11.8667 51.0966ZM17.8954 69.6773H3.04769L3.77284 67.1132C4.36698 65.0136 6.05171 63.4423 8.17085 63.015L16.4635 61.3392V60.0815C17.2002 60.2743 17.9667 60.387 18.7619 60.387C19.5526 60.387 20.3214 60.2778 21.0603 60.0827V61.3392L22.5784 61.6458C20.7684 62.677 19.3928 64.3818 18.801 66.4756L17.8954 69.6773ZM46.0912 69.6773L45.1592 65.9112L42.9297 66.4745L43.7215 69.6773H28.2785L29.0703 66.4756L26.8408 65.9124L25.9088 69.6773H20.2858L21.0109 67.1132C21.6051 65.0136 23.2898 63.4423 25.4089 63.015L33.7016 61.3392V60.0815C34.4382 60.2743 35.2048 60.387 36 60.387C36.7952 60.387 37.5618 60.2743 38.2984 60.0815V61.3392L46.5922 63.015C48.7114 63.4435 50.3961 65.0136 50.9902 67.1132L51.7142 69.6773H46.0912ZM54.1046 69.6773L53.199 66.4756C52.6072 64.3818 51.2316 62.6782 49.4216 61.6458L50.9397 61.3392V60.0827C51.6786 60.2778 52.4474 60.387 53.2381 60.387C54.0333 60.387 54.7998 60.2743 55.5365 60.0815V61.3392L63.8303 63.015C65.9494 63.4435 67.6342 65.0136 68.2283 67.1132L68.9523 69.6773H54.1046Z" fill="#465861"/>
</svg>
