<svg width="72" height="72" viewBox="0 0 72 72" fill="none" xmlns="http://www.w3.org/2000/svg">
<rect width="72" height="72" fill="white"/>
<path d="M59.2259 8.12903C57.945 8.12903 56.9032 7.08726 56.9032 5.80635V4.64513H38.3225V5.80635C38.3225 7.08726 37.2807 8.12903 35.9998 8.12903H34.8386V33.6773H60.3869V8.12903H59.2259ZM40.6451 32.5161C40.6451 28.6676 43.7644 25.5483 47.6129 25.5483C51.4615 25.5483 54.5808 28.6676 54.5808 32.5161H40.6451Z" fill="#FFD200"/>
<path d="M31.05 32.4V27.9H27.9C22.95 30.6 23.85 35.55 27.9 37.35H67.5L70.65 39.6V30.6L67.5 27.9H63.9V32.4H31.05Z" fill="#FFD200"/>
<rect x="0.900024" y="62.1" width="36.9" height="4.5" fill="#FFD200"/>
<path d="M66.1934 26.7098H65.0322V0H30.1934V26.7098H29.0322C25.8306 26.7098 23.2259 29.3145 23.2259 32.5161V44.129H4.33521C1.94512 44.129 0 46.0741 0 48.464V67.6636C0 70.0546 1.94512 71.9998 4.33521 71.9998H34.8388H35.1489H66.1937C69.3952 71.9998 72 69.395 72 66.1934V60.3871V48.7741V41.8063V32.5161C72 29.3145 69.3952 26.7098 66.1934 26.7098ZM32.5161 2.32268H62.7095V31.3549H55.6489C55.0821 27.4217 51.6994 24.3871 47.6127 24.3871C43.526 24.3871 40.1433 27.4215 39.5765 31.3549H32.5159L32.5161 2.32268ZM53.302 31.3549H41.9224C42.4612 28.7084 44.8083 26.7098 47.6115 26.7098C50.4146 26.7098 52.7632 28.7081 53.302 31.3549ZM29.0322 29.0322H30.1934V31.3549H29.0322V33.6776H66.1934V31.3549H65.0322V29.0322H66.1934C68.1143 29.0322 69.6773 30.5952 69.6773 32.5161V37.1914C68.7042 36.4541 67.5058 36 66.1934 36H29.0322C27.1115 36 25.5483 34.437 25.5483 32.5161C25.5483 30.5952 27.1115 29.0322 29.0322 29.0322ZM4.33521 46.4515H35.1477C36.2579 46.4515 37.1615 47.3551 37.1615 48.464V60.3868H2.32268V48.464C2.32268 47.3551 3.22604 46.4515 4.33521 46.4515ZM37.1612 65.0322H2.32268V62.7095H37.1615L37.1612 65.0322ZM34.8388 69.6773H4.33521C3.22628 69.6773 2.32268 68.7737 2.32268 67.6648V67.3546H37.1615V67.6648C37.1615 68.7737 36.2579 69.6773 35.1489 69.6773H34.8388ZM69.6773 58.0644H53.4193C51.4986 58.0644 49.9354 56.5014 49.9354 54.5805C49.9354 52.6596 51.4984 51.0966 53.4193 51.0966H69.6773V58.0644ZM69.6773 48.7741H53.4193C50.2177 48.7741 47.6129 51.3789 47.6129 54.5805C47.6129 57.7821 50.2177 60.3868 53.4193 60.3868H69.6773V66.1932C69.6773 68.1141 68.1143 69.6771 66.1934 69.6771H38.9648C39.2853 69.0733 39.4839 68.395 39.4839 67.6646V48.4638C39.4839 46.0739 37.5388 44.1285 35.1487 44.1285H25.5483V37.1305C26.5215 37.8679 27.7199 38.322 29.0322 38.322H66.1934C68.1143 38.322 69.6773 39.885 69.6773 41.8059V48.7741Z" fill="#44545F"/>
<path d="M54.54 56.88C55.8324 56.88 56.88 55.8323 56.88 54.54C56.88 53.2476 55.8324 52.2 54.54 52.2C53.2477 52.2 52.2 53.2476 52.2 54.54C52.2 55.8323 53.2477 56.88 54.54 56.88Z" fill="#44545F"/>
<path d="M12.7742 48.7742H4.64514V51.0968H12.7742V48.7742Z" fill="#44545F"/>
<path d="M12.7741 53.4193H6.96777V55.7419H12.7741V53.4193Z" fill="#44545F"/>
<path d="M11.6129 16.258H9.29024C8.65026 16.258 8.12902 15.7366 8.12902 15.0968H5.80634C5.80634 17.0175 7.36934 18.5807 9.29024 18.5807V19.7419H11.6129V18.5807C13.5336 18.5807 15.0968 17.0177 15.0968 15.0968C15.0968 13.1759 13.5336 11.6129 11.6129 11.6129H9.29024C8.65026 11.6129 8.12902 11.0914 8.12902 10.4517C8.12902 9.81196 8.6505 9.29048 9.29024 9.29048H11.6129C12.2529 9.29048 12.7741 9.81196 12.7741 10.4517H15.0968C15.0968 8.53105 13.5338 6.9678 11.6129 6.9678V5.80658H9.29024V6.9678C7.36958 6.9678 5.80634 8.53081 5.80634 10.4517C5.80634 12.3726 7.36934 13.9356 9.29024 13.9356H11.6129C12.2529 13.9356 12.7741 14.4571 12.7741 15.0968C12.7741 15.7366 12.2527 16.258 11.6129 16.258Z" fill="#44545F"/>
<path d="M19.7906 17.4392C20.4968 16.0328 20.9032 14.4511 20.9032 12.7744C20.9032 7.01218 16.2139 2.32268 10.4515 2.32268C4.68902 2.32268 0 7.01194 0 12.7741C0 14.4511 0.406343 16.0328 1.11253 17.4389C0.396029 18.8803 0 20.4596 0 22.0644C0 23.7413 0.406343 25.3231 1.11253 26.7292C0.396029 28.1706 0 29.7499 0 31.3549C0 37.1171 4.68926 41.8066 10.4517 41.8066C16.2142 41.8066 20.9034 37.1173 20.9034 31.3549C20.9034 29.7499 20.5074 28.1706 19.7909 26.7294C20.4971 25.3231 20.9034 23.7413 20.9034 22.0646C20.9032 20.4596 20.5071 18.8803 19.7906 17.4392ZM10.4517 4.64512C14.9342 4.64512 18.5807 8.29165 18.5807 12.7741C18.5807 17.2566 14.9342 20.9032 10.4517 20.9032C5.96922 20.9032 2.32268 17.2566 2.32268 12.7741C2.32268 8.29165 5.96898 4.64512 10.4517 4.64512ZM10.4517 23.2258H11.6129C12.2529 23.2258 12.7741 23.7473 12.7741 24.3871C12.7741 25.027 12.2527 25.5483 11.6129 25.5483H9.29024C8.65027 25.5483 8.12902 25.0268 8.12902 24.3871H5.80634C5.80634 26.3077 7.36935 27.871 9.29024 27.871V29.0322H11.6129V27.871C13.5336 27.871 15.0968 26.308 15.0968 24.3871C15.0968 23.6555 14.868 22.9773 14.4813 22.4163C15.9237 21.8113 17.1952 20.8857 18.224 19.7372C18.4517 20.492 18.5805 21.2747 18.5805 22.0644C18.5805 26.5469 14.934 30.1934 10.4515 30.1934C5.96898 30.1934 2.32268 26.5471 2.32268 22.0644C2.32268 21.2747 2.45149 20.492 2.67913 19.7372C4.59523 21.873 7.36479 23.2258 10.4517 23.2258ZM18.5807 31.3549C18.5807 35.8374 14.9342 39.4839 10.4517 39.4839C5.96922 39.4839 2.32268 35.8374 2.32268 31.3549C2.32268 30.5652 2.45149 29.7825 2.67913 29.0276C4.59523 31.1632 7.36503 32.5161 10.4517 32.5161H11.6129C12.2529 32.5161 12.7741 33.0376 12.7741 33.6773C12.7741 34.3173 12.2527 34.8385 11.6129 34.8385H9.29024C8.65027 34.8385 8.12902 34.3171 8.12902 33.6773H5.80634C5.80634 35.598 7.36935 37.1612 9.29024 37.1612V38.3224H11.6129V37.1612C13.5336 37.1612 15.0968 35.5982 15.0968 33.6773C15.0968 32.9457 14.868 32.2676 14.4813 31.7065C15.9237 31.1016 17.1952 30.1759 18.224 29.0274C18.4517 29.7825 18.5807 30.5652 18.5807 31.3549Z" fill="#44545F"/>
</svg>
