<svg width="240" height="290" viewBox="0 0 240 290" fill="none" xmlns="http://www.w3.org/2000/svg">
<path d="M258.348 87.1169L245.242 75.6526C223.964 57.0271 196.671 46.7742 168.387 46.7742C152.91 46.7742 140.323 34.1873 140.323 18.7097V0H130.968V18.7097C130.968 39.3418 147.755 56.129 168.387 56.129C194.403 56.129 219.511 65.5634 239.082 82.6968L252.188 94.1611C270.275 109.985 280.645 132.839 280.645 156.871C280.645 178.186 272.6 198.468 257.997 213.983L237.641 235.611C219.1 255.312 192.948 266.613 165.894 266.613C141.515 266.613 118.105 257.632 99.9845 241.322L92.6784 234.75C85.3535 228.15 75.8864 224.516 66.0218 224.516C55.376 224.516 45.371 228.66 37.845 236.186C31.5398 242.496 28.0645 250.878 28.0645 259.793V290H37.4194V259.793C37.4194 253.376 39.9218 247.342 44.4589 242.8C50.2168 237.042 57.8737 233.871 66.0218 233.871C73.5664 233.871 80.8118 236.654 86.42 241.701L93.7261 248.273C113.568 266.131 139.195 275.968 165.894 275.968C195.516 275.968 224.151 263.591 244.451 242.024L264.807 220.395C281.052 203.136 290 180.572 290 156.871C290 130.14 278.465 104.718 258.348 87.1169Z" fill="#EDF9FA"/>
<path d="M35.8056 215.587C43.9116 209.277 54.0335 205.806 64.3098 205.806C81.3497 205.806 97.2248 198.173 107.866 184.87L118.933 171.035C126.693 161.334 130.968 149.154 130.968 136.73V133.451C130.968 119.167 138.671 105.892 151.071 98.8058C157.091 95.3679 163.939 93.5484 170.871 93.5484H187.097V84.1935H170.871C162.311 84.1935 153.859 86.434 146.431 90.6858C144.261 91.9253 142.245 93.3519 140.323 94.8768V93.104C140.323 80.1055 134.593 67.8694 124.606 59.5482C116.758 53.0139 112.258 43.4018 112.258 33.1863V0H102.903V33.1863C102.903 46.1848 108.633 58.421 118.619 66.7421C126.468 73.2764 130.968 82.8885 130.968 93.1087V104.732C125.032 112.988 121.613 122.979 121.613 133.456V136.735C121.613 147.039 118.067 157.147 111.631 165.192L100.565 179.024C91.7008 190.104 78.4918 196.452 64.3098 196.452C51.9661 196.452 39.8048 200.629 30.0665 208.206L23.4806 213.328C8.555 224.928 0 242.421 0 261.323V290H9.35484V261.323C9.35484 245.326 16.5955 230.527 29.2198 220.704L35.8056 215.587Z" fill="#EDF9FA"/>
<path d="M145 149.677C142.984 149.677 141.202 150.964 140.561 152.877L137.703 161.45C133.84 173.041 126.117 183.154 115.953 189.927C107.782 195.371 102.903 204.487 102.903 214.31C102.903 222.14 105.953 229.498 111.51 235.064L111.86 235.405C125.949 249.498 144.682 257.258 164.608 257.258H172.162C192.092 257.258 210.825 249.498 224.914 235.405L246.767 213.557C262.581 197.743 271.29 176.718 271.29 154.355V140.323C271.29 137.736 269.195 135.645 266.613 135.645H244.498C230.672 135.645 217.102 138.105 204.165 142.956C192.279 147.418 179.814 149.677 167.115 149.677H145ZM207.448 151.721C219.334 147.259 231.799 145 244.498 145H261.935V154.355C261.935 174.22 254.199 192.892 240.153 206.943L218.3 228.791C205.98 241.116 189.595 247.903 172.166 247.903H164.612C147.184 247.903 130.799 241.116 118.456 228.768L118.11 228.426C114.335 224.652 112.258 219.642 112.258 214.31C112.258 207.621 115.579 201.414 121.145 197.705C133.03 189.782 142.063 177.952 146.581 164.407L148.372 159.032H167.115C180.941 159.032 194.51 156.572 207.448 151.721Z" fill="#EDF9FA"/>
<path d="M177.742 238.548C185.478 238.548 191.774 232.253 191.774 224.516C191.774 216.78 185.478 210.484 177.742 210.484C170.005 210.484 163.71 216.78 163.71 224.516C163.71 232.253 170.005 238.548 177.742 238.548ZM177.742 219.839C180.319 219.839 182.419 221.934 182.419 224.516C182.419 227.098 180.319 229.194 177.742 229.194C175.165 229.194 173.065 227.098 173.065 224.516C173.065 221.934 175.165 219.839 177.742 219.839Z" fill="#EDF9FA"/>
<path d="M140.323 205.806C132.586 205.806 126.29 212.102 126.29 219.839C126.29 227.575 132.586 233.871 140.323 233.871C148.059 233.871 154.355 227.575 154.355 219.839C154.355 212.102 148.059 205.806 140.323 205.806ZM140.323 224.516C137.745 224.516 135.645 222.421 135.645 219.839C135.645 217.257 137.745 215.161 140.323 215.161C142.9 215.161 145 217.257 145 219.839C145 222.421 142.9 224.516 140.323 224.516Z" fill="#EDF9FA"/>
<path d="M149.677 191.774H159.032V201.129H149.677V191.774Z" fill="#EDF9FA"/>
<path d="M168.387 182.419H177.742V191.774H168.387V182.419Z" fill="#EDF9FA"/>
<path d="M201.129 219.839H210.484V229.194H201.129V219.839Z" fill="#EDF9FA"/>
<path d="M210.484 201.129H219.839V210.484H210.484V201.129Z" fill="#EDF9FA"/>
<path d="M191.774 191.774H201.129V201.129H191.774V191.774Z" fill="#EDF9FA"/>
</svg>
