<svg width="629" height="596" viewBox="0 0 629 596" fill="none" xmlns="http://www.w3.org/2000/svg">
<path fill-rule="evenodd" clip-rule="evenodd" d="M266.779 569.742C203.15 579.441 133.901 614.558 78.7706 581.342C23.3872 547.974 5.11592 473.644 0.261796 409.168C-3.96427 353.034 44.395 308.915 54.0861 253.463C66.4417 182.764 17.4762 98.1914 64.1394 43.6614C109.974 -9.90007 196.616 -1.92966 266.779 4.91263C331.874 11.2608 386.624 46.7454 442.603 80.5695C504.445 117.936 579.6 145.335 608.66 211.487C638.673 279.809 634.342 365.552 595.888 429.505C559.827 489.477 481.674 502.309 417.297 529.741C368.34 550.603 319.388 561.723 266.779 569.742Z" fill="#EDF9FA"/>
</svg>
