<svg width="16" height="16" viewBox="0 0 16 16" fill="none" xmlns="http://www.w3.org/2000/svg">
<path d="M8 0C3.58853 0 0 3.58887 0 8C0 12.4111 3.58853 16 8 16C12.4115 16 16 12.4111 16 8C16 3.58887 12.4115 0 8 0ZM8 15.3333C3.95638 15.3333 0.666656 12.0436 0.666656 8C0.666656 3.95638 3.95638 0.666656 8 0.666656C12.0436 0.666656 15.3333 3.95638 15.3333 8C15.3333 12.0436 12.0436 15.3333 8 15.3333Z" fill="white"/>
<path d="M11.1803 7.71969L6.51369 4.71969C6.41147 4.65297 6.27931 4.64938 6.17384 4.70732C6.06641 4.76591 6 4.87791 6 4.99997V11C6 11.122 6.06641 11.234 6.17384 11.2926C6.22331 11.3197 6.27866 11.3333 6.33334 11.3333C6.39584 11.3333 6.459 11.3157 6.51369 11.2803L11.1803 8.28025C11.2754 8.21907 11.3333 8.11325 11.3333 7.99997C11.3333 7.88669 11.2754 7.78091 11.1803 7.71969ZM6.66666 10.3893V5.61066L10.3835 7.99997L6.66666 10.3893Z" fill="white"/>
</svg>
