<svg width="16" height="16" viewBox="0 0 16 16" fill="none" xmlns="http://www.w3.org/2000/svg">
<g clip-path="url(#clip0)">
<path d="M14.9997 3.66666H13.333V4.33331H14.9997C15.1838 4.33331 15.333 4.48256 15.333 4.66666V12.6667C15.333 12.8507 15.1838 13 14.9997 13H10.333C10.2446 13 10.1599 13.0352 10.0974 13.0977L9.33301 13.862V13.3333C9.33301 13.1493 9.18376 13 8.99966 13H4.33301C4.14891 13 3.99966 12.8507 3.99966 12.6667V11.6667H3.33301V12.6667C3.33301 13.2189 3.78073 13.6667 4.33301 13.6667H8.66635V14.6667C8.66635 14.8507 8.8156 15 8.9997 15C9.0881 15 9.17285 14.9648 9.23535 14.9023L10.471 13.6667H14.9997C15.5519 13.6667 15.9997 13.219 15.9997 12.6667V4.66669C15.9997 4.11438 15.5519 3.66666 14.9997 3.66666Z" fill="#353535"/>
<path d="M11.6667 1H1C0.447719 1 0 1.44772 0 2V10C0 10.5523 0.447719 11 1 11H5.66666V12C5.66666 12.1841 5.81591 12.3333 6 12.3333C6.08841 12.3333 6.17316 12.2982 6.23566 12.2357L7.47134 11H11.6667C12.219 11 12.6667 10.5523 12.6667 10V2C12.6667 1.44772 12.2189 1 11.6667 1ZM12 10C12 10.1841 11.8507 10.3333 11.6667 10.3333H7.33334C7.24494 10.3334 7.16019 10.3685 7.09769 10.431L6.33334 11.1953V10.6667C6.33334 10.4826 6.18409 10.3333 6 10.3333H1C0.815906 10.3333 0.666656 10.1841 0.666656 10V2C0.666656 1.81591 0.815906 1.66666 1 1.66666H11.6667C11.8507 1.66666 12 1.81591 12 2V10Z" fill="#353535"/>
<path d="M5.33364 3.66666H1.66699V4.33331H5.33364V3.66666Z" fill="#353535"/>
<path d="M11.0003 5.66663H1.66699V6.33328H11.0003V5.66663Z" fill="#353535"/>
<path d="M11.0003 7.66663H1.66699V8.33327H11.0003V7.66663Z" fill="#353535"/>
<path d="M10.9997 3.66666H10.333V4.33331H10.9997V3.66666Z" fill="#353535"/>
<path d="M9.66666 3.66666H9V4.33331H9.66666V3.66666Z" fill="#353535"/>
</g>
<defs>
<clipPath id="clip0">
<rect width="16" height="16" fill="white"/>
</clipPath>
</defs>
</svg>
