<svg width="817" height="1122" viewBox="0 0 817 1122" fill="none" xmlns="http://www.w3.org/2000/svg">
<path fill-rule="evenodd" clip-rule="evenodd" d="M598.423 49.5803C659.119 56.6986 725.194 17.9913 780.134 44.7626C836.011 71.9902 844.009 152.258 891.485 192.384C941.082 234.303 1013.61 239.766 1062.04 283.029C1116.62 331.786 1169.67 388.814 1190.07 459.112C1210.67 530.097 1218.92 617.816 1176.84 678.575C1130.62 745.307 1011.28 724.092 961.912 788.528C913.036 852.32 962.056 958.731 913.264 1022.59C867.729 1082.19 785.113 1104.86 711.084 1116.81C637.405 1128.71 559.235 1120.19 490.618 1090.83C424.389 1062.49 389.388 988.465 326.994 952.454C262.44 915.197 176.361 923.617 118.814 876.243C60.2854 828.062 9.86599 759.302 0.901995 684.012C-8.22585 607.345 54.573 540.64 69.8469 464.958C83.587 396.876 66.7565 325.591 86.6662 259.052C107.813 188.38 132.647 112.245 189.46 65.2083C246.389 18.0745 325.573 2.93517 399.42 0.113216C468.308 -2.51928 529.953 41.5503 598.423 49.5803Z" fill="#EDF9FA"/>
</svg>
