<svg width="17" height="17" viewBox="0 0 17 17" fill="none" xmlns="http://www.w3.org/2000/svg">
<path d="M16.2154 0.995397H12.9318V0.501123C12.9318 0.224419 12.7074 0 12.4307 0C12.154 0 11.9296 0.224419 11.9296 0.501123V0.995397H9.00194V0.501123C9.00194 0.224419 8.77752 0 8.50082 0C8.22411 0 7.99969 0.224419 7.99969 0.501123V0.995397H5.1965V0.501123C5.1965 0.224419 4.97208 0 4.69537 0C4.41867 0 4.19425 0.224419 4.19425 0.501123V0.995397H0.786278C0.509575 0.995397 0.285156 1.21982 0.285156 1.49652V12.8196C0.285156 13.0963 0.509575 13.3207 0.786278 13.3207H3.86201C4.35486 15.4266 6.24693 17 8.50082 17C10.7547 17 12.6468 15.4265 13.1396 13.3207H16.2154C16.4921 13.3207 16.7165 13.0963 16.7165 12.8196V1.49652C16.7166 1.21982 16.4922 0.995397 16.2154 0.995397ZM4.19425 1.99764V2.45049C4.19425 2.72719 4.41867 2.95161 4.69537 2.95161C4.97208 2.95161 5.1965 2.72719 5.1965 2.45049V1.99764H7.99969V2.45049C7.99969 2.72719 8.22411 2.95161 8.50082 2.95161C8.77752 2.95161 9.00194 2.72719 9.00194 2.45049V1.99764H11.9296V2.45049C11.9296 2.72719 12.154 2.95161 12.4307 2.95161C12.7074 2.95161 12.9318 2.72719 12.9318 2.45049V1.99764H15.7143V4.0469H1.2874V1.99764H4.19425ZM8.50082 15.9978C6.426 15.9978 4.73797 14.3097 4.73797 12.2349C4.73797 10.1601 6.426 8.47206 8.50082 8.47206C10.5756 8.47206 12.2637 10.16 12.2637 12.2349C12.2637 14.3098 10.5757 15.9978 8.50082 15.9978ZM13.2638 12.3184C13.2643 12.2905 13.2659 12.2629 13.2659 12.2349C13.2659 9.60744 11.1283 7.46982 8.50082 7.46982C5.87335 7.46982 3.73572 9.60744 3.73572 12.2349C3.73572 12.2629 3.73739 12.2905 3.73781 12.3184H1.28732V5.04923H15.7142V12.3184H13.2638Z" fill="#0F0F0F"/>
<path d="M9.00224 12.3612V9.93692C9.00224 9.66021 8.77782 9.43579 8.50112 9.43579C8.22442 9.43579 8 9.66021 8 9.93692V12.5688C8 12.7017 8.05278 12.8292 8.14674 12.9232L9.29849 14.075C9.39637 14.1728 9.52458 14.2218 9.65286 14.2218C9.78107 14.2218 9.90936 14.1728 10.0072 14.075C10.2029 13.8794 10.2029 13.5621 10.0072 13.3664L9.00224 12.3612Z" fill="#0F0F0F"/>
</svg>
