<svg width="17" height="15" viewBox="0 0 17 15" fill="none" xmlns="http://www.w3.org/2000/svg">
<path d="M0 0V11.8716H6.40156V14.0239H4.30213V15H12.6979V14.0239H10.5984V11.8716H17V0H0ZM9.60234 14.0239H7.39766V11.8716H9.60234V14.0239ZM16.0039 10.8955H0.996094V0.976132H16.0039V10.8955Z" fill="#0F0F0F"/>
<path d="M6.0908 2.71558L3.16992 4.19416V7.67748L6.0908 9.15606L9.01168 7.67748V4.19419L6.0908 2.71558ZM5.59275 7.80532L4.16601 7.08305V5.29289L5.59275 6.0151V7.80532ZM4.75314 4.49142L6.0908 3.81428L7.42842 4.49142L6.0908 5.16856L4.75314 4.49142ZM8.01558 7.08309L6.58885 7.80532V6.0151L8.01558 5.29289V7.08309Z" fill="#0F0F0F"/>
<path d="M11.9843 3L11 4.46506L12.0312 6.00002L11 7.53492L11.9843 9L14 6.00002L11.9843 3Z" fill="#0F0F0F"/>
</svg>
