<svg width="17" height="17" viewBox="0 0 17 17" fill="none" xmlns="http://www.w3.org/2000/svg">
<g clip-path="url(#clip0)">
<path d="M2.97422 1.9834C2.27127 1.9834 1.69922 2.55545 1.69922 3.2584C1.69922 3.96135 2.27127 4.5334 2.97422 4.5334C3.67717 4.5334 4.24922 3.96135 4.24922 3.2584C4.24922 2.55545 3.67717 1.9834 2.97422 1.9834ZM2.97422 3.96673C2.58379 3.96673 2.26589 3.64911 2.26589 3.2584C2.26589 2.86768 2.58379 2.55006 2.97422 2.55006C3.36465 2.55006 3.68255 2.86768 3.68255 3.2584C3.68255 3.64911 3.36465 3.96673 2.97422 3.96673Z" fill="#0F0F0F" stroke="#0F0F0F" stroke-width="0.3"/>
<path d="M14.1661 3.11672C14.3226 3.11672 14.4495 2.98986 14.4495 2.83338C14.4495 2.6769 14.3226 2.55005 14.1661 2.55005C14.0097 2.55005 13.8828 2.6769 13.8828 2.83338C13.8828 2.98986 14.0097 3.11672 14.1661 3.11672Z" fill="#0F0F0F"/>
<path d="M13.0333 3.11672C13.1898 3.11672 13.3167 2.98986 13.3167 2.83338C13.3167 2.6769 13.1898 2.55005 13.0333 2.55005C12.8769 2.55005 12.75 2.6769 12.75 2.83338C12.75 2.98986 12.8769 3.11672 13.0333 3.11672Z" fill="#0F0F0F"/>
<path d="M14.7325 3.96657C14.889 3.96657 15.0158 3.83972 15.0158 3.68324C15.0158 3.52676 14.889 3.3999 14.7325 3.3999C14.576 3.3999 14.4492 3.52676 14.4492 3.68324C14.4492 3.83972 14.576 3.96657 14.7325 3.96657Z" fill="#0F0F0F"/>
<path d="M13.5997 3.96657C13.7562 3.96657 13.883 3.83972 13.883 3.68324C13.883 3.52676 13.7562 3.3999 13.5997 3.3999C13.4432 3.3999 13.3164 3.52676 13.3164 3.68324C13.3164 3.83972 13.4432 3.96657 13.5997 3.96657Z" fill="#0F0F0F"/>
<path d="M11.9005 3.11672C12.057 3.11672 12.1839 2.98986 12.1839 2.83338C12.1839 2.6769 12.057 2.55005 11.9005 2.55005C11.7441 2.55005 11.6172 2.6769 11.6172 2.83338C11.6172 2.98986 11.7441 3.11672 11.9005 3.11672Z" fill="#0F0F0F"/>
<path d="M12.467 3.96657C12.6235 3.96657 12.7503 3.83972 12.7503 3.68324C12.7503 3.52676 12.6235 3.3999 12.467 3.3999C12.3105 3.3999 12.1836 3.52676 12.1836 3.68324C12.1836 3.83972 12.3105 3.96657 12.467 3.96657Z" fill="#0F0F0F"/>
<path d="M10.7677 3.11672C10.9242 3.11672 11.0511 2.98986 11.0511 2.83338C11.0511 2.6769 10.9242 2.55005 10.7677 2.55005C10.6113 2.55005 10.4844 2.6769 10.4844 2.83338C10.4844 2.98986 10.6113 3.11672 10.7677 3.11672Z" fill="#0F0F0F"/>
<path d="M11.3342 3.96657C11.4907 3.96657 11.6175 3.83972 11.6175 3.68324C11.6175 3.52676 11.4907 3.3999 11.3342 3.3999C11.1777 3.3999 11.0508 3.52676 11.0508 3.68324C11.0508 3.83972 11.1777 3.96657 11.3342 3.96657Z" fill="#0F0F0F"/>
<path d="M9.63294 3.11672C9.78942 3.11672 9.91627 2.98986 9.91627 2.83338C9.91627 2.6769 9.78942 2.55005 9.63294 2.55005C9.47646 2.55005 9.34961 2.6769 9.34961 2.83338C9.34961 2.98986 9.47646 3.11672 9.63294 3.11672Z" fill="#0F0F0F"/>
<path d="M10.1994 3.96657C10.3559 3.96657 10.4827 3.83972 10.4827 3.68324C10.4827 3.52676 10.3559 3.3999 10.1994 3.3999C10.0429 3.3999 9.91602 3.52676 9.91602 3.68324C9.91602 3.83972 10.0429 3.96657 10.1994 3.96657Z" fill="#0F0F0F"/>
<path d="M17 4.92761V1.58881C17 0.868853 16.4143 0.283203 15.6944 0.283203H1.3056C0.58565 0.283203 0 0.868853 0 1.58881V4.92732C0 5.34354 0.199183 5.71074 0.503483 5.94987C0.199183 6.18901 0 6.55621 0 6.97214V10.3107C0 11.0309 0.58565 11.6166 1.3056 11.6166H8.21667V13.9118C7.66247 14.0249 7.225 14.4624 7.11195 15.0166H0.283333C0.126933 15.0166 0 15.1432 0 15.2999C0 15.4566 0.126933 15.5832 0.283333 15.5832H7.11195C7.2437 16.2289 7.81575 16.7166 8.5 16.7166C9.18425 16.7166 9.7563 16.2289 9.88805 15.5832H16.7167C16.8731 15.5832 17 15.4566 17 15.2999C17 15.1432 16.8731 15.0166 16.7167 15.0166H9.88805C9.775 14.4624 9.33753 14.0249 8.78333 13.9118V11.6166H15.6944C16.4143 11.6166 17 11.0309 17 10.311V6.97214C17 6.55592 16.8008 6.18901 16.4965 5.94987C16.8008 5.71074 17 5.34354 17 4.92761ZM9.35 15.2999C9.35 15.7685 8.96863 16.1499 8.5 16.1499C8.03137 16.1499 7.65 15.7685 7.65 15.2999C7.65 14.8313 8.03137 14.4499 8.5 14.4499C8.96863 14.4499 9.35 14.8313 9.35 15.2999ZM16.4333 6.97214V10.3107C16.4333 10.7184 16.1018 11.0499 15.6944 11.0499H1.3056C0.898167 11.0499 0.566667 10.7184 0.566667 10.311V6.97214C0.566667 6.56471 0.898167 6.23321 1.3056 6.23321H15.6941C16.1018 6.23321 16.4333 6.56471 16.4333 6.97214ZM1.3056 5.66654C0.898167 5.66654 0.566667 5.33504 0.566667 4.92761V1.58881C0.566667 1.18137 0.898167 0.84987 1.3056 0.84987H15.6941C16.1018 0.84987 16.4333 1.18137 16.4333 1.58881V4.92732C16.4333 5.33504 16.1018 5.66654 15.6944 5.66654H1.3056Z" fill="#0F0F0F" stroke="#0F0F0F" stroke-width="0.4"/>
<path d="M2.97422 9.9167C3.67717 9.9167 4.24922 9.34465 4.24922 8.6417C4.24922 7.93875 3.67717 7.3667 2.97422 7.3667C2.27127 7.3667 1.69922 7.93875 1.69922 8.6417C1.69922 9.34465 2.27127 9.9167 2.97422 9.9167ZM2.97422 7.93337C3.36465 7.93337 3.68255 8.25098 3.68255 8.6417C3.68255 9.03242 3.36465 9.35003 2.97422 9.35003C2.58379 9.35003 2.26589 9.03242 2.26589 8.6417C2.26589 8.25098 2.58379 7.93337 2.97422 7.93337Z" fill="#0F0F0F" stroke="#0F0F0F" stroke-width="0.3"/>
<path d="M14.1661 8.50002C14.3226 8.50002 14.4495 8.37316 14.4495 8.21668C14.4495 8.0602 14.3226 7.93335 14.1661 7.93335C14.0097 7.93335 13.8828 8.0602 13.8828 8.21668C13.8828 8.37316 14.0097 8.50002 14.1661 8.50002Z" fill="#0F0F0F"/>
<path d="M13.0333 8.50002C13.1898 8.50002 13.3167 8.37316 13.3167 8.21668C13.3167 8.0602 13.1898 7.93335 13.0333 7.93335C12.8769 7.93335 12.75 8.0602 12.75 8.21668C12.75 8.37316 12.8769 8.50002 13.0333 8.50002Z" fill="#0F0F0F"/>
<path d="M14.7325 9.35011C14.889 9.35011 15.0158 9.22326 15.0158 9.06678C15.0158 8.9103 14.889 8.78345 14.7325 8.78345C14.576 8.78345 14.4492 8.9103 14.4492 9.06678C14.4492 9.22326 14.576 9.35011 14.7325 9.35011Z" fill="#0F0F0F"/>
<path d="M13.5997 9.35011C13.7562 9.35011 13.883 9.22326 13.883 9.06678C13.883 8.9103 13.7562 8.78345 13.5997 8.78345C13.4432 8.78345 13.3164 8.9103 13.3164 9.06678C13.3164 9.22326 13.4432 9.35011 13.5997 9.35011Z" fill="#0F0F0F"/>
<path d="M11.9005 8.50002C12.057 8.50002 12.1839 8.37316 12.1839 8.21668C12.1839 8.0602 12.057 7.93335 11.9005 7.93335C11.7441 7.93335 11.6172 8.0602 11.6172 8.21668C11.6172 8.37316 11.7441 8.50002 11.9005 8.50002Z" fill="#0F0F0F"/>
<path d="M12.467 9.35011C12.6235 9.35011 12.7503 9.22326 12.7503 9.06678C12.7503 8.9103 12.6235 8.78345 12.467 8.78345C12.3105 8.78345 12.1836 8.9103 12.1836 9.06678C12.1836 9.22326 12.3105 9.35011 12.467 9.35011Z" fill="#0F0F0F"/>
<path d="M10.7677 8.50002C10.9242 8.50002 11.0511 8.37316 11.0511 8.21668C11.0511 8.0602 10.9242 7.93335 10.7677 7.93335C10.6113 7.93335 10.4844 8.0602 10.4844 8.21668C10.4844 8.37316 10.6113 8.50002 10.7677 8.50002Z" fill="#0F0F0F"/>
<path d="M11.3342 9.35011C11.4907 9.35011 11.6175 9.22326 11.6175 9.06678C11.6175 8.9103 11.4907 8.78345 11.3342 8.78345C11.1777 8.78345 11.0508 8.9103 11.0508 9.06678C11.0508 9.22326 11.1777 9.35011 11.3342 9.35011Z" fill="#0F0F0F"/>
<path d="M9.63294 8.50002C9.78942 8.50002 9.91627 8.37316 9.91627 8.21668C9.91627 8.0602 9.78942 7.93335 9.63294 7.93335C9.47646 7.93335 9.34961 8.0602 9.34961 8.21668C9.34961 8.37316 9.47646 8.50002 9.63294 8.50002Z" fill="#0F0F0F"/>
<path d="M10.1994 9.35011C10.3559 9.35011 10.4827 9.22326 10.4827 9.06678C10.4827 8.9103 10.3559 8.78345 10.1994 8.78345C10.0429 8.78345 9.91602 8.9103 9.91602 9.06678C9.91602 9.22326 10.0429 9.35011 10.1994 9.35011Z" fill="#0F0F0F"/>
</g>
<defs>
<clipPath id="clip0">
<rect width="17" height="17" fill="white"/>
</clipPath>
</defs>
</svg>
