<svg width="18" height="18" viewBox="0 0 18 18" fill="none" xmlns="http://www.w3.org/2000/svg">
<g clip-path="url(#clip0)">
<path d="M17.0787 7.11051L15.8152 6.89618C15.6836 6.47128 15.5144 6.06142 15.3076 5.67036L16.0521 4.62879C16.368 4.18508 16.3191 3.5797 15.9318 3.19616L14.8113 2.07562C14.6007 1.86505 14.3225 1.74849 14.0254 1.74849C13.7923 1.74849 13.5704 1.81993 13.3824 1.9553L12.3371 2.69981C11.931 2.48548 11.5061 2.30875 11.0662 2.17715L10.8556 0.928765C10.7653 0.391059 10.3028 0 9.75762 0H8.17459C7.62937 0 7.16687 0.391059 7.07662 0.928765L6.85853 2.20723C6.4374 2.33883 6.02754 2.5118 5.63648 2.72237L4.60244 1.97786C4.41443 1.84249 4.18882 1.77105 3.95569 1.77105C3.65864 1.77105 3.37663 1.88761 3.16982 2.09818L2.04553 3.21872C1.66199 3.60226 1.60935 4.20765 1.9252 4.65135L2.67723 5.70796C2.47043 6.10278 2.30498 6.51264 2.17713 6.93754L0.92876 7.14811C0.391057 7.23835 0 7.70086 0 8.24608V9.82912C0 10.3743 0.391057 10.8369 0.92876 10.9271L2.20721 11.1452C2.33882 11.5663 2.51179 11.9762 2.72236 12.3672L1.98161 13.3975C1.66575 13.8412 1.71463 14.4466 2.10193 14.8302L3.22246 15.9507C3.43303 16.1613 3.71128 16.2778 4.00833 16.2778C4.24146 16.2778 4.46331 16.2064 4.65132 16.071L5.70793 15.319C6.0877 15.5183 6.48628 15.68 6.89614 15.8078L7.10671 17.0712C7.19695 17.6089 7.65945 18 8.20467 18H9.79146C10.3367 18 10.7992 17.6089 10.8894 17.0712L11.1038 15.8078C11.5287 15.6762 11.9385 15.507 12.3296 15.3002L13.3711 16.0447C13.5591 16.1801 13.7848 16.2515 14.0179 16.2515C14.3149 16.2515 14.5932 16.1349 14.8038 15.9244L15.9243 14.8038C16.3078 14.4203 16.3605 13.8149 16.0446 13.3712L15.3001 12.3259C15.5069 11.9311 15.6799 11.5212 15.8077 11.1001L17.0711 10.8895C17.6088 10.7992 17.9999 10.3367 17.9999 9.79152V8.20848C18.0074 7.66325 17.6164 7.20075 17.0787 7.11051ZM16.9922 9.79152C16.9922 9.8404 16.9583 9.88176 16.9094 9.88928L15.3302 10.1525C15.1309 10.1863 14.973 10.333 14.9241 10.5248C14.7812 11.0775 14.5631 11.6077 14.2698 12.1003C14.1683 12.2732 14.1758 12.4876 14.2924 12.653L15.2211 13.9616C15.2475 13.9992 15.2437 14.0556 15.2099 14.0894L14.0893 15.2099C14.063 15.2363 14.0367 15.24 14.0179 15.24C13.9953 15.24 13.9765 15.2325 13.9615 15.2212L12.6567 14.2925C12.495 14.1759 12.2769 14.1684 12.104 14.2699C11.6114 14.5632 11.0812 14.7813 10.5285 14.9242C10.3329 14.9731 10.1863 15.1347 10.1562 15.3303L9.88923 16.9095C9.8817 16.9584 9.84034 16.9923 9.79146 16.9923H8.20843C8.15955 16.9923 8.11819 16.9584 8.11067 16.9095L7.84746 15.3303C7.81362 15.131 7.66697 14.9731 7.4752 14.9242C6.9375 14.785 6.4186 14.5707 5.93354 14.2925C5.85457 14.2473 5.76433 14.2248 5.67784 14.2248C5.57632 14.2248 5.47104 14.2549 5.38455 14.3188L4.06849 15.2551C4.04969 15.2663 4.03089 15.2739 4.01209 15.2739C3.99705 15.2739 3.96697 15.2701 3.94065 15.2438L2.82012 14.1233C2.78628 14.0894 2.78252 14.0368 2.80884 13.9954L3.73384 12.6981C3.85041 12.5327 3.85793 12.3146 3.7564 12.1416C3.46311 11.6528 3.2375 11.1226 3.09461 10.5699C3.04197 10.3781 2.88404 10.2315 2.68852 10.1976L1.09797 9.92689C1.04909 9.91937 1.01524 9.878 1.01524 9.82912V8.24608C1.01524 8.1972 1.04909 8.15584 1.09797 8.14832L2.66595 7.88511C2.86524 7.85126 3.02693 7.70462 3.07581 7.50909C3.21494 6.95634 3.42927 6.42239 3.7188 5.92981C3.82032 5.75684 3.80904 5.54251 3.69248 5.38082L2.7562 4.06476C2.72988 4.02716 2.73364 3.97075 2.76748 3.93691L3.88801 2.81638C3.91433 2.79006 3.94065 2.7863 3.95945 2.7863C3.98201 2.7863 4.00081 2.79382 4.01585 2.8051L5.31311 3.7301C5.47856 3.84667 5.69665 3.85419 5.86961 3.75266C6.35843 3.45937 6.88862 3.23376 7.44136 3.09087C7.63313 3.03823 7.77977 2.8803 7.81362 2.68477L8.08435 1.09421C8.09187 1.04533 8.13323 1.01149 8.18211 1.01149H9.76514C9.81402 1.01149 9.85538 1.04533 9.8629 1.09421L10.1261 2.66221C10.16 2.8615 10.3066 3.02319 10.5021 3.07207C11.0699 3.21496 11.6114 3.43681 12.1152 3.73386C12.2882 3.83539 12.5025 3.82787 12.668 3.7113L13.9652 2.77878C13.984 2.7675 14.0028 2.75998 14.0216 2.75998C14.0367 2.75998 14.0668 2.76374 14.0931 2.79006L15.2136 3.91059C15.2475 3.94443 15.2512 3.99708 15.2249 4.03844L14.2961 5.34322C14.1796 5.50491 14.172 5.723 14.2736 5.89597C14.5669 6.38855 14.785 6.91874 14.9278 7.47149C14.9767 7.66702 15.1384 7.81366 15.3339 7.84374L16.9132 8.11072C16.9621 8.11824 16.9959 8.1596 16.9959 8.20848V9.79152H16.9922Z" fill="#0F0F0F"/>
<path d="M9.00144 5.11377C6.85815 5.11377 5.11719 6.85474 5.11719 8.99804C5.11719 11.1413 6.85815 12.8823 9.00144 12.8823C11.1448 12.8823 12.8857 11.1413 12.8857 8.99804C12.8857 6.85474 11.1448 5.11377 9.00144 5.11377ZM9.00144 11.8671C7.41841 11.8671 6.13244 10.5811 6.13244 8.99804C6.13244 7.415 7.41841 6.12902 9.00144 6.12902C10.5845 6.12902 11.8705 7.415 11.8705 8.99804C11.8705 10.5811 10.5845 11.8671 9.00144 11.8671Z" fill="#0F0F0F"/>
</g>
<defs>
<clipPath id="clip0">
<rect width="18" height="18" fill="white"/>
</clipPath>
</defs>
</svg>
