<svg width="18" height="13" viewBox="0 0 18 13" fill="none" xmlns="http://www.w3.org/2000/svg">
<g clip-path="url(#clip0)">
<path d="M8.99979 0C5.33611 0 2.35547 2.9159 2.35547 6.50007C2.35547 10.0842 5.33611 13 8.99979 13C12.6636 13 15.6442 10.0842 15.6442 6.50007C15.6443 2.91597 12.6636 0 8.99979 0ZM8.99979 11.8733C5.97123 11.8733 3.50731 9.46292 3.50731 6.50015C3.50731 3.5373 5.97123 1.12689 8.99979 1.12689C12.0284 1.12689 14.4924 3.5373 14.4924 6.50015C14.4924 9.46285 12.0285 11.8733 8.99979 11.8733Z" fill="#0F0F0F"/>
<path d="M3.44748 1.06828C3.67239 0.848247 3.67239 0.491497 3.44748 0.271467C3.22249 0.0514381 2.85789 0.0514381 2.63298 0.271467C-0.87766 3.70593 -0.87766 9.29433 2.63298 12.7288C2.74547 12.8389 2.89283 12.8938 3.04027 12.8938C3.18763 12.8938 3.33506 12.8389 3.44748 12.7288C3.67247 12.5088 3.67247 12.1521 3.44756 11.9321C0.385903 8.93691 0.385903 4.06343 3.44748 1.06828Z" fill="#0F0F0F"/>
<path d="M15.3679 0.271467C15.1429 0.0514381 14.7783 0.0514381 14.5534 0.271467C14.3285 0.491497 14.3285 0.848247 14.5534 1.06828C17.6151 4.06343 17.6151 8.93691 14.5534 11.9321C14.3285 12.1521 14.3285 12.5089 14.5534 12.7288C14.6659 12.8388 14.8133 12.8938 14.9607 12.8938C15.1081 12.8938 15.2555 12.8389 15.368 12.7288C18.8787 9.29426 18.8787 3.70593 15.3679 0.271467Z" fill="#0F0F0F"/>
<path d="M8.99975 8.22804C9.31789 8.22804 9.57567 7.97578 9.57567 7.66463V2.8659C9.57567 2.55475 9.31789 2.30249 8.99975 2.30249C8.68161 2.30249 8.42383 2.55475 8.42383 2.8659V7.66463C8.42383 7.97578 8.68169 8.22804 8.99975 8.22804Z" fill="#0F0F0F"/>
<path d="M8.99956 10.1342C9.3952 10.1342 9.71593 9.82051 9.71593 9.43347C9.71593 9.04643 9.3952 8.73267 8.99956 8.73267C8.60393 8.73267 8.2832 9.04643 8.2832 9.43347C8.2832 9.82051 8.60393 10.1342 8.99956 10.1342Z" fill="#0F0F0F"/>
</g>
<defs>
<clipPath id="clip0">
<rect width="18" height="13" fill="white"/>
</clipPath>
</defs>
</svg>
