<?xml version="1.0" encoding="utf-8"?>
<!-- Generator: Adobe Illustrator 19.2.1, SVG Export Plug-In . SVG Version: 6.00 Build 0)  -->
<svg version="1.1" id="Layer_1" xmlns="http://www.w3.org/2000/svg" xmlns:xlink="http://www.w3.org/1999/xlink" x="0px" y="0px"
	 viewBox="0 0 120 120" enable-background="new 0 0 120 120" xml:space="preserve">
<g>
	<path fill="#FFFFFF" d="M106,120H14c-7.7,0-14-6.3-14-14V14C0,6.3,6.3,0,14,0h92c7.7,0,14,6.3,14,14v92
		C120,113.7,113.7,120,106,120z"/>
	<g>
		<path fill="#FF8277" d="M27.7,112.8l7.6-5.5c0.3-0.2,0.7-0.3,1-0.1c0.3,0.1,0.6,0.4,0.6,0.8l1.5,9.5c0.1,0.4-0.1,0.7-0.4,0.9
			c-0.3,0.2-0.7,0.3-1,0.1l-9.1-3.9c-0.3-0.1-0.6-0.5-0.6-0.8C27.3,113.4,27.4,113,27.7,112.8z"/>
		<path fill="#FF8277" d="M25.1,90.6L25.1,90.6c0,0,0.1,0.1,0.2,0.2c0.3,0.3,0.7,0.7,1,1c5.6,5.6,7.6,14.2,10,15.1
			c1.8,1.1,9.8-2.9,17.6-2.7c20.7,1.9,41.6-10.1,50.7-31c11.2-25.8,0.3-55.5-24.4-66.2C55.6-3.8,26.4,8.4,15.2,34.3
			C6.5,54.3,11.1,76.6,25.1,90.6z M78,24.1c0.4-1,1.7-1.5,2.6-1C98.1,30.9,98.9,48,94.3,60.2c-0.4,1-1.5,1.6-2.6,1.2
			c0,0-0.1,0-0.1,0c-1-0.4-1.5-1.5-1.1-2.5C92,55,98.3,35.3,79,26.8C78,26.3,77.5,25.1,78,24.1z"/>
	</g>
</g>
</svg>
