<svg width="64" height="64" viewBox="0 0 64 64" fill="none" xmlns="http://www.w3.org/2000/svg">
<g clip-path="url(#clip0)">
<path d="M3.09653 26.84H27.8679C29.575 26.84 30.9644 25.4508 30.9644 23.7435V7.22922C30.9644 5.52209 29.5753 4.13269 27.8679 4.13269H24.7714V3.10044C24.7714 1.39331 23.3822 0.00390625 21.6748 0.00390625H9.28916C7.58202 0.00390625 6.19263 1.39309 6.19263 3.10044V4.13269H3.09653C1.38918 4.13291 0 5.52209 0 7.22922V23.7435C0 25.4506 1.38918 26.84 3.09653 26.84ZM8.25713 3.10066C8.25713 2.53191 8.72063 2.06841 9.28938 2.06841H21.6751C22.2438 2.06841 22.7073 2.53191 22.7073 3.10066V4.13291H8.25713V3.10066ZM3.09653 6.19719H6.19307H8.25713H22.7071H24.7714H27.8679C28.4367 6.19719 28.9002 6.66069 28.9002 7.22944V11.5747L17.2543 15.0127L17.8385 16.9924L28.8999 13.7277V23.7435C28.8999 24.3122 28.4364 24.7757 27.8677 24.7757H3.09631C2.52756 24.7757 2.06406 24.3122 2.06406 23.7435V13.7669L13.1286 16.9986L13.7077 15.0169L2.06428 11.6158V7.22922C2.06428 6.66047 2.52778 6.19719 3.09653 6.19719Z" fill="#333333"/>
<path d="M35.0955 14.457H33.0312V16.5213H35.0955V14.457Z" fill="#333333"/>
<path d="M43.3512 32H39.2227V34.0643H43.3512V32Z" fill="#333333"/>
<path d="M47.4762 14.457H43.3477V16.5213H47.4762V14.457Z" fill="#333333"/>
<path d="M53.6715 14.457H49.543V16.5213H53.6715V14.457Z" fill="#333333"/>
<path d="M49.5426 32H45.4141V34.0643H49.5426V32Z" fill="#333333"/>
<path d="M41.2848 14.457H37.1562V16.5213H41.2848V14.457Z" fill="#333333"/>
<path d="M60.1685 16.4884C58.9444 15.544 57.4962 14.8968 55.9811 14.6172L55.6055 16.6473C56.8007 16.8682 57.9423 17.379 58.9094 18.1244L60.1685 16.4884Z" fill="#333333"/>
<path d="M51.6094 34.0617H54.1887C54.1929 34.0617 54.1979 34.0617 54.2021 34.0617C54.6099 34.0617 55.0197 34.0359 55.4211 33.9853L55.1641 31.9375C54.8462 31.9767 54.5221 31.9974 54.2001 31.9974C54.1971 31.9974 54.194 31.9974 54.1898 31.9974H51.6094V34.0617V34.0617Z" fill="#333333"/>
<path d="M63.99 24.5432L61.9268 24.4844C61.8918 25.7218 61.5728 26.8966 60.9805 27.9762L62.7898 28.969C63.5307 27.6201 63.9467 26.0893 63.99 24.5432Z" fill="#333333"/>
<path d="M56.9258 31.5014L57.6575 33.4316C59.0973 32.8855 60.4072 31.9929 61.4454 30.8492L59.9177 29.4609C59.0964 30.365 58.0622 31.0712 56.9258 31.5014Z" fill="#333333"/>
<path d="M63.7881 22.2455C63.4732 20.7377 62.793 19.3049 61.8209 18.1016L60.2148 19.3989C60.9818 20.3486 61.5184 21.4786 61.7661 22.6676L63.7881 22.2455Z" fill="#333333"/>
<path d="M2.06428 41.8056C2.06428 40.8055 2.2521 39.8332 2.62158 38.9156L0.70703 38.1445C0.238466 39.3098 0 40.5402 0 41.8056C0 42.1009 0.0134316 42.3929 0.0391938 42.682L2.09533 42.4972C2.07463 42.2689 2.06428 42.0388 2.06428 41.8056Z" fill="#333333"/>
<path d="M17.5465 32H13.418V34.0643H17.5465V32Z" fill="#333333"/>
<path d="M4.78516 50.2291C6.10938 51.0198 7.62363 51.4904 9.16562 51.5906L9.29883 49.5305C8.08294 49.4521 6.88885 49.0804 5.84427 48.457L4.78516 50.2291Z" fill="#333333"/>
<path d="M23.7379 32H19.6094V34.0643H23.7379V32Z" fill="#333333"/>
<path d="M1.81641 36.1209L3.49778 37.3183C4.20591 36.3255 5.1503 35.5017 6.22879 34.9383L5.27295 33.1094C3.90755 33.8224 2.71126 34.8638 1.81641 36.1209Z" fill="#333333"/>
<path d="M29.9333 32H25.8047V34.0643H29.9333V32Z" fill="#333333"/>
<path d="M11.3547 32H9.80658C9.00465 32 8.2058 32.0971 7.43359 32.2891L7.931 34.2924C8.54005 34.1407 9.17155 34.0643 9.80636 34.0643H11.3545V32H11.3547Z" fill="#333333"/>
<path d="M0.511719 44.942C1.00406 46.3995 1.84827 47.7413 2.95473 48.8218L4.39653 47.3448C3.52238 46.4902 2.85454 45.4311 2.46745 44.2812L0.511719 44.942Z" fill="#333333"/>
<path d="M37.1569 32H31.9961V34.0643H37.1569V32Z" fill="#333333"/>
<path d="M13.4198 49.5469H11.3555V51.6112H13.4198V49.5469Z" fill="#333333"/>
<path d="M61.1035 49.5458L60.5596 49.3126C57.2288 47.8851 53.7507 46.9872 50.1803 46.6291L32.2014 39.2266H21.2277L32.5814 46.4517H25.1551L22.2063 42.3231H13.082L17.8 58.8374H28.1886L21.881 63.9979H32.2293L43.1245 58.8371H58.7129C59.6263 58.8371 60.5409 58.6213 61.3583 58.2127C63.0416 57.3704 64.0532 55.6787 63.9986 53.7972C63.944 51.9157 62.8324 50.2869 61.1035 49.5458ZM28.3165 41.2908H31.7929L44.3261 46.4517H36.4261L28.3165 41.2908ZM60.4348 56.3662C59.9022 56.6324 59.3068 56.7729 58.7122 56.7729H47.4825L52.0497 54.6095L51.1663 52.7434L31.7652 61.9334H27.6632L36.7791 54.4752L35.4714 52.8775L30.7111 56.7729H19.3577L15.8186 44.3872H21.1445L24.0933 48.5157H35.8257H46.6218C51.1591 48.5157 55.5745 49.422 59.7456 51.2095L60.2895 51.4427C61.2876 51.871 61.9017 52.7731 61.9336 53.858C61.9664 54.9429 61.4061 55.8811 60.4348 56.3662Z" fill="#333333"/>
<path d="M17.5475 19.6157H13.419C12.8482 19.6157 12.3867 19.1544 12.3867 18.5835V13.4229C12.3867 12.8521 12.848 12.3906 13.419 12.3906H17.5475C18.1183 12.3906 18.5798 12.8519 18.5798 13.4229V18.5835C18.5796 19.1544 18.1183 19.6157 17.5475 19.6157Z" fill="#FFD205"/>
</g>
<defs>
<clipPath id="clip0">
<rect width="64" height="64" fill="white"/>
</clipPath>
</defs>
</svg>
