<svg width="64" height="64" viewBox="0 0 64 64" fill="none" xmlns="http://www.w3.org/2000/svg">
<g clip-path="url(#clip0)">
<path d="M31.9998 55.7417C45.1121 55.7417 55.7417 45.1121 55.7417 31.9998C55.7417 18.8875 45.1121 8.25781 31.9998 8.25781C18.8875 8.25781 8.25781 18.8875 8.25781 31.9998C8.25781 45.1121 18.8875 55.7417 31.9998 55.7417Z" fill="#FFD205"/>
<path d="M63.9996 32C63.9996 14.3556 49.6442 0 32 0C26.5186 0 21.3564 1.38735 16.8422 3.82556C9.88696 0.360271 4.86497 -0.134111 2.31423 2.41971C-0.464652 5.1986 0.602727 10.6571 3.76148 16.9662C1.36467 21.4513 0 26.5693 0 32C0 49.6442 14.3555 64 32 64C37.4254 64 42.5373 62.6384 47.0193 60.2458C50.7499 62.1079 54.2749 63.2929 57.1013 63.2929C58.9285 63.2929 60.4656 62.8016 61.5803 61.6858C64.133 59.133 63.6397 54.1122 60.1744 47.1578C62.6124 42.6434 63.9996 37.4811 63.9996 32ZM3.77403 3.87929C5.46286 2.19047 9.40491 2.64676 14.7127 5.09224C10.8211 7.6007 7.50865 10.9275 5.0167 14.8306C2.54039 9.41923 2.15744 5.49567 3.77403 3.87929ZM32 61.9353C15.4932 61.9353 2.06451 48.5066 2.06451 31.9998C2.06451 27.4217 3.10084 23.0831 4.94557 19.1998C7.71917 24.163 11.6004 29.4986 15.8112 34.3915L12.1849 35.1171L12.5905 37.1413L18.3 35.9998L20.572 30.3193L18.655 29.5523L17.2996 32.9412C12.2168 27.0379 8.48926 21.5969 6.09751 17.0239C11.2825 8.08979 20.9474 2.06451 32 2.06451C48.5068 2.06451 61.9355 15.4932 61.9355 32C61.9355 43.0523 55.9102 52.7173 46.977 57.9023C43.6458 56.1516 39.937 53.7618 36.066 50.7942L34.8097 52.4324C37.9984 54.8778 41.4327 57.1974 44.7804 59.0635C40.9022 60.902 36.5694 61.9353 32 61.9353ZM60.1205 60.226C58.3914 61.9551 54.378 61.3944 49.1622 58.9873C53.0683 56.4944 56.3973 53.1798 58.9078 49.2873C61.353 54.594 61.8093 58.5371 60.1205 60.226Z" fill="#333333"/>
<path d="M42.325 39.2253C42.325 34.672 38.6203 30.9673 34.067 30.9673H29.9379C26.5222 30.9673 23.7444 28.1895 23.7444 24.7738C23.7444 21.358 26.5222 18.5802 29.9379 18.5802H34.067C37.4827 18.5802 40.2605 21.358 40.2605 24.7738V25.8061H42.325V24.7738C42.325 20.2204 38.6203 16.5157 34.067 16.5157H33.0346V12.3867H30.9701V16.5157H29.9377C25.3844 16.5157 21.6797 20.2204 21.6797 24.7738C21.6797 29.3271 25.3844 33.0318 29.9377 33.0318H34.0667C37.4825 33.0318 40.2603 35.8096 40.2603 39.2253C40.2603 42.6411 37.4825 45.4189 34.0667 45.4189H29.9377C26.522 45.4189 23.7442 42.6411 23.7442 39.2253V38.193H21.6797V39.2253C21.6797 43.7787 25.3844 47.4834 29.9377 47.4834H30.9701V51.6124H33.0346V47.4834H34.067C38.6201 47.4834 42.325 43.7787 42.325 39.2253Z" fill="#333333"/>
</g>
<defs>
<clipPath id="clip0">
<rect width="64" height="64" fill="white"/>
</clipPath>
</defs>
</svg>
