<svg width="74" height="74" viewBox="0 0 74 74" fill="none" xmlns="http://www.w3.org/2000/svg">
<path d="M17.9032 5.96777H1.19354V20.2904H17.9032V5.96777Z" fill="#FFD205"/>
<path d="M20.2903 53.7097H5.96774C4.64887 53.7097 3.58064 54.7779 3.58064 56.0968V68.0323H22.6774V56.0968C22.6774 54.7779 21.6092 53.7097 20.2903 53.7097Z" fill="#FFD205"/>
<path d="M72.8064 13.1291H51.3226V3.5807C51.3226 2.26183 52.3908 1.1936 53.7097 1.1936H70.4193C71.7382 1.1936 72.8064 2.26183 72.8064 3.5807V13.1291Z" fill="#FFD205"/>
<path d="M69.2258 57.2903H59.6774V69.2258H69.2258V57.2903Z" fill="#FFD205"/>
<path d="M3.58065 31.0323H8.35484V37H19.9191V34.6129H10.7419V31.0323H15.5161C17.4903 31.0323 19.0968 29.4257 19.0968 27.4516V3.58065C19.0968 1.60652 17.4903 0 15.5161 0H3.58065C1.60652 0 0 1.60652 0 3.58065V27.4516C0 29.4257 1.60652 31.0323 3.58065 31.0323ZM15.5161 28.6452H3.58065C2.92181 28.6452 2.3871 28.1105 2.3871 27.4516V21.4839H16.7097V27.4516C16.7097 28.1105 16.175 28.6452 15.5161 28.6452ZM2.3871 19.0968V7.16129H16.7097V19.0968H2.3871ZM3.58065 2.3871H15.5161C16.175 2.3871 16.7097 2.92181 16.7097 3.58065V4.77419H2.3871V3.58065C2.3871 2.92181 2.92181 2.3871 3.58065 2.3871Z" fill="#2E4346"/>
<path d="M11.9355 23.8708H7.16129V26.2579H11.9355V23.8708Z" fill="#2E4346"/>
<path d="M70.4194 0H53.7097C51.7355 0 50.129 1.60652 50.129 3.58065V15.5161C50.129 17.4903 51.7355 19.0968 53.7097 19.0968H57.2903V21.4839H54.9032V23.871H60.871V35.8065H55.4606V38.1936H63.2581V23.871H69.2258V21.4839H66.8387V19.0968H70.4194C72.3935 19.0968 74 17.4903 74 15.5161V3.58065C74 1.60652 72.3935 0 70.4194 0ZM53.7097 2.3871H70.4194C71.0782 2.3871 71.6129 2.92181 71.6129 3.58065V11.9355H52.5161V3.58065C52.5161 2.92181 53.0508 2.3871 53.7097 2.3871ZM64.4516 21.4839H59.6774V19.0968H64.4516V21.4839ZM70.4194 16.7097H53.7097C53.0508 16.7097 52.5161 16.175 52.5161 15.5161V14.3226H71.6129V15.5161C71.6129 16.175 71.0782 16.7097 70.4194 16.7097Z" fill="#2E4346"/>
<path d="M23.871 56.0969C23.871 54.1228 22.2645 52.5162 20.2903 52.5162H13.129V41.7743H16.7097V39.3872H10.7419V52.5162H5.96774C3.99361 52.5162 2.3871 54.1228 2.3871 56.0969V66.8388H0V70.4195C0 72.3936 1.60652 74.0001 3.58065 74.0001H22.6774C24.6515 74.0001 26.2581 72.3936 26.2581 70.4195V66.8388H23.871V56.0969ZM4.77419 56.0969C4.77419 55.438 5.3089 54.9033 5.96774 54.9033H20.2903C20.9492 54.9033 21.4839 55.438 21.4839 56.0969V66.8388H4.77419V56.0969ZM23.871 70.4195C23.871 71.0783 23.3363 71.613 22.6774 71.613H3.58065C2.92181 71.613 2.3871 71.0783 2.3871 70.4195V69.2259H23.871V70.4195Z" fill="#2E4346"/>
<path d="M62.0645 57.2903H59.6774V59.6774H62.0645V57.2903Z" fill="#2E4346"/>
<path d="M69.2258 66.8386H66.8387V69.2257H69.2258V66.8386Z" fill="#2E4346"/>
<path d="M69.2258 57.2903H64.4516V59.6774H69.2258V57.2903Z" fill="#2E4346"/>
<path d="M64.4516 66.8386H59.6774V69.2257H64.4516V66.8386Z" fill="#2E4346"/>
<path d="M65.6452 40.5806H57.2903V42.9677H63.2581V52.516H54.9032V73.9999H74V52.516H65.6452V40.5806ZM57.2903 71.6128V64.4515H71.6129V71.6128H57.2903ZM71.6129 62.0644H57.2903V54.9031H71.6129V62.0644Z" fill="#2E4346"/>
<path d="M22.3189 34.588L22.8503 34.4741L23.0438 33.9663C24.2928 30.6881 27.4901 28.4515 31.0323 28.4515C32.2337 28.4515 33.419 28.7075 34.5158 29.2003L35.3029 29.554L35.7679 28.8272C37.3262 26.3919 40.0476 24.8708 42.9677 24.8708C47.6802 24.8708 51.5161 28.7068 51.5161 33.4192C51.5161 33.5224 51.514 33.6227 51.509 33.7243L51.4702 34.5074L52.2215 34.7319C55.2818 35.6462 57.4839 38.521 57.4839 41.7741C57.4839 45.8277 54.1827 49.1289 50.129 49.1289H23.871C19.8173 49.1289 16.5161 45.8277 16.5161 41.7741C16.5161 38.2847 18.9685 35.3064 22.3189 34.588Z" fill="#FFD205" stroke="#2E4346" stroke-width="2"/>
</svg>
