<svg width="72" height="72" viewBox="0 0 72 72" fill="none" xmlns="http://www.w3.org/2000/svg">
<path d="M68.2336 35.9999C68.2336 53.8021 53.8021 68.2335 36 68.2335C18.1979 68.2335 3.76641 53.8021 3.76641 35.9999C3.76641 18.1978 18.1979 3.76636 36 3.76636C53.8021 3.76636 68.2336 18.1978 68.2336 35.9999Z" fill="#FFD205" stroke="#2E4346" stroke-width="2"/>
<path d="M6.30292 60.6388L0 66.9417L5.05838 72.0001L11.3613 65.6972L15.1018 69.4388L16.6695 55.3306L2.56128 56.8983L6.30292 60.6388ZM14.075 57.9251L13.3507 64.4446L11.3613 62.4563L5.05838 68.7592L3.24085 66.9417L9.54377 60.6388L7.55548 58.6493L14.075 57.9251Z" fill="#2E4346"/>
<path d="M69.4387 56.8983L55.3305 55.3306L56.8982 69.4388L60.6387 65.6972L66.9416 72.0001L72 66.9417L65.6971 60.6388L69.4387 56.8983ZM68.7592 66.9417L66.9416 68.7592L60.6387 62.4563L58.6493 64.4446L57.925 57.9251L64.4445 58.6493L62.4562 60.6388L68.7592 66.9417Z" fill="#2E4346"/>
<path d="M2.56128 15.1018L16.6695 16.6695L15.1018 2.56128L11.3613 6.30292L5.05838 0L0 5.05838L6.30292 11.3613L2.56128 15.1018ZM3.24085 5.05838L5.05838 3.24085L11.3613 9.54377L13.3507 7.55548L14.075 14.075L7.55548 13.3507L9.54377 11.3613L3.24085 5.05838Z" fill="#2E4346"/>
<path d="M65.6971 11.3613L72 5.05838L66.9416 0L60.6387 6.30292L56.8982 2.56128L55.3305 16.6695L69.4387 15.1018L65.6971 11.3613ZM57.925 14.075L58.6493 7.55548L60.6387 9.54377L66.9416 3.24085L68.7592 5.05838L62.4562 11.3613L64.4445 13.3507L57.925 14.075Z" fill="#2E4346"/>
<path d="M29.1241 45.1679C29.1241 42.6399 27.0682 40.584 24.5401 40.584C22.0121 40.584 19.9562 42.6399 19.9562 45.1679C19.9562 47.696 22.0121 49.7519 24.5401 49.7519C27.0682 49.7519 29.1241 47.696 29.1241 45.1679ZM24.5401 47.4599C23.2761 47.4599 22.2482 46.432 22.2482 45.1679C22.2482 43.9039 23.2761 42.876 24.5401 42.876C25.8042 42.876 26.8321 43.9039 26.8321 45.1679C26.8321 46.432 25.8042 47.4599 24.5401 47.4599Z" fill="#2E4346"/>
<path d="M24.5401 49.752C21.3807 49.752 18.8102 52.3224 18.8102 55.4819V58.9198H30.2701V55.4819C30.2701 52.3224 27.6996 49.752 24.5401 49.752ZM27.9781 56.6279H21.1022V55.4819C21.1022 53.5864 22.6447 52.0439 24.5401 52.0439C26.4356 52.0439 27.9781 53.5864 27.9781 55.4819V56.6279Z" fill="#2E4346"/>
<path d="M69.2336 37.1459V34.854H37.146V2.76636H34.854V34.854H2.76641V37.1459H34.854V69.2335H37.146V37.1459H69.2336Z" fill="#2E4346"/>
<path d="M52.0438 45.1679C52.0438 42.6399 49.9879 40.584 47.4599 40.584C44.9318 40.584 42.8759 42.6399 42.8759 45.1679C42.8759 47.696 44.9318 49.7519 47.4599 49.7519C49.9879 49.7519 52.0438 47.696 52.0438 45.1679ZM47.4599 47.4599C46.1958 47.4599 45.1679 46.432 45.1679 45.1679C45.1679 43.9039 46.1958 42.876 47.4599 42.876C48.7239 42.876 49.7518 43.9039 49.7518 45.1679C49.7518 46.432 48.7239 47.4599 47.4599 47.4599Z" fill="#2E4346"/>
<path d="M47.4599 49.752C44.3004 49.752 41.7299 52.3224 41.7299 55.4819V58.9198H53.1898V55.4819C53.1898 52.3224 50.6193 49.752 47.4599 49.752ZM50.8978 56.6279H44.0219V55.4819C44.0219 53.5864 45.5644 52.0439 47.4599 52.0439C49.3553 52.0439 50.8978 53.5864 50.8978 55.4819V56.6279Z" fill="#2E4346"/>
<path d="M29.1241 17.6643C29.1241 15.1362 27.0682 13.0803 24.5401 13.0803C22.0121 13.0803 19.9562 15.1362 19.9562 17.6643C19.9562 20.1923 22.0121 22.2482 24.5401 22.2482C27.0682 22.2482 29.1241 20.1923 29.1241 17.6643ZM24.5401 19.9562C23.2761 19.9562 22.2482 18.9283 22.2482 17.6643C22.2482 16.4002 23.2761 15.3723 24.5401 15.3723C25.8042 15.3723 26.8321 16.4002 26.8321 17.6643C26.8321 18.9283 25.8042 19.9562 24.5401 19.9562Z" fill="#2E4346"/>
<path d="M30.2701 27.978C30.2701 24.8185 27.6996 22.248 24.5401 22.248C21.3807 22.248 18.8102 24.8185 18.8102 27.978V31.4159H30.2701V27.978ZM27.9781 29.124H21.1022V27.978C21.1022 26.0825 22.6447 24.54 24.5401 24.54C26.4356 24.54 27.9781 26.0825 27.9781 27.978V29.124Z" fill="#2E4346"/>
<path d="M52.0438 17.6643C52.0438 15.1362 49.9879 13.0803 47.4599 13.0803C44.9318 13.0803 42.8759 15.1362 42.8759 17.6643C42.8759 20.1923 44.9318 22.2482 47.4599 22.2482C49.9879 22.2482 52.0438 20.1923 52.0438 17.6643ZM47.4599 19.9562C46.1958 19.9562 45.1679 18.9283 45.1679 17.6643C45.1679 16.4002 46.1958 15.3723 47.4599 15.3723C48.7239 15.3723 49.7518 16.4002 49.7518 17.6643C49.7518 18.9283 48.7239 19.9562 47.4599 19.9562Z" fill="#2E4346"/>
<path d="M53.1898 27.978C53.1898 24.8185 50.6193 22.248 47.4599 22.248C44.3004 22.248 41.7299 24.8185 41.7299 27.978V31.4159H53.1898V27.978ZM50.8978 29.124H44.0219V27.978C44.0219 26.0825 45.5644 24.54 47.4599 24.54C49.3553 24.54 50.8978 26.0825 50.8978 27.978V29.124Z" fill="#2E4346"/>
</svg>
