<svg width="73" height="75" viewBox="0 0 73 75" fill="none" xmlns="http://www.w3.org/2000/svg">
<path d="M23.5484 30.2419C11.1937 30.2419 1.1774 40.5327 1.1774 53.2258C1.1774 66.5323 8.24191 73.7903 8.24191 73.7903H17.6613L18.8387 70.1613H28.258L29.4355 73.7903H38.8548C38.8548 73.7903 45.9193 66.5323 45.9193 53.2258C45.9193 40.5327 35.903 30.2419 23.5484 30.2419Z" fill="#FFD205"/>
<path d="M54.1613 30.242C60.0137 30.242 64.7581 25.3676 64.7581 19.3549C64.7581 13.3421 60.0137 8.46777 54.1613 8.46777C48.3089 8.46777 43.5645 13.3421 43.5645 19.3549C43.5645 25.3676 48.3089 30.242 54.1613 30.242Z" fill="#FFD205"/>
<path d="M54.1613 7.25806C47.669 7.25806 42.3871 12.6847 42.3871 19.3548C42.3871 26.025 47.669 31.4516 54.1613 31.4516C60.6536 31.4516 65.9355 26.025 65.9355 19.3548C65.9355 12.6847 60.6536 7.25806 54.1613 7.25806ZM54.1613 29.0323C48.9677 29.0323 44.742 24.6907 44.742 19.3548C44.742 14.0189 48.9677 9.67741 54.1613 9.67741C59.3549 9.67741 63.5807 14.0189 63.5807 19.3548C63.5807 24.6907 59.3549 29.0323 54.1613 29.0323Z" fill="#2E4346"/>
<path d="M52.9839 15.7257H55.3387C55.9887 15.7257 56.5161 16.2676 56.5161 16.9354H58.871C58.871 14.9346 57.2862 13.3064 55.3387 13.3064V12.0967H52.9839V13.3064C51.0364 13.3064 49.4516 14.9346 49.4516 16.9354C49.4516 18.9362 51.0364 20.5644 52.9839 20.5644H55.3387C55.9887 20.5644 56.5161 21.1064 56.5161 21.7741C56.5161 22.4418 55.9887 22.9838 55.3387 22.9838H52.9839C52.334 22.9838 51.8065 22.4418 51.8065 21.7741H49.4516C49.4516 23.7749 51.0364 25.4031 52.9839 25.4031V26.6128H55.3387V25.4031C57.2862 25.4031 58.871 23.7749 58.871 21.7741C58.871 19.7733 57.2862 18.1451 55.3387 18.1451H52.9839C52.334 18.1451 51.8065 17.6031 51.8065 16.9354C51.8065 16.2676 52.334 15.7257 52.9839 15.7257Z" fill="#2E4346"/>
<path d="M23.5484 47.1775C18.2665 47.1775 14.1291 49.8339 14.1291 53.2259C14.1291 56.6178 18.2665 59.2743 23.5484 59.2743C28.8303 59.2743 32.9678 56.6178 32.9678 53.2259C32.9678 49.8339 28.8303 47.1775 23.5484 47.1775ZM23.5484 56.8549C19.3851 56.8549 16.4839 54.9424 16.4839 53.2259C16.4839 51.5093 19.3851 49.5968 23.5484 49.5968C27.7118 49.5968 30.6129 51.5093 30.6129 53.2259C30.6129 54.9424 27.7118 56.8549 23.5484 56.8549Z" fill="#2E4346"/>
<path d="M22.371 52.0161H20.0161V54.4355H22.371V52.0161Z" fill="#2E4346"/>
<path d="M27.0806 52.0161H24.7258V54.4355H27.0806V52.0161Z" fill="#2E4346"/>
<path d="M31.7903 38.7097C29.8429 38.7097 28.2581 40.3379 28.2581 42.3387C28.2581 44.3396 29.8429 45.9678 31.7903 45.9678C33.7378 45.9678 35.3226 44.3396 35.3226 42.3387C35.3226 40.3379 33.7378 38.7097 31.7903 38.7097ZM31.7903 43.5484C31.1404 43.5484 30.6129 43.0065 30.6129 42.3387C30.6129 41.671 31.1404 41.1291 31.7903 41.1291C32.4403 41.1291 32.9677 41.671 32.9677 42.3387C32.9677 43.0065 32.4403 43.5484 31.7903 43.5484Z" fill="#2E4346"/>
<path d="M18.8387 42.3387C18.8387 40.3379 17.2539 38.7097 15.3065 38.7097C13.359 38.7097 11.7742 40.3379 11.7742 42.3387C11.7742 44.3396 13.359 45.9678 15.3065 45.9678C17.2539 45.9678 18.8387 44.3396 18.8387 42.3387ZM14.129 42.3387C14.129 41.671 14.6565 41.1291 15.3065 41.1291C15.9564 41.1291 16.4839 41.671 16.4839 42.3387C16.4839 43.0065 15.9564 43.5484 15.3065 43.5484C14.6565 43.5484 14.129 43.0065 14.129 42.3387Z" fill="#2E4346"/>
<path d="M47.0968 35.0807C47.0968 34.4928 47.0403 33.8856 46.9272 33.2771L44.6136 33.7259C44.6996 34.188 44.7419 34.6428 44.7419 35.0807C44.7419 36.8263 44.1391 38.4521 43.0865 39.7368C40.4173 35.6699 36.5695 32.4981 32.06 30.6932C33.3904 28.886 35.4356 27.8227 37.6774 27.8227C38.5817 27.8227 39.4683 28.0005 40.3137 28.3513L41.1944 26.1086C40.0676 25.6404 38.8843 25.4033 37.6774 25.4033C34.4183 25.4033 31.4689 27.0872 29.7298 29.9069C27.7565 29.3529 25.6901 29.0324 23.5484 29.0324C21.4067 29.0324 19.3403 29.3529 17.3669 29.9069C15.6279 27.0872 12.6785 25.4033 9.41936 25.4033C4.22576 25.4033 0 29.7449 0 35.0807C0 37.6985 1.00316 40.1215 2.74927 41.9106C0.999629 45.2904 0 49.1384 0 53.2259C0 66.8759 7.1069 74.3348 7.4095 74.6457L7.75448 75.0001H18.5102L19.6876 71.3711H27.4103L28.5877 75.0001H39.3435L39.6885 74.6457C39.9899 74.3348 47.0968 66.8759 47.0968 53.2259C47.0968 49.1384 46.0971 45.2904 44.3475 41.9106C46.0936 40.1215 47.0968 37.6985 47.0968 35.0807ZM2.35484 35.0807C2.35484 31.0779 5.52327 27.8227 9.41936 27.8227C11.6612 27.8227 13.7063 28.886 15.0368 30.6932C10.5273 32.4981 6.6795 35.6686 4.01029 39.7368C2.95768 38.4521 2.35484 36.8263 2.35484 35.0807ZM38.3344 72.5807H30.2844L29.107 68.9517H17.991L16.8135 72.5807H8.76C7.43305 71.0118 2.35484 64.2872 2.35484 53.2259C2.35484 41.2199 11.8625 31.4517 23.5484 31.4517C35.2343 31.4517 44.7419 41.2199 44.7419 53.2259C44.7419 64.24 39.6578 71.0057 38.3344 72.5807Z" fill="#2E4346"/>
<path d="M68.5152 27.6641L66.4641 26.4762C67.014 25.477 67.4485 24.3944 67.7581 23.2585L67.9265 22.6391L70.6452 21.7089V16.9996L67.9253 16.0694L67.757 15.45C67.4473 14.3141 67.0128 13.2315 66.463 12.2323L66.1545 11.6722L67.4355 9.04234L64.1953 5.71331L61.6379 7.03065L61.0928 6.71371C60.1202 6.14879 59.0664 5.70242 57.9608 5.38427L57.358 5.21371L56.4525 2.41935H51.8689L50.9634 5.21371L50.3606 5.38669C49.255 5.70484 48.2012 6.15121 47.2286 6.71613L46.6847 7.03065L44.125 5.71452L40.2842 9.66048L38.6194 7.95L43.6599 2.77137L46.6305 4.29798C47.4241 3.88065 48.2565 3.52742 49.1184 3.24315L50.1722 0H58.1492L59.2018 3.24315C60.0637 3.52742 60.8961 3.88065 61.6897 4.29798L64.6603 2.77137L70.3014 8.56694L68.8154 11.619C69.2217 12.4343 69.5655 13.2895 69.8422 14.175L73 15.2565V23.452L69.8433 24.5335C69.5007 25.6306 69.0556 26.6819 68.5152 27.6641Z" fill="#2E4346"/>
<path d="M58.1504 38.7098H50.1734L49.1208 35.4666C48.2589 35.1823 47.4264 34.8291 46.6329 34.4118L43.6622 35.9384L38.0212 30.1428L39.5071 27.0908C39.0997 26.2743 38.7547 25.4178 38.4804 24.5336L35.3226 23.4533V15.2578L38.4792 14.1775C38.8195 13.0828 39.2657 12.0328 39.8074 11.0457L41.8584 12.2336C41.3062 13.2364 40.8717 14.319 40.5644 15.4501L40.3961 16.0694L37.6774 17.0009V21.7102L40.3973 22.6416L40.5656 23.261C40.8729 24.3932 41.3074 25.4747 41.8596 26.4775L42.1681 27.0376L40.8871 29.6674L44.1273 32.9965L46.687 31.6803L47.2322 31.9973C48.2047 32.5622 49.2585 33.0086 50.3641 33.3267L50.9669 33.4997L51.87 36.2904H56.4537L57.3592 33.4961L57.962 33.3231C59.0676 33.0049 60.1214 32.5586 61.0939 31.9936L61.6391 31.6767L64.1988 32.9928L68.0395 29.0469L69.7044 30.7574L64.6639 35.936L61.6932 34.4094C60.8997 34.8267 60.0672 35.1799 59.2053 35.4642L58.1504 38.7098Z" fill="#2E4346"/>
</svg>
