<svg width="12" height="12" viewBox="0 0 12 12" fill="none" xmlns="http://www.w3.org/2000/svg">
<path d="M11.75 6C11.75 9.17564 9.17564 11.75 6 11.75C2.82436 11.75 0.25 9.17564 0.25 6C0.25 2.82436 2.82436 0.25 6 0.25C9.17564 0.25 11.75 2.82436 11.75 6Z" fill="#FFD205" stroke="#465861" stroke-width="0.5"/>
<path d="M5.42864 6.3904L5.25904 3.85436C5.22722 3.36019 5.21167 3.00548 5.21167 2.79024C5.21167 2.49728 5.28852 2.26859 5.4417 2.10477C5.59527 1.94022 5.79755 1.85815 6.04787 1.85815C6.35161 1.85815 6.55482 1.96323 6.65697 2.17326C6.75911 2.3835 6.81053 2.6862 6.81053 3.08117C6.81053 3.31424 6.79802 3.55108 6.77359 3.79068L6.54584 6.40091C6.5212 6.71176 6.46833 6.94985 6.38685 7.11592C6.30565 7.28162 6.1714 7.36444 5.98457 7.36444C5.79375 7.36444 5.66158 7.28448 5.5875 7.12359C5.51333 6.96332 5.46019 6.7186 5.42864 6.3904ZM6.01632 9.87406C5.80107 9.87406 5.61282 9.80471 5.45251 9.66515C5.29183 9.52596 5.21167 9.331 5.21167 9.0802C5.21167 8.86126 5.28852 8.67498 5.4417 8.52141C5.59527 8.36785 5.78335 8.2912 6.00571 8.2912C6.22817 8.2912 6.41764 8.36785 6.57483 8.52141C6.73191 8.67498 6.81056 8.86134 6.81056 9.0802C6.81056 9.3271 6.73115 9.52113 6.57209 9.66249C6.41339 9.80357 6.22817 9.87406 6.01632 9.87406Z" fill="#465861"/>
</svg>
