<svg width="42" height="42" viewBox="0 0 42 42" fill="none" xmlns="http://www.w3.org/2000/svg">
<g clip-path="url(#clip0)">
<path d="M30.7982 25.8999C30.7982 25.5136 30.4846 25.2 30.0982 25.2H25.8982C25.5118 25.2 25.1982 25.5136 25.1982 25.8999C25.1982 26.2863 25.5118 26.5999 25.8982 26.5999H30.0982C30.4846 26.6 30.7982 26.2864 30.7982 25.8999Z" fill="#20B0BB"/>
<path d="M27.9986 7.7V4.19997C27.9986 3.81361 27.685 3.5 27.2986 3.5C26.9122 3.5 26.5986 3.81361 26.5986 4.19997V7.7C26.5986 9.62987 28.1687 11.2 30.0987 11.2H36.3987V24.5C36.3987 24.8864 36.7123 25.2 37.0986 25.2C37.485 25.2 37.7986 24.8864 37.7986 24.5V10.5C37.7986 10.1136 37.485 9.8 37.0986 9.8H30.0987C28.9408 9.8 27.9986 8.85779 27.9986 7.7Z" fill="#20B0BB"/>
<path d="M30.0988 16.8003H24.4988C24.1124 16.8003 23.7988 17.1139 23.7988 17.5003C23.7988 17.8866 24.1124 18.2002 24.4988 18.2002H30.0988C30.4852 18.2002 30.7988 17.8866 30.7988 17.5003C30.7989 17.1139 30.4853 16.8003 30.0988 16.8003Z" fill="#20B0BB"/>
<path d="M22.3988 17.5003C22.3988 17.1139 22.0852 16.8003 21.6988 16.8003H17.4988C17.1124 16.8003 16.7988 17.1139 16.7988 17.5003C16.7988 17.8866 17.1124 18.2002 17.4988 18.2002H21.6988C22.0852 18.2003 22.3988 17.8867 22.3988 17.5003Z" fill="#20B0BB"/>
<path d="M17.4988 21C17.1124 21 16.7988 21.3136 16.7988 21.7C16.7988 22.0863 17.1124 22.3999 17.4988 22.3999H18.8988C19.2852 22.3999 19.5988 22.0863 19.5988 21.7C19.5988 21.3136 19.2852 21 18.8988 21H17.4988Z" fill="#20B0BB"/>
<path d="M17.4988 14H24.4988C24.8851 14 25.1987 13.6864 25.1987 13.3001C25.1987 12.9137 24.8851 12.6001 24.4988 12.6001H17.4988C17.1124 12.6001 16.7988 12.9137 16.7988 13.3001C16.7988 13.6864 17.1124 14 17.4988 14Z" fill="#20B0BB"/>
<path d="M21.698 22.3999H28.698C29.0844 22.3999 29.398 22.0863 29.398 21.7C29.398 21.3136 29.0844 21 28.698 21H21.698C21.3117 21 20.998 21.3136 20.998 21.7C20.998 22.0863 21.3117 22.3999 21.698 22.3999Z" fill="#20B0BB"/>
<path d="M25.8982 29.4001C25.5118 29.4001 25.1982 29.7138 25.1982 30.1001C25.1982 30.4865 25.5118 30.8001 25.8982 30.8001H27.2982C27.6846 30.8001 27.9982 30.4865 27.9982 30.1001C27.9982 29.7138 27.6846 29.4001 27.2982 29.4001H25.8982Z" fill="#20B0BB"/>
<path d="M23.0988 25.2H17.4988C17.1124 25.2 16.7988 25.5136 16.7988 25.8999C16.7988 26.2863 17.1124 26.5999 17.4988 26.5999H23.0988C23.4852 26.5999 23.7988 26.2863 23.7988 25.8999C23.7988 25.5136 23.4852 25.2 23.0988 25.2Z" fill="#20B0BB"/>
<path d="M23.0988 29.4001H17.4988C17.1124 29.4001 16.7988 29.7138 16.7988 30.1001C16.7988 30.4865 17.1124 30.8001 17.4988 30.8001H23.0988C23.4852 30.8001 23.7988 30.4865 23.7988 30.1001C23.7988 29.7138 23.4852 29.4001 23.0988 29.4001Z" fill="#20B0BB"/>
<path d="M39.7645 28.8339L38.3645 27.4338C37.2886 26.3579 35.6492 26.36 34.5747 27.4338L25.4033 36.6052C25.2724 36.7362 25.1982 36.9147 25.1982 37.1001V41.3001C25.1982 41.6865 25.5118 42.0001 25.8982 42.0001H30.0982C30.2837 42.0001 30.4622 41.9259 30.5931 41.795L39.7645 32.6236C40.8797 31.5085 40.8797 29.9496 39.7645 28.8339ZM33.6696 30.3185L34.7798 31.4287L28.6982 37.5104L27.588 36.4002L33.6696 30.3185ZM26.5983 40.6001V37.3899L29.8085 40.6001H26.5983ZM30.7983 39.6103L29.6881 38.5001L35.7697 32.4185L36.8799 33.5287L30.7983 39.6103ZM38.7747 31.6338L37.8696 32.539L34.6594 29.3287L35.5645 28.4236C36.1175 27.8713 36.819 27.8685 37.3747 28.4236L38.7747 29.8236C39.341 30.3906 39.341 31.0675 38.7747 31.6338Z" fill="#20B0BB"/>
<path d="M23.0984 40.6H4.89838C3.74059 40.6 2.79838 39.6578 2.79838 38.5V3.50003C2.79838 2.34224 3.74059 1.40003 4.89838 1.40003H27.0086L33.8035 8.19492C34.0771 8.46866 34.5196 8.46866 34.7933 8.19492C35.067 7.92127 35.067 7.47879 34.7933 7.20513L27.7933 0.205078C27.6624 0.0735 27.4839 0 27.2984 0H4.89838C2.96852 0 1.39844 1.57008 1.39844 3.50003V38.5001C1.39844 40.4299 2.96852 42.0001 4.89846 42.0001H23.0985C23.4849 42.0001 23.7985 41.6865 23.7985 41.3001C23.7985 40.9137 23.4848 40.6 23.0984 40.6Z" fill="#20B0BB"/>
<path d="M23.0988 33.5999H17.4988C17.1124 33.5999 16.7988 33.9135 16.7988 34.2998C16.7988 34.6862 17.1124 34.9998 17.4988 34.9998H23.0988C23.4852 34.9998 23.7988 34.6862 23.7988 34.2998C23.7988 33.9135 23.4852 33.5999 23.0988 33.5999Z" fill="#20B0BB"/>
<path d="M13.9984 13.2998C13.9984 12.9135 13.6848 12.5999 13.2984 12.5999H9.09841C8.71204 12.5999 8.39844 12.9135 8.39844 13.2998V17.4998C8.39844 17.8862 8.71204 18.1998 9.09841 18.1998H13.2984C13.6848 18.1998 13.9984 17.8862 13.9984 17.4998V13.2998ZM12.5984 16.7999H9.79838V13.9999H12.5984V16.7999Z" fill="#20B0BB"/>
<path d="M9.09841 35.0001H13.2984C13.6848 35.0001 13.9984 34.6865 13.9984 34.3001V30.1001C13.9984 29.7138 13.6848 29.4001 13.2984 29.4001H9.09841C8.71204 29.4001 8.39844 29.7138 8.39844 30.1001V34.3001C8.39844 34.6865 8.71204 35.0001 9.09841 35.0001ZM9.79846 30.8001H12.5984V33.6001H9.79846V30.8001Z" fill="#20B0BB"/>
<path d="M10.0037 26.395C10.1353 26.5266 10.3138 26.6 10.4986 26.6C10.5218 26.6 10.5442 26.5994 10.5679 26.5965C10.7766 26.5763 10.9648 26.4628 11.0811 26.2885L13.881 22.0885C14.0952 21.7665 14.0084 21.3318 13.6871 21.1176C13.3644 20.9027 12.9311 20.9902 12.7162 21.3115L10.3901 24.801L9.5935 24.0052C9.31984 23.7314 8.87737 23.7314 8.60371 24.0052C8.33005 24.2789 8.32997 24.7213 8.60371 24.9949L10.0037 26.395Z" fill="#20B0BB"/>
</g>
<defs>
<clipPath id="clip0">
<rect width="42" height="42" fill="white"/>
</clipPath>
</defs>
</svg>
