<svg width="42" height="42" viewBox="0 0 42 42" fill="none" xmlns="http://www.w3.org/2000/svg">
<path d="M37.0221 34.7625C36.9288 29.0545 31.0927 27.3681 26.8313 26.1367C26.3341 25.9931 25.856 25.8549 25.4079 25.7169V23.3622C26.2791 22.8161 27.0425 22.1133 27.6583 21.2936H30.2541C31.5244 21.2936 32.5579 20.2601 32.5579 18.9898V16.2011C32.7118 15.8421 32.7974 15.447 32.7974 15.0322V14.1649C32.7974 13.7505 32.7118 13.3556 32.5579 12.9969V11.5582C32.5579 5.18505 27.373 0 20.9999 0C14.628 0 9.44416 5.18505 9.44416 11.5583V12.9558C9.44416 12.9668 9.44539 12.9774 9.4458 12.9883C9.28945 13.3494 9.20233 13.7471 9.20233 14.165V15.0323C9.20233 16.6719 10.5352 18.0058 12.1734 18.0058H12.8513C13.3209 20.2574 14.7032 22.1777 16.5918 23.3618V25.7169C16.1437 25.8549 15.6656 25.993 15.1684 26.1367C10.907 27.3681 5.07097 29.0546 4.97762 34.7625C4.97754 34.767 4.97754 34.7715 4.97754 34.776V41.1797C4.97754 41.6327 5.34488 42 5.79785 42H8.22993C8.68291 42 9.05024 41.6327 9.05024 41.1797C9.05024 40.7266 8.68291 40.3594 8.22993 40.3594H6.61809V34.7828C6.65262 32.7913 7.56744 31.2984 9.4969 30.0848C10.7701 29.2839 12.3267 28.7133 13.861 28.2359L15.8429 32.0975C16.0639 32.5279 16.6295 32.6742 17.0314 32.403L17.9151 31.8068L18.6739 34.6585L17.3739 40.3593H15.5961C15.1431 40.3593 14.7758 40.7265 14.7758 41.1796C14.7758 41.6327 15.1431 41.9999 15.5961 41.9999H36.2019C36.6549 41.9999 37.0222 41.6327 37.0222 41.1796V34.7759C37.0222 34.7715 37.0222 34.767 37.0221 34.7625ZM26.3759 27.7128C26.4299 27.7284 26.4849 27.7444 26.5394 27.7601L25.1213 30.5258L22.4675 28.7362L24.7161 27.2196C25.2384 27.3839 25.794 27.5446 26.3759 27.7128ZM21.0004 29.7258L22.6453 30.835L21.8504 33.8231H20.1494L19.3546 30.8359L21.0004 29.7258ZM21.0003 27.7469L18.2324 25.8805V24.1535C19.0987 24.4599 20.0298 24.628 20.9998 24.628C21.9696 24.628 22.9009 24.4605 23.7672 24.1541V25.8805L21.0003 27.7469ZM27.6829 11.7084C27.6717 11.7012 27.6605 11.6941 27.6493 11.687C25.9661 10.6155 24.5123 9.69006 22.2344 10.3418C22.2133 10.3479 22.1923 10.3548 22.1717 10.3625C21.6888 10.5438 21.2496 10.7129 20.8249 10.8764C18.2308 11.875 16.8144 12.4203 14.3168 12.3501V11.6932C14.3168 8.008 17.3148 5.00991 20.9998 5.00991C24.6848 5.00991 27.6828 8.008 27.6828 11.6932V11.7084H27.6829ZM30.9172 18.9898C30.9172 19.3555 30.6198 19.653 30.2541 19.653H28.6194C28.8502 19.1297 29.029 18.5785 29.1485 18.0057H29.8264C30.2115 18.0057 30.5793 17.9312 30.9173 17.7971V18.9898H30.9172ZM31.1568 15.0322C31.1568 15.7671 30.56 16.3651 29.8263 16.3651H29.3228C29.323 16.3447 29.3236 12.8343 29.3236 12.8343H29.8264C30.56 12.8343 31.1568 13.4312 31.1568 14.1649V15.0322H31.1568ZM12.1734 16.3651C11.4398 16.3651 10.843 15.7672 10.843 15.0323V14.165C10.843 13.4313 11.4397 12.8344 12.1734 12.8344H12.6762C12.6762 12.8344 12.6769 16.3448 12.677 16.3651H12.1734ZM12.6915 11.1937H12.1733C11.7899 11.1937 11.4236 11.2675 11.0868 11.4004C11.1715 6.00438 15.5855 1.64063 20.9999 1.64063C26.4158 1.64063 30.831 6.00487 30.9152 11.4013C30.5778 11.2679 30.2106 11.1937 29.8263 11.1937H29.3081C29.0489 6.83553 25.4218 3.36928 20.9999 3.36928C16.5779 3.36928 12.9508 6.83561 12.6915 11.1937ZM14.3661 17.1022C14.3661 17.1014 14.3659 17.1005 14.3658 17.0997C14.3347 16.8386 14.3168 16.5735 14.3168 16.3042V13.9906C17.1234 14.0591 18.7976 13.415 21.4143 12.4076C21.8264 12.249 22.2524 12.085 22.7165 11.9105C24.266 11.4779 25.1576 12.0457 26.7682 13.071C27.0477 13.2489 27.3543 13.4439 27.6829 13.6441V16.3042C27.6829 17.5241 27.3528 18.6676 26.7796 19.653H20.9999C20.5469 19.653 20.1795 20.0203 20.1795 20.4734C20.1795 20.9264 20.5469 21.2937 20.9999 21.2937H25.4397C24.2583 22.3462 22.7028 22.9875 20.9999 22.9875C17.585 22.9874 14.7619 20.4122 14.3661 17.1022ZM16.8804 30.5258L15.4608 27.76C15.5151 27.7443 15.5699 27.7284 15.6238 27.7128C16.2058 27.5446 16.7613 27.3839 17.2838 27.2195L19.5333 28.7364L16.8804 30.5258ZM19.0567 40.3594L20.1731 35.4637H21.8269L22.945 40.3594H19.0567ZM35.3816 40.3594H24.6279L23.3259 34.6584L24.0849 31.8057L24.9708 32.403C25.3729 32.6742 25.9385 32.5279 26.1593 32.0972L28.1391 28.2361C29.6733 28.7134 31.2298 29.284 32.5029 30.0848C34.4323 31.2983 35.3472 32.7913 35.3817 34.7828V40.3594H35.3816Z" fill="#20B0BB"/>
<path d="M32.1419 36.2576H28.0078C27.5548 36.2576 27.1875 36.6248 27.1875 37.0779C27.1875 37.5309 27.5548 37.8982 28.0078 37.8982H32.1419C32.5949 37.8982 32.9623 37.5309 32.9623 37.0779C32.9623 36.6248 32.595 36.2576 32.1419 36.2576Z" fill="#20B0BB"/>
<path d="M11.9131 40.3594C11.4601 40.3594 11.0928 40.7266 11.0928 41.1797C11.0928 41.6327 11.4601 42 11.9131 42H11.9154C12.3684 42 12.7345 41.6327 12.7345 41.1797C12.7345 40.7266 12.3661 40.3594 11.9131 40.3594Z" fill="#20B0BB"/>
</svg>
