<svg width="42" height="42" viewBox="0 0 42 42" fill="none" xmlns="http://www.w3.org/2000/svg">
<g clip-path="url(#clip0)">
<path d="M30.4528 0H15.8483C14.6267 0 13.6329 0.993809 13.6329 2.2155V19.1552C13.5029 19.332 13.2865 19.6179 13.0747 19.8977C12.2904 20.9338 11.1051 22.4998 10.3982 23.6125C9.00437 25.8103 8.97747 28.0064 10.3084 30.9558C10.3177 30.9764 10.3279 30.9966 10.3389 31.0163C10.3389 31.0163 12.0053 34.0302 12.0768 34.1622C12.4975 34.9395 13.2017 36.2405 13.157 37.2631C13.1565 37.275 13.1563 37.2869 13.1563 37.2989V39.7241C13.1563 40.979 14.1773 42 15.4322 42H22.8448C24.0998 42 25.1207 40.979 25.1207 39.7241L25.1138 37.5992C25.1142 36.7812 25.2379 36.3503 25.3943 35.805C25.5012 35.4327 25.6222 35.0106 25.7091 34.4388C25.7113 34.424 25.7132 34.4092 25.7145 34.3943C25.8359 33.1348 25.5086 31.9185 25.1621 30.6309C24.9654 29.9001 24.7557 29.1204 24.6055 28.2578H30.4529C31.6745 28.2578 32.6683 27.264 32.6683 26.0423V17.8132C32.6683 17.3603 32.301 16.9929 31.848 16.9929C31.3951 16.9929 31.0277 17.3603 31.0277 17.8132V26.0422C31.0277 26.3592 30.7698 26.6171 30.4529 26.6171H28.5178V1.64062H30.4528C30.7697 1.64062 31.0276 1.89853 31.0276 2.2155V10.4445C31.0276 10.8975 31.395 11.2649 31.8479 11.2649C32.3009 11.2649 32.6683 10.8975 32.6683 10.4445V2.2155C32.6683 0.993809 31.6745 0 30.4528 0V0ZM22.8448 40.3594H15.4321C15.0877 40.3594 14.7968 40.0684 14.7968 39.7241V37.3155C14.8532 35.8454 14.0189 34.3038 13.5196 33.3812C13.4513 33.2551 11.7901 30.2505 11.7901 30.2505C10.6992 27.8197 10.6982 26.2029 11.7834 24.4917C12.2586 23.7438 12.9795 22.7564 13.6329 21.883V26.0423C13.6329 27.264 14.6267 28.2578 15.8483 28.2578H18.4786V30.9951C18.4786 31.4481 18.8458 31.8154 19.2989 31.8154C19.7519 31.8154 20.1192 31.4481 20.1192 30.9951V22.3568C20.1192 21.6167 20.7212 21.0146 21.4613 21.0146C21.8213 21.0146 22.161 21.1568 22.4178 21.4152C22.67 21.6689 22.8079 22.0016 22.8057 22.3519C22.804 22.633 22.7997 24.4827 22.7668 25.3412C22.7377 26.1005 22.7699 26.8067 22.8397 27.466C22.8413 27.5139 22.905 27.9998 22.9339 28.1901C23.0993 29.276 23.3534 30.2239 23.5777 31.0571C23.8953 32.2375 24.1701 33.2581 24.0834 34.2151C24.0128 34.6707 23.9177 35.002 23.8172 35.3524C23.648 35.9421 23.473 36.5519 23.473 37.6034C23.473 37.6062 23.473 37.6091 23.4731 37.6119L23.48 39.724C23.48 40.0684 23.1891 40.3594 22.8448 40.3594ZM26.8772 26.6172H24.4166C24.3955 26.2297 24.4447 22.6406 24.4463 22.3616C24.451 21.5712 24.1438 20.8243 23.5812 20.2584C23.0142 19.6881 22.2613 19.374 21.4612 19.374C19.8166 19.374 18.4785 20.7121 18.4785 22.3568V26.6172H15.8482C15.5313 26.6172 15.2734 26.3593 15.2734 26.0423V2.2155C15.2734 1.89853 15.5314 1.64062 15.8482 1.64062H26.8772V26.6172Z" fill="#20B0BB"/>
<path d="M31.8477 13.3098C31.3947 13.3098 31.0273 13.6772 31.0273 14.1301V14.1324C31.0273 14.5854 31.3947 14.9516 31.8477 14.9516C32.3006 14.9516 32.668 14.5831 32.668 14.13C32.668 13.677 32.3006 13.3098 31.8477 13.3098Z" fill="#20B0BB"/>
</g>
<defs>
<clipPath id="clip0">
<rect width="42" height="42" fill="white"/>
</clipPath>
</defs>
</svg>
