<svg width="42" height="42" viewBox="0 0 42 42" fill="none" xmlns="http://www.w3.org/2000/svg">
<g clip-path="url(#clip0)">
<path d="M31.5324 34.3936C31.0793 34.3936 30.7109 34.0263 30.7109 33.5732C30.7109 33.1203 31.077 32.7529 31.53 32.7529H31.5323C31.9854 32.7529 32.3526 33.1202 32.3526 33.5732C32.3527 34.0262 31.9855 34.3936 31.5324 34.3936Z" fill="#20B0BB"/>
<path d="M11.169 32.7529H11.1667C10.7137 32.7529 10.3477 33.1202 10.3477 33.5732C10.3477 34.0262 10.7161 34.3936 11.1691 34.3936C11.6222 34.3936 11.9894 34.0263 11.9894 33.5732C11.9893 33.1203 11.6221 32.7529 11.169 32.7529Z" fill="#20B0BB"/>
<path d="M40.8119 30.5897V23.912C40.8119 23.8095 40.7919 23.7049 40.754 23.6096L36.8385 13.7392C36.7145 13.4266 36.4123 13.2214 36.076 13.2214H29.5606V10.0027C29.5606 9.54976 29.1933 9.18243 28.7402 9.18243H20.2292C19.7802 8.44603 19.2408 7.75779 18.6154 7.13238C17.0342 5.55123 15.04 4.50673 12.8482 4.11175C10.7071 3.72587 8.52528 3.98099 6.53906 4.84962C6.12398 5.03115 5.93465 5.51473 6.11619 5.9298C6.29772 6.3448 6.78138 6.53429 7.19638 6.35268C10.7125 4.81508 14.7393 5.57633 17.4553 8.29247C19.2053 10.0425 20.1691 12.369 20.1691 14.8435C20.1691 17.3178 19.2054 19.6436 17.4551 21.3929C15.7062 23.1429 13.3805 24.1067 10.9062 24.1067C8.43185 24.1067 6.10536 23.1428 4.35531 21.3928C1.64327 18.6808 0.880298 14.656 2.41149 11.1394C2.59237 10.7241 2.40222 10.2407 1.9869 10.0598C1.57174 9.8792 1.08825 10.0691 0.907368 10.4845C0.0424311 12.4709 -0.210471 14.6514 0.175896 16.7903C0.556029 18.8945 1.53614 20.8153 3.01319 22.3638V30.5897C2.31371 30.9041 1.82505 31.607 1.82505 32.4223V33.4895C1.82505 34.5969 2.726 35.498 3.83342 35.498H7.11426C7.83622 37.0129 9.38226 38.0626 11.1692 38.0626C12.9552 38.0626 14.5005 37.0129 15.2221 35.498H27.4775C28.1992 37.0129 29.7444 38.0626 31.5304 38.0626C33.3173 38.0626 34.8633 37.0129 35.5853 35.498H39.9916C41.099 35.498 41.9999 34.5969 41.9999 33.4895V32.4223C42 31.607 41.5114 30.9041 40.8119 30.5897ZM37.0428 18.7031L38.7837 23.0918H29.8791V18.7031H37.0428ZM35.5191 14.8619L36.392 17.0625H29.0588C28.6058 17.0625 28.2385 17.4298 28.2385 17.8828V23.912C28.2385 24.365 28.6058 24.7324 29.0588 24.7324H39.1713V26.754H38.0571C37.604 26.754 37.2368 27.1213 37.2368 27.5743C37.2368 28.0274 37.604 28.3946 38.0571 28.3946H39.1713V30.4139H34.7148C33.901 29.5946 32.7741 29.0862 31.5305 29.0862C30.2874 29.0862 29.1611 29.5946 28.3477 30.4139H25.5916V14.8619H35.5191ZM6.68983 33.8575H3.83342C3.634 33.8575 3.4656 33.689 3.4656 33.4896V32.4224C3.4656 32.2229 3.63409 32.0545 3.83342 32.0545H6.9452C6.77383 32.5291 6.67991 33.0404 6.67991 33.5734C6.67991 33.6688 6.68393 33.7634 6.68983 33.8575ZM11.1692 36.4221C9.59842 36.4221 8.32045 35.1442 8.32045 33.5733C8.32045 32.0037 9.59842 30.7267 11.1692 30.7267C12.7388 30.7267 14.0157 32.0037 14.0157 33.5733C14.0157 35.1442 12.7388 36.4221 11.1692 36.4221ZM14.352 30.4138C13.5385 29.5945 12.4123 29.0862 11.1692 29.0862C9.92556 29.0862 8.79869 29.5945 7.98486 30.4138H4.65374V23.7796C6.47311 25.0583 8.63676 25.7472 10.9062 25.7472C13.8188 25.7472 16.5568 24.6127 18.6152 22.553C20.6752 20.4941 21.8097 17.7563 21.8097 14.8435C21.8097 13.4444 21.5472 12.0858 21.0469 10.823H27.9199V13.2213H24.7712C24.3181 13.2213 23.9508 13.5886 23.9508 14.0416V30.4138H14.352V30.4138ZM15.6463 33.8575C15.6522 33.7634 15.6563 33.6688 15.6563 33.5733C15.6563 33.0403 15.5624 32.529 15.3911 32.0544H27.3085C27.1373 32.529 27.0434 33.0403 27.0434 33.5733C27.0434 33.6688 27.0474 33.7634 27.0534 33.8575H15.6463ZM31.5305 36.4221C29.9609 36.4221 28.684 35.1442 28.684 33.5733C28.684 32.0037 29.9609 30.7267 31.5305 30.7267C32.4065 30.7267 33.1911 31.1241 33.7141 31.7477C33.7199 31.755 33.726 31.7619 33.732 31.7689C34.1362 32.2604 34.3792 32.889 34.3792 33.5733C34.3792 35.1442 33.1013 36.4221 31.5305 36.4221ZM40.3595 33.4896C40.3595 33.6891 40.191 33.8575 39.9916 33.8575H36.0098C36.0158 33.7634 36.0198 33.6688 36.0198 33.5733C36.0198 33.0403 35.9258 32.529 35.7545 32.0544H39.9916C40.191 32.0544 40.3594 32.2229 40.3594 32.4223V33.4896H40.3595Z" fill="#20B0BB"/>
<path d="M10.9067 22.4096C15.0783 22.4096 18.4722 19.0157 18.4722 14.8439C18.4722 10.6709 15.0783 7.27588 10.9067 7.27588C6.73373 7.27588 3.33887 10.6709 3.33887 14.8439C3.33887 19.0156 6.73373 22.4096 10.9067 22.4096ZM10.9067 8.91642C14.1737 8.91642 16.8316 11.5755 16.8316 14.8439C16.8316 18.1111 14.1737 20.769 10.9067 20.769C7.63837 20.769 4.97941 18.1111 4.97941 14.8439C4.97941 11.5754 7.63837 8.91642 10.9067 8.91642Z" fill="#20B0BB"/>
<path d="M10.9063 15.6641H13.2756C13.7287 15.6641 14.0959 15.2969 14.0959 14.8438C14.0959 14.3908 13.7287 14.0235 13.2756 14.0235H11.7266V11.4304C11.7266 10.9774 11.3593 10.6101 10.9062 10.6101C10.4532 10.6101 10.0859 10.9774 10.0859 11.4304V14.8438C10.086 15.2969 10.4533 15.6641 10.9063 15.6641Z" fill="#20B0BB"/>
<path d="M3.77342 8.53487C3.98334 8.53487 4.19325 8.45472 4.35346 8.2946L4.35576 8.2923C4.67609 7.97197 4.67486 7.45378 4.35461 7.13344C4.03428 6.81319 3.51379 6.81426 3.19337 7.13459C2.87304 7.45493 2.87304 7.97435 3.19337 8.29468C3.35358 8.45481 3.5635 8.53487 3.77342 8.53487Z" fill="#20B0BB"/>
</g>
<defs>
<clipPath id="clip0">
<rect width="42" height="42" fill="white"/>
</clipPath>
</defs>
</svg>
