<svg width="25" height="15" viewBox="0 0 25 15" fill="none" xmlns="http://www.w3.org/2000/svg">
<path d="M13.6364 1H25L10.3896 15H0L13.6364 1Z" fill="#FFD400"/>
<path d="M13.7419 9H11.2811C11.2811 6.54545 12.5936 5.72727 13.4959 5.23636C13.824 5.07273 14.07 4.90909 14.2341 4.74545C14.6442 4.33636 14.4802 3.76364 14.3982 3.6C14.1521 3.02727 13.5779 2.45455 12.5115 2.45455C10.7889 2.45455 10.4608 4.00909 10.4608 4.33636L8 4.00909C8.16406 2.61818 9.39447 0 12.5115 0C14.3982 0 16.0387 1.06364 16.6949 2.61818C17.2691 4.00909 17.023 5.48182 16.0387 6.46364C15.6286 6.87273 15.1364 7.11818 14.7263 7.36364C13.988 7.77273 13.7419 8.18182 13.7419 9Z" fill="#1E1E1F"/>
<rect x="11" y="11" width="3" height="3" fill="#1E1E1F"/>
</svg>
