<svg width="20" height="20" viewBox="0 0 20 20" fill="none" xmlns="http://www.w3.org/2000/svg">
<path d="M10.5 3.5C10.5 3.8 10.3 4 10 4C9.7 4 9.5 3.8 9.5 3.5V2.5C9.5 2.2 9.7 2 10 2C10.3 2 10.5 2.2 10.5 2.5V3.5ZM10.5 17.5C10.5 17.8 10.3 18 10 18C9.7 18 9.5 17.8 9.5 17.5V16.5C9.5 16.2 9.7 16 10 16C10.3 16 10.5 16.2 10.5 16.5V17.5ZM3.5 9.5C3.8 9.5 4 9.7 4 10C4 10.3 3.8 10.5 3.5 10.5H2.5C2.2 10.5 2 10.3 2 10C2 9.7 2.2 9.5 2.5 9.5H3.5ZM17.5 9.5C17.8 9.5 18 9.7 18 10C18 10.3 17.8 10.5 17.5 10.5H16.5C16.2 10.5 16 10.3 16 10C16 9.7 16.2 9.5 16.5 9.5H17.5ZM1 10C1 15 5 19 10 19C15 19 19 15 19 10C19 5 15 1 10 1C5 1 1 5 1 10ZM0 10C0 4.5 4.5 0 10 0C15.5 0 20 4.5 20 10C20 15.5 15.5 20 10 20C4.5 20 0 15.5 0 10ZM9.5 9.8C9.5 9.7 9.6 9.6 9.7 9.5L12.7 7.8C13 7.7 13.3 7.8 13.4 8C13.5 8.2 13.5 8.5 13.2 8.7L10.4 10.3L8.9 14.4C8.8 14.7 8.5 14.8 8.3 14.7C8 14.6 7.9 14.3 8 14.1L9.5 9.8Z" fill="white"/>
</svg>
