<svg width="56" height="56" viewBox="0 0 56 56" fill="none" xmlns="http://www.w3.org/2000/svg">
<path d="M33.5774 27.0967C32.5811 27.0967 31.7709 26.2865 31.7709 25.2903H29.9645C29.9645 26.9684 31.1204 28.3713 32.6742 28.7748V30.7096H34.4806V28.7748C36.0344 28.3713 37.1903 26.9684 37.1903 25.2903C37.1903 23.2977 35.5699 21.6773 33.5774 21.6773C32.5811 21.6773 31.7709 20.8672 31.7709 19.8709C31.7709 18.8746 32.5811 18.0644 33.5774 18.0644C34.5737 18.0644 35.3838 18.8746 35.3838 19.8709H37.1903C37.1903 18.1928 36.0344 16.7899 34.4806 16.3863V14.4515H32.6742V16.3863C31.1204 16.7899 29.9645 18.1928 29.9645 19.8709C29.9645 21.8635 31.5848 23.4838 33.5774 23.4838C34.5737 23.4838 35.3838 24.294 35.3838 25.2903C35.3838 26.2865 34.5737 27.0967 33.5774 27.0967Z" fill="#0F0F0F"/>
<path d="M39.2225 3.61279H26.5774V5.41924H39.2225V3.61279Z" fill="#0F0F0F"/>
<path d="M41.8419 7.22595H23.7774V9.0324H41.8419V7.22595Z" fill="#0F0F0F"/>
<path d="M0 39.7419V32.5161H12.6452V0H48.245L56 7.75504V50.5806H45.1613V56H25.2903V50.5806H21.6774V56H1.80645V50.5806H0V43.3548H1.80645V39.7419H0ZM1.80645 37.9355H18.0645V34.3226H16.2581V36.129H14.4516V34.3226H12.6452V36.129H10.8387V34.3226H9.03226V36.129H7.22581V34.3226H5.41936V36.129H3.6129V34.3226H1.80645V37.9355ZM18.0645 32.5161H50.5806V12.6452H18.0645V32.5161ZM48.7742 3.08367V7.22581H52.9163L48.7742 3.08367ZM27.0968 54.1935H43.3548V50.5806H41.5484V52.3871H39.7419V50.5806H37.9355V52.3871H36.129V50.5806H34.3226V52.3871H32.5161V50.5806H30.7097V52.3871H28.9032V50.5806H27.0968V54.1935ZM25.2903 48.7742H41.5484V45.1613H39.7419V46.9677H37.9355V45.1613H36.129V46.9677H34.3226V45.1613H32.5161V46.9677H30.7097V45.1613H28.9032V46.9677H27.0968V45.1613H25.2903V48.7742ZM21.6774 48.7742H23.4839V43.3548H43.3548V48.7742H54.1935V9.03226H46.9677V1.80645H14.4516V32.5161H16.2581V10.8387H52.3871V34.3226H19.871V37.9355H21.6774V45.1613H19.871V48.7742H21.6774ZM3.6129 54.1935H19.871V50.5806H18.0645V52.3871H16.2581V50.5806H14.4516V52.3871H12.6452V50.5806H10.8387V52.3871H9.03226V50.5806H7.22581V52.3871H5.41936V50.5806H3.6129V54.1935ZM1.80645 48.7742H18.0645V45.1613H16.2581V46.9677H14.4516V45.1613H12.6452V46.9677H10.8387V45.1613H9.03226V46.9677H7.22581V45.1613H5.41936V46.9677H3.6129V45.1613H1.80645V48.7742ZM3.6129 43.3548H19.871V39.7419H18.0645V41.5484H16.2581V39.7419H14.4516V41.5484H12.6452V39.7419H10.8387V41.5484H9.03226V39.7419H7.22581V41.5484H5.41936V39.7419H3.6129V43.3548Z" fill="#0F0F0F"/>
<path d="M26.0129 36.9421H51.3033V38.7485H26.0129V36.9421Z" fill="#0F0F0F"/>
</svg>
