<svg width="56" height="56" viewBox="0 0 56 56" fill="none" xmlns="http://www.w3.org/2000/svg">
<path d="M46.9978 37.995C46.756 37.995 46.5172 38.0074 46.2801 38.0262V35.2888C46.2801 34.8312 45.9092 34.4604 45.4516 34.4604H35.945C36.6931 33.6085 37.3545 32.6852 37.9219 31.6991H40.3935C40.8511 31.6991 41.2219 31.3282 41.2219 30.8707V24.5748H43.1872H43.1894C43.6469 24.5748 44.0178 24.2039 44.0178 23.7464C44.0178 23.4994 43.9097 23.2777 43.738 23.1256L39.73 19.1176C38.8533 15.4685 36.7662 12.1616 33.8314 9.78483C31.0031 7.49437 27.4894 6.16136 23.8578 5.98449V0.937865C23.8578 0.480285 23.487 0.109436 23.0294 0.109436C10.3308 0.109436 0 10.4407 0 23.1388C0 23.5964 0.370849 23.9672 0.828429 23.9672H5.87377C5.96135 25.8215 6.34374 27.63 7.01366 29.3552C7.14098 29.6834 7.45415 29.8842 7.78612 29.8842C7.88567 29.8842 7.98735 29.8658 8.08562 29.8278C8.51201 29.662 8.72349 29.1822 8.55815 28.7558C7.96257 27.2224 7.61864 25.6151 7.53233 23.9672H23.0294C23.487 23.9672 23.8578 23.5964 23.8578 23.1388V7.64262C30.2686 7.99168 35.8852 12.3594 37.8227 18.4404L33.1025 23.1606C32.8654 23.3977 32.7945 23.754 32.9227 24.0634C33.0513 24.3731 33.3529 24.5748 33.6883 24.5748H35.6536V30.8707C35.6536 31.1714 35.8143 31.4338 36.0535 31.579C35.3699 32.6326 34.5599 33.5965 33.6374 34.4608H31.5345C31.077 34.4608 30.7061 34.8317 30.7061 35.2888V36.6282C28.3755 37.957 25.7317 38.6581 23.0294 38.6581C17.9725 38.6581 13.2185 36.1822 10.312 32.0353C10.0492 31.6606 9.5327 31.5701 9.158 31.8324C8.78331 32.0952 8.69273 32.6117 8.95549 32.9864C12.1714 37.575 17.4329 40.3145 23.0294 40.3145C25.7073 40.3145 28.3332 39.6907 30.7061 38.5047V42.4131H17.6175C17.1599 42.4131 16.789 42.784 16.789 43.2416V46.3895H9.38145C8.9243 46.3895 8.55302 46.7603 8.55302 47.2179C8.55302 47.6755 8.9243 48.0464 9.38145 48.0464H16.789V50.3659H4.41814V48.0464H5.52086C5.97844 48.0464 6.34929 47.6755 6.34929 47.2179C6.34929 46.7603 5.97844 46.3895 5.52086 46.3895H3.58971C3.13214 46.3895 2.76129 46.7603 2.76129 47.2179V55.1707C2.76129 55.6282 3.13214 55.9991 3.58971 55.9991H45.4516C45.5794 55.9991 45.6994 55.9692 45.8075 55.9179C46.1976 55.9696 46.5941 55.9991 46.9978 55.9991C51.9616 55.9991 55.9999 51.9608 55.9999 46.997C55.9999 42.0333 51.9616 37.995 46.9978 37.995V37.995ZM22.2009 22.3108H1.67267C2.09906 11.1836 11.0742 2.20892 22.2009 1.7821V22.3108ZM35.6882 22.9179L38.438 20.1686L41.1873 22.9179H40.3935C39.9359 22.9179 39.565 23.2888 39.565 23.7464V30.0422H37.4378C37.4348 30.0422 37.4322 30.0422 37.4297 30.0422H37.3105V23.7464C37.3105 23.2888 36.9396 22.9179 36.482 22.9179H35.6882ZM18.4459 48.0464H30.7061V50.3659H18.4459V48.0464ZM32.363 48.0464H38.059C38.1539 48.8573 38.3564 49.6349 38.6525 50.3659H32.363V48.0464ZM38.0188 46.3895H32.363V44.07H38.4871C38.2338 44.8053 38.0727 45.5829 38.0188 46.3895V46.3895ZM39.2549 42.4131H32.363V40.0936H41.2283C40.4469 40.7481 39.7782 41.5321 39.2549 42.4131ZM32.363 36.1172H44.6232V38.315C44.4865 38.3526 44.3506 38.3932 44.2165 38.4368H32.363V36.1172ZM18.4459 44.07H30.7061V46.3895H18.4459V44.07ZM4.41814 52.0227H16.789V54.3422H4.41814V52.0227ZM18.4459 52.0227H30.7061V54.3422H18.4459V52.0227ZM32.363 54.3422V52.0227H39.533C40.1431 52.9263 40.9147 53.7116 41.8034 54.3422H32.363ZM46.9978 54.3422C42.9475 54.3422 39.6526 51.0469 39.6526 46.997C39.6526 42.9468 42.9475 39.6518 46.9978 39.6518C51.0481 39.6518 54.343 42.9468 54.343 46.997C54.343 51.0469 51.0481 54.3422 46.9978 54.3422Z" fill="#0F0F0F"/>
<path d="M46.9978 43.2967C47.7592 43.2967 48.3787 43.9162 48.3787 44.6776C48.3787 45.1351 48.7495 45.506 49.2071 45.506C49.6642 45.506 50.0355 45.1351 50.0355 44.6776C50.0355 43.2899 49.0994 42.1175 47.8262 41.7556V41.3638C47.8262 40.9062 47.4554 40.5354 46.9978 40.5354C46.5402 40.5354 46.1694 40.9062 46.1694 41.3638V41.7556C44.8962 42.1175 43.9605 43.2899 43.9605 44.6776V44.7878C43.9605 46.3408 45.2239 47.6046 46.7769 47.6046H47.2187C47.8583 47.6046 48.3787 48.1246 48.3787 48.7642V48.985C48.3787 49.7464 47.7592 50.3659 46.9978 50.3659C46.2365 50.3659 45.6174 49.7464 45.6174 48.985C45.6174 48.5275 45.2465 48.1566 44.7889 48.1566C44.3314 48.1566 43.9605 48.5275 43.9605 48.985C43.9605 50.3727 44.8962 51.5455 46.1694 51.907V52.2988C46.1694 52.7563 46.5402 53.1272 46.9978 53.1272C47.4554 53.1272 47.8262 52.7563 47.8262 52.2988V51.907C49.0994 51.5455 50.0355 50.3727 50.0355 48.985V48.7642C50.0355 47.2111 48.7717 45.9478 47.2187 45.9478H46.7769C46.1373 45.9478 45.6174 45.4274 45.6174 44.7878V44.6776C45.6174 43.9162 46.2365 43.2967 46.9978 43.2967V43.2967Z" fill="#0F0F0F"/>
<path d="M49.8002 29.7828L46.898 26.3977H48.2832V8.2759H46.7662V24.8807H43.6L49.8002 32.1142L56 24.8807H52.8342V2.39629e-05H51.3172V26.3977H52.702L49.8002 29.7828Z" fill="#0F0F0F"/>
<path d="M48.3153 4.922H46.7983V6.43899H48.3153V4.922Z" fill="#0F0F0F"/>
<path d="M48.3153 1.96631H46.7983V3.4833H48.3153V1.96631Z" fill="#0F0F0F"/>
</svg>
