<svg width="60" height="60" viewBox="0 0 60 60" fill="none" xmlns="http://www.w3.org/2000/svg">
<path d="M45.0207 31.4026H23.9792C23.5663 31.4026 23.2316 31.7373 23.2316 32.1503C23.2316 32.5633 23.5663 32.898 23.9792 32.898H45.0207C45.4337 32.898 45.7684 32.5633 45.7684 32.1503C45.7684 31.7373 45.4337 31.4026 45.0207 31.4026Z" fill="#0F0F0F"/>
<path d="M38.4997 43.827H29.5003C29.0873 43.827 28.7526 44.1617 28.7526 44.5746C28.7526 44.9875 29.0873 45.3223 29.5003 45.3223H38.4997C38.9127 45.3223 39.2473 44.9876 39.2473 44.5746C39.2473 44.1617 38.9127 43.827 38.4997 43.827Z" fill="#0F0F0F"/>
<path d="M48.0209 35.4567H28.3584C27.9455 35.4567 27.6108 35.7914 27.6108 36.2043C27.6108 36.6172 27.9455 36.952 28.3584 36.952H48.0209C48.4339 36.952 48.7686 36.6173 48.7686 36.2043C48.7686 35.7914 48.4339 35.4567 48.0209 35.4567Z" fill="#0F0F0F"/>
<path d="M24.8797 35.4565H20.9792C20.5663 35.4565 20.2316 35.7912 20.2316 36.2042C20.2316 36.6172 20.5663 36.9519 20.9792 36.9519H24.8797C25.2927 36.9519 25.6274 36.6172 25.6274 36.2042C25.6274 35.7913 25.2927 35.4565 24.8797 35.4565Z" fill="#0F0F0F"/>
<path d="M56.1401 28.139C55.9662 27.9682 55.736 27.8741 55.4905 27.8741C53.9751 27.8741 52.7344 26.6896 52.6661 25.1769C52.6437 24.6851 52.2395 24.2999 51.7459 24.2999H19.0759C18.5822 24.2999 18.1779 24.6852 18.1556 25.1774C18.0906 26.6229 16.9073 27.8062 15.4618 27.8713C14.9697 27.8934 14.5843 28.2977 14.5843 28.7916V46.1179C14.5843 46.6117 14.9697 47.0159 15.4618 47.0381C16.9073 47.1032 18.0906 48.2865 18.1556 49.7324C18.178 50.2243 18.5823 50.6094 19.0759 50.6094H39.1471C39.56 50.6094 39.8947 50.2748 39.8947 49.8618C39.8947 49.4489 39.56 49.1141 39.1471 49.1141H19.5901C19.281 47.3133 17.8804 45.9127 16.0796 45.6035V29.3056C17.8804 28.9965 19.281 27.5956 19.5901 25.7951H51.2321C51.5538 27.6528 53.0494 29.0868 54.9202 29.3322V40.0293C54.9202 40.4422 55.2549 40.777 55.6679 40.777C56.0808 40.777 56.4155 40.4423 56.4155 40.0293V28.7957C56.4155 28.5468 56.3177 28.3135 56.1401 28.139Z" fill="#0F0F0F"/>
<path d="M57.9246 20.5677H13.0754C11.931 20.5677 11 21.4987 11 22.643V52.266C11 53.4104 11.931 54.3414 13.0754 54.3414H42.4571L41.3461 56.6696C41.2033 56.9685 41.2381 57.319 41.4365 57.5842C41.635 57.8494 41.9616 57.9812 42.2885 57.9289L44.3569 57.5964L45.5107 59.4903C45.6725 59.7561 45.96 59.9164 46.2688 59.9164C46.2839 59.9164 46.299 59.916 46.3142 59.9152C46.6401 59.8987 46.9299 59.7055 47.0706 59.4108L49.0753 55.21L51.0799 59.4105C51.2203 59.7052 51.5101 59.8986 51.8361 59.9153C51.8514 59.9161 51.8667 59.9165 51.8818 59.9165C52.1907 59.9165 52.4782 59.7562 52.64 59.4905L53.7937 57.5966L55.8622 57.9292C56.19 57.9816 56.5161 57.8494 56.7144 57.5841C56.9128 57.3187 56.9473 56.9683 56.8045 56.6699L55.6935 54.3417H57.9246C59.069 54.3417 60 53.4107 60 52.2663V22.643C60 21.4987 59.069 20.5677 57.9246 20.5677ZM46.2042 57.7545L45.4216 56.4701C45.2331 56.1607 44.8803 55.9979 44.5223 56.0554L43.1941 56.2689L44.5932 53.3372C45.1447 53.8999 45.9303 54.2039 46.7458 54.1271C47.0246 54.1004 47.3041 54.1756 47.5325 54.3378C47.6078 54.3914 47.686 54.4389 47.7652 54.4837L46.2042 57.7545ZM49.2536 53.3211C49.2514 53.3214 49.2491 53.3216 49.2467 53.322C49.1333 53.3387 49.0181 53.3387 48.9047 53.3221C48.9018 53.3217 48.8989 53.3214 48.8961 53.321C48.7205 53.2938 48.5498 53.2266 48.3986 53.1191C47.9464 52.7976 47.4064 52.6266 46.8555 52.6266C46.7721 52.6266 46.6884 52.6306 46.6047 52.6385C46.1098 52.6852 45.6395 52.4134 45.4329 51.9619C45.3412 51.7615 45.2241 51.576 45.0883 51.4064C45.0823 51.3979 45.0757 51.39 45.0695 51.3818C45.0619 51.3726 45.0548 51.3632 45.0472 51.3541C45.0386 51.344 45.0295 51.3343 45.0202 51.3246C44.773 51.0401 44.4675 50.8079 44.1196 50.6487C43.668 50.4421 43.3962 49.9711 43.443 49.4768C43.5032 48.8407 43.3326 48.2036 42.9624 47.6829C42.6746 47.2782 42.6746 46.7344 42.9623 46.3297C43.3326 45.8091 43.5032 45.172 43.443 44.5359C43.3962 44.0415 43.6681 43.5705 44.1196 43.3639C44.7006 43.0981 45.167 42.6317 45.4328 42.0507C45.6395 41.5992 46.1115 41.3272 46.6047 41.3741C47.2415 41.4342 47.878 41.2636 48.3987 40.8934C48.8035 40.6058 49.3473 40.6058 49.7519 40.8934C50.2726 41.2636 50.9093 41.4338 51.5459 41.3741C52.0406 41.3271 52.5113 41.5993 52.7179 42.0507C52.9837 42.6317 53.4501 43.0981 54.031 43.3638C54.4825 43.5705 54.7545 44.0415 54.7077 44.5358C54.6475 45.172 54.8181 45.8091 55.1883 46.3296C55.476 46.7343 55.476 47.2781 55.1883 47.6828C54.8181 48.2036 54.6475 48.8407 54.7077 49.4767C54.7545 49.971 54.4825 50.442 54.0309 50.6487C53.6838 50.8076 53.379 51.0392 53.132 51.3228C53.1219 51.3334 53.1119 51.3441 53.1026 51.3551C53.0961 51.3629 53.09 51.3709 53.0835 51.3788C53.0761 51.3884 53.0685 51.3977 53.0615 51.4076C52.926 51.5769 52.8093 51.762 52.7179 51.9619C52.5112 52.4134 52.0402 52.6854 51.5459 52.6385C50.9103 52.5786 50.2728 52.7489 49.7519 53.1191C49.6005 53.2267 49.4296 53.294 49.2536 53.3211ZM53.6283 56.0553C53.2702 55.998 52.9176 56.1607 52.729 56.4701L51.9465 57.7546L50.3855 54.4837C50.4647 54.4389 50.5428 54.3914 50.6182 54.3378C50.8467 54.1755 51.1264 54.1001 51.4049 54.127C52.2207 54.2039 53.0061 53.8999 53.5576 53.3372L54.9566 56.2688L53.6283 56.0553ZM58.5048 52.2661C58.5048 52.586 58.2446 52.8463 57.9246 52.8463H54.9799L54.5944 52.0384C54.6138 52.0282 54.6331 52.0174 54.6533 52.0082C55.6828 51.537 56.3029 50.463 56.1962 49.3358C56.1698 49.0569 56.2446 48.7775 56.407 48.5491C57.063 47.6262 57.063 46.3861 56.4069 45.4632C56.2446 45.2349 56.1698 44.9556 56.1962 44.6766C56.3029 43.5494 55.6828 42.4754 54.6532 42.0042C54.3985 41.8875 54.194 41.683 54.0773 41.4283C53.6062 40.3987 52.5317 39.7788 51.4048 39.8854C51.1257 39.912 50.8465 39.837 50.6182 39.6746C49.6953 39.0186 48.4551 39.0185 47.5323 39.6746C47.3039 39.837 47.0239 39.912 46.7457 39.8853C45.6171 39.7791 44.5443 40.3987 44.0733 41.4282C43.9566 41.683 43.7521 41.8874 43.4973 42.0041C42.4678 42.4753 41.8477 43.5492 41.9544 44.6765C41.9808 44.9555 41.906 45.2348 41.7436 45.4632C41.0876 46.3861 41.0876 47.6262 41.7436 48.549C41.906 48.7773 41.9808 49.0567 41.9544 49.3357C41.8477 50.463 42.4678 51.537 43.4973 52.0081C43.5174 52.0173 43.5367 52.0281 43.5561 52.0383L43.1706 52.8463H13.0754C12.7555 52.8463 12.4952 52.5861 12.4952 52.2661V22.643C12.4952 22.3232 12.7554 22.0629 13.0754 22.0629H57.9246C58.2445 22.0629 58.5048 22.3232 58.5048 22.643V52.2661Z" fill="#0F0F0F"/>
<path d="M49.0207 42.3611C46.4594 42.3611 44.3755 44.445 44.3755 47.0062C44.3755 49.5676 46.4594 51.6514 49.0207 51.6514C51.5821 51.6514 53.6658 49.5675 53.6658 47.0062C53.6658 44.4449 51.5821 42.3611 49.0207 42.3611ZM49.0207 50.1561C47.2838 50.1561 45.8708 48.743 45.8708 47.0061C45.8708 45.2693 47.2838 43.8563 49.0207 43.8563C50.7575 43.8563 52.1706 45.2693 52.1706 47.0061C52.1706 48.743 50.7575 50.1561 49.0207 50.1561Z" fill="#0F0F0F"/>
<path fill-rule="evenodd" clip-rule="evenodd" d="M31.5357 21H33L33.2513 19.2723C33.3289 18.5929 33.3679 17.9093 33.3679 17.2252C33.3679 7.72731 25.8832 0 16.684 0C7.48424 0 0 7.72731 0 17.2252C0 25.0452 5.07313 31.6648 12 33.7599V32.1714C9.68351 31.3948 7.57616 30.0532 5.85936 28.254C6.65419 27.4249 7.53784 26.6918 8.49321 26.0691C9.3542 28.1565 10.5365 29.9867 12 31.4859V29.2206C11.1068 28.0732 10.3623 26.7627 9.78168 25.3181C10.4984 24.9477 11.2402 24.6368 12 24.3872V22.8031C11.065 23.0809 10.1528 23.4427 9.274 23.8855C8.69384 21.9734 8.37478 19.9864 8.32705 17.9831H15.9496V21H17.418V17.9831H25.0401C25.036 18.1186 25.0304 18.2535 25.024 18.3884L24.649 21H26L26.5159 18.0759L31.7 18L31.5357 21ZM1.48603 16.4673C1.63968 13.1245 2.8286 9.92062 4.8777 7.32702C5.8055 8.28414 6.84128 9.12241 7.96282 9.8247C7.27979 11.9706 6.90713 14.2092 6.85787 16.4673H1.48603ZM6.85787 17.9831C6.90713 20.2418 7.27979 22.4799 7.96282 24.626C6.84128 25.3281 5.8055 26.1663 4.8777 27.1235C2.8286 24.5304 1.63968 21.3262 1.48603 17.9831H6.85787ZM15.9499 16.4673H8.32705C8.37478 14.464 8.69384 12.4776 9.274 10.5652C11.3588 11.6156 13.632 12.2096 15.9499 12.31V16.4673ZM15.9499 1.7859V10.7931C13.8041 10.6912 11.7026 10.1254 9.78168 9.13268C11.0776 5.90821 13.1899 3.35229 15.9499 1.7859ZM23.575 9.10607C21.6617 10.1127 19.5629 10.6877 17.418 10.7931V1.78617C20.1703 3.34834 22.2779 5.8945 23.575 9.10607ZM17.418 16.4673V12.31C19.7359 12.2062 22.0071 11.6022 24.0853 10.5373C24.6713 12.4581 24.9926 14.454 25.0409 16.4673H17.418ZM8.49321 8.38138C7.53784 7.75867 6.65419 7.02581 5.85936 6.19677C7.83928 4.12151 10.3386 2.65553 13.0792 1.96246C11.1105 3.6166 9.55681 5.8028 8.49321 8.38138ZM24.8591 8.34449C23.7961 5.78198 22.2483 3.6087 20.2888 1.96246C23.0107 2.65079 25.4955 4.10149 27.4693 6.15513C26.6818 6.98365 25.8061 7.71809 24.8591 8.34449ZM28.4542 7.28143C30.5 9.8247 31.5357 13 31.8998 16.5H26.5159C26.4723 14.001 26.0866 11.9068 25.3934 9.78833C26.5065 9.08103 27.5341 8.2396 28.4542 7.28143Z" fill="#0F0F0F"/>
</svg>
