<svg width="60" height="60" viewBox="0 0 60 60" fill="none" xmlns="http://www.w3.org/2000/svg">
<path d="M17.2848 22.1465H37.9784C38.4641 22.1465 38.8573 21.7533 38.8573 21.2676C38.8573 20.7824 38.4641 20.3887 37.9784 20.3887H17.2848C16.7991 20.3887 16.4058 20.7824 16.4058 21.2676C16.4058 21.7533 16.7991 22.1465 17.2848 22.1465V22.1465Z" fill="#0F0F0F"/>
<path d="M17.2848 26.2755H37.9784C38.4641 26.2755 38.8573 25.8818 38.8573 25.3966C38.8573 24.9109 38.4641 24.5177 37.9784 24.5177H17.2848C16.7991 24.5177 16.4058 24.9109 16.4058 25.3966C16.4058 25.8818 16.7991 26.2755 17.2848 26.2755V26.2755Z" fill="#0F0F0F"/>
<path d="M22.7536 18.018H33.6914C34.1771 18.018 34.5703 17.6243 34.5703 17.1386C34.5703 16.6534 34.1771 16.2597 33.6914 16.2597H22.7536C22.2679 16.2597 21.8747 16.6534 21.8747 17.1386C21.8747 17.6243 22.2679 18.018 22.7536 18.018Z" fill="#0F0F0F"/>
<path d="M33.6914 36.9045H22.7536C22.2679 36.9045 21.8747 37.2982 21.8747 37.7834C21.8747 38.2691 22.2679 38.6623 22.7536 38.6623H33.6914C34.1771 38.6623 34.5703 38.2691 34.5703 37.7834C34.5703 37.2982 34.1767 36.9045 33.6914 36.9045Z" fill="#0F0F0F"/>
<path d="M17.2848 30.4045H37.9784C38.4641 30.4045 38.8573 30.0109 38.8573 29.5256C38.8573 29.0399 38.4641 28.6467 37.9784 28.6467H17.2848C16.7991 28.6467 16.4058 29.0399 16.4058 29.5256C16.4058 30.0109 16.7991 30.4045 17.2848 30.4045V30.4045Z" fill="#0F0F0F"/>
<path d="M38.8573 33.6544C38.8573 33.1691 38.4641 32.7755 37.9784 32.7755H17.2848C16.7991 32.7755 16.4058 33.1691 16.4058 33.6544C16.4058 34.14 16.7991 34.5337 17.2848 34.5337H37.9784C38.4641 34.5337 38.8573 34.14 38.8573 33.6544Z" fill="#0F0F0F"/>
<path d="M44.957 9.0852C42.9368 9.0852 41.293 7.44138 41.293 5.42126C41.293 5.32376 41.2971 5.22534 41.3054 5.1283C41.3644 4.40549 40.7881 3.78522 40.0616 3.78522H16.3833C15.655 3.78522 15.0806 4.40732 15.1396 5.1283C15.3136 7.25232 13.6253 9.0852 11.4857 9.0852C11.4848 9.0852 11.4844 9.0852 11.4839 9.0852C10.7904 9.0852 10.2305 9.6423 10.2305 10.3326V44.5898C10.2305 45.2792 10.7886 45.8372 11.4871 45.8372H11.488C13.5081 45.8372 15.152 47.481 15.152 49.5007C15.152 49.5973 15.1478 49.6962 15.1396 49.7937C15.0806 50.5178 15.6578 51.1367 16.3833 51.1367H39.1145V53.1646H30.2733C29.788 53.1646 29.3944 53.5579 29.3944 54.0435C29.3944 54.5288 29.788 54.9225 30.2733 54.9225H39.1145V58.5168C39.1145 59.7038 40.4384 60.4001 41.4157 59.7505C43.6853 58.2426 43.1241 58.6152 45.3914 57.1087C46.6946 57.9744 48.035 58.8652 49.3675 59.7505C50.3503 60.4037 51.6687 59.6974 51.6687 58.5168V46.1705C52.8502 44.7532 53.5625 42.9318 53.5625 40.9465C53.5625 38.1495 52.1489 35.6772 49.9997 34.2036V27.3198C49.9997 26.8341 49.6065 26.4409 49.1208 26.4409C48.6355 26.4409 48.2419 26.8341 48.2419 27.3198V33.2895C47.6001 33.0496 46.9203 32.888 46.2144 32.817V10.3326C46.2144 9.64093 45.6532 9.0852 44.9615 9.0852H44.9597H44.957ZM40.8723 58.0009V47.752C41.2628 48.0111 41.7311 48.2657 42.1742 48.4561V57.1357L40.8723 58.0009ZM44.5715 55.5427L43.9325 55.9675V48.9866C44.8682 49.156 45.8848 49.1615 46.8507 48.9866V55.9675L46.2117 55.5427C45.7136 55.2118 45.07 55.2118 44.5715 55.5427ZM49.9104 58.0009L48.6085 57.1357V48.4561C49.0388 48.2711 49.5076 48.0194 49.9104 47.752V58.0009ZM51.8042 40.9465C51.8042 44.6292 48.6781 47.6092 44.9263 47.3401C41.5636 47.0942 38.9786 44.2909 38.9786 40.9465C38.9786 37.4382 41.8327 34.5616 45.3419 34.535C45.3429 34.535 45.3442 34.5346 45.3456 34.5346C45.3607 34.5346 45.3758 34.5337 45.3914 34.5337C48.9276 34.5337 51.8042 37.4102 51.8042 40.9465ZM16.9084 49.3789C16.8471 46.615 14.7066 44.3541 11.9888 44.1028V10.8201C14.7047 10.5706 16.8471 8.30884 16.9084 5.54349H39.5366C39.5979 8.3093 41.7403 10.5706 44.4566 10.8201V32.8303C44.4406 32.8322 44.4255 32.8349 44.4099 32.8367C40.329 33.3279 37.2208 36.8174 37.2208 40.9465C37.2208 42.8224 37.8657 44.6804 39.1145 46.1773V49.3789H16.9084Z" fill="#0F0F0F"/>
<path d="M45.3913 36.048C42.6905 36.048 40.4933 38.2453 40.4933 40.9466C40.4933 43.6474 42.6905 45.8446 45.3913 45.8446C48.0926 45.8446 50.2899 43.6474 50.2899 40.9466C50.2899 38.2453 48.0926 36.048 45.3913 36.048V36.048ZM45.3913 44.0868C43.6601 44.0868 42.2511 42.6783 42.2511 40.9466C42.2511 39.2148 43.6601 37.8058 45.3913 37.8058C47.1231 37.8058 48.532 39.2148 48.532 40.9466C48.532 42.6783 47.1231 44.0868 45.3913 44.0868V44.0868Z" fill="#0F0F0F"/>
<path d="M6.44531 4.19266V50.7294C6.44531 53.0415 8.32626 54.9225 10.638 54.9225H26.1717C26.657 54.9225 27.0506 54.5288 27.0506 54.0436C27.0506 53.5579 26.657 53.1647 26.1717 53.1647H10.638C9.29535 53.1647 8.20312 52.0724 8.20312 50.7294V4.19266C8.20312 2.85004 9.29535 1.75781 10.638 1.75781H45.807C47.1497 1.75781 48.2419 2.85004 48.2419 4.19266V23.2178C48.2419 23.7035 48.6351 24.0967 49.1208 24.0967C49.6065 24.0967 49.9997 23.7035 49.9997 23.2178V4.19266C49.9997 1.88095 48.1187 0 45.807 0H10.638C8.32626 0 6.44531 1.88095 6.44531 4.19266H6.44531Z" fill="#0F0F0F"/>
</svg>
