<svg width="60" height="60" viewBox="0 0 60 60" fill="none" xmlns="http://www.w3.org/2000/svg">
<path d="M49.3548 38.1822H47.1578V36.061H49.3548C54.1566 36.061 58.0643 31.7794 58.0643 26.5154C58.0643 21.5866 54.6936 17.5032 50.2247 17.0174L49.3529 16.9231L49.3568 15.856C49.355 8.30642 43.7109 2.12101 36.7742 2.12101C31.9451 2.12101 27.4849 5.22333 25.4108 10.0247L24.928 11.1415L23.9942 10.45C23.1949 9.85815 22.26 9.54545 21.2903 9.54545C19.3965 9.54545 17.6671 10.7704 16.8842 12.6668L16.5328 13.5184L15.718 13.2437C14.7019 12.9012 13.6471 12.7272 12.5805 12.7272C6.71112 12.7272 1.93549 17.9614 1.93549 24.3941C1.93549 30.8268 6.71133 36.061 12.5805 36.061H12.8419V38.1822H12.5805C5.64377 38.1822 0 31.9968 0 24.3943C0 16.7918 5.64377 10.6062 12.5805 10.6062C13.5705 10.6062 14.5528 10.7335 15.5109 10.9838C16.7313 8.79583 18.9184 7.42444 21.2903 7.42444C22.2832 7.42444 23.251 7.65885 24.1375 8.10957C26.6942 3.14916 31.5474 0 36.7742 0C44.5122 0 50.8548 6.66804 51.269 15.0374C56.3031 16.0291 60 20.8082 60 26.5154C60 32.948 55.2242 38.1822 49.3548 38.1822Z" fill="#0F0F0F"/>
<path d="M47.9025 39.1984C47.9025 48.9434 40.0026 56.8434 30.2575 56.8434C20.5125 56.8434 12.6125 48.9434 12.6125 39.1984C12.6125 29.4533 20.5125 21.5534 30.2575 21.5534C40.0026 21.5534 47.9025 29.4533 47.9025 39.1984Z" stroke="#0F0F0F" stroke-width="2"/>
<path d="M29.685 41.0423C29.3454 41.0423 29.0133 40.9308 28.7309 40.722C28.4485 40.5131 28.2285 40.2162 28.0985 39.8688C27.9686 39.5215 27.9346 39.1393 28.0009 38.7706C28.0673 38.4019 28.2309 38.0633 28.4711 37.7975C28.7114 37.5317 29.0174 37.3508 29.3505 37.2776C29.6837 37.2043 30.029 37.2421 30.3427 37.3861C30.6565 37.5301 30.9246 37.7738 31.1132 38.0865C31.3017 38.3992 31.4023 38.7667 31.4021 39.1427H32.8706C32.8706 38.4453 32.6837 37.7636 32.3337 37.1838C31.9837 36.6039 31.4861 36.152 30.9041 35.8852C30.322 35.6183 29.6815 35.5485 29.0635 35.6845C28.4456 35.8206 27.878 36.1564 27.4325 36.6495C26.987 37.1426 26.6836 37.7708 26.5607 38.4548C26.4377 39.1388 26.5008 39.8477 26.7419 40.492C26.983 41.1363 27.3913 41.6869 27.9152 42.0744C28.4391 42.4618 29.055 42.6686 29.685 42.6686H42.7791V41.0423H29.685Z" fill="#0F0F0F"/>
<path d="M42.7792 45.287V43.5559H29.6851C28.8966 43.5559 28.1258 43.2971 27.4702 42.8123C26.8146 42.3274 26.3037 41.6383 26.0019 40.832C25.7002 40.0257 25.6213 39.1385 25.7751 38.2825C25.9289 37.4266 26.3086 36.6403 26.8661 36.0232C27.4237 35.4061 28.134 34.9859 28.9073 34.8156C29.6807 34.6453 30.4822 34.7327 31.2107 35.0667C31.9391 35.4007 32.5618 35.9662 32.9999 36.6919C33.4379 37.4175 33.6716 38.2706 33.6716 39.1434H35.2357C35.2357 37.9283 34.9101 36.7404 34.3003 35.7301C33.6903 34.7198 32.8234 33.9324 31.8092 33.4674C30.795 33.0024 29.6789 32.8807 28.6022 33.1177C27.5255 33.3548 26.5365 33.9399 25.7602 34.7991C24.9839 35.6583 24.4553 36.753 24.2411 37.9448C24.0269 39.1365 24.1369 40.3718 24.557 41.4944C24.9771 42.6171 25.6885 43.5766 26.6013 44.2517C27.5141 44.9267 28.5873 45.287 29.6851 45.287H42.7792Z" fill="#0F0F0F"/>
<path d="M19.149 45.2911V37.0389H17.5892V35.3546H20.5566V45.2911H19.149Z" fill="#0F0F0F"/>
<path d="M19.1467 34.6813H21.2004V45.2909H22.646V32.9127H19.1467V34.6813Z" fill="#0F0F0F"/>
<path d="M14.9247 20.6918C17.2983 14.8796 19.2705 14.5281 23.2028 15.7775C29.3256 8.87468 32.9344 12.1167 36.6273 16.514" stroke="#0F0F0F" stroke-width="2"/>
</svg>
