<svg width="56" height="56" viewBox="0 0 56 56" fill="none" xmlns="http://www.w3.org/2000/svg">
<g clip-path="url(#clip0)">
<path d="M24.9087 22.828H24.1359V20.3312H26.0976C26.5902 20.3312 26.9894 19.9319 26.9894 19.4394C26.9894 18.9469 26.5902 18.5477 26.0976 18.5477H24.1359V17.5371C24.1359 17.0445 23.7367 16.6453 23.2442 16.6453C22.7516 16.6453 22.3524 17.0445 22.3524 17.5371V18.5477H21.5797C20.4325 18.5477 19.4991 19.4811 19.4991 20.6283V22.5307C19.4991 23.6779 20.4325 24.6113 21.5797 24.6113H22.3525V27.1081H20.3908C19.8983 27.1081 19.4991 27.5074 19.4991 27.9999C19.4991 28.4924 19.8983 28.8916 20.3908 28.8916H22.3525V29.9022C22.3525 30.3947 22.7518 30.794 23.2443 30.794C23.7368 30.794 24.136 30.3947 24.136 29.9022V28.8916H24.9089C26.0561 28.8916 26.9895 27.9582 26.9895 26.811V24.9086C26.9894 23.7615 26.056 22.828 24.9087 22.828ZM22.3524 22.828H21.5797C21.4159 22.828 21.2824 22.6945 21.2824 22.5307V20.6283C21.2824 20.4645 21.4159 20.331 21.5797 20.331H22.3525V22.828H22.3524ZM25.2059 26.8111C25.2059 26.9749 25.0725 27.1084 24.9086 27.1084H24.1358V24.6115H24.9086C25.0725 24.6115 25.2059 24.745 25.2059 24.9088V26.8111Z" fill="#0F0F0F"/>
<path d="M55.7388 23.6883L51.7033 19.6528C51.3552 19.3045 50.7906 19.3046 50.4423 19.6528L46.4883 23.6068V0.891734C46.4883 0.399219 46.0891 0 45.5966 0H0.891734C0.399219 0 0 0.399219 0 0.891734V44.1699C0 44.6624 0.399219 45.0616 0.891734 45.0616C1.38425 45.0616 1.78347 44.6624 1.78347 44.1699V1.78347H44.705V25.3903L38.2312 31.8641H36.0255V15.5753H38.9385C39.431 15.5753 39.8302 15.1761 39.8302 14.6836V11.8301C39.8302 11.3376 39.431 10.9384 38.9385 10.9384H35.3946L23.7249 3.4697C23.4317 3.28223 23.0566 3.28223 22.7635 3.4697L11.0937 10.9384H7.54994C7.05742 10.9384 6.6582 11.3376 6.6582 11.8301V14.6836C6.6582 15.1761 7.05742 15.5753 7.54994 15.5753H10.4628V31.8641H7.54994C7.05742 31.8641 6.6582 32.2633 6.6582 32.7558V35.6093C6.6582 36.1018 7.05742 36.5011 7.54994 36.5011H33.5942L26.9302 43.1651C26.9282 43.167 26.9264 43.1693 26.9244 43.1715C26.8189 43.2698 26.7356 43.3952 26.6867 43.5418L24.6691 49.595C24.4413 50.2783 25.1132 50.9508 25.7971 50.723L31.8503 48.7052C31.9975 48.6561 32.1233 48.5723 32.2218 48.466C32.2254 48.4624 32.2294 48.4594 32.2328 48.4557L37.6908 42.8922C38.0356 42.5406 38.0303 41.9759 37.6787 41.6312C37.3272 41.2864 36.7626 41.2919 36.4177 41.6433L31.5902 46.5643L28.8218 43.7959L47.682 24.9357L50.4564 27.7102L40.334 37.8326C39.9858 38.1808 39.9858 38.7454 40.334 39.0936C40.6823 39.4418 41.2468 39.4418 41.595 39.0936L44.705 35.9835V45.6562H37.0361C36.5436 45.6562 36.1444 46.0554 36.1444 46.5479V54.2168H1.78347V48.9258C1.78347 48.4333 1.38425 48.0341 0.891734 48.0341C0.399219 48.0341 0 48.4333 0 48.9258V55.1085C0 55.6008 0.399219 56 0.891734 56H37.0361C37.2697 56 37.5015 55.9041 37.6667 55.7388L46.2272 47.1782C46.3925 47.0131 46.4884 46.7813 46.4884 46.5477V34.1999L52.348 28.3404L55.7389 24.9494C56.0871 24.6013 56.0871 24.0366 55.7388 23.6883ZM29.9593 47.4554L26.9248 48.467L27.9362 45.4324L29.9593 47.4554ZM23.2442 5.27942L32.0862 10.9384H14.4022L23.2442 5.27942ZM8.44167 13.792V12.722H38.0467V13.792H8.44167ZM34.242 15.5753V31.8641H31.2697V15.5753H34.242ZM29.4862 15.5753V31.8641H17.0021V15.5753H29.4862ZM15.2187 15.5753V31.8641H12.2463V15.5753H15.2187ZM35.3777 34.7176H8.44167V33.6476H36.4477L35.3777 34.7176ZM37.9279 52.9555V47.4394H43.444L37.9279 52.9555ZM51.7174 26.4487L48.943 23.6743L51.0729 21.5446L53.8472 24.3189L51.7174 26.4487Z" fill="#0F0F0F"/>
<path d="M22.7686 44.2293H11.3545C10.862 44.2293 10.4628 44.6285 10.4628 45.121C10.4628 45.6136 10.862 46.0128 11.3545 46.0128H22.7686C23.2611 46.0128 23.6603 45.6136 23.6603 45.121C23.6603 44.6285 23.2611 44.2293 22.7686 44.2293Z" fill="#0F0F0F"/>
<path d="M23.7197 48.9852H11.3545C10.862 48.9852 10.4628 49.3844 10.4628 49.8769C10.4628 50.3694 10.862 50.7686 11.3545 50.7686H23.7197C24.2122 50.7686 24.6114 50.3694 24.6114 49.8769C24.6114 49.3844 24.2122 48.9852 23.7197 48.9852Z" fill="#0F0F0F"/>
<path d="M22.7686 39.4734H11.3545C10.862 39.4734 10.4628 39.8726 10.4628 40.3651C10.4628 40.8576 10.862 41.2569 11.3545 41.2569H22.7686C23.2611 41.2569 23.6603 40.8576 23.6603 40.3651C23.6603 39.8726 23.2611 39.4734 22.7686 39.4734Z" fill="#0F0F0F"/>
</g>
<defs>
<clipPath id="clip0">
<rect width="56" height="56" fill="white"/>
</clipPath>
</defs>
</svg>
