<svg width="56" height="56" viewBox="0 0 56 56" fill="none" xmlns="http://www.w3.org/2000/svg">
<path d="M38.6914 21.6953C38.3874 21.6953 38.0913 21.7247 37.7916 21.741V18.0961H41.3908V16.2965H26.994V18.4396L20.9076 15.3967L26.994 12.3532V14.4969H41.3908V12.6972H37.7916V9.09805H44.0902V12.3532L55.9999 6.39864L44.0902 0.443613V3.69924H37.7916V0.100037H7.72563L0 7.82567V45.0901H22.8127C25.3275 51.4058 31.4904 55.8877 38.6914 55.8877C48.1187 55.8877 55.7876 48.2187 55.7876 38.7915C55.7876 29.3642 48.1187 21.6953 38.6914 21.6953ZM50.692 29.3352L44.2317 35.7968C43.6482 34.7226 42.7612 33.8351 41.687 33.2521L48.1472 26.7918C49.0923 27.5374 49.9451 28.3906 50.692 29.3352ZM34.1924 38.7915C34.1924 36.3104 36.2108 34.2925 38.6914 34.2925C41.172 34.2925 43.1904 36.3104 43.1904 38.7915C43.1904 41.2721 41.172 43.2905 38.6914 43.2905C36.2108 43.2905 34.1924 41.2721 34.1924 38.7915ZM3.07198 7.29844L7.19841 3.17201V7.29844H3.07198ZM1.7996 43.2905V9.09805H3.5992V19.8957H18.8958V18.0961H5.3988V9.09805H8.99801V5.49884H30.5932V3.69924H8.99801V1.89964H35.992V3.69924H32.3928V5.49884H45.8898V3.35522L51.9762 6.39864L45.8898 9.44162V7.29844H32.3928V9.09805H35.992V12.6972H28.7936V9.44162L16.884 15.3967L28.7936 21.3512V18.0961H35.992V21.9299C31.3797 22.6671 27.3829 25.2431 24.7779 28.8937H3.5992V41.4909H21.8303C21.9283 42.1025 22.0552 42.7017 22.216 43.2905H1.7996ZM21.6409 39.6913H5.3988V30.6933H23.6404C22.3377 33.1053 21.5952 35.8623 21.5952 38.7915C21.5952 39.0955 21.6251 39.3916 21.6409 39.6913ZM38.6914 23.4949C41.6057 23.4949 44.3231 24.3288 46.6438 25.7496L39.7973 32.5961C39.4375 32.5324 39.0693 32.4929 38.6914 32.4929C35.2192 32.4929 32.3928 35.3179 32.3928 38.7915C32.3928 39.1693 32.4324 39.5371 32.4965 39.8965L25.6496 46.7438C24.2287 44.4231 23.3948 41.7057 23.3948 38.7915C23.3948 30.3567 30.2567 23.4949 38.6914 23.4949ZM26.6909 48.2473L33.1512 41.7857C33.7346 42.8604 34.6217 43.7474 35.6959 44.3304L29.2356 50.7912C28.2906 50.0451 27.4378 49.1919 26.6909 48.2473ZM38.6914 54.0881C35.7772 54.0881 33.0598 53.2538 30.7391 51.8329L37.5856 44.9864C37.9454 45.0505 38.3136 45.0901 38.6914 45.0901C42.1637 45.0901 44.99 42.2646 44.99 38.7915C44.99 38.4136 44.9505 38.0454 44.8864 37.6865L51.7333 30.8387C53.1541 33.1594 53.988 35.8768 53.988 38.7915C53.988 47.2262 47.1262 54.0881 38.6914 54.0881Z" fill="#0F0F0F"/>
<path d="M41.3908 38.7914C41.3908 37.3029 40.1795 36.092 38.6914 36.092C37.2033 36.092 35.992 37.3029 35.992 38.7914C35.992 40.2795 37.2033 41.4908 38.6914 41.4908C40.1795 41.4908 41.3908 40.2795 41.3908 38.7914ZM37.7916 38.7914C37.7916 38.2954 38.195 37.8916 38.6914 37.8916C39.1879 37.8916 39.5912 38.2954 39.5912 38.7914C39.5912 39.287 39.1879 39.6912 38.6914 39.6912C38.195 39.6912 37.7916 39.287 37.7916 38.7914Z" fill="#0F0F0F"/>
<path d="M3.59921 23.2944H13.495V25.094H3.59921V23.2944Z" fill="#0F0F0F"/>
<path d="M38.6914 27.094V25.2944C38.0473 25.2944 37.3984 25.3401 36.764 25.4311L37.0188 27.2118C37.5693 27.1336 38.1317 27.094 38.6914 27.094Z" fill="#0F0F0F"/>
<path d="M35.3488 27.5778L34.8357 25.8528C29.1587 27.543 25.1944 32.8632 25.1944 38.7914H26.994C26.994 33.6536 30.4294 29.0421 35.3488 27.5778Z" fill="#0F0F0F"/>
</svg>
