<svg id="4b7d0d7d-97a3-41d6-8f53-1ff6d2e94fd7" data-name="line art" xmlns="http://www.w3.org/2000/svg" viewBox="0 0 1153.49458 599.58917"><title>holding-1s_img-03-2</title><path d="M660.40179,599.58917H133.1987a1.99966,1.99966,0,0,1-1.8476-2.7656l6.3393-15.2891h-12.917a2.00026,2.00026,0,0,1-1.8384-2.7881l68.6084-160.0869a1.9996,1.9996,0,0,1,1.8384-1.2119H595.04439l-22.1411-29.8906L258.541,413.015c-.0537.0049-.1079.0068-.1616.0068-17.9248,0-25.5723-16.123-25.8892-16.8096l-50.06639-119.0605H2a2,2,0,0,1,0-4H183.75243a1.99966,1.99966,0,0,1,1.84375,1.2246L236.1499,394.599c.2461.5244,6.8808,14.375,22.1514,14.4228l311.79729-25.251-6.6474-8.9736L271.8721,396.15847c-2.1324.375-24.8711,3.8086-35.7623-19.1855l-46.98237-113.2344c-.09864-.2099-3.11084-6.8838.35347-12.2978,2.5962-4.0586,7.9585-6.1162,15.9375-6.1162l252.729-5.9893,115.3433-227.5454c2.2363-5.6211,9.4961-14.9561,21.3027-10.7202l157.5157,40.8818a12.56509,12.56509,0,0,1,8.3066,6.1895c3.1094,5.602,2.40821,13.7568-2.083,24.2368L618.86859,360.138a1.97859,1.97859,0,0,1-.2373.376c-.2265.2852-5.6601,6.9561-12.7871,5.5264a1.99722,1.99722,0,0,1-1.1435-.6807l-6.0186-7.2217a2.0016,2.0016,0,0,1-.3799-1.8554l3.6114-12.0362a1.99988,1.99988,0,0,1,3.165-.9873l4.0537,3.2432,137.4912-286.8374L586.84319,17.37l-110.499,223.3725,120.3018,95.2891a1.9998,1.9998,0,0,1,.58491,2.3799l-4.81441,10.833a2,2,0,0,1-3.0713.7539l-122.189-97.0332-138.82029,5.832,73.062,103.2149,149.34279-9.5577a1.9865,1.9865,0,0,1,1.7349.8057l12.8794,17.3867,34.7168-2.5439a2.02109,2.02109,0,0,1,1.5078.5302,1.9993,1.9993,0,0,1,.6386,1.4649v13.2402a1.99952,1.99952,0,0,1-1.8388,1.9932l-22.7803,1.8447,23.0234,31.0811a2.0003,2.0003,0,0,1-1.6074,3.1904H194.7007l-66.8941,156.0869h11.5425l53.3887-128.7607a2.00074,2.00074,0,0,1,1.8476-1.2344h112.627l3.397-12.9522a1.99987,1.99987,0,0,1,1.9345-1.4921H611.36859c-.165-7.1299.5518-29.958,15.4024-43.3272,9.7744-8.8008,23.6416-11.624,41.2138-8.3965.6924.1026,13.628,2.1748,27.6866,12.7129,28.8418-25.1767,71.7109-37.9443,127.90129-38.0234.03322-.0205.0694-.043.1065-.0664a35.26708,35.26708,0,0,1-7.0391-6.1651L720.47119,265.681c-12.2305-11.0068-14.9082-31.9668-15.1055-33.6587l-4.80079-25.2485a2.00323,2.00323,0,0,1,.15919-1.2334l60.1826-126.3843a1.99994,1.99994,0,0,1,3.74221.3603l67.40528,261.1939c1.8848,6.2793.4609,11.1074-1.8164,14.418a32.48988,32.48988,0,0,0,14.3232,3.3398h253.9727c4.6084.1152,17.1006-.7822,19.997-6.124,1.2735-2.3477.5479-5.5957-2.1542-9.6572l-2.9258-1.8038c-3.8711,3.7286-9.8282,5.587-10.7403,5.8555a1.97948,1.97948,0,0,1-.5654.082H844.3579a2.00015,2.00015,0,0,1-1.71192-.9658l-8-13.2402a2,2,0,0,1,1.71192-3.0342H973.96918l-120.3838-80.2558h-37.9121a2.00035,2.00035,0,0,1-1.9482-1.5489l-3.6104-15.6035a1.99974,1.99974,0,0,1,1.9483-2.4507H919.021c24.5908,0,38.42092,10.0679,39.8242,11.1421l153.6055,94.7041a4.5468,4.5468,0,0,0,.2861-.9551c.5605-3.125-2.7822-6.3974-5.71388-8.6084l-77.48242-49.164a1.99971,1.99971,0,0,1,1.0713-3.6885h120.8828a2,2,0,0,1,0,4h-113.998l71.73732,45.5186c.04488.0273.08688.0576.12888.0888,5.5976,4.2002,8.0566,8.4287,7.3095,12.5674a8.649,8.649,0,0,1-.7939,2.3545l2.9639,1.8271a1.9931,1.9931,0,0,1,.59962.5713c3.81248,5.5645,4.68848,10.333,2.60248,14.1748-4.5752,8.4307-21.6308,8.2666-23.5596,8.2129l-253.9238.001a36.63048,36.63048,0,0,1-17.1426-4.2373,12.73451,12.73451,0,0,1-2.4248,1.6191,2.00373,2.00373,0,0,1-.8945.211c-55.06149,0-97.03809,12.2763-125.23239,36.5547a78.84978,78.84978,0,0,1,12.4844,13.206,2.03663,2.03663,0,0,1,.1513.2334l69.81251,126.3848a1.99992,1.99992,0,0,1-3.37112,2.1387c-.3066-.4229-31.30949-42.2774-84.78409-35.2989-14.8985,1.9434-27.2491,7.4659-35.8516,15.6621.0361.4913.0742.9815.1133,1.4659a255.19806,255.19806,0,0,0,10.8291,55.8896c2.7998,4.8789,3.5136,9.4512,2.123,13.5928-2.2041,6.5644-8.9179,9.4267-9.2021,9.5449A2.00453,2.00453,0,0,1,660.40179,599.58917Zm-524.20889-4H659.95849c1.1855-.5879,5.2588-2.8662,6.6328-7,1.0107-3.0439.3721-6.5605-1.89839-10.4541a1.957,1.957,0,0,1-.16221-.3535,257.52678,257.52678,0,0,1-10.9121-54.8848,41.63918,41.63918,0,0,0-8.331,16.3711l9.8115,33.6885a1.9996,1.9996,0,0,1-3.07319,2.1933c-9.86531-6.9638-14.18361-21.2646-10.876-35.7832l-25.58111-87.8271H310.2983l-14.7934,56.4023a23.02134,23.02134,0,0,1,5.4433,9.4346l137.52049-32.4697a1.98671,1.98671,0,0,1,.3487-.0508l43.332-2.4072a1.99988,1.99988,0,0,1,.8921,3.8379l-39.7207,16.8506a1.97563,1.97563,0,0,1-.3457.1113L297.332,535.74737a2.00055,2.00055,0,0,1-2.123-3.0264,19.2332,19.2332,0,0,0,2.5434-10.4804l-31.102,7.3437a3.54726,3.54726,0,0,0-1.0073,2.7666c.2475,2.1729,2.6752,4.3623,4.0546,5.3731l16.083-2.2969a1.9991,1.9991,0,0,1,2.2198,2.4775l-10.8325,42.128a2.00079,2.00079,0,0,1-1.9371,1.5019H142.0205Zm7.4863-18.0547h130.001l9.7002-37.7246-13.8853,1.9834a1.99615,1.99615,0,0,1-1.3428-.2832c-.6054-.3789-5.9287-3.8369-6.4834-8.707a7.67534,7.67534,0,0,1,2.5186-6.4405,1.99507,1.99507,0,0,1,.9546-.5322l31.9219-7.5371a19.85808,19.85808,0,0,0-5.1924-8.3603,1.99949,1.99949,0,0,1-.5205-1.9219l14.812-56.4717H195.9214Zm500.41009-28.0762a31.37815,31.37815,0,0,0,4.9219,16.9014ZM311.3476,447.53937H617.06979a1.99941,1.99941,0,0,1,1.9199,1.4404l24.3155,83.4834a46.34873,46.34873,0,0,1,9.8828-15.0927c-1.9658-29.6202.9521-70.4385,24.2822-103.2022a115.32617,115.32617,0,0,1,15.1436-17.3193c-13.1553-9.5909-25.1202-11.5078-25.2872-11.5332-16.3398-2.9991-29.0615-.5039-37.8662,7.413-15.9248,14.3194-14.0283,41.9366-14.0078,42.2139a2.00029,2.00029,0,0,1-1.9941,2.1524H314.0869Zm-9.6919,73.7793a23.68478,23.68478,0,0,1-1.3046,9.6562l141.57469-31.5908,29.0083-12.3066-31.7183,1.7627Zm403.35059-22.8096a93.9081,93.9081,0,0,1,53.1065,16.4756,107.53481,107.53481,0,0,1,11.9336,9.3281l-61.9776-112.2011a73.92529,73.92529,0,0,0-12.2431-12.7803,111.1613,111.1613,0,0,0-15.0977,17.1572c-21.8135,30.6348-25.2353,68.7227-23.7422,97.3594,9.0215-7.5625,21.2276-12.6524,35.6563-14.5352A95.695,95.695,0,0,1,705.00629,498.50907ZM589.01709,4.013c-8.086,0-11.6651,8.8853-11.8369,9.3262-.0235.0601-.0508.1187-.0791.1763l-115.9268,228.6948a1.99656,1.99656,0,0,1-1.7363,1.0947l-253.97219,6.0186c-6.4814.001-10.8276,1.4785-12.6157,4.2724-2.2608,3.5332-.082,8.4893-.0596,8.5381l46.9741,113.2158c9.9639,21.0293,30.5738,17.045,31.4468,16.8633a2.16827,2.16827,0,0,1,.2622-.0371l289.15969-21.1836-10.7236-14.4765-149.3707,9.5595a1.99864,1.99864,0,0,1-1.7602-.8408l-75.83059-107.126a1.99932,1.99932,0,0,1,1.5484-3.1533l143.23579-6.0176a2.03214,2.03214,0,0,1,1.3276.4317l120.751,95.8906,3.1358-7.0566-120.354-95.3301a1.99867,1.99867,0,0,1-.5508-2.4541L583.9819,14.13167a1.99608,1.99608,0,0,1,2.30469-1.0469L749.9839,56.41627a2.00105,2.00105,0,0,1,1.292,2.7979L611.65179,350.50027a1.99884,1.99884,0,0,1-3.0527.6973l-3.7051-2.9639-2.45109,8.169,4.84179,5.8095c3.956.3409,7.40721-3.2705,8.0976-4.0507L754.896,70.71657c3.8623-9.02,4.6572-16.1626,2.2588-20.5693a8.47756,8.47756,0,0,0-5.5948-4.2671c-.0566-.0093-.1279-.0239-.1835-.0381L593.69769,4.91777c-.0605-.0161-.1211-.0347-.1806-.0566A13.13419,13.13419,0,0,0,589.01709,4.013Zm-20.8443,370.4375,6.62211,8.9405,23.42329-1.8975v-9.2441Zm136.4439-167.7812,4.6924,24.6787c.0097.0498.0175.1011.0224.1514.0235.2089,2.4766,21.0039,13.795,31.1904l96.27141,84.2373a1.94607,1.94607,0,0,1,.24418.2559,32.14525,32.14525,0,0,0,7.0742,5.9716c1.7168-2.3086,3.09862-5.9941,1.4853-11.3691L762.15179,85.846Zm140.86909,136.1513h256.3604a26.862,26.862,0,0,0,8.0469-4.1308l-153.2374-94.4776a1.92342,1.92342,0,0,1-.1894-.1328c-.1289-.1006-13.501-10.3584-37.4453-10.3584H814.57858l2.6846,11.6036H854.1909a2.00157,2.00157,0,0,1,1.10938.3359l126.3838,84.2558a2.00009,2.00009,0,0,1-1.1094,3.6641H839.90278Z" style="fill:#0f0f0f"/></svg>