<svg id="ca87fe26-9ef2-4723-a450-a883e0978eb6" data-name="Ñëîé 1" xmlns="http://www.w3.org/2000/svg" viewBox="0 0 550.5 306.4418"><title>holding-1s_img-02</title><path d="M453.07319,184.5463H550.5v-2H454.07319V91.7583c0-15.7549-11.331-28.5723-25.2597-28.5723H328.043V8.8339C328.043,3.9628,324.502,0,320.14939,0h-41.332a1.00019,1.00019,0,0,0-1,1l.001,7.269a1.00036,1.00036,0,0,0,1,1h29.4961c5.4404,0,9.8662,5.0913,9.8662,11.3491V42.3286c0,6.2578-4.4258,11.3491-9.8662,11.3491h-61.6626c-5.44,0-9.8658-5.0913-9.8658-11.3491V20.6181c0-6.2578,4.4258-11.3491,9.8658-11.3491h28.3769a1,1,0,0,0,1-1V1a1,1,0,0,0-1-1h-41.1352c-4.3521,0-7.8931,3.9628-7.8931,8.8339V59.0551a1,1,0,0,0,1,1h95.1987V63.186H125.2295c-13.9282,0-25.2598,12.8174-25.2598,28.5723v96.5351c0,.2617-.0078.5781-.0166.9404-.0874,3.5977-.2695,11.085,4.8057,16.2862,3.3584,3.4404,8.4224,5.1855,15.0517,5.1855H235.04979a.98463.98463,0,0,0,.2817-.041l7.0411-2.0693a.99987.99987,0,0,0,.7182-.959V190.2846c0-2.4648,1.711-4.4707,3.8135-4.4707h28.0918l-.228,8.96h-16.7193c-6.4516,0-11.7002,5.9043-11.7002,13.1611,0,2.9414.1158,5.3027,1.5708,6.7129,1.8907,1.832,5.3008,1.7275,13.5371,1.4668,3.9229-.1221,8.8418-.2529,15.0811-.2695,6.2183.0049,11.0786.1611,14.9839.2861,8.3437.2686,11.7949.3779,13.7021-1.4678,1.4639-1.4179,1.5801-3.7832,1.5801-6.7285,0-7.2568-5.249-13.1611-11.7002-13.1611h-14.4326l-.0615-8.96h26.5293c2.1025,0,3.8134,2.0059,3.8134,4.4707v36.9268c0,2.4648-1.7109,4.4707-3.8134,4.4707h-60.2344c-2.1025,0-3.8135-2.0059-3.8135-4.4707v-14.002a.99972.99972,0,0,0-1-1h-4.5893a.99972.99972,0,0,0-1,1v24.2198a.99972.99972,0,0,0,1,1h77.6977a.9994.9994,0,0,0,1-1V210.7055h118.0332a19.54341,19.54341,0,0,0,17.8408-11.8183v78.9834c0,14.6513-10.4345,26.5712-23.2597,26.5712H125.2295c-12.8257,0-23.2598-11.9199-23.2598-26.5712V205.0444a.99972.99972,0,0,0-1-1H0v2H99.9697v71.8262c0,15.7539,11.3316,28.5712,25.2598,28.5712h303.584c13.9287,0,25.2597-12.8173,25.2597-28.5712V189.4184a1,1,0,1,0-2,0c0,10.9951-7.6699,19.2871-17.8408,19.2871H315.19919a.99947.99947,0,0,0-1,1v26.7237h-75.6977V214.2094h2.5893v13.002c0,3.5683,2.6079,6.4707,5.8135,6.4707h60.2344c3.206,0,5.8134-2.9024,5.8134-6.4707V190.2846c0-3.5683-2.6074-6.4707-5.8134-6.4707h-27.5362a.9987.9987,0,0,0-1,1.0069l.0752,10.9599a.9999.9999,0,0,0,1,.9932h15.4258c5.3486,0,9.7002,5.0068,9.7002,11.1611,0,2.8223-.1553,4.501-.97169,5.292-1.29681,1.2568-4.957,1.1416-12.247.9053-3.919-.125-8.79591-.2822-15.04541-.2871-6.293-.0225-11.2081.1484-15.14559.2705-7.19191.2265-10.80171.3379-12.08251-.9033-.80949-.7852-.9629-2.46-.9629-5.2774,0-6.1543,4.3516-11.1611,9.7002-11.1611h17.6944a.99993.99993,0,0,0,.9995-.9746l.2788-10.96a.99988.99988,0,0,0-.99949-1.0254H246.90429c-3.2056,0-5.8135,2.9024-5.8135,6.4707v16.6035l-6.185,1.8174H119.8105c-6.0698,0-10.6523-1.542-13.6201-4.583-4.4873-4.5967-4.3188-11.5156-4.2378-14.8408.0093-.3809.0171-.7129.0171-.9883V91.7583c0-14.6519,10.4341-26.5723,23.2598-26.5723H323.19919a.99972.99972,0,0,0,1-1V59.0551a.99972.99972,0,0,0-1-1h-95.1987V8.8339c0-3.768,2.64351-6.8339,5.8931-6.8339h40.1352V7.269h-27.3769c-6.543,0-11.8658,5.9883-11.8658,13.3491V42.3286c0,7.3608,5.3228,13.3491,11.8658,13.3491h61.6626c6.5429,0,11.8662-5.9883,11.8662-13.3491V20.6181c0-7.3608-5.3233-13.3491-11.8662-13.3491h-28.4961L279.81739,2h40.332c3.25,0,5.89361,3.0659,5.89361,6.8339V64.186a.99972.99972,0,0,0,1,1H428.81349c12.8252,0,23.2597,11.9204,23.2597,26.5723v91.788A.9994.9994,0,0,0,453.07319,184.5463Z" style="fill:#0f0f0f"/></svg>