<svg width="56" height="56" viewBox="0 0 56 56" fill="none" xmlns="http://www.w3.org/2000/svg">
<g clip-path="url(#clip0)">
<path d="M41.9766 12.7954L43.2141 11.5583L44.4512 12.7954L43.2141 14.0325L41.9766 12.7954Z" fill="#0F0F0F"/>
<path d="M16.0136 38.7594L28.2615 26.5115L29.4986 27.7486L17.2507 39.9965L16.0136 38.7594Z" fill="#0F0F0F"/>
<path d="M3.50897 49.8762H20.7556V51.6259H3.50897V49.8762Z" fill="#0F0F0F"/>
<path d="M4.0072 46.3768H12.7557V48.1265H4.0072V46.3768Z" fill="#0F0F0F"/>
<path d="M49.7703 18.6115C54.4295 13.9818 56.6713 7.44863 55.8353 0.933832L55.7482 0.258046L55.0728 0.170903C48.558 -0.662509 42.0261 1.58014 37.3973 6.23973L34.2319 9.4055L28.6646 8.78696L20.3254 17.1262L24.656 21.4569L28.3669 17.7447L29.6356 19.0134L25.8931 22.7559H3.50891C1.57639 22.7559 0.00952148 24.3228 0.00952148 26.2553V52.5007C0.00952148 54.4332 1.57639 56.0001 3.50891 56.0001H42.0022C43.9352 56.0001 45.5016 54.4332 45.5016 52.5007V29.0661L47.2227 27.3454L46.6041 21.7785L49.7703 18.6115ZM54.1723 1.83645C54.4944 5.33498 53.8592 8.8553 52.3351 12.0206L43.989 3.67371C47.1547 2.15042 50.6742 1.51564 54.1723 1.83645ZM27.1298 16.5077L24.656 18.9827L22.7996 17.1262L29.3067 10.6182L32.6476 10.9899L29.6206 14.016L27.1298 16.5077ZM30.8727 20.2501L32.6975 22.0754L30.2225 24.5492L31.4596 25.7863L33.9346 23.3121L35.7595 25.1374L28.4728 32.4228L29.7099 33.6599L36.9966 26.374L38.2649 27.6427L34.5532 31.3549L38.8834 35.6842L40.2525 34.3143V42.0025H5.25861V28.005H20.644L18.8495 29.7982L20.0866 31.0353L30.8727 20.2501ZM43.7519 52.5007C43.7519 53.467 42.9689 54.2504 42.0022 54.2504H3.50891C2.54265 54.2504 1.75922 53.467 1.75922 52.5007V26.2553C1.75922 25.289 2.54265 24.5056 3.50891 24.5056H24.1434L22.3937 26.2553H3.50891V43.7522H42.0022V32.5655L43.7519 30.8158V52.5007ZM38.8834 33.2101L37.0269 31.3549L39.502 28.8798L45.0189 23.3621L45.3897 26.703L38.8834 33.2101ZM39.502 26.4048L35.1717 22.0754L38.8834 18.3633L37.6463 17.1262L33.9346 20.8375L29.604 16.5077L38.6344 7.47682C39.7613 6.3508 41.0214 5.36659 42.3862 4.54514L51.4649 13.6234C50.643 14.9878 49.6588 16.2475 48.5332 17.3748L39.502 26.4048Z" fill="#0F0F0F"/>
<path d="M20.3869 7.26453L27.3861 0.265747L28.6232 1.50284L21.624 8.50162L20.3869 7.26453Z" fill="#0F0F0F"/>
<path d="M13.3882 7.26447L18.6373 2.01581L19.8744 3.2529L14.6253 8.50198L13.3882 7.26447Z" fill="#0F0F0F"/>
<path d="M47.5076 34.3848L54.5068 27.386L55.7439 28.6231L48.7451 35.6219L47.5076 34.3848Z" fill="#0F0F0F"/>
<path d="M47.5076 41.3835L52.7562 36.1349L53.9937 37.372L48.7447 42.6211L47.5076 41.3835Z" fill="#0F0F0F"/>
<path d="M15.1383 33.5099L17.6129 31.0358L18.85 32.2729L16.3754 34.7475L15.1383 33.5099Z" fill="#0F0F0F"/>
<path d="M24.7621 36.1345L27.2367 33.6603L28.4738 34.8974L25.9992 37.372L24.7621 36.1345Z" fill="#0F0F0F"/>
<path d="M25.3802 52.5007H40.2526V45.5019H25.3802V52.5007ZM35.0035 47.2516H38.5029V50.751H35.0035V47.2516ZM27.1299 47.2516H33.2538V50.751H27.1299V47.2516Z" fill="#0F0F0F"/>
</g>
<defs>
<clipPath id="clip0">
<rect width="56" height="56" fill="white"/>
</clipPath>
</defs>
</svg>
