<svg width="56" height="56" viewBox="0 0 56 56" fill="none" xmlns="http://www.w3.org/2000/svg">
<g clip-path="url(#clip0)">
<path d="M48.774 50.4813L48.1724 50.6944C47.6612 50.8759 47.262 51.2751 47.0805 51.7863L46.8674 52.3869H38.0348L37.8217 51.7863C37.6401 51.2751 37.2409 50.8759 36.7297 50.6944L36.1291 50.4813V44H37.6291V49.452C38.2469 49.7674 38.7487 50.2692 39.0641 50.8869H45.8381C46.1536 50.2688 46.6558 49.7669 47.274 49.4515V44H48.774V50.4813Z" fill="#0F0F0F"/>
<path d="M48.774 32H47.274V26.419C46.6562 26.1036 46.1544 25.6018 45.839 24.984H39.0641C38.7487 25.6018 38.2469 26.1036 37.6291 26.419V32H36.1291V25.3897L36.7297 25.1766C37.2409 24.9951 37.6401 24.5958 37.8217 24.0846L38.0348 23.484H46.8683L47.0815 24.0846C47.263 24.5958 47.6622 24.9951 48.1734 25.1766L48.774 25.3899V32Z" fill="#0F0F0F"/>
<path d="M4.38713 7.22595H16.1291V9.0324H4.38713V7.22595Z" fill="#0F0F0F"/>
<path d="M4.38713 47.226H11.1291V49.0324H4.38713V47.226Z" fill="#0F0F0F"/>
<path d="M25.2902 36.1291H3.61288V44.2582H25.2902V36.1291ZM23.4838 42.4517H5.41933V37.9355H23.4838V42.4517Z" fill="#0F0F0F"/>
<path d="M55.9998 16.258H43.3547V0H0V55.9998H32.516H33.4193H52.3871V52.3869H56L55.9998 16.258ZM1.80645 54.1932V1.80645H41.5482V16.258H39.7418V12.6451H3.61289V32.516H32.516V54.1934L1.80645 54.1932ZM32.516 19.8709V30.7096H18.8063V18.0645H36.1289V19.8709H32.516ZM17 14.4516V16.258H14.2902V14.4516H17ZM12.4838 16.258H5.41934V14.4516H12.4838V16.258ZM5.41934 18.0645H12.4838V30.7096H5.41934V18.0645ZM14.2902 18.0645H17V30.7096H14.2902V18.0645ZM36.1289 16.258H18.8063V14.4516H37.9354V16.258H37.032H36.1289ZM50.5805 54.1932H34.3225V21.6772H50.5805V54.1932ZM54.1934 50.5803H52.3869V19.8709H37.9354V18.0645H54.1934V50.5803Z" fill="#0F0F0F"/>
<path d="M42.4516 44.2582C45.9381 44.2582 48.7742 41.4221 48.7742 37.9356C48.7742 34.4491 45.9381 31.6129 42.4516 31.6129C38.9651 31.6129 36.1289 34.4491 36.1289 37.9356C36.1289 41.4221 38.9651 44.2582 42.4516 44.2582ZM42.4516 33.4196C44.9417 33.4196 46.9678 35.4455 46.9678 37.9358C46.9678 40.4261 44.9419 42.452 42.4516 42.452C39.9613 42.452 37.9354 40.4261 37.9354 37.9358C37.9354 35.4455 39.9613 33.4196 42.4516 33.4196Z" fill="#0F0F0F"/>
</g>
<defs>
<clipPath id="clip0">
<rect width="56" height="56" fill="white"/>
</clipPath>
</defs>
</svg>
