<svg width="56" height="56" viewBox="0 0 56 56" fill="none" xmlns="http://www.w3.org/2000/svg">
<path d="M34.125 43.75H32.375V42H34.125V43.75ZM30.625 43.75H28.875V42H30.625V43.75ZM27.125 43.75H25.375V42H27.125V43.75ZM23.625 43.75H21.875V42H23.625V43.75Z" fill="#0F0F0F"/>
<path d="M52.5 49V23.625C52.5 22.1754 51.3246 21 49.875 21H43.75V12.25H50.75V4.375C50.747 1.95978 48.7902 0.00299073 46.375 0H16.625C14.2098 0.00299073 12.253 1.95978 12.25 4.375V21H6.125C4.67535 21 3.5 22.1754 3.5 23.625V49H0V51.625C0.00299073 54.0402 1.95978 55.997 4.375 56H51.625C54.0402 55.997 55.997 54.0402 56 51.625V49H52.5ZM43.75 4.375C43.75 2.92535 44.9254 1.75 46.375 1.75C47.8246 1.75 49 2.92535 49 4.375V10.5H43.75V4.375ZM14 4.375C14 2.92535 15.1754 1.75 16.625 1.75H42.8976C42.3187 2.50281 42.0034 3.42523 42 4.375V38H14V4.375ZM43.5 39.75L43.75 39V26.25H47.25V45.5H8.75V26.25H12.25V39L12.5 39.75H43.5ZM5.25 23.625C5.25 23.1418 5.64178 22.75 6.125 22.75H12.25V24.5H7V47.25H49V24.5H43.75V22.75H49.875C50.3582 22.75 50.75 23.1418 50.75 23.625V49H31.5V49.875C31.5 50.3582 31.1082 50.75 30.625 50.75H25.375C24.8918 50.75 24.5 50.3582 24.5 49.875V49H5.25V23.625ZM54.25 51.625C54.25 53.0746 53.0746 54.25 51.625 54.25H4.375C2.92535 54.25 1.75 53.0746 1.75 51.625V50.75H22.8995C23.2717 51.798 24.2629 52.4987 25.375 52.5H30.625C31.7371 52.4987 32.7283 51.798 33.1005 50.75H54.25V51.625Z" fill="#0F0F0F"/>
<path d="M15.75 33.25H40.25V15.75H15.75V33.25ZM29.75 17.5H38.5V21H29.75V17.5ZM29.75 22.75H38.5V31.5H29.75V22.75ZM23.625 17.5H28V21H23.625V17.5ZM23.625 22.75H28V31.5H23.625V22.75ZM17.5 17.5H21.875V21H17.5V17.5ZM17.5 22.75H21.875V31.5H17.5V22.75Z" fill="#0F0F0F"/>
<path d="M15.75 11.25H35V13H15.75V11.25Z" fill="#0F0F0F"/>
<path d="M15.75 7.25H28V9H15.75V7.25Z" fill="#0F0F0F"/>
</svg>
