<svg id="c2aa9f30-fb32-46ae-8495-341fba418f40" data-name="Layer 1" xmlns="http://www.w3.org/2000/svg" viewBox="0 0 622.97927 182.04744"><title>logo-osnova</title><path d="M72.16649,181.69056H.9685c-1.30936-1.04889-.91159-2.30273-.912-3.40393Q.02683,91.092.05138,3.89738C.0516,2.90885.23257,1.92042.32915.93193,1.78158,2.29646,3.26781,3.627,4.681,5.031q15.76553,15.66233,31.50659,31.3493-.04152,53.06241-.07577,106.12482c-.00052.96975-.20154,2.01251.6539,2.79327.47323,1.92307,2.10211,2.9483,3.368,4.22409Q56.12164,165.63481,72.16649,181.69056Z" style="fill:#dd4646"/><path d="M36.18761,36.38026Q20.437,20.70291,4.681,5.031C3.26781,3.627,1.78158,2.29646.32915.93193,1.492-.53389,3.11471.16819,4.50591.16722Q90.60228.10729,176.69875.14054c1.14319.00019,2.28638.11231,3.24368.16245a3.07624,3.07624,0,0,1,.73044,2.51706q.0054,33.1908-.01056,66.38156a24.78733,24.78733,0,0,1-.2416,2.47378c-5.52991-4.23922-9.953-9.6282-14.95722-14.414C158.311,50.421,151.824,42.90263,144.29647,36.442Q90.242,36.41115,36.18761,36.38026Z" style="fill:#2b3a6c"/><path d="M144.29647,36.442c7.5275,6.46063,14.01449,13.979,21.167,20.81939,5.00421,4.7858,9.42731,10.17478,14.95722,14.414.922,2.426.26336,4.92728.2676,7.37989q.08465,48.88614.00614,97.77243c-.002,1.59808.58694,3.31009-.49338,4.81714L144.16186,145.122c.04519-1.49329.12957-2.9866.12988-4.47989Q144.3024,88.542,144.29647,36.442Z" style="fill:#dd4646"/><path d="M144.16186,145.122l36.03921,36.52289a7.38705,7.38705,0,0,1-3.43.37994q-50.32874.017-100.65744.00321c-1.31574-.00058-2.63144-.22-3.94715-.33744q-16.023-16.07743-32.03271-32.16812c-1.26593-1.27579-2.89481-2.301-3.368-4.22409,1.82882-.04987,3.65762-.14236,5.48648-.14331Q93.207,145.12876,144.16186,145.122Z" style="fill:#2b3a6c"/><path d="M539.51479,88.45457c.64563.28311,1.07746.49356,1.52417.66516,8.95038,3.439,12.73328,8.52634,12.64386,17.01221-.09772,9.271-4.39966,15.597-12.95654,18.72146a35.46664,35.46664,0,0,1-7.70874,1.98114c-11.73474,1.45295-23.50427.67121-35.47846.87763V53.88856c.28968-.24054.53144-.61725.77655-.61948,11.13422-.10208,22.28424-.90365,33.37983.785a34.59834,34.59834,0,0,1,7.67706,2.08319c6.585,2.63406,10.65527,7.21731,11.07739,14.55084.415,7.21024-2.4729,12.54858-8.97,15.876C540.81142,86.90654,539.87929,87.03706,539.51479,88.45457Zm-24.24438,26.21536a44.20071,44.20071,0,0,0,12.42523-.47406c5.33063-1.08331,7.799-4.053,7.79254-9.35422-.00629-5.12121-2.68933-8.63839-7.66486-9.62625a36.21726,36.21726,0,0,0-12.55291-.32074ZM515.047,65.76368c0,3.04914-.05914,5.84027.01678,8.62772.075,2.7514-.35016,5.54993.34772,8.38312,3.91229.255,7.52789.39181,11.08179-.6023,4.1101-1.14969,6.29028-4.183,6.17035-8.47906-.11737-4.20755-2.15839-6.66706-6.51129-7.51981A32.747,32.747,0,0,0,515.047,65.76368Z" style="fill:#2b3a6c"/><path d="M373.13466,53.036V81.65266h21.86219V53.33772h17.67566V127.371H395.351v-31.326h-22.1549v31.30753H355.76473V53.3769C361.27126,52.705,366.85183,53.23475,373.13466,53.036Z" style="fill:#2b3a6c"/><path d="M283.59438,88.87886c-.05139,7.45584-.71734,14.55523-3.5628,21.258-4.93061,11.61456-13.65467,18.2099-26.30005,19.058-20.72943,1.39035-34.02124-9.59348-36.50632-30.23371a60.73688,60.73688,0,0,1,1.49466-24.231c5.27979-18.43664,20.39276-25.40969,36.728-23.14862,15.75775,2.18113,25.46417,12.87433,27.51764,29.60407C283.28939,83.8238,283.40389,86.48765,283.59438,88.87886Zm-18.5592.95422a44.0806,44.0806,0,0,0-2.29407-16.57486c-2.2124-6.12564-6.69073-9.14618-12.8811-9.07068-5.96839.07282-10.38459,2.95035-12.32294,9.06854a55.56555,55.56555,0,0,0-.04187,33.86206c2.05084,6.59162,6.556,9.39759,13.147,9.23737,6.2536-.152,10.18286-3.16077,12.3581-9.66135A48.2146,48.2146,0,0,0,265.03518,89.83308Z" style="fill:#2b3a6c"/><path d="M422.0671,90.20307a48.9572,48.9572,0,0,1,1.66876-15.27078c4.88147-17.6477,19.24152-25.5654,36.56342-23.40756,13.17639,1.64145,21.94244,9.01358,25.80719,21.72366,3.78619,12.45154,3.77624,25.00986-1.18091,37.13782-4.768,11.665-13.793,17.91284-26.43439,18.86151-22.50189,1.68872-34.35718-12.08783-36.39227-32.069A69.18221,69.18221,0,0,1,422.0671,90.20307Zm48.01111.34287c.152-5.68543-.18244-11.32117-2.07794-16.73679-2.27424-6.4974-6.60956-9.65844-12.99317-9.62164-6.14038.0354-10.64307,3.074-12.5744,9.44132a55.93081,55.93081,0,0,0,.06934,33.4103c2.06268,6.622,6.52832,9.44849,13.10339,9.31665,6.30182-.12637,10.19537-3.07986,12.4256-9.57354A45.74208,45.74208,0,0,0,470.07821,90.54594Z" style="fill:#2b3a6c"/><path d="M599.66421,111.81416h-21.096c-2.19971,4.89416-2.35926,10.32431-4.2735,15.55771H556.25851c7.3861-24.67813,14.725-49.19886,22.14855-74.00208H599.985c7.34539,24.48239,14.71942,49.06037,22.21344,74.03842H603.588C602.31856,122.36311,601.03866,117.27656,599.66421,111.81416Zm-18.42847-13.1897h15.4386c-2.50843-10.50516-4.93567-20.67029-7.36292-30.83545l-.84851.13977C586.08987,78.00776,583.71682,88.08671,581.23574,98.62446Z" style="fill:#2b3a6c"/><path d="M339.88112,109.52827c2.71253,3.55533,5.11854,6.70892,7.84681,10.28491a30.2684,30.2684,0,0,1-18.78693,9.29926c-20.56885,2.23544-35.24237-9.49784-37.78448-30.14649-1.06684-8.66519-.86054-17.30661,2.03247-25.67218,9.09686-26.30533,38.25879-26.13495,51.63226-15.558.651.51486,1.37915.93219,2.22559,1.498-3.073,3.67041-5.72394,6.83677-8.49372,10.145-3.232-1.61264-5.93182-3.8395-9.4339-4.595-7.51727-1.62164-13.97839.97849-16.86511,8.04981a43.913,43.913,0,0,0-.14636,34.06024c3.25262,7.99481,11.30554,10.78973,19.59131,7.57214C334.52389,113.369,336.91952,111.56361,339.88112,109.52827Z" style="fill:#2b3a6c"/><path d="M232.99,155.59v3.83789h-9.9541v21.77051h-4.67334V155.59Z" style="fill:#28386a"/><path d="M240.47829,155.93183a40.54314,40.54314,0,0,1,7.14258-.53125c3.41992,0,5.92725.72168,7.561,2.08887a7.23374,7.23374,0,0,1,2.50781,5.66211,7.75893,7.75893,0,0,1-2.20361,5.8125c-1.86182,1.86231-4.7876,2.73535-8.09278,2.73535a13.15011,13.15011,0,0,1-2.27978-.15136v9.65039h-4.63526Zm4.63526,11.93067a9.414,9.414,0,0,0,2.27978.18945c3.49512,0,5.62305-1.709,5.62305-4.71094,0-2.84961-1.97559-4.36914-5.20508-4.36914a12.96865,12.96865,0,0,0-2.69775.22754Z" style="fill:#28386a"/><path d="M268.48415,155.59l4.33106,9.8789c.68359,1.67188,1.21582,3.19141,1.82422,4.71094h.11328c.37988-1.17773.83593-2.81152,1.44433-4.82519l3.34278-9.76465h4.93945l-5.05274,12.7666c-1.48242,3.72266-3.11621,7.59863-4.93945,9.99219a7.8,7.8,0,0,1-6.38281,3.26757,6.52454,6.52454,0,0,1-2.39356-.34179l.37989-3.76172a5.74246,5.74246,0,0,0,1.5957.15234c2.165,0,3.5332-1.82422,4.17871-3.26758a1.36052,1.36052,0,0,0-.11328-1.36816L263.20241,155.59Z" style="fill:#28386a"/><path d="M311.15505,155.59v25.6084h-4.67383V159.42793h-10.334v21.77051h-4.67383V155.59Z" style="fill:#28386a"/><path d="M340.71853,155.59v25.6084H336.0447V159.42793h-10.334v21.77051h-4.67382V155.59Z" style="fill:#28386a"/><path d="M355.73122,173.9416l-2.2041,7.25684h-4.82519l8.207-25.6084h5.96484l8.32129,25.6084h-5.01563l-2.31738-7.25684Zm7.333-3.5332-2.01367-6.30762c-.49414-1.55762-.91211-3.30566-1.292-4.78711h-.07618c-.37988,1.48145-.75976,3.26758-1.21582,4.78711L356.491,170.4084Z" style="fill:#28386a"/><path d="M396.2,155.59v10.98047h.75977L404.78689,155.59H410.448l-9.27051,11.55078c3.72363.68359,5.28125,3.11523,6.4209,6.34473.9502,2.69726,1.748,5.28125,2.8877,7.71289h-5.01563a45.812,45.812,0,0,1-2.12793-5.81348c-1.02539-3.11524-2.39355-5.35645-6.041-5.35645H396.2v11.16993h-4.59765V155.59Z" style="fill:#28386a"/><path d="M440.04861,168.12812c0,8.58692-5.20508,13.48828-12.27149,13.48828-7.21973,0-11.77832-5.50878-11.77832-13.03222,0-7.86426,4.93848-13.41211,12.1582-13.41211C435.64138,155.17207,440.04861,160.8332,440.04861,168.12812Zm-19.11133.37989c0,5.20507,2.62207,9.34668,7.10547,9.34668,4.52148,0,7.0664-4.17872,7.0664-9.53614,0-4.82519-2.39355-9.38476-7.0664-9.38476C423.407,158.93379,420.93728,163.22676,420.93728,168.508Z" style="fill:#28386a"/><path d="M470.031,170.75019c-.15235-3.30566-.3418-7.29492-.30371-10.75293h-.11426c-.83594,3.11621-1.89942,6.57325-3.03906,9.80274l-3.72364,11.09472H459.241l-3.41992-10.94238c-.98829-3.26758-1.89942-6.76367-2.584-9.95508h-.07519c-.11426,3.34375-.26661,7.40918-.45606,10.9043l-.57031,10.29688h-4.36914l1.71-25.6084h6.15527l3.34278,10.29687c.91211,3.001,1.71,6.041,2.35547,8.89063h.11425c.6836-2.77344,1.55762-5.92774,2.5459-8.92871l3.5332-10.25879h6.07911l1.48242,25.6084h-4.55957Z" style="fill:#28386a"/><path d="M504.00368,155.59v25.6084h-4.67382V159.42793h-10.334v21.77051H484.322V155.59Z" style="fill:#28386a"/><path d="M519.0154,173.9416l-2.2041,7.25684h-4.82519l8.207-25.6084H526.158l8.32129,25.6084h-5.01563l-2.31738-7.25684Zm7.333-3.5332-2.01367-6.30762c-.49414-1.55762-.91211-3.30566-1.292-4.78711h-.07618c-.37988,1.48145-.75976,3.26758-1.21582,4.78711l-1.97558,6.30762Z" style="fill:#28386a"/><path d="M547.21071,155.59v10.25879h10.82813V155.59h4.67383v25.6084h-4.67383V169.91426H547.21071v11.28418h-4.67382V155.59Z" style="fill:#28386a"/><path d="M576.88845,155.59v9.043c0,4.06543-.11426,7.82714-.30469,11.24609l.07617.03809c1.33008-2.8877,3.002-5.96485,4.67383-8.85254l6.7627-11.47461h4.749v25.6084h-4.33105v-9.08106c0-4.02734.03808-7.29492.34179-10.59961h-.07617a72.26414,72.26414,0,0,1-4.55859,8.85254l-6.459,10.82813h-5.20605V155.59Z" style="fill:#28386a"/><path d="M607.02224,155.59v9.043c0,4.06543-.11426,7.82714-.30469,11.24609l.07617.03809c1.33008-2.8877,3.002-5.96485,4.67383-8.85254l6.7627-11.47461h4.749v25.6084h-4.33106v-9.08106c0-4.02734.03809-7.29492.3418-10.59961h-.07617a72.26554,72.26554,0,0,1-4.55859,8.85254l-6.46,10.82813h-5.20507V155.59Zm3.79883-5.623c.11425,1.33008.53222,2.31738,1.97558,2.31738,1.44434,0,1.90039-.94922,2.01367-2.31738H618.116c-.22754,2.92578-2.08985,4.40723-5.39453,4.40723-3.2295,0-4.93946-1.55762-5.20606-4.40723Z" style="fill:#28386a"/></svg>