<svg xmlns="http://www.w3.org/2000/svg" viewBox="0 0 136 81.92971">
  <title>logo_zdorovie</title>
  <g id="c749ee5a-0afc-4ded-8385-1758d93b699a" data-name="Layer 13">
    <g>
      <g>
        <path d="M0,52.74633H4.92a4.40344,4.40344,0,0,1,1.74171.30872,3.25413,3.25413,0,0,1,1.16893.81554,3.15044,3.15044,0,0,1,.65552,1.16326,4.46622,4.46622,0,0,1,0,2.68283,3.16018,3.16018,0,0,1-.65552,1.156,3.26172,3.26172,0,0,1-1.16893.81555A4.40678,4.40678,0,0,1,4.92,59.99672H2.39655v4.05213H0Zm4.26021,5.31874a4.85941,4.85941,0,0,0,.79469-.06346,1.80586,1.80586,0,0,0,.67252-.245,1.3199,1.3199,0,0,0,.4658-.51476,1.87229,1.87229,0,0,0,.1759-.87063,1.85256,1.85256,0,0,0-.1759-.87063,1.32109,1.32109,0,0,0-.4658-.51453,1.80624,1.80624,0,0,0-.67252-.24525,4.885,4.885,0,0,0-.79469-.06347H2.39655v3.38641Z" style="fill: #1e6b6a"/>
        <path d="M14.21021,57.71714l-4.17113-4.97036h2.82654l3.82,4.65393V52.74633h2.30679v4.63829l3.82025-4.63829h2.82653l-4.21713,4.90756,4.61426,6.39519H23.07221L19.60149,59.11l-.6111.74392v4.19471H16.685V59.85392l-.74891-.72805-3.34651,4.92275H9.64038Z" style="fill: #1e6b6a"/>
        <path d="M26.66262,61.95876H27.579a6.47459,6.47459,0,0,0,.7718-1.44025,9.047,9.047,0,0,0,.4581-1.69343,16.27115,16.27115,0,0,0,.214-1.99467q.05474-1.07643.05462-2.32674V52.74633H36.9907V61.959h1.19181v4.67H36.01308V64.04885h-7.181V66.629H26.66262Zm7.93017,0V54.78837H31.37027v.206q0,1.15533-.05463,2.13656-.0544.98124-.1836,1.82807a10.25466,10.25466,0,0,1-.36652,1.584,8.40911,8.40911,0,0,1-.60067,1.41667Z" style="fill: #1e6b6a"/>
        <path d="M44.34038,58.76162v1.93143H39.74153V58.76162Z" style="fill: #1e6b6a"/>
        <path d="M50.78883,64.302a5.10653,5.10653,0,0,1-3.46846-1.0685,3.83938,3.83938,0,0,1-1.25279-2.98362H48.4358a2.47123,2.47123,0,0,0,.20649.98306,1.89891,1.89891,0,0,0,.50411.673,1.96149,1.96149,0,0,0,.73349.38239,3.33523,3.33523,0,0,0,.90893.11855,1.81941,1.81941,0,0,0,1.36-.5304,1.79312,1.79312,0,0,0,.51929-1.30606,1.62616,1.62616,0,0,0-.16819-.78381,1.311,1.311,0,0,0-.45809-.49164,1.80077,1.80077,0,0,0-.65552-.245,4.50162,4.50162,0,0,0-.76455-.06347h-.82643V57.3053a2.91242,2.91242,0,0,0,.3357.01586h.306q1.97133,0,1.9711-1.53521a1.24815,1.24815,0,0,0-.45062-1.02907,1.82576,1.82576,0,0,0-1.18411-.36426,2.12406,2.12406,0,0,0-1.41349.44313,1.78194,1.78194,0,0,0-.60067,1.26662H46.49779a3.64686,3.64686,0,0,1,.36652-1.63041,3.254,3.254,0,0,1,.93954-1.12405,4.02435,4.02435,0,0,1,1.36-.65552,6.06263,6.06263,0,0,1,1.625-.21465,4.9602,4.9602,0,0,1,1.53521.22961,3.7854,3.7854,0,0,1,1.22242.64125,3.05809,3.05809,0,0,1,.80988.98963,2.77054,2.77054,0,0,1,.29829,1.29,2.41163,2.41163,0,0,1-.45832,1.4747,2.0268,2.0268,0,0,1-1.19181.79129,2.52842,2.52842,0,0,1,.81011.301,2.36872,2.36872,0,0,1,.65552.5619,2.65809,2.65809,0,0,1,.437.79946,3.00838,3.00838,0,0,1,.16048.99733,3.47222,3.47222,0,0,1-.32754,1.51188,3.62985,3.62985,0,0,1-.90145,1.18728,4.15381,4.15381,0,0,1-1.3523.77565A5.03426,5.03426,0,0,1,50.78883,64.302Z" style="fill: #1e6b6a"/>
        <path d="M56.3501,61.95876h.91642a6.47459,6.47459,0,0,0,.7718-1.44025,9.06385,9.06385,0,0,0,.45809-1.69343,16.36168,16.36168,0,0,0,.214-1.99467q.05474-1.07643.05462-2.32674V52.74633h7.91476V61.959h1.19182v4.67H65.69943V64.04885H58.51907V66.629h-2.1692V61.95876Zm7.93,0V54.78837H61.05753v.206q0,1.15533-.05463,2.13656T60.8193,58.959a10.25466,10.25466,0,0,1-.36652,1.584,8.40911,8.40911,0,0,1-.60067,1.41667Z" style="fill: #1e6b6a"/>
        <path d="M74.56235,64.302a5.41407,5.41407,0,0,1-2.26124-.45106,4.85516,4.85516,0,0,1-1.68074-1.24259,5.54894,5.54894,0,0,1-1.054-1.8598,7.03858,7.03858,0,0,1-.36629-2.30317,7.31539,7.31539,0,0,1,.36629-2.3426,5.68917,5.68917,0,0,1,1.054-1.8997,4.85153,4.85153,0,0,1,1.68074-1.26662,5.77788,5.77788,0,0,1,4.51476,0,4.83205,4.83205,0,0,1,1.68821,1.26662,5.67864,5.67864,0,0,1,1.054,1.8997,7.309,7.309,0,0,1,.36652,2.3426,7.05045,7.05045,0,0,1-.36652,2.30317,5.54457,5.54457,0,0,1-1.054,1.8598A4.83188,4.83188,0,0,1,76.81587,63.851,5.42666,5.42666,0,0,1,74.56235,64.302Zm0-2.07559a2.72353,2.72353,0,0,0,1.37518-.32436,2.65948,2.65948,0,0,0,.91664-.86247,3.81575,3.81575,0,0,0,.51182-1.21108,5.94888,5.94888,0,0,0,.16048-1.38493,6.39857,6.39857,0,0,0-.16048-1.44024,3.89017,3.89017,0,0,0-.51182-1.24259,2.63845,2.63845,0,0,0-.91664-.87063,3.07736,3.07736,0,0,0-2.75037,0,2.63578,2.63578,0,0,0-.91641.87063,3.88724,3.88724,0,0,0-.51182,1.24259,6.38852,6.38852,0,0,0-.16071,1.44024,5.9363,5.9363,0,0,0,.16071,1.38493,3.80267,3.80267,0,0,0,.51182,1.21108,2.65891,2.65891,0,0,0,.91641.86247,2.70932,2.70932,0,0,0,1.37519.3264Z" style="fill: #1e6b6a"/>
        <path d="M82.15592,52.74633h4.92a4.40391,4.40391,0,0,1,1.74194.30872,3.25418,3.25418,0,0,1,1.16892.81554,3.1498,3.1498,0,0,1,.6553,1.16326,4.46266,4.46266,0,0,1,0,2.68283,3.1564,3.1564,0,0,1-.6553,1.156,3.2616,3.2616,0,0,1-1.16892.81555,4.40722,4.40722,0,0,1-1.74194.30849H84.55474v4.05213H82.15592Zm4.26043,5.31874a4.86156,4.86156,0,0,0,.7947-.06346,1.80345,1.80345,0,0,0,.67229-.245,1.31873,1.31873,0,0,0,.466-.51476,2.24269,2.24269,0,0,0,0-1.74126,1.32166,1.32166,0,0,0-.466-.51453,1.80529,1.80529,0,0,0-.67229-.24525,4.88707,4.88707,0,0,0-.7947-.06347H84.552v3.38641Z" style="fill: #1e6b6a"/>
        <path d="M97.83289,64.302a5.41506,5.41506,0,0,1-2.26145-.45106,4.85626,4.85626,0,0,1-1.68051-1.24259,5.54467,5.54467,0,0,1-1.054-1.8598,7.04463,7.04463,0,0,1-.36653-2.30317,7.32171,7.32171,0,0,1,.36653-2.3426,5.68113,5.68113,0,0,1,1.054-1.8997,4.84848,4.84848,0,0,1,1.68051-1.26662,5.77839,5.77839,0,0,1,4.515,0,4.83581,4.83581,0,0,1,1.68867,1.26662,5.67864,5.67864,0,0,1,1.054,1.8997,7.309,7.309,0,0,1,.36652,2.3426,7.05045,7.05045,0,0,1-.36652,2.30317,5.54457,5.54457,0,0,1-1.054,1.8598,4.83188,4.83188,0,0,1-1.68821,1.24259A5.431,5.431,0,0,1,97.83289,64.302Zm0-2.07559a2.72354,2.72354,0,0,0,1.37519-.32436,2.65685,2.65685,0,0,0,.91641-.86247,3.81027,3.81027,0,0,0,.51181-1.21108,5.94911,5.94911,0,0,0,.16071-1.38493,6.38443,6.38443,0,0,0-.16071-1.44024,3.88493,3.88493,0,0,0-.51181-1.24259,2.63587,2.63587,0,0,0-.91641-.87063,3.07738,3.07738,0,0,0-2.75038,0,2.63466,2.63466,0,0,0-.91664.87063,3.89244,3.89244,0,0,0-.51181,1.24259,6.38772,6.38772,0,0,0-.16048,1.44024,5.93567,5.93567,0,0,0,.16116,1.38493,3.80739,3.80739,0,0,0,.51181,1.21108,2.659,2.659,0,0,0,.91641.86247,2.70583,2.70583,0,0,0,1.37474.3264Z" style="fill: #1e6b6a"/>
        <path d="M105.42669,52.74633h5.13424a6.58643,6.58643,0,0,1,1.42007.14257,3.01748,3.01748,0,0,1,1.1.46716,2.15663,2.15663,0,0,1,.71015.86315,3.12461,3.12461,0,0,1,.25228,1.3294,2.54319,2.54319,0,0,1-.374,1.42438,2.74279,2.74279,0,0,1-1.10772.93386,2.62465,2.62465,0,0,1,1.5053,1.05265,3.56666,3.56666,0,0,1,.17589,3.29279,2.85546,2.85546,0,0,1-.8636,1.02091,3.76062,3.76062,0,0,1-1.23783.58548,5.39289,5.39289,0,0,1-1.42868.19017h-5.28656Zm4.82846,4.57482a1.68077,1.68077,0,0,0,1.054-.31665,1.21661,1.21661,0,0,0,.41231-1.02907,1.35076,1.35076,0,0,0-.13758-.64873,1.03765,1.03765,0,0,0-.3663-.396,1.51332,1.51332,0,0,0-.52722-.19766,3.37017,3.37017,0,0,0-.61858-.05463H107.826v2.64339Zm.13782,4.7965a3.10464,3.10464,0,0,0,.67229-.07094,1.61707,1.61707,0,0,0,.56531-.23755,1.18441,1.18441,0,0,0,.38941-.45106,1.5981,1.5981,0,0,0,.14552-.72806,1.48656,1.48656,0,0,0-.47373-1.24259,1.97125,1.97125,0,0,0-1.25279-.372h-2.6128v3.1024H110.393Z" style="fill: #1e6b6a"/>
        <path d="M116.77932,52.74633h2.39882v4.08408h2.567a5.23593,5.23593,0,0,1,1.52933.21352,3.37123,3.37123,0,0,1,1.22241.65529,3.07018,3.07018,0,0,1,.81918,1.12427,3.9578,3.9578,0,0,1,.29807,1.59869,4.09669,4.09669,0,0,1-.29036,1.61454,3.02719,3.02719,0,0,1-.81918,1.13152,3.356,3.356,0,0,1-1.26073.66482,5.76669,5.76669,0,0,1-1.61954.21352h-4.84365Zm4.66,9.27635a2.23514,2.23514,0,0,0,1.36-.36425,1.48776,1.48776,0,0,0,.49164-1.26662,1.84993,1.84993,0,0,0-.13759-.75208,1.24044,1.24044,0,0,0-.38941-.49844,1.65339,1.65339,0,0,0-.59592-.277,3.014,3.014,0,0,0-.74143-.087h-2.24582v3.245Z" style="fill: #1e6b6a"/>
        <path d="M127.719,52.74633h8.15888V54.8362h-5.76006v2.42193h5.28633v1.93143h-5.28633v2.76965H136v2.08987h-8.281Z" style="fill: #1e6b6a"/>
      </g>
      <g>
        <path d="M21.90873,79.15281a2.63867,2.63867,0,0,1,2.66379-2.77508,2.30066,2.30066,0,0,1,1.96634,1.06239l-.54627.31371a1.7321,1.7321,0,0,0-1.42007-.78042,2.18859,2.18859,0,0,0,0,4.36017,1.71258,1.71258,0,0,0,1.42007-.78l.55057.31347a2.32046,2.32046,0,0,1-1.97155,1.06262A2.64042,2.64042,0,0,1,21.90873,79.15281Z" style="fill: #1e6b6a"/>
        <path d="M28.9107,81.83134V76.46612h3.393v.59478H29.55579v1.72992h2.69439v.59477H29.55579v1.85028h2.74789v.59477Z" style="fill: #1e6b6a"/>
        <path d="M36.15589,81.83134V77.0609H34.51731v-.59477H38.445v.59477H36.801v4.77044Z" style="fill: #1e6b6a"/>
        <path d="M41.491,76.46613v2.13h1.43594a1.61683,1.61683,0,1,1,0,3.23363H40.84812V76.46454Zm0,2.727v2.0434h1.35841a1.02175,1.02175,0,1,0,0-2.0434Z" style="fill: #1e6b6a"/>
        <path d="M50.28948,79.15281a2.6385,2.6385,0,0,1,2.66357-2.77508,2.30006,2.30006,0,0,1,1.96634,1.06239l-.546.31371a1.7322,1.7322,0,0,0-1.4203-.78042,2.18859,2.18859,0,0,0,0,4.36017,1.713,1.713,0,0,0,1.42029-.78l.55171.31347a2.32646,2.32646,0,0,1-1.97291,1.06262A2.64038,2.64038,0,0,1,50.28948,79.15281Z" style="fill: #1e6b6a"/>
        <path d="M60.98884,81.83134l-.45809-1.19023H57.95264l-.45673,1.19023h-.73849l2.081-5.36522H59.637l2.08761,5.36522ZM59.241,77.15814,58.139,80.04588H60.336Z" style="fill: #1e6b6a"/>
        <path d="M67.61954,81.83134V79.37018H64.59149v2.46116H63.9464V76.46612h.64509v2.30816h3.02805V76.46612h.644v5.36522Z" style="fill: #1e6b6a"/>
        <path d="M74.71172,81.83134l-.45809-1.19023H71.67552l-.4581,1.19023h-.73734l2.081-5.36522h.80013l2.08738,5.36522Zm-1.74783-4.6732-1.10228,2.88774h2.19731Z" style="fill: #1e6b6a"/>
        <path d="M78.95221,81.83134V77.0609H77.31363v-.59477h3.92859v.59477h-1.6456v4.77044Z" style="fill: #1e6b6a"/>
        <path d="M83.43183,79.15281a2.57745,2.57745,0,1,1,2.56995,2.77531A2.57593,2.57593,0,0,1,83.43183,79.15281Zm4.47237,0a1.92008,1.92008,0,1,0-1.90242,2.17986A1.95979,1.95979,0,0,0,87.9042,79.15281Z" style="fill: #1e6b6a"/>
        <path d="M91.12514,81.83134V76.46612h2.081a1.61672,1.61672,0,1,1,0,3.23341H91.77023v2.13022Zm3.036-3.74794a.98051.98051,0,0,0-1.03224-1.02182H91.77045v2.04318h1.35842A.97928.97928,0,0,0,94.16111,78.083Z" style="fill: #1e6b6a"/>
        <path d="M97.22814,81.83134V76.46612h.6451V80.657l2.98158-4.19085h.65983v5.36522h-.6451v-4.2788l-3.02034,4.2788Z" style="fill: #1e6b6a"/>
        <path d="M104.26888,81.83134V76.46612h3.393v.59478h-2.74606v1.72992h2.69439v.59477h-2.69439v1.85028h2.74788v.59477Z" style="fill: #1e6b6a"/>
        <path d="M110.23294,81.83134V76.46612h2.307a1.32626,1.32626,0,0,1,1.4518,1.36544,1.21408,1.21408,0,0,1-.90848,1.231,1.33,1.33,0,0,1,1.00822,1.31966,1.37162,1.37162,0,0,1-1.4985,1.44749Zm3.0906-3.90094a.82852.82852,0,0,0-.89352-.86905h-1.55221v1.72992H112.43a.819.819,0,0,0,.89352-.86133Zm.10019,2.38091a.89465.89465,0,0,0-.962-.92526H110.878v1.85051h1.58372a.87071.87071,0,0,0,.96243-.92571Z" style="fill: #1e6b6a"/>
      </g>
      <path d="M62.76818,10.17713q.32776.13225.65552.26928c.64714-.48394,2.22406-1.68573,4.661-3.67858C85.95758,22.03635,98.403,14.63793,98.403,14.63793s-.00453-1.243-.00453-4.99121C83.43841,16.60971,68.0697,0,68.0697,0A49.763,49.763,0,0,1,57.13959,8.466,31.73452,31.73452,0,0,1,62.76818,10.17713Z" style="fill: #1e6b6a"/>
      <path d="M73.39048,28.01673q-.32775-.13227-.65552-.26928c-.64714.48416-2.22428,1.68572-4.66095,3.67858-17.8736-15.26852-30.31876-7.87011-30.31876-7.87011s.00431,1.243.00431,4.99121c14.9607-6.96412,30.32873,9.64559,30.32873,9.64559a49.76418,49.76418,0,0,1,10.93034-8.466A31.64806,31.64806,0,0,1,73.39048,28.01673Z" style="fill: #1e6b6a"/>
      <path d="M85.60035,21.807c-5.29448,0-11.09444-2.58831-16.97486-5.23465-.21352-.09611-1.06149-.4828-1.27206-.57619-5.52569-2.458-11.30094-4.70719-16.9862-4.70719-8.61811,0-11.844,2.10891-12.617,2.73814v5.03858c.93183-.55262,5.197-2.81339,12.617-2.81339,5.36634,0,11.25153,2.6588,17.21332,5.34208.134.0603.55284.25455.6281.28832,5.64809,2.52462,11.567,4.88785,17.389,4.88785,10.12907,0,12.80963-2.91358,12.80963-2.91358V18.87184C98.40726,18.8723,94.051,21.807,85.60035,21.807Z" style="fill: #1e6b6a"/>
    </g>
  </g>
</svg>
