<svg xmlns="http://www.w3.org/2000/svg" viewBox="0 0 137.94471 34.45625">
  <title>logo_fors</title>
  <g id="43d6945d-b897-4665-ba80-37e850a28b82" data-name="Layer 16">
    <g>
      <g>
        <path d="M60.639,27.56388l.5324-2.76353a10.24528,10.24528,0,0,1-5.99263-2.3518,6.27759,6.27759,0,0,1-1.87738-5.07747c.09226-3.88324,4.22711-7.77651,10.68221-8.29252h.146l.38526-2.32515,4.29078.00644L68.39084,9.085h.1174a9.18563,9.18563,0,0,1,6.21293,2.52262c2.95906,2.93079,1.4508,8.7398-1.30836,10.84093-1.81813,1.38453-4.75164,2.08418-7.69077,2.34536h-.17658L65.014,27.55744Zm1.27679-5.9187,1.68537-9.2697h0a9.51183,9.51183,0,0,0-4.98245,1.687c-1.87789,1.58493-2.73079,4.55458-.79839,6.47032C58.50984,21.21637,60.60534,21.64518,61.91581,21.64518Zm5.80539-9.57283-1.54066,9.109-.04485.47025A8.98888,8.98888,0,0,0,70.67833,20.471c2.04207-1.43665,3.03721-5.04915,1.20388-7.05095a5.35765,5.35765,0,0,0-4.014-1.34772Z" style="fill: #009ee0"/>
        <path d="M89.89739,7.53011a8.56372,8.56372,0,0,1,6.59707,2.49841,8.91156,8.91156,0,0,1,2.17042,6.80833,13.33532,13.33532,0,0,1-.9326,4.19326,10.5697,10.5697,0,0,1-2.277,3.56236A10.80117,10.80117,0,0,1,87.82986,27.551a9.2905,9.2905,0,0,1-6.72035-2.728,9.063,9.063,0,0,1-2.17569-6.69354,11.10138,11.10138,0,0,1,3.39533-7.69868A10.50073,10.50073,0,0,1,89.89739,7.53011Zm-.0917,3.198a6.38591,6.38591,0,0,0-5.02246,2.23639,8.68,8.68,0,0,0-2.09212,5.04486,6.46209,6.46209,0,0,0,.71875,3.96875,5.30131,5.30131,0,0,0,4.65625,2.25,6.26688,6.26688,0,0,0,4.8125-1.78125,8.35815,8.35815,0,0,0,2.067-4.73188,7.64808,7.64808,0,0,0-1.37953-5.48687A4.92625,4.92625,0,0,0,89.80569,10.72812Z" style="fill: #009ee0"/>
        <path d="M103.12766,7.80173l7.21011-.00006c2.315,0,4.72655.68377,5.78794,1.79346a5.08377,5.08377,0,0,1,1.55419,3.894,6.92917,6.92917,0,0,1-2.83254,5.5452,11.47309,11.47309,0,0,1-5.5,1.63927h-4.49428l-1.15121,6.95461-3.83663.00006Zm3.3447,3.17639-1.0176,6.56243H109.343a5.59052,5.59052,0,0,0,3.58768-1.02076,3.14439,3.14439,0,0,0,.53719-4.45225,5.72586,5.72586,0,0,0-3.3748-1.08942Z" style="fill: #009ee0"/>
        <path d="M134.48334,21.33906l2.08272,2.34879c-2.16336,2.65784-6.12211,4.09215-7.89561,3.94088-5.622-.47951-9.26454-4.12631-9.263-9.06654a11.03345,11.03345,0,0,1,11.4909-11.09333c2.116,0,5.56292,1.13731,7.04636,3.36247l-2.55745,2.39421a7.05892,7.05892,0,0,0-4.85977-2.3324c-4.38632-.1891-7.468,4.2045-7.35541,7.35541.12362,3.46138,1.91611,5.83489,5.74834,5.83489A8.8087,8.8087,0,0,0,134.48334,21.33906Z" style="fill: #009ee0"/>
      </g>
      <g>
        <g>
          <path d="M39.12619,9.44375a10.7593,10.7593,0,0,1-6.1875,7.86875c-4.86524,2.4375-12.267,2.98091-12.267,2.98091l4.4,8.33159s7.26412-.68906,12.57486-4.77048C39.64858,22.316,42.3902,20.24563,42.742,16.25,43.0942,12.25,39.12619,9.44375,39.12619,9.44375Z" style="fill: #009ee0"/>
          <path d="M34.59268,14.0625a11.60045,11.60045,0,0,0,2.015-2.06875,9.47343,9.47343,0,0,0,1.33544-3.1625A25.87944,25.87944,0,0,0,34.01989,6.8625a23.21689,23.21689,0,0,0-4.90944-.97807L32.777,0H23.72824L21.82689,7.625a72.50378,72.50378,0,0,1,7.42829,1.26875A8.60476,8.60476,0,0,1,34.59268,14.0625Z" style="fill: #009ee0"/>
        </g>
        <g>
          <path d="M3.638,25.0125a10.7593,10.7593,0,0,1,6.1875-7.86875c4.86524-2.4375,12.26694-2.98134,12.26694-2.98134l-4.4-8.33116s-7.26413.68906-12.57486,4.77048C3.11556,12.14027.37394,14.21062.02213,18.20625-.33006,22.20625,3.638,25.0125,3.638,25.0125Z" style="fill: #009ee0"/>
          <path d="M8.17146,20.39375a11.60009,11.60009,0,0,0-2.015,2.06875A9.47358,9.47358,0,0,0,4.821,25.625a25.88,25.88,0,0,0,3.92324,1.96875,23.21694,23.21694,0,0,0,4.90945.97807L9.98713,34.45625H19.0359l1.90135-7.625A72.50332,72.50332,0,0,1,13.509,25.5625,8.60476,8.60476,0,0,1,8.17146,20.39375Z" style="fill: #009ee0"/>
        </g>
      </g>
    </g>
  </g>
</svg>
