<svg width="56" height="56" viewBox="0 0 56 56" fill="none" xmlns="http://www.w3.org/2000/svg">
<path d="M52.5493 4.38379H3.45067C1.54788 4.38379 0 5.93166 0 7.83435V41.1514C0 43.0541 1.54788 44.602 3.45067 44.602H20.0566L19.385 51.9754H16.602C16.1489 51.9754 15.7817 52.3427 15.7817 52.7958C15.7817 53.2488 16.1489 53.6161 16.602 53.6161H39.398C39.8511 53.6161 40.2183 53.2488 40.2183 52.7958C40.2183 52.3427 39.8511 51.9754 39.398 51.9754H36.6151L35.9434 44.602H52.5493C54.452 44.602 56 43.0541 56 41.1514V7.83435C56 5.93166 54.4521 4.38379 52.5493 4.38379ZM21.0384 51.9754L21.7102 44.602H24.7292L25.0254 45.7865C25.3673 47.154 26.5906 48.109 28.0001 48.109C29.4096 48.109 30.6329 47.154 30.9748 45.7865L31.271 44.602H34.29L34.9616 51.9754H21.0384ZM26.4203 44.602H29.5796L29.3829 45.3886C29.224 46.0244 28.6554 46.4683 27.9999 46.4683C27.3444 46.4683 26.7759 46.0243 26.6168 45.3886L26.4203 44.602ZM54.3594 41.1514C54.3594 42.1494 53.5474 42.9613 52.5493 42.9613H3.45067C2.45263 42.9613 1.64062 42.1494 1.64062 41.1514V7.83435C1.64062 6.8363 2.45263 6.02441 3.45067 6.02441H52.5493C53.5474 6.02441 54.3594 6.8363 54.3594 7.83435V41.1514Z" fill="#0F0F0F"/>
<path d="M46.412 7.89099H4.32733C3.87419 7.89099 3.50702 8.25816 3.50702 8.7113V40.2747C3.50702 40.7279 3.87419 41.0951 4.32733 41.0951H6.08094C6.53408 41.0951 6.90125 40.7279 6.90125 40.2747C6.90136 39.8217 6.53408 39.4544 6.08105 39.4544H5.14775V9.53162H46.412C46.8651 9.53162 47.2323 9.16433 47.2323 8.7113C47.2323 8.25816 46.8651 7.89099 46.412 7.89099Z" fill="#0F0F0F"/>
<path d="M51.6726 7.89099H49.919C49.4659 7.89099 49.0987 8.25816 49.0987 8.7113C49.0987 9.16433 49.4659 9.53162 49.919 9.53162H50.8523V39.4544H9.58795C9.13481 39.4544 8.76764 39.8217 8.76764 40.2747C8.76764 40.7279 9.13481 41.0951 9.58795 41.0951H51.6725C52.1256 41.0951 52.4928 40.7279 52.4928 40.2747V8.7113C52.4929 8.25816 52.1256 7.89099 51.6726 7.89099Z" fill="#0F0F0F"/>
<path d="M40.2585 17.1302C40.105 16.934 39.8735 16.8147 39.6249 16.8034L19.5439 15.8906C19.5282 15.8899 19.5128 15.8895 19.497 15.8898C19.3781 15.4995 19.1269 15.1611 18.7869 14.9343L16.3277 13.2948C15.9353 13.0333 15.405 13.1393 15.1435 13.5318C14.8819 13.9243 14.9879 14.4545 15.3803 14.716L17.8394 16.3553C17.851 16.363 17.8596 16.3747 17.8634 16.3882L20.9958 27.3514C21.0935 27.6932 21.2543 28.0005 21.4607 28.2658L20.3147 30.5579C20.0388 31.1096 20.0677 31.7522 20.392 32.2769C20.5096 32.4671 20.6588 32.6292 20.8301 32.759C20.6058 33.1506 20.4768 33.6035 20.4768 34.0863C20.4768 35.5639 21.6789 36.7659 23.1563 36.7659C24.6338 36.7659 25.8359 35.5638 25.8359 34.0863C25.8359 33.7437 25.7705 33.4162 25.6528 33.1148H33.4387C33.3209 33.4162 33.2556 33.7437 33.2556 34.0863C33.2556 35.5639 34.4577 36.7659 35.9351 36.7659C37.4125 36.7659 38.6146 35.5638 38.6146 34.0863C38.6146 33.6577 38.5129 33.2527 38.3333 32.8931C38.5057 32.7369 38.6146 32.5119 38.6146 32.2608C38.6146 31.7892 38.2324 31.4068 37.7606 31.4068H21.8946C21.8824 31.4068 21.8618 31.4068 21.8446 31.3789C21.8274 31.3511 21.8366 31.3328 21.8421 31.3217L22.8979 29.2103C23.1127 29.2655 23.3366 29.2954 23.5657 29.2954C23.6712 29.2954 23.7778 29.2891 23.8851 29.2766L35.8851 27.8648C37.435 27.6824 38.6819 26.5319 38.988 25.0015L40.4234 17.824C40.4723 17.5798 40.412 17.3264 40.2585 17.1302ZM35.9349 33.115C36.4706 33.115 36.9064 33.5509 36.9064 34.0866C36.9064 34.6223 36.4706 35.0581 35.9349 35.0581C35.3991 35.0581 34.9634 34.6223 34.9634 34.0866C34.9634 33.5508 35.3991 33.115 35.9349 33.115ZM23.1561 33.115C23.6918 33.115 24.1276 33.5508 24.1276 34.0866C24.1276 34.6223 23.6918 35.0581 23.1561 35.0581C22.6204 35.0581 22.1846 34.6223 22.1846 34.0866C22.1846 33.5508 22.6204 33.115 23.1561 33.115ZM21.0619 21.3664L19.9916 17.6208L23.4059 17.776L23.9979 21.3664H21.0619ZM23.6856 27.5803C23.2094 27.6363 22.7693 27.3427 22.6379 26.8823L21.5499 23.0744H24.2795L24.997 27.426L23.6856 27.5803ZM28.6915 26.9914L26.6952 27.2263L26.0108 23.0746H28.6915V26.9914ZM28.6915 21.3664H25.7291L25.1501 17.8553L28.6915 18.0163V21.3664ZM33.0165 26.4825L30.3995 26.7904V23.0744H33.3249L33.0165 26.4825ZM33.4796 21.3664H30.3995V18.0939L33.7619 18.2467L33.4796 21.3664ZM37.313 24.6668C37.1525 25.4693 36.4984 26.0729 35.6855 26.1686L34.7499 26.2787L35.0399 23.0746H37.6314L37.313 24.6668ZM37.9731 21.3664H35.1946L35.47 18.3244L38.5535 18.4645L37.9731 21.3664Z" fill="#0F0F0F"/>
</svg>
