<svg width="56" height="56" viewBox="0 0 56 56" fill="none" xmlns="http://www.w3.org/2000/svg">
<path d="M52.3871 17.0323H43.3548V0H0V48.7742C0 52.7584 3.24156 56 7.22581 56H48.7742C52.7584 56 56 52.7584 56 48.7742V20.6452C56 18.6526 54.3797 17.0323 52.3871 17.0323ZM49.2765 18.8387C48.9656 19.3724 48.7742 19.9841 48.7742 20.6452V42.8387H43.3548V18.8387H49.2765ZM7.22581 54.1935C4.23696 54.1935 1.80645 51.763 1.80645 48.7742V1.80645H41.5484V48.7742C41.5484 50.9304 42.4975 52.8687 43.9996 54.1935H7.22581ZM54.1935 48.7742C54.1935 51.763 51.763 54.1935 48.7742 54.1935C45.7853 54.1935 43.3548 51.763 43.3548 48.7742V44.6452H50.5806V20.6452C50.5806 19.6489 51.3908 18.8387 52.3871 18.8387C53.3834 18.8387 54.1935 19.6489 54.1935 20.6452V48.7742Z" fill="#0F0F0F"/>
<path d="M9.93547 5.41937H11.7419V21.6774H17.1613V12.6452H18.9677V21.6774H24.3871V8.12904H26.1935V21.6774H31.6129V15.3549H33.4193V21.6774H37.9355V19.871H35.2258V13.5484H29.8064V19.871H28V6.32259H22.5806V19.871H20.7742V10.8387H15.3548V19.871H13.5484V3.61292H8.12902V19.871H5.41934V21.6774H9.93547V5.41937Z" fill="#0F0F0F"/>
<path d="M4.51611 42.4798H12.6451V44.2863H4.51611V42.4798Z" fill="#0F0F0F"/>
<path d="M14.4516 42.4798H22.5806V44.2863H14.4516V42.4798Z" fill="#0F0F0F"/>
<path d="M4.51611 31.6411H12.6451V33.4476H4.51611V31.6411Z" fill="#0F0F0F"/>
<path d="M14.4516 31.6411H22.5806V33.4476H14.4516V31.6411Z" fill="#0F0F0F"/>
<path d="M4.51611 26.1653H22.5806V27.9717H4.51611V26.1653Z" fill="#0F0F0F"/>
<path d="M24.3871 31.5282H30.7097V33.3347H24.3871V31.5282Z" fill="#0F0F0F"/>
<path d="M32.5161 31.5282H38.8387V33.3347H32.5161V31.5282Z" fill="#0F0F0F"/>
<path d="M24.3871 26.1653H38.8387V27.9717H24.3871V26.1653Z" fill="#0F0F0F"/>
<path d="M4.51611 37.1169H22.5806V38.9233H4.51611V37.1169Z" fill="#0F0F0F"/>
<path d="M4.51611 47.8427H22.5806V49.6492H4.51611V47.8427Z" fill="#0F0F0F"/>
<path d="M33.8427 38.8387H33.3911V37.0323H31.5847V38.8387H31.1331C29.3897 38.8387 27.9718 40.2566 27.9718 42C27.9718 43.7434 29.3897 45.1613 31.1331 45.1613H33.8427C34.5898 45.1613 35.1976 45.7691 35.1976 46.5162C35.1976 47.2633 34.5898 47.871 33.8427 47.871H31.1331C30.386 47.871 29.7782 47.2633 29.7782 46.5162V46.0645H27.9718V46.5162C27.9718 48.2595 29.3897 49.6775 31.1331 49.6775H31.5847V51.4839H33.3911V49.6775H33.8427C35.5861 49.6775 37.004 48.2595 37.004 46.5162C37.004 44.7728 35.5861 43.3549 33.8427 43.3549H31.1331C30.386 43.3549 29.7782 42.7471 29.7782 42C29.7782 41.2529 30.386 40.6452 31.1331 40.6452H33.8427C34.5898 40.6452 35.1976 41.2529 35.1976 42V42.4516H37.004V42C37.004 40.2566 35.5861 38.8387 33.8427 38.8387Z" fill="#0F0F0F"/>
</svg>
