<svg width="66" height="66" viewBox="0 0 66 66" fill="none" xmlns="http://www.w3.org/2000/svg">
<path d="M5.89005 13.2073C5.54213 12.9991 5.09161 13.1119 4.88301 13.4598C2.58803 17.2938 1.37504 21.6941 1.37504 26.186C1.37504 32.8135 3.95586 39.0439 8.64199 43.73C13.1916 48.2796 19.1967 50.8448 25.6077 50.9904C25.4529 50.5026 25.3098 50.0081 25.1788 49.5074C12.7727 48.9781 2.84319 38.7201 2.84319 26.186C2.84319 21.9598 3.98425 17.82 6.14256 14.214C6.35079 13.866 6.23797 13.4155 5.89005 13.2073Z" fill="black"/>
<path d="M46.5538 14.7908C46.6935 14.7878 46.8334 14.7863 46.9736 14.7863C47.4048 14.7863 47.8333 14.8004 48.2586 14.8282C47.0951 12.5733 45.5759 10.4878 43.73 8.64195C39.0439 3.95582 32.8132 1.375 26.186 1.375C18.6329 1.375 11.5825 4.75425 6.84333 10.6462C6.58892 10.9623 6.63927 11.4246 6.95501 11.6786C7.27113 11.9326 7.733 11.8823 7.98703 11.5665C12.4464 6.02251 19.0796 2.84315 26.186 2.84315C34.9219 2.84315 42.5525 7.66687 46.5538 14.7908Z" fill="black"/>
<path d="M5.89005 13.2073C5.54213 12.9991 5.09161 13.1119 4.88301 13.4598C2.58803 17.2938 1.37504 21.6941 1.37504 26.186C1.37504 32.8135 3.95586 39.0439 8.64199 43.73C13.1916 48.2796 19.1967 50.8448 25.6077 50.9904C25.4529 50.5026 25.3098 50.0081 25.1788 49.5074C12.7727 48.9781 2.84319 38.7201 2.84319 26.186C2.84319 21.9598 3.98425 17.82 6.14256 14.214C6.35079 13.866 6.23797 13.4155 5.89005 13.2073Z" stroke="#0F0F0F" stroke-width="0.5"/>
<path d="M46.5538 14.7908C46.6935 14.7878 46.8334 14.7863 46.9736 14.7863C47.4048 14.7863 47.8333 14.8004 48.2586 14.8282C47.0951 12.5733 45.5759 10.4878 43.73 8.64195C39.0439 3.95582 32.8132 1.375 26.186 1.375C18.6329 1.375 11.5825 4.75425 6.84333 10.6462C6.58892 10.9623 6.63927 11.4246 6.95501 11.6786C7.27113 11.9326 7.733 11.8823 7.98703 11.5665C12.4464 6.02251 19.0796 2.84315 26.186 2.84315C34.9219 2.84315 42.5525 7.66687 46.5538 14.7908Z" stroke="#0F0F0F" stroke-width="0.5"/>
<path d="M42.8135 15.2318C39.2464 9.83531 33.1248 6.26849 26.1859 6.26849C15.2035 6.26849 6.26853 15.2035 6.26853 26.1859C6.26853 36.5946 14.2944 45.1642 24.4826 46.0311C24.4131 45.5381 24.355 45.0406 24.3087 44.5389C21.91 44.2954 19.646 43.5904 17.606 42.5146L18.2087 41.4709C18.4113 41.1199 18.2909 40.6709 17.9399 40.468C17.589 40.2655 17.14 40.3859 16.9375 40.7368L16.3359 41.7787C14.0239 40.3132 12.0586 38.3479 10.5935 36.0355L11.6354 35.4343C11.9863 35.2314 12.1067 34.7824 11.9038 34.4315C11.7012 34.0801 11.2522 33.9601 10.9013 34.1627L9.85752 34.7654C8.61198 32.4045 7.86389 29.7427 7.75297 26.9196H8.96027C9.36574 26.9196 9.69435 26.591 9.69435 26.1855C9.69435 25.7804 9.36574 25.4518 8.96027 25.4518H7.75297C7.86389 22.6287 8.61198 19.9669 9.85752 17.606L10.9013 18.2087C11.0168 18.2753 11.1428 18.3071 11.2674 18.3071C11.521 18.3071 11.7679 18.1754 11.9038 17.9399C12.1067 17.589 11.9863 17.14 11.6354 16.937L10.5935 16.3358C12.059 14.0238 14.0242 12.0586 16.3359 10.5931L16.9375 11.6349C17.0734 11.8704 17.3202 12.0022 17.5739 12.0022C17.6984 12.0022 17.8245 11.9704 17.9403 11.9037C18.2913 11.7008 18.4117 11.2518 18.2087 10.9009L17.6064 9.85711C19.9673 8.61194 22.6291 7.86347 25.4518 7.75255V8.96061C25.4518 9.3657 25.7805 9.69469 26.1859 9.69469C26.5914 9.69469 26.92 9.3657 26.92 8.96061V7.75293C29.7431 7.86385 32.4046 8.61232 34.7658 9.85748L34.1631 10.9012C33.9606 11.2522 34.0809 11.7012 34.4319 11.9041C34.5474 11.9707 34.6734 12.0025 34.798 12.0025C35.0516 12.0025 35.2985 11.8708 35.4344 11.6353L36.036 10.5935C38.1062 11.9057 39.8982 13.6187 41.3027 15.6226C41.8 15.4728 42.3037 15.3423 42.8135 15.2318Z" fill="black" stroke="#0F0F0F" stroke-width="0.5"/>
<path fill-rule="evenodd" clip-rule="evenodd" d="M22.5376 26.5824L17.7784 31.3408L17.7772 31.3416C17.1609 31.9583 16.9682 32.8408 17.1991 33.6233C17.3044 33.9792 17.4971 34.3142 17.7772 34.5948C18.2119 35.0294 18.7896 35.2687 19.4033 35.2687C20.0192 35.2687 20.5977 35.029 21.0312 34.5936L25.659 29.9651C25.6999 29.9238 25.7347 29.8787 25.7639 29.8314C25.9024 29.8473 26.0433 29.8564 26.186 29.8564C26.933 29.8564 27.6284 29.6315 28.2084 29.2465L28.2219 29.26L29.4296 27.9015C29.7017 27.3892 29.8564 26.8055 29.8564 26.186C29.8564 25.0325 29.3211 24.002 28.4863 23.3288V18.8945C28.4863 18.489 28.1577 18.1604 27.7522 18.1604C27.3467 18.1604 27.0181 18.489 27.0181 18.8945V22.6122C26.7505 22.5497 26.4722 22.516 26.186 22.516C25.8998 22.516 25.6215 22.5497 25.3542 22.6122V13.6582C25.3542 13.4356 25.4409 13.2263 25.5981 13.0684C25.754 12.9128 25.9634 12.8261 26.186 12.8261C26.6448 12.8261 27.0181 13.1994 27.0181 13.6582V15.477C27.0181 15.8824 27.3467 16.211 27.7522 16.211C28.1577 16.211 28.4863 15.8824 28.4863 15.477V13.6582C28.4863 12.39 27.4543 11.3583 26.186 11.3583C25.5727 11.3583 24.995 11.5968 24.56 12.0303C24.1246 12.4672 23.8861 13.0446 23.8861 13.6582V23.3288C23.0513 24.002 22.516 25.0325 22.516 26.186C22.516 26.32 22.5236 26.4522 22.5376 26.5824ZM26.186 23.9838C27.4001 23.9838 28.3882 24.9719 28.3882 26.186C28.3882 27.4001 27.4001 28.3882 26.186 28.3882C24.9719 28.3882 23.9838 27.4001 23.9838 26.186C23.9838 24.9719 24.9719 23.9838 26.186 23.9838ZM19.4033 33.8005C19.1814 33.8005 18.9728 33.7138 18.8153 33.5567C18.4909 33.2322 18.4909 32.7041 18.8153 32.3801L23.0714 28.1248C23.3686 28.6003 23.7718 29.0034 24.2473 29.3006L19.9923 33.5567C19.8549 33.6945 19.6777 33.7778 19.4862 33.7967C19.4589 33.7994 19.4313 33.8005 19.4033 33.8005Z" fill="black" stroke="#0F0F0F" stroke-width="0.5"/>
<path d="M61.408 47.9935C61.5369 46.615 62.7818 43.2945 63.2771 42.0638C64.5808 39.5605 65.2275 36.7671 65.1566 33.9456C65.0858 31.124 64.2996 28.3667 62.8719 25.932C61.6567 23.821 59.9857 22.008 57.9808 20.625C55.9758 19.2419 53.6874 18.3239 51.2826 17.9377C51.2826 17.9169 51.2826 17.8958 51.2826 17.875H46.3081C42.1685 18.4106 38.3468 20.3778 35.5055 23.4356C32.6641 26.4934 30.9823 30.449 30.7515 34.6167C30.7339 34.9059 30.7264 37.0337 30.724 37.9547L28.1257 44.7595L27.5 47.2205C27.5839 47.6443 27.8125 48.0258 28.1468 48.2996C28.481 48.5734 28.9 48.7225 29.3321 48.7213H33.1424V51.6098C32.696 51.6181 32.2556 51.7143 31.8463 51.8928C31.4371 52.0713 31.067 52.3287 30.7572 52.6503C30.4474 52.9718 30.204 53.3512 30.0409 53.7669C29.8777 54.1825 29.7981 54.6262 29.8064 55.0726C29.8147 55.519 29.9109 55.9594 30.0894 56.3687C30.2679 56.7779 30.5253 57.148 30.8469 57.4578C31.1684 57.7676 31.5479 58.011 31.9635 58.1741C32.3791 58.3372 32.8228 58.4169 33.2692 58.4086H33.3084L40.0255 58.3058C40.1829 58.3036 40.3382 58.2683 40.4811 58.2022C40.624 58.1362 40.7515 58.0408 40.8552 57.9223C41.5772 57.9188 42.3376 57.9155 43.0024 57.9126H43.0079C43.2923 57.9121 43.5687 58.0069 43.7929 58.1818C44.0172 58.3566 44.1764 58.6016 44.2453 58.8775L45.6471 64.4527C45.7084 64.6964 45.8493 64.9126 46.0474 65.0671C46.2456 65.2216 46.4896 65.3055 46.7409 65.3056H62.3443C62.5172 65.3056 62.6877 65.2658 62.8427 65.1894C62.9978 65.113 63.1332 65.0021 63.2385 64.865C63.3439 64.728 63.4163 64.5686 63.4502 64.3991C63.4841 64.2296 63.4787 64.0546 63.4342 63.8876C63.4085 63.7892 60.8426 54.0688 61.408 47.9935ZM50.0336 37.2846C51.0641 37.2871 52.0523 37.694 52.7858 38.4178C53.5192 39.1416 53.9391 40.1244 53.9553 41.1547L53.9638 41.7855C53.9707 42.302 53.8756 42.8147 53.6839 43.2943C53.4921 43.774 53.2076 44.211 52.8465 44.5804C52.4854 44.9497 52.055 45.2442 51.5799 45.4468C51.1047 45.6494 50.5943 45.7561 50.0778 45.761H50.041C49.0107 45.7585 48.0224 45.3516 47.289 44.6279C46.5556 43.9042 46.1356 42.9214 46.1194 41.8912L46.1109 41.2602C46.1039 40.7437 46.199 40.231 46.3907 39.7513C46.5824 39.2717 46.867 38.8347 47.228 38.4653C47.5891 38.0959 48.0195 37.8015 48.4946 37.5989C48.9698 37.3963 49.4802 37.2895 49.9967 37.2847L50.0336 37.2846ZM33.279 56.1532C32.9773 56.1548 32.6872 56.0373 32.4715 55.8264C32.2559 55.6154 32.1321 55.3279 32.127 55.0263C32.1219 54.7246 32.2359 54.4331 32.4444 54.215C32.6528 53.9969 32.9388 53.8697 33.2404 53.8611H38.8325L38.8647 56.0678L33.279 56.1532ZM41.0871 53.7559L41.0719 52.7169C41.0677 52.4206 40.947 52.1378 40.7359 51.9297C40.5248 51.7217 40.2403 51.6051 39.944 51.6051H35.3989V47.5937C35.3989 47.2945 35.2801 47.0077 35.0685 46.7961C34.857 46.5846 34.5701 46.4658 34.271 46.4658H29.8896L32.905 38.567C32.9538 38.4394 32.9789 38.304 32.9793 38.1674C32.9827 36.6657 32.9924 34.9588 33.0037 34.7467C33.2134 30.7549 34.9494 26.9964 37.8526 24.2486C40.7558 21.5008 44.604 19.974 48.6013 19.9839C48.6601 19.9839 48.7206 19.9839 48.7794 19.985C48.806 19.985 48.8325 19.9865 48.859 19.987V35.1413C47.4363 35.4169 46.1557 36.1838 45.2411 37.3079C44.3266 38.432 43.8362 39.8418 43.8558 41.2908L43.8643 41.9218C43.8864 43.319 44.3802 44.6677 45.2655 45.7489C46.1508 46.83 47.3756 47.5801 48.741 47.8773L48.7534 49.1997C48.7645 50.3912 48.3019 51.5383 47.4674 52.3888C46.633 53.2394 45.4949 53.7237 44.3034 53.7354L41.0871 53.7559ZM61.2063 41.1676C61.0164 41.6365 59.3458 45.8059 59.1618 47.7845C58.6876 52.8784 60.1877 60.0317 60.902 63.0492H47.6207L46.433 58.3267C46.3053 57.8167 46.065 57.3417 45.7299 56.9365C45.3948 56.5314 44.9732 56.2064 44.4961 55.9853C46.255 55.9243 47.9204 55.1784 49.137 53.9068C50.3536 52.6351 51.0252 50.9384 51.0085 49.1786L50.997 47.9435C52.4666 47.7131 53.8038 46.9605 54.7632 45.8237C55.7226 44.6869 56.2398 43.2423 56.22 41.7549L56.2115 41.124C56.1887 39.6884 55.668 38.3052 54.7382 37.2111C53.8084 36.1169 52.5274 35.3798 51.1142 35.1257V20.1969C53.1522 20.5537 55.0871 21.3538 56.7819 22.5406C58.4767 23.7275 59.8901 25.2721 60.9222 27.0654C62.1619 29.1792 62.8428 31.574 62.9005 34.0239C62.9582 36.4737 62.391 38.8979 61.2522 41.0678C61.2351 41.1002 61.2198 41.1335 61.2063 41.1676Z" fill="#0F0F0F"/>
<path fill-rule="evenodd" clip-rule="evenodd" d="M31.9956 33.9503C31.9956 33.9503 31.9957 33.9504 32.3125 33C32.6293 32.0496 32.6294 32.0496 32.6295 32.0497L32.6338 32.0511L32.6442 32.0546L32.6822 32.0675C32.7149 32.0786 32.7622 32.0949 32.8224 32.1159C32.9427 32.1578 33.1147 32.2189 33.3248 32.2963C33.7444 32.4509 34.3198 32.6721 34.9415 32.9386C35.5611 33.2041 36.2392 33.5199 36.8595 33.8645C37.466 34.2014 38.0781 34.5989 38.5209 35.0416C38.8345 35.3552 39.0412 35.7458 39.0859 36.1928C39.1289 36.6225 39.0126 37.0077 38.8589 37.3152C38.5654 37.9022 38.0373 38.3999 37.5789 38.7666C37.0977 39.1516 36.5804 39.4796 36.1935 39.7072C35.9978 39.8223 35.8304 39.9147 35.7107 39.9789C35.6508 40.0111 35.6026 40.0363 35.5684 40.0539L35.5281 40.0746L35.5163 40.0806L35.5127 40.0824L35.5114 40.0831C35.5112 40.0832 35.5105 40.0835 35.0625 39.1875C34.6145 38.2915 34.6143 38.2915 34.6142 38.2916L34.6205 38.2884L34.6485 38.274C34.6741 38.2608 34.7132 38.2404 34.7634 38.2134C34.8639 38.1595 35.0081 38.08 35.1776 37.9803C35.5211 37.7782 35.9492 37.5046 36.3273 37.2021C36.7269 36.8824 36.972 36.6074 37.0659 36.4211C36.8169 36.1844 36.4123 35.9081 35.8865 35.6159C35.3467 35.3161 34.7358 35.0302 34.1522 34.7801C33.5708 34.531 33.029 34.3225 32.6322 34.1763C32.4341 34.1034 32.2731 34.0462 32.1625 34.0076C32.1072 33.9883 32.0645 33.9737 32.0361 33.964L32.0045 33.9533L31.9972 33.9509L31.9956 33.9503ZM37.0925 36.3552C37.0927 36.3545 37.0925 36.3552 37.0925 36.3552V36.3552Z" fill="#0F0F0F"/>
</svg>
