<svg width="60" height="60" viewBox="0 0 60 60" fill="none" xmlns="http://www.w3.org/2000/svg">
<path fill-rule="evenodd" clip-rule="evenodd" d="M58.0645 16.4516V50.3226H60V55.1613C60 57.8292 57.8292 60 55.1613 60H4.83871C2.1708 60 0 57.8292 0 55.1613V50.3226H1.93548V16.4516C1.93548 13.7837 4.10629 11.6129 6.77419 11.6129H9.67742V0H50.3226V11.6129H53.2258C55.8937 11.6129 58.0645 13.7837 58.0645 16.4516ZM38.7097 52.2581H21.2903V53.2258C21.2903 53.7588 21.7241 54.1935 22.2581 54.1935H37.7419C38.2759 54.1935 38.7097 53.7588 38.7097 53.2258V52.2581ZM48.3871 9.67742H11.6129V42.5806H48.3871V9.67742ZM48.3871 7.74194V1.93548H11.6129V7.74194H48.3871ZM55.1613 58.0645C56.7617 58.0645 58.0645 56.7617 58.0645 55.1613V52.2581H40.6452V53.2258C40.6452 54.8263 39.3424 56.129 37.7419 56.129H22.2581C20.6576 56.129 19.3548 54.8263 19.3548 53.2258V52.2581H1.93548V55.1613C1.93548 56.7617 3.23825 58.0645 4.83871 58.0645H55.1613ZM56.129 16.4516C56.129 14.8512 54.8263 13.5484 53.2258 13.5484H50.3226V15.4839V17.4194V44.5161H9.67742V17.4194V15.4839V13.5484H6.77419C5.17373 13.5484 3.87097 14.8512 3.87097 16.4516V50.3226H5.80645H7.74194H52.2581H54.1935H56.129V16.4516Z" fill="#0F0F0F"/>
<path d="M5.8064 54.1935H7.74188V56.129H5.8064V54.1935Z" fill="#0F0F0F"/>
<path d="M9.67737 54.1935H11.6129V56.129H9.67737V54.1935Z" fill="#0F0F0F"/>
<path d="M36 3.75H37.9355V5.68548H36V3.75Z" fill="#0F0F0F"/>
<path d="M39.871 3.75H41.8065V5.68548H39.871V3.75Z" fill="#0F0F0F"/>
<path d="M43.7419 3.75H45.6774V5.68548H43.7419V3.75Z" fill="#0F0F0F"/>
<path d="M30.0504 27.6163C29.691 27.6163 29.3397 27.4948 29.0408 27.267C28.742 27.0392 28.509 26.7154 28.3715 26.3366C28.234 25.9579 28.1981 25.5411 28.2683 25.139C28.3385 24.737 28.5116 24.3677 28.7658 24.0779C29.0201 23.788 29.344 23.5907 29.6964 23.5109C30.0491 23.431 30.4144 23.4722 30.7465 23.6292C31.0785 23.7862 31.3623 24.0521 31.5618 24.393C31.7614 24.734 31.8678 25.1348 31.8677 25.5448H33.4216C33.4216 24.7843 33.2239 24.0409 32.8535 23.4086C32.483 22.7763 31.9565 22.2835 31.3405 21.9924C30.7245 21.7014 30.0467 21.6252 29.3928 21.7736C28.7388 21.9219 28.1381 22.2882 27.6667 22.826C27.1952 23.3636 26.8741 24.0488 26.7441 24.7946C26.614 25.5405 26.6808 26.3136 26.936 27.0162C27.1911 27.7189 27.6232 28.3193 28.1775 28.7418C28.732 29.1643 29.3837 29.3899 30.0504 29.3899H43.9075V27.6163H30.0504Z" fill="#0F0F0F"/>
<path d="M43.9075 32.2448V30.3569H30.0505C29.2162 30.3569 28.4004 30.0748 27.7066 29.546C27.0129 29.0173 26.4722 28.2658 26.1528 27.3864C25.8335 26.5073 25.75 25.5396 25.9127 24.6062C26.0755 23.6728 26.4773 22.8153 27.0674 22.1424C27.6573 21.4694 28.4091 21.0111 29.2275 20.8255C30.0459 20.6399 30.8942 20.7351 31.6651 21.0993C32.4359 21.4636 33.0948 22.0803 33.5584 22.8716C34.022 23.663 34.2694 24.5933 34.2694 25.545H35.9245C35.9245 24.2199 35.58 22.9245 34.9346 21.8228C34.2891 20.721 33.3717 19.8623 32.2984 19.3552C31.2251 18.8481 30.044 18.7155 28.9045 18.974C27.7651 19.2324 26.7185 19.8705 25.8969 20.8075C25.0755 21.7446 24.516 22.9383 24.2894 24.238C24.0627 25.5376 24.1791 26.8847 24.6237 28.1089C25.0682 29.3331 25.8212 30.3795 26.7871 31.1158C27.7531 31.852 28.8888 32.2448 30.0505 32.2448H43.9075Z" fill="#0F0F0F"/>
<path d="M18.9006 32.25V23.2509H17.25V21.4141H20.3902V32.25H18.9006Z" fill="#0F0F0F"/>
<path d="M18.8982 20.6786H21.0716V32.2486H22.6014V18.75H18.8982V20.6786Z" fill="#0F0F0F"/>
</svg>
