<svg width="66" height="66" viewBox="0 0 66 66" fill="none" xmlns="http://www.w3.org/2000/svg">
<g clip-path="url(#clip0)">
<path d="M42.7207 30.465C42.4829 29.7332 41.8063 29.2416 41.0368 29.2416H32.757L30.1984 21.3671C29.9607 20.6353 29.2839 20.1435 28.5145 20.1435C27.745 20.1435 27.0683 20.6351 26.8306 21.3669L24.2719 29.2414H15.9921C15.2227 29.2414 14.5459 29.7331 14.3081 30.4649C14.0704 31.1967 14.3289 31.9923 14.9513 32.4445L21.6498 37.3112L19.0912 45.1857C18.8533 45.9175 19.1119 46.7131 19.7344 47.1653C20.3569 47.6177 21.1934 47.6177 21.8159 47.1653L28.5143 42.2986L35.2128 47.1653C35.5241 47.3914 35.8888 47.5046 36.2536 47.5046C36.6184 47.5046 36.9831 47.3916 37.2944 47.1653C37.9169 46.7131 38.1753 45.9175 37.9376 45.1857L35.379 37.3112L42.0775 32.4445C42.7 31.9923 42.9584 31.1967 42.7207 30.465ZM34.1468 35.8167C33.5243 36.2689 33.2658 37.0644 33.5035 37.7963L35.9437 45.3064L29.5551 40.6649C28.9326 40.2125 28.096 40.2128 27.4737 40.6649L21.0851 45.3065L23.5253 37.7963C23.7631 37.0645 23.5047 36.2689 22.882 35.8167L16.4936 31.1752H24.3902C25.1597 31.1752 25.8364 30.6835 26.0741 29.9517L28.5143 22.4415L30.9545 29.9517C31.1924 30.6835 31.8691 31.1752 32.6384 31.1752H40.535L34.1468 35.8167Z" fill="#0F0F0F"/>
<path d="M52.3713 46.8367C49.8831 46.8367 47.8587 48.8611 47.8587 51.3494C47.8587 53.8377 49.8831 55.862 52.3713 55.862C54.8596 55.862 56.884 53.8377 56.884 51.3494C56.884 48.8611 54.8596 46.8367 52.3713 46.8367ZM52.3713 53.9284C50.9492 53.9284 49.7923 52.7715 49.7923 51.3494C49.7923 49.9273 50.9492 48.7703 52.3713 48.7703C53.7934 48.7703 54.9504 49.9273 54.9504 51.3494C54.9504 52.7715 53.7934 53.9284 52.3713 53.9284Z" fill="#0F0F0F"/>
<path d="M63.6259 48.0067H63.2737C63.0618 47.315 62.7837 46.6443 62.4437 46.0044L62.6933 45.7548C63.6189 44.829 63.6189 43.3229 62.6933 42.3971L61.324 41.0277C60.8755 40.5793 60.2793 40.3321 59.6451 40.3321C59.0109 40.3321 58.4147 40.5791 57.9664 41.0276L57.7168 41.2773C57.077 40.9371 56.4063 40.6592 55.7145 40.4473V40.0951C55.7145 38.7859 54.6493 37.7208 53.3402 37.7208H51.4036C50.0944 37.7208 49.0293 38.7859 49.0293 40.0951V40.4473C48.3373 40.6592 47.6667 40.9371 47.027 41.2772L46.7774 41.0277C46.329 40.5793 45.7328 40.3321 45.0985 40.3321C44.4643 40.3321 43.8681 40.5791 43.4197 41.0276L42.0502 42.3971C41.1246 43.3229 41.1246 44.8292 42.0503 45.755L42.2999 46.0044C41.9597 46.6443 41.6818 47.3149 41.4698 48.0067H41.1177C39.8085 48.0067 38.7435 49.0719 38.7435 50.3809V52.3176C38.7435 53.6268 39.8086 54.6918 41.1177 54.6918H41.4698C41.6819 55.3836 41.9598 56.0543 42.2999 56.6941L42.0502 56.9436C41.1246 57.8695 41.1246 59.3757 42.0503 60.3014L43.4195 61.6706C43.868 62.1192 44.4642 62.3662 45.0985 62.3662C45.7328 62.3662 46.329 62.1192 46.7773 61.6708L47.0269 61.4212C47.6667 61.7613 48.3373 62.0393 49.0292 62.2512V62.6034C49.0292 63.9127 50.0943 64.9777 51.4035 64.9777H53.34C54.6493 64.9777 55.7144 63.9126 55.7144 62.6034V62.2512C56.4062 62.0393 57.0768 61.7613 57.7167 61.4212L57.966 61.6705C58.4144 62.1191 59.0106 62.3661 59.645 62.3661C60.2792 62.3661 60.8755 62.1191 61.3238 61.6706L62.6933 60.3011C63.6189 59.3753 63.6189 57.8691 62.6932 56.9434L62.4437 56.6938C62.7838 56.0539 63.0618 55.3834 63.2737 54.6915H63.626C64.9352 54.6915 66.0002 53.6264 66.0002 52.3173V50.3806C66 49.0719 64.9349 48.0067 63.6259 48.0067ZM64.0665 52.3176C64.0665 52.5606 63.8687 52.7582 63.6259 52.7582H62.8577C62.2315 52.7582 61.6829 53.1782 61.5235 53.7794C61.3086 54.5911 60.9851 55.3718 60.5619 56.0997C60.2488 56.6388 60.3393 57.3244 60.7821 57.767L61.3258 58.3107C61.4976 58.4825 61.4976 58.7623 61.3259 58.9341L59.9564 60.3036C59.7875 60.4725 59.5023 60.4726 59.3333 60.3035L58.7892 59.7595C58.5276 59.4982 58.1802 59.3542 57.8112 59.3542C57.5693 59.3542 57.331 59.4184 57.122 59.5398C56.3943 59.9628 55.6137 60.2863 54.802 60.5013C54.2006 60.6605 53.7806 61.2092 53.7806 61.8354V62.6034C53.7806 62.8464 53.5829 63.0441 53.3399 63.0441H51.4034C51.1604 63.0441 50.9626 62.8464 50.9626 62.6034V61.8354C50.9626 61.2092 50.5426 60.6605 49.9414 60.5013C49.1297 60.2863 48.349 59.9629 47.6214 59.5398C47.4124 59.4184 47.1741 59.3542 46.9322 59.3542C46.5629 59.3542 46.2155 59.4982 45.954 59.7597L45.41 60.3037C45.2411 60.4726 44.956 60.4727 44.7869 60.3036L43.4175 58.9342C43.2456 58.7624 43.2456 58.4828 43.4174 58.311L43.9615 57.767C44.404 57.3242 44.4944 56.6385 44.1813 56.0996C43.7582 55.3718 43.4346 54.5912 43.2197 53.7794C43.0605 53.178 42.5118 52.7582 41.8856 52.7582H41.1175C40.8745 52.7582 40.6769 52.5605 40.6769 52.3176V50.3809C40.6769 50.1379 40.8747 49.9403 41.1175 49.9403H41.8856C42.5118 49.9403 43.0605 49.5203 43.2197 48.9191C43.4346 48.1075 43.7582 47.3269 44.1814 46.5989C44.4945 46.0601 44.4041 45.3744 43.9613 44.9314L43.4176 44.3878C43.2458 44.216 43.2458 43.9364 43.4175 43.7645L44.787 42.395C44.9558 42.226 45.241 42.226 45.4102 42.3952L45.9537 42.9386C46.2153 43.2003 46.5628 43.3444 46.9324 43.3444C47.1743 43.3444 47.4127 43.2802 47.6215 43.1588C48.3492 42.7357 49.1297 42.4123 49.9419 42.1973C50.543 42.0378 50.9627 41.4892 50.9627 40.8632V40.0952C50.9627 39.8522 51.1605 39.6545 51.4035 39.6545H53.34C53.583 39.6545 53.7808 39.8522 53.7808 40.0952V40.8632C53.7808 41.4893 54.2006 42.038 54.8021 42.1974C55.6139 42.4124 56.3946 42.736 57.1224 43.1591C57.3312 43.2804 57.5695 43.3444 57.8112 43.3444C58.1805 43.3444 58.5279 43.2004 58.7894 42.9389L59.3334 42.3949C59.5023 42.226 59.7874 42.2259 59.9565 42.395L61.3259 43.7644C61.4977 43.9362 61.4977 44.2158 61.3259 44.3875L60.7821 44.9314C60.3393 45.3742 60.2488 46.0598 60.5621 46.5989C60.9852 47.3269 61.3088 48.1074 61.5237 48.919C61.6829 49.5203 62.2315 49.9403 62.8578 49.9403H63.626C63.869 49.9403 64.0666 50.138 64.0666 50.3809V52.3176H64.0665Z" fill="#0F0F0F"/>
<path d="M37.6011 56.5051H3.38611C2.58521 56.5051 1.93359 55.8535 1.93359 55.0526V17.3012H55.095V36.6588C55.095 37.1927 55.5279 37.6256 56.0618 37.6256C56.5958 37.6256 57.0286 37.1927 57.0286 36.6588V8.82923C57.0286 6.96215 55.5096 5.44312 53.6425 5.44312H51.3061V4.52956C51.3061 2.59558 49.7327 1.02228 47.7988 1.02228C45.865 1.02228 44.2915 2.59571 44.2915 4.52956V5.44312H38.4499V4.52956C38.4499 2.59558 36.8765 1.02228 34.9426 1.02228C33.0088 1.02228 31.4353 2.59571 31.4353 4.52956V5.44312H25.5937V4.52956C25.5937 2.59558 24.0203 1.02228 22.0864 1.02228C20.1526 1.02228 18.5791 2.59571 18.5791 4.52956V5.44312H12.7372V4.52956C12.7372 2.59558 11.1638 1.02228 9.22995 1.02228C7.29609 1.02228 5.72254 2.59558 5.72254 4.52956V5.44312H3.38611C1.51903 5.44312 0 6.96215 0 8.82923V55.0527C0 56.9198 1.51903 58.4388 3.38611 58.4388H37.6011C38.1351 58.4388 38.5679 58.0059 38.5679 57.472C38.5679 56.9381 38.1351 56.5051 37.6011 56.5051ZM46.2251 4.52956C46.2251 3.66176 46.9312 2.95587 47.7988 2.95587C48.6665 2.95587 49.3725 3.66189 49.3725 4.52956V8.32701C49.3725 9.19468 48.6665 9.9007 47.7988 9.9007C46.9312 9.9007 46.2251 9.19468 46.2251 8.32701V4.52956ZM33.3688 4.52956C33.3688 3.66176 34.0748 2.95587 34.9425 2.95587C35.8103 2.95587 36.5162 3.66189 36.5162 4.52956V8.32701C36.5162 9.19468 35.8102 9.9007 34.9425 9.9007C34.0748 9.9007 33.3688 9.19468 33.3688 8.32701V4.52956ZM20.5123 4.52956C20.5123 3.66176 21.2184 2.95587 22.086 2.95587C22.9537 2.95587 23.6597 3.66189 23.6597 4.52956V8.32701C23.6597 9.19468 22.9537 9.9007 22.086 9.9007C21.2184 9.9007 20.5123 9.19468 20.5123 8.32701V4.52956ZM7.65613 4.52956C7.65613 3.66176 8.36215 2.95587 9.22982 2.95587C10.0975 2.95587 10.8036 3.66176 10.8036 4.52956V8.32701C10.8036 9.19468 10.0976 9.9007 9.22995 9.9007C8.36228 9.9007 7.65626 9.19468 7.65626 8.32701L7.65613 4.52956ZM1.93359 8.82923C1.93359 8.02833 2.58521 7.37671 3.38611 7.37671H5.72254V8.32701C5.72254 10.2609 7.29597 11.8343 9.22982 11.8343C11.1637 11.8343 12.7372 10.2609 12.7372 8.32701V7.37671H18.5789V8.32701C18.5789 10.2609 20.1523 11.8343 22.0862 11.8343C24.02 11.8343 25.5934 10.2609 25.5934 8.32701V7.37671H31.4351V8.32701C31.4351 10.2609 33.0085 11.8343 34.9424 11.8343C36.8763 11.8343 38.4496 10.2609 38.4496 8.32701V7.37671H44.2913V8.32701C44.2913 10.2609 45.8647 11.8343 47.7986 11.8343C49.7324 11.8343 51.3059 10.2609 51.3059 8.32701V7.37671H53.6423C54.4432 7.37671 55.0948 8.02833 55.0948 8.82923V15.3677H1.93359V8.82923Z" fill="#0F0F0F"/>
<path fill-rule="evenodd" clip-rule="evenodd" d="M33 53.9H1.1V52.03H33V53.9Z" fill="#0F0F0F"/>
<path d="M15.125 22.825H11.275V20.9H15.125V22.825ZM9.35 22.825H5.5V20.9H9.35V22.825Z" fill="#0F0F0F"/>
<path d="M50.325 22.825H46.475V20.9H50.325V22.825ZM44.55 22.825H40.7V20.9H44.55V22.825Z" fill="#0F0F0F"/>
</g>
<defs>
<clipPath id="clip0">
<rect width="66" height="66" fill="white"/>
</clipPath>
</defs>
</svg>
