<svg width="76" height="71" viewBox="0 0 76 71" fill="none" xmlns="http://www.w3.org/2000/svg">
<path d="M61.7948 44.546H59.0486V42.0713H61.7948C67.797 42.0713 72.6817 37.076 72.6817 30.9347C72.6817 25.1844 68.4683 20.4204 62.8822 19.8537L61.7925 19.7436L61.7974 18.4987C61.795 9.69084 54.74 2.47451 46.0691 2.47451C40.0327 2.47451 34.4574 6.09389 31.8649 11.6955L31.2614 12.9985L30.0941 12.1917C29.0949 11.5012 27.9263 11.1364 26.7142 11.1364C24.3469 11.1364 22.1852 12.5655 21.2066 14.7779L20.7673 15.7715L19.7489 15.451C18.4787 15.0514 17.1602 14.8484 15.8269 14.8484C8.49022 14.8484 2.52068 20.955 2.52068 28.4598C2.52068 35.9647 8.49048 42.0713 15.8269 42.0713H16.1537V44.546H15.8269C7.15603 44.546 0.101318 37.3297 0.101318 28.46C0.101318 19.5905 7.15603 12.3739 15.8269 12.3739C17.0644 12.3739 18.2923 12.5225 19.49 12.8144C21.0154 10.2618 23.7493 8.66186 26.7142 8.66186C27.9553 8.66186 29.1651 8.93534 30.2732 9.46119C33.4691 3.67403 39.5356 0 46.0691 0C55.7416 0 63.6698 7.77939 64.1875 17.5437C70.4801 18.7006 75.1013 24.2763 75.1013 30.9347C75.1013 38.4394 69.1316 44.546 61.7948 44.546Z" fill="#465861"/>
<path d="M37.601 71.0001C50.2947 71.0001 60.5849 60.474 60.5849 47.4896C60.5849 34.505 50.2947 23.979 37.601 23.979C24.9073 23.979 14.617 34.505 14.617 47.4896C14.617 60.474 24.9073 71.0001 37.601 71.0001Z" fill="#FFD205"/>
<path d="M37.5136 49.8019C37.0554 49.8019 36.6075 49.6615 36.2265 49.3985C35.8455 49.1355 35.5486 48.7617 35.3733 48.3243C35.1979 47.887 35.1521 47.4057 35.2416 46.9415C35.3311 46.4772 35.5518 46.0508 35.8759 45.7161C36.2 45.3815 36.6129 45.1536 37.0624 45.0614C37.5118 44.9692 37.9776 45.0168 38.4009 45.1981C38.8242 45.3794 39.1859 45.6863 39.4403 46.0801C39.6947 46.4738 39.8304 46.9366 39.8302 47.41H41.8113C41.8113 46.5319 41.5592 45.6735 41.087 44.9434C40.6148 44.2133 39.9435 43.6442 39.1583 43.3082C38.373 42.9721 37.5088 42.8842 36.6752 43.0555C35.8415 43.2268 35.0757 43.6497 34.4747 44.2706C33.8737 44.8915 33.4643 45.6826 33.2985 46.5438C33.1327 47.405 33.2178 48.2977 33.5431 49.109C33.8684 49.9202 34.4192 50.6136 35.126 51.1015C35.8327 51.5893 36.6636 51.8497 37.5136 51.8497H55.179V49.8019H37.5136Z" fill="#465861"/>
<path d="M55.1792 55.1467V52.9669H37.5138C36.45 52.9669 35.4102 52.641 34.5257 52.0305C33.6412 51.42 32.9519 50.5522 32.5448 49.537C32.1377 48.5217 32.0312 47.4046 32.2387 46.3268C32.4463 45.249 32.9585 44.259 33.7107 43.4819C34.4629 42.7049 35.4212 42.1757 36.4645 41.9613C37.5078 41.747 38.5892 41.857 39.572 42.2775C40.5547 42.6981 41.3947 43.4102 41.9858 44.3239C42.5767 45.2376 42.8921 46.3118 42.8921 47.4107H45.0022C45.0022 45.8807 44.5629 44.385 43.7402 43.1129C42.9173 41.8407 41.7477 40.8492 40.3794 40.2637C39.0111 39.6782 37.5054 39.525 36.0528 39.8235C34.6002 40.1219 33.2659 40.8587 32.2187 41.9406C31.1714 43.0225 30.4582 44.4009 30.1693 45.9015C29.8803 47.4022 30.0286 48.9576 30.5954 50.3711C31.1622 51.7847 32.122 52.9929 33.3534 53.843C34.5849 54.693 36.0327 55.1467 37.5138 55.1467H55.1792Z" fill="#465861"/>
<path d="M23.2994 55.1518V44.761H21.1951V42.6401H25.1983V55.1518H23.2994Z" fill="#465861"/>
<path d="M23.2962 41.7924H26.067V55.1517H28.0173V39.5654H23.2962V41.7924Z" fill="#465861"/>
</svg>
