<svg width="72" height="72" viewBox="0 0 72 72" fill="none" xmlns="http://www.w3.org/2000/svg">
<g clip-path="url(#clip0)">
<path d="M22.0291 19.7559H49.9198V31.377H22.0291V19.7559Z" fill="#FFD205"/>
<path d="M38.831 71.9999L36.0091 60.7124L38.2641 60.1473L40.0907 67.4536L42.7179 64.8264L45.7095 66.3216L42.996 57.2772L45.2226 56.6099L49.4818 70.8078L43.1758 67.6545L38.831 71.9999Z" fill="#465861"/>
<path d="M45.2714 16.2696H26.6775V9.29688H45.2714V16.2696Z" fill="#FFD205"/>
<path d="M22.0291 19.7559H34.8123V22.0801H22.0291V19.7559Z" fill="#465861"/>
<path d="M37.1366 19.7559H49.9198V22.0801H37.1366V19.7559Z" fill="#465861"/>
<path d="M22.0291 29.0527H34.8123V31.377H22.0291V29.0527Z" fill="#465861"/>
<path d="M47.5956 29.0527H49.9198V31.377H47.5956V29.0527Z" fill="#465861"/>
<path d="M37.1366 29.0527H45.2714V31.377H37.1366V29.0527Z" fill="#465861"/>
<path d="M22.0291 24.4043H49.9198V26.7285H22.0291V24.4043Z" fill="#465861"/>
<path d="M1.11099 0V55.7815H25.3338V53.4573H3.43522V2.32423H68.5137V53.4573H46.6156V55.7815H70.8379V0H1.11099Z" fill="#465861"/>
<path d="M15.2039 7.32423H57.2261C57.7385 10.8792 60.5507 13.6926 64.1057 14.2039V42.2807C60.5507 42.7931 57.7374 45.6054 57.2261 49.1604H48.0892V51.4846H66.43V5H6V51.4846H24.3391V49.1604H15.2039C14.6915 45.6054 11.8792 42.792 8.32423 42.2807V14.2039C11.8792 13.6926 14.6926 10.8792 15.2039 7.32423ZM64.1057 49.1604H59.5747C60.0383 46.8872 61.8326 45.093 64.1057 44.6294V49.1604ZM64.1057 7.32423V11.8552C61.8326 11.3916 60.0383 9.59739 59.5747 7.32423H64.1057ZM12.8552 7.32423C12.3916 9.59739 10.5974 11.3916 8.32423 11.8552V7.32423H12.8552ZM12.8552 49.1604H8.32423V44.6294C10.5974 45.093 12.3916 46.8872 12.8552 49.1604Z" fill="#465861"/>
<path d="M33.118 71.9999L28.7725 67.6545L22.4672 70.8078L26.7264 56.6099L28.953 57.2772L26.2395 66.3216L29.2305 64.8264L31.8583 67.4536L33.6849 60.1473L35.9399 60.7124L33.118 71.9999Z" fill="#465861"/>
<path d="M35.9745 61.5919C34.6869 61.5919 33.4885 61.0665 32.6232 60.1523C31.4179 60.5098 30.1185 60.368 29.0018 59.7245C27.8862 59.0793 27.1122 58.0278 26.8194 56.8016C25.5932 56.5088 24.5417 55.7348 23.8965 54.6192C23.2525 53.5037 23.1089 52.2054 23.4687 50.9978C22.5545 50.1325 22.0291 48.9341 22.0291 47.6466C22.0291 46.359 22.5545 45.1606 23.4687 44.2953C23.1089 43.0877 23.2525 41.7894 23.8965 40.6739C24.5417 39.5583 25.5932 38.7843 26.8194 38.4915C27.1122 37.2653 27.8862 36.2138 29.0018 35.5686C30.1185 34.9251 31.4179 34.7821 32.6232 35.1408C33.4885 34.2266 34.6869 33.7012 35.9745 33.7012C37.262 33.7012 38.4604 34.2266 39.3258 35.1408C40.531 34.7821 41.8293 34.9251 42.9472 35.5686C44.0627 36.2138 44.8367 37.2653 45.1295 38.4915C46.3558 38.7843 47.4072 39.5583 48.0524 40.6739C48.6959 41.7894 48.84 43.0877 48.4797 44.2953C49.3944 45.1606 49.9198 46.359 49.9198 47.6466C49.9198 48.9341 49.3944 50.1325 48.4797 50.9978C48.84 52.2054 48.6959 53.5037 48.0524 54.6192C47.4072 55.7348 46.3558 56.5088 45.1295 56.8016C44.8367 58.0278 44.0627 59.0793 42.9472 59.7245C41.8293 60.368 40.531 60.5098 39.3258 60.1523C38.4604 61.0665 37.262 61.5919 35.9745 61.5919Z" fill="#FFD205"/>
<path d="M35.9745 37.188C30.2082 37.188 25.5154 41.8807 25.5154 47.647C25.5154 53.4133 30.2082 58.1061 35.9745 58.1061C41.7408 58.1061 46.4335 53.4133 46.4335 47.647C46.4335 41.8807 41.7408 37.188 35.9745 37.188ZM35.9745 55.7818C31.4889 55.7818 27.8397 52.1326 27.8397 47.647C27.8397 43.1614 31.4889 39.5122 35.9745 39.5122C40.4601 39.5122 44.1093 43.1614 44.1093 47.647C44.1093 52.1326 40.4601 55.7818 35.9745 55.7818Z" fill="#465861"/>
</g>
<defs>
<clipPath id="clip0">
<rect width="72" height="72" fill="white"/>
</clipPath>
</defs>
</svg>
