<svg width="72" height="72" viewBox="0 0 72 72" fill="none" xmlns="http://www.w3.org/2000/svg">
<path d="M68.625 20.25V55.125H3.375V24.75C3.375 22.8893 4.88925 21.375 6.75 21.375H36V19.125H6.75C3.64838 19.125 1.125 21.6484 1.125 24.75V58.5C1.125 61.6016 3.64838 64.125 6.75 64.125H21.375V68.625H16.875V70.875H55.125V68.625H50.625V64.125H65.25C68.3516 64.125 70.875 61.6016 70.875 58.5V20.25H68.625ZM48.375 68.625H23.625V64.125H48.375V68.625ZM65.25 61.875H6.75C4.88925 61.875 3.375 60.3607 3.375 58.5V57.375H68.625V58.5C68.625 60.3607 67.1107 61.875 65.25 61.875Z" fill="#44545F"/>
<path d="M36 27H14.625V49.5H36V27Z" fill="#FFD200"/>
<path d="M68.1086 15.1414C67.7464 13.7531 67.194 12.4234 66.4594 11.1757L67.7666 8.56238L63.4387 4.23338L60.8254 5.54063C59.5778 4.80713 58.248 4.25363 56.8597 3.89138L55.9361 1.125H49.815L48.8925 3.89138C47.5042 4.25363 46.1745 4.806 44.9269 5.54063L42.3113 4.23338L37.9834 8.56125L39.2906 11.1746C38.5571 12.4222 38.0036 13.752 37.6414 15.1403L34.875 16.0639V22.185L37.6414 23.1075C38.0036 24.4958 38.556 25.8255 39.2906 27.0731L37.9834 29.6865L42.3124 34.0155L44.9257 32.7083C46.1734 33.4417 47.5031 33.9953 48.8914 34.3575L49.8139 37.125H55.935L56.8575 34.3586C58.2458 33.9964 59.5755 33.444 60.8231 32.7094L63.4365 34.0166L67.7655 29.6876L66.4583 27.0742C67.1918 25.8266 67.7453 24.4969 68.1075 23.1086L70.875 22.1861V16.065L68.1086 15.1414ZM52.875 22.5C51.0109 22.5 49.5 20.9891 49.5 19.125C49.5 17.2609 51.0109 15.75 52.875 15.75C54.7391 15.75 56.25 17.2609 56.25 19.125C56.25 20.9891 54.7391 22.5 52.875 22.5Z" fill="#FFD200"/>
<path d="M52.875 30.375C46.6718 30.375 41.625 25.3283 41.625 19.125C41.625 12.9218 46.6718 7.875 52.875 7.875C59.0783 7.875 64.125 12.9218 64.125 19.125C64.125 25.3283 59.0783 30.375 52.875 30.375ZM52.875 10.125C47.9126 10.125 43.875 14.1626 43.875 19.125C43.875 24.0874 47.9126 28.125 52.875 28.125C57.8374 28.125 61.875 24.0874 61.875 19.125C61.875 14.1626 57.8374 10.125 52.875 10.125Z" fill="#44545F"/>
<path d="M52.875 23.625C50.3932 23.625 48.375 21.6068 48.375 19.125C48.375 16.6432 50.3932 14.625 52.875 14.625C55.3568 14.625 57.375 16.6432 57.375 19.125C57.375 21.6068 55.3568 23.625 52.875 23.625ZM52.875 16.875C51.6341 16.875 50.625 17.8841 50.625 19.125C50.625 20.3659 51.6341 21.375 52.875 21.375C54.1159 21.375 55.125 20.3659 55.125 19.125C55.125 17.8841 54.1159 16.875 52.875 16.875Z" fill="#44545F"/>
<path d="M12.375 40.5H11.25C9.38925 40.5 7.875 38.9858 7.875 37.125V36C7.875 34.7591 6.86588 33.75 5.625 33.75V31.5C6.86588 31.5 7.875 30.4909 7.875 29.25V28.125C7.875 26.2642 9.38925 24.75 11.25 24.75H12.375V27H11.25C10.6301 27 10.125 27.504 10.125 28.125V29.25C10.125 30.5921 9.53438 31.8004 8.59838 32.625C9.53438 33.4496 10.125 34.6579 10.125 36V37.125C10.125 37.746 10.6301 38.25 11.25 38.25H12.375V40.5Z" fill="#44545F"/>
<path d="M39.375 50.625H38.25V48.375H39.375C39.9949 48.375 40.5 47.871 40.5 47.25V46.125C40.5 44.7829 41.0906 43.5746 42.0266 42.75C41.0906 41.9254 40.5 40.7171 40.5 39.375V38.25C40.5 37.629 39.9949 37.125 39.375 37.125H38.25V34.875H39.375C41.2357 34.875 42.75 36.3892 42.75 38.25V39.375C42.75 40.6159 43.7591 41.625 45 41.625V43.875C43.7591 43.875 42.75 44.8841 42.75 46.125V47.25C42.75 49.1108 41.2357 50.625 39.375 50.625Z" fill="#44545F"/>
<path d="M36 25.875H14.625V28.125H36V25.875Z" fill="#44545F"/>
<path d="M36 30.375H19.125V32.625H36V30.375Z" fill="#44545F"/>
<path d="M16.875 30.375H14.625V32.625H16.875V30.375Z" fill="#44545F"/>
<path d="M36 34.875H14.625V37.125H36V34.875Z" fill="#44545F"/>
<path d="M36 39.375H14.625V41.625H36V39.375Z" fill="#44545F"/>
<path d="M36 43.875H33.75V46.125H36V43.875Z" fill="#44545F"/>
<path d="M31.5 43.875H14.625V46.125H31.5V43.875Z" fill="#44545F"/>
<path d="M36 48.375H14.625V50.625H36V48.375Z" fill="#44545F"/>
</svg>
