<svg width="72" height="72" viewBox="0 0 72 72" fill="none" xmlns="http://www.w3.org/2000/svg">
<path d="M62.7097 5.80645C62.7097 2.60477 60.1049 0 56.9032 0C53.7015 0 51.0968 2.60477 51.0968 5.80645C51.0968 9.00813 53.7015 11.6129 56.9032 11.6129C60.1049 11.6129 62.7097 9.00813 62.7097 5.80645ZM56.9032 9.29032C54.9825 9.29032 53.4194 7.72723 53.4194 5.80645C53.4194 3.88568 54.9825 2.32258 56.9032 2.32258C58.824 2.32258 60.3871 3.88568 60.3871 5.80645C60.3871 7.72723 58.824 9.29032 56.9032 9.29032Z" fill="#465861"/>
<path d="M20.9032 5.80645C20.9032 2.60477 18.2984 0 15.0968 0C11.8951 0 9.29031 2.60477 9.29031 5.80645C9.29031 9.00813 11.8951 11.6129 15.0968 11.6129C18.2984 11.6129 20.9032 9.00813 20.9032 5.80645ZM15.0968 9.29032C13.176 9.29032 11.6129 7.72723 11.6129 5.80645C11.6129 3.88568 13.176 2.32258 15.0968 2.32258C17.0175 2.32258 18.5806 3.88568 18.5806 5.80645C18.5806 7.72723 17.0175 9.29032 15.0968 9.29032Z" fill="#465861"/>
<path d="M62.7097 44.6782V32.3023C63.0743 32.4324 63.4622 32.516 63.871 32.516C65.7917 32.516 67.3548 30.9529 67.3548 29.0321V18.0556C67.3548 14.5021 64.4655 11.6128 60.912 11.6128H56.9032H52.2581V13.9354H60.912C63.1835 13.9354 65.0323 15.7841 65.0323 18.0556V29.0321C65.0323 29.6732 64.512 30.1934 63.871 30.1934C63.2299 30.1934 62.7097 29.6732 62.7097 29.0321V27.8709V17.4192H60.3871V27.8709V29.0321V49.9354C60.3871 50.5764 59.8668 51.0967 59.2258 51.0967C58.5848 51.0967 58.0645 50.5764 58.0645 49.9354V33.6773H55.7419V49.9354C55.7419 50.5764 55.2217 51.0967 54.5806 51.0967C53.9396 51.0967 53.4194 50.5764 53.4194 49.9354V29.0321V27.8709V17.4192H51.0968V27.8709V29.0321C51.0968 29.6732 50.5765 30.1934 49.9355 30.1934C49.2944 30.1934 48.7742 29.6732 48.7742 29.0321V17.4192H46.4516V29.0321C46.4516 30.9529 48.0147 32.516 49.9355 32.516C50.3443 32.516 50.7321 32.4324 51.0968 32.3023V42.6181C41.6926 41.5764 30.3074 41.5764 20.9032 42.6181V32.3023C21.2679 32.4324 21.6557 32.516 22.0645 32.516C23.9853 32.516 25.5484 30.9529 25.5484 29.0321V17.4192H23.2258V29.0321C23.2258 29.6732 22.7055 30.1934 22.0645 30.1934C21.4235 30.1934 20.9032 29.6732 20.9032 29.0321V27.8709V17.4192H18.5806V27.8709V29.0321V49.9354C18.5806 50.5764 18.0604 51.0967 17.4194 51.0967C16.7783 51.0967 16.2581 50.5764 16.2581 49.9354V33.6773H13.9355V49.9354C13.9355 50.5764 13.4152 51.0967 12.7742 51.0967C12.1332 51.0967 11.6129 50.5764 11.6129 49.9354V29.0321V27.8709V17.4192H9.29032V27.8709V29.0321C9.29032 29.6732 8.77006 30.1934 8.12903 30.1934C7.488 30.1934 6.96774 29.6732 6.96774 29.0321V18.0556C6.96774 15.7841 8.81652 13.9354 11.088 13.9354H19.7419V11.6128H15.0968H11.088C7.53445 11.6128 4.64516 14.5021 4.64516 18.0556V29.0321C4.64516 30.9529 6.20826 32.516 8.12903 32.516C8.53781 32.516 8.92568 32.4324 9.29032 32.3023V44.6794C3.12968 46.3458 0 48.5023 0 51.0967V62.7096C0 68.8087 18.1103 71.9999 36 71.9999C53.8897 71.9999 72 68.8087 72 62.7096V51.0967C72 48.5023 68.8703 46.3458 62.7097 44.6782ZM9.29032 47.0891V49.9354C9.29032 51.8561 10.8534 53.4192 12.7742 53.4192C13.6695 53.4192 14.479 53.0697 15.0968 52.5134C15.7146 53.0709 16.524 53.4192 17.4194 53.4192C19.3401 53.4192 20.9032 51.8561 20.9032 49.9354V44.9523C30.2702 43.8932 41.7298 43.8932 51.0968 44.9523V49.9354C51.0968 51.8561 52.6599 53.4192 54.5806 53.4192C55.476 53.4192 56.2854 53.0697 56.9032 52.5134C57.521 53.0709 58.3304 53.4192 59.2258 53.4192C61.1466 53.4192 62.7097 51.8561 62.7097 49.9354V47.0891C68.1596 48.6533 69.6774 50.314 69.6774 51.0967C69.6774 54.0069 56.8661 58.0644 36 58.0644C15.1339 58.0644 2.32258 54.0069 2.32258 51.0967C2.32258 50.3151 3.84039 48.6545 9.29032 47.0891ZM36 69.6773C15.1339 69.6773 2.32258 65.6198 2.32258 62.7096V54.6154C7.76206 58.4163 21.9461 60.387 36 60.387C50.0539 60.387 64.2379 58.4163 69.6774 54.6154V62.7096C69.6774 65.6198 56.8661 69.6773 36 69.6773Z" fill="#465861"/>
<path d="M36.0116 12.774C39.2184 12.774 41.8181 10.1744 41.8181 6.96758C41.8181 3.76077 39.2184 1.16113 36.0116 1.16113C32.8048 1.16113 30.2051 3.76077 30.2051 6.96758C30.2051 10.1744 32.8048 12.774 36.0116 12.774Z" fill="#FFD205"/>
<path d="M52.9095 2.55478C51.379 1.96369 49.6846 2.88691 49.3502 4.49298L47.628 12.7741L39.499 15.0967H32.5312L24.4022 12.7741L22.68 4.49298C22.3455 2.88691 20.6512 1.96369 19.1206 2.55478C17.9199 3.01814 17.2242 4.27466 17.4681 5.53698L19.1903 14.4743C19.5375 16.2778 20.88 17.7259 22.6521 18.209L30.2098 20.2703V36L27.9615 51.2907C27.7049 53.0245 29.0485 54.5806 30.8021 54.5806C32.227 54.5806 33.437 53.5354 33.6437 52.1256L35.8444 37.1612H36.1858L38.3864 52.1256C38.5932 53.5354 39.8032 54.5806 41.2281 54.5806C42.9805 54.5806 44.3253 53.0245 44.0698 51.2907L41.8215 36V20.2703L49.3792 18.209C51.1502 17.7259 52.4926 16.2778 52.841 14.4743L54.5632 5.53698C54.8059 4.27349 54.1092 3.01814 52.9095 2.55478Z" fill="#FFD205"/>
</svg>
