<svg width="461" height="201" viewBox="0 0 461 201" fill="none" xmlns="http://www.w3.org/2000/svg">
<path d="M327.794 117.801H150L192.229 76H368.306L327.794 117.801Z" fill="#FFD200"/>
<path d="M248.529 126.067C248.529 126.55 248.245 127.053 247.763 127.053H240.227C240.046 126.395 239.56 126.176 238.987 126.176H184.151C183.578 126.176 183.093 126.395 182.912 127.053H175.377C174.851 127.01 174.432 126.593 174.389 126.067V104.14C174.389 103.657 174.893 103.373 175.377 103.373H183.013C183.24 103.592 183.663 104.031 184.15 104.031H229.884V101.4H185.357V98.111H223.303V95.48H184.15C183.578 95.48 183.092 95.6992 182.911 96.3565H175.376C174.85 96.3145 174.431 95.8964 174.389 95.3701V73.4435C174.389 72.9591 174.893 72.6754 175.376 72.6754H223.689C224.415 72.6754 225.005 72.0861 225.005 71.3599C225.005 70.6329 224.415 70.0444 223.689 70.0444H175.376C173.441 70.0444 171.757 71.5085 171.757 73.4427V95.3692C171.802 97.3487 173.396 98.9421 175.376 98.9874H182.725V100.741H175.376C173.441 100.741 171.757 102.206 171.757 104.139V126.066C171.802 128.045 173.396 129.639 175.376 129.684H182.725V131.438H175.376C173.441 131.438 171.757 132.902 171.757 134.836V156.763C171.802 158.742 173.396 160.336 175.376 160.381H247.761C249.695 160.381 251.16 158.698 251.16 156.763V134.836C251.199 132.999 249.742 131.477 247.902 131.438C247.854 131.436 247.807 131.436 247.761 131.438H240.193V129.684H247.761C249.695 129.684 251.16 128 251.16 126.066V104.469H248.528V126.067H248.529ZM237.561 132.096H185.357V128.808H237.561V132.096ZM248.529 134.836V156.763C248.529 157.247 248.245 157.75 247.763 157.75H175.378C174.851 157.707 174.433 157.289 174.39 156.763V134.836C174.39 134.352 174.894 134.069 175.378 134.069H183.013C183.241 134.288 183.664 134.727 184.151 134.727H238.987C239.474 134.727 239.898 134.289 240.125 134.069H247.762C248.146 134.031 248.49 134.312 248.529 134.698C248.533 134.745 248.533 134.791 248.529 134.836Z" fill="#0F0F0F"/>
<path d="M221.768 115.103C221.768 117.888 224.027 120.146 226.814 120.146C229.598 120.146 231.858 117.888 231.858 115.103C231.858 112.318 229.599 110.059 226.814 110.059C224.029 110.064 221.771 112.319 221.768 115.103ZM229.226 115.103C229.226 116.434 228.146 117.515 226.814 117.515C225.481 117.515 224.401 116.435 224.401 115.103C224.401 113.771 225.481 112.69 226.814 112.69C228.145 112.693 229.224 113.772 229.226 115.103Z" fill="#0F0F0F"/>
<path d="M239.536 120.147C242.322 120.147 244.581 117.889 244.581 115.104C244.581 112.319 242.323 110.06 239.536 110.06C236.749 110.06 234.491 112.318 234.491 115.104C234.495 117.888 236.75 120.143 239.536 120.147ZM239.536 112.691C240.869 112.691 241.949 113.772 241.949 115.104C241.949 116.435 240.869 117.516 239.536 117.516C238.204 117.516 237.124 116.436 237.124 115.104C237.124 113.773 238.204 112.693 239.536 112.691Z" fill="#0F0F0F"/>
<path d="M178.558 111.814V118.391C178.558 119.119 179.147 119.706 179.874 119.706C180.602 119.706 181.19 119.118 181.19 118.391V111.814C181.19 111.087 180.602 110.499 179.874 110.499C179.147 110.499 178.558 111.087 178.558 111.814Z" fill="#0F0F0F"/>
<path d="M184.261 111.814V118.391C184.261 119.119 184.85 119.706 185.576 119.706C186.303 119.706 186.893 119.118 186.893 118.391V111.814C186.893 111.087 186.303 110.499 185.576 110.499C184.85 110.499 184.261 111.087 184.261 111.814Z" fill="#0F0F0F"/>
<path d="M190.183 111.814V118.391C190.183 119.119 190.772 119.706 191.498 119.706C192.225 119.706 192.815 119.118 192.815 118.391V111.814C192.815 111.087 192.225 110.499 191.498 110.499C190.772 110.499 190.183 111.087 190.183 111.814Z" fill="#0F0F0F"/>
<path d="M195.886 111.814V118.391C195.886 119.119 196.475 119.706 197.201 119.706C197.928 119.706 198.518 119.118 198.518 118.391V111.814C198.518 111.087 197.928 110.499 197.201 110.499C196.476 110.499 195.886 111.087 195.886 111.814Z" fill="#0F0F0F"/>
<path d="M201.808 111.814V118.391C201.808 119.119 202.397 119.706 203.123 119.706C203.851 119.706 204.44 119.118 204.44 118.391V111.814C204.44 111.087 203.851 110.499 203.123 110.499C202.397 110.499 201.808 111.087 201.808 111.814Z" fill="#0F0F0F"/>
<path d="M178.558 81.1175V87.6957C178.558 88.4218 179.147 89.0112 179.874 89.0112C180.602 89.0112 181.19 88.4218 181.19 87.6957V81.1175C181.19 80.3913 180.602 79.802 179.874 79.802C179.147 79.802 178.558 80.3913 178.558 81.1175Z" fill="#0F0F0F"/>
<path d="M184.261 81.1175V87.6957C184.261 88.4218 184.85 89.0112 185.576 89.0112C186.303 89.0112 186.893 88.4218 186.893 87.6957V81.1175C186.893 80.3913 186.303 79.802 185.576 79.802C184.85 79.802 184.261 80.3913 184.261 81.1175Z" fill="#0F0F0F"/>
<path d="M190.183 81.1175V87.6957C190.183 88.4218 190.772 89.0112 191.498 89.0112C192.225 89.0112 192.815 88.4218 192.815 87.6957V81.1175C192.815 80.3913 192.225 79.802 191.498 79.802C190.772 79.802 190.183 80.3913 190.183 81.1175Z" fill="#0F0F0F"/>
<path d="M195.886 81.1175V87.6957C195.886 88.4218 196.475 89.0112 197.201 89.0112C197.928 89.0112 198.518 88.4218 198.518 87.6957V81.1175C198.518 80.3913 197.928 79.802 197.201 79.802C196.476 79.802 195.886 80.3913 195.886 81.1175Z" fill="#0F0F0F"/>
<path d="M201.808 81.1175V87.6957C201.808 88.4218 202.397 89.0112 203.123 89.0112C203.851 89.0112 204.44 88.4218 204.44 87.6957V81.1175C204.44 80.3913 203.851 79.802 203.123 79.802C202.397 79.802 201.808 80.3913 201.808 81.1175Z" fill="#0F0F0F"/>
<path d="M241.4 107.429C254.239 107.429 264.65 97.0238 264.65 84.1872C264.65 71.3515 254.24 60.946 241.4 60.946C228.56 60.946 218.149 71.3515 218.149 84.1872C218.164 97.018 228.565 107.415 241.4 107.429ZM241.4 63.577C252.787 63.577 262.018 72.8055 262.018 84.1872C262.018 95.5707 252.787 104.798 241.4 104.798C230.012 104.798 220.782 95.5707 220.782 84.1872C220.795 72.8097 230.018 63.5896 241.4 63.577Z" fill="#0F0F0F"/>
<path d="M240.503 93.4946C241.009 93.9647 241.791 93.9647 242.296 93.4946L249.2 87.0717C249.734 86.5764 249.764 85.7445 249.268 85.2122C248.752 84.6808 247.906 84.6523 247.354 85.1459L242.608 89.5096V75.8435C242.608 75.1174 242.018 74.5281 241.291 74.5281C240.565 74.5281 239.977 75.1174 239.977 75.8435V89.5096L235.339 85.1459C234.826 84.6582 234.013 84.6791 233.525 85.1929C233.52 85.1988 233.514 85.2055 233.508 85.2122C233.017 85.7478 233.052 86.5797 233.588 87.0708C233.588 87.0708 233.588 87.0708 233.588 87.0708L240.503 93.4946Z" fill="#0F0F0F"/>
<path d="M76.5601 67.4941H5.54053V70.0126H76.5601V67.4941Z" fill="url(#paint0_linear)"/>
<path d="M194.422 49.8652H58.9312V52.3837H194.422V49.8652Z" fill="url(#paint1_linear)"/>
<path d="M127.432 111.818H21.1548V114.337H127.432V111.818Z" fill="url(#paint2_linear)"/>
<path d="M75.5528 149.594H-1.52588e-05V152.113H75.5528V149.594Z" fill="url(#paint3_linear)"/>
<path d="M146.617 90.1526H103.803V92.671H146.617V90.1526Z" fill="#0F0F0F"/>
<path d="M128.44 18.6365H56.4128V21.1549H128.44V18.6365Z" fill="url(#paint4_linear)"/>
<path d="M354.829 18.6365H279.171V21.1549H354.829V18.6365Z" fill="#0F0F0F"/>
<path d="M275.309 18.6367H267.457V21.1551H275.309V18.6367Z" fill="#0F0F0F"/>
<path d="M107.774 172.777C105.407 169.133 101.405 166.956 97.0675 166.956C94.7731 166.956 92.5233 167.571 90.559 168.734L89.159 166.369C91.5466 164.956 94.281 164.208 97.0675 164.208C102.339 164.208 107.203 166.853 110.079 171.282L107.774 172.777Z" fill="#0F0F0F"/>
<path d="M93.5344 199.8H64.8617C59.5004 199.8 55.1367 195.439 55.1367 190.079V189.464C55.1367 184.104 59.4995 179.742 64.8617 179.742H65.5646C67.1309 173.583 73.1489 169.386 79.7288 170.487C80.0227 169.739 80.3662 169.009 80.7601 168.304C81.306 167.331 81.9484 166.405 82.6698 165.549C86.0341 161.556 90.9571 159.266 96.1773 159.266V162.014C91.7691 162.014 87.6121 163.948 84.7702 167.32C84.1613 168.042 83.6196 168.824 83.1603 169.643C82.6539 170.552 82.2424 171.511 81.9375 172.492L81.5453 173.756L80.2663 173.411C74.4305 171.835 68.9272 175.715 68.0412 181.331L67.8573 182.49H64.8617C61.0154 182.49 57.8854 185.619 57.8854 189.464V190.079C57.8854 193.924 61.0154 197.052 64.8617 197.052H93.5344V199.8Z" fill="#0F0F0F"/>
<path d="M86.2583 178.16H83.5097C83.5097 175.586 81.416 173.492 78.8403 173.492V170.745C82.931 170.745 86.2583 174.071 86.2583 178.16Z" fill="#0F0F0F"/>
<path d="M124.889 135.318L112.79 147.412V189.632C112.79 191.544 114.341 193.091 116.251 193.091H152.372C154.284 193.091 155.833 191.544 155.833 189.632V138.776C155.833 136.866 154.284 135.317 152.372 135.317H124.889V135.318Z" fill="white"/>
<path d="M124.889 147.412V135.318L112.79 147.412H124.889Z" fill="#61AFE1"/>
<path d="M152.372 194.466H116.251C113.585 194.466 111.416 192.297 111.416 189.632V146.843L124.32 133.944H152.372C155.039 133.944 157.208 136.112 157.208 138.777V150.541H154.459V138.777C154.459 137.627 153.523 136.692 152.372 136.692H125.459L114.165 147.982V189.633C114.165 190.783 115.101 191.718 116.251 191.718H152.372V194.466Z" fill="#0F0F0F"/>
<path d="M117.842 131.796L105.744 143.89V186.111C105.744 188.022 107.292 189.571 109.206 189.571H145.325C147.238 189.571 148.786 188.022 148.786 186.111V135.254C148.786 133.344 147.238 131.795 145.325 131.795H117.842V131.796Z" fill="white"/>
<path d="M117.842 143.89V131.795L105.744 143.89H117.842Z" fill="#61AFE1"/>
<path d="M116.634 145.264H105.744V142.516H116.468V131.795H119.217V142.682C119.217 144.106 118.059 145.264 116.634 145.264Z" fill="#0F0F0F"/>
<path d="M110.797 190.945H109.206C106.54 190.945 104.37 188.777 104.37 186.112V143.321L117.273 130.422H145.325C147.992 130.422 150.163 132.59 150.163 135.255V155.946H147.414V135.255C147.414 134.105 146.476 133.17 145.325 133.17H118.412L107.119 144.459V186.112C107.119 187.262 108.056 188.198 109.206 188.198H110.797V190.945Z" fill="#0F0F0F"/>
<path d="M110.797 137.08L98.6975 149.172V191.394C98.6975 193.305 100.248 194.854 102.159 194.854H138.28C140.192 194.854 141.741 193.305 141.741 191.394V140.539C141.741 138.627 140.192 137.08 138.28 137.08H110.797Z" fill="white"/>
<path d="M109.586 150.547H98.6975V147.799H109.423V137.08H112.171V147.965C112.171 149.389 111.012 150.547 109.586 150.547Z" fill="#0F0F0F"/>
<path d="M135.287 153.7H104.507V156.448H135.287V153.7Z" fill="#0F0F0F"/>
<path d="M135.287 160.561H104.507V163.309H135.287V160.561Z" fill="#0F0F0F"/>
<path d="M128.236 167.421H104.507V170.169H128.236V167.421Z" fill="#0F0F0F"/>
<path d="M126.725 174.281H104.507V177.029H126.725V174.281Z" fill="#0F0F0F"/>
<path d="M125.981 196.229H102.158C99.492 196.229 97.3228 194.06 97.3228 191.395V148.604L110.227 135.707H138.279C140.945 135.707 143.114 137.875 143.114 140.54V162.451H140.365V140.54C140.365 139.39 139.429 138.454 138.279 138.454H111.366L100.072 149.742V191.395C100.072 192.545 101.008 193.48 102.159 193.48H125.982L125.981 196.229Z" fill="#0F0F0F"/>
<g clip-path="url(#clip0)">
<path d="M315.37 179.69H312.474V176.793H315.37V179.69ZM309.578 179.69H306.681V176.793H309.578V179.69ZM303.785 179.69H300.889V176.793H303.785V179.69ZM297.993 179.69H295.097V176.793H297.993V179.69Z" fill="#0F0F0F"/>
<path d="M334.195 173.897H331.299V171.001H334.195V173.897ZM328.403 173.897H303.785V171.001H328.403V173.897ZM300.889 173.897H276.271V171.001H300.889V173.897Z" fill="#0F0F0F"/>
<path d="M345.78 188.378V146.383C345.78 143.984 343.835 142.039 341.436 142.039H331.299V127.558H342.884V114.525C342.879 110.528 339.64 107.29 335.643 107.285H286.408C282.411 107.29 279.172 110.528 279.168 114.525V142.039H269.031C266.632 142.039 264.687 143.984 264.687 146.383V188.378H258.894V192.723C258.899 196.72 262.138 199.958 266.135 199.963H344.332C348.329 199.958 351.567 196.72 351.572 192.723V188.378H345.78ZM331.299 114.525C331.299 112.126 333.244 110.181 335.643 110.181C338.042 110.181 339.988 112.126 339.988 114.525V124.662H331.299V114.525ZM282.064 114.525C282.064 112.126 284.009 110.181 286.408 110.181H329.888C328.93 111.427 328.408 112.954 328.403 114.525V165.209H282.064V114.525ZM334.195 168.105V165.209H331.299V150.728H337.091V182.586H273.375V150.728H279.168V165.209H276.271V168.105H334.195ZM267.583 146.383C267.583 145.584 268.231 144.935 269.031 144.935H279.168V147.832H270.479V185.482H339.988V147.832H331.299V144.935H341.436C342.235 144.935 342.884 145.584 342.884 146.383V188.378H311.026V189.826C311.026 190.626 310.377 191.274 309.578 191.274H300.889C300.089 191.274 299.441 190.626 299.441 189.826V188.378H267.583V146.383ZM348.676 192.723C348.676 195.122 346.731 197.067 344.332 197.067H266.135C263.736 197.067 261.79 195.122 261.79 192.723V191.274H296.792C297.408 193.009 299.048 194.168 300.889 194.171H309.578C311.418 194.168 313.058 193.009 313.674 191.274H348.676V192.723Z" fill="#0F0F0F"/>
<path d="M284.96 124.662H325.507V115.973H284.96V124.662ZM287.856 118.87H322.61V121.766H287.856V118.87Z" fill="#0F0F0F"/>
<path d="M284.96 162.312H325.507V133.351H284.96V162.312ZM308.129 136.247H322.61V142.039H308.129V136.247ZM308.129 144.935H322.61V159.416H308.129V144.935ZM297.993 136.247H305.233V142.039H297.993V136.247ZM297.993 144.935H305.233V159.416H297.993V144.935ZM287.856 136.247H295.097V142.039H287.856V136.247ZM287.856 144.935H295.097V159.416H287.856V144.935Z" fill="#0F0F0F"/>
<path d="M284.96 127.558H305.233V130.455H284.96V127.558Z" fill="#0F0F0F"/>
</g>
<path d="M264.797 167.887H264.214C261.645 159.043 253.496 152.573 243.82 152.573C239.597 152.573 235.672 153.819 232.363 155.943C230.215 142.009 218.204 131.328 203.663 131.328C190.611 131.328 179.569 139.925 175.89 151.762C174.233 151.317 172.501 151.057 170.703 151.057C160.742 151.057 152.507 158.354 150.999 167.887H147.747C139.546 167.887 132.837 174.594 132.837 182.792V183.891C132.837 192.088 139.546 198.796 147.747 198.796H264.797C272.999 198.796 279.708 192.088 279.708 183.891V182.792C279.708 174.593 272.998 167.887 264.797 167.887Z" fill="#F3F3F9"/>
<path d="M264.797 200.17H246.948V197.422H264.797C272.262 197.422 278.333 191.352 278.333 183.89V182.791C278.333 175.33 272.262 169.26 264.797 169.26H263.181L262.893 168.269C260.445 159.836 252.601 153.945 243.819 153.945C240.023 153.945 236.319 155.035 233.105 157.097L231.326 158.238L231.003 156.15C228.91 142.561 217.409 132.699 203.663 132.699C195.475 132.699 187.751 136.291 182.47 142.556C181.337 143.902 180.33 145.356 179.478 146.876C178.538 148.551 177.772 150.331 177.201 152.169L176.81 153.431L175.533 153.088C173.908 152.651 172.283 152.43 170.702 152.43C161.508 152.43 153.794 159.02 152.357 168.1L152.172 169.26H147.747C140.282 169.26 134.211 175.329 134.211 182.79V183.889C134.211 191.351 140.282 197.421 147.747 197.421H213.064V200.169H147.747C138.767 200.169 131.462 192.866 131.462 183.889V182.79C131.462 173.814 138.767 166.511 147.747 166.511H149.858C151.957 156.69 160.545 149.681 170.703 149.681C172.113 149.681 173.548 149.833 174.987 150.132C175.556 148.544 176.258 147.002 177.081 145.532C178.017 143.862 179.125 142.264 180.371 140.784C186.174 133.899 194.666 129.951 203.664 129.951C218.112 129.951 230.299 139.856 233.357 153.775C236.586 152.083 240.166 151.196 243.82 151.196C253.471 151.196 262.128 157.446 265.223 166.516C274.007 166.744 281.083 173.956 281.083 182.79V183.889C281.082 192.867 273.777 200.17 264.797 200.17Z" fill="#0F0F0F"/>
<path d="M182.798 161.318H180.05C180.05 156.37 176.023 152.345 171.075 152.345V149.597C177.539 149.597 182.798 154.855 182.798 161.318Z" fill="#0F0F0F"/>
<path d="M220.315 172.525H212.6V161.138C212.6 156.875 209.132 153.406 204.867 153.406C200.602 153.406 197.132 156.875 197.132 161.138V172.525H189.416V161.138C189.416 152.623 196.347 145.695 204.867 145.695C213.386 145.695 220.315 152.623 220.315 161.138V172.525ZM215.349 169.778H217.567V161.138C217.567 154.138 211.871 148.442 204.868 148.442C197.863 148.442 192.166 154.138 192.166 161.138V169.778H194.384V161.138C194.384 155.36 199.088 150.658 204.868 150.658C210.647 150.658 215.349 155.36 215.349 161.138V169.778Z" fill="#0F0F0F"/>
<path d="M204.807 198.57C214.851 198.57 222.993 190.431 222.993 180.391C222.993 170.352 214.851 162.213 204.807 162.213C194.764 162.213 186.622 170.352 186.622 180.391C186.622 190.431 194.764 198.57 204.807 198.57Z" fill="white"/>
<path d="M204.808 199.944C194.023 199.944 185.248 191.173 185.248 180.392C185.248 169.612 194.023 160.841 204.808 160.841C215.592 160.841 224.366 169.612 224.366 180.392C224.366 191.173 215.592 199.944 204.808 199.944ZM204.808 163.588C195.538 163.588 187.997 171.127 187.997 180.392C187.997 189.658 195.538 197.196 204.808 197.196C214.076 197.196 221.618 189.658 221.618 180.392C221.618 171.127 214.076 163.588 204.808 163.588Z" fill="#0F0F0F"/>
<path d="M204.715 182.42C207.117 182.42 209.063 180.473 209.063 178.073C209.063 175.672 207.117 173.726 204.715 173.726C202.313 173.726 200.366 175.672 200.366 178.073C200.366 180.473 202.313 182.42 204.715 182.42Z" fill="#0F0F0F"/>
<path d="M207.312 177.474H202.118V187.354H207.312V177.474Z" fill="#0F0F0F"/>
<path d="M355.517 197.215H55.3089V199.963H355.517V197.215Z" fill="#0F0F0F"/>
<path d="M52 197H41V200H52V197Z" fill="#0F0F0F"/>
<path d="M394 197H361V200H394V197Z" fill="#0F0F0F"/>
<path d="M243.767 39.7861C243.216 39.7861 242.677 39.5998 242.219 39.2505C241.761 38.9013 241.403 38.4048 241.193 37.8241C240.982 37.2433 240.927 36.6043 241.034 35.9878C241.142 35.3714 241.407 34.8052 241.797 34.3608C242.187 33.9164 242.684 33.614 243.224 33.4915C243.765 33.3691 244.325 33.4323 244.834 33.673C245.343 33.9137 245.778 34.3213 246.084 34.8441C246.39 35.3668 246.553 35.9813 246.553 36.6099H248.936C248.936 35.444 248.633 34.3042 248.065 33.3347C247.497 32.3653 246.689 31.6096 245.745 31.1634C244.8 30.7172 243.761 30.6004 242.759 30.8279C241.756 31.0553 240.835 31.6169 240.112 32.4414C239.389 33.2658 238.897 34.3162 238.697 35.4598C238.498 36.6034 238.6 37.7888 238.992 38.866C239.383 39.9433 240.045 40.864 240.895 41.5118C241.745 42.1594 242.745 42.5053 243.767 42.5053H265.014V39.7861H243.767Z" fill="black"/>
<path d="M265.014 46.8819V43.9874H243.767C242.488 43.9874 241.237 43.5549 240.173 42.7441C239.109 41.9334 238.28 40.7812 237.791 39.433C237.301 38.085 237.173 36.6014 237.423 35.1703C237.672 33.7391 238.288 32.4245 239.193 31.3927C240.098 30.3609 241.25 29.6582 242.505 29.3735C243.76 29.089 245.061 29.235 246.243 29.7935C247.425 30.3519 248.435 31.2975 249.146 32.5107C249.857 33.7241 250.236 35.1505 250.236 36.6097H252.774C252.774 34.578 252.245 32.5919 251.256 30.9027C250.266 29.2134 248.859 27.8968 247.214 27.1193C245.568 26.3418 243.757 26.1385 242.01 26.5348C240.263 26.9311 238.658 27.9094 237.398 29.3461C236.139 30.7827 235.281 32.613 234.933 34.6057C234.586 36.5983 234.764 38.6637 235.446 40.5407C236.128 42.4177 237.282 44.022 238.763 45.1509C240.244 46.2797 241.986 46.8819 243.767 46.8819H265.014Z" fill="black"/>
<path d="M226.671 46.8909V33.0933H224.14V30.2771H228.955V46.8909H226.671Z" fill="black"/>
<path d="M226.667 29.1487H230V46.8881H232.345V26.1917H226.667V29.1487Z" fill="black"/>
<path d="M303.646 68.4198H300.897C300.897 65.2583 298.324 62.6861 295.16 62.6861V59.9385C299.839 59.9385 303.646 63.7439 303.646 68.4198Z" fill="#0F0F0F"/>
<path d="M342.953 52.1691C340.122 47.8113 335.335 45.2081 330.15 45.2081C327.406 45.2081 324.716 45.9435 322.371 47.3354L320.967 44.9705C323.74 43.3276 326.914 42.4604 330.15 42.4604C336.27 42.4604 341.919 45.5296 345.257 50.6731L342.953 52.1691Z" fill="#0F0F0F"/>
<path d="M363.935 83.8541H351.671V81.1064H363.935C375.9 81.1064 381.968 78.1246 381.968 72.2406V71.4859C381.968 66.5967 377.989 62.6184 373.098 62.6184H371.664L371.376 61.627C369.748 56.015 364.527 52.0954 358.685 52.0954C356.157 52.0954 353.694 52.8216 351.555 54.1941L349.776 55.3375L349.454 53.248C348.049 44.1228 340.327 37.5009 331.093 37.5009C325.596 37.5009 320.409 39.9145 316.862 44.1195C316.102 45.0227 315.425 45.9999 314.853 47.0216C314.221 48.1507 313.706 49.3453 313.326 50.5743L312.935 51.8369L311.657 51.4935C304.328 49.5224 297.387 54.3939 296.27 61.4599L296.086 62.6192H292.676C287.786 62.6192 283.805 66.5976 283.805 71.4867V72.2414C283.805 77.1306 287.785 81.1073 292.676 81.1073H347.125V83.8549H292.676C286.27 83.8549 281.056 78.6459 281.056 72.2414V71.4867C281.056 65.0831 286.27 59.8716 292.676 59.8716H293.782C295.391 53.1053 301.381 48.3102 308.448 48.3102C309.328 48.3102 310.221 48.3925 311.114 48.557C311.488 47.5681 311.936 46.6035 312.455 45.6809C313.112 44.5073 313.886 43.3874 314.761 42.3498C318.832 37.5228 324.783 34.7542 331.093 34.7542C341.038 34.7542 349.454 41.4465 351.79 50.9227C353.94 49.8909 356.289 49.3503 358.686 49.3503C365.4 49.3503 371.433 53.6351 373.7 59.8884C379.828 60.2015 384.716 65.2855 384.716 71.4876V72.2423C384.715 77.5394 381.109 83.8541 363.935 83.8541Z" fill="#0F0F0F"/>
<path d="M403 107.789H363.157V110.307H403V107.789Z" fill="#0F0F0F"/>
<path d="M449 163H383V165.518H449V163Z" fill="#0F0F0F"/>
<path d="M434 143H364V145.518H434V143Z" fill="#0F0F0F"/>
<path d="M461 143H445V145.518H461V143Z" fill="#0F0F0F"/>
<path d="M278.034 0H109.803V2.51843H278.034V0Z" fill="url(#paint5_linear)"/>
<defs>
<linearGradient id="paint0_linear" x1="5.54053" y1="70.0126" x2="76.5601" y2="70.0126" gradientUnits="userSpaceOnUse">
<stop stop-color="#FFD200" stop-opacity="0.4"/>
<stop offset="0.671875" stop-color="#FFD200"/>
</linearGradient>
<linearGradient id="paint1_linear" x1="194.39" y1="49.5411" x2="58.4389" y2="49.5411" gradientUnits="userSpaceOnUse">
<stop offset="0.197917" stop-color="#0F0F0F"/>
<stop offset="0.671875" stop-color="#FFD200"/>
<stop offset="1" stop-color="#FFD200" stop-opacity="0.47"/>
</linearGradient>
<linearGradient id="paint2_linear" x1="127.407" y1="111.494" x2="20.7687" y2="111.494" gradientUnits="userSpaceOnUse">
<stop offset="0.197917" stop-color="#0F0F0F"/>
<stop offset="0.671875" stop-color="#FFD200"/>
<stop offset="1" stop-color="#FFD200" stop-opacity="0.47"/>
</linearGradient>
<linearGradient id="paint3_linear" x1="75.5346" y1="149.27" x2="-0.274483" y2="149.27" gradientUnits="userSpaceOnUse">
<stop offset="0.197917" stop-color="#0F0F0F"/>
<stop offset="0.671875" stop-color="#FFD200"/>
<stop offset="1" stop-color="#FFD200" stop-opacity="0.47"/>
</linearGradient>
<linearGradient id="paint4_linear" x1="56.4128" y1="21.1549" x2="128.44" y2="21.1549" gradientUnits="userSpaceOnUse">
<stop stop-color="#FFD200" stop-opacity="0.4"/>
<stop offset="0.671875" stop-color="#FFD200"/>
</linearGradient>
<linearGradient id="paint5_linear" x1="277.994" y1="-0.3241" x2="109.192" y2="-0.324099" gradientUnits="userSpaceOnUse">
<stop offset="0.197917" stop-color="#0F0F0F"/>
<stop offset="0.671875" stop-color="#FFD200"/>
<stop offset="1" stop-color="#FFD200" stop-opacity="0.47"/>
</linearGradient>
<clipPath id="clip0">
<rect width="92.6781" height="92.6781" fill="white" transform="translate(258.894 107.285)"/>
</clipPath>
</defs>
</svg>
