<svg width="69" height="69" viewBox="0 0 69 69" fill="none" xmlns="http://www.w3.org/2000/svg">
<circle cx="34.5" cy="34.5" r="32" fill="white" stroke="#FFD205" stroke-width="5"/>
<path d="M16.9055 43H13.6415V28.984L11.5535 28.216V25.888H14.3855C15.4415 25.888 16.1215 26.08 16.4255 26.464C16.7455 26.848 16.9055 27.608 16.9055 28.744V43ZM32.2529 33.976V34.96C32.2529 36.144 32.2129 37.136 32.1329 37.936C32.0529 38.736 31.8929 39.488 31.6529 40.192C31.4129 40.896 31.0769 41.456 30.6449 41.872C30.2129 42.272 29.6449 42.584 28.9409 42.808C28.2529 43.032 27.4129 43.144 26.4209 43.144C25.4289 43.144 24.5809 43.032 23.8769 42.808C23.1889 42.568 22.6289 42.248 22.1969 41.848C21.7649 41.448 21.4289 40.896 21.1889 40.192C20.9489 39.472 20.7889 38.712 20.7089 37.912C20.6289 37.112 20.5889 36.112 20.5889 34.912V34C20.5889 31.536 20.7809 29.72 21.1649 28.552C21.4049 27.848 21.7409 27.304 22.1729 26.92C23.0849 26.152 24.5009 25.768 26.4209 25.768C28.6609 25.768 30.1889 26.376 31.0049 27.592C31.8369 28.808 32.2529 30.936 32.2529 33.976ZM29.0369 35.704V33.04C29.0209 31.456 28.8449 30.344 28.5089 29.704C28.1729 29.064 27.4769 28.744 26.4209 28.744C25.3649 28.744 24.6689 29.064 24.3329 29.704C23.9969 30.328 23.8209 31.408 23.8049 32.944V35.704C23.8209 37.416 23.9889 38.592 24.3089 39.232C24.6289 39.856 25.3409 40.168 26.4449 40.168C27.5489 40.168 28.2529 39.864 28.5569 39.256C28.8609 38.648 29.0209 37.464 29.0369 35.704ZM45.8701 33.976V34.96C45.8701 36.144 45.8301 37.136 45.7501 37.936C45.6701 38.736 45.5101 39.488 45.2701 40.192C45.0301 40.896 44.6941 41.456 44.2621 41.872C43.8301 42.272 43.2621 42.584 42.5581 42.808C41.8701 43.032 41.0301 43.144 40.0381 43.144C39.0461 43.144 38.1981 43.032 37.4941 42.808C36.8061 42.568 36.2461 42.248 35.8141 41.848C35.3821 41.448 35.0461 40.896 34.8061 40.192C34.5661 39.472 34.4061 38.712 34.3261 37.912C34.2461 37.112 34.2061 36.112 34.2061 34.912V34C34.2061 31.536 34.3981 29.72 34.7821 28.552C35.0221 27.848 35.3581 27.304 35.7901 26.92C36.7021 26.152 38.1181 25.768 40.0381 25.768C42.2781 25.768 43.8061 26.376 44.6221 27.592C45.4541 28.808 45.8701 30.936 45.8701 33.976ZM42.6541 35.704V33.04C42.6381 31.456 42.4621 30.344 42.1261 29.704C41.7901 29.064 41.0941 28.744 40.0381 28.744C38.9821 28.744 38.2861 29.064 37.9501 29.704C37.6141 30.328 37.4381 31.408 37.4221 32.944V35.704C37.4381 37.416 37.6061 38.592 37.9261 39.232C38.2461 39.856 38.9581 40.168 40.0621 40.168C41.1661 40.168 41.8701 39.864 42.1741 39.256C42.4781 38.648 42.6381 37.464 42.6541 35.704ZM58.6953 37.816H54.8553V41.656H51.9273V37.816H48.0633V34.888H51.9273V31.048H54.8553V34.888H58.6953V37.816Z" fill="#2E4346"/>
</svg>
