<svg width="69" height="69" viewBox="0 0 69 69" fill="none" xmlns="http://www.w3.org/2000/svg">
<circle cx="34.5" cy="34.5" r="32" fill="white" stroke="#FFD205" stroke-width="5"/>
<path d="M15.9861 42.92V39.41L22.7901 36.413L15.9861 33.389V29.879L26.3811 34.955V37.817L15.9861 42.92ZM36.5909 44H32.9189V28.232L30.5699 27.368V24.749H33.7559C34.9439 24.749 35.7089 24.965 36.0509 25.397C36.4109 25.829 36.5909 26.684 36.5909 27.962V44ZM41.7338 25.1H51.9128V28.097H45.1898V31.121C47.9618 31.121 49.8608 31.688 50.8868 32.822C51.9308 33.956 52.4528 35.612 52.4528 37.79C52.4528 42.038 50.4008 44.162 46.2968 44.162C44.4068 44.162 42.9848 43.667 42.0308 42.677C41.0948 41.687 40.6268 40.364 40.6268 38.708H44.0558C44.0558 39.014 44.0918 39.32 44.1638 39.626C44.2538 39.914 44.4698 40.211 44.8118 40.517C45.1538 40.805 45.6128 40.949 46.1888 40.949C47.1428 40.949 47.8358 40.688 48.2678 40.166C48.7178 39.626 48.9428 38.996 48.9428 38.276C48.9428 37.556 48.8888 36.989 48.7808 36.575C48.6908 36.161 48.4838 35.738 48.1598 35.306C47.5118 34.406 46.0628 33.956 43.8128 33.956H41.7338V25.1Z" fill="#2E4346"/>
</svg>
