<svg width="69" height="69" viewBox="0 0 69 69" fill="none" xmlns="http://www.w3.org/2000/svg">
<circle cx="34.5" cy="34.5" r="32" fill="white" stroke="#FFD205" stroke-width="5"/>
<path d="M21.135 43H12.951C12.247 43 11.647 42.856 11.151 42.568C10.655 42.28 10.407 41.8 10.407 41.128C10.407 40.568 10.607 40.024 11.007 39.496C11.151 39.32 11.391 39.048 11.727 38.68L14.295 35.824C15.031 35.088 15.615 34.424 16.047 33.832C16.479 33.224 16.799 32.768 17.007 32.464C17.215 32.16 17.375 31.896 17.487 31.672C17.759 31.128 17.895 30.664 17.895 30.28C17.895 29.896 17.743 29.52 17.439 29.152C17.151 28.768 16.615 28.576 15.831 28.576C15.063 28.576 14.527 28.8 14.223 29.248C13.935 29.696 13.791 30.328 13.791 31.144H10.647C10.647 30.328 10.711 29.632 10.839 29.056C10.967 28.464 11.215 27.904 11.583 27.376C12.303 26.304 13.791 25.768 16.047 25.768C17.727 25.768 19.023 26.112 19.935 26.8C20.847 27.488 21.303 28.472 21.303 29.752C21.303 30.536 21.119 31.352 20.751 32.2C20.399 33.032 20.023 33.704 19.623 34.216C19.223 34.728 18.751 35.296 18.207 35.92C17.663 36.544 17.343 36.92 17.247 37.048L14.535 40.192H21.135V43ZM35.7234 39.328H33.8034V43H30.8274V39.328H25.8594C25.0434 39.328 24.4274 39.16 24.0114 38.824C23.6114 38.472 23.4114 37.992 23.4114 37.384C23.4114 37.064 23.5474 36.496 23.8194 35.68C24.0914 34.864 24.8514 32.768 26.0994 29.392H29.4354L26.8194 36.376H30.8274V25.912H33.8034V36.376H35.7234V39.328ZM46.4477 24.136L39.6077 44.776H36.6797L43.5197 24.136H46.4477ZM58.5514 28.648L52.2394 43H48.8794L55.1914 28.888H47.6794V25.888H58.5514V28.648Z" fill="#2E4346"/>
</svg>
