<svg width="72" height="72" viewBox="0 0 72 72" fill="none" xmlns="http://www.w3.org/2000/svg">
<rect width="72" height="72" fill="black" fill-opacity="0"/>
<rect width="51.0968" height="46.4518" fill="black" fill-opacity="0" transform="translate(4.64526 4.64502)"/>
<path d="M4.64526 4.64502V25.5482H15.0969V22.0644H27.8711V4.64502H4.64526Z" fill="#FFD200"/>
<path d="M42.9678 51.0967C50.0228 51.0967 55.742 45.3775 55.742 38.3225C55.742 31.2675 50.0228 25.5483 42.9678 25.5483C35.9128 25.5483 30.1936 31.2675 30.1936 38.3225C30.1936 45.3775 35.9128 51.0967 42.9678 51.0967Z" fill="#FFD200"/>
<path d="M72 20.9032H55.7419V0H0V72H55.7419V55.7419H72V20.9032ZM53.4194 69.6774H2.32258V2.32258H53.4194V20.9032H13.9355V55.7419H53.4194V69.6774ZM69.6774 53.4194H16.2581V23.2258H69.6774V53.4194Z" fill="#44545F"/>
<path d="M42.9678 41.8063C42.3267 41.8063 41.8065 41.286 41.8065 40.645H39.4839C39.4839 42.157 40.4582 43.4344 41.8065 43.9152V46.4514H44.129V43.9152C45.4773 43.4344 46.4516 42.157 46.4516 40.645C46.4516 38.7242 44.8885 37.1611 42.9678 37.1611C42.3267 37.1611 41.8065 36.6408 41.8065 35.9998C41.8065 35.3588 42.3267 34.8385 42.9678 34.8385C43.6088 34.8385 44.129 35.3588 44.129 35.9998H46.4516C46.4516 34.4878 45.4773 33.2104 44.129 32.7296V30.1934H41.8065V32.7296C40.4582 33.2104 39.4839 34.4878 39.4839 35.9998C39.4839 37.9206 41.047 39.4837 42.9678 39.4837C43.6088 39.4837 44.129 40.0039 44.129 40.645C44.129 41.286 43.6088 41.8063 42.9678 41.8063Z" fill="#44545F"/>
<path d="M20.9031 27.8709H26.7096V25.5483H18.5806V33.6774H20.9031V27.8709Z" fill="#44545F"/>
<path d="M26.7096 48.7742H20.9031V42.9678H18.5806V51.0968H26.7096V48.7742Z" fill="#44545F"/>
<path d="M65.0323 33.6774H67.3549V25.5483H59.2258V27.8709H65.0323V33.6774Z" fill="#44545F"/>
<path d="M67.3549 42.9678H65.0323V48.7742H59.2258V51.0968H67.3549V42.9678Z" fill="#44545F"/>
<path d="M51.0968 4.64502H30.1936V6.9676H51.0968V4.64502Z" fill="#44545F"/>
<path d="M51.0968 9.29053H30.1936V11.6131H51.0968V9.29053Z" fill="#44545F"/>
<path d="M51.0968 13.9355H48.7742V16.2581H51.0968V13.9355Z" fill="#44545F"/>
<path d="M46.4517 13.9355H30.1936V16.2581H46.4517V13.9355Z" fill="#44545F"/>
<path d="M46.4517 65.0322H4.64526V67.3548H46.4517V65.0322Z" fill="#44545F"/>
<path d="M51.0968 65.0322H48.7742V67.3548H51.0968V65.0322Z" fill="#44545F"/>
<path d="M51.0969 60.3872H4.64526V62.7098H51.0969V60.3872Z" fill="#44545F"/>
</svg>
