<svg width="59" height="72" viewBox="0 0 59 72" fill="none" xmlns="http://www.w3.org/2000/svg">
<rect width="58.0645" height="72" fill="black" fill-opacity="0"/>
<rect width="55.7419" height="56.9032" fill="black" fill-opacity="0" transform="translate(1.16138 10.4517)"/>
<path d="M1.16138 16.2581H56.9033V12.7742C56.9033 11.491 55.864 10.4517 54.5807 10.4517H3.48396C2.20073 10.4517 1.16138 11.491 1.16138 12.7742V16.2581Z" fill="#FFD200"/>
<path d="M41.8066 67.3549H27.8711V53.4194H41.8066V67.3549Z" fill="#FFD200"/>
<path d="M58.0645 12.7742C58.0645 10.8534 56.5014 9.29032 54.5806 9.29032H46.4516V3.48387C46.4516 1.5631 44.8885 0 42.9677 0H40.6452H39.4839H18.5806H17.4194H15.0968C13.176 0 11.6129 1.5631 11.6129 3.48387V9.29032H3.48387C1.5631 9.29032 0 10.8534 0 12.7742V24.1781L2.32258 24.6426V48.7742C2.32258 50.695 3.88568 52.2581 5.80645 52.2581H11.6129V72H46.4516V52.2581H52.2581C54.1788 52.2581 55.7419 50.695 55.7419 48.7742V24.6426L58.0645 24.1781V12.7742ZM42.9677 2.32258C43.6076 2.32258 44.129 2.844 44.129 3.48387V9.29032H41.8065V2.32258H42.9677ZM39.4839 9.29032H18.5806V6.96774H39.4839V9.29032ZM39.4839 2.32258V4.64516H18.5806V2.32258H39.4839ZM13.9355 3.48387C13.9355 2.844 14.4569 2.32258 15.0968 2.32258H16.2581V9.29032H13.9355V3.48387ZM44.129 69.6774H13.9355V46.4516H23.2258V37.1613H44.129V69.6774ZM15.5775 44.129L20.9032 38.8034V44.129H15.5775ZM53.4194 48.7742C53.4194 49.4141 52.8979 49.9355 52.2581 49.9355H46.4516V34.8387H21.5837L11.6129 44.8095V49.9355H5.80645C5.16658 49.9355 4.64516 49.4141 4.64516 48.7742V25.1071L23.2258 28.8232V32.5161H34.8387V28.8232L53.4194 25.1071V48.7742ZM25.5484 30.1935V25.5484H32.5161V30.1935H25.5484ZM55.7419 22.2735L34.8387 26.4542V23.2258H23.2258V26.4542L2.32258 22.2735V12.7742C2.32258 12.1343 2.844 11.6129 3.48387 11.6129H54.5806C55.2205 11.6129 55.7419 12.1343 55.7419 12.7742V22.2735Z" fill="#44545F"/>
<path d="M41.8064 39.4839H25.5483V41.8065H41.8064V39.4839Z" fill="#44545F"/>
<path d="M41.8064 44.1289H25.5483V46.4515H41.8064V44.1289Z" fill="#44545F"/>
<path d="M41.8064 48.7744H16.2581V51.097H41.8064V48.7744Z" fill="#44545F"/>
<path d="M25.5484 53.4194H16.2581V55.742H25.5484V53.4194Z" fill="#44545F"/>
<path d="M25.5484 58.0645H16.2581V60.387H25.5484V58.0645Z" fill="#44545F"/>
<path d="M25.5484 62.7095H16.2581V65.0321H25.5484V62.7095Z" fill="#44545F"/>
<path d="M41.8065 30.1934H39.4839V32.5159H41.8065V30.1934Z" fill="#44545F"/>
<path d="M18.5806 30.1934H16.2581V32.5159H18.5806V30.1934Z" fill="#44545F"/>
</svg>
