<svg width="72" height="72" viewBox="0 0 72 72" fill="none" xmlns="http://www.w3.org/2000/svg">
<rect width="72" height="72" fill="black" fill-opacity="0"/>
<path d="M65.0323 51.0968H0V0H65.0323V51.0968Z" fill="#FFD200"/>
<rect width="72" height="69.6774" fill="black" fill-opacity="0" transform="translate(0 2.32257)"/>
<path d="M41.3106 39.2736L39.9797 37.3714L50.2328 30.1935L39.9797 23.0155L41.3106 21.1133L54.2834 30.1935L41.3106 39.2736Z" fill="#44545F"/>
<path d="M23.7216 39.2736L10.7488 30.1935L23.7216 21.1133L25.0524 23.0155L14.7994 30.1935L25.0524 37.3714L23.7216 39.2736Z" fill="#44545F"/>
<path d="M28.9669 44.494L38.2651 16.6255L36.063 15.8908L26.7648 43.7592L28.9669 44.494Z" fill="#44545F"/>
<path d="M66.1936 16.258H65.0324V18.5806H66.1936C68.1144 18.5806 69.6775 20.1437 69.6775 22.0644V55.7419H6.96784V51.0967H4.64526V59.2257C4.64526 62.4274 7.25004 65.0322 10.4517 65.0322H22.0646V69.6773H17.4195V71.9999H22.0646H54.5807H59.2259V69.6773H54.5807V65.0322H66.1936C69.3953 65.0322 72.0001 62.4274 72.0001 59.2257V22.0644C72.0001 18.8628 69.3953 16.258 66.1936 16.258ZM52.2582 69.6773H24.3872V65.0322H52.2582V69.6773ZM66.1936 62.7096H54.5807H22.0646H10.4517C8.53094 62.7096 6.96784 61.1465 6.96784 59.2257V58.0644H69.6775V59.2257C69.6775 61.1465 68.1144 62.7096 66.1936 62.7096Z" fill="#44545F"/>
<path d="M4.64509 2.32251H2.32251V4.64509H4.64509V2.32251Z" fill="#44545F"/>
<path d="M9.29035 2.32251H6.96777V4.64509H9.29035V2.32251Z" fill="#44545F"/>
<path d="M13.9354 2.32251H11.6128V4.64509H13.9354V2.32251Z" fill="#44545F"/>
<path d="M65.0323 6.96765H0V9.29023H65.0323V6.96765Z" fill="#44545F"/>
</svg>
