<svg width="72" height="72" viewBox="0 0 72 72" fill="none" xmlns="http://www.w3.org/2000/svg">
<rect width="72" height="72" fill="white"/>
<rect x="0.5" y="0.5" width="71" height="71" fill="#FFD205" stroke="#FFD200"/>
<rect width="34" height="42" fill="black" fill-opacity="0" transform="translate(19 15)"/>
<rect width="34" height="42" fill="black" fill-opacity="0" transform="translate(19 15)"/>
<path d="M50.7097 19.7544H49.4951V49.9255C49.4951 51.9299 47.8814 53.5614 45.8991 53.5614H33.5926H23.8064V54.6798C23.8064 55.9606 24.8345 57 26.1011 57H38.4033H50.7054C51.972 57 53.0001 55.9606 53.0001 54.6798V22.0746C53.0001 20.7939 51.9764 19.7544 50.7097 19.7544Z" fill="white"/>
<path d="M33.5925 52.2456H45.8947C47.1613 52.2456 48.1894 51.2062 48.1894 49.9255V19.7544V17.3202C48.1894 16.0395 47.1613 15 45.8947 15H33.5925H29.5019V15.7675C29.5106 15.8465 29.5149 15.9298 29.5149 16.0132V21.0702V22.3684C29.5149 24.1711 28.0661 25.636 26.2832 25.636H24.9992H19.9977C19.9326 25.636 19.8632 25.6316 19.7982 25.6272H19V49.9255C19 51.2062 20.0281 52.2456 21.2947 52.2456H23.8107H33.5925ZM34.0567 44.3597H26.036C25.4374 44.3597 24.9515 43.8684 24.9515 43.2632C24.9515 42.6579 25.4374 42.1667 26.036 42.1667H34.061C34.6596 42.1667 35.1455 42.6579 35.1455 43.2632C35.1455 43.8684 34.6553 44.3597 34.0567 44.3597ZM42.0817 38.7632H26.036C25.4374 38.7632 24.9515 38.272 24.9515 37.6667C24.9515 37.0614 25.4374 36.5702 26.036 36.5702H42.0817C42.6803 36.5702 43.1661 37.0614 43.1661 37.6667C43.1661 38.272 42.6803 38.7632 42.0817 38.7632ZM26.036 30.6272H42.0817C42.6803 30.6272 43.1661 31.1184 43.1661 31.7237C43.1661 32.329 42.6803 32.8202 42.0817 32.8202H26.036C25.4374 32.8202 24.9515 32.329 24.9515 31.7237C24.9515 31.1184 25.4374 30.6272 26.036 30.6272Z" fill="white"/>
<path d="M19.9978 24.3202H26.2833C26.2876 24.3202 26.2963 24.3202 26.3007 24.3202C27.3504 24.3114 28.2006 23.4518 28.2093 22.3904C28.2093 22.386 28.2093 22.3772 28.2093 22.3728V16.0132C28.2093 15.4254 27.7321 15.0351 27.2377 15.0351C26.9991 15.0351 26.7605 15.1228 26.561 15.3246L19.3124 22.6535C18.7051 23.2676 19.1345 24.3202 19.9978 24.3202Z" fill="white"/>
</svg>
