<svg width="72" height="72" viewBox="0 0 72 72" fill="none" xmlns="http://www.w3.org/2000/svg">
<rect width="72" height="72" fill="white"/>
<rect width="72" height="72" fill="#FFD200"/>
<rect width="37.6471" height="40" fill="black" fill-opacity="0" transform="translate(17 16)"/>
<rect width="37.6471" height="40" fill="black" fill-opacity="0" transform="translate(17 16)"/>
<rect width="37.6471" height="40" fill="black" fill-opacity="0" transform="translate(17 16)"/>
<rect width="37.6471" height="40" fill="black" fill-opacity="0" transform="translate(17 16)"/>
<rect width="37.6471" height="40" fill="black" fill-opacity="0" transform="translate(17 16)"/>
<rect width="37.6471" height="40" fill="black" fill-opacity="0" transform="translate(17 16)"/>
<path d="M53.7436 40.5616C52.9489 48.6663 46.4659 55.1803 38.4592 55.9256C28.9944 56.8065 20.9235 49.7575 19.9874 40.5956H18.3193C17.3052 40.5956 16.6714 39.4834 17.1785 38.5939L20.9091 32.0499C21.4162 31.1605 22.6837 31.1605 23.1908 32.05L26.9207 38.5939C27.4277 39.4835 26.7939 40.5956 25.7798 40.5956H24.3277C25.2711 47.436 31.558 52.5663 38.7663 51.4961C44.1002 50.7043 48.4269 46.4414 49.3335 41.0584C50.6905 33.0014 44.5698 25.9892 36.863 25.9892C34.3637 25.9892 31.9515 26.7237 29.8794 28.1146C28.9177 28.7601 27.5846 28.6324 26.8791 27.7079C26.111 26.7012 26.3508 25.2642 27.3751 24.5635C29.5983 23.0422 32.1186 22.0915 34.7591 21.7605V19.28H33.0309C32.4363 19.28 31.9542 18.7918 31.9542 18.1894V17.0906C31.9542 16.4882 32.4362 16 33.0309 16H41.0454C41.64 16 42.1221 16.4882 42.1221 17.0906V18.1894C42.1221 18.7917 41.6401 19.28 41.0454 19.28H39.1419V21.7863C47.9721 22.9932 54.671 31.1021 53.7436 40.5616ZM54.3012 24.0565L51.0549 21.017C50.6182 20.6082 49.9371 20.6353 49.5334 21.0776L48.6747 22.0187C48.271 22.461 48.2978 23.151 48.7345 23.5599L51.9808 26.5993C52.4175 27.0081 53.0986 26.981 53.5023 26.5388L54.361 25.5976C54.7647 25.1554 54.7379 24.4654 54.3012 24.0565ZM36.8119 28.2313V38.8976H47.2367C47.2368 32.4019 42.3715 28.2313 36.8119 28.2313Z" fill="white"/>
</svg>
