<svg width="72" height="72" viewBox="0 0 72 72" fill="none" xmlns="http://www.w3.org/2000/svg">
<rect width="72" height="72" fill="black" fill-opacity="0"/>
<path d="M49.9356 36H40.6453V49.9355H49.9356V36Z" fill="#FFD200"/>
<rect width="16.2581" height="16.2581" fill="black" fill-opacity="0" transform="translate(20.9033 34.8387)"/>
<path d="M37.1615 34.8389H25.5486V37.1614H37.1615V34.8389Z" fill="#44545F"/>
<path d="M23.2259 34.8387H20.9033V37.1613H23.2259V34.8387Z" fill="#44545F"/>
<path d="M37.1615 48.7743H25.5486V51.0969H37.1615V48.7743Z" fill="#44545F"/>
<path d="M59.2258 14.5603V10.987L57.0031 9.87564C56.8219 9.28686 56.5827 8.72364 56.2994 8.18712L57.0867 5.82506L54.5597 3.29809L52.1977 4.08544C51.6612 3.80209 51.0979 3.56403 50.5092 3.3817L49.399 1.16132H45.8257L44.7143 3.38403C44.1256 3.56519 43.5623 3.80441 43.0258 4.08777L40.6637 3.30041L38.1368 5.82738L38.9241 8.18945C38.6408 8.72596 38.4027 9.28919 38.2204 9.87796L36 10.987V14.5603L38.2227 15.6716C38.4039 16.2604 38.6431 16.8236 38.9265 17.3602L38.1391 19.7222L40.6661 22.2492L43.0281 21.4618C43.5646 21.7452 44.1279 21.9833 44.7166 22.1656L45.8268 24.3871H49.4001L50.5115 22.1644C51.1003 21.9833 51.6635 21.744 52.2 21.4607L54.5621 22.248L57.089 19.7211L56.3017 17.359C56.585 16.8225 56.8231 16.2593 57.0054 15.6705L59.2258 14.5603ZM47.6129 18.5807C44.4066 18.5807 41.8065 15.9805 41.8065 12.7742C41.8065 9.5679 44.4066 6.96777 47.6129 6.96777C50.8192 6.96777 53.4194 9.5679 53.4194 12.7742C53.4194 15.9805 50.8192 18.5807 47.6129 18.5807Z" fill="#FFD200"/>
<rect width="16.2581" height="11.6129" fill="black" fill-opacity="0" transform="translate(20.9033 39.4839)"/>
<path d="M23.2259 48.7742H20.9033V51.0968H23.2259V48.7742Z" fill="#44545F"/>
<path d="M37.1614 39.4839H20.9033V41.8065H37.1614V39.4839Z" fill="#44545F"/>
<path d="M37.1614 44.129H20.9033V46.4516H37.1614V44.129Z" fill="#44545F"/>
<rect width="72" height="72" fill="black" fill-opacity="0"/>
<path d="M48.7742 60.3871V62.7097H69.6774V66.1935C69.6774 68.1143 68.1143 69.6774 66.1936 69.6774H5.80645C3.88568 69.6774 2.32258 68.1143 2.32258 66.1935V62.7097H23.2258V60.3871H0V66.1935C0 69.3952 2.60477 72 5.80645 72H66.1936C69.3952 72 72 69.3952 72 66.1935V60.3871H48.7742Z" fill="#44545F"/>
<path d="M25.5483 63.871C25.5483 65.7917 27.1114 67.3548 29.0322 67.3548H42.9677C44.8885 67.3548 46.4516 65.7917 46.4516 63.871V60.3871H25.5483V63.871ZM27.8709 62.7097H44.129V63.871C44.129 64.512 43.6087 65.0322 42.9677 65.0322H29.0322C28.3912 65.0322 27.8709 64.512 27.8709 63.871V62.7097Z" fill="#44545F"/>
<path d="M4.64509 24.3871C4.64509 22.4663 6.20819 20.9032 8.12896 20.9032H11.6128V18.5806H8.12896C4.92728 18.5806 2.32251 21.1854 2.32251 24.3871V58.0645H4.64509V24.3871Z" fill="#44545F"/>
<path d="M60.3872 20.9032H63.8711C65.7919 20.9032 67.3549 22.4663 67.3549 24.3871V58.0645H69.6775V24.3871C69.6775 21.1854 67.0728 18.5806 63.8711 18.5806H60.3872V20.9032Z" fill="#44545F"/>
<path d="M6.96777 25.5484V58.0645H9.29035V25.5484H11.6129V23.2258H9.29035C8.00945 23.2258 6.96777 24.2675 6.96777 25.5484Z" fill="#44545F"/>
<path d="M65.0324 58.0645V25.5484C65.0324 24.2675 63.9907 23.2258 62.7098 23.2258H60.3872V25.5484H62.7098V58.0645H65.0324Z" fill="#44545F"/>
<path d="M16.2581 18.5806H13.9355V58.0645H16.2581V18.5806Z" fill="#44545F"/>
<path d="M58.0645 25.5472H55.7419V58.0634H58.0645V25.5472Z" fill="#44545F"/>
<path d="M16.2581 16.258H25.5484V6.96772H34.8388V4.64514H23.9064L13.9355 14.616V16.258H15.0968H16.2581ZM17.9002 13.9355L23.2259 8.60979V13.9355H17.9002Z" fill="#44545F"/>
<path d="M51.0969 27.8709H48.7743V30.1935H23.2259V18.5806H20.9033V32.5161H51.0969V27.8709Z" fill="#44545F"/>
<path d="M51.0968 34.8387H39.4839V51.0968H51.0968V34.8387ZM48.7742 48.7742H41.8065V37.1613H48.7742V48.7742Z" fill="#44545F"/>
<path d="M55.2739 8.73174C55.5329 9.22065 55.7408 9.72232 55.8941 10.2194L56.0404 10.6932L58.0645 11.7058V13.8426L56.0404 14.8552L55.8941 15.329C55.7408 15.8272 55.5317 16.3277 55.2739 16.8166L55.0417 17.2568L55.7593 19.4098L54.2485 20.9206L52.0955 20.203L51.6553 20.4352C51.1711 20.6919 50.6694 20.8997 50.1666 21.0565L49.6939 21.2028L48.6813 23.2258H46.5445L45.5319 21.2028L45.0592 21.0565C44.5552 20.8997 44.0547 20.6919 43.5704 20.4352L43.1303 20.203L40.9773 20.9206L38.959 18.9023L37.3169 20.5444L40.3513 23.5788L42.9387 22.716C43.2522 22.8635 43.5704 22.997 43.891 23.1132L45.1092 25.5484H50.1166L51.3348 23.112C51.6553 22.9959 51.9747 22.8623 52.2871 22.7148L54.8744 23.5777L58.4175 20.0346L57.5547 17.4472C57.7033 17.1325 57.8357 16.8143 57.953 16.495L60.3871 15.2779V10.2705L57.9519 9.05226C57.78 8.57845 57.5698 8.10697 57.3259 7.64478L55.2739 8.73174Z" fill="#44545F"/>
<path d="M37.2738 9.05226L34.8386 10.2705V13.9355H27.8708V16.2581H36.7977L37.2738 16.4961C37.4457 16.9699 37.6559 17.4414 37.8998 17.9036L39.9529 16.8166C39.6939 16.3277 39.4861 15.8261 39.3328 15.329L39.1865 14.8552L37.1612 13.8426V11.7058L39.1853 10.6932L39.3316 10.2194C39.4849 9.72116 39.6939 9.22064 39.9518 8.73174L40.184 8.29161L39.4663 6.13858L40.9772 4.62774L43.1302 5.34542L43.5703 5.11316C44.0592 4.85419 44.5609 4.64632 45.0579 4.49303L45.5318 4.34671L46.5444 2.32258H48.6812L49.6938 4.34671L50.1676 4.49303C50.6658 4.64632 51.1663 4.85535 51.6552 5.11316L52.0954 5.34542L54.2484 4.62774L56.2667 6.64606L57.9088 5.004L54.8743 1.96955L52.287 2.83239C51.9723 2.68374 51.6541 2.55135 51.3347 2.43406L50.1165 0H45.109L43.8908 2.43523C43.5715 2.55252 43.2521 2.6849 42.9386 2.83355L40.3512 1.97071L36.8081 5.51381L37.671 8.10116C37.5235 8.41355 37.3899 8.7329 37.2738 9.05226Z" fill="#44545F"/>
<path d="M47.613 19.7419C51.4557 19.7419 54.5807 16.6169 54.5807 12.7742C54.5807 8.93149 51.4557 5.80646 47.613 5.80646C43.7703 5.80646 40.6453 8.93149 40.6453 12.7742C40.6453 16.6169 43.7703 19.7419 47.613 19.7419ZM47.613 8.12904C50.1748 8.12904 52.2582 10.2124 52.2582 12.7742C52.2582 15.336 50.1748 17.4194 47.613 17.4194C45.0512 17.4194 42.9678 15.336 42.9678 12.7742C42.9678 10.2124 45.0512 8.12904 47.613 8.12904Z" fill="#44545F"/>
</svg>
