<svg width="72" height="72" viewBox="0 0 72 72" fill="none" xmlns="http://www.w3.org/2000/svg">
<rect width="72" height="72" fill="black" fill-opacity="0"/>
<rect width="30.1935" height="49.9363" fill="black" fill-opacity="0" transform="translate(20.9033 8.12823)"/>
<path d="M27.871 26.7097C27.6585 26.7097 27.4471 26.6517 27.2613 26.5367C26.9187 26.3242 26.7097 25.9514 26.7097 25.5484V9.29038C26.7097 8.88741 26.9187 8.51464 27.2613 8.30212C27.6039 8.08844 28.0313 8.07219 28.3913 8.25102L44.6493 16.3801C45.0418 16.5775 45.2904 16.9793 45.2904 17.4194C45.2904 17.8595 45.0418 18.2613 44.6482 18.4588L28.3901 26.5878C28.2264 26.6691 28.0487 26.7097 27.871 26.7097Z" fill="#FFD200"/>
<path d="M36.0001 58.0645C27.676 58.0645 20.9033 51.2919 20.9033 42.9677C20.9033 34.6436 27.676 27.871 36.0001 27.871C44.3242 27.871 51.0969 34.6436 51.0969 42.9677C51.0969 51.2919 44.3242 58.0645 36.0001 58.0645Z" fill="#FFD200"/>
<path d="M69.6774 60.3871V22.0645C69.6774 18.8628 67.0726 16.2581 63.871 16.2581H58.0645V0H13.9355V16.2581H8.12903C4.92735 16.2581 2.32258 18.8628 2.32258 22.0645V60.3871H0V66.1936C0 69.3952 2.60477 72 5.80645 72H66.1936C69.3952 72 72 69.3952 72 66.1936V60.3871H69.6774ZM4.64516 22.0645C4.64516 20.1437 6.20826 18.5806 8.12903 18.5806H13.9355V20.9032H9.29032C8.00942 20.9032 6.96774 21.9449 6.96774 23.2258V58.0645H9.29032V23.2258H13.9355V37.1613H22.068C22.4083 36.3472 22.8275 35.5738 23.299 34.8387H16.2581V2.32258H55.7419V34.8387H48.701C49.1737 35.5738 49.5917 36.3472 49.932 37.1613H58.0645V23.2258H62.7097V58.0645H65.0323V23.2258C65.0323 21.9449 63.9906 20.9032 62.7097 20.9032H58.0645V18.5806H63.871C65.7917 18.5806 67.3548 20.1437 67.3548 22.0645V60.3871H4.64516V22.0645ZM23.2258 62.7097H48.7742V63.871C48.7742 64.512 48.2528 65.0323 47.6129 65.0323H24.3871C23.7472 65.0323 23.2258 64.512 23.2258 63.871V62.7097ZM69.6774 66.1936C69.6774 68.1143 68.1143 69.6774 66.1936 69.6774H5.80645C3.88568 69.6774 2.32258 68.1143 2.32258 66.1936V62.7097H20.9032V63.871C20.9032 65.7917 22.4663 67.3548 24.3871 67.3548H47.6129C49.5337 67.3548 51.0968 65.7917 51.0968 63.871V62.7097H69.6774V66.1936Z" fill="#44545F"/>
<path d="M26.7097 27.4273L46.7257 17.4193L26.7097 7.41132V27.4273ZM29.0323 11.1693L41.5324 17.4193L29.0323 23.6694V11.1693Z" fill="#44545F"/>
<path d="M37.1614 49.9355H44.1291V36H37.1614V49.9355ZM39.484 38.3226H41.8065V47.6129H39.484V38.3226Z" fill="#44545F"/>
<path d="M27.8708 49.9355H34.8386V36H27.8708V49.9355ZM30.1934 38.3226H32.516V47.6129H30.1934V38.3226Z" fill="#44545F"/>
<path d="M6.96784 65.0322H4.64526V67.3548H6.96784V65.0322Z" fill="#44545F"/>
<path d="M11.6129 65.0322H9.29028V67.3548H11.6129V65.0322Z" fill="#44545F"/>
<path d="M16.2581 65.0322H13.9355V67.3548H16.2581V65.0322Z" fill="#44545F"/>
</svg>
