<svg width="72" height="72" viewBox="0 0 72 72" fill="none" xmlns="http://www.w3.org/2000/svg">
<rect width="72" height="72" fill="white"/>
<rect width="72" height="72" fill="#FFD200"/>
<rect width="28.6897" height="32" fill="black" fill-opacity="0" transform="translate(21.8008 20)"/>
<rect width="28.6897" height="32" fill="black" fill-opacity="0" transform="translate(21.8008 20)"/>
<rect width="28.6897" height="32" fill="black" fill-opacity="0" transform="translate(21.8008 20)"/>
<rect width="28.6897" height="32" fill="black" fill-opacity="0" transform="translate(21.8008 20)"/>
<path d="M22.5182 46.9086H27.539V51.2728C27.539 51.4852 27.606 51.659 27.7408 51.7949C27.8753 51.9316 28.0471 52 28.2565 52H31.9994C32.1936 52 32.3617 51.9316 32.5037 51.7949C32.6457 51.659 32.7165 51.4851 32.7165 51.2728V46.9086H44.0354C44.2444 46.9086 44.4163 46.8411 44.551 46.7044C44.6859 46.5678 44.7528 46.3938 44.7528 46.1815V43.2723C44.7528 43.0612 44.6859 42.8861 44.551 42.7502C44.4166 42.6135 44.2444 42.5451 44.0354 42.5451H32.7161V39.8632H40.3368C43.3252 39.8632 45.7642 38.9398 47.6549 37.0906C49.545 35.2433 50.4904 32.857 50.4904 29.9316C50.4904 27.0081 49.545 24.6218 47.6549 22.7726C45.7645 20.9252 43.3251 20 40.3368 20H28.2561C28.0467 20 27.8752 20.0683 27.7405 20.2042C27.606 20.3409 27.5387 20.5159 27.5387 20.7271V35.0229H22.5182C22.3089 35.0229 22.1373 35.0947 22.0026 35.2386C21.8682 35.3826 21.8008 35.553 21.8008 35.7499V39.1359C21.8008 39.3483 21.8678 39.5222 22.0026 39.6589C22.1374 39.7956 22.3085 39.8631 22.5182 39.8631H27.539V42.545H22.5182C22.3089 42.545 22.1373 42.6134 22.0026 42.7502C21.8682 42.886 21.8008 43.0607 21.8008 43.2722V46.1814C21.8008 46.3937 21.8678 46.5677 22.0026 46.7043C22.1373 46.8411 22.3088 46.9086 22.5182 46.9086ZM32.7161 24.8414H39.8885C41.4723 24.8414 42.7496 25.3109 43.7212 26.2503C44.6923 27.1897 45.1781 28.4174 45.1781 29.932C45.1781 31.4473 44.6923 32.6753 43.7212 33.6136C42.7496 34.5538 41.4722 35.0233 39.8885 35.0233H32.7161V24.8414Z" fill="white"/>
</svg>
