<svg width="72" height="72" viewBox="0 0 72 72" fill="none" xmlns="http://www.w3.org/2000/svg">
<rect width="72" height="72" fill="white"/>
<rect width="72" height="72" fill="#FFD200"/>
<rect width="37.7458" height="40" fill="black" fill-opacity="0" transform="translate(17 16)"/>
<rect width="37.7458" height="40" fill="black" fill-opacity="0" transform="translate(17 16)"/>
<path d="M53.3879 47.9334C48.5775 44.0521 43.3982 41.4888 42.3358 40.9819C42.2177 40.924 42.144 40.8081 42.144 40.6778V33.3353C43.0883 32.7125 43.7081 31.6698 43.7081 30.4823V22.8646C43.7081 19.0702 40.5798 16 36.7138 16H35.8875H35.0464C31.1804 16 28.0521 19.0702 28.0521 22.8646V30.4823C28.0521 31.6698 28.6719 32.727 29.6162 33.3353V40.6778C29.6162 40.8081 29.5425 40.924 29.4244 40.9819C28.362 41.4888 23.1827 44.0666 18.3723 47.9334C17.5017 48.6285 17 49.6857 17 50.7864V56H33.3937L35.0169 48.7154C31.7411 44.2404 35.2677 44.0232 35.8727 44.0087C36.4925 44.0087 40.0044 44.2259 36.7286 48.7154L38.3517 56H54.7455V50.7864C54.7602 49.6857 54.2585 48.6285 53.3879 47.9334Z" fill="white"/>
</svg>
