<svg width="71" height="72" viewBox="0 0 71 72" fill="none" xmlns="http://www.w3.org/2000/svg">
<rect width="70.8387" height="72" fill="black" fill-opacity="0"/>
<rect width="34.8387" height="31.3548" fill="black" fill-opacity="0" transform="translate(34.8386 5.80646)"/>
<path d="M68.5162 5.80652H63.871C63.2288 5.80652 62.7097 6.32562 62.7097 6.96781V37.1614H65.0323H67.3549H69.6775V6.96781C69.6775 6.32562 69.1584 5.80652 68.5162 5.80652Z" fill="#FFD200"/>
<path d="M59.2259 13.9355H54.5807C53.9385 13.9355 53.4194 14.4546 53.4194 15.0968V37.1614H55.742H58.0646H60.3872V15.0968C60.3872 14.4546 59.8681 13.9355 59.2259 13.9355Z" fill="#FFD200"/>
<path d="M49.9356 17.4194H45.2904C44.6482 17.4194 44.1292 17.9385 44.1292 18.5807V37.1614H46.4517H48.7743H51.0969V18.5807C51.0969 17.9385 50.5778 17.4194 49.9356 17.4194Z" fill="#FFD200"/>
<path d="M40.6451 20.9033H35.9999C35.3577 20.9033 34.8386 21.4224 34.8386 22.0645V37.1613H37.1612H39.4838H41.8064V22.0645C41.8064 21.4224 41.2873 20.9033 40.6451 20.9033Z" fill="#FFD200"/>
<path d="M70.8388 36H33.6775V38.3226H70.8388V36Z" fill="#44545F"/>
<path d="M54.5806 3.20052V8.12903H56.9032V0H48.7742V2.32258H52.3556C46.7152 10.2124 38.7708 15.9434 29.7511 18.8129C26.8293 14.4732 21.8717 11.6129 16.2581 11.6129C7.2929 11.6129 0 18.9058 0 27.871C0 35.6388 5.47897 42.1432 12.7742 43.7435V48.7742H10.4516V66.1936C10.4516 69.3952 13.0564 72 16.2581 72C19.4597 72 22.0645 69.3952 22.0645 66.1936V48.7742H19.7419V43.7435C27.0372 42.1432 32.5161 35.6388 32.5161 27.871C32.5161 25.3614 31.9274 22.9924 30.9077 20.8684C40.3908 17.7434 48.7208 11.6141 54.5806 3.20052ZM19.7419 66.1936C19.7419 68.1143 18.1788 69.6774 16.2581 69.6774C14.3373 69.6774 12.7742 68.1143 12.7742 66.1936V51.0968H19.7419V66.1936ZM17.4194 48.7742H15.0968V44.0698C15.4823 44.0977 15.8655 44.129 16.2581 44.129C16.6506 44.129 17.0338 44.0977 17.4194 44.0698V48.7742ZM30.1935 27.871C30.1935 35.5552 23.9423 41.8064 16.2581 41.8064C8.57381 41.8064 2.32258 35.5552 2.32258 27.871C2.32258 20.1867 8.57381 13.9355 16.2581 13.9355C20.7952 13.9355 24.8214 16.1245 27.367 19.4923C26.5285 19.7083 25.6831 19.8964 24.8295 20.0636C22.7044 17.7329 19.6537 16.2581 16.2581 16.2581C9.85471 16.2581 4.64516 21.4676 4.64516 27.871C4.64516 34.2743 9.85471 39.4839 16.2581 39.4839C22.6614 39.4839 27.871 34.2743 27.871 27.871C27.871 25.7748 27.3043 23.8111 26.3288 22.1121C27.1115 21.9403 27.8872 21.751 28.6572 21.5396C29.6326 23.4418 30.1935 25.5902 30.1935 27.871ZM23.8866 22.5825C24.9317 24.0852 25.5484 25.9061 25.5484 27.871C25.5484 32.9934 21.3805 37.1613 16.2581 37.1613C11.1356 37.1613 6.96774 32.9934 6.96774 27.871C6.96774 22.7485 11.1356 18.5806 16.2581 18.5806C18.3983 18.5806 20.3667 19.3157 21.9391 20.5363C20.0694 20.7766 18.173 20.9032 16.2581 20.9032V23.2258C18.8408 23.2258 21.3863 22.9947 23.8866 22.5825Z" fill="#44545F"/>
<path d="M67.3548 44.129H41.8064V46.4516H67.3548V44.129Z" fill="#44545F"/>
<path d="M67.3548 58.0645H41.8064V60.3871H67.3548V58.0645Z" fill="#44545F"/>
<path d="M53.4193 51.0968H41.8064V53.4194H53.4193V51.0968Z" fill="#44545F"/>
<path d="M67.3548 51.0968H55.7419V53.4194H67.3548V51.0968Z" fill="#44545F"/>
<path d="M53.4193 65.0322H41.8064V67.3548H53.4193V65.0322Z" fill="#44545F"/>
<path d="M67.3548 65.0322H55.7419V67.3548H67.3548V65.0322Z" fill="#44545F"/>
<path d="M39.484 44.129H37.1614V46.4516H39.484V44.129Z" fill="#44545F"/>
<path d="M39.484 51.0968H37.1614V53.4194H39.484V51.0968Z" fill="#44545F"/>
<path d="M39.484 58.0645H37.1614V60.3871H39.484V58.0645Z" fill="#44545F"/>
<path d="M39.484 65.0322H37.1614V67.3548H39.484V65.0322Z" fill="#44545F"/>
</svg>
