<svg width="74" height="72" viewBox="0 0 74 72" fill="none" xmlns="http://www.w3.org/2000/svg">
<rect width="73.4101" height="72" fill="black" fill-opacity="0"/>
<path d="M56.1564 72H17.2535C16.9492 72 16.6575 71.8806 16.4428 71.6647C10.9963 66.2377 7.99683 59.0159 7.99683 51.3301C7.99683 35.5005 20.8753 22.622 36.705 22.622C52.5346 22.622 65.4131 35.5005 65.4131 51.3301C65.4131 59.0159 62.4137 66.2377 56.9683 71.6647C56.7524 71.8806 56.4607 72 56.1564 72Z" fill="#FFD200"/>
<path d="M39.0236 47.388C38.3403 46.9838 37.5537 46.7369 36.7051 46.7369C34.1719 46.7369 32.1118 48.797 32.1118 51.3302C32.1118 53.8634 34.1719 55.9235 36.7051 55.9235C39.2383 55.9235 41.2984 53.8634 41.2984 51.3302C41.2984 50.4804 41.0504 49.695 40.6473 49.0117L50.1486 39.5116L48.5248 37.8879L39.0236 47.388ZM36.7051 53.6268C35.4385 53.6268 34.4085 52.5968 34.4085 51.3302C34.4085 50.0636 35.4385 49.0335 36.7051 49.0335C37.9717 49.0335 39.0018 50.0636 39.0018 51.3302C39.0018 52.5968 37.9717 53.6268 36.7051 53.6268Z" fill="#44545F"/>
<path d="M48.1884 60.5168H25.2219V62.8134H48.1884V60.5168Z" fill="#44545F"/>
<path d="M43.5951 65.11H29.8152V67.4067H43.5951V65.11Z" fill="#44545F"/>
<path d="M30.9635 20.3254H33.2601V13.4354H29.7738L36.7051 3.90431L43.6364 13.4354H40.1501V20.3254H42.4467V15.7321H48.147L36.7051 0L25.2632 15.7321H30.9635V20.3254Z" fill="#44545F"/>
<path d="M61.9683 4.59332L50.5264 20.3254H56.2267V23.7704H58.5233V18.0287H55.037L61.9683 8.49763L68.8996 18.0287H65.4133V36.4019H67.7099V20.3254H73.4102L61.9683 4.59332Z" fill="#44545F"/>
<path d="M18.3732 18.0287H14.8869V23.7704H17.1835V20.3254H22.8838L11.4419 4.59332L0 20.3254H5.70029V36.4019H7.99694V18.0287H4.51062L11.4419 8.49763L18.3732 18.0287Z" fill="#44545F"/>
<path d="M7.99685 38.6986H5.7002V40.9953H7.99685V38.6986Z" fill="#44545F"/>
<path d="M17.1836 26.067H14.887V28.3636H17.1836V26.067Z" fill="#44545F"/>
<path d="M58.5232 26.067H56.2266V28.3636H58.5232V26.067Z" fill="#44545F"/>
<path d="M67.7097 38.6986H65.4131V40.9953H67.7097V38.6986Z" fill="#44545F"/>
<path d="M48.1883 65.11H45.8916V67.4067H48.1883V65.11Z" fill="#44545F"/>
<path d="M27.5186 65.11H25.2219V67.4067H27.5186V65.11Z" fill="#44545F"/>
<path d="M36.7052 27.2153C23.4076 27.2153 12.5903 38.0337 12.5903 51.3302C12.5903 56.5757 14.2692 61.5813 17.4466 65.8014L19.2816 64.4199C16.4062 60.6006 14.887 56.075 14.887 51.3302C14.887 39.2992 24.6742 29.512 36.7052 29.512C48.7362 29.512 58.5233 39.2992 58.5233 51.3302C58.5233 56.075 57.0041 60.6006 54.1299 64.4188L55.9649 65.8002C59.1411 61.5813 60.82 56.5757 60.82 51.3302C60.82 38.0337 50.0028 27.2153 36.7052 27.2153Z" fill="#44545F"/>
</svg>
