<svg width="72" height="72" viewBox="0 0 72 72" fill="none" xmlns="http://www.w3.org/2000/svg">
<rect width="72" height="72" fill="white"/>
<rect x="0.5" y="0.5" width="71" height="71" fill="#FFD205" stroke="#FFD200"/>
<rect width="40.0001" height="40" fill="black" fill-opacity="0" transform="translate(16 16)"/>
<rect width="40.0001" height="40" fill="black" fill-opacity="0" transform="translate(16 16)"/>
<rect width="40.0001" height="40" fill="black" fill-opacity="0" transform="translate(16 16)"/>
<rect width="40.0001" height="40" fill="black" fill-opacity="0" transform="translate(16 16)"/>
<path d="M35.4955 18.6486L35.4941 18.6471L33.8569 17.01V19.5714H36.4184L35.4955 18.6486Z" fill="white"/>
<path d="M43.3529 21.5057L43.3515 21.5043L41.7144 19.8671V22.4286H44.2758L43.3529 21.5057Z" fill="white"/>
<path d="M23.143 42.4286V43.8572H33.8573V42.4286C33.8573 41.6396 34.4969 41 35.2859 41H37.4288V21H33.8574C33.0684 21 32.4288 20.3604 32.4288 19.5714V16H19.5715V41H21.7144C22.5034 41 23.143 41.6396 23.143 42.4286Z" fill="white"/>
<path d="M49.5715 22.7243V25.2857H52.133L49.5715 22.7243Z" fill="white"/>
<path d="M46.7144 23.1429V41H53.1429V26.7143H49.5715C48.7826 26.7143 48.1429 26.0747 48.1429 25.2857V21.7143H45.5815L46.5044 22.6372C46.6379 22.7716 46.7133 22.9533 46.7144 23.1429Z" fill="white"/>
<path d="M45.2855 23.8571H41.7141C40.9251 23.8571 40.2855 23.2175 40.2855 22.4285V18.8571H37.7241L38.647 19.78C38.7806 19.9145 38.8561 20.0961 38.857 20.2857V41H42.4284H45.2855V23.8571Z" fill="white"/>
<path d="M56.0002 42.4286H43.1431V56H56.0002V42.4286Z" fill="white"/>
<path d="M35.2857 43.8571C35.2857 44.6461 34.6461 45.2857 33.8571 45.2857H23.1429C22.3539 45.2857 21.7143 44.6461 21.7143 43.8571V42.4285H16V56H41.7143V42.4286H35.2857V43.8571ZM33.1429 53.1429H24.5714C23.388 53.1429 22.4285 52.1835 22.4285 51C22.4285 49.8165 23.3879 48.8571 24.5714 48.8571H33.1428C34.3263 48.8571 35.2857 49.8165 35.2857 51C35.2857 52.1835 34.3263 53.1429 33.1429 53.1429Z" fill="white"/>
<path d="M33.1427 50.2857H24.5712C24.1768 50.2857 23.8569 50.6055 23.8569 51C23.8569 51.3945 24.1767 51.7143 24.5712 51.7143H33.1426C33.5371 51.7143 33.8569 51.3945 33.8569 51C33.8569 50.6055 33.5372 50.2857 33.1427 50.2857Z" fill="white"/>
</svg>
