<svg width="72" height="72" viewBox="0 0 72 72" fill="none" xmlns="http://www.w3.org/2000/svg">
<rect width="72" height="72" fill="black" fill-opacity="0"/>
<rect width="55.7419" height="56.9032" fill="black" fill-opacity="0" transform="translate(11.6128 10.4516)"/>
<path d="M25.5483 56.9032H11.6128V67.3548H25.5483V56.9032Z" fill="#FFD200"/>
<path d="M67.3547 56.9032H53.4192V67.3548H67.3547V56.9032Z" fill="#FFD200"/>
<path d="M25.5483 10.4516H11.6128V20.9032H25.5483V10.4516Z" fill="#FFD200"/>
<path d="M67.3547 10.4515H53.4192V20.9032H67.3547V10.4515Z" fill="#FFD200"/>
<rect width="72" height="72" fill="black" fill-opacity="0"/>
<path d="M23.2258 46.4517H0V67.3549C0 69.9167 2.08335 72 4.64516 72H25.5484C28.1102 72 30.1935 69.9167 30.1935 67.3549V51.0968H23.2258V46.4517ZM6.96774 67.3549C6.96774 68.6358 5.92606 69.6775 4.64516 69.6775C3.36426 69.6775 2.32258 68.6358 2.32258 67.3549V48.7742H20.9032V51.0968H6.96774V67.3549ZM27.871 53.4194V67.3549C27.871 68.6358 26.8293 69.6775 25.5484 69.6775H8.66671C9.06387 68.9935 9.29032 68.2003 9.29032 67.3549V53.4194H27.871Z" fill="#44545F"/>
<path d="M25.5483 55.7419H11.6128V58.0645H25.5483V55.7419Z" fill="#44545F"/>
<path d="M25.5483 60.3871H11.6128V62.7097H25.5483V60.3871Z" fill="#44545F"/>
<path d="M20.9031 65.0322H11.6128V67.3548H20.9031V65.0322Z" fill="#44545F"/>
<path d="M25.5484 65.0322H23.2258V67.3548H25.5484V65.0322Z" fill="#44545F"/>
<path d="M8.12903 44.129V31.2027L9.8071 32.321L11.0961 30.3886L6.96774 27.6364L2.83936 30.3886L4.12839 32.321L5.80645 31.2027V44.129H8.12903Z" fill="#44545F"/>
<path d="M66.1935 44.129V31.2027L67.8716 32.321L69.1606 30.3886L65.0322 27.6364L60.9038 30.3886L62.1928 32.321L63.8709 31.2027V44.129H66.1935Z" fill="#44545F"/>
<path d="M41.0134 25.8608L35.4195 31.0819L29.8255 25.8608L28.2392 27.5586L33.717 32.6706L24.9167 40.8844L24.3268 39.1169L22.125 39.8508L23.4686 43.8863L27.5041 45.2299L28.238 43.0281L26.6087 42.4835L35.4195 34.2604L44.2302 42.4835L42.6009 43.0281L43.3348 45.2299L47.3703 43.8863L48.7139 39.8508L46.5121 39.1169L45.9222 40.8844L37.1219 32.6706L42.5997 27.5586L41.0134 25.8608Z" fill="#44545F"/>
<path d="M4.64516 25.5484H25.5484C28.1102 25.5484 30.1935 23.465 30.1935 20.9032V4.64516H23.2258V0H0V20.9032C0 23.465 2.08335 25.5484 4.64516 25.5484ZM27.871 6.96774V20.9032C27.871 22.1841 26.8293 23.2258 25.5484 23.2258H8.66671C9.06387 22.5418 9.29032 21.7486 9.29032 20.9032V6.96774H27.871ZM2.32258 2.32258H20.9032V4.64516H6.96774V20.9032C6.96774 22.1841 5.92606 23.2258 4.64516 23.2258C3.36426 23.2258 2.32258 22.1841 2.32258 20.9032V2.32258Z" fill="#44545F"/>
<path d="M25.5483 9.29034H11.6128V11.6129H25.5483V9.29034Z" fill="#44545F"/>
<path d="M25.5483 13.9355H11.6128V16.2581H25.5483V13.9355Z" fill="#44545F"/>
<path d="M20.9031 18.5806H11.6128V20.9032H20.9031V18.5806Z" fill="#44545F"/>
<path d="M25.5484 18.5806H23.2258V20.9032H25.5484V18.5806Z" fill="#44545F"/>
<path d="M65.0322 4.64516V0H41.8064V20.9032C41.8064 23.465 43.8898 25.5484 46.4516 25.5484H67.3548C69.9166 25.5484 71.9999 23.465 71.9999 20.9032V4.64516H65.0322ZM48.7741 20.9032C48.7741 22.1841 47.7325 23.2258 46.4516 23.2258C45.1707 23.2258 44.129 22.1841 44.129 20.9032V2.32258H62.7096V4.64516H48.7741V20.9032ZM69.6774 20.9032C69.6774 22.1841 68.6357 23.2258 67.3548 23.2258H50.4731C50.8703 22.5418 51.0967 21.7486 51.0967 20.9032V6.96774H69.6774V20.9032Z" fill="#44545F"/>
<path d="M67.3549 9.29034H53.4194V11.6129H67.3549V9.29034Z" fill="#44545F"/>
<path d="M67.3549 13.9355H53.4194V16.2581H67.3549V13.9355Z" fill="#44545F"/>
<path d="M62.7098 18.5806H53.4194V20.9032H62.7098V18.5806Z" fill="#44545F"/>
<path d="M67.3548 18.5806H65.0322V20.9032H67.3548V18.5806Z" fill="#44545F"/>
<path d="M65.0322 46.4517H41.8064V67.3549C41.8064 69.9167 43.8898 72 46.4516 72H67.3548C69.9166 72 71.9999 69.9167 71.9999 67.3549V51.0968H65.0322V46.4517ZM48.7741 67.3549C48.7741 68.6358 47.7325 69.6775 46.4516 69.6775C45.1707 69.6775 44.129 68.6358 44.129 67.3549V48.7742H62.7096V51.0968H48.7741V67.3549ZM69.6774 53.4194V67.3549C69.6774 68.6358 68.6357 69.6775 67.3548 69.6775H50.4731C50.8703 68.9935 51.0967 68.2003 51.0967 67.3549V53.4194H69.6774Z" fill="#44545F"/>
<path d="M67.3549 55.7419H53.4194V58.0645H67.3549V55.7419Z" fill="#44545F"/>
<path d="M67.3549 60.3871H53.4194V62.7097H67.3549V60.3871Z" fill="#44545F"/>
<path d="M62.7098 65.0322H53.4194V67.3548H62.7098V65.0322Z" fill="#44545F"/>
<path d="M67.3548 65.0322H65.0322V67.3548H67.3548V65.0322Z" fill="#44545F"/>
</svg>
