<svg width="72" height="72" viewBox="0 0 72 72" fill="none" xmlns="http://www.w3.org/2000/svg">
<rect width="72.0002" height="72" fill="black" fill-opacity="0"/>
<rect width="72.0002" height="72" fill="black" fill-opacity="0"/>
<rect width="72.0002" height="72" fill="black" fill-opacity="0"/>
<path d="M59.9736 11.613H62.7096V5.80636H39.4837H38.5779C39.1342 5.18845 39.4837 4.37912 39.4837 3.48367C39.4839 1.56301 37.9207 0 36 0C34.0794 0 32.5161 1.56301 32.5161 3.48391C32.5161 4.37936 32.8656 5.18869 33.4219 5.8066H32.5161H9.29018V11.613H12.0262L0.104492 37.8419L2.21801 38.8023L12.7741 15.5812L23.3302 38.8035L25.4437 37.8431L13.522 11.613H32.5161V62.3521C31.2549 62.9537 30.1471 63.864 29.3306 65.0324H19.7419C16.5403 65.0324 13.9356 67.6372 13.9356 70.8388V72H58.0647V70.8388C58.0647 67.6372 55.4599 65.0324 52.2584 65.0324H42.6697C41.8534 63.8642 40.7454 62.9537 39.4842 62.3521V11.613H58.4783L46.5564 37.8419L48.6699 38.8023L59.226 15.5812L69.782 38.8035L71.8956 37.8431L59.9736 11.613ZM36 2.32269C36.64 2.32269 37.1613 2.84417 37.1613 3.48391C37.1613 4.12365 36.6398 4.64514 36 4.64514C35.36 4.64514 34.8388 4.12365 34.8388 3.48391C34.8388 2.84417 35.36 2.32269 36 2.32269ZM11.6129 9.29028V8.12905H32.5161V9.29028H11.6129ZM41.0273 66.7756L41.3629 67.3551H52.2581C53.7724 67.3551 55.0639 68.3259 55.5434 69.6778H16.4566C16.9361 68.3261 18.2276 67.3551 19.7419 67.3551H30.6372L30.9728 66.7756C32.0085 64.9837 33.9352 63.8712 36 63.8712C38.0649 63.8709 39.9913 64.9835 41.0273 66.7756ZM36 61.5485C35.6076 61.5485 35.2207 61.5857 34.8388 61.6413V8.12905H37.1615V61.6413C36.7791 61.5857 36.3925 61.5485 36 61.5485ZM39.4839 8.12905H60.3872V9.29028H39.4839V8.12905Z" fill="#44545F"/>
<path d="M19.742 44.129H5.80636C2.60478 44.129 0 41.5244 0 38.3224V37.1611H25.5484V38.3224C25.5484 41.5244 22.9436 44.129 19.742 44.129Z" fill="#FFD200"/>
<path d="M66.1937 44.1287H52.2583C49.0567 44.1287 46.4519 41.5239 46.4519 38.3224V37.1611H72.0003V38.3224C72.0003 41.5242 69.3955 44.1287 66.1937 44.1287Z" fill="#FFD200"/>
</svg>
