<svg width="38" height="38" viewBox="0 0 38 38" fill="none" xmlns="http://www.w3.org/2000/svg">
<g clip-path="url(#clip0)">
<path d="M33.1842 5.72219L20.7804 0.366476C19.6488 -0.122074 18.351 -0.122 17.2196 0.366476L4.81583 5.72219C3.9198 6.10904 3.34083 6.9779 3.34083 7.93585V16.082C3.33748 21.2989 5.1098 26.4313 8.33137 30.5337C8.51406 30.693 8.7177 30.8655 9.11308 30.6278C9.35494 30.4379 9.39703 30.0879 9.20714 29.8461C6.13902 25.939 4.45118 21.0511 4.45437 16.0823V7.93585C4.45437 7.42265 4.76951 6.95503 5.25716 6.7445L17.661 1.38879C18.5119 1.02132 19.4879 1.02117 20.3388 1.38879L32.7428 6.7445C33.2304 6.95503 33.5456 7.42265 33.5456 7.93585V11.0593C33.5456 11.3668 33.7948 11.616 34.1023 11.616C34.4098 11.616 34.6591 11.3668 34.6591 11.0593V7.93585C34.6591 6.9779 34.0801 6.10904 33.1842 5.72219Z" fill="#20B0BB"/>
<path d="M34.1026 13.1182C33.7951 13.1182 33.5458 13.3674 33.5458 13.675V16.0827C33.5186 25.3671 28.126 33.042 19.8395 36.6923C19.3139 36.9522 18.6864 36.9523 18.161 36.6923C15.5162 35.4831 12.9254 33.8577 10.8852 31.7483C10.669 31.5296 10.3164 31.5277 10.0979 31.7438C9.87924 31.9601 9.87731 32.3126 10.0935 32.5312C12.1928 34.7089 14.9074 36.426 17.6673 37.6904C18.0847 37.8968 18.5425 38 19.0003 38C19.4581 38 19.9159 37.8968 20.3333 37.6904C29.2916 33.7446 34.6355 25.3795 34.6594 16.0822V13.6749C34.6594 13.3674 34.4101 13.1182 34.1026 13.1182Z" fill="#20B0BB"/>
<path d="M10.8746 6.34111L6.64662 8.16666C6.44262 8.25478 6.31055 8.45566 6.31055 8.67785V16.0843C6.30818 19.833 7.33687 23.5064 9.28535 26.7073C11.4113 30.2426 14.6695 33.0443 18.4242 34.7524C18.7121 34.8843 19.1172 34.9597 19.5762 34.7525C21.413 33.9009 23.2532 32.7649 24.787 31.3955C25.0177 31.1922 25.0397 30.8403 24.8364 30.6097C24.633 30.3791 24.2812 30.3568 24.0506 30.5604C22.6345 31.8352 20.8358 32.9419 19.0825 33.7544C19.031 33.7798 18.9695 33.7799 18.918 33.7543C15.3586 32.1481 12.2656 29.4902 10.2365 26.1282C8.39437 23.102 7.42187 19.6291 7.4241 16.0846V9.04384L11.316 7.36342C11.5983 7.24145 11.7283 6.91385 11.6065 6.6316C11.4846 6.3492 11.157 6.21922 10.8746 6.34111Z" fill="#20B0BB"/>
<path d="M27.7635 26.1281C27.1968 27.0591 26.5468 27.9473 25.8316 28.7681C25.6296 29 25.6538 29.3516 25.8856 29.5536C25.998 29.6695 26.401 29.7861 26.6712 29.4996C27.4277 28.6314 28.1152 27.6918 28.7147 26.7071C30.6633 23.5062 31.6919 19.8321 31.6895 16.0825V8.67775C31.6895 8.45556 31.5574 8.25468 31.3534 8.16656L19.605 3.09384C19.2204 2.92606 18.7791 2.92599 18.3965 3.09294L13.3343 5.27869C13.0519 5.40066 12.9219 5.72826 13.0438 6.01051C13.1657 6.29291 13.4932 6.42282 13.7757 6.301L18.8399 4.11436C18.9385 4.07131 19.0611 4.07123 19.1616 4.11525L30.576 9.04374V16.0828C30.5782 19.6283 29.6057 23.1019 27.7635 26.1281Z" fill="#20B0BB"/>
<path d="M11.5203 12.1914C11.4715 12.742 11.6532 13.2674 12.0188 13.633C12.2502 13.8644 12.5462 14.0246 12.8748 14.096C13.0401 14.132 13.209 14.1904 13.3764 14.2689C13.0804 14.7812 12.8546 15.3335 12.7077 15.9045C12.5406 15.843 12.3863 15.7673 12.2497 15.6797C11.9669 15.4978 11.6443 15.4017 11.3169 15.4017C10.273 15.4017 9.42383 16.3675 9.42383 17.5546C9.42383 18.7416 10.273 19.7074 11.3169 19.7074C11.6443 19.7074 11.9669 19.6113 12.2496 19.4296C12.3914 19.3385 12.552 19.2607 12.7264 19.1979C12.8794 19.7681 13.1108 20.3179 13.4117 20.8265C13.2499 20.901 13.0869 20.9567 12.9273 20.9914C12.5988 21.0629 12.3028 21.223 12.0712 21.4544C11.7057 21.82 11.524 22.3454 11.5727 22.896C11.619 23.4175 11.8612 23.9217 12.2549 24.3154C13.0944 25.1547 14.3778 25.2371 15.1158 24.4991C15.3474 24.2675 15.5075 23.9715 15.5789 23.6431C15.6149 23.4777 15.6733 23.3089 15.7518 23.1414C16.264 23.4374 16.8164 23.6632 17.3874 23.8101C17.3258 23.9773 17.2502 24.1315 17.1625 24.2682C16.9807 24.5511 16.8846 24.8736 16.8846 25.201C16.8846 26.2448 17.8503 27.094 19.0374 27.094C20.2246 27.094 21.1903 26.2448 21.1903 25.201C21.1903 24.8736 21.0942 24.5511 20.9124 24.2682C20.8213 24.1266 20.7435 23.9659 20.6807 23.7915C21.2508 23.6385 21.8007 23.4071 22.3093 23.1063C22.3838 23.2681 22.4394 23.431 22.4741 23.5905C22.5456 23.919 22.7058 24.2151 22.9373 24.4467C23.6754 25.1847 24.9588 25.1023 25.7982 24.2629C26.1918 23.8691 26.4341 23.3651 26.4803 22.8435C26.5291 22.2929 26.3474 21.7676 25.9818 21.4019C25.7504 21.1706 25.4544 21.0104 25.1258 20.9389C24.9604 20.9029 24.7916 20.8446 24.6241 20.766C24.9201 20.2539 25.1459 19.7014 25.2928 19.1305C25.4599 19.192 25.6142 19.2676 25.7508 19.3553C26.0336 19.5371 26.3562 19.6333 26.6837 19.6333C27.7275 19.6333 28.5767 18.6674 28.5767 17.4804C28.5767 16.2934 27.7275 15.3275 26.6837 15.3275C26.3562 15.3275 26.0336 15.4237 25.7509 15.6054C25.6092 15.6965 25.4485 15.7743 25.2741 15.837C25.1211 15.2669 24.8897 14.717 24.5888 14.2084C24.7506 14.134 24.9136 14.0783 25.0732 14.0436C25.4017 13.9721 25.6977 13.8119 25.9293 13.5805C26.2948 13.2149 26.4765 12.6896 26.4278 12.1389C26.3815 11.6174 26.1393 11.1133 25.7456 10.7195C24.9061 9.88023 23.6227 9.79775 22.8847 10.5359C22.6531 10.7674 22.493 11.0635 22.4216 11.3919C22.3857 11.5573 22.3272 11.7261 22.2487 11.8936C21.7365 11.5976 21.1841 11.3718 20.6131 11.2249C20.6747 11.0577 20.7503 10.9034 20.8381 10.7668C21.0198 10.4838 21.1159 10.1614 21.1159 9.83398C21.1159 8.79014 20.1502 7.94095 18.9631 7.94095C17.7759 7.94095 16.8102 8.79014 16.8102 9.83398C16.8102 10.1614 16.9063 10.4839 17.0881 10.7668C17.1792 10.9084 17.257 11.069 17.3198 11.2435C16.7497 11.3965 16.1998 11.6279 15.6912 11.9287C15.6167 11.7669 15.5611 11.6039 15.5264 11.4445C15.4549 11.116 15.2947 10.8199 15.0632 10.5883C14.3252 9.85046 13.0419 9.93264 12.2023 10.7721C11.8087 11.1659 11.5665 11.6699 11.5203 12.1914ZM12.6295 12.2898C12.6524 12.0319 12.7837 11.7657 12.9898 11.5596C13.3882 11.1613 13.9771 11.077 14.2759 11.3757C14.3574 11.4572 14.412 11.5599 14.4384 11.6812C14.5398 12.1473 14.746 12.6034 15.0512 13.0368C15.1891 13.2228 15.5142 13.3736 15.8344 13.166C16.5013 12.6798 17.2832 12.3501 18.0953 12.2126C18.3205 12.1688 18.5944 11.9452 18.5512 11.5702C18.4611 11.0407 18.284 10.5679 18.025 10.1648C17.9579 10.0604 17.9239 9.94912 17.9239 9.83398C17.9239 9.4115 18.3998 9.0545 18.9632 9.0545C19.5266 9.0545 20.0025 9.4115 20.0025 9.83398C20.0025 9.94912 19.9685 10.0604 19.9014 10.1648C19.6447 10.5642 19.4685 11.0322 19.3776 11.5554C19.3434 11.7845 19.4666 12.1212 19.84 12.2008C20.6519 12.3279 21.4377 12.6484 22.1122 13.1276C22.3022 13.2557 22.6541 13.2915 22.8887 12.9958C23.1984 12.5592 23.4074 12.0992 23.5097 11.6286C23.5361 11.5073 23.5907 11.4046 23.6722 11.3232C23.971 11.0244 24.5599 11.1087 24.9582 11.5069C25.1644 11.7131 25.2957 11.9793 25.3186 12.2372C25.3301 12.3673 25.3225 12.6126 25.142 12.793C25.0605 12.8745 24.9578 12.929 24.8365 12.9555C24.3702 13.0569 23.9141 13.2632 23.4809 13.5684C23.2948 13.7062 23.1441 14.0313 23.3517 14.3515C23.8379 15.0185 24.1676 15.8003 24.305 16.6124C24.3488 16.8374 24.5724 17.1117 24.9474 17.0683C25.4768 16.9783 25.9497 16.8012 26.353 16.5421C26.4573 16.475 26.5686 16.441 26.6837 16.441C27.1062 16.441 27.4632 16.917 27.4632 17.4803C27.4632 18.0437 27.1062 18.5196 26.6837 18.5196C26.5686 18.5196 26.4573 18.4856 26.3529 18.4185C25.9533 18.1618 25.4854 17.9856 24.9623 17.8946C24.7332 17.8606 24.3964 17.9837 24.3169 18.3571C24.1898 19.169 23.8693 19.9547 23.3902 20.6292C23.262 20.8194 23.2262 21.1711 23.5219 21.4058C23.9585 21.7155 24.4185 21.9244 24.8891 22.0268C25.0104 22.0531 25.1132 22.1079 25.1945 22.1892C25.3752 22.3698 25.3827 22.615 25.3712 22.745C25.3484 23.0029 25.217 23.2691 25.0109 23.4752C24.6125 23.8736 24.0236 23.9578 23.7248 23.6591C23.6434 23.5776 23.5887 23.4749 23.5624 23.3536C23.461 22.8875 23.2547 22.4314 22.9495 21.9981C22.8116 21.812 22.4865 21.6612 22.1664 21.8688C21.4994 22.355 20.7176 22.6847 19.9054 22.8222C19.6803 22.866 19.4063 23.0896 19.4495 23.4646C19.5397 23.9941 19.7167 24.4669 19.9757 24.8701C20.0428 24.9744 20.0768 25.0857 20.0768 25.2008C20.0768 25.6233 19.6009 25.9803 19.0375 25.9803C18.4741 25.9803 17.9982 25.6233 17.9982 25.2008C17.9982 25.0857 18.0322 24.9744 18.0993 24.8701C18.356 24.4706 18.5323 24.0027 18.6231 23.4795C18.6573 23.2504 18.5341 22.9136 18.1607 22.834C17.3488 22.7069 16.5631 22.3865 15.8886 21.9073C15.7569 21.7944 15.3394 21.731 15.112 22.039C14.8023 22.4756 14.5934 22.9356 14.491 23.4063C14.4646 23.5275 14.41 23.6302 14.3286 23.7116C14.0298 24.0104 13.4408 23.9261 13.0425 23.5279C12.8363 23.3217 12.705 23.0556 12.6821 22.7976C12.6706 22.6675 12.6782 22.4222 12.8587 22.2418C12.9402 22.1603 13.0429 22.1058 13.1642 22.0794C13.6305 21.9779 14.0866 21.7716 14.5198 21.4665C14.7059 21.3286 14.8567 21.0035 14.649 20.6833C14.1628 20.0163 13.8331 19.2345 13.6957 18.4225C13.6518 18.1973 13.4284 17.9234 13.0533 17.9665C12.5239 18.0566 12.0511 18.2336 11.6477 18.4928C11.5434 18.5598 11.4321 18.5938 11.317 18.5938C10.8945 18.5938 10.5375 18.1179 10.5375 17.5545C10.5375 16.9911 10.8945 16.5152 11.317 16.5152C11.4321 16.5152 11.5434 16.5492 11.6479 16.6163C12.0474 16.873 12.5153 17.0492 13.0385 17.1402C13.2676 17.1743 13.6042 17.0511 13.6838 16.6778C13.8109 15.8658 14.1314 15.0801 14.6106 14.4055C14.7388 14.2154 14.7744 13.8637 14.4788 13.629C14.0422 13.3193 13.5822 13.1104 13.1117 13.008C12.9904 12.9817 12.8876 12.927 12.8062 12.8456C12.6256 12.6651 12.6179 12.4199 12.6295 12.2898Z" fill="#20B0BB"/>
<path d="M17.6636 17.332C18.7893 17.332 19.7051 16.4161 19.7051 15.2905C19.7051 14.1648 18.7893 13.249 17.6636 13.249C16.5379 13.249 15.6221 14.1648 15.6221 15.2905C15.6221 16.4161 16.5379 17.332 17.6636 17.332ZM17.6636 14.3625C18.1753 14.3625 18.5915 14.7788 18.5915 15.2905C18.5915 15.8022 18.1753 16.2185 17.6636 16.2185C17.1519 16.2185 16.7356 15.8022 16.7356 15.2905C16.7356 14.7788 17.1519 14.3625 17.6636 14.3625Z" fill="#20B0BB"/>
<path d="M21.561 19.9308C22.5844 19.9308 23.4169 19.0982 23.4169 18.0749C23.4169 17.0516 22.5844 16.219 21.561 16.219C20.5376 16.219 19.7051 17.0516 19.7051 18.0749C19.7051 19.0982 20.5376 19.9308 21.561 19.9308ZM21.561 17.3325C21.9703 17.3325 22.3034 17.6656 22.3034 18.0749C22.3034 18.4842 21.9703 18.8173 21.561 18.8173C21.1517 18.8173 20.8186 18.4842 20.8186 18.0749C20.8186 17.6656 21.1517 17.3325 21.561 17.3325Z" fill="#20B0BB"/>
<path d="M17.7006 18.1116C16.7795 18.1116 16.0303 18.8609 16.0303 19.7819C16.0303 20.7029 16.7795 21.4522 17.7006 21.4522C18.6216 21.4522 19.3709 20.7029 19.3709 19.7819C19.3709 18.8609 18.6216 18.1116 17.7006 18.1116ZM17.7006 20.3387C17.3935 20.3387 17.1438 20.089 17.1438 19.7819C17.1438 19.4749 17.3935 19.2251 17.7006 19.2251C18.0076 19.2251 18.2574 19.4749 18.2574 19.7819C18.2574 20.089 18.0076 20.3387 17.7006 20.3387Z" fill="#20B0BB"/>
</g>
<defs>
<clipPath id="clip0">
<rect width="38" height="38" fill="white"/>
</clipPath>
</defs>
</svg>
