<svg width="38" height="38" viewBox="0 0 38 38" fill="none" xmlns="http://www.w3.org/2000/svg">
<path d="M11.7188 13.798C11.48 13.6043 11.1295 13.6409 10.9358 13.8797C10.711 14.157 10.4128 14.3097 10.0962 14.3097C9.77957 14.3097 9.48144 14.1569 9.25655 13.8797C9.06291 13.6409 8.7123 13.6044 8.47361 13.798C8.23485 13.9916 8.19826 14.3422 8.3919 14.5809C8.82586 15.1161 9.44707 15.423 10.0962 15.423C10.7453 15.423 11.3665 15.1161 11.8005 14.5809C11.9941 14.3422 11.9575 13.9916 11.7188 13.798Z" fill="#20B0BB"/>
<path d="M7.55274 10.4933C7.24532 10.4933 6.99609 10.7426 6.99609 11.05V11.686C6.99609 11.9934 7.24532 12.2426 7.55274 12.2426C7.86015 12.2426 8.10938 11.9934 8.10938 11.686V11.05C8.10938 10.7426 7.86015 10.4933 7.55274 10.4933Z" fill="#20B0BB"/>
<path d="M12.6406 10.4933C12.3332 10.4933 12.084 10.7426 12.084 11.05V11.686C12.084 11.9934 12.3331 12.2426 12.6406 12.2426C12.948 12.2426 13.1973 11.9934 13.1973 11.686V11.05C13.1973 10.7426 12.948 10.4933 12.6406 10.4933Z" fill="#20B0BB"/>
<path d="M30.1621 16.9776C29.9233 16.784 29.5728 16.8205 29.3791 17.0593C29.1543 17.3365 28.856 17.4893 28.5395 17.4893C28.2229 17.4893 27.9247 17.3365 27.6999 17.0593C27.5063 16.8206 27.1557 16.784 26.9169 16.9776C26.6782 17.1713 26.6416 17.5218 26.8353 17.7605C27.2692 18.2957 27.8904 18.6026 28.5395 18.6026C29.1886 18.6026 29.8098 18.2957 30.2437 17.7605C30.4374 17.5218 30.4008 17.1713 30.1621 16.9776Z" fill="#20B0BB"/>
<path d="M25.9961 13.6735C25.6887 13.6735 25.4395 13.9228 25.4395 14.2302V14.8662C25.4395 15.1736 25.6887 15.4228 25.9961 15.4228C26.3035 15.4228 26.5527 15.1736 26.5527 14.8662V14.2302C26.5527 13.9228 26.3035 13.6735 25.9961 13.6735Z" fill="#20B0BB"/>
<path d="M31.084 13.6735C30.7766 13.6735 30.5273 13.9228 30.5273 14.2302V14.8662C30.5273 15.1736 30.7765 15.4228 31.084 15.4228C31.3914 15.4228 31.6406 15.1736 31.6406 14.8662V14.2302C31.6406 13.9228 31.3914 13.6735 31.084 13.6735Z" fill="#20B0BB"/>
<path d="M36.451 24.6813L32.0901 22.9369C32.0665 22.9275 32.0447 22.9155 32.0225 22.9039C35.0346 22.2185 36.4611 21.0725 36.5244 21.0206C36.675 20.8971 36.7501 20.704 36.7226 20.5113C36.7163 20.4672 36.0922 16.0481 36.0922 11.6863C36.0922 7.52189 32.7042 4.13385 28.5397 4.13385C24.3753 4.13385 20.9873 7.52181 20.9873 11.6863C20.9873 12.8274 20.9355 14.223 20.8512 15.5442L19.636 16.1518L16.069 14.3684C16.0588 14.3633 16.048 14.3596 16.0376 14.3551C16.2072 13.8606 16.3182 13.3391 16.3589 12.798C17.1051 12.5675 17.6487 11.8712 17.6487 11.0503C17.6487 10.4975 17.4017 10.0015 17.0127 9.66593V5.96239C17.0127 4.93928 16.4958 3.982 15.6481 3.4068C15.3608 2.33953 14.4019 1.58984 13.2762 1.58984H8.1883C5.42661 1.58984 3.17977 3.83668 3.17977 6.59838V9.66586C2.79079 10.0014 2.54379 10.4974 2.54379 11.0503C2.54379 11.8711 3.08744 12.5674 3.83357 12.7979C3.97414 14.6667 4.93721 16.3086 6.35969 17.3654V18.9039L1.75632 20.2849C0.705824 20.6001 0 21.5487 0 22.6455V28.8577C0 29.1652 0.249228 29.4144 0.556644 29.4144H0.635984V35.8536C0.635984 36.161 0.885212 36.4102 1.19263 36.4102C1.50004 36.4102 1.74927 36.161 1.74927 35.8536V29.4144H3.81591V35.8536C3.81591 36.161 4.06513 36.4102 4.37255 36.4102C4.67997 36.4102 4.92919 36.161 4.92919 35.8536V26.2556C4.92919 25.7673 4.78602 25.2946 4.51527 24.8884L3.56378 23.4612C3.39323 23.2054 3.04759 23.1363 2.7919 23.3067C2.53607 23.4772 2.46697 23.8229 2.63753 24.0787L3.58902 25.506C3.73746 25.7287 3.81598 25.9878 3.81598 26.2556V28.3011H1.19263H1.11329V22.6455C1.11329 22.0441 1.50027 21.5241 2.07636 21.3512L3.98728 20.778C4.65273 23.5643 7.17996 25.5985 10.0964 25.5985C11.1442 25.5985 12.1617 25.3401 13.0729 24.8485C13.4059 25.3028 13.943 25.5985 14.5482 25.5985H14.6276V25.6778C14.6276 27.5439 15.6542 29.1738 17.1715 30.0354V30.9433C17.1715 30.9774 17.1497 31.0077 17.1172 31.0186L15.0408 31.7107C14.0328 32.0467 13.3556 32.9863 13.3556 34.0489V35.8536C13.3556 36.161 13.6048 36.4102 13.9122 36.4102C14.2197 36.4102 14.4689 36.161 14.4689 35.8536V34.0489C14.4689 33.4663 14.8402 32.9511 15.3928 32.7669L16.0034 32.5634C16.8112 33.7681 18.1698 34.5023 19.636 34.5023C21.1038 34.5023 22.4611 33.7685 23.2688 32.5634L23.8792 32.7669C24.4318 32.9512 24.8032 33.4663 24.8032 34.0489V35.8536C24.8032 36.161 25.0524 36.4102 25.3598 36.4102C25.6672 36.4102 25.9164 36.161 25.9164 35.8536V34.0489C25.9164 32.9863 25.2392 32.0467 24.2312 31.7108L22.1548 31.0186C22.1224 31.0078 22.1005 30.9776 22.1005 30.9434V30.0355C23.2366 29.3903 24.0965 28.3145 24.4572 27.031C25.5091 28.1317 26.9783 28.7786 28.5397 28.7786C31.0046 28.7786 33.1674 27.1851 33.9125 24.8651L36.0373 25.715C36.5533 25.9214 36.8867 26.4139 36.8867 26.9696V29.5731H36.8074H34.8201V28.8578C34.8201 28.5504 34.5709 28.3012 34.2634 28.3012C33.956 28.3012 33.7068 28.5504 33.7068 28.8578V35.8536C33.7068 36.1611 33.956 36.4103 34.2634 36.4103C34.5709 36.4103 34.8201 36.1611 34.8201 35.8536V30.6864H36.2507V35.8536C36.2507 36.1611 36.5 36.4103 36.8074 36.4103C37.1148 36.4103 37.364 36.1611 37.364 35.8536V30.6864H37.4434C37.591 30.6864 37.7325 30.6278 37.8369 30.5234C37.9414 30.419 38 30.2775 38 30.1298V26.9696C38.0002 25.9559 37.3921 25.0577 36.451 24.6813ZM22.1007 11.6863C22.1007 8.13568 24.9893 5.24707 28.5399 5.24707C32.0904 5.24707 34.979 8.13568 34.979 11.6863C34.979 15.4242 35.4291 19.2027 35.5754 20.3312C35.0766 20.6576 33.7994 21.3763 31.6405 21.8486V20.9628C31.9361 20.7952 32.2192 20.604 32.4854 20.3889C33.5807 19.5035 34.3547 18.2636 34.6647 16.8975C34.768 16.4423 34.8204 15.9729 34.8204 15.5022C34.8204 12.356 32.545 11.9043 30.3446 11.4675C28.9444 11.1895 27.4966 10.9021 26.3437 9.97973C26.1767 9.84606 25.9478 9.82001 25.7549 9.91271C25.562 10.0054 25.4394 10.2004 25.4394 10.4144C25.4394 10.4292 25.4151 11.8938 23.3171 12.4183C23.0188 12.4929 22.8375 12.7952 22.9121 13.0934C22.9866 13.3917 23.2889 13.5729 23.5871 13.4985C25.3431 13.0595 26.0595 12.0743 26.3516 11.3342C27.5587 12.0496 28.9109 12.3179 30.1278 12.5595C32.4797 13.0264 33.7071 13.3694 33.7071 15.5023C33.7071 15.8902 33.664 16.2767 33.579 16.6512C33.324 17.7745 32.6872 18.7944 31.7855 19.5232C30.8577 20.2731 29.7354 20.6694 28.5399 20.6694C27.45 20.6694 26.4128 20.3352 25.5326 19.7035C25.2101 18.8233 24.6921 18.018 24.0086 17.3545V14.8663C24.0086 14.6734 23.9087 14.4942 23.7446 14.3928C23.5805 14.2914 23.3757 14.2821 23.2031 14.3685L22.0012 14.9693C22.0671 13.8101 22.1007 12.708 22.1007 11.6863ZM22.8954 15.7668V17.7814L20.8807 16.7741L22.8954 15.7668ZM16.3768 15.7668L18.3914 16.7741L16.3768 17.7814V15.7668ZM13.3556 21.8619V22.3906C12.957 22.7347 12.7196 23.2384 12.7196 23.7698C11.9268 24.2382 11.0261 24.4852 10.0963 24.4852C7.67501 24.4852 5.58017 22.7813 5.05611 20.4573L6.43131 20.0447C6.77057 21.7583 8.28472 23.0546 10.0964 23.0546C11.535 23.0546 12.7854 22.2369 13.4096 21.0423C13.3739 21.3126 13.3556 21.5863 13.3556 21.8619ZM7.47313 19.3171V18.0277C8.27188 18.3966 9.16043 18.6027 10.0964 18.6027C11.0323 18.6027 11.9209 18.3965 12.7197 18.0278V19.3179C12.7197 20.7644 11.5429 21.9412 10.0964 21.9412C8.65232 21.9412 7.47721 20.7682 7.47328 19.325C7.47328 19.3224 7.47313 19.3197 7.47313 19.3171ZM10.0964 17.4894C7.24713 17.4894 4.92919 15.1714 4.92919 12.3222C4.92919 12.0148 4.67997 11.7656 4.37255 11.7656C3.97815 11.7656 3.65722 11.4447 3.65722 11.0503C3.65722 10.6559 3.97807 10.3349 4.37255 10.3349H5.64452C5.8841 10.3349 6.09681 10.1817 6.17259 9.95435L6.68351 8.42157C7.96268 8.3927 11.9281 8.21287 14.1612 7.09631C14.4362 6.95879 14.5476 6.6245 14.4101 6.34952C14.2726 6.07454 13.9384 5.96306 13.6633 6.10059C11.2674 7.29849 6.32993 7.31378 6.28035 7.31378C6.04077 7.31385 5.82806 7.46711 5.75236 7.69445L5.24329 9.22173H4.37255C4.34598 9.22173 4.31956 9.22262 4.29321 9.22373V6.59838C4.29321 4.45055 6.04063 2.70313 8.18845 2.70313H13.2763C13.941 2.70313 14.4995 3.18222 14.6043 3.84217C14.631 4.00991 14.7327 4.15627 14.8806 4.23969C15.5091 4.59416 15.8996 5.25419 15.8996 5.96232V9.22358C15.8733 9.2224 15.8469 9.22158 15.8203 9.22158H15.1843C14.8769 9.22158 14.6276 9.47081 14.6276 9.77822C14.6276 10.0856 14.8769 10.3349 15.1843 10.3349H15.8203C16.2147 10.3349 16.5356 10.6557 16.5356 11.0502C16.5356 11.4447 16.2147 11.7655 15.8203 11.7655C15.5128 11.7655 15.2636 12.0147 15.2636 12.3222C15.2636 15.1714 12.9457 17.4894 10.0964 17.4894ZM13.8329 19.3181V17.3654C14.3866 16.954 14.8706 16.4542 15.2635 15.8863V17.3544C14.6402 17.9596 14.1543 18.6826 13.829 19.4729C13.8311 19.4214 13.8329 19.3699 13.8329 19.3181ZM22.158 32.1931C21.5452 32.9417 20.6245 33.389 19.6361 33.389C18.6488 33.389 17.7276 32.9414 17.1146 32.193L17.4693 32.0748C17.9571 31.9122 18.2849 31.4575 18.2849 30.9434V30.4997C18.715 30.6205 19.1679 30.6864 19.6362 30.6864C20.1044 30.6864 20.5573 30.6205 20.9875 30.4997V30.9434C20.9874 31.4574 21.3151 31.9122 21.8029 32.0747L22.158 32.1931ZM24.0881 24.4852C23.7806 24.4852 23.5314 24.7344 23.5314 25.0418V25.5953C23.5314 25.6001 23.5313 25.6049 23.5314 25.6098V25.6778C23.5313 27.8257 21.7839 29.5731 19.6361 29.5731C17.4883 29.5731 15.7409 27.8257 15.7409 25.6778V25.0418C15.7409 24.7344 15.4917 24.4852 15.1843 24.4852H14.5483C14.1539 24.4852 13.833 24.1644 13.833 23.7699C13.833 23.516 13.9673 23.2863 14.1923 23.1554C14.2425 23.1262 14.2862 23.0891 14.3241 23.0473C15.7001 23.0074 20.1606 22.7485 23.0922 21.0733C23.3591 20.9207 23.4519 20.5808 23.2993 20.3138C23.1468 20.0468 22.8067 19.9541 22.5398 20.1066C19.9717 21.5741 15.9363 21.8679 14.469 21.9266V21.8619C14.469 20.8266 14.7825 19.824 15.3505 18.9787C15.395 19.0492 15.4544 19.1103 15.5276 19.1555C15.6171 19.2107 15.7185 19.2386 15.8203 19.2386C15.9053 19.2386 15.9906 19.2191 16.0692 19.1799L19.6362 17.3964L23.2031 19.1799C23.2817 19.2191 23.367 19.2386 23.4521 19.2386C23.5539 19.2386 23.6554 19.2107 23.7447 19.1555C23.8178 19.1103 23.8773 19.0491 23.9217 18.9787C24.4898 19.824 24.8033 20.8266 24.8033 21.8619V22.6743C24.8033 22.8725 24.9086 23.0557 25.08 23.1554C25.305 23.2864 25.4394 23.516 25.4394 23.7699C25.4394 24.1643 25.1184 24.4852 24.724 24.4852H24.0881ZM28.5399 27.6651C26.9988 27.6651 25.569 26.8805 24.7367 25.5982C25.7391 25.5913 26.5526 24.7739 26.5526 23.7699C26.5526 23.2385 26.3152 22.7348 25.9166 22.3907V21.862C25.9166 21.6379 25.9045 21.4151 25.8808 21.1944C26.7062 21.5814 27.6074 21.7826 28.5399 21.7826C29.2186 21.7826 29.8898 21.6701 30.5272 21.4576V22.2727C30.5272 23.0248 30.9783 23.6913 31.6766 23.9706L32.8769 24.4507C32.3017 26.3528 30.5449 27.6651 28.5399 27.6651Z" fill="#20B0BB"/>
<path d="M21.2588 26.5172C21.02 26.3236 20.6695 26.3601 20.4759 26.5989C20.2509 26.8762 19.9528 27.0289 19.6362 27.0289C19.3197 27.0289 19.0215 26.8762 18.7966 26.5989C18.603 26.3602 18.2523 26.3236 18.0137 26.5172C17.7749 26.7109 17.7383 27.0614 17.9319 27.3002C18.366 27.8352 18.9871 28.1422 19.6362 28.1422C20.2854 28.1422 20.9065 27.8353 21.3405 27.3002C21.5341 27.0615 21.4975 26.7109 21.2588 26.5172Z" fill="#20B0BB"/>
<path d="M17.7383 24.9648C18.0457 24.9648 18.2949 24.7156 18.2949 24.4082C18.2949 24.1008 18.0457 23.8516 17.7383 23.8516C17.4309 23.8516 17.1816 24.1008 17.1816 24.4082C17.1816 24.7156 17.4309 24.9648 17.7383 24.9648Z" fill="#20B0BB"/>
<path d="M21.5234 24.9648C21.8309 24.9648 22.0801 24.7156 22.0801 24.4082C22.0801 24.1008 21.8309 23.8516 21.5234 23.8516C21.216 23.8516 20.9668 24.1008 20.9668 24.4082C20.9668 24.7156 21.216 24.9648 21.5234 24.9648Z" fill="#20B0BB"/>
</svg>
