<svg width="38" height="38" viewBox="0 0 38 38" fill="none" xmlns="http://www.w3.org/2000/svg">
<path d="M33.3883 11.6523L31.7247 10.1971C29.0237 7.83275 25.5592 6.53125 21.9688 6.53125C20.004 6.53125 18.4062 4.93347 18.4062 2.96875V0.59375H17.2188V2.96875C17.2188 5.58778 19.3497 7.71875 21.9688 7.71875C25.2712 7.71875 28.4584 8.91634 30.9427 11.0913L32.6064 12.5465C34.9024 14.5552 36.2188 17.4562 36.2188 20.5069C36.2188 23.2127 35.1975 25.7872 33.3438 27.7566L30.7598 30.5021C28.4062 33.003 25.0865 34.4375 21.6523 34.4375C18.5577 34.4375 15.5859 33.2975 13.2857 31.2271L12.3583 30.3929C11.4285 29.5551 10.2267 29.0938 8.97453 29.0938C7.62316 29.0938 6.35312 29.6198 5.39778 30.5752C4.59741 31.3761 4.15625 32.4401 4.15625 33.5718V37.4062H5.34375V33.5718C5.34375 32.7572 5.66141 31.9913 6.23734 31.4147C6.96825 30.6838 7.94022 30.2812 8.97453 30.2812C9.93225 30.2812 10.852 30.6345 11.5639 31.2752L12.4913 32.1094C15.01 34.3763 18.2632 35.625 21.6523 35.625C25.4125 35.625 29.0474 34.0539 31.6243 31.3162L34.2083 28.5707C36.2704 26.3797 37.4062 23.5155 37.4062 20.5069C37.4062 17.1137 35.9421 13.8866 33.3883 11.6523Z" fill="#20B0BB"/>
<path d="M5.13891 27.9603C6.16787 27.1593 7.45275 26.7188 8.75722 26.7188C10.9202 26.7188 12.9354 25.7497 14.2862 24.0611L15.691 22.3048C16.6761 21.0734 17.2188 19.5273 17.2188 17.9503V17.534C17.2188 15.7207 18.1967 14.0357 19.7707 13.1361C20.5348 12.6997 21.4041 12.4688 22.284 12.4688H24.3438V11.2812H22.284C21.1975 11.2812 20.1246 11.5657 19.1817 12.1054C18.9062 12.2627 18.6503 12.4438 18.4062 12.6374V12.4123C18.4062 10.7623 17.6789 9.20906 16.4112 8.15278C15.4149 7.32331 14.8438 6.10316 14.8438 4.80641V0.59375H13.6562V4.80641C13.6562 6.45644 14.3836 8.00969 15.6513 9.06597C16.6476 9.89544 17.2188 11.1156 17.2188 12.4129V13.8884C16.4653 14.9364 16.0312 16.2046 16.0312 17.5346V17.9508C16.0312 19.2589 15.5812 20.542 14.7642 21.5632L13.3594 23.3189C12.2342 24.7255 10.5575 25.5312 8.75722 25.5312C7.19031 25.5312 5.64656 26.0615 4.41037 27.0233L3.57437 27.6735C1.67972 29.146 0.59375 31.3666 0.59375 33.766V37.4062H1.78125V33.766C1.78125 31.7353 2.70038 29.8567 4.30291 28.6098L5.13891 27.9603Z" fill="#20B0BB"/>
<path d="M19 19.5938C18.7441 19.5938 18.5179 19.757 18.4365 19.9999L18.0738 21.0882C17.5833 22.5595 16.603 23.8432 15.3128 24.703C14.2755 25.3941 13.6562 26.5513 13.6562 27.7982C13.6562 28.7921 14.0434 29.7261 14.7488 30.4327L14.7933 30.476C16.5817 32.265 18.9596 33.25 21.489 33.25H22.4479C24.9779 33.25 27.3558 32.265 29.1442 30.476L31.9182 27.7026C33.9257 25.6951 35.0312 23.0262 35.0312 20.1875V18.4062C35.0312 18.0779 34.7652 17.8125 34.4375 17.8125H31.6302C29.8751 17.8125 28.1527 18.1248 26.5103 18.7405C25.0016 19.307 23.4193 19.5938 21.8073 19.5938H19ZM26.9272 19.8532C28.4359 19.2868 30.0182 19 31.6302 19H33.8438V20.1875C33.8438 22.7092 32.8617 25.0794 31.0787 26.863L28.3047 29.6364C26.7407 31.201 24.6608 32.0625 22.4485 32.0625H21.4896C19.2773 32.0625 17.1974 31.201 15.6305 29.6335L15.5865 29.5901C15.1074 29.111 14.8438 28.4751 14.8438 27.7982C14.8438 26.9491 15.2653 26.1612 15.9719 25.6904C17.4806 24.6846 18.6271 23.183 19.2007 21.4635L19.4281 20.7812H21.8073C23.5624 20.7812 25.2848 20.4689 26.9272 19.8532Z" fill="#20B0BB"/>
<path d="M23.1562 30.875C24.1383 30.875 24.9375 30.0758 24.9375 29.0938C24.9375 28.1117 24.1383 27.3125 23.1562 27.3125C22.1742 27.3125 21.375 28.1117 21.375 29.0938C21.375 30.0758 22.1742 30.875 23.1562 30.875ZM23.1562 28.5C23.4834 28.5 23.75 28.766 23.75 29.0938C23.75 29.4215 23.4834 29.6875 23.1562 29.6875C22.8291 29.6875 22.5625 29.4215 22.5625 29.0938C22.5625 28.766 22.8291 28.5 23.1562 28.5Z" fill="#20B0BB"/>
<path d="M18.4062 26.7188C17.4242 26.7188 16.625 27.5179 16.625 28.5C16.625 29.4821 17.4242 30.2812 18.4062 30.2812C19.3883 30.2812 20.1875 29.4821 20.1875 28.5C20.1875 27.5179 19.3883 26.7188 18.4062 26.7188ZM18.4062 29.0938C18.0791 29.0938 17.8125 28.8277 17.8125 28.5C17.8125 28.1723 18.0791 27.9062 18.4062 27.9062C18.7334 27.9062 19 28.1723 19 28.5C19 28.8277 18.7334 29.0938 18.4062 29.0938Z" fill="#20B0BB"/>
<path d="M19.5938 24.9375H20.7812V26.125H19.5938V24.9375Z" fill="#20B0BB"/>
<path d="M21.9688 23.75H23.1562V24.9375H21.9688V23.75Z" fill="#20B0BB"/>
<path d="M26.125 28.5H27.3125V29.6875H26.125V28.5Z" fill="#20B0BB"/>
<path d="M27.3125 26.125H28.5V27.3125H27.3125V26.125Z" fill="#20B0BB"/>
<path d="M24.9375 24.9375H26.125V26.125H24.9375V24.9375Z" fill="#20B0BB"/>
</svg>
