<svg width="38" height="38" viewBox="0 0 38 38" fill="none" xmlns="http://www.w3.org/2000/svg">
<path d="M36.2559 34.5117H31.209V11.8479C31.209 11.5404 30.9598 11.2913 30.6523 11.2913C30.3449 11.2913 30.0957 11.5404 30.0957 11.8479V13.1292H7.9043V7.64453H14.3613V8.33811C14.3613 8.80873 14.7442 9.19162 15.2148 9.19162H16.959V10.9358C16.959 11.4064 17.3419 11.7893 17.8125 11.7893H20.1875C20.6581 11.7893 21.041 11.4064 21.041 10.9358V9.19162H22.7852C23.2558 9.19162 23.6387 8.80873 23.6387 8.33811V7.64453H30.0957V9.46786C30.0957 9.77535 30.3449 10.0245 30.6523 10.0245C30.9598 10.0245 31.209 9.77535 31.209 9.46786V7.08789C31.209 6.7804 30.9598 6.53125 30.6523 6.53125H26.6816V0.556641C26.6816 0.249152 26.4324 0 26.125 0H16.5324C16.225 0 15.9758 0.249152 15.9758 0.556641C15.9758 0.864129 16.225 1.11328 16.5324 1.11328H25.5684V6.53125H23.6387V5.96311C23.6387 5.49248 23.2558 5.10959 22.7852 5.10959H21.041V3.36545C21.041 2.89483 20.6581 2.51193 20.1875 2.51193H17.8125C17.3419 2.51193 16.959 2.89483 16.959 3.36545V5.10959H15.2148C14.7442 5.10959 14.3613 5.49248 14.3613 5.96311V6.53125H12.4316V1.11328H14.2404C14.5478 1.11328 14.797 0.864129 14.797 0.556641C14.797 0.249152 14.5478 0 14.2404 0H11.875C11.5676 0 11.3184 0.249152 11.3184 0.556641V6.53125H7.34766C7.04024 6.53125 6.79102 6.7804 6.79102 7.08789V34.5117H1.74414C0.782414 34.5117 0 35.2941 0 36.2559C0 37.2176 0.782414 38 1.74414 38H7.08774C7.39516 38 7.64438 37.7508 7.64438 37.4434C7.64438 37.1359 7.39516 36.8867 7.08774 36.8867H1.74414C1.39628 36.8867 1.11328 36.6037 1.11328 36.2559C1.11328 35.908 1.39628 35.625 1.74414 35.625H36.2559C36.6037 35.625 36.8867 35.908 36.8867 36.2559C36.8867 36.6037 36.6037 36.8867 36.2559 36.8867H9.51796C9.21055 36.8867 8.96132 37.1359 8.96132 37.4434C8.96132 37.7508 9.21055 38 9.51796 38H36.2559C37.2176 38 38 37.2176 38 36.2559C38 35.2941 37.2176 34.5117 36.2559 34.5117ZM15.4746 6.22287H17.2188C17.6894 6.22287 18.0723 5.83998 18.0723 5.36936V3.62522H19.9277V5.36936C19.9277 5.83998 20.3106 6.22287 20.7812 6.22287H22.5254V8.07834H20.7812C20.3106 8.07834 19.9277 8.46123 19.9277 8.93186V10.676H18.0723V8.93186C18.0723 8.46123 17.6894 8.07834 17.2188 8.07834H15.4746V6.22287ZM30.0849 14.2424V15.3557H7.9043V14.2424H30.0849ZM12.8027 34.5117V31.1719H14.2129V34.5117H12.8027ZM22.6738 31.1719V34.5117H15.3262V31.1719H22.6738ZM23.7871 34.5117V31.1719H25.1973V34.5117H23.7871ZM26.3105 34.5117V30.6152C26.3105 30.3077 26.0613 30.0586 25.7539 30.0586H12.2461C11.9387 30.0586 11.6895 30.3077 11.6895 30.6152V34.5117H7.9043V16.469H30.0957V34.5117H26.3105Z" fill="#20B0BB"/>
<path d="M14.1016 17.4043H10.0938C9.78634 17.4043 9.53711 17.6534 9.53711 17.9609V21.6719C9.53711 21.9794 9.78634 22.2285 10.0938 22.2285H14.1016C14.409 22.2285 14.6582 21.9794 14.6582 21.6719V17.9609C14.6582 17.6534 14.409 17.4043 14.1016 17.4043ZM13.5449 21.1152H10.6504V18.5176H13.5449V21.1152Z" fill="#20B0BB"/>
<path d="M27.9062 17.4043H23.8984C23.591 17.4043 23.3418 17.6534 23.3418 17.9609V21.6719C23.3418 21.9794 23.591 22.2285 23.8984 22.2285H27.9062C28.2137 22.2285 28.4629 21.9794 28.4629 21.6719V17.9609C28.4629 17.6534 28.2137 17.4043 27.9062 17.4043ZM27.3496 21.1152H24.4551V18.5176H27.3496V21.1152Z" fill="#20B0BB"/>
<path d="M21.0039 17.4043H16.9961C16.6887 17.4043 16.4395 17.6534 16.4395 17.9609V21.6719C16.4395 21.9794 16.6887 22.2285 16.9961 22.2285H21.0039C21.3113 22.2285 21.5605 21.9794 21.5605 21.6719V17.9609C21.5605 17.6534 21.3113 17.4043 21.0039 17.4043ZM20.4473 21.1152H17.5527V18.5176H20.4473V21.1152Z" fill="#20B0BB"/>
<path d="M14.1016 23.8613H10.0938C9.78634 23.8613 9.53711 24.1105 9.53711 24.418V28.1289C9.53711 28.4364 9.78634 28.6855 10.0938 28.6855H14.1016C14.409 28.6855 14.6582 28.4364 14.6582 28.1289V24.418C14.6582 24.1105 14.409 23.8613 14.1016 23.8613ZM13.5449 27.5723H10.6504V24.9746H13.5449V27.5723Z" fill="#20B0BB"/>
<path d="M27.9062 23.8613H23.8984C23.591 23.8613 23.3418 24.1105 23.3418 24.418V28.1289C23.3418 28.4364 23.591 28.6855 23.8984 28.6855H27.9062C28.2137 28.6855 28.4629 28.4364 28.4629 28.1289V24.418C28.4629 24.1105 28.2137 23.8613 27.9062 23.8613ZM27.3496 27.5723H24.4551V24.9746H27.3496V27.5723Z" fill="#20B0BB"/>
<path d="M21.0039 23.8613H16.9961C16.6887 23.8613 16.4395 24.1105 16.4395 24.418V28.1289C16.4395 28.4364 16.6887 28.6855 16.9961 28.6855H21.0039C21.3113 28.6855 21.5605 28.4364 21.5605 28.1289V24.418C21.5605 24.1105 21.3113 23.8613 21.0039 23.8613ZM20.4473 27.5723H17.5527V24.9746H20.4473V27.5723Z" fill="#20B0BB"/>
</svg>
