<svg width="38" height="38" viewBox="0 0 38 38" fill="none" xmlns="http://www.w3.org/2000/svg">
<g clip-path="url(#clip0)">
<path d="M3.06836 36.4414C2.76087 36.4414 2.51172 36.6906 2.51172 36.998V37.4434C2.51172 37.7508 2.76087 38 3.06836 38C3.37585 38 3.625 37.7508 3.625 37.4434V36.998C3.625 36.6906 3.37585 36.4414 3.06836 36.4414Z" fill="#20B0BB"/>
<path d="M5.01184 27.8113C5.1179 27.9057 5.25001 27.9521 5.3816 27.9521C5.53493 27.9521 5.68768 27.889 5.79759 27.7654C5.96659 27.5755 6.1459 27.3911 6.33056 27.2173C6.5544 27.0066 6.56502 26.6543 6.35431 26.4304C6.1436 26.2066 5.79129 26.196 5.56744 26.4067C5.35904 26.6028 5.15664 26.8109 4.96597 27.0253C4.76165 27.255 4.78213 27.6069 5.01184 27.8113Z" fill="#20B0BB"/>
<path d="M4.07084 29.2716C3.78977 29.1473 3.46098 29.2742 3.33652 29.5553C3.22044 29.8177 3.1149 30.0884 3.0228 30.3599C2.92409 30.6511 3.08002 30.9671 3.37118 31.0658C3.43041 31.0859 3.49067 31.0954 3.54997 31.0954C3.7819 31.0954 3.99847 30.9493 4.07707 30.7173C4.15849 30.4773 4.25178 30.2379 4.3545 30.0058C4.47897 29.7247 4.35198 29.396 4.07084 29.2716Z" fill="#20B0BB"/>
<path d="M8.84428 24.3705C8.57538 24.4705 8.30798 24.5838 8.04947 24.7071C7.77205 24.8394 7.65441 25.1717 7.78681 25.4491C7.88226 25.6492 8.08168 25.7662 8.2895 25.7662C8.36987 25.7662 8.45151 25.7488 8.52885 25.7118C8.75766 25.6026 8.99427 25.5025 9.23222 25.414C9.52041 25.3069 9.66714 24.9864 9.56004 24.6983C9.45294 24.4102 9.13224 24.2633 8.84428 24.3705Z" fill="#20B0BB"/>
<path d="M3.07741 32.7786C3.07467 32.7786 3.07192 32.7786 3.06917 32.7786C2.76555 32.7786 2.51714 33.0224 2.51276 33.3271C2.51202 33.3746 2.51172 33.4222 2.51172 33.4698V34.1492C2.51172 34.4566 2.76087 34.7058 3.06836 34.7058C3.37585 34.7058 3.625 34.4566 3.625 34.1492V33.4698C3.625 33.4276 3.62529 33.3854 3.62589 33.3434C3.63042 33.036 3.38483 32.7832 3.07741 32.7786Z" fill="#20B0BB"/>
<path d="M11.8461 24.8881C11.9672 24.8829 12.0912 24.8803 12.2147 24.8803H12.2676C12.5048 24.8803 12.716 24.73 12.7936 24.5057C12.8712 24.2815 12.7982 24.0327 12.6116 23.8861C12.5028 23.8006 12.3951 23.7111 12.2913 23.6204C12.0598 23.4179 11.7082 23.4414 11.5059 23.6729C11.4207 23.7703 11.3755 23.889 11.369 24.0088C11.2994 24.1062 11.2606 24.2269 11.2661 24.3558C11.279 24.6548 11.5254 24.8886 11.8218 24.8886C11.8298 24.8886 11.8379 24.8885 11.8461 24.8881Z" fill="#20B0BB"/>
<path d="M10.2098 22.5192C10.3051 22.5192 10.4018 22.4947 10.49 22.4432C10.7555 22.2881 10.845 21.9472 10.6899 21.6818C10.5689 21.4747 10.4564 21.2597 10.3553 21.0429C10.2254 20.7643 9.89407 20.6437 9.61553 20.7735C9.33692 20.9034 9.21631 21.2347 9.34619 21.5133C9.46175 21.7611 9.59037 22.0067 9.72849 22.2432C9.8321 22.4204 10.0184 22.5192 10.2098 22.5192Z" fill="#20B0BB"/>
<path d="M9.63764 18.2078C9.61983 17.9156 9.37862 17.6871 9.08582 17.685L8.64059 17.682C8.63918 17.682 8.63799 17.682 8.63665 17.682C8.33102 17.682 8.08217 17.9287 8.08009 18.2348C8.07816 18.5225 8.29466 18.7606 8.57424 18.7918C8.625 19.0535 8.85515 19.242 9.11996 19.242C9.14097 19.242 9.16227 19.2407 9.18364 19.2384C9.48905 19.2036 9.70852 18.9277 9.67378 18.6223C9.6582 18.4857 9.64602 18.3463 9.63764 18.2078Z" fill="#20B0BB"/>
<path d="M6.66313 18.782L7.10845 18.785H7.11238C7.41801 18.785 7.66687 18.5383 7.66895 18.2322C7.6708 17.9585 7.47486 17.7296 7.21487 17.6812C7.16827 17.4209 6.94071 17.2234 6.66699 17.2234C6.3595 17.2234 6.11035 17.4725 6.11035 17.78V18.2253C6.11035 18.5313 6.35728 18.7798 6.66313 18.782Z" fill="#20B0BB"/>
<path d="M17.0154 1.12264C17.0231 1.12264 17.0308 1.12249 17.0385 1.12219C17.3141 1.11076 17.5973 1.11062 17.8755 1.12167C18.1816 1.13251 18.4416 0.894639 18.4538 0.587596C18.466 0.28033 18.2268 0.0214551 17.9197 0.00928327C17.6118 -0.00303704 17.2982 -0.00266595 16.9929 0.0098028C16.6857 0.02242 16.4469 0.281666 16.4595 0.588857C16.4719 0.888256 16.7184 1.12264 17.0154 1.12264Z" fill="#20B0BB"/>
<path d="M26.7824 7.11116C26.8759 7.31578 27.0778 7.43661 27.289 7.43661C27.3664 7.43661 27.4451 7.42036 27.52 7.38607C27.7997 7.25826 27.9227 6.92806 27.7949 6.64848C27.667 6.3686 27.5259 6.0905 27.3753 5.82176C27.2251 5.5536 26.8859 5.45823 26.6176 5.60823C26.3495 5.75845 26.2539 6.0977 26.4041 6.36593C26.5399 6.60818 26.6671 6.85896 26.7824 7.11116Z" fill="#20B0BB"/>
<path d="M24.0099 3.48493C24.2232 3.66283 24.432 3.85172 24.6305 4.04632C24.7388 4.15267 24.8796 4.20559 25.0203 4.20559C25.1644 4.20559 25.3087 4.14985 25.4176 4.03875C25.6329 3.81928 25.6295 3.46689 25.4101 3.25166C25.1903 3.03605 24.959 2.82676 24.7226 2.62978C24.4865 2.43302 24.1356 2.46479 23.9387 2.70095C23.7418 2.93712 23.7737 3.2881 24.0099 3.48493Z" fill="#20B0BB"/>
<path d="M9.89838 4.21337C10.0392 4.21337 10.1803 4.16023 10.2886 4.05372C10.4865 3.8592 10.6951 3.67009 10.9086 3.49174C11.1447 3.29469 11.1761 2.94363 10.979 2.70769C10.782 2.47182 10.4308 2.44028 10.195 2.6374C9.95842 2.8349 9.72745 3.04435 9.50821 3.25988C9.28896 3.47541 9.286 3.8278 9.50145 4.04704C9.61041 4.15778 9.75432 4.21337 9.89838 4.21337Z" fill="#20B0BB"/>
<path d="M20.7442 1.65243C21.0076 1.74171 21.2701 1.84302 21.5247 1.95361C21.5969 1.98493 21.672 1.99977 21.746 1.99977C21.961 1.99977 22.1658 1.87449 22.2569 1.6646C22.3793 1.38264 22.25 1.05474 21.9679 0.932358C21.6854 0.809749 21.394 0.697233 21.1018 0.598151C20.8106 0.499663 20.4946 0.655374 20.3958 0.94646C20.2971 1.23769 20.4531 1.55364 20.7442 1.65243Z" fill="#20B0BB"/>
<path d="M13.1704 2.00461C13.2445 2.00461 13.3199 1.9897 13.3922 1.95823C13.6463 1.84764 13.9084 1.74618 14.1713 1.65668C14.4623 1.55752 14.6178 1.24127 14.5188 0.950262C14.4197 0.65925 14.1032 0.503911 13.8124 0.60277C13.5207 0.702149 13.2299 0.814665 12.9479 0.937422C12.666 1.06011 12.537 1.38808 12.6597 1.66996C12.7508 1.87948 12.9555 2.00461 13.1704 2.00461Z" fill="#20B0BB"/>
<path d="M6.65353 11.2774C6.66444 11.278 6.67527 11.2783 6.68611 11.2783C6.97875 11.2783 7.22419 11.0498 7.24126 10.7538C7.25737 10.476 7.28505 10.1961 7.3235 9.92177C7.36625 9.61732 7.15421 9.33589 6.84969 9.29314C6.54599 9.25068 6.26381 9.46243 6.22106 9.76695C6.17831 10.0712 6.14765 10.3816 6.12984 10.6896C6.11218 10.9965 6.34656 11.2596 6.65353 11.2774Z" fill="#20B0BB"/>
<path d="M7.40206 7.39709C7.47695 7.43123 7.5554 7.44741 7.63258 7.44741C7.84396 7.44741 8.04606 7.32636 8.13942 7.12152C8.25476 6.86858 8.3819 6.61742 8.51735 6.37502C8.66734 6.10665 8.57138 5.76747 8.303 5.61754C8.03448 5.4674 7.69537 5.56351 7.54553 5.83189C7.39531 6.10071 7.25429 6.37925 7.12649 6.65965C6.9989 6.93946 7.12233 7.26958 7.40206 7.39709Z" fill="#20B0BB"/>
<path d="M6.66699 15.2485C6.97448 15.2485 7.22363 14.9993 7.22363 14.6918V13.8094C7.22363 13.502 6.97448 13.2528 6.66699 13.2528C6.3595 13.2528 6.11035 13.502 6.11035 13.8094V14.6918C6.11035 14.9993 6.3595 15.2485 6.66699 15.2485Z" fill="#20B0BB"/>
<path d="M28.8154 13.7971C28.8154 13.4896 28.5663 13.2405 28.2588 13.2405C27.9513 13.2405 27.7021 13.4896 27.7021 13.7971V14.6795C27.7021 14.987 27.9513 15.2361 28.2588 15.2361C28.5663 15.2361 28.8154 14.987 28.8154 14.6795V13.7971Z" fill="#20B0BB"/>
<path d="M27.6013 9.91057C27.6401 10.1852 27.6681 10.4652 27.6845 10.7427C27.7019 11.0384 27.9472 11.2666 28.2396 11.2666C28.2506 11.2666 28.2618 11.2663 28.2729 11.2656C28.5798 11.2475 28.8139 10.9839 28.7958 10.677C28.7776 10.3694 28.7466 10.0591 28.7035 9.75456C28.6604 9.45019 28.3789 9.23844 28.0743 9.28142C27.7701 9.32454 27.5582 9.6062 27.6013 9.91057Z" fill="#20B0BB"/>
<path d="M28.2588 17.2234C27.9851 17.2234 27.7575 17.4209 27.7109 17.6812C27.4509 17.7296 27.2549 17.9585 27.2569 18.2322C27.2589 18.5383 27.5078 18.785 27.8134 18.785H27.8174L28.2627 18.782C28.5685 18.7799 28.8155 18.5313 28.8155 18.2253V17.78C28.8155 17.4725 28.5663 17.2234 28.2588 17.2234Z" fill="#20B0BB"/>
<path d="M26.3522 18.7918C26.6318 18.7606 26.8484 18.5225 26.8464 18.2349C26.8443 17.9287 26.5955 17.682 26.2899 17.682C26.2885 17.682 26.2873 17.682 26.2859 17.682L25.8406 17.685C25.5479 17.6871 25.3067 17.9156 25.2888 18.2078C25.2804 18.3463 25.2682 18.4857 25.2527 18.6224C25.2178 18.9278 25.4373 19.2036 25.7428 19.2384C25.7642 19.2408 25.7854 19.2421 25.8065 19.2421C26.0712 19.2421 26.3015 19.0536 26.3522 18.7918Z" fill="#20B0BB"/>
<path d="M24.8814 21.7075C24.9561 21.7414 25.0342 21.7574 25.1111 21.7574C25.3229 21.7574 25.5252 21.636 25.6184 21.4307C25.7035 21.243 25.7832 21.05 25.8551 20.8571C25.9624 20.569 25.8159 20.2484 25.5279 20.1411C25.2397 20.0339 24.9192 20.1803 24.8119 20.4683C24.7489 20.6373 24.6792 20.8064 24.6046 20.9707C24.4775 21.2505 24.6015 21.5805 24.8814 21.7075Z" fill="#20B0BB"/>
<path d="M24.398 22.499C24.1569 22.3079 23.8068 22.3486 23.616 22.5895C23.53 22.698 23.4403 22.8053 23.3492 22.9086C23.1458 23.1391 23.1678 23.4909 23.3983 23.6942C23.5042 23.7876 23.6355 23.8335 23.7664 23.8335C23.9205 23.8335 24.074 23.7698 24.184 23.6451C24.2879 23.5273 24.3904 23.4048 24.4885 23.281C24.6795 23.0399 24.6389 22.6899 24.398 22.499Z" fill="#20B0BB"/>
<path d="M16.1132 31.4584C16.226 31.4584 16.3343 31.4996 16.4185 31.5744C16.7165 31.8392 17.09 31.9717 17.4636 31.9716C17.837 31.9716 18.2107 31.8392 18.5084 31.5745C18.5927 31.4996 18.7012 31.4584 18.8138 31.4584H21.2121C21.5196 31.4584 21.7688 31.2092 21.7688 30.9017C21.7688 30.5942 21.5196 30.3451 21.2121 30.3451H18.8138C18.4283 30.3451 18.0572 30.4861 17.7688 30.7424C17.5948 30.8973 17.3321 30.8971 17.1581 30.7424C16.8699 30.4863 16.4988 30.3451 16.1132 30.3451H13.7148C13.4074 30.3451 13.1582 30.5942 13.1582 30.9017C13.1582 31.2092 13.4074 31.4584 13.7148 31.4584H16.1132Z" fill="#20B0BB"/>
<path d="M34.932 28.571C35.2394 28.571 35.4886 28.3219 35.4886 28.0144V26.7653C35.4886 25.7202 34.78 24.813 33.7649 24.559L29.5938 23.5177C29.5054 23.4955 29.4128 23.4955 29.3242 23.5177L25.1519 24.5591C24.3228 24.7667 23.6987 25.4111 23.4983 26.2102C23.2372 26.1821 22.9742 26.1663 22.711 26.1663H20.7939V23.3688C22.7219 22.2264 24.0176 20.1248 24.0176 17.7259V17.3079H24.6606C25.6289 17.3079 26.4168 16.5201 26.4168 15.5517V11.353C26.4168 11.2136 26.4139 11.0888 26.4079 10.9715C26.3923 10.6646 26.1324 10.4282 25.8238 10.4439C25.5168 10.4594 25.2805 10.7209 25.2961 11.028C25.3011 11.1262 25.3036 11.2326 25.3036 11.353V12.7184C25.1043 12.6397 24.8876 12.596 24.6607 12.596H23.4611C23.1536 12.596 22.9044 12.8451 22.9044 13.1526V14.8383L20.557 11.1462C20.4715 11.0116 20.3325 10.9202 20.175 10.8951C20.0173 10.8701 19.8569 10.9136 19.7338 11.0148L17.9398 12.49C17.5039 12.8484 16.953 13.0458 16.3887 13.0458H13.9396C13.7688 13.0458 13.6074 13.1243 13.502 13.2585L12.0222 15.1419V13.1526C12.0222 12.8451 11.773 12.596 11.4655 12.596H10.266C10.039 12.596 9.82219 12.6398 9.62284 12.7185V11.353C9.62284 7.03024 13.1401 3.51331 17.4633 3.51331C19.5579 3.51331 21.5267 4.3286 23.0072 5.80919C23.8088 6.61083 24.4376 7.59348 24.8257 8.65102C24.9316 8.93959 25.2512 9.08758 25.5401 8.98182C25.8287 8.87591 25.9768 8.5561 25.8709 8.26746C25.4275 7.05933 24.7095 5.93707 23.7944 5.02188C22.1036 3.33117 19.8552 2.40002 17.4632 2.40002C12.5261 2.40002 8.50948 6.4163 8.50948 11.353L8.5097 15.5517C8.5097 16.5201 9.29753 17.308 10.2659 17.308H10.9088V17.726C10.9088 20.1251 12.2047 22.2269 14.133 23.3692V26.1664H12.2151C8.52054 26.1664 5.40335 28.9285 4.96427 32.5912C4.92768 32.8964 5.14544 33.1736 5.4507 33.2102C5.47319 33.2129 5.49553 33.2142 5.51765 33.2142C5.79545 33.2142 6.0357 33.0065 6.06961 32.7238C6.44175 29.6202 9.08371 27.2796 12.2152 27.2796H14.6897C14.9972 27.2796 15.2463 27.0305 15.2463 26.723V23.8942C15.9391 24.144 16.6856 24.2805 17.4634 24.2805C18.2413 24.2805 18.988 24.144 19.6809 23.8941V26.723C19.6809 27.0305 19.93 27.2796 20.2375 27.2796H22.7111C22.9515 27.2796 23.1916 27.2952 23.4295 27.3229V31.3454C23.4295 33.4002 24.541 35.305 26.3302 36.3167L27.3409 36.8873H10.8974V35.9445C10.8974 35.637 10.6482 35.3878 10.3408 35.3878C10.0333 35.3878 9.78411 35.637 9.78411 35.9445V36.8873H6.02441V35.2544C6.02441 34.947 5.77526 34.6978 5.46777 34.6978C5.16029 34.6978 4.91113 34.947 4.91113 35.2544V37.4439C4.91113 37.7514 5.16029 38.0005 5.46777 38.0005H29.459C29.5533 38.0005 29.6478 37.9766 29.7327 37.9285L32.5873 36.3164C34.3768 35.3051 35.4885 33.4002 35.4885 31.3453V30.612C35.4885 30.3045 35.2394 30.0553 34.9319 30.0553C34.6244 30.0553 34.3752 30.3045 34.3752 30.612V31.3453C34.3752 32.9995 33.4802 34.533 32.0396 35.3471L29.459 36.8046L26.8778 35.3473C25.4375 34.5329 24.5427 32.9994 24.5427 31.3453V26.7652C24.5427 26.2318 24.9045 25.7687 25.422 25.639L29.4591 24.6314L33.495 25.639C34.0133 25.7687 34.3753 26.2318 34.3753 26.7652V28.0143C34.3753 28.3219 34.6245 28.571 34.932 28.571ZM24.0176 13.7093H24.6606C25.0151 13.7093 25.3035 13.9977 25.3035 14.3522V15.5517C25.3035 15.9062 25.0151 16.1947 24.6606 16.1947H24.0176V13.7093ZM9.62284 15.5517V14.3522C9.62284 13.9977 9.91132 13.7093 10.2658 13.7093H10.9087V16.1947H10.2658C9.91132 16.1947 9.62284 15.9062 9.62284 15.5517ZM12.022 17.726V16.9439L14.21 14.1591H16.3885C17.2101 14.1591 18.0122 13.8717 18.6468 13.3499L19.955 12.2742L22.9044 16.9133V17.726C22.9044 20.7263 20.4635 23.1672 17.4632 23.1672C14.4629 23.1672 12.022 20.7263 12.022 17.726Z" fill="#20B0BB"/>
<path d="M28.2593 34.0061H30.6584C30.9659 34.0061 31.2151 33.757 31.2151 33.4495V32.2068H32.4578C32.7653 32.2068 33.0144 31.9576 33.0144 31.6501V29.251C33.0144 28.9435 32.7653 28.6944 32.4578 28.6944H31.2152V27.4517C31.2152 27.1442 30.966 26.895 30.6585 26.895H28.2594C27.9519 26.895 27.7028 27.1442 27.7028 27.4517V28.6944H26.46C26.1525 28.6944 25.9033 28.9435 25.9033 29.251V31.6501C25.9033 31.9576 26.1525 32.2068 26.46 32.2068H27.7027V33.4495C27.7027 33.757 27.9519 34.0061 28.2593 34.0061ZM27.0166 31.0935V29.8077H28.2593C28.5668 29.8077 28.816 29.5585 28.816 29.251V28.0083H30.1018V29.251C30.1018 29.5585 30.351 29.8077 30.6584 29.8077H31.9012V31.0935H30.6585C30.351 31.0935 30.1019 31.3427 30.1019 31.6501V32.8929H28.816V31.6501C28.816 31.3427 28.5669 31.0935 28.2594 31.0935H27.0166Z" fill="#20B0BB"/>
</g>
<defs>
<clipPath id="clip0">
<rect width="38" height="38" fill="white"/>
</clipPath>
</defs>
</svg>
