<svg width="174" height="174" viewBox="0 0 174 174" fill="none" xmlns="http://www.w3.org/2000/svg">
<path d="M132.284 115.104C126.6 109.492 119.503 109.492 113.855 115.104C109.546 119.377 105.237 123.649 101.001 127.994C99.8423 129.189 98.8646 129.443 97.4525 128.646C94.6645 127.125 91.6955 125.894 89.0161 124.229C76.5245 116.372 66.0604 106.27 56.7912 94.9005C52.1929 89.2521 48.1014 83.2054 45.241 76.3983C44.6616 75.0224 44.7703 74.1173 45.8927 72.9948C50.2014 68.8309 54.4015 64.5584 58.6378 60.2859C64.5397 54.3478 64.5397 47.3959 58.6016 41.4217C55.2343 38.0181 51.867 34.687 48.4997 31.2835C45.0237 27.8075 41.584 24.2954 38.0718 20.8556C32.3872 15.3159 25.2905 15.3159 19.6421 20.8919C15.2971 25.1644 11.1333 29.5455 6.71591 33.7456C2.62443 37.6198 0.560591 42.3631 0.126098 47.9028C-0.561849 56.9186 1.64682 65.4274 4.76069 73.719C11.1333 90.8814 20.8369 106.125 32.6045 120.101C48.4997 139.002 67.4725 153.955 89.6679 164.745C99.6612 169.597 110.017 173.326 121.277 173.942C129.026 174.377 135.76 172.421 141.155 166.375C144.849 162.247 149.012 158.481 152.923 154.535C158.716 148.669 158.752 141.572 152.995 135.779C146.116 128.863 139.2 121.984 132.284 115.104Z" fill="#FFE35E"/>
<path d="M125.369 86.2468L138.729 83.9658C136.629 71.6913 130.836 60.5755 122.038 51.7408C112.732 42.4354 100.965 36.5698 88.0024 34.7594L86.1196 48.1925C96.1491 49.6046 105.273 54.1306 112.479 61.3359C119.286 68.143 123.739 76.7604 125.369 86.2468Z" fill="#FFE35E"/>
<path d="M146.261 28.1696C130.836 12.7451 111.32 3.00524 89.7765 0L87.8937 13.4331C106.504 16.04 123.377 24.4764 136.702 37.7647C149.338 50.4012 157.63 66.3688 160.635 83.9296L173.996 81.6485C170.484 61.2997 160.889 42.8338 146.261 28.1696Z" fill="#FFE35E"/>
</svg>
