<svg width="28" height="28" id="ic" viewBox="0 0 28 28" fill="none" xmlns="http://www.w3.org/2000/svg">
<path fill-rule="evenodd" clip-rule="evenodd" d="M27.3332 13.9343C27.3332 11.691 25.826 9.93429 23.3332 9.93429H19.2358L19.2729 9.83332C19.31 9.7331 19.4144 9.45784 19.5158 9.19051C19.6056 8.95389 19.693 8.72348 19.7293 8.62616C19.9828 7.94569 20.1678 7.39743 20.3175 6.85446C20.5437 6.0338 20.6665 5.29443 20.6665 4.60095C20.6665 2.63828 19.4557 1.41924 17.6642 0.897601C16.8562 0.662323 16.1529 0.60083 15.3332 0.600952H14.6938L14.2935 1.09947C13.8413 1.66261 12.9532 2.67753 11.9292 3.84762L11.9292 3.84766C10.0402 6.0062 7.68904 8.69283 6.76031 10.0455C6.51932 9.97391 6.26407 9.93548 5.99984 9.93548H3.33317C1.86041 9.93548 0.666504 11.1294 0.666504 12.6021V24.6021C0.666504 26.0749 1.86041 27.2688 3.33317 27.2688H5.99984C6.916 27.2688 7.72426 26.8068 8.20432 26.103C8.60882 26.3647 9.06013 26.583 9.55067 26.7585C10.6738 27.1604 11.7876 27.2837 12.7124 27.2668L21.9998 27.2676C25.6734 27.2676 27.3332 21.859 27.3332 13.9343ZM10.449 24.2477C9.26913 23.8256 8.6665 23.1373 8.6665 21.9343V12.6021V12.601C8.6665 12.2807 8.72575 11.9971 8.85545 11.6943C9.08844 11.1503 11.2024 8.73848 13.2061 6.45253L13.2061 6.45252C14.2402 5.27272 15.2449 4.12645 15.9465 3.2878C16.2817 3.31294 16.5977 3.36446 16.9187 3.45793C17.6827 3.68042 17.9998 3.99966 17.9998 4.60095C17.9998 5.02306 17.9144 5.53737 17.7467 6.14576C17.6214 6.60039 17.4591 7.08145 17.2304 7.69517C17.198 7.78207 17.1173 7.99471 17.0315 8.22106L17.0314 8.22114L17.0309 8.22263C16.926 8.49917 16.8134 8.79578 16.7718 8.90835C16.5984 9.37718 16.4842 9.72238 16.406 10.036C16.0739 11.3694 16.4071 12.601 17.9998 12.601H23.3332C24.2548 12.601 24.6665 13.0808 24.6665 13.9343C24.6665 20.3219 23.3533 24.601 21.9998 24.601H12.6665L12.6173 24.6018C12.0337 24.6122 11.214 24.5214 10.449 24.2477ZM3.33317 24.6021V12.6021H5.99984V24.6021H3.33317Z" fill="#0AA245"/>
</svg>
