<svg width="62" height="57" id="ic" viewBox="0 0 62 57" fill="none" xmlns="http://www.w3.org/2000/svg">
<path d="M53.8477 28.2001C53.8477 41.4481 43.0957 52.2001 29.8477 52.2001" stroke="#0AA245" stroke-width="3" stroke-miterlimit="10" stroke-linecap="round" stroke-linejoin="round"/>
<path d="M5.84717 28.2001C5.84717 14.9521 16.5992 4.20007 29.8472 4.20007" stroke="#0AA245" stroke-width="3" stroke-miterlimit="10" stroke-linecap="round" stroke-linejoin="round"/>
<path d="M48.4395 31.8481L53.8475 28.2001L57.4955 33.6081" stroke="#0AA245" stroke-width="3" stroke-miterlimit="10" stroke-linecap="round" stroke-linejoin="round"/>
<path d="M11.2397 24.5521L5.84771 28.2001L2.19971 22.7921" stroke="#0AA245" stroke-width="3" stroke-miterlimit="10" stroke-linecap="round" stroke-linejoin="round"/>
<path d="M2.64844 35.3999L13.8484 41.7999V54.5999L2.64844 48.1999V35.3999Z" stroke="#0AA245" stroke-width="3" stroke-miterlimit="10" stroke-linecap="round" stroke-linejoin="round"/>
<path d="M25.0486 35.3999L13.8486 41.7999V54.5999L25.0486 48.1999V35.3999Z" stroke="#0AA245" stroke-width="3" stroke-miterlimit="10" stroke-linecap="round" stroke-linejoin="round"/>
<path d="M25.0484 35.4L13.8484 41.8L2.64844 35.4L13.8484 29L25.0484 35.4Z" stroke="#0AA245" stroke-width="3" stroke-miterlimit="10" stroke-linecap="round" stroke-linejoin="round"/>
<path d="M34.6489 8.19983L45.8489 14.5998V27.3998L34.6489 20.9998V14.8238" stroke="#0AA245" stroke-width="3" stroke-miterlimit="10" stroke-linecap="round" stroke-linejoin="round"/>
<path d="M57.0486 8.19983L45.8486 14.5998V27.3998L57.0486 20.9998V14.8238" stroke="#0AA245" stroke-width="3" stroke-miterlimit="10" stroke-linecap="round" stroke-linejoin="round"/>
<path d="M57.0489 8.19993L45.8489 14.5999L34.6489 8.19993L45.8489 1.79993L57.0489 8.19993Z" stroke="#0AA245" stroke-width="3" stroke-miterlimit="10" stroke-linecap="round" stroke-linejoin="round"/>
<path d="M60.2486 12.9998L49.0486 19.3998L45.8486 14.5998L57.0486 8.19983L60.2486 12.9998Z" stroke="#0AA245" stroke-width="3" stroke-miterlimit="10" stroke-linecap="round" stroke-linejoin="round"/>
<path d="M31.4487 12.9998L42.6487 19.3998L45.8487 14.5998L34.6487 8.19983L31.4487 12.9998Z" stroke="#0AA245" stroke-width="3" stroke-miterlimit="10" stroke-linecap="round" stroke-linejoin="round"/>
</svg>
