<svg width="62" height="62" id="ic" viewBox="0 0 62 62" fill="none" xmlns="http://www.w3.org/2000/svg">
<path d="M59.8002 30.9902C59.8002 33.0945 55.7655 34.7071 55.3428 36.6933C54.8817 38.7189 57.8213 41.9638 56.9567 43.8124C56.0729 45.6806 51.7692 45.3463 50.5204 46.9392C49.2716 48.5518 50.5396 52.78 48.9642 54.0582C47.3887 55.3365 43.6614 53.134 41.8362 54.0386C40.0494 54.9235 39.3962 59.309 37.4173 59.7613C35.496 60.2136 33.056 56.5558 31.0002 56.5558C28.9444 56.5558 26.5044 60.194 24.5831 59.7613C22.6042 59.2894 21.951 54.9235 20.1642 54.0386C18.339 53.134 14.5925 55.3365 13.0362 54.0582C11.4608 52.78 12.7288 48.5518 11.48 46.9392C10.2312 45.3266 5.92748 45.6609 5.04369 43.8124C4.17911 41.9834 7.11867 38.7386 6.65757 36.6933C6.21567 34.7267 2.2002 33.1141 2.2002 31.0099C2.2002 28.9057 6.23489 27.2931 6.65757 25.3068C7.11867 23.2812 4.17911 20.0364 5.04369 18.1878C5.92748 16.3195 10.2312 16.6539 11.48 15.0609C12.7288 13.4483 11.4608 9.22018 13.0362 7.9419C14.6117 6.66362 18.339 8.86619 20.1642 7.96157C21.951 7.0766 22.6042 2.69113 24.5831 2.23881C26.5044 1.7865 28.9444 5.44434 31.0002 5.44434C33.056 5.44434 35.496 1.80616 37.4173 2.23881C39.3962 2.71079 40.0494 7.0766 41.8362 7.96157C43.6614 8.86619 47.4079 6.66362 48.9642 7.9419C50.5396 9.22018 49.2716 13.4483 50.5204 15.0609C51.7692 16.6735 56.0729 16.3392 56.9567 18.1878C57.8213 20.0167 54.8817 23.2616 55.3428 25.3068C55.7655 27.2734 59.8002 28.886 59.8002 30.9902Z" stroke="#0AA245" stroke-width="3" stroke-miterlimit="10" stroke-linecap="round" stroke-linejoin="round"/>
<path d="M30.9999 48.6C40.7201 48.6 48.5999 40.7202 48.5999 31C48.5999 21.2798 40.7201 13.4 30.9999 13.4C21.2797 13.4 13.3999 21.2798 13.3999 31C13.3999 40.7202 21.2797 48.6 30.9999 48.6Z" stroke="#0AA245" stroke-width="3" stroke-miterlimit="10" stroke-linecap="round" stroke-linejoin="round"/>
<path d="M24.6001 31L29.4001 35.8L37.4001 26.2" stroke="#0AA245" stroke-width="3" stroke-linecap="round" stroke-linejoin="round"/>
</svg>
