<svg width="72" height="72" id="ic" viewBox="0 0 72 72" fill="none" xmlns="http://www.w3.org/2000/svg">
<path d="M65.1047 19.2001L59.5527 22.4001" stroke="#0AA245" stroke-width="3" stroke-miterlimit="10" stroke-linecap="round" stroke-linejoin="round"/>
<path d="M65.1047 52.8001L59.5527 49.6001" stroke="#0AA245" stroke-width="3" stroke-miterlimit="10" stroke-linecap="round" stroke-linejoin="round"/>
<path d="M36.0005 69.6001V63.2001" stroke="#0AA245" stroke-width="3" stroke-miterlimit="10" stroke-linecap="round" stroke-linejoin="round"/>
<path d="M6.89648 52.8001L12.4485 49.6001" stroke="#0AA245" stroke-width="3" stroke-miterlimit="10" stroke-linecap="round" stroke-linejoin="round"/>
<path d="M6.89648 19.2001L12.4485 22.4001" stroke="#0AA245" stroke-width="3" stroke-miterlimit="10" stroke-linecap="round" stroke-linejoin="round"/>
<path d="M36.0005 2.40002V8.80002" stroke="#0AA245" stroke-width="3" stroke-miterlimit="10" stroke-linecap="round" stroke-linejoin="round"/>
<path d="M52.8002 6.89612L51.2002 9.68012" stroke="#0AA245" stroke-width="3" stroke-miterlimit="10" stroke-linecap="round" stroke-linejoin="round"/>
<path d="M69.6004 36H66.4004" stroke="#0AA245" stroke-width="3" stroke-miterlimit="10" stroke-linecap="round" stroke-linejoin="round"/>
<path d="M52.8002 65.1041L51.2002 62.3201" stroke="#0AA245" stroke-width="3" stroke-miterlimit="10" stroke-linecap="round" stroke-linejoin="round"/>
<path d="M19.2002 65.1041L20.8002 62.3201" stroke="#0AA245" stroke-width="3" stroke-miterlimit="10" stroke-linecap="round" stroke-linejoin="round"/>
<path d="M2.40039 36H5.60039" stroke="#0AA245" stroke-width="3" stroke-miterlimit="10" stroke-linecap="round" stroke-linejoin="round"/>
<path d="M19.2002 6.89612L20.8002 9.68012" stroke="#0AA245" stroke-width="3" stroke-miterlimit="10" stroke-linecap="round" stroke-linejoin="round"/>
<path d="M56.8002 36C56.8002 38.0094 53.4645 39.4829 52.8559 41.2913C52.2242 43.1667 54.0038 46.2477 52.8251 47.8105C51.6387 49.3882 48.0411 48.6961 46.4079 49.8496C44.7901 50.9883 44.3664 54.5083 42.4251 55.1111C40.5531 55.7065 38.0802 53.1167 36.0002 53.1167C33.9202 53.1167 31.4473 55.7065 29.5676 55.1111C27.6263 54.5009 27.2026 50.9808 25.5848 49.8422C23.9516 48.6961 20.3617 49.3808 19.1676 47.8031C17.9889 46.2403 19.7685 43.1593 19.1368 41.2839C18.5359 39.4829 15.2002 38.0094 15.2002 36C15.2002 33.9907 18.5359 32.5172 19.1445 30.7088C19.7762 28.8334 17.9966 25.7524 19.1753 24.1896C20.3617 22.6119 23.9593 23.304 25.5925 22.1505C27.2103 21.0118 27.634 17.4918 29.5753 16.889C31.4473 16.301 33.9202 18.8834 36.0002 18.8834C38.0802 18.8834 40.5531 16.2936 42.4328 16.889C44.3741 17.4992 44.7978 21.0193 46.4156 22.1579C48.0488 23.304 51.6387 22.6193 52.8328 24.197C54.0115 25.7598 52.2319 28.8408 52.8636 30.7162C53.4645 32.5246 56.8002 33.9907 56.8002 36Z" stroke="#0AA245" stroke-width="3"/>
<path d="M42.4001 29.6001L29.6001 42.4001" stroke="#0AA245" stroke-width="3" stroke-linecap="round" stroke-linejoin="round"/>
<circle cx="30.4" cy="30.4" r="2.4" stroke="#0AA245" stroke-width="3"/>
<circle cx="41.6002" cy="41.6001" r="2.4" stroke="#0AA245" stroke-width="3"/>
</svg>
