<svg width="17" height="16" id="ic" viewBox="0 0 17 16" fill="none" xmlns="http://www.w3.org/2000/svg">
<g clip-path="url(#clip0)">
<path d="M14.2734 9.29027H5.28453L3.48675 1.20026H1.68896" stroke="white" stroke-width="2" stroke-miterlimit="10" stroke-linecap="round" stroke-linejoin="round"/>
<path d="M14.2734 9.29029L15.469 3.89694" stroke="white" stroke-width="2" stroke-miterlimit="10" stroke-linecap="round" stroke-linejoin="round"/>
<path d="M12.9252 15.1331C13.9181 15.1331 14.723 14.3282 14.723 13.3353C14.723 12.3424 13.9181 11.5375 12.9252 11.5375C11.9323 11.5375 11.1274 12.3424 11.1274 13.3353C11.1274 14.3282 11.9323 15.1331 12.9252 15.1331Z" fill="white"/>
<path d="M6.63274 15.1331C7.62563 15.1331 8.43052 14.3282 8.43052 13.3353C8.43052 12.3424 7.62563 11.5375 6.63274 11.5375C5.63985 11.5375 4.83496 12.3424 4.83496 13.3353C4.83496 14.3282 5.63985 15.1331 6.63274 15.1331Z" fill="white"/>
<path d="M4.08887 3.89694H15.4688" stroke="white" stroke-width="2" stroke-miterlimit="10" stroke-linecap="round" stroke-linejoin="round"/>
</g>
<defs>
<clipPath id="clip0">
<rect width="16" height="16" fill="white" transform="translate(0.46875)"/>
</clipPath>
</defs>
</svg>
