<svg width="68" height="61" id="ic" viewBox="0 0 68 61" fill="none" xmlns="http://www.w3.org/2000/svg">
<path d="M16.5607 35.0179C16.8967 35.0179 17.2327 34.9059 17.5047 34.7139C18.0167 34.3459 18.2567 33.7219 18.1447 33.1139L17.3287 28.4419L20.7367 25.1299C21.3767 24.5219 21.3927 23.4979 20.7687 22.8739C20.5127 22.6179 20.1927 22.4419 19.8407 22.3939L15.1527 21.7059L13.0567 17.4979C12.6727 16.6979 11.7127 16.3779 10.9127 16.7619C10.5927 16.9219 10.3207 17.1779 10.1767 17.4979L8.08066 21.7379L3.39266 22.4259C2.51266 22.5539 1.88866 23.3539 2.01666 24.2339C2.06466 24.5859 2.22466 24.9219 2.49666 25.1619L5.90466 28.4739L5.08866 33.1459C4.97666 33.7539 5.21666 34.3779 5.72866 34.7459C6.20866 35.0659 6.81666 35.1139 7.32866 34.8579L11.6167 32.6179L15.8087 34.8259C16.0327 34.9539 16.2887 35.0179 16.5607 35.0179Z" stroke="#0AA245" stroke-width="3" stroke-miterlimit="10" stroke-linecap="round" stroke-linejoin="round"/>
<path d="M38.9601 20.618C39.2961 20.618 39.6321 20.506 39.9041 20.314C40.4161 19.946 40.6561 19.322 40.5441 18.714L39.7281 14.042L43.1361 10.73C43.7761 10.122 43.7921 9.09803 43.1681 8.47403C42.9121 8.21803 42.5921 8.04203 42.2401 7.99403L37.5521 7.30603L35.4561 3.09803C35.0721 2.29803 34.1121 1.97803 33.3121 2.36203C32.9921 2.52203 32.7201 2.77803 32.5761 3.09803L30.4801 7.33803L25.7921 8.02603C24.9121 8.13803 24.3041 8.95403 24.4161 9.83403C24.4641 10.186 24.6241 10.522 24.8961 10.762L28.3041 14.074L27.4881 18.746C27.3761 19.354 27.6161 19.978 28.1281 20.346C28.6241 20.698 29.2801 20.746 29.8081 20.458L34.0161 18.218L38.2241 20.426C38.4481 20.554 38.6881 20.618 38.9601 20.618Z" stroke="#0AA245" stroke-width="3" stroke-miterlimit="10" stroke-linecap="round" stroke-linejoin="round"/>
<path d="M66.0165 23.5139C65.8245 22.9379 65.3285 22.5059 64.7205 22.4259L60.0325 21.7379L57.8565 17.4979C57.4725 16.6979 56.5125 16.3779 55.7125 16.7619C55.3925 16.9219 55.1205 17.1779 54.9765 17.4979L52.8805 21.7379L48.1925 22.4259C47.3125 22.5379 46.7045 23.3539 46.8165 24.2339C46.8645 24.5859 47.0245 24.9219 47.2965 25.1619L50.7045 28.4739L49.8885 33.1459C49.7445 34.0099 50.3205 34.8419 51.2005 35.0019C51.5525 35.0659 51.9205 35.0019 52.2245 34.8259L56.4165 32.6179L60.6245 34.8259C60.8485 34.9539 61.1045 35.0179 61.3605 35.0179C61.6965 35.0179 62.0325 34.9059 62.3045 34.7139C62.8165 34.3459 63.0565 33.7219 62.9445 33.1139L62.1285 28.4419L65.5365 25.1299C65.9845 24.7299 66.1765 24.1059 66.0165 23.5139Z" stroke="#0AA245" stroke-width="3" stroke-miterlimit="10" stroke-linecap="round" stroke-linejoin="round"/>
<path d="M55.0407 46.4259L50.3527 45.7379L48.2567 41.4819C47.8727 40.6819 46.9127 40.3619 46.1127 40.7459C45.7927 40.9059 45.5207 41.1619 45.3767 41.4819L43.2807 45.7379L38.5927 46.4259C37.9847 46.5059 37.4887 46.9379 37.2967 47.5139C37.1207 48.0739 37.2807 48.6979 37.6967 49.1139L41.1047 52.4259L40.2887 57.0979C40.1767 57.7059 40.4167 58.3299 40.9287 58.6979C41.4247 59.0499 42.0807 59.0979 42.6247 58.8099L46.8167 56.6179L51.0247 58.8259C51.2487 58.9539 51.5047 59.0179 51.7607 59.0179C52.0967 59.0179 52.4327 58.9059 52.7047 58.7139C53.2167 58.3459 53.4567 57.7219 53.3447 57.1139L52.5287 52.4419L55.9367 49.1299C56.3527 48.7139 56.5127 48.0899 56.3367 47.5299C56.1447 46.9539 55.6487 46.5219 55.0407 46.4259Z" stroke="#0AA245" stroke-width="3" stroke-miterlimit="10" stroke-linecap="round" stroke-linejoin="round"/>
<path d="M29.4401 46.4259L24.7521 45.7379L22.6561 41.4819C22.2721 40.6819 21.3121 40.3619 20.5121 40.7459C20.1921 40.9059 19.9201 41.1619 19.7761 41.4819L17.6801 45.7379L12.9921 46.4259C12.3841 46.5059 11.8881 46.9379 11.6961 47.5139C11.5201 48.0739 11.6801 48.6979 12.0961 49.1139L15.5041 52.4259L14.6881 57.0979C14.5921 57.9779 15.2161 58.7619 16.0961 58.8579C16.4001 58.8899 16.7201 58.8419 17.0081 58.6979L21.2161 56.6179L25.4081 58.8259C25.6321 58.9539 25.9041 59.0179 26.1601 59.0179C26.4961 59.0179 26.8321 58.9059 27.1041 58.7139C27.6161 58.3459 27.8561 57.7219 27.7441 57.1139L26.9281 52.4419L30.3361 49.1299C30.7521 48.7139 30.9121 48.0899 30.7361 47.5299C30.5441 46.9539 30.0481 46.5219 29.4401 46.4259Z" stroke="#0AA245" stroke-width="3" stroke-miterlimit="10" stroke-linecap="round" stroke-linejoin="round"/>
</svg>
