<svg width="16" height="16" id="ic" viewBox="0 0 16 16" fill="none" xmlns="http://www.w3.org/2000/svg">
<path fill-rule="evenodd" clip-rule="evenodd" d="M8.50886 15.3063C13.448 12.3867 16 9.2676 16 5.88989C16 1.10336 10.7097 -0.47351 8 2.51628C5.29025 -0.47351 0 1.10336 0 5.88989C0 9.2676 2.55201 12.3867 7.49114 15.3063C7.80501 15.4918 8.19499 15.4918 8.50886 15.3063ZM8.91102 4.7467C10.1876 1.92637 14 2.6648 14 5.88989C14 8.30354 12.0487 10.7836 8 13.2776C3.95128 10.7836 2 8.30354 2 5.88989C2 2.6648 5.81241 1.92637 7.08898 4.7467C7.44363 5.53022 8.55637 5.53022 8.91102 4.7467Z" fill="#969BA8"/>
</svg>
