<svg width="62" height="56" id="ic" viewBox="0 0 62 56" fill="none" xmlns="http://www.w3.org/2000/svg">
<path d="M56.7996 53.5998H47.1996L45.5996 43.9998H58.3996L56.7996 53.5998Z" stroke="#0AA245" stroke-width="3" stroke-miterlimit="10" stroke-linecap="round" stroke-linejoin="round"/>
<path d="M43.9995 43.9998H59.9995" stroke="#0AA245" stroke-width="3" stroke-miterlimit="10" stroke-linecap="round" stroke-linejoin="round"/>
<path d="M48.7996 37.5999L45.5996 43.9999" stroke="#0AA245" stroke-width="3" stroke-miterlimit="10" stroke-linecap="round" stroke-linejoin="round"/>
<path d="M55.1997 37.5999L58.3997 43.9999" stroke="#0AA245" stroke-width="3" stroke-miterlimit="10" stroke-linecap="round" stroke-linejoin="round"/>
<path d="M42.3994 2.3999H10.3994V8.7999H42.3994V2.3999Z" stroke="#0AA245" stroke-width="3" stroke-miterlimit="10" stroke-linecap="round" stroke-linejoin="round"/>
<path d="M50.3994 16.7998H2.39941L10.3994 8.7998H42.3994L50.3994 16.7998Z" stroke="#0AA245" stroke-width="3" stroke-miterlimit="10" stroke-linecap="round" stroke-linejoin="round"/>
<path d="M6.39941 29.5999C4.19141 29.5999 2.39941 27.8079 2.39941 25.5999V16.7999H10.3994V25.5999C10.3994 27.8079 8.60741 29.5999 6.39941 29.5999Z" stroke="#0AA245" stroke-width="3" stroke-miterlimit="10" stroke-linecap="round" stroke-linejoin="round"/>
<path d="M14.3989 29.5999C12.1909 29.5999 10.3989 27.8079 10.3989 25.5999V16.7999H18.3989V25.5999C18.3989 27.8079 16.6069 29.5999 14.3989 29.5999Z" stroke="#0AA245" stroke-width="3" stroke-miterlimit="10" stroke-linecap="round" stroke-linejoin="round"/>
<path d="M22.3989 29.5999C20.1909 29.5999 18.3989 27.8079 18.3989 25.5999V16.7999H26.3989V25.5999C26.3989 27.8079 24.6069 29.5999 22.3989 29.5999Z" stroke="#0AA245" stroke-width="3" stroke-miterlimit="10" stroke-linecap="round" stroke-linejoin="round"/>
<path d="M30.3989 29.5999C28.1909 29.5999 26.3989 27.8079 26.3989 25.5999V16.7999H34.3989V25.5999C34.3989 27.8079 32.6069 29.5999 30.3989 29.5999Z" stroke="#0AA245" stroke-width="3" stroke-miterlimit="10" stroke-linecap="round" stroke-linejoin="round"/>
<path d="M38.3989 29.5999C36.1909 29.5999 34.3989 27.8079 34.3989 25.5999V16.7999H42.3989V25.5999C42.3989 27.8079 40.6069 29.5999 38.3989 29.5999Z" stroke="#0AA245" stroke-width="3" stroke-miterlimit="10" stroke-linecap="round" stroke-linejoin="round"/>
<path d="M46.3994 29.5999C44.1914 29.5999 42.3994 27.8079 42.3994 25.5999V16.7999H50.3994V25.5999C50.3994 27.8079 48.6074 29.5999 46.3994 29.5999Z" stroke="#0AA245" stroke-width="3" stroke-miterlimit="10" stroke-linecap="round" stroke-linejoin="round"/>
<path d="M2.39941 53.6H40.7994" stroke="#0AA245" stroke-width="3" stroke-miterlimit="10" stroke-linecap="round" stroke-linejoin="round"/>
<path d="M5.59961 29.5999V53.5999" stroke="#0AA245" stroke-width="3" stroke-miterlimit="10" stroke-linecap="round" stroke-linejoin="round"/>
<path d="M47.1997 29.5999V32.7999" stroke="#0AA245" stroke-width="3" stroke-miterlimit="10" stroke-linecap="round" stroke-linejoin="round"/>
<path d="M11.9995 53.5999V37.5999H23.1995V53.5999" stroke="#0AA245" stroke-width="3" stroke-miterlimit="10" stroke-linecap="round" stroke-linejoin="round"/>
<path d="M37.5991 47.1999H29.5991V37.5999H40.7991" stroke="#0AA245" stroke-width="3" stroke-miterlimit="10" stroke-linecap="round" stroke-linejoin="round"/>
</svg>
