<svg width="10" height="10" id="ic" viewBox="0 0 10 10" fill="none" xmlns="http://www.w3.org/2000/svg">
<path fill-rule="evenodd" clip-rule="evenodd" d="M0.292893 1.6957L3.61943 5L0.292893 8.3043C-0.0976309 8.69222 -0.0976309 9.32115 0.292893 9.70906C0.683418 10.097 1.31658 10.097 1.70711 9.70906L5 6.43818L8.29289 9.70906C8.68342 10.097 9.31658 10.097 9.70711 9.70906C10.0976 9.32115 10.0976 8.69222 9.70711 8.3043L6.38057 5L9.70711 1.6957C10.0976 1.30778 10.0976 0.678849 9.70711 0.290935C9.31658 -0.0969785 8.68342 -0.0969785 8.29289 0.290935L5 3.56182L1.70711 0.290935C1.31658 -0.0969785 0.683418 -0.0969785 0.292893 0.290935C-0.0976311 0.678849 -0.0976311 1.30778 0.292893 1.6957Z" fill="#202329"/>
</svg>
