<svg width="191" height="69" id="ic" viewBox="0 0 191 69" fill="none" xmlns="http://www.w3.org/2000/svg">
<path d="M60.0683 12.9365C59.7001 11.4818 58.8889 10.4814 58.0892 9.03252C56.438 6.08874 53.9584 3.46695 51.7779 3.20247C39.6731 1.73058 43.9478 15.8055 44.9661 23.1304C45.6507 27.9083 48.0843 32.5137 47.3537 37.2686C46.4044 43.4091 40.1909 46.1287 36.785 39.8214C34.7426 36.0784 31.5841 31.4788 25.5375 31.4788C22.9198 31.4788 19.5138 33.8016 17.6728 35.9864C17.6728 35.9864 15.9871 39.028 15.2507 37.5561C14.4222 35.9117 19.2665 30.6968 24.1797 30.4611C31.1641 30.1276 37.0842 29.087 33.2123 22.9694C32.1479 21.2848 29.5302 18.4905 28.1034 18.9218C26.573 19.3875 31.8487 23.0097 30.6578 25.0565C29.4669 26.9309 24.5249 26.2467 22.6551 26.08C17.5462 25.7292 12.4374 27.1034 7.65646 30.1679C0.19454 34.9055 -2.35989 49.1012 10.2224 51.9127C12.679 53.3501 12.6848 53.994 12.8113 55.3567C11.9196 57.0183 11.5341 58.427 12.1727 59.8298C12.8113 61.2327 15.8778 62.2562 19.0708 61.7444C21.4757 61.3592 22.6436 59.0537 22.6551 59.0709C22.9543 59.5481 23.2937 60.0598 24.5364 60.537C25.3879 60.8648 26.8032 60.905 28.6442 60.3991C28.6442 60.3991 30.048 62.0837 31.2734 62.2389C35.1971 62.7391 36.2672 62.4171 37.6077 61.9054C38.7123 61.48 39.0115 60.7613 39.0115 60.7613C41.3531 61.6985 44.6209 61.6237 45.3228 59.0594C45.7715 57.4208 43.7867 56.8458 42.9409 56.6043C43.4645 55.8282 42.5785 53.7296 41.7385 53.2754C53.7512 54.2988 54.131 44.7373 53.6592 38.798C53.1069 31.6915 46.1627 19.8992 47.1868 17.6798C49.1026 19.0827 49.9656 18.6573 49.4651 17.3464C49.0394 16.2425 48.7632 15.2765 49.2292 14.2761C49.0624 15.3283 51.1738 17.7488 53.6074 18.8068C55.3967 19.583 57.4851 20.2671 59.2398 18.8355C60.6148 17.7086 60.7817 15.7307 60.074 12.9307L60.0683 12.9365Z" fill="#0AA245"/>
<path d="M60.5516 12.81C58.9407 7.88837 55.2068 2.64478 49.6204 2.86901C46.6633 2.97825 44.362 4.59388 43.4185 7.38816C42.2161 10.9529 43.1193 15.2363 43.7349 18.824L44.7877 24.9416C45.5702 28.834 47.1523 32.4505 46.9682 36.4982C46.8186 39.8731 44.2009 44.3578 40.2542 42.7824C37.6768 41.759 36.5837 38.246 35.0188 36.1417C32.4989 32.7552 27.7352 30.0472 23.4491 31.6455C21.2974 32.4447 19.2262 33.7556 17.6786 35.4805C17.2011 36.0094 16.8616 36.6017 16.4244 37.1651C15.5211 38.3323 15.7513 36.4637 15.8088 36.2969C16.0907 35.4287 16.8846 34.6123 17.4945 33.9799C20.1582 31.2258 23.403 30.8348 27.0103 30.5129C29.0872 30.3346 31.1986 29.9782 33.0627 29.0122C36.9289 27.0114 33.7473 22.5152 31.7222 20.4167C30.8189 19.491 29.4439 18.3296 28.0401 18.7033C27.1081 18.9563 27.3382 19.6117 27.7467 20.2557C28.8686 21.9748 32.6887 25.2635 28.1609 25.9995C25.3246 26.4594 22.2984 25.666 19.4276 25.85C14.3935 26.1605 8.71507 28.2935 5.08479 31.8928C-0.311724 37.2514 -0.82376 46.9336 6.339 50.9066C8.45043 52.0852 11.8793 52.1715 12.2763 55.0692C12.3684 55.7074 11.5974 57.0873 11.4248 57.7715C11.2925 58.289 11.3846 58.7547 11.4421 59.2722C11.5629 60.3358 12.4662 60.9395 13.3234 61.3995C16.3669 63.0266 20.9119 62.0492 23.0636 59.3297L22.1603 59.5079C23.0348 60.8418 24.4904 61.0085 26.0092 61.0603C26.7514 61.0833 27.9653 60.7958 28.5119 61.2098C29.231 61.7445 29.9272 62.2734 30.9513 62.5092C33.1375 63.0324 38.114 63.2508 39.4488 60.7843L38.6145 61.0085C40.9676 61.8422 44.0743 62.0204 45.5472 59.6344C46.3008 58.4155 45.5989 57.461 44.5576 56.8516C43.7579 56.3859 43.5566 56.5526 43.5566 55.5752C43.5508 54.6495 42.8777 53.6606 42.1815 53.1086L41.5429 53.5571C44.9143 53.7871 48.8092 53.4191 51.2831 50.8146C53.6477 48.325 54.2115 44.927 54.2633 41.6038C54.3266 37.1996 53.0091 33.1404 51.4327 29.0755L48.6482 22.1185C48.2742 21.1411 47.5781 19.698 47.555 18.4791C47.555 18.4216 47.5723 18.4273 47.6068 18.4388C48.395 18.6918 48.9243 19.0368 49.5399 18.6918C49.6377 18.64 49.5917 18.2491 49.793 17.9731C49.9541 17.7604 50.0462 17.5879 49.9944 17.4096C49.9599 17.2889 49.8966 17.0187 49.8563 16.9094C49.8563 16.9267 49.8966 16.9267 49.8966 16.9267C51.6513 18.8068 54.994 19.9222 56.9673 19.9509C61.0118 20.0142 61.2132 15.7135 60.5573 12.8445C60.4883 12.5283 59.516 12.7755 59.5908 13.0975C59.8612 14.2876 60.0395 15.3858 59.959 16.6104C59.7461 19.5485 56.0756 19.4737 53.9986 18.6113C52.4453 17.9731 49.7528 16.3172 49.6665 14.1899C49.655 13.8737 48.9761 13.9714 48.8553 14.1899C48.6539 14.5579 48.6827 14.9891 48.8035 15.8573C48.9301 16.7772 50.236 19.238 47.6528 17.5304C47.3997 17.3694 46.8186 17.4729 46.7151 17.7834C45.9557 20.0199 48.1936 23.6996 48.9991 25.6775C50.61 29.6332 52.3532 33.6464 53.0666 37.8953C53.5672 40.8908 53.4406 44.2026 52.5776 47.1061C51.122 51.9702 46.6173 53.3616 41.9399 53.0454C41.8248 53.0396 41.0309 53.2754 41.3013 53.4939C42.2046 54.2183 42.8777 55.5464 42.4692 56.7078C42.4462 56.7768 42.498 56.8458 42.567 56.8688C43.7176 57.2196 45.0236 57.6105 44.8453 59.1744C44.5749 61.7157 41.0079 61.158 39.4085 60.5888C39.1841 60.5083 38.7066 60.5716 38.5743 60.813C37.0612 63.6073 31.0088 62.1929 29.208 60.8648C28.9952 60.7153 28.8571 60.1748 28.5867 60.2323C26.5846 60.7038 24.3581 60.8303 23.1154 58.9387C22.9485 58.6857 22.3444 58.9559 22.2121 59.1169C20.1295 61.756 13.6974 62.7909 12.4259 59.0422C11.8736 57.3978 13.3982 56.3169 13.2601 54.845C13.1623 53.8561 12.7193 53.2696 11.9771 52.6314C10.1016 51.0215 7.4206 50.9065 5.39547 49.3542C3.61197 47.98 2.55913 45.9389 2.09887 43.7771C1.18411 39.4707 3.16322 34.7388 6.20667 31.726C8.74959 29.1962 12.541 27.7531 15.9354 26.8964C19.3643 26.034 22.6724 26.5457 26.1186 26.6377C28.9261 26.7067 32.6887 25.7867 30.56 22.383C30.0768 21.6183 29.4497 20.9284 28.8859 20.2327C27.4936 18.4676 30.2379 20.2844 30.8304 20.8306C32.5852 22.475 35.3697 26.1145 33.1087 28.3568C31.1066 30.3576 26.8262 30.0184 24.2603 30.2599C22.005 30.4726 20.0432 31.3638 18.1964 32.646C16.7581 33.6464 15.291 35.1183 14.7387 36.8144C14.4223 37.7918 15.1817 38.4185 16.0792 38.177C16.8444 37.9758 17.3794 37.1651 17.8052 36.5614C19.4448 34.1983 22.4135 31.979 25.3591 31.7893C30.537 31.4558 34.0868 35.9865 36.3133 39.9996C37.579 42.2937 40.0068 44.4325 42.8259 43.5529C46.0592 42.5409 47.5666 39.6259 47.9348 36.4119C48.4871 31.6973 46.042 26.8504 45.3285 22.245C44.8395 19.0425 44.1491 15.886 43.9248 12.649C43.7234 9.69373 43.919 5.92777 46.6806 4.15116C52.5546 0.396699 58.0547 8.45758 59.5735 13.1147C59.6713 13.4367 60.6379 13.1665 60.5401 12.8617L60.5516 12.81Z" fill="#202329"/>
<path d="M52.6408 9.81442C51.3693 9.81442 50.3337 8.34828 50.3337 6.52567C50.3337 4.70881 51.3636 3.24268 52.6408 3.24268C53.9122 3.24268 54.9478 4.70881 54.9478 6.52567C54.9478 8.34828 53.918 9.81442 52.6408 9.81442Z" fill="white"/>
<path d="M54.7063 6.47975C54.6545 7.64116 54.3209 8.78532 53.3025 9.44077C51.5075 10.6194 50.633 7.7389 50.5813 6.56024C50.5295 5.43333 51.03 4.22017 51.985 3.59922C53.7916 2.42631 54.6603 5.30109 54.7063 6.47975C54.7236 6.68098 55.1953 6.79023 55.1896 6.56599C55.1321 5.21485 54.4877 3.24275 52.8653 3.09901C50.9725 2.92652 50.1785 4.88712 50.1095 6.4855C50.052 7.82515 50.8804 9.81449 52.4338 9.95248C54.3266 10.125 55.1205 8.16437 55.1896 6.56599C55.1896 6.36476 54.7178 6.24977 54.7063 6.47975Z" fill="#202329"/>
<path d="M52.1979 5.81279C52.267 5.97953 52.313 6.18076 52.313 6.41075C52.313 6.91096 52.1116 7.31918 51.8643 7.31918C51.6169 7.31918 51.4155 6.91671 51.4155 6.41075C51.4155 6.16927 51.4673 5.95078 51.5421 5.78979C50.9668 5.96228 50.541 6.60623 50.541 7.38242C50.541 8.2851 51.1336 9.02679 51.8585 9.02679C52.5834 9.02679 53.1702 8.29085 53.1702 7.38242C53.1702 6.62923 52.7675 6.00253 52.221 5.80704L52.1979 5.81279Z" fill="#202329"/>
<path d="M57.3239 9.75705C56.0524 9.75705 55.0168 8.29091 55.0168 6.47405C55.0168 4.65719 56.0409 3.1853 57.3239 3.1853C58.6069 3.1853 59.6309 4.65719 59.6309 6.47405C59.6309 8.29091 58.6011 9.75705 57.3239 9.75705Z" fill="white"/>
<path d="M59.3894 6.41083C59.3491 7.4285 59.1075 8.31394 58.4171 9.08438C56.5933 11.137 55.3218 7.81372 55.2586 6.53157C55.2068 5.55415 55.5865 4.57672 56.2309 3.85803C58.0546 1.80544 59.3318 5.13443 59.3894 6.41083C59.4009 6.58332 59.8726 6.66381 59.8726 6.52582C59.8151 5.19193 59.1995 3.23133 57.5771 3.08759C55.6843 2.9151 54.8558 4.77221 54.7868 6.41083C54.7293 7.73898 55.5405 9.71683 57.0823 9.84907C58.9751 10.0216 59.8036 8.16445 59.8726 6.52582C59.8784 6.35909 59.4009 6.27859 59.3894 6.41083Z" fill="#202329"/>
<path d="M56.8867 5.75531C56.9673 5.94505 57.0018 6.15203 57.0018 6.35327C57.0018 6.85348 56.8004 7.2617 56.553 7.2617C56.3056 7.2617 56.1043 6.85923 56.1043 6.35327C56.1043 6.11179 56.1561 5.8933 56.2309 5.73232C55.6555 5.9048 55.2298 6.54875 55.2298 7.32494C55.2298 8.22762 55.8166 8.96932 56.5415 8.96932C57.2664 8.96932 57.859 8.23337 57.859 7.32494C57.859 6.57175 57.4563 5.9508 56.9097 5.74956L56.8867 5.75531ZM54.0044 2.15609C52.1863 0.718702 49.9483 2.25383 49.1371 4.05919C48.9876 4.40992 49.8218 4.07644 49.9368 3.81771C50.5697 2.40332 52.008 1.70188 53.314 2.73105C53.5383 2.90928 54.2863 2.36882 54.0044 2.15609ZM55.9087 0.62096C57.5311 -0.954419 59.5332 0.735951 60.2523 2.7138C60.3904 3.09902 59.6425 2.73105 59.539 2.44932C58.9751 0.896938 57.6864 0.132247 56.5243 1.26491C56.3229 1.46039 55.6555 0.862441 55.9087 0.62096ZM34.8807 52.7004C36.434 53.9021 36.6642 55.788 36.0543 57.5646C36.0313 57.6451 36.0888 57.6968 36.1521 57.7256C37.2567 58.3235 39.3854 59.6402 38.3211 61.158C38.0795 61.5088 39.046 61.411 39.2243 61.158C40.3002 59.6287 38.6893 58.3523 37.4639 57.5531C36.9806 57.2426 37.3661 55.2475 37.2625 54.615C37.1129 53.6664 36.5203 52.8902 35.7897 52.321C35.5308 52.1255 34.639 52.505 34.8807 52.7004ZM19.4333 51.9645C21.3203 53.2236 21.096 54.4081 20.1927 56.0179C20.1582 56.0697 20.1237 56.1502 20.1869 56.2019C21.2398 57.0759 22.9773 57.9268 21.9532 59.7896C21.8036 60.0656 22.8334 59.9621 22.9427 59.6517C23.1959 58.9732 23.0521 58.473 22.7816 57.8003C22.54 57.1908 21.119 56.1157 21.3664 55.535C22.097 53.8848 21.4872 52.8442 20.0661 51.5908C19.8245 51.378 19.416 51.9588 19.416 51.9588L19.4333 51.9645ZM29.0527 60.8246C28.5694 60.0714 28.7765 59.2319 29.0527 58.4212C29.3346 57.5876 27.7007 57.2023 27.9193 56.5814C28.368 55.282 26.9355 53.5974 25.8251 53.1259C25.6122 53.0339 25.0139 53.3674 25.0714 53.3904C26.3717 53.9423 27.5281 55.6097 27.0275 57.0471C27.016 57.0701 27.016 57.0989 27.0448 57.1046C27.9595 57.6451 28.3393 58.2258 28.0631 59.2664C27.8963 59.8874 27.9135 60.4968 28.2645 61.043C28.3795 61.227 29.1159 60.9051 29.0642 60.8303L29.0527 60.8246Z" fill="#202329"/>
<path d="M48.0957 14.8512C48.067 14.558 48.1072 14.2533 48.1935 13.983C48.5675 12.9194 49.8332 13.5576 50.4891 13.868C50.6387 13.9313 51.0414 13.7186 51.0126 13.6956C50.1036 13.2701 48.8609 12.8331 47.9864 13.5806C47.624 13.8795 47.4974 14.4833 47.5492 14.9835C47.5607 15.0927 48.1073 14.995 48.0957 14.8512Z" fill="#202329" stroke="#202329" stroke-width="0.4066" stroke-miterlimit="3.4828"/>
<path fill-rule="evenodd" clip-rule="evenodd" d="M79.2954 61.8996C79.1113 62.3998 78.8927 62.1181 78.6971 62.2676L77.9837 62.4286C77.8859 62.5953 77.8514 62.6298 77.9779 62.4286L77.4774 62.5436C77.3048 62.5263 77.1955 62.5263 77.1265 62.4918L76.8733 62.5436C76.6892 62.6011 76.4648 62.6701 76.3728 62.7448C76.3613 62.7276 76.2347 62.6931 76.1599 62.7046L75.9585 62.7448C75.8205 62.8196 75.7745 62.9633 75.5213 62.9576C75.6019 62.9058 75.6364 62.8598 75.6364 62.8196L75.458 62.8598C75.2279 62.9863 74.9345 63.0438 74.6756 63.1415C74.7274 63.1013 74.7964 63.0725 74.7734 63.015C74.4455 63.245 74.1233 63.13 73.8241 63.3025L73.8874 63.2163L73.617 63.2795C73.5997 63.3428 73.6112 63.429 73.3639 63.4405C73.4559 63.3888 73.4214 63.36 73.4214 63.3198L73.3926 63.3313C73.0244 63.5843 72.3743 63.682 71.9888 63.8315L72.0003 63.7797C71.5631 63.9005 71.0913 63.9522 70.6253 64.142C70.4987 64.1362 70.539 64.027 70.447 63.9925L70.1593 64.0557C70.1248 64.2282 69.4056 64.2914 69.7163 64.4467C69.3136 64.4984 68.6635 64.5732 68.4161 64.6997C68.5542 64.6019 68.2953 64.5272 68.3931 64.4467L67.2827 64.6997C67.1044 64.8492 66.903 64.9986 66.5923 65.0791C66.7534 64.9814 66.5693 64.9297 66.5348 64.8664L66.4945 64.8779L65.9537 65.3609C65.7869 65.4126 65.8789 65.2114 65.6545 65.3091C65.6776 65.3609 65.5797 65.4184 65.5165 65.4759C65.4474 65.4701 64.8376 65.6771 64.7168 65.5046C64.6247 65.4471 64.9757 65.4069 64.7743 65.3724C64.4751 65.4414 64.4751 65.5104 64.1645 65.5851L64.1529 65.5621C63.9401 65.5793 63.5776 65.7806 63.825 65.8438C63.9631 65.8208 63.7445 65.7461 63.9631 65.7461C63.8423 65.8956 63.4971 65.9991 63.1922 66.0738C63.29 66.0221 63.2612 65.9761 63.29 65.9071C63.0196 65.9473 62.519 65.7863 62.0875 65.9473C62.1221 65.8956 62.1738 65.8151 62.2199 65.7978C61.6273 65.8151 61.098 66.2233 60.586 66.1773C60.6147 66.2061 60.609 66.2865 60.6032 66.275C60.3098 66.3268 60.304 66.1888 60.1199 66.2808C60.0854 66.2061 59.8956 66.3613 59.7115 66.4303C59.6482 66.4878 59.6482 66.4475 59.7172 66.4073C59.3663 66.5568 58.463 66.8558 57.8934 66.873C57.9165 66.9247 57.5598 67.149 57.4159 67.172L57.4447 67.034C57.3929 67.0225 57.3296 67.0282 57.2664 67.0455C57.2433 67.057 57.2146 67.0627 57.2088 67.057C57.1398 67.0742 57.0707 67.0857 57.0017 67.0857L57.2031 67.0225C57.2088 67.0167 57.2031 67.0167 57.2031 67.011C57.134 67.0282 57.065 67.0627 56.9902 67.0857C56.9672 67.08 56.9384 67.0742 56.9269 67.057C56.8694 67.1087 56.8981 67.1087 56.9672 67.0972C56.7773 67.1777 56.5932 67.264 56.3804 67.2295C56.4667 67.2295 56.5817 67.011 56.3458 67.0685C55.9431 67.1777 56.248 67.1547 55.9316 67.2697L55.7302 67.3675C55.7475 67.4825 55.4023 67.4365 55.5289 67.517C55.4081 67.4825 54.9766 67.7067 54.9766 67.517L54.9938 67.3445C54.8212 67.3962 54.7407 67.5744 54.6256 67.6722C54.6084 67.6607 54.5566 67.6492 54.5508 67.6204C54.5681 67.8562 54.1308 67.6894 53.964 67.9194L53.6533 67.9539L53.4922 67.9769L53.4117 67.9942L53.3714 68.0057H53.3484L52.5947 67.5285V67.5227V67.5112C52.5602 67.31 52.5372 67.1087 52.589 67.011C52.4509 66.7465 52.3071 66.5108 52.2898 66.1773C52.3301 66.229 52.3531 66.3153 52.4106 66.3268C52.4336 66.1083 52.3589 66.0738 52.2783 65.8956C52.3301 65.9301 52.3301 65.4644 52.3589 65.2171C52.2208 64.9584 52.1172 65.0791 52.0309 65.0676C52.2093 64.7572 51.703 64.3144 51.8468 63.9465C51.8986 64.0385 52.0482 64.3259 52.0597 64.0845C52.238 63.7855 51.7663 63.6073 51.7893 63.176L51.6167 63.3255C51.6972 63.1128 51.3635 62.7506 51.5764 62.7448C51.4786 62.6241 51.5246 62.2446 51.352 62.3366C51.3578 61.6237 50.8803 60.721 51.1277 60.2265C51.0759 60.1345 51.0529 59.893 50.9666 59.962C50.8975 60.146 51.0931 60.1748 51.0299 60.2495C51.0068 60.1633 50.9493 60.1518 50.9205 60.1518C50.9205 59.9333 50.8975 59.7608 51.0931 59.9275C51.1104 59.4273 50.6617 59.5193 50.6041 58.9041C50.6904 58.9156 50.7019 58.8639 50.6559 58.6914L50.4545 58.3924C50.397 58.0014 50.5811 58.1337 50.7134 58.0934C50.6444 57.8922 50.5926 57.645 50.4718 57.5702L50.5696 57.2827C50.4948 57.484 50.4545 57.1333 50.397 57.0413L50.4488 57.1275C50.5006 57.0758 50.4085 56.8458 50.3625 56.725C50.2877 56.7768 50.3107 57.024 50.3107 57.162C50.2302 57.07 50.2129 56.9033 50.1093 56.7825C50.2474 56.7998 50.1266 56.4318 50.1036 56.2593C50.0863 56.0696 49.9368 56.0811 49.931 56.0236C50 56.0006 49.8792 55.7131 50 55.8396C50.0403 55.8971 49.9713 56.0006 50.0518 56.0926C50.0691 55.9546 50.1899 55.9431 50.0461 55.7131C49.9483 55.5349 49.7929 55.8109 49.7929 55.4371C49.8447 55.5234 49.9022 55.5291 49.9655 55.5866L49.954 55.2244L49.8274 55.2416C49.8447 55.1899 49.8677 55.2186 49.8792 55.1899C49.7296 55.1209 49.7296 54.6782 49.5628 54.6264C49.511 54.4597 49.5628 54.247 49.5398 54.0745L49.557 54.1032C49.5801 53.8905 49.4707 53.626 49.3557 53.4765L49.3787 53.4823C49.3614 53.3673 49.2866 53.1143 49.1773 52.9936C49.2061 52.6946 49.6088 52.7923 49.3902 52.5221C49.3269 52.2404 49.0738 52.1311 49.022 52.2634C48.9932 51.7402 48.671 51.1997 48.7401 50.6938C48.6768 50.6363 48.6538 50.6823 48.5905 50.5443C48.4697 49.7911 48.09 49.0091 48.1878 48.3594C48.2856 48.5607 48.3143 48.3422 48.3776 48.3249C48.228 48.1754 48.4409 48.0892 48.2396 48.0662C48.1417 48.1065 48.0785 48.1007 48.09 48.3192C47.9404 47.888 47.7793 47.2153 47.8253 46.945C47.8023 47.083 47.7448 46.9968 47.693 46.8933C47.8656 46.8875 47.8253 46.5598 47.7045 46.3241L47.5952 46.3126L47.6642 46.1229C47.6124 46.0366 47.4226 46.0711 47.4629 45.8009C47.4974 45.7779 47.5377 45.7491 47.5607 45.7031C47.4111 45.4674 47.1867 45.1397 47.2097 44.835L47.3075 44.5762C47.2557 44.4612 47.1292 44.2772 47.1292 44.5015C47.1119 44.0013 47.0601 43.7023 47.1522 43.5126C46.8991 43.1446 46.7034 42.6616 46.5539 42.1499L46.341 41.3737L46.2489 40.9943L46.2087 40.8103L46.1914 40.7413V40.7355H46.1972L46.2547 40.6378H46.2489H46.2547V40.632L46.876 39.6431H46.9278H46.9623L47.0141 39.6259L47.0659 39.5741C47.0832 39.5224 47.0832 39.4879 47.181 39.4936C47.1177 39.5914 47.4111 39.6144 47.2327 39.7466C47.6182 39.7466 47.6815 39.5051 47.9059 39.4189C47.9231 39.3096 47.7333 39.5281 47.7448 39.3901C47.7793 39.3384 48.2683 39.3556 48.2971 39.1889C48.4064 39.2406 48.3546 39.3614 48.3201 39.4419L48.533 39.3154C48.8436 39.4361 47.9807 39.7811 48.3201 39.9421L48.5215 39.8731C48.7573 39.9881 48.0209 40.1721 48.5502 40.1261C48.7516 39.9938 48.9012 39.7236 48.6825 39.7063C49.1313 39.5569 48.8206 39.2866 49.3212 39.1831C49.4822 39.2406 48.9184 39.2924 49.0508 39.4016C49.3154 39.4706 49.511 39.2234 49.7296 39.2176C49.4765 39.2119 49.6433 39.0164 49.7872 38.9474C50.0576 38.9647 49.6491 39.1314 50.0173 39.0681C50.0576 38.9704 50.3797 38.8152 50.0691 38.8267C50.1554 38.5909 50.4603 38.7979 50.6214 38.5909C50.771 38.7117 50.3222 39.0049 50.7364 38.9934C50.6386 38.8669 51.1852 38.6944 50.9263 38.5449C51.0931 38.5507 51.1392 38.6427 51.0414 38.7577C51.283 38.7979 51.5246 38.3897 51.657 38.6427L51.7087 38.4932C51.7893 38.5219 51.8928 38.5334 52.0309 38.5852C52.2323 38.5449 52.6177 38.2517 52.6465 38.4702C52.704 38.43 53.1586 38.338 52.9457 38.2345C52.6465 38.2057 52.6465 38.4069 52.4452 38.2517C52.6753 38.3667 52.8479 38.1367 52.986 38.0505L53.0377 38.131C53.1183 38.0792 53.2909 38.0505 53.3657 37.9815C53.3484 38.0217 53.3944 38.0505 53.4635 38.0562L53.5325 37.9067C53.9065 37.7573 53.6706 38.108 54.0445 37.9815L53.7799 38.1482C53.8374 38.1137 53.9928 38.2 54.1654 38.1195C54.2171 37.9872 54.3149 37.8205 54.3552 37.717C54.5336 37.6308 54.4933 37.786 54.6141 37.6998L54.4128 37.8607C54.384 37.9125 54.6429 38.0102 54.9305 37.9412C55.1031 37.855 55.3448 37.6308 55.0456 37.6308C55.1952 37.5963 55.4081 37.6193 55.3103 37.7285C55.6267 37.6135 55.2412 37.6135 55.5001 37.4755C55.6382 37.5273 56.0179 37.556 56.2538 37.6135L56.0006 37.8722L56.202 37.832C55.9891 38.0332 56.3516 37.9182 56.2538 38.1137C56.3919 38.108 56.5414 38.016 56.6565 37.9412C56.2078 37.7687 57.0075 37.4928 56.8406 37.28C57.3584 37.096 57.3009 37.7802 57.7726 37.2858C57.6921 37.2513 57.8071 37.1018 57.7036 37.1076C57.8647 37.0213 57.8129 36.8661 58.1523 36.8718C57.8877 37.0386 58.5205 37.0443 58.1351 37.2743C58.1466 37.188 57.8819 37.2685 57.8359 37.303C57.9855 37.3605 57.8589 37.556 58.1984 37.4698C58.3997 37.4008 58.6816 37.3318 58.6126 37.2168C58.5723 37.0788 58.3019 37.303 58.3997 37.1363C58.8025 36.9983 58.9175 37.188 59.0326 36.9063C58.7794 36.9868 58.6816 36.8546 58.6644 36.7683L58.952 36.6418L58.9175 36.7396C59.4181 36.6878 59.0153 36.5383 59.4986 36.4579L59.7575 36.5901C59.6769 36.7683 59.0556 36.6763 59.1937 36.9063C59.5044 36.8488 59.5734 36.7051 59.8783 36.6936L59.6769 36.7913C59.7863 36.7741 59.9761 37.0846 60.3616 36.7856C60.5629 36.6591 60.4019 36.6878 60.3846 36.5843C60.8679 36.4464 60.9829 36.3199 61.2994 36.2336C61.2821 36.4349 61.8632 36.1244 61.5525 36.3831C61.3741 36.3141 60.6665 36.4808 60.5284 36.6936C60.7528 36.8718 60.1372 36.7511 60.0797 36.9926C60.4709 36.9063 60.4997 37.1305 60.5975 37.2513C60.7068 37.234 60.7988 37.1535 60.8564 37.1133C60.8736 36.9753 60.7298 37.0156 60.6953 36.8718C61.144 36.8086 61.5467 36.6361 61.7596 36.4579C61.9207 36.4923 61.9092 36.6303 61.7366 36.6821C62.2486 36.5326 62.8067 36.4176 63.313 36.3429C62.9966 36.2221 63.6121 36.1819 63.6409 36.0899C63.6927 36.1474 63.7502 36.2164 63.733 36.2911C64.0551 36.1186 63.7445 36.4176 64.0839 36.3429C64.4061 36.1704 64.8088 36.0094 65.1885 35.8829C65.7063 35.9346 66.4025 35.6127 66.8282 35.5092C67.0698 35.5437 66.9663 35.7679 67.2079 35.7449C67.4956 35.6817 66.9548 35.5954 67.392 35.5839L67.3632 35.6357C67.4726 35.5667 68.0824 35.5839 68.2147 35.3367L68.1514 35.5207C68.232 35.5207 68.301 35.4574 68.3528 35.4229C68.3701 35.4862 68.4736 35.5207 68.3586 35.6012C68.3988 35.6127 68.4333 35.6184 68.4736 35.6184L68.7728 35.5494C68.9051 35.4977 69.0374 35.4172 69.1755 35.3827L68.9626 35.3022C69.4229 35.101 69.7738 35.1527 70.2341 35.0032L70.2456 35.1297L70.5103 34.9917C70.4757 35.0895 70.6598 35.1297 70.7864 35.0607L70.7116 35.1125L73.0474 34.5835L74.4512 40.7413L74.6008 41.1437C74.6181 41.1955 74.595 41.2185 74.5605 41.2357L74.7734 42.1844C75.0035 42.8571 75.1761 43.639 75.2912 44.4497L76.8446 51.309L77.5867 54.0342C77.5522 54.0112 77.4947 53.994 77.4486 54.0055L77.4774 54.1205C77.5925 54.2412 77.6903 54.523 77.7766 54.7874C77.6558 54.9714 78.047 55.3279 78.0527 55.7361L78.0125 55.7131C78.2368 55.9661 78.0125 56.1616 78.2656 56.3513L78.1851 56.564C78.4382 56.6388 78.1678 57.0068 78.3346 57.2137L78.3864 57.1965C78.4842 57.4092 78.4037 57.5472 78.4842 57.7485L78.467 57.7715C78.6338 58.2544 78.5763 58.5649 78.7431 58.5131C78.6453 58.7144 78.5763 58.1049 78.4439 58.3464L78.4957 58.5649C78.7374 59.2836 78.9445 60.5197 79.1286 61.2672L79.2667 61.8766L79.2954 61.8996ZM68.2665 35.3079L68.2492 35.3597L68.2665 35.3079ZM54.7062 37.648C54.6889 37.6653 54.6716 37.6768 54.6544 37.6883L54.7062 37.648ZM53.4405 37.9297C53.4347 37.947 53.4232 37.9527 53.4174 37.97C53.4117 37.9527 53.4232 37.9412 53.4405 37.9297ZM46.9451 39.6776C46.9623 39.6604 46.9623 39.6604 46.9451 39.6776V39.6776ZM55.5807 67.5457C55.5749 67.54 55.5634 67.5342 55.5634 67.5285C55.5691 67.5342 55.5749 67.5342 55.5807 67.5457ZM60.5687 66.1946C60.586 66.2003 60.5975 66.2003 60.6205 66.2003C60.609 66.1888 60.5975 66.1888 60.5687 66.1946ZM76.3785 62.7563C76.3785 62.7506 76.3843 62.7506 76.39 62.7448C76.3843 62.7506 76.3785 62.7563 76.3785 62.7563ZM57.623 37.1478C57.6863 37.119 57.7209 37.1075 57.7554 37.096C57.7266 37.119 57.6806 37.1305 57.623 37.1478ZM63.2382 35.8656C63.405 35.8426 63.2554 35.9576 63.336 35.9864C63.4568 35.8771 63.5891 35.9691 63.7042 35.9691C63.733 35.9404 63.7847 35.9116 63.8768 35.8714C63.825 35.9461 63.7617 35.9691 63.7042 35.9691C63.6524 36.0209 63.6524 36.0554 63.6754 36.0956C63.6697 36.0956 63.6639 36.0899 63.6582 36.0841C63.3763 36.0899 63.1174 35.9921 63.2382 35.8656ZM62.0645 66.0048C62.0818 65.9991 62.0991 65.9933 62.1163 65.9876C62.0875 66.0163 62.0645 66.0336 62.0645 66.0048ZM69.6875 35.3827L69.8486 35.3482L69.9752 35.2677C69.9867 35.2849 69.9925 35.3022 69.9925 35.3194L70.3204 35.2447C70.3146 35.2332 70.3031 35.2217 70.2916 35.2159C70.1536 35.1355 69.7508 35.2619 69.6875 35.3827ZM67.7257 35.8369C67.6912 35.8426 67.6567 35.8426 67.5991 35.8426L67.5819 35.8714L67.7257 35.8369ZM46.318 40.6895L46.2604 40.7873L46.318 40.6895ZM57.0247 67.103C57.0132 67.1087 57.0075 67.1145 56.9959 67.1145C57.0075 67.1087 57.0132 67.1087 57.0247 67.103Z" fill="#F10B34"/>
<path fill-rule="evenodd" clip-rule="evenodd" d="M72.6563 60.0022C71.2928 60.3415 69.9235 59.5998 69.3194 58.2889L68.1688 58.5303C67.3691 58.7028 62.0646 59.985 61.5756 60.1805C61.403 61.4109 61.5698 62.6068 59.9474 63.2852C57.416 64.3489 56.3229 62.647 55.7303 61.0027C55.3161 59.8585 55.4024 58.8006 55.713 58.1221C56.0525 57.3689 56.8407 57.0815 56.8637 56.9722C56.8637 56.9722 58.9981 47.2095 64.2105 40.8447C64.4234 40.5917 64.6018 40.4652 64.8894 40.4422C65.1023 40.425 65.39 40.5802 65.5395 40.6837C66.9893 41.7014 68.4104 42.7593 69.8084 43.8517C70.0731 44.0645 70.2744 44.1047 70.2744 44.5704C70.2744 44.9384 69.8832 45.0706 69.8832 45.0706L71.5286 51.6769C71.5286 51.6769 72.6793 51.2974 73.4157 51.8781C74.6181 52.8268 74.6699 55.0174 74.831 56.1673C75.0841 57.9036 74.2384 59.5825 72.6563 59.9735V60.0022ZM66.6442 54.2354L65.039 48.6411C63.0599 51.2169 61.9956 53.58 61.846 55.7246L66.6326 54.2354H66.6442Z" fill="#202329"/>
<path fill-rule="evenodd" clip-rule="evenodd" d="M71.4538 59.9447C70.0903 60.2839 68.721 59.5307 68.1169 58.2083L66.9663 58.4613C66.1666 58.6338 60.8621 59.9332 60.3788 60.1344C60.2062 61.3878 60.3673 62.5895 58.7507 63.2794C56.2135 64.3546 55.1261 62.6297 54.5278 60.9739C54.1136 59.824 54.2056 58.7488 54.5106 58.0703C54.85 57.3056 55.6382 57.0182 55.6612 56.9032C55.6612 56.9032 57.7899 47.0427 63.0023 40.6089C63.2152 40.356 63.3935 40.2065 63.6812 40.2065C63.9228 40.2007 64.1817 40.3445 64.3313 40.4479C65.3554 41.1609 67.5876 42.8398 68.6002 43.6504C68.8648 43.8632 69.0719 43.9034 69.0719 44.3749C69.0719 44.7544 68.6692 44.8866 68.6692 44.8866L70.3146 51.5733C70.3146 51.5733 71.4653 51.1824 72.2074 51.7746C73.4099 52.7405 73.4616 54.9426 73.6227 56.1097C73.8759 57.8633 73.0359 59.5652 71.448 59.9619L71.4538 59.9447ZM65.4417 54.1031L63.8308 47.9339C61.8574 50.5384 60.8046 53.4419 60.6607 55.6095L65.4417 54.1031Z" fill="white" stroke="#202329" stroke-width="0.4467" stroke-miterlimit="3.4828" stroke-linejoin="round"/>
<path d="M51.6858 43.1217C51.0127 43.1217 50.4834 42.5812 50.4834 41.9085C50.4834 41.2416 51.0184 40.7069 51.6858 40.7069C52.3474 40.7069 52.8882 41.2473 52.8882 41.9085C52.8882 42.5812 52.3532 43.1217 51.6858 43.1217ZM69.7337 39.649C69.0663 39.649 68.5312 39.1085 68.5312 38.4358C68.5312 37.7631 69.072 37.2227 69.7337 37.2227C70.3953 37.2227 70.9361 37.7631 70.9361 38.4358C70.9361 39.1085 70.3953 39.649 69.7337 39.649Z" fill="white" stroke="#202329" stroke-width="0.3404" stroke-miterlimit="3.4828"/>
<path d="M70.4528 38.683C66.437 33.0139 62.9908 27.5058 57.882 22.1645C57.4332 21.6988 56.6796 20.7616 55.7648 19.8129C55.5519 19.7727 55.3276 19.7267 55.1147 19.6749C55.0802 19.6692 55.0457 19.6634 55.0169 19.6519C54.5681 19.5427 54.1079 19.399 53.6419 19.2265C53.6131 19.215 53.5843 19.2092 53.5441 19.192C53.0723 19.0195 52.6063 18.8068 52.1575 18.571C52.1345 18.5538 52.1058 18.548 52.0885 18.5365C51.6398 18.2836 51.2025 18.0191 50.8055 17.7201C50.7883 17.7086 50.771 17.6971 50.7538 17.6798C50.5524 17.5304 50.3683 17.3694 50.1899 17.2026C50.1209 17.2544 50.0519 17.3004 49.9886 17.3694C50.0461 17.5821 50.1382 17.9213 50.0749 18.0996C49.9771 18.4273 49.7469 18.5768 49.5341 18.6745C49.4708 18.7033 49.4017 18.7263 49.3442 18.7435C48.7114 21.5091 49.6722 26.7009 49.7182 27.9371C49.8908 32.4907 50.8688 37.3146 51.1737 41.8625C51.191 42.1615 51.3751 42.5352 51.6743 42.5524C52.3532 42.5927 52.2899 41.851 52.2899 41.851C52.1403 40.1089 51.3751 34.779 51.0989 31.473C50.7998 27.8911 49.1946 20.5316 50.4488 18.7895C51.7491 16.9899 56.1905 21.9058 57.7727 23.6306C62.0818 28.3165 65.436 33.5831 69.095 38.7347C69.1583 38.8325 69.7796 39.1027 69.9983 39.0854C70.3377 39.0625 70.5851 38.8727 70.447 38.683H70.4528Z" fill="white"/>
<path d="M70.6023 38.4702C66.5866 32.8127 63.1979 27.3564 58.0776 21.992C57.6691 21.5781 56.9729 20.7271 56.1502 19.8417C55.8741 19.8072 55.5807 19.7439 55.2873 19.6692C56.3113 20.6926 57.2203 21.808 57.7094 22.337C62.7262 27.5921 66.1378 33.0139 70.096 38.6082C70.1306 38.66 70.2456 38.8382 70.096 38.9417C69.8832 39.0912 69.6185 38.9762 69.2963 38.5622C65.6546 33.4279 62.2832 28.1498 57.974 23.4524C57.3009 22.7165 56.11 21.3998 54.8558 20.2672C54.407 19.8647 53.9525 19.4565 53.5038 19.1287C52.8019 18.8585 52.1402 18.548 51.5016 18.1456C51.4268 18.1341 51.3233 18.1341 51.2485 18.1283C50.8688 18.1226 50.4948 18.2893 50.2589 18.6285C49.8562 19.2035 49.7412 20.1292 49.7354 21.2791C49.7412 24.3091 50.6387 28.903 50.8573 31.4845C51.1334 34.7905 51.8986 40.1204 52.0482 41.8452C52.0482 41.8452 52.1172 42.2535 51.7375 42.2822C51.4384 42.2994 51.4384 41.9315 51.4268 41.8337C51.1277 37.2571 50.1439 32.4447 49.9713 27.9141C49.931 26.9424 49.3787 23.7801 49.3787 21.1066C49.3672 20.1464 49.4592 19.215 49.6376 18.5538C49.6031 18.571 49.5686 18.6055 49.5398 18.6228C49.3787 18.6975 49.2291 18.7378 49.0795 18.7493C48.9415 19.4335 48.8897 20.2844 48.8782 21.1181C48.8839 23.8376 49.442 27.0574 49.4765 27.9428C49.6549 32.531 50.6272 37.3548 50.9321 41.874C50.9666 42.242 51.1507 42.7249 51.6742 42.7997C52.1863 42.7939 52.3243 42.6272 52.4624 42.4489C52.5717 42.2994 52.5602 42.0005 52.5602 41.897C52.5602 41.4198 51.6397 34.7388 51.3578 31.45C51.1334 28.834 50.2359 24.2401 50.2359 21.2848C50.2302 20.1809 50.3855 19.3012 50.6617 18.9333C50.8113 18.7205 50.9839 18.6515 51.2427 18.6458C51.9792 18.6228 53.2966 19.5255 54.5163 20.6466C55.7475 21.762 56.9327 23.0672 57.6 23.8031C61.8804 28.4718 65.2461 33.7269 68.8994 38.8842C69.049 39.0509 69.3884 39.4592 69.9004 39.4362C70.1996 39.4189 70.6771 39.1832 70.7001 38.8497C70.7001 38.7577 70.6483 38.5392 70.6081 38.476L70.6023 38.4702Z" fill="#202329"/>
<path d="M48.9875 19.1747C49.2234 17.7373 49.9886 17.2026 50.7193 17.2199C51.5477 17.2314 52.2439 17.7718 52.2611 17.7833L51.962 18.1858C51.962 18.1858 51.8124 18.0708 51.5707 17.9558C51.3291 17.8351 51.0184 17.7258 50.7193 17.7258C50.2302 17.7431 49.7355 17.9501 49.4823 19.2667L48.9875 19.1747ZM88.656 57.7428C88.5812 57.4955 88.5237 57.2425 88.4949 56.9896L88.3568 55.3509C88.2475 54.5288 88.0576 54.0975 87.793 54.063C87.5168 54.0113 87.0221 54.385 86.3029 55.167L84.2778 57.346C83.5241 58.1452 82.9258 58.5362 82.4943 58.5362C81.8959 58.5362 81.3666 57.2368 80.9524 54.6437C80.5785 52.3382 80.4519 50.4236 80.6015 48.8999C80.6993 47.911 80.9006 47.3993 81.2286 47.3763C81.6946 47.3246 82.0398 47.704 82.2699 48.509L82.8222 50.7456C83.0236 51.562 83.271 51.9645 83.5759 51.9645C83.8751 51.9645 84.4791 51.562 85.3594 50.78L87.8045 48.5377C88.7135 47.7385 89.4096 47.3361 89.8584 47.3361C89.9332 47.3361 90.0022 47.3533 90.0713 47.3821C90.4337 47.5315 90.6236 48.3537 90.6351 49.8371C90.6523 50.6708 90.6063 51.5965 90.5085 52.6429C90.405 53.6836 90.2611 54.7242 90.0655 55.7534C89.7376 57.4553 89.4269 58.2947 89.122 58.2947C88.9321 58.2947 88.7768 58.1107 88.656 57.7428ZM92.4416 58.4097C92.0331 58.3292 91.8433 57.5703 91.8605 56.1386C91.8663 55.3394 91.9353 54.4483 92.0619 53.4651C92.2172 52.3727 92.4243 51.286 92.6947 50.2108C93.109 48.4342 93.5232 47.4913 93.9144 47.3821C93.9547 47.3706 94.0007 47.3648 94.0525 47.3648C94.3517 47.3648 94.6048 47.681 94.7831 48.3077L95.2837 50.0614C95.485 50.6996 95.8015 51.0215 96.2272 51.033C96.8658 51.0503 97.3376 51.0388 97.6425 50.9928C97.8611 50.9525 98.1258 50.8605 98.4422 50.7283C98.7241 50.5961 98.9255 50.2453 99.0405 49.6589L99.3052 48.1467C99.4663 47.635 99.7309 47.3763 100.093 47.3648C100.502 47.3476 100.945 48.2675 101.394 50.1073C101.825 51.8092 102.101 53.5513 102.211 55.3049C102.262 56.1674 102.245 56.8573 102.176 57.3748C102.095 57.9727 101.94 58.3177 101.699 58.3982C101.612 58.4212 101.537 58.4385 101.463 58.4385C101.089 58.4385 100.761 58.128 100.496 57.5128L99.7194 55.5752C99.3915 54.776 99.0463 54.224 98.6896 53.9366C98.1085 53.4651 97.5965 53.2351 97.1592 53.2351C96.7105 53.2351 96.1869 53.5456 95.5771 54.1665C95.347 54.3965 95.042 54.9427 94.6681 55.7879C94.2539 56.7251 93.9317 57.3575 93.7073 57.691C93.3679 58.1912 93.0054 58.4442 92.6257 58.4442C92.5624 58.4385 92.4991 58.427 92.4416 58.4097Z" fill="#202329"/>
<path fill-rule="evenodd" clip-rule="evenodd" d="M114.056 49.8717C113.78 51.9243 113.257 53.7469 112.486 55.351C111.537 57.3403 110.449 58.3638 109.229 58.4385C108.459 58.4902 107.578 57.8578 106.606 56.5584C105.864 55.5867 105.289 54.6035 104.88 53.5974C104.293 52.1715 104.069 50.9296 104.207 49.8774C104.334 48.9632 105.058 48.2733 106.399 47.8421C107.342 47.5258 108.367 47.3706 109.477 47.3706C110.582 47.3706 111.565 47.5201 112.423 47.8421C113.636 48.2848 114.177 48.969 114.056 49.8717ZM110.087 51.6425C110.139 51.2688 110.069 50.9526 109.885 50.6996C109.707 50.4466 109.437 50.3316 109.068 50.3316C108.7 50.3316 108.395 50.4581 108.131 50.7111C107.872 50.9583 107.705 51.2861 107.659 51.6425C107.561 52.4015 107.688 53.0339 108.062 53.5456C108.355 53.9481 108.66 54.1436 108.999 54.1436C109.051 54.1436 109.091 54.1378 109.109 54.1263C109.437 54.0171 109.696 53.6434 109.862 53.0224C109.92 52.7924 110 52.3382 110.087 51.6483V51.6425Z" fill="#202329"/>
<path d="M115.397 58.4443C114.914 58.5362 114.666 57.7083 114.655 55.9604C114.655 54.8278 114.712 53.7699 114.856 52.7809C114.994 51.7288 115.19 50.8031 115.437 49.9752C115.828 48.6758 116.312 47.8651 116.864 47.5488C117.083 47.4281 117.29 47.3706 117.491 47.3706C118.055 47.3706 118.573 47.7961 119.044 48.647L120.258 50.9813C120.707 51.815 121.11 52.2117 121.444 52.1715C121.823 52.1197 122.307 51.6943 122.888 50.8721L124.476 48.5895C125.068 47.7788 125.54 47.3706 125.908 47.3706C126.046 47.3706 126.184 47.4339 126.311 47.5603C126.875 48.1813 127.346 49.7337 127.743 52.2175C128.117 54.5288 128.232 56.2479 128.083 57.3633C127.985 58.082 127.755 58.4443 127.398 58.4443C126.99 58.4443 126.547 58.1108 126.069 57.4438L124.809 55.5752C124.349 54.8968 123.975 54.5633 123.682 54.5633C123.371 54.5633 123.043 54.8623 122.681 55.4775C122.445 55.8914 122.082 56.5009 121.605 57.3116C121.19 57.99 120.742 58.3638 120.27 58.4385C119.81 58.5075 119.482 58.2028 119.292 57.5243L118.843 55.443C118.642 54.6438 118.36 54.1666 117.98 54.0401C117.888 54.0228 117.831 54.0113 117.808 54.0113C117.474 54.0113 117.192 54.3793 116.968 55.1153L116.375 57.1851C116.122 57.9498 115.8 58.3695 115.397 58.4443Z" fill="#202329"/>
<path fill-rule="evenodd" clip-rule="evenodd" d="M129.4 58.2431C129.268 58.1913 129.251 57.8924 129.314 57.3691C129.441 56.409 129.78 55.1786 130.315 53.6722C130.913 52.0393 131.569 50.6364 132.271 49.475C133.082 48.1239 133.825 47.4224 134.475 47.3592C135.2 47.2844 136.057 48.0204 137.046 49.5612C137.886 50.8606 138.634 52.4418 139.284 54.2644C139.923 56.0237 140.188 57.2427 140.107 57.9211C140.055 58.2603 139.871 58.4328 139.543 58.4328C139.21 58.4328 138.692 58.0821 137.978 57.4094C137.225 56.6792 136.718 56.2652 136.442 56.156C136.264 56.087 135.993 55.972 135.654 55.8053C135.378 55.6845 135.102 55.627 134.82 55.627C134.337 55.627 133.669 55.8053 132.783 56.1502C132.196 56.386 131.644 56.7022 131.144 57.0932C131.005 57.2082 130.701 57.4841 130.24 57.9269C129.987 58.1683 129.792 58.2891 129.619 58.2891C129.538 58.2891 129.458 58.2718 129.383 58.2316L129.4 58.2431ZM133.629 51.0734C133.531 51.7863 133.554 52.39 133.686 52.8845C133.75 53.126 133.888 53.2467 134.072 53.2467C134.256 53.2467 134.515 53.1317 134.826 52.896C135.096 52.712 135.315 52.5223 135.487 52.3153C135.522 52.2808 135.539 52.2175 135.55 52.1485C135.591 51.8496 135.453 51.3896 135.119 50.7744C134.791 50.165 134.492 49.866 134.216 49.866C133.922 49.866 133.727 50.2684 133.617 51.0676L133.629 51.0734Z" fill="#202329"/>
<path d="M142.587 58.4443C142.103 58.5362 141.856 57.7083 141.845 55.9604C141.839 54.8278 141.908 53.7699 142.046 52.7809C142.184 51.7288 142.38 50.8031 142.627 49.9752C143.03 48.6758 143.496 47.8651 144.054 47.5488C144.267 47.4281 144.48 47.3706 144.681 47.3706C145.245 47.3706 145.763 47.7961 146.234 48.647L147.448 50.9813C147.897 51.815 148.3 52.2117 148.633 52.1715C149.013 52.1197 149.496 51.6943 150.077 50.8721L151.665 48.5895C152.252 47.7788 152.73 47.3706 153.092 47.3706C153.242 47.3706 153.374 47.4339 153.495 47.5603C154.059 48.1813 154.536 49.7337 154.927 52.2175C155.307 54.5288 155.428 56.2479 155.278 57.3633C155.181 58.082 154.95 58.4443 154.594 58.4443C154.185 58.4443 153.742 58.1108 153.265 57.4438L152.01 55.5752C151.544 54.8968 151.159 54.5633 150.871 54.5633C150.572 54.5633 150.233 54.8623 149.882 55.4775L148.806 57.3116C148.386 57.99 147.943 58.3638 147.471 58.4385C147.011 58.5075 146.683 58.2028 146.493 57.5243L146.044 55.443C145.843 54.6438 145.561 54.1666 145.181 54.0401C145.089 54.0228 145.032 54.0113 145.009 54.0113C144.675 54.0113 144.393 54.3793 144.169 55.1153L143.576 57.1851C143.335 57.9555 143.012 58.3753 142.615 58.45L142.587 58.4443Z" fill="#202329"/>
<path fill-rule="evenodd" clip-rule="evenodd" d="M156.584 58.2431C156.458 58.1913 156.435 57.8924 156.498 57.3691C156.63 56.409 156.964 55.1786 157.51 53.6722C158.109 52.0393 158.753 50.6364 159.467 49.475C160.283 48.1239 161.02 47.4224 161.67 47.3592C162.395 47.2844 163.252 48.0204 164.236 49.5612C165.076 50.8606 165.83 52.4418 166.48 54.2644C167.118 56.0237 167.383 57.2427 167.297 57.9211C167.245 58.2603 167.067 58.4328 166.744 58.4328C166.411 58.4328 165.881 58.0821 165.174 57.4094C164.42 56.6792 163.92 56.2652 163.643 56.156C163.459 56.087 163.195 55.972 162.855 55.8053C162.579 55.6845 162.303 55.627 162.021 55.627C161.538 55.627 160.87 55.8053 159.99 56.1502C159.403 56.3802 158.851 56.6964 158.35 57.0932C158.201 57.2082 157.907 57.4841 157.447 57.9269C157.194 58.1683 156.998 58.2891 156.832 58.2891C156.751 58.2891 156.665 58.2718 156.59 58.2316L156.584 58.2431ZM160.819 51.0734C160.721 51.7863 160.744 52.39 160.87 52.8845C160.939 53.126 161.072 53.2467 161.262 53.2467C161.451 53.2467 161.705 53.1317 162.015 52.896C162.286 52.712 162.504 52.5223 162.683 52.3153C162.711 52.2808 162.734 52.2175 162.746 52.1485C162.786 51.8496 162.648 51.3896 162.314 50.7744C161.986 50.165 161.687 49.866 161.411 49.866C161.118 49.866 160.928 50.2684 160.813 51.0676L160.819 51.0734Z" fill="#202329"/>
<path d="M170.225 58.5191C170.173 58.5364 170.127 58.5479 170.099 58.5479C169.799 58.5479 169.518 58.1741 169.287 57.4094C169.086 56.7367 169.011 56.2078 169.063 55.8226C169.115 55.4948 169.339 55.3396 169.753 55.3396C170.455 55.3396 170.99 55.5926 171.364 56.0985C171.491 56.2653 171.537 56.4723 171.502 56.7367C171.462 57.053 171.313 57.3864 171.054 57.7487C170.8 58.0994 170.524 58.3639 170.225 58.5191Z" fill="#202329"/>
<path d="M87.9657 58.0015C87.8909 57.7543 87.8334 57.5013 87.8046 57.2483L87.6665 55.6097C87.5572 54.7875 87.3674 54.3563 87.1027 54.3218C86.8266 54.2701 86.3318 54.6438 85.6126 55.4257L83.5875 57.6048C82.8338 58.404 82.2355 58.795 81.804 58.795C81.2057 58.795 80.6821 57.4956 80.2622 54.9025C79.8882 52.5969 79.7616 50.6823 79.9112 49.1587C80.0033 48.1698 80.2104 47.6581 80.5383 47.6351C81.0043 47.5833 81.3495 47.9628 81.5796 48.7677L82.1319 51.0101C82.3333 51.8208 82.5807 52.229 82.8856 52.229C83.1905 52.229 83.7889 51.8265 84.6691 51.0446L87.1142 48.8022C88.0232 48.0031 88.7194 47.6006 89.1681 47.6006C89.2429 47.6006 89.312 47.6178 89.381 47.6466C89.7492 47.7961 89.9333 48.624 89.9448 50.1016C89.9563 50.9353 89.916 51.861 89.8125 52.9074C89.7204 53.8906 89.5766 54.9255 89.3752 56.0122C89.0473 57.7141 88.7366 58.565 88.4317 58.565C88.2419 58.5535 88.0865 58.3753 87.9657 58.0015ZM91.7398 58.6627C91.3371 58.5822 91.1415 57.8233 91.1587 56.3917C91.1702 55.5925 91.2393 54.7013 91.3716 53.7181C91.5269 52.6257 91.7341 51.539 92.0045 50.4639C92.4244 48.6872 92.8329 47.7443 93.2241 47.6351C93.2644 47.6236 93.3104 47.6178 93.3622 47.6178C93.6614 47.6178 93.9145 47.9341 94.0929 48.5608L94.5934 50.3144C94.7948 50.9526 95.117 51.2745 95.5427 51.286C96.1813 51.3033 96.6531 51.2918 96.958 51.2458C97.1766 51.2056 97.4412 51.1136 97.7577 50.9813C98.0396 50.8491 98.2352 50.4984 98.356 49.9119L98.6264 48.3998C98.776 47.8881 99.0464 47.6293 99.4146 47.6178C99.8173 47.6006 100.255 48.5205 100.715 50.3604C101.146 52.0622 101.422 53.8044 101.532 55.558C101.584 56.4204 101.566 57.1104 101.503 57.6278C101.417 58.2258 101.261 58.5707 101.02 58.6512C100.933 58.6742 100.853 58.6915 100.784 58.6915C100.416 58.6915 100.082 58.381 99.8173 57.7658L99.0406 55.8282C98.7127 55.029 98.3675 54.4771 98.0108 54.1953C97.4297 53.7181 96.9177 53.4824 96.4805 53.4824C96.0317 53.4824 95.5082 53.7929 94.8983 54.4138C94.6682 54.6438 94.369 55.19 93.9893 56.0409C93.5751 56.9724 93.2529 57.6106 93.0285 57.944C92.6891 58.4442 92.3266 58.6972 91.9469 58.6972C91.8836 58.6972 91.8204 58.6857 91.7571 58.6685L91.7398 58.6627Z" fill="#0AA245" stroke="#202329" stroke-width="0.5503" stroke-miterlimit="3.4828"/>
<path fill-rule="evenodd" clip-rule="evenodd" d="M113.361 50.1305C113.09 52.183 112.561 54.0057 111.796 55.6098C110.846 57.5991 109.759 58.6226 108.539 58.6973C107.768 58.749 106.894 58.1166 105.916 56.8172C105.174 55.8455 104.598 54.8623 104.19 53.8562C103.603 52.4303 103.379 51.1884 103.517 50.1362C103.643 49.222 104.368 48.5321 105.709 48.1009C106.652 47.7846 107.676 47.6294 108.787 47.6294C109.891 47.6294 110.875 47.7789 111.732 48.1009C112.946 48.5436 113.487 49.2278 113.361 50.1305ZM109.391 51.9013C109.443 51.5276 109.374 51.2114 109.189 50.9584C109.011 50.7054 108.741 50.5904 108.372 50.5904C108.004 50.5904 107.699 50.7169 107.435 50.9699C107.17 51.2229 107.015 51.5333 106.963 51.9013C106.865 52.6603 106.992 53.2927 107.366 53.8044C107.659 54.2069 107.964 54.4024 108.303 54.4024C108.355 54.4024 108.395 54.3966 108.413 54.3851C108.741 54.2759 108.994 53.9022 109.166 53.2812C109.224 53.0512 109.304 52.597 109.391 51.9071V51.9013Z" fill="#0AA245" stroke="#202329" stroke-width="0.5503" stroke-miterlimit="3.4828"/>
<path d="M114.707 58.6916C114.223 58.7836 113.976 57.9556 113.953 56.2078C113.953 55.0751 114.016 54.0172 114.154 53.0283C114.292 51.9761 114.488 51.0504 114.735 50.2225C115.138 48.9231 115.61 48.1124 116.162 47.7962C116.381 47.6754 116.588 47.6179 116.789 47.6179C117.353 47.6179 117.871 48.0434 118.343 48.8943L119.557 51.2286C120.005 52.0623 120.408 52.459 120.742 52.4188C121.121 52.3671 121.605 51.9358 122.186 51.1194L123.774 48.8368C124.366 48.0261 124.838 47.6179 125.206 47.6179C125.344 47.6179 125.482 47.6812 125.609 47.8077C126.173 48.4286 126.644 49.981 127.036 52.4648C127.415 54.7761 127.536 56.4952 127.387 57.6106C127.289 58.3293 127.059 58.6916 126.702 58.6916C126.294 58.6916 125.851 58.3581 125.373 57.6911L124.119 55.8225C123.653 55.1498 123.279 54.8221 122.985 54.8221C122.675 54.8221 122.347 55.1211 121.984 55.7363C121.748 56.1503 121.386 56.7597 120.909 57.5704C120.494 58.2488 120.046 58.6226 119.574 58.6973C119.108 58.7663 118.78 58.4616 118.59 57.7831L118.141 55.7018C117.94 54.9026 117.658 54.4254 117.278 54.2989C117.186 54.2817 117.129 54.2759 117.106 54.2759C116.772 54.2759 116.49 54.6439 116.266 55.3798L115.673 57.4497C115.431 58.2201 115.109 58.6398 114.724 58.7146L114.707 58.6916Z" fill="#F10B34" stroke="#202329" stroke-width="0.492" stroke-miterlimit="3.4828"/>
<path fill-rule="evenodd" clip-rule="evenodd" d="M128.71 58.496C128.577 58.4443 128.549 58.1453 128.624 57.6221C128.75 56.6619 129.09 55.4315 129.625 53.9251C130.223 52.2922 130.879 50.8893 131.581 49.7279C132.398 48.3768 133.134 47.6753 133.784 47.6121C134.509 47.5374 135.366 48.2733 136.356 49.8142C137.196 51.1251 137.944 52.6947 138.594 54.5173C139.232 56.2767 139.497 57.4956 139.417 58.174C139.365 58.5133 139.181 58.6857 138.853 58.6857C138.519 58.6857 138.001 58.3465 137.288 57.6623C136.534 56.9379 136.028 56.5182 135.752 56.4089C135.573 56.3399 135.309 56.2249 134.964 56.0697C134.693 55.9432 134.411 55.8857 134.129 55.8857C133.646 55.8857 132.967 56.064 132.098 56.4089C131.5 56.6504 130.948 56.9609 130.453 57.3519C130.315 57.4668 130.01 57.7428 129.55 58.1855C129.297 58.427 129.101 58.5535 128.934 58.5535C128.871 58.542 128.796 58.5248 128.71 58.496ZM132.938 51.3263C132.841 52.0393 132.864 52.643 132.996 53.1374C133.059 53.3789 133.197 53.4997 133.381 53.4997C133.566 53.4997 133.824 53.3847 134.135 53.1489C134.406 52.9649 134.624 52.7752 134.797 52.5682C134.831 52.5337 134.849 52.4762 134.86 52.4015C134.9 52.1025 134.762 51.6425 134.429 51.0273C134.095 50.4121 133.801 50.1189 133.525 50.1189C133.232 50.1189 133.036 50.5214 132.927 51.3206L132.938 51.3263Z" fill="#F10B34" stroke="#202329" stroke-width="0.492" stroke-miterlimit="3.4828"/>
<path d="M141.896 58.6916C141.413 58.7836 141.166 57.9556 141.154 56.2078C141.148 55.0751 141.217 54.0172 141.356 53.0283C141.494 51.9761 141.689 51.0504 141.937 50.2225C142.328 48.9231 142.805 48.1124 143.363 47.7962C143.576 47.6754 143.789 47.6179 143.99 47.6179C144.554 47.6179 145.072 48.0434 145.544 48.8943L146.758 51.2286C147.207 52.0623 147.609 52.459 147.943 52.4188C148.323 52.3671 148.806 51.9358 149.387 51.1194L150.975 48.8368C151.562 48.0261 152.039 47.6179 152.402 47.6179C152.551 47.6179 152.684 47.6812 152.804 47.8077C153.368 48.4286 153.846 49.981 154.237 52.4648C154.617 54.7761 154.737 56.4952 154.588 57.6106C154.49 58.3293 154.26 58.6916 153.903 58.6916C153.495 58.6916 153.052 58.3581 152.574 57.6911L151.32 55.8225C150.854 55.1498 150.469 54.8221 150.181 54.8221C149.882 54.8221 149.542 55.1211 149.191 55.7363L148.116 57.5704C147.696 58.2488 147.253 58.6226 146.781 58.6973C146.321 58.7663 145.993 58.4616 145.797 57.7831L145.348 55.7018C145.158 54.9026 144.871 54.4254 144.497 54.2989C144.405 54.2817 144.347 54.2759 144.324 54.2759C143.99 54.2759 143.709 54.6439 143.484 55.3798L142.892 57.4497C142.65 58.2201 142.328 58.6398 141.931 58.7146L141.896 58.6916Z" fill="#F10B34" stroke="#202329" stroke-width="0.492" stroke-miterlimit="3.4828"/>
<path fill-rule="evenodd" clip-rule="evenodd" d="M155.894 58.496C155.767 58.4443 155.744 58.1453 155.807 57.6221C155.94 56.6619 156.273 55.4315 156.826 53.9251C157.418 52.2922 158.063 50.8893 158.782 49.7279C159.599 48.3768 160.335 47.6753 160.985 47.6121C161.71 47.5374 162.567 48.2733 163.551 49.8142C164.391 51.1251 165.145 52.6947 165.795 54.5173C166.434 56.2767 166.698 57.4956 166.612 58.174C166.56 58.5133 166.382 58.6857 166.06 58.6857C165.726 58.6857 165.197 58.3465 164.489 57.6623C163.735 56.9379 163.235 56.5182 162.959 56.4089C162.694 56.2997 162.429 56.1904 162.171 56.0697C161.906 55.949 161.624 55.8857 161.336 55.8857C160.853 55.8857 160.186 56.064 159.305 56.4089C158.707 56.6504 158.155 56.9609 157.666 57.3519C157.516 57.4668 157.223 57.7428 156.762 58.1855C156.509 58.427 156.302 58.5535 156.141 58.5535C156.066 58.5478 155.992 58.5305 155.899 58.496H155.894ZM160.128 51.3263C160.03 52.0393 160.053 52.643 160.18 53.1374C160.249 53.3789 160.381 53.4997 160.571 53.4997C160.761 53.4997 161.014 53.3847 161.325 53.1489C161.595 52.9649 161.814 52.7752 161.992 52.5682C162.021 52.5337 162.044 52.4762 162.055 52.4015C162.096 52.1025 161.958 51.6425 161.624 51.0273C161.29 50.4121 160.997 50.1189 160.721 50.1189C160.433 50.1189 160.237 50.5214 160.122 51.3206L160.128 51.3263Z" fill="#F10B34" stroke="#202329" stroke-width="0.492" stroke-miterlimit="3.4828"/>
<path d="M169.535 58.7719C169.483 58.7892 169.437 58.8007 169.408 58.8007C169.109 58.8007 168.827 58.4212 168.597 57.6623C168.396 56.9896 168.321 56.4606 168.373 56.0754C168.424 55.7477 168.649 55.5867 169.063 55.5867C169.765 55.5867 170.3 55.8397 170.674 56.3514C170.8 56.5181 170.846 56.7251 170.812 56.9896C170.772 57.3 170.622 57.6393 170.363 57.99C170.11 58.358 169.834 58.6109 169.535 58.7719Z" fill="#0AA245" stroke="#202329" stroke-width="0.5024" stroke-miterlimit="3.4828"/>
<path fill-rule="evenodd" clip-rule="evenodd" d="M178.619 54.1896C176.968 54.4828 175.346 55.8684 174.983 57.1851C174.632 58.5017 174.431 59.2549 173.631 59.2549C172.831 59.2549 172.596 59.2549 172.682 57.6163L173.004 50.0786C173.004 50.0786 172.785 47.8363 175.679 48.0433C179.033 48.2848 181.266 49.4289 181.87 51.2745C182.468 53.1144 180.23 53.9078 178.636 54.1896H178.619ZM178.539 51.516C178.579 50.7571 177.819 50.3661 176.985 50.3144C175.507 50.2339 175.708 51.3148 175.708 51.3148C175.587 52.0335 176.232 52.5509 176.824 52.5509C177.428 52.5509 178.504 52.2692 178.539 51.516Z" fill="#202329"/>
<path fill-rule="evenodd" clip-rule="evenodd" d="M178.038 53.6893C176.387 53.9825 174.764 55.3682 174.408 56.6848C174.051 58.0015 173.844 58.7547 173.056 58.7547C172.256 58.7547 172.014 58.7547 172.095 57.116L172.417 49.5784C172.417 49.5784 172.199 47.3361 175.092 47.543C178.447 47.7845 180.679 48.9287 181.283 50.7743C181.881 52.6084 179.637 53.4076 178.038 53.6893ZM177.958 51.0158C177.998 50.2626 177.238 49.8659 176.404 49.8141C174.926 49.7336 175.127 50.8145 175.127 50.8145C175.006 51.5332 175.65 52.0507 176.249 52.0507C176.847 52.0507 177.923 51.769 177.958 51.0158Z" fill="#0AA245" stroke="#202329" stroke-width="0.5555" stroke-miterlimit="3.4828"/>
<path d="M182.06 49.1299C181.95 48.8481 181.651 48.1524 182.198 47.9282C182.917 47.635 184.971 50.4293 185.701 51.1997C186.455 51.9701 187.353 51.9989 188.233 50.7512C189.113 49.4978 189.648 48.4342 190.12 48.2962C190.603 48.1639 190.822 48.9114 190.735 50.5615C190.655 52.2116 188.204 56.5698 185.143 58.6511C182.088 60.721 182.669 58.0417 183.59 56.9205C184.522 55.8051 185.08 54.9254 184.712 54.2355C184.338 53.5455 182.399 50.0325 182.048 49.1299H182.06Z" fill="#202329"/>
<path d="M181.237 48.739C181.139 48.4573 180.834 47.7616 181.375 47.5374C182.094 47.2384 184.148 50.0384 184.89 50.8089C185.632 51.5793 186.541 51.6081 187.416 50.3604C188.296 49.107 188.831 48.0491 189.309 47.9054C189.786 47.7674 189.999 48.5148 189.918 50.1707C189.838 51.8208 187.387 56.179 184.326 58.2603C181.271 60.3301 181.852 57.6451 182.784 56.5297C183.716 55.4143 184.274 54.5346 183.901 53.8389C183.527 53.1489 181.588 49.636 181.237 48.7333V48.739Z" fill="#0AA245" stroke="#202329" stroke-width="0.5555" stroke-miterlimit="3.4828"/>
<path d="M85.1188 21.6622C85.1188 22.0393 85.0434 22.3702 84.8925 22.6552C84.7415 22.9401 84.5319 23.1789 84.2636 23.3716C84.0036 23.5643 83.6976 23.711 83.3454 23.8115C83.0016 23.9121 82.6327 23.9624 82.2386 23.9624H77.9246V15.0381H82.704C83.0142 15.0381 83.2951 15.1051 83.5467 15.2392C83.7982 15.3733 84.012 15.5492 84.1881 15.7671C84.3642 15.9766 84.4984 16.2196 84.5906 16.4961C84.6912 16.7643 84.7415 17.0366 84.7415 17.3132C84.7415 17.7489 84.6325 18.1595 84.4145 18.545C84.1965 18.922 83.8779 19.2028 83.4586 19.3871C83.9701 19.5379 84.3726 19.8103 84.6661 20.2041C84.9679 20.5896 85.1188 21.0756 85.1188 21.6622ZM83.3706 21.3354C83.3706 21.1762 83.3412 21.0253 83.2825 20.8829C83.2322 20.732 83.161 20.6022 83.0687 20.4932C82.9765 20.3843 82.8675 20.3005 82.7417 20.2418C82.6159 20.1748 82.4776 20.1413 82.3267 20.1413H79.6602V22.4918H82.2386C82.3979 22.4918 82.5447 22.4624 82.6788 22.4038C82.8214 22.3451 82.943 22.2655 83.0436 22.1649C83.1442 22.056 83.2238 21.9303 83.2825 21.7879C83.3412 21.6454 83.3706 21.4946 83.3706 21.3354ZM79.6602 16.5213V18.7712H81.9745C82.268 18.7712 82.5153 18.6707 82.7166 18.4695C82.9262 18.2684 83.031 17.9919 83.031 17.64C83.031 17.2964 82.9346 17.0241 82.7417 16.8229C82.5572 16.6218 82.3267 16.5213 82.05 16.5213H79.6602Z" fill="#202329"/>
<path d="M86.4601 17.376H88.1329V19.4625H89.2397C89.6003 19.4625 89.9315 19.5128 90.2333 19.6134C90.5436 19.7055 90.8119 19.848 91.0383 20.0407C91.2647 20.2251 91.4408 20.4597 91.5665 20.7446C91.7007 21.0211 91.7678 21.3396 91.7678 21.6999C91.7678 22.0686 91.7049 22.3954 91.5791 22.6803C91.4533 22.9568 91.2773 23.1915 91.0509 23.3842C90.8329 23.5769 90.5729 23.7236 90.2711 23.8241C89.9776 23.9163 89.6548 23.9624 89.3026 23.9624H86.4601V17.376ZM92.4847 17.376H94.1449V23.9624H92.4847V17.376ZM89.1265 22.6426C89.4116 22.6426 89.638 22.5672 89.8057 22.4163C89.9734 22.2571 90.0573 22.0267 90.0573 21.725C90.0573 21.4234 89.9692 21.1929 89.7931 21.0337C89.617 20.8661 89.3948 20.7823 89.1265 20.7823H88.1329V22.6426H89.1265Z" fill="#202329"/>
<path d="M98.9659 16.6344C98.4376 16.7517 98.0184 16.978 97.7082 17.3132C97.4063 17.6483 97.2009 18.1302 97.0919 18.7586C97.3518 18.4402 97.6662 18.1972 98.0352 18.0296C98.4041 17.8536 98.8192 17.7657 99.2803 17.7657C99.6828 17.7657 100.06 17.8453 100.412 18.0045C100.764 18.1637 101.071 18.3816 101.33 18.6581C101.599 18.9346 101.808 19.2614 101.959 19.6385C102.119 20.0156 102.198 20.422 102.198 20.8577C102.198 21.3102 102.119 21.7334 101.959 22.1272C101.808 22.5211 101.586 22.8646 101.293 23.1579C101.008 23.4428 100.655 23.6691 100.236 23.8367C99.817 24.0043 99.3432 24.0881 98.815 24.0881C97.7249 24.0881 96.899 23.7487 96.3372 23.0699C95.7754 22.3828 95.4945 21.3815 95.4945 20.0659C95.4945 19.3201 95.5658 18.6707 95.7083 18.1176C95.8509 17.5562 96.0647 17.0827 96.3498 16.6973C96.6433 16.3034 97.0038 15.985 97.4314 15.742C97.8675 15.499 98.3706 15.3146 98.9407 15.1889L101.381 14.6484L101.494 16.0688L98.9659 16.6344ZM97.2176 20.82C97.2176 21.0965 97.2596 21.3479 97.3434 21.5742C97.4273 21.8004 97.5405 21.9974 97.683 22.1649C97.8255 22.3242 97.9974 22.4499 98.1987 22.542C98.3999 22.6342 98.6221 22.6803 98.8653 22.6803C99.3432 22.6803 99.7289 22.5169 100.022 22.1901C100.316 21.8549 100.463 21.415 100.463 20.8703C100.463 20.3675 100.312 19.9611 100.01 19.6511C99.708 19.3326 99.3097 19.1734 98.815 19.1734C98.3454 19.1734 97.9597 19.3243 97.6578 19.6259C97.3644 19.9276 97.2176 20.3256 97.2176 20.82Z" fill="#202329"/>
<path d="M105.058 21.5616L108.178 17.376H109.423V23.9624H107.75V19.8899L104.668 23.9624H103.386V17.376H105.058V21.5616Z" fill="#202329"/>
<path d="M114.962 24.0881C114.443 24.0881 113.99 23.9749 113.604 23.7487C113.218 23.5141 112.916 23.1998 112.698 22.806V26.6397H111.013V17.376H112.485V18.5072C112.728 18.1218 113.042 17.8201 113.428 17.6023C113.814 17.376 114.258 17.2629 114.761 17.2629C115.206 17.2629 115.616 17.3551 115.994 17.5394C116.371 17.7154 116.694 17.9584 116.962 18.2684C117.239 18.5701 117.453 18.9304 117.604 19.3494C117.763 19.76 117.843 20.1957 117.843 20.6566C117.843 21.1343 117.771 21.5826 117.629 22.0015C117.486 22.4205 117.285 22.785 117.025 23.0951C116.774 23.4051 116.472 23.6481 116.12 23.8241C115.767 24.0001 115.382 24.0881 114.962 24.0881ZM114.396 22.6552C114.648 22.6552 114.879 22.6007 115.088 22.4918C115.306 22.3828 115.491 22.2362 115.642 22.0518C115.793 21.8675 115.91 21.6538 115.994 21.4108C116.078 21.1678 116.12 20.9164 116.12 20.6566C116.12 20.3801 116.073 20.1245 115.981 19.8899C115.889 19.6469 115.759 19.4374 115.591 19.2614C115.432 19.0854 115.239 18.9472 115.013 18.8466C114.795 18.7461 114.556 18.6958 114.296 18.6958C114.136 18.6958 113.973 18.7251 113.805 18.7838C113.638 18.8341 113.482 18.9095 113.34 19.01C113.197 19.1106 113.067 19.2279 112.95 19.362C112.841 19.496 112.757 19.6427 112.698 19.8019V21.3479C112.849 21.725 113.08 22.0393 113.39 22.2906C113.7 22.5337 114.036 22.6552 114.396 22.6552Z" fill="#202329"/>
<path d="M120.77 24.0881C120.452 24.0881 120.154 24.0378 119.877 23.9372C119.601 23.8283 119.362 23.6817 119.16 23.4973C118.959 23.3046 118.8 23.0825 118.682 22.8311C118.573 22.5797 118.519 22.3032 118.519 22.0015C118.519 21.6915 118.586 21.4066 118.72 21.1468C118.863 20.8787 119.056 20.6524 119.299 20.4681C119.55 20.2837 119.848 20.1413 120.192 20.0407C120.535 19.9318 120.913 19.8773 121.324 19.8773C121.617 19.8773 121.902 19.9025 122.179 19.9527C122.464 20.003 122.716 20.0742 122.934 20.1664V19.7893C122.934 19.3536 122.808 19.0184 122.556 18.7838C122.313 18.5491 121.948 18.4318 121.462 18.4318C121.11 18.4318 120.766 18.4947 120.431 18.6204C120.095 18.7461 119.751 18.9304 119.399 19.1734L118.884 18.105C119.73 17.5436 120.644 17.2629 121.625 17.2629C122.573 17.2629 123.307 17.4975 123.827 17.9668C124.355 18.4276 124.619 19.098 124.619 19.9779V22.0267C124.619 22.2027 124.648 22.3284 124.707 22.4038C124.774 22.4792 124.879 22.5211 125.021 22.5295V23.9624C124.736 24.021 124.489 24.0504 124.279 24.0504C123.961 24.0504 123.713 23.9791 123.537 23.8367C123.37 23.6942 123.265 23.5057 123.223 23.2711L123.185 22.9065C122.892 23.292 122.535 23.5853 122.116 23.7864C121.697 23.9875 121.248 24.0881 120.77 24.0881ZM121.248 22.8563C121.533 22.8563 121.802 22.806 122.053 22.7054C122.313 22.6049 122.514 22.4708 122.657 22.3032C122.841 22.1608 122.934 22.0015 122.934 21.8256V21.0714C122.732 20.996 122.514 20.9373 122.28 20.8954C122.045 20.8452 121.818 20.82 121.6 20.82C121.164 20.82 120.808 20.9206 120.531 21.1217C120.255 21.3144 120.116 21.5616 120.116 21.8633C120.116 22.1482 120.225 22.387 120.443 22.5797C120.661 22.7641 120.93 22.8563 121.248 22.8563Z" fill="#202329"/>
<path d="M129.275 24.0881C128.746 24.0881 128.269 24.0001 127.841 23.8241C127.413 23.6398 127.049 23.3926 126.747 23.0825C126.445 22.7725 126.21 22.4121 126.042 22.0015C125.883 21.5909 125.803 21.1594 125.803 20.7069C125.803 20.2376 125.883 19.7977 126.042 19.3871C126.202 18.9681 126.432 18.6036 126.734 18.2936C127.036 17.9751 127.401 17.7238 127.828 17.5394C128.264 17.3551 128.751 17.2629 129.287 17.2629C129.824 17.2629 130.302 17.3551 130.721 17.5394C131.149 17.7238 131.509 17.971 131.803 18.281C132.105 18.591 132.331 18.9514 132.482 19.362C132.641 19.7726 132.721 20.1999 132.721 20.644C132.721 20.753 132.717 20.8577 132.708 20.9583C132.708 21.0588 132.7 21.1426 132.683 21.2097H127.589C127.615 21.4694 127.677 21.6999 127.778 21.901C127.879 22.1021 128.009 22.2739 128.168 22.4163C128.327 22.5588 128.507 22.6677 128.709 22.7431C128.91 22.8186 129.12 22.8563 129.338 22.8563C129.673 22.8563 129.987 22.7767 130.281 22.6174C130.583 22.4499 130.788 22.232 130.897 21.9638L132.344 22.3661C132.1 22.8688 131.711 23.2836 131.174 23.6104C130.646 23.9289 130.013 24.0881 129.275 24.0881ZM130.985 20.1161C130.943 19.6217 130.759 19.2279 130.432 18.9346C130.113 18.6329 129.723 18.4821 129.262 18.4821C129.036 18.4821 128.822 18.524 128.621 18.6078C128.428 18.6832 128.256 18.7922 128.105 18.9346C127.954 19.0771 127.828 19.2488 127.728 19.45C127.635 19.6511 127.581 19.8731 127.564 20.1161H130.985Z" fill="#202329"/>
<path d="M137.458 20.8829L139.408 17.376H141.131V23.9624H139.521V20.003L137.848 22.9694H137.056L135.383 20.003V23.9624H133.773V17.376H135.509L137.458 20.8829Z" fill="#202329"/>
<path d="M145.044 22.5295C145.288 22.5127 145.485 22.4624 145.635 22.3786C145.795 22.2948 145.925 22.1398 146.025 21.9136C146.134 21.6873 146.222 21.3773 146.29 20.9834C146.365 20.5812 146.44 20.0575 146.516 19.4122L146.742 17.376H151.358V23.9624H149.685V18.7838H148.214L148.088 19.7768C147.987 20.6063 147.866 21.2935 147.723 21.8381C147.581 22.3744 147.396 22.8018 147.17 23.1202C146.952 23.4386 146.679 23.6649 146.352 23.799C146.025 23.9247 145.623 23.9959 145.145 24.0127L145.044 22.5295Z" fill="#202329"/>
<path d="M153.11 25.1439C153.252 25.2277 153.386 25.2864 153.512 25.3199C153.646 25.3534 153.772 25.3701 153.889 25.3701C154.099 25.3701 154.279 25.2654 154.43 25.0559C154.581 24.8548 154.715 24.4903 154.833 23.9624L152.229 17.376H153.965L155.751 22.5043L157.336 17.376H158.92L156.329 24.8171C156.078 25.5377 155.768 26.0531 155.399 26.3631C155.038 26.6732 154.594 26.8282 154.065 26.8282C153.873 26.8282 153.701 26.8114 153.55 26.7779C153.399 26.7444 153.252 26.6816 153.11 26.5894V25.1439Z" fill="#202329"/>
<path d="M164.729 23.9624H163.081V21.6119C162.888 21.6789 162.687 21.7292 162.477 21.7627C162.276 21.7962 162.02 21.813 161.71 21.813C161.333 21.813 161.006 21.7543 160.729 21.637C160.452 21.5113 160.222 21.3479 160.037 21.1468C159.853 20.9373 159.714 20.6943 159.622 20.4178C159.53 20.1413 159.484 19.8438 159.484 19.5254V17.376H161.106V19.274C161.106 19.7097 161.194 20.0198 161.37 20.2041C161.547 20.3885 161.794 20.4806 162.112 20.4806C162.347 20.4806 162.54 20.4597 162.691 20.4178C162.85 20.3675 162.98 20.3047 163.081 20.2293V17.376H164.729V23.9624Z" fill="#202329"/>
<path d="M166.31 23.9624V17.376H167.982V22.5043H169.819V17.376H171.491V22.5043H173.328V17.376H175.001V23.9624H166.31Z" fill="#202329"/>
<path d="M179.621 24.0881C179.093 24.0881 178.615 24.0001 178.187 23.8241C177.76 23.6398 177.395 23.3926 177.093 23.0825C176.791 22.7725 176.557 22.4121 176.389 22.0015C176.23 21.5909 176.15 21.1594 176.15 20.7069C176.15 20.2376 176.23 19.7977 176.389 19.3871C176.548 18.9681 176.779 18.6036 177.081 18.2936C177.382 17.9751 177.747 17.7238 178.175 17.5394C178.611 17.3551 179.097 17.2629 179.634 17.2629C180.17 17.2629 180.648 17.3551 181.068 17.5394C181.495 17.7238 181.856 17.971 182.149 18.281C182.451 18.591 182.678 18.9514 182.828 19.362C182.988 19.7726 183.067 20.1999 183.067 20.644C183.067 20.753 183.063 20.8577 183.055 20.9583C183.055 21.0588 183.046 21.1426 183.03 21.2097H177.936C177.961 21.4694 178.024 21.6999 178.125 21.901C178.225 22.1021 178.355 22.2739 178.514 22.4163C178.674 22.5588 178.854 22.6677 179.055 22.7431C179.257 22.8186 179.466 22.8563 179.684 22.8563C180.02 22.8563 180.334 22.7767 180.627 22.6174C180.929 22.4499 181.135 22.232 181.244 21.9638L182.69 22.3661C182.447 22.8688 182.057 23.2836 181.52 23.6104C180.992 23.9289 180.359 24.0881 179.621 24.0881ZM181.332 20.1161C181.29 19.6217 181.105 19.2279 180.778 18.9346C180.46 18.6329 180.07 18.4821 179.609 18.4821C179.382 18.4821 179.168 18.524 178.967 18.6078C178.774 18.6832 178.602 18.7922 178.452 18.9346C178.301 19.0771 178.175 19.2488 178.074 19.45C177.982 19.6511 177.927 19.8731 177.911 20.1161H181.332Z" fill="#202329"/>
<path d="M187.151 24.0881C186.622 24.0881 186.144 24.0001 185.717 23.8241C185.289 23.6398 184.924 23.3926 184.622 23.0825C184.321 22.7725 184.086 22.4121 183.918 22.0015C183.759 21.5909 183.679 21.1594 183.679 20.7069C183.679 20.2376 183.759 19.7977 183.918 19.3871C184.077 18.9681 184.308 18.6036 184.61 18.2936C184.912 17.9751 185.276 17.7238 185.704 17.5394C186.14 17.3551 186.626 17.2629 187.163 17.2629C187.7 17.2629 188.178 17.3551 188.597 17.5394C189.025 17.7238 189.385 17.971 189.679 18.281C189.98 18.591 190.207 18.9514 190.358 19.362C190.517 19.7726 190.597 20.1999 190.597 20.644C190.597 20.753 190.593 20.8577 190.584 20.9583C190.584 21.0588 190.576 21.1426 190.559 21.2097H185.465C185.49 21.4694 185.553 21.6999 185.654 21.901C185.754 22.1021 185.884 22.2739 186.044 22.4163C186.203 22.5588 186.383 22.6677 186.585 22.7431C186.786 22.8186 186.995 22.8563 187.213 22.8563C187.549 22.8563 187.863 22.7767 188.157 22.6174C188.459 22.4499 188.664 22.232 188.773 21.9638L190.219 22.3661C189.976 22.8688 189.586 23.2836 189.05 23.6104C188.521 23.9289 187.888 24.0881 187.151 24.0881ZM188.861 20.1161C188.819 19.6217 188.635 19.2279 188.308 18.9346C187.989 18.6329 187.599 18.4821 187.138 18.4821C186.912 18.4821 186.698 18.524 186.496 18.6078C186.304 18.6832 186.132 18.7922 185.981 18.9346C185.83 19.0771 185.704 19.2488 185.603 19.45C185.511 19.6511 185.457 19.8731 185.44 20.1161H188.861Z" fill="#202329"/>
<path d="M88.1287 35.1533H88.4808C88.6821 35.1282 88.8456 35.0654 88.9714 34.9648C89.1055 34.8559 89.2187 34.6883 89.311 34.462C89.4116 34.2274 89.4912 33.9174 89.5499 33.5319C89.617 33.1464 89.6841 32.6562 89.7512 32.0613L89.9776 30.025H94.5935V35.1533H95.4739V38.4968H93.9772V36.6114H89.5751V38.4968H88.1287V35.1533ZM92.9207 35.1533V31.4328H91.4491L91.3233 32.4258C91.2395 33.1045 91.1347 33.6576 91.0089 34.0849C90.8915 34.5123 90.7406 34.8684 90.5561 35.1533H92.9207Z" fill="#202329"/>
<path d="M95.9507 35.1785C96.1938 35.1617 96.3909 35.1114 96.5418 35.0277C96.7011 34.9439 96.8311 34.7888 96.9317 34.5626C97.0407 34.3363 97.1287 34.0263 97.1958 33.6324C97.2713 33.2302 97.3467 32.7065 97.4222 32.0613L97.6486 30.025H102.265V36.6114H100.592V31.4328H99.1202L98.9944 32.4258C98.8938 33.2554 98.7722 33.9425 98.6296 34.4872C98.4871 35.0235 98.3026 35.4508 98.0762 35.7692C97.8582 36.0877 97.5857 36.3139 97.2587 36.448C96.9317 36.5737 96.5292 36.6449 96.0513 36.6617L95.9507 35.1785Z" fill="#202329"/>
<path d="M104.972 34.1101C104.578 33.9676 104.267 33.7414 104.041 33.4313C103.815 33.1213 103.701 32.7149 103.701 32.2121C103.701 31.8769 103.76 31.5753 103.877 31.3071C103.995 31.0306 104.158 30.8001 104.368 30.6158C104.578 30.4231 104.825 30.2764 105.11 30.1759C105.404 30.0669 105.718 30.0125 106.053 30.0125H109.047V36.6114H107.387V34.3866H106.494L105.123 36.6114H103.311L104.972 34.1101ZM107.387 33.1045V31.3448H106.255C106.037 31.3448 105.84 31.4244 105.663 31.5836C105.487 31.7345 105.399 31.9523 105.399 32.2372C105.399 32.5054 105.479 32.7191 105.638 32.8783C105.806 33.0291 106.003 33.1045 106.229 33.1045H107.387Z" fill="#202329"/>
<path d="M117.565 30.025C117.809 30.025 118.031 30.0711 118.232 30.1633C118.433 30.2471 118.605 30.3644 118.748 30.5152C118.899 30.6661 119.012 30.842 119.087 31.0431C119.171 31.2443 119.213 31.4579 119.213 31.6842C119.213 31.9691 119.138 32.2582 118.987 32.5515C118.836 32.8364 118.588 33.0501 118.245 33.1925C118.63 33.3015 118.932 33.49 119.15 33.7581C119.377 34.0179 119.49 34.374 119.49 34.8265C119.49 35.4299 119.28 35.8782 118.861 36.1715C118.442 36.4648 117.863 36.6114 117.125 36.6114H113.666V30.025H117.565ZM116.773 32.7777C117.008 32.7777 117.197 32.7107 117.339 32.5766C117.482 32.4425 117.553 32.2498 117.553 31.9984C117.553 31.7889 117.49 31.613 117.364 31.4705C117.247 31.3197 117.067 31.2443 116.823 31.2443H115.339V32.7777H116.773ZM116.999 35.3922C117.243 35.3922 117.435 35.3126 117.578 35.1533C117.729 34.9941 117.804 34.8014 117.804 34.5752C117.804 34.3405 117.733 34.1478 117.591 33.997C117.448 33.8377 117.255 33.7581 117.012 33.7581H115.339V35.3922H116.999Z" fill="#202329"/>
<path d="M122.428 36.7371C122.11 36.7371 121.812 36.6868 121.535 36.5863C121.259 36.4773 121.02 36.3307 120.818 36.1463C120.617 35.9536 120.458 35.7315 120.341 35.4802C120.232 35.2288 120.177 34.9522 120.177 34.6506C120.177 34.3405 120.244 34.0556 120.378 33.7959C120.521 33.5277 120.714 33.3015 120.957 33.1171C121.208 32.9327 121.506 32.7903 121.85 32.6897C122.194 32.5808 122.571 32.5263 122.982 32.5263C123.275 32.5263 123.56 32.5515 123.837 32.6018C124.122 32.652 124.374 32.7233 124.592 32.8154V32.4384C124.592 32.0026 124.466 31.6674 124.214 31.4328C123.971 31.1982 123.606 31.0809 123.12 31.0809C122.768 31.0809 122.424 31.1437 122.089 31.2694C121.753 31.3951 121.41 31.5794 121.057 31.8225L120.542 30.7541C121.389 30.1926 122.303 29.9119 123.284 29.9119C124.231 29.9119 124.965 30.1465 125.485 30.6158C126.013 31.0767 126.277 31.747 126.277 32.6269V34.6757C126.277 34.8517 126.306 34.9774 126.365 35.0528C126.432 35.1282 126.537 35.1701 126.68 35.1785V36.6114C126.394 36.6701 126.147 36.6994 125.937 36.6994C125.619 36.6994 125.371 36.6282 125.195 36.4857C125.028 36.3433 124.923 36.1547 124.881 35.9201L124.843 35.5556C124.55 35.941 124.193 36.2343 123.774 36.4354C123.355 36.6365 122.906 36.7371 122.428 36.7371ZM122.906 35.5053C123.191 35.5053 123.46 35.455 123.711 35.3545C123.971 35.2539 124.172 35.1198 124.315 34.9522C124.499 34.8098 124.592 34.6506 124.592 34.4746V33.7204C124.39 33.645 124.172 33.5864 123.938 33.5445C123.703 33.4942 123.477 33.469 123.258 33.469C122.822 33.469 122.466 33.5696 122.189 33.7707C121.913 33.9634 121.774 34.2106 121.774 34.5123C121.774 34.7972 121.883 35.036 122.101 35.2288C122.319 35.4131 122.588 35.5053 122.906 35.5053Z" fill="#202329"/>
<path d="M127.902 36.6114V30.025H129.575V35.1533H131.411V30.025H133.084V35.1533H134.92V30.025H136.593V36.6114H127.902Z" fill="#202329"/>
<path d="M139.855 34.2106L142.974 30.025H144.219V36.6114H142.547V32.5389L139.465 36.6114H138.182V30.025H139.855V34.2106Z" fill="#202329"/>
<path d="M146.829 30.025L148.25 32.0864L148.35 32.3127L148.476 32.0864L149.885 30.025H151.621L149.269 33.3308L151.658 36.6114H149.923L148.464 34.5626L148.35 34.3489L148.25 34.5626L146.803 36.6114H145.068L147.445 33.3308L145.105 30.025H146.829Z" fill="#202329"/>
<path d="M154.909 35.1533H155.262C155.463 35.1282 155.626 35.0654 155.752 34.9648C155.886 34.8559 155.999 34.6883 156.092 34.462C156.192 34.2274 156.272 33.9174 156.331 33.5319C156.398 33.1464 156.465 32.6562 156.532 32.0613L156.758 30.025H161.374V35.1533H162.255V38.4968H160.758V36.6114H156.356V38.4968H154.909V35.1533ZM159.701 35.1533V31.4328H158.23L158.104 32.4258C158.02 33.1045 157.915 33.6576 157.79 34.0849C157.672 34.5123 157.521 34.8684 157.337 35.1533H159.701Z" fill="#202329"/>
<path d="M166.381 36.7371C165.852 36.7371 165.374 36.6491 164.947 36.4731C164.519 36.2888 164.154 36.0416 163.853 35.7315C163.551 35.4215 163.316 35.0612 163.148 34.6506C162.989 34.24 162.909 33.8084 162.909 33.3559C162.909 32.8867 162.989 32.4467 163.148 32.0361C163.307 31.6172 163.538 31.2526 163.84 30.9426C164.142 30.6242 164.507 30.3728 164.934 30.1884C165.37 30.0041 165.857 29.9119 166.393 29.9119C166.93 29.9119 167.408 30.0041 167.827 30.1884C168.255 30.3728 168.615 30.62 168.909 30.93C169.21 31.2401 169.437 31.6004 169.588 32.011C169.747 32.4216 169.827 32.849 169.827 33.2931C169.827 33.402 169.823 33.5068 169.814 33.6073C169.814 33.7079 169.806 33.7917 169.789 33.8587H164.695C164.72 34.1185 164.783 34.3489 164.884 34.55C164.984 34.7511 165.114 34.9229 165.274 35.0654C165.433 35.2078 165.613 35.3167 165.815 35.3922C166.016 35.4676 166.225 35.5053 166.443 35.5053C166.779 35.5053 167.093 35.4257 167.387 35.2665C167.689 35.0989 167.894 34.881 168.003 34.6129L169.449 35.0151C169.206 35.5179 168.816 35.9326 168.28 36.2595C167.752 36.5779 167.118 36.7371 166.381 36.7371ZM168.091 32.7652C168.049 32.2708 167.865 31.8769 167.538 31.5836C167.219 31.282 166.829 31.1311 166.368 31.1311C166.142 31.1311 165.928 31.173 165.727 31.2568C165.534 31.3322 165.362 31.4412 165.211 31.5836C165.06 31.7261 164.934 31.8979 164.834 32.099C164.741 32.3001 164.687 32.5221 164.67 32.7652H168.091Z" fill="#202329"/>
<path d="M173.753 36.6114H172.08V31.4831H170.018V30.025H175.803V31.4831H173.753V36.6114Z" fill="#202329"/>
<path d="M179.523 36.7371C178.995 36.7371 178.517 36.6491 178.089 36.4731C177.662 36.2888 177.297 36.0416 176.995 35.7315C176.693 35.4215 176.458 35.0612 176.291 34.6506C176.131 34.24 176.052 33.8084 176.052 33.3559C176.052 32.8867 176.131 32.4467 176.291 32.0361C176.45 31.6172 176.68 31.2526 176.982 30.9426C177.284 30.6242 177.649 30.3728 178.077 30.1884C178.513 30.0041 178.999 29.9119 179.536 29.9119C180.072 29.9119 180.55 30.0041 180.969 30.1884C181.397 30.3728 181.758 30.62 182.051 30.93C182.353 31.2401 182.579 31.6004 182.73 32.011C182.89 32.4216 182.969 32.849 182.969 33.2931C182.969 33.402 182.965 33.5068 182.957 33.6073C182.957 33.7079 182.948 33.7917 182.931 33.8587H177.838C177.863 34.1185 177.926 34.3489 178.026 34.55C178.127 34.7511 178.257 34.9229 178.416 35.0654C178.575 35.2078 178.756 35.3167 178.957 35.3922C179.158 35.4676 179.368 35.5053 179.586 35.5053C179.921 35.5053 180.236 35.4257 180.529 35.2665C180.831 35.0989 181.036 34.881 181.145 34.6129L182.592 35.0151C182.349 35.5179 181.959 35.9326 181.422 36.2595C180.894 36.5779 180.261 36.7371 179.523 36.7371ZM181.234 32.7652C181.192 32.2708 181.007 31.8769 180.68 31.5836C180.361 31.282 179.972 31.1311 179.51 31.1311C179.284 31.1311 179.07 31.173 178.869 31.2568C178.676 31.3322 178.504 31.4412 178.353 31.5836C178.202 31.7261 178.077 31.8979 177.976 32.099C177.884 32.3001 177.829 32.5221 177.812 32.7652H181.234Z" fill="#202329"/>
<path d="M189.241 27.4357C189.224 27.9636 189.027 28.3784 188.65 28.6801C188.272 28.9734 187.778 29.12 187.165 29.12C186.553 29.12 186.059 28.9734 185.681 28.6801C185.304 28.3784 185.107 27.9636 185.09 27.4357H186.021C186.029 27.7542 186.13 27.9888 186.323 28.1396C186.524 28.2904 186.805 28.3659 187.165 28.3659C187.887 28.3659 188.272 28.0558 188.323 27.4357H189.241ZM185.694 34.2106L188.813 30.025H190.058V36.6114H188.385V32.5389L185.304 36.6114H184.021V30.025H185.694V34.2106Z" fill="#202329"/>
</svg>
