<svg width="16" height="16" id="ic" viewBox="0 0 16 16" fill="none" xmlns="http://www.w3.org/2000/svg">
<path fill-rule="evenodd" clip-rule="evenodd" d="M8.50886 15.3062C13.448 12.3867 16 9.26754 16 5.88983C16 1.1033 10.7097 -0.473571 8 2.51622C5.29025 -0.473571 0 1.1033 0 5.88983C0 9.26754 2.55201 12.3867 7.49114 15.3062C7.80501 15.4918 8.19499 15.4918 8.50886 15.3062ZM8.91102 4.74663C10.1876 1.92631 14 2.66474 14 5.88983C14 8.30348 12.0487 10.7835 8 13.2775C3.95128 10.7835 2 8.30348 2 5.88983C2 2.66474 5.81241 1.92631 7.08898 4.74663C7.44363 5.53016 8.55637 5.53016 8.91102 4.74663Z" fill="#70798E"/>
</svg>
