<svg width="22" height="22" id="ic" viewBox="0 0 22 22" fill="none" xmlns="http://www.w3.org/2000/svg">
<path fill-rule="evenodd" clip-rule="evenodd" d="M11 20C13.4154 20 15.6085 19.0485 17.225 17.4999C15.6077 15.9504 13.4149 15 11 15C8.58508 15 6.39232 15.9504 4.77498 17.5C6.39152 19.0485 8.58465 20 11 20ZM18.4748 16.0144C18.4709 16.0203 18.4669 16.0261 18.4629 16.032C19.4334 14.5956 20 12.864 20 11C20 6.02944 15.9706 2 11 2C6.02944 2 2 6.02944 2 11C2 12.8339 2.5485 14.5397 3.49042 15.9623C4.62702 14.9 5.98967 14.0756 7.49848 13.5692C6.57369 12.6619 6 11.3979 6 10C6 7.23858 8.23858 5 11 5C13.7614 5 16 7.23858 16 10C16 11.3979 15.4263 12.6619 14.5015 13.5692C16.0103 14.0756 17.373 14.9 18.5096 15.9622C18.498 15.9797 18.4865 15.997 18.4748 16.0144ZM11 22C17.0751 22 22 17.0751 22 11C22 4.92487 17.0751 0 11 0C4.92487 0 0 4.92487 0 11C0 17.0751 4.92487 22 11 22ZM14 10C14 11.6569 12.6569 13 11 13C9.34315 13 8 11.6569 8 10C8 8.34315 9.34315 7 11 7C12.6569 7 14 8.34315 14 10Z" fill="#70798E"/>
</svg>
