<svg width="18" height="17" id="ic" viewBox="0 0 18 17" fill="none" xmlns="http://www.w3.org/2000/svg">
<path d="M15 10H5L3 1H1" stroke="#70798E" stroke-width="2" stroke-miterlimit="10" stroke-linecap="round" stroke-linejoin="round"/>
<path d="M15 10L16.33 4" stroke="#70798E" stroke-width="2" stroke-miterlimit="10" stroke-linecap="round" stroke-linejoin="round"/>
<path d="M13.5 16.5C14.6046 16.5 15.5 15.6046 15.5 14.5C15.5 13.3954 14.6046 12.5 13.5 12.5C12.3954 12.5 11.5 13.3954 11.5 14.5C11.5 15.6046 12.3954 16.5 13.5 16.5Z" fill="#70798E"/>
<path d="M6.5 16.5C7.60457 16.5 8.5 15.6046 8.5 14.5C8.5 13.3954 7.60457 12.5 6.5 12.5C5.39543 12.5 4.5 13.3954 4.5 14.5C4.5 15.6046 5.39543 16.5 6.5 16.5Z" fill="#70798E"/>
<path d="M3.66992 4H16.3299" stroke="#70798E" stroke-width="2" stroke-miterlimit="10" stroke-linecap="round" stroke-linejoin="round"/>
</svg>
