<svg height="122" viewBox="0 0 379 140" width="330" xmlns="http://www.w3.org/2000/svg" id="ic"><path d="m118.08 26.8c-.74-2.9-2.35-4.9-3.95-7.8-3.3-5.88-8.25-11.12-12.6-11.64-24.17-2.94-15.64 25.17-13.6 39.8 1.37 9.54 6.23 18.74 4.77 28.24-1.9 12.27-14.3 17.7-21.1 5.1-4.08-7.48-10.38-16.67-22.45-16.67-5.22 0-12.02 4.64-15.7 9 0 0-3.37 6.08-4.84 3.13-1.65-3.28 8.02-13.7 17.83-14.17 13.94-.67 25.76-2.75 18.03-14.96-2.13-3.36-7.35-8.95-10.2-8.08-3.06.93 7.48 8.16 5.1 12.25-2.38 3.74-12.24 2.38-15.98 2.04-10.2-.7-20.4 2.04-29.94 8.16-14.9 9.48-20 37.84 5.12 43.46 4.9 2.87 4.92 4.16 5.17 6.88-1.78 3.32-2.55 6.13-1.27 8.93 1.27 2.8 7.4 4.85 13.77 3.83 4.8-.77 7.13-5.37 7.15-5.34.6.95 1.28 1.98 3.75 2.93 1.7.65 4.52.73 8.2-.27 0 0 2.8 3.36 5.25 3.67 7.83 1 9.97.36 12.65-.67 2.2-.85 2.8-2.28 2.8-2.28 4.68 1.87 11.2 1.72 12.6-3.4.9-3.27-3.07-4.42-4.75-4.9 1.05-1.55-.72-5.74-2.4-6.65 23.98 2.04 24.74-17.05 23.8-28.92-1.1-14.2-14.96-37.75-12.92-42.18 3.83 2.8 5.55 1.95 4.55-.67-.85-2.2-1.4-4.14-.47-6.13-.33 2.1 3.88 6.94 8.74 9.05 3.57 1.55 7.74 2.92 11.24.06 2.75-2.25 3.08-6.2 1.67-11.8z" fill="#0aa245"/><path d="m119.04 26.55c-3.22-9.83-10.67-20.3-21.82-19.86-5.9.22-10.5 3.45-12.38 9.03-2.4 7.12-.6 15.68.63 22.84l2.1 12.22c1.56 7.78 4.72 15 4.35 23.08-.3 6.74-5.52 15.7-13.4 12.55-5.14-2.04-7.33-9.06-10.45-13.27-5.03-6.77-14.54-12.17-23.1-8.98-4.3 1.6-8.43 4.22-11.52 7.66-.95 1.06-1.63 2.24-2.5 3.36-1.8 2.33-1.34-1.4-1.23-1.73.56-1.73 2.15-3.37 3.37-4.63 5.32-5.5 11.8-6.28 19-6.92 4.15-.36 8.36-1.07 12.08-3 7.72-4 1.37-12.98-2.68-17.17-1.8-1.85-4.55-4.17-7.35-3.42-1.86.5-1.4 1.82-.58 3.1 2.24 3.43 9.87 10 .83 11.47-5.66.92-11.7-.67-17.43-.3-10.06.64-21.4 4.9-28.64 12.08-10.77 10.7-11.8 30.04 2.5 37.98 4.22 2.35 11.06 2.53 11.85 8.32.18 1.27-1.35 4.03-1.7 5.4-.26 1.03-.08 1.96.04 3 .24 2.13 2.05 3.33 3.76 4.25 6.07 3.25 15.15 1.3 19.44-4.13l-1.8.36c1.75 2.66 4.65 3 7.68 3.1 1.48.05 3.9-.53 5 .3 1.44 1.07 2.83 2.12 4.87 2.6 4.36 1.04 14.3 1.48 16.96-3.45l-1.67.45c4.7 1.67 10.9 2.02 13.84-2.75 1.5-2.43.1-4.34-1.98-5.56-1.6-.93-2-.6-2-2.55-.01-1.85-1.36-3.82-2.74-4.93l-1.28.9c6.73.46 14.5-.28 19.44-5.48 4.72-4.97 5.85-11.76 5.95-18.4.13-8.8-2.5-16.9-5.65-25.03l-5.56-13.9c-.75-1.95-2.14-4.83-2.18-7.27 0-.12.04-.1.1-.08 1.57.5 2.63 1.2 3.86.5.2-.1.1-.88.5-1.43.32-.43.5-.77.4-1.13-.07-.24-.2-.78-.27-1 0 .04.08.04.08.04 3.5 3.75 10.18 5.98 14.12 6.04 8.07.13 8.48-8.47 7.17-14.2-.14-.63-2.08-.14-1.93.5.54 2.38.9 4.57.73 7.02-.42 5.87-7.75 5.72-11.9 4-3.1-1.28-8.48-4.58-8.65-8.83-.02-.63-1.38-.44-1.62 0-.4.74-.34 1.6-.1 3.33.25 1.84 2.86 6.75-2.3 3.34-.5-.32-1.66-.12-1.87.5-1.52 4.47 2.95 11.82 4.56 15.77 3.22 7.9 6.7 15.92 8.12 24.4 1 5.98.75 12.6-.98 18.4-2.9 9.72-11.9 12.5-21.23 11.86-.23-.01-1.82.46-1.28.9 1.8 1.45 3.15 4.1 2.33 6.42-.05.14.06.28.2.32 2.3.7 4.9 1.48 4.55 4.6-.54 5.08-7.66 3.96-10.85 2.82-.45-.16-1.4-.03-1.66.45-3.02 5.58-15.1 2.76-18.7.1-.42-.3-.7-1.38-1.24-1.26-4 .94-8.44 1.2-10.92-2.58-.33-.5-1.54.04-1.8.36-4.16 5.27-17 7.34-19.53-.15-1.1-3.28 1.94-5.44 1.67-8.38-.2-1.98-1.08-3.15-2.56-4.42-3.74-3.22-9.1-3.44-13.14-6.55-3.56-2.74-5.66-6.82-6.58-11.14-1.83-8.6 2.13-18.05 8.2-24.07 5.08-5.05 12.64-7.94 19.42-9.65 6.85-1.72 13.45-.7 20.33-.52 5.6.14 13.12-1.7 8.87-8.5-.96-1.53-2.22-2.9-3.34-4.3-2.78-3.53 2.7.1 3.88 1.2 3.5 3.28 9.06 10.55 4.55 15.03-4 4-12.54 3.32-17.66 3.8-4.5.42-8.42 2.2-12.1 4.77-2.87 2-5.8 4.94-6.9 8.33-.63 1.95.88 3.2 2.68 2.72 1.53-.4 2.6-2.02 3.45-3.23 3.27-4.72 9.2-9.15 15.08-9.53 10.34-.67 17.42 8.38 21.87 16.4 2.53 4.58 7.37 8.86 13 7.1 6.45-2.02 9.46-7.84 10.2-14.26 1.1-9.42-3.78-19.1-5.2-28.3-.98-6.4-2.35-12.7-2.8-19.17-.4-5.9-.01-13.43 5.5-16.97 11.73-7.5 22.7 8.6 25.74 17.9.2.64 2.13.1 1.93-.5z"/><path d="m103.25 20.56c-2.54 0-4.6-2.93-4.6-6.57 0-3.63 2.06-6.56 4.6-6.56s4.6 2.93 4.6 6.56c0 3.64-2.05 6.57-4.6 6.57z" fill="#fff"/><path d="m107.37 13.9c-.1 2.32-.77 4.6-2.8 5.92-3.58 2.35-5.33-3.4-5.43-5.75-.1-2.25.9-4.67 2.8-5.92 3.6-2.35 5.34 3.4 5.44 5.75.02.4.97.62.95.17-.12-2.7-1.4-6.64-4.64-6.93-3.78-.34-5.36 3.57-5.5 6.76-.12 2.68 1.54 6.65 4.64 6.93 3.78.34 5.36-3.57 5.5-6.76.01-.4-.93-.63-.95-.17z"/><path d="m102.36 12.57c.14.33.23.74.23 1.2 0 1-.4 1.82-.9 1.82s-.9-.8-.9-1.82c0-.48.1-.92.25-1.24-1.15.35-2 1.63-2 3.18 0 1.8 1.18 3.28 2.63 3.28s2.62-1.47 2.62-3.28c0-1.5-.8-2.76-1.9-3.15z"/><path d="m112.6 20.45c-2.54 0-4.6-2.93-4.6-6.56s2.05-6.57 4.6-6.57 4.6 2.94 4.6 6.57-2.05 6.56-4.6 6.56z" fill="#fff"/><path d="m116.72 13.77c-.08 2.03-.56 3.8-1.94 5.34-3.64 4.1-6.18-2.54-6.3-5.1-.1-1.95.66-3.9 1.94-5.34 3.64-4.1 6.18 2.54 6.3 5.1.02.35.97.5.96.23-.12-2.66-1.34-6.58-4.58-6.87-3.78-.34-5.43 3.36-5.57 6.64-.12 2.65 1.5 6.6 4.58 6.87 3.78.34 5.43-3.36 5.57-6.64.02-.34-.94-.5-.96-.23z"/><path d="m111.72 12.46a3.09 3.09 0 0 1 .23 1.2c0 1-.4 1.82-.9 1.82s-.9-.8-.9-1.82c0-.48.1-.92.25-1.24-1.15.34-2 1.63-2 3.18 0 1.8 1.17 3.28 2.62 3.28s2.63-1.47 2.63-3.28c0-1.5-.8-2.75-1.9-3.15zm-5.75-7.2c-3.63-2.87-8.1.2-9.72 3.8-.3.7 1.37.03 1.6-.48 1.26-2.83 4.13-4.23 6.74-2.17.45.36 1.94-.72 1.38-1.16zm3.8-3.06c3.24-3.15 7.24.23 8.67 4.18.28.77-1.22.04-1.42-.53-1.13-3.1-3.7-4.63-6.02-2.37-.4.4-1.73-.8-1.23-1.28zm-41.97 104.03c3.1 2.4 3.56 6.17 2.34 9.72-.05.16.07.26.2.32 2.2 1.2 6.45 3.82 4.33 6.86-.48.7 1.45.5 1.8 0 2.15-3.06-1.07-5.6-3.52-7.2-.97-.62-.2-4.6-.4-5.87-.3-1.9-1.48-3.44-2.94-4.58-.52-.4-2.3.36-1.8.74zm-30.84-1.47c3.77 2.52 3.32 4.88 1.52 8.1-.07.1-.14.26-.01.37 2.1 1.74 5.57 3.44 3.53 7.17-.3.55 1.76.34 1.98-.28.5-1.36.22-2.36-.32-3.7-.48-1.22-3.32-3.37-2.82-4.52 1.46-3.3.24-5.38-2.6-7.88-.48-.42-1.3.74-1.3.74zm19.2 17.7c-.97-1.5-.55-3.18 0-4.8.56-1.67-2.7-2.44-2.26-3.68.9-2.6-1.96-5.96-4.18-6.9-.42-.18-1.62.48-1.5.53 2.6 1.1 4.9 4.43 3.9 7.3-.02.05-.02.1.03.12 1.83 1.08 2.58 2.24 2.03 4.32-.33 1.24-.3 2.46.4 3.55.23.37 1.7-.27 1.6-.43z"/><path d="m94.17 30.62c-.06-.58.02-1.2.2-1.73.75-2.12 3.27-.85 4.58-.23.3.13 1.1-.3 1.04-.34-1.82-.85-4.3-1.72-6.04-.23-.72.6-.98 1.8-.87 2.8.03.22 1.12.02 1.1-.26z" stroke="#000" stroke-width=".467"/><g fill-rule="evenodd"><path d="m156.46 124.6c-.37 1-.8.44-1.2.73l-1.42.32c-.2.33-.26.4-.01 0l-1 .23c-.34-.04-.56-.04-.7-.1l-.5.1c-.37.12-.82.25-1 .4-.02-.03-.27-.1-.42-.08l-.4.08c-.27.15-.37.44-.87.43.16-.1.23-.2.23-.28l-.36.08c-.46.25-1.05.37-1.56.56.1-.08.24-.14.2-.25-.65.46-1.3.23-1.9.57l.13-.17-.54.13c-.04.13-.01.3-.5.32.18-.1.12-.16.12-.24l-.06.02c-.74.5-2.03.7-2.8 1l.02-.1c-.87.24-1.82.34-2.75.72-.25-.01-.17-.23-.36-.3l-.57.13c-.07.34-1.5.47-.88.78-.8.1-2.1.25-2.6.5.27-.2-.24-.34-.05-.5l-2.22.5c-.36.3-.76.6-1.38.76.32-.2-.05-.3-.12-.42l-.08.02-1.08.96c-.33.1-.15-.3-.6-.1.05.1-.15.22-.27.33-.14-.01-1.36.4-1.6.06-.18-.12.52-.2.12-.26-.6.14-.6.28-1.22.42l-.02-.05c-.42.04-1.15.44-.66.56.28-.05-.16-.2.28-.2-.24.3-.93.5-1.54.65.2-.1.14-.2.2-.33-.54.08-1.54-.24-2.4.08.07-.1.17-.26.26-.3-1.18.04-2.24.85-3.26.76.06.06.05.22.04.2-.58.1-.6-.17-.96.01-.07-.15-.45.16-.82.3-.13.12-.13.03.01-.05-.7.3-2.5.9-3.64.93.05.1-.67.55-.95.6l.06-.27c-.1-.02-.23-.01-.36.02-.05.02-.1.04-.12.02a1.69 1.69 0 0 1 -.41.06l.4-.13c.01-.01 0-.01 0-.02-.14.04-.28.1-.42.15-.05-.01-.1-.02-.13-.06-.12.1-.06.1.08.08-.38.16-.75.33-1.17.26.17 0 .4-.44-.07-.32-.8.22-.2.17-.83.4l-.4.2c.03.23-.65.14-.4.3-.24-.07-1.1.38-1.1 0l.04-.34c-.34.1-.5.46-.74.66-.04-.02-.14-.05-.15-.1.03.47-.84.14-1.17.6l-.62.07-.32.05-.16.03-.08.02h-.05l-1.5-.95v-.01-.02c-.07-.4-.12-.8-.01-1-.27-.53-.56-1-.6-1.66.08.1.13.28.24.3.05-.44-.1-.5-.26-.86.1.07.1-.86.16-1.35-.27-.52-.48-.27-.65-.3.36-.62-.66-1.5-.37-2.24.1.18.4.76.42.27.36-.6-.58-.95-.54-1.82l-.34.3c.16-.42-.5-1.15-.08-1.16-.2-.24-.1-1-.45-.82.01-1.42-.94-3.23-.45-4.22-.1-.18-.15-.67-.32-.53-.14.37.25.42.13.57-.05-.17-.16-.2-.22-.2 0-.44-.05-.78.35-.45.03-1-.86-.82-.98-2.04.17.02.2-.08.1-.42l-.4-.6c-.12-.78.25-.52.52-.6-.14-.4-.24-.9-.48-1.04l.2-.57c-.15.4-.23-.3-.34-.48l.1.17c.1-.1-.08-.56-.17-.8-.15.1-.1.6-.1.87-.16-.18-.2-.52-.4-.76.28.03.04-.7-.01-1.05-.03-.38-.33-.36-.35-.47.14-.05-.1-.62.14-.37.08.12-.06.32.1.5.04-.27.28-.3-.01-.76-.2-.36-.5.2-.5-.55.1.17.22.18.35.3l-.02-.72-.25.03c.04-.1.08-.05.1-.1-.3-.14-.3-1.02-.63-1.12-.1-.33 0-.76-.05-1.1l.04.06c.05-.43-.17-.95-.4-1.25l.05.01c-.03-.23-.18-.74-.4-.98.06-.6.86-.4.42-.94-.13-.56-.63-.78-.74-.52-.06-1.05-.7-2.12-.56-3.14-.13-.12-.17-.02-.3-.3-.24-1.5-1-3.07-.8-4.36.2.4.25-.03.38-.07-.3-.3.13-.47-.27-.52-.2.08-.32.07-.3.5-.3-.86-.62-2.2-.53-2.75-.05.27-.16.1-.26-.1.35-.01.26-.67.02-1.14l-.22-.02.14-.38c-.1-.17-.48-.1-.4-.64.07-.05.15-.1.2-.2-.3-.47-.75-1.13-.7-1.73l.2-.52c-.1-.23-.36-.6-.36-.15-.03-1-.14-1.6.05-1.97-.5-.74-.9-1.7-1.2-2.72l-.42-1.55-.18-.76-.08-.37-.03-.14v-.01h.01l.12-.2h-.01.01v-.01l1.24-1.97h.1.07l.1-.03.1-.1c.03-.1.04-.17.23-.16-.13.2.46.24.1.5.77 0 .9-.48 1.34-.66.03-.22-.35.22-.32-.06.07-.1 1.05-.07 1.1-.4.22.1.12.35.05.5l.42-.25c.62.24-1.1.93-.43 1.25l.4-.14c.47.23-1 .6.06.5.4-.26.7-.8.26-.84.9-.3.27-.84 1.27-1.04.32.12-.8.22-.54.44.53.14.92-.36 1.36-.37-.5-.01-.17-.4.12-.54.54.04-.27.37.46.24.08-.2.72-.5.1-.48.17-.47.78-.06 1.1-.47.3.24-.6.83.23.8-.2-.25.9-.6.38-.9.33.01.42.2.23.43.48.08.96-.74 1.23-.23l.1-.3c.16.06.37.08.64.18.4-.08 1.17-.67 1.23-.23.12-.08 1.02-.26.6-.47-.6-.06-.6.35-1 .03.46.23.8-.23 1.08-.4l.1.16c.16-.1.5-.16.66-.3-.03.08.06.14.2.15l.14-.3c.75-.3.28.4 1.02.15l-.53.33c.12-.07.43.1.77-.06.1-.26.3-.6.38-.8.36-.17.27.14.52-.03l-.4.32c-.06.1.46.3 1.03.16.34-.17.83-.62.23-.62.3-.07.72-.02.53.2.63-.23-.14-.23.38-.5.27.1 1.03.16 1.5.28l-.5.52.4-.08c-.43.4.3.17.1.56.27-.01.57-.2.8-.34-.9-.34.7-.9.37-1.32 1.03-.37.92 1 1.86.01-.16-.07.07-.37-.14-.36.32-.17.22-.48.9-.47-.53.33.73.34-.04.8.02-.17-.5-.01-.6.06.3.12.05.5.72.33.4-.14.97-.27.83-.5-.08-.27-.62.17-.42-.16.8-.28 1.03.1 1.26-.46-.5.16-.7-.1-.73-.28l.57-.25-.07.2c1-.1.2-.4 1.16-.56l.52.26c-.16.36-1.4.17-1.12.63.62-.12.76-.4 1.37-.42l-.4.2c.22-.03.6.58 1.37-.01.4-.25.08-.2.05-.4.96-.28 1.2-.53 1.83-.7-.04.4 1.12-.22.5.3-.36-.14-1.77.2-2.04.62.45.36-.78.12-.9.6.78-.17.84.27 1.03.52.22-.03.4-.2.52-.27.04-.28-.25-.2-.32-.48.9-.13 1.7-.47 2.12-.83.32.07.3.35-.05.45 1.02-.3 2.14-.53 3.15-.68-.63-.24.6-.32.65-.5.1.12.22.25.18.4.64-.34.02.25.7.1.64-.34 1.45-.67 2.2-.92 1.03.1 2.42-.54 3.27-.75.48.07.27.52.76.47.57-.13-.5-.3.37-.32l-.06.1c.22-.14 1.43-.1 1.7-.6l-.13.37c.16 0 .3-.13.4-.2.03.13.24.2.01.36a.91.91 0 0 0 .23.03l.6-.14c.26-.1.53-.26.8-.33l-.42-.16c.92-.4 1.62-.3 2.54-.6l.02.25.53-.27c-.07.2.3.27.55.14l-.15.1 4.66-1.06 2.8 12.3.3.8c.04.1-.01.15-.08.18l.43 1.9c.46 1.34.8 2.9 1.03 4.52l3.1 13.7 1.48 5.44c-.07-.05-.18-.08-.27-.06l.06.23c.23.24.43.8.6 1.33-.24.37.54 1.08.55 1.9l-.08-.05c.45.5 0 .9.5 1.27l-.16.43c.5.15-.04.88.3 1.3l.1-.04c.2.43.04.7.2 1.1l-.04.05c.33.96.22 1.58.55 1.48-.2.4-.33-.82-.6-.33l.1.44c.48 1.44.9 3.9 1.26 5.4l.28 1.22zm-22.02-53.11-.03.1zm-27.07 4.67c-.03.03-.07.06-.1.08zm-2.53.56c-.01.03-.03.05-.05.08 0-.03.02-.05.05-.08zm-12.96 3.5c.03-.04.03-.04 0 0zm7.3 35.2-.01.01zm9.94 20.46c-.01-.01-.03-.02-.04-.03.02.01.03.01.04.03zm9.96-2.7c.03.01.06.01.1.01-.02-.02-.05-.02-.1-.01zm31.55-6.86c0-.01.01-.01.02-.02 0 .01-.01.02-.02.02zm-37.43-51.16c.13-.06.2-.08.26-.1-.06.04-.15.07-.26.1zm11.2-2.56c.33-.05.03.18.2.24.24-.22.5-.04.73-.04.06-.06.16-.12.34-.2-.1.15-.23.2-.34.2-.1.1-.1.17-.06.25-.01 0-.02-.01-.04-.02-.55.02-1.07-.18-.82-.43zm-2.34 60.2a.3.3 0 0 0 .1-.04c-.05.07-.1.1-.1.04zm15.22-61.16.32-.07.25-.16c.02.04.03.07.03.1l.65-.15a.17.17 0 0 0 -.06-.06c-.26-.16-1.07.1-1.2.34zm-3.92.9c-.07.01-.14.01-.25.01l-.03.06zm-42.73 9.7-.12.2zm21.37 52.76c-.02.01-.04.02-.06.02.02-.01.04-.01.06-.02z" fill="#ed1c24"/><path d="m143.2 120.82c-2.72.68-5.46-.8-6.66-3.42l-2.3.48c-1.6.35-12.18 2.9-13.16 3.3-.35 2.46-.01 4.85-3.25 6.2-5.05 2.13-7.23-1.27-8.42-4.56-.83-2.28-.65-4.4-.03-5.75.68-1.5 2.25-2.08 2.3-2.3 0 0 4.26-19.5 14.67-32.22.42-.5.78-.76 1.36-.8.43-.03 1 .28 1.3.48a201.43 201.43 0 0 1 8.52 6.33c.53.42.93.5.93 1.44 0 .74-.78 1-.78 1l3.28 13.2s2.3-.76 3.77.4c2.4 1.9 2.5 6.27 2.82 8.57.5 3.47-1.18 6.82-4.34 7.6zm-12-11.53-3.2-11.17c-3.95 5.14-6.08 9.86-6.37 14.15l9.55-2.98z"/><path d="m140.8 120.7c-2.72.68-5.46-.83-6.66-3.47l-2.3.5c-1.6.35-12.18 2.94-13.15 3.34-.35 2.5-.02 4.9-3.25 6.28-5.06 2.15-7.23-1.3-8.43-4.6-.83-2.3-.64-4.45-.03-5.8.68-1.53 2.25-2.1 2.3-2.33 0 0 4.25-19.7 14.66-32.55.42-.5.78-.8 1.36-.8.48-.01 1 .28 1.3.48 2.05 1.42 6.5 4.78 8.52 6.4.53.43.94.5.94 1.45 0 .76-.8 1.02-.8 1.02l3.28 13.36s2.3-.78 3.78.4c2.4 1.93 2.5 6.33 2.82 8.66.5 3.5-1.17 6.9-4.34 7.7zm-12-11.67-3.22-12.32c-3.94 5.2-6.04 11-6.33 15.33l9.55-3z" fill="#fff" stroke="#000" stroke-linejoin="round" stroke-width=".513"/></g><path d="m101.34 87.1c-1.34 0-2.4-1.08-2.4-2.42 0-1.33 1.07-2.4 2.4-2.4a2.4 2.4 0 0 1 2.4 2.4c0 1.34-1.07 2.42-2.4 2.42zm36.03-6.94c-1.33 0-2.4-1.08-2.4-2.42s1.08-2.42 2.4-2.42 2.4 1.08 2.4 2.42-1.08 2.42-2.4 2.42z" fill="#fff" stroke="#000" stroke-width=".391"/><path d="m138.8 78.23c-8.02-11.32-14.9-22.33-25.1-33-.9-.93-2.4-2.8-4.23-4.7-.43-.08-.87-.17-1.3-.28a1.17 1.17 0 0 1 -.2-.05c-.9-.22-1.82-.5-2.75-.85-.06-.02-.12-.04-.2-.07-.94-.35-1.87-.77-2.77-1.24-.05-.03-.1-.05-.14-.07-.9-.5-1.77-1.03-2.56-1.63-.04-.02-.07-.05-.1-.08-.4-.3-.77-.62-1.13-.95-.14.1-.27.2-.4.33.12.43.3 1.1.17 1.46-.2.65-.66.95-1.08 1.15-.13.06-.26.1-.38.14-1.26 5.52.65 15.9.75 18.36.35 9.1 2.3 18.73 2.9 27.82.04.6.4 1.34 1 1.38 1.36.08 1.23-1.4 1.23-1.4-.3-3.48-1.83-14.13-2.38-20.73-.6-7.15-3.8-21.86-1.3-25.33 2.6-3.6 11.46 6.22 14.62 9.67 8.6 9.36 15.3 19.88 22.6 30.17.13.2 1.37.73 1.8.7.68-.05 1.17-.43.9-.8z" fill="#fff"/><path d="m139.1 77.8c-8.02-11.3-14.78-22.2-25-32.92-.82-.83-2.2-2.53-3.85-4.3-.55-.07-1.14-.2-1.72-.34 2.05 2.04 3.86 4.27 4.84 5.33 10.02 10.5 16.83 21.33 24.73 32.5.07.1.3.46 0 .67-.42.3-.95.07-1.6-.76-7.27-10.26-14-20.8-22.6-30.18-1.34-1.47-3.72-4.1-6.23-6.36-.9-.8-1.8-1.62-2.7-2.27-1.4-.54-2.72-1.16-4-1.96-.15-.02-.36-.02-.5-.03-.76-.01-1.5.32-1.97 1-.8 1.15-1.03 3-1.04 5.3.01 6.05 1.8 15.23 2.24 20.38.55 6.6 2.08 17.25 2.38 20.7s.14.82-.62.87c-.6.03-.6-.7-.62-.9-.6-9.14-2.56-18.75-2.9-27.8-.08-1.94-1.18-8.26-1.18-13.6-.02-1.92.16-3.78.52-5.1-.07.03-.14.1-.2.14-.32.15-.62.23-.92.25-.28 1.37-.38 3.07-.4 4.73.01 5.43 1.12 11.86 1.2 13.63.36 9.17 2.3 18.8 2.9 27.83.07.73.44 1.7 1.48 1.85 1.02-.01 1.3-.35 1.57-.7.22-.3.2-.9.2-1.1 0-.95-1.84-14.3-2.4-20.87-.45-5.23-2.24-14.4-2.24-20.3-.01-2.2.3-3.96.85-4.7.3-.42.64-.56 1.16-.57 1.47-.05 4.1 1.76 6.53 4 2.46 2.23 4.82 4.83 6.16 6.3 8.55 9.32 15.26 19.82 22.56 30.12.3.33.98 1.15 2 1.1.6-.03 1.55-.5 1.6-1.17 0-.18-.1-.62-.18-.75z"/><path d="m95.96 39.26c.47-2.87 2-3.94 3.46-3.9 1.65.02 3.04 1.1 3.08 1.12l-.6.8s-.3-.23-.78-.46c-.48-.24-1.1-.46-1.7-.46-.98.04-1.96.45-2.47 3.08l-1-.18zm79.18 77.04a8.26 8.26 0 0 1 -.32-1.51l-.28-3.27c-.22-1.64-.6-2.5-1.13-2.57-.55-.1-1.54.64-2.98 2.2l-4.04 4.35c-1.5 1.6-2.7 2.38-3.56 2.38-1.2 0-2.25-2.6-3.08-7.77-.75-4.6-1-8.43-.7-11.47.2-1.97.6-3 1.25-3.04.93-.1 1.62.66 2.08 2.26l1.1 4.47c.4 1.63.9 2.44 1.5 2.44s1.8-.8 3.56-2.37l4.88-4.48c1.82-1.6 3.2-2.4 4.1-2.4a1.06 1.06 0 0 1 .42.09c.72.3 1.1 1.94 1.12 4.9.03 1.66-.06 3.52-.25 5.6a74.03 74.03 0 0 1 -.88 6.21c-.65 3.4-1.27 5.08-1.88 5.08-.36 0-.67-.36-.92-1.1zm7.56 1.33c-.82-.16-1.2-1.68-1.16-4.54.01-1.6.15-3.38.4-5.34a62.59 62.59 0 0 1 1.26-6.5c.83-3.55 1.65-5.43 2.44-5.65.08-.02.17-.03.28-.03.6 0 1.1.63 1.46 1.88l1 3.5c.4 1.27 1.03 1.92 1.88 1.94 1.28.03 2.22.01 2.82-.08.44-.08.97-.26 1.6-.53.56-.26.96-.97 1.2-2.14l.53-3.02c.32-1.02.85-1.54 1.57-1.56.82-.04 1.7 1.8 2.6 5.48a56.64 56.64 0 0 1 1.63 10.38c.1 1.72.07 3.1-.07 4.13-.16 1.2-.47 1.88-.95 2.05-.17.05-.32.08-.47.08-.75 0-1.4-.62-1.93-1.85l-1.55-3.87c-.65-1.6-1.34-2.7-2.06-3.27-1.16-.94-2.18-1.4-3.05-1.4-.9 0-1.94.62-3.16 1.86-.46.46-1.07 1.55-1.82 3.24-.83 1.87-1.47 3.14-1.92 3.8-.68 1-1.4 1.5-2.16 1.5a1.15 1.15 0 0 1 -.37-.06z"/><path d="m225.85 100.58c-.55 4.1-1.6 7.74-3.13 10.94-1.9 3.97-4.06 6.02-6.5 6.17-1.54.1-3.3-1.16-5.24-3.76-1.48-1.94-2.63-3.9-3.45-5.92-1.17-2.85-1.62-5.33-1.34-7.43.25-1.83 1.7-3.2 4.38-4.07 1.88-.63 3.93-.94 6.14-.94s4.17.3 5.88.94c2.42.9 3.5 2.26 3.27 4.07zm-7.93 3.53c.1-.75-.03-1.38-.4-1.88-.36-.5-.9-.74-1.63-.74s-1.34.25-1.87.76a3.06 3.06 0 0 0 -.94 1.86c-.2 1.52.06 2.78.8 3.8.58.8 1.2 1.2 1.87 1.2.1 0 .18-.01.22-.03.66-.22 1.17-.96 1.5-2.2.12-.46.27-1.37.45-2.74z" fill-rule="evenodd"/><path d="m228.52 117.7c-.96.18-1.46-1.47-1.48-4.96 0-2.26.12-4.37.4-6.35.28-2.1.67-3.95 1.16-5.6.78-2.6 1.74-4.22 2.85-4.85.44-.24.85-.36 1.25-.36 1.12 0 2.16.85 3.1 2.55l2.42 4.66c.9 1.66 1.7 2.46 2.37 2.38.76-.1 1.72-.95 2.88-2.6l3.17-4.56c1.18-1.62 2.13-2.43 2.86-2.43.28 0 .55.13.8.38 1.12 1.24 2.07 4.34 2.86 9.3.75 4.62.98 8.05.68 10.28-.2 1.44-.65 2.16-1.37 2.16-.82 0-1.7-.67-2.65-2l-2.52-3.73c-.92-1.35-1.67-2.02-2.25-2.02-.62 0-1.28.6-2 1.83-.47.83-1.2 2.05-2.15 3.66-.83 1.35-1.72 2.1-2.67 2.25-.92.14-1.57-.47-1.95-1.83l-.9-4.16c-.4-1.6-.96-2.55-1.72-2.8-.18-.04-.3-.06-.35-.06-.67 0-1.23.73-1.68 2.2l-1.18 4.13c-.48 1.54-1.12 2.38-1.92 2.53z"/><path d="m256.48 117.3c-.26-.1-.3-.7-.17-1.74.25-1.92.93-4.38 2-7.38 1.2-3.26 2.5-6.06 3.9-8.38 1.62-2.7 3.1-4.1 4.4-4.23 1.45-.15 3.16 1.32 5.13 4.4 1.68 2.6 3.17 5.75 4.47 9.4 1.27 3.52 1.8 5.95 1.64 7.3-.1.68-.47 1.02-1.12 1.02-.67 0-1.7-.7-3.12-2.05-1.5-1.46-2.52-2.28-3.07-2.5-.36-.14-.9-.37-1.57-.7-.55-.24-1.1-.36-1.66-.36-.96 0-2.3.36-4.06 1.05a13.2 13.2 0 0 0 -3.27 1.88c-.28.23-.88.78-1.8 1.66-.5.48-.9.72-1.24.72a1.1 1.1 0 0 1 -.47-.11zm8.44-14.32c-.2 1.42-.15 2.63.12 3.62.13.48.4.72.77.72s.88-.23 1.5-.7c.54-.37.98-.75 1.32-1.16.07-.07.1-.2.13-.33.08-.6-.2-1.52-.86-2.74s-1.25-1.82-1.8-1.82c-.58 0-.98.8-1.2 2.4z" fill-rule="evenodd"/><path d="m282.8 117.7c-.97.18-1.46-1.47-1.48-4.96-.01-2.26.13-4.37.4-6.35.28-2.1.67-3.95 1.16-5.6.8-2.6 1.73-4.22 2.85-4.85.43-.24.85-.36 1.25-.36 1.12 0 2.16.85 3.1 2.55l2.42 4.66c.9 1.66 1.7 2.46 2.37 2.38.76-.1 1.72-.95 2.88-2.6l3.17-4.56c1.17-1.62 2.13-2.43 2.85-2.43.3 0 .56.13.8.38 1.12 1.24 2.08 4.34 2.86 9.3.76 4.62 1 8.05.7 10.28-.2 1.44-.65 2.16-1.37 2.16-.82 0-1.7-.67-2.65-2l-2.5-3.73c-.93-1.35-1.7-2.02-2.27-2.02-.6 0-1.27.6-1.98 1.83l-2.15 3.66c-.84 1.35-1.72 2.1-2.67 2.25-.92.14-1.57-.47-1.95-1.83l-.9-4.16c-.4-1.6-.96-2.55-1.72-2.8-.18-.04-.3-.06-.35-.06-.67 0-1.23.73-1.68 2.2l-1.18 4.13c-.48 1.54-1.12 2.38-1.92 2.53z"/><path d="m310.75 117.3c-.25-.1-.3-.7-.17-1.74.26-1.92.93-4.38 2.02-7.38 1.2-3.26 2.48-6.06 3.9-8.38 1.63-2.7 3.1-4.1 4.4-4.23 1.45-.15 3.16 1.32 5.12 4.4 1.68 2.6 3.18 5.75 4.48 9.4 1.27 3.52 1.8 5.95 1.63 7.3-.1.68-.46 1.02-1.1 1.02-.67 0-1.72-.7-3.13-2.05-1.5-1.46-2.5-2.28-3.06-2.5-.37-.14-.9-.37-1.57-.7-.55-.24-1.1-.36-1.67-.36-.96 0-2.3.36-4.05 1.05a12.85 12.85 0 0 0 -3.27 1.88c-.3.23-.88.78-1.8 1.66-.5.48-.9.72-1.23.72a1.14 1.14 0 0 1 -.48-.11zm8.45-14.32c-.2 1.42-.15 2.63.1 3.62.14.48.4.72.78.72s.88-.23 1.5-.7c.54-.37.98-.75 1.33-1.16.06-.07.1-.2.13-.33.08-.6-.2-1.52-.86-2.74s-1.25-1.82-1.8-1.82c-.58 0-.97.8-1.2 2.4z" fill-rule="evenodd"/><path d="m337.98 117.85c-.1.04-.2.06-.25.06-.6 0-1.16-.75-1.62-2.27-.4-1.34-.55-2.4-.45-3.17.1-.65.55-.97 1.38-.97 1.4 0 2.47.5 3.22 1.52.25.33.34.75.27 1.27-.08.63-.38 1.3-.9 2.02-.5.7-1.06 1.23-1.65 1.54z"/><g stroke="#000"><g fill="#0aa245" stroke-width=".632"><path d="m173.76 116.82a8.26 8.26 0 0 1 -.32-1.51l-.28-3.27c-.22-1.64-.6-2.5-1.13-2.57-.55-.1-1.54.64-2.98 2.2l-4.04 4.35c-1.5 1.6-2.7 2.38-3.56 2.38-1.2 0-2.24-2.6-3.08-7.77-.75-4.6-1-8.43-.7-11.47.18-1.97.6-3 1.25-3.04.93-.1 1.62.66 2.08 2.26l1.1 4.48c.4 1.62.9 2.43 1.5 2.43s1.8-.8 3.56-2.37l4.88-4.48c1.82-1.6 3.2-2.4 4.1-2.4a.99.99 0 0 1 .42.09c.73.3 1.1 1.95 1.13 4.9.02 1.66-.06 3.52-.26 5.6-.18 1.96-.47 4.03-.87 6.2-.65 3.4-1.27 5.1-1.88 5.1-.36-.01-.67-.37-.92-1.1zm7.54 1.32c-.8-.16-1.2-1.68-1.16-4.54.02-1.6.16-3.38.42-5.34a62.59 62.59 0 0 1 1.26-6.5c.84-3.55 1.65-5.43 2.44-5.65.08-.02.17-.03.28-.03.6 0 1.1.63 1.46 1.88l1 3.5c.4 1.27 1.04 1.92 1.9 1.94 1.28.04 2.22.01 2.82-.08.44-.08.97-.26 1.6-.53.56-.26.95-.97 1.2-2.14l.54-3.02c.3-1.02.84-1.54 1.57-1.56.8-.04 1.68 1.8 2.6 5.48a56.64 56.64 0 0 1 1.63 10.38c.1 1.72.07 3.1-.06 4.13-.17 1.2-.48 1.88-.96 2.05-.17.05-.33.08-.47.08-.74 0-1.4-.62-1.93-1.85l-1.55-3.87c-.65-1.6-1.34-2.7-2.06-3.26-1.16-.95-2.18-1.42-3.05-1.42-.9 0-1.94.62-3.16 1.86-.46.46-1.06 1.55-1.82 3.25-.83 1.86-1.47 3.13-1.92 3.8-.68 1-1.4 1.5-2.16 1.5-.13 0-.25-.02-.38-.06z"/><path d="m224.46 101.1c-.54 4.1-1.6 7.74-3.12 10.94-1.9 3.97-4.07 6.02-6.5 6.17-1.54.1-3.28-1.16-5.24-3.76-1.48-1.94-2.63-3.9-3.45-5.92-1.17-2.85-1.62-5.33-1.34-7.43.25-1.83 1.7-3.2 4.38-4.07 1.88-.63 3.93-.94 6.14-.94s4.17.3 5.88.94c2.42.9 3.5 2.26 3.26 4.07zm-7.92 3.53c.1-.75-.03-1.38-.4-1.88-.36-.5-.9-.74-1.63-.74s-1.34.25-1.87.76-.84 1.13-.94 1.86c-.2 1.52.06 2.78.8 3.8.58.8 1.2 1.2 1.87 1.2.1 0 .18-.01.22-.03.66-.22 1.16-.96 1.5-2.2.12-.46.27-1.37.45-2.74z" fill-rule="evenodd"/></g><g fill="#ed1c24" stroke-width=".565"><path d="m227.15 118.2c-.97.18-1.46-1.47-1.5-4.96 0-2.26.13-4.37.4-6.35.28-2.1.67-3.95 1.16-5.6.8-2.6 1.74-4.22 2.85-4.85.44-.24.85-.36 1.25-.36 1.12 0 2.16.85 3.1 2.55l2.42 4.66c.9 1.66 1.7 2.46 2.37 2.38.76-.1 1.72-.96 2.88-2.6l3.17-4.56c1.18-1.62 2.13-2.43 2.86-2.43.28 0 .55.13.8.38 1.12 1.24 2.07 4.34 2.85 9.3.76 4.62 1 8.05.7 10.28-.2 1.44-.65 2.16-1.37 2.16-.82 0-1.7-.67-2.65-2l-2.5-3.73c-.93-1.34-1.68-2-2.26-2-.62 0-1.28.6-2 1.83-.47.83-1.2 2.05-2.15 3.66-.83 1.35-1.72 2.1-2.66 2.25-.93.14-1.58-.47-1.96-1.83l-.9-4.16c-.4-1.6-.96-2.55-1.72-2.8-.18-.03-.3-.05-.35-.05-.67 0-1.23.73-1.68 2.2l-1.18 4.13c-.48 1.54-1.12 2.38-1.9 2.53z"/><path d="m255.1 117.8c-.26-.1-.32-.7-.17-1.74.25-1.92.93-4.38 2-7.38 1.2-3.26 2.5-6.06 3.9-8.38 1.63-2.7 3.1-4.1 4.4-4.23 1.45-.15 3.16 1.32 5.13 4.4 1.68 2.62 3.17 5.75 4.47 9.4 1.27 3.52 1.8 5.95 1.64 7.3-.1.68-.47 1.02-1.12 1.02-.67 0-1.7-.68-3.12-2.05-1.5-1.45-2.52-2.28-3.07-2.5-.36-.14-.88-.37-1.57-.68-.54-.25-1.1-.37-1.66-.37-.96 0-2.32.36-4.05 1.05-1.2.48-2.3 1.1-3.28 1.88-.28.23-.88.78-1.8 1.66-.5.48-.9.73-1.23.73-.15-.01-.3-.05-.48-.12zm8.44-14.32c-.2 1.42-.15 2.63.12 3.62.13.48.4.72.77.72s.88-.23 1.5-.7c.54-.37.98-.75 1.32-1.16.07-.07.1-.18.13-.33.08-.6-.2-1.52-.86-2.74s-1.25-1.82-1.8-1.82c-.58 0-.98.8-1.2 2.4z" fill-rule="evenodd"/><path d="m281.42 118.2c-.96.18-1.46-1.47-1.48-4.96-.01-2.26.13-4.37.4-6.35.28-2.1.67-3.95 1.16-5.6.78-2.6 1.73-4.22 2.85-4.85.43-.24.85-.36 1.25-.36 1.12 0 2.16.85 3.1 2.55l2.42 4.66c.9 1.66 1.7 2.46 2.37 2.38.76-.1 1.72-.96 2.88-2.6l3.17-4.56c1.17-1.62 2.13-2.43 2.85-2.43.3 0 .56.13.8.38 1.12 1.24 2.08 4.34 2.86 9.3.76 4.62 1 8.05.7 10.28-.2 1.44-.65 2.16-1.37 2.16-.82 0-1.7-.67-2.65-2l-2.5-3.73c-.93-1.34-1.7-2-2.27-2-.6 0-1.27.6-1.98 1.83l-2.15 3.66c-.84 1.35-1.72 2.1-2.67 2.25-.92.14-1.57-.47-1.96-1.83l-.9-4.16c-.38-1.6-.95-2.55-1.7-2.8-.18-.03-.3-.05-.35-.05-.67 0-1.23.73-1.68 2.2l-1.18 4.13c-.48 1.54-1.12 2.38-1.92 2.53z"/><path d="m309.37 117.8c-.25-.1-.3-.7-.17-1.74.26-1.92.93-4.38 2.03-7.38 1.18-3.26 2.47-6.06 3.9-8.38 1.63-2.7 3.1-4.1 4.4-4.23 1.45-.15 3.16 1.32 5.12 4.4 1.68 2.62 3.18 5.75 4.48 9.4 1.27 3.52 1.8 5.95 1.63 7.3-.1.68-.46 1.02-1.1 1.02-.67 0-1.72-.68-3.13-2.05-1.5-1.45-2.5-2.28-3.06-2.5a33.02 33.02 0 0 1 -1.57-.68 3.97 3.97 0 0 0 -1.67-.37c-.96 0-2.3.36-4.05 1.05-1.2.48-2.3 1.1-3.27 1.88-.3.23-.88.78-1.8 1.66-.5.48-.92.73-1.24.73-.15-.01-.3-.05-.48-.12zm8.45-14.32c-.2 1.42-.15 2.63.1 3.62.14.48.4.72.78.72s.88-.23 1.5-.7c.54-.37.98-.75 1.33-1.16.06-.07.1-.18.13-.33.08-.6-.2-1.52-.86-2.74s-1.25-1.82-1.8-1.82c-.57 0-.97.8-1.2 2.4z" fill-rule="evenodd"/></g><path d="m336.6 118.36c-.1.04-.2.06-.25.06-.6 0-1.16-.76-1.62-2.27-.4-1.34-.55-2.4-.45-3.17.1-.65.55-.98 1.38-.98 1.4 0 2.47.5 3.22 1.53.25.33.34.75.27 1.27-.08.62-.38 1.3-.9 2-.5.73-1.06 1.24-1.65 1.55z" fill="#0aa245" stroke-width=".577"/></g><g fill-rule="evenodd"><path d="m354.73 109.2c-3.3.58-6.54 3.35-7.26 5.98-.7 2.63-1.1 4.14-2.7 4.14s-2.07 0-1.9-3.27l.64-15.06s-.44-4.48 5.34-4.07c6.7.48 11.15 2.77 12.36 6.46 1.2 3.67-3.27 5.26-6.46 5.82zm-.16-5.34c.08-1.52-1.43-2.3-3.1-2.4-2.95-.16-2.55 2-2.55 2-.24 1.44 1.04 2.47 2.23 2.47 1.2 0 3.35-.56 3.43-2.07z"/><path d="m353.57 108.2c-3.3.58-6.53 3.35-7.25 5.98s-1.12 4.14-2.7 4.14c-1.6 0-2.08 0-1.92-3.27l.64-15.06s-.44-4.48 5.34-4.07c6.7.48 11.15 2.77 12.36 6.46 1.2 3.67-3.27 5.26-6.46 5.82zm-.16-5.34c.08-1.5-1.43-2.3-3.1-2.4-2.95-.16-2.55 2-2.55 2-.24 1.43 1.04 2.47 2.24 2.47s3.34-.56 3.42-2.07z" fill="#0aa245" stroke="#000" stroke-width=".638"/></g><path d="m361.6 99.1c-.22-.56-.82-1.95.27-2.4 1.43-.58 5.53 5 7 6.54 1.5 1.54 3.3 1.6 5.05-.9 1.76-2.5 2.82-4.63 3.77-4.9.96-.26 1.4 1.23 1.23 4.52-.16 3.3-5.05 12-11.16 16.16-6.1 4.14-4.94-1.22-3.1-3.46 1.86-2.23 2.98-3.98 2.24-5.36-.75-1.38-4.62-8.4-5.32-10.2z"/><path d="m359.96 98.32c-.2-.56-.8-1.95.27-2.4 1.44-.6 5.53 5 7.02 6.53 1.48 1.54 3.3 1.6 5.04-.9 1.76-2.5 2.82-4.62 3.78-4.9.95-.27 1.38 1.22 1.22 4.52s-5.05 12-11.16 16.16c-6.1 4.14-4.94-1.23-3.08-3.46s2.97-3.98 2.23-5.37c-.75-1.38-4.62-8.4-5.32-10.2z" fill="#0aa245" stroke="#000" stroke-width=".638"/><text><tspan font-family="Helvetica" font-size="13" x="159" y="81">выбираем лучшее для ваших детей</tspan></text></svg>