<svg width="24" height="24" viewBox="0 0 24 24" id="ic" fill="none" xmlns="http://www.w3.org/2000/svg">
<g id="16 / info">
<path id="icon" fill-rule="evenodd" clip-rule="evenodd" d="M12 24C5.37258 24 0 18.6274 0 12C0 5.37258 5.37258 0 12 0C18.6274 0 24 5.37258 24 12C24 18.6274 18.6274 24 12 24Z" fill="#DDE1E6"/>
<path id="Path" fill-rule="evenodd" clip-rule="evenodd" d="M13.5054 16.4974H10.5044V10.4974H13.5054V16.4974Z" fill="#70798E"/>
<path id="Path_2" fill-rule="evenodd" clip-rule="evenodd" d="M12.0005 8.99744C12.8292 8.99744 13.501 8.32586 13.501 7.49744C13.501 6.66901 12.8292 5.99744 12.0005 5.99744C11.1718 5.99744 10.5 6.66901 10.5 7.49744C10.5 8.32586 11.1718 8.99744 12.0005 8.99744Z" fill="#70798E"/>
</g>
</svg>
