<?xml version="1.0" encoding="utf-8"?>
<!-- Generator: Adobe Illustrator 24.0.0, SVG Export Plug-In . SVG Version: 6.00 Build 0)  -->
<svg version="1.1" id="ic" xmlns="http://www.w3.org/2000/svg" xmlns:xlink="http://www.w3.org/1999/xlink" x="0px" y="0px"
	 viewBox="0 0 32 32" style="enable-background:new 0 0 32 32;" xml:space="preserve">
<path fill="#fff" fill-rule="evenodd" clip-rule="evenodd" d="M20,5.3H12c-3.7,0-6.6,3-6.6,6.6V20c0,3.7,3,6.6,6.6,6.6H20c3.7,0,6.6-3,6.6-6.6V12C26.7,8.3,23.7,5.3,20,5.3z
	 M16,10.7c-3,0-5.3,2.4-5.3,5.3s2.4,5.3,5.3,5.3s5.3-2.4,5.3-5.3S19,10.7,16,10.7z M16,19.3c-1.9,0-3.3-1.5-3.3-3.3s1.5-3.3,3.3-3.3
	s3.3,1.5,3.3,3.3S17.9,19.3,16,19.3z M22.7,10c0,0.4-0.3,0.7-0.7,0.7s-0.7-0.3-0.7-0.7c0-0.4,0.3-0.7,0.7-0.7S22.7,9.6,22.7,10z"/>
</svg>
