<svg width="22" height="22" viewBox="0 0 22 22" id="ic" fill="none" xmlns="http://www.w3.org/2000/svg">
<path fill-rule="evenodd" clip-rule="evenodd" d="M15.0298 0.333252H6.97053C3.29646 0.333252 0.333496 3.29622 0.333496 6.97029V15.0295C0.333496 18.7036 3.29646 21.6666 6.97053 21.6666H15.0298C18.7039 21.6666 21.6668 18.7036 21.6668 15.0295V6.97029C21.6668 3.29622 18.7039 0.333252 15.0298 0.333252ZM11.0002 5.66659C8.0372 5.66659 5.66683 8.03696 5.66683 10.9999C5.66683 13.9629 8.0372 16.3333 11.0002 16.3333C13.9631 16.3333 16.3335 13.9629 16.3335 10.9999C16.3335 8.03696 13.9631 5.66659 11.0002 5.66659ZM11.0002 14.3184C9.10387 14.3184 7.68164 12.7777 7.68164 10.9999C7.68164 9.22214 9.22239 7.6814 11.0002 7.6814C12.7779 7.6814 14.3187 9.22214 14.3187 10.9999C14.3187 12.7777 12.8965 14.3184 11.0002 14.3184ZM17.6668 4.99992C17.6668 5.36811 17.3684 5.66659 17.0002 5.66659C16.632 5.66659 16.3335 5.36811 16.3335 4.99992C16.3335 4.63173 16.632 4.33325 17.0002 4.33325C17.3684 4.33325 17.6668 4.63173 17.6668 4.99992Z" fill="#70798E"/>
</svg>
