<svg width="82" height="101" id="ic" viewBox="0 0 82 101" fill="none" xmlns="http://www.w3.org/2000/svg">
<path d="M60.0931 3.88589C58.8285 6.40943 56.6441 17.2623 58.8285 28.7016L71.952 53.9369L80.6148 49.9016L60.0931 3.88589Z" fill="#DDE1E6" stroke="#969BA8" stroke-miterlimit="10" stroke-linecap="round" stroke-linejoin="round"/>
<path d="M58.8344 28.7016C56.65 17.2623 58.8344 6.40942 60.0991 3.88589C59.4208 2.87418 55.9717 2.03492 49.4128 0.517349C47.9815 6.23697 40.9972 6.3232 40.9972 6.3232C40.9972 6.3232 34.0187 6.23697 32.5874 0.517349C26.0285 2.03492 22.5795 2.87418 21.9012 3.88589C23.1658 6.40942 25.3502 17.2623 23.1658 28.7016C22.9129 41.8251 19.4639 98.3545 19.4639 98.3545L33.0932 100.039C33.0932 100.039 34.2717 77.1603 41.003 58.7368C47.7343 77.1603 48.9127 100.039 48.9127 100.039L62.5421 98.3545C62.5364 98.3545 59.0873 41.8251 58.8344 28.7016Z" fill="#DDE1E6" stroke="#969BA8" stroke-miterlimit="10" stroke-linecap="round" stroke-linejoin="round"/>
<path d="M21.9011 3.88589C23.1657 6.40943 25.3501 17.2623 23.1657 28.7016L10.0422 53.9369L1.37939 49.8958L21.9011 3.88589Z" fill="#DDE1E6" stroke="#969BA8" stroke-miterlimit="10" stroke-linecap="round" stroke-linejoin="round"/>
<path d="M40.9973 2.36832C37.577 2.33958 35.5593 1.91995 32.5874 0.517349C34.0187 6.23697 40.9973 6.3232 40.9973 6.3232C40.9973 6.3232 47.9815 6.23697 49.4071 0.517349C46.441 1.91995 44.4233 2.33958 40.9973 2.36832Z" fill="#969BA8" stroke="#969BA8" stroke-miterlimit="10" stroke-linecap="round" stroke-linejoin="round"/>
<path d="M28.2216 99.0304C28.5145 99.3233 28.9894 99.3233 29.2823 99.0304L34.0553 94.2574C34.3481 93.9645 34.3481 93.4896 34.0553 93.1967C33.7624 92.9038 33.2875 92.9038 32.9946 93.1967L28.752 97.4394L24.5093 93.1967C24.2164 92.9038 23.7415 92.9038 23.4487 93.1967C23.1558 93.4896 23.1558 93.9645 23.4487 94.2574L28.2216 99.0304ZM29.2823 39.4697C28.9894 39.1768 28.5145 39.1768 28.2216 39.4697L23.4487 44.2426C23.1558 44.5355 23.1558 45.0104 23.4487 45.3033C23.7415 45.5962 24.2164 45.5962 24.5093 45.3033L28.752 41.0607L32.9946 45.3033C33.2875 45.5962 33.7624 45.5962 34.0553 45.3033C34.3481 45.0104 34.3481 44.5355 34.0553 44.2426L29.2823 39.4697ZM29.502 98.5V40H28.002V98.5H29.502Z" fill="#006FE6"/>
<path d="M23 40.5H25.25V39.5H23V40.5ZM29.75 40.5H34.25V39.5H29.75V40.5ZM38.75 40.5H43.25V39.5H38.75V40.5ZM47.75 40.5H52.25V39.5H47.75V40.5ZM56.75 40.5H59V39.5H56.75V40.5Z" fill="#969BA8"/>
</svg>
