<svg width="82" height="101" id="ic" viewBox="0 0 82 101" fill="none" xmlns="http://www.w3.org/2000/svg">
<path d="M60.0931 3.88589C58.8285 6.40943 56.6441 17.2623 58.8285 28.7016L71.952 53.9369L80.6148 49.9016L60.0931 3.88589Z" fill="#DDE1E6" stroke="#969BA8" stroke-miterlimit="10" stroke-linecap="round" stroke-linejoin="round"/>
<path d="M58.8344 28.7016C56.65 17.2623 58.8344 6.40942 60.0991 3.88589C59.4208 2.87418 55.9717 2.03492 49.4128 0.517349C47.9815 6.23697 40.9972 6.3232 40.9972 6.3232C40.9972 6.3232 34.0187 6.23697 32.5874 0.517349C26.0285 2.03492 22.5795 2.87418 21.9012 3.88589C23.1658 6.40942 25.3502 17.2623 23.1658 28.7016C22.9129 41.8251 19.4639 98.3545 19.4639 98.3545L33.0932 100.039C33.0932 100.039 34.2717 77.1603 41.003 58.7368C47.7343 77.1603 48.9127 100.039 48.9127 100.039L62.5421 98.3545C62.5364 98.3545 59.0873 41.8251 58.8344 28.7016Z" fill="#DDE1E6" stroke="#969BA8" stroke-miterlimit="10" stroke-linecap="round" stroke-linejoin="round"/>
<path d="M21.9011 3.88589C23.1657 6.40943 25.3501 17.2623 23.1657 28.7016L10.0422 53.9369L1.37939 49.8958L21.9011 3.88589Z" fill="#DDE1E6" stroke="#969BA8" stroke-miterlimit="10" stroke-linecap="round" stroke-linejoin="round"/>
<path d="M40.9973 2.36832C37.577 2.33958 35.5593 1.91995 32.5874 0.517349C34.0187 6.23697 40.9973 6.3232 40.9973 6.3232C40.9973 6.3232 47.9815 6.23697 49.4071 0.517349C46.441 1.91995 44.4233 2.33958 40.9973 2.36832Z" fill="#969BA8" stroke="#969BA8" stroke-miterlimit="10" stroke-linecap="round" stroke-linejoin="round"/>
<path d="M8.78137 53.7147C8.89992 54.1116 9.31777 54.3372 9.71465 54.2187L16.1823 52.2868C16.5792 52.1682 16.8048 51.7504 16.6863 51.3535C16.5677 50.9566 16.1499 50.731 15.753 50.8495L10.004 52.5667L8.28674 46.8177C8.16818 46.4209 7.75034 46.1952 7.35345 46.3138C6.95657 46.4323 6.73093 46.8502 6.84948 47.2471L8.78137 53.7147ZM23.7186 28.2854C23.6001 27.8885 23.1822 27.6629 22.7853 27.7814L16.3177 29.7133C15.9208 29.8318 15.6952 30.2497 15.8137 30.6466C15.9323 31.0435 16.3501 31.2691 16.747 31.1505L22.496 29.4333L24.2133 35.1823C24.3318 35.5792 24.7497 35.8048 25.1465 35.6863C25.5434 35.5677 25.7691 35.1499 25.6505 34.753L23.7186 28.2854ZM10.1599 53.8564L23.6599 28.8564L22.3401 28.1437L8.84007 53.1437L10.1599 53.8564Z" fill="#006FE6"/>
</svg>
