<svg width="82" height="101" id="ic" viewBox="0 0 82 101" fill="none" xmlns="http://www.w3.org/2000/svg">
<path d="M60.0931 3.88589C58.8285 6.40943 56.6441 17.2623 58.8285 28.7016L71.952 53.9369L80.6148 49.9016L60.0931 3.88589Z" fill="#DDE1E6" stroke="#969BA8" stroke-miterlimit="10" stroke-linecap="round" stroke-linejoin="round"/>
<path d="M58.8344 28.7016C56.65 17.2623 58.8344 6.40942 60.0991 3.88589C59.4208 2.87418 55.9717 2.03492 49.4128 0.517349C47.9815 6.23697 40.9972 6.3232 40.9972 6.3232C40.9972 6.3232 34.0187 6.23697 32.5874 0.517349C26.0285 2.03492 22.5795 2.87418 21.9012 3.88589C23.1658 6.40942 25.3502 17.2623 23.1658 28.7016C22.9129 41.8251 19.4639 98.3545 19.4639 98.3545L33.0932 100.039C33.0932 100.039 34.2717 77.1603 41.003 58.7368C47.7343 77.1603 48.9127 100.039 48.9127 100.039L62.5421 98.3545C62.5364 98.3545 59.0873 41.8251 58.8344 28.7016Z" fill="#DDE1E6" stroke="#969BA8" stroke-miterlimit="10" stroke-linecap="round" stroke-linejoin="round"/>
<path d="M21.9011 3.88589C23.1657 6.40943 25.3501 17.2623 23.1657 28.7016L10.0422 53.9369L1.37939 49.8958L21.9011 3.88589Z" fill="#DDE1E6" stroke="#969BA8" stroke-miterlimit="10" stroke-linecap="round" stroke-linejoin="round"/>
<path d="M40.9973 2.36832C37.577 2.33958 35.5593 1.91995 32.5874 0.517349C34.0187 6.23697 40.9973 6.3232 40.9973 6.3232C40.9973 6.3232 47.9815 6.23697 49.4071 0.517349C46.441 1.91995 44.4233 2.33958 40.9973 2.36832Z" fill="#969BA8" stroke="#969BA8" stroke-miterlimit="10" stroke-linecap="round" stroke-linejoin="round"/>
<path d="M40.5303 61.0304C40.8232 60.7375 40.8232 60.2626 40.5303 59.9697L35.7574 55.1967C35.4645 54.9038 34.9896 54.9038 34.6967 55.1967C34.4038 55.4896 34.4038 55.9645 34.6967 56.2574L38.9393 60.5L34.6967 64.7427C34.4038 65.0356 34.4038 65.5104 34.6967 65.8033C34.9896 66.0962 35.4645 66.0962 35.7574 65.8033L40.5303 61.0304ZM20.9697 59.9697C20.6768 60.2626 20.6768 60.7375 20.9697 61.0304L25.7426 65.8033C26.0355 66.0962 26.5104 66.0962 26.8033 65.8033C27.0962 65.5104 27.0962 65.0356 26.8033 64.7427L22.5607 60.5L26.8033 56.2574C27.0962 55.9645 27.0962 55.4896 26.8033 55.1967C26.5104 54.9038 26.0355 54.9038 25.7426 55.1967L20.9697 59.9697ZM40 59.75H21.5V61.25H40V59.75Z" fill="#006FE6"/>
</svg>
