<svg width="82" height="102" id="ic" viewBox="0 0 82 102" fill="none" xmlns="http://www.w3.org/2000/svg">
<path d="M60.0931 4.88589C58.8285 7.40943 56.6441 18.2623 58.8285 29.7016L71.952 54.9369L80.6148 50.9016L60.0931 4.88589Z" fill="#DDE1E6" stroke="#969BA8" stroke-miterlimit="10" stroke-linecap="round" stroke-linejoin="round"/>
<path d="M21.9011 4.88589C23.1657 7.40943 25.3501 18.2623 23.1657 29.7016L10.0422 54.9369L1.37939 50.8958L21.9011 4.88589Z" fill="#DDE1E6" stroke="#969BA8" stroke-miterlimit="10" stroke-linecap="round" stroke-linejoin="round"/>
<path fill-rule="evenodd" clip-rule="evenodd" d="M60.0991 4.88589C58.8344 7.40942 56.65 18.2623 58.8344 29.7016C59.0873 42.8251 62.5364 99.3545 62.5421 99.3545L48.9127 101.039C48.9127 101.039 47.7343 78.1603 41.003 59.7368C34.2717 78.1603 33.0932 101.039 33.0932 101.039L19.4639 99.3545C19.4639 99.3545 22.9129 42.8251 23.1658 29.7016C25.3502 18.2623 23.1658 7.40942 21.9012 4.88589C22.5795 3.87418 26.0285 3.03492 32.5874 1.51735C32.5874 1.51737 32.5874 1.51739 32.5874 1.51742C32.5874 1.51739 32.5874 1.51737 32.5874 1.51735C35.5593 2.91995 37.577 3.33958 40.9973 3.36832C44.4233 3.33958 46.441 2.91995 49.4071 1.51735C49.4071 1.525 49.4071 1.53263 49.4071 1.54027C49.409 1.53264 49.4109 1.525 49.4128 1.51735C55.9717 3.03492 59.4208 3.87418 60.0991 4.88589Z" fill="#DDE1E6"/>
<path d="M58.8344 29.7016L59.3343 29.6919C59.3338 29.6637 59.3308 29.6356 59.3256 29.6078L58.8344 29.7016ZM60.0991 4.88589L60.5461 5.10991C60.6267 4.94893 60.6146 4.75701 60.5144 4.60745L60.0991 4.88589ZM62.5421 99.3545L62.6034 99.8508C62.8657 99.8184 63.0574 99.5875 63.0412 99.3238C63.0249 99.0601 62.8063 98.8545 62.5421 98.8545V99.3545ZM48.9127 101.039L48.4134 101.065C48.4205 101.203 48.485 101.333 48.5913 101.422C48.6977 101.511 48.8363 101.552 48.9741 101.535L48.9127 101.039ZM41.003 59.7368L41.4726 59.5652C41.4006 59.368 41.213 59.2368 41.003 59.2368C40.793 59.2368 40.6054 59.368 40.5334 59.5652L41.003 59.7368ZM33.0932 101.039L33.0319 101.535C33.1697 101.552 33.3083 101.511 33.4147 101.422C33.521 101.333 33.5854 101.203 33.5926 101.065L33.0932 101.039ZM19.4639 99.3545L18.9648 99.3241C18.9487 99.5877 19.1404 99.8184 19.4025 99.8508L19.4639 99.3545ZM23.1658 29.7016L22.6747 29.6078C22.6694 29.6356 22.6665 29.6637 22.6659 29.6919L23.1658 29.7016ZM21.9012 4.88589L21.4859 4.60745C21.3856 4.75701 21.3735 4.94893 21.4542 5.10991L21.9012 4.88589ZM32.5874 1.51735L33.0724 1.39597C33.0062 1.13146 32.7403 0.968754 32.4747 1.03022L32.5874 1.51735ZM32.5874 1.51742L32.1024 1.6388C32.1637 1.88374 32.398 2.04454 32.6486 2.01366C32.8992 1.98278 33.0874 1.76991 33.0874 1.51742H32.5874ZM32.5874 1.51735L32.8008 1.06518C32.6459 0.992078 32.4644 1.00334 32.3197 1.09503C32.1751 1.18672 32.0874 1.34608 32.0874 1.51735H32.5874ZM40.9973 3.36832L40.9931 3.86838L41.0015 3.8683L40.9973 3.36832ZM49.4071 1.51735H49.9071C49.9071 1.34601 49.8194 1.1866 49.6746 1.09493C49.5299 1.00326 49.3483 0.992093 49.1934 1.06534L49.4071 1.51735ZM49.4071 1.54027L48.9071 1.53852C48.9062 1.79105 49.0938 2.00461 49.3443 2.03631C49.5948 2.06802 49.8297 1.90792 49.8917 1.66313L49.4071 1.54027ZM49.4128 1.51735L49.5256 1.03022C49.2599 0.968758 48.994 1.13144 48.9278 1.39593L49.4128 1.51735ZM59.3256 29.6078C58.2441 23.9444 58.2435 18.4204 58.671 13.9985C59.1007 9.55462 59.9565 6.28638 60.5461 5.10991L59.6521 4.66188C58.977 6.00893 58.1082 9.42892 57.6757 13.9022C57.241 18.3975 57.2404 24.0195 58.3433 29.7954L59.3256 29.6078ZM62.5421 98.8545C62.8752 98.9817 63.0396 99.3046 63.0402 99.3106C63.0403 99.3123 63.0405 99.3149 63.0405 99.3151C63.0405 99.3149 63.0405 99.3149 63.0405 99.314C63.0404 99.313 63.0403 99.3121 63.0402 99.3106C63.0398 99.3046 63.0392 99.295 63.0383 99.2815C63.0366 99.2547 63.0341 99.2144 63.0307 99.1608C63.024 99.0537 63.0142 98.8944 63.0014 98.6858C62.9757 98.2687 62.9383 97.6552 62.8906 96.8696C62.7953 95.2984 62.6591 93.0392 62.495 90.287C62.167 84.7826 61.7274 77.3069 61.2802 69.4211C60.3853 53.6437 59.4606 36.242 59.3343 29.6919L58.3345 29.7112C58.4612 36.2847 59.3874 53.7095 60.2818 69.4777C60.7291 77.3647 61.1687 84.8415 61.4968 90.3465C61.6609 93.099 61.7971 95.3587 61.8924 96.9302C61.9401 97.716 61.9776 98.3297 62.0032 98.7471C62.0161 98.9558 62.0259 99.1155 62.0327 99.2231C62.036 99.2769 62.0386 99.3179 62.0404 99.3455C62.0413 99.3593 62.042 99.3702 62.0425 99.3779C62.0427 99.3815 62.043 99.3854 62.0433 99.3888C62.0434 99.3908 62.0437 99.3946 62.0439 99.3972C62.0446 99.4041 62.209 99.7274 62.5421 99.8545V98.8545ZM48.9741 101.535L62.6034 99.8508L62.4808 98.8583L48.8514 100.543L48.9741 101.535ZM40.5334 59.9084C43.8818 69.073 45.8532 79.3595 46.9871 87.3667C47.5536 91.3678 47.9104 94.7946 48.1254 97.2203C48.2329 98.4331 48.305 99.3954 48.3501 100.054C48.3727 100.383 48.3886 100.637 48.3988 100.807C48.4038 100.893 48.4075 100.957 48.4099 101C48.4111 101.022 48.412 101.038 48.4126 101.049C48.4129 101.054 48.4131 101.058 48.4132 101.061C48.4133 101.062 48.4133 101.063 48.4134 101.064C48.4134 101.064 48.4134 101.064 48.4134 101.064C48.4134 101.064 48.4134 101.065 48.9127 101.039C49.4121 101.013 49.4121 101.013 49.4121 101.013C49.412 101.013 49.412 101.012 49.412 101.012C49.412 101.011 49.4119 101.01 49.4118 101.008C49.4117 101.005 49.4115 101.001 49.4111 100.995C49.4105 100.984 49.4096 100.967 49.4084 100.945C49.4059 100.9 49.4022 100.834 49.397 100.748C49.3866 100.574 49.3706 100.318 49.3478 99.9855C49.3022 99.3209 49.2296 98.352 49.1215 97.132C48.9052 94.6923 48.5466 91.248 47.9772 87.2265C46.839 79.1886 44.8555 68.8241 41.4726 59.5652L40.5334 59.9084ZM33.0932 101.039C33.5926 101.065 33.5926 101.064 33.5926 101.064C33.5926 101.064 33.5926 101.064 33.5926 101.064C33.5927 101.063 33.5927 101.062 33.5928 101.061C33.5929 101.058 33.5931 101.054 33.5934 101.049C33.594 101.038 33.5949 101.022 33.5961 101C33.5985 100.957 33.6021 100.893 33.6072 100.807C33.6174 100.637 33.6333 100.383 33.6559 100.054C33.701 99.3954 33.7731 98.4331 33.8806 97.2203C34.0956 94.7946 34.4524 91.3678 35.0189 87.3667C36.1528 79.3595 38.1242 69.073 41.4726 59.9084L40.5334 59.5652C37.1505 68.8241 35.167 79.1886 34.0288 87.2265C33.4594 91.248 33.1008 94.6923 32.8845 97.132C32.7764 98.352 32.7038 99.3209 32.6582 99.9855C32.6354 100.318 32.6194 100.574 32.609 100.748C32.6038 100.834 32.6001 100.9 32.5976 100.945C32.5964 100.967 32.5954 100.984 32.5948 100.995C32.5945 101.001 32.5943 101.005 32.5941 101.008C32.5941 101.01 32.594 101.011 32.594 101.012C32.594 101.012 32.5939 101.013 32.5939 101.013C32.5939 101.013 32.5939 101.013 33.0932 101.039ZM19.4025 99.8508L33.0319 101.535L33.1546 100.543L19.5252 98.8583L19.4025 99.8508ZM22.6659 29.6919C22.5397 36.242 21.6149 53.6437 20.7208 69.4211C20.2739 77.3069 19.8349 84.7827 19.5076 90.2871C19.344 93.0393 19.2083 95.2986 19.1135 96.8698C19.0661 97.6554 19.0289 98.269 19.0036 98.6862C18.9909 98.8948 18.9812 99.0543 18.9747 99.1616C18.9714 99.2153 18.969 99.2559 18.9673 99.2831C18.9665 99.2967 18.9658 99.307 18.9654 99.3138C18.9652 99.3172 18.9651 99.3198 18.965 99.3215C18.9649 99.3224 18.9649 99.323 18.9648 99.3234C18.9648 99.3239 18.9648 99.3241 19.4639 99.3545C19.9629 99.385 19.963 99.3848 19.963 99.3843C19.963 99.3839 19.963 99.3833 19.9631 99.3824C19.9632 99.3807 19.9634 99.3781 19.9636 99.3747C19.964 99.3678 19.9646 99.3575 19.9654 99.3439C19.9671 99.3167 19.9696 99.276 19.9728 99.2223C19.9794 99.115 19.9891 98.9554 20.0017 98.7468C20.0271 98.3295 20.0642 97.7158 20.1117 96.93C20.2065 95.3585 20.3422 93.0989 20.5058 90.3464C20.8332 84.8414 21.2722 77.3647 21.7192 69.4777C22.6128 53.7095 23.539 36.2847 23.6657 29.7112L22.6659 29.6919ZM21.4542 5.10991C22.0437 6.28638 22.8995 9.55462 23.3292 13.9985C23.7568 18.4204 23.7561 23.9444 22.6747 29.6078L23.6569 29.7954C24.7599 24.0195 24.7592 18.3975 24.3246 13.9022C23.892 9.42892 23.0232 6.00893 22.3482 4.66188L21.4542 5.10991ZM32.4747 1.03022C29.2003 1.78784 26.6814 2.38075 24.8964 2.9121C24.0043 3.17766 23.2769 3.43316 22.7223 3.69353C22.1842 3.94612 21.735 4.23593 21.4859 4.60745L22.3165 5.16433C22.4065 5.03 22.6428 4.83551 23.1472 4.59876C23.6349 4.3698 24.3069 4.13095 25.1817 3.87053C26.9306 3.34994 29.4156 2.76443 32.7001 2.00448L32.4747 1.03022ZM33.0724 1.39604C33.0724 1.39601 33.0724 1.39599 33.0724 1.39597L32.1023 1.63873C32.1023 1.63875 32.1024 1.63878 32.1024 1.6388L33.0724 1.39604ZM32.0874 1.51735C32.0874 1.51735 32.0874 1.51735 32.0874 1.51735C32.0874 1.51735 32.0874 1.51735 32.0874 1.51735C32.0874 1.51735 32.0874 1.51735 32.0874 1.51735C32.0874 1.51735 32.0874 1.51735 32.0874 1.51735C32.0874 1.51735 32.0874 1.51735 32.0874 1.51735C32.0874 1.51735 32.0874 1.51735 32.0874 1.51735C32.0874 1.51735 32.0874 1.51735 32.0874 1.51735C32.0874 1.51735 32.0874 1.51735 32.0874 1.51735C32.0874 1.51735 32.0874 1.51735 32.0874 1.51735C32.0874 1.51735 32.0874 1.51735 32.0874 1.51735C32.0874 1.51735 32.0874 1.51735 32.0874 1.51735C32.0874 1.51735 32.0874 1.51735 32.0874 1.51735C32.0874 1.51735 32.0874 1.51735 32.0874 1.51735C32.0874 1.51735 32.0874 1.51735 32.0874 1.51735C32.0874 1.51735 32.0874 1.51735 32.0874 1.51735C32.0874 1.51735 32.0874 1.51735 32.0874 1.51735C32.0874 1.51735 32.0874 1.51735 32.0874 1.51735C32.0874 1.51735 32.0874 1.51735 32.0874 1.51735C32.0874 1.51735 32.0874 1.51735 32.0874 1.51735C32.0874 1.51735 32.0874 1.51735 32.0874 1.51735C32.0874 1.51735 32.0874 1.51735 32.0874 1.51735C32.0874 1.51735 32.0874 1.51735 32.0874 1.51735C32.0874 1.51735 32.0874 1.51735 32.0874 1.51735C32.0874 1.51735 32.0874 1.51735 32.0874 1.51735C32.0874 1.51735 32.0874 1.51735 32.0874 1.51735C32.0874 1.51735 32.0874 1.51735 32.0874 1.51735C32.0874 1.51735 32.0874 1.51735 32.0874 1.51735C32.0874 1.51735 32.0874 1.51735 32.0874 1.51735C32.0874 1.51735 32.0874 1.51735 32.0874 1.51735C32.0874 1.51735 32.0874 1.51735 32.0874 1.51735C32.0874 1.51735 32.0874 1.51735 32.0874 1.51735C32.0874 1.51735 32.0874 1.51735 32.0874 1.51735C32.0874 1.51735 32.0874 1.51735 32.0874 1.51735C32.0874 1.51735 32.0874 1.51735 32.0874 1.51735C32.0874 1.51735 32.0874 1.51735 32.0874 1.51735C32.0874 1.51735 32.0874 1.51735 32.0874 1.51735C32.0874 1.51735 32.0874 1.51735 32.0874 1.51735C32.0874 1.51735 32.0874 1.51735 32.0874 1.51735C32.0874 1.51735 32.0874 1.51735 32.0874 1.51735C32.0874 1.51735 32.0874 1.51735 32.0874 1.51735C32.0874 1.51735 32.0874 1.51735 32.0874 1.51735C32.0874 1.51735 32.0874 1.51735 32.0874 1.51735C32.0874 1.51735 32.0874 1.51735 32.0874 1.51736C32.0874 1.51736 32.0874 1.51736 32.0874 1.51736C32.0874 1.51736 32.0874 1.51736 32.0874 1.51736C32.0874 1.51736 32.0874 1.51736 32.0874 1.51736C32.0874 1.51736 32.0874 1.51736 32.0874 1.51736C32.0874 1.51736 32.0874 1.51736 32.0874 1.51736C32.0874 1.51736 32.0874 1.51736 32.0874 1.51736C32.0874 1.51736 32.0874 1.51736 32.0874 1.51736C32.0874 1.51736 32.0874 1.51736 32.0874 1.51736C32.0874 1.51736 32.0874 1.51736 32.0874 1.51736C32.0874 1.51736 32.0874 1.51736 32.0874 1.51736C32.0874 1.51736 32.0874 1.51736 32.0874 1.51736C32.0874 1.51736 32.0874 1.51736 32.0874 1.51736C32.0874 1.51736 32.0874 1.51736 32.0874 1.51736C32.0874 1.51736 32.0874 1.51736 32.0874 1.51736C32.0874 1.51736 32.0874 1.51736 32.0874 1.51736C32.0874 1.51736 32.0874 1.51736 32.0874 1.51736C32.0874 1.51736 32.0874 1.51736 32.0874 1.51736C32.0874 1.51736 32.0874 1.51736 32.0874 1.51736C32.0874 1.51736 32.0874 1.51736 32.0874 1.51736C32.0874 1.51736 32.0874 1.51736 32.0874 1.51736C32.0874 1.51736 32.0874 1.51736 32.0874 1.51736C32.0874 1.51736 32.0874 1.51736 32.0874 1.51736C32.0874 1.51736 32.0874 1.51736 32.0874 1.51736C32.0874 1.51736 32.0874 1.51736 32.0874 1.51736C32.0874 1.51736 32.0874 1.51736 32.0874 1.51736C32.0874 1.51736 32.0874 1.51736 32.0874 1.51736C32.0874 1.51736 32.0874 1.51736 32.0874 1.51736C32.0874 1.51736 32.0874 1.51736 32.0874 1.51736C32.0874 1.51736 32.0874 1.51736 32.0874 1.51736C32.0874 1.51736 32.0874 1.51736 32.0874 1.51736C32.0874 1.51736 32.0874 1.51736 32.0874 1.51736C32.0874 1.51736 32.0874 1.51736 32.0874 1.51736C32.0874 1.51736 32.0874 1.51736 32.0874 1.51736C32.0874 1.51736 32.0874 1.51736 32.0874 1.51736C32.0874 1.51736 32.0874 1.51736 32.0874 1.51736C32.0874 1.51736 32.0874 1.51736 32.0874 1.51736C32.0874 1.51736 32.0874 1.51736 32.0874 1.51736C32.0874 1.51736 32.0874 1.51736 32.0874 1.51736C32.0874 1.51736 32.0874 1.51736 32.0874 1.51736C32.0874 1.51736 32.0874 1.51736 32.0874 1.51736C32.0874 1.51736 32.0874 1.51736 32.0874 1.51736C32.0874 1.51736 32.0874 1.51736 32.0874 1.51736C32.0874 1.51736 32.0874 1.51736 32.0874 1.51736C32.0874 1.51736 32.0874 1.51736 32.0874 1.51736C32.0874 1.51736 32.0874 1.51736 32.0874 1.51736C32.0874 1.51736 32.0874 1.51736 32.0874 1.51736C32.0874 1.51736 32.0874 1.51736 32.0874 1.51736C32.0874 1.51736 32.0874 1.51736 32.0874 1.51736C32.0874 1.51736 32.0874 1.51736 32.0874 1.51736C32.0874 1.51736 32.0874 1.51736 32.0874 1.51736C32.0874 1.51736 32.0874 1.51736 32.0874 1.51736C32.0874 1.51736 32.0874 1.51736 32.0874 1.51736C32.0874 1.51736 32.0874 1.51736 32.0874 1.51736C32.0874 1.51736 32.0874 1.51736 32.0874 1.51736C32.0874 1.51736 32.0874 1.51736 32.0874 1.51736C32.0874 1.51736 32.0874 1.51736 32.0874 1.51736C32.0874 1.51736 32.0874 1.51736 32.0874 1.51736C32.0874 1.51736 32.0874 1.51736 32.0874 1.51736C32.0874 1.51736 32.0874 1.51736 32.0874 1.51736C32.0874 1.51736 32.0874 1.51736 32.0874 1.51736C32.0874 1.51736 32.0874 1.51736 32.0874 1.51736C32.0874 1.51736 32.0874 1.51736 32.0874 1.51736C32.0874 1.51736 32.0874 1.51736 32.0874 1.51736C32.0874 1.51736 32.0874 1.51736 32.0874 1.51736C32.0874 1.51736 32.0874 1.51736 32.0874 1.51736C32.0874 1.51736 32.0874 1.51736 32.0874 1.51736C32.0874 1.51736 32.0874 1.51736 32.0874 1.51736C32.0874 1.51736 32.0874 1.51736 32.0874 1.51736C32.0874 1.51736 32.0874 1.51736 32.0874 1.51736C32.0874 1.51736 32.0874 1.51736 32.0874 1.51736C32.0874 1.51736 32.0874 1.51736 32.0874 1.51736C32.0874 1.51736 32.0874 1.51736 32.0874 1.51736C32.0874 1.51736 32.0874 1.51736 32.0874 1.51736C32.0874 1.51736 32.0874 1.51736 32.0874 1.51736C32.0874 1.51736 32.0874 1.51737 32.0874 1.51737C32.0874 1.51737 32.0874 1.51737 32.0874 1.51737C32.0874 1.51737 32.0874 1.51737 32.0874 1.51737C32.0874 1.51737 32.0874 1.51737 32.0874 1.51737C32.0874 1.51737 32.0874 1.51737 32.0874 1.51737C32.0874 1.51737 32.0874 1.51737 32.0874 1.51737C32.0874 1.51737 32.0874 1.51737 32.0874 1.51737C32.0874 1.51737 32.0874 1.51737 32.0874 1.51737C32.0874 1.51737 32.0874 1.51737 32.0874 1.51737C32.0874 1.51737 32.0874 1.51737 32.0874 1.51737C32.0874 1.51737 32.0874 1.51737 32.0874 1.51737C32.0874 1.51737 32.0874 1.51737 32.0874 1.51737C32.0874 1.51737 32.0874 1.51737 32.0874 1.51737C32.0874 1.51737 32.0874 1.51737 32.0874 1.51737C32.0874 1.51737 32.0874 1.51737 32.0874 1.51737C32.0874 1.51737 32.0874 1.51737 32.0874 1.51737C32.0874 1.51737 32.0874 1.51737 32.0874 1.51737C32.0874 1.51737 32.0874 1.51737 32.0874 1.51737C32.0874 1.51737 32.0874 1.51737 32.0874 1.51737C32.0874 1.51737 32.0874 1.51737 32.0874 1.51737C32.0874 1.51737 32.0874 1.51737 32.0874 1.51737C32.0874 1.51737 32.0874 1.51737 32.0874 1.51737C32.0874 1.51737 32.0874 1.51737 32.0874 1.51737C32.0874 1.51737 32.0874 1.51737 32.0874 1.51737C32.0874 1.51737 32.0874 1.51737 32.0874 1.51737C32.0874 1.51737 32.0874 1.51737 32.0874 1.51737C32.0874 1.51737 32.0874 1.51737 32.0874 1.51737C32.0874 1.51737 32.0874 1.51737 32.0874 1.51737C32.0874 1.51737 32.0874 1.51737 32.0874 1.51737C32.0874 1.51737 32.0874 1.51737 32.0874 1.51737C32.0874 1.51737 32.0874 1.51737 32.0874 1.51737C32.0874 1.51737 32.0874 1.51737 32.0874 1.51737C32.0874 1.51737 32.0874 1.51737 32.0874 1.51737C32.0874 1.51737 32.0874 1.51737 32.0874 1.51737C32.0874 1.51737 32.0874 1.51737 32.0874 1.51737C32.0874 1.51737 32.0874 1.51737 32.0874 1.51737C32.0874 1.51737 32.0874 1.51737 32.0874 1.51737C32.0874 1.51737 32.0874 1.51737 32.0874 1.51737C32.0874 1.51737 32.0874 1.51737 32.0874 1.51737C32.0874 1.51737 32.0874 1.51737 32.0874 1.51737C32.0874 1.51737 32.0874 1.51737 32.0874 1.51737C32.0874 1.51737 32.0874 1.51737 32.0874 1.51737C32.0874 1.51737 32.0874 1.51737 32.0874 1.51737C32.0874 1.51737 32.0874 1.51737 32.0874 1.51737C32.0874 1.51737 32.0874 1.51737 32.0874 1.51737C32.0874 1.51737 32.0874 1.51737 32.0874 1.51737C32.0874 1.51737 32.0874 1.51737 32.0874 1.51737C32.0874 1.51737 32.0874 1.51737 32.0874 1.51737C32.0874 1.51737 32.0874 1.51737 32.0874 1.51737C32.0874 1.51737 32.0874 1.51737 32.0874 1.51737C32.0874 1.51737 32.0874 1.51737 32.0874 1.51737C32.0874 1.51737 32.0874 1.51737 32.0874 1.51737C32.0874 1.51737 32.0874 1.51737 32.0874 1.51737C32.0874 1.51737 32.0874 1.51737 32.0874 1.51737C32.0874 1.51737 32.0874 1.51737 32.0874 1.51737C32.0874 1.51737 32.0874 1.51737 32.0874 1.51737C32.0874 1.51737 32.0874 1.51737 32.0874 1.51737C32.0874 1.51737 32.0874 1.51737 32.0874 1.51737C32.0874 1.51737 32.0874 1.51737 32.0874 1.51737C32.0874 1.51737 32.0874 1.51737 32.0874 1.51737C32.0874 1.51737 32.0874 1.51737 32.0874 1.51737C32.0874 1.51737 32.0874 1.51737 32.0874 1.51737C32.0874 1.51737 32.0874 1.51737 32.0874 1.51737C32.0874 1.51737 32.0874 1.51737 32.0874 1.51737C32.0874 1.51737 32.0874 1.51737 32.0874 1.51737C32.0874 1.51737 32.0874 1.51737 32.0874 1.51737C32.0874 1.51737 32.0874 1.51737 32.0874 1.51737C32.0874 1.51737 32.0874 1.51737 32.0874 1.51737C32.0874 1.51737 32.0874 1.51737 32.0874 1.51737C32.0874 1.51737 32.0874 1.51737 32.0874 1.51737C32.0874 1.51737 32.0874 1.51737 32.0874 1.51737C32.0874 1.51737 32.0874 1.51737 32.0874 1.51737C32.0874 1.51737 32.0874 1.51737 32.0874 1.51737C32.0874 1.51737 32.0874 1.51737 32.0874 1.51737C32.0874 1.51737 32.0874 1.51737 32.0874 1.51737C32.0874 1.51738 32.0874 1.51738 32.0874 1.51738C32.0874 1.51738 32.0874 1.51738 32.0874 1.51738C32.0874 1.51738 32.0874 1.51738 32.0874 1.51738C32.0874 1.51738 32.0874 1.51738 32.0874 1.51738C32.0874 1.51738 32.0874 1.51738 32.0874 1.51738C32.0874 1.51738 32.0874 1.51738 32.0874 1.51738C32.0874 1.51738 32.0874 1.51738 32.0874 1.51738C32.0874 1.51738 32.0874 1.51738 32.0874 1.51738C32.0874 1.51738 32.0874 1.51738 32.0874 1.51738C32.0874 1.51738 32.0874 1.51738 32.0874 1.51738C32.0874 1.51738 32.0874 1.51738 32.0874 1.51738C32.0874 1.51738 32.0874 1.51738 32.0874 1.51738C32.0874 1.51738 32.0874 1.51738 32.0874 1.51738C32.0874 1.51738 32.0874 1.51738 32.0874 1.51738C32.0874 1.51738 32.0874 1.51738 32.0874 1.51738C32.0874 1.51738 32.0874 1.51738 32.0874 1.51738C32.0874 1.51738 32.0874 1.51738 32.0874 1.51738C32.0874 1.51738 32.0874 1.51738 32.0874 1.51738C32.0874 1.51738 32.0874 1.51738 32.0874 1.51738C32.0874 1.51738 32.0874 1.51738 32.0874 1.51738C32.0874 1.51738 32.0874 1.51738 32.0874 1.51738C32.0874 1.51738 32.0874 1.51738 32.0874 1.51738C32.0874 1.51738 32.0874 1.51738 32.0874 1.51738C32.0874 1.51738 32.0874 1.51738 32.0874 1.51738C32.0874 1.51738 32.0874 1.51738 32.0874 1.51738C32.0874 1.51738 32.0874 1.51738 32.0874 1.51738C32.0874 1.51738 32.0874 1.51738 32.0874 1.51738C32.0874 1.51738 32.0874 1.51738 32.0874 1.51738C32.0874 1.51738 32.0874 1.51738 32.0874 1.51738C32.0874 1.51738 32.0874 1.51738 32.0874 1.51738C32.0874 1.51738 32.0874 1.51738 32.0874 1.51738C32.0874 1.51738 32.0874 1.51738 32.0874 1.51738C32.0874 1.51738 32.0874 1.51738 32.0874 1.51738C32.0874 1.51738 32.0874 1.51738 32.0874 1.51738C32.0874 1.51738 32.0874 1.51738 32.0874 1.51738C32.0874 1.51738 32.0874 1.51738 32.0874 1.51738C32.0874 1.51738 32.0874 1.51738 32.0874 1.51738C32.0874 1.51738 32.0874 1.51738 32.0874 1.51738C32.0874 1.51738 32.0874 1.51738 32.0874 1.51738C32.0874 1.51738 32.0874 1.51738 32.0874 1.51738C32.0874 1.51738 32.0874 1.51738 32.0874 1.51738C32.0874 1.51738 32.0874 1.51738 32.0874 1.51738C32.0874 1.51738 32.0874 1.51738 32.0874 1.51738C32.0874 1.51738 32.0874 1.51738 32.0874 1.51738C32.0874 1.51738 32.0874 1.51738 32.0874 1.51738C32.0874 1.51738 32.0874 1.51738 32.0874 1.51738C32.0874 1.51738 32.0874 1.51738 32.0874 1.51738C32.0874 1.51738 32.0874 1.51738 32.0874 1.51738C32.0874 1.51738 32.0874 1.51738 32.0874 1.51738C32.0874 1.51738 32.0874 1.51738 32.0874 1.51738C32.0874 1.51738 32.0874 1.51738 32.0874 1.51738C32.0874 1.51738 32.0874 1.51738 32.0874 1.51738C32.0874 1.51738 32.0874 1.51738 32.0874 1.51738C32.0874 1.51738 32.0874 1.51738 32.0874 1.51738C32.0874 1.51738 32.0874 1.51738 32.0874 1.51738C32.0874 1.51738 32.0874 1.51738 32.0874 1.51738C32.0874 1.51738 32.0874 1.51738 32.0874 1.51738C32.0874 1.51738 32.0874 1.51738 32.0874 1.51738C32.0874 1.51738 32.0874 1.51738 32.0874 1.51738C32.0874 1.51738 32.0874 1.51738 32.0874 1.51738C32.0874 1.51738 32.0874 1.51738 32.0874 1.51738C32.0874 1.51738 32.0874 1.51738 32.0874 1.51738C32.0874 1.51738 32.0874 1.51738 32.0874 1.51738C32.0874 1.51738 32.0874 1.51738 32.0874 1.51738C32.0874 1.51738 32.0874 1.51738 32.0874 1.51738C32.0874 1.51738 32.0874 1.51738 32.0874 1.51738C32.0874 1.51738 32.0874 1.51738 32.0874 1.51738C32.0874 1.51738 32.0874 1.51738 32.0874 1.51738C32.0874 1.51738 32.0874 1.51738 32.0874 1.51738C32.0874 1.51738 32.0874 1.51738 32.0874 1.51738C32.0874 1.51738 32.0874 1.51738 32.0874 1.51738C32.0874 1.51738 32.0874 1.51738 32.0874 1.51738C32.0874 1.51738 32.0874 1.51738 32.0874 1.51738C32.0874 1.51738 32.0874 1.51738 32.0874 1.51738C32.0874 1.51738 32.0874 1.51738 32.0874 1.51739C32.0874 1.51739 32.0874 1.51739 32.0874 1.51739C32.0874 1.51739 32.0874 1.51739 32.0874 1.51739C32.0874 1.51739 32.0874 1.51739 32.0874 1.51739C32.0874 1.51739 32.0874 1.51739 32.0874 1.51739C32.0874 1.51739 32.0874 1.51739 32.0874 1.51739C32.0874 1.51739 32.0874 1.51739 32.0874 1.51739C32.0874 1.51739 32.0874 1.51739 32.0874 1.51739C32.0874 1.51739 32.0874 1.51739 32.0874 1.51739C32.0874 1.51739 32.0874 1.51739 32.0874 1.51739C32.0874 1.51739 32.0874 1.51739 32.0874 1.51739C32.0874 1.51739 32.0874 1.51739 32.0874 1.51739C32.0874 1.51739 32.0874 1.51739 32.0874 1.51739C32.0874 1.51739 32.0874 1.51739 32.0874 1.51739C32.0874 1.51739 32.0874 1.51739 32.0874 1.51739C32.0874 1.51739 32.0874 1.51739 32.0874 1.51739C32.0874 1.51739 32.0874 1.51739 32.0874 1.51739C32.0874 1.51739 32.0874 1.51739 32.0874 1.51739C32.0874 1.51739 32.0874 1.51739 32.0874 1.51739C32.0874 1.51739 32.0874 1.51739 32.0874 1.51739C32.0874 1.51739 32.0874 1.51739 32.0874 1.51739C32.0874 1.51739 32.0874 1.51739 32.0874 1.51739C32.0874 1.51739 32.0874 1.51739 32.0874 1.51739C32.0874 1.51739 32.0874 1.51739 32.0874 1.51739C32.0874 1.51739 32.0874 1.51739 32.0874 1.51739C32.0874 1.51739 32.0874 1.51739 32.0874 1.51739C32.0874 1.51739 32.0874 1.51739 32.0874 1.51739C32.0874 1.51739 32.0874 1.51739 32.0874 1.51739C32.0874 1.51739 32.0874 1.51739 32.0874 1.51739C32.0874 1.51739 32.0874 1.51739 32.0874 1.51739C32.0874 1.51739 32.0874 1.51739 32.0874 1.51739C32.0874 1.51739 32.0874 1.51739 32.0874 1.51739C32.0874 1.51739 32.0874 1.51739 32.0874 1.51739C32.0874 1.51739 32.0874 1.51739 32.0874 1.51739C32.0874 1.51739 32.0874 1.51739 32.0874 1.51739C32.0874 1.51739 32.0874 1.51739 32.0874 1.51739C32.0874 1.51739 32.0874 1.51739 32.0874 1.51739C32.0874 1.51739 32.0874 1.51739 32.0874 1.51739C32.0874 1.51739 32.0874 1.51739 32.0874 1.51739C32.0874 1.51739 32.0874 1.51739 32.0874 1.51739C32.0874 1.51739 32.0874 1.51739 32.0874 1.51739C32.0874 1.51739 32.0874 1.51739 32.0874 1.51739C32.0874 1.51739 32.0874 1.51739 32.0874 1.51739C32.0874 1.51739 32.0874 1.51739 32.0874 1.51739C32.0874 1.51739 32.0874 1.51739 32.0874 1.51739C32.0874 1.51739 32.0874 1.51739 32.0874 1.51739C32.0874 1.51739 32.0874 1.51739 32.0874 1.51739C32.0874 1.51739 32.0874 1.51739 32.0874 1.51739C32.0874 1.51739 32.0874 1.51739 32.0874 1.51739C32.0874 1.51739 32.0874 1.51739 32.0874 1.51739C32.0874 1.51739 32.0874 1.51739 32.0874 1.51739C32.0874 1.51739 32.0874 1.51739 32.0874 1.51739C32.0874 1.51739 32.0874 1.51739 32.0874 1.51739C32.0874 1.51739 32.0874 1.51739 32.0874 1.51739C32.0874 1.51739 32.0874 1.51739 32.0874 1.51739C32.0874 1.51739 32.0874 1.51739 32.0874 1.51739C32.0874 1.51739 32.0874 1.51739 32.0874 1.51739C32.0874 1.51739 32.0874 1.51739 32.0874 1.51739C32.0874 1.51739 32.0874 1.51739 32.0874 1.51739C32.0874 1.51739 32.0874 1.51739 32.0874 1.51739C32.0874 1.51739 32.0874 1.51739 32.0874 1.51739C32.0874 1.51739 32.0874 1.51739 32.0874 1.51739C32.0874 1.51739 32.0874 1.51739 32.0874 1.51739C32.0874 1.51739 32.0874 1.51739 32.0874 1.51739C32.0874 1.51739 32.0874 1.51739 32.0874 1.51739C32.0874 1.51739 32.0874 1.51739 32.0874 1.51739C32.0874 1.51739 32.0874 1.51739 32.0874 1.51739C32.0874 1.51739 32.0874 1.51739 32.0874 1.51739C32.0874 1.51739 32.0874 1.51739 32.0874 1.51739C32.0874 1.51739 32.0874 1.51739 32.0874 1.51739C32.0874 1.51739 32.0874 1.51739 32.0874 1.51739C32.0874 1.51739 32.0874 1.51739 32.0874 1.51739C32.0874 1.51739 32.0874 1.51739 32.0874 1.51739C32.0874 1.51739 32.0874 1.51739 32.0874 1.51739C32.0874 1.51739 32.0874 1.51739 32.0874 1.51739C32.0874 1.51739 32.0874 1.5174 32.0874 1.5174C32.0874 1.5174 32.0874 1.5174 32.0874 1.5174C32.0874 1.5174 32.0874 1.5174 32.0874 1.5174C32.0874 1.5174 32.0874 1.5174 32.0874 1.5174C32.0874 1.5174 32.0874 1.5174 32.0874 1.5174C32.0874 1.5174 32.0874 1.5174 32.0874 1.5174C32.0874 1.5174 32.0874 1.5174 32.0874 1.5174C32.0874 1.5174 32.0874 1.5174 32.0874 1.5174C32.0874 1.5174 32.0874 1.5174 32.0874 1.5174C32.0874 1.5174 32.0874 1.5174 32.0874 1.5174C32.0874 1.5174 32.0874 1.5174 32.0874 1.5174C32.0874 1.5174 32.0874 1.5174 32.0874 1.5174C32.0874 1.5174 32.0874 1.5174 32.0874 1.5174C32.0874 1.5174 32.0874 1.5174 32.0874 1.5174C32.0874 1.5174 32.0874 1.5174 32.0874 1.5174C32.0874 1.5174 32.0874 1.5174 32.0874 1.5174C32.0874 1.5174 32.0874 1.5174 32.0874 1.5174C32.0874 1.5174 32.0874 1.5174 32.0874 1.5174C32.0874 1.5174 32.0874 1.5174 32.0874 1.5174C32.0874 1.5174 32.0874 1.5174 32.0874 1.5174C32.0874 1.5174 32.0874 1.5174 32.0874 1.5174C32.0874 1.5174 32.0874 1.5174 32.0874 1.5174C32.0874 1.5174 32.0874 1.5174 32.0874 1.5174C32.0874 1.5174 32.0874 1.5174 32.0874 1.5174C32.0874 1.5174 32.0874 1.5174 32.0874 1.5174C32.0874 1.5174 32.0874 1.5174 32.0874 1.5174C32.0874 1.5174 32.0874 1.5174 32.0874 1.5174C32.0874 1.5174 32.0874 1.5174 32.0874 1.5174C32.0874 1.5174 32.0874 1.5174 32.0874 1.5174C32.0874 1.5174 32.0874 1.5174 32.0874 1.5174C32.0874 1.5174 32.0874 1.5174 32.0874 1.5174C32.0874 1.5174 32.0874 1.5174 32.0874 1.5174C32.0874 1.5174 32.0874 1.5174 32.0874 1.5174C32.0874 1.5174 32.0874 1.5174 32.0874 1.5174C32.0874 1.5174 32.0874 1.5174 32.0874 1.5174C32.0874 1.5174 32.0874 1.5174 32.0874 1.5174C32.0874 1.5174 32.0874 1.5174 32.0874 1.5174C32.0874 1.5174 32.0874 1.5174 32.0874 1.5174C32.0874 1.5174 32.0874 1.5174 32.0874 1.5174C32.0874 1.5174 32.0874 1.5174 32.0874 1.5174C32.0874 1.5174 32.0874 1.5174 32.0874 1.5174C32.0874 1.5174 32.0874 1.5174 32.0874 1.5174C32.0874 1.5174 32.0874 1.5174 32.0874 1.5174C32.0874 1.5174 32.0874 1.5174 32.0874 1.5174C32.0874 1.5174 32.0874 1.5174 32.0874 1.5174C32.0874 1.5174 32.0874 1.5174 32.0874 1.5174C32.0874 1.5174 32.0874 1.5174 32.0874 1.5174C32.0874 1.5174 32.0874 1.5174 32.0874 1.5174C32.0874 1.5174 32.0874 1.5174 32.0874 1.5174C32.0874 1.5174 32.0874 1.5174 32.0874 1.5174C32.0874 1.5174 32.0874 1.5174 32.0874 1.5174C32.0874 1.5174 32.0874 1.5174 32.0874 1.5174C32.0874 1.5174 32.0874 1.5174 32.0874 1.5174C32.0874 1.5174 32.0874 1.5174 32.0874 1.5174C32.0874 1.5174 32.0874 1.5174 32.0874 1.5174C32.0874 1.5174 32.0874 1.5174 32.0874 1.5174C32.0874 1.5174 32.0874 1.5174 32.0874 1.5174C32.0874 1.5174 32.0874 1.5174 32.0874 1.5174C32.0874 1.5174 32.0874 1.5174 32.0874 1.5174C32.0874 1.5174 32.0874 1.5174 32.0874 1.5174C32.0874 1.5174 32.0874 1.5174 32.0874 1.5174C32.0874 1.5174 32.0874 1.5174 32.0874 1.5174C32.0874 1.5174 32.0874 1.5174 32.0874 1.5174C32.0874 1.5174 32.0874 1.5174 32.0874 1.5174C32.0874 1.5174 32.0874 1.5174 32.0874 1.5174C32.0874 1.5174 32.0874 1.5174 32.0874 1.5174C32.0874 1.5174 32.0874 1.5174 32.0874 1.5174C32.0874 1.5174 32.0874 1.5174 32.0874 1.5174C32.0874 1.5174 32.0874 1.5174 32.0874 1.5174C32.0874 1.5174 32.0874 1.5174 32.0874 1.5174C32.0874 1.5174 32.0874 1.5174 32.0874 1.5174C32.0874 1.5174 32.0874 1.5174 32.0874 1.5174C32.0874 1.5174 32.0874 1.5174 32.0874 1.5174C32.0874 1.5174 32.0874 1.5174 32.0874 1.5174C32.0874 1.5174 32.0874 1.5174 32.0874 1.5174C32.0874 1.51741 32.0874 1.51741 32.0874 1.51741C32.0874 1.51741 32.0874 1.51741 32.0874 1.51741C32.0874 1.51741 32.0874 1.51741 32.0874 1.51741C32.0874 1.51741 32.0874 1.51741 32.0874 1.51741C32.0874 1.51741 32.0874 1.51741 32.0874 1.51741C32.0874 1.51741 32.0874 1.51741 32.0874 1.51741C32.0874 1.51741 32.0874 1.51741 32.0874 1.51741C32.0874 1.51741 32.0874 1.51741 32.0874 1.51741C32.0874 1.51741 32.0874 1.51741 32.0874 1.51741C32.0874 1.51741 32.0874 1.51741 32.0874 1.51741C32.0874 1.51741 32.0874 1.51741 32.0874 1.51741C32.0874 1.51741 32.0874 1.51741 32.0874 1.51741C32.0874 1.51741 32.0874 1.51741 32.0874 1.51741C32.0874 1.51741 32.0874 1.51741 32.0874 1.51741C32.0874 1.51741 32.0874 1.51741 32.0874 1.51741C32.0874 1.51741 32.0874 1.51741 32.0874 1.51741C32.0874 1.51741 32.0874 1.51741 32.0874 1.51741C32.0874 1.51741 32.0874 1.51741 32.0874 1.51741C32.0874 1.51741 32.0874 1.51741 32.0874 1.51741C32.0874 1.51741 32.0874 1.51741 32.0874 1.51741C32.0874 1.51741 32.0874 1.51741 32.0874 1.51741C32.0874 1.51741 32.0874 1.51741 32.0874 1.51741C32.0874 1.51741 32.0874 1.51741 32.0874 1.51741C32.0874 1.51741 32.0874 1.51741 32.0874 1.51741C32.0874 1.51741 32.0874 1.51741 32.0874 1.51741C32.0874 1.51741 32.0874 1.51741 32.0874 1.51741C32.0874 1.51741 32.0874 1.51741 32.0874 1.51741C32.0874 1.51741 32.0874 1.51741 32.0874 1.51741C32.0874 1.51741 32.0874 1.51741 32.0874 1.51741C32.0874 1.51741 32.0874 1.51741 32.0874 1.51741C32.0874 1.51741 32.0874 1.51741 32.0874 1.51741C32.0874 1.51741 32.0874 1.51741 32.0874 1.51741C32.0874 1.51741 32.0874 1.51741 32.0874 1.51741C32.0874 1.51741 32.0874 1.51741 32.0874 1.51741C32.0874 1.51741 32.0874 1.51741 32.0874 1.51741C32.0874 1.51741 32.0874 1.51741 32.0874 1.51741C32.0874 1.51741 32.0874 1.51741 32.0874 1.51741C32.0874 1.51741 32.0874 1.51741 32.0874 1.51741C32.0874 1.51741 32.0874 1.51741 32.0874 1.51741C32.0874 1.51741 32.0874 1.51741 32.0874 1.51741C32.0874 1.51741 32.0874 1.51741 32.0874 1.51741C32.0874 1.51741 32.0874 1.51741 32.0874 1.51741C32.0874 1.51741 32.0874 1.51741 32.0874 1.51741C32.0874 1.51741 32.0874 1.51741 32.0874 1.51741C32.0874 1.51741 32.0874 1.51741 32.0874 1.51741C32.0874 1.51741 32.0874 1.51741 32.0874 1.51741C32.0874 1.51741 32.0874 1.51741 32.0874 1.51741C32.0874 1.51741 32.0874 1.51741 32.0874 1.51741C32.0874 1.51741 32.0874 1.51741 32.0874 1.51741C32.0874 1.51741 32.0874 1.51741 32.0874 1.51741C32.0874 1.51741 32.0874 1.51741 32.0874 1.51741C32.0874 1.51741 32.0874 1.51741 32.0874 1.51741C32.0874 1.51741 32.0874 1.51741 32.0874 1.51741C32.0874 1.51741 32.0874 1.51741 32.0874 1.51741C32.0874 1.51741 32.0874 1.51741 32.0874 1.51741C32.0874 1.51741 32.0874 1.51741 32.0874 1.51741C32.0874 1.51741 32.0874 1.51741 32.0874 1.51741C32.0874 1.51741 32.0874 1.51741 32.0874 1.51741C32.0874 1.51741 32.0874 1.51741 32.0874 1.51741C32.0874 1.51741 32.0874 1.51741 32.0874 1.51741C32.0874 1.51741 32.0874 1.51741 32.0874 1.51741C32.0874 1.51741 32.0874 1.51741 32.0874 1.51741C32.0874 1.51741 32.0874 1.51741 32.0874 1.51741C32.0874 1.51741 32.0874 1.51741 32.0874 1.51741C32.0874 1.51741 32.0874 1.51741 32.0874 1.51741C32.0874 1.51741 32.0874 1.51741 32.0874 1.51741C32.0874 1.51741 32.0874 1.51741 32.0874 1.51741C32.0874 1.51741 32.0874 1.51741 32.0874 1.51741C32.0874 1.51741 32.0874 1.51741 32.0874 1.51741C32.0874 1.51741 32.0874 1.51741 32.0874 1.51741C32.0874 1.51741 32.0874 1.51741 32.0874 1.51741C32.0874 1.51741 32.0874 1.51741 32.0874 1.51741C32.0874 1.51741 32.0874 1.51741 32.0874 1.51741C32.0874 1.51741 32.0874 1.51741 32.0874 1.51741C32.0874 1.51741 32.0874 1.51741 32.0874 1.51742C32.0874 1.51742 32.0874 1.51742 32.0874 1.51742C32.0874 1.51742 32.0874 1.51742 32.0874 1.51742C32.0874 1.51742 32.0874 1.51742 32.0874 1.51742C32.0874 1.51742 32.0874 1.51742 32.0874 1.51742C32.0874 1.51742 32.0874 1.51742 32.0874 1.51742C32.0874 1.51742 32.0874 1.51742 32.0874 1.51742C32.0874 1.51742 32.0874 1.51742 32.0874 1.51742C32.0874 1.51742 32.0874 1.51742 32.0874 1.51742C32.0874 1.51742 32.0874 1.51742 32.0874 1.51742C32.0874 1.51742 32.0874 1.51742 32.0874 1.51742C32.0874 1.51742 32.0874 1.51742 32.0874 1.51742C32.0874 1.51742 32.0874 1.51742 32.0874 1.51742C32.0874 1.51742 32.0874 1.51742 32.0874 1.51742C32.0874 1.51742 32.0874 1.51742 32.0874 1.51742C32.0874 1.51742 32.0874 1.51742 32.0874 1.51742C32.0874 1.51742 32.0874 1.51742 32.0874 1.51742C32.0874 1.51742 32.0874 1.51742 32.0874 1.51742C32.0874 1.51742 32.0874 1.51742 32.0874 1.51742C32.0874 1.51742 32.0874 1.51742 32.0874 1.51742C32.0874 1.51742 32.0874 1.51742 32.0874 1.51742C32.0874 1.51742 32.0874 1.51742 32.0874 1.51742H33.0874C33.0874 1.51742 33.0874 1.51742 33.0874 1.51742C33.0874 1.51742 33.0874 1.51742 33.0874 1.51742C33.0874 1.51742 33.0874 1.51742 33.0874 1.51742C33.0874 1.51742 33.0874 1.51742 33.0874 1.51742C33.0874 1.51742 33.0874 1.51742 33.0874 1.51742C33.0874 1.51742 33.0874 1.51742 33.0874 1.51742C33.0874 1.51742 33.0874 1.51742 33.0874 1.51742C33.0874 1.51742 33.0874 1.51742 33.0874 1.51742C33.0874 1.51742 33.0874 1.51742 33.0874 1.51742C33.0874 1.51742 33.0874 1.51742 33.0874 1.51742C33.0874 1.51742 33.0874 1.51742 33.0874 1.51742C33.0874 1.51742 33.0874 1.51742 33.0874 1.51742C33.0874 1.51742 33.0874 1.51742 33.0874 1.51742C33.0874 1.51742 33.0874 1.51742 33.0874 1.51742C33.0874 1.51742 33.0874 1.51742 33.0874 1.51742C33.0874 1.51742 33.0874 1.51742 33.0874 1.51742C33.0874 1.51742 33.0874 1.51742 33.0874 1.51742C33.0874 1.51742 33.0874 1.51742 33.0874 1.51742C33.0874 1.51742 33.0874 1.51742 33.0874 1.51742C33.0874 1.51742 33.0874 1.51742 33.0874 1.51742C33.0874 1.51742 33.0874 1.51742 33.0874 1.51742C33.0874 1.51741 33.0874 1.51741 33.0874 1.51741C33.0874 1.51741 33.0874 1.51741 33.0874 1.51741C33.0874 1.51741 33.0874 1.51741 33.0874 1.51741C33.0874 1.51741 33.0874 1.51741 33.0874 1.51741C33.0874 1.51741 33.0874 1.51741 33.0874 1.51741C33.0874 1.51741 33.0874 1.51741 33.0874 1.51741C33.0874 1.51741 33.0874 1.51741 33.0874 1.51741C33.0874 1.51741 33.0874 1.51741 33.0874 1.51741C33.0874 1.51741 33.0874 1.51741 33.0874 1.51741C33.0874 1.51741 33.0874 1.51741 33.0874 1.51741C33.0874 1.51741 33.0874 1.51741 33.0874 1.51741C33.0874 1.51741 33.0874 1.51741 33.0874 1.51741C33.0874 1.51741 33.0874 1.51741 33.0874 1.51741C33.0874 1.51741 33.0874 1.51741 33.0874 1.51741C33.0874 1.51741 33.0874 1.51741 33.0874 1.51741C33.0874 1.51741 33.0874 1.51741 33.0874 1.51741C33.0874 1.51741 33.0874 1.51741 33.0874 1.51741C33.0874 1.51741 33.0874 1.51741 33.0874 1.51741C33.0874 1.51741 33.0874 1.51741 33.0874 1.51741C33.0874 1.51741 33.0874 1.51741 33.0874 1.51741C33.0874 1.51741 33.0874 1.51741 33.0874 1.51741C33.0874 1.51741 33.0874 1.51741 33.0874 1.51741C33.0874 1.51741 33.0874 1.51741 33.0874 1.51741C33.0874 1.51741 33.0874 1.51741 33.0874 1.51741C33.0874 1.51741 33.0874 1.51741 33.0874 1.51741C33.0874 1.51741 33.0874 1.51741 33.0874 1.51741C33.0874 1.51741 33.0874 1.51741 33.0874 1.51741C33.0874 1.51741 33.0874 1.51741 33.0874 1.51741C33.0874 1.51741 33.0874 1.51741 33.0874 1.51741C33.0874 1.51741 33.0874 1.51741 33.0874 1.51741C33.0874 1.51741 33.0874 1.51741 33.0874 1.51741C33.0874 1.51741 33.0874 1.51741 33.0874 1.51741C33.0874 1.51741 33.0874 1.51741 33.0874 1.51741C33.0874 1.51741 33.0874 1.51741 33.0874 1.51741C33.0874 1.51741 33.0874 1.51741 33.0874 1.51741C33.0874 1.51741 33.0874 1.51741 33.0874 1.51741C33.0874 1.51741 33.0874 1.51741 33.0874 1.51741C33.0874 1.51741 33.0874 1.51741 33.0874 1.51741C33.0874 1.51741 33.0874 1.51741 33.0874 1.51741C33.0874 1.51741 33.0874 1.51741 33.0874 1.51741C33.0874 1.51741 33.0874 1.51741 33.0874 1.51741C33.0874 1.51741 33.0874 1.51741 33.0874 1.51741C33.0874 1.51741 33.0874 1.51741 33.0874 1.51741C33.0874 1.51741 33.0874 1.51741 33.0874 1.51741C33.0874 1.51741 33.0874 1.51741 33.0874 1.51741C33.0874 1.51741 33.0874 1.51741 33.0874 1.51741C33.0874 1.51741 33.0874 1.51741 33.0874 1.51741C33.0874 1.51741 33.0874 1.51741 33.0874 1.51741C33.0874 1.51741 33.0874 1.51741 33.0874 1.51741C33.0874 1.51741 33.0874 1.51741 33.0874 1.51741C33.0874 1.51741 33.0874 1.51741 33.0874 1.51741C33.0874 1.51741 33.0874 1.51741 33.0874 1.51741C33.0874 1.51741 33.0874 1.51741 33.0874 1.51741C33.0874 1.51741 33.0874 1.51741 33.0874 1.51741C33.0874 1.51741 33.0874 1.51741 33.0874 1.51741C33.0874 1.51741 33.0874 1.51741 33.0874 1.51741C33.0874 1.51741 33.0874 1.51741 33.0874 1.51741C33.0874 1.51741 33.0874 1.51741 33.0874 1.51741C33.0874 1.51741 33.0874 1.51741 33.0874 1.51741C33.0874 1.51741 33.0874 1.51741 33.0874 1.51741C33.0874 1.51741 33.0874 1.51741 33.0874 1.51741C33.0874 1.51741 33.0874 1.51741 33.0874 1.51741C33.0874 1.51741 33.0874 1.51741 33.0874 1.51741C33.0874 1.51741 33.0874 1.51741 33.0874 1.51741C33.0874 1.51741 33.0874 1.51741 33.0874 1.51741C33.0874 1.51741 33.0874 1.51741 33.0874 1.51741C33.0874 1.51741 33.0874 1.51741 33.0874 1.51741C33.0874 1.51741 33.0874 1.51741 33.0874 1.51741C33.0874 1.51741 33.0874 1.51741 33.0874 1.51741C33.0874 1.51741 33.0874 1.51741 33.0874 1.51741C33.0874 1.51741 33.0874 1.51741 33.0874 1.51741C33.0874 1.51741 33.0874 1.51741 33.0874 1.51741C33.0874 1.51741 33.0874 1.51741 33.0874 1.51741C33.0874 1.51741 33.0874 1.51741 33.0874 1.51741C33.0874 1.51741 33.0874 1.51741 33.0874 1.5174C33.0874 1.5174 33.0874 1.5174 33.0874 1.5174C33.0874 1.5174 33.0874 1.5174 33.0874 1.5174C33.0874 1.5174 33.0874 1.5174 33.0874 1.5174C33.0874 1.5174 33.0874 1.5174 33.0874 1.5174C33.0874 1.5174 33.0874 1.5174 33.0874 1.5174C33.0874 1.5174 33.0874 1.5174 33.0874 1.5174C33.0874 1.5174 33.0874 1.5174 33.0874 1.5174C33.0874 1.5174 33.0874 1.5174 33.0874 1.5174C33.0874 1.5174 33.0874 1.5174 33.0874 1.5174C33.0874 1.5174 33.0874 1.5174 33.0874 1.5174C33.0874 1.5174 33.0874 1.5174 33.0874 1.5174C33.0874 1.5174 33.0874 1.5174 33.0874 1.5174C33.0874 1.5174 33.0874 1.5174 33.0874 1.5174C33.0874 1.5174 33.0874 1.5174 33.0874 1.5174C33.0874 1.5174 33.0874 1.5174 33.0874 1.5174C33.0874 1.5174 33.0874 1.5174 33.0874 1.5174C33.0874 1.5174 33.0874 1.5174 33.0874 1.5174C33.0874 1.5174 33.0874 1.5174 33.0874 1.5174C33.0874 1.5174 33.0874 1.5174 33.0874 1.5174C33.0874 1.5174 33.0874 1.5174 33.0874 1.5174C33.0874 1.5174 33.0874 1.5174 33.0874 1.5174C33.0874 1.5174 33.0874 1.5174 33.0874 1.5174C33.0874 1.5174 33.0874 1.5174 33.0874 1.5174C33.0874 1.5174 33.0874 1.5174 33.0874 1.5174C33.0874 1.5174 33.0874 1.5174 33.0874 1.5174C33.0874 1.5174 33.0874 1.5174 33.0874 1.5174C33.0874 1.5174 33.0874 1.5174 33.0874 1.5174C33.0874 1.5174 33.0874 1.5174 33.0874 1.5174C33.0874 1.5174 33.0874 1.5174 33.0874 1.5174C33.0874 1.5174 33.0874 1.5174 33.0874 1.5174C33.0874 1.5174 33.0874 1.5174 33.0874 1.5174C33.0874 1.5174 33.0874 1.5174 33.0874 1.5174C33.0874 1.5174 33.0874 1.5174 33.0874 1.5174C33.0874 1.5174 33.0874 1.5174 33.0874 1.5174C33.0874 1.5174 33.0874 1.5174 33.0874 1.5174C33.0874 1.5174 33.0874 1.5174 33.0874 1.5174C33.0874 1.5174 33.0874 1.5174 33.0874 1.5174C33.0874 1.5174 33.0874 1.5174 33.0874 1.5174C33.0874 1.5174 33.0874 1.5174 33.0874 1.5174C33.0874 1.5174 33.0874 1.5174 33.0874 1.5174C33.0874 1.5174 33.0874 1.5174 33.0874 1.5174C33.0874 1.5174 33.0874 1.5174 33.0874 1.5174C33.0874 1.5174 33.0874 1.5174 33.0874 1.5174C33.0874 1.5174 33.0874 1.5174 33.0874 1.5174C33.0874 1.5174 33.0874 1.5174 33.0874 1.5174C33.0874 1.5174 33.0874 1.5174 33.0874 1.5174C33.0874 1.5174 33.0874 1.5174 33.0874 1.5174C33.0874 1.5174 33.0874 1.5174 33.0874 1.5174C33.0874 1.5174 33.0874 1.5174 33.0874 1.5174C33.0874 1.5174 33.0874 1.5174 33.0874 1.5174C33.0874 1.5174 33.0874 1.5174 33.0874 1.5174C33.0874 1.5174 33.0874 1.5174 33.0874 1.5174C33.0874 1.5174 33.0874 1.5174 33.0874 1.5174C33.0874 1.5174 33.0874 1.5174 33.0874 1.5174C33.0874 1.5174 33.0874 1.5174 33.0874 1.5174C33.0874 1.5174 33.0874 1.5174 33.0874 1.5174C33.0874 1.5174 33.0874 1.5174 33.0874 1.5174C33.0874 1.5174 33.0874 1.5174 33.0874 1.5174C33.0874 1.5174 33.0874 1.5174 33.0874 1.5174C33.0874 1.5174 33.0874 1.5174 33.0874 1.5174C33.0874 1.5174 33.0874 1.5174 33.0874 1.5174C33.0874 1.5174 33.0874 1.5174 33.0874 1.5174C33.0874 1.5174 33.0874 1.5174 33.0874 1.5174C33.0874 1.5174 33.0874 1.5174 33.0874 1.5174C33.0874 1.5174 33.0874 1.5174 33.0874 1.5174C33.0874 1.5174 33.0874 1.5174 33.0874 1.5174C33.0874 1.5174 33.0874 1.5174 33.0874 1.5174C33.0874 1.5174 33.0874 1.5174 33.0874 1.5174C33.0874 1.5174 33.0874 1.5174 33.0874 1.5174C33.0874 1.5174 33.0874 1.5174 33.0874 1.5174C33.0874 1.5174 33.0874 1.5174 33.0874 1.5174C33.0874 1.5174 33.0874 1.5174 33.0874 1.5174C33.0874 1.5174 33.0874 1.5174 33.0874 1.5174C33.0874 1.5174 33.0874 1.5174 33.0874 1.5174C33.0874 1.5174 33.0874 1.51739 33.0874 1.51739C33.0874 1.51739 33.0874 1.51739 33.0874 1.51739C33.0874 1.51739 33.0874 1.51739 33.0874 1.51739C33.0874 1.51739 33.0874 1.51739 33.0874 1.51739C33.0874 1.51739 33.0874 1.51739 33.0874 1.51739C33.0874 1.51739 33.0874 1.51739 33.0874 1.51739C33.0874 1.51739 33.0874 1.51739 33.0874 1.51739C33.0874 1.51739 33.0874 1.51739 33.0874 1.51739C33.0874 1.51739 33.0874 1.51739 33.0874 1.51739C33.0874 1.51739 33.0874 1.51739 33.0874 1.51739C33.0874 1.51739 33.0874 1.51739 33.0874 1.51739C33.0874 1.51739 33.0874 1.51739 33.0874 1.51739C33.0874 1.51739 33.0874 1.51739 33.0874 1.51739C33.0874 1.51739 33.0874 1.51739 33.0874 1.51739C33.0874 1.51739 33.0874 1.51739 33.0874 1.51739C33.0874 1.51739 33.0874 1.51739 33.0874 1.51739C33.0874 1.51739 33.0874 1.51739 33.0874 1.51739C33.0874 1.51739 33.0874 1.51739 33.0874 1.51739C33.0874 1.51739 33.0874 1.51739 33.0874 1.51739C33.0874 1.51739 33.0874 1.51739 33.0874 1.51739C33.0874 1.51739 33.0874 1.51739 33.0874 1.51739C33.0874 1.51739 33.0874 1.51739 33.0874 1.51739C33.0874 1.51739 33.0874 1.51739 33.0874 1.51739C33.0874 1.51739 33.0874 1.51739 33.0874 1.51739C33.0874 1.51739 33.0874 1.51739 33.0874 1.51739C33.0874 1.51739 33.0874 1.51739 33.0874 1.51739C33.0874 1.51739 33.0874 1.51739 33.0874 1.51739C33.0874 1.51739 33.0874 1.51739 33.0874 1.51739C33.0874 1.51739 33.0874 1.51739 33.0874 1.51739C33.0874 1.51739 33.0874 1.51739 33.0874 1.51739C33.0874 1.51739 33.0874 1.51739 33.0874 1.51739C33.0874 1.51739 33.0874 1.51739 33.0874 1.51739C33.0874 1.51739 33.0874 1.51739 33.0874 1.51739C33.0874 1.51739 33.0874 1.51739 33.0874 1.51739C33.0874 1.51739 33.0874 1.51739 33.0874 1.51739C33.0874 1.51739 33.0874 1.51739 33.0874 1.51739C33.0874 1.51739 33.0874 1.51739 33.0874 1.51739C33.0874 1.51739 33.0874 1.51739 33.0874 1.51739C33.0874 1.51739 33.0874 1.51739 33.0874 1.51739C33.0874 1.51739 33.0874 1.51739 33.0874 1.51739C33.0874 1.51739 33.0874 1.51739 33.0874 1.51739C33.0874 1.51739 33.0874 1.51739 33.0874 1.51739C33.0874 1.51739 33.0874 1.51739 33.0874 1.51739C33.0874 1.51739 33.0874 1.51739 33.0874 1.51739C33.0874 1.51739 33.0874 1.51739 33.0874 1.51739C33.0874 1.51739 33.0874 1.51739 33.0874 1.51739C33.0874 1.51739 33.0874 1.51739 33.0874 1.51739C33.0874 1.51739 33.0874 1.51739 33.0874 1.51739C33.0874 1.51739 33.0874 1.51739 33.0874 1.51739C33.0874 1.51739 33.0874 1.51739 33.0874 1.51739C33.0874 1.51739 33.0874 1.51739 33.0874 1.51739C33.0874 1.51739 33.0874 1.51739 33.0874 1.51739C33.0874 1.51739 33.0874 1.51739 33.0874 1.51739C33.0874 1.51739 33.0874 1.51739 33.0874 1.51739C33.0874 1.51739 33.0874 1.51739 33.0874 1.51739C33.0874 1.51739 33.0874 1.51739 33.0874 1.51739C33.0874 1.51739 33.0874 1.51739 33.0874 1.51739C33.0874 1.51739 33.0874 1.51739 33.0874 1.51739C33.0874 1.51739 33.0874 1.51739 33.0874 1.51739C33.0874 1.51739 33.0874 1.51739 33.0874 1.51739C33.0874 1.51739 33.0874 1.51739 33.0874 1.51739C33.0874 1.51739 33.0874 1.51739 33.0874 1.51739C33.0874 1.51739 33.0874 1.51739 33.0874 1.51739C33.0874 1.51739 33.0874 1.51739 33.0874 1.51739C33.0874 1.51739 33.0874 1.51739 33.0874 1.51739C33.0874 1.51739 33.0874 1.51739 33.0874 1.51739C33.0874 1.51739 33.0874 1.51739 33.0874 1.51739C33.0874 1.51739 33.0874 1.51739 33.0874 1.51739C33.0874 1.51739 33.0874 1.51739 33.0874 1.51739C33.0874 1.51739 33.0874 1.51739 33.0874 1.51739C33.0874 1.51739 33.0874 1.51739 33.0874 1.51739C33.0874 1.51739 33.0874 1.51739 33.0874 1.51739C33.0874 1.51739 33.0874 1.51739 33.0874 1.51739C33.0874 1.51739 33.0874 1.51739 33.0874 1.51739C33.0874 1.51739 33.0874 1.51739 33.0874 1.51739C33.0874 1.51738 33.0874 1.51738 33.0874 1.51738C33.0874 1.51738 33.0874 1.51738 33.0874 1.51738C33.0874 1.51738 33.0874 1.51738 33.0874 1.51738C33.0874 1.51738 33.0874 1.51738 33.0874 1.51738C33.0874 1.51738 33.0874 1.51738 33.0874 1.51738C33.0874 1.51738 33.0874 1.51738 33.0874 1.51738C33.0874 1.51738 33.0874 1.51738 33.0874 1.51738C33.0874 1.51738 33.0874 1.51738 33.0874 1.51738C33.0874 1.51738 33.0874 1.51738 33.0874 1.51738C33.0874 1.51738 33.0874 1.51738 33.0874 1.51738C33.0874 1.51738 33.0874 1.51738 33.0874 1.51738C33.0874 1.51738 33.0874 1.51738 33.0874 1.51738C33.0874 1.51738 33.0874 1.51738 33.0874 1.51738C33.0874 1.51738 33.0874 1.51738 33.0874 1.51738C33.0874 1.51738 33.0874 1.51738 33.0874 1.51738C33.0874 1.51738 33.0874 1.51738 33.0874 1.51738C33.0874 1.51738 33.0874 1.51738 33.0874 1.51738C33.0874 1.51738 33.0874 1.51738 33.0874 1.51738C33.0874 1.51738 33.0874 1.51738 33.0874 1.51738C33.0874 1.51738 33.0874 1.51738 33.0874 1.51738C33.0874 1.51738 33.0874 1.51738 33.0874 1.51738C33.0874 1.51738 33.0874 1.51738 33.0874 1.51738C33.0874 1.51738 33.0874 1.51738 33.0874 1.51738C33.0874 1.51738 33.0874 1.51738 33.0874 1.51738C33.0874 1.51738 33.0874 1.51738 33.0874 1.51738C33.0874 1.51738 33.0874 1.51738 33.0874 1.51738C33.0874 1.51738 33.0874 1.51738 33.0874 1.51738C33.0874 1.51738 33.0874 1.51738 33.0874 1.51738C33.0874 1.51738 33.0874 1.51738 33.0874 1.51738C33.0874 1.51738 33.0874 1.51738 33.0874 1.51738C33.0874 1.51738 33.0874 1.51738 33.0874 1.51738C33.0874 1.51738 33.0874 1.51738 33.0874 1.51738C33.0874 1.51738 33.0874 1.51738 33.0874 1.51738C33.0874 1.51738 33.0874 1.51738 33.0874 1.51738C33.0874 1.51738 33.0874 1.51738 33.0874 1.51738C33.0874 1.51738 33.0874 1.51738 33.0874 1.51738C33.0874 1.51738 33.0874 1.51738 33.0874 1.51738C33.0874 1.51738 33.0874 1.51738 33.0874 1.51738C33.0874 1.51738 33.0874 1.51738 33.0874 1.51738C33.0874 1.51738 33.0874 1.51738 33.0874 1.51738C33.0874 1.51738 33.0874 1.51738 33.0874 1.51738C33.0874 1.51738 33.0874 1.51738 33.0874 1.51738C33.0874 1.51738 33.0874 1.51738 33.0874 1.51738C33.0874 1.51738 33.0874 1.51738 33.0874 1.51738C33.0874 1.51738 33.0874 1.51738 33.0874 1.51738C33.0874 1.51738 33.0874 1.51738 33.0874 1.51738C33.0874 1.51738 33.0874 1.51738 33.0874 1.51738C33.0874 1.51738 33.0874 1.51738 33.0874 1.51738C33.0874 1.51738 33.0874 1.51738 33.0874 1.51738C33.0874 1.51738 33.0874 1.51738 33.0874 1.51738C33.0874 1.51738 33.0874 1.51738 33.0874 1.51738C33.0874 1.51738 33.0874 1.51738 33.0874 1.51738C33.0874 1.51738 33.0874 1.51738 33.0874 1.51738C33.0874 1.51738 33.0874 1.51738 33.0874 1.51738C33.0874 1.51738 33.0874 1.51738 33.0874 1.51738C33.0874 1.51738 33.0874 1.51738 33.0874 1.51738C33.0874 1.51738 33.0874 1.51738 33.0874 1.51738C33.0874 1.51738 33.0874 1.51738 33.0874 1.51738C33.0874 1.51738 33.0874 1.51738 33.0874 1.51738C33.0874 1.51738 33.0874 1.51738 33.0874 1.51738C33.0874 1.51738 33.0874 1.51738 33.0874 1.51738C33.0874 1.51738 33.0874 1.51738 33.0874 1.51738C33.0874 1.51738 33.0874 1.51738 33.0874 1.51738C33.0874 1.51738 33.0874 1.51738 33.0874 1.51738C33.0874 1.51738 33.0874 1.51738 33.0874 1.51738C33.0874 1.51738 33.0874 1.51738 33.0874 1.51738C33.0874 1.51738 33.0874 1.51738 33.0874 1.51738C33.0874 1.51738 33.0874 1.51738 33.0874 1.51738C33.0874 1.51738 33.0874 1.51738 33.0874 1.51738C33.0874 1.51738 33.0874 1.51738 33.0874 1.51738C33.0874 1.51738 33.0874 1.51738 33.0874 1.51738C33.0874 1.51738 33.0874 1.51738 33.0874 1.51738C33.0874 1.51738 33.0874 1.51738 33.0874 1.51738C33.0874 1.51738 33.0874 1.51738 33.0874 1.51738C33.0874 1.51738 33.0874 1.51738 33.0874 1.51737C33.0874 1.51737 33.0874 1.51737 33.0874 1.51737C33.0874 1.51737 33.0874 1.51737 33.0874 1.51737C33.0874 1.51737 33.0874 1.51737 33.0874 1.51737C33.0874 1.51737 33.0874 1.51737 33.0874 1.51737C33.0874 1.51737 33.0874 1.51737 33.0874 1.51737C33.0874 1.51737 33.0874 1.51737 33.0874 1.51737C33.0874 1.51737 33.0874 1.51737 33.0874 1.51737C33.0874 1.51737 33.0874 1.51737 33.0874 1.51737C33.0874 1.51737 33.0874 1.51737 33.0874 1.51737C33.0874 1.51737 33.0874 1.51737 33.0874 1.51737C33.0874 1.51737 33.0874 1.51737 33.0874 1.51737C33.0874 1.51737 33.0874 1.51737 33.0874 1.51737C33.0874 1.51737 33.0874 1.51737 33.0874 1.51737C33.0874 1.51737 33.0874 1.51737 33.0874 1.51737C33.0874 1.51737 33.0874 1.51737 33.0874 1.51737C33.0874 1.51737 33.0874 1.51737 33.0874 1.51737C33.0874 1.51737 33.0874 1.51737 33.0874 1.51737C33.0874 1.51737 33.0874 1.51737 33.0874 1.51737C33.0874 1.51737 33.0874 1.51737 33.0874 1.51737C33.0874 1.51737 33.0874 1.51737 33.0874 1.51737C33.0874 1.51737 33.0874 1.51737 33.0874 1.51737C33.0874 1.51737 33.0874 1.51737 33.0874 1.51737C33.0874 1.51737 33.0874 1.51737 33.0874 1.51737C33.0874 1.51737 33.0874 1.51737 33.0874 1.51737C33.0874 1.51737 33.0874 1.51737 33.0874 1.51737C33.0874 1.51737 33.0874 1.51737 33.0874 1.51737C33.0874 1.51737 33.0874 1.51737 33.0874 1.51737C33.0874 1.51737 33.0874 1.51737 33.0874 1.51737C33.0874 1.51737 33.0874 1.51737 33.0874 1.51737C33.0874 1.51737 33.0874 1.51737 33.0874 1.51737C33.0874 1.51737 33.0874 1.51737 33.0874 1.51737C33.0874 1.51737 33.0874 1.51737 33.0874 1.51737C33.0874 1.51737 33.0874 1.51737 33.0874 1.51737C33.0874 1.51737 33.0874 1.51737 33.0874 1.51737C33.0874 1.51737 33.0874 1.51737 33.0874 1.51737C33.0874 1.51737 33.0874 1.51737 33.0874 1.51737C33.0874 1.51737 33.0874 1.51737 33.0874 1.51737C33.0874 1.51737 33.0874 1.51737 33.0874 1.51737C33.0874 1.51737 33.0874 1.51737 33.0874 1.51737C33.0874 1.51737 33.0874 1.51737 33.0874 1.51737C33.0874 1.51737 33.0874 1.51737 33.0874 1.51737C33.0874 1.51737 33.0874 1.51737 33.0874 1.51737C33.0874 1.51737 33.0874 1.51737 33.0874 1.51737C33.0874 1.51737 33.0874 1.51737 33.0874 1.51737C33.0874 1.51737 33.0874 1.51737 33.0874 1.51737C33.0874 1.51737 33.0874 1.51737 33.0874 1.51737C33.0874 1.51737 33.0874 1.51737 33.0874 1.51737C33.0874 1.51737 33.0874 1.51737 33.0874 1.51737C33.0874 1.51737 33.0874 1.51737 33.0874 1.51737C33.0874 1.51737 33.0874 1.51737 33.0874 1.51737C33.0874 1.51737 33.0874 1.51737 33.0874 1.51737C33.0874 1.51737 33.0874 1.51737 33.0874 1.51737C33.0874 1.51737 33.0874 1.51737 33.0874 1.51737C33.0874 1.51737 33.0874 1.51737 33.0874 1.51737C33.0874 1.51737 33.0874 1.51737 33.0874 1.51737C33.0874 1.51737 33.0874 1.51737 33.0874 1.51737C33.0874 1.51737 33.0874 1.51737 33.0874 1.51737C33.0874 1.51737 33.0874 1.51737 33.0874 1.51737C33.0874 1.51737 33.0874 1.51737 33.0874 1.51737C33.0874 1.51737 33.0874 1.51737 33.0874 1.51737C33.0874 1.51737 33.0874 1.51737 33.0874 1.51737C33.0874 1.51737 33.0874 1.51737 33.0874 1.51737C33.0874 1.51737 33.0874 1.51737 33.0874 1.51737C33.0874 1.51737 33.0874 1.51737 33.0874 1.51737C33.0874 1.51737 33.0874 1.51737 33.0874 1.51737C33.0874 1.51737 33.0874 1.51737 33.0874 1.51737C33.0874 1.51737 33.0874 1.51737 33.0874 1.51737C33.0874 1.51737 33.0874 1.51737 33.0874 1.51737C33.0874 1.51737 33.0874 1.51737 33.0874 1.51737C33.0874 1.51737 33.0874 1.51737 33.0874 1.51737C33.0874 1.51737 33.0874 1.51737 33.0874 1.51737C33.0874 1.51737 33.0874 1.51737 33.0874 1.51737C33.0874 1.51737 33.0874 1.51737 33.0874 1.51737C33.0874 1.51737 33.0874 1.51737 33.0874 1.51737C33.0874 1.51737 33.0874 1.51736 33.0874 1.51736C33.0874 1.51736 33.0874 1.51736 33.0874 1.51736C33.0874 1.51736 33.0874 1.51736 33.0874 1.51736C33.0874 1.51736 33.0874 1.51736 33.0874 1.51736C33.0874 1.51736 33.0874 1.51736 33.0874 1.51736C33.0874 1.51736 33.0874 1.51736 33.0874 1.51736C33.0874 1.51736 33.0874 1.51736 33.0874 1.51736C33.0874 1.51736 33.0874 1.51736 33.0874 1.51736C33.0874 1.51736 33.0874 1.51736 33.0874 1.51736C33.0874 1.51736 33.0874 1.51736 33.0874 1.51736C33.0874 1.51736 33.0874 1.51736 33.0874 1.51736C33.0874 1.51736 33.0874 1.51736 33.0874 1.51736C33.0874 1.51736 33.0874 1.51736 33.0874 1.51736C33.0874 1.51736 33.0874 1.51736 33.0874 1.51736C33.0874 1.51736 33.0874 1.51736 33.0874 1.51736C33.0874 1.51736 33.0874 1.51736 33.0874 1.51736C33.0874 1.51736 33.0874 1.51736 33.0874 1.51736C33.0874 1.51736 33.0874 1.51736 33.0874 1.51736C33.0874 1.51736 33.0874 1.51736 33.0874 1.51736C33.0874 1.51736 33.0874 1.51736 33.0874 1.51736C33.0874 1.51736 33.0874 1.51736 33.0874 1.51736C33.0874 1.51736 33.0874 1.51736 33.0874 1.51736C33.0874 1.51736 33.0874 1.51736 33.0874 1.51736C33.0874 1.51736 33.0874 1.51736 33.0874 1.51736C33.0874 1.51736 33.0874 1.51736 33.0874 1.51736C33.0874 1.51736 33.0874 1.51736 33.0874 1.51736C33.0874 1.51736 33.0874 1.51736 33.0874 1.51736C33.0874 1.51736 33.0874 1.51736 33.0874 1.51736C33.0874 1.51736 33.0874 1.51736 33.0874 1.51736C33.0874 1.51736 33.0874 1.51736 33.0874 1.51736C33.0874 1.51736 33.0874 1.51736 33.0874 1.51736C33.0874 1.51736 33.0874 1.51736 33.0874 1.51736C33.0874 1.51736 33.0874 1.51736 33.0874 1.51736C33.0874 1.51736 33.0874 1.51736 33.0874 1.51736C33.0874 1.51736 33.0874 1.51736 33.0874 1.51736C33.0874 1.51736 33.0874 1.51736 33.0874 1.51736C33.0874 1.51736 33.0874 1.51736 33.0874 1.51736C33.0874 1.51736 33.0874 1.51736 33.0874 1.51736C33.0874 1.51736 33.0874 1.51736 33.0874 1.51736C33.0874 1.51736 33.0874 1.51736 33.0874 1.51736C33.0874 1.51736 33.0874 1.51736 33.0874 1.51736C33.0874 1.51736 33.0874 1.51736 33.0874 1.51736C33.0874 1.51736 33.0874 1.51736 33.0874 1.51736C33.0874 1.51736 33.0874 1.51736 33.0874 1.51736C33.0874 1.51736 33.0874 1.51736 33.0874 1.51736C33.0874 1.51736 33.0874 1.51736 33.0874 1.51736C33.0874 1.51736 33.0874 1.51736 33.0874 1.51736C33.0874 1.51736 33.0874 1.51736 33.0874 1.51736C33.0874 1.51736 33.0874 1.51736 33.0874 1.51736C33.0874 1.51736 33.0874 1.51736 33.0874 1.51736C33.0874 1.51736 33.0874 1.51736 33.0874 1.51736C33.0874 1.51736 33.0874 1.51736 33.0874 1.51736C33.0874 1.51736 33.0874 1.51736 33.0874 1.51736C33.0874 1.51736 33.0874 1.51736 33.0874 1.51736C33.0874 1.51736 33.0874 1.51736 33.0874 1.51736C33.0874 1.51736 33.0874 1.51736 33.0874 1.51736C33.0874 1.51736 33.0874 1.51736 33.0874 1.51736C33.0874 1.51736 33.0874 1.51736 33.0874 1.51736C33.0874 1.51736 33.0874 1.51736 33.0874 1.51736C33.0874 1.51736 33.0874 1.51736 33.0874 1.51736C33.0874 1.51736 33.0874 1.51736 33.0874 1.51736C33.0874 1.51736 33.0874 1.51736 33.0874 1.51736C33.0874 1.51736 33.0874 1.51736 33.0874 1.51736C33.0874 1.51736 33.0874 1.51736 33.0874 1.51736C33.0874 1.51736 33.0874 1.51736 33.0874 1.51736C33.0874 1.51736 33.0874 1.51736 33.0874 1.51736C33.0874 1.51736 33.0874 1.51736 33.0874 1.51736C33.0874 1.51736 33.0874 1.51736 33.0874 1.51736C33.0874 1.51736 33.0874 1.51736 33.0874 1.51736C33.0874 1.51736 33.0874 1.51736 33.0874 1.51736C33.0874 1.51736 33.0874 1.51736 33.0874 1.51736C33.0874 1.51736 33.0874 1.51736 33.0874 1.51736C33.0874 1.51736 33.0874 1.51736 33.0874 1.51736C33.0874 1.51736 33.0874 1.51736 33.0874 1.51736C33.0874 1.51736 33.0874 1.51736 33.0874 1.51736C33.0874 1.51735 33.0874 1.51735 33.0874 1.51735C33.0874 1.51735 33.0874 1.51735 33.0874 1.51735C33.0874 1.51735 33.0874 1.51735 33.0874 1.51735C33.0874 1.51735 33.0874 1.51735 33.0874 1.51735C33.0874 1.51735 33.0874 1.51735 33.0874 1.51735C33.0874 1.51735 33.0874 1.51735 33.0874 1.51735C33.0874 1.51735 33.0874 1.51735 33.0874 1.51735C33.0874 1.51735 33.0874 1.51735 33.0874 1.51735C33.0874 1.51735 33.0874 1.51735 33.0874 1.51735C33.0874 1.51735 33.0874 1.51735 33.0874 1.51735C33.0874 1.51735 33.0874 1.51735 33.0874 1.51735C33.0874 1.51735 33.0874 1.51735 33.0874 1.51735C33.0874 1.51735 33.0874 1.51735 33.0874 1.51735C33.0874 1.51735 33.0874 1.51735 33.0874 1.51735C33.0874 1.51735 33.0874 1.51735 33.0874 1.51735C33.0874 1.51735 33.0874 1.51735 33.0874 1.51735C33.0874 1.51735 33.0874 1.51735 33.0874 1.51735C33.0874 1.51735 33.0874 1.51735 33.0874 1.51735C33.0874 1.51735 33.0874 1.51735 33.0874 1.51735C33.0874 1.51735 33.0874 1.51735 33.0874 1.51735C33.0874 1.51735 33.0874 1.51735 33.0874 1.51735C33.0874 1.51735 33.0874 1.51735 33.0874 1.51735C33.0874 1.51735 33.0874 1.51735 33.0874 1.51735C33.0874 1.51735 33.0874 1.51735 33.0874 1.51735C33.0874 1.51735 33.0874 1.51735 33.0874 1.51735C33.0874 1.51735 33.0874 1.51735 33.0874 1.51735C33.0874 1.51735 33.0874 1.51735 33.0874 1.51735C33.0874 1.51735 33.0874 1.51735 33.0874 1.51735C33.0874 1.51735 33.0874 1.51735 33.0874 1.51735C33.0874 1.51735 33.0874 1.51735 33.0874 1.51735C33.0874 1.51735 33.0874 1.51735 33.0874 1.51735C33.0874 1.51735 33.0874 1.51735 33.0874 1.51735C33.0874 1.51735 33.0874 1.51735 33.0874 1.51735C33.0874 1.51735 33.0874 1.51735 33.0874 1.51735C33.0874 1.51735 33.0874 1.51735 33.0874 1.51735C33.0874 1.51735 33.0874 1.51735 33.0874 1.51735C33.0874 1.51735 33.0874 1.51735 33.0874 1.51735C33.0874 1.51735 33.0874 1.51735 33.0874 1.51735C33.0874 1.51735 33.0874 1.51735 33.0874 1.51735C33.0874 1.51735 33.0874 1.51735 33.0874 1.51735C33.0874 1.51735 33.0874 1.51735 33.0874 1.51735C33.0874 1.51735 33.0874 1.51735 33.0874 1.51735C33.0874 1.51735 33.0874 1.51735 33.0874 1.51735H32.0874ZM41.0015 2.86834C37.6464 2.84015 35.7011 2.43396 32.8008 1.06518L32.374 1.96952C35.4176 3.40594 37.5076 3.83902 40.9931 3.8683L41.0015 2.86834ZM49.1934 1.06534C46.2992 2.43391 44.354 2.84014 40.9931 2.86834L41.0015 3.8683C44.4925 3.83902 46.5827 3.40599 49.6209 1.96936L49.1934 1.06534ZM49.9071 1.54202C49.9071 1.53389 49.9071 1.52566 49.9071 1.51735H48.9071C48.9071 1.52433 48.9071 1.53138 48.9071 1.53852L49.9071 1.54202ZM48.9278 1.39593C48.926 1.4031 48.9242 1.41026 48.9224 1.41741L49.8917 1.66313C49.8938 1.65502 49.8958 1.6469 49.8979 1.63877L48.9278 1.39593ZM60.5144 4.60745C60.2653 4.23593 59.8161 3.94612 59.278 3.69353C58.7233 3.43316 57.9959 3.17766 57.1038 2.9121C55.3189 2.38075 52.8 1.78784 49.5256 1.03022L49.3001 2.00448C52.5846 2.76443 55.0697 3.34994 56.8185 3.87053C57.6933 4.13095 58.3653 4.3698 58.8531 4.59876C59.3574 4.83551 59.5937 5.03 59.6838 5.16433L60.5144 4.60745Z" fill="#969BA8"/>
<path d="M28.2216 100.03C28.5145 100.323 28.9894 100.323 29.2823 100.03L34.0553 95.2574C34.3481 94.9645 34.3481 94.4896 34.0553 94.1967C33.7624 93.9038 33.2875 93.9038 32.9946 94.1967L28.752 98.4394L24.5093 94.1967C24.2164 93.9038 23.7415 93.9038 23.4487 94.1967C23.1558 94.4896 23.1558 94.9645 23.4487 95.2574L28.2216 100.03ZM29.2823 0.96967C28.9894 0.676777 28.5145 0.676777 28.2216 0.96967L23.4487 5.74264C23.1558 6.03553 23.1558 6.51041 23.4487 6.8033C23.7415 7.09619 24.2164 7.09619 24.5093 6.8033L28.752 2.56066L32.9946 6.8033C33.2875 7.09619 33.7624 7.09619 34.0553 6.8033C34.3481 6.51041 34.3481 6.03553 34.0553 5.74264L29.2823 0.96967ZM29.502 99.5V1.5H28.002V99.5H29.502Z" fill="#006FE6"/>
</svg>
