<svg width="82" height="101" id="ic" viewBox="0 0 82 101" fill="none" xmlns="http://www.w3.org/2000/svg">
<path d="M60.0931 3.88589C58.8285 6.40943 56.6441 17.2623 58.8285 28.7016L71.952 53.9369L80.6148 49.9016L60.0931 3.88589Z" fill="#DDE1E6" stroke="#969BA8" stroke-miterlimit="10" stroke-linecap="round" stroke-linejoin="round"/>
<path d="M58.8344 28.7016C56.65 17.2623 58.8344 6.40942 60.0991 3.88589C59.4208 2.87418 55.9717 2.03492 49.4128 0.517349C47.9815 6.23697 40.9972 6.3232 40.9972 6.3232C40.9972 6.3232 34.0187 6.23697 32.5874 0.517349C26.0285 2.03492 22.5795 2.87418 21.9012 3.88589C23.1658 6.40942 25.3502 17.2623 23.1658 28.7016C22.9129 41.8251 19.4639 98.3545 19.4639 98.3545L33.0932 100.039C33.0932 100.039 34.2717 77.1603 41.003 58.7368C47.7343 77.1603 48.9127 100.039 48.9127 100.039L62.5421 98.3545C62.5364 98.3545 59.0873 41.8251 58.8344 28.7016Z" fill="#DDE1E6" stroke="#969BA8" stroke-miterlimit="10" stroke-linecap="round" stroke-linejoin="round"/>
<path d="M21.9011 3.88589C23.1657 6.40943 25.3501 17.2623 23.1657 28.7016L10.0422 53.9369L1.37939 49.8958L21.9011 3.88589Z" fill="#DDE1E6" stroke="#969BA8" stroke-miterlimit="10" stroke-linecap="round" stroke-linejoin="round"/>
<path d="M40.9973 2.36832C37.577 2.33958 35.5593 1.91995 32.5874 0.517349C34.0187 6.23697 40.9973 6.3232 40.9973 6.3232C40.9973 6.3232 47.9815 6.23697 49.4071 0.517349C46.441 1.91995 44.4233 2.33958 40.9973 2.36832Z" fill="#969BA8" stroke="#969BA8" stroke-miterlimit="10" stroke-linecap="round" stroke-linejoin="round"/>
<path d="M59.0595 30.4046C59.3524 30.1117 59.3524 29.6368 59.0595 29.3439L54.2865 24.5709C53.9936 24.278 53.5187 24.278 53.2258 24.5709C52.9329 24.8638 52.9329 25.3387 53.2258 25.6316L57.4685 29.8742L53.2258 34.1169C52.9329 34.4098 52.9329 34.8846 53.2258 35.1775C53.5187 35.4704 53.9936 35.4704 54.2865 35.1775L59.0595 30.4046ZM23.2216 29.3439C22.9287 29.6368 22.9287 30.1117 23.2216 30.4046L27.9946 35.1775C28.2875 35.4704 28.7624 35.4704 29.0553 35.1775C29.3481 34.8846 29.3481 34.4098 29.0553 34.1169L24.8126 29.8742L29.0553 25.6316C29.3481 25.3387 29.3481 24.8638 29.0553 24.5709C28.7624 24.278 28.2875 24.278 27.9946 24.5709L23.2216 29.3439ZM58.5291 29.1242H23.752V30.6242H58.5291V29.1242Z" fill="#006FE6"/>
</svg>
