<svg width="84" height="101" id="ic" viewBox="0 0 84 101" fill="none" xmlns="http://www.w3.org/2000/svg">
<path d="M62.0931 3.88589C60.8285 6.40943 58.6441 17.2623 60.8285 28.7016L73.952 53.9369L82.6148 49.9016L62.0931 3.88589Z" fill="#DDE1E6" stroke="#969BA8" stroke-miterlimit="10" stroke-linecap="round" stroke-linejoin="round"/>
<path d="M60.8344 28.7016C58.65 17.2623 60.8344 6.40942 62.0991 3.88589C61.4208 2.87418 57.9717 2.03492 51.4128 0.517349C49.9815 6.23697 42.9972 6.3232 42.9972 6.3232C42.9972 6.3232 36.0187 6.23697 34.5874 0.517349C28.0285 2.03492 24.5795 2.87418 23.9012 3.88589C25.1658 6.40942 27.3502 17.2623 25.1658 28.7016C24.9129 41.8251 21.4639 98.3545 21.4639 98.3545L35.0932 100.039C35.0932 100.039 36.2717 77.1603 43.003 58.7368C49.7343 77.1603 50.9127 100.039 50.9127 100.039L64.5421 98.3545C64.5364 98.3545 61.0873 41.8251 60.8344 28.7016Z" fill="#DDE1E6" stroke="#969BA8" stroke-miterlimit="10" stroke-linecap="round" stroke-linejoin="round"/>
<path d="M23.9011 3.88589C25.1657 6.40943 27.3501 17.2623 25.1657 28.7016L12.0422 53.9369L3.37939 49.8958L23.9011 3.88589Z" fill="#DDE1E6" stroke="#969BA8" stroke-miterlimit="10" stroke-linecap="round" stroke-linejoin="round"/>
<path d="M42.9973 2.36832C39.577 2.33958 37.5593 1.91995 34.5874 0.517349C36.0187 6.23697 42.9973 6.3232 42.9973 6.3232C42.9973 6.3232 49.9815 6.23697 51.4071 0.517349C48.441 1.91995 46.4233 2.33958 42.9973 2.36832Z" fill="#969BA8" stroke="#969BA8" stroke-miterlimit="10" stroke-linecap="round" stroke-linejoin="round"/>
<path d="M24.7014 3.73433C24.5546 3.34697 24.1217 3.1519 23.7343 3.29863L17.422 5.68966C17.0346 5.83639 16.8396 6.26935 16.9863 6.6567C17.133 7.04406 17.566 7.23913 17.9533 7.0924L23.5643 4.96704L25.6897 10.578C25.8364 10.9654 26.2693 11.1604 26.6567 11.0137C27.0441 10.867 27.2391 10.434 27.0924 10.0467L24.7014 3.73433ZM2.79863 49.7657C2.94536 50.153 3.37831 50.3481 3.76567 50.2014L10.078 47.8103C10.4654 47.6636 10.6604 47.2307 10.5137 46.8433C10.367 46.4559 9.93401 46.2609 9.54666 46.4076L3.9357 48.533L1.81034 42.922C1.66361 42.5346 1.23065 42.3396 0.843297 42.4863C0.455941 42.633 0.260872 43.066 0.407598 43.4533L2.79863 49.7657ZM23.3162 3.69191L2.8162 49.1919L4.1838 49.8081L24.6838 4.30809L23.3162 3.69191Z" fill="#006FE6"/>
</svg>
