<svg width="82" height="101" id="ic" viewBox="0 0 82 101" fill="none" xmlns="http://www.w3.org/2000/svg">
<path d="M60.0931 3.88589C58.8285 6.40943 56.6441 17.2623 58.8285 28.7016L71.952 53.9369L80.6148 49.9016L60.0931 3.88589Z" fill="#DDE1E6" stroke="#969BA8" stroke-miterlimit="10" stroke-linecap="round" stroke-linejoin="round"/>
<path d="M58.8344 28.7016C56.65 17.2623 58.8344 6.40942 60.0991 3.88589C59.4208 2.87418 55.9717 2.03492 49.4128 0.517349C47.9815 6.23697 40.9972 6.3232 40.9972 6.3232C40.9972 6.3232 34.0187 6.23697 32.5874 0.517349C26.0285 2.03492 22.5795 2.87418 21.9012 3.88589C23.1658 6.40942 25.3502 17.2623 23.1658 28.7016C22.9129 41.8251 19.4639 98.3545 19.4639 98.3545L33.0932 100.039C33.0932 100.039 34.2717 77.1603 41.003 58.7368C47.7343 77.1603 48.9127 100.039 48.9127 100.039L62.5421 98.3545C62.5364 98.3545 59.0873 41.8251 58.8344 28.7016Z" fill="#DDE1E6" stroke="#969BA8" stroke-miterlimit="10" stroke-linecap="round" stroke-linejoin="round"/>
<path d="M21.9011 3.88589C23.1657 6.40943 25.3501 17.2623 23.1657 28.7016L10.0422 53.9369L1.37939 49.8958L21.9011 3.88589Z" fill="#DDE1E6" stroke="#969BA8" stroke-miterlimit="10" stroke-linecap="round" stroke-linejoin="round"/>
<path d="M40.9973 2.36832C37.577 2.33958 35.5593 1.91995 32.5874 0.517349C34.0187 6.23697 40.9973 6.3232 40.9973 6.3232C40.9973 6.3232 47.9815 6.23697 49.4071 0.517349C46.441 1.91995 44.4233 2.33958 40.9973 2.36832Z" fill="#969BA8" stroke="#969BA8" stroke-miterlimit="10" stroke-linecap="round" stroke-linejoin="round"/>
<path d="M31.8798 100.422C32.1127 100.764 32.5792 100.853 32.9217 100.62L38.5035 96.8246C38.846 96.5917 38.9349 96.1252 38.7019 95.7827C38.469 95.4402 38.0025 95.3513 37.66 95.5842L32.6985 98.9581L29.3246 93.9965C29.0917 93.654 28.6252 93.5651 28.2827 93.798C27.9402 94.031 27.8513 94.4975 28.0842 94.84L31.8798 100.422ZM41.1202 57.5783C40.8873 57.2357 40.4208 57.1469 40.0783 57.3798L34.4965 61.1754C34.154 61.4083 34.0651 61.8748 34.2981 62.2173C34.531 62.5598 34.9975 62.6487 35.34 62.4158L40.3015 59.0419L43.6754 64.0035C43.9083 64.346 44.3748 64.4349 44.7173 64.2019C45.0598 63.969 45.1487 63.5025 44.9158 63.16L41.1202 57.5783ZM33.2368 100.14L41.2368 58.1403L39.7632 57.8597L31.7632 99.8597L33.2368 100.14Z" fill="#006FE6"/>
</svg>
