<?xml version="1.0" encoding="utf-8"?>
<!-- Generator: Adobe Illustrator 24.0.0, SVG Export Plug-In . SVG Version: 6.00 Build 0)  -->
<svg version="1.1" id="ic" xmlns="http://www.w3.org/2000/svg" xmlns:xlink="http://www.w3.org/1999/xlink" x="0px" y="0px"
	 viewBox="0 0 57 51" style="enable-background:new 0 0 57 51;" xml:space="preserve">
<path fill="#0AA245" d="M40.7,12.6c-0.2-0.9-0.7-1.4-1.2-2.3c-1-1.7-2.4-3.3-3.7-3.4c-7.1-0.9-4.6,7.4-4,11.7c0.4,2.8,1.8,5.5,1.4,8.3
	c-0.6,3.6-4.2,5.2-6.2,1.5c-1.2-2.2-3.1-4.9-6.6-4.9c-1.5,0-3.5,1.4-4.6,2.7c0,0-1,1.8-1.4,0.9c-0.5-1,2.4-4,5.2-4.2
	c4.1-0.2,7.6-0.8,5.3-4.4c-0.6-1-2.2-2.6-3-2.4c-0.9,0.3,2.2,2.4,1.5,3.6c-0.7,1.1-3.6,0.7-4.7,0.6c-3-0.2-6,0.6-8.8,2.4
	C5.5,25.5,4,33.9,11.4,35.5c1.4,0.8,1.4,1.2,1.5,2c-0.5,1-0.8,1.8-0.4,2.6c0.4,0.8,2.2,1.4,4.1,1.1c1.4-0.2,2.1-1.6,2.1-1.6
	c0.2,0.3,0.4,0.6,1.1,0.9c0.5,0.2,1.3,0.2,2.4-0.1c0,0,0.8,1,1.5,1.1c2.3,0.3,2.9,0.1,3.7-0.2c0.6-0.3,0.8-0.7,0.8-0.7
	c1.4,0.6,3.3,0.5,3.7-1c0.3-1-0.9-1.3-1.4-1.4c0.3-0.5-0.2-1.7-0.7-2c7.1,0.6,7.3-5,7-8.5c-0.3-4.2-4.4-11.1-3.8-12.4
	c1.1,0.8,1.6,0.6,1.3-0.2c-0.3-0.6-0.4-1.2-0.1-1.8c-0.1,0.6,1.1,2,2.6,2.7c1.1,0.5,2.3,0.9,3.3,0C41,15.4,41.1,14.3,40.7,12.6
	L40.7,12.6z"/>
<path fill="#202329" d="M41,12.5c-0.9-2.9-3.1-6-6.4-5.8c-1.7,0.1-3.1,1-3.6,2.7c-0.7,2.1-0.2,4.6,0.2,6.7l0.6,3.6
	c0.5,2.3,1.4,4.4,1.3,6.8c-0.1,2-1.6,4.6-3.9,3.7c-1.5-0.6-2.2-2.7-3.1-3.9c-1.5-2-4.3-3.6-6.8-2.6c-1.3,0.5-2.5,1.2-3.4,2.3
	c-0.3,0.3-0.5,0.7-0.7,1c-0.5,0.7-0.4-0.4-0.4-0.5c0.2-0.5,0.6-1,1-1.4c1.6-1.6,3.5-1.8,5.6-2c1.2-0.1,2.5-0.3,3.6-0.9
	c2.3-1.2,0.4-3.8-0.8-5.1c-0.5-0.5-1.3-1.2-2.2-1c-0.5,0.1-0.4,0.5-0.2,0.9c0.7,1,2.9,2.9,0.2,3.4c-1.7,0.3-3.4-0.2-5.1-0.1
	c-3,0.2-6.3,1.4-8.4,3.6c-3.2,3.2-3.5,8.8,0.7,11.2c1.2,0.7,3.3,0.7,3.5,2.4c0.1,0.4-0.4,1.2-0.5,1.6c-0.1,0.3,0,0.6,0,0.9
	c0.1,0.6,0.6,1,1.1,1.3c1.8,1,4.5,0.4,5.7-1.2L18.4,40c0.5,0.8,1.4,0.9,2.3,0.9c0.4,0,1.1-0.2,1.5,0.1c0.4,0.3,0.8,0.6,1.4,0.8
	c1.3,0.3,4.2,0.4,5-1l-0.5,0.1c1.4,0.5,3.2,0.6,4.1-0.8c0.4-0.7,0-1.3-0.6-1.6c-0.5-0.3-0.6-0.2-0.6-0.8c0-0.5-0.4-1.1-0.8-1.5
	l-0.4,0.3c2,0.1,4.3-0.1,5.7-1.6c1.4-1.5,1.7-3.5,1.8-5.4c0-2.6-0.7-5-1.7-7.4L34,18c-0.2-0.6-0.6-1.4-0.6-2.1c0,0,0,0,0,0
	c0.5,0.1,0.8,0.4,1.1,0.1c0.1,0,0-0.3,0.1-0.4c0.1-0.1,0.1-0.2,0.1-0.3c0-0.1-0.1-0.2-0.1-0.3c0,0,0,0,0,0c1,1.1,3,1.8,4.2,1.8
	C41.3,16.8,41.4,14.2,41,12.5c0-0.2-0.6,0-0.6,0.2c0.2,0.7,0.3,1.3,0.2,2.1c-0.1,1.7-2.3,1.7-3.5,1.2c-0.9-0.4-2.5-1.3-2.5-2.6
	c0-0.2-0.4-0.1-0.5,0c-0.1,0.2-0.1,0.5,0,1c0.1,0.5,0.8,2-0.7,1c-0.1-0.1-0.5,0-0.6,0.1c-0.4,1.3,0.9,3.5,1.3,4.6
	c0.9,2.3,2,4.7,2.4,7.2c0.3,1.8,0.2,3.7-0.3,5.4c-0.9,2.9-3.5,3.7-6.3,3.5c-0.1,0-0.5,0.1-0.4,0.3c0.5,0.4,0.9,1.2,0.7,1.9
	c0,0,0,0.1,0.1,0.1c0.7,0.2,1.4,0.4,1.3,1.4c-0.2,1.5-2.3,1.2-3.2,0.8c-0.1,0-0.4,0-0.5,0.1c-0.9,1.6-4.4,0.8-5.5,0
	c-0.1-0.1-0.2-0.4-0.4-0.4c-1.2,0.3-2.5,0.4-3.2-0.8c-0.1-0.1-0.5,0-0.5,0.1c-1.2,1.6-5,2.2-5.8,0c-0.3-1,0.6-1.6,0.5-2.5
	c-0.1-0.6-0.3-0.9-0.8-1.3c-1.1-0.9-2.7-1-3.9-1.9c-1-0.8-1.7-2-1.9-3.3c-0.5-2.5,0.6-5.3,2.4-7.1c1.5-1.5,3.7-2.3,5.7-2.8
	c2-0.5,4-0.2,6-0.2c1.7,0,3.9-0.5,2.6-2.5c-0.3-0.4-0.7-0.9-1-1.3c-0.8-1,0.8,0,1.1,0.4c1,1,2.7,3.1,1.3,4.4c-1.2,1.2-3.7,1-5.2,1.1
	c-1.3,0.1-2.5,0.6-3.6,1.4c-0.8,0.6-1.7,1.5-2,2.5c-0.2,0.6,0.3,0.9,0.8,0.8c0.4-0.1,0.8-0.6,1-1c1-1.4,2.7-2.7,4.4-2.8
	c3-0.2,5.1,2.5,6.4,4.8c0.7,1.3,2.2,2.6,3.8,2.1c1.9-0.6,2.8-2.3,3-4.2c0.3-2.8-1.1-5.6-1.5-8.3c-0.3-1.9-0.7-3.7-0.8-5.6
	c-0.1-1.7,0-4,1.6-5c3.5-2.2,6.7,2.5,7.6,5.3C40.5,12.9,41.1,12.7,41,12.5L41,12.5z"/>
<path fill="#FFFFFF" d="M36.4,10.8c-0.7,0-1.4-0.9-1.4-1.9c0-1.1,0.6-1.9,1.4-1.9c0.7,0,1.4,0.9,1.4,1.9C37.7,9.9,37.1,10.8,36.4,10.8z
	"/>
<path fill="#202329" d="M37.6,8.8c0,0.7-0.2,1.4-0.8,1.7c-1.1,0.7-1.6-1-1.6-1.7c0-0.7,0.3-1.4,0.8-1.7C37,6.4,37.5,8.1,37.6,8.8
	c0,0.1,0.3,0.2,0.3,0.1c0-0.8-0.4-2-1.4-2c-1.1-0.1-1.6,1.1-1.6,2c0,0.8,0.5,2,1.4,2c1.1,0.1,1.6-1.1,1.6-2
	C37.9,8.7,37.6,8.7,37.6,8.8z"/>
<path fill="#202329" d="M36.1,8.4c0,0.1,0.1,0.2,0.1,0.4c0,0.3-0.1,0.5-0.3,0.5s-0.3-0.2-0.3-0.5c0-0.1,0-0.3,0.1-0.4
	c-0.3,0.1-0.6,0.5-0.6,0.9c0,0.5,0.3,1,0.8,1c0.4,0,0.8-0.4,0.8-1C36.7,8.9,36.4,8.5,36.1,8.4L36.1,8.4z"/>
<path fill="#FFFFFF" d="M39.1,10.7c-0.7,0-1.4-0.9-1.4-1.9s0.6-1.9,1.4-1.9c0.8,0,1.4,0.9,1.4,1.9S39.9,10.7,39.1,10.7z"/>
<path fill="#202329" d="M40.3,8.8c0,0.6-0.2,1.1-0.6,1.6c-1.1,1.2-1.8-0.7-1.9-1.5c0-0.6,0.2-1.1,0.6-1.6C39.5,6.1,40.3,8,40.3,8.8
	c0,0.1,0.3,0.1,0.3,0.1c0-0.8-0.4-1.9-1.3-2c-1.1-0.1-1.6,1-1.6,2c0,0.8,0.4,1.9,1.3,2c1.1,0.1,1.6-1,1.6-2
	C40.6,8.7,40.3,8.7,40.3,8.8z"/>
<path fill="#202329" d="M38.9,8.4c0,0.1,0.1,0.2,0.1,0.4c0,0.3-0.1,0.5-0.3,0.5c-0.1,0-0.3-0.2-0.3-0.5c0-0.1,0-0.3,0.1-0.4
	c-0.3,0.1-0.6,0.5-0.6,0.9c0,0.5,0.3,1,0.8,1c0.4,0,0.8-0.4,0.8-1C39.4,8.9,39.2,8.5,38.9,8.4L38.9,8.4z M37.2,6.3
	c-1.1-0.8-2.4,0.1-2.9,1.1c-0.1,0.2,0.4,0,0.5-0.1c0.4-0.8,1.2-1.2,2-0.6C36.9,6.7,37.3,6.4,37.2,6.3z M38.3,5.4
	c1-0.9,2.1,0.1,2.6,1.2c0.1,0.2-0.4,0-0.4-0.2c-0.3-0.9-1.1-1.4-1.8-0.7C38.5,5.9,38.1,5.5,38.3,5.4z M25.9,36
	c0.9,0.7,1,1.8,0.7,2.9c0,0,0,0.1,0.1,0.1c0.6,0.4,1.9,1.1,1.3,2c-0.1,0.2,0.4,0.1,0.5,0c0.6-0.9-0.3-1.7-1-2.1
	c-0.3-0.2-0.1-1.4-0.1-1.7c-0.1-0.6-0.4-1-0.9-1.3C26.3,35.7,25.8,35.9,25.9,36z M16.8,35.6c1.1,0.7,1,1.4,0.4,2.4c0,0,0,0.1,0,0.1
	c0.6,0.5,1.6,1,1,2.1c-0.1,0.2,0.5,0.1,0.6-0.1c0.1-0.4,0.1-0.7-0.1-1.1c-0.1-0.4-1-1-0.8-1.3c0.4-1,0.1-1.6-0.8-2.3
	C17.1,35.2,16.8,35.6,16.8,35.6L16.8,35.6z M22.5,40.8c-0.3-0.4-0.2-0.9,0-1.4c0.2-0.5-0.8-0.7-0.7-1.1c0.3-0.8-0.6-1.8-1.2-2
	c-0.1-0.1-0.5,0.1-0.4,0.2c0.8,0.3,1.4,1.3,1.1,2.2c0,0,0,0,0,0c0.5,0.3,0.8,0.7,0.6,1.3c-0.1,0.4-0.1,0.7,0.1,1
	C22.1,41,22.5,40.8,22.5,40.8L22.5,40.8z"/>
<path fill="#202329" d="M33.4,14c-0.2,0-0.3-0.2-0.3-0.2c0-0.3,0-0.8,0.3-1c0.6-0.5,1.4-0.2,2,0l0,0l0.1,0.1l-0.1,0.2
	c-0.1,0.1-0.4,0.3-0.6,0.2c-0.3-0.1-0.7-0.3-0.9-0.2c0,0-0.1,0.1-0.2,0.2c0,0.1-0.1,0.3,0,0.4l0,0C33.9,13.9,33.7,14,33.4,14
	C33.5,14,33.5,14,33.4,14z"/>
<path fill="#F10B34" d="M52,41.4c-0.1,0.3-0.2,0.1-0.4,0.2l-0.4,0.1c-0.1,0.1-0.1,0.1,0,0L51,41.8c-0.1,0-0.2,0-0.2,0l-0.1,0
	c-0.1,0-0.2,0.1-0.3,0.1c0,0-0.1,0-0.1,0l-0.1,0C50,41.9,50,42,49.8,42c0,0,0.1-0.1,0.1-0.1l-0.1,0c-0.1,0.1-0.3,0.1-0.5,0.2
	c0,0,0.1,0,0.1-0.1c-0.2,0.1-0.4,0.1-0.6,0.2l0-0.1l-0.2,0c0,0,0,0.1-0.1,0.1c0.1,0,0,0,0-0.1l0,0c-0.2,0.1-0.6,0.2-0.8,0.3l0,0
	c-0.3,0.1-0.5,0.1-0.8,0.2c-0.1,0-0.1-0.1-0.1-0.1l-0.2,0c0,0.1-0.4,0.1-0.3,0.2c-0.2,0-0.6,0.1-0.8,0.1c0.1-0.1-0.1-0.1,0-0.1
	L45,43.1c-0.1,0.1-0.2,0.2-0.4,0.2c0.1-0.1,0-0.1,0-0.1l0,0l-0.3,0.3c-0.1,0,0-0.1-0.2,0c0,0,0,0.1-0.1,0.1c0,0-0.4,0.1-0.5,0
	c-0.1,0,0.2-0.1,0-0.1c-0.2,0-0.2,0.1-0.4,0.1l0,0c-0.1,0-0.3,0.1-0.2,0.2c0.1,0,0-0.1,0.1-0.1c-0.1,0.1-0.3,0.1-0.5,0.2
	c0.1,0,0-0.1,0.1-0.1c-0.2,0-0.5-0.1-0.7,0c0,0,0.1-0.1,0.1-0.1c-0.3,0-0.7,0.3-1,0.2c0,0,0,0.1,0,0.1c-0.2,0-0.2-0.1-0.3,0
	c0,0-0.1,0-0.2,0.1c0,0,0,0,0,0c-0.2,0.1-0.7,0.3-1.1,0.3c0,0-0.2,0.2-0.3,0.2l0-0.1c0,0-0.1,0-0.1,0c0,0,0,0,0,0c0,0-0.1,0-0.1,0
	l0.1,0c0,0,0,0,0,0c0,0-0.1,0-0.1,0c0,0,0,0,0,0c0,0,0,0,0,0c-0.1,0-0.2,0.1-0.3,0.1c0.1,0,0.1-0.1,0-0.1c-0.2,0.1-0.1,0.1-0.2,0.1
	l-0.1,0.1c0,0.1-0.2,0-0.1,0.1c-0.1,0-0.3,0.1-0.3,0l0-0.1c-0.1,0-0.1,0.1-0.2,0.2c0,0,0,0,0,0c0,0.1-0.2,0-0.3,0.2L37,45l-0.1,0
	l0,0l0,0h0l-0.4-0.3v0v0c0-0.1,0-0.2,0-0.3c-0.1-0.2-0.2-0.3-0.2-0.5c0,0,0,0.1,0.1,0.1c0-0.1,0-0.1-0.1-0.3c0,0,0-0.3,0-0.4
	c-0.1-0.2-0.1-0.1-0.2-0.1c0.1-0.2-0.2-0.4-0.1-0.7c0,0.1,0.1,0.2,0.1,0.1c0.1-0.2-0.2-0.3-0.2-0.5l-0.1,0.1c0-0.1-0.1-0.3,0-0.3
	c-0.1-0.1,0-0.3-0.1-0.2c0-0.4-0.3-1-0.1-1.2c0-0.1,0-0.2-0.1-0.2c0,0.1,0.1,0.1,0,0.2c0-0.1,0-0.1-0.1-0.1c0-0.1,0-0.2,0.1-0.1
	c0-0.3-0.3-0.2-0.3-0.6c0.1,0,0.1,0,0-0.1l-0.1-0.2c0-0.2,0.1-0.2,0.2-0.2c0-0.1-0.1-0.3-0.1-0.3l0.1-0.2c0,0.1-0.1-0.1-0.1-0.1
	l0,0.1c0,0,0-0.2-0.1-0.2c0,0,0,0.2,0,0.3c0-0.1-0.1-0.2-0.1-0.2c0.1,0,0-0.2,0-0.3c0-0.1-0.1-0.1-0.1-0.1c0,0,0-0.2,0-0.1
	c0,0,0,0.1,0,0.1c0-0.1,0.1-0.1,0-0.2c-0.1-0.1-0.1,0.1-0.1-0.2c0,0.1,0.1,0.1,0.1,0.1l0-0.2l-0.1,0c0,0,0,0,0,0
	c-0.1,0-0.1-0.3-0.2-0.3c0-0.1,0-0.2,0-0.3l0,0c0-0.1-0.1-0.3-0.1-0.4l0,0c0-0.1-0.1-0.2-0.1-0.3c0-0.2,0.3-0.1,0.1-0.3
	c0-0.2-0.2-0.2-0.2-0.2c0-0.3-0.2-0.6-0.2-0.9c0,0-0.1,0-0.1-0.1c-0.1-0.4-0.3-0.9-0.2-1.3c0.1,0.1,0.1,0,0.1,0
	c-0.1-0.1,0-0.1-0.1-0.2c-0.1,0-0.1,0-0.1,0.1c-0.1-0.3-0.2-0.6-0.2-0.8c0,0.1,0,0-0.1,0c0.1,0,0.1-0.2,0-0.3l-0.1,0l0-0.1
	c0-0.1-0.1,0-0.1-0.2c0,0,0,0,0.1-0.1c-0.1-0.1-0.2-0.3-0.2-0.5l0.1-0.2c0-0.1-0.1-0.2-0.1,0c0-0.3,0-0.5,0-0.6
	c-0.1-0.2-0.3-0.5-0.4-0.8l-0.1-0.5l-0.1-0.2l0-0.1l0,0v0h0l0-0.1h0h0v0l0.4-0.6h0h0l0,0l0,0c0,0,0-0.1,0.1,0c0,0.1,0.1,0.1,0,0.1
	c0.2,0,0.3-0.1,0.4-0.2c0-0.1-0.1,0.1-0.1,0c0,0,0.3,0,0.3-0.1c0.1,0,0,0.1,0,0.1l0.1-0.1c0.2,0.1-0.3,0.3-0.1,0.4l0.1,0
	c0.1,0.1-0.3,0.2,0,0.1c0.1-0.1,0.2-0.2,0.1-0.2c0.3-0.1,0.1-0.2,0.4-0.3c0.1,0-0.2,0.1-0.2,0.1c0.2,0,0.3-0.1,0.4-0.1
	c-0.1,0-0.1-0.1,0-0.2c0.2,0-0.1,0.1,0.1,0.1c0-0.1,0.2-0.1,0-0.1c0.1-0.1,0.2,0,0.3-0.1c0.1,0.1-0.2,0.2,0.1,0.2
	c-0.1-0.1,0.3-0.2,0.1-0.3c0.1,0,0.1,0.1,0.1,0.1c0.1,0,0.3-0.2,0.4-0.1l0-0.1c0,0,0.1,0,0.2,0.1c0.1,0,0.3-0.2,0.4-0.1
	c0,0,0.3-0.1,0.2-0.1c-0.2,0-0.2,0.1-0.3,0c0.1,0.1,0.2-0.1,0.3-0.1l0,0c0,0,0.1,0,0.2-0.1c0,0,0,0,0.1,0l0-0.1
	c0.2-0.1,0.1,0.1,0.3,0L37,27.4c0,0,0.1,0,0.2,0c0-0.1,0.1-0.2,0.1-0.2c0.1-0.1,0.1,0,0.2,0l-0.1,0.1c0,0,0.1,0.1,0.3,0
	c0.1-0.1,0.2-0.2,0.1-0.2c0.1,0,0.2,0,0.2,0.1c0.2-0.1,0-0.1,0.1-0.1c0.1,0,0.3,0,0.4,0.1l-0.1,0.2l0.1,0c-0.1,0.1,0.1,0.1,0,0.2
	c0.1,0,0.2-0.1,0.2-0.1c-0.3-0.1,0.2-0.3,0.1-0.4c0.3-0.1,0.3,0.3,0.5,0c0,0,0-0.1,0-0.1c0.1-0.1,0.1-0.1,0.3-0.1
	c-0.2,0.1,0.2,0.1,0,0.2c0-0.1-0.1,0-0.2,0c0.1,0,0,0.1,0.2,0.1c0.1,0,0.3-0.1,0.2-0.1c0-0.1-0.2,0.1-0.1,0c0.2-0.1,0.3,0,0.4-0.1
	c-0.1,0-0.2,0-0.2-0.1l0.2-0.1l0,0.1c0.3,0,0.1-0.1,0.3-0.2l0.2,0.1c0,0.1-0.4,0.1-0.3,0.2c0.2,0,0.2-0.1,0.4-0.1l-0.1,0.1
	c0.1,0,0.2,0.2,0.4,0c0.1-0.1,0-0.1,0-0.1c0.3-0.1,0.4-0.2,0.5-0.2c0,0.1,0.3-0.1,0.1,0.1c-0.1,0-0.5,0.1-0.6,0.2
	c0.1,0.1-0.2,0-0.3,0.2c0.2-0.1,0.2,0.1,0.3,0.2c0.1,0,0.1-0.1,0.2-0.1c0-0.1-0.1-0.1-0.1-0.1c0.3,0,0.5-0.1,0.6-0.2
	c0.1,0,0.1,0.1,0,0.1c0.3-0.1,0.6-0.2,0.9-0.2c-0.2-0.1,0.2-0.1,0.2-0.1c0,0,0.1,0.1,0.1,0.1c0.2-0.1,0,0.1,0.2,0
	c0.2-0.1,0.4-0.2,0.6-0.3c0.3,0,0.7-0.2,1-0.2c0.1,0,0.1,0.2,0.2,0.1c0.2,0-0.1-0.1,0.1-0.1l0,0c0.1,0,0.4,0,0.5-0.2l0,0.1
	c0,0,0.1,0,0.1-0.1c0,0,0.1,0.1,0,0.1c0,0,0,0,0.1,0l0.2,0c0.1,0,0.2-0.1,0.2-0.1l-0.1,0c0.3-0.1,0.5-0.1,0.7-0.2l0,0.1l0.2-0.1
	c0,0.1,0.1,0.1,0.2,0l0,0l1.4-0.3l0.8,3.6l0.1,0.2c0,0,0,0,0,0.1l0.1,0.6c0.1,0.4,0.2,0.9,0.3,1.3l0.9,4l0.4,1.6c0,0-0.1,0-0.1,0
	l0,0.1c0.1,0.1,0.1,0.2,0.2,0.4c-0.1,0.1,0.2,0.3,0.2,0.6l0,0c0.1,0.1,0,0.3,0.1,0.4l0,0.1c0.1,0,0,0.3,0.1,0.4l0,0
	c0.1,0.1,0,0.2,0.1,0.3l0,0c0.1,0.3,0.1,0.5,0.2,0.4c-0.1,0.1-0.1-0.2-0.2-0.1l0,0.1c0.1,0.4,0.3,1.1,0.4,1.6L52,41.4L52,41.4z
	 M45.5,25.8L45.5,25.8L45.5,25.8z M37.6,27.1C37.6,27.2,37.6,27.2,37.6,27.1L37.6,27.1z M36.8,27.3C36.8,27.3,36.8,27.3,36.8,27.3
	C36.8,27.3,36.8,27.3,36.8,27.3z M33,28.3C33,28.3,33,28.3,33,28.3L33,28.3z M38.1,44.7C38.1,44.7,38.1,44.7,38.1,44.7
	C38.1,44.7,38.1,44.7,38.1,44.7z M41,43.9C41,43.9,41,43.9,41,43.9C41,43.9,41,43.9,41,43.9z M50.3,41.9
	C50.3,41.9,50.3,41.9,50.3,41.9C50.3,41.9,50.3,41.9,50.3,41.9z M39.3,26.8C39.3,26.8,39.3,26.8,39.3,26.8
	C39.3,26.8,39.3,26.8,39.3,26.8z M42.6,26.1C42.7,26.1,42.6,26.1,42.6,26.1c0.1,0,0.2,0.1,0.3,0.1c0,0,0,0,0.1-0.1
	c0,0-0.1,0.1-0.1,0.1c0,0,0,0.1,0,0.1c0,0,0,0,0,0C42.7,26.2,42.5,26.2,42.6,26.1z M41.9,43.8C41.9,43.8,41.9,43.8,41.9,43.8
	C41.9,43.8,41.9,43.8,41.9,43.8z M46.4,25.8L46.4,25.8l0.2-0.1c0,0,0,0,0,0l0.2,0c0,0,0,0,0,0C46.7,25.7,46.4,25.7,46.4,25.8z
	 M45.2,26.1C45.2,26.1,45.2,26.1,45.2,26.1L45.2,26.1L45.2,26.1z M32.6,28.9L32.6,28.9L32.6,28.9z M38.9,44.5
	C38.9,44.5,38.9,44.5,38.9,44.5C38.9,44.5,38.9,44.5,38.9,44.5z"/>
<path fill="#202329" d="M48.1,40.3c-0.8,0.2-1.6-0.2-2-1l-0.7,0.1c-0.5,0.1-3.6,0.9-3.9,1c-0.1,0.7,0,1.4-1,1.8
	c-1.5,0.6-2.1-0.4-2.5-1.3c-0.2-0.7-0.2-1.3,0-1.7c0.2-0.4,0.7-0.6,0.7-0.7c0,0,1.3-5.7,4.3-9.5c0.1-0.1,0.2-0.2,0.4-0.2
	c0.1,0,0.3,0.1,0.4,0.1c0.9,0.6,1.7,1.2,2.5,1.9c0.2,0.1,0.3,0.1,0.3,0.4c0,0.2-0.2,0.3-0.2,0.3l1,3.9c0,0,0.7-0.2,1.1,0.1
	c0.7,0.6,0.7,1.8,0.8,2.5C49.5,39.1,49.1,40,48.1,40.3L48.1,40.3z M44.6,36.9l-0.9-3.3c-1.2,1.5-1.8,2.9-1.9,4.2L44.6,36.9
	L44.6,36.9z"/>
<path fill="#FFFFFF" d="M47.4,40.3c-0.8,0.2-1.6-0.2-2-1l-0.7,0.1c-0.5,0.1-3.6,0.9-3.9,1c-0.1,0.7,0,1.4-1,1.8
	c-1.5,0.6-2.1-0.4-2.5-1.4c-0.2-0.7-0.2-1.3,0-1.7c0.2-0.4,0.7-0.6,0.7-0.7c0,0,1.3-5.8,4.3-9.6c0.1-0.1,0.2-0.2,0.4-0.2
	c0.1,0,0.3,0.1,0.4,0.1c0.6,0.4,1.9,1.4,2.5,1.9c0.2,0.1,0.3,0.1,0.3,0.4c0,0.2-0.2,0.3-0.2,0.3l1,3.9c0,0,0.7-0.2,1.1,0.1
	c0.7,0.6,0.7,1.9,0.8,2.5C48.8,39,48.3,40,47.4,40.3L47.4,40.3z M43.9,36.8l-0.9-3.6c-1.2,1.5-1.8,3.2-1.9,4.5L43.9,36.8z"/>
<path fill="#202329" d="M39.1,42.6c-0.2,0-0.4,0-0.6-0.1c-0.7-0.3-1-1-1.2-1.6c-0.2-0.7-0.2-1.4,0-1.9c0.2-0.4,0.5-0.6,0.6-0.7
	c0,0,0,0,0,0c0.2-0.7,1.5-6.1,4.3-9.6c0.1-0.2,0.3-0.3,0.6-0.3c0,0,0,0,0,0c0.2,0,0.4,0.1,0.5,0.2c0.6,0.4,2,1.4,2.5,1.9l0.1,0.1
	c0.1,0.1,0.3,0.2,0.3,0.5c0,0.2-0.1,0.3-0.2,0.4l0.9,3.6c0.3,0,0.7-0.1,1.1,0.2c0.7,0.5,0.8,1.6,0.9,2.4c0,0.1,0,0.2,0,0.3
	c0.2,1.2-0.4,2.3-1.4,2.5c0,0,0,0-0.1,0c-0.8,0.2-1.6-0.2-2.1-1l-0.5,0.1c-0.5,0.1-3.1,0.7-3.7,0.9c0,0.1,0,0.1,0,0.2
	C41,41.3,41,42,40,42.4C39.7,42.6,39.4,42.6,39.1,42.6z M42.9,28.9C42.9,28.9,42.9,28.9,42.9,28.9c-0.1,0-0.1,0-0.2,0.2
	c-3,3.7-4.3,9.4-4.3,9.5c0,0.1-0.1,0.2-0.2,0.2c-0.1,0.1-0.4,0.2-0.5,0.5c-0.1,0.3-0.2,0.9,0,1.5c0.3,0.7,0.6,1.1,1,1.3
	c0.3,0.1,0.7,0.1,1.2-0.1c0.7-0.3,0.7-0.7,0.8-1.3c0-0.1,0-0.2,0-0.3c0-0.1,0.1-0.1,0.1-0.2c0.3-0.1,3.5-0.9,3.9-1l0.7-0.1
	c0.1,0,0.2,0,0.3,0.1c0.3,0.7,1,1.1,1.7,0.9c0,0,0,0,0.1,0c0.7-0.2,1.2-1.1,1.1-2c0-0.1,0-0.2,0-0.3c-0.1-0.7-0.2-1.6-0.7-2.1
	c-0.3-0.3-0.9-0.1-0.9-0.1c-0.1,0-0.1,0-0.2,0c-0.1,0-0.1-0.1-0.1-0.1l-1-3.9c0-0.1,0-0.2,0.1-0.3c0,0,0.1,0,0.1-0.1
	c0-0.1,0-0.1-0.1-0.2c0,0-0.1,0-0.1-0.1c-0.6-0.5-1.9-1.4-2.5-1.9C43,28.9,42.9,28.9,42.9,28.9z M41.1,37.9c0,0-0.1,0-0.1,0
	c-0.1,0-0.1-0.1-0.1-0.2c0.1-1.5,0.8-3.2,1.9-4.6C42.8,33,42.9,33,43,33c0.1,0,0.2,0.1,0.2,0.2l0.9,3.6c0,0.1,0,0.2-0.1,0.3
	L41.1,37.9C41.1,37.9,41.1,37.9,41.1,37.9z M42.8,33.7c-0.8,1.2-1.4,2.5-1.5,3.7l2.3-0.7L42.8,33.7z"/>
<path fill="#FFFFFF" d="M35.8,30.4c-0.4,0-0.7-0.3-0.7-0.7c0-0.4,0.3-0.7,0.7-0.7c0.4,0,0.7,0.3,0.7,0.7C36.5,30,36.2,30.4,35.8,30.4z
	 M46.4,28.3c-0.4,0-0.7-0.3-0.7-0.7c0-0.4,0.3-0.7,0.7-0.7c0.4,0,0.7,0.3,0.7,0.7C47.1,28,46.8,28.3,46.4,28.3z"/>
<path fill="#202329" d="M35.8,30.5c-0.5,0-0.9-0.4-0.9-0.9c0-0.5,0.4-0.9,0.9-0.9s0.9,0.4,0.9,0.9C36.7,30.1,36.3,30.5,35.8,30.5z
	 M35.8,29.1c-0.3,0-0.5,0.2-0.5,0.5c0,0.3,0.2,0.5,0.5,0.5c0.3,0,0.5-0.2,0.5-0.5C36.3,29.4,36.1,29.1,35.8,29.1z M46.4,28.5
	c-0.5,0-0.9-0.4-0.9-0.9s0.4-0.9,0.9-0.9s0.9,0.4,0.9,0.9S46.9,28.5,46.4,28.5z M46.4,27.1c-0.3,0-0.5,0.2-0.5,0.5s0.2,0.5,0.5,0.5
	s0.5-0.2,0.5-0.5S46.7,27.1,46.4,27.1z"/>
<path fill="#FFFFFF" d="M46.8,27.8c-2.4-3.3-4.4-6.6-7.4-9.7c-0.3-0.3-0.7-0.8-1.2-1.4c-0.1,0-0.3-0.1-0.4-0.1c0,0,0,0-0.1,0
	c-0.3-0.1-0.5-0.1-0.8-0.3c0,0,0,0-0.1,0c-0.3-0.1-0.6-0.2-0.8-0.4c0,0,0,0,0,0c-0.3-0.1-0.5-0.3-0.8-0.5c0,0,0,0,0,0
	c-0.1-0.1-0.2-0.2-0.3-0.3c0,0-0.1,0.1-0.1,0.1c0,0.1,0.1,0.3,0.1,0.4c-0.1,0.2-0.2,0.3-0.3,0.3c0,0-0.1,0-0.1,0
	c-0.4,1.6,0.2,4.7,0.2,5.4c0.1,2.7,0.7,5.5,0.9,8.2c0,0.2,0.1,0.4,0.3,0.4c0.4,0,0.4-0.4,0.4-0.4c-0.1-1-0.5-4.2-0.7-6.1
	c-0.2-2.1-1.1-6.4-0.4-7.5c0.8-1.1,3.4,1.8,4.3,2.8c2.5,2.8,4.5,5.9,6.7,8.9c0,0.1,0.4,0.2,0.5,0.2C46.8,28,46.9,27.9,46.8,27.8
	L46.8,27.8z"/>
<path fill="#202329" d="M46.9,27.6c-2.4-3.3-4.4-6.5-7.4-9.7c-0.2-0.2-0.6-0.7-1.1-1.3c-0.2,0-0.3-0.1-0.5-0.1c0.6,0.6,1.1,1.3,1.4,1.6
	c2.9,3.1,5,6.3,7.3,9.6c0,0,0.1,0.1,0,0.2c-0.1,0.1-0.3,0-0.5-0.2c-2.1-3-4.1-6.1-6.7-8.9c-0.4-0.4-1.1-1.2-1.8-1.9
	c-0.3-0.2-0.5-0.5-0.8-0.7c-0.4-0.2-0.8-0.3-1.2-0.6c0,0-0.1,0-0.1,0c-0.2,0-0.4,0.1-0.6,0.3c-0.2,0.3-0.3,0.9-0.3,1.6
	c0,1.8,0.5,4.5,0.7,6c0.2,1.9,0.6,5.1,0.7,6.1c0,0,0,0.2-0.2,0.3c-0.2,0-0.2-0.2-0.2-0.3c-0.2-2.7-0.8-5.5-0.9-8.2
	c0-0.6-0.3-2.4-0.3-4c0-0.6,0-1.1,0.2-1.5c0,0,0,0-0.1,0c-0.1,0-0.2,0.1-0.3,0.1c-0.1,0.4-0.1,0.9-0.1,1.4c0,1.6,0.3,3.5,0.4,4
	c0.1,2.7,0.7,5.5,0.9,8.2c0,0.2,0.1,0.5,0.4,0.5c0.3,0,0.4-0.1,0.5-0.2c0.1-0.1,0.1-0.3,0.1-0.3c0-0.3-0.5-4.2-0.7-6.1
	c-0.1-1.5-0.7-4.2-0.7-6c0-0.6,0.1-1.2,0.3-1.4c0.1-0.1,0.2-0.2,0.3-0.2c0.4,0,1.2,0.5,1.9,1.2c0.7,0.7,1.4,1.4,1.8,1.9
	c2.5,2.7,4.5,5.8,6.6,8.9c0.1,0.1,0.3,0.3,0.6,0.3c0.2,0,0.5-0.1,0.5-0.3C47,27.8,46.9,27.7,46.9,27.6L46.9,27.6z"/>
<path fill="#202329" d="M34.2,16.3c0.1-0.8,0.6-1.2,1-1.1c0.5,0,0.9,0.3,0.9,0.3L36,15.7c0,0-0.1-0.1-0.2-0.1c-0.1-0.1-0.3-0.1-0.5-0.1
	c-0.3,0-0.6,0.1-0.7,0.9L34.2,16.3z"/>
</svg>
