<?xml version="1.0" encoding="utf-8"?>
<!-- Generator: Adobe Illustrator 24.0.0, SVG Export Plug-In . SVG Version: 6.00 Build 0)  -->
<svg version="1.1" id="ic" xmlns="http://www.w3.org/2000/svg" xmlns:xlink="http://www.w3.org/1999/xlink" x="0px" y="0px"
	 viewBox="0 0 32 32" style="enable-background:new 0 0 32 32;" xml:space="preserve">
<path fill="#fff" d="M19.1,10.3c0-1.4-1.2-2.6-2.6-2.6c-1.4,0-2.6,1.2-2.6,2.6c0,1.4,1.2,2.6,2.6,2.6C17.9,12.9,19.1,11.8,19.1,10.3
	z M22.8,10.3c0,3.5-2.8,6.3-6.3,6.3c-3.5,0-6.3-2.8-6.3-6.3c0-3.5,2.8-6.3,6.3-6.3C19.9,4,22.8,6.8,22.8,10.3z M22.7,20.2
	c-1.1,0.7-2.4,1.2-3.7,1.5l3.5,3.5c0.7,0.7,0.7,1.9,0,2.6c-0.7,0.7-1.9,0.7-2.6,0l-3.5-3.5L13,27.9c-0.4,0.4-0.8,0.5-1.3,0.5
	c-0.5,0-0.9-0.2-1.3-0.5c-0.7-0.7-0.7-1.9,0-2.6l3.5-3.5c-1.3-0.3-2.5-0.8-3.7-1.5c-0.9-0.5-1.1-1.7-0.6-2.5
	c0.5-0.9,1.7-1.1,2.6-0.6c2.6,1.6,5.9,1.6,8.5,0c0.9-0.5,2-0.3,2.6,0.6C23.8,18.5,23.6,19.7,22.7,20.2z"/>
</svg>
