<svg width="15" height="25" viewBox="0 0 15 25" id="ic" fill="none" xmlns="http://www.w3.org/2000/svg">
<path fill-rule="evenodd" clip-rule="evenodd" d="M10.0545 6.31527C10.0545 4.87842 8.87738 3.71004 7.4302 3.71004C5.98417 3.71004 4.80588 4.87842 4.80588 6.31527C4.80588 7.75099 5.98417 8.92013 7.4302 8.92013C8.87738 8.92013 10.0545 7.75099 10.0545 6.31527ZM13.7684 6.31509C13.7684 9.78446 10.9264 12.6066 7.43019 12.6066C3.93476 12.6066 1.09199 9.78446 1.09199 6.31509C1.09199 2.84459 3.93476 0.0217285 7.43019 0.0217285C10.9264 0.0217285 13.7684 2.84459 13.7684 6.31509ZM13.6913 16.2299C12.5452 16.9446 11.301 17.4514 10.0108 17.7432L13.554 21.2615C14.2799 21.9807 14.2799 23.1487 13.554 23.8687C12.8289 24.5886 11.6536 24.5886 10.9293 23.8687L7.44562 20.4113L3.96498 23.8687C3.60205 24.2282 3.12649 24.4082 2.65092 24.4082C2.17612 24.4082 1.70131 24.2282 1.33838 23.8687C0.613278 23.1487 0.613278 21.9815 1.33762 21.2615L4.88122 17.7432C3.59105 17.4514 2.34677 16.9438 1.20072 16.2299C0.3334 15.687 0.0728642 14.5495 0.619346 13.6876C1.16431 12.8246 2.31037 12.5648 3.1792 13.1077C5.77394 14.7283 9.11654 14.7287 11.7128 13.1077C12.5816 12.5648 13.7273 12.8246 14.2734 13.6876C14.8199 14.5487 14.5586 15.687 13.6913 16.2299Z" fill="#70798E"/>
</svg>
