<svg width="17" height="16" id="ic" viewBox="0 0 17 16" fill="none" xmlns="http://www.w3.org/2000/svg">
<path fill-rule="evenodd" clip-rule="evenodd" d="M8.79321 16C13.2115 16 16.7932 12.4183 16.7932 8C16.7932 3.58172 13.2115 0 8.79321 0C4.37493 0 0.793213 3.58172 0.793213 8C0.793213 12.4183 4.37493 16 8.79321 16Z" fill="white"/>
<path fill-rule="evenodd" clip-rule="evenodd" d="M8.79321 16C13.2115 16 16.7932 12.4183 16.7932 8C16.7932 3.58172 13.2115 0 8.79321 0C4.37493 0 0.793213 3.58172 0.793213 8C0.793213 12.4183 4.37493 16 8.79321 16Z" fill="#0AA245"/>
<path fill-rule="evenodd" clip-rule="evenodd" d="M8.79321 11C10.4501 11 11.7932 9.65685 11.7932 8C11.7932 6.34315 10.4501 5 8.79321 5C7.13636 5 5.79321 6.34315 5.79321 8C5.79321 9.65685 7.13636 11 8.79321 11Z" fill="white"/>
</svg>
