<svg width="24" height="14" id="ic" viewBox="0 0 24 14" fill="none" xmlns="http://www.w3.org/2000/svg">
<path fill-rule="evenodd" clip-rule="evenodd" d="M13.177 13.7337C13.177 13.7337 13.6101 13.6864 13.832 13.4525C14.0351 13.2382 14.028 12.8338 14.028 12.8338C14.028 12.8338 14.001 10.9453 14.8943 10.6664C15.7747 10.3922 16.9051 12.4927 18.1048 13.3004C19.011 13.9111 19.6989 13.7775 19.6989 13.7775L22.9046 13.7337C22.9046 13.7337 24.5809 13.6323 23.7862 12.3383C23.7204 12.2323 23.3225 11.3808 21.4033 9.63171C19.3925 7.8008 19.6625 8.09693 22.0829 4.92943C23.5573 3.00058 24.1465 1.82299 23.9622 1.31946C23.7873 0.837829 22.7027 0.965727 22.7027 0.965727L19.0943 0.98762C19.0943 0.98762 18.8267 0.9519 18.6283 1.06828C18.4346 1.18235 18.309 1.44851 18.309 1.44851C18.309 1.44851 17.7385 2.94066 16.9767 4.21043C15.3697 6.88823 14.7276 7.02996 14.4647 6.86403C13.8531 6.47573 14.0057 5.30621 14.0057 4.47544C14.0057 1.87945 14.4072 0.7975 13.2251 0.517506C12.8331 0.424175 12.5443 0.363107 11.5407 0.352736C10.253 0.340062 9.16363 0.357345 8.54619 0.653471C8.13535 0.850503 7.81841 1.29066 8.0121 1.31601C8.25039 1.34712 8.79035 1.45888 9.07677 1.84143C9.44653 2.33574 9.43362 3.44419 9.43362 3.44419C9.43362 3.44419 9.64608 6.49993 8.93708 6.87901C8.45111 7.13942 7.78437 6.60824 6.35111 4.17817C5.61746 2.93375 5.06341 1.55798 5.06341 1.55798C5.06341 1.55798 4.95659 1.30103 4.76525 1.16276C4.53401 0.995685 4.2112 0.943835 4.2112 0.943835L0.78241 0.965727C0.78241 0.965727 0.267094 0.979554 0.0781054 1.19963C-0.0897538 1.39436 0.0651932 1.7988 0.0651932 1.7988C0.0651932 1.7988 2.74977 7.96442 5.79002 11.072C8.57789 13.9203 11.7426 13.7337 11.7426 13.7337H13.177Z" fill="#70798E"/>
</svg>
