<?xml version="1.0" encoding="utf-8"?>
<!-- Generator: Adobe Illustrator 24.0.0, SVG Export Plug-In . SVG Version: 6.00 Build 0)  -->
<svg version="1.1" id="ic" xmlns="http://www.w3.org/2000/svg" xmlns:xlink="http://www.w3.org/1999/xlink" x="0px" y="0px"
	 viewBox="0 0 32 33" style="enable-background:new 0 0 32 33;" xml:space="preserve">
<path fill="#fff" d="M17.2,22.7c0,0,0.4,0,0.7-0.3c0.2-0.2,0.2-0.6,0.2-0.6s0-1.9,0.9-2.2c0.9-0.3,2,1.8,3.2,2.6
	c0.9,0.6,1.6,0.5,1.6,0.5l3.2,0c0,0,1.7-0.1,0.9-1.4c-0.1-0.1-0.5-1-2.4-2.7c-2-1.8-1.7-1.5,0.7-4.7c1.5-1.9,2.1-3.1,1.9-3.6
	c-0.2-0.5-1.3-0.4-1.3-0.4l-3.6,0c0,0-0.3,0-0.5,0.1c-0.2,0.1-0.3,0.4-0.3,0.4s-0.6,1.5-1.3,2.8c-1.6,2.7-2.2,2.8-2.5,2.7
	c-0.6-0.4-0.5-1.6-0.5-2.4c0-2.6,0.4-3.7-0.8-4c-0.4-0.1-0.7-0.2-1.7-0.2c-1.3,0-2.4,0-3,0.3c-0.4,0.2-0.7,0.6-0.5,0.7
	c0.2,0,0.8,0.1,1.1,0.5c0.4,0.5,0.4,1.6,0.4,1.6s0.2,3.1-0.5,3.4c-0.5,0.3-1.2-0.3-2.6-2.7c-0.7-1.2-1.3-2.6-1.3-2.6
	S9,10.3,8.8,10.2C8.5,10,8.2,9.9,8.2,9.9l-3.4,0c0,0-0.5,0-0.7,0.2c-0.2,0.2,0,0.6,0,0.6s2.7,6.2,5.7,9.3c2.8,2.8,6,2.7,6,2.7H17.2z
	"/>
</svg>
