<svg width="50" height="42" viewBox="0 0 50 42" fill="none" xmlns="http://www.w3.org/2000/svg">
<path fill-rule="evenodd" clip-rule="evenodd" d="M25.4821 0.118422L49.4399 12.7186C49.8651 12.9421 50.0838 13.4302 49.9702 13.8998C49.8553 14.3695 49.4382 14.6996 48.958 14.6996H47.9164V40.9499C47.9164 41.5303 47.4505 41.9999 46.8747 41.9999L41.0672 42C40.4915 42 40.0256 41.5303 40.0256 40.95V16.5946L10.0332 16.5945V40.95C10.0332 41.5303 9.56725 42 8.99148 42H3.12549C2.54972 42 2.08381 41.5303 2.08381 40.95V14.6996H1.04213C0.561964 14.6996 0.144883 14.3695 0.0299441 13.8998C-0.0840184 13.4302 0.134727 12.9421 0.559914 12.7186L24.5177 0.118422C24.8208 -0.0394739 25.1789 -0.0394739 25.4821 0.118422ZM46.2851 40.275L46.2433 13.6496C46.2433 13.5651 46.2771 13.5371 46.3161 13.5048C46.3453 13.4806 46.3773 13.454 46.4004 13.3996L24.9998 2.23387L3.70559 13.2354C3.75949 13.3624 3.79006 13.5019 3.79006 13.6496L3.78747 40.3831H8.3309V16.0405C8.3309 15.4601 8.7968 14.9905 9.37257 14.9905H40.6219C41.1977 14.9905 41.6636 15.4601 41.6636 16.0405L41.708 40.275H46.2851Z" fill="#44545F"/>
<path fill-rule="evenodd" clip-rule="evenodd" d="M30 24H24.4584C23.8826 24 23.4167 24.4792 23.4167 25.0715V26.1429H20V29C20 29.5523 19.5523 30 19 30C18.4477 30 18 29.5523 18 29V26.1429H14.0417C13.4659 26.1429 13 26.6221 13 27.2144V37.9285C13 38.5208 13.4659 39 14.0417 39H36.9583C37.5341 39 38 38.5208 38 37.9285V25.0716C37.9999 24.4792 37.5341 24 36.9583 24H32V27C32 27.5523 31.5523 28 31 28C30.4477 28 30 27.5523 30 27V24Z" fill="#FFD61B"/>
<rect x="13" y="40" width="25" height="2" rx="1" fill="#44545F"/>
</svg>
