<svg xmlns="http://www.w3.org/2000/svg" xmlns:xlink="http://www.w3.org/1999/xlink" width="73" height="72" viewBox="0 0 73 72"><defs><path id="vecba" d="M110 1629v-72h73v72z"/><path id="vecbb" d="M156.56 1596.464l5.024-10.128 5.025 10.128zm-29.17.217l5.025-10.138 5.025 10.138zm41.504-.235l-6.35-12.811a1.067 1.067 0 0 0-.84-1.726h-11.997c.516-.168.889-.655.889-1.23a1.29 1.29 0 0 0-1.285-1.294h-.473a3.012 3.012 0 0 0 1.153-2.373 3.002 3.002 0 0 0-2.99-3.012 3.002 3.002 0 0 0-2.992 3.012c0 .965.452 1.822 1.153 2.373h-.473c-.71 0-1.285.579-1.285 1.294 0 .575.374 1.062.89 1.23h-11.877l-.001-.003-.002.003h-.118a1.069 1.069 0 0 0-.776 1.804l-6.414 12.94c-.1.202-.126.42-.092.628a.66.66 0 0 0-.001.123c.36 3.797 3.537 6.766 7.403 6.766 3.865 0 7.042-2.97 7.403-6.766a.682.682 0 0 0-.001-.123 1.034 1.034 0 0 0-.093-.628l-6.244-12.598h12.083v24.735h-9.91a2.166 2.166 0 0 0-2.159 2.174c0 .572.46 1.036 1.029 1.036h24.952c.569 0 1.03-.464 1.03-1.036 0-1.2-.967-2.174-2.16-2.174h-9.91v-24.736h11.98l-6.141 12.392c-.1.202-.126.42-.093.628a.66.66 0 0 0 0 .123c.36 3.797 3.537 6.766 7.402 6.766 3.866 0 7.042-2.97 7.403-6.766a.68.68 0 0 0 0-.123 1.034 1.034 0 0 0-.093-.628z"/></defs><g><g transform="translate(-110 -1557)"><g><use fill="#ffd206" xlink:href="#vecba"/></g><g><g><use fill="#fff" xlink:href="#vecbb"/></g></g></g></g></svg>