<svg width="50" height="37" viewBox="0 0 50 37" fill="none" xmlns="http://www.w3.org/2000/svg">
<path fill-rule="evenodd" clip-rule="evenodd" d="M45.8954 17.5887L44.2116 10.8733C44.8101 10.3024 45.1172 9.54515 45.1172 8.76316C45.1172 7.1524 43.803 5.84211 42.1875 5.84211H34.375V2.92105C34.375 1.31029 33.0608 0 31.4453 0H2.92969C1.31416 0 0 1.31029 0 2.92105V28.2368C0 29.8476 1.31416 31.1579 2.92969 31.1579H6.44531C6.44531 34.3794 9.07364 37 12.3047 37C15.5357 37 18.1641 34.3794 18.1641 31.1579H36.3281C36.3281 34.3794 38.9565 37 42.1875 37C45.4185 37 48.0469 34.3794 48.0469 31.1579C48.0469 31.1191 48.0456 31.0805 48.0443 31.0418L48.0427 30.9917C49.1814 30.5912 50 29.5076 50 28.2368V22.3947C50 19.9742 48.2193 17.9614 45.8954 17.5887ZM42.4015 11.6842L43.8663 17.5263H35.7559L37.9951 15.2937C38.3766 14.9133 38.3766 14.2972 37.9951 13.9168C37.6137 13.5365 36.9957 13.5365 36.6142 13.9168L34.375 16.1491V11.6842H42.4015ZM42.1875 9.73684C42.7265 9.73684 43.1641 9.30059 43.1641 8.76316C43.1641 8.22611 42.7261 7.78947 42.1875 7.78947H34.375V9.73684H42.1875ZM12.3047 35.0526C10.1509 35.0526 8.39844 33.3053 8.39844 31.1579C8.39844 28.9812 10.1826 27.2632 12.3047 27.2632C14.4318 27.2632 16.2109 28.9857 16.2109 31.1579C16.2109 33.3053 14.4585 35.0526 12.3047 35.0526ZM12.3047 25.3158C14.8056 25.3158 17.0132 26.9129 17.8288 29.2105H32.4219V2.92105C32.4219 2.384 31.9839 1.94737 31.4453 1.94737H2.92969C2.39105 1.94737 1.95312 2.384 1.95312 2.92105V28.2368C1.95312 28.7739 2.39105 29.2105 2.92969 29.2105H6.78024C7.5943 26.914 9.80263 25.3158 12.3047 25.3158ZM42.1875 35.0526C40.0337 35.0526 38.2812 33.3053 38.2812 31.1579C38.2812 28.9812 40.0654 27.2632 42.1875 27.2632C44.3146 27.2632 46.0938 28.9857 46.0938 31.1579C46.0938 33.3053 44.3413 35.0526 42.1875 35.0526ZM42.1875 25.3158C44.6205 25.3158 46.7758 26.8269 47.6421 29.0245C47.8867 28.8473 48.0469 28.5605 48.0469 28.2368V23.3684H45.1172C44.5778 23.3684 44.1406 22.9325 44.1406 22.3947C44.1406 21.8569 44.5778 21.4211 45.1172 21.4211H47.879C47.4758 20.2876 46.3902 19.4737 45.1172 19.4737H34.375V29.2105H36.6631C37.4771 26.914 39.6854 25.3158 42.1875 25.3158Z" fill="#44545F"/>
<path fill-rule="evenodd" clip-rule="evenodd" d="M18 24C23.5228 24 28 19.5228 28 14C28 8.47715 23.5228 4 18 4C12.4772 4 8 8.47715 8 14C8 19.5228 12.4772 24 18 24Z" fill="#FFD61B"/>
<path d="M22 14H19V11C19 10.4477 18.5523 10 18 10C17.4477 10 17 10.4477 17 11V15C17 15.5523 17.4477 16 18 16H22C22.5523 16 23 15.5523 23 15C23 14.4477 22.5523 14 22 14Z" fill="#44545F"/>
</svg>
