<svg width="32" height="40" viewBox="0 0 32 40" fill="none" xmlns="http://www.w3.org/2000/svg">
<path fill-rule="evenodd" clip-rule="evenodd" d="M31.8748 14.4102V38.9102L30.8733 39.9H3.54165V36.4H0V0H28.3332V10.9102L31.5228 14.0623L31.8748 14.4102ZM21.2499 14H29.4566L28.3332 12.8898L21.2499 5.8898V14ZM1.41666 35V1.4H26.9165V9.5102L21.1868 3.8479L20.8348 3.5H3.54165V35H1.41666ZM4.95831 36.4V38.5H29.4566L30.4582 37.5102V15.4H19.8332V4.9H4.95831V36.4Z" fill="#44545F"/>
<path fill-rule="evenodd" clip-rule="evenodd" d="M7 7H17.9676V17.2949H28.3308V36.6037H7V7Z" fill="#FFD200"/>
<path d="M14.75 25H19.25C19.6648 25 20 24.7765 20 24.5C20 24.2235 19.6648 24 19.25 24H14.75C14.3352 24 14 24.2235 14 24.5C14 24.7765 14.3352 25 14.75 25Z" fill="#44545F"/>
<path d="M23.2857 28H14.7143C14.3193 28 14 28.2235 14 28.5C14 28.7765 14.3193 29 14.7143 29H23.2857C23.6807 29 24 28.7765 24 28.5C24 28.2235 23.6807 28 23.2857 28Z" fill="#44545F"/>
</svg>
