<svg width="50" height="44" viewBox="0 0 50 44" fill="none" xmlns="http://www.w3.org/2000/svg">
<path fill-rule="evenodd" clip-rule="evenodd" d="M19.5495 27.7053H27.3693C27.7476 27.7053 28 27.9579 28 28.3369C28 28.7158 27.7478 28.9685 27.3693 28.9685H19.5496V40.2737C19.5496 40.5895 19.2973 40.9053 18.9189 40.9053H18.036H11.2252H9.01803H2.20724H0.630662C0.252249 40.9053 0 40.6527 0 40.2737V31.3053C0 29.979 0.882829 28.8421 2.14407 28.5896V22.7791C2.14407 22.4001 2.39632 22.1475 2.77473 22.1475H11.162C12.4233 22.1475 13.5584 22.9053 14.0629 24.1053L18.162 31.621L18.2881 31.6842V20.6316C18.2881 20.2526 18.5404 20 18.9188 20C19.2972 20 19.5495 20.2526 19.5495 20.6316V27.7053ZM11.1621 23.3474H3.4054V28.4632H8.45045C9.14411 28.4632 9.71169 29.0316 9.71169 29.7264V32.8211H14.6937V31.3685C14.6937 31.0527 14.8197 30.7369 15.1351 30.5474C15.3873 30.3579 15.7657 30.3579 16.081 30.4842L16.1441 30.5474L12.9909 24.7369C12.9278 24.7369 12.9278 24.6737 12.9278 24.6737C12.6125 23.9158 11.9188 23.4738 11.1621 23.4738V23.3474Z" fill="#44545F"/>
<path fill-rule="evenodd" clip-rule="evenodd" d="M18.2882 39.642H17.8468H11.2883H8.82885H2.27039H1.26123V36.3578H18.2882V39.642Z" fill="#FFD200"/>
<path fill-rule="evenodd" clip-rule="evenodd" d="M18.3512 36.4797H1.26123V31.3684C1.26123 30.4841 1.95489 29.7894 2.77472 29.7894H8.38727V33.5157C8.38727 33.8947 8.63952 34.1474 9.01794 34.1474H15.2611C15.6396 34.1474 15.8918 33.8947 15.8918 33.5157V31.8736L18.3513 33.1999V35.0947L18.3512 36.4797Z" fill="#FFD200"/>
<path fill-rule="evenodd" clip-rule="evenodd" d="M29.3846 0.0955564L49.7291 13.9788C49.9198 14.1061 50.047 14.4246 49.9835 14.6793C49.8563 14.9341 49.602 15.1251 49.3477 15.1251H48.9662V41.3631C48.9662 41.7453 48.7119 42 48.3304 42H27.8588C27.4773 42 27.223 41.7453 27.223 41.3631C27.223 40.981 27.4773 40.7262 27.8588 40.7262H47.6948V15.1251H10.3118V18.7551C10.3118 19.1372 10.0575 19.392 9.67603 19.392C9.29454 19.392 9.04023 19.1372 9.04023 18.7551V15.1251H8.65874C8.34084 15.1251 8.08654 14.9341 8.02294 14.6793C7.95934 14.4246 8.02294 14.1062 8.27724 13.9788L28.6853 0.0955564C28.876 -0.0318521 29.1939 -0.0318521 29.3846 0.0955564ZM29.0032 1.36931L10.6932 13.8514V13.8515H47.3132L29.0032 1.36931Z" fill="#44545F"/>
<path d="M37.3548 32H30.6452C30.2581 32 30 32.2581 30 32.6452V39.3548C30 39.7419 30.2581 40 30.6452 40H37.3548C37.7419 40 38 39.7419 38 39.3548V32.6452C38 32.2581 37.6774 32 37.3548 32Z" fill="#44545F"/>
<path d="M46.3548 32H39.6452C39.2581 32 39 32.2581 39 32.6452V39.3548C39 39.7419 39.2581 40 39.6452 40H46.3548C46.7419 40 47 39.7419 47 39.3548V32.6452C46.9999 32.2581 46.7419 32 46.3548 32Z" fill="#44545F"/>
<path d="M46.3548 22H39.6452C39.2581 22 39 22.2581 39 22.6452V29.3548C39 29.6774 39.2581 30 39.6452 30H46.3548C46.7419 30 47 29.7419 47 29.3548V22.6452C46.9999 22.2581 46.7419 22 46.3548 22Z" fill="#FFD61B"/>
<path d="M28.3548 18H21.6452C21.2581 18 21 18.2581 21 18.6452V25.3548C21 25.7419 21.2581 26 21.6452 26H28.3548C28.7419 26 29 25.7419 29 25.3548V18.6451C29 18.2581 28.7419 18 28.3548 18Z" fill="#FFD61B"/>
<path fill-rule="evenodd" clip-rule="evenodd" d="M25 8C25 5.80643 26.8064 4 29 4C31.1936 4 33 5.80652 33 8C33 10.1936 31.1936 12 29 12C26.8064 12 25 10.1936 25 8ZM26.2903 8C26.2903 9.48392 27.5162 10.7097 29 10.7097C30.4839 10.7097 31.7097 9.48392 31.7097 8C31.7097 6.51608 30.4839 5.29031 29 5.29031C27.5161 5.29031 26.2903 6.51617 26.2903 8Z" fill="#44545F"/>
<path fill-rule="evenodd" clip-rule="evenodd" d="M5.5 44C3.54419 44 2 42.4559 2 40.5C2 38.5442 3.54406 37 5.5 37C7.45595 37 9 38.5441 9 40.5C9 42.4558 7.35297 44 5.5 44Z" fill="#44545F"/>
<path fill-rule="evenodd" clip-rule="evenodd" d="M14.5 44C12.5442 44 11 42.4559 11 40.5C11 38.5442 12.5441 37 14.5 37C16.4559 37 18 38.5441 18 40.5C17.9999 42.4558 16.4558 44 14.5 44Z" fill="#44545F"/>
</svg>
