<svg width="40" height="42" viewBox="0 0 40 42" fill="none" xmlns="http://www.w3.org/2000/svg">
<path fill-rule="evenodd" clip-rule="evenodd" d="M37.931 0C36.7885 0 35.8621 0.940283 35.8621 2.1V11.2H34.1034V4.2C34.1034 3.81343 33.7947 3.5 33.4138 3.5H6.58621C6.20535 3.5 5.89655 3.81343 5.89655 4.2V11.2H4.13793V2.1C4.13793 0.940283 3.21154 0 2.06897 0C0.926387 0 0 0.940283 0 2.1V41.3C0 41.6866 0.308796 42 0.689655 42H3.44828C3.82914 42 4.13793 41.6866 4.13793 41.3V37.1H35.8621V41.3C35.8621 41.6866 36.1709 42 36.5517 42H39.3103C39.6912 42 40 41.6866 40 41.3V2.1C40 0.940283 39.0736 0 37.931 0ZM16.5517 32.9V20.1H17.931V22.2C17.931 22.5866 18.2398 22.9 18.6207 22.9H21.3793C21.7602 22.9 22.069 22.5866 22.069 22.2V20.1H23.4483V32.9H16.5517ZM7.27586 20.1V32.9H15.1724V20.1H12.7931H11.4138H10.0345H8.65517H7.27586ZM20.6897 20.1H19.3103V21.5H20.6897V20.1ZM24.8276 20.1H27.2069H28.5862H29.9655H31.3448H32.7241V32.9H24.8276V20.1ZM33.4138 18.7H6.58621C6.20535 18.7 5.89655 19.0134 5.89655 19.4V32.9H4.13793V15.4H15.8621H17.2414H22.7586H24.1379H35.8621V32.9H34.1034V19.4C34.1034 19.0134 33.7947 18.7 33.4138 18.7ZM32.7241 11.2H24.8276V4.9H26.2069H27.5862H28.9655H30.3448H32.7241V11.2ZM23.4483 11.2H16.5517V4.9H17.931V7C17.931 7.38657 18.2398 7.7 18.6207 7.7H21.3793C21.7602 7.7 22.069 7.38657 22.069 7V4.9H23.4483V11.2ZM20.6897 6.3V4.9H19.3103V6.3H20.6897ZM9.65517 4.9H7.27586V11.2H15.1724V4.9H13.7931H9.65517ZM35.8621 12.6V14H4.13793V12.6H35.8621ZM1.37931 40.6H2.75862V2.1C2.75862 1.71343 2.44983 1.4 2.06897 1.4C1.68811 1.4 1.37931 1.71343 1.37931 2.1V40.6ZM4.13793 35.7V34.3H35.8621V35.7H4.13793ZM37.2414 2.1V40.6H38.6207V2.1C38.6207 1.71343 38.3119 1.4 37.931 1.4C37.5502 1.4 37.2414 1.71343 37.2414 2.1Z" fill="#44545F"/>
<rect x="7" y="20" width="8.3" height="13" fill="#FFD200"/>
<path fill-rule="evenodd" clip-rule="evenodd" d="M24.7961 20.0421L32.7552 20V33L24.7961 33.0421V20.0421Z" fill="#FFD200"/>
<path fill-rule="evenodd" clip-rule="evenodd" d="M24.7375 4.91431H32.6966V11.1824H24.7375V4.91431Z" fill="#FFD200"/>
<rect x="7.19666" y="4.91199" width="7.95906" height="6.26531" fill="#FFD200"/>
</svg>
