<svg width="53" height="38" viewBox="0 0 53 38" fill="none" xmlns="http://www.w3.org/2000/svg">
<path fill-rule="evenodd" clip-rule="evenodd" d="M31.8571 14C31.3838 14 31 14.3731 31 14.8333V18.1667C31 18.6269 31.3838 19 31.8571 19H42.1429C42.6162 19 43 18.6269 43 18.1667V14.8333C43 14.3731 42.6162 14 42.1429 14H31.8571ZM41.2857 17.3333H32.7143V15.6667H41.2857V17.3333Z" fill="black"/>
<path fill-rule="evenodd" clip-rule="evenodd" d="M49 4H44.8981V13.551H27.5035V4H23V20.0475H32.0364V30H49V4Z" fill="#FFD200"/>
<path fill-rule="evenodd" clip-rule="evenodd" d="M11.1176 25.6279H0.883335C0.395519 25.6279 0 26.0236 0 26.5116V33.5814C0 34.0694 0.395519 34.4651 0.883335 34.4651H12.8842L16.1588 37.7411C16.3244 37.9068 16.5491 38 16.7833 38H36.2167C36.7045 38 37.1 37.6043 37.1 37.1163V33.5814H52.1167C52.6045 33.5814 53 33.1857 53 32.6977V0.883721C53 0.395689 52.6045 0 52.1167 0H20.3167C19.8288 0 19.4333 0.395689 19.4333 0.883721V22.093H15.0167C14.7825 22.093 14.5578 22.1862 14.3921 22.3519L11.1176 25.6279ZM36.8412 4.67751C36.5885 4.42465 36.2085 4.34913 35.8785 4.48592C35.5486 4.62271 35.3333 4.94504 35.3333 5.30233V9.72093H31.8V1.76744H40.6333V8.47129L36.8412 4.67751ZM51.2333 31.814V1.76744H42.4V10.6047C42.4 10.9619 42.1848 11.2843 41.8548 11.4211C41.7479 11.4659 41.6327 11.4888 41.5167 11.4884C41.2825 11.4884 41.0577 11.3952 40.8921 11.2295L37.1 7.43568V10.6047C37.1 11.0927 36.7045 11.4884 36.2167 11.4884H30.9167C30.4288 11.4884 30.0333 11.0927 30.0333 10.6047V1.76744H21.2V22.093H29.15C29.6378 22.093 30.0333 22.4887 30.0333 22.9767V27.3953C30.0333 27.8834 29.6378 28.2791 29.15 28.2791H21.5658L25.0991 31.814H51.2333ZM13.25 32.6977H1.76667V27.3953H11.4833C11.7175 27.3953 11.9423 27.3021 12.1079 27.1364L15.3824 23.8605H28.2667V26.5116H19.4333C19.0762 26.5116 18.754 26.7269 18.6173 27.0571C18.4806 27.3872 18.5565 27.7673 18.8088 28.0202L24.1088 33.3225C24.2744 33.4882 24.4991 33.5814 24.7333 33.5814H35.3333V36.2326H17.1491L13.8745 32.9566C13.7089 32.7909 13.4842 32.6977 13.25 32.6977Z" fill="#44545F"/>
</svg>
