<svg width="970" height="336" viewBox="0 0 970 336" fill="none" xmlns="http://www.w3.org/2000/svg">
<path d="M970 0H0V336H970V0Z" fill="#F7F7F7"/>
<g filter="url(#filter0_d)">
<path d="M192 160H32V304H192V160Z" fill="white"/>
</g>
<path d="M192 160H32V232H192V160Z" fill="#FFD205"/>
<path d="M100.812 176H125.188V178.344H100.812V176Z" fill="white"/>
<path d="M100.812 213.656H125.188V216H100.812V213.656Z" fill="white"/>
<path d="M121.551 190.669L120.21 189.895L120.13 189.847C115.732 187.209 110.268 187.209 105.871 189.847L105.791 189.895L104.461 190.68L108.608 194.828H117.392L121.551 190.669Z" fill="white"/>
<path d="M104.016 211.312H104.624L111.828 204.108V197.172H108.608L104.016 201.764V211.312Z" fill="white"/>
<path d="M121.984 180.688H104.016V188.225L104.584 187.886L104.665 187.837C109.806 184.753 116.194 184.753 121.335 187.837L121.415 187.886L121.984 188.233V180.688Z" fill="white"/>
<path d="M121.984 211.312V201.764L117.392 197.172H114.172V204.108L121.376 211.312H121.984Z" fill="white"/>
<path d="M118.061 211.312L113.296 206.547H112.704L107.938 211.312H118.061Z" fill="white"/>
<g filter="url(#filter1_d)">
<path d="M379 160H219V304H379V160Z" fill="white"/>
</g>
<path d="M379 160H219V232H379V160Z" fill="#FFD205"/>
<g filter="url(#filter2_d)">
<path d="M565 160H405V304H565V160Z" fill="white"/>
</g>
<path d="M565 160H405V232H565V160Z" fill="#FFD205"/>
<g filter="url(#filter3_d)">
<path d="M752 160H592V304H752V160Z" fill="white"/>
</g>
<path d="M752 160H592V232H752V160Z" fill="#FFD205"/>
<g filter="url(#filter4_d)">
<path d="M938 160H778V304H938V160Z" fill="white"/>
</g>
<path d="M938 160H778V232H938V160Z" fill="#FFD205"/>
<g filter="url(#filter5_d)">
<path d="M628 55H343V100H628V55Z" fill="#FFD205"/>
</g>
<path d="M485 91L485 160" stroke="#FFD205" stroke-width="3"/>
<path d="M300.5 82V160" stroke="#FFD205" stroke-width="3"/>
<path d="M113.5 82V160" stroke="#FFD205" stroke-width="3"/>
<path d="M672.5 82V160" stroke="#FFD205" stroke-width="3"/>
<path d="M858.5 82V160" stroke="#FFD205" stroke-width="3"/>
<path d="M112 80.5H405" stroke="#FFD205" stroke-width="3"/>
<path d="M562 80.5H860" stroke="#FFD205" stroke-width="3"/>
<path d="M393.969 80.8027H390.117L389.384 83H387.048L391.018 72.3359H393.054L397.045 83H394.709L393.969 80.8027ZM390.71 79.0229H393.376L392.036 75.0312L390.71 79.0229ZM398.042 83V72.3359H401.777C403.071 72.3359 404.052 72.585 404.721 73.083C405.39 73.5762 405.725 74.3013 405.725 75.2583C405.725 75.7808 405.59 76.2422 405.322 76.6426C405.053 77.0381 404.68 77.3286 404.201 77.5142C404.748 77.6509 405.178 77.9268 405.49 78.3418C405.808 78.7568 405.966 79.2646 405.966 79.8652C405.966 80.8906 405.639 81.667 404.985 82.1943C404.331 82.7217 403.398 82.9902 402.187 83H398.042ZM400.239 78.3564V81.2349H402.121C402.639 81.2349 403.042 81.1128 403.33 80.8687C403.623 80.6196 403.769 80.2778 403.769 79.8433C403.769 78.8667 403.264 78.3711 402.253 78.3564H400.239ZM400.239 76.8037H401.865C402.973 76.7842 403.527 76.3423 403.527 75.478C403.527 74.9946 403.386 74.6479 403.103 74.438C402.824 74.2231 402.382 74.1157 401.777 74.1157H400.239V76.8037ZM415.444 74.1157H412.177V83H409.98V74.1157H406.757V72.3359H415.444V74.1157ZM425.258 77.9097C425.258 78.9595 425.073 79.8799 424.702 80.6709C424.331 81.4619 423.798 82.0723 423.105 82.502C422.417 82.9316 421.625 83.1465 420.732 83.1465C419.848 83.1465 419.06 82.9341 418.366 82.5093C417.673 82.0845 417.136 81.479 416.755 80.6929C416.374 79.9019 416.181 78.9937 416.176 77.9683V77.4409C416.176 76.3911 416.364 75.4683 416.74 74.6724C417.121 73.8716 417.656 73.2588 418.344 72.834C419.038 72.4043 419.829 72.1895 420.717 72.1895C421.606 72.1895 422.395 72.4043 423.083 72.834C423.776 73.2588 424.311 73.8716 424.687 74.6724C425.068 75.4683 425.258 76.3887 425.258 77.4336V77.9097ZM423.032 77.4263C423.032 76.3081 422.832 75.4585 422.431 74.8774C422.031 74.2964 421.459 74.0059 420.717 74.0059C419.98 74.0059 419.411 74.2939 419.011 74.8701C418.61 75.4414 418.408 76.2812 418.403 77.3896V77.9097C418.403 78.9985 418.603 79.8433 419.003 80.4438C419.404 81.0444 419.98 81.3447 420.732 81.3447C421.469 81.3447 422.036 81.0566 422.431 80.4805C422.827 79.8994 423.027 79.0547 423.032 77.9463V77.4263ZM429.726 72.3359L432.465 80.0703L435.19 72.3359H438.076V83H435.871V80.085L436.091 75.0532L433.212 83H431.704L428.833 75.0605L429.052 80.085V83H426.855V72.3359H429.726ZM446.147 80.8027H442.294L441.562 83H439.226L443.195 72.3359H445.231L449.223 83H446.887L446.147 80.8027ZM442.888 79.0229H445.554L444.213 75.0312L442.888 79.0229ZM457.368 74.1157H454.101V83H451.904V74.1157H448.681V72.3359H457.368V74.1157ZM465.021 72.3359H467.226V83H465.021V75.9175L460.751 83H458.554V72.3359H460.751V79.4331L465.021 72.3359ZM474.389 75.2729C474.389 74.8677 474.23 74.5503 473.913 74.3208C473.596 74.0864 473.176 73.9692 472.653 73.9692C472.185 73.9692 471.794 74.0864 471.481 74.3208C471.174 74.5503 471.02 74.8506 471.02 75.2217H468.823C468.823 74.6455 468.984 74.1279 469.306 73.6689C469.633 73.2051 470.095 72.8438 470.69 72.585C471.291 72.3262 471.945 72.1968 472.653 72.1968C473.884 72.1968 474.848 72.4604 475.546 72.9878C476.245 73.5151 476.594 74.2622 476.594 75.229C476.594 75.7026 476.45 76.1421 476.162 76.5474C475.878 76.9526 475.473 77.2773 474.946 77.5215C475.532 77.7266 475.981 78.0391 476.293 78.459C476.606 78.874 476.762 79.3916 476.762 80.0117C476.762 80.9688 476.386 81.7305 475.634 82.2969C474.887 82.8584 473.894 83.1392 472.653 83.1392C471.877 83.1392 471.179 83.0073 470.559 82.7437C469.938 82.4751 469.467 82.1113 469.145 81.6523C468.828 81.1885 468.669 80.6514 468.669 80.041H470.881C470.881 80.4219 471.047 80.7417 471.379 81.0005C471.711 81.2544 472.136 81.3813 472.653 81.3813C473.239 81.3813 473.701 81.2495 474.038 80.9858C474.379 80.7222 474.55 80.3877 474.55 79.9824C474.55 79.4258 474.399 79.0278 474.096 78.7886C473.793 78.5444 473.352 78.4224 472.771 78.4224H471.459V76.7012H472.814C473.864 76.6865 474.389 76.2104 474.389 75.2729ZM484.409 80.8027H480.556L479.824 83H477.487L481.457 72.3359H483.493L487.485 83H485.148L484.409 80.8027ZM481.149 79.0229H483.815L482.475 75.0312L481.149 79.0229ZM488.386 72.3359H490.583V81.2349H494.853V72.3359H497.058V81.2349H498.515L498.369 85.5708H496.318V83H488.386V72.3359ZM506.257 72.3359H508.461V83H506.257V75.9175L501.987 83H499.79V72.3359H501.987V79.4331L506.257 72.3359ZM515.295 83V79.1548H513.508L511.582 83H509.208L511.486 78.4517C510.388 77.8462 509.838 76.9062 509.838 75.6318C509.838 74.5869 510.18 73.7788 510.864 73.2075C511.547 72.6362 512.502 72.3457 513.728 72.3359H517.5V83H515.295ZM512.036 75.793C512.036 76.3887 512.18 76.8208 512.468 77.0894C512.761 77.3579 513.198 77.4922 513.779 77.4922H515.295V74.1157H513.779C512.617 74.1157 512.036 74.6748 512.036 75.793ZM531.423 79.4478C531.34 80.5952 530.915 81.4985 530.148 82.1577C529.387 82.8169 528.381 83.1465 527.131 83.1465C525.764 83.1465 524.687 82.6875 523.901 81.7695C523.12 80.8467 522.729 79.582 522.729 77.9756V77.3237C522.729 76.2983 522.91 75.395 523.271 74.6138C523.632 73.8325 524.147 73.2344 524.816 72.8193C525.49 72.3994 526.271 72.1895 527.16 72.1895C528.391 72.1895 529.382 72.519 530.134 73.1782C530.886 73.8374 531.32 74.7627 531.438 75.9541H529.24C529.187 75.2656 528.994 74.7676 528.662 74.46C528.334 74.1475 527.834 73.9912 527.16 73.9912C526.428 73.9912 525.878 74.2549 525.512 74.7822C525.151 75.3047 524.965 76.1177 524.956 77.2212V78.0269C524.956 79.1792 525.129 80.0215 525.476 80.5537C525.827 81.0859 526.379 81.3521 527.131 81.3521C527.81 81.3521 528.315 81.1982 528.647 80.8906C528.984 80.5781 529.177 80.0972 529.226 79.4478H531.423ZM536.345 78.6421H535.078V83H532.88V72.3359H535.078V76.606H536.081L538.688 72.3359H541.369L538.081 77.3823L541.713 83H539.091L536.345 78.6421ZM551.235 72.3359V83H549.03V74.1157H546.188L546.013 77.8804C545.939 79.1499 545.778 80.1509 545.529 80.8833C545.28 81.6108 544.917 82.1455 544.438 82.4873C543.959 82.8242 543.305 82.9951 542.475 83H541.904V81.2349L542.27 81.1982C542.822 81.125 543.215 80.8076 543.449 80.2461C543.688 79.6797 543.84 78.6738 543.903 77.2285L544.086 72.3359H551.235ZM559.306 80.8027H555.454L554.721 83H552.385L556.354 72.3359H558.391L562.382 83H560.046L559.306 80.8027ZM556.047 79.0229H558.713L557.373 75.0312L556.047 79.0229ZM573.413 85.6221H571.384V83H564.953V85.6147H562.873L562.756 81.2349H563.562C563.996 80.8735 564.331 80.3438 564.565 79.6455C564.804 78.9424 564.965 78.0732 565.048 77.0381L565.356 72.3359H572.343V81.2349H573.588L573.413 85.6221ZM566.081 81.2349H570.146V74.1157H567.443L567.26 76.9209C567.114 78.8008 566.721 80.2388 566.081 81.2349ZM580.883 80.8027H577.031L576.298 83H573.962L577.932 72.3359H579.968L583.959 83H581.623L580.883 80.8027ZM577.624 79.0229H580.29L578.95 75.0312L577.624 79.0229Z" fill="black"/>
<path d="M76.2192 260.616C76.0874 261.744 75.6699 262.616 74.9668 263.231C74.2686 263.841 73.3384 264.146 72.1763 264.146C70.9165 264.146 69.9058 263.695 69.144 262.792C68.3872 261.888 68.0088 260.68 68.0088 259.166V258.141C68.0088 257.149 68.1846 256.278 68.5361 255.526C68.8926 254.774 69.3955 254.198 70.0449 253.797C70.6943 253.392 71.4463 253.189 72.3008 253.189C73.4336 253.189 74.3418 253.507 75.0254 254.142C75.709 254.771 76.1069 255.646 76.2192 256.764H74.8057C74.6836 255.914 74.4175 255.299 74.0073 254.918C73.6021 254.537 73.0332 254.347 72.3008 254.347C71.4023 254.347 70.6968 254.679 70.1841 255.343C69.6763 256.007 69.4224 256.952 69.4224 258.177V259.21C69.4224 260.367 69.6641 261.288 70.1475 261.971C70.6309 262.655 71.3071 262.997 72.1763 262.997C72.9575 262.997 73.5557 262.821 73.9707 262.469C74.3906 262.113 74.6689 261.495 74.8057 260.616H76.2192ZM77.5742 259.964C77.5742 259.188 77.7256 258.49 78.0283 257.87C78.3359 257.25 78.7607 256.771 79.3027 256.434C79.8496 256.097 80.4722 255.929 81.1704 255.929C82.2495 255.929 83.1211 256.302 83.7852 257.049C84.4541 257.796 84.7886 258.79 84.7886 260.03V260.125C84.7886 260.897 84.6396 261.59 84.3418 262.206C84.0488 262.816 83.6265 263.292 83.0747 263.634C82.5278 263.976 81.8979 264.146 81.1851 264.146C80.1108 264.146 79.2393 263.773 78.5703 263.026C77.9062 262.279 77.5742 261.29 77.5742 260.06V259.964ZM78.9365 260.125C78.9365 261.004 79.1392 261.71 79.5444 262.242C79.9546 262.774 80.5015 263.041 81.1851 263.041C81.8735 263.041 82.4204 262.772 82.8257 262.235C83.231 261.693 83.4336 260.936 83.4336 259.964C83.4336 259.095 83.2261 258.392 82.811 257.855C82.4009 257.313 81.854 257.042 81.1704 257.042C80.5015 257.042 79.9619 257.308 79.5518 257.84C79.1416 258.373 78.9365 259.134 78.9365 260.125ZM88.9561 260.624H87.9673V264H86.605V256.075H87.9673V259.43H88.8535L91.5195 256.075H93.1602L90.0254 259.884L93.4238 264H91.7026L88.9561 260.624ZM101.283 260.125C101.283 261.332 101.007 262.303 100.455 263.041C99.9033 263.778 99.1562 264.146 98.2139 264.146C97.252 264.146 96.4951 263.841 95.9434 263.231V267.047H94.5884V256.075H95.8262L95.8921 256.954C96.4438 256.271 97.2104 255.929 98.1919 255.929C99.144 255.929 99.896 256.288 100.448 257.005C101.004 257.723 101.283 258.722 101.283 260.001V260.125ZM99.9277 259.972C99.9277 259.078 99.7373 258.373 99.3564 257.855C98.9756 257.337 98.4531 257.079 97.7891 257.079C96.9688 257.079 96.3535 257.442 95.9434 258.17V261.957C96.3486 262.679 96.9688 263.041 97.8037 263.041C98.4531 263.041 98.9683 262.784 99.3491 262.271C99.7349 261.754 99.9277 260.987 99.9277 259.972ZM107.904 264C107.826 263.844 107.762 263.565 107.713 263.165C107.083 263.819 106.332 264.146 105.458 264.146C104.676 264.146 104.034 263.927 103.531 263.487C103.033 263.043 102.784 262.481 102.784 261.803C102.784 260.978 103.097 260.338 103.722 259.884C104.352 259.425 105.235 259.195 106.373 259.195H107.691V258.573C107.691 258.099 107.55 257.723 107.267 257.445C106.983 257.162 106.566 257.02 106.014 257.02C105.531 257.02 105.125 257.142 104.798 257.386C104.471 257.63 104.308 257.926 104.308 258.272H102.945C102.945 257.877 103.084 257.496 103.363 257.13C103.646 256.759 104.027 256.466 104.505 256.251C104.989 256.036 105.519 255.929 106.095 255.929C107.008 255.929 107.723 256.158 108.241 256.617C108.758 257.071 109.027 257.699 109.046 258.5V262.147C109.046 262.875 109.139 263.453 109.325 263.883V264H107.904ZM105.655 262.967C106.08 262.967 106.483 262.857 106.864 262.638C107.245 262.418 107.521 262.132 107.691 261.781V260.155H106.629C104.969 260.155 104.139 260.641 104.139 261.612C104.139 262.037 104.281 262.369 104.564 262.608C104.847 262.848 105.211 262.967 105.655 262.967ZM112.569 256.075V262.894H115.47V256.075H116.825V262.894H119.718V256.075H121.08V262.894H122.193L122.062 266.351H120.846V264H111.207V256.075H112.569ZM126.954 264.146C125.88 264.146 125.006 263.795 124.332 263.092C123.658 262.384 123.321 261.439 123.321 260.257V260.008C123.321 259.222 123.47 258.521 123.768 257.906C124.071 257.286 124.491 256.803 125.028 256.456C125.57 256.104 126.156 255.929 126.786 255.929C127.816 255.929 128.617 256.268 129.188 256.947C129.759 257.625 130.045 258.597 130.045 259.862V260.426H124.676C124.696 261.207 124.923 261.839 125.357 262.323C125.797 262.801 126.354 263.041 127.027 263.041C127.506 263.041 127.911 262.943 128.243 262.748C128.575 262.552 128.866 262.293 129.115 261.971L129.942 262.616C129.278 263.636 128.282 264.146 126.954 264.146ZM126.786 257.042C126.239 257.042 125.78 257.242 125.409 257.643C125.038 258.038 124.808 258.595 124.72 259.312H128.69V259.21C128.651 258.521 128.465 257.989 128.133 257.613C127.801 257.232 127.352 257.042 126.786 257.042ZM138.094 264H136.739V260.616H133.099V264H131.737V256.075H133.099V259.51H136.739V256.075H138.094V264ZM145.404 256.075H146.759V264H145.404V258.221L141.749 264H140.394V256.075H141.749V261.861L145.404 256.075ZM152.223 264.146C151.148 264.146 150.274 263.795 149.601 263.092C148.927 262.384 148.59 261.439 148.59 260.257V260.008C148.59 259.222 148.739 258.521 149.037 257.906C149.339 257.286 149.759 256.803 150.296 256.456C150.838 256.104 151.424 255.929 152.054 255.929C153.084 255.929 153.885 256.268 154.457 256.947C155.028 257.625 155.313 258.597 155.313 259.862V260.426H149.945C149.964 261.207 150.191 261.839 150.626 262.323C151.065 262.801 151.622 263.041 152.296 263.041C152.774 263.041 153.18 262.943 153.512 262.748C153.844 262.552 154.134 262.293 154.383 261.971L155.211 262.616C154.547 263.636 153.551 264.146 152.223 264.146ZM152.054 257.042C151.507 257.042 151.048 257.242 150.677 257.643C150.306 258.038 150.077 258.595 149.989 259.312H153.958V259.21C153.919 258.521 153.734 257.989 153.402 257.613C153.07 257.232 152.621 257.042 152.054 257.042ZM81.9761 282V274.075H85.0669C86.1216 274.075 86.9297 274.261 87.4912 274.632C88.0576 274.998 88.3408 275.538 88.3408 276.25C88.3408 276.617 88.231 276.949 88.0112 277.247C87.7915 277.54 87.4668 277.764 87.0371 277.92C87.5156 278.033 87.8989 278.252 88.187 278.58C88.48 278.907 88.6265 279.297 88.6265 279.751C88.6265 280.479 88.3579 281.036 87.8208 281.421C87.2886 281.807 86.5342 282 85.5576 282H81.9761ZM83.3311 278.521V280.909H85.5723C86.1387 280.909 86.561 280.804 86.8394 280.594C87.1226 280.384 87.2642 280.088 87.2642 279.708C87.2642 278.917 86.6831 278.521 85.521 278.521H83.3311ZM83.3311 277.437H85.0815C86.3511 277.437 86.9858 277.066 86.9858 276.324C86.9858 275.582 86.3853 275.198 85.1841 275.174H83.3311V277.437ZM97.1152 278.125C97.1152 279.332 96.8394 280.303 96.2876 281.041C95.7358 281.778 94.9888 282.146 94.0464 282.146C93.0845 282.146 92.3276 281.841 91.7759 281.231V285.047H90.4209V274.075H91.6587L91.7246 274.954C92.2764 274.271 93.043 273.929 94.0244 273.929C94.9766 273.929 95.7285 274.288 96.2803 275.005C96.8369 275.723 97.1152 276.722 97.1152 278.001V278.125ZM95.7603 277.972C95.7603 277.078 95.5698 276.373 95.189 275.855C94.8081 275.337 94.2856 275.079 93.6216 275.079C92.8013 275.079 92.186 275.442 91.7759 276.17V279.957C92.1812 280.679 92.8013 281.041 93.6362 281.041C94.2856 281.041 94.8008 280.784 95.1816 280.271C95.5674 279.754 95.7603 278.987 95.7603 277.972ZM102.132 282.146C101.058 282.146 100.184 281.795 99.5103 281.092C98.8364 280.384 98.4995 279.439 98.4995 278.257V278.008C98.4995 277.222 98.6484 276.521 98.9463 275.906C99.249 275.286 99.6689 274.803 100.206 274.456C100.748 274.104 101.334 273.929 101.964 273.929C102.994 273.929 103.795 274.268 104.366 274.947C104.938 275.625 105.223 276.597 105.223 277.862V278.426H99.8545C99.874 279.207 100.101 279.839 100.536 280.323C100.975 280.801 101.532 281.041 102.206 281.041C102.684 281.041 103.089 280.943 103.421 280.748C103.753 280.552 104.044 280.293 104.293 279.971L105.121 280.616C104.457 281.636 103.46 282.146 102.132 282.146ZM101.964 275.042C101.417 275.042 100.958 275.242 100.587 275.643C100.216 276.038 99.9863 276.595 99.8984 277.312H103.868V277.21C103.829 276.521 103.644 275.989 103.312 275.613C102.979 275.232 102.53 275.042 101.964 275.042ZM111.361 280.206L114.056 274.075H115.748V282H114.393V276.236L111.83 282H110.892L108.277 276.111V282H106.922V274.075H108.68L111.361 280.206ZM121.219 282.146C120.145 282.146 119.271 281.795 118.597 281.092C117.923 280.384 117.586 279.439 117.586 278.257V278.008C117.586 277.222 117.735 276.521 118.033 275.906C118.336 275.286 118.756 274.803 119.293 274.456C119.835 274.104 120.421 273.929 121.051 273.929C122.081 273.929 122.882 274.268 123.453 274.947C124.024 275.625 124.31 276.597 124.31 277.862V278.426H118.941C118.961 279.207 119.188 279.839 119.623 280.323C120.062 280.801 120.619 281.041 121.292 281.041C121.771 281.041 122.176 280.943 122.508 280.748C122.84 280.552 123.131 280.293 123.38 279.971L124.208 280.616C123.543 281.636 122.547 282.146 121.219 282.146ZM121.051 275.042C120.504 275.042 120.045 275.242 119.674 275.643C119.303 276.038 119.073 276.595 118.985 277.312H122.955V277.21C122.916 276.521 122.73 275.989 122.398 275.613C122.066 275.232 121.617 275.042 121.051 275.042ZM132.359 282H131.004V278.616H127.364V282H126.002V274.075H127.364V277.51H131.004V274.075H132.359V282ZM139.669 274.075H141.024V282H139.669V276.221L136.014 282H134.659V274.075H136.014V279.861L139.669 274.075Z" fill="black"/>
<path d="M267.072 269.616C267.209 270.495 267.485 271.113 267.9 271.469C268.32 271.821 268.92 271.997 269.702 271.997C270.546 271.997 271.213 271.667 271.701 271.008C272.194 270.349 272.446 269.433 272.456 268.261H268.259V267.104H272.456C272.456 265.947 272.202 265.031 271.694 264.357C271.191 263.684 270.485 263.347 269.577 263.347C268.845 263.347 268.273 263.537 267.863 263.918C267.458 264.299 267.194 264.914 267.072 265.764H265.659C265.771 264.646 266.169 263.771 266.853 263.142C267.536 262.507 268.444 262.189 269.577 262.189C270.437 262.189 271.191 262.395 271.84 262.805C272.495 263.21 272.995 263.791 273.342 264.548C273.693 265.3 273.869 266.167 273.869 267.148V268.21C273.869 269.191 273.696 270.058 273.349 270.81C273.002 271.562 272.512 272.141 271.877 272.546C271.247 272.946 270.522 273.146 269.702 273.146C268.54 273.146 267.607 272.841 266.904 272.231C266.206 271.616 265.791 270.744 265.659 269.616H267.072ZM278.183 269.624H277.194V273H275.832V265.075H277.194V268.43H278.081L280.747 265.075H282.387L279.252 268.884L282.651 273H280.93L278.183 269.624ZM283.295 268.964C283.295 268.188 283.447 267.49 283.75 266.87C284.057 266.25 284.482 265.771 285.024 265.434C285.571 265.097 286.193 264.929 286.892 264.929C287.971 264.929 288.842 265.302 289.506 266.049C290.175 266.796 290.51 267.79 290.51 269.03V269.125C290.51 269.897 290.361 270.59 290.063 271.206C289.77 271.816 289.348 272.292 288.796 272.634C288.249 272.976 287.619 273.146 286.906 273.146C285.832 273.146 284.96 272.773 284.292 272.026C283.627 271.279 283.295 270.29 283.295 269.06V268.964ZM284.658 269.125C284.658 270.004 284.86 270.71 285.266 271.242C285.676 271.774 286.223 272.041 286.906 272.041C287.595 272.041 288.142 271.772 288.547 271.235C288.952 270.693 289.155 269.936 289.155 268.964C289.155 268.095 288.947 267.392 288.532 266.855C288.122 266.313 287.575 266.042 286.892 266.042C286.223 266.042 285.683 266.308 285.273 266.84C284.863 267.373 284.658 268.134 284.658 269.125ZM298.684 273H297.329V269.616H293.688V273H292.326V265.075H293.688V268.51H297.329V265.075H298.684V273ZM300.507 268.964C300.507 268.188 300.659 267.49 300.961 266.87C301.269 266.25 301.694 265.771 302.236 265.434C302.783 265.097 303.405 264.929 304.104 264.929C305.183 264.929 306.054 265.302 306.718 266.049C307.387 266.796 307.722 267.79 307.722 269.03V269.125C307.722 269.897 307.573 270.59 307.275 271.206C306.982 271.816 306.56 272.292 306.008 272.634C305.461 272.976 304.831 273.146 304.118 273.146C303.044 273.146 302.172 272.773 301.503 272.026C300.839 271.279 300.507 270.29 300.507 269.06V268.964ZM301.87 269.125C301.87 270.004 302.072 270.71 302.478 271.242C302.888 271.774 303.435 272.041 304.118 272.041C304.807 272.041 305.354 271.772 305.759 271.235C306.164 270.693 306.367 269.936 306.367 268.964C306.367 268.095 306.159 267.392 305.744 266.855C305.334 266.313 304.787 266.042 304.104 266.042C303.435 266.042 302.895 266.308 302.485 266.84C302.075 267.373 301.87 268.134 301.87 269.125ZM313.984 271.206L316.679 265.075H318.371V273H317.016V267.236L314.453 273H313.515L310.9 267.111V273H309.545V265.075H311.303L313.984 271.206ZM325.681 265.075H327.036V273H325.681V267.221L322.026 273H320.671V265.075H322.026V270.861L325.681 265.075ZM335.268 265.075V273H333.906V269.917H331.862L329.995 273H328.53L330.522 269.711C330.014 269.526 329.624 269.24 329.35 268.854C329.082 268.464 328.947 268.01 328.947 267.492C328.947 266.77 329.218 266.188 329.76 265.749C330.302 265.305 331.027 265.08 331.936 265.075H335.268ZM330.31 267.507C330.31 267.893 330.441 268.205 330.705 268.444C330.969 268.679 331.318 268.798 331.752 268.803H333.906V266.174H331.958C331.455 266.174 331.054 266.298 330.756 266.547C330.458 266.792 330.31 267.111 330.31 267.507Z" fill="black"/>
<path d="M451.968 257H450.554V247.493H445.295V257H443.889V246.336H451.968V257ZM453.96 252.964C453.96 252.188 454.111 251.49 454.414 250.87C454.722 250.25 455.146 249.771 455.688 249.434C456.235 249.097 456.858 248.929 457.556 248.929C458.635 248.929 459.507 249.302 460.171 250.049C460.84 250.796 461.174 251.79 461.174 253.03V253.125C461.174 253.897 461.025 254.59 460.728 255.206C460.435 255.816 460.012 256.292 459.46 256.634C458.914 256.976 458.284 257.146 457.571 257.146C456.497 257.146 455.625 256.773 454.956 256.026C454.292 255.279 453.96 254.29 453.96 253.06V252.964ZM455.322 253.125C455.322 254.004 455.525 254.71 455.93 255.242C456.34 255.774 456.887 256.041 457.571 256.041C458.259 256.041 458.806 255.772 459.211 255.235C459.617 254.693 459.819 253.936 459.819 252.964C459.819 252.095 459.612 251.392 459.197 250.855C458.787 250.313 458.24 250.042 457.556 250.042C456.887 250.042 456.348 250.308 455.938 250.84C455.527 251.373 455.322 252.134 455.322 253.125ZM462.998 257V249.075H466.089C467.144 249.075 467.952 249.261 468.513 249.632C469.08 249.998 469.363 250.538 469.363 251.25C469.363 251.617 469.253 251.949 469.033 252.247C468.813 252.54 468.489 252.764 468.059 252.92C468.538 253.033 468.921 253.252 469.209 253.58C469.502 253.907 469.648 254.297 469.648 254.751C469.648 255.479 469.38 256.036 468.843 256.421C468.311 256.807 467.556 257 466.58 257H462.998ZM464.353 253.521V255.909H466.594C467.161 255.909 467.583 255.804 467.861 255.594C468.145 255.384 468.286 255.088 468.286 254.708C468.286 253.917 467.705 253.521 466.543 253.521H464.353ZM464.353 252.437H466.104C467.373 252.437 468.008 252.066 468.008 251.324C468.008 250.582 467.407 250.198 466.206 250.174H464.353V252.437ZM472.922 251.807H474.98C475.879 251.817 476.589 252.051 477.112 252.51C477.634 252.969 477.896 253.592 477.896 254.378C477.896 255.169 477.627 255.804 477.09 256.282C476.553 256.761 475.83 257 474.922 257H471.567V249.075H472.922V251.807ZM480.723 257H479.36V249.075H480.723V257ZM472.922 252.913V255.894H474.937C475.444 255.894 475.837 255.765 476.116 255.506C476.394 255.242 476.533 254.883 476.533 254.429C476.533 253.99 476.396 253.631 476.123 253.353C475.854 253.069 475.476 252.923 474.988 252.913H472.922ZM484.568 249.075V255.894H487.468V249.075H488.823V255.894H491.716V249.075H493.079V257H483.206V249.075H484.568ZM498.506 257.146C497.432 257.146 496.558 256.795 495.884 256.092C495.21 255.384 494.873 254.439 494.873 253.257V253.008C494.873 252.222 495.022 251.521 495.32 250.906C495.623 250.286 496.042 249.803 496.58 249.456C497.122 249.104 497.708 248.929 498.337 248.929C499.368 248.929 500.168 249.268 500.74 249.947C501.311 250.625 501.597 251.597 501.597 252.862V253.426H496.228C496.248 254.207 496.475 254.839 496.909 255.323C497.349 255.801 497.905 256.041 498.579 256.041C499.058 256.041 499.463 255.943 499.795 255.748C500.127 255.552 500.417 255.293 500.667 254.971L501.494 255.616C500.83 256.636 499.834 257.146 498.506 257.146ZM498.337 250.042C497.791 250.042 497.332 250.242 496.96 250.643C496.589 251.038 496.36 251.595 496.272 252.312H500.242V252.21C500.203 251.521 500.017 250.989 499.685 250.613C499.353 250.232 498.904 250.042 498.337 250.042ZM509.646 257H508.291V253.616H504.651V257H503.289V249.075H504.651V252.51H508.291V249.075H509.646V257ZM516.956 249.075H518.311V257H516.956V251.221L513.301 257H511.946V249.075H513.301V254.861L516.956 249.075ZM523.774 257.146C522.7 257.146 521.826 256.795 521.152 256.092C520.479 255.384 520.142 254.439 520.142 253.257V253.008C520.142 252.222 520.291 251.521 520.588 250.906C520.891 250.286 521.311 249.803 521.848 249.456C522.39 249.104 522.976 248.929 523.606 248.929C524.636 248.929 525.437 249.268 526.008 249.947C526.58 250.625 526.865 251.597 526.865 252.862V253.426H521.497C521.516 254.207 521.743 254.839 522.178 255.323C522.617 255.801 523.174 256.041 523.848 256.041C524.326 256.041 524.731 255.943 525.063 255.748C525.396 255.552 525.686 255.293 525.935 254.971L526.763 255.616C526.099 256.636 525.103 257.146 523.774 257.146ZM523.606 250.042C523.059 250.042 522.6 250.242 522.229 250.643C521.858 251.038 521.628 251.595 521.541 252.312H525.51V252.21C525.471 251.521 525.286 250.989 524.954 250.613C524.622 250.232 524.172 250.042 523.606 250.042ZM435.144 274H433.789V267.196H430.142V274H428.779V266.075H435.144V274ZM444.014 270.125C444.014 271.332 443.738 272.303 443.186 273.041C442.634 273.778 441.887 274.146 440.945 274.146C439.983 274.146 439.226 273.841 438.674 273.231V277.047H437.319V266.075H438.557L438.623 266.954C439.175 266.271 439.941 265.929 440.923 265.929C441.875 265.929 442.627 266.288 443.179 267.005C443.735 267.723 444.014 268.722 444.014 270.001V270.125ZM442.659 269.972C442.659 269.078 442.468 268.373 442.087 267.855C441.707 267.337 441.184 267.079 440.52 267.079C439.7 267.079 439.084 267.442 438.674 268.17V271.957C439.08 272.679 439.7 273.041 440.535 273.041C441.184 273.041 441.699 272.784 442.08 272.271C442.466 271.754 442.659 270.987 442.659 269.972ZM445.383 269.964C445.383 269.188 445.535 268.49 445.837 267.87C446.145 267.25 446.57 266.771 447.112 266.434C447.659 266.097 448.281 265.929 448.979 265.929C450.059 265.929 450.93 266.302 451.594 267.049C452.263 267.796 452.598 268.79 452.598 270.03V270.125C452.598 270.897 452.449 271.59 452.151 272.206C451.858 272.816 451.436 273.292 450.884 273.634C450.337 273.976 449.707 274.146 448.994 274.146C447.92 274.146 447.048 273.773 446.379 273.026C445.715 272.279 445.383 271.29 445.383 270.06V269.964ZM446.746 270.125C446.746 271.004 446.948 271.71 447.354 272.242C447.764 272.774 448.311 273.041 448.994 273.041C449.683 273.041 450.229 272.772 450.635 272.235C451.04 271.693 451.243 270.936 451.243 269.964C451.243 269.095 451.035 268.392 450.62 267.855C450.21 267.313 449.663 267.042 448.979 267.042C448.311 267.042 447.771 267.308 447.361 267.84C446.951 268.373 446.746 269.134 446.746 270.125ZM453.704 272.894L454.172 272.315C454.7 271.632 455 270.606 455.073 269.239L455.198 266.075H460.303V272.894H461.321V276.329H459.966V274H454.436V276.329H453.081L453.088 272.894H453.704ZM455.308 272.894H458.948V267.328H456.509L456.428 269.217C456.345 270.794 455.972 272.02 455.308 272.894ZM465.415 272.015L467.261 266.075H468.711L465.525 275.223C465.032 276.542 464.248 277.201 463.174 277.201L462.917 277.179L462.412 277.083V275.985L462.778 276.014C463.237 276.014 463.594 275.921 463.848 275.736C464.106 275.55 464.319 275.211 464.485 274.718L464.785 273.912L461.958 266.075H463.438L465.415 272.015ZM472.395 270.624H471.406V274H470.044V266.075H471.406V269.43H472.292L474.958 266.075H476.599L473.464 269.884L476.863 274H475.142L472.395 270.624ZM483.916 267.174H481.257V274H479.902V267.174H477.295V266.075H483.916V267.174ZM490.361 266.075H491.716V274H490.361V268.221L486.707 274H485.352V266.075H486.707V271.861L490.361 266.075ZM494.016 274V266.075H497.107C498.162 266.075 498.97 266.261 499.531 266.632C500.098 266.998 500.381 267.538 500.381 268.25C500.381 268.617 500.271 268.949 500.051 269.247C499.832 269.54 499.507 269.764 499.077 269.92C499.556 270.033 499.939 270.252 500.227 270.58C500.52 270.907 500.667 271.297 500.667 271.751C500.667 272.479 500.398 273.036 499.861 273.421C499.329 273.807 498.574 274 497.598 274H494.016ZM495.371 270.521V272.909H497.612C498.179 272.909 498.601 272.804 498.879 272.594C499.163 272.384 499.304 272.088 499.304 271.708C499.304 270.917 498.723 270.521 497.561 270.521H495.371ZM495.371 269.437H497.122C498.391 269.437 499.026 269.066 499.026 268.324C499.026 267.582 498.425 267.198 497.224 267.174H495.371V269.437ZM508.936 274H507.581V270.616H503.94V274H502.578V266.075H503.94V269.51H507.581V266.075H508.936V274ZM510.759 269.964C510.759 269.188 510.911 268.49 511.213 267.87C511.521 267.25 511.946 266.771 512.488 266.434C513.035 266.097 513.657 265.929 514.355 265.929C515.435 265.929 516.306 266.302 516.97 267.049C517.639 267.796 517.974 268.79 517.974 270.03V270.125C517.974 270.897 517.825 271.59 517.527 272.206C517.234 272.816 516.812 273.292 516.26 273.634C515.713 273.976 515.083 274.146 514.37 274.146C513.296 274.146 512.424 273.773 511.755 273.026C511.091 272.279 510.759 271.29 510.759 270.06V269.964ZM512.122 270.125C512.122 271.004 512.324 271.71 512.729 272.242C513.14 272.774 513.687 273.041 514.37 273.041C515.059 273.041 515.605 272.772 516.011 272.235C516.416 271.693 516.619 270.936 516.619 269.964C516.619 269.095 516.411 268.392 515.996 267.855C515.586 267.313 515.039 267.042 514.355 267.042C513.687 267.042 513.147 267.308 512.737 267.84C512.327 268.373 512.122 269.134 512.122 270.125ZM522.852 273.041C523.335 273.041 523.757 272.894 524.119 272.601C524.48 272.308 524.68 271.942 524.719 271.502H526.001C525.977 271.957 525.82 272.389 525.532 272.799C525.244 273.209 524.858 273.536 524.375 273.78C523.896 274.024 523.389 274.146 522.852 274.146C521.772 274.146 520.913 273.788 520.273 273.07C519.639 272.347 519.321 271.361 519.321 270.111V269.884C519.321 269.112 519.463 268.426 519.746 267.826C520.029 267.225 520.435 266.759 520.962 266.427C521.494 266.095 522.122 265.929 522.844 265.929C523.733 265.929 524.47 266.195 525.056 266.727C525.647 267.259 525.962 267.95 526.001 268.8H524.719C524.68 268.287 524.485 267.867 524.133 267.54C523.787 267.208 523.357 267.042 522.844 267.042C522.156 267.042 521.621 267.291 521.24 267.789C520.864 268.282 520.676 268.998 520.676 269.935V270.191C520.676 271.104 520.864 271.808 521.24 272.301C521.616 272.794 522.153 273.041 522.852 273.041ZM533.413 267.174H530.754V274H529.399V267.174H526.792V266.075H533.413V267.174ZM539.858 266.075H541.213V274H539.858V268.221L536.204 274H534.849V266.075H536.204V271.861L539.858 266.075ZM444.248 291.041C444.731 291.041 445.154 290.894 445.515 290.601C445.876 290.308 446.077 289.942 446.116 289.502H447.397C447.373 289.957 447.217 290.389 446.929 290.799C446.641 291.209 446.255 291.536 445.771 291.78C445.293 292.024 444.785 292.146 444.248 292.146C443.169 292.146 442.31 291.788 441.67 291.07C441.035 290.347 440.718 289.361 440.718 288.111V287.884C440.718 287.112 440.859 286.426 441.143 285.826C441.426 285.225 441.831 284.759 442.358 284.427C442.891 284.095 443.518 283.929 444.241 283.929C445.129 283.929 445.867 284.195 446.453 284.727C447.043 285.259 447.358 285.95 447.397 286.8H446.116C446.077 286.287 445.881 285.867 445.53 285.54C445.183 285.208 444.753 285.042 444.241 285.042C443.552 285.042 443.018 285.291 442.637 285.789C442.261 286.282 442.073 286.998 442.073 287.935V288.191C442.073 289.104 442.261 289.808 442.637 290.301C443.013 290.794 443.55 291.041 444.248 291.041ZM448.562 287.964C448.562 287.188 448.713 286.49 449.016 285.87C449.324 285.25 449.749 284.771 450.291 284.434C450.837 284.097 451.46 283.929 452.158 283.929C453.237 283.929 454.109 284.302 454.773 285.049C455.442 285.796 455.776 286.79 455.776 288.03V288.125C455.776 288.897 455.627 289.59 455.33 290.206C455.037 290.816 454.614 291.292 454.062 291.634C453.516 291.976 452.886 292.146 452.173 292.146C451.099 292.146 450.227 291.773 449.558 291.026C448.894 290.279 448.562 289.29 448.562 288.06V287.964ZM449.924 288.125C449.924 289.004 450.127 289.71 450.532 290.242C450.942 290.774 451.489 291.041 452.173 291.041C452.861 291.041 453.408 290.772 453.813 290.235C454.219 289.693 454.421 288.936 454.421 287.964C454.421 287.095 454.214 286.392 453.799 285.855C453.389 285.313 452.842 285.042 452.158 285.042C451.489 285.042 450.95 285.308 450.54 285.84C450.129 286.373 449.924 287.134 449.924 288.125ZM463.203 285.174H460.544V292H459.189V285.174H456.582V284.075H463.203V285.174ZM471.216 288.125C471.216 289.332 470.94 290.303 470.388 291.041C469.836 291.778 469.089 292.146 468.147 292.146C467.185 292.146 466.428 291.841 465.876 291.231V295.047H464.521V284.075H465.759L465.825 284.954C466.377 284.271 467.144 283.929 468.125 283.929C469.077 283.929 469.829 284.288 470.381 285.005C470.938 285.723 471.216 286.722 471.216 288.001V288.125ZM469.861 287.972C469.861 287.078 469.67 286.373 469.29 285.855C468.909 285.337 468.386 285.079 467.722 285.079C466.902 285.079 466.287 285.442 465.876 286.17V289.957C466.282 290.679 466.902 291.041 467.737 291.041C468.386 291.041 468.901 290.784 469.282 290.271C469.668 289.754 469.861 288.987 469.861 287.972ZM475.449 290.015L477.295 284.075H478.745L475.559 293.223C475.066 294.542 474.282 295.201 473.208 295.201L472.952 295.179L472.446 295.083V293.985L472.812 294.014C473.271 294.014 473.628 293.921 473.882 293.736C474.141 293.55 474.353 293.211 474.519 292.718L474.819 291.912L471.992 284.075H473.472L475.449 290.015ZM479.485 290.894L479.954 290.315C480.481 289.632 480.781 288.606 480.854 287.239L480.979 284.075H486.084V290.894H487.102V294.329H485.747V292H480.217V294.329H478.862L478.87 290.894H479.485ZM481.089 290.894H484.729V285.328H482.29L482.209 287.217C482.126 288.794 481.753 290.02 481.089 290.894ZM495.078 292H493.723V288.616H490.083V292H488.721V284.075H490.083V287.51H493.723V284.075H495.078V292ZM502.388 284.075H503.743V292H502.388V286.221L498.733 292H497.378V284.075H498.733V289.861L502.388 284.075ZM508.386 288.624H507.397V292H506.035V284.075H507.397V287.43H508.284L510.95 284.075H512.59L509.456 287.884L512.854 292H511.133L508.386 288.624ZM513.499 287.964C513.499 287.188 513.65 286.49 513.953 285.87C514.26 285.25 514.685 284.771 515.227 284.434C515.774 284.097 516.396 283.929 517.095 283.929C518.174 283.929 519.045 284.302 519.709 285.049C520.378 285.796 520.713 286.79 520.713 288.03V288.125C520.713 288.897 520.564 289.59 520.266 290.206C519.973 290.816 519.551 291.292 518.999 291.634C518.452 291.976 517.822 292.146 517.109 292.146C516.035 292.146 515.164 291.773 514.495 291.026C513.831 290.279 513.499 289.29 513.499 288.06V287.964ZM514.861 288.125C514.861 289.004 515.063 289.71 515.469 290.242C515.879 290.774 516.426 291.041 517.109 291.041C517.798 291.041 518.345 290.772 518.75 290.235C519.155 289.693 519.358 288.936 519.358 287.964C519.358 287.095 519.15 286.392 518.735 285.855C518.325 285.313 517.778 285.042 517.095 285.042C516.426 285.042 515.886 285.308 515.476 285.84C515.066 286.373 514.861 287.134 514.861 288.125ZM522.537 292V284.075H525.627C526.682 284.075 527.49 284.261 528.052 284.632C528.618 284.998 528.901 285.538 528.901 286.25C528.901 286.617 528.792 286.949 528.572 287.247C528.352 287.54 528.027 287.764 527.598 287.92C528.076 288.033 528.459 288.252 528.748 288.58C529.041 288.907 529.187 289.297 529.187 289.751C529.187 290.479 528.918 291.036 528.381 291.421C527.849 291.807 527.095 292 526.118 292H522.537ZM523.892 288.521V290.909H526.133C526.699 290.909 527.122 290.804 527.4 290.594C527.683 290.384 527.825 290.088 527.825 289.708C527.825 288.917 527.244 288.521 526.082 288.521H523.892ZM523.892 287.437H525.642C526.912 287.437 527.546 287.066 527.546 286.324C527.546 285.582 526.946 285.198 525.745 285.174H523.892V287.437Z" fill="black"/>
<path d="M634.91 264V253.336H638.396C639.554 253.336 640.423 253.575 641.004 254.054C641.59 254.532 641.883 255.24 641.883 256.178C641.883 256.676 641.741 257.118 641.458 257.503C641.175 257.884 640.789 258.18 640.301 258.39C640.877 258.551 641.331 258.858 641.663 259.312C642 259.762 642.168 260.299 642.168 260.924C642.168 261.881 641.858 262.633 641.238 263.18C640.618 263.727 639.742 264 638.609 264H634.91ZM636.316 259.012V262.85H638.638C639.292 262.85 639.808 262.682 640.184 262.345C640.564 262.003 640.755 261.534 640.755 260.938C640.755 259.654 640.057 259.012 638.66 259.012H636.316ZM636.316 257.884H638.44C639.056 257.884 639.546 257.73 639.913 257.423C640.284 257.115 640.469 256.698 640.469 256.17C640.469 255.584 640.298 255.16 639.957 254.896C639.615 254.627 639.095 254.493 638.396 254.493H636.316V257.884ZM650.518 264H649.163V260.616H645.523V264H644.161V256.075H645.523V259.51H649.163V256.075H650.518V264ZM655.989 264.146C654.915 264.146 654.041 263.795 653.367 263.092C652.693 262.384 652.356 261.439 652.356 260.257V260.008C652.356 259.222 652.505 258.521 652.803 257.906C653.106 257.286 653.526 256.803 654.063 256.456C654.605 256.104 655.191 255.929 655.821 255.929C656.851 255.929 657.652 256.268 658.223 256.947C658.794 257.625 659.08 258.597 659.08 259.862V260.426H653.711C653.731 261.207 653.958 261.839 654.393 262.323C654.832 262.801 655.389 263.041 656.062 263.041C656.541 263.041 656.946 262.943 657.278 262.748C657.61 262.552 657.901 262.293 658.15 261.971L658.978 262.616C658.313 263.636 657.317 264.146 655.989 264.146ZM655.821 257.042C655.274 257.042 654.815 257.242 654.444 257.643C654.073 258.038 653.843 258.595 653.755 259.312H657.725V259.21C657.686 258.521 657.5 257.989 657.168 257.613C656.836 257.232 656.387 257.042 655.821 257.042ZM660.589 262.894L661.058 262.315C661.585 261.632 661.885 260.606 661.958 259.239L662.083 256.075H667.188V262.894H668.206V266.329H666.851V264H661.321V266.329H659.966L659.974 262.894H660.589ZM662.193 262.894H665.833V257.328H663.394L663.313 259.217C663.23 260.794 662.857 262.02 662.193 262.894ZM676.402 260.125C676.402 261.332 676.126 262.303 675.574 263.041C675.022 263.778 674.275 264.146 673.333 264.146C672.371 264.146 671.614 263.841 671.062 263.231V267.047H669.708V256.075H670.945L671.011 256.954C671.563 256.271 672.33 255.929 673.311 255.929C674.263 255.929 675.015 256.288 675.567 257.005C676.124 257.723 676.402 258.722 676.402 260.001V260.125ZM675.047 259.972C675.047 259.078 674.856 258.373 674.476 257.855C674.095 257.337 673.572 257.079 672.908 257.079C672.088 257.079 671.473 257.442 671.062 258.17V261.957C671.468 262.679 672.088 263.041 672.923 263.041C673.572 263.041 674.087 262.784 674.468 262.271C674.854 261.754 675.047 260.987 675.047 259.972ZM681.419 264.146C680.345 264.146 679.471 263.795 678.797 263.092C678.123 262.384 677.786 261.439 677.786 260.257V260.008C677.786 259.222 677.935 258.521 678.233 257.906C678.536 257.286 678.956 256.803 679.493 256.456C680.035 256.104 680.621 255.929 681.25 255.929C682.281 255.929 683.082 256.268 683.653 256.947C684.224 257.625 684.51 258.597 684.51 259.862V260.426H679.141C679.161 261.207 679.388 261.839 679.822 262.323C680.262 262.801 680.818 263.041 681.492 263.041C681.971 263.041 682.376 262.943 682.708 262.748C683.04 262.552 683.331 262.293 683.58 261.971L684.407 262.616C683.743 263.636 682.747 264.146 681.419 264.146ZM681.25 257.042C680.704 257.042 680.245 257.242 679.874 257.643C679.502 258.038 679.273 258.595 679.185 259.312H683.155V259.21C683.116 258.521 682.93 257.989 682.598 257.613C682.266 257.232 681.817 257.042 681.25 257.042ZM692.559 264H691.204V260.616H687.564V264H686.202V256.075H687.564V259.51H691.204V256.075H692.559V264ZM699.869 256.075H701.224V264H699.869V258.221L696.214 264H694.859V256.075H696.214V261.861L699.869 256.075ZM706.688 264.146C705.613 264.146 704.739 263.795 704.065 263.092C703.392 262.384 703.055 261.439 703.055 260.257V260.008C703.055 259.222 703.204 258.521 703.501 257.906C703.804 257.286 704.224 256.803 704.761 256.456C705.303 256.104 705.889 255.929 706.519 255.929C707.549 255.929 708.35 256.268 708.921 256.947C709.493 257.625 709.778 258.597 709.778 259.862V260.426H704.41C704.429 261.207 704.656 261.839 705.091 262.323C705.53 262.801 706.087 263.041 706.761 263.041C707.239 263.041 707.645 262.943 707.977 262.748C708.309 262.552 708.599 262.293 708.848 261.971L709.676 262.616C709.012 263.636 708.016 264.146 706.688 264.146ZM706.519 257.042C705.972 257.042 705.513 257.242 705.142 257.643C704.771 258.038 704.542 258.595 704.454 259.312H708.423V259.21C708.384 258.521 708.199 257.989 707.867 257.613C707.535 257.232 707.085 257.042 706.519 257.042ZM606.111 274.075V280.894H609.012V274.075H610.367V280.894H613.26V274.075H614.622V282H604.749V274.075H606.111ZM622.649 275.174H619.991V282H618.636V275.174H616.028V274.075H622.649V275.174ZM630.662 278.125C630.662 279.332 630.386 280.303 629.834 281.041C629.283 281.778 628.536 282.146 627.593 282.146C626.631 282.146 625.875 281.841 625.323 281.231V285.047H623.968V274.075H625.206L625.271 274.954C625.823 274.271 626.59 273.929 627.571 273.929C628.523 273.929 629.275 274.288 629.827 275.005C630.384 275.723 630.662 276.722 630.662 278.001V278.125ZM629.307 277.972C629.307 277.078 629.117 276.373 628.736 275.855C628.355 275.337 627.833 275.079 627.168 275.079C626.348 275.079 625.733 275.442 625.323 276.17V279.957C625.728 280.679 626.348 281.041 627.183 281.041C627.833 281.041 628.348 280.784 628.729 280.271C629.114 279.754 629.307 278.987 629.307 277.972ZM637.518 274.075H638.873V282H637.518V276.221L633.863 282H632.508V274.075H633.863V279.861L637.518 274.075ZM643.707 276.968L645.464 274.075H647.046L644.454 277.994L647.127 282H645.56L643.729 279.034L641.897 282H640.323L642.996 277.994L640.403 274.075H641.971L643.707 276.968ZM650.958 278.624H649.969V282H648.606V274.075H649.969V277.43H650.855L653.521 274.075H655.162L652.027 277.884L655.425 282H653.704L650.958 278.624ZM656.07 277.964C656.07 277.188 656.221 276.49 656.524 275.87C656.832 275.25 657.256 274.771 657.798 274.434C658.345 274.097 658.968 273.929 659.666 273.929C660.745 273.929 661.617 274.302 662.281 275.049C662.95 275.796 663.284 276.79 663.284 278.03V278.125C663.284 278.897 663.135 279.59 662.837 280.206C662.544 280.816 662.122 281.292 661.57 281.634C661.023 281.976 660.394 282.146 659.681 282.146C658.606 282.146 657.735 281.773 657.066 281.026C656.402 280.279 656.07 279.29 656.07 278.06V277.964ZM657.432 278.125C657.432 279.004 657.635 279.71 658.04 280.242C658.45 280.774 658.997 281.041 659.681 281.041C660.369 281.041 660.916 280.772 661.321 280.235C661.727 279.693 661.929 278.936 661.929 277.964C661.929 277.095 661.722 276.392 661.307 275.855C660.896 275.313 660.35 275.042 659.666 275.042C658.997 275.042 658.458 275.308 658.047 275.84C657.637 276.373 657.432 277.134 657.432 278.125ZM664.39 280.894L664.859 280.315C665.386 279.632 665.687 278.606 665.76 277.239L665.884 274.075H670.989V280.894H672.007V284.329H670.652V282H665.123V284.329H663.768L663.775 280.894H664.39ZM665.994 280.894H669.634V275.328H667.195L667.115 277.217C667.032 278.794 666.658 280.02 665.994 280.894ZM678.636 274.075H679.991V282H678.636V276.221L674.981 282H673.626V274.075H674.981V279.861L678.636 274.075ZM688.86 278.125C688.86 279.332 688.584 280.303 688.033 281.041C687.481 281.778 686.734 282.146 685.792 282.146C684.83 282.146 684.073 281.841 683.521 281.231V285.047H682.166V274.075H683.404L683.47 274.954C684.021 274.271 684.788 273.929 685.77 273.929C686.722 273.929 687.474 274.288 688.025 275.005C688.582 275.723 688.86 276.722 688.86 278.001V278.125ZM687.505 277.972C687.505 277.078 687.315 276.373 686.934 275.855C686.553 275.337 686.031 275.079 685.367 275.079C684.546 275.079 683.931 275.442 683.521 276.17V279.957C683.926 280.679 684.546 281.041 685.381 281.041C686.031 281.041 686.546 280.784 686.927 280.271C687.312 279.754 687.505 278.987 687.505 277.972ZM690.23 277.964C690.23 277.188 690.381 276.49 690.684 275.87C690.992 275.25 691.417 274.771 691.958 274.434C692.505 274.097 693.128 273.929 693.826 273.929C694.905 273.929 695.777 274.302 696.441 275.049C697.11 275.796 697.444 276.79 697.444 278.03V278.125C697.444 278.897 697.295 279.59 696.998 280.206C696.705 280.816 696.282 281.292 695.73 281.634C695.184 281.976 694.554 282.146 693.841 282.146C692.767 282.146 691.895 281.773 691.226 281.026C690.562 280.279 690.23 279.29 690.23 278.06V277.964ZM691.592 278.125C691.592 279.004 691.795 279.71 692.2 280.242C692.61 280.774 693.157 281.041 693.841 281.041C694.529 281.041 695.076 280.772 695.481 280.235C695.887 279.693 696.089 278.936 696.089 277.964C696.089 277.095 695.882 276.392 695.467 275.855C695.057 275.313 694.51 275.042 693.826 275.042C693.157 275.042 692.618 275.308 692.208 275.84C691.797 276.373 691.592 277.134 691.592 278.125ZM699.268 282V274.075H702.359C703.414 274.075 704.222 274.261 704.783 274.632C705.35 274.998 705.633 275.538 705.633 276.25C705.633 276.617 705.523 276.949 705.303 277.247C705.083 277.54 704.759 277.764 704.329 277.92C704.808 278.033 705.191 278.252 705.479 278.58C705.772 278.907 705.918 279.297 705.918 279.751C705.918 280.479 705.65 281.036 705.113 281.421C704.581 281.807 703.826 282 702.85 282H699.268ZM700.623 278.521V280.909H702.864C703.431 280.909 703.853 280.804 704.131 280.594C704.415 280.384 704.556 280.088 704.556 279.708C704.556 278.917 703.975 278.521 702.813 278.521H700.623ZM700.623 277.437H702.374C703.643 277.437 704.278 277.066 704.278 276.324C704.278 275.582 703.677 275.198 702.476 275.174H700.623V277.437ZM712.605 282C712.527 281.844 712.464 281.565 712.415 281.165C711.785 281.819 711.033 282.146 710.159 282.146C709.378 282.146 708.736 281.927 708.233 281.487C707.735 281.043 707.486 280.481 707.486 279.803C707.486 278.978 707.798 278.338 708.423 277.884C709.053 277.425 709.937 277.195 711.075 277.195H712.393V276.573C712.393 276.099 712.251 275.723 711.968 275.445C711.685 275.162 711.268 275.02 710.716 275.02C710.232 275.02 709.827 275.142 709.5 275.386C709.173 275.63 709.009 275.926 709.009 276.272H707.647C707.647 275.877 707.786 275.496 708.064 275.13C708.348 274.759 708.729 274.466 709.207 274.251C709.69 274.036 710.22 273.929 710.796 273.929C711.709 273.929 712.425 274.158 712.942 274.617C713.46 275.071 713.729 275.699 713.748 276.5V280.147C713.748 280.875 713.841 281.453 714.026 281.883V282H712.605ZM710.357 280.967C710.782 280.967 711.185 280.857 711.565 280.638C711.946 280.418 712.222 280.132 712.393 279.781V278.155H711.331C709.671 278.155 708.841 278.641 708.841 279.612C708.841 280.037 708.982 280.369 709.266 280.608C709.549 280.848 709.913 280.967 710.357 280.967ZM722.347 282H720.992V278.616H717.352V282H715.989V274.075H717.352V277.51H720.992V274.075H722.347V282ZM729.656 274.075H731.011V282H729.656V276.221L726.001 282H724.646V274.075H726.001V279.861L729.656 274.075ZM739.244 274.075V282H737.881V278.917H735.838L733.97 282H732.505L734.498 278.711C733.99 278.526 733.599 278.24 733.326 277.854C733.057 277.464 732.923 277.01 732.923 276.492C732.923 275.77 733.194 275.188 733.736 274.749C734.278 274.305 735.003 274.08 735.911 274.075H739.244ZM734.285 276.507C734.285 276.893 734.417 277.205 734.681 277.444C734.944 277.679 735.293 277.798 735.728 277.803H737.881V275.174H735.933C735.43 275.174 735.03 275.298 734.732 275.547C734.434 275.792 734.285 276.111 734.285 276.507Z" fill="black"/>
<path d="M819.35 260.012C819.35 261.057 819.174 261.97 818.823 262.751C818.471 263.528 817.973 264.121 817.329 264.531C816.684 264.941 815.932 265.146 815.073 265.146C814.233 265.146 813.488 264.941 812.839 264.531C812.189 264.116 811.684 263.528 811.323 262.766C810.966 262 810.783 261.113 810.773 260.107V259.338C810.773 258.313 810.952 257.407 811.308 256.621C811.665 255.835 812.167 255.234 812.817 254.819C813.471 254.399 814.218 254.189 815.058 254.189C815.913 254.189 816.665 254.397 817.314 254.812C817.968 255.222 818.471 255.82 818.823 256.606C819.174 257.388 819.35 258.298 819.35 259.338V260.012ZM817.951 259.324C817.951 258.059 817.697 257.09 817.189 256.416C816.682 255.737 815.971 255.398 815.058 255.398C814.169 255.398 813.469 255.737 812.956 256.416C812.448 257.09 812.187 258.027 812.172 259.229V260.012C812.172 261.238 812.429 262.202 812.941 262.905C813.459 263.604 814.169 263.953 815.073 263.953C815.981 263.953 816.684 263.623 817.182 262.964C817.68 262.3 817.937 261.35 817.951 260.115V259.324ZM827.729 265H826.374V258.196H822.727V265H821.364V257.075H827.729V265ZM835.793 258.174H833.134V265H831.779V258.174H829.172V257.075H835.793V258.174ZM842.238 257.075H843.593V265H842.238V259.221L838.583 265H837.229V257.075H838.583V262.861L842.238 257.075ZM850.332 263.206L853.027 257.075H854.719V265H853.364V259.236L850.8 265H849.863L847.248 259.111V265H845.893V257.075H847.651L850.332 263.206ZM862.028 257.075H863.383V265H862.028V259.221L858.374 265H857.019V257.075H858.374V262.861L862.028 257.075ZM869.917 259.243C869.917 258.872 869.775 258.579 869.492 258.364C869.208 258.145 868.82 258.035 868.327 258.035C867.849 258.035 867.448 258.159 867.126 258.408C866.809 258.657 866.65 258.95 866.65 259.287H865.302C865.302 258.599 865.59 258.035 866.167 257.595C866.743 257.156 867.463 256.936 868.327 256.936C869.255 256.936 869.978 257.136 870.495 257.537C871.013 257.932 871.271 258.499 871.271 259.236C871.271 259.592 871.164 259.919 870.949 260.217C870.734 260.515 870.429 260.752 870.034 260.928C870.957 261.24 871.418 261.855 871.418 262.773C871.418 263.501 871.137 264.077 870.576 264.502C870.014 264.927 869.265 265.139 868.327 265.139C867.414 265.139 866.66 264.917 866.064 264.473C865.473 264.023 865.178 263.418 865.178 262.656H866.525C866.525 263.042 866.696 263.374 867.038 263.652C867.385 263.926 867.814 264.062 868.327 264.062C868.845 264.062 869.262 263.943 869.58 263.704C869.897 263.464 870.056 263.154 870.056 262.773C870.056 262.329 869.921 262.012 869.653 261.821C869.389 261.626 868.977 261.528 868.415 261.528H867.06V260.386H868.532C869.455 260.361 869.917 259.98 869.917 259.243ZM878.068 265C877.99 264.844 877.927 264.565 877.878 264.165C877.248 264.819 876.496 265.146 875.622 265.146C874.841 265.146 874.199 264.927 873.696 264.487C873.198 264.043 872.949 263.481 872.949 262.803C872.949 261.978 873.261 261.338 873.886 260.884C874.516 260.425 875.4 260.195 876.538 260.195H877.856V259.573C877.856 259.099 877.714 258.723 877.431 258.445C877.148 258.162 876.73 258.02 876.179 258.02C875.695 258.02 875.29 258.142 874.963 258.386C874.636 258.63 874.472 258.926 874.472 259.272H873.11C873.11 258.877 873.249 258.496 873.527 258.13C873.811 257.759 874.191 257.466 874.67 257.251C875.153 257.036 875.683 256.929 876.259 256.929C877.172 256.929 877.888 257.158 878.405 257.617C878.923 258.071 879.191 258.699 879.211 259.5V263.147C879.211 263.875 879.304 264.453 879.489 264.883V265H878.068ZM875.82 263.967C876.245 263.967 876.647 263.857 877.028 263.638C877.409 263.418 877.685 263.132 877.856 262.781V261.155H876.794C875.134 261.155 874.304 261.641 874.304 262.612C874.304 263.037 874.445 263.369 874.729 263.608C875.012 263.848 875.375 263.967 875.82 263.967ZM881.452 257.075H882.814V263.894H886.462V257.075H887.817V263.894H888.762L888.63 267.351H887.414V265H881.452V257.075ZM895.354 257.075H896.708V265H895.354V259.221L891.699 265H890.344V257.075H891.699V262.861L895.354 257.075ZM904.941 257.075V265H903.579V261.917H901.535L899.667 265H898.203L900.195 261.711C899.687 261.526 899.296 261.24 899.023 260.854C898.754 260.464 898.62 260.01 898.62 259.492C898.62 258.77 898.891 258.188 899.433 257.749C899.975 257.305 900.7 257.08 901.608 257.075H904.941ZM899.982 259.507C899.982 259.893 900.114 260.205 900.378 260.444C900.642 260.679 900.991 260.798 901.425 260.803H903.579V258.174H901.63C901.127 258.174 900.727 258.298 900.429 258.547C900.131 258.792 899.982 259.111 899.982 259.507ZM806.569 283H805.214V276.196H801.567V283H800.205V275.075H806.569V283ZM815.241 275.075V283H813.879V276.196H811.184L811.022 279.162C810.935 280.524 810.705 281.499 810.334 282.084C809.968 282.67 809.384 282.976 808.583 283H808.042V281.806L808.43 281.777C808.869 281.728 809.184 281.474 809.375 281.015C809.565 280.556 809.687 279.707 809.741 278.466L809.887 275.075H815.241ZM817.058 278.964C817.058 278.188 817.209 277.49 817.512 276.87C817.819 276.25 818.244 275.771 818.786 275.434C819.333 275.097 819.956 274.929 820.654 274.929C821.733 274.929 822.604 275.302 823.269 276.049C823.938 276.796 824.272 277.79 824.272 279.03V279.125C824.272 279.897 824.123 280.59 823.825 281.206C823.532 281.816 823.11 282.292 822.558 282.634C822.011 282.976 821.381 283.146 820.668 283.146C819.594 283.146 818.723 282.773 818.054 282.026C817.39 281.279 817.058 280.29 817.058 279.06V278.964ZM818.42 279.125C818.42 280.004 818.623 280.71 819.028 281.242C819.438 281.774 819.985 282.041 820.668 282.041C821.357 282.041 821.904 281.772 822.309 281.235C822.714 280.693 822.917 279.936 822.917 278.964C822.917 278.095 822.709 277.392 822.294 276.855C821.884 276.313 821.337 276.042 820.654 276.042C819.985 276.042 819.445 276.308 819.035 276.84C818.625 277.373 818.42 278.134 818.42 279.125ZM827.37 275.075V281.894H830.271V275.075H831.625V281.894H834.519V275.075H835.881V281.894H836.994L836.862 285.351H835.646V283H826.008V275.075H827.37ZM843.271 283C843.193 282.844 843.129 282.565 843.081 282.165C842.451 282.819 841.699 283.146 840.825 283.146C840.043 283.146 839.401 282.927 838.898 282.487C838.4 282.043 838.151 281.481 838.151 280.803C838.151 279.978 838.464 279.338 839.089 278.884C839.719 278.425 840.603 278.195 841.74 278.195H843.059V277.573C843.059 277.099 842.917 276.723 842.634 276.445C842.351 276.162 841.933 276.02 841.381 276.02C840.898 276.02 840.493 276.142 840.166 276.386C839.838 276.63 839.675 276.926 839.675 277.272H838.312C838.312 276.877 838.452 276.496 838.73 276.13C839.013 275.759 839.394 275.466 839.873 275.251C840.356 275.036 840.886 274.929 841.462 274.929C842.375 274.929 843.09 275.158 843.608 275.617C844.125 276.071 844.394 276.699 844.414 277.5V281.147C844.414 281.875 844.506 282.453 844.692 282.883V283H843.271ZM841.022 281.967C841.447 281.967 841.85 281.857 842.231 281.638C842.612 281.418 842.888 281.132 843.059 280.781V279.155H841.997C840.336 279.155 839.506 279.641 839.506 280.612C839.506 281.037 839.648 281.369 839.931 281.608C840.214 281.848 840.578 281.967 841.022 281.967ZM846.472 281.894L846.94 281.315C847.468 280.632 847.768 279.606 847.841 278.239L847.966 275.075H853.071V281.894H854.089V285.329H852.734V283H847.204V285.329H845.849L845.856 281.894H846.472ZM848.076 281.894H851.716V276.328H849.277L849.196 278.217C849.113 279.794 848.74 281.02 848.076 281.894ZM860.717 275.075H862.072V283H860.717V277.221L857.062 283H855.708V275.075H857.062V280.861L860.717 275.075ZM871.147 282.041C871.63 282.041 872.053 281.894 872.414 281.601C872.775 281.308 872.976 280.942 873.015 280.502H874.296C874.272 280.957 874.116 281.389 873.828 281.799C873.54 282.209 873.154 282.536 872.67 282.78C872.192 283.024 871.684 283.146 871.147 283.146C870.068 283.146 869.208 282.788 868.569 282.07C867.934 281.347 867.617 280.361 867.617 279.111V278.884C867.617 278.112 867.758 277.426 868.042 276.826C868.325 276.225 868.73 275.759 869.257 275.427C869.79 275.095 870.417 274.929 871.14 274.929C872.028 274.929 872.766 275.195 873.352 275.727C873.942 276.259 874.257 276.95 874.296 277.8H873.015C872.976 277.287 872.78 276.867 872.429 276.54C872.082 276.208 871.652 276.042 871.14 276.042C870.451 276.042 869.917 276.291 869.536 276.789C869.16 277.282 868.972 277.998 868.972 278.935V279.191C868.972 280.104 869.16 280.808 869.536 281.301C869.912 281.794 870.449 282.041 871.147 282.041ZM878.288 279.624H877.299V283H875.937V275.075H877.299V278.43H878.186L880.852 275.075H882.492L879.357 278.884L882.756 283H881.035L878.288 279.624ZM890.417 275.075V283H889.055V276.196H886.359L886.198 279.162C886.11 280.524 885.881 281.499 885.51 282.084C885.144 282.67 884.56 282.976 883.759 283H883.217V281.806L883.605 281.777C884.045 281.728 884.36 281.474 884.55 281.015C884.741 280.556 884.863 279.707 884.917 278.466L885.063 275.075H890.417ZM897.485 283C897.407 282.844 897.343 282.565 897.294 282.165C896.665 282.819 895.913 283.146 895.039 283.146C894.257 283.146 893.615 282.927 893.112 282.487C892.614 282.043 892.365 281.481 892.365 280.803C892.365 279.978 892.678 279.338 893.303 278.884C893.933 278.425 894.816 278.195 895.954 278.195H897.272V277.573C897.272 277.099 897.131 276.723 896.848 276.445C896.564 276.162 896.147 276.02 895.595 276.02C895.112 276.02 894.707 276.142 894.379 276.386C894.052 276.63 893.889 276.926 893.889 277.272H892.526C892.526 276.877 892.666 276.496 892.944 276.13C893.227 275.759 893.608 275.466 894.086 275.251C894.57 275.036 895.1 274.929 895.676 274.929C896.589 274.929 897.304 275.158 897.822 275.617C898.339 276.071 898.608 276.699 898.627 277.5V281.147C898.627 281.875 898.72 282.453 898.906 282.883V283H897.485ZM895.236 281.967C895.661 281.967 896.064 281.857 896.445 281.638C896.826 281.418 897.102 281.132 897.272 280.781V279.155H896.21C894.55 279.155 893.72 279.641 893.72 280.612C893.72 281.037 893.862 281.369 894.145 281.608C894.428 281.848 894.792 281.967 895.236 281.967ZM900.686 281.894L901.154 281.315C901.682 280.632 901.982 279.606 902.055 278.239L902.18 275.075H907.285V281.894H908.303V285.329H906.948V283H901.418V285.329H900.063L900.07 281.894H900.686ZM902.29 281.894H905.93V276.328H903.491L903.41 278.217C903.327 279.794 902.954 281.02 902.29 281.894ZM914.697 283C914.619 282.844 914.555 282.565 914.506 282.165C913.876 282.819 913.125 283.146 912.25 283.146C911.469 283.146 910.827 282.927 910.324 282.487C909.826 282.043 909.577 281.481 909.577 280.803C909.577 279.978 909.89 279.338 910.515 278.884C911.145 278.425 912.028 278.195 913.166 278.195H914.484V277.573C914.484 277.099 914.343 276.723 914.06 276.445C913.776 276.162 913.359 276.02 912.807 276.02C912.324 276.02 911.918 276.142 911.591 276.386C911.264 276.63 911.101 276.926 911.101 277.272H909.738C909.738 276.877 909.877 276.496 910.156 276.13C910.439 275.759 910.82 275.466 911.298 275.251C911.782 275.036 912.312 274.929 912.888 274.929C913.801 274.929 914.516 275.158 915.034 275.617C915.551 276.071 915.82 276.699 915.839 277.5V281.147C915.839 281.875 915.932 282.453 916.118 282.883V283H914.697ZM912.448 281.967C912.873 281.967 913.276 281.857 913.657 281.638C914.038 281.418 914.313 281.132 914.484 280.781V279.155H913.422C911.762 279.155 910.932 279.641 910.932 280.612C910.932 281.037 911.074 281.369 911.357 281.608C911.64 281.848 912.004 281.967 912.448 281.967Z" fill="black"/>
<path d="M299.828 176C297.243 176 295.141 178.18 295.141 180.766C295.141 183.351 297.243 185.453 299.828 185.453C302.413 185.453 304.516 183.351 304.516 180.766C304.516 178.18 302.413 176 299.828 176Z" fill="white"/>
<path d="M318.656 196C318.656 197.579 317.525 198.902 316.089 199.345C315.373 193.861 310.405 189.332 303.435 188.108L303.427 188.097C299.607 187.463 295.745 187.85 292.386 189.192C291.535 186.982 289.406 185.453 286.938 185.453H285.766V194.032C285.01 195.017 284.431 196.069 284.038 197.172H281V206.547H285.211C285.967 207.715 286.939 208.776 288.109 209.715V216H295.141V213.046C298.17 213.753 301.491 213.752 304.516 213.047V216H311.547V209.72C314.22 207.578 315.852 204.739 316.168 201.747C318.871 201.228 321 198.852 321 196H318.656ZM290.453 199.516H288.109V197.172H290.453V199.516ZM305.201 195.947C301.967 194.47 297.573 194.499 294.462 195.939L293.475 193.813C297.197 192.086 302.326 192.06 306.174 193.814L305.201 195.947Z" fill="white"/>
<path d="M503.334 213.404V189.41H492.938V213.404H489.187V194.602H478.791V213.404H475.039V199.793H464.643V213.404H461.837V216H506.141V213.404H503.334Z" fill="white"/>
<path d="M468.176 194.901L497.522 181.952L496.353 185.157L498.792 186.047L501.48 178.674L494.146 176L493.257 178.439L496.431 179.596L467.128 192.526L468.176 194.901Z" fill="white"/>
<path d="M655.606 176.849H652.392C652.176 176.849 652 177.025 652 177.241V214.731C652 214.948 652.176 215.123 652.392 215.123H655.606C655.822 215.123 655.998 214.948 655.998 214.731V177.241C655.998 177.025 655.822 176.849 655.606 176.849Z" fill="white"/>
<path d="M659.533 208.558H661.14C661.356 208.558 661.532 208.382 661.532 208.166V177.241C661.532 177.025 661.356 176.849 661.14 176.849H659.533C659.317 176.849 659.141 177.025 659.141 177.241V208.166C659.141 208.382 659.317 208.558 659.533 208.558Z" fill="white"/>
<path d="M665.603 208.558H667.686C667.902 208.558 668.078 208.382 668.078 208.166V177.241C668.078 177.025 667.902 176.849 667.686 176.849H665.603C665.386 176.849 665.211 177.025 665.211 177.241V208.166C665.211 208.382 665.386 208.558 665.603 208.558Z" fill="white"/>
<path d="M671.137 208.558H673.16C673.377 208.558 673.553 208.382 673.553 208.166V177.241C673.553 177.025 673.377 176.849 673.16 176.849H671.137C670.921 176.849 670.745 177.025 670.745 177.241V208.166C670.745 208.382 670.921 208.558 671.137 208.558Z" fill="white"/>
<path d="M676.671 208.558H679.885C680.101 208.558 680.277 208.382 680.277 208.166V177.241C680.277 177.025 680.101 176.849 679.885 176.849H676.671C676.455 176.849 676.279 177.025 676.279 177.241V208.166C676.279 208.382 676.455 208.558 676.671 208.558Z" fill="white"/>
<path d="M683.277 208.558H685.419C685.635 208.558 685.811 208.382 685.811 208.166V177.241C685.811 177.025 685.635 176.849 685.419 176.849H683.277C683.06 176.849 682.885 177.025 682.885 177.241V208.166C682.885 208.382 683.06 208.558 683.277 208.558Z" fill="white"/>
<path d="M691.608 176.849H688.394C688.178 176.849 688.002 177.025 688.002 177.241V214.731C688.002 214.948 688.178 215.123 688.394 215.123H691.608C691.824 215.123 692 214.948 692 214.731V177.241C692 177.025 691.824 176.849 691.608 176.849Z" fill="white"/>
<path d="M659.816 210.265C658.556 210.265 657.833 211.154 657.833 212.705C657.833 214.26 658.556 215.151 659.816 215.151C661.079 215.151 661.804 214.26 661.804 212.705C661.804 211.154 661.079 210.265 659.816 210.265ZM659.816 214.521C658.919 214.521 658.464 213.91 658.464 212.705C658.464 211.504 658.919 210.896 659.816 210.896C660.717 210.896 661.174 211.504 661.174 212.705C661.174 213.383 660.997 214.521 659.816 214.521Z" fill="white"/>
<path d="M663.08 210.265H662.115C661.948 210.265 661.812 210.401 661.812 210.568V210.593C661.812 210.76 661.948 210.896 662.115 210.896H662.752V214.848C662.752 215.016 662.888 215.151 663.055 215.151H663.08C663.247 215.151 663.383 215.016 663.383 214.848V210.568C663.383 210.401 663.247 210.265 663.08 210.265Z" fill="white"/>
<path d="M665.837 212.703H664.578C664.411 212.703 664.275 212.839 664.275 213.006V213.031C664.275 213.198 664.411 213.334 664.578 213.334H665.837C666.005 213.334 666.14 213.198 666.14 213.031V213.006C666.14 212.839 666.005 212.703 665.837 212.703Z" fill="white"/>
<path d="M668.319 210.265C667.06 210.265 666.337 211.154 666.337 212.705C666.337 214.26 667.06 215.151 668.319 215.151C669.583 215.151 670.308 214.26 670.308 212.705C670.308 211.154 669.583 210.265 668.319 210.265ZM668.319 214.521C667.423 214.521 666.968 213.91 666.968 212.705C666.968 211.504 667.423 210.896 668.319 210.896C669.221 210.896 669.678 211.504 669.678 212.705C669.678 213.383 669.501 214.521 668.319 214.521Z" fill="white"/>
<path d="M671.583 210.265H670.619C670.452 210.265 670.316 210.401 670.316 210.568V210.593C670.316 210.76 670.452 210.896 670.619 210.896H671.256V214.848C671.256 215.016 671.392 215.151 671.559 215.151H671.583C671.751 215.151 671.887 215.016 671.887 214.848V210.568C671.887 210.401 671.751 210.265 671.583 210.265Z" fill="white"/>
<path d="M675.719 214.521H673.604L674.876 213.103C675.39 212.568 675.697 211.983 675.697 211.539C675.697 210.765 675.113 210.265 674.21 210.265C673.701 210.265 673.166 210.492 672.778 210.871C672.72 210.928 672.687 211.005 672.687 211.086C672.686 211.167 672.718 211.245 672.775 211.302L672.791 211.318C672.909 211.436 673.099 211.437 673.218 211.321C673.486 211.059 673.866 210.896 674.21 210.896C674.467 210.896 675.066 210.959 675.066 211.539C675.066 211.751 674.897 212.173 674.415 212.675L672.737 214.54C672.687 214.595 672.659 214.668 672.659 214.743V214.848C672.659 215.016 672.795 215.152 672.963 215.152H675.719C675.887 215.152 676.023 215.016 676.023 214.848V214.824C676.023 214.656 675.887 214.521 675.719 214.521Z" fill="white"/>
<path d="M677.963 212.19L679.132 210.808C679.178 210.753 679.204 210.684 679.204 210.612V210.568C679.204 210.401 679.068 210.265 678.901 210.265H676.696C676.528 210.265 676.392 210.401 676.392 210.568V210.593C676.392 210.76 676.528 210.896 676.696 210.896H678.236L677.073 212.264C677.026 212.319 677 212.388 677 212.46V212.504C677 212.672 677.136 212.807 677.304 212.807H677.692C678.188 212.807 678.78 212.945 678.78 213.601C678.78 214.177 678.378 214.52 677.704 214.52C677.364 214.52 676.996 214.416 676.719 214.24C676.585 214.156 676.409 214.188 676.314 214.315L676.3 214.334C676.249 214.402 676.229 214.488 676.245 214.572C676.26 214.655 676.311 214.728 676.383 214.773C676.77 215.013 677.252 215.151 677.704 215.151C678.725 215.151 679.411 214.518 679.411 213.576C679.411 212.802 678.851 212.277 677.963 212.19Z" fill="white"/>
<path d="M682.903 213.217H682.505V212.123C682.505 211.955 682.369 211.819 682.201 211.819H682.177C682.01 211.819 681.874 211.955 681.874 212.123V213.217H680.571L682.007 210.719C682.061 210.626 682.061 210.51 682.007 210.417C681.953 210.323 681.853 210.265 681.745 210.265H681.717C681.608 210.265 681.508 210.323 681.454 210.417L679.796 213.301C679.769 213.347 679.755 213.399 679.755 213.452V213.544C679.755 213.712 679.891 213.848 680.059 213.848H681.874V214.848C681.874 215.016 682.009 215.151 682.177 215.151H682.201C682.369 215.151 682.505 215.016 682.505 214.848V213.848H682.903C683.071 213.848 683.207 213.712 683.207 213.544V213.52C683.207 213.353 683.071 213.217 682.903 213.217Z" fill="white"/>
<path d="M684.728 212.033C684.52 212.033 684.268 212.067 684.022 212.125V210.896H685.931C686.098 210.896 686.234 210.76 686.234 210.593V210.569C686.234 210.401 686.098 210.266 685.931 210.266H683.694C683.527 210.266 683.391 210.401 683.391 210.569V212.563C683.391 212.662 683.44 212.755 683.522 212.812C683.603 212.868 683.708 212.881 683.801 212.846C684.097 212.735 684.461 212.663 684.728 212.663C685.374 212.663 685.76 212.974 685.76 213.495C685.76 214.13 685.37 214.508 684.715 214.508C684.373 214.508 683.937 214.376 683.606 214.172C683.464 214.084 683.278 214.128 683.19 214.269L683.18 214.283C683.137 214.351 683.123 214.434 683.141 214.512C683.159 214.591 683.208 214.659 683.275 214.701C683.705 214.972 684.256 215.139 684.715 215.139C685.717 215.139 686.391 214.478 686.391 213.495C686.391 212.62 685.723 212.033 684.728 212.033Z" fill="white"/>
<path d="M860.6 199.757V202.594H857.766V199.757H854.89V206.461H863.476V199.757H860.6Z" fill="white"/>
<path d="M866.31 209.295V212.133H863.476V209.295H860.6V216H869.186V209.295H866.31Z" fill="white"/>
<path d="M843.507 194.084V216H846.345V206.462H852.055V196.923H866.31V206.462H872.02V216H874.859V194.084H843.507Z" fill="white"/>
<path d="M854.889 209.295V212.133H852.055V209.295H849.179V216H857.766V209.295H854.889Z" fill="white"/>
<path d="M859.183 176L835 187.047V216H840.673V191.25H877.693V216H883.366V187.047L859.183 176Z" fill="white"/>
<defs>
<filter id="filter0_d" x="24" y="156" width="176" height="160" filterUnits="userSpaceOnUse" color-interpolation-filters="sRGB">
<feFlood flood-opacity="0" result="BackgroundImageFix"/>
<feColorMatrix in="SourceAlpha" type="matrix" values="0 0 0 0 0 0 0 0 0 0 0 0 0 0 0 0 0 0 127 0"/>
<feOffset dy="4"/>
<feGaussianBlur stdDeviation="4"/>
<feColorMatrix type="matrix" values="0 0 0 0 0 0 0 0 0 0 0 0 0 0 0 0 0 0 0.08 0"/>
<feBlend mode="normal" in2="BackgroundImageFix" result="effect1_dropShadow"/>
<feBlend mode="normal" in="SourceGraphic" in2="effect1_dropShadow" result="shape"/>
</filter>
<filter id="filter1_d" x="211" y="156" width="176" height="160" filterUnits="userSpaceOnUse" color-interpolation-filters="sRGB">
<feFlood flood-opacity="0" result="BackgroundImageFix"/>
<feColorMatrix in="SourceAlpha" type="matrix" values="0 0 0 0 0 0 0 0 0 0 0 0 0 0 0 0 0 0 127 0"/>
<feOffset dy="4"/>
<feGaussianBlur stdDeviation="4"/>
<feColorMatrix type="matrix" values="0 0 0 0 0 0 0 0 0 0 0 0 0 0 0 0 0 0 0.08 0"/>
<feBlend mode="normal" in2="BackgroundImageFix" result="effect1_dropShadow"/>
<feBlend mode="normal" in="SourceGraphic" in2="effect1_dropShadow" result="shape"/>
</filter>
<filter id="filter2_d" x="397" y="156" width="176" height="160" filterUnits="userSpaceOnUse" color-interpolation-filters="sRGB">
<feFlood flood-opacity="0" result="BackgroundImageFix"/>
<feColorMatrix in="SourceAlpha" type="matrix" values="0 0 0 0 0 0 0 0 0 0 0 0 0 0 0 0 0 0 127 0"/>
<feOffset dy="4"/>
<feGaussianBlur stdDeviation="4"/>
<feColorMatrix type="matrix" values="0 0 0 0 0 0 0 0 0 0 0 0 0 0 0 0 0 0 0.08 0"/>
<feBlend mode="normal" in2="BackgroundImageFix" result="effect1_dropShadow"/>
<feBlend mode="normal" in="SourceGraphic" in2="effect1_dropShadow" result="shape"/>
</filter>
<filter id="filter3_d" x="584" y="156" width="176" height="160" filterUnits="userSpaceOnUse" color-interpolation-filters="sRGB">
<feFlood flood-opacity="0" result="BackgroundImageFix"/>
<feColorMatrix in="SourceAlpha" type="matrix" values="0 0 0 0 0 0 0 0 0 0 0 0 0 0 0 0 0 0 127 0"/>
<feOffset dy="4"/>
<feGaussianBlur stdDeviation="4"/>
<feColorMatrix type="matrix" values="0 0 0 0 0 0 0 0 0 0 0 0 0 0 0 0 0 0 0.08 0"/>
<feBlend mode="normal" in2="BackgroundImageFix" result="effect1_dropShadow"/>
<feBlend mode="normal" in="SourceGraphic" in2="effect1_dropShadow" result="shape"/>
</filter>
<filter id="filter4_d" x="770" y="156" width="176" height="160" filterUnits="userSpaceOnUse" color-interpolation-filters="sRGB">
<feFlood flood-opacity="0" result="BackgroundImageFix"/>
<feColorMatrix in="SourceAlpha" type="matrix" values="0 0 0 0 0 0 0 0 0 0 0 0 0 0 0 0 0 0 127 0"/>
<feOffset dy="4"/>
<feGaussianBlur stdDeviation="4"/>
<feColorMatrix type="matrix" values="0 0 0 0 0 0 0 0 0 0 0 0 0 0 0 0 0 0 0.08 0"/>
<feBlend mode="normal" in2="BackgroundImageFix" result="effect1_dropShadow"/>
<feBlend mode="normal" in="SourceGraphic" in2="effect1_dropShadow" result="shape"/>
</filter>
<filter id="filter5_d" x="335" y="51" width="301" height="61" filterUnits="userSpaceOnUse" color-interpolation-filters="sRGB">
<feFlood flood-opacity="0" result="BackgroundImageFix"/>
<feColorMatrix in="SourceAlpha" type="matrix" values="0 0 0 0 0 0 0 0 0 0 0 0 0 0 0 0 0 0 127 0"/>
<feOffset dy="4"/>
<feGaussianBlur stdDeviation="4"/>
<feColorMatrix type="matrix" values="0 0 0 0 0 0 0 0 0 0 0 0 0 0 0 0 0 0 0.08 0"/>
<feBlend mode="normal" in2="BackgroundImageFix" result="effect1_dropShadow"/>
<feBlend mode="normal" in="SourceGraphic" in2="effect1_dropShadow" result="shape"/>
</filter>
</defs>
</svg>
