<?xml version="1.0" encoding="utf-8"?>
<!-- Generator: Adobe Illustrator 24.0.1, SVG Export Plug-In . SVG Version: 6.00 Build 0)  -->
<svg version="1.1" id="Слой_1" xmlns="http://www.w3.org/2000/svg" xmlns:xlink="http://www.w3.org/1999/xlink" x="0px" y="0px"
	 viewBox="0 0 480 480" style="enable-background:new 0 0 480 480;" xml:space="preserve">
<style type="text/css">
	.st0{fill:#d4654e;}
	.st1{fill:#FFFFFF;}
</style>
<path class="st0" d="M240,400c88.4,0,160-71.6,160-160S328.4,80,240,80S80,151.6,80,240C80.1,328.3,151.7,399.9,240,400z"/>
<path class="st0" d="M96,240c0-11.5,1.5-22.9,4.2-34l66.4,55.9l-27.8,80.4C111.4,315.4,96,278.5,96,240z"/>
<path class="st1" d="M272.2,183.4c1.1,2.6,3.6,4.5,6.5,4.8l79,8.9c2.6,0.3,3.6,3.6,1.6,5.3l-60.4,50.9c-2.5,2.1-3.5,5.6-2.4,8.7
	l25.4,73.5c0.8,2.2-1.2,4.4-3.5,3.9l-76.3-19.1c-1.3-0.3-2.6-0.3-3.9,0l-76.3,19.1c-2.3,0.6-4.3-1.6-3.5-3.9l25.4-73.5
	c1.1-3.1,0.1-6.6-2.4-8.7l-60.4-50.9c-2-1.7-1-5,1.6-5.3l79-8.9c2.9-0.3,5.3-2.2,6.5-4.8l29.5-68.7c1-2.4,4.5-2.4,5.5,0L272.2,183.4
	z"/>
<path class="st0" d="M156.5,357.1l83.5-20.9l83.5,20.9C273.6,393,206.4,393,156.5,357.1z"/>
<path class="st0" d="M341.1,342.4L313.4,262l66.4-55.9C392,255.1,377.3,307,341.1,342.4z"/>
<path class="st0" d="M372,182.6l-86.9-9.8l-32.7-76.2C305,101.2,350.9,134.2,372,182.6z"/>
<path class="st0" d="M227.6,96.6l-32.7,76.2l-86.9,9.8C129.1,134.2,175,101.2,227.6,96.6z"/>
<path class="st1" d="M40,240c0,110.5,89.5,200,200,200s200-89.5,200-200S350.5,40,240,40C129.6,40.1,40.1,129.6,40,240z M240,56
	c101.6,0,184,82.4,184,184s-82.4,184-184,184S56,341.6,56,240C56.1,138.4,138.4,56.1,240,56z"/>
<path class="st0" d="M8,64c22.1,0,40,17.9,40,40c0,4.4,3.6,8,8,8s8-3.6,8-8c0-22.1,17.9-40,40-40c4.4,0,8-3.6,8-8s-3.6-8-8-8
	C81.9,48,64,30.1,64,8c0-4.4-3.6-8-8-8s-8,3.6-8,8c0,22.1-17.9,40-40,40c-4.4,0-8,3.6-8,8S3.6,64,8,64z M56,36.8
	c4.7,7.9,11.3,14.4,19.2,19.2C67.3,60.7,60.7,67.3,56,75.2C51.3,67.3,44.7,60.7,36.8,56C44.7,51.3,51.3,44.7,56,36.8z"/>
<path class="st0" d="M424,368c-4.4,0-8,3.6-8,8c0,22.1-17.9,40-40,40c-4.4,0-8,3.6-8,8s3.6,8,8,8c22.1,0,40,17.9,40,40
	c0,4.4,3.6,8,8,8s8-3.6,8-8c0-22.1,17.9-40,40-40c4.4,0,8-3.6,8-8s-3.6-8-8-8c-22.1,0-40-17.9-40-40C432,371.6,428.4,368,424,368z
	 M443.2,424c-7.9,4.7-14.4,11.3-19.2,19.2c-4.7-7.9-11.3-14.4-19.2-19.2c7.9-4.7,14.4-11.3,19.2-19.2
	C428.7,412.7,435.3,419.3,443.2,424z"/>
</svg>
