<?xml version="1.0" encoding="utf-8"?>
<!-- Generator: Adobe Illustrator 24.0.1, SVG Export Plug-In . SVG Version: 6.00 Build 0)  -->
<svg version="1.1" id="Capa_1" xmlns="http://www.w3.org/2000/svg" xmlns:xlink="http://www.w3.org/1999/xlink" x="0px" y="0px"
	 viewBox="0 0 512 512" style="enable-background:new 0 0 512 512;" xml:space="preserve">
<style type="text/css">
	.st0{fill:#d4654e;}
	.st1{fill:#FFFFFF;}
</style>
<g>
	<path class="st0" d="M327.2,363.6c-5.5,0-10.7,2.7-13.9,7.2c0,0,0,0-0.1,0c-12.8-10.9-27.4-19.5-43.1-25.5
		c-7.6-2.8-14.1-8-18.5-14.8c-6.5-9.4-9.9-20.6-9.7-32v-11.1c0.2-10.4-5.4-20.1-14.5-25.1c-9.1-5-20.3-4.5-28.9,1.3
		c-6.2,4.1-10.5,10.6-11.8,18c-3.4,21.1-1.2,42.6,6.2,62.6c0,0,0,0,0,0.1h-27.7c-8.5,0-16.5,4.2-21.2,11.2c-4.8,7-5.7,16-2.5,23.8
		c0,0,0,0,0,0.1c-8.6,2.3-15.4,8.9-17.9,17.5c-2.5,8.6-0.3,17.8,5.8,24.3c0,0,0,0,0,0.1c-3.1,3.4-5.2,7.5-6.1,12
		c-0.8,3.6-0.8,7.2-0.2,10.8h17.8c-1.2-2.2-1.5-4.8-0.9-7.3c1-4.2,4.7-7.2,9.1-7.2h76c2.3,0,4.4,1,5.9,2.8c1.8,1.9,2.7,4.4,2.7,7
		c0,2-0.6,4-1.7,5.7h18.1c0.4-1.9,0.6-3.7,0.6-5.7c0-6.6-2.4-13.1-6.8-18c0,0,0,0,0-0.1c6.9-7.4,8.7-18.3,4.6-27.6
		c-4.1-9.3-13.3-15.3-23.5-15.3h-1.6c3.7-10,0.7-21.2-7.5-27.9c0,0,0,0,0,0c-0.3-0.8-0.7-1.5-1.2-2.2
		c-13.1-17.2-13.8-48.2-11.1-63.7c0.5-2.8,2.1-5.2,4.5-6.7c2.6-1.7,5.8-2.3,8.8-1.5c4.9,1.4,8.2,6,8.1,11.1v11.1
		c-0.2,15,4.3,29.6,12.8,41.9c6.5,9.8,16,17.3,27.2,21.2c16.8,6.8,32.1,16.7,45.3,29.1c0,0,0,0,0,0v54.2h17.1v-64.2c0,0,0,0,0,0
		h57.1c0,0,0,0,0,0v-17c0,0,0,0,0,0H327.2z M224.5,395.5c4.6,0,8.6,3.4,8.9,8c0.3,5-3.6,9.1-8.5,9.1h-76.5c-4.6,0-8.6-3.4-8.9-8
		c-0.3-5,3.6-9.1,8.5-9.1H224.5z M202.3,362C202.3,362,202.3,362,202.3,362c3.8,1.5,6.1,5.5,5.3,9.5c-0.8,4-4.3,7-8.4,6.9h-34.1
		c-4.7,0-8.5-3.8-8.5-8.5c0-4.1,3-7.5,7-8.2c0,0,0,0,0,0c0.5,0.2,1,0.3,1.5,0.3L202.3,362z"/>
	<path class="st1" d="M510.7,95.9c-2.6-6.4-8.9-10.5-15.8-10.5h-25.5c0,0,0,0,0,0c0-18.8-15.3-34.1-34.1-34.1H145
		c-18.8,0-34.1,15.3-34.1,34.1v136.5c0,0,0,0,0,0H76.8c-18.8,0-34.1,15.3-34.1,34.1c0,0,0,0,0,0H17.5c-5.5,0-10.8,2.4-14,6.8
		c-5.2,7-4.3,16.5,1.6,22.4l37.6,37.6c0,0,0,0,0,0v103.9c0,18.8,15.3,34.1,34.1,34.1h290.1c18.8,0,34.1-15.3,34.1-34.1V290.2
		c0,0,0,0,0,0h34.1c18.8,0,34.1-15.3,34.1-34.1V152.1c0,0,0,0,0,0l37.6-37.6C511.8,109.6,513.3,102.2,510.7,95.9z M324.3,443.7
		 M227.3,443.7H76.8c-9.4,0-17.1-7.6-17.1-17.1v-86.7c0,0,0-0.1,0.1,0l7.4,7.4c2.2,2.2,5.3,3,8.3,2.2c3-0.8,5.3-3.1,6-6
		c0.8-3-0.1-6.1-2.2-8.3l-22-22l-40.1-40.1c0,0,0-0.1,0-0.1h55.8c4.6,0,8.6-3.4,8.9-8c0.3-5-3.6-9.1-8.5-9.1H59.8c0,0,0,0,0,0
		c0-9.4,7.7-17,17.1-17h290.1c9.4,0,17.1,7.6,17.1,17.1v98.9c0,0,0,0.1,0,0.1v23.9c0,0,0,0.1,0,0.1v47.7h0c0,9.4-7.6,17.1-17.1,17.1
		h-42.6 M307.1,443.7h-60.7 M494.8,102.5l-40,40l-22.1,22.1c-2.2,2.2-3,5.3-2.2,8.3c0.8,3,3.1,5.3,6,6c3,0.8,6.1-0.1,8.3-2.2
		l7.4-7.4c0,0,0.1,0,0.1,0V256c0,9.4-7.6,17.1-17.1,17.1h-34.1c0,0,0,0,0,0v-17c0-18.8-15.3-34.1-34.1-34.1H128c0,0,0,0,0,0V85.3
		c0-9.4,7.6-17.1,17.1-17.1h290.1c9.4,0,17,7.6,17.1,17c0,0,0,0,0,0H439c-4.6,0-8.6,3.4-8.9,8c-0.3,5,3.6,9.1,8.5,9.1L494.8,102.5
		C494.8,102.4,494.9,102.4,494.8,102.5z"/>
	<path d="M401,348.2"/>
	<path d="M401,365.5"/>
	<path class="st0" d="M213.3,136.5c-18.9,0-34.1,15.3-34.1,34.1c0,18.9,15.3,34.1,34.1,34.1s34.1-15.3,34.1-34.1
		C247.4,151.8,232.2,136.5,213.3,136.5z M213.3,187.7c-9.4,0-17.1-7.6-17.1-17.1c0-9.4,7.6-17.1,17.1-17.1c9.4,0,17.1,7.6,17.1,17.1
		C230.4,180.1,222.7,187.7,213.3,187.7z"/>
	<path class="st0" d="M290.1,136.5c-18.9,0-34.1,15.3-34.1,34.1c0,18.9,15.3,34.1,34.1,34.1c18.9,0,34.1-15.3,34.1-34.1
		C324.2,151.8,309,136.5,290.1,136.5z M290.1,187.7c-9.4,0-17.1-7.6-17.1-17.1c0-9.4,7.6-17.1,17.1-17.1c9.4,0,17.1,7.6,17.1,17.1
		C307.2,180.1,299.5,187.7,290.1,187.7z"/>
	<path class="st0" d="M366.9,136.5c-18.9,0-34.1,15.3-34.1,34.1c0,18.9,15.3,34.1,34.1,34.1c18.8,0,34.1-15.3,34.1-34.1
		C401,151.8,385.8,136.5,366.9,136.5z M366.9,187.7c-9.4,0-17.1-7.6-17.1-17.1c0-9.4,7.6-17.1,17.1-17.1c9.4,0,17.1,7.6,17.1,17.1
		C384,180.1,376.3,187.7,366.9,187.7z"/>
</g>
</svg>
