<?xml version="1.0" encoding="utf-8"?>
<!-- Generator: Adobe Illustrator 24.0.1, SVG Export Plug-In . SVG Version: 6.00 Build 0)  -->
<svg version="1.1" id="Capa_1" xmlns="http://www.w3.org/2000/svg" xmlns:xlink="http://www.w3.org/1999/xlink" x="0px" y="0px"
	 viewBox="0 0 480 480" style="enable-background:new 0 0 480 480;" xml:space="preserve">
<style type="text/css">
	.st0{fill:#d4654e;}
	.st1{fill:#FFFFFF;}
</style>
<g>
	<g>
		<g>
			<path class="st0" d="M327,212.1c-0.7-1.3-1.8-2.3-3-3l-128-72c-3.8-2.2-8.7-0.8-10.9,3c-0.7,1.2-1.1,2.6-1,4v144
				c0,2.8,1.5,5.5,4,6.9c2.5,1.4,5.5,1.5,8,0.1l128-72C327.8,220.8,329.2,215.9,327,212.1z M200,270.8V161.2c0-1.6,1.7-2.5,3-1.8
				l97.5,54.8c1.4,0.8,1.4,2.8,0,3.5L203,272.6C201.7,273.4,200,272.4,200,270.8z"/>
		</g>
	</g>
	<g>
		<g>
			<path class="st1" d="M162,392h284c1.1,0,2-0.9,2-2v-12c0-1.1-0.9-2-2-2H162"/>
			<path class="st1" d="M142,376H34c-1.1,0-2,0.9-2,2v12c0,1.1,0.9,2,2,2h108"/>
		</g>
	</g>
	<g>
		<g>
			<path class="st1" d="M240,88c-70.7,0-128,57.3-128,128c0.1,70.7,57.3,127.9,128,128c70.7,0,128-57.3,128-128S310.7,88,240,88z
				 M240,328c-61.9,0-112-50.1-112-112c0.1-61.8,50.2-111.9,112-112c61.9,0,112,50.1,112,112S301.9,328,240,328z"/>
		</g>
	</g>
	<g>
		<g>
			<path class="st1" d="M456,40H24C10.7,40,0,50.7,0,64v352c0,13.3,10.7,24,24,24h432c13.3,0,24-10.7,24-24V64
				C480,50.7,469.3,40,456,40z M464,416c0,4.4-3.6,8-8,8H24c-4.4,0-8-3.6-8-8V64c0-4.4,3.6-8,8-8h432c4.4,0,8,3.6,8,8V416z"/>
		</g>
	</g>
	<g>
		<g>
			<path class="st0" d="M34,72h12c1.1,0,2,0.9,2,2v12c0,1.1-0.9,2-2,2H34c-1.1,0-2-0.9-2-2V74C32,72.9,32.9,72,34,72z"/>
		</g>
	</g>
	<g>
		<g>
			<path class="st1" d="M66,72h12c1.1,0,2,0.9,2,2v12c0,1.1-0.9,2-2,2H66c-1.1,0-2-0.9-2-2V74C64,72.9,64.9,72,66,72z"/>
		</g>
	</g>
	<g>
		<g>
			<path class="st1" d="M98,72h12c1.1,0,2,0.9,2,2v12c0,1.1-0.9,2-2,2H98c-1.1,0-2-0.9-2-2V74C96,72.9,96.9,72,98,72z"/>
		</g>
	</g>
	<path class="st0" d="M159.2,406.9h-14.4c-1.5,0-2.8-1.3-2.8-2.8v-41.9c0-1.5,1.3-2.8,2.8-2.8h14.4c1.5,0,2.8,1.3,2.8,2.8v41.9
		C162,405.7,160.7,406.9,159.2,406.9z"/>
</g>
</svg>
