<?xml version="1.0" encoding="utf-8"?>
<!-- Generator: Adobe Illustrator 24.0.1, SVG Export Plug-In . SVG Version: 6.00 Build 0)  -->
<svg version="1.1" id="flashlight-manual" xmlns="http://www.w3.org/2000/svg" xmlns:xlink="http://www.w3.org/1999/xlink" x="0px"
	 y="0px" viewBox="0 0 512 512" style="enable-background:new 0 0 512 512;" xml:space="preserve">
<style type="text/css">
	.st0{fill:#d4654e;}
	.st1{fill:#FFFFFF;}
</style>
<path class="st0" d="M374.5,158.1c-2.5-7-8.9-11.5-16.3-11.5h-74.7l49.5-41.7c0.7-0.6,1.2-1.3,1.6-2c3.5-6.7,3.3-14.6-0.6-21
	c-3.9-6.5-10.8-10.3-18.3-10.3H210.2c-2.5,0-4.9,1.4-6,3.6l-38.7,73.4c-1.8,3.3-0.5,7.5,2.9,9.2c3.3,1.8,7.5,0.5,9.2-2.9l36.7-69.8
	h101.4c3.9,0,6,2.6,6.6,3.7c0.6,1,1.8,3.5,0.7,6.6l-62.7,52.7c-2.2,1.8-3,4.9-2,7.6c1,2.7,3.5,4.5,6.4,4.5h93.4
	c2.3,0,3.2,1.7,3.4,2.4c0.3,0.7,0.7,2.6-1.1,4c-0.3,0.2-0.6,0.5-0.8,0.8L152.3,402.6l84.6-191.8c0.9-2.1,0.7-4.5-0.5-6.5
	c-1.3-1.9-3.4-3.1-5.7-3.1h-77.4l12.6-23.9c1.8-3.3,0.5-7.5-2.9-9.2s-7.5-0.5-9.2,2.9l-17.8,33.9c-1.1,2.1-1,4.7,0.2,6.7
	c1.2,2,3.5,3.3,5.8,3.3h78.3l-98.2,222.5c-1.4,3.1-0.3,6.7,2.6,8.5c1.1,0.7,2.4,1.1,3.7,1.1c1.9,0,3.8-0.8,5.1-2.3l236.2-267.8
	C375,172.2,376.9,164.9,374.5,158.1L374.5,158.1z"/>
<path class="st1" d="M97.6,317.3C97.6,317.3,97.6,317.3,97.6,317.3c-6.4,0-12.4,2.5-16.9,7c-4.5,4.5-7,10.5-7,16.9
	c0,6.4,2.5,12.4,7,16.9c4.5,4.5,10.5,7,16.9,7h0c6.4,0,12.4-2.5,16.9-7c4.5-4.5,7-10.5,7-16.9c0-6.4-2.5-12.4-7-16.9
	C110,319.8,104,317.3,97.6,317.3z M104.8,348.4c-1.9,1.9-4.5,3-7.2,3c0,0,0,0,0,0c-2.7,0-5.3-1.1-7.2-3c-1.9-1.9-3-4.5-3-7.2
	c0-2.7,1.1-5.3,3-7.2c1.9-1.9,4.5-3,7.2-3h0c2.7,0,5.3,1.1,7.2,3c1.9,1.9,3,4.5,3,7.2C107.8,343.9,106.7,346.5,104.8,348.4z"/>
<path class="st0" d="M62.7,203.8c-4.2,0.6-7.2,4.5-6.6,8.7c0.6,4.2,4.5,7.2,8.7,6.6c4.2-0.6,7.2-4.5,6.6-8.7
	C70.8,206.1,66.9,203.2,62.7,203.8L62.7,203.8z"/>
<path class="st0" d="M173.8,258.1c-0.6-4.2-4.5-7.2-8.7-6.6c-4.2,0.6-7.2,4.5-6.6,8.7c0.6,4.2,4.5,7.2,8.7,6.6
	C171.4,266.3,174.4,262.4,173.8,258.1z"/>
<path class="st1" d="M377.5,230.8l7.7,7.7l-7.7,7.7c-2.7,2.7-2.7,7,0,9.7c1.3,1.3,3.1,2,4.8,2c1.7,0,3.5-0.7,4.8-2l7.7-7.7l7.7,7.7
	c1.3,1.3,3.1,2,4.8,2c1.7,0,3.5-0.7,4.8-2c2.7-2.7,2.7-7,0-9.7l-7.7-7.7l7.7-7.7c2.7-2.7,2.7-7,0-9.7c-2.7-2.7-7-2.7-9.7,0l-7.7,7.7
	l-7.7-7.7c-2.7-2.7-7-2.7-9.7,0C374.8,223.8,374.8,228.1,377.5,230.8z"/>
<path class="st0" d="M383.9,338.5c-2.3-1.2-5.1-0.9-7.1,0.6l-23.2,17.4l-23.2-17.4c-2.1-1.5-4.8-1.8-7.1-0.6
	c-2.3,1.2-3.8,3.5-3.8,6.1v54.6c0,3.8,3.1,6.8,6.8,6.8c3.8,0,6.8-3.1,6.8-6.8v-41l16.4,12.3c2.4,1.8,5.8,1.8,8.2,0l16.4-12.3v41
	c0,3.8,3.1,6.8,6.8,6.8c3.8,0,6.8-3.1,6.8-6.8v-54.6C387.7,342,386.3,339.6,383.9,338.5z"/>
<path class="st1" d="M77.3,104.8l15.8,8.7l8.7,15.8c1.2,2.2,3.5,3.5,6,3.5s4.8-1.4,6-3.5l8.7-15.8l15.8-8.7c2.2-1.2,3.5-3.5,3.5-6
	s-1.4-4.8-3.5-6l-15.8-8.7l-8.7-15.8c-2.4-4.4-9.6-4.4-12,0l-8.7,15.8l-15.8,8.7c-2.2,1.2-3.5,3.5-3.5,6S75.1,103.6,77.3,104.8z
	 M101.5,95.2c1.1-0.6,2.1-1.6,2.7-2.7l3.6-6.6l3.6,6.6c0.6,1.1,1.6,2.1,2.7,2.7l6.6,3.6l-6.6,3.6c-1.1,0.6-2.1,1.6-2.7,2.7l-3.6,6.6
	l-3.6-6.6c-0.6-1.1-1.6-2.1-2.7-2.7l-6.6-3.6L101.5,95.2z"/>
<path class="st1" d="M449.2,365.1h-20.8c-3.5-38.2-35.6-68.3-74.7-68.3c-39.1,0-71.3,30.1-74.8,68.3c-0.1,0-0.2-0.1-0.3-0.1h-27.3
	c-3.8,0-6.8,3.1-6.8,6.8c0,3.8,3.1,6.8,6.8,6.8h27.3c0.1,0,0.2-0.1,0.3-0.1c3.4,38.2,35.6,68.3,74.8,68.3
	c39.1,0,71.3-30.1,74.7-68.3h20.8c3.8,0,6.8-3.1,6.8-6.8S452.9,365.1,449.2,365.1L449.2,365.1z M353.6,433.3
	c-33.9,0-61.4-27.6-61.4-61.4s27.6-61.4,61.4-61.4S415,338,415,371.9S387.5,433.3,353.6,433.3z"/>
</svg>
