<?xml version="1.0" encoding="utf-8"?>
<!-- Generator: Adobe Illustrator 24.0.1, SVG Export Plug-In . SVG Version: 6.00 Build 0)  -->
<svg version="1.1" id="Слой_1" xmlns="http://www.w3.org/2000/svg" xmlns:xlink="http://www.w3.org/1999/xlink" x="0px" y="0px"
	 viewBox="0 0 512 512" style="enable-background:new 0 0 512 512;" xml:space="preserve">
<style type="text/css">
	.st0{fill:#FFFFFF;}
	.st1{fill:#d4654e;}
</style>
<g id="Out_line">
	<path class="st0" d="M172.6,323.4l-23.8-17.8c-2.8-2.1-6.8-2.1-9.6,0l-23.8,17.8c-9,6.7-10.8,19.5-4.1,28.4
		c3.3,4.4,8.2,7.2,13.6,7.9l-4.5,13.6c-1.4,4.2,0.9,8.7,5.1,10.1c0.8,0.3,1.7,0.4,2.5,0.4h32c4.4,0,8-3.6,8-8c0-0.9-0.1-1.7-0.4-2.5
		l-4.5-13.6c11.1-1.5,19-11.7,17.5-22.8C179.8,331.6,176.9,326.7,172.6,323.4L172.6,323.4z M139.1,368l4.5-13.5
		c0.3-0.8,0.4-1.6,0.4-2.5c0,0.8,0.1,1.7,0.4,2.5l4.5,13.5H139.1z M164.2,341.6c-0.7,1.5-2.2,2.4-3.9,2.4H152c-4.4,0-8,3.6-8,8
		c0-4.4-3.6-8-8-8h-8.4c-2.4,0-4.3-1.9-4.3-4.3c0-1.4,0.6-2.6,1.7-3.5l19-14.2l19,14.2C164.6,337.5,165.2,339.7,164.2,341.6z"/>
	<path class="st1" d="M208,344c0-35.3-28.7-64-64-64s-64,28.7-64,64s28.7,64,64,64C179.3,408,208,379.3,208,344z M144,392
		c-26.5,0-48-21.5-48-48s21.5-48,48-48s48,21.5,48,48C192,370.5,170.5,392,144,392z"/>
	<path class="st1" d="M144,216c-70.7,0-128,57.3-128,128s57.3,128,128,128s128-57.3,128-128C271.9,273.3,214.7,216.1,144,216z
		 M99.1,250.2l-4-6.9c4-1.9,8.1-3.6,12.3-5.1l2.1,7.8C105.9,247.2,102.5,248.6,99.1,250.2z M85.2,258.2c-3.1,2.1-6,4.4-8.9,6.8
		l-5.7-5.7c3.3-2.9,6.9-5.6,10.5-8.1L85.2,258.2z M65.1,276.4c-8.4,9.7-14.9,21-19.1,33.1l-7.8-2.1c4.7-13.5,11.9-25.9,21.2-36.7
		L65.1,276.4z M41.8,324.9c-0.7,3.7-1.2,7.4-1.5,11.1h-8c0.3-4.4,0.9-8.8,1.7-13.2L41.8,324.9z M40.3,352c0.3,3.7,0.8,7.4,1.5,11.1
		l-7.7,2.1c-0.8-4.4-1.4-8.8-1.7-13.2H40.3z M45.9,378.6c4.3,12.1,10.8,23.3,19.1,33.1l-5.7,5.7c-9.3-10.8-16.5-23.2-21.2-36.7
		L45.9,378.6z M76.4,422.9c2.8,2.4,5.8,4.7,8.9,6.8l-4,6.9c-3.7-2.5-7.2-5.2-10.5-8.1L76.4,422.9z M99.1,437.8
		c3.4,1.6,6.8,3.1,10.3,4.3l-2.1,7.8c-4.2-1.5-8.3-3.2-12.3-5.1L99.1,437.8z M68.1,388.4c2.3,3.5,7,4.6,10.6,2.5l0,0
		c2.2,3.8,7.1,5.1,10.9,2.9s5.1-7.1,2.9-10.9l-8-13.9c-2.2-3.8-7.1-5.1-10.9-2.9c-3.8,2.2-5.1,7.1-2.9,10.9c-3.7,2.1-5.1,6.9-3,10.7
		c-15.6-27.1-15.6-60.4,0-87.5c-2,3.8-0.7,8.5,3,10.7c-2.2,3.8-0.9,8.7,2.9,10.9s8.7,0.9,10.9-2.9c0,0,0,0,0,0l8-13.9
		c2.2-3.8,0.9-8.7-2.9-10.9s-8.7-0.9-10.9,2.9l0,0c-3.7-2.1-8.3-1-10.6,2.5c24.5-41.9,78.4-56.1,120.3-31.5
		c13,7.6,23.9,18.5,31.5,31.5c-2.3-3.5-7-4.6-10.6-2.5l0,0c-2.2-3.8-7.1-5.1-10.9-2.9s-5.1,7.1-2.9,10.9l8,13.9
		c2.2,3.8,7.1,5.1,10.9,2.9c3.8-2.2,5.1-7.1,2.9-10.9c3.7-2.1,5.1-6.9,3-10.7c15.6,27.1,15.6,60.4,0,87.5c2-3.8,0.7-8.5-3-10.7
		c2.2-3.8,0.9-8.7-2.9-10.9c-3.8-2.2-8.7-0.9-10.9,2.9l-8,13.9c-2.2,3.8-0.9,8.7,2.9,10.9s8.7,0.9,10.9-2.9l0,0
		c3.7,2.1,8.3,1,10.6-2.5c-24.5,41.9-78.4,56.1-120.3,31.5C86.6,412.4,75.7,401.5,68.1,388.4L68.1,388.4z M222.9,276.4l5.7-5.7
		c9.3,10.8,16.5,23.2,21.2,36.7l-7.8,2.1C237.8,297.3,231.3,286.1,222.9,276.4z M211.6,265.1c-2.8-2.4-5.8-4.7-8.9-6.8l4-6.9
		c3.7,2.5,7.2,5.2,10.5,8.1L211.6,265.1z M188.9,250.2c-3.4-1.6-6.8-3.1-10.3-4.3l2.1-7.8c4.2,1.5,8.3,3.2,12.3,5.1L188.9,250.2z
		 M188.9,437.8l4,6.9c-4,1.9-8.1,3.6-12.3,5.1l-2.1-7.8C182.1,440.8,185.5,439.4,188.9,437.8z M202.8,429.8c3.1-2.1,6-4.4,8.9-6.8
		l5.7,5.7c-3.3,2.9-6.9,5.6-10.5,8.1L202.8,429.8z M222.9,411.6c8.4-9.7,14.9-21,19.1-33.1l7.8,2.1c-4.7,13.5-11.9,25.9-21.2,36.7
		L222.9,411.6z M246.2,363.1c0.7-3.7,1.2-7.4,1.5-11.1h8c-0.3,4.4-0.9,8.8-1.7,13.2L246.2,363.1z M247.7,336
		c-0.3-3.7-0.8-7.4-1.5-11.1l7.7-2.1c0.8,4.4,1.4,8.8,1.7,13.2H247.7z M165.2,234l-2.1,7.7c-12.6-2.4-25.6-2.4-38.2,0l-2.1-7.7
		C136.8,231.3,151.2,231.3,165.2,234z M122.8,454l2.1-7.7c12.6,2.4,25.6,2.4,38.2,0l2.1,7.7C151.2,456.7,136.8,456.7,122.8,454z"/>
	<path class="st1" d="M136,264c-4.4,0-8,3.6-8,8s3.6,8,8,8h16c4.4,0,8-3.6,8-8s-3.6-8-8-8c0-4.4-3.6-8-8-8S136,259.6,136,264z"/>
	<path class="st1" d="M152,424c4.4,0,8-3.6,8-8s-3.6-8-8-8h-16c-4.4,0-8,3.6-8,8s3.6,8,8,8c0,4.4,3.6,8,8,8S152,428.4,152,424z"/>
	<path class="st0" d="M489.9,336c8.8-9.9,8-25.1-1.9-33.9c-4.4-3.9-10.1-6.1-16-6.1h-1.4c2.9-8.3,1.1-17.5-4.8-24
		c8.2-9.1,8.2-22.9,0-32c8.2-9.1,8.2-22.9,0-32c8.2-9.1,8.2-22.9,0-32c8.8-9.9,8-25.1-1.9-33.9c-4.4-3.9-10.1-6.1-16-6.1H240
		c-13.2,0-24,10.7-24,24c0,5.9,2.2,11.6,6.1,16c-8.2,9.1-8.2,22.9,0,32c-4,4.4-6.1,10.1-6.1,16h16c0-4.4,3.5-8,8-8c0,0,0,0,0,0v32
		h24v24h8v8h40v16h-32v16h8v16h-8v16h8v16h-8v16h8v16h-16v16h-8v16c-13.3,0-24,10.7-24,24s10.7,24,24,24h208c13.2,0,24-10.7,24-24
		c0-5.9-2.2-11.6-6.1-16c8.2-9.1,8.2-22.9,0-32c8.2-9.1,8.2-22.9,0-32C498,358.9,498,345.1,489.9,336z M288,440v16h-8v-16H288z
		 M336,408v16h-32v-16H336z M400,424v-16h32v16H400z M312,184v16h-32v-16H312z M424,264v-16h8v16H424z M360,216v16h-8v-16H360z
		 M376,232v-16h32v16H376z M408,248v16h-32v-16H408z M424,232v-16h8v16H424z M424,200v-16h8v16H424z M408,200h-32v-16h32V200z
		 M360,200h-8v-16h8V200z M336,200h-8v-16h8V200z M336,216v16h-8v-16H336z M360,248v16h-8v-16H360z M408,280v16h-32v-16H408z
		 M384,312v16h-8v-16H384z M384,344v16h-8v-16H384z M384,376v16h-8v-16H384z M352,424v-16h8v16H352z M376,408h8v16h-8V408z M400,392
		v-16h32v16H400z M400,360v-16h32v16H400z M400,328v-16h32v16H400z M424,296v-16h8v16H424z M448,248c4.4,0,8,3.6,8,8s-3.6,8-8,8V248
		z M453.7,229.7c-1.5,1.5-3.5,2.4-5.7,2.3v-16c4.4,0,8,3.6,8,8C456,226.1,455.2,228.2,453.7,229.7z M453.7,197.7
		c-1.5,1.5-3.5,2.4-5.7,2.3v-16c4.4,0,8,3.6,8,8C456,194.1,455.2,196.2,453.7,197.7z M424,168v-16h8v16H424z M408,168h-32v-16h32
		V168z M360,168h-8v-16h8V168z M336,168h-8v-16h8V168z M312,168h-32v-16h32V168z M264,168h-8v-16h8V168z M264,184v16h-8v-16H264z
		 M312,216v16h-32v-16H312z M336,248v16h-8v-16H336z M360,280v16h-8v-16H360z M360,312v16h-8v-16H360z M360,344v16h-8v-16H360z
		 M360,376v16h-8v-16H360z M304,440h32v16h-32V440z M352,440h8v16h-8V440z M376,440h8v16h-8V440z M400,440h32v16h-32V440z M448,440
		h8v16h-8V440z M448,424v-16h8v16H448z M448,392v-16h8v16H448z M448,360v-16h8v16H448z M448,328v-16h8v16H448z M448,280
		c4.4,0,8,3.6,8,8s-3.6,8-8,8V280z M456,160c0,4.4-3.5,8-8,8c0,0,0,0,0,0v-16C452.4,152,456,155.6,456,160z M234.3,154.3
		c1.5-1.5,3.5-2.4,5.7-2.3v16c-4.4,0-8-3.6-8-8C232,157.9,232.8,155.8,234.3,154.3z M232,192c0-4.4,3.5-8,8-8c0,0,0,0,0,0v16
		C235.6,200,232,196.4,232,192z M256,216h8v16h-8V216z M312,248v16h-32v-16H312z M328,280h8v16h-8V280z M304,312h32v16h-32V312z
		 M304,344h32v16h-32V344z M304,376h32v16h-32V376z M280,408h8v16h-8V408z M256,448c0-4.4,3.5-8,8-8c0,0,0,0,0,0v16
		C259.6,456,256,452.4,256,448z M477.7,453.7c-1.5,1.5-3.5,2.4-5.7,2.3v-16c4.4,0,8,3.6,8,8C480,450.1,479.2,452.2,477.7,453.7z
		 M477.7,421.7c-1.5,1.5-3.5,2.4-5.7,2.3v-16c4.4,0,8,3.6,8,8C480,418.1,479.2,420.2,477.7,421.7z M477.7,389.7
		c-1.5,1.5-3.5,2.4-5.7,2.3v-16c4.4,0,8,3.6,8,8C480,386.1,479.2,388.2,477.7,389.7z M477.7,357.7c-1.5,1.5-3.5,2.4-5.7,2.3v-16
		c4.4,0,8,3.6,8,8C480,354.1,479.2,356.2,477.7,357.7z M477.7,325.7c-1.5,1.5-3.5,2.4-5.7,2.3v-16c4.4,0,8,3.6,8,8
		C480,322.1,479.2,324.2,477.7,325.7z"/>
	<path class="st0" d="M139.2,204l13.9-8c-0.7-1.2-1.1-2.6-1.1-4c0-4.4,3.5-8,8-8c0,0,0,0,0,0v24h16v-24h8v24h16v-24h8v-16h-8v-16h8
		v-16h-8v-16h32v8h16v-8h8v8h16v-8h8v8h16v-8h32v8h16v-8h8v8h16v-8c4.4,0,8,3.6,8,8h16c0-5.9-2.2-11.6-6.1-16c8.2-9.1,8.2-22.9,0-32
		c8.8-9.9,8-25.1-1.9-33.9c-4.4-3.9-10.1-6.1-16-6.1H160c-13.2,0-24,10.7-24,24c0,5.9,2.2,11.6,6.1,16c-8.2,9.1-8.2,22.9,0,32
		c-8.2,9.1-8.2,22.9,0,32c-8.2,9.1-8.2,22.9,0,32C135.2,183.7,134,195,139.2,204z M184,168h-8v-16h8V168z M184,136h-8v-16h8V136z
		 M232,88v16h-32V88H232z M248,88h8v16h-8V88z M272,88h8v16h-8V88z M296,88h32v16h-32V88z M344,88h8v16h-8V88z M344,72V56h8v16H344z
		 M328,72h-32V56h32V72z M280,72h-8V56h8V72z M256,72h-8V56h8V72z M232,72h-32V56h32V72z M184,72h-8V56h8V72z M184,88v16h-8V88H184z
		 M373.7,101.7c-1.5,1.5-3.5,2.4-5.7,2.3V88c4.4,0,8,3.6,8,8C376,98.1,375.2,100.2,373.7,101.7z M376,64c0,4.4-3.5,8-8,8
		c0,0,0,0,0,0V56C372.4,56,376,59.6,376,64z M154.3,58.3c1.5-1.5,3.5-2.4,5.7-2.3v16c-4.4,0-8-3.6-8-8
		C152,61.9,152.8,59.8,154.3,58.3z M154.3,90.3c1.5-1.5,3.5-2.4,5.7-2.3v16c-4.4,0-8-3.6-8-8C152,93.9,152.8,91.8,154.3,90.3z
		 M154.3,122.3c1.5-1.5,3.5-2.4,5.7-2.3v16c-4.4,0-8-3.6-8-8C152,125.9,152.8,123.8,154.3,122.3z M154.3,154.3
		c1.5-1.5,3.5-2.4,5.7-2.3v16c-4.4,0-8-3.6-8-8C152,157.9,152.8,155.8,154.3,154.3z"/>
</g>
</svg>
