<?xml version="1.0" encoding="utf-8"?>
<!-- Generator: Adobe Illustrator 24.0.1, SVG Export Plug-In . SVG Version: 6.00 Build 0)  -->
<svg version="1.1" id="Capa_1" xmlns="http://www.w3.org/2000/svg" xmlns:xlink="http://www.w3.org/1999/xlink" x="0px" y="0px"
	 viewBox="0 0 512 512" style="enable-background:new 0 0 512 512;" xml:space="preserve">
<style type="text/css">
	.st0{fill:#FFFFFF;}
	.st1{fill:#d4654e;}
</style>
<g>
	<g>
		<g>
			<path class="st0" d="M54.4,34.8C52.4,34,50,34,48,34.8c-1,0.4-2,1-2.8,1.8c-1.6,1.6-2.4,3.8-2.5,6.1c0,0.6,0.1,1.1,0.2,1.7
				c0.1,0.5,0.3,1.1,0.5,1.5c0.2,0.5,0.4,1.1,0.8,1.5c0.3,0.4,0.7,0.9,1,1.3c0.8,0.8,1.8,1.4,2.8,1.8c2.1,0.9,4.4,0.9,6.5,0
				c1-0.4,2-1,2.8-1.8c0.3-0.4,0.7-0.9,1-1.3c0.3-0.5,0.6-1,0.8-1.5c0.2-0.5,0.4-1,0.5-1.5c0.1-0.6,0.2-1.1,0.2-1.7
				c0-2.3-0.9-4.4-2.5-6.1C56.4,35.9,55.5,35.2,54.4,34.8z"/>
			<path class="st0" d="M91.4,36.6c-0.8-0.8-1.8-1.4-2.8-1.8c-3.2-1.3-6.8-0.6-9.3,1.8c-0.8,0.8-1.4,1.8-1.8,2.8
				c-0.4,1-0.7,2.1-0.7,3.2c0,0.6,0.1,1.1,0.2,1.7c0.1,0.5,0.3,1.1,0.5,1.5c0.2,0.5,0.4,1.1,0.8,1.5c0.3,0.4,0.7,0.9,1,1.3
				c1.6,1.6,3.8,2.4,6.1,2.5c1.1,0,2.2-0.2,3.2-0.7c1-0.4,2-1,2.8-1.8c1.6-1.6,2.4-3.8,2.5-6.1c0-1.1-0.2-2.2-0.7-3.2
				C92.7,38.4,92.1,37.4,91.4,36.6z"/>
			<path class="st0" d="M127.3,39.4c-0.2-0.5-0.4-1.1-0.8-1.5c-0.3-0.4-0.7-0.9-1-1.3c-2.5-2.4-6.1-3.1-9.3-1.8c-1,0.4-2,1-2.8,1.8
				c-1.6,1.6-2.5,3.8-2.5,6.1c0,1.1,0.2,2.2,0.7,3.2c0.4,1,1,2,1.8,2.8c0.8,0.8,1.8,1.4,2.8,1.8c1,0.4,2.1,0.7,3.2,0.7
				c0.6,0,1.1-0.1,1.7-0.2c0.5-0.1,1.1-0.3,1.5-0.5c0.5-0.2,1.1-0.4,1.5-0.8c0.4-0.3,0.8-0.7,1.3-1c0.8-0.8,1.4-1.8,1.8-2.8
				c0.5-1,0.7-2.1,0.7-3.2c0-0.6-0.1-1.1-0.2-1.7C127.7,40.4,127.6,39.9,127.3,39.4z"/>
			<path class="st0" d="M238.9,34.1h-68.3c-4.7,0-8.5,3.8-8.5,8.5s3.8,8.5,8.5,8.5h68.3c4.7,0,8.5-3.8,8.5-8.5
				S243.6,34.1,238.9,34.1z"/>
			<path class="st1" d="M170.7,213.3H51.2c-9.4,0-17.1,7.6-17.1,17.1v136.5c0,9.4,7.6,17.1,17.1,17.1h119.5
				c9.4,0,17.1-7.6,17.1-17.1V230.4C187.7,221,180.1,213.3,170.7,213.3z M51.2,366.9V230.4h119.5l0,136.5L51.2,366.9L51.2,366.9z"/>
			<path class="st1" d="M341.3,213.3H221.9c-9.4,0-17.1,7.6-17.1,17.1v136.5c0,9.4,7.6,17.1,17.1,17.1h119.5
				c9.4,0,17.1-7.6,17.1-17.1V230.4C358.4,221,350.8,213.3,341.3,213.3z M221.9,366.9V230.4h119.5l0,136.5L221.9,366.9L221.9,366.9z
				"/>
			<path class="st0" d="M409.6,213.3V42.7c0-23.6-19.1-42.6-42.7-42.7H42.7C19.1,0,0,19.1,0,42.7v426.7C0,492.9,19.1,512,42.7,512
				h324.3c23.6,0,42.6-19.1,42.7-42.7v-51.2h59.7c4.7,0,8.5-3.8,8.5-8.5s-3.8-8.5-8.5-8.5h-59.7V384h85.3c9.4,0,17.1-7.6,17.1-17.1
				V230.4c0-9.4-7.6-17.1-17.1-17.1H409.6 M17.1,42.7c0-14.1,11.5-25.6,25.6-25.6h324.3c14.1,0,25.6,11.5,25.6,25.6v25.6H17.1V42.7z
				 M392.5,213.3c-9.4,0-17.1,7.6-17.1,17.1v136.5c0,9.4,7.6,17.1,17.1,17.1v17.1h0c-4.7,0-8.5,3.8-8.5,8.5s3.8,8.5,8.5,8.5v51.2
				c0,14.1-11.5,25.6-25.6,25.6H42.7c-14.1,0-25.6-11.5-25.6-25.6v-384h375.5V213.3 M392.5,366.9V230.4h102.4l0,136.5L392.5,366.9
				L392.5,366.9z"/>
			<path class="st0" d="M102.4,401.1H51.2c-4.7,0-8.5,3.8-8.5,8.5s3.8,8.5,8.5,8.5h51.2c4.7,0,8.5-3.8,8.5-8.5
				S107.1,401.1,102.4,401.1z"/>
			<path class="st0" d="M170.7,401.1h-34.1c-4.7,0-8.5,3.8-8.5,8.5s3.8,8.5,8.5,8.5h34.1c4.7,0,8.5-3.8,8.5-8.5
				S175.4,401.1,170.7,401.1z"/>
			<path class="st0" d="M281.6,401.1h-59.7c-4.7,0-8.5,3.8-8.5,8.5s3.8,8.5,8.5,8.5h59.7c4.7,0,8.5-3.8,8.5-8.5
				S286.3,401.1,281.6,401.1z"/>
			<path class="st0" d="M341.3,401.1h-25.6c-4.7,0-8.5,3.8-8.5,8.5s3.8,8.5,8.5,8.5h25.6c4.7,0,8.5-3.8,8.5-8.5
				S346,401.1,341.3,401.1z"/>
			<path class="st0" d="M511.3,406.4c-0.2-0.5-0.4-1-0.8-1.5c-0.3-0.5-0.7-0.9-1-1.4c-0.4-0.3-0.9-0.7-1.4-1
				c-0.4-0.3-0.9-0.6-1.5-0.8c-0.5-0.2-1-0.4-1.5-0.5c-2.8-0.6-5.7,0.3-7.8,2.3c-2.8,2.7-3.3,7-1.4,10.4c1.9,3.4,5.9,5,9.7,4
				s6.4-4.4,6.3-8.3c0-0.6-0.1-1.1-0.2-1.7C511.7,407.4,511.6,406.8,511.3,406.4z"/>
			<path class="st0" d="M196.3,136.5h-85.3c-4.7,0-8.5,3.8-8.5,8.5s3.8,8.5,8.5,8.5h85.3c4.7,0,8.5-3.8,8.5-8.5
				S201,136.5,196.3,136.5z"/>
			<path class="st0" d="M128,187.7c4.7,0,8.5-3.8,8.5-8.5s-3.8-8.5-8.5-8.5h-17.1c-4.7,0-8.5,3.8-8.5,8.5s3.8,8.5,8.5,8.5H128z"/>
			<path class="st1" d="M51.2,187.7h17.1c9.4,0,17.1-7.6,17.1-17.1v-17.1c0-9.4-7.6-17.1-17.1-17.1H51.2c-9.4,0-17.1,7.6-17.1,17.1
				v17.1C34.1,180.1,41.8,187.7,51.2,187.7z M51.2,153.6h17.1l0,17.1H51.2V153.6z"/>
		</g>
	</g>
</g>
</svg>
