<?xml version="1.0" encoding="utf-8"?>
<!-- Generator: Adobe Illustrator 19.2.1, SVG Export Plug-In . SVG Version: 6.00 Build 0)  -->
<svg version="1.1" id="Layer_1" xmlns="http://www.w3.org/2000/svg" xmlns:xlink="http://www.w3.org/1999/xlink" x="0px" y="0px"
	 viewBox="0 0 120 120" enable-background="new 0 0 120 120" xml:space="preserve">
<g>
	<g>
		<path fill="#F4F4F4" d="M60,117C28.3,117,2.5,91.2,2.5,59.5S28.3,2,60,2s57.5,25.8,57.5,57.5S91.7,117,60,117z"/>
		<path fill="#141414" d="M60,4.5c30.3,0,55,24.7,55,55s-24.7,55-55,55S5,89.8,5,59.5S29.7,4.5,60,4.5 M60-0.5
			c-33.1,0-60,26.9-60,60s26.9,60,60,60s60-26.9,60-60S93.1-0.5,60-0.5L60-0.5z"/>
	</g>
</g>
<g>
	<path fill="#FE5042" d="M40.6,93.7c2.3-0.6,4.8-2.2,4.7-3.8c-0.1-1.6-2.3-1.3-2.3-1.3s3.6-8.5,3.2-17.9
		c-0.4-9.4-13.1-18.4-24.4-10.1C10.5,68.8,14.7,86.9,39,91.3C39,91.3,38.2,94.3,40.6,93.7z M25.4,82.3c0,0-5.7-3.3-6.5-9.5
		c-1-6.9,6.5-11.2,6.5-11.2S18.4,69.1,25.4,82.3z"/>
	<path fill="#FE5042" d="M52.2,65.9c-0.4,0.3-2.6,1-1.9,3.1c0.7,2.1,11,2.9,11.6,0c0.6-2.9-1.9-3.1-1.9-3.1s15.5-14.4,16.9-30.3
		c1.3-16-7.2-22.7-21.8-22.7c-13,0-23.2,9.3-19.5,25.3C39.2,54.1,52.2,65.9,52.2,65.9z M41.4,24.6c4.9-8.9,14.5-7.3,14.5-7.3
		S42.9,26,42.7,40C42.7,40,36.9,32.7,41.4,24.6z"/>
	<path fill="#FE5042" d="M96.5,49.6c-9.4-4.4-24.8-1.9-26.2,14.4c-1.5,16.3,1.9,23.7,1.9,23.7s-3.1-1-3.8,0.9c-0.7,1.9,8.6,7,10.7,6
		c2.1-1,0-3.5,0-3.5s18.3-4.1,25.6-15.6C112,64,105.9,54,96.5,49.6z M74.4,64.9c0,0-0.9-10.4,7.9-13.1c8.8-2.7,13.6,2.6,13.6,2.6
		C77.7,51.4,74.4,64.9,74.4,64.9z"/>
	<path fill="#FE5042" d="M49.5,106.7c4.5,0.1,4-1.9,0.9-2.1c-4.5-0.4-2.5-3-2.3-6.6c0.3-3.6-2.8-5.1-2.8-5.1
		c-0.8,0.6-2.6,1.4-2.6,1.4c4.8,1.6,2.8,5.3,2.6,7.2C45.3,103.3,45,106.6,49.5,106.7z"/>
	<path fill="#FE5042" d="M55.3,86.4c1.6-1.4,3.7-4.1,4-8c0.3-4.3-1-6.8-1-6.8c-1.2,0.3-2.9,0-2.9,0s2.3,3.7,0.6,8.6
		c-1.8,4.9-5.1,4.8-5.1,8.2c0,2.3,1.5,4.9,4.4,6.2c2.9,1.3,3.8-1.1,2.4-1.9C53.3,90.9,53.7,87.9,55.3,86.4z"/>
	<path fill="#FE5042" d="M72.2,102c2.6-2.9,2.3-6.9,2.3-6.9C73.2,95,71.9,94,71.9,94s-0.1,6.9-4.1,7.5c-4,0.5-6.8,2.6-7.1,5.2
		c-0.3,2.6,1,5.1,3.4,5.1c2.4,0,2.4-2,1.6-2.3s-2.1-0.2-1.4-2.8C65.1,104.1,69.5,104.9,72.2,102z"/>
</g>
</svg>
