<?xml version="1.0" encoding="UTF-8"?> <svg xmlns="http://www.w3.org/2000/svg" xmlns:xlink="http://www.w3.org/1999/xlink" id="Capa_1" x="0px" y="0px" viewBox="0 0 512.004 512.004" style="enable-background:new 0 0 512.004 512.004;" xml:space="preserve" width="512px" height="512px" class=""><g><g> <g> <path d="M204.041,269.475l33.557-22.374c11.738-7.774,18.726-20.819,18.692-34.881c0-23.126-18.812-41.946-41.946-41.946h-10.081 c-23.126,0-41.946,18.812-41.946,41.946h17.086c0-13.703,11.157-24.86,24.86-24.86h10.081c13.703,0,24.86,11.157,24.86,24.886 c0.017,8.321-4.109,16.027-11.063,20.64l-33.574,22.383c-20.179,13.455-32.241,35.983-32.25,60.245 c0,2.264,0.897,4.442,2.503,6.04c1.598,1.606,3.776,2.503,6.04,2.503h85.43v-17.095h-76.229 C182.428,291.773,191.022,278.164,204.041,269.475z" data-original="#000000" class="active-path" data-old_color="#ff5500" fill="#ff5500"></path> </g> </g><g> <g> <path d="M283.346,272.79l15.565-101.218l-16.89-2.597l-17.086,111.059c-0.384,2.469,0.333,4.972,1.956,6.869 s3.99,2.982,6.484,2.982h102.516V272.79H283.346z" data-original="#000000" class="active-path" data-old_color="#ff5500" fill="#ff5500"></path> </g> </g><g> <g> <rect x="333.178" y="170.282" width="17.086" height="153.774" data-original="#000000" class="active-path" data-old_color="#ff5500" fill="#ff5500"></rect> </g> </g><g> <g> <rect x="64.07" y="126.386" transform="matrix(0.7372 -0.6757 0.6757 0.7372 -113.2996 100.555)" width="17.086" height="139.074" data-original="#000000" class="active-path" data-old_color="#ff5500" fill="#ff5500"></rect> </g> </g><g> <g> <rect x="303.27" y="371.639" transform="matrix(0.6727 -0.7399 0.7399 0.6727 -219.9085 373.1305)" width="17.086" height="126.999" data-original="#000000" class="active-path" data-old_color="#ff5500" fill="#ff5500"></rect> </g> </g><g> <g> <path d="M403.358,450.613c-0.367-0.547-0.794-1.042-1.281-1.486l-97.305-88.677c-2.905-2.657-7.236-2.956-10.499-0.794 l-53.573,35.71c-10.141,6.775-23.741,5.425-32.344-3.187l-88.48-88.899c-8.423-8.534-9.773-22.007-3.246-31.977l35.71-53.573 c2.178-3.272,1.845-7.612-0.812-10.508L57.554,104.706c-1.683-1.845-4.143-2.896-6.587-2.768 c-2.495,0.085-4.827,1.256-6.382,3.204C14.164,143.167,0,191.016,0,255.713c0,51.506,15.283,101.269,44.193,143.89 C93.7,472.577,174.491,511.926,256.666,511.926c49.515,0,99.526-14.284,143.506-44.116c0.06-0.034,0.12-0.077,0.179-0.12 C405.802,463.795,407.143,456.132,403.358,450.613z M58.34,390.009c-26.987-39.785-41.254-86.225-41.254-134.296 c0-56.059,11.106-98.296,34.821-131.879l82.5,90.001l-32.036,48.055c-10.935,16.719-8.697,39.178,5.365,53.419l88.523,88.941 c14.352,14.369,37.034,16.608,53.924,5.339l48.012-32.002l87.233,79.501C276.777,526.808,131.229,497.437,58.34,390.009z" data-original="#000000" class="active-path" data-old_color="#ff5500" fill="#ff5500"></path> </g> </g><g> <g> <rect x="247.747" y="67.766" width="17.086" height="34.172" data-original="#000000" class="active-path" data-old_color="#ff5500" fill="#ff5500"></rect> </g> </g><g> <g> <rect x="162.318" y="90.691" transform="matrix(0.8658 -0.5004 0.5004 0.8658 -30.9927 99.9603)" width="17.086" height="34.138" data-original="#000000" class="active-path" data-old_color="#ff5500" fill="#ff5500"></rect> </g> </g><g> <g> <rect x="410.065" y="247.17" width="34.172" height="17.086" data-original="#000000" class="active-path" data-old_color="#ff5500" fill="#ff5500"></rect> </g> </g><g> <g> <rect x="387.148" y="161.752" transform="matrix(0.866 -0.5001 0.5001 0.866 -30.9825 224.9874)" width="34.136" height="17.077" data-original="#000000" class="active-path" data-old_color="#ff5500" fill="#ff5500"></rect> </g> </g><g> <g> <rect x="324.666" y="99.209" transform="matrix(0.5003 -0.8659 0.8659 0.5003 77.4738 349.7425)" width="34.139" height="17.087" data-original="#000000" class="active-path" data-old_color="#ff5500" fill="#ff5500"></rect> </g> </g><g> <g> <path d="M500.672,385.592l-16.693-12.695C546.804,250.066,500.672,98.222,378.9,31.51C277.477-24.054,150.75-4.55,70.719,78.941 c-3.212,3.357-3.161,8.663,0.128,11.952l25.629,25.629c1.632,1.64,3.725,2.64,6.185,2.503c2.315-0.034,4.511-1.017,6.091-2.708 c38.085-40.75,91.914-64.679,147.538-65.636c113.05,0,205.032,91.974,205.032,205.032c0,28.32-12.644,66.14-19.35,84.208 l-18.12-14.07c-2.469-1.914-5.775-2.332-8.646-1.085c-2.862,1.239-4.827,3.955-5.109,7.057l-8.543,93.973 c-0.273,2.964,1.017,5.852,3.4,7.629c1.504,1.119,3.298,1.692,5.109,1.692c1.068,0,2.144-0.196,3.178-0.615l85.43-34.172 c2.862-1.145,4.878-3.742,5.297-6.783C504.38,390.487,503.115,387.454,500.672,385.592z M419.829,413.468l5.869-64.542 l14.848,11.516c2.093,1.632,4.827,2.204,7.407,1.512c2.571-0.666,4.682-2.503,5.707-4.955 c1.008-2.401,24.758-59.459,24.758-101.286c0-122.473-99.637-222.118-222.264-222.118 c-57.426,0.991-112.956,24.467-153.714,64.722L88.95,84.827c74.905-72.898,189.527-88.847,281.732-38.324 c115.681,63.372,158.225,209.039,94.853,324.711c-2.042,3.708-1.051,8.338,2.315,10.901l10.465,7.962L419.829,413.468z" data-original="#000000" class="active-path" data-old_color="#ff5500" fill="#ff5500"></path> </g> </g></g> </svg> 