<?xml version="1.0" encoding="UTF-8"?> <svg xmlns="http://www.w3.org/2000/svg" xmlns:xlink="http://www.w3.org/1999/xlink" id="Capa_1" x="0px" y="0px" viewBox="0 0 512.007 512.007" style="enable-background:new 0 0 512.007 512.007;" xml:space="preserve" width="512px" height="512px" class=""><g><g> <g> <path d="M256.063,102.407c-0.009,0-0.017,0-0.034,0c-45.568,0-88.422,17.741-120.653,49.963 c-32.23,32.23-49.997,75.085-50.005,120.67c-0.017,94.106,76.527,170.684,170.633,170.701c0.034,0,0.068,0,0.111,0 c13.312,0,26.607-1.57,39.518-4.668l-3.985-16.597c-11.605,2.79-23.561,4.198-35.541,4.198c-0.034,0-0.068,0-0.102,0 c-84.693-0.017-153.583-68.932-153.566-153.626c0.009-41.028,15.991-79.599,45.005-108.604 c29.013-29.005,67.567-44.971,108.587-44.971c0.008,0,0.026,0,0.034,0c42.257,0.009,83.072,17.69,111.991,48.503l12.45-11.674 C348.368,122.06,303.022,102.416,256.063,102.407z" data-original="#000000" class="active-path" data-old_color="#ff5500" fill="#ff5500"></path> </g> </g><g> <g> <rect x="247.47" y="51.207" width="17.067" height="59.733" data-original="#000000" class="active-path" data-old_color="#ff5500" fill="#ff5500"></rect> </g> </g><g> <g> <path d="M256.004,0.007c-28.237,0-51.2,22.963-51.2,51.2s22.963,51.2,51.2,51.2s51.2-22.963,51.2-51.2S284.24,0.007,256.004,0.007 z M256.004,85.341c-18.825,0-34.133-15.309-34.133-34.133s15.309-34.133,34.133-34.133c18.825,0,34.133,15.309,34.133,34.133 S274.828,85.341,256.004,85.341z" data-original="#000000" class="active-path" data-old_color="#ff5500" fill="#ff5500"></path> </g> </g><g> <g> <rect x="230.404" y="42.674" width="51.2" height="17.067" data-original="#000000" class="active-path" data-old_color="#ff5500" fill="#ff5500"></rect> </g> </g><g> <g> <circle cx="256.004" cy="273.074" r="17.067" data-original="#000000" class="active-path" data-old_color="#ff5500" fill="#ff5500"></circle> </g> </g><g> <g> <rect x="219.084" y="204.813" transform="matrix(0.4472 -0.8944 0.8944 0.4472 -32.8008 373.6188)" width="133.56" height="17.066" data-original="#000000" class="active-path" data-old_color="#ff5500" fill="#ff5500"></rect> </g> </g><g> <g> <rect x="247.47" y="136.541" width="17.067" height="17.067" data-original="#000000" class="active-path" data-old_color="#ff5500" fill="#ff5500"></rect> </g> </g><g> <g> <rect x="247.47" y="392.541" width="17.067" height="17.067" data-original="#000000" class="active-path" data-old_color="#ff5500" fill="#ff5500"></rect> </g> </g><g> <g> <rect x="183.485" y="153.695" transform="matrix(0.867 -0.4983 0.4983 0.867 -55.3221 117.2637)" width="17.067" height="17.152" data-original="#000000" class="active-path" data-old_color="#ff5500" fill="#ff5500"></rect> </g> </g><g> <g> <rect x="136.634" y="200.512" transform="matrix(0.4983 -0.867 0.867 0.4983 -108.4503 230.7601)" width="17.067" height="17.152" data-original="#000000" class="active-path" data-old_color="#ff5500" fill="#ff5500"></rect> </g> </g><g> <g> <rect x="119.47" y="264.541" width="17.067" height="17.067" data-original="#000000" class="active-path" data-old_color="#ff5500" fill="#ff5500"></rect> </g> </g><g> <g> <rect x="136.643" y="328.624" transform="matrix(0.8663 -0.4996 0.4996 0.8663 -149.0446 117.536)" width="16.743" height="17.067" data-original="#000000" class="active-path" data-old_color="#ff5500" fill="#ff5500"></rect> </g> </g><g> <g> <rect x="183.439" y="375.314" transform="matrix(0.498 -0.8672 0.8672 0.498 -236.4726 359.2075)" width="17.152" height="17.067" data-original="#000000" class="active-path" data-old_color="#ff5500" fill="#ff5500"></rect> </g> </g><g> <g> <path d="M17.07,494.941V107.195l141.534-86.494c11.972,28.962,3.277,63.258-21.871,82.654L99.34,130.508 c-8.789,6.417-14.02,16.759-13.995,27.622v4.011c0,18.825,15.309,34.133,34.133,34.133v-17.067 c-9.412,0-17.067-7.654-17.067-17.067v-4.045c-0.017-5.444,2.594-10.607,6.972-13.807l37.572-27.281 c34.389-26.522,44.109-74.974,22.596-112.7c-1.143-2.005-3.046-3.465-5.282-4.036c-2.244-0.58-4.608-0.222-6.579,0.981 L4.091,95.12c-2.543,1.562-4.087,4.318-4.087,7.287v401.067c0,4.719,3.823,8.533,8.533,8.533h384v-17.067H17.07z" data-original="#000000" class="active-path" data-old_color="#ff5500" fill="#ff5500"></path> </g> </g><g> <g> <path d="M401.07,409.607h-76.8c-28.237,0-51.2,22.963-51.2,51.2c0,28.237,22.963,51.2,51.2,51.2h76.8 c28.237,0,51.2-22.963,51.2-51.2C452.27,432.571,429.307,409.607,401.07,409.607z M401.07,494.941h-76.8 c-18.825,0-34.133-15.309-34.133-34.133c0-18.825,15.309-34.133,34.133-34.133h76.8c18.825,0,34.133,15.309,34.133,34.133 C435.204,479.632,419.895,494.941,401.07,494.941z" data-original="#000000" class="active-path" data-old_color="#ff5500" fill="#ff5500"></path> </g> </g><g> <g> <path d="M435.204,324.274h-76.8c-28.237,0-51.2,22.963-51.2,51.2c0,28.237,22.963,51.2,51.2,51.2h76.8 c28.237,0,51.2-22.963,51.2-51.2C486.404,347.237,463.44,324.274,435.204,324.274z M435.204,409.607h-76.8 c-18.825,0-34.133-15.309-34.133-34.133c0-18.825,15.309-34.133,34.133-34.133h76.8c18.825,0,34.133,15.309,34.133,34.133 C469.337,394.299,454.028,409.607,435.204,409.607z" data-original="#000000" class="active-path" data-old_color="#ff5500" fill="#ff5500"></path> </g> </g><g> <g> <path d="M460.804,238.941h-76.8c-28.237,0-51.2,22.963-51.2,51.2c0,28.237,22.963,51.2,51.2,51.2h76.8 c28.237,0,51.2-22.963,51.2-51.2C512.004,261.904,489.04,238.941,460.804,238.941z M460.804,324.274h-76.8 c-18.825,0-34.133-15.309-34.133-34.133s15.309-34.133,34.133-34.133h76.8c18.825,0,34.133,15.309,34.133,34.133 C494.937,308.965,479.628,324.274,460.804,324.274z" data-original="#000000" class="active-path" data-old_color="#ff5500" fill="#ff5500"></path> </g> </g><g> <g> <path d="M460.804,153.607h-76.8c-28.237,0-51.2,22.963-51.2,51.2c0,28.237,22.963,51.2,51.2,51.2h76.8 c28.237,0,51.2-22.963,51.2-51.2C512.004,176.571,489.04,153.607,460.804,153.607z M460.804,238.941h-76.8 c-18.825,0-34.133-15.309-34.133-34.133s15.309-34.133,34.133-34.133h76.8c18.825,0,34.133,15.309,34.133,34.133 S479.628,238.941,460.804,238.941z" data-original="#000000" class="active-path" data-old_color="#ff5500" fill="#ff5500"></path> </g> </g><g> <g> <rect x="140.8" y="105.646" transform="matrix(0.7071 -0.7071 0.7071 0.7071 -43.7656 141.8395)" width="17.067" height="36.207" data-original="#000000" class="active-path" data-old_color="#ff5500" fill="#ff5500"></rect> </g> </g><g> <g> <rect x="115.2" y="131.243" transform="matrix(0.7071 -0.7071 0.7071 0.7071 -69.3632 131.2356)" width="17.067" height="36.207" data-original="#000000" class="active-path" data-old_color="#ff5500" fill="#ff5500"></rect> </g> </g><g> <g> <path d="M407.103,130.508l-25.6-25.6c-3.337-3.337-8.73-3.337-12.066,0l-25.6,25.6l12.066,12.066l19.567-19.567l13.534,13.534 l-19.567,19.567l12.066,12.066l25.6-25.6C410.44,139.237,410.44,133.844,407.103,130.508z" data-original="#000000" class="active-path" data-old_color="#ff5500" fill="#ff5500"></path> </g> </g></g> </svg> 