<?xml version="1.0" encoding="UTF-8"?> <svg xmlns="http://www.w3.org/2000/svg" xmlns:xlink="http://www.w3.org/1999/xlink" id="Capa_1" x="0px" y="0px" viewBox="0 0 512 512" style="enable-background:new 0 0 512 512;" xml:space="preserve" width="512px" height="512px" class=""><g><g> <g> <path d="M469.333,0H42.667C23.842,0,8.533,15.309,8.533,34.133v341.333c0,18.825,15.309,34.133,34.133,34.133h426.667 c18.825,0,34.133-15.309,34.133-34.133V34.133C503.467,15.309,488.158,0,469.333,0z M486.4,375.467 c0,9.412-7.654,17.067-17.067,17.067H42.667c-9.412,0-17.067-7.654-17.067-17.067V34.133c0-9.412,7.654-17.067,17.067-17.067 h426.667c9.412,0,17.067,7.654,17.067,17.067V375.467z" data-original="#000000" class="active-path" data-old_color="#ff5500" fill="#ff5500"></path> </g> </g><g> <g> <path d="M324.147,502.067l-17.067-102.4c-0.683-4.113-4.241-7.134-8.414-7.134h-85.333c-4.173,0-7.731,3.021-8.414,7.125 l-17.067,102.4c-0.41,2.475,0.282,5.001,1.903,6.921s4.002,3.021,6.511,3.021h119.467c2.509,0,4.89-1.101,6.502-3.012 C323.866,507.068,324.565,504.542,324.147,502.067z M206.345,494.933L220.57,409.6h70.878l14.217,85.333H206.345z" data-original="#000000" class="active-path" data-old_color="#ff5500" fill="#ff5500"></path> </g> </g><g> <g> <rect x="25.6" y="324.267" width="477.867" height="17.067" data-original="#000000" class="active-path" data-old_color="#ff5500" fill="#ff5500"></rect> </g> </g><g> <g> <path d="M341.333,494.933H170.667c-4.71,0-8.533,3.814-8.533,8.533c0,4.719,3.823,8.533,8.533,8.533h170.667 c4.719,0,8.533-3.814,8.533-8.533C349.867,498.748,346.052,494.933,341.333,494.933z" data-original="#000000" class="active-path" data-old_color="#ff5500" fill="#ff5500"></path> </g> </g><g> <g> <path d="M364.996,88.457c-1.621-1.98-4.036-3.123-6.596-3.123H159.172l-5.751-27.358c-0.836-3.951-4.318-6.775-8.354-6.775h-25.6 v17.067h18.671l32.708,155.358c0.836,3.951,4.318,6.776,8.354,6.776h153.6c4.07,0,7.569-2.867,8.363-6.861l25.6-128 C367.266,93.03,366.609,90.428,364.996,88.457z M325.811,213.333H186.129L162.773,102.4h185.225L325.811,213.333z" data-original="#000000" class="active-path" data-old_color="#ff5500" fill="#ff5500"></path> </g> </g><g> <g> <path d="M102.4,34.133c-14.114,0-25.6,11.486-25.6,25.6s11.486,25.6,25.6,25.6s25.6-11.486,25.6-25.6S116.514,34.133,102.4,34.133 z M102.4,68.267c-4.702,0-8.533-3.831-8.533-8.533S97.698,51.2,102.4,51.2c4.702,0,8.533,3.831,8.533,8.533 S107.102,68.267,102.4,68.267z" data-original="#000000" class="active-path" data-old_color="#ff5500" fill="#ff5500"></path> </g> </g><g> <g> <path d="M194.731,256l-7.159-35.814l-16.734,3.354l8.533,42.667c0.794,3.985,4.292,6.861,8.363,6.861h136.533V256H194.731z" data-original="#000000" class="active-path" data-old_color="#ff5500" fill="#ff5500"></path> </g> </g><g> <g> <path d="M324.267,256c-14.114,0-25.6,11.486-25.6,25.6s11.486,25.6,25.6,25.6s25.6-11.486,25.6-25.6S338.381,256,324.267,256z M324.267,290.133c-4.71,0-8.533-3.823-8.533-8.533s3.823-8.533,8.533-8.533s8.533,3.823,8.533,8.533 S328.977,290.133,324.267,290.133z" data-original="#000000" class="active-path" data-old_color="#ff5500" fill="#ff5500"></path> </g> </g><g> <g> <path d="M187.733,256c-14.114,0-25.6,11.486-25.6,25.6s11.486,25.6,25.6,25.6s25.6-11.486,25.6-25.6S201.847,256,187.733,256z M187.733,290.133c-4.702,0-8.533-3.823-8.533-8.533s3.831-8.533,8.533-8.533c4.702,0,8.533,3.823,8.533,8.533 S192.435,290.133,187.733,290.133z" data-original="#000000" class="active-path" data-old_color="#ff5500" fill="#ff5500"></path> </g> </g><g> <g> <rect x="247.467" y="102.4" width="17.067" height="119.467" data-original="#000000" class="active-path" data-old_color="#ff5500" fill="#ff5500"></rect> </g> </g><g> <g> <rect x="200.535" y="93.73" transform="matrix(0.9978 -0.0665 0.0665 0.9978 -10.0348 14.2524)" width="17.067" height="128.258" data-original="#000000" class="active-path" data-old_color="#ff5500" fill="#ff5500"></rect> </g> </g><g> <g> <rect x="238.808" y="149.355" transform="matrix(0.0664 -0.9978 0.9978 0.0664 125.2821 449.6722)" width="128.257" height="17.067" data-original="#000000" class="active-path" data-old_color="#ff5500" fill="#ff5500"></rect> </g> </g><g> <g> <path d="M384,204.8c-4.719,0-8.533,3.823-8.533,8.533v34.133h17.067v-25.6h25.6V204.8H384z" data-original="#000000" class="active-path" data-old_color="#ff5500" fill="#ff5500"></path> </g> </g><g> <g> <rect x="392.519" y="206.238" transform="matrix(0.7071 -0.7071 0.7071 0.7071 -45.4331 351.063)" width="17.067" height="48.273" data-original="#000000" class="active-path" data-old_color="#ff5500" fill="#ff5500"></rect> </g> </g><g> <g> <rect x="162.133" y="128" width="187.733" height="17.067" data-original="#000000" class="active-path" data-old_color="#ff5500" fill="#ff5500"></rect> </g> </g><g> <g> <rect x="170.667" y="170.667" width="170.667" height="17.067" data-original="#000000" class="active-path" data-old_color="#ff5500" fill="#ff5500"></rect> </g> </g></g> </svg> 