<svg width="25" height="25" viewBox="0 0 25 25" version="1.1" xmlns="http://www.w3.org/2000/svg" xmlns:xlink="http://www.w3.org/1999/xlink">
<title>mech</title>
<desc>Created using Figma</desc>
<g id="Canvas" transform="translate(-350 -1584)">
<g id="mech">
<g id="Settings">
<g id="Group">
<g id="Vector">
<use xlink:href="#path0_fill" transform="translate(350.253 1584.35)" fill="#465861"/>
</g>
</g>
</g>
</g>
</g>
<defs>
<path id="path0_fill" fill-rule="evenodd" d="M 23.9243 10.6675C 23.8864 10.3302 23.493 10.0767 23.1529 10.0767C 22.0532 10.0767 21.0773 9.43095 20.6681 8.43234C 20.25 7.40952 20.5196 6.21669 21.3392 5.46489C 21.5971 5.22906 21.6285 4.83428 21.4121 4.56004C 20.8493 3.84531 20.2095 3.19969 19.5111 2.64015C 19.2375 2.42066 18.8362 2.4512 18.5991 2.71382C 17.8838 3.50598 16.599 3.80039 15.6062 3.38614C 14.573 2.95153 13.9215 1.90461 13.9852 0.780799C 14.0062 0.427806 13.7482 0.120891 13.3963 0.0799036C 12.5 -0.0237706 11.5957 -0.0269853 10.6967 0.0727599C 10.3488 0.111158 10.0908 0.41084 10.1025 0.759368C 10.1416 1.8721 9.48224 2.90072 8.45934 3.3197C 7.47841 3.72038 6.20262 3.42847 5.48877 2.64336C 5.25285 2.38476 4.85807 2.35297 4.58321 2.56719C 3.86401 3.13146 3.2099 3.77762 2.64188 4.48646C 2.42034 4.76203 2.45293 5.16146 2.7135 5.39855C 3.5487 6.1549 3.81838 7.35809 3.38448 8.39269C 2.97023 9.37907 1.94599 10.0148 0.773424 10.0148C 0.392927 10.0025 0.12191 10.2579 0.0802971 10.6039C -0.0252525 11.5054 -0.0265026 12.424 0.0751178 13.3329C 0.112801 13.6717 0.518122 13.923 0.862007 13.923C 1.90696 13.8963 2.91022 14.5432 3.33108 15.5674C 3.7506 16.5902 3.48092 17.7823 2.6601 18.5347C 2.40337 18.7706 2.37078 19.1647 2.58714 19.439C 3.14472 20.1491 3.78453 20.7954 4.48552 21.3596C 4.76046 21.5811 5.16052 21.5499 5.39885 21.2872C 6.1168 20.4931 7.40152 20.1992 8.3904 20.6143C 9.42616 21.0476 10.0777 22.0944 10.0139 23.2188C 9.99311 23.572 10.2523 23.8794 10.6028 23.9198C 11.0614 23.9733 11.5227 24 11.9852 24C 12.4243 24 12.8635 23.9759 13.3026 23.927C 13.6506 23.8886 13.9084 23.589 13.8967 23.2398C 13.8564 22.1277 14.5169 21.0991 15.5385 20.6808C 16.526 20.2775 17.7965 20.5727 18.5104 21.357C 18.7477 21.615 19.1397 21.6462 19.416 21.4327C 20.1339 20.8698 20.7867 20.2241 21.3574 19.5133C 21.5788 19.2384 21.5476 18.8383 21.2857 18.6013C 20.4505 17.845 20.1794 16.6416 20.6133 15.6077C 21.0213 14.6345 22.0075 13.981 23.0682 13.981L 23.2166 13.9848C 23.5607 14.0128 23.8773 13.7478 23.919 13.3966C 24.0247 12.4942 24.0259 11.5764 23.9243 10.6675ZM 12.0187 16.0281C 9.81148 16.0281 8.01607 14.2327 8.01607 12.0254C 8.01607 9.81823 9.81148 8.02273 12.0187 8.02273C 14.2259 8.02273 16.0213 9.81823 16.0213 12.0254C 16.0213 14.2327 14.2259 16.0281 12.0187 16.0281Z"/>
</defs>
</svg>
