<svg width="37" height="37" viewBox="0 0 37 37" fill="none" xmlns="http://www.w3.org/2000/svg">
<path d="M8.58928 21.8035C8.58928 22.5333 7.99761 23.125 7.26785 23.125C6.5381 23.125 5.94643 22.5333 5.94643 21.8035C5.94643 21.0738 6.5381 20.4821 7.26785 20.4821C7.99761 20.4821 8.58928 21.0738 8.58928 21.8035Z" fill="#44545F"/>
<path d="M8.58928 15.1964C8.58928 15.9262 7.99761 16.5179 7.26785 16.5179C6.5381 16.5179 5.94643 15.9262 5.94643 15.1964C5.94643 14.4667 6.5381 13.875 7.26785 13.875C7.99761 13.875 8.58928 14.4667 8.58928 15.1964Z" fill="#44545F"/>
<path d="M15.8571 21.8035C15.8571 22.5333 15.2655 23.125 14.5357 23.125C13.806 23.125 13.2143 22.5333 13.2143 21.8035C13.2143 21.0738 13.806 20.4821 14.5357 20.4821C15.2655 20.4821 15.8571 21.0738 15.8571 21.8035Z" fill="#44545F"/>
<path d="M8.58928 28.4107C8.58928 29.1405 7.99761 29.7322 7.26785 29.7322C6.5381 29.7322 5.94643 29.1405 5.94643 28.4107C5.94643 27.681 6.5381 27.0893 7.26785 27.0893C7.99761 27.0893 8.58928 27.681 8.58928 28.4107Z" fill="#44545F"/>
<path d="M15.8571 28.4107C15.8571 29.1405 15.2655 29.7322 14.5357 29.7322C13.806 29.7322 13.2143 29.1405 13.2143 28.4107C13.2143 27.681 13.806 27.0893 14.5357 27.0893C15.2655 27.0893 15.8571 27.681 15.8571 28.4107Z" fill="#44545F"/>
<path d="M21.0767 27.1467C20.6831 27.9516 20.4799 28.8362 20.4822 29.7321V37H27.0893V28.0236L23.5954 24.5297C22.5043 25.1191 21.6239 26.034 21.0767 27.1467Z" fill="#44545F"/>
<path d="M24.5126 15.8571H25.4936L26.6215 14.7293C26.7702 14.577 26.9844 14.5076 27.1945 14.5444C27.4042 14.5783 27.5848 14.7109 27.68 14.9012L28.1584 15.8571H30.9874C30.6748 14.3173 29.3211 13.2111 27.75 13.2111C26.1789 13.2111 24.8252 14.3173 24.5126 15.8571Z" fill="#44545F"/>
<path d="M24.4464 17.8393C24.4464 19.6637 25.9256 21.1429 27.75 21.1429C29.5744 21.1429 31.0536 19.6637 31.0536 17.8393V17.1786H27.75C27.4984 17.1799 27.2677 17.0382 27.1554 16.813L26.9051 16.3117L26.2318 16.985C26.1085 17.1082 25.9421 17.1776 25.7679 17.1786H24.4464V17.8393Z" fill="#44545F"/>
<path d="M24.9255 23.9912L27.75 26.8157L30.5745 23.9912C30.0844 23.858 29.5792 23.7889 29.0714 23.7857H26.4286C25.9208 23.7889 25.4156 23.858 24.9255 23.9912Z" fill="#44545F"/>
<path d="M5.94643 3.96436V9.25007H23.125V3.96436H5.94643ZM12.5536 7.26793H11.2321V5.9465H12.5536V7.26793ZM15.1964 7.26793H13.875V5.9465H15.1964V7.26793ZM17.8393 7.26793H16.5179V5.9465H17.8393V7.26793Z" fill="#44545F"/>
<path d="M34.4233 27.1486C33.879 26.0343 32.9983 25.1191 31.9059 24.5322L28.4107 28.021V37H35.0178V29.7321C35.0214 28.8365 34.8178 27.9526 34.4233 27.1486ZM33.0357 29.7321H30.3928V28.4107H33.0357V29.7321Z" fill="#44545F"/>
<path d="M15.8571 15.1964C15.8571 15.9262 15.2655 16.5179 14.5357 16.5179C13.806 16.5179 13.2143 15.9262 13.2143 15.1964C13.2143 14.4667 13.806 13.875 14.5357 13.875C15.2655 13.875 15.8571 14.4667 15.8571 15.1964Z" fill="#44545F"/>
<path d="M23.125 17.8393V16.5179C23.1276 14.2208 24.8158 12.2739 27.0893 11.9458V1.98214C27.086 0.888803 26.2005 0.00322614 25.1071 0H3.96427C2.87093 0.00322614 1.98536 0.888803 1.98213 1.98214V31.0536C1.98536 32.1469 2.87093 33.0325 3.96427 33.0357H19.1607V29.7321C19.163 25.7191 22.4156 22.4665 26.4286 22.4643H27.75C25.1968 22.4614 23.1279 20.3925 23.125 17.8393ZM7.26785 31.0536C5.80834 31.0536 4.62499 29.8702 4.62499 28.4107C4.62499 26.9512 5.80834 25.7679 7.26785 25.7679C8.72735 25.7679 9.9107 26.9512 9.9107 28.4107C9.9107 29.8702 8.72735 31.0536 7.26785 31.0536ZM7.26785 24.4464C5.80834 24.4464 4.62499 23.2631 4.62499 21.8036C4.62499 20.3441 5.80834 19.1607 7.26785 19.1607C8.72735 19.1607 9.9107 20.3441 9.9107 21.8036C9.9107 23.2631 8.72735 24.4464 7.26785 24.4464ZM7.26785 17.8393C5.80834 17.8393 4.62499 16.6559 4.62499 15.1964C4.62499 13.7369 5.80834 12.5536 7.26785 12.5536C8.72735 12.5536 9.9107 13.7369 9.9107 15.1964C9.9107 16.6559 8.72735 17.8393 7.26785 17.8393ZM14.5357 31.0536C13.0762 31.0536 11.8928 29.8702 11.8928 28.4107C11.8928 26.9512 13.0762 25.7679 14.5357 25.7679C15.9952 25.7679 17.1786 26.9512 17.1786 28.4107C17.1786 29.8702 15.9952 31.0536 14.5357 31.0536ZM14.5357 24.4464C13.0762 24.4464 11.8928 23.2631 11.8928 21.8036C11.8928 20.3441 13.0762 19.1607 14.5357 19.1607C15.9952 19.1607 17.1786 20.3441 17.1786 21.8036C17.1786 23.2631 15.9952 24.4464 14.5357 24.4464ZM14.5357 17.8393C13.0762 17.8393 11.8928 16.6559 11.8928 15.1964C11.8928 13.7369 13.0762 12.5536 14.5357 12.5536C15.9952 12.5536 17.1786 13.7369 17.1786 15.1964C17.1786 16.6559 15.9952 17.8393 14.5357 17.8393ZM5.94642 10.5714C5.21763 10.5692 4.62725 9.97879 4.62499 9.25V3.96429C4.62725 3.2355 5.21763 2.64512 5.94642 2.64286H23.125C23.8538 2.64512 24.4442 3.2355 24.4464 3.96429V9.25C24.4442 9.97879 23.8538 10.5692 23.125 10.5714H5.94642ZM22.2197 20.5483C22.0855 20.5034 21.9449 20.4809 21.8036 20.4821C21.2551 20.4805 20.7628 20.818 20.566 21.33C20.3695 21.842 20.5096 22.422 20.9183 22.7882L20.0327 23.766C19.2207 23.0334 18.9439 21.8758 19.3362 20.8551C19.7288 19.834 20.7099 19.1604 21.8036 19.1607C22.0862 19.1617 22.3672 19.2062 22.6359 19.293L22.2197 20.5483ZM21.8036 13.875C21.0738 13.875 20.4821 14.4667 20.4821 15.1964C20.4821 15.9262 21.0738 16.5179 21.8036 16.5179V17.8393C20.6215 17.8396 19.583 17.0553 19.2604 15.9184C18.9375 14.7815 19.4088 13.5682 20.4144 12.9475C21.4203 12.3268 22.7159 12.449 23.5876 13.2472L22.6956 14.2186C22.4504 13.9986 22.1329 13.8763 21.8036 13.875Z" fill="#44545F"/>
</svg>
