<svg width="37" height="37" viewBox="0 0 37 37" fill="none" xmlns="http://www.w3.org/2000/svg">
<g clip-path="url(#clip0)">
<path d="M8.96806 17.2111L2.89127 23.535V34.2053C2.89127 34.5057 3.13474 34.7495 3.43555 34.7495H10.8139C11.1144 34.7495 11.3582 34.5057 11.3582 34.2053V17.8374L9.65641 17.2111H8.96806Z" fill="#44545F"/>
<path d="M23.9977 22.1707H16.6193C16.3189 22.1707 16.075 22.4145 16.075 22.715V34.2053C16.075 34.5057 16.3189 34.7495 16.6193 34.7495H23.9977C24.2985 34.7495 24.542 34.5057 24.542 34.2053V22.715C24.542 22.4145 24.2985 22.1707 23.9977 22.1707Z" fill="#44545F"/>
<path d="M36.9115 10.7007C36.6295 10.848 36.312 10.926 35.9934 10.926C35.5304 10.926 35.0787 10.7627 34.7234 10.4652L33.383 9.34467L28.5334 14.6351V34.2056C28.5334 34.506 28.7773 34.7499 29.0777 34.7499H36.4561C36.7569 34.7499 37.0004 34.506 37.0004 34.2056V10.6452C36.9699 10.6633 36.9427 10.6843 36.9115 10.7007Z" fill="#44545F"/>
<path d="M20.9722 19.6285C21.3873 19.7805 21.8517 19.6677 22.1507 19.3425L33.3409 7.13487L35.9597 9.32364C36.0878 9.43032 36.267 9.45028 36.4147 9.37299C36.5624 9.29534 36.6491 9.13786 36.6342 8.9713L36.0667 2.62526C36.0468 2.39848 35.8468 2.2312 35.6201 2.25188L29.2737 2.81903C29.1075 2.83391 28.9667 2.94748 28.9173 3.10605C28.9003 3.15903 28.8948 3.21273 28.8995 3.26571C28.909 3.37239 28.9601 3.47326 29.0458 3.54475L31.6689 5.73751L21.0386 17.3334L8.90275 12.868C8.49707 12.7193 8.04169 12.8241 7.74233 13.1347L0.303718 20.8756C-0.112844 21.3092 -0.0990554 21.9987 0.334198 22.4149C0.545745 22.6184 0.817526 22.7186 1.08858 22.7186C1.37451 22.7186 1.65972 22.6065 1.87381 22.3844L8.81929 15.1562L20.9722 19.6285Z" fill="#44545F"/>
</g>
<defs>
<clipPath id="clip0">
<rect width="37" height="37" fill="white"/>
</clipPath>
</defs>
</svg>
