<svg width="37" height="37" viewBox="0 0 37 37" fill="none" xmlns="http://www.w3.org/2000/svg">
<path d="M27.4315 22.1224V21.2023C26.6391 21.5132 25.7807 21.6898 24.8799 21.6898C23.9791 21.6898 23.1207 21.5132 22.3283 21.2023V22.1224L24.8799 25.6804L27.4315 22.1224Z" fill="#44545F"/>
<path d="M22.3283 27.4302C22.9827 27.4302 23.5957 27.1807 24.0667 26.735L21.4462 23.0811L20.1913 23.4994C19.9241 23.9115 19.7767 24.3824 19.7767 24.8786C19.7767 26.2858 20.9211 27.4302 22.3283 27.4302Z" fill="#44545F"/>
<path d="M29.9831 24.8787C29.9831 24.3825 29.8358 23.9109 29.5685 23.4988L28.3136 23.0805L25.6932 26.7344C26.1635 27.1802 26.7765 27.4296 27.4315 27.4296C28.8388 27.4303 29.9831 26.2859 29.9831 24.8787Z" fill="#44545F"/>
<path d="M16.5872 10.8614C16.9597 10.5795 17.389 10.3683 17.863 10.2721V8.29392H19.1388V9.56972H20.2601C21.8352 9.56972 23.315 8.95674 24.4289 7.84291L24.8799 7.39127L25.3309 7.84228C26.4447 8.95611 27.9245 9.56909 29.4997 9.56909H30.621V8.2933H31.8968V10.2715C32.3708 10.3683 32.8 10.5789 33.1726 10.8608V8.29267C33.1726 3.72024 29.4523 0 24.8799 0C20.3075 0 16.5872 3.72024 16.5872 8.29267V10.8614Z" fill="#44545F"/>
<path d="M31.8968 11.6009V14.6729C31.8968 14.8517 31.8834 15.0264 31.87 15.2018C32.6247 14.9448 33.1726 14.2372 33.1726 13.3965C33.1726 12.5661 32.6375 11.865 31.8968 11.6009Z" fill="#44545F"/>
<path d="M28.7073 20.5461V21.8676L30.0762 22.3246C32.8206 22.3068 34.805 21.5284 35.8282 21.0055C34.2954 19.7518 33.3386 17.8963 33.2006 15.9091C32.7555 16.2543 32.2216 16.4782 31.6345 16.5483C31.1723 18.2094 30.117 19.6244 28.7073 20.5461Z" fill="#44545F"/>
<path d="M16.5872 13.3965C16.5872 14.2365 17.1351 14.9448 17.8898 15.2011C17.8764 15.0264 17.863 14.8507 17.863 14.6723V11.6002C17.1223 11.8649 16.5872 12.5661 16.5872 13.3965Z" fill="#44545F"/>
<path d="M24.8799 20.4134C28.0457 20.4134 30.621 17.8381 30.621 14.6723V10.8449H29.4997C27.7894 10.8449 26.171 10.2503 24.8799 9.15891C23.5888 10.2503 21.9698 10.8449 20.2601 10.8449H19.1388V14.6723C19.1388 17.8381 21.7141 20.4134 24.8799 20.4134ZM28.0694 12.1207C28.4217 12.1207 28.7073 12.4066 28.7073 12.7586C28.7073 13.1109 28.4217 13.3965 28.0694 13.3965C27.7174 13.3965 27.4315 13.1109 27.4315 12.7586C27.4315 12.4066 27.7174 12.1207 28.0694 12.1207ZM24.8799 17.2239C25.5835 17.2239 26.1557 16.6517 26.1557 15.9481H27.4315C27.4315 17.3553 26.2871 18.4997 24.8799 18.4997C23.4727 18.4997 22.3283 17.3553 22.3283 15.9481H23.6041C23.6041 16.6517 24.1763 17.2239 24.8799 17.2239ZM21.6904 12.1207C22.0427 12.1207 22.3283 12.4066 22.3283 12.7586C22.3283 13.1109 22.0427 13.3965 21.6904 13.3965C21.3384 13.3965 21.0525 13.1109 21.0525 12.7586C21.0525 12.4066 21.3384 12.1207 21.6904 12.1207Z" fill="#44545F"/>
<path d="M13.9316 21.0049C14.9536 21.5278 16.938 22.3059 19.6836 22.324L21.0525 21.8676V20.5461C19.6428 19.6244 18.5878 18.2094 18.1253 16.5483C17.5385 16.4782 17.0043 16.2536 16.5592 15.9091C16.4209 17.8957 15.4641 19.7512 13.9316 21.0049Z" fill="#44545F"/>
<path d="M14.5371 24.0398L16.7389 23.3057C14.0005 22.755 12.4608 21.6247 12.3771 21.5615L11.618 20.9927L12.4312 20.504C12.7776 20.2959 13.0891 20.0464 13.3812 19.7773L12.0665 18.4632L10.7032 19.2721L10.3964 19.1254C10.1986 19.0317 9.99646 18.9469 9.78839 18.8734L9.46695 18.7594L9.07543 17.2239H6.23853L5.84701 18.7594L5.52557 18.8734C5.3175 18.9463 5.11473 19.031 4.91757 19.1254L4.61077 19.2721L3.24745 18.4632L1.24187 20.4688L2.05077 21.8321L1.90406 22.1389C1.81031 22.3367 1.72559 22.5389 1.65208 22.7469L1.53808 23.0684L0.00189209 23.4605V26.2974L1.53746 26.6889L1.65146 27.0104C1.72434 27.2184 1.80906 27.4212 1.90344 27.6184L2.05014 27.9252L1.24125 29.2885L3.24682 31.2941L4.61014 30.4852L4.91695 30.6319C5.11473 30.7256 5.31688 30.8103 5.52494 30.8839L5.84638 30.9982L6.23791 32.5334H9.07481L9.46633 30.9982L9.78777 30.8839C9.99584 30.811 10.1986 30.7262 10.3958 30.6319L10.7026 30.4852L11.4841 30.9483V28.275C11.4841 28.2628 11.4865 28.2513 11.4865 28.2398C10.5509 29.305 9.18258 29.9818 7.65667 29.9818C4.84282 29.9818 2.55348 27.6925 2.55348 24.8786C2.55348 22.0648 4.84282 19.7755 7.65667 19.7755C10.4705 19.7755 12.7599 22.0648 12.7599 24.8786C12.7599 24.9761 12.7508 25.0714 12.7452 25.1671C13.2327 24.665 13.8404 24.2719 14.5371 24.0398Z" fill="#44545F"/>
<path d="M11.4841 24.8787C11.4841 26.9926 9.77065 28.706 7.65668 28.706C5.54301 28.706 3.82928 26.9926 3.82928 24.8787C3.82928 22.765 5.54301 21.0513 7.65668 21.0513C9.77065 21.0513 11.4841 22.765 11.4841 24.8787Z" fill="#44545F"/>
<path d="M34.819 25.2493L31.1524 24.027C31.2156 24.3046 31.2589 24.5877 31.2589 24.8786C31.2589 26.9895 29.5424 28.706 27.4315 28.706C26.4728 28.706 25.5764 28.3481 24.8799 27.7133C24.1835 28.3481 23.287 28.706 22.3283 28.706C20.2175 28.706 18.5009 26.9895 18.5009 24.8786C18.5009 24.5877 18.5442 24.3046 18.6075 24.027L14.9408 25.2493C13.6363 25.6844 12.7599 26.9001 12.7599 28.2755V36.9993H16.5872V35.9767C15.774 35.0666 15.3114 33.8665 15.3114 32.643V32.4237C15.3114 31.2003 15.774 30.0002 16.5872 29.09V27.4296H17.863V29.6074L17.6762 29.7943C16.9841 30.487 16.5872 31.4451 16.5872 32.4237V32.643C16.5872 33.6217 16.9841 34.5798 17.6762 35.2719L17.863 35.4587V36.9987H31.8968V35.4587L32.0837 35.2719C32.7758 34.5798 33.1726 33.6217 33.1726 32.643V32.4237C33.1726 31.4451 32.7758 30.487 32.0837 29.7949L31.8968 29.608V27.4302H33.1726V29.0907C33.9858 30.0008 34.4484 31.2009 34.4484 32.4244V32.6436C34.4484 33.8671 33.9858 35.0672 33.1726 35.9773V36.9999H37V28.2755C37 26.9001 36.1235 25.6844 34.819 25.2493Z" fill="#44545F"/>
<path d="M0.640217 8.93137H4.68003L8.93289 12.1209V8.93137H15.3119V8.29347C15.3119 6.56292 15.7806 4.94263 16.5877 3.53976V0.638691C16.5877 0.286726 16.302 0.000793457 15.9498 0.000793457H0.640217C0.288252 0.000793457 0.00231934 0.286726 0.00231934 0.638691V8.29347C0.00231934 8.64574 0.288252 8.93137 0.640217 8.93137ZM5.7434 7.65557H4.46761V6.37977H5.7434V7.65557ZM9.57079 7.65557H8.29499V6.37977H9.57079V7.65557ZM13.3982 7.65557H12.1224V6.37977H13.3982V7.65557ZM1.27812 1.27659H14.0361V2.55239H1.27812V1.27659ZM1.27812 3.82818H14.0361V5.10398H1.27812V3.82818Z" fill="#44545F"/>
</svg>
