<svg width="37" height="37" viewBox="0 0 37 37" fill="none" xmlns="http://www.w3.org/2000/svg">
<g clip-path="url(#clip0)">
<path d="M32.727 30.242V24.5365C32.727 23.3106 31.7332 22.3167 30.5073 22.3167H29.927V1.48711C29.927 1.30078 29.8335 1.1269 29.6781 1.02418L28.2692 0.092896C27.9002 -0.150929 27.4083 0.113573 27.4083 0.555819V7.24556L26.9884 6.11295C26.4237 4.58967 24.9708 3.5787 23.3462 3.5787H13.6454C12.0112 3.5787 10.5518 4.60139 9.99411 6.13744L9.59177 7.24556V0.555819C9.59177 0.113633 9.09982 -0.150929 8.73085 0.092896L7.32183 1.02412C7.16639 1.12684 7.07286 1.30072 7.07286 1.48705V22.3167H6.49265C5.26676 22.3167 4.27296 23.3105 4.27296 24.5365V30.242H3.32728C3.02082 30.242 2.7724 30.4904 2.7724 30.7969V33.8647C2.7724 34.1712 3.02082 34.4197 3.32728 34.4197H5.72128V35.8901C5.72128 36.5031 6.21818 36.9999 6.83116 36.9999H9.77211C10.3851 36.9999 10.882 36.503 10.882 35.8901V34.4197H26.1181V35.8901C26.1181 36.5031 26.6151 36.9999 27.228 36.9999H30.169C30.7819 36.9999 31.2788 36.503 31.2788 35.8901V34.4197H33.6728C33.9793 34.4197 34.2277 34.1712 34.2277 33.8647V30.797C34.2277 30.4905 33.9793 30.242 33.6728 30.242L32.727 30.242ZM10.327 10.3367H26.673V15.8045H10.327V10.3367ZM9.94689 28.6891H8.05113C7.47188 28.6891 7.00231 28.2194 7.00231 27.6402V27.6137C7.00231 27.0345 7.47188 26.5649 8.05113 26.5649H9.94683C10.5261 26.5649 10.9957 27.0345 10.9957 27.6137V27.6402C10.9957 28.2194 10.5261 28.6891 9.94689 28.6891ZM22.2724 28.9983H14.7276C14.1146 28.9983 13.6177 28.5013 13.6177 27.8885V20.8564C13.6177 20.2435 14.1146 19.7465 14.7276 19.7465H22.2724C22.8853 19.7465 23.3822 20.2435 23.3822 20.8564V27.8884C23.3823 28.5013 22.8853 28.9983 22.2724 28.9983ZM28.9488 28.6891H27.0531C26.4739 28.6891 26.0043 28.2194 26.0043 27.6402V27.6137C26.0043 27.0345 26.4739 26.5649 27.0531 26.5649H28.9488C29.5281 26.5649 29.9977 27.0345 29.9977 27.6137V27.6402C29.9977 28.2194 29.5281 28.6891 28.9488 28.6891ZM22.1037 23.8082H14.8785C14.5751 23.8082 14.3292 23.5623 14.3292 23.2588V23.2476C14.3292 22.9442 14.5751 22.6983 14.8785 22.6983H22.1037C22.4071 22.6983 22.6531 22.9442 22.6531 23.2476V23.2588C22.6531 23.5623 22.4071 23.8082 22.1037 23.8082ZM22.1037 21.5884H14.8785C14.5751 21.5884 14.3292 21.3425 14.3292 21.0391V21.0279C14.3292 20.7246 14.5751 20.4786 14.8785 20.4786H22.1037C22.4071 20.4786 22.6531 20.7246 22.6531 21.0279V21.0391C22.6531 21.3425 22.4071 21.5884 22.1037 21.5884ZM22.1037 28.2477H14.8785C14.5751 28.2477 14.3292 28.0017 14.3292 27.6983V27.6872C14.3292 27.3837 14.5751 27.1378 14.8785 27.1378H22.1037C22.4071 27.1378 22.6531 27.3837 22.6531 27.6872V27.6983C22.6531 28.0017 22.4071 28.2477 22.1037 28.2477ZM22.1037 26.0279H14.8785C14.5751 26.0279 14.3292 25.782 14.3292 25.4786V25.4675C14.3292 25.164 14.5751 24.9181 14.8785 24.9181H22.1037C22.4071 24.9181 22.6531 25.164 22.6531 25.4675V25.4786C22.6531 25.782 22.4071 26.0279 22.1037 26.0279Z" fill="#44545F"/>
</g>
<defs>
<clipPath id="clip0">
<rect width="37" height="37" fill="white"/>
</clipPath>
</defs>
</svg>
