<svg width="37" height="37" viewBox="0 0 37 37" fill="none" xmlns="http://www.w3.org/2000/svg">
<g clip-path="url(#clip0)">
<path d="M8.2931 6.37931V7.65518H9.56897V6.37931C9.56897 6.02702 9.8546 5.74138 10.2069 5.74138H12.7586C13.8155 5.74138 14.6724 4.88447 14.6724 3.82759V2.55173H13.3966V3.82759C13.3966 4.17988 13.1109 4.46552 12.7586 4.46552H10.2069C9.15001 4.46552 8.2931 5.32243 8.2931 6.37931Z" fill="#44545F"/>
<path d="M6.37931 3.82759C6.37931 3.47529 6.66495 3.18966 7.01724 3.18966H9.56897C10.6259 3.18966 11.4828 2.33275 11.4828 1.27586V0H10.2069V1.27586C10.2069 1.62816 9.92126 1.91379 9.56897 1.91379H7.01724C5.96036 1.91379 5.10345 2.7707 5.10345 3.82759V5.10345H6.37931V3.82759Z" fill="#44545F"/>
<path d="M16.5862 12.1207V13.3965H17.8621V12.1207C17.8621 11.7684 18.1477 11.4827 18.5 11.4827H21.0517C22.1086 11.4827 22.9655 10.6258 22.9655 9.56895V8.29309H21.6897V9.56895C21.6897 9.92125 21.404 10.2069 21.0517 10.2069H18.5C17.4431 10.2069 16.5862 11.0638 16.5862 12.1207Z" fill="#44545F"/>
<path d="M13.3966 9.56895V10.8448H14.6724V9.56895C14.6724 9.21666 14.958 8.93102 15.3103 8.93102H17.8621C18.919 8.93102 19.7759 8.07411 19.7759 7.01723V5.74136H18.5V7.01723C18.5 7.36952 18.2144 7.65516 17.8621 7.65516H15.3103C14.2535 7.65516 13.3966 8.51207 13.3966 9.56895Z" fill="#44545F"/>
<path d="M21.0517 28.069H22.3276V30.6207H21.0517V28.069Z" fill="#44545F"/>
<path d="M26.7931 28.069H28.069V30.6207H26.7931V28.069Z" fill="#44545F"/>
<path d="M19.1379 20.4138V15.9483H12.1263L14.6668 35.0021C14.6705 35.0298 14.6724 35.0582 14.6724 35.0862V37H17.2241V21.0517C17.2241 20.6994 17.5098 20.4138 17.8621 20.4138H19.1379Z" fill="#44545F"/>
<path d="M10.8448 10.2069H3.18965V15.9483C3.18965 15.9763 3.18779 16.0047 3.18405 16.0324L0.63793 35.1283V37H13.3966V35.1283L10.8504 16.0324C10.8467 16.0047 10.8448 15.9763 10.8448 15.9483V10.2069Z" fill="#44545F"/>
<path d="M36.3621 25.5172H30.6207C30.3463 25.5169 30.1027 25.3412 30.0158 25.0808L28.8848 21.6896H26.1552V24.8793C26.1552 25.2316 25.8695 25.5172 25.5172 25.5172H22.9655C22.6911 25.5169 22.4475 25.3412 22.3606 25.0808L21.2296 21.6896H18.5V37H36.3621V25.5172ZM23.6034 31.2586C23.6034 31.6109 23.3178 31.8965 22.9655 31.8965H20.4138C20.0615 31.8965 19.7759 31.6109 19.7759 31.2586V27.431C19.7759 27.0787 20.0615 26.7931 20.4138 26.7931H22.9655C23.3178 26.7931 23.6034 27.0787 23.6034 27.431V31.2586ZM29.3448 31.2586C29.3448 31.6109 29.0592 31.8965 28.7069 31.8965H26.1552C25.8029 31.8965 25.5172 31.6109 25.5172 31.2586V27.431C25.5172 27.0787 25.8029 26.7931 26.1552 26.7931H28.7069C29.0592 26.7931 29.3448 27.0787 29.3448 27.431V31.2586ZM35.0862 31.2586C35.0862 31.6109 34.8006 31.8965 34.4483 31.8965H31.8966C31.5443 31.8965 31.2586 31.6109 31.2586 31.2586V27.431C31.2586 27.0787 31.5443 26.7931 31.8966 26.7931H34.4483C34.8006 26.7931 35.0862 27.0787 35.0862 27.431V31.2586Z" fill="#44545F"/>
<path d="M32.5345 28.069H33.8103V30.6207H32.5345V28.069Z" fill="#44545F"/>
<path d="M21.6897 5.74136H22.9655V7.01723H21.6897V5.74136Z" fill="#44545F"/>
</g>
<defs>
<clipPath id="clip0">
<rect width="37" height="37" fill="white"/>
</clipPath>
</defs>
</svg>
