<svg width="38" height="37" viewBox="0 0 38 37" fill="none" xmlns="http://www.w3.org/2000/svg">
<g clip-path="url(#clip0)">
<path d="M19 19.8214C21.2484 19.8214 23.0714 18.0464 23.0714 15.8571C23.0714 13.6679 21.2484 11.8929 19 11.8929C16.7516 11.8929 14.9286 13.6679 14.9286 15.8571C14.9309 18.0458 16.7522 19.8192 19 19.8214ZM16.8815 14.8422L18.3214 16.2443L20.721 13.9079L21.6805 14.8422L18.3214 18.1129L15.9219 15.7765L16.8815 14.8422Z" fill="#44545F"/>
<path d="M15.6071 2.64283H11.5357C11.161 2.64283 10.8571 2.93867 10.8571 3.30354V6.60712H27.1429V3.30354C27.1429 2.93867 26.839 2.64283 26.4643 2.64283H22.3929C22.0181 2.64283 21.7143 2.34699 21.7143 1.98212C21.7153 1.45625 21.5012 0.951363 21.1192 0.579388C20.7372 0.207414 20.2187 -0.000995009 19.6786 -2.71616e-05H18.3214C17.1972 -2.71616e-05 16.2857 0.887485 16.2857 1.98212C16.2857 2.34699 15.9819 2.64283 15.6071 2.64283ZM19 1.98212C20.1242 1.98212 21.0357 2.86963 21.0357 3.96426C21.0357 5.05889 20.1242 5.9464 19 5.9464C17.8758 5.9464 16.9643 5.05889 16.9643 3.96426C16.9643 2.86963 17.8758 1.98212 19 1.98212Z" fill="#44545F"/>
<path d="M19.6786 3.9643C19.6786 4.32918 19.3747 4.62502 19 4.62502C18.6252 4.62502 18.3214 4.32918 18.3214 3.9643C18.3214 3.59943 18.6252 3.30359 19 3.30359C19.3747 3.30359 19.6786 3.59943 19.6786 3.9643Z" fill="#44545F"/>
<path d="M4.07144 37H33.9286V3.96429H28.5V5.28572H31.8929C32.2676 5.28572 32.5714 5.58156 32.5714 5.94644V35.0179C32.5714 35.3827 32.2676 35.6786 31.8929 35.6786H6.10716C5.73242 35.6786 5.42858 35.3827 5.42858 35.0179V5.94644C5.42858 5.58156 5.73242 5.28572 6.10716 5.28572H9.50001V3.96429H4.07144V37Z" fill="#44545F"/>
<path d="M9.50002 7.26783V6.60712H6.78574V34.3571H31.2143V6.60712H28.5V7.26783C28.5 7.63271 28.1962 7.92855 27.8215 7.92855H10.1786C9.80385 7.92855 9.50002 7.63271 9.50002 7.26783ZM12.8929 30.3928H10.1786C9.80385 30.3928 9.50002 30.097 9.50002 29.7321C9.50002 29.3672 9.80385 29.0714 10.1786 29.0714H12.8929C13.2676 29.0714 13.5715 29.3672 13.5715 29.7321C13.5715 30.097 13.2676 30.3928 12.8929 30.3928ZM12.8929 27.75H10.1786C9.80385 27.75 9.50002 27.4541 9.50002 27.0893C9.50002 26.7244 9.80385 26.4285 10.1786 26.4285H12.8929C13.2676 26.4285 13.5715 26.7244 13.5715 27.0893C13.5715 27.4541 13.2676 27.75 12.8929 27.75ZM27.8215 30.3928H15.6072C15.2324 30.3928 14.9286 30.097 14.9286 29.7321C14.9286 29.3672 15.2324 29.0714 15.6072 29.0714H27.8215C28.1962 29.0714 28.5 29.3672 28.5 29.7321C28.5 30.097 28.1962 30.3928 27.8215 30.3928ZM27.8215 27.75H15.6072C15.2324 27.75 14.9286 27.4541 14.9286 27.0893C14.9286 26.7244 15.2324 26.4285 15.6072 26.4285H27.8215C28.1962 26.4285 28.5 26.7244 28.5 27.0893C28.5 27.4541 28.1962 27.75 27.8215 27.75ZM28.5 24.4464C28.5 24.8113 28.1962 25.1071 27.8215 25.1071H15.6072C15.2324 25.1071 14.9286 24.8113 14.9286 24.4464C14.9286 24.0815 15.2324 23.7857 15.6072 23.7857H27.8215C28.1962 23.7857 28.5 24.0815 28.5 24.4464ZM19 10.5714C21.9983 10.5714 24.4286 12.9378 24.4286 15.8571C24.4286 18.7765 21.9983 21.1428 19 21.1428C16.0018 21.1428 13.5715 18.7765 13.5715 15.8571C13.5748 12.9394 16.0034 10.5746 19 10.5714ZM13.5715 24.4464C13.5715 24.8113 13.2676 25.1071 12.8929 25.1071H10.1786C9.80385 25.1071 9.50002 24.8113 9.50002 24.4464C9.50002 24.0815 9.80385 23.7857 10.1786 23.7857H12.8929C13.2676 23.7857 13.5715 24.0815 13.5715 24.4464Z" fill="#44545F"/>
</g>
<defs>
<clipPath id="clip0">
<rect width="38" height="37" fill="white"/>
</clipPath>
</defs>
</svg>
