<svg width="37" height="37" viewBox="0 0 37 37" fill="none" xmlns="http://www.w3.org/2000/svg">
<path d="M23.6931 15.7108C23.6486 15.3411 23.5081 15.0039 23.2921 14.7224L24.7748 5.52086C24.83 5.17849 24.6103 4.85208 24.2725 4.77403L24.2559 4.77028C23.9181 4.69223 23.5776 4.88944 23.4771 5.22129L20.7761 14.1414C20.1105 14.4761 19.6484 15.1583 19.6484 15.9529C19.6484 17.0749 20.5608 17.9878 21.6827 17.9878C21.8917 17.9878 22.0894 17.947 22.2793 17.8882L27.9221 20.8206C28.2325 20.9819 28.6147 20.8812 28.8052 20.5877L28.8137 20.5746C29.0043 20.2813 28.9409 19.8911 28.6671 19.6732L23.6931 15.7108ZM20.6779 15.9529C20.6779 15.399 21.1288 14.9481 21.6827 14.9481C22.2372 14.9481 22.6881 15.399 22.6881 15.9529C22.6881 16.5073 22.2372 16.9583 21.6827 16.9583C21.1288 16.9583 20.6779 16.5074 20.6779 15.9529ZM37 15.9529C37 22.764 32.5304 28.5482 26.371 30.5334L26.3707 28.3523C31.3739 26.4542 34.941 21.6133 34.941 15.9529C34.941 8.6424 28.9932 2.69465 21.6827 2.69465C14.3722 2.69465 8.42445 8.6424 8.42445 15.9529C8.42445 16.6863 8.48697 17.4051 8.60208 18.1064H6.51986C6.42035 17.4023 6.36545 16.684 6.36545 15.9529C6.36545 7.50683 13.2366 0.635651 21.6827 0.635651C30.1288 0.635651 37 7.50683 37 15.9529ZM24.3529 26.8672L19.6378 22.2036C19.3393 21.905 18.9326 21.7402 18.5157 21.7402H16.1375V20.8497C16.1375 20.1857 15.5971 19.6504 14.933 19.6504H1.19954C0.535533 19.6504 0.000181373 20.1857 0.000181373 20.8497V28.8797H24.8265V28.0047C24.8265 27.5776 24.6566 27.1657 24.3529 26.8672ZM22.299 27.0217H17.7332C17.6303 27.0217 17.5479 26.9393 17.5479 26.8363V23.3103C17.5479 23.2073 17.6302 23.1249 17.7332 23.1249H18.6031C18.6495 23.1249 18.701 23.1456 18.737 23.1765L22.4277 26.7026C22.5513 26.8156 22.4689 27.0217 22.299 27.0217ZM24.827 29.5432V32.1997C24.827 32.8624 24.2898 33.3997 23.627 33.3997H22.3431C22.1111 31.8077 20.7392 30.5838 19.0833 30.5838C17.4313 30.5838 16.0594 31.8077 15.8274 33.3997H9.31959C9.08761 31.8077 7.71565 30.5838 6.06371 30.5838C4.41177 30.5838 3.0398 31.8077 2.80783 33.3997H1.19996C0.537225 33.3996 0 32.8624 0 32.1998V29.5432H24.827ZM19.087 31.3866C17.7127 31.3866 16.5956 32.4985 16.5956 33.8728C16.5956 35.2473 17.7127 36.3644 19.087 36.3644C20.4614 36.3644 21.5732 35.2473 21.5732 33.8728C21.5732 32.4985 20.4614 31.3866 19.087 31.3866ZM19.087 35.1186C18.3973 35.1186 17.8413 34.5627 17.8413 33.8729C17.8413 33.1883 18.3972 32.6272 19.087 32.6272C19.7716 32.6272 20.3276 33.1882 20.3276 33.8729C20.3276 34.5627 19.7716 35.1186 19.087 35.1186ZM6.06389 31.3866C4.68957 31.3866 3.57249 32.4985 3.57249 33.8728C3.57249 35.2473 4.68957 36.3644 6.06389 36.3644C7.43827 36.3644 8.55014 35.2473 8.55014 33.8728C8.55014 32.4985 7.43827 31.3866 6.06389 31.3866ZM6.06389 35.1186C5.37413 35.1186 4.81822 34.5627 4.81822 33.8729C4.81822 33.1883 5.37413 32.6272 6.06389 32.6272C6.74851 32.6272 7.30956 33.1882 7.30956 33.8729C7.30956 34.5627 6.74851 35.1186 6.06389 35.1186Z" fill="#44545F"/>
</svg>
