<svg width="37" height="37" viewBox="0 0 37 37" fill="none" xmlns="http://www.w3.org/2000/svg">
<path d="M5.7517 7.70808C6.16107 8.0204 6.74584 7.94179 7.05829 7.53268C9.80787 3.93022 13.9782 1.86433 18.5 1.86433C23.0219 1.86433 27.1921 3.93035 29.9417 7.53268C30.1252 7.77299 30.4027 7.89919 30.6835 7.89919C30.8806 7.89919 31.0795 7.8369 31.2483 7.70808C31.6574 7.39564 31.7359 6.81074 31.4237 6.4015C28.3183 2.33324 23.6079 0 18.5 0C13.3921 0 8.68168 2.33324 5.57642 6.4015C5.2641 6.81074 5.34258 7.39564 5.7517 7.70808Z" fill="#44545F"/>
<path d="M28.4086 12.6804C28.4086 14.2856 29.7147 15.5917 31.3199 15.5917C32.9251 15.5917 34.2312 14.2856 34.2312 12.6804C34.2312 11.0752 32.9251 9.7691 31.3199 9.7691C29.7147 9.7691 28.4086 11.0751 28.4086 12.6804Z" fill="#44545F"/>
<path d="M34.2994 16.5578C34.2926 16.5555 33.5591 16.3304 33.5591 16.3304C33.2935 16.2493 33.005 16.2993 32.7826 16.4657L31.3199 17.5609L29.8572 16.4657C29.6347 16.2992 29.3461 16.2492 29.0807 16.3304C29.0807 16.3304 28.3472 16.5555 28.3405 16.5578C27.1602 16.9513 26.3673 18.0515 26.3673 19.2955V23.6968C26.3673 23.8666 26.4169 24.0327 26.5103 24.1744L27.9863 26.4207V32.3198C27.9863 32.8003 28.3757 33.1897 28.8562 33.1897H33.7837C34.2642 33.1897 34.6537 32.8003 34.6537 32.3198V26.4207L36.1297 24.1744C36.223 24.0325 36.2727 23.8665 36.2727 23.6968V19.2955C36.2727 18.0515 35.4796 16.9513 34.2994 16.5578Z" fill="#44545F"/>
<path d="M5.68006 15.5917C7.28526 15.5917 8.59135 14.2856 8.59135 12.6804C8.59135 11.0752 7.28526 9.7691 5.68006 9.7691C4.07486 9.7691 2.76865 11.0751 2.76865 12.6804C2.76865 14.2857 4.07473 15.5917 5.68006 15.5917Z" fill="#44545F"/>
<path d="M8.65949 16.5578C8.65277 16.5555 7.91924 16.3304 7.91924 16.3304C7.65352 16.2493 7.36524 16.2993 7.14274 16.4657L5.68006 17.5609L4.21738 16.4657C3.995 16.2992 3.70623 16.2492 3.44087 16.3304C3.44087 16.3304 2.70735 16.5555 2.70063 16.5578C1.52036 16.9513 0.727417 18.0515 0.727417 19.2955V23.6968C0.727417 23.8666 0.776999 24.0327 0.870434 24.1744L2.34645 26.4207V32.3198C2.34645 32.8003 2.73588 33.1897 3.21638 33.1897H8.14374C8.62424 33.1897 9.01367 32.8003 9.01367 32.3198V26.4207L10.4897 24.1744C10.583 24.0325 10.6327 23.8665 10.6327 23.6968V19.2955C10.6327 18.0515 9.83963 16.9513 8.65949 16.5578Z" fill="#44545F"/>
<path d="M22.2551 8.57739C22.2551 6.50689 20.5705 4.82233 18.5 4.82233C16.4295 4.82233 14.7449 6.50689 14.7449 8.57739C14.7449 10.648 16.4295 12.3325 18.5 12.3325C20.5705 12.3325 22.2551 10.648 22.2551 8.57739Z" fill="#44545F"/>
<path d="M22.6244 14.1523L22.6182 14.1503L21.5465 13.8214C21.3774 13.7695 21.1968 13.8589 21.136 14.0257L18.8823 20.2092C18.7523 20.5659 18.2479 20.5659 18.1178 20.2092L15.8642 14.0257C15.8151 13.8911 15.688 13.8066 15.5517 13.8066C15.5195 13.8066 14.3832 14.1498 14.3832 14.1498C13.014 14.606 12.0994 15.8752 12.0994 17.3104V23.8515C12.0994 23.9165 12.1184 23.98 12.1541 24.0343L14.5056 27.6127V36.6671C14.5056 36.851 14.6546 37 14.8385 37H22.1616C22.3455 37 22.4945 36.851 22.4945 36.6671V27.6127L24.8461 24.0343C24.8817 23.98 24.9008 23.9165 24.9008 23.8515V17.2932C24.9006 15.8643 23.9824 14.5972 22.6244 14.1523Z" fill="#44545F"/>
<path d="M19.3805 14.0222C19.2875 13.9208 19.1513 13.8697 19.0135 13.8697H17.9864C17.8487 13.8697 17.7125 13.9208 17.6193 14.0222C17.4752 14.1793 17.4543 14.4061 17.5566 14.5834L18.1056 15.4111L17.8486 17.5794L18.3547 18.9259C18.4041 19.0613 18.5955 19.0613 18.645 18.9259L19.1512 17.5794L18.8942 15.4111L19.4432 14.5834C19.5456 14.4061 19.5247 14.1793 19.3805 14.0222Z" fill="#44545F"/>
</svg>
