<svg width="37" height="37" viewBox="0 0 37 37" fill="none" xmlns="http://www.w3.org/2000/svg">
<path d="M18.5 0L0 7.01751V36.9545H2.64286V9.29839C2.64286 9.02353 2.81287 8.77769 3.06968 8.68059L18.2661 2.91579C18.4168 2.85836 18.5832 2.85836 18.7339 2.91579L33.9303 8.68059C34.1871 8.77769 34.3571 9.02353 34.3571 9.29839V36.9545H37V7.01751L18.5 0Z" fill="#44545F"/>
<path d="M3.96429 9.75424V15.1509H33.0357V9.75424L18.5 4.23979L3.96429 9.75424ZM21.1429 11.8474H16.5179V10.5259H21.1429V11.8474ZM21.1429 9.2045H16.5179V7.88308H21.1429V9.2045Z" fill="#44545F"/>
<path d="M3.96429 36.9545H33.0357V16.4724H3.96429V36.9545ZM14.5357 27.7045C14.5357 27.3396 14.8316 27.0438 15.1964 27.0438H23.125C23.4899 27.0438 23.7857 27.3396 23.7857 27.7045V35.6331C23.7857 35.998 23.4899 36.2938 23.125 36.2938H15.1964C14.8316 36.2938 14.5357 35.998 14.5357 35.6331V27.7045ZM4.62501 17.7938C4.62501 17.4289 4.92085 17.1331 5.28572 17.1331H13.2143C13.5792 17.1331 13.875 17.4289 13.875 17.7938V25.7224C13.875 26.0872 13.5792 26.3831 13.2143 26.3831H5.28572C4.92085 26.3831 4.62501 26.0872 4.62501 25.7224V17.7938ZM4.62501 27.7045C4.62501 27.3396 4.92085 27.0438 5.28572 27.0438H13.2143C13.5792 27.0438 13.875 27.3396 13.875 27.7045V35.6331C13.875 35.998 13.5792 36.2938 13.2143 36.2938H5.28572C4.92085 36.2938 4.62501 35.998 4.62501 35.6331V27.7045Z" fill="#44545F"/>
<path d="M12.5536 28.3652H11.2321V30.3473C11.2321 30.7122 10.9363 31.0081 10.5714 31.0081H7.92857C7.56369 31.0081 7.26785 30.7122 7.26785 30.3473V28.3652H5.94643V34.9723H12.5536V28.3652ZM11.2321 34.3116H7.26785V32.9902H11.2321V34.3116Z" fill="#44545F"/>
<path d="M8.58928 28.3652H9.91071V29.6866H8.58928V28.3652Z" fill="#44545F"/>
<path d="M12.5536 18.4545H11.2321V20.4367C11.2321 20.8015 10.9363 21.0974 10.5714 21.0974H7.92857C7.56369 21.0974 7.26785 20.8015 7.26785 20.4367V18.4545H5.94643V25.0617H12.5536V18.4545ZM11.2321 24.4009H7.26785V23.0795H11.2321V24.4009Z" fill="#44545F"/>
<path d="M8.58928 18.4545H9.91071V19.7759H8.58928V18.4545Z" fill="#44545F"/>
<path d="M22.4643 28.3652H21.1428V30.3473C21.1428 30.7122 20.847 31.0081 20.4821 31.0081H17.8393C17.4744 31.0081 17.1786 30.7122 17.1786 30.3473V28.3652H15.8571V34.9723H22.4643V28.3652ZM21.1428 34.3116H17.1786V32.9902H21.1428V34.3116Z" fill="#44545F"/>
<path d="M18.5 28.3652H19.8214V29.6866H18.5V28.3652Z" fill="#44545F"/>
</svg>
