<svg width="38" height="37" viewBox="0 0 38 37" fill="none" xmlns="http://www.w3.org/2000/svg">
<path d="M34.6602 26.0879H21.3008C19.4592 26.0879 17.9609 27.5468 17.9609 29.3398V31.5801C17.9609 32.1791 18.459 32.6641 19.0742 32.6641H36.8867C37.5019 32.6641 38 32.1791 38 31.5801V29.3398C38 27.5468 36.5017 26.0879 34.6602 26.0879Z" fill="#44545F"/>
<path d="M20.1875 35.916C20.1875 36.515 20.6856 37 21.3008 37H34.6602C35.2754 37 35.7734 36.515 35.7734 35.916V34.832H20.1875V35.916Z" fill="#44545F"/>
<path d="M27.0171 11.0106C25.4017 11.3398 24.0547 12.6058 23.6653 14.1587C23.436 15.0691 23.4946 15.991 23.8361 16.8263C24.7346 19.029 25.5362 21.4075 25.6916 23.9199H30.2931C30.4772 21.2599 31.0205 19.018 31.9758 17.1512C32.2794 16.5564 32.4336 15.9159 32.4336 15.248C32.4336 13.9354 31.8335 12.7086 30.7866 11.8806C29.7342 11.0487 28.3762 10.7343 27.0171 11.0106Z" fill="#44545F"/>
<path d="M6.67969 0.635178L0.652313 6.5762H6.67969V0.635178Z" fill="#44545F"/>
<path d="M15.7344 33.748V29.3398C15.7344 26.3515 18.2317 23.9199 21.3008 23.9199H23.4969C23.3392 21.7477 22.5805 19.6198 21.7673 17.6266C21.2541 16.3713 21.1628 14.9929 21.502 13.6421C22.101 11.2593 24.086 9.39312 26.5605 8.88811C27.4134 8.71676 28.2666 8.73624 29.0938 8.87202V1.08398C29.0938 0.48497 28.5957 0 27.9805 0H8.90625V7.66016C8.90625 8.25917 8.40817 8.74414 7.79297 8.74414H0V35.916C0 36.515 0.498077 37 1.11328 37H17.9609V34.832H16.8477C16.2325 34.832 15.7344 34.3471 15.7344 33.748ZM13.4336 6.77575V5.53566C13.4336 4.93636 13.9317 4.45168 14.5469 4.45168C15.1621 4.45168 15.6602 4.93636 15.6602 5.53566V6.78789C16.3948 7.04392 17.0381 7.52579 17.4388 8.20102C17.7476 8.71986 17.5649 9.38239 17.0332 9.6819C16.4983 9.98367 15.8179 9.8047 15.5123 9.28726C15.3134 8.95162 14.9438 8.74414 14.5469 8.74414C13.9325 8.74414 13.4336 9.22996 13.4336 9.82812C13.4336 10.4263 13.9325 10.9121 14.5469 10.9121C16.3884 10.9121 17.8867 12.371 17.8867 14.1641C17.8867 15.5755 16.9532 16.7673 15.6602 17.2164V18.4133C15.6602 19.0124 15.1621 19.4973 14.5469 19.4973C13.9317 19.4973 13.4336 19.0124 13.4336 18.4133V17.2043C12.6989 16.948 12.0556 16.4664 11.655 15.7912C11.3462 15.2723 11.5288 14.6098 12.0605 14.3103C12.5931 14.0054 13.2738 14.1875 13.5815 14.7049C13.7803 15.0406 14.15 15.248 14.5469 15.248C15.1612 15.248 15.6602 14.7622 15.6602 14.1641C15.6602 13.5659 15.1612 13.0801 14.5469 13.0801C12.7053 13.0801 11.207 11.6212 11.207 9.82812C11.207 8.41669 12.1406 7.22487 13.4336 6.77575ZM12.3203 32.6641H5.56641C4.9512 32.6641 4.45312 32.1791 4.45312 31.5801C4.45312 30.9811 4.9512 30.4961 5.56641 30.4961H12.3203C12.9355 30.4961 13.4336 30.9811 13.4336 31.5801C13.4336 32.1791 12.9355 32.6641 12.3203 32.6641ZM12.3203 28.2559H5.56641C4.9512 28.2559 4.45312 27.7709 4.45312 27.1719C4.45312 26.5729 4.9512 26.0879 5.56641 26.0879H12.3203C12.9355 26.0879 13.4336 26.5729 13.4336 27.1719C13.4336 27.7709 12.9355 28.2559 12.3203 28.2559ZM14.5469 23.9199H5.56641C4.9512 23.9199 4.45312 23.435 4.45312 22.8359C4.45312 22.2369 4.9512 21.752 5.56641 21.752H14.5469C15.1621 21.752 15.6602 22.2369 15.6602 22.8359C15.6602 23.435 15.1621 23.9199 14.5469 23.9199Z" fill="#44545F"/>
</svg>
