<svg width="64" height="64" viewBox="0 0 64 64" version="1.1" xmlns="http://www.w3.org/2000/svg" xmlns:xlink="http://www.w3.org/1999/xlink">
<g id="Canvas" fill="none">
<g id="CloudIcon2-8">
<g id="Group">
<path id="Vector" d="M 10.3226 20.6452C 16.0236 20.6452 20.6452 16.0236 20.6452 10.3226C 20.6452 4.62158 16.0236 0 10.3226 0C 4.62158 0 0 4.62158 0 10.3226C 0 16.0236 4.62158 20.6452 10.3226 20.6452Z" transform="translate(6.19141 19.6133)" fill="#FFD205"/>
<path id="Vector_2" d="M 22.7097 0L 0 0L 0 10.3226L 22.7097 10.3226L 22.7097 0Z" transform="translate(39.2227 20.6455)" fill="#FFD205"/>
</g>
<g id="Group_2">
<path id="Vector_3" d="M 2.06452 0L 0 0L 0 6.19355L 2.06452 6.19355L 2.06452 0Z" transform="translate(43.3555 11.3545)" fill="#465861"/>
<path id="Vector_4" d="M 2.06452 0L 0 0L 0 8.25807L 2.06452 8.25807L 2.06452 0Z" transform="translate(47.4844 9.29004)" fill="#465861"/>
<path id="Vector_5" d="M 2.06452 0L 0 0L 0 10.3226L 2.06452 10.3226L 2.06452 0Z" transform="translate(51.6133 7.22559)" fill="#465861"/>
<path id="Vector_6" d="M 2.06452 0L 0 0L 0 8.25807L 2.06452 8.25807L 2.06452 0Z" transform="translate(55.7422 9.29004)" fill="#465861"/>
</g>
<g id="Group_3">
<path id="Vector_7" d="M 0 3.09677C 0 5.94271 2.31536 8.25807 5.16129 8.25807L 18.5806 8.25807L 18.5806 12.3871L 14.4516 12.3871L 14.4516 14.4516L 43.3548 14.4516L 43.3548 12.3871L 39.2258 12.3871L 39.2258 8.25807L 52.6452 8.25807C 55.4911 8.25807 57.8065 5.94271 57.8065 3.09677L 57.8065 0L 0 0L 0 3.09677ZM 37.1613 12.3871L 20.6452 12.3871L 20.6452 8.25807L 37.1613 8.25807L 37.1613 12.3871ZM 2.06452 2.06452L 55.7419 2.06452L 55.7419 3.09677C 55.7419 4.80413 54.3525 6.19355 52.6452 6.19355L 5.16129 6.19355C 3.45394 6.19355 2.06452 4.80413 2.06452 3.09677L 2.06452 2.06452Z" transform="translate(0 49.5488)" fill="#465861"/>
<path id="Vector_8" d="M 2.06452 5.16129C 2.06452 3.45394 3.45394 2.06452 5.16129 2.06452L 35.0968 2.06452L 35.0968 0L 5.16129 0C 2.31535 0 0 2.31535 0 5.16129L 0 35.0968L 2.06452 35.0968L 2.06452 5.16129Z" transform="translate(0 12.3867)" fill="#465861"/>
<path id="Vector_9" d="M 2.06452 0L 0 0L 0 6.19355L 2.06452 6.19355L 2.06452 0Z" transform="translate(55.7422 41.29)" fill="#465861"/>
<path id="Vector_10" d="M 0 5.16129C 0 6.86865 1.38942 8.25807 3.09677 8.25807L 23.7419 8.25807C 25.4493 8.25807 26.8387 6.86865 26.8387 5.16129L 26.8387 0L 0 0L 0 5.16129ZM 2.06452 2.06452L 24.7742 2.06452L 24.7742 5.16129C 24.7742 5.7311 24.3107 6.19355 23.7419 6.19355L 3.09677 6.19355C 2.528 6.19355 2.06452 5.7311 2.06452 5.16129L 2.06452 2.06452Z" transform="translate(37.1602 30.9678)" fill="#465861"/>
<path id="Vector_11" d="M 18.5806 0L 0 0L 0 2.06452L 18.5806 2.06452L 18.5806 0Z" transform="translate(41.2891 16.5156)" fill="#465861"/>
<path id="Vector_12" d="M 55.7419 0L 35.0968 0C 33.3894 0 32 1.38942 32 3.09677L 32 18.5806L 25.4524 18.5806L 20.1125 22.7345C 17.9448 20.097 14.7892 18.5806 11.3548 18.5806C 5.09419 18.5806 0 23.6748 0 29.9355C 0 36.1961 5.09419 41.2903 11.3548 41.2903C 17.6155 41.2903 22.7097 36.1961 22.7097 29.9355C 22.7097 28.7732 22.5352 27.6274 22.1894 26.529L 20.2199 27.1484C 20.5017 28.0454 20.6452 28.9837 20.6452 29.9355C 20.6452 31.6542 20.1672 33.2604 19.3507 34.6426L 12.2797 29.3388L 10.3597 20.7009C 10.687 20.6658 11.0183 20.6452 11.3548 20.6452C 14.1461 20.6452 16.7112 21.8705 18.4836 24.001L 15.8834 26.0243L 17.151 27.6532L 26.1605 20.6452L 32 20.6452L 32 28.9032L 34.0645 28.9032L 34.0645 3.09677C 34.0645 2.52697 34.528 2.06452 35.0968 2.06452L 55.7419 2.06452C 56.3107 2.06452 56.7742 2.52697 56.7742 3.09677L 56.7742 28.9032L 58.8387 28.9032L 58.8387 3.09677C 58.8387 1.38942 57.4493 0 55.7419 0ZM 18.111 36.2932C 16.415 38.0934 14.017 39.2258 11.3548 39.2258C 10.0862 39.2258 8.87639 38.9688 7.77394 38.5063L 11.6821 31.4715L 18.111 36.2932ZM 10.2617 29.7775L 5.97368 37.4957C 3.6129 35.809 2.06452 33.0529 2.06452 29.9355C 2.06452 25.8663 4.69781 22.4093 8.34581 21.1551L 10.2617 29.7775Z" transform="translate(5.16016 0)" fill="#465861"/>
<path id="Vector_13" d="M 2.06452 0L 0 0L 0 2.06452L 2.06452 2.06452L 2.06452 0Z" transform="translate(41.2891 20.6455)" fill="#465861"/>
<path id="Vector_14" d="M 2.06452 0L 0 0L 0 2.06452L 2.06452 2.06452L 2.06452 0Z" transform="translate(57.8047 20.6455)" fill="#465861"/>
<path id="Vector_15" d="M 10.3226 0L 0 0L 0 2.06452L 10.3226 2.06452L 10.3226 0Z" transform="translate(45.418 20.6455)" fill="#465861"/>
<path id="Vector_16" d="M 49.5484 0L 0 0L 0 2.06452L 49.5484 2.06452L 49.5484 0Z" transform="translate(4.12891 45.4189)" fill="#465861"/>
</g>
</g>
</g>
</svg>
