<svg width="64" height="64" viewBox="0 0 64 64" version="1.1" xmlns="http://www.w3.org/2000/svg" xmlns:xlink="http://www.w3.org/1999/xlink">
<g id="Canvas" fill="none">
<g id="CloudIcon2-2">
<path id="Vector" d="M 2.06452 37.1613L 35.0968 37.1613C 36.2374 37.1613 37.1613 36.2374 37.1613 35.0968L 37.1613 2.06452C 37.1613 0.923871 36.2374 0 35.0968 0L 2.06452 0C 0.923871 0 0 0.923871 0 2.06452L 0 35.0968C 0 36.2374 0.923871 37.1613 2.06452 37.1613Z" transform="translate(25.8047 25.8066)" fill="#FFD205"/>
<path id="Vector_2" d="M 22.5311 51.2392C 19.0379 50.6261 15.6697 49.2377 12.7422 47.2103L 10.6488 48.6059L 5.07355 43.0307L 6.46916 40.9373C 4.46348 38.0408 3.08955 34.7283 2.464 31.2764L 0 30.7809L 0 22.8955L 2.46297 22.4021C 3.08748 18.9492 4.46245 15.6366 6.46813 12.7412L 5.07252 10.6477L 10.6477 5.07252L 12.7412 6.46813C 15.6377 4.46245 18.9502 3.08852 22.4021 2.46297L 22.8965 0L 30.7819 0L 31.2754 2.46297C 34.7283 3.08748 38.0408 4.46245 40.9363 6.46813L 43.0297 5.07252L 48.6049 10.6477L 47.2093 12.7412C 49.2366 15.6686 50.6261 19.0379 51.2382 22.5301L 49.2036 22.8872C 48.6049 19.4684 47.1938 16.1796 45.1241 13.3739L 44.6947 12.7917L 45.9468 10.912L 42.7644 7.72955L 40.8846 8.98168L 40.3024 8.55226C 37.344 6.37006 33.8674 4.928 30.2493 4.38503L 29.5329 4.27768L 29.0901 2.06452L 24.5884 2.06452L 24.1455 4.27768L 23.4292 4.38503C 19.8111 4.928 16.3345 6.37006 13.376 8.55226L 12.7938 8.98168L 10.9141 7.72955L 7.73161 10.912L 8.98374 12.7917L 8.55432 13.3739C 6.37213 16.3324 4.93006 19.809 4.3871 23.4271L 4.27974 24.1435L 2.06452 24.5874L 2.06452 29.089L 4.27768 29.5319L 4.38503 30.2483C 4.928 33.8663 6.37006 37.343 8.55226 40.3014L 8.98168 40.8836L 7.72955 42.7634L 10.912 45.9458L 12.7917 44.6937L 13.3739 45.1231C 16.1796 47.1928 19.4684 48.6039 22.8872 49.2026L 22.5311 51.2392Z" fill="#465861"/>
<g id="Group">
<path id="Vector_3" d="M 15.2351 36.801L 16.8021 35.456C 15.9825 34.5012 15.1133 33.3213 14.3133 31.9246C 15.0452 31.6862 15.8359 31.4746 16.703 31.3156L 16.3303 29.2852C 15.2434 29.4854 14.2627 29.7569 13.3626 30.0635C 12.3097 27.7461 11.5221 24.9538 11.3827 21.6764L 16.5161 21.6764L 16.5161 19.6119L 11.4044 19.6119C 11.5448 16.3623 12.3138 13.5721 13.3832 11.2361C 15.1112 11.8245 17.185 12.2519 19.6139 12.3499L 19.6139 16.5161L 21.6785 16.5161L 21.6785 12.352C 24.1156 12.2529 26.1956 11.8225 27.9277 11.232C 28.6606 12.8392 29.2645 14.6488 29.6093 16.6885L 31.6459 16.3437C 31.2743 14.1419 30.6323 12.1899 29.855 10.4547C 31.8142 9.53703 33.1788 8.49032 33.9809 7.75535C 36.3437 10.1884 38.0697 13.2604 38.8139 16.7329L 40.832 16.2994C 38.8088 6.85523 30.3185 0 20.6452 0C 9.26142 0 0 9.26142 0 20.6452C 0 30.3185 6.85523 38.8088 16.2994 40.832L 16.7329 38.8139C 13.7559 38.176 11.0741 36.8124 8.83406 34.9502C 9.53497 34.3339 10.7086 33.4596 12.3726 32.6854C 13.2852 34.3246 14.2906 35.6996 15.2351 36.801ZM 14.3288 9.3791C 16.0702 6.35252 18.1935 4.26013 19.6129 3.08129L 19.6129 10.2895C 17.5628 10.1987 15.807 9.8529 14.3288 9.3791ZM 12.3406 8.60697C 10.6663 7.82968 9.49987 6.95226 8.80929 6.33394C 11.1907 4.36129 14.0738 2.98219 17.2325 2.39277C 15.7203 3.78632 13.8756 5.84361 12.3406 8.60697ZM 21.6774 10.2885L 21.6774 3.07716C 23.0999 4.25084 25.2253 6.33497 26.9729 9.376C 25.4926 9.85084 23.7326 10.1977 21.6774 10.2885ZM 24.0475 2.38968C 27.1773 2.98013 30.0655 4.36542 32.4666 6.34736C 31.7719 6.96774 30.6034 7.84103 28.9311 8.61523C 27.3941 5.84877 25.5566 3.78219 24.0475 2.38968ZM 7.30013 7.7471C 8.0991 8.48 9.46065 9.52774 11.4188 10.4475C 10.2761 12.9982 9.44929 16.0454 9.31406 19.6129L 2.11716 19.6129C 2.3711 15.0142 4.2911 10.8594 7.30013 7.7471ZM 7.30323 33.5443C 4.27458 30.3979 2.36594 26.2111 2.10994 21.6774L 9.31716 21.6774C 9.45652 25.2511 10.303 28.3014 11.4436 30.8346C 9.47097 31.7564 8.10632 32.8093 7.30323 33.5443Z" transform="translate(6.19141 6.19336)" fill="#465861"/>
<path id="Vector_4" d="M 36.129 0L 3.09677 0C 1.38942 0 0 1.38942 0 3.09677L 0 10.3226L 2.06452 10.3226L 2.06452 3.09677C 2.06452 2.52697 2.52697 2.06452 3.09677 2.06452L 36.129 2.06452C 36.6988 2.06452 37.1613 2.52697 37.1613 3.09677L 37.1613 10.3226L 39.2258 10.3226L 39.2258 3.09677C 39.2258 1.38942 37.8364 0 36.129 0Z" transform="translate(24.7734 24.7744)" fill="#465861"/>
<path id="Vector_5" d="M 3.09677 6.19355C 4.80413 6.19355 6.19355 4.80413 6.19355 3.09677C 6.19355 1.38942 4.80413 0 3.09677 0C 1.38942 0 0 1.38942 0 3.09677C 0 4.80413 1.38942 6.19355 3.09677 6.19355ZM 3.09677 2.06452C 3.66658 2.06452 4.12903 2.52697 4.12903 3.09677C 4.12903 3.66658 3.66658 4.12903 3.09677 4.12903C 2.52697 4.12903 2.06452 3.66658 2.06452 3.09677C 2.06452 2.52697 2.52697 2.06452 3.09677 2.06452Z" transform="translate(53.6758 53.6768)" fill="#465861"/>
<path id="Vector_6" d="M 3.09677 6.19355C 4.80413 6.19355 6.19355 4.80413 6.19355 3.09677C 6.19355 1.38942 4.80413 0 3.09677 0C 1.38942 0 0 1.38942 0 3.09677C 0 4.80413 1.38942 6.19355 3.09677 6.19355ZM 3.09677 2.06452C 3.66658 2.06452 4.12903 2.52697 4.12903 3.09677C 4.12903 3.66658 3.66658 4.12903 3.09677 4.12903C 2.52697 4.12903 2.06452 3.66658 2.06452 3.09677C 2.06452 2.52697 2.52697 2.06452 3.09677 2.06452Z" transform="translate(45.418 53.6768)" fill="#465861"/>
<path id="Vector_7" d="M 10.3226 0L 0 0L 0 6.19355L 10.3226 6.19355L 10.3226 0ZM 8.25806 4.12903L 2.06452 4.12903L 2.06452 2.06452L 8.25806 2.06452L 8.25806 4.12903Z" transform="translate(28.9023 53.6768)" fill="#465861"/>
<path id="Vector_8" d="M 6.19355 3.09677C 6.19355 1.38942 4.80413 0 3.09677 0C 1.38942 0 0 1.38942 0 3.09677C 0 4.80413 1.38942 6.19355 3.09677 6.19355C 4.80413 6.19355 6.19355 4.80413 6.19355 3.09677ZM 2.06452 3.09677C 2.06452 2.52697 2.52697 2.06452 3.09677 2.06452C 3.66658 2.06452 4.12903 2.52697 4.12903 3.09677C 4.12903 3.66658 3.66658 4.12903 3.09677 4.12903C 2.52697 4.12903 2.06452 3.66658 2.06452 3.09677Z" transform="translate(53.6758 41.29)" fill="#465861"/>
<path id="Vector_9" d="M 6.19355 3.09677C 6.19355 1.38942 4.80413 0 3.09677 0C 1.38942 0 0 1.38942 0 3.09677C 0 4.80413 1.38942 6.19355 3.09677 6.19355C 4.80413 6.19355 6.19355 4.80413 6.19355 3.09677ZM 2.06452 3.09677C 2.06452 2.52697 2.52697 2.06452 3.09677 2.06452C 3.66658 2.06452 4.12903 2.52697 4.12903 3.09677C 4.12903 3.66658 3.66658 4.12903 3.09677 4.12903C 2.52697 4.12903 2.06452 3.66658 2.06452 3.09677Z" transform="translate(45.418 41.29)" fill="#465861"/>
<path id="Vector_10" d="M 0 0L 0 6.19355L 10.3226 6.19355L 10.3226 0L 0 0ZM 8.25806 4.12903L 2.06452 4.12903L 2.06452 2.06452L 8.25806 2.06452L 8.25806 4.12903Z" transform="translate(28.9023 41.29)" fill="#465861"/>
<path id="Vector_11" d="M 6.19355 3.09677C 6.19355 1.38942 4.80413 0 3.09677 0C 1.38942 0 0 1.38942 0 3.09677C 0 4.80413 1.38942 6.19355 3.09677 6.19355C 4.80413 6.19355 6.19355 4.80413 6.19355 3.09677ZM 2.06452 3.09677C 2.06452 2.52697 2.52697 2.06452 3.09677 2.06452C 3.66658 2.06452 4.12903 2.52697 4.12903 3.09677C 4.12903 3.66658 3.66658 4.12903 3.09677 4.12903C 2.52697 4.12903 2.06452 3.66658 2.06452 3.09677Z" transform="translate(53.6758 28.9033)" fill="#465861"/>
<path id="Vector_12" d="M 6.19355 3.09677C 6.19355 1.38942 4.80413 0 3.09677 0C 1.38942 0 0 1.38942 0 3.09677C 0 4.80413 1.38942 6.19355 3.09677 6.19355C 4.80413 6.19355 6.19355 4.80413 6.19355 3.09677ZM 2.06452 3.09677C 2.06452 2.52697 2.52697 2.06452 3.09677 2.06452C 3.66658 2.06452 4.12903 2.52697 4.12903 3.09677C 4.12903 3.66658 3.66658 4.12903 3.09677 4.12903C 2.52697 4.12903 2.06452 3.66658 2.06452 3.09677Z" transform="translate(45.418 28.9033)" fill="#465861"/>
<path id="Vector_13" d="M 0 0L 0 6.19355L 10.3226 6.19355L 10.3226 0L 0 0ZM 8.25806 4.12903L 2.06452 4.12903L 2.06452 2.06452L 8.25806 2.06452L 8.25806 4.12903Z" transform="translate(28.9023 28.9033)" fill="#465861"/>
<path id="Vector_14" d="M 0 10.3226L 2.06452 10.3226L 2.06452 2.06452L 37.1613 2.06452L 37.1613 10.3226L 39.2258 10.3226L 39.2258 0L 0 0L 0 10.3226Z" transform="translate(24.7734 37.1611)" fill="#465861"/>
<path id="Vector_15" d="M 0 11.3548C 0 13.0622 1.38942 14.4516 3.09677 14.4516L 36.129 14.4516C 37.8364 14.4516 39.2258 13.0622 39.2258 11.3548L 39.2258 0L 0 0L 0 11.3548ZM 2.06452 2.06452L 37.1613 2.06452L 37.1613 11.3548C 37.1613 11.9246 36.6988 12.3871 36.129 12.3871L 3.09677 12.3871C 2.52697 12.3871 2.06452 11.9246 2.06452 11.3548L 2.06452 2.06452Z" transform="translate(24.7734 49.5479)" fill="#465861"/>
</g>
</g>
</g>
</svg>
