<svg width="65" height="64" viewBox="0 0 65 64" version="1.1" xmlns="http://www.w3.org/2000/svg" xmlns:xlink="http://www.w3.org/1999/xlink">
<g id="Canvas" fill="none">
<g id="CloudIcon-2">
<path id="Vector" d="M 52.6623 37.1613L 13.4237 37.1613C 6.02209 37.1613 0 31.1411 0 23.7419C 0 16.3427 6.02209 10.3226 13.4237 10.3226C 14.4811 10.3226 15.5292 10.4464 16.5504 10.6901C 17.8525 8.56051 20.1862 7.2258 22.7171 7.2258C 23.7765 7.2258 24.8081 7.45496 25.755 7.89264C 28.4831 3.06477 33.6616 0 39.2386 0C 47.4942 0 54.2629 6.49084 54.7048 14.6364C 60.0764 15.6005 64.0209 20.2519 64.0209 25.8064C 64.0209 32.0671 58.925 37.1613 52.6623 37.1613Z" fill="#FFD205"/>
<g id="Group">
<path id="Vector_2" d="M 14.4563 13.5019L 14.4563 11.3548C 14.4563 9.64748 13.0665 8.25806 11.3585 8.25806L 3.09778 8.25806C 2.52779 8.25806 2.06519 7.79561 2.06519 7.2258L 2.06519 0L 0 0L 0 7.2258C 0 8.93316 1.38987 10.3226 3.09778 10.3226L 11.3585 10.3226C 11.9285 10.3226 12.3911 10.785 12.3911 11.3548L 12.3911 13.5019C 8.89477 14.0057 6.19557 17.0126 6.19557 20.6451L 6.19557 24.7742C 6.19557 28.7577 9.43895 32 13.4237 32C 17.4085 32 20.6519 28.7577 20.6519 24.7742L 20.6519 20.6451C 20.6519 17.0126 17.9527 14.0057 14.4563 13.5019ZM 13.4237 15.4839C 15.9164 15.4839 18.0023 17.2604 18.4824 19.6129L 14.4563 19.6129L 14.4563 17.5484L 12.3911 17.5484L 12.3911 19.6129L 8.36505 19.6129C 8.84521 17.2604 10.931 15.4839 13.4237 15.4839ZM 13.4237 29.9355C 10.5769 29.9355 8.26076 27.6201 8.26076 24.7742L 8.26076 21.6774L 18.5867 21.6774L 18.5867 24.7742C 18.5867 27.6201 16.2706 29.9355 13.4237 29.9355Z" transform="translate(43.3711 32)" fill="#465861"/>
<path id="Vector_3" d="M 21.6845 11.3548C 21.6845 10.785 22.1471 10.3226 22.7171 10.3226L 26.8475 10.3226C 28.5554 10.3226 29.9452 8.93316 29.9452 7.2258L 29.9452 0L 27.8801 0L 27.8801 7.2258C 27.8801 7.79561 27.4175 8.25806 26.8475 8.25806L 22.7171 8.25806C 21.0092 8.25806 19.6193 9.64748 19.6193 11.3548L 19.6193 13.4193L 0 13.4193L 0 32L 43.369 32L 43.369 13.4193L 21.6845 13.4193L 21.6845 11.3548ZM 41.3038 29.9355L 2.06519 29.9355L 2.06519 15.4839L 41.3038 15.4839L 41.3038 29.9355Z" transform="translate(0 32)" fill="#465861"/>
<path id="Vector_4" d="M 2.06519 0L 0 0L 0 2.06452L 2.06519 2.06452L 2.06519 0Z" transform="translate(4.12891 57.8066)" fill="#465861"/>
<path id="Vector_5" d="M 2.06519 0L 0 0L 0 2.06452L 2.06519 2.06452L 2.06519 0Z" transform="translate(8.26172 57.8066)" fill="#465861"/>
<path id="Vector_6" d="M 2.06519 0L 0 0L 0 2.06452L 2.06519 2.06452L 2.06519 0Z" transform="translate(33.043 57.8066)" fill="#465861"/>
<path id="Vector_7" d="M 2.06519 0L 0 0L 0 2.06452L 2.06519 2.06452L 2.06519 0Z" transform="translate(37.1758 57.8066)" fill="#465861"/>
<path id="Vector_8" d="M 2.06519 0L 0 0L 0 2.06452L 2.06519 2.06452L 2.06519 0Z" transform="translate(4.12891 53.6777)" fill="#465861"/>
<path id="Vector_9" d="M 2.06519 0L 0 0L 0 2.06452L 2.06519 2.06452L 2.06519 0Z" transform="translate(8.26172 53.6777)" fill="#465861"/>
<path id="Vector_10" d="M 2.06519 0L 0 0L 0 2.06452L 2.06519 2.06452L 2.06519 0Z" transform="translate(12.3906 53.6777)" fill="#465861"/>
<path id="Vector_11" d="M 2.06519 0L 0 0L 0 2.06452L 2.06519 2.06452L 2.06519 0Z" transform="translate(16.5195 53.6777)" fill="#465861"/>
<path id="Vector_12" d="M 2.06519 0L 0 0L 0 2.06452L 2.06519 2.06452L 2.06519 0Z" transform="translate(20.6523 53.6777)" fill="#465861"/>
<path id="Vector_13" d="M 2.06519 0L 0 0L 0 2.06452L 2.06519 2.06452L 2.06519 0Z" transform="translate(24.7812 53.6777)" fill="#465861"/>
<path id="Vector_14" d="M 2.06519 0L 0 0L 0 2.06452L 2.06519 2.06452L 2.06519 0Z" transform="translate(28.9141 53.6777)" fill="#465861"/>
<path id="Vector_15" d="M 2.06519 0L 0 0L 0 2.06452L 2.06519 2.06452L 2.06519 0Z" transform="translate(33.043 53.6777)" fill="#465861"/>
<path id="Vector_16" d="M 2.06519 0L 0 0L 0 2.06452L 2.06519 2.06452L 2.06519 0Z" transform="translate(37.1758 53.6777)" fill="#465861"/>
<path id="Vector_17" d="M 2.06519 0L 0 0L 0 2.06452L 2.06519 2.06452L 2.06519 0Z" transform="translate(4.12891 49.5488)" fill="#465861"/>
<path id="Vector_18" d="M 2.06519 0L 0 0L 0 2.06452L 2.06519 2.06452L 2.06519 0Z" transform="translate(8.26172 49.5488)" fill="#465861"/>
<path id="Vector_19" d="M 2.06519 0L 0 0L 0 2.06452L 2.06519 2.06452L 2.06519 0Z" transform="translate(12.3906 49.5488)" fill="#465861"/>
<path id="Vector_20" d="M 2.06519 0L 0 0L 0 2.06452L 2.06519 2.06452L 2.06519 0Z" transform="translate(16.5195 49.5488)" fill="#465861"/>
<path id="Vector_21" d="M 2.06519 0L 0 0L 0 2.06452L 2.06519 2.06452L 2.06519 0Z" transform="translate(20.6523 49.5488)" fill="#465861"/>
<path id="Vector_22" d="M 2.06519 0L 0 0L 0 2.06452L 2.06519 2.06452L 2.06519 0Z" transform="translate(24.7812 49.5488)" fill="#465861"/>
<path id="Vector_23" d="M 2.06519 0L 0 0L 0 2.06452L 2.06519 2.06452L 2.06519 0Z" transform="translate(28.9141 49.5488)" fill="#465861"/>
<path id="Vector_24" d="M 2.06519 0L 0 0L 0 2.06452L 2.06519 2.06452L 2.06519 0Z" transform="translate(33.043 49.5488)" fill="#465861"/>
<path id="Vector_25" d="M 2.06519 0L 0 0L 0 2.06452L 2.06519 2.06452L 2.06519 0Z" transform="translate(37.1758 49.5488)" fill="#465861"/>
<path id="Vector_26" d="M 18.5867 0L 0 0L 0 2.06452L 18.5867 2.06452L 18.5867 0Z" transform="translate(12.3906 57.8066)" fill="#465861"/>
</g>
</g>
</g>
</svg>
