<svg width="68" height="64" viewBox="0 0 68 64" version="1.1" xmlns="http://www.w3.org/2000/svg" xmlns:xlink="http://www.w3.org/1999/xlink">
<g id="Canvas" fill="none">
<g id="CloudIcon2-1">
<g id="power-button">
<g id="Group">
<g id="Group_2">
<path id="Vector" d="M 52.6451 37.1544L 50.3017 37.1544L 50.3017 35.0903L 52.6451 35.0903C 57.767 35.0903 61.9353 30.9239 61.9353 25.8016C 61.9353 21.0055 58.3398 17.032 53.573 16.5593L 52.6431 16.4675L 52.6473 15.4292C 52.6453 8.08282 46.625 2.06391 39.2258 2.06391C 34.0748 2.06391 29.3172 5.08272 27.1049 9.75482L 26.5899 10.8416L 25.5938 10.1687C 24.7412 9.59277 23.744 9.28849 22.7097 9.28849C 20.6896 9.28849 18.8449 10.4805 18.0098 12.3258L 17.635 13.1545L 16.7659 12.8872C 15.682 12.5539 14.5569 12.3846 13.4192 12.3846C 7.15853 12.3846 2.06452 17.4779 2.06452 23.7374C 2.06452 29.997 7.15875 35.0903 13.4192 35.0903L 13.698 35.0903L 13.698 37.1544L 13.4192 37.1544C 6.02002 37.1544 0 31.1355 0 23.7376C 0 16.3398 6.02002 10.3207 13.4192 10.3207C 14.4752 10.3207 15.523 10.4446 16.545 10.6881C 17.8467 8.55905 20.1796 7.22458 22.7097 7.22458C 23.7687 7.22458 24.8011 7.45268 25.7467 7.89127C 28.4738 3.06439 33.6506 3.02363e-08 39.2258 3.02363e-08C 47.4797 3.02363e-08 54.2451 6.48854 54.6869 14.6326C 60.0566 15.5976 64 20.2481 64 25.8016C 64 32.0611 58.9058 37.1544 52.6451 37.1544Z" transform="translate(2 2)" fill="#465861"/>
<path id="Vector_2" d="M 19.613 39.2188C 30.445 39.2188 39.226 30.4393 39.226 19.6094C 39.226 8.77942 30.445 0 19.613 0C 8.78104 0 0 8.77942 0 19.6094C 0 30.4393 8.78104 39.2188 19.613 39.2188Z" transform="translate(14.3867 22)" fill="#FFD205"/>
<g id="&#208;&#160;&#208;&#181;&#209;&#129;&#209;&#131;&#209;&#128;&#209;&#129; 1">
<g id="&#208;&#161;&#208;&#187;&#208;&#190;&#208;&#185; 2">
<g id="Layer 1">
<path id="&#60;&#208;&#154;&#208;&#190;&#208;&#189;&#209;&#130;&#209;&#131;&#209;&#128;&#62;" d="M 3.66734 5.69811C 3.27632 5.69811 2.89409 5.58102 2.56898 5.36165C 2.24387 5.14227 1.9905 4.83047 1.84091 4.46568C 1.69131 4.1009 1.65222 3.6995 1.72858 3.31228C 1.80493 2.92505 1.9933 2.56939 2.26987 2.29028C 2.54643 2.01116 2.89875 1.82113 3.28228 1.74423C 3.66581 1.66732 4.06331 1.70699 4.42451 1.85822C 4.78571 2.00944 5.09438 2.26544 5.31148 2.59382C 5.52858 2.9222 5.64436 3.30821 5.64416 3.70304L 7.33468 3.70304C 7.33468 2.97065 7.1196 2.2547 6.71663 1.64574C 6.31365 1.03678 5.74089 0.562152 5.07077 0.281878C 4.40065 0.00160445 3.66327 -0.071728 2.95188 0.0711544C 2.24048 0.214037 1.58703 0.566717 1.07414 1.0846C 0.561254 1.60247 0.211974 2.26229 0.0704689 2.98061C -0.0710363 3.69893 0.0015889 4.44349 0.279161 5.12013C 0.556734 5.79677 1.02679 6.3751 1.62988 6.782C 2.23297 7.18889 2.94201 7.40607 3.66734 7.40607L 18.7418 7.40607L 18.7418 5.69811L 3.66734 5.69811Z" transform="translate(30.2578 37.8398)" fill="#465861"/>
<path id="&#60;&#208;&#154;&#208;&#190;&#208;&#189;&#209;&#130;&#209;&#131;&#209;&#128;&#62;_2" d="M 21.4646 12.9046L 21.4646 11.0865L 6.3901 11.0865C 5.48237 11.0865 4.59503 10.8147 3.84029 10.3055C 3.08554 9.79627 2.49729 9.07251 2.14992 8.22572C 1.80255 7.37893 1.71166 6.44715 1.88875 5.5482C 2.06584 4.64925 2.50295 3.82352 3.14481 3.17541C 3.78666 2.52731 4.60444 2.08595 5.49472 1.90713C 6.385 1.72832 7.30781 1.82009 8.14644 2.17085C 8.98506 2.5216 9.70185 3.11557 10.2062 3.87767C 10.7105 4.63976 10.9796 5.53573 10.9796 6.45229L 12.7802 6.45229C 12.7802 5.17615 12.4054 3.92866 11.7033 2.86759C 11.0011 1.80652 10.0031 0.979512 8.83548 0.491154C 7.66784 0.0027957 6.38301 -0.124981 5.14345 0.123982C 3.90389 0.372945 2.76529 0.987465 1.87162 1.88983C 0.977948 2.7922 0.36935 3.94189 0.122787 5.19351C -0.123777 6.44513 0.00276852 7.74247 0.48642 8.92147C 0.970071 10.1005 1.78911 11.1082 2.83995 11.8172C 3.8908 12.5262 5.12626 12.9046 6.3901 12.9046L 21.4646 12.9046Z" transform="translate(27.5352 35.0908)" fill="#465861"/>
<path id="&#60;&#208;&#154;&#208;&#190;&#208;&#189;&#209;&#130;&#209;&#131;&#209;&#128;&#62;_3" d="M 1.79569 10.4356L 1.79569 1.76892L 0 1.76892L 0 -7.50184e-09L 3.4161 -7.50184e-09L 3.4161 10.4356L 1.79569 10.4356Z" transform="translate(20 37.5645)" fill="#465861"/>
<path id="&#60;&#208;&#154;&#208;&#190;&#208;&#189;&#209;&#130;&#209;&#131;&#209;&#128;&#62;_4" d="M 5.20067e-08 1.85742L 2.36439 1.85742L 2.36439 13L 4.02862 13L 4.02862 0L 5.20067e-08 0L 5.20067e-08 1.85742Z" transform="translate(21.793 35)" fill="#465861"/>
</g>
</g>
</g>
</g>
</g>
</g>
</g>
</g>
</svg>
