<svg width="72" height="72" viewBox="0 0 72 72" version="1.1" xmlns="http://www.w3.org/2000/svg" xmlns:xlink="http://www.w3.org/1999/xlink">
<g id="Canvas" fill="none">
<g id="preimIcon-7">
<g id="server (6)">
<g id="Group">
<path id="Vector" d="M 36 9.29032L 1.16129 9.29032C 0.520258 9.29032 0 8.77006 0 8.12903L 0 1.16129C 0 0.520258 0.520258 0 1.16129 0L 36 0C 36.641 0 37.1613 0.520258 37.1613 1.16129L 37.1613 8.12903C 37.1613 8.77006 36.641 9.29032 36 9.29032Z" transform="translate(17.4219 15.0967)" fill="#FFD205"/>
<path id="Vector_2" d="M 0 1.16129L 0 8.12903C 0 8.77006 0.520258 9.29032 1.16129 9.29032L 5.45458 9.29032C 7.36955 3.88103 12.5152 0 18.5806 0L 1.16129 0C 0.520258 0 0 0.520258 0 1.16129Z" transform="translate(17.4219 29.0322)" fill="#FFD205"/>
<path id="Vector_3" d="M 17.4194 0L 0 0C 6.06542 0 11.2111 3.88103 13.1261 9.29032L 17.4194 9.29032C 18.0604 9.29032 18.5806 8.77006 18.5806 8.12903L 18.5806 1.16129C 18.5806 0.520258 18.0604 0 17.4194 0Z" transform="translate(36.0039 29.0322)" fill="#FFD205"/>
<path id="Vector_4" d="M 1.16129 0L 36 0C 36.641 0 37.1613 0.520258 37.1613 1.16129L 37.1613 8.12903C 37.1613 8.77006 36.641 9.29032 36 9.29032L 1.16129 9.29032C 0.520258 9.29032 0 8.77006 0 8.12903L 0 1.16129C 0 0.520258 0.520258 0 1.16129 0Z" transform="translate(17.4219 1.16113)" fill="#FFD205"/>
</g>
<g id="Group_2">
<path id="Vector_5" d="M 51.0968 0L 51.0968 2.32258L 69.6774 2.32258L 69.6774 5.80645C 69.6774 7.72723 68.1143 9.29032 66.1936 9.29032L 5.80645 9.29032C 3.88568 9.29032 2.32258 7.72723 2.32258 5.80645L 2.32258 2.32258L 20.9032 2.32258L 20.9032 0L 0 0L 0 5.80645C 0 9.00813 2.60477 11.6129 5.80645 11.6129L 66.1936 11.6129C 69.3952 11.6129 72 9.00813 72 5.80645L 72 0L 51.0968 0Z" transform="translate(0 60.3867)" fill="#2E4346"/>
<path id="Vector_6" d="M 0 3.48387C 0 5.40465 1.5631 6.96774 3.48387 6.96774L 22.0645 6.96774C 23.9853 6.96774 25.5484 5.40465 25.5484 3.48387L 25.5484 0L 0 0L 0 3.48387ZM 2.32258 2.32258L 23.2258 2.32258L 23.2258 3.48387C 23.2258 4.1249 22.7044 4.64516 22.0645 4.64516L 3.48387 4.64516C 2.844 4.64516 2.32258 4.1249 2.32258 3.48387L 2.32258 2.32258Z" transform="translate(23.2266 60.3867)" fill="#2E4346"/>
<path id="Vector_7" d="M 2.32258 0L 0 0L 0 2.32258L 2.32258 2.32258L 2.32258 0Z" transform="translate(6.96875 65.0322)" fill="#2E4346"/>
<path id="Vector_8" d="M 2.32258 0L 0 0L 0 2.32258L 2.32258 2.32258L 2.32258 0Z" transform="translate(11.6133 65.0322)" fill="#2E4346"/>
<path id="Vector_9" d="M 2.32258 0L 0 0L 0 2.32258L 2.32258 2.32258L 2.32258 0Z" transform="translate(16.2578 65.0322)" fill="#2E4346"/>
<path id="Vector_10" d="M 9.29032 5.80645L 9.29032 46.4516L 11.6129 46.4516L 11.6129 5.80645C 11.6129 2.60477 9.00813 0 5.80645 0L 0 0L 0 2.32258L 5.80645 2.32258C 7.72723 2.32258 9.29032 3.88568 9.29032 5.80645Z" transform="translate(58.0664 11.6133)" fill="#2E4346"/>
<path id="Vector_11" d="M 2.32258 5.80645C 2.32258 3.88568 3.88568 2.32258 5.80645 2.32258L 11.6129 2.32258L 11.6129 0L 5.80645 0C 2.60477 0 0 2.60477 0 5.80645L 0 46.4516L 2.32258 46.4516L 2.32258 5.80645Z" transform="translate(2.32422 11.6133)" fill="#2E4346"/>
<path id="Vector_12" d="M 4.64516 41.8064L 6.96774 41.8064L 6.96774 2.32258C 6.96774 1.04168 5.92606 0 4.64516 0L 0 0L 0 2.32258L 4.64516 2.32258L 4.64516 41.8064Z" transform="translate(58.0664 16.2578)" fill="#2E4346"/>
<path id="Vector_13" d="M 0 2.32258L 0 41.8064L 2.32258 41.8064L 2.32258 2.32258L 6.96774 2.32258L 6.96774 0L 2.32258 0C 1.04168 0 0 1.04168 0 2.32258Z" transform="translate(6.96875 16.2578)" fill="#2E4346"/>
<path id="Vector_14" d="M 2.32258 39.4839L 3.48387 39.4839L 3.48387 37.1613L 2.32258 37.1613L 2.32258 30.1935L 9.29032 30.1935L 9.29032 27.871L 5.80645 27.871L 5.80645 25.5484L 33.6774 25.5484L 33.6774 27.871L 30.1935 27.871L 30.1935 30.1935L 37.1613 30.1935L 37.1613 37.1613L 36 37.1613L 36 39.4839L 37.1613 39.4839C 38.4422 39.4839 39.4839 38.4422 39.4839 37.1613L 39.4839 30.1935C 39.4839 28.9126 38.4422 27.871 37.1613 27.871L 36 27.871L 36 25.5484L 37.1613 25.5484C 38.4422 25.5484 39.4839 24.5067 39.4839 23.2258L 39.4839 16.2581C 39.4839 14.9772 38.4422 13.9355 37.1613 13.9355L 36 13.9355L 36 11.6129L 37.1613 11.6129C 38.4422 11.6129 39.4839 10.5712 39.4839 9.29032L 39.4839 2.32258C 39.4839 1.04168 38.4422 0 37.1613 0L 2.32258 0C 1.04168 0 0 1.04168 0 2.32258L 0 9.29032C 0 10.5712 1.04168 11.6129 2.32258 11.6129L 3.48387 11.6129L 3.48387 13.9355L 2.32258 13.9355C 1.04168 13.9355 0 14.9772 0 16.2581L 0 23.2258C 0 24.5067 1.04168 25.5484 2.32258 25.5484L 3.48387 25.5484L 3.48387 27.871L 2.32258 27.871C 1.04168 27.871 0 28.9126 0 30.1935L 0 37.1613C 0 38.4422 1.04168 39.4839 2.32258 39.4839ZM 2.32142 2.32258L 2.32258 2.32258L 37.1613 2.32258L 37.1613 9.29032L 2.32258 9.29032L 2.32142 2.32258ZM 5.80645 11.6129L 33.6774 11.6129L 33.6774 13.9355L 5.80645 13.9355L 5.80645 11.6129ZM 2.32258 16.2581L 37.1613 16.2581L 37.1625 23.2258L 2.32258 23.2258L 2.32258 16.2581Z" transform="translate(16.2578 0)" fill="#2E4346"/>
<path id="Vector_15" d="M 15.0968 0C 6.77264 0 0 6.77264 0 15.0968C 0 23.4209 6.77264 30.1935 15.0968 30.1935C 23.4209 30.1935 30.1935 23.4209 30.1935 15.0968C 30.1935 6.77264 23.4209 0 15.0968 0ZM 15.0968 27.871C 8.05355 27.871 2.32258 22.14 2.32258 15.0968C 2.32258 8.05355 8.05355 2.32258 15.0968 2.32258C 22.14 2.32258 27.871 8.05355 27.871 15.0968C 27.871 22.14 22.14 27.871 15.0968 27.871Z" transform="translate(20.9023 27.8711)" fill="#2E4346"/>
</g>
<path id="Vector_16" d="M 11.6129 9.504L 11.6129 4.64516C 11.6129 2.08335 9.52955 0 6.96774 0C 4.40594 0 2.32258 2.08335 2.32258 4.64516L 2.32258 9.504C 0.974323 9.98477 0 11.2622 0 12.7742L 0 17.4194C 0 19.3401 1.5631 20.9032 3.48387 20.9032L 10.4516 20.9032C 12.3724 20.9032 13.9355 19.3401 13.9355 17.4194L 13.9355 12.7742C 13.9355 11.2622 12.9612 9.98477 11.6129 9.504ZM 6.96774 2.32258C 8.24864 2.32258 9.29032 3.36426 9.29032 4.64516L 9.29032 9.29032L 4.64516 9.29032L 4.64516 4.64516C 4.64516 3.36426 5.68684 2.32258 6.96774 2.32258ZM 11.6129 17.4194C 11.6129 18.0604 11.0915 18.5806 10.4516 18.5806L 3.48387 18.5806C 2.844 18.5806 2.32258 18.0604 2.32258 17.4194L 2.32258 12.7742C 2.32258 12.1332 2.844 11.6129 3.48387 11.6129L 10.4516 11.6129C 11.0915 11.6129 11.6129 12.1332 11.6129 12.7742L 11.6129 17.4194Z" transform="translate(29.0312 32.5166)" fill="#2E4346"/>
</g>
</g>
</g>
</svg>
