<svg width="72" height="72" viewBox="0 0 72 72" version="1.1" xmlns="http://www.w3.org/2000/svg" xmlns:xlink="http://www.w3.org/1999/xlink">
<g id="Canvas" fill="none">
<g id="preimIcon-3">
<g id="Group">
<path id="Vector" d="M 13.9355 27.871C 21.6318 27.871 27.871 21.6318 27.871 13.9355C 27.871 6.23913 21.6318 0 13.9355 0C 6.23913 0 0 6.23913 0 13.9355C 0 21.6318 6.23913 27.871 13.9355 27.871Z" transform="translate(22.0664 19.7422)" fill="#FFD205"/>
<path id="Vector_2" d="M 11.6129 0L 0 0L 0 18.5806L 11.6129 18.5806L 11.6129 0Z" transform="translate(5.80859 52.2588)" fill="#FFD205"/>
<path id="Vector_3" d="M 11.6129 0L 0 0L 0 18.5806L 11.6129 18.5806L 11.6129 0Z" transform="translate(54.582 52.2588)" fill="#FFD205"/>
</g>
<g id="Group_2">
<path id="Vector_4" d="M 2.32258 0L 0 0L 0 2.32258L 2.32258 2.32258L 2.32258 0Z" transform="translate(4.64453 46.4512)" fill="#2E4346"/>
<path id="Vector_5" d="M 2.32258 0L 0 0L 0 2.32258L 2.32258 2.32258L 2.32258 0Z" transform="translate(10.4531 46.4512)" fill="#2E4346"/>
<path id="Vector_6" d="M 2.32258 0L 0 0L 0 2.32258L 2.32258 2.32258L 2.32258 0Z" transform="translate(16.2578 46.4512)" fill="#2E4346"/>
<path id="Vector_7" d="M 2.32258 0L 0 0L 0 2.32258L 2.32258 2.32258L 2.32258 0Z" transform="translate(53.418 46.4512)" fill="#2E4346"/>
<path id="Vector_8" d="M 2.32258 0L 0 0L 0 2.32258L 2.32258 2.32258L 2.32258 0Z" transform="translate(59.2266 46.4512)" fill="#2E4346"/>
<path id="Vector_9" d="M 2.32258 0L 0 0L 0 2.32258L 2.32258 2.32258L 2.32258 0Z" transform="translate(65.0312 46.4512)" fill="#2E4346"/>
</g>
<g id="Group_3">
<path id="Vector_10" d="M 37.1613 18.5806C 37.1613 8.33574 28.8255 0 18.5806 0C 8.33574 0 0 8.33574 0 18.5806C 0 28.8255 8.33574 37.1613 18.5806 37.1613C 28.8255 37.1613 37.1613 28.8255 37.1613 18.5806ZM 19.7419 33.8504L 19.7419 27.9186C 21.3457 28.0486 22.7973 28.4377 24.0654 28.9289C 22.6556 31.3235 20.9717 32.9052 19.7419 33.8504ZM 19.7419 25.5948L 19.7419 19.7419L 26.6586 19.7419C 26.5239 22.536 25.9328 24.8841 25.1013 26.8316C 23.5579 26.2161 21.7591 25.733 19.7419 25.5948ZM 19.7419 17.4194L 19.7419 11.5665C 21.7591 11.4283 23.5579 10.9452 25.1025 10.3297C 25.9328 12.2772 26.525 14.6253 26.6597 17.4194L 19.7419 17.4194ZM 19.7419 9.24271L 19.7419 3.31084C 20.9729 4.25729 22.6579 5.84129 24.0677 8.23935C 22.8019 8.7271 21.3503 9.11381 19.7419 9.24271ZM 22.7868 2.89393C 24.8899 3.45832 26.8235 4.43148 28.5004 5.72865C 27.9557 6.15484 27.1672 6.70877 26.172 7.2569C 25.1152 5.41742 23.9098 3.98206 22.7868 2.89393ZM 17.4194 3.31084L 17.4194 9.24387C 15.8156 9.1138 14.3628 8.72477 13.0959 8.23355C 14.5057 5.83781 16.1895 4.25613 17.4194 3.31084ZM 10.9916 7.2511C 9.99871 6.70413 9.20903 6.15135 8.66322 5.72748C 10.339 4.43148 12.2714 3.45948 14.3745 2.8951C 13.2526 3.9809 12.0495 5.41393 10.9916 7.2511ZM 17.4194 11.5665L 17.4194 17.4194L 10.5027 17.4194C 10.6374 14.6253 11.2285 12.2772 12.06 10.3297C 13.6034 10.9452 15.4022 11.4283 17.4194 11.5665ZM 17.4194 19.7419L 17.4194 25.5948C 15.4022 25.733 13.6034 26.2161 12.0588 26.8316C 11.2285 24.8841 10.6363 22.536 10.5015 19.7419L 17.4194 19.7419ZM 17.4194 27.9186L 17.4194 33.8504C 16.1884 32.904 14.5034 31.32 13.0935 28.9231C 14.3594 28.4342 15.811 28.0475 17.4194 27.9186ZM 14.3745 34.2674C 12.2714 33.703 10.3378 32.7298 8.6609 31.4326C 9.20555 31.0065 9.99406 30.4525 10.9881 29.9044C 12.0461 31.7439 13.2515 33.1792 14.3745 34.2674ZM 26.1697 29.9114C 27.1626 30.4583 27.9523 31.0099 28.4981 31.435C 26.8223 32.731 24.8899 33.703 22.788 34.2674C 23.9086 33.1804 25.1117 31.7474 26.1697 29.9114ZM 27.209 27.8187C 28.1659 25.6018 28.843 22.9262 28.9812 19.7419L 34.7806 19.7419C 34.5019 23.6625 32.8355 27.1997 30.2609 29.8637C 29.6175 29.333 28.5817 28.5666 27.209 27.8187ZM 34.7795 17.4194L 28.98 17.4194C 28.8418 14.2351 28.1648 11.5606 27.2079 9.34258C 28.5805 8.59471 29.6175 7.82826 30.2597 7.29639C 32.8355 9.96155 34.5008 13.4988 34.7795 17.4194ZM 6.90155 7.29639C 7.54374 7.8271 8.57961 8.59471 9.95342 9.34258C 8.99652 11.5595 8.31948 14.2351 8.18129 17.4194L 2.38181 17.4194C 2.66052 13.4988 4.32581 9.96155 6.90155 7.29639ZM 2.38181 19.7419L 8.18129 19.7419C 8.31948 22.9262 8.99652 25.6006 9.95342 27.8187C 8.58077 28.5666 7.54374 29.333 6.90155 29.8649C 4.32581 27.1997 2.66052 23.6625 2.38181 19.7419Z" transform="translate(17.418 15.0967)" fill="#2E4346"/>
<path id="Vector_11" d="M 20.9032 36C 20.9032 36.641 20.383 37.1613 19.7419 37.1613L 18.5806 37.1613L 18.5806 18.5806L 4.64516 18.5806L 4.64516 37.1613L 3.48387 37.1613C 2.84284 37.1613 2.32258 36.641 2.32258 36L 2.32258 3.48387C 2.32258 2.844 2.84284 2.32258 3.48387 2.32258L 15.0968 2.32258L 15.0968 0L 3.48387 0C 1.5631 0 0 1.5631 0 3.48387L 0 36C 0 37.9208 1.5631 39.4839 3.48387 39.4839L 19.7419 39.4839C 21.6627 39.4839 23.2258 37.9208 23.2258 36L 23.2258 17.4194L 20.9032 17.4194L 20.9032 36ZM 6.96774 20.9032L 16.2581 20.9032L 16.2581 37.1613L 6.96774 37.1613L 6.96774 20.9032Z" transform="translate(0 32.5166)" fill="#2E4346"/>
<path id="Vector_12" d="M 10.4516 2.32258L 10.4516 0L 0 0L 0 6.96774L 12.7742 6.96774L 12.7742 4.64516L 2.32258 4.64516L 2.32258 2.32258L 10.4516 2.32258Z" transform="translate(4.64453 37.1611)" fill="#2E4346"/>
<path id="Vector_13" d="M 4.64516 0L 0 0L 0 2.32258L 4.64516 2.32258L 4.64516 0Z" transform="translate(9.28906 55.7422)" fill="#2E4346"/>
<path id="Vector_14" d="M 4.64516 0L 0 0L 0 2.32258L 4.64516 2.32258L 4.64516 0Z" transform="translate(9.28906 60.3867)" fill="#2E4346"/>
<path id="Vector_15" d="M 4.64516 0L 0 0L 0 2.32258L 4.64516 2.32258L 4.64516 0Z" transform="translate(9.28906 65.0322)" fill="#2E4346"/>
<path id="Vector_16" d="M 19.7419 0L 8.12903 0L 8.12903 2.32258L 19.7419 2.32258C 20.383 2.32258 20.9032 2.844 20.9032 3.48387L 20.9032 36C 20.9032 36.641 20.383 37.1613 19.7419 37.1613L 18.5806 37.1613L 18.5806 18.5806L 4.64516 18.5806L 4.64516 37.1613L 3.48387 37.1613C 2.84284 37.1613 2.32258 36.641 2.32258 36L 2.32258 17.4194L 0 17.4194L 0 36C 0 37.9208 1.5631 39.4839 3.48387 39.4839L 19.7419 39.4839C 21.6627 39.4839 23.2258 37.9208 23.2258 36L 23.2258 3.48387C 23.2258 1.5631 21.6627 0 19.7419 0ZM 6.96774 20.9032L 16.2581 20.9032L 16.2581 37.1613L 6.96774 37.1613L 6.96774 20.9032Z" transform="translate(48.7734 32.5166)" fill="#2E4346"/>
<path id="Vector_17" d="M 0 4.64516L 0 6.96774L 12.7742 6.96774L 12.7742 0L 2.32258 0L 2.32258 2.32258L 10.4516 2.32258L 10.4516 4.64516L 0 4.64516Z" transform="translate(54.582 37.1611)" fill="#2E4346"/>
<path id="Vector_18" d="M 4.64516 0L 0 0L 0 2.32258L 4.64516 2.32258L 4.64516 0Z" transform="translate(58.0664 55.7422)" fill="#2E4346"/>
<path id="Vector_19" d="M 4.64516 0L 0 0L 0 2.32258L 4.64516 2.32258L 4.64516 0Z" transform="translate(58.0664 60.3867)" fill="#2E4346"/>
<path id="Vector_20" d="M 4.64516 0L 0 0L 0 2.32258L 4.64516 2.32258L 4.64516 0Z" transform="translate(58.0664 65.0322)" fill="#2E4346"/>
<path id="Vector_21" d="M 6.5311 29.4271L 7.40439 27.2741C 4.31768 26.0234 2.32258 23.0667 2.32258 19.7419C 2.32258 15.2594 5.97019 11.6129 10.4516 11.6129C 11.2123 11.6129 11.9787 11.7244 12.7301 11.9427L 13.8461 12.2679L 14.1701 11.1519C 14.8866 8.68877 17.1778 6.96774 19.7419 6.96774C 20.6675 6.96774 21.557 7.18374 22.3874 7.6111L 23.4662 8.16503L 23.9737 7.06297C 25.2987 4.18413 28.1961 2.32258 31.3548 2.32258C 35.8363 2.32258 39.4839 5.96903 39.4781 10.548L 39.4165 12.2737L 40.9215 11.8835C 46.2728 10.4946 51.0968 14.5939 51.0968 19.7419C 51.0968 23.0667 49.1017 26.0234 46.015 27.2741L 46.8883 29.4271C 50.8552 27.8199 53.4194 24.0178 53.4194 19.7419C 53.4194 13.5778 48.024 8.60168 41.7507 9.36581C 41.2049 4.11097 36.7514 0 31.3548 0C 27.6712 0 24.2652 1.9649 22.392 5.0911C 21.5419 4.79497 20.6547 4.64516 19.7419 4.64516C 16.524 4.64516 13.615 6.57871 12.3225 9.46219C 11.7023 9.34839 11.0752 9.29032 10.4516 9.29032C 4.68813 9.29032 0 13.9796 0 19.7419C 0 24.0178 2.56413 27.8199 6.5311 29.4271Z" transform="translate(9.28906 0)" fill="#2E4346"/>
</g>
</g>
</g>
</svg>
