<svg width="70" height="72" viewBox="0 0 70 72" version="1.1" xmlns="http://www.w3.org/2000/svg" xmlns:xlink="http://www.w3.org/1999/xlink">
<g id="Canvas" fill="none">
<g id="preimIcon-2">
<g id="Group">
<path id="Vector" d="M 2.32941 0L 27.9529 0C 29.2399 0 30.2824 1.03935 30.2824 2.32258L 30.2824 6.96774C 30.2824 8.25097 29.2399 9.29032 27.9529 9.29032L 2.32941 9.29032C 1.04241 9.29032 0 8.25097 0 6.96774L 0 2.32258C 0 1.03935 1.04241 0 2.32941 0Z" transform="translate(19.8008 29.0322)" fill="#FFD205"/>
<path id="Vector_2" d="M 2.32941 0L 27.9529 0C 29.2399 0 30.2824 1.03935 30.2824 2.32258L 30.2824 6.96774C 30.2824 8.25097 29.2399 9.29032 27.9529 9.29032L 2.32941 9.29032C 1.04241 9.29032 0 8.25097 0 6.96774L 0 2.32258C 0 1.03935 1.04241 0 2.32941 0Z" transform="translate(19.8008 15.0967)" fill="#FFD205"/>
<path id="Vector_3" d="M 2.32941 0L 27.9529 0C 29.2399 0 30.2824 1.03935 30.2824 2.32258L 30.2824 6.96774C 30.2824 8.25097 29.2399 9.29032 27.9529 9.29032L 2.32941 9.29032C 1.04241 9.29032 0 8.25097 0 6.96774L 0 2.32258C 0 1.03935 1.04241 0 2.32941 0Z" transform="translate(19.8008 1.16113)" fill="#FFD205"/>
</g>
<g id="Group_2">
<path id="Vector_4" d="M 9.31765 0L 0 0L 0 2.32258L 9.31765 2.32258L 9.31765 0Z" transform="translate(55.9062 55.7422)" fill="#2E4346"/>
<path id="Vector_5" d="M 9.31765 0L 0 0L 0 2.32258L 9.31765 2.32258L 9.31765 0Z" transform="translate(55.9062 60.3877)" fill="#2E4346"/>
<path id="Vector_6" d="M 9.31765 0L 0 0L 0 2.32258L 9.31765 2.32258L 9.31765 0Z" transform="translate(55.9062 65.0322)" fill="#2E4346"/>
<path id="Vector_7" d="M 9.31765 0L 0 0L 0 2.32258L 9.31765 2.32258L 9.31765 0Z" transform="translate(30.2812 55.7422)" fill="#2E4346"/>
<path id="Vector_8" d="M 9.31765 0L 0 0L 0 2.32258L 9.31765 2.32258L 9.31765 0Z" transform="translate(30.2812 60.3877)" fill="#2E4346"/>
<path id="Vector_9" d="M 9.31765 0L 0 0L 0 2.32258L 9.31765 2.32258L 9.31765 0Z" transform="translate(30.2812 65.0322)" fill="#2E4346"/>
<path id="Vector_10" d="M 9.31765 0L 0 0L 0 2.32258L 9.31765 2.32258L 9.31765 0Z" transform="translate(4.65625 55.7422)" fill="#2E4346"/>
<path id="Vector_11" d="M 9.31765 0L 0 0L 0 2.32258L 9.31765 2.32258L 9.31765 0Z" transform="translate(4.65625 60.3877)" fill="#2E4346"/>
<path id="Vector_12" d="M 9.31765 0L 0 0L 0 2.32258L 9.31765 2.32258L 9.31765 0Z" transform="translate(4.65625 65.0322)" fill="#2E4346"/>
</g>
<g id="Group_3">
<path id="Vector_13" d="M 3.49412 39.4839L 29.1176 39.4839C 31.0441 39.4839 32.6118 37.9208 32.6118 36L 32.6118 31.3548C 32.6118 29.4341 31.0441 27.871 29.1176 27.871L 29.1176 25.5484C 31.0441 25.5484 32.6118 23.9853 32.6118 22.0645L 32.6118 17.4194C 32.6118 15.4986 31.0441 13.9355 29.1176 13.9355L 29.1176 11.6129C 31.0441 11.6129 32.6118 10.0498 32.6118 8.12903L 32.6118 3.48387C 32.6118 1.5631 31.0441 0 29.1176 0L 3.49412 0C 1.56769 0 0 1.5631 0 3.48387L 0 8.12903C 0 10.0498 1.56769 11.6129 3.49412 11.6129L 3.49412 13.9355C 1.56769 13.9355 0 15.4986 0 17.4194L 0 22.0645C 0 23.9853 1.56769 25.5484 3.49412 25.5484L 3.49412 27.871C 1.56769 27.871 0 29.4341 0 31.3548L 0 36C 0 37.9208 1.56769 39.4839 3.49412 39.4839ZM 2.32941 8.12903L 2.32941 3.48387C 2.32941 2.844 2.85236 2.32258 3.49412 2.32258L 29.1176 2.32258C 29.7594 2.32258 30.2824 2.844 30.2824 3.48387L 30.2824 8.12903C 30.2824 8.7689 29.7594 9.29032 29.1176 9.29032L 3.49412 9.29032C 2.85236 9.29032 2.32941 8.7689 2.32941 8.12903ZM 5.82353 11.6129L 26.7882 11.6129L 26.7882 13.9355L 5.82353 13.9355L 5.82353 11.6129ZM 2.32941 22.0645L 2.32941 17.4194C 2.32941 16.7795 2.85236 16.2581 3.49412 16.2581L 29.1176 16.2581C 29.7594 16.2581 30.2824 16.7795 30.2824 17.4194L 30.2824 22.0645C 30.2824 22.7044 29.7594 23.2258 29.1176 23.2258L 3.49412 23.2258C 2.85236 23.2258 2.32941 22.7044 2.32941 22.0645ZM 5.82353 25.5484L 26.7882 25.5484L 26.7882 27.871L 5.82353 27.871L 5.82353 25.5484ZM 2.32941 31.3548C 2.32941 30.715 2.85236 30.1935 3.49412 30.1935L 29.1176 30.1935C 29.7594 30.1935 30.2824 30.715 30.2824 31.3548L 30.2824 36C 30.2824 36.6399 29.7594 37.1613 29.1176 37.1613L 3.49412 37.1613C 2.85236 37.1613 2.32941 36.6399 2.32941 36L 2.32941 31.3548Z" transform="translate(18.6328 0)" fill="#2E4346"/>
<path id="Vector_14" d="M 2.32941 0L 0 0L 0 2.32258L 2.32941 2.32258L 2.32941 0Z" transform="translate(23.293 4.64551)" fill="#2E4346"/>
<path id="Vector_15" d="M 2.32941 0L 0 0L 0 2.32258L 2.32941 2.32258L 2.32941 0Z" transform="translate(27.9531 4.64551)" fill="#2E4346"/>
<path id="Vector_16" d="M 2.32941 0L 0 0L 0 2.32258L 2.32941 2.32258L 2.32941 0Z" transform="translate(44.2578 18.5811)" fill="#2E4346"/>
<path id="Vector_17" d="M 2.32941 0L 0 0L 0 2.32258L 2.32941 2.32258L 2.32941 0Z" transform="translate(39.6016 18.5811)" fill="#2E4346"/>
<path id="Vector_18" d="M 2.32941 0L 0 0L 0 2.32258L 2.32941 2.32258L 2.32941 0Z" transform="translate(23.293 32.5156)" fill="#2E4346"/>
<path id="Vector_19" d="M 2.32941 0L 0 0L 0 2.32258L 2.32941 2.32258L 2.32941 0Z" transform="translate(27.9531 32.5156)" fill="#2E4346"/>
<path id="Vector_20" d="M 0 0L 0 20.9032L 18.6353 20.9032L 18.6353 0L 0 0ZM 16.3059 18.5806L 2.32941 18.5806L 2.32941 2.32258L 16.3059 2.32258L 16.3059 18.5806Z" transform="translate(51.25 51.0967)" fill="#2E4346"/>
<path id="Vector_21" d="M 0 20.9032L 18.6353 20.9032L 18.6353 0L 0 0L 0 20.9032ZM 2.32941 2.32258L 16.3059 2.32258L 16.3059 18.5806L 2.32941 18.5806L 2.32941 2.32258Z" transform="translate(0 51.0967)" fill="#2E4346"/>
<path id="Vector_22" d="M 0 20.9032L 18.6353 20.9032L 18.6353 0L 0 0L 0 20.9032ZM 2.32941 2.32258L 16.3059 2.32258L 16.3059 18.5806L 2.32941 18.5806L 2.32941 2.32258Z" transform="translate(25.625 51.0967)" fill="#2E4346"/>
<path id="Vector_23" d="M 2.32941 4.64516L 26.7882 4.64516L 26.7882 6.96774L 29.1176 6.96774L 29.1176 4.64516L 52.4118 4.64516L 52.4118 6.96774L 54.7412 6.96774L 54.7412 2.32258L 29.1176 2.32258L 29.1176 0L 26.7882 0L 26.7882 2.32258L 0 2.32258L 0 6.96774L 2.32941 6.96774L 2.32941 4.64516Z" transform="translate(6.98828 41.8066)" fill="#2E4346"/>
<path id="Vector_24" d="M 2.32941 0L 0 0L 0 2.32258L 2.32941 2.32258L 2.32941 0Z" transform="translate(53.5742 4.64551)" fill="#2E4346"/>
<path id="Vector_25" d="M 2.32941 0L 0 0L 0 2.32258L 2.32941 2.32258L 2.32941 0Z" transform="translate(58.2344 4.64551)" fill="#2E4346"/>
<path id="Vector_26" d="M 2.32941 0L 0 0L 0 2.32258L 2.32941 2.32258L 2.32941 0Z" transform="translate(58.2344 9.29004)" fill="#2E4346"/>
<path id="Vector_27" d="M 2.32941 0L 0 0L 0 2.32258L 2.32941 2.32258L 2.32941 0Z" transform="translate(53.5742 18.5811)" fill="#2E4346"/>
<path id="Vector_28" d="M 2.32941 0L 0 0L 0 2.32258L 2.32941 2.32258L 2.32941 0Z" transform="translate(58.2344 18.5811)" fill="#2E4346"/>
<path id="Vector_29" d="M 2.32941 0L 0 0L 0 2.32258L 2.32941 2.32258L 2.32941 0Z" transform="translate(58.2344 13.9355)" fill="#2E4346"/>
<path id="Vector_30" d="M 2.32941 0L 0 0L 0 2.32258L 2.32941 2.32258L 2.32941 0Z" transform="translate(13.9766 32.5156)" fill="#2E4346"/>
<path id="Vector_31" d="M 2.32941 0L 0 0L 0 2.32258L 2.32941 2.32258L 2.32941 0Z" transform="translate(9.31641 32.5156)" fill="#2E4346"/>
<path id="Vector_32" d="M 2.32941 0L 0 0L 0 2.32258L 2.32941 2.32258L 2.32941 0Z" transform="translate(9.31641 27.8711)" fill="#2E4346"/>
<path id="Vector_33" d="M 2.32941 0L 0 0L 0 2.32258L 2.32941 2.32258L 2.32941 0Z" transform="translate(13.9766 18.5811)" fill="#2E4346"/>
<path id="Vector_34" d="M 2.32941 0L 0 0L 0 2.32258L 2.32941 2.32258L 2.32941 0Z" transform="translate(9.31641 18.5811)" fill="#2E4346"/>
<path id="Vector_35" d="M 2.32941 0L 0 0L 0 2.32258L 2.32941 2.32258L 2.32941 0Z" transform="translate(9.31641 23.2256)" fill="#2E4346"/>
</g>
</g>
</g>
</svg>
