<svg width="72" height="72" viewBox="0 0 72 72" version="1.1" xmlns="http://www.w3.org/2000/svg" xmlns:xlink="http://www.w3.org/1999/xlink">
<g id="Canvas" fill="none">
<g id="preimIcon-4">
<g id="people (1)">
<g id="Group">
<path id="Vector" d="M 2.30084 20.5514L -5.31941e-08 20.2215L 2.26133 4.40361L 0.183604 1.28903L 2.11724 -3.54398e-07L 4.68768 3.85316L 2.30084 20.5514Z" transform="translate(29.7852 50.4512)" fill="#FFD205"/>
<path id="Vector_2" d="M 2.38684 20.5514L -1.04615e-06 3.85316L 2.57044 -3.54398e-07L 4.50408 1.28903L 2.42634 4.40361L 4.68768 20.2215L 2.38684 20.5514Z" transform="translate(36.6953 50.4512)" fill="#FFD205"/>
</g>
<path id="Vector_3" d="M 30.2131 19.7419C 27.3289 19.7419 24.6574 18.2299 23.1735 15.7587L 22.0788 13.9355C 18.3591 17.6528 13.3124 19.7419 8.0518 19.7419L 2.32409 19.7419L -3.19165e-07 19.7419L -3.19165e-07 16.2581C -3.19165e-07 7.27897 7.28369 0 16.2686 0L 17.1053 0C 22.1125 0 26.5132 3.31781 27.889 8.12903C 30.456 8.12903 32.5372 10.2089 32.5372 12.7742L 32.5372 19.7419L 30.2131 19.7419Z" transform="translate(19.3164 1.16113)" fill="#FFD205"/>
<g id="Group_2">
<path id="Vector_4" d="M 60.6087 14.8343C 59.8289 10.1555 56.5462 6.31626 52.0421 4.81587L 42.0439 1.48529L 42.0439 0L 39.7198 0L 39.7198 2.17858L 37.9849 9.11265L 33.2914 3.48387L 29.8784 3.48387L 25.185 9.11265L 23.4512 2.17858L 23.4512 0L 21.1271 0L 21.1271 1.48529L 11.1289 4.81587C 6.62597 6.31626 3.3432 10.1555 2.5623 14.8343L -3.54627e-08 30.1936L 63.1698 30.1936L 60.6087 14.8343ZM 52.3919 27.871L 51.3344 17.3032L 49.0219 17.5343L 50.0562 27.8698L 13.1148 27.8698L 14.149 17.5343L 11.8366 17.3032L 10.7791 27.871L 2.74475 27.871L 4.85501 15.2175C 5.49298 11.3888 8.17962 8.24864 11.8645 7.02L 21.4664 3.82065L 24.0415 14.1132L 30.9673 5.80645L 32.2025 5.80645L 39.1295 14.1132L 41.7046 3.82065L 51.3065 7.02C 54.9914 8.24748 57.6768 11.3888 58.316 15.2175L 60.4262 27.871L 52.3919 27.871Z" transform="translate(4 41.8066)" fill="#2E4346"/>
<path id="Vector_5" d="M 5.16179 31.2898C 5.75444 33.3279 6.84908 35.1964 8.39227 36.7386L 12.9242 41.2676C 14.0212 42.3639 15.4796 42.9677 17.0321 42.9677L 22.4786 42.9677C 24.0299 42.9677 25.4894 42.3639 26.5864 41.2676L 31.1183 36.7386C 32.6615 35.1964 33.7562 33.3267 34.3488 31.2898C 37.2435 30.9623 39.5095 28.5283 39.5095 25.5484C 39.5095 23.6427 38.5729 21.9623 37.1493 20.9032L 37.1854 20.9032L 37.1854 13.9355C 37.1854 11.0288 35.0356 8.61329 32.242 8.19407C 30.4932 3.33058 25.8136 0 20.5914 0L 19.7547 0C 10.1435 0 2.32409 7.81432 2.32409 17.4194L 2.32409 20.9032L 2.36011 20.9032C 0.936606 21.9623 -3.19165e-07 23.6427 -3.19165e-07 25.5484C -3.19165e-07 28.5283 2.26598 30.9623 5.16179 31.2898ZM 29.4741 35.0965L 24.9421 39.6255C 24.2937 40.2736 23.3954 40.6452 22.4774 40.6452L 17.0309 40.6452C 16.1129 40.6452 15.2158 40.2736 14.5662 39.6255L 10.0342 35.0965C 8.05877 33.1223 6.9711 30.4978 6.9711 27.7061L 6.9711 22.0645L 11.5368 22.0645C 16.6509 22.0645 21.4862 20.2494 25.307 16.9246L 25.6626 17.5169C 27.1453 19.987 29.7111 21.629 32.5372 21.9867L 32.5372 27.7049C 32.5372 30.4978 31.4495 33.1223 29.4741 35.0965ZM 34.8067 28.8348C 34.8392 28.4621 34.8613 28.0858 34.8613 27.7061L 34.8613 22.2782C 36.2104 22.759 37.1854 24.0364 37.1854 25.5484C 37.1854 27.0801 36.1837 28.3703 34.8067 28.8348ZM 4.64817 17.4194C 4.64817 9.09523 11.4252 2.32258 19.7547 2.32258L 20.5914 2.32258C 25.056 2.32258 29.0313 5.31871 30.2584 9.60968L 30.499 10.4516L 31.3752 10.4516C 33.2972 10.4516 34.8613 12.0147 34.8613 13.9355L 34.8613 19.8592C 34.4859 19.7826 34.0967 19.7419 33.6992 19.7419C 31.238 19.7419 28.9221 18.432 27.6555 16.3219L 25.795 13.2236L 24.7422 14.2757C 21.2154 17.8003 16.5266 19.7419 11.5379 19.7419L 5.81021 19.7419C 5.4128 19.7419 5.02351 19.7826 4.64817 19.8592L 4.64817 17.4194ZM 4.64817 22.2782L 4.64817 27.7061C 4.64817 28.0858 4.67025 28.4621 4.70279 28.836C 3.32577 28.3703 2.32409 27.0801 2.32409 25.5484C 2.32409 24.0364 3.29904 22.759 4.64817 22.2782Z" transform="translate(15.832 0)" fill="#2E4346"/>
</g>
</g>
</g>
</g>
</svg>
