<svg width="72" height="72" viewBox="0 0 72 72" version="1.1" xmlns="http://www.w3.org/2000/svg" xmlns:xlink="http://www.w3.org/1999/xlink">
<g id="Canvas" fill="none">
<g id="preimIcon-6">
<g id="005-clock">
<path id="Vector" d="M 18.5807 37.1613C 28.8426 37.1613 37.1615 28.8425 37.1615 18.5807C 37.1615 8.31884 28.8426 0 18.5807 0C 8.31888 0 0 8.31884 0 18.5807C 0 28.8425 8.31888 37.1613 18.5807 37.1613Z" transform="translate(17.418 17.4199)" fill="#FFD205"/>
<g id="Group">
<path id="Vector_2" d="M 25.5485 0C 11.4608 0 0 11.4608 0 25.5484C 0 39.636 11.4608 51.0968 25.5485 51.0968C 39.6362 51.0968 51.097 39.636 51.097 25.5484C 51.097 11.4608 39.6362 0 25.5485 0ZM 25.5485 48.7742C 12.7417 48.7742 2.32259 38.3551 2.32259 25.5484C 2.32259 12.7417 12.7417 2.32258 25.5485 2.32258C 38.3553 2.32258 48.7744 12.7417 48.7744 25.5484C 48.7744 38.3551 38.3553 48.7742 25.5485 48.7742Z" transform="translate(10.4492 10.4512)" fill="#2E4346"/>
<path id="Vector_3" d="M 15.0968 15.0968L 0 15.0968L 0 17.4194L 17.4194 17.4194L 17.4194 0L 15.0968 0L 15.0968 15.0968Z" transform="translate(19.7383 19.7422)" fill="#2E4346"/>
<path id="Vector_4" d="M 1.1613 2.32258C 1.80266 2.32258 2.32259 1.80265 2.32259 1.16129C 2.32259 0.519928 1.80266 0 1.1613 0C 0.51993 0 0 0.519928 0 1.16129C 0 1.80265 0.51993 2.32258 1.1613 2.32258Z" transform="translate(34.8398 15.0967)" fill="#2E4346"/>
<path id="Vector_5" d="M 1.1613 2.32258C 1.80266 2.32258 2.32259 1.80265 2.32259 1.16129C 2.32259 0.519928 1.80266 0 1.1613 0C 0.51993 0 0 0.519928 0 1.16129C 0 1.80265 0.51993 2.32258 1.1613 2.32258Z" transform="translate(34.8398 54.5801)" fill="#2E4346"/>
<path id="Vector_6" d="M 1.1613 2.32258C 1.80266 2.32258 2.32259 1.80265 2.32259 1.16129C 2.32259 0.519928 1.80266 0 1.1613 0C 0.51993 0 0 0.519928 0 1.16129C 0 1.80265 0.51993 2.32258 1.1613 2.32258Z" transform="translate(54.5781 34.8389)" fill="#2E4346"/>
<path id="Vector_7" d="M 1.1613 2.32258C 1.80266 2.32258 2.32259 1.80265 2.32259 1.16129C 2.32259 0.519928 1.80266 0 1.1613 0C 0.51993 0 0 0.519928 0 1.16129C 0 1.80265 0.51993 2.32258 1.1613 2.32258Z" transform="translate(15.0938 34.8389)" fill="#2E4346"/>
<path id="Vector_8" d="M 8.21152 49.5047L 6.86907 52.862C 3.89383 47.7418 2.32259 41.9598 2.32259 36C 2.32259 17.431 17.4311 2.32258 36.0002 2.32258C 43.6798 2.32258 51.1957 4.98194 57.1648 9.81059L 58.6257 8.00478C 52.2444 2.84284 44.2094 0 36.0002 0C 16.149 0 0 16.1489 0 36C 0 42.4208 1.70943 48.6465 4.93899 54.1522L 1.38891 53.4426L 0.933682 55.7188L 7.68662 57.0693L 10.3692 50.3664L 8.21152 49.5047Z" fill="#2E4346"/>
<path id="Vector_9" d="M 1.1613 2.32258C 1.80266 2.32258 2.32259 1.80265 2.32259 1.16129C 2.32259 0.519928 1.80266 0 1.1613 0C 0.51993 0 0 0.519928 0 1.16129C 0 1.80265 0.51993 2.32258 1.1613 2.32258Z" transform="translate(9.28906 58.0645)" fill="#2E4346"/>
<path id="Vector_10" d="M 53.6867 2.91833L 57.2368 3.62787L 57.6932 1.35058L 50.9403 -6.20196e-08L 48.2577 6.70297L 50.4142 7.56465L 51.7566 4.20736C 54.7319 9.32865 56.3031 15.1107 56.3031 21.0705C 56.3031 39.6395 41.1947 54.7479 22.6255 54.7479C 14.9459 54.7479 7.42997 52.0886 1.46091 47.2599L 2.3036e-07 49.0657C 6.38132 54.2277 14.4163 57.0705 22.6255 57.0705C 42.4767 57.0705 58.6257 40.9216 58.6257 21.0705C 58.6257 14.6497 56.9163 8.42401 53.6867 2.91833Z" transform="translate(13.3711 14.9297)" fill="#2E4346"/>
<path id="Vector_11" d="M 1.1613 2.32258C 1.80266 2.32258 2.32259 1.80265 2.32259 1.16129C 2.32259 0.519928 1.80266 0 1.1613 0C 0.51993 0 0 0.519928 0 1.16129C 0 1.80265 0.51993 2.32258 1.1613 2.32258Z" transform="translate(60.3906 11.6133)" fill="#2E4346"/>
</g>
</g>
</g>
</g>
</svg>
