<svg width="73" height="72" viewBox="0 0 73 72" version="1.1" xmlns="http://www.w3.org/2000/svg" xmlns:xlink="http://www.w3.org/1999/xlink">
<g id="Canvas" fill="none">
<g id="preimIcon-5">
<path id="Vector" d="M 31.5825 33.8301L 33.6135 27.7599L 4.46516 27.7599C 2.00323 27.7599 6.37916e-07 25.7647 6.37916e-07 23.3126L 6.37916e-07 8.09665L 2.32258 8.09665L 2.32258 23.3126C 2.32258 24.49 3.28297 25.4466 4.46516 25.4466L 36.8373 25.4466L 35.7724 28.6297L 41.0981 25.4466L 44.3102 25.4466C 45.4912 25.4466 46.4516 24.49 46.4516 23.3126L 46.4516 4.44737C 46.4516 3.26989 45.4912 2.31333 44.309 2.31333L 19.7419 2.31333L 19.7419 0L 44.309 0C 46.771 0 48.7742 1.99525 48.7742 4.44737L 48.7742 23.3137C 48.7742 25.7647 46.771 27.7599 44.309 27.7599L 41.7414 27.7599L 31.5825 33.8301Z" transform="translate(23.2266 38.1699)" fill="#2E4346"/>
<path id="Vector_2" d="M 26.7097 6.93998L 44.129 6.93998L 44.129 23.3126C 44.129 25.7647 42.1258 27.7599 39.6639 27.7599L 38.3226 27.7599L 40.6452 33.5432L 30.1935 27.7599L 4.46516 27.7599C 2.00323 27.7599 -2.35342e-09 25.7647 -2.35342e-09 23.3126L -2.35342e-09 4.44737C -2.35342e-09 1.99524 2.00323 0 4.46516 0L 24.3871 0L 24.3871 4.62665L 26.7097 6.93998Z" transform="translate(0 19.6631)" fill="#FFD205"/>
<g id="Group">
<path id="Vector_3" d="M 31.5825 33.8301L 33.6135 27.7599L 4.46516 27.7599C 2.00323 27.7599 6.37916e-07 25.7647 6.37916e-07 23.3126L 6.37916e-07 4.44737C 6.37916e-07 1.99524 2.00323 0 4.46516 0L 44.3102 0C 46.771 0 48.7742 1.99524 48.7742 4.44737L 48.7742 23.3137C 48.7742 25.7647 46.771 27.7599 44.309 27.7599L 41.7414 27.7599L 31.5825 33.8301ZM 4.46516 2.31333C 3.28297 2.31333 2.32258 3.26989 2.32258 4.44737L 2.32258 23.3137C 2.32258 24.49 3.28297 25.4466 4.46516 25.4466L 36.8373 25.4466L 35.7724 28.6297L 41.0981 25.4466L 44.3102 25.4466C 45.4912 25.4466 46.4516 24.49 46.4516 23.3126L 46.4516 4.44737C 46.4516 3.26989 45.4912 2.31333 44.309 2.31333L 4.46516 2.31333Z" transform="translate(23.2266 0)" fill="#2E4346"/>
<path id="Vector_4" d="M 37.1613 0L 0 0L 0 2.31333L 37.1613 2.31333L 37.1613 0Z" transform="translate(29.0352 6.93945)" fill="#2E4346"/>
<path id="Vector_5" d="M 37.1613 0L 0 0L 0 2.31333L 37.1613 2.31333L 37.1613 0Z" transform="translate(29.0352 12.7227)" fill="#2E4346"/>
<path id="Vector_6" d="M 31.3548 0L 0 0L 0 2.31333L 31.3548 2.31333L 31.3548 0Z" transform="translate(29.0352 18.5068)" fill="#2E4346"/>
<path id="Vector_7" d="M 2.32258 0L 0 0L 0 2.31333L 2.32258 2.31333L 2.32258 0Z" transform="translate(63.875 18.5068)" fill="#2E4346"/>
<path id="Vector_8" d="M 15.0968 0L 0 0L 0 2.31333L 15.0968 2.31333L 15.0968 0Z" transform="translate(5.80859 26.6035)" fill="#2E4346"/>
<path id="Vector_9" d="M 32.5161 0L 0 0L 0 2.31333L 32.5161 2.31333L 32.5161 0Z" transform="translate(5.80859 32.3867)" fill="#2E4346"/>
<path id="Vector_10" d="M 26.7097 0L 0 0L 0 2.31333L 26.7097 2.31333L 26.7097 0Z" transform="translate(5.80859 38.1699)" fill="#2E4346"/>
<path id="Vector_11" d="M 2.32258 0L 0 0L 0 2.31333L 2.32258 2.31333L 2.32258 0Z" transform="translate(36.0039 38.1699)" fill="#2E4346"/>
<path id="Vector_12" d="M 18.5806 0L 0 0L 0 2.31333L 18.5806 2.31333L 18.5806 0Z" transform="translate(47.6133 45.1094)" fill="#2E4346"/>
<path id="Vector_13" d="M 22.0645 0L 0 0L 0 2.31333L 22.0645 2.31333L 22.0645 0Z" transform="translate(44.1328 50.8926)" fill="#2E4346"/>
<path id="Vector_14" d="M 31.3548 0L 0 0L 0 2.31333L 31.3548 2.31333L 31.3548 0Z" transform="translate(29.0352 56.6768)" fill="#2E4346"/>
<path id="Vector_15" d="M 2.32258 0L 0 0L 0 2.31333L 2.32258 2.31333L 2.32258 0Z" transform="translate(63.875 56.6768)" fill="#2E4346"/>
</g>
</g>
</g>
</svg>
