<?xml version="1.0" encoding="utf-8"?>
<!-- Generator: Adobe Illustrator 19.2.1, SVG Export Plug-In . SVG Version: 6.00 Build 0)  -->
<svg version="1.1" id="Слой_1" xmlns="http://www.w3.org/2000/svg" xmlns:xlink="http://www.w3.org/1999/xlink" x="0px" y="0px"
	 viewBox="0 0 107.2 107.2" style="enable-background:new 0 0 107.2 107.2;" xml:space="preserve">
<style type="text/css">
	.st0{clip-path:url(#SVGID_2_);fill:#FFFFFF;}
	.st1{clip-path:url(#SVGID_4_);fill:#FFFFFF;}
	.st2{clip-path:url(#SVGID_6_);}
	.st3{fill:#FFFFFF;}
</style>
<g>
	<g id="Mask_x5F_logo">
		<g>
			<defs>
				
					<rect id="SVGID_1_" x="0.1" y="0.2" transform="matrix(2.533633e-003 -1 1 2.533633e-003 -0.21 107.0588)" width="106.9" height="106.9"/>
			</defs>
			<clipPath id="SVGID_2_">
				<use xlink:href="#SVGID_1_"  style="overflow:visible;"/>
			</clipPath>
			<path class="st0" d="M70.2,41.2c0,0,0.4-3.2,0.3-6.2c-0.1-3.1-0.7-6.1-0.7-6.1s-2.9-1.4-6.6-2c-4.3-0.8-9.5-0.8-9.5-0.8
				s-5.3,0-9.6,0.8c-3.7,0.6-6.6,2-6.6,2s-0.6,3-0.7,6.1c-0.1,3,0.3,6.2,0.3,6.2s-0.6,5.4-0.5,7.1c0.1,1.5,1.9,5.5,1.9,5.5
				s-0.3,3.8,0.7,7c0.8,2.7,3,4.9,3,4.9l2.2,3c0,0,3,7.2,5.1,9.4c1.7,1.9,4,1.6,4,1.6s2.3,0.3,4-1.6c2.1-2.3,5.1-9.4,5.1-9.4l2.2-3
				c0,0,2.2-2.2,3-4.8c1-3.2,0.7-7,0.7-7s1.8-4,1.9-5.5C70.7,46.6,70.2,41.2,70.2,41.2 M48.6,50.1c-5.3,3.1-9-0.9-9.3-1.4
				c-0.9-1.3-1-3.1-1-3.1s2.3-1.5,5.8-1.2c6.1,0.6,6.8,2.1,6.8,2.1S50.3,49.1,48.6,50.1 M68,48.7c-0.3,0.5-4,4.5-9.3,1.4
				c-1.7-1-2.3-3.6-2.3-3.6s0.6-1.6,6.8-2.1c3.5-0.3,5.8,1.2,5.8,1.2S69,47.4,68,48.7"/>
		</g>
		<g>
			<defs>
				
					<rect id="SVGID_3_" x="0.1" y="0.2" transform="matrix(2.533633e-003 -1 1 2.533633e-003 -0.21 107.0588)" width="106.9" height="106.9"/>
			</defs>
			<clipPath id="SVGID_4_">
				<use xlink:href="#SVGID_3_"  style="overflow:visible;"/>
			</clipPath>
			<path class="st1" d="M53.5,106.1c28.9,0.1,52.5-23.4,52.6-52.3S82.7,1.3,53.8,1.2S1.2,24.5,1.1,53.5S24.5,106.1,53.5,106.1
				 M53.5,107C23.9,107,0.1,83,0.1,53.5S24.2,0.1,53.7,0.1s53.4,24.1,53.3,53.6S83,107.1,53.5,107"/>
		</g>
		<g>
			<defs>
				
					<rect id="SVGID_5_" x="0.1" y="0.2" transform="matrix(2.533633e-003 -1 1 2.533633e-003 -0.21 107.0588)" width="106.9" height="106.9"/>
			</defs>
			<clipPath id="SVGID_6_">
				<use xlink:href="#SVGID_5_"  style="overflow:visible;"/>
			</clipPath>
			<g class="st2">
				<polygon class="st3" points="9.7,50.5 7.9,47.1 6.3,50.5 2.4,51.1 5.2,53.8 4.7,57.6 8,55.8 11.4,57.4 10.8,53.7 13.5,51.1 				
					"/>
				<polygon class="st3" points="104.5,51.3 100.6,50.8 99,47.2 97.3,50.7 93.4,51.2 96.1,54 95.5,57.8 98.9,56 102.2,57.9 
					101.7,54 				"/>
			</g>
		</g>
	</g>
	<g>
		<path class="st3" d="M19.8,21.8l1.3-1.5l2.5,2.2c-0.1,0.6-0.2,1.1-0.5,1.7s-0.6,1.1-1,1.5c-0.6,0.6-1.2,1.1-1.9,1.4
			c-0.7,0.3-1.4,0.4-2.2,0.2c-0.7-0.1-1.4-0.5-2-1s-1-1.1-1.3-1.9c-0.2-0.7-0.3-1.4-0.1-2.2c0.2-0.8,0.5-1.5,1.1-2.1
			c0.5-0.6,1-1,1.6-1.3s1.2-0.4,1.8-0.4v2c-0.8,0-1.5,0.3-2,0.9c-0.5,0.5-0.7,1.1-0.6,1.7c0,0.6,0.3,1.1,0.9,1.6
			c0.3,0.3,0.7,0.5,1.1,0.6s0.8,0.1,1.1-0.1c0.4-0.1,0.7-0.4,1-0.7c0.3-0.3,0.5-0.7,0.6-1.1L19.8,21.8z"/>
		<path class="st3" d="M29.1,17.2l-2.7,2l0.4,1.6l-1.9,1.4L23,13.6l1.8-1.3l7.7,4.4l-1.9,1.4L29.1,17.2z M27.6,16.2l-2.4-1.5
			l0.7,2.7L27.6,16.2z"/>
		<path class="st3" d="M39,11.8l0.7,1.7l-6.6,3l-0.6-1.3L34.3,9l-3.6,1.6L30,9l6.3-2.9l0.6,1.3l-1.7,6.1L39,11.8z"/>
		<path class="st3" d="M47.5,3.3L45.9,12l-2.2,0.5l-5.1-7.2L41,4.7l3.2,4.7l1.1-5.6L47.5,3.3z"/>
		<path class="st3" d="M57.4,11.4l0.1-4.3l-2.2,3.4h-1l-2-3.4l-0.1,4.2l-2.1-0.1l0.2-8.1l1.9,0.1L55,7.9l2.9-4.6l1.9,0.1l-0.2,8.1
			L57.4,11.4z"/>
		<path class="st3" d="M67.1,11.8l-3.3-0.9l-1,1.3l-2.2-0.6l5.6-6.8l2.2,0.6l1.2,8.8l-2.3-0.6L67.1,11.8z M66.9,10l-0.3-2.8
			l-1.7,2.2L66.9,10z"/>
		<path class="st3" d="M71.5,15.1c-0.5-0.4-0.8-0.9-1-1.3l1.5-1.1c0.2,0.4,0.5,0.7,0.8,1.1c0.4,0.4,0.7,0.6,1.1,0.9
			c0.8,0.4,1.3,0.4,1.5,0c0.1-0.2,0.1-0.4-0.1-0.6c-0.2-0.2-0.5-0.5-0.9-0.9c-0.5-0.4-0.9-0.8-1.1-1.1c-0.3-0.3-0.5-0.7-0.6-1.1
			c-0.1-0.4,0-0.9,0.2-1.4c0.2-0.4,0.6-0.8,1-1s0.9-0.3,1.5-0.3s1.2,0.3,1.9,0.6c0.5,0.2,0.9,0.5,1.3,0.9c0.4,0.3,0.7,0.7,1,1.1
			l-1.4,1.2c-0.5-0.7-1-1.3-1.7-1.6c-0.4-0.2-0.7-0.3-1-0.3c-0.2,0-0.4,0.1-0.5,0.3s-0.1,0.4,0.1,0.6c0.2,0.2,0.5,0.5,0.9,0.9
			c0.5,0.4,0.9,0.8,1.2,1.1c0.3,0.3,0.5,0.7,0.6,1.1c0.1,0.4,0,0.9-0.2,1.4c-0.2,0.4-0.6,0.8-1,1c-0.4,0.2-0.9,0.3-1.5,0.3
			s-1.2-0.2-1.9-0.6C72.5,15.9,71.9,15.6,71.5,15.1z"/>
		<path class="st3" d="M81.9,18.4l-1.2,0.2l-1.3,1.6l-1.7-1.4l5.2-6.2l1.7,1.4l-2.1,2.6l4.6-0.6l1.9,1.6l-5,0.5l-0.2,5.7l-2-1.7
			L81.9,18.4z"/>
		<path class="st3" d="M89.9,28.7l-1.4,1.1l-4-5.1l6.3-5l3.9,5l-1.4,1.1l-2.5-3.2l-1.1,0.8l2.2,2.8l-1.3,1.1l-2.2-2.8l-1.2,0.9
			L89.9,28.7z"/>
	</g>
	<g>
		<path class="st3" d="M23.3,84.8L21,82l-4.8,4.1l-1.5-1.7l6.1-5.3l3.9,4.5L23.3,84.8z"/>
		<path class="st3" d="M24.7,92.1l-2.6-2.2l-1.5,0.8l-1.8-1.5l7.9-4l1.7,1.4L26,95.2l-1.8-1.5L24.7,92.1z M25.3,90.4l0.8-2.7
			L23.7,89L25.3,90.4z"/>
		<path class="st3" d="M35.5,96.4c0.1,0.4,0,0.8-0.2,1.2c-0.2,0.4-0.6,0.8-1,0.9c-0.5,0.2-1,0.2-1.6,0.1s-1.2-0.3-1.8-0.6
			c-0.5-0.3-1-0.6-1.4-0.9c-0.4-0.4-0.8-0.8-1.2-1.3l1.3-1.1c0.2,0.3,0.5,0.6,0.8,0.9s0.7,0.5,1,0.7c0.5,0.2,0.9,0.3,1.2,0.3
			c0.4,0,0.6-0.1,0.8-0.4c0.1-0.2,0.1-0.4,0-0.6s-0.3-0.4-0.6-0.5L31,94.2l0.8-1.5l1.7,0.9c0.3,0.1,0.5,0.2,0.7,0.2s0.4-0.1,0.5-0.3
			c0.1-0.2,0.1-0.5-0.1-0.7c-0.2-0.2-0.4-0.5-0.8-0.7c-0.3-0.2-0.6-0.3-1-0.4s-0.8-0.1-1.1-0.1l0.2-1.8c1,0,1.9,0.3,2.8,0.7
			c0.6,0.3,1.1,0.7,1.5,1.1s0.7,0.9,0.8,1.3c0.1,0.5,0.1,0.9-0.1,1.3c-0.2,0.3-0.4,0.6-0.7,0.8c-0.3,0.2-0.7,0.3-1,0.2
			C35.2,95.6,35.4,96,35.5,96.4z"/>
		<path class="st3" d="M44.9,99.2c0.2,0.4,0.2,0.8,0,1.3c-0.2,0.7-0.6,1.2-1.3,1.4c-0.6,0.2-1.5,0.2-2.5,0l-4-1.1l2.1-7.8l3.8,1
			c0.9,0.3,1.6,0.6,2,1.1s0.5,1.1,0.4,1.7c-0.1,0.4-0.3,0.7-0.5,0.9c-0.3,0.2-0.6,0.4-1,0.5C44.4,98.5,44.7,98.8,44.9,99.2z
			 M42.7,99.7c0.1-0.5-0.1-0.9-0.7-1.1l-1.7-0.5l-0.4,1.6l1.7,0.5C42.2,100.4,42.6,100.2,42.7,99.7z M40.7,96.7l1.4,0.4
			c0.6,0.2,1,0,1.1-0.5s-0.1-0.9-0.7-1l-1.4-0.4L40.7,96.7z"/>
		<path class="st3" d="M54.8,103.4l0.1-4.3l-2.2,3.4h-1l-2-3.4l-0.1,4.2l-2.1-0.1l0.2-8.1h1.9l2.7,4.7l2.9-4.6h1.9l-0.2,8.1
			L54.8,103.4z"/>
		<path class="st3" d="M65.7,100.2l-3.3,0.8l-0.3,1.7l-2.3,0.5l1.6-8.7l2.2-0.5l5.3,7.1l-2.3,0.5L65.7,100.2z M64.7,98.7l-1.6-2.3
			l-0.4,2.8L64.7,98.7z"/>
		<path class="st3" d="M72.9,98.9c-0.8,0-1.5-0.2-2.1-0.7c-0.6-0.4-1.1-1-1.5-1.7s-0.5-1.5-0.4-2.2s0.3-1.4,0.8-2
			c0.4-0.6,1.1-1.1,1.8-1.5c0.7-0.3,1.3-0.5,2-0.5c0.6,0,1.3,0.1,1.8,0.4l-0.7,1.8c-0.7-0.3-1.5-0.3-2.1,0c-0.4,0.2-0.7,0.4-0.9,0.8
			c-0.2,0.3-0.3,0.7-0.4,1.1c0,0.4,0.1,0.8,0.3,1.2c0.2,0.4,0.5,0.7,0.8,1c0.3,0.2,0.7,0.4,1.1,0.4s0.8-0.1,1.2-0.3
			c0.7-0.3,1.1-0.9,1.3-1.7l1.9,0.5c-0.1,0.6-0.4,1.2-0.8,1.7s-1,0.9-1.6,1.2C74.5,98.8,73.7,99,72.9,98.9z"/>
		<path class="st3" d="M81.4,90.7l-0.8,0.6l1.9,2.4l-1.8,1.4l-5-6.3l1.8-1.4l1.9,2.5l0.9-0.7l-0.4-3.7l1.9-1.5l0.4,4.6l4.6,1.7
			l-2,1.6L81.4,90.7z"/>
		<path class="st3" d="M91.4,82.3l1.3,1.1l-4.2,5l-6.2-5.2l4.1-4.8l1.3,1.1l-2.6,3.1l1,0.9l2.3-2.7l1.3,1.1l-2.3,2.7l1.1,1
			L91.4,82.3z"/>
	</g>
</g>
</svg>
