<svg width="70" height="70" viewBox="0 0 70 70" fill="none" xmlns="http://www.w3.org/2000/svg">
<g clip-path="url(#clip0)">
<path d="M66.2011 30.1171H39.8836V3.79941C39.8836 2.60054 38.2556 0.000976562 34.9999 0.000976562C31.7441 0.000976562 30.1161 2.60068 30.1161 3.79941V30.1172H3.79844C2.5997 30.1171 0 31.745 0 35.0007C0 38.2563 2.5997 39.8844 3.79844 39.8844H30.1163V66.2022C30.1163 67.4008 31.7441 70.0007 35 70.0007C38.2559 70.0007 39.8837 67.4008 39.8837 66.2022V39.8844H66.2016C67.4002 39.8844 70 38.2566 70 35.0007C70 31.7448 67.3999 30.1171 66.2011 30.1171Z" fill="#FFD032"/>
</g>
<defs>
<clipPath id="clip0">
<rect width="70" height="70" fill="white"/>
</clipPath>
</defs>
</svg>
