<?xml version="1.0" standalone="no"?>
<!DOCTYPE svg PUBLIC "-//W3C//DTD SVG 20010904//EN"
 "http://www.w3.org/TR/2001/REC-SVG-20010904/DTD/svg10.dtd">
<svg version="1.0" xmlns="http://www.w3.org/2000/svg"
 width="200.000000pt" height="200.000000pt" viewBox="0 0 200.000000 200.000000"
 preserveAspectRatio="xMidYMid meet">
<metadata>
Created by potrace 1.11, written by Peter Selinger 2001-2013
</metadata>
<g transform="translate(0.000000,200.000000) scale(0.100000,-0.100000)"
fill="#000000" stroke="none">
<path d="M420 1987 c0 -5 41 -89 91 -186 181 -348 228 -439 319 -616 96 -188
202 -392 325 -630 189 -365 215 -416 215 -424 0 -4 -252 -7 -561 -7 -364 1
-563 -3 -567 -9 -4 -5 -7 -26 -7 -45 -1 -71 -67 -65 767 -64 414 1 755 2 758
3 3 0 4 30 3 65 -2 62 -9 78 -464 982 -254 506 -466 923 -470 929 -12 12 -409
14 -409 2z"/>
</g>
</svg>
