<?xml version="1.0" encoding="utf-8"?>
<!-- Generator: Adobe Illustrator 16.0.0, SVG Export Plug-In . SVG Version: 6.00 Build 0)  -->
<!DOCTYPE svg PUBLIC "-//W3C//DTD SVG 1.1//EN" "http://www.w3.org/Graphics/SVG/1.1/DTD/svg11.dtd" [
	<!ENTITY ns_extend "http://ns.adobe.com/Extensibility/1.0/">
	<!ENTITY ns_ai "http://ns.adobe.com/AdobeIllustrator/10.0/">
	<!ENTITY ns_graphs "http://ns.adobe.com/Graphs/1.0/">
	<!ENTITY ns_vars "http://ns.adobe.com/Variables/1.0/">
	<!ENTITY ns_imrep "http://ns.adobe.com/ImageReplacement/1.0/">
	<!ENTITY ns_sfw "http://ns.adobe.com/SaveForWeb/1.0/">
	<!ENTITY ns_custom "http://ns.adobe.com/GenericCustomNamespace/1.0/">
	<!ENTITY ns_adobe_xpath "http://ns.adobe.com/XPath/1.0/">
]>
<svg version="1.1" id="Слой_1" xmlns:x="&ns_extend;" xmlns:i="&ns_ai;" xmlns:graph="&ns_graphs;"
	 xmlns="http://www.w3.org/2000/svg" xmlns:xlink="http://www.w3.org/1999/xlink" x="0px" y="0px" width="600px" height="600px"
	 viewBox="0 0 600 600" enable-background="new 0 0 600 600" xml:space="preserve">
<metadata>
	<sfw  xmlns="&ns_sfw;">
		<slices></slices>
		<sliceSourceBounds  height="361.451" width="599.999" y="119.952" x="-0.5" bottomLeftOrigin="true"></sliceSourceBounds>
	</sfw>
</metadata>
<title>главный на сайт3</title>
<g>
	<path fill="#1E6B6A" d="M0,351.8h21.706c3.01,0,5.571,0.454,7.684,1.362c1.964,0.804,3.725,2.032,5.157,3.598
		c1.319,1.484,2.306,3.234,2.892,5.132c1.213,3.853,1.213,7.984,0,11.836c-0.592,1.886-1.577,3.624-2.892,5.1
		c-1.433,1.564-3.193,2.794-5.157,3.598c-2.112,0.907-4.674,1.361-7.684,1.361H10.573v17.877H0V351.8z M18.795,375.265
		c1.175,0.003,2.347-0.091,3.506-0.28c1.051-0.159,2.06-0.526,2.967-1.081c0.875-0.56,1.585-1.344,2.055-2.271
		c0.516-0.979,0.774-2.259,0.776-3.841s-0.257-2.862-0.776-3.841c-0.471-0.927-1.18-1.71-2.055-2.27
		c-0.907-0.555-1.916-0.923-2.967-1.082c-1.159-0.189-2.331-0.282-3.506-0.28h-8.222v14.94L18.795,375.265z"/>
	<path fill="#1E6B6A" d="M62.692,373.73l-18.402-21.928h12.47l16.853,20.532V351.8H83.79v20.463l16.854-20.463h12.47l-18.605,21.651
		l20.357,28.214h-13.077l-15.312-21.79l-2.696,3.282v18.506H73.61v-18.506l-3.304-3.212l-14.764,21.718H42.531L62.692,373.73z"/>
	<path fill="#1E6B6A" d="M117.629,392.443h4.043c1.399-1.966,2.543-4.101,3.405-6.354c0.914-2.419,1.591-4.921,2.021-7.471
		c0.495-2.911,0.811-5.85,0.944-8.8c0.161-3.166,0.241-6.588,0.241-10.265V351.8h34.911v40.644h5.258v20.603h-9.571v-11.383H127.2
		v11.383h-9.571V392.443z M152.615,392.443v-31.634h-14.217v0.909c0,3.398-0.08,6.541-0.241,9.426
		c-0.16,2.886-0.431,5.574-0.81,8.065c-0.353,2.368-0.894,4.705-1.617,6.988c-0.69,2.16-1.578,4.252-2.65,6.25L152.615,392.443z"/>
	<path fill="#1E6B6A" d="M195.619,378.338v8.521H175.33v-8.521H195.619z"/>
	<path fill="#1E6B6A" d="M224.068,402.781c-6.605,0-11.706-1.571-15.302-4.714c-3.595-3.142-5.438-7.53-5.527-13.163h10.448
		c0.004,1.492,0.313,2.969,0.911,4.337c0.51,1.144,1.27,2.157,2.224,2.969c0.946,0.786,2.05,1.361,3.236,1.687
		c1.306,0.358,2.655,0.534,4.01,0.523c2.471,0,4.471-0.78,6-2.34c1.516-1.529,2.343-3.609,2.291-5.762
		c0-1.397-0.247-2.55-0.742-3.458c-0.474-0.886-1.17-1.634-2.021-2.169c-0.884-0.546-1.866-0.913-2.892-1.081
		c-1.114-0.189-2.243-0.283-3.373-0.28h-3.646v-7.417c0.492,0.052,0.986,0.075,1.481,0.07h1.35c5.798,0,8.696-2.258,8.696-6.773
		c0-1.955-0.663-3.469-1.988-4.54s-3.066-1.607-5.224-1.607c-2.607,0-4.687,0.651-6.236,1.955c-1.55,1.303-2.434,3.165-2.65,5.588
		h-9.977c0.045-2.794,0.584-5.191,1.617-7.193c0.987-1.946,2.404-3.643,4.145-4.959c1.8-1.334,3.835-2.315,6-2.892
		c2.336-0.639,4.747-0.957,7.169-0.947c2.297-0.02,4.582,0.322,6.773,1.013c1.955,0.604,3.783,1.563,5.393,2.829
		c1.485,1.187,2.703,2.675,3.573,4.366c0.892,1.763,1.344,3.716,1.316,5.691c0,2.514-0.674,4.683-2.022,6.506
		c-1.27,1.764-3.139,3.005-5.258,3.491c1.259,0.234,2.468,0.684,3.574,1.328c1.107,0.642,2.088,1.482,2.892,2.479
		c0.841,1.056,1.493,2.249,1.928,3.527c0.482,1.416,0.722,2.904,0.708,4.4c0.026,2.304-0.468,4.584-1.445,6.67
		c-0.949,2.002-2.303,3.786-3.977,5.238c-1.755,1.507-3.779,2.668-5.966,3.422C229.148,402.404,226.615,402.811,224.068,402.781z"/>
	<path fill="#1E6B6A" d="M248.603,392.443h4.043c1.399-1.966,2.543-4.101,3.405-6.354c0.913-2.419,1.591-4.921,2.021-7.471
		c0.494-2.911,0.81-5.85,0.944-8.8c0.161-3.166,0.241-6.588,0.241-10.265V351.8h34.918v40.644h5.258v20.603h-9.583v-11.383h-31.678
		v11.383h-9.57V392.443z M283.588,392.443v-31.634h-14.217v0.909c0,3.398-0.081,6.541-0.241,9.426
		c-0.161,2.886-0.431,5.574-0.81,8.065c-0.353,2.368-0.894,4.705-1.617,6.988c-0.69,2.16-1.578,4.252-2.65,6.25L283.588,392.443z"/>
	<path fill="#1E6B6A" d="M328.951,402.781c-3.729,0-7.056-0.664-9.976-1.99c-2.841-1.268-5.371-3.138-7.415-5.482
		c-2.067-2.407-3.646-5.194-4.65-8.205c-1.1-3.273-1.646-6.708-1.616-10.161c-0.027-3.51,0.519-7.001,1.616-10.335
		c0.997-3.066,2.576-5.912,4.65-8.381c2.033-2.383,4.564-4.29,7.415-5.588c2.92-1.35,6.246-2.024,9.976-2.026
		c3.686,0,6.999,0.676,9.942,2.026c2.864,1.291,5.407,3.199,7.448,5.588c2.075,2.469,3.654,5.314,4.65,8.381
		c1.098,3.334,1.644,6.825,1.617,10.335c0.029,3.453-0.518,6.888-1.617,10.161c-1.003,3.011-2.583,5.798-4.65,8.205
		c-2.052,2.351-4.595,4.222-7.448,5.482C335.95,402.117,332.637,402.781,328.951,402.781z M328.951,393.624
		c2.381,0,4.403-0.477,6.067-1.431c1.633-0.927,3.02-2.231,4.044-3.805c1.056-1.637,1.82-3.444,2.258-5.343
		c0.475-2.002,0.712-4.053,0.708-6.11c0.005-2.139-0.232-4.271-0.708-6.354c-0.429-1.944-1.193-3.8-2.258-5.482
		c-1.017-1.589-2.404-2.907-4.044-3.841c-1.662-0.954-3.685-1.431-6.067-1.431c-2.382,0-4.404,0.477-6.067,1.431
		c-1.64,0.934-3.027,2.252-4.043,3.841c-1.065,1.683-1.83,3.538-2.258,5.482c-0.477,2.084-0.714,4.216-0.709,6.354
		c-0.004,2.058,0.233,4.108,0.709,6.11c0.437,1.898,1.2,3.706,2.258,5.343c1.023,1.573,2.41,2.878,4.043,3.805
		c1.663,0.96,3.686,1.44,6.067,1.44V393.624z"/>
	<path fill="#1E6B6A" d="M362.452,351.8h21.706c3.011,0,5.572,0.454,7.685,1.362c1.964,0.804,3.725,2.032,5.157,3.598
		c1.319,1.484,2.305,3.234,2.891,5.132c1.214,3.853,1.214,7.984,0,11.836c-0.591,1.886-1.576,3.624-2.891,5.1
		c-1.433,1.564-3.193,2.794-5.157,3.598c-2.112,0.907-4.674,1.361-7.685,1.361h-11.123v17.877h-10.583V351.8z M381.248,375.265
		c1.174,0.003,2.347-0.091,3.506-0.28c1.051-0.159,2.06-0.526,2.966-1.081c0.876-0.56,1.586-1.344,2.056-2.271
		c0.516-0.979,0.774-2.259,0.776-3.841c0.001-1.582-0.258-2.862-0.776-3.841c-0.471-0.927-1.181-1.71-2.056-2.27
		c-0.907-0.555-1.915-0.923-2.966-1.082c-1.159-0.189-2.332-0.282-3.506-0.28h-8.225v14.94L381.248,375.265z"/>
	<path fill="#1E6B6A" d="M431.615,402.781c-3.73,0-7.056-0.664-9.977-1.99c-2.84-1.268-5.37-3.138-7.414-5.482
		c-2.067-2.407-3.647-5.194-4.65-8.205c-1.1-3.273-1.646-6.708-1.617-10.161c-0.026-3.51,0.52-7.001,1.617-10.335
		c0.996-3.066,2.575-5.912,4.65-8.381c2.032-2.383,4.563-4.29,7.414-5.588c2.921-1.35,6.246-2.024,9.977-2.026
		c3.685,0,6.999,0.676,9.942,2.026c2.864,1.291,5.408,3.199,7.45,5.588c2.075,2.469,3.654,5.314,4.65,8.381
		c1.098,3.334,1.644,6.825,1.617,10.335c0.029,3.453-0.518,6.888-1.617,10.161c-1.003,3.011-2.583,5.798-4.65,8.205
		c-2.052,2.351-4.595,4.222-7.448,5.482C438.615,402.117,435.299,402.781,431.615,402.781z M431.615,393.624
		c2.381,0,4.403-0.477,6.067-1.431c1.633-0.927,3.02-2.231,4.043-3.805c1.057-1.637,1.82-3.444,2.258-5.343
		c0.475-2.002,0.713-4.053,0.709-6.11c0.005-2.139-0.232-4.271-0.709-6.354c-0.429-1.944-1.192-3.8-2.258-5.482
		c-1.016-1.589-2.403-2.907-4.043-3.841c-1.663-0.954-3.686-1.431-6.067-1.431c-2.383,0-4.405,0.477-6.067,1.431
		c-1.641,0.934-3.028,2.252-4.044,3.841c-1.065,1.683-1.829,3.538-2.258,5.482c-0.476,2.084-0.714,4.216-0.708,6.354
		c-0.004,2.058,0.235,4.108,0.711,6.11c0.437,1.898,1.201,3.706,2.258,5.343c1.023,1.573,2.41,2.878,4.043,3.805
		c1.661,0.96,3.683,1.44,6.065,1.44V393.624z"/>
	<path fill="#1E6B6A" d="M465.117,351.8h22.651c2.104-0.018,4.205,0.193,6.265,0.629c1.739,0.356,3.389,1.058,4.853,2.061
		c1.361,0.972,2.441,2.285,3.133,3.808c0.742,1.584,1.113,3.539,1.113,5.865c0,2.514-0.55,4.608-1.65,6.284
		c-1.101,1.675-2.729,3.049-4.887,4.12c2.966,0.885,5.179,2.433,6.641,4.644c1.462,2.21,2.192,4.876,2.19,7.997
		c0,2.515-0.472,4.691-1.414,6.53c-0.896,1.782-2.201,3.325-3.81,4.504c-1.646,1.188-3.498,2.063-5.461,2.583
		c-2.054,0.561-4.174,0.842-6.303,0.839h-23.323L465.117,351.8z M486.419,371.983c1.888,0,3.438-0.466,4.65-1.397
		s1.819-2.445,1.819-4.54c0-1.163-0.202-2.117-0.607-2.862c-0.375-0.715-0.933-1.317-1.616-1.747
		c-0.714-0.434-1.503-0.729-2.326-0.872c-0.9-0.164-1.814-0.245-2.729-0.241h-9.908v11.662L486.419,371.983z M487.027,393.144
		c0.997,0.004,1.991-0.101,2.966-0.313c0.891-0.187,1.737-0.543,2.494-1.048c0.733-0.506,1.324-1.191,1.718-1.99
		c0.428-0.839,0.642-1.909,0.642-3.212c0-2.561-0.696-4.388-2.09-5.482c-1.393-1.094-3.235-1.641-5.527-1.641h-11.527v13.687
		H487.027z"/>
	<path fill="#1E6B6A" d="M515.202,351.8h10.583v18.018h11.325c2.283-0.021,4.557,0.296,6.747,0.942
		c1.979,0.579,3.814,1.564,5.393,2.891c1.568,1.355,2.805,3.052,3.614,4.96c0.877,2.001,1.315,4.353,1.315,7.053
		c0,2.747-0.427,5.121-1.281,7.123c-0.799,1.923-2.037,3.633-3.614,4.992c-1.623,1.365-3.52,2.365-5.562,2.933
		c-2.325,0.651-4.73,0.969-7.145,0.942h-21.369L515.202,351.8z M535.761,392.725c2.563,0,4.563-0.536,6-1.607
		s2.161-2.934,2.169-5.588c0.031-1.136-0.176-2.267-0.607-3.318c-0.373-0.869-0.965-1.627-1.718-2.199
		c-0.786-0.579-1.68-0.995-2.629-1.222c-1.07-0.263-2.168-0.392-3.271-0.384h-9.908v14.316L535.761,392.725z"/>
	<path fill="#1E6B6A" d="M563.465,351.8h35.995v9.22h-25.412v10.685h23.322v8.521h-23.322v12.219h25.951v9.22h-36.534V351.8z"/>
</g>
<g>
	<path fill="#1E6B6A" d="M96.656,468.299c0-7.274,5.174-12.243,11.752-12.243c4.043,0,6.853,2.024,8.675,4.687l-2.41,1.384
		c-1.39-2.114-3.735-3.403-6.265-3.443c-4.998,0-8.805,3.974-8.805,9.619c0,5.607,3.807,9.617,8.805,9.617
		c2.533-0.024,4.885-1.316,6.265-3.441l2.429,1.383c-1.915,2.696-4.655,4.688-8.698,4.688
		C101.829,480.543,96.656,475.576,96.656,468.299z"/>
	<path fill="#1E6B6A" d="M127.547,480.116v-23.67h14.969v2.624h-12.123v7.632h11.887v2.624h-11.887v8.163h12.123v2.624
		L127.547,480.116z"/>
	<path fill="#1E6B6A" d="M159.511,480.116V459.07h-7.229v-2.624h17.328v2.624h-7.253v21.046H159.511z"/>
	<path fill="#1E6B6A" d="M183.048,456.446v9.397h6.335c4.521,0,7.159,3.263,7.159,7.13c0,3.868-2.568,7.136-7.159,7.136h-9.171
		v-23.67L183.048,456.446z M183.048,468.477v9.015h5.993c2.706,0,4.554-1.846,4.554-4.509c0-2.662-1.851-4.506-4.554-4.506H183.048z
		"/>
	<path fill="#1E6B6A" d="M221.865,468.299c0-7.274,5.173-12.243,11.751-12.243c4.044,0,6.854,2.024,8.675,4.687l-2.409,1.384
		c-1.39-2.114-3.735-3.403-6.266-3.443c-5.002,0-8.805,3.974-8.805,9.619c0,5.607,3.8,9.617,8.805,9.617
		c2.533-0.024,4.886-1.316,6.266-3.441l2.434,1.383c-1.928,2.696-4.66,4.688-8.704,4.688
		C227.038,480.543,221.865,475.576,221.865,468.299z"/>
	<path fill="#1E6B6A" d="M269.068,480.116l-2.021-5.251h-11.374l-2.015,5.251H250.4l9.181-23.67h3.523l9.21,23.67H269.068z
		 M261.357,459.499l-4.862,12.74h9.693L261.357,459.499z"/>
	<path fill="#1E6B6A" d="M298.321,480.116v-10.858h-13.359v10.858h-2.846v-23.67h2.846v10.183h13.359v-10.183h2.841v23.67H298.321z"
		/>
	<path fill="#1E6B6A" d="M329.61,480.116l-2.021-5.251h-11.374l-2.021,5.251h-3.253l9.181-23.67h3.53l9.209,23.67H329.61z
		 M321.899,459.499l-4.863,12.74h9.694L321.899,459.499z"/>
	<path fill="#1E6B6A" d="M348.318,480.116V459.07h-7.229v-2.624h17.332v2.624h-7.26v21.046H348.318z"/>
	<path fill="#1E6B6A" d="M368.081,468.299c0-6.987,4.555-12.243,11.338-12.243s11.337,5.253,11.337,12.243
		c0,6.991-4.59,12.244-11.337,12.244S368.081,475.29,368.081,468.299z M387.812,468.299c0-5.542-3.289-9.619-8.393-9.619
		s-8.393,4.082-8.393,9.619c0,5.502,3.258,9.617,8.393,9.617S387.812,473.801,387.812,468.299z"/>
	<path fill="#1E6B6A" d="M402.022,480.116v-23.67h9.181c4.59,0,7.159,3.268,7.159,7.135s-2.651,7.13-7.159,7.13h-6.335v9.398
		L402.022,480.116z M415.416,463.581c0-2.65-1.851-4.508-4.554-4.508h-5.993v9.014h5.993c2.703-0.002,4.554-1.846,4.554-4.508
		V463.581z"/>
	<path fill="#1E6B6A" d="M428.947,480.116v-23.67h2.846v18.489l13.154-18.489h2.911v23.67h-2.846v-18.877l-13.325,18.877H428.947z"
		/>
	<path fill="#1E6B6A" d="M460.009,480.116v-23.67h14.969v2.624h-12.115v7.632h11.887v2.624h-11.887v8.163h12.123v2.624
		L460.009,480.116z"/>
	<path fill="#1E6B6A" d="M486.321,480.116v-23.67h10.178c3.972,0,6.405,2.484,6.405,6.024c0,2.982-1.928,4.969-4.008,5.431
		c2.43,0.391,4.448,2.983,4.448,5.822c0,3.795-2.429,6.386-6.611,6.386L486.321,480.116z M499.956,462.906
		c0-2.13-1.373-3.834-3.942-3.834h-6.848v7.632h6.848c2.569-0.002,3.942-1.634,3.942-3.8V462.906z M500.398,473.41
		c0-2.169-1.446-4.082-4.244-4.082h-6.987v8.164h6.987c2.673-0.003,4.246-1.564,4.246-4.084L500.398,473.41z"/>
</g>
<path fill="#1E6B6A" d="M276.918,163.995c0.964,0.389,1.928,0.785,2.892,1.188c2.855-2.135,9.812-7.437,20.563-16.229
	c78.851,67.361,133.757,34.721,133.757,34.721s-0.02-5.484-0.02-22.02c-66,30.719-133.803-42.559-133.803-42.559
	c-18.59,20.149-42.424,33.844-48.221,37.35C260.041,158.024,268.275,160.53,276.918,163.995z"/>
<path fill="#1E6B6A" d="M323.781,242.699c-0.964-0.389-1.928-0.785-2.892-1.188c-2.855,2.136-9.813,7.437-20.563,16.229
	c-78.854-67.361-133.759-34.721-133.759-34.721s0.019,5.484,0.019,22.02c66.003-30.724,133.803,42.554,133.803,42.554
	c18.59-20.149,42.424-33.843,48.222-37.35C340.656,248.67,332.421,246.162,323.781,242.699z"/>
<path fill="#1E6B6A" d="M377.648,215.303c-23.358,0-48.946-11.419-74.889-23.094c-0.942-0.424-4.683-2.13-5.612-2.542
	c-24.378-10.844-49.857-20.767-74.939-20.767c-38.021,0-52.253,9.304-55.663,12.08v22.229c4.111-2.438,22.928-12.412,55.663-12.412
	c23.675,0,49.639,11.73,75.941,23.568c0.591,0.266,2.439,1.123,2.771,1.272c24.918,11.138,51.031,21.564,76.716,21.564
	c44.687,0,56.513-12.854,56.513-12.854v-21.993C434.149,202.356,414.93,215.303,377.648,215.303z"/>
</svg>
