<svg xmlns="http://www.w3.org/2000/svg" viewBox="0 0 173 142"><title>billa</title><g id="40c34d38-f664-44b3-bfe8-c7ed513b7b0f" data-name="Layer 18"><rect x="13.53125" y="92.875" width="145.9375" height="18.125" style="fill:#ffd900"/><rect x="13.53125" y="31" width="145.9375" height="61.9375" style="fill:#e40017"/><path d="M25.11914,80.0625V43.88984L39.154,43.85627S48.576,43.7331,51.90625,48.5c3.1875,4.5625,2.1875,10.625-.5,13.5408a10.90976,10.90976,0,0,1,2.8125,10.5217c-1.8125,8.125-14.39128,7.54269-14.39128,7.54269Zm10.26648-13.937L35.40625,72c7,.12187,9.25,0,9.25071-2.9642C44.71836,65.779,40.801,66.07959,35.38562,66.12549ZM35.383,58.11241c6.23579-.02177,9.27326.13463,9.27326-2.98565,0-3.6875-5.125-3.00176-9.27326-3.00176Z" style="fill:#ffd900"/><path d="M148.65625,79.912c-3.62466,0-6.10029.02915-9.15.02915L138.53125,76h-8.925l-1.2,3.99238s-5.30649-.05126-9.04607-.05126c3.15881-12.19208,6.19558-23.91307,9.29664-35.88224h10.83146C142.44448,55.61964,145.45358,67.38732,148.65625,79.912ZM134.00821,60c-.95309,3.41042-2.18738,7.04409-2.977,9.8694l6.175.02924C136.34492,67.512,135.15919,63.18917,134.00821,60Z" style="fill:#ffd900"/><path d="M76.22421,44.01311H86.55748L86.59375,71l6.82962.05952v9.04567H76.22421Z" style="fill:#ffd900"/><path d="M115.35821,80.10519H98.383c0-12.01748.00009-24.10526.00009-36.15519l10.08569.05.0625,27,6.827-.01Z" style="fill:#ffd900"/><path d="M59.20136,79.99238V44.00762H69.52682V79.99238Z" style="fill:#ffd900"/><path d="M16.65625,106.07965V97.7901h2.66552a2.89573,2.89573,0,0,1,1.92356.55182,2.06334,2.06334,0,0,1,.64514,1.65721,1.67482,1.67482,0,0,1-.328,1.0248,2.13493,2.13493,0,0,1-.88522.68846,1.76761,1.76761,0,0,1,1.01761.70073,2.14923,2.14923,0,0,1,.37542,1.27531,2.26872,2.26872,0,0,1-.69058,1.75356,2.7978,2.7978,0,0,1-1.968.63766Zm1.17567-4.75441h1.50961a1.352,1.352,0,0,0,.985-.36437,1.52574,1.52574,0,0,0,.03556-1.96553,1.50118,1.50118,0,0,0-1.04032-.31182H17.83192Zm0,.87766v2.98332h1.60544a1.43686,1.43686,0,0,0,1.06009-.39065,1.47922,1.47922,0,0,0,.39123-1.09575q0-1.4978-1.42563-1.49692Z" style="fill:#010101"/><path d="M30.30593,102.66362a3.8031,3.8031,0,0,1-.81606,2.6137,2.94072,2.94072,0,0,1-2.31775.91619,2.98469,2.98469,0,0,1-2.28318-.89079,3.65121,3.65121,0,0,1-.8704-2.52v-1.55911a3.81031,3.81031,0,0,1,.8289-2.60494,2.91709,2.91709,0,0,1,2.31183-.94247,2.96114,2.96114,0,0,1,2.302.90218,3.75283,3.75283,0,0,1,.84471,2.57691Zm-1.17567-1.45224a3.23186,3.23186,0,0,0-.48411-1.955,2.01239,2.01239,0,0,0-2.954.00876,3.13175,3.13175,0,0,0-.50386,1.913v1.48553a3.19786,3.19786,0,0,0,.49694,1.93575,2.02115,2.02115,0,0,0,2.951.0508,3.13929,3.13929,0,0,0,.494-1.88407Z" style="fill:#010101"/><path d="M37.8095,98.68352h-2.46v7.39613H34.17479V98.68352H31.72168V97.7901H37.8095Z" style="fill:#010101"/><path d="M43.845,103.44931a2.442,2.442,0,0,0,.58092,1.46013,1.78241,1.78241,0,0,0,1.24286.39065,1.61567,1.61567,0,0,0,1.40982-.75065,3.899,3.899,0,0,0,.52362-2.1591H44.577v-.89342h3.02514a3.71979,3.71979,0,0,0-.53943-2.15385,1.733,1.733,0,0,0-1.50368-.77342,1.5315,1.5315,0,0,0-1.16777.43445,2.59,2.59,0,0,0-.54634,1.4505H42.65644a3.19885,3.19885,0,0,1,.89608-2.061,2.79279,2.79279,0,0,1,2.00655-.71737,2.904,2.904,0,0,1,2.3474,1.04758,4.30424,4.30424,0,0,1,.87731,2.85194v.78043a4.93768,4.93768,0,0,1-.38234,2.0067,3.071,3.071,0,0,1-1.09565,1.34976,2.85513,2.85513,0,0,1-1.63705.48087,2.989,2.989,0,0,1-2.08757-.706,3.104,3.104,0,0,1-.92473-2.03823Z" style="fill:#010101"/><path d="M56.16484,98.68352h-2.46v7.39613H52.53013V98.68352H50.077V97.7901h6.08782Z" style="fill:#010101"/><path d="M63.84131,102.66362a3.8031,3.8031,0,0,1-.81606,2.6137,2.94074,2.94074,0,0,1-2.31776.91619,2.98472,2.98472,0,0,1-2.28318-.89079,3.65116,3.65116,0,0,1-.87039-2.52v-1.55911a3.81031,3.81031,0,0,1,.8289-2.60494,2.91709,2.91709,0,0,1,2.31183-.94247,2.96114,2.96114,0,0,1,2.30195.90218,3.75288,3.75288,0,0,1,.84471,2.57691Zm-1.17568-1.45224a3.23186,3.23186,0,0,0-.4841-1.955,2.01239,2.01239,0,0,0-2.954.00876,3.13175,3.13175,0,0,0-.50386,1.913v1.48553a3.19786,3.19786,0,0,0,.49694,1.93575,2.02114,2.02114,0,0,0,2.951.0508,3.13915,3.13915,0,0,0,.494-1.88407Z" style="fill:#010101"/><path d="M70.97439,97.7901l2.44027,6.76372,2.44026-6.76372h1.51554v8.28955H76.19577v-3.22858l.10966-3.23384-2.44718,6.46242h-.899L70.52586,99.64l.10867,3.21106v3.22858H69.45886V97.7901Z" style="fill:#010101"/><path d="M85.90842,106.07965h-1.1816v-3.8312H80.96367v3.8312H79.788V97.7901h1.17567v3.56405h3.76315V97.7901h1.1816Z" style="fill:#010101"/><path d="M92.82218,102.24845h-3.3077v2.93777h3.85306v.89343H88.33881V97.7901h4.96451v.89342H89.51448v2.67063h3.3077Z" style="fill:#010101"/><path d="M104.74589,106.07965h-1.1816V98.68352H99.9029v7.39613H98.72822V97.7901h6.01767Z" style="fill:#010101"/><path d="M113.30856,102.66362a3.8031,3.8031,0,0,1-.81606,2.6137,2.94074,2.94074,0,0,1-2.31776.91619,2.98472,2.98472,0,0,1-2.28318-.89079,3.65116,3.65116,0,0,1-.87039-2.52v-1.55911a3.81031,3.81031,0,0,1,.8289-2.60494,2.91709,2.91709,0,0,1,2.31183-.94247,2.96114,2.96114,0,0,1,2.30195.90218,3.75293,3.75293,0,0,1,.84471,2.57691Zm-1.17568-1.45224a3.23186,3.23186,0,0,0-.4841-1.955,2.01239,2.01239,0,0,0-2.954.00876,3.13175,3.13175,0,0,0-.50386,1.913v1.48553a3.19779,3.19779,0,0,0,.49694,1.93575,2.02114,2.02114,0,0,0,2.951.0508,3.13915,3.13915,0,0,0,.494-1.88407Z" style="fill:#010101"/><path d="M118.92611,106.07965V97.7901h2.66552a2.89573,2.89573,0,0,1,1.92356.55182,2.06337,2.06337,0,0,1,.64514,1.65721,1.67488,1.67488,0,0,1-.328,1.0248,2.13493,2.13493,0,0,1-.88522.68846,1.76755,1.76755,0,0,1,1.0176.70073,2.14917,2.14917,0,0,1,.37543,1.27531,2.26873,2.26873,0,0,1-.69059,1.75356,2.79778,2.79778,0,0,1-1.968.63766Zm1.17567-4.75441h1.50961a1.352,1.352,0,0,0,.985-.36437,1.52574,1.52574,0,0,0,.03556-1.96553,1.50118,1.50118,0,0,0-1.04032-.31182h-1.48985Zm0,.87766v2.98332h1.60544a1.43683,1.43683,0,0,0,1.06008-.39065,1.47918,1.47918,0,0,0,.39124-1.09575q0-1.4978-1.42563-1.49692Z" style="fill:#010101"/><path d="M128.61406,102.35618h-.88719v3.72347h-1.17468V97.7901h1.17468v3.65514h.71924L131.08,97.7901h1.46415l-2.96783,4.00813,3.18519,4.28142h-1.43848Z" style="fill:#010101"/><path d="M136.9653,102.43589,138.635,97.7901h1.36141l-2.69022,6.90562a3.99824,3.99824,0,0,1-.53053.93722,1.60793,1.60793,0,0,1-.56216.41868,2.00468,2.00468,0,0,1-.822.14715,1.80243,1.80243,0,0,1-.5582-.0508l.02569-.8654.50682.02278a.7668.7668,0,0,0,.739-.55182l.30824-.81459-2.5687-6.14884h1.31Z" style="fill:#010101"/><path d="M147.576,103.44318a2.88272,2.88272,0,0,1-.8447,2.04173,3.079,3.079,0,0,1-2.16759.7086,2.82113,2.82113,0,0,1-2.23477-.94772,3.77675,3.77675,0,0,1-.82791-2.57078V101.172a3.66823,3.66823,0,0,1,.85063-2.55676,2.97858,2.97858,0,0,1,2.32171-.939,2.89171,2.89171,0,0,1,2.09646.71737,2.93153,2.93153,0,0,1,.80617,2.05574H146.3875a2.3672,2.3672,0,0,0-.48114-1.447,1.61206,1.61206,0,0,0-1.233-.4327,1.75082,1.75082,0,0,0-1.47107.66394,3.13552,3.13552,0,0,0-.51374,1.9445v1.51969a3.29616,3.29616,0,0,0,.47916,1.92962,1.60564,1.60564,0,0,0,1.396.67269,1.822,1.822,0,0,0,1.32387-.40466,2.35582,2.35582,0,0,0,.49991-1.45225Z" style="fill:#010101"/><path d="M152.26686,102.43589l1.66965-4.64579h1.36141l-2.69022,6.90562a3.99788,3.99788,0,0,1-.53053.93722,1.60789,1.60789,0,0,1-.56215.41868,2.00473,2.00473,0,0,1-.822.14715,1.80235,1.80235,0,0,1-.55819-.0508l.02568-.8654.50683.02278a.7668.7668,0,0,0,.739-.55182l.30825-.81459-2.5687-6.14884h1.31Z" style="fill:#010101"/><path d="M155.66625,105.57906a.67863.67863,0,0,1,.15505-.45547.57821.57821,0,0,1,.466-.18219.59388.59388,0,0,1,.471.18219.66186.66186,0,0,1,.16092.45547.62521.62521,0,0,1-.16092.438.6062.6062,0,0,1-.471.17693.59.59,0,0,1-.466-.17693A.6405.6405,0,0,1,155.66625,105.57906Z" style="fill:#010101"/></g></svg>