<svg xmlns="http://www.w3.org/2000/svg" viewBox="0 0 173 142"><title>fors</title><g id="e3be63ce-e566-49f3-9710-8ef9a77aaf83" data-name="Layer 16"><path d="M78.16667,81.33576l.53239-2.76353a10.24534,10.24534,0,0,1-5.99262-2.3518A6.27757,6.27757,0,0,1,70.82906,71.143c.09226-3.88323,4.22711-7.77651,10.68221-8.29252h.146l.38525-2.32515,4.29078.00645-.41484,2.32515h.1174a9.18565,9.18565,0,0,1,6.21293,2.52262c2.95906,2.93078,1.45079,8.7398-1.30837,10.84093-1.81813,1.38452-4.75164,2.08417-7.69077,2.34535h-.17657l-.53144,2.76353Zm1.27678-5.91871,1.68537-9.2697h0a9.51183,9.51183,0,0,0-4.98245,1.687c-1.87789,1.58492-2.73079,4.55457-.79838,6.47031C76.03749,74.98824,78.133,75.41705,79.44345,75.41705Zm5.8054-9.57282-1.54067,9.109-.04485.47024A8.98879,8.98879,0,0,0,88.206,74.24289c2.04206-1.43664,3.03721-5.04914,1.20388-7.05094a5.35768,5.35768,0,0,0-4.014-1.34772Z" style="fill:#009ee0"/><path d="M107.425,61.302a8.56369,8.56369,0,0,1,6.59707,2.49841,8.91161,8.91161,0,0,1,2.17043,6.80833,13.33539,13.33539,0,0,1-.9326,4.19326,10.56952,10.56952,0,0,1-2.277,3.56235,10.80117,10.80117,0,0,1-7.62546,2.95852,9.29047,9.29047,0,0,1-6.72034-2.728,9.0631,9.0631,0,0,1-2.1757-6.69354,11.10145,11.10145,0,0,1,3.39533-7.69869A10.50075,10.50075,0,0,1,107.425,61.302Zm-.0917,3.198a6.38588,6.38588,0,0,0-5.02246,2.23639,8.68,8.68,0,0,0-2.09212,5.04486A6.46217,6.46217,0,0,0,100.9375,75.75,5.30134,5.30134,0,0,0,105.59375,78a6.26688,6.26688,0,0,0,4.8125-1.78125,8.35818,8.35818,0,0,0,2.067-4.73189A7.648,7.648,0,0,0,111.09375,66,4.92621,4.92621,0,0,0,107.33333,64.5Z" style="fill:#009ee0"/><path d="M120.65531,61.5736l7.2101-.00006c2.315,0,4.72655.68378,5.78795,1.79346a5.08377,5.08377,0,0,1,1.55418,3.89405,6.92918,6.92918,0,0,1-2.83254,5.5452,11.47308,11.47308,0,0,1-5.5,1.63926h-4.49428l-1.15121,6.95462-3.83662.00006ZM124,64.75l-1.01759,6.56243h3.88825a5.59051,5.59051,0,0,0,3.58767-1.02076,3.1444,3.1444,0,0,0,.53719-4.45226A5.7258,5.7258,0,0,0,127.62073,64.75Z" style="fill:#009ee0"/><path d="M152.011,75.11094l2.08272,2.34879c-2.16336,2.65783-6.1221,4.09214-7.8956,3.94088-5.622-.47951-9.26455-4.12631-9.263-9.06654A11.03346,11.03346,0,0,1,148.426,61.24073c2.116,0,5.56292,1.13731,7.04637,3.36248l-2.55746,2.39421a7.05882,7.05882,0,0,0-4.85977-2.3324c-4.38631-.18911-7.46794,4.20449-7.35541,7.35541.12362,3.46137,1.91612,5.83488,5.74835,5.83488A8.80869,8.80869,0,0,0,152.011,75.11094Z" style="fill:#009ee0"/><path d="M56.65384,63.21563a10.75927,10.75927,0,0,1-6.18751,7.86874c-4.86524,2.4375-12.26694,2.98091-12.26694,2.98091l4.4,8.33159s7.26413-.68906,12.57487-4.77048c2.00194-1.53854,4.74356-3.60889,5.09537-7.60451C60.62184,66.02188,56.65384,63.21563,56.65384,63.21563Z" style="fill:#009ee0"/><path d="M52.12032,67.83438a11.60047,11.60047,0,0,0,2.015-2.06875,9.47333,9.47333,0,0,0,1.33545-3.1625,25.88,25.88,0,0,0-3.92324-1.96875,23.21694,23.21694,0,0,0-4.90945-.97807l3.66656-5.88443H41.25589l-1.90136,7.625a72.50386,72.50386,0,0,1,7.4283,1.26875A8.60476,8.60476,0,0,1,52.12032,67.83438Z" style="fill:#009ee0"/><path d="M21.16559,78.78437a10.75927,10.75927,0,0,1,6.18751-7.86874C32.21833,68.47813,39.62,67.93428,39.62,67.93428l-4.4-8.33115s-7.26413.68906-12.57487,4.77048c-2.00194,1.53854-4.74357,3.60889-5.09537,7.60451C17.19758,75.97812,21.16559,78.78437,21.16559,78.78437Z" style="fill:#009ee0"/><path d="M25.6991,74.16562a11.60084,11.60084,0,0,0-2.015,2.06875,9.47343,9.47343,0,0,0-1.33544,3.1625,25.88,25.88,0,0,0,3.92324,1.96875,23.21689,23.21689,0,0,0,4.90944.97807l-3.66655,5.88443h9.04876l1.90136-7.625a72.50386,72.50386,0,0,1-7.4283-1.26875A8.60476,8.60476,0,0,1,25.6991,74.16562Z" style="fill:#009ee0"/></g></svg>