<svg xmlns="http://www.w3.org/2000/svg" viewBox="0 0 173 142"><title>gazprom</title><g id="4b1b2c98-a7fe-4f5a-9c8d-be8562b2db8f" data-name="Layer 14"><rect x="12.83333" y="33.18433" width="147.33333" height="75.63134" style="fill:#007ac0"/><rect x="67.26302" y="78.74683" width="62.13281" height="10.375" style="fill:#fff"/><path d="M72.90169,60.62281H70.5179V74.0896H67.263V58.26929h5.63867Z" style="fill:#fff"/><path d="M79.50034,58.27906,81.43,74.0896H78.03333L77.8,70.24781h-1.2063l-.26032,3.84179H72.90169l1.7217-15.81054Zm-1.75366,9.96777c-.17044-1.791-.3769-3.80567-.54836-6.44238-.34393,3.02734-.525,5.043-.6133,6.44238Z" style="fill:#fff"/><path d="M88.66634,65.12964a2.04973,2.04973,0,0,1,1.05664.99219,9.03247,9.03247,0,0,1,.34766,3.22851,9.84479,9.84479,0,0,1-.33985,2.92676,2.88463,2.88463,0,0,1-1.17285,1.583,5.34268,5.34268,0,0,1-2.52148.542,3.817,3.817,0,0,1-2.32617-.62988,2.9183,2.9183,0,0,1-1.11036-1.543,12.847,12.847,0,0,1-.2666-3.16894v-1.25h3.11719v2.56835a5.226,5.226,0,0,0,.0957,1.30372c.06446.18554.415.27343.63672.27343.24121,0,.57813-.1123.65528-.34668a8.25909,8.25909,0,0,0,.11523-1.83593V68.67945a3.96631,3.96631,0,0,0-.16211-1.32813c-.10742-.28027-.65234-.46387-.86328-.55176a3.93371,3.93371,0,0,0-1.22656-.15136V64.35327a9.26367,9.26367,0,0,0,1.75879-.10742.6937.6937,0,0,0,.37793-.46875,4.03445,4.03445,0,0,0,.11523-1.13281v-.87891a2.835,2.835,0,0,0-.13477-1.09375.74742.74742,0,0,0-.59765-.26855c-.21582,0-.57129.09765-.65137.2832a3.66424,3.66424,0,0,0-.11914,1.18653v1.29882H82.33333V61.824a4.2946,4.2946,0,0,1,.81739-3.06153,3.62446,3.62446,0,0,1,2.60058-.79589c1.48633,0,2.87891.36718,3.40821,1.10253a5.16043,5.16043,0,0,1,.79492,3.06446,4.71055,4.71055,0,0,1-.28516,1.918A2.84006,2.84006,0,0,1,88.66634,65.12964Z" style="fill:#fff"/><path d="M99.31087,74.0896H96.055V61.43335H94.71322V74.0896H91.45833V58.26929h7.85254Z" style="fill:#fff"/><path d="M100.92122,58.27906h3.27051a7.83465,7.83465,0,0,1,2.2793.26367,2.22466,2.22466,0,0,1,1.07226.76172,2.91764,2.91764,0,0,1,.48633,1.206,13.72052,13.72052,0,0,1,.127,2.19238v1.377a7.12665,7.12665,0,0,1-.24707,2.207,1.936,1.936,0,0,1-.90625,1.06445,3.5043,3.5043,0,0,1-1.72461.37109h-1.10938V74.0896h-3.248Zm3.248,2.70507v4.02344c.0918.00684.17188.00977.23828.00977.29883,0,.74414-.09278.85938-.27832a2.5,2.5,0,0,0,.17383-1.15723V62.283a1.83572,1.83572,0,0,0-.2002-1.05469A1.80033,1.80033,0,0,0,104.16927,60.98413Z" style="fill:#fff"/><path d="M116.81478,67.53687q0,2.38329-.08789,3.374a4.427,4.427,0,0,1-.55567,1.81152,3.23908,3.23908,0,0,1-1.26171,1.25977,3.76205,3.76205,0,0,1-1.85157.43945,3.85438,3.85438,0,0,1-1.80176-.415,3.16441,3.16441,0,0,1-1.28417-1.24511,4.3365,4.3365,0,0,1-.57813-1.80664q-.09375-.97705-.09277-3.418V64.83179q0-2.3833.08886-3.374a4.4114,4.4114,0,0,1,.55469-1.81153,3.23908,3.23908,0,0,1,1.26172-1.25976,3.762,3.762,0,0,1,1.85156-.43946,3.85165,3.85165,0,0,1,1.80176.415,3.16453,3.16453,0,0,1,1.28418,1.24512,4.35185,4.35185,0,0,1,.5791,1.80664q.09229.97706.0918,3.418Zm-3.24707-5.19531a6.14146,6.14146,0,0,0-.09668-1.41114.3891.3891,0,0,0-.39746-.30761.42337.42337,0,0,0-.38965.249,4.4096,4.4096,0,0,0-.13477,1.46973v7.38281a9.10027,9.10027,0,0,0,.08887,1.69922.3927.3927,0,0,0,.41211.32226.41771.41771,0,0,0,.4248-.37109,9.86719,9.86719,0,0,0,.09278-1.76758Z" style="fill:#fff"/><path d="M129.39583,58.27906V74.0896h-3.188l-.00329-10.67383L124.93508,74.0896h-2.26052L121.3371,63.65991l-.00439,10.42969h-3.18688V58.27906h4.71729q.21048,1.42529.433,3.36132l.51744,4.02149.83755-7.38281Z" style="fill:#fff"/><path d="M72.82161,81.827H70.804v5.50755H69.67025V80.71279h3.15136Z" style="fill:#007ac0"/><path d="M75.68587,85.9793H74.139l-.30078,1.35528H72.639l1.75488-6.62179H75.432l1.7666,6.62179H75.98763Zm-1.2998-1.11425h1.0498l-.52539-2.36038Z" style="fill:#007ac0"/><path d="M80.24837,82.53651a.91641.91641,0,0,0-.17187-.58214.56.56,0,0,0-.46485-.2183.50876.50876,0,0,0-.42187.21194.888.888,0,0,0-.16406.56121H77.89193a2.07361,2.07361,0,0,1,.22558-.97962,1.63657,1.63657,0,0,1,.62305-.66673,1.67265,1.67265,0,0,1,.87109-.23649,1.71277,1.71277,0,0,1,1.30567.4939,1.93492,1.93492,0,0,1,.46875,1.38894,1.77886,1.77886,0,0,1-.19434.83045,1.53744,1.53744,0,0,1-.53418.59306,1.32718,1.32718,0,0,1,.59375.58031,2.02724,2.02724,0,0,1,.208.966,1.95452,1.95452,0,0,1-.50488,1.419,1.78206,1.78206,0,0,1-1.34278.523,1.84109,1.84109,0,0,1-.91992-.23194,1.61621,1.61621,0,0,1-.64062-.664,2.17021,2.17021,0,0,1-.2295-1.02783h1.13868a.94559.94559,0,0,0,.18066.58213.56314.56314,0,0,0,.4707.241.62908.62908,0,0,0,.51758-.241.97067.97067,0,0,0,.19238-.62307,1.25936,1.25936,0,0,0-.166-.73676.56484.56484,0,0,0-.48242-.22285H79.099V83.41881h.57812Q80.24837,83.41472,80.24837,82.53651Z" style="fill:#007ac0"/><path d="M83.46419,85.12883a1.93637,1.93637,0,0,0,.21094.89413.64669.64669,0,0,0,.59961.302.66009.66009,0,0,0,.63867-.43842,3.65714,3.65714,0,0,0,.22168-1.30344H83.765V83.46884h1.36621a3.28454,3.28454,0,0,0-.24707-1.30526.67819.67819,0,0,0-.625-.42751.64949.64949,0,0,0-.584.282,1.9428,1.9428,0,0,0-.21484.95052h-1.1377a3.00542,3.00542,0,0,1,.583-1.72821,1.72322,1.72322,0,0,1,2.81933.25013,4.40491,4.40491,0,0,1,.54786,2.36493v.39112a4.35129,4.35129,0,0,1-.53418,2.32582,1.64915,1.64915,0,0,1-1.46387.85319,1.69985,1.69985,0,0,1-1.38086-.62034,2.76408,2.76408,0,0,1-.56348-1.67637Z" style="fill:#007ac0"/><path d="M91.23568,87.33458H90.10579V84.50122H88.431v2.83336H87.2972V80.71279H88.431v2.67873h1.6748V80.71279h1.12989Z" style="fill:#007ac0"/><path d="M95.32357,84.46938H93.556v1.7555h2.09082v1.1097H92.4222V80.71279H95.639V81.827H93.556v1.56449h1.76758Z" style="fill:#007ac0"/><path d="M97.70931,85.006v2.32854H96.57552V80.71279h1.91309a1.62363,1.62363,0,0,1,1.3291.60942,2.43213,2.43213,0,0,1,.49609,1.58268,2.26665,2.26665,0,0,1-.49023,1.5372,1.70382,1.70382,0,0,1-1.35742.564Zm0-1.11425h.7793a.57932.57932,0,0,0,.502-.25013,1.25138,1.25138,0,0,0,.17773-.72767,1.493,1.493,0,0,0-.18164-.78952.56251.56251,0,0,0-.48632-.29744h-.791Z" style="fill:#007ac0"/><path d="M104.50911,81.827h-2.01757v5.50755h-1.13379V80.71279h3.15136Z" style="fill:#007ac0"/><path d="M109.18,84.61946a3.47339,3.47339,0,0,1-.53418,2.06931,1.72994,1.72994,0,0,1-1.4834.73677,1.7491,1.7491,0,0,1-1.48535-.72949,3.43,3.43,0,0,1-.54785-2.04475V83.51886a3.67423,3.67423,0,0,1,.53613-2.13116,1.82842,1.82842,0,0,1,2.9668-.01273A3.60541,3.60541,0,0,1,109.18,83.487Zm-1.13769-1.10969a3.12788,3.12788,0,0,0-.2168-1.33255.73656.73656,0,0,0-1.33789-.01637,2.9676,2.9676,0,0,0-.22363,1.2807v1.17791a2.832,2.832,0,0,0,.21972,1.27979.72154.72154,0,0,0,.67871.41205.70143.70143,0,0,0,.65918-.403,2.76923,2.76923,0,0,0,.22071-1.248Z" style="fill:#007ac0"/><path d="M114.07747,85.12883a2.73944,2.73944,0,0,1-.54,1.71457,1.74623,1.74623,0,0,1-1.40429.58214,1.66392,1.66392,0,0,1-1.46-.73859,3.70929,3.70929,0,0,1-.50684-2.10842V83.46429a3.60266,3.60266,0,0,1,.52442-2.10388,1.68821,1.68821,0,0,1,1.458-.73858,1.6711,1.6711,0,0,1,1.39453.60487,3.0544,3.0544,0,0,1,.542,1.73732h-1.13868a2.05071,2.05071,0,0,0-.18261-.9669.67269.67269,0,0,0-.61524-.2656.66466.66466,0,0,0-.64453.37475,3.038,3.038,0,0,0-.20019,1.23522v1.25069a3.36091,3.36091,0,0,0,.18652,1.35528.6617.6617,0,0,0,.64258.36838.686.686,0,0,0,.61719-.2565,1.93549,1.93549,0,0,0,.19335-.93051Z" style="fill:#007ac0"/><path d="M117.95345,84.46938h-1.76758v1.7555h2.09082v1.1097h-3.22461V80.71279h3.2168V81.827h-2.083v1.56449h1.76758Z" style="fill:#007ac0"/><path d="M122.92025,81.827h-1.38867v5.50755h-1.1377V81.827h-1.36621V80.71279h3.89258Z" style="fill:#007ac0"/><path d="M125.03939,83.09136h.67187a1.72248,1.72248,0,0,1,1.35742.57031,2.22022,2.22022,0,0,1,.50586,1.52629,2.31358,2.31358,0,0,1-.49414,1.539,1.67164,1.67164,0,0,1-1.30761.6076h-1.8711V80.71279h1.1377Zm0,1.10969v2.02383h.6875a.596.596,0,0,0,.52246-.29288,1.36187,1.36187,0,0,0,.19043-.75314,1.213,1.213,0,0,0-.18652-.7022.60654.60654,0,0,0-.51954-.27561Z" style="fill:#007ac0"/><path d="M54.33333,58.27906V69.74683s-3.8125.3125-5.625,1.999a8.34473,8.34473,0,0,0-3.126,7.42867c.31346,4.39231,3.80483,8.42918,9.72728,8.251,3.0237-.091,6.2737-2.623,6.5862-5.30371.05428-.4656.25-2.8125-1.3125-4-3.02556-2.29943-6.25.93577-6.25.93577v-4.968h10.9375V84.20105l-.44716.664c-1.67784,2.46953-6.24034,4.25678-8.42784,4.25678A24.30138,24.30138,0,0,1,51.864,88.974c-2.78062-.41466-11.34312-2.74911-12.65562-12.22716a25.36312,25.36312,0,0,1,0-4.4375c.8125-8.375,7.625-13.25,14.3125-14.03027A7.20032,7.20032,0,0,1,54.33333,58.27906Z" style="fill:#fff"/><path d="M60.06626,44.99683s-5.147,6.2608-4.73293,14.1875a27.70467,27.70467,0,0,0,4.5625,13.9375s4.92777-7.37495,4.92784-13.90625A23.84935,23.84935,0,0,0,60.06626,44.99683Zm-.17043,26.0625a9.67608,9.67608,0,0,1-1.25-4.67092,15.11136,15.11136,0,0,1,1.25-4.82908,16.57726,16.57726,0,0,1,1.25,4.99119A10.26555,10.26555,0,0,1,59.89583,71.05933Zm2.69928-11.05846c-.3491-2.79355-2.69928-7.06654-2.69928-7.06654a22.531,22.531,0,0,0-2.5,6.6875c-.508,4.02135-.01272,5.6734-.01272,5.6734a22.28017,22.28017,0,0,1-.968-5.8299A20.192,20.192,0,0,1,60.02645,48.4834s3.61938,5.40137,3.61938,11.26343a16.06892,16.06892,0,0,1-1.29859,5.893A13.70324,13.70324,0,0,0,62.59511,60.00087Z" style="fill:#fff"/></g></svg>