<svg xmlns="http://www.w3.org/2000/svg" viewBox="0 0 173 142"><title>may</title><g id="2363c7ae-f43e-4cab-b3a4-6cae783c285c" data-name="Layer 15"><path d="M69.96409,84.8945H61.171V62.69579c-3.90021,4.464-6.49419,8.15019-9.796,11.92921-3.11374-3.64838-6.47328-7.203-10.2029-11.573V84.81026H32.25V53.01843h7.22461L51.46791,67.0699,62.66028,53.01843l7.30381,0Z" style="fill:#2d2d2c"/><path d="M104.26758,85.07932c-2.9697.41358-5.3472-1.45741-7.288-2.07932-4.36294,1.86652-8.74248,3.57508-13.87685,2.56605-5.6223-1.10493-8.98239-4.62067-9.1066-9.63594-.11973-4.835,3.04634-8.69152,8.67055-10.01693,3.544-.83519,8.39583-.54469,13.08333.45531.875-9.556-8.22917-9.53516-17.0625-5.86849l-2.19672-5.45857C82.90544,52.66135,87.5,51.8125,93.51394,52.75c5.51991.86049,10.54856,5.3125,10.67117,11.696C104.18511,64.446,104.26758,77.69654,104.26758,85.07932ZM95.75,78.82984V70.5625c-6.57283-1.71485-12.59538-.3125-12.59538,4.93636C83.15462,80.354,89.41957,82.08333,95.75,78.82984Z" style="fill:#2d2d2c"/><path d="M109.03091,53.17583h8.901c0,5.98885-.02456,11.90474.00574,17.82035.046,8.98512,4.2068,12.00382,12.90516,7.84139V53.01843l9.44387-.04119V85.3125a5.98259,5.98259,0,0,1-3.36586-.37817c-1.0763-.43852-2.61883-1.20543-3.81872-1.77074-5.33816,2.378-10.8852,3.76709-16.83041,2.242-4.18831-1.07441-6.96556-3.72747-7.14392-7.93564C108.7919,69.5446,109.03091,61.5949,109.03091,53.17583Z" style="fill:#2d2d2c"/><path d="M132.5,38.29169l3,2.375c-4.5,9.89583-17.375,9.70833-22.10239.02l3.28989-2.395C121.1875,44.1875,128.0625,44.25,132.5,38.29169Z" style="fill:#22b82a"/><path d="M96.45182,94.16113v2.20508H92.64453v1.665h3.52214v2.20508H92.64453V104.166H90.0498V94.16113Z" style="fill:#00b205"/><path d="M108.6224,99.1709a4.97734,4.97734,0,0,1-1.57422,3.73535,5.98529,5.98529,0,0,1-7.89063,0,4.97821,4.97821,0,0,1-1.57519-3.73535,5.39268,5.39268,0,0,1,.39746-2.02442,4.81948,4.81948,0,0,1,1.17773-1.72558,5.98235,5.98235,0,0,1,7.89063,0,4.80451,4.80451,0,0,1,1.17675,1.72558A5.37359,5.37359,0,0,1,108.6224,99.1709Zm-5.51954-2.71485a2.74264,2.74264,0,0,0-2.02539.79493,2.63714,2.63714,0,0,0-.79492,1.96484,2.483,2.483,0,0,0,.79492,1.86035,2.80693,2.80693,0,0,0,2.02539.79492,2.7184,2.7184,0,0,0,2.00977-.78027,2.62375,2.62375,0,0,0,.81055-1.91992,2.562,2.562,0,0,0-.81055-1.91992A2.81889,2.81889,0,0,0,103.10286,96.45605Z" style="fill:#00b205"/><path d="M120.9043,99.1709a4.97734,4.97734,0,0,1-1.57422,3.73535,5.98529,5.98529,0,0,1-7.89063,0,4.97821,4.97821,0,0,1-1.57519-3.73535,5.39268,5.39268,0,0,1,.39746-2.02442,4.81948,4.81948,0,0,1,1.17773-1.72558,5.98235,5.98235,0,0,1,7.89063,0,4.80467,4.80467,0,0,1,1.17676,1.72558A5.37377,5.37377,0,0,1,120.9043,99.1709Zm-5.51953-2.71485a2.74261,2.74261,0,0,0-2.02539.79493,2.63711,2.63711,0,0,0-.79493,1.96484,2.483,2.483,0,0,0,.79493,1.86035,2.8069,2.8069,0,0,0,2.02539.79492,2.71839,2.71839,0,0,0,2.00976-.78027,2.62375,2.62375,0,0,0,.81055-1.91992,2.562,2.562,0,0,0-.81055-1.91992A2.81888,2.81888,0,0,0,115.38477,96.45605Z" style="fill:#00b205"/><path d="M126.55957,104.166h-3.97624V94.16113H126.335a5.47519,5.47519,0,0,1,3.97461,1.37989,4.80582,4.80582,0,0,1,1.39551,3.64453,4.6849,4.6849,0,0,1-1.30567,3.46582,5.2363,5.2363,0,0,1-1.64941,1.08691A5.468,5.468,0,0,1,126.55957,104.166Zm-1.38151-7.79981v5.59473h.87174a3.01458,3.01458,0,0,0,2.19043-.71973,2.71684,2.71684,0,0,0,.76465-2.05566,2.86706,2.86706,0,0,0-.78027-2.18946,2.946,2.946,0,0,0-2.06934-.62988Z" style="fill:#00b205"/><path d="M133.50957,103.26563l1.11035-2.09961a3.30983,3.30983,0,0,0,2.29492,1.01953,1.29884,1.29884,0,0,0,1.00489-.34473.85566.85566,0,0,0,.25488-.62988.75266.75266,0,0,0-.28418-.59961,4.30751,4.30751,0,0,0-1.29-.52539l-.67578-.21a3.13362,3.13362,0,0,1-1.43945-.80957,2.51265,2.51265,0,0,1-.57032-1.77051,3.26414,3.26414,0,0,1,.915-2.415,3.46732,3.46732,0,0,1,2.56543-.94531,6.60586,6.60586,0,0,1,3.08985.81054L139.45,96.77148a2.75845,2.75845,0,0,0-1.71-.67578,1.18873,1.18873,0,0,0-.85547.30078.75892.75892,0,0,0-.25488.53907.72357.72357,0,0,0,.13574.45019,1.80145,1.80145,0,0,0,.86914.4502l.79492.24023a4.08936,4.08936,0,0,1,1.81543.99024,2.50944,2.50944,0,0,1,.64551,1.78418,3.40627,3.40627,0,0,1-.94531,2.5205,4.00387,4.00387,0,0,1-2.95508,1.01954,5.64844,5.64844,0,0,1-1.96484-.33008A6.28687,6.28687,0,0,1,133.50957,103.26563Z" style="fill:#00b205"/></g></svg>