<svg xmlns="http://www.w3.org/2000/svg" viewBox="0 0 173 142"><title>sgc</title><g id="2454c392-2988-45ba-b3f6-8c764fb9819e" data-name="Layer 17"><path d="M51.03946,52.254c6.66587,3.54971,10.33333,10.94166,9.95977,21.15-2.25144-9.79167-8.78133-15.78406-17.05-15.875-7.5764-.08334-13.49307,4.33333-16.49639,12.54158a16.89651,16.89651,0,0,1,1.01248-11.43144C31.24779,52.69566,40.78946,46.79566,51.03946,52.254Z" style="fill:#cf495d"/><path d="M32.95612,50.36233a27.882,27.882,0,0,0-5.813,6.05471c-3.3852,4.68642-3.74985,10.32725-1.27035,16.57029,2.33333,5.875,9.04167,10.375,19.54167,9.16667a16.35447,16.35447,0,0,1-16.125,3.58333c-5.875-2-9.88229-5.939-10.91667-12.33333a19.22679,19.22679,0,0,1,5.70833-17.04167A32.54273,32.54273,0,0,1,32.95612,50.36233Z" style="fill:#4c7da8"/><path d="M26.12279,86.94566c9.54167,3.95834,18.40457,1.63953,23-5.5A16.9085,16.9085,0,0,0,46.66446,60.404c6.041,1.76514,10.57071,6.36944,11.41666,12.125.94747,6.44623-.99577,12.2943-6.63616,16.31983C44.73453,93.638,32.53946,92.654,26.12279,86.94566Z" style="fill:#f3d44d"/><path d="M71.22142,64.65888a3.08994,3.08994,0,0,1-1.206-1.15723,3.37736,3.37736,0,0,1,.00488-3.33008,3.11816,3.11816,0,0,1,1.21-1.15625,3.54481,3.54481,0,0,1,1.72364-.418,3.60129,3.60129,0,0,1,1.41308.26953,2.88284,2.88284,0,0,1,1.08008.7832l-.75586.71094a2.20565,2.20565,0,0,0-1.68359-.73828,2.35881,2.35881,0,0,0-1.16114.28418,2.04156,2.04156,0,0,0-.80078.78711,2.41181,2.41181,0,0,0,0,2.28613,2.04163,2.04163,0,0,0,.80078.78711,2.35892,2.35892,0,0,0,1.16114.28418,2.194,2.194,0,0,0,1.68359-.74707l.75586.71972a2.88773,2.88773,0,0,1-1.085.78321,3.63142,3.63142,0,0,1-1.417.26953A3.55292,3.55292,0,0,1,71.22142,64.65888Z" style="fill:#52555c"/><path d="M76.67943,58.6872h1.12419v4.47266l3.30112-4.47266H82.167V64.987H81.04377V60.52314L77.74265,64.987H76.67943Z" style="fill:#52555c"/><path d="M83.73692,58.6872h4.78544v.96289H84.86111v1.54785h1.81776a2.593,2.593,0,0,1,1.68153.47266,1.66337,1.66337,0,0,1,.57448,1.36328,1.74739,1.74739,0,0,1-.63165,1.44434,2.812,2.812,0,0,1-1.80061.50878h-2.7657Zm2.70473,5.39941a1.63361,1.63361,0,0,0,1.00129-.26074.89346.89346,0,0,0,.342-.75586q0-.97266-1.34331-.97168H84.86111v1.98828Z" style="fill:#52555c"/><path d="M90.19606,58.6872h1.12419v4.47266l3.30112-4.47266h1.06227V64.987H94.5604V60.52314L91.25928,64.987H90.19606Z" style="fill:#52555c"/><path d="M101.457,58.95673a2.03987,2.03987,0,0,1,.90888.77441,2.41487,2.41487,0,0,1,0,2.38965,2.02357,2.02357,0,0,1-.90888.77832,3.33761,3.33761,0,0,1-1.3919.26953H98.678V64.987H97.53664V58.6872h2.52848A3.33761,3.33761,0,0,1,101.457,58.95673Zm-.31153,2.89844a1.30709,1.30709,0,0,0,0-1.85449,1.724,1.724,0,0,0-1.13277-.32325H98.678v2.502h1.33474A1.724,1.724,0,0,0,101.14549,61.85517Z" style="fill:#52555c"/><path d="M105.22566,64.65888a3.09,3.09,0,0,1-1.20606-1.15723,3.37736,3.37736,0,0,1,.00488-3.33008,3.11816,3.11816,0,0,1,1.21-1.15625,3.54484,3.54484,0,0,1,1.72364-.418,3.60129,3.60129,0,0,1,1.41308.26953,2.88277,2.88277,0,0,1,1.08008.7832l-.75586.71094a2.20565,2.20565,0,0,0-1.68359-.73828,2.35875,2.35875,0,0,0-1.16113.28418,2.04152,2.04152,0,0,0-.80079.78711,2.41181,2.41181,0,0,0,0,2.28613,2.04159,2.04159,0,0,0,.80079.78711,2.35885,2.35885,0,0,0,1.16113.28418,2.194,2.194,0,0,0,1.68359-.74707l.75586.71972a2.88765,2.88765,0,0,1-1.085.78321,3.63142,3.63142,0,0,1-1.417.26953A3.55285,3.55285,0,0,1,105.22566,64.65888Z" style="fill:#52555c"/><path d="M112.77521,62.33173h-1.19087V64.987h-1.173V58.6872h1.173v2.63672H112.812l1.841-2.63672h1.26443L113.72751,61.738l2.27239,3.249H114.653Z" style="fill:#52555c"/><path d="M120.85228,63.529h-3.05464l-.60241,1.458h-1.16976l2.74965-6.2998h1.11767L122.651,64.987h-1.18682Zm-.37508-.918-1.15177-2.75391L118.18124,62.611Z" style="fill:#52555c"/><path d="M128.08112,58.6872V64.987h-1.11766V63.23212h-1.632L124.19676,64.987h-1.19629l1.309-1.94433a1.97316,1.97316,0,0,1-.98127-.76953,2.26962,2.26962,0,0,1-.34478-1.27344,2.36188,2.36188,0,0,1,.31352-1.24121,2.0334,2.0334,0,0,1,.89034-.79688,3.12428,3.12428,0,0,1,1.35352-.27441Zm-3.57464,1.32324a1.23837,1.23837,0,0,0-.37129.97168,1.2518,1.2518,0,0,0,.358.958,1.45592,1.45592,0,0,0,1.03905.33789h1.43119V59.67743h-1.38762A1.54533,1.54533,0,0,0,124.50648,60.01044Z" style="fill:#52555c"/><path d="M74.322,69.17743H71.199l.00879,5.30957H70.05541V68.1872H74.3308Z" style="fill:#52555c"/><path d="M80.1726,73.50556V74.487H75.447V68.1872h4.59961v.98047H76.61693v1.63867h3.042v.96289h-3.042v1.73633Z" style="fill:#52555c"/><path d="M87.20971,68.1872V74.487h-1.1709V71.78681H82.781V74.487H81.61107V68.1872H82.781v2.60059h3.25782V68.1872Z" style="fill:#52555c"/><path d="M93.83373,73.50556V74.487H89.10814V68.1872h4.59961v.98047H90.27806v1.63867h3.042v.96289h-3.042v1.73633Z" style="fill:#52555c"/><path d="M99.29174,68.45673a2.07761,2.07761,0,0,1,.93164.77441,2.3637,2.3637,0,0,1,0,2.38965,2.06066,2.06066,0,0,1-.93164.77832,3.49558,3.49558,0,0,1-1.42676.26953H96.4431V74.487H95.27318V68.1872H97.865A3.49558,3.49558,0,0,1,99.29174,68.45673Zm-.31934,2.89844a1.28468,1.28468,0,0,0,0-1.85449,1.79849,1.79849,0,0,0-1.16113-.32325H96.4431v2.502h1.36817A1.79844,1.79844,0,0,0,98.9724,71.35517Z" style="fill:#52555c"/><path d="M101.79857,68.1872h1.15235v4.47266l3.38379-4.47266h1.08886V74.487h-1.15136V70.02314L102.88842,74.487h-1.08985Z" style="fill:#52555c"/><path d="M113.34056,68.45673a2.07764,2.07764,0,0,1,.93165.77441,2.36377,2.36377,0,0,1,0,2.38965,2.06069,2.06069,0,0,1-.93165.77832,3.4955,3.4955,0,0,1-1.42675.26953h-1.42188V74.487H109.322V68.1872h2.5918A3.4955,3.4955,0,0,1,113.34056,68.45673Zm-.31933,2.89844a1.28468,1.28468,0,0,0,0-1.85449,1.79849,1.79849,0,0,0-1.16113-.32325h-1.36817v2.502h1.36817A1.79844,1.79844,0,0,0,113.02123,71.35517Z" style="fill:#52555c"/><path d="M121.113,68.1872l-2.73633,5.085a2.74258,2.74258,0,0,1-.85938,1.0127,1.90017,1.90017,0,0,1-1.084.33691,2.31219,2.31219,0,0,1-.92774-.19824l.28809-.918a2.1085,2.1085,0,0,0,.6123.11719,1.08329,1.08329,0,0,0,.93555-.585l.09961-.15235-2.51074-4.69824h1.251l1.86231,3.69922,1.917-3.69922Z" style="fill:#52555c"/><path d="M129.11791,68.51532a3.04863,3.04863,0,0,1,1.166,1.15625,3.48953,3.48953,0,0,1,0,3.33008,3.04435,3.04435,0,0,1-1.166,1.15723,3.34759,3.34759,0,0,1-1.66895.418,3.392,3.392,0,0,1-1.54394-.35059,3.06933,3.06933,0,0,1-1.14258-.98144,3.1644,3.1644,0,0,1-.55371-1.43067h-.99024V74.487h-1.15234V68.1872h1.15234v2.583h1.00782a3.165,3.165,0,0,1,.57129-1.39063,3.05984,3.05984,0,0,1,1.13476-.94531,3.40142,3.40142,0,0,1,1.5166-.33691A3.33748,3.33748,0,0,1,129.11791,68.51532Zm-.60742,4.75684a1.95727,1.95727,0,0,0,.74707-.7832,2.596,2.596,0,0,0,0-2.30371,1.951,1.951,0,0,0-.74707-.78321,2.06936,2.06936,0,0,0-1.06153-.27929,2.04254,2.04254,0,0,0-1.05761.27929,1.99064,1.99064,0,0,0-.74707.78321,2.55462,2.55462,0,0,0,0,2.30371,1.99714,1.99714,0,0,0,.74707.7832,2.04245,2.04245,0,0,0,1.05761.2793A2.06927,2.06927,0,0,0,128.51049,73.27216Z" style="fill:#52555c"/><path d="M140.96459,68.1872V74.487H132.155V68.1872h1.15234v5.30957h2.70671V68.1872h1.15136v5.30957h2.64681V68.1872Zm.9082,5.30957v2.33105h-1.08008V74.487H139.7849v-.99023Z" style="fill:#52555c"/><path d="M147.42715,73.029h-3.14941l-.62109,1.458h-1.20606l2.835-6.2998h1.15235l2.84375,6.2998H148.058Zm-.38672-.918-1.1875-2.75391L144.67325,72.111Z" style="fill:#52555c"/><path d="M154.88028,68.1872V74.487h-1.15235V72.73212h-1.68261L150.8754,74.487H149.642l1.34961-1.94433a2.02567,2.02567,0,0,1-1.01172-.76953,2.21858,2.21858,0,0,1-.35547-1.27344,2.30662,2.30662,0,0,1,.32324-1.24121,2.076,2.076,0,0,1,.918-.79688,3.30678,3.30678,0,0,1,1.39551-.27441Zm-3.68555,1.32324a1.2189,1.2189,0,0,0-.38281.97168,1.23138,1.23138,0,0,0,.36914.958,1.53088,1.53088,0,0,0,1.07129.33789h1.47558V69.17743h-1.43066A1.62613,1.62613,0,0,0,151.19473,69.51044Z" style="fill:#52555c"/><path d="M72.36888,81.33173H71.199V83.987H70.04662V77.6872H71.199v2.63672H72.405l1.80859-2.63672H75.4558L73.30443,80.738l2.23242,3.249H74.21361Z" style="fill:#52555c"/><path d="M77.44686,83.65888A3.10251,3.10251,0,0,1,76.232,82.49775a3.351,3.351,0,0,1,0-3.32129,3.10247,3.10247,0,0,1,1.21484-1.16114,3.81965,3.81965,0,0,1,3.47461,0,3.118,3.118,0,0,1,1.21484,1.15625,3.361,3.361,0,0,1,0,3.33008,3.11348,3.11348,0,0,1-1.21484,1.15723,3.81957,3.81957,0,0,1-3.47461,0Zm2.87109-.8916a2.04438,2.04438,0,0,0,.792-.792,2.39249,2.39249,0,0,0,0-2.27637,2.04425,2.04425,0,0,0-.792-.792,2.40381,2.40381,0,0,0-2.26757,0,2.04425,2.04425,0,0,0-.792.792,2.39249,2.39249,0,0,0,0,2.27637,2.04438,2.04438,0,0,0,.792.792,2.40381,2.40381,0,0,0,2.26757,0Z" style="fill:#52555c"/><path d="M89.79452,83.987l-.00879-4.17578-2.07032,3.45606h-.52148l-2.07031-3.40235V83.987H84.0162V77.6872h.96289l2.49316,4.167,2.4668-4.167h.95312l.01856,6.2998Z" style="fill:#52555c"/><path d="M98.0826,77.6872V83.987H96.93025V78.67743h-3.2666V83.987H92.51131V77.6872Z" style="fill:#52555c"/><path d="M103.65455,82.529h-3.14942L99.884,83.987H98.678l2.835-6.2998h1.15235L105.509,83.987h-1.22363Zm-.38672-.918-1.1875-2.75391L100.90064,81.611Z" style="fill:#52555c"/><path d="M111.6021,77.6872V83.987h-1.15016V81.28681h-3.20012V83.987h-1.1492V77.6872h1.1492v2.60059h3.20012V77.6872Z" style="fill:#52555c"/><path d="M113.04316,77.6872h1.13193v4.47266L117.499,77.6872h1.06959V83.987h-1.131V79.52314L114.1137,83.987h-1.07054Z" style="fill:#52555c"/><path d="M125.16446,77.6872V83.987h-1.13194V82.23212h-1.65281L121.2305,83.987H120.019l1.32571-1.94433a1.99445,1.99445,0,0,1-.9938-.76953,2.24816,2.24816,0,0,1-.34918-1.27344,2.33868,2.33868,0,0,1,.31752-1.24121,2.05068,2.05068,0,0,1,.90171-.79688,3.19865,3.19865,0,0,1,1.37079-.27441Zm-3.62028,1.32324a1.23017,1.23017,0,0,0-.376.97168,1.2432,1.2432,0,0,0,.3626.958,1.4865,1.4865,0,0,0,1.05232.33789h1.44945V78.67743H122.6272A1.5783,1.5783,0,0,0,121.54418,79.01044Z" style="fill:#52555c"/></g></svg>