<svg xmlns="http://www.w3.org/2000/svg" viewBox="0 0 173 142"><title>sibur</title><g id="b15e08de-353e-47d5-be1a-4f7cc3787b07" data-name="Layer 11"><path d="M64.9254,63.60791c-1.375,8.625,20.625,8.4375,22.92835,15.658.72971,4.24838-4.90613,4.6977-9.36585,4.967-2.85383.1723-5.07844.07872-5.3286,1.48891-.2339,2.32359,14.51543,4.84954,22.7661,3.538,5.07075-.80608,11.04994-2.29548,13.1875-7.52688,2.375-5.8125-2.09614-9.01442-7-10.9375-9.1563-2.61933-19.5625-4-21.625-7.375-2-4.125,2.439-6.28959,6.0625-6.39583v5.58333l2.09079-.02928V57.035c10.875-.31709,24.953,6.64948,27.88186,16.05679,2.52757,8.11825-3.06943,16.97338-14.47853,21.5168-14.26067,5.679-28.35814,2.82738-39.36912-5.81317C53.6754,81.73291,54.5504,69.29541,64.9254,63.60791Z" style="fill:#008c95"/><path d="M108.5625,60.09518c-5.9496-4.54977-13.88364-6.08438-19.8871-6.29977a30.61377,30.61377,0,0,0-1.125-5.3664c-.5-1.8211-6.8942-10.413-6.82334-10.96675.04774-.373,6.71189,9.00949,6.82334,8.64565,2.125-6.9375-1.0625-13.75-6.875-16.1789-2.4058,4.02411-5.16412,9.15421-8.056,13.9914-3.62886-5.86949-1.319-11.75-3.8995-18.25509a48.80744,48.80744,0,0,1,11.85946,3.81853l6.22642-10.34176C94.77534,33.816,101.92941,46.30121,109.4254,60.60791Z" style="fill:#008c95"/><path d="M40.52621,101.79541c4.51-8.1195,8.7506-16.24975,13.39919-24.61873,0,12.86873,11.375,22.11873,24.8125,24.61873Z" style="fill:#008c95"/><path d="M119.169,77.17668c4.81964,8.694,8.95781,16.4999,13.40561,24.52317-12.161,0-24.78987.09556-37.0867.09556C110.6754,98.17041,118.7379,90.04541,119.169,77.17668Z" style="fill:#008c95"/><path d="M85.909,48.26773a17.06142,17.06142,0,0,1,.57887,5.34018c-7.1875.375-16.625,2.5-23.8125,8.0625,3.81349-6.88094,6.80794-12.15844,9.71715-17.40773C77.3629,48.29541,80.16877,48.95523,85.909,48.26773Z" style="fill:#008c95"/><path d="M108.49193,59.829l.21022.01349c.23684.22533.049.04664-.13922-.1315Z" style="fill:#008c95"/><polygon points="40.425 105.733 40.425 118.858 56.55 118.858 56.55 113.483 49.863 113.483 49.863 116.858 47.3 116.858 47.3 107.733 49.863 107.733 49.863 111.045 56.55 111.045 56.55 105.733 40.425 105.733" style="fill:#008c95"/><polygon points="69.113 105.733 66.175 112.736 66.175 105.733 59.675 105.733 59.675 118.858 66.175 118.858 69.113 111.628 69.113 118.858 75.55 118.858 75.55 105.733 69.113 105.733" style="fill:#008c95"/><path d="M94.4879,107.98291v-2.25h-16v13.125h16v-9l-9.3125.03125v-1.875Zm-6.625,3.64843v5.1875l-2.6875.00782v-5.1875Z" style="fill:#008c95"/><polygon points="106.863 105.733 106.863 110.795 104.113 110.795 104.113 105.733 97.55 105.733 97.55 112.67 106.863 112.67 106.863 116.795 104.113 116.795 104.113 114.67 97.55 114.67 97.55 118.858 113.613 118.858 113.613 105.733 106.863 105.733" style="fill:#008c95"/><path d="M116.5504,105.73291v13.125h6.6875v-4.25h9.3125v-8.875Zm6.6875,7v-5.0625h2.5625v5.0625Z" style="fill:#008c95"/></g></svg>