<svg xmlns="http://www.w3.org/2000/svg" viewBox="0 0 173 142"><title>tbm</title><g id="a8919e4e-ad56-4d29-9858-ceec031ba132" data-name="Layer 10"><path d="M39.43314,52.51745l-10.95833,30H64.64148L57.67273,62.4862s-2.85084,8.24-3.78125,11.03125a14.09265,14.09265,0,0,1-3,5h-7s1.20462-2.3963,2.46875-5.6875c2.23013-5.80623,5.25479-14.48313,6.53125-18.3125.7071-2.12132,2-2,2-2h6.20833l.38686.32693,11.292,30.80472s1.02946,2.45169.20655,4.05585a3.106,3.106,0,0,1-2.09375,1.8125h-44a7.2653,7.2653,0,0,1-2.15625-.90625,3.73489,3.73489,0,0,1-.84375-4.09375l11-30s1-2,2-2h2.54166Z" style="fill:#008a8c"/><path d="M45.11023,52.48456S43.80944,52.28144,42.454,55.955c-2.15625,5.84375-8.5,22.59375-8.5,22.59375h5.21875s1.41344-.93384,2.6875-4.78125c3.15625-9.53125,7.90625-21.28289,7.90625-21.28289Z" style="fill:#008a8c"/><polygon points="86.423 64.517 79.391 64.517 79.413 63.682 81.391 60.517 99.391 60.517 99.391 64.517 93.391 64.517 93.423 78.549 86.391 78.549 86.423 64.517" style="fill:#008a8c"/><path d="M119.34979,68.76c-1.75-1.66669-5.70825-1.70087-5.70825-1.70087l-5.20868.03448-.08307-2.61783,9.83331.04412,2.16671-3.12744v-.875H101.43316V78.5487h13.70832s3.41668-.36462,4.70831-2.23962a5.8529,5.8529,0,0,0,1.04169-3.125v-.84078A4.977,4.977,0,0,0,119.34979,68.76Zm-7.79163,6.00746h-3.16668V71.01h2.97918s2.60415-.07613,2.60415,1.81969C113.97481,74.85052,111.55816,74.76745,111.55816,74.76745Z" style="fill:#008a8c"/><path d="M136.30814,60.51745H129.204a2.94467,2.94467,0,0,0-2.3125,2.08334c-.81276,2.61241-2.53744,7.5-4.17381,11.91666A34.16083,34.16083,0,0,1,120.893,78.5487h4.37352a23.43129,23.43129,0,0,0,2.09659-4.72025c.87611-2.78274,2.50757-7.311,2.50757-7.311h.58334l.0625,12.03125h5.77083a3.84952,3.84952,0,0,0,2.22917-2.15625c1.67147-3.46233,3.875-10.1875,3.875-10.1875V78.5487h7V60.51745H141.829s-1.31239-.1232-1.77073.71013c-.46582.84695-1.48491,4.27618-2.1376,6.002-.93386,2.46928-1.45242,3.78723-1.45242,3.78723Z" style="fill:#008a8c"/></g></svg>