<svg xmlns="http://www.w3.org/2000/svg" viewBox="0 0 173 142"><title>upeco</title><g id="0aa06eec-0fa8-4fef-b4ef-51b861ed213d" data-name="Layer 19"><path d="M83.47559,61.32854V71.55315a5.29785,5.29785,0,0,1-.48145,2.63965,4.45285,4.45285,0,0,1-3.56543,1.50683,4.14875,4.14875,0,0,1-3.52344-1.83984,4.87675,4.87675,0,0,1-.47265-2.625V61.30412H72.13379V71.89787a6.30124,6.30124,0,0,0,1.67676,4.49219,8.35256,8.35256,0,0,0,5.61816,2.31836c1.73145,0,4.25488-.52344,5.66992-2.001a6.29743,6.29743,0,0,0,1.67578-4.49121V61.32854Z" style="fill:#194493"/><path d="M100.78613,64.10784A4.85659,4.85659,0,0,0,99.084,62.2426a7.29119,7.29119,0,0,0-3.94043-.93848H89.91113v17.085h3.32032V71.73088H95.169a6.79954,6.79954,0,0,0,4.4121-1.35644,4.778,4.778,0,0,0,1.79688-3.85645A5.20266,5.20266,0,0,0,100.78613,64.10784Zm-2.626,2.38476a1.9629,1.9629,0,0,1-.72071,1.60938,3.52084,3.52084,0,0,1-2.2705.62109h-1.9375V64.31194h1.9121a4.98681,4.98681,0,0,1,1.65528.2373,1.84431,1.84431,0,0,1,.87793.56934,2.41577,2.41577,0,0,1,.38379.6914A2.331,2.331,0,0,1,98.16016,66.4926Z" style="fill:#194493"/><polygon points="114.186 64.361 114.186 61.304 103.667 61.304 103.667 78.389 114.186 78.389 114.186 75.33 106.972 75.33 106.972 70.872 113.563 70.872 113.563 67.814 106.972 67.814 106.972 64.361 114.186 64.361" style="fill:#194493"/><path d="M124.4209,64.017a5.8049,5.8049,0,0,1,4.21094,1.38476l.584.52734V61.96526l-.209-.0918a11.17022,11.17022,0,0,0-4.5127-.86426,8.64125,8.64125,0,0,0-6.16113,2.23145,8.80083,8.80083,0,0,0-2.73731,6.667,8.68434,8.68434,0,0,0,8.77637,8.80078,12.48769,12.48769,0,0,0,4.63379-.85156l.21-.0918V73.74651l-.59082.5625a5.5,5.5,0,0,1-4.18066,1.39062,5.406,5.406,0,0,1-4.04688-1.65039,5.74974,5.74974,0,0,1-1.59766-4.1416,5.95483,5.95483,0,0,1,1.56446-4.24316A5.27744,5.27744,0,0,1,124.4209,64.017Z" style="fill:#194493"/><path d="M145.21777,63.54338a9.1365,9.1365,0,1,0,2.53418,6.31543A8.63622,8.63622,0,0,0,145.21777,63.54338Zm-.67089,6.31543a5.80008,5.80008,0,0,1-1.59473,4.21387,5.91482,5.91482,0,0,1-8.14844,0,6.36177,6.36177,0,0,1,0-8.42774,5.91227,5.91227,0,0,1,8.14844,0A5.797,5.797,0,0,1,144.54688,69.85881Z" style="fill:#194493"/><path d="M25.24805,67.76673A11.02072,11.02072,0,0,0,36.2095,78.23327c5.98956,0,10.41927-4.29466,10.96144-10.46654Z" style="fill:#194493"/><path d="M48.709,89.603a11.039,11.039,0,0,0,10.5201-10.94954c0-5.98306-4.31664-10.40795-10.5201-10.94954Z" style="fill:#194493"/><path d="M68.01824,78.296A11.03894,11.03894,0,0,1,57.49815,67.34651c0-5.98306,4.31663-10.40795,10.52009-10.94954Z" style="fill:#ff6500"/></g></svg>