<svg width="72" height="72" viewBox="0 0 72 72" fill="none" xmlns="http://www.w3.org/2000/svg">
<rect width="72" height="72" fill="white"/>
<rect width="72" height="72" fill="#FFD200"/>
<path d="M30.2289 40.4614H24.257V46.983H30.2289V40.4614Z" fill="white"/>
<path d="M38.4859 49.4785H32.5141V56.0001H38.4859V49.4785Z" fill="white"/>
<path d="M21.9719 49.4785H16V56.0001H21.9719V49.4785Z" fill="white"/>
<path d="M38.4859 40.4614H32.5141V46.983H38.4859V40.4614Z" fill="white"/>
<path d="M30.2289 31.4438H24.257V37.9655H30.2289V31.4438Z" fill="white"/>
<path d="M21.9719 40.4614H16V46.983H21.9719V40.4614Z" fill="white"/>
<path d="M30.2289 49.4785H24.257V56.0001H30.2289V49.4785Z" fill="white"/>
<path d="M21.9719 31.4438H16V37.9655H21.9719V31.4438Z" fill="white"/>
<path d="M38.4859 31.4438H32.5141V37.9655H38.4859V31.4438Z" fill="white"/>
<path d="M55 31.4438H49.0281V37.9655H55V31.4438Z" fill="white"/>
<path d="M46.155 18.9922V21.9845H43.8698V18.9922H27.1302V21.9845H24.845V18.9922H16V28.9488H55V18.9922H46.155Z" fill="white"/>
<path d="M46.743 49.4785H40.7711V56.0001H46.743V49.4785Z" fill="white"/>
<path d="M55 40.4614H49.0281V46.983H55V40.4614Z" fill="white"/>
<path d="M55 49.4785H49.0281V56.0001H55V49.4785Z" fill="white"/>
<path d="M46.743 31.4438H40.7711V37.9655H46.743V31.4438Z" fill="white"/>
<path d="M46.743 40.4614H40.7711V46.983H46.743V40.4614Z" fill="white"/>
<path d="M27.1302 16H24.8451V18.9923H27.1302V16Z" fill="white"/>
<path d="M46.1549 16H43.8698V18.9923H46.1549V16Z" fill="white"/>
</svg>
