<svg width="72" height="72" viewBox="0 0 72 72" fill="none" xmlns="http://www.w3.org/2000/svg">
<rect width="72" height="72" fill="white"/>
<rect width="72" height="72" fill="#FFD200"/>
<path d="M28.2637 39.8516V47.5449H16V49.8301H30.5488V39.8516H28.2637Z" fill="white"/>
<path d="M42.3555 47.5449V39.8516H40.0703V49.8301H55V47.5449H42.3555Z" fill="white"/>
<path d="M36.6426 39.8516H34.3574V56H36.6426V39.8516Z" fill="white"/>
<path d="M46.2402 22.332C45.8943 22.332 45.5482 22.3525 45.2048 22.3932C43.1256 19.0462 39.4795 17 35.5 17C32.9147 17 30.3813 17.8879 28.3666 19.5002C26.6781 20.8515 25.4021 22.667 24.6993 24.6941C24.3417 24.6429 23.9802 24.6172 23.6171 24.6172C19.4171 24.6172 16 28.0342 16 32.2344C16 36.4346 19.4171 39.8516 23.6172 39.8516H28.2637V35.3894C26.9338 34.9178 25.9785 33.6477 25.9785 32.1582C25.9785 30.2682 27.5162 28.7305 29.4062 28.7305C31.2963 28.7305 32.834 30.2682 32.834 32.1582C32.834 33.6477 31.8787 34.9178 30.5488 35.3894V39.8516H34.3574V28.5339C33.0275 28.0623 32.0723 26.7923 32.0723 25.3027C32.0723 23.4127 33.6099 21.875 35.5 21.875C37.3901 21.875 38.9277 23.4127 38.9277 25.3027C38.9277 26.7923 37.9725 28.0623 36.6426 28.5339V39.8516H40.0703V35.2275C38.9428 34.6656 38.166 33.5013 38.166 32.1582C38.166 30.2682 39.7037 28.7305 41.5938 28.7305C43.4838 28.7305 45.0215 30.2682 45.0215 32.1582C45.0215 33.7865 43.88 35.1521 42.3555 35.4996V39.8516H46.2402C51.0704 39.8516 55 35.9219 55 31.0918C55 26.2617 51.0704 22.332 46.2402 22.332Z" fill="white"/>
<path d="M29.4062 31.0156C28.7762 31.0156 28.2637 31.5282 28.2637 32.1582C28.2637 32.7882 28.7762 33.3008 29.4062 33.3008C30.0363 33.3008 30.5488 32.7882 30.5488 32.1582C30.5488 31.5282 30.0363 31.0156 29.4062 31.0156Z" fill="white"/>
<path d="M41.5938 31.0156C40.9637 31.0156 40.4512 31.5282 40.4512 32.1582C40.4512 32.7882 40.9637 33.3008 41.5938 33.3008C42.2238 33.3008 42.7363 32.7882 42.7363 32.1582C42.7363 31.5282 42.2238 31.0156 41.5938 31.0156Z" fill="white"/>
<path d="M35.5 24.1602C34.87 24.1602 34.3574 24.6727 34.3574 25.3027C34.3574 25.9328 34.87 26.4453 35.5 26.4453C36.13 26.4453 36.6426 25.9328 36.6426 25.3027C36.6426 24.6727 36.13 24.1602 35.5 24.1602Z" fill="white"/>
</svg>
