<svg width="72" height="72" viewBox="0 0 72 72" fill="none" xmlns="http://www.w3.org/2000/svg">
<rect width="72" height="72" fill="white"/>
<rect width="72" height="72" fill="#FFD200"/>
<path d="M32.4836 39.5962C31.5985 40.0333 30.7572 40.554 29.9696 41.1508V54.9998H37.9826V45.2187C35.2497 44.7203 33.0691 42.4941 32.4836 39.5962Z" fill="white"/>
<path d="M39.1445 42.6744C41.3366 42.6744 43.1531 40.9289 43.4426 38.6656C42.0756 38.2569 40.6342 38.0381 39.1445 38.0381C37.6549 38.0381 36.2134 38.2569 34.8466 38.6656C35.136 40.9289 36.9525 42.6744 39.1445 42.6744Z" fill="white"/>
<path d="M45.8055 39.5962C45.2309 42.4393 43.1214 44.6368 40.4608 45.1894V54.9998H55C55 48.1409 51.2342 42.277 45.8055 39.5962Z" fill="white"/>
<path d="M39.2218 26.1907V28.8419H30.9131C31.9761 32.6282 35.2589 35.387 39.1445 35.387C43.8908 35.387 47.7385 31.2709 47.7385 26.1935C47.7385 21.1161 43.8908 17 39.1445 17C35.2608 17 31.9794 19.7561 30.9147 23.5395H25.9218V26.1907H39.2218Z" fill="white"/>
<path d="M25.0131 38.0322H19.4783V40.6834H25.0131V38.0322Z" fill="white"/>
<path d="M27.4913 40.6841H25.013V43.3352H19.4783V40.6841H17V55.0004H27.4913V40.6841Z" fill="white"/>
</svg>
