<svg width="72" height="72" viewBox="0 0 72 72" fill="none" xmlns="http://www.w3.org/2000/svg">
<rect width="72" height="72" fill="white"/>
<rect width="72" height="72" fill="#FFD200"/>
<path d="M34.3569 42.5877L30.8638 39.0053L30.0773 38.1996L29.2917 37.3931L27.2631 39.4743L28.0487 40.28L32.3283 44.6689L33.1139 45.4747L35.1426 43.3942L34.3569 42.5877Z" fill="white"/>
<path d="M30.7556 46.2811L29.9691 45.4745L27.2624 42.6986L25.6903 41.0864L18.2118 48.756C17.4299 49.5572 17 50.6229 17 51.7569C17 52.324 17.1075 52.8736 17.3128 53.3813C17.518 53.8898 17.8212 54.3566 18.2118 54.7571C18.9931 55.5583 20.0322 55.9999 21.1373 55.9999C22.2424 55.9999 23.2815 55.5583 24.0634 54.7571L31.5419 47.0876L30.7556 46.2811Z" fill="white"/>
<path d="M53.1376 21.738L50.3264 18.8549L49.5251 18.0332L43.7758 23.2811L44.8927 24.4266L38.383 31.1027L41.195 33.9858L47.7048 27.3097L48.8092 28.443L53.9255 22.5468L53.1376 21.738Z" fill="white"/>
<path d="M54.0745 50.42L39.6222 35.5985L37.2417 33.1571L34.1961 30.0337C35.4998 26.883 34.8995 23.1022 32.395 20.5337C31.5205 19.6368 30.5006 18.9778 29.4133 18.5566C29.3325 18.5255 29.2517 18.4958 29.1702 18.4677C29.1479 18.4601 29.1265 18.4517 29.1042 18.4449C29.0248 18.4175 28.9456 18.3917 28.8662 18.3666C28.8514 18.362 28.8366 18.3582 28.8225 18.3536C28.7551 18.3331 28.6876 18.3141 28.6195 18.2959C28.5928 18.2882 28.5661 18.2806 28.5395 18.2738C28.4631 18.2532 28.3868 18.2343 28.3097 18.216C28.2852 18.2107 28.2608 18.2054 28.2363 18.2C28.1777 18.1871 28.1199 18.1749 28.0613 18.1628C28.0302 18.1567 27.9991 18.1506 27.968 18.1445C27.8946 18.1308 27.8205 18.1172 27.7464 18.1058C27.7145 18.1005 27.6833 18.0959 27.6522 18.0913C27.6004 18.0837 27.5477 18.0761 27.4959 18.0693C27.4618 18.0647 27.4277 18.0601 27.3929 18.0563C27.3209 18.048 27.2491 18.0403 27.1772 18.0343C27.1409 18.0304 27.1053 18.0282 27.0697 18.0251C27.0215 18.0213 26.9734 18.0183 26.9252 18.0152C26.8889 18.0129 26.8525 18.0107 26.8162 18.0091C26.7458 18.0061 26.674 18.0038 26.6028 18.0023C26.5658 18.0015 26.5279 18.0008 26.4901 18.0008C26.4701 18.0008 26.4501 18 26.4301 18C26.4049 18 26.3789 18.0008 26.3537 18.0008C26.3137 18.0015 26.2744 18.0015 26.2351 18.0023C26.1625 18.0038 26.0899 18.0069 26.0179 18.0107C25.9779 18.0122 25.9379 18.0152 25.8979 18.0175C25.8534 18.0206 25.8097 18.0236 25.7652 18.0274C25.7252 18.0304 25.6851 18.0335 25.6451 18.0373C25.5739 18.0441 25.5028 18.0518 25.4316 18.0609C25.3968 18.0647 25.3619 18.07 25.3264 18.0746C25.273 18.0814 25.2204 18.0891 25.167 18.0974C25.1344 18.1028 25.1018 18.1073 25.07 18.1127C24.9884 18.1264 24.9069 18.1408 24.8253 18.1567C24.2961 18.2616 23.7743 18.4182 23.2681 18.628L28.4223 23.9147L27.2334 27.418L23.7618 28.6943L18.6068 23.4084C17.378 26.5302 17.9976 30.2381 20.465 32.7686C21.3396 33.6655 22.3594 34.3245 23.4467 34.7457C23.5542 34.7874 23.6631 34.8263 23.7721 34.8635C23.781 34.8665 23.7899 34.8696 23.7987 34.8726C23.9017 34.9076 24.0055 34.9395 24.11 34.9699C24.1249 34.9745 24.1396 34.979 24.1545 34.9828C24.2545 35.0118 24.3553 35.0383 24.4562 35.0627C24.4755 35.0672 24.4947 35.0726 24.514 35.0771C24.6118 35.1007 24.7104 35.122 24.809 35.1418C24.8313 35.1456 24.8527 35.1501 24.875 35.1547C24.9721 35.173 25.0691 35.1896 25.167 35.2049C25.19 35.2087 25.2137 35.2117 25.2375 35.2155C25.3338 35.2292 25.4309 35.2422 25.5288 35.2527C25.5525 35.255 25.5762 35.2573 25.5999 35.2603C25.6978 35.2695 25.7948 35.2779 25.8927 35.2847C25.9157 35.2862 25.9394 35.287 25.9632 35.2885C26.0617 35.2938 26.1603 35.2984 26.2589 35.2999C26.2805 35.3007 26.3019 35.3007 26.3234 35.3007C26.345 35.3015 26.3657 35.3014 26.3864 35.3014C26.4005 35.3022 26.4153 35.3022 26.4294 35.3022C26.462 35.3022 26.4939 35.3007 26.5265 35.2999C26.5895 35.2992 26.6525 35.2984 26.7147 35.2961C26.7688 35.2946 26.8222 35.2916 26.8763 35.2885C26.9393 35.2855 27.0031 35.2817 27.0667 35.2771C27.1194 35.2725 27.172 35.2672 27.2246 35.2626C27.2884 35.2558 27.3528 35.2497 27.4165 35.2421C27.4684 35.236 27.5203 35.2284 27.5722 35.2215C27.6367 35.2124 27.7012 35.2033 27.7656 35.1927C27.816 35.1843 27.8671 35.1744 27.9182 35.1653C27.9827 35.1539 28.0472 35.1424 28.1117 35.1288C28.1628 35.1182 28.2139 35.106 28.2658 35.0939C28.3288 35.0794 28.3918 35.0658 28.4548 35.0506C28.5112 35.0361 28.5675 35.0194 28.6246 35.0042C28.6809 34.9882 28.738 34.9739 28.7943 34.9571C28.907 34.9237 29.0189 34.8879 29.1301 34.8492C29.1968 34.8263 29.2643 34.8021 29.3309 34.7769C29.3976 34.7518 29.4636 34.726 29.5303 34.6994C29.5963 34.6727 29.6622 34.6454 29.7281 34.6165L30.8636 35.781L36.7152 41.7821L49.6059 55.0021C49.8226 55.2245 50.0751 55.4212 50.347 55.5677C50.5803 55.6961 50.8308 55.7948 51.0882 55.8588C51.3239 55.9174 51.5891 55.9515 51.8404 55.9515C52.2452 55.9515 52.6539 55.8706 53.029 55.7144C53.1234 55.6751 53.2188 55.6286 53.3094 55.5805C53.3554 55.5562 53.4006 55.5304 53.4459 55.503C53.6704 55.3669 53.8817 55.2004 54.0743 55.0021C55.3085 53.7372 55.3085 51.6849 54.0745 50.42Z" fill="white"/>
</svg>
