<svg width="72" height="72" viewBox="0 0 72 72" fill="none" xmlns="http://www.w3.org/2000/svg">
<rect width="72" height="72" fill="white"/>
<rect width="72" height="72" fill="#FFD200"/>
<path d="M35 31.4336C31.9308 31.4336 29.4336 33.9308 29.4336 37C29.4336 40.0692 31.9308 42.5664 35 42.5664C38.0692 42.5664 40.5664 40.0692 40.5664 37C40.5664 33.9308 38.0692 31.4336 35 31.4336Z" fill="white"/>
<path d="M54 40.1398V33.8602L48.8486 32.8459C48.567 31.9099 48.1931 31.0074 47.7277 30.1486L50.6022 25.8368L46.1632 21.3977L41.8514 24.2722C40.9925 23.8069 40.0901 23.4329 39.154 23.1513L38.1398 18H31.8602L30.8459 23.1514C29.9099 23.433 29.0074 23.8069 28.1486 24.2723L23.8368 21.3977L19.3977 25.8368L22.2722 30.1486C21.8069 31.0074 21.4329 31.9098 21.1513 32.8459L16 33.8602V40.1397L21.1514 41.1541C21.433 42.0901 21.8069 42.9926 22.2723 43.8514L19.3977 48.1632L23.8368 52.6023L28.1486 49.7278C29.0074 50.1931 29.9098 50.5671 30.8459 50.8487L31.8602 56H38.1397L39.1541 50.8486C40.0901 50.567 40.9926 50.1931 41.8514 49.7277L46.1632 52.6022L50.6023 48.1632L47.7278 43.8514C48.1931 42.9925 48.5671 42.0901 48.8487 41.154L54 40.1398ZM35 44.793C30.7034 44.793 27.207 41.2966 27.207 37C27.207 32.7034 30.7034 29.207 35 29.207C39.2966 29.207 42.793 32.7034 42.793 37C42.793 41.2966 39.2966 44.793 35 44.793Z" fill="white"/>
</svg>
