<svg width="72" height="72" viewBox="0 0 72 72" fill="none" xmlns="http://www.w3.org/2000/svg">
<rect width="72" height="72" fill="white"/>
<rect width="72" height="72" fill="#FFD200"/>
<path d="M41.9632 48.2136L37.8656 47.6309L36.05 44.041L34.2343 47.6309L30.1367 48.2136L33.1037 51.037L32.4079 54.9999L36.05 53.1299L39.692 54.9999L38.9962 51.037L41.9632 48.2136Z" fill="white"/>
<path d="M55 48.2136L50.9024 47.6309L49.0868 44.041L47.2712 47.6309L43.1735 48.2136L46.1405 51.037L45.4447 54.9999L49.0868 53.1299L52.7288 54.9999L52.033 51.037L55 48.2136Z" fill="white"/>
<path d="M28.8265 48.2136L24.7288 47.6309L22.9132 44.041L21.0976 47.6309L17 48.2136L19.967 51.037L19.2712 54.9999L22.9132 53.1299L26.5553 54.9999L25.8595 51.037L28.8265 48.2136Z" fill="white"/>
<path d="M36.0499 17C33.594 17 31.5968 18.9972 31.5968 21.4531C31.5968 23.9091 33.594 25.9063 36.0499 25.9063C38.5059 25.9063 40.5031 23.9091 40.5031 21.4531C40.5031 18.9972 38.5059 17 36.0499 17Z" fill="white"/>
<path d="M35.9062 26.2432C30.9954 26.2432 27 30.2386 27 35.1494V39.6025H44.8125V35.1494C44.8125 30.2386 40.8171 26.2432 35.9062 26.2432Z" fill="white"/>
</svg>
