<?xml version="1.0" encoding="utf-8"?>
<!-- Generator: Adobe Illustrator 19.2.1, SVG Export Plug-In . SVG Version: 6.00 Build 0)  -->
<svg version="1.1" id="Layer_1" xmlns="http://www.w3.org/2000/svg" xmlns:xlink="http://www.w3.org/1999/xlink" x="0px" y="0px"
	 viewBox="0 0 120 120" enable-background="new 0 0 120 120" xml:space="preserve">
<path fill="#FFFFFF" d="M105.4,120H14.6C6.5,120,0,113.5,0,105.4V14.6C0,6.5,6.5,0,14.6,0h90.8c8.1,0,14.6,6.5,14.6,14.6v90.8
	C120,113.5,113.5,120,105.4,120z"/>
<g>
	<linearGradient id="SVGID_1_" gradientUnits="userSpaceOnUse" x1="102.6906" y1="20.016" x2="25.275" y2="97.4316">
		<stop  offset="0" style="stop-color:#FC0BB2"/>
		<stop  offset="4.379971e-002" style="stop-color:#FC09C2"/>
		<stop  offset="0.144" style="stop-color:#FB04E2"/>
		<stop  offset="0.2286" style="stop-color:#FA01F5"/>
		<stop  offset="0.2868" style="stop-color:#FA00FC"/>
		<stop  offset="0.3372" style="stop-color:#F402FC"/>
		<stop  offset="0.4046" style="stop-color:#E308FC"/>
		<stop  offset="0.4811" style="stop-color:#C713FB"/>
		<stop  offset="0.5255" style="stop-color:#B41AFB"/>
		<stop  offset="0.5891" style="stop-color:#AB1EFB"/>
		<stop  offset="0.8652" style="stop-color:#882EFB"/>
		<stop  offset="0.9944" style="stop-color:#882EFB"/>
	</linearGradient>
	<path fill="url(#SVGID_1_)" d="M114.7,54.7C114.7,24.5,90.2,0,60,0C29.8,0,5.3,24.5,5.3,54.7c0,30.2,24.5,54.7,54.7,54.7
		c6.2,0,12.2-1.1,17.8-3l1.5,13.5l20-11.2l-12-6.6C103.7,92.7,114.7,75,114.7,54.7z"/>
	<path d="M22.1,66.7c-0.4,0-0.8-0.1-1.2-0.4c-0.9-0.7-1.1-1.9-0.4-2.8c0.1-0.2,3.3-4.5,7.8-7.3c2.2-1.4,5.4-2.3,8.2-2.9
		c-2.1-0.7-4.6-1.2-7.5-1.1c-5.8,0.3-11.2,4.4-11.2,4.4c-0.9,0.7-2.1,0.5-2.8-0.3c-0.7-0.9-0.5-2.1,0.3-2.8c0.3-0.2,6.4-5,13.5-5.3
		c8.9-0.4,15.3,4.4,15.5,4.6c0.7,0.5,0.9,1.4,0.7,2.2c-0.2,0.8-0.9,1.4-1.8,1.4c-2.5,0.2-9.6,1.1-12.9,3.2c-3.8,2.4-6.7,6.3-6.7,6.3
		C23.3,66.4,22.7,66.7,22.1,66.7z"/>
	<path d="M98.4,42.4c0,0-19.5,2.2-41.2,14.3C34.8,69.3,25.7,79.7,25.7,79.7c11.1,13.9,23.9,19.6,35.8,19.6
		C89.1,99.2,112.1,69.3,98.4,42.4L98.4,42.4z"/>
	<path d="M67.5,43c-0.2,0-0.4,0-0.7-0.1c-0.8-0.3-1.3-1-1.3-1.8c0-0.3-0.1-8.3,5.4-15.2c4.4-5.6,11.9-7.7,12.2-7.8
		c1.1-0.3,2.2,0.3,2.5,1.4c0.3,1.1-0.3,2.2-1.4,2.5l0,0c-0.1,0-6.6,1.9-10.2,6.5c-1.8,2.2-2.9,4.6-3.5,6.7c2.1-2,4.8-4,7.2-5
		c4.9-1.9,10.3-2,10.5-2c0,0,0,0,0,0c1.1,0,2,0.9,2,2c0,1.1-0.9,2-2,2c0,0-4.8,0-9,1.7c-3.6,1.4-8.5,6.6-10.1,8.5
		C68.7,42.7,68.1,43,67.5,43z"/>
	<path fill="#FFFFFF" d="M95.9,47.1c3.8,9.7,2.8,20.3-2.9,29.6c-6.9,11.2-19,18.2-31.5,18.2c-10.9,0-21.2-5.2-30-15
		c4.1-3.7,12.9-11.1,27.8-19.5C75,51.6,89.7,48.2,95.9,47.1"/>
	<g>
		<path fill="#FFFFFF" d="M23.9,29.3c0,0-3.8,3.3-6.4,8c-2.4,4.3-3.9,11.4-3.9,11.4s3.5-7.2,6.1-10.8c2.4-3.3,8.1-8.5,8.1-8.5
			L23.9,29.3z"/>
	</g>
</g>
</svg>
