<svg width="72" height="72" viewBox="0 0 72 72" fill="none" xmlns="http://www.w3.org/2000/svg">
<rect width="72" height="72" fill="#F9D205"/>
<path d="M11.9121 11.8358C13.0643 11.8358 14.178 11.7623 15.2319 11.6254V0.210345C14.1781 0.0735451 13.0643 0 11.9121 0C5.33325 0 0 2.39027 0 5.33893V6.49679C0 9.44536 5.33325 11.8358 11.9121 11.8358Z" transform="translate(16.0001 27.0423)" fill="white"/>
<path d="M11.9121 7.59028C13.0643 7.59028 14.178 7.51674 15.2319 7.38004V4.03409C14.1778 4.17089 13.0646 4.24544 11.9121 4.24544C6.16948 4.24544 1.3764 2.42406 0.250532 0C0.0865735 0.353097 0 0.718705 0 1.09349V2.25135C0 5.20002 5.33325 7.59028 11.9121 7.59028Z" transform="translate(16.0001 37.2484)" fill="white"/>
<path d="M15.2319 4.29417V4.03409C14.1778 4.17089 13.0646 4.24544 11.9121 4.24544C6.16948 4.24544 1.3764 2.42406 0.250532 0C0.0865735 0.352997 0 0.718605 0 1.09339V2.25125C0 5.20002 5.33325 7.59028 11.9121 7.59028C13.2278 7.59028 14.4932 7.49444 15.6765 7.3179C15.3832 6.72499 15.2319 6.09971 15.2319 5.45193V4.29417Z" transform="translate(16 43.209)" fill="white"/>
<path d="M11.9121 0C5.33325 0 0 2.39027 0 5.33893V6.49679C0 9.44546 5.33325 11.8357 11.9121 11.8357C18.4909 11.8357 23.8242 9.44546 23.8242 6.49679V5.33893C23.8242 2.39027 18.4909 0 11.9121 0Z" transform="translate(33.1758 18)" fill="white"/>
<path d="M11.9121 4.24544C6.16949 4.24544 1.3764 2.42417 0.250532 0C0.0865729 0.352997 0 0.718603 0 1.09349V2.25135C0 5.20002 5.33325 7.59028 11.9121 7.59028C18.4909 7.59028 23.8242 5.20002 23.8242 2.25135V1.09349C23.8242 0.718603 23.7377 0.352997 23.5737 0C22.4479 2.42417 17.6548 4.24544 11.9121 4.24544Z" transform="translate(33.1758 28.206)" fill="white"/>
<path d="M11.9121 4.24544C6.16949 4.24544 1.3764 2.42406 0.250532 0C0.0865729 0.352997 0 0.718603 0 1.09349V2.25135C0 5.20012 5.33325 7.59038 11.9121 7.59038C18.4909 7.59038 23.8242 5.20012 23.8242 2.25135V1.09349C23.8242 0.718603 23.7377 0.352997 23.5737 0C22.4479 2.42417 17.6548 4.24544 11.9121 4.24544Z" transform="translate(33.1758 34.1667)" fill="white"/>
<path d="M11.9121 4.24544C6.16949 4.24544 1.3764 2.42406 0.250532 0C0.0865729 0.353097 0 0.718603 0 1.09339V2.25135C0 5.20002 5.33325 7.59028 11.9121 7.59028C18.4909 7.59028 23.8242 5.20002 23.8242 2.25135V1.09339C23.8242 0.718603 23.7377 0.352896 23.5737 0C22.4479 2.42396 17.6548 4.24544 11.9121 4.24544Z" transform="translate(33.1758 40.4491)" fill="white"/>
<path d="M11.9121 4.24544C6.16949 4.24544 1.3764 2.42416 0.250532 9.85205e-05C0.0865729 0.353196 0 0.718905 0 1.09349V2.25135C0 5.20001 5.33325 7.59028 11.9121 7.59028C18.4909 7.59028 23.8242 5.20001 23.8242 2.25135V1.09339C23.8242 0.718602 23.7377 0.352896 23.5737 0C22.4479 2.42406 17.6548 4.24544 11.9121 4.24544Z" transform="translate(33.1758 46.4097)" fill="white"/>
</svg>
