<svg width="72" height="72" viewBox="0 0 72 72" fill="none" xmlns="http://www.w3.org/2000/svg">
<rect width="72" height="72" fill="black" fill-opacity="0"/>
<rect width="72" height="72" fill="#F9D205"/>
<rect width="42" height="44" fill="black" fill-opacity="0" transform="translate(15 14)"/>
<rect width="42" height="44" fill="black" fill-opacity="0" transform="translate(15 14)"/>
<path d="M33.1206 38.9254C40.0192 38.9254 45.6316 33.3344 45.6316 26.4619C45.6316 19.5904 40.0192 14 33.1206 14C26.2221 14 20.6098 19.5904 20.6098 26.462C20.6098 33.3344 26.2221 38.9254 33.1206 38.9254Z" fill="white"/>
<path d="M43.5161 51.0017C41.9235 48.0527 42.3737 44.2893 44.8696 41.8025C45.0523 41.6205 45.2426 41.4486 45.4395 41.2872C44.1111 39.8519 42.5983 38.6414 40.9792 37.7306C40.7243 37.5872 40.4041 37.6342 40.2013 37.8448L33.1208 45.2014L26.0399 37.8448C25.8372 37.6342 25.5169 37.5873 25.2621 37.7306C22.2269 39.438 19.6614 42.0953 17.8429 45.4152C15.9831 48.8109 15 52.7462 15 56.7959C15 57.1486 15.287 57.4346 15.6411 57.4346H38.4188C38.2948 56.7398 38.501 55.9979 39.04 55.461L43.5161 51.0017Z" fill="white"/>
<path d="M50.3963 55.0956C49.0797 55.0956 47.8131 54.7728 46.6866 54.166L43.4057 57.4346H50.6004C50.9544 57.4346 51.2415 57.1486 51.2415 56.7959C51.2415 56.2138 51.22 55.6339 51.1792 55.0572C50.9207 55.0826 50.6595 55.0956 50.3963 55.0956Z" fill="white"/>
<path d="M55.0861 42.7058C53.8521 41.4762 52.2113 40.7991 50.4662 40.7991C48.7209 40.7991 47.0802 41.4762 45.8461 42.7058C43.5298 45.0136 43.3204 48.6373 45.2166 51.1838L40.0164 56.3644C39.6408 56.7386 39.6407 57.3452 40.0164 57.7193C40.2041 57.9065 40.4503 58 40.6964 58C40.9424 58 41.1886 57.9065 41.3765 57.7193L46.5757 52.5398C47.6948 53.3695 49.0459 53.8181 50.4663 53.8181C52.2115 53.8181 53.8522 53.1411 55.0861 51.9115C56.3203 50.682 57 49.0474 57 47.3086C56.9998 45.5699 56.32 43.9352 55.0861 42.7058ZM53.7259 50.5566C52.8553 51.4241 51.6975 51.9019 50.4661 51.9019C49.2346 51.9019 48.0767 51.4241 47.206 50.5566C45.4085 48.7657 45.4085 45.8516 47.206 44.0607C48.0767 43.1931 49.2345 42.7154 50.4661 42.7154C51.6975 42.7154 52.8553 43.1931 53.7259 44.0608C54.5968 44.9284 55.0764 46.0818 55.0764 47.3087C55.0764 48.5355 54.5968 49.6889 53.7259 50.5566Z" fill="white"/>
</svg>
