<svg width="72" height="72" viewBox="0 0 72 72" fill="none" xmlns="http://www.w3.org/2000/svg">
<rect width="72" height="72" fill="black" fill-opacity="0"/>
<rect width="72" height="72" fill="#F9D205"/>
<rect width="45" height="42" fill="black" fill-opacity="0" transform="translate(14 15)"/>
<rect width="45" height="42" fill="black" fill-opacity="0" transform="translate(14 15)"/>
<path d="M41.377 47.6771L35.2984 44.6166C35.0157 44.4753 34.8272 44.1928 34.8272 43.9103V42.074C34.9215 41.9327 35.0157 41.7915 35.1099 41.6502C35.8639 40.5673 36.5236 39.3431 36.9948 38.0718C37.9843 37.4596 38.644 36.3767 38.644 35.1525V32.6099C38.644 31.9036 38.4084 31.1973 37.9843 30.6323V29.1256C38.0314 28.5605 38.1257 26.2534 36.4293 24.3229C34.9686 22.6278 32.6126 21.7803 29.4555 21.7803C26.2984 21.7803 23.9895 22.6278 22.4817 24.3229C20.7853 26.2534 20.8796 28.6076 20.9267 29.0785V30.6323C20.5026 31.1973 20.267 31.9036 20.267 32.6099V35.1525C20.267 36.0942 20.644 36.9888 21.3037 37.6009C21.8691 39.6727 22.8586 41.2265 23.4241 42.0269V43.8632C23.4241 44.1457 23.2827 44.4283 23 44.5695L17.4398 47.63C15.3194 48.8072 14 51.0202 14 53.4215V56.0583C14 56.5762 14.4241 57 14.9424 57H44.1099C44.6283 57 45.0524 56.5762 45.0524 56.0583V53.5628C45.0052 51.0673 43.5916 48.8072 41.377 47.6771Z" fill="white"/>
<path d="M54.7592 15H44.2042C41.8482 15 39.9633 16.8834 39.9633 19.2377V32.4215C39.9633 32.7982 40.1989 33.1278 40.5288 33.2691C40.6702 33.3161 40.7644 33.3632 40.9058 33.3632C41.1414 33.3632 41.377 33.2691 41.5654 33.1278L45.2408 29.6906H54.7592C57.1152 29.6906 59 27.8072 59 25.4529V19.2377C59 16.8834 57.0681 15 54.7592 15ZM44.9581 19.3789H48.1152C48.6335 19.3789 49.0576 19.8027 49.0576 20.3206C49.0576 20.8386 48.6335 21.2623 48.1152 21.2623H44.9581C44.4398 21.2623 44.0157 20.8386 44.0157 20.3206C44.0157 19.8027 44.4398 19.3789 44.9581 19.3789ZM52.7801 25.0291H44.9581C44.4398 25.0291 44.0157 24.6054 44.0157 24.0874C44.0157 23.5695 44.4398 23.1457 44.9581 23.1457H52.8272C53.3455 23.1457 53.7696 23.5695 53.7696 24.0874C53.7696 24.6054 53.3455 25.0291 52.7801 25.0291Z" fill="white"/>
</svg>
