<svg width="72" height="72" viewBox="0 0 72 72" fill="none" xmlns="http://www.w3.org/2000/svg">
<rect width="72" height="72" fill="black" fill-opacity="0"/>
<rect width="72" height="72" fill="#F9D205"/>
<rect width="41.6749" height="41.1053" fill="black" fill-opacity="0" transform="translate(15 15)"/>
<rect width="41.6749" height="41.1053" fill="black" fill-opacity="0" transform="translate(15 15)"/>
<path d="M52.3189 46.1988V50.5731H56.0248C56.4149 50.5731 56.6749 50.8304 56.6749 51.2164V55.462C56.6749 55.848 56.4149 56.1053 56.0248 56.1053H47.3127C46.9226 56.1053 46.6625 55.848 46.6625 55.462V53.9825H39.4458V55.462C39.4458 55.848 39.1207 56.1053 38.7957 56.1053H30.1486C29.8235 56.1053 29.4985 55.848 29.4985 55.462V51.2164C29.4985 50.8304 29.8235 50.5731 30.1486 50.5731H38.7957C39.1207 50.5731 39.4458 50.8304 39.4458 51.2164V52.6959H46.6625V51.2164C46.6625 50.8304 46.9226 50.5731 47.3127 50.5731H51.0186V46.1988H47.3127C46.9226 46.1988 46.6625 45.8772 46.6625 45.5556V44.076H39.4458V45.5556C39.4458 45.8772 39.1207 46.1988 38.7957 46.1988H30.1486C29.8235 46.1988 29.4985 45.8772 29.4985 45.5556V41.3099C29.4985 40.9883 29.8235 40.6667 30.1486 40.6667H33.7895V38.1579H20.6563V40.6667H24.2972C24.6873 40.6667 24.9474 40.9883 24.9474 41.3099V45.5556C24.9474 45.8772 24.6873 46.1988 24.2972 46.1988H15.6502C15.3251 46.1988 15 45.8772 15 45.5556V41.3099C15 40.9883 15.3251 40.6667 15.6502 40.6667H19.356V34.2982H15.6502C15.3251 34.2982 15 34.0409 15 33.655V29.4094C15 29.0234 15.3251 28.7661 15.6502 28.7661H19.356V25.4211C19.356 25.0994 19.6811 24.7778 20.0062 24.7778H33.8545V22.076H24.7523C24.4272 22.076 24.1022 21.7544 24.1022 21.4327V15.6433C24.1022 15.3216 24.4272 15 24.7523 15H44.322C44.7121 15 44.9721 15.3216 44.9721 15.6433V21.4327C44.9721 21.7544 44.7121 22.076 44.322 22.076H35.0898V24.7778H48.9381C49.3282 24.7778 49.5882 25.0994 49.5882 25.4211V28.7661H53.2941C53.6842 28.7661 53.9443 29.0234 53.9443 29.4094V33.655C53.9443 34.0409 53.6842 34.2982 53.2941 34.2982H44.6471C44.257 34.2982 43.9969 34.0409 43.9969 33.655V29.4094C43.9969 29.0234 44.257 28.7661 44.6471 28.7661H48.3529V26.0643H35.0898V28.7661H38.7957C39.1207 28.7661 39.4458 29.0234 39.4458 29.4094V33.655C39.4458 34.0409 39.1207 34.2982 38.7957 34.2982H30.1486C29.8235 34.2982 29.4985 34.0409 29.4985 33.655V29.4094C29.4985 29.0234 29.8235 28.7661 30.1486 28.7661H33.7895V26.0643H20.6563V28.7661H24.2972C24.6873 28.7661 24.9474 29.0234 24.9474 29.4094V33.655C24.9474 34.0409 24.6873 34.2982 24.2972 34.2982H20.6563V36.9357H34.5046C34.8947 36.9357 35.1548 37.193 35.1548 37.5789V40.731H38.8607C39.1858 40.731 39.5108 41.0526 39.5108 41.3743V42.8538H46.7276V41.3743C46.7276 41.0526 46.9876 40.731 47.3777 40.731H56.0248C56.4149 40.731 56.6749 41.0526 56.6749 41.3743V45.5556C56.6749 45.8772 56.4149 46.1988 56.0248 46.1988H52.3189Z" fill="white"/>
</svg>
