<svg width="72" height="72" viewBox="0 0 72 72" fill="none" xmlns="http://www.w3.org/2000/svg">
<rect width="72" height="72" fill="#F9D205"/>
<path d="M20.9881 19.679C22.1991 19.42 23.3161 18.419 23.4981 16.199C23.6481 14.382 23.1821 13.446 22.4941 12.969C24.4041 5.184 19.1361 3.66 19.1361 3.66C19.1361 3.66 15.1991 -3.019 7.51805 1.668C6.54105 2.264 5.02205 3.406 4.11705 4.585C2.66405 6.131 1.67505 8.64399 1.52005 12.714C0.582053 13.072 -0.154947 13.978 0.0280529 16.198C0.220053 18.519 1.43105 19.507 2.70505 19.709C4.42505 23.898 7.82105 27.35 11.8401 27.35C15.8681 27.35 19.2711 23.882 20.9881 19.679ZM11.8401 25.397C7.19305 25.397 3.45105 19.087 3.45105 13.862C3.45105 13.146 3.47405 12.482 3.51805 11.866C10.3151 12.163 14.3351 9.438 16.5231 7.074C18.5981 9.142 19.6761 11.754 20.2271 13.693C20.2271 13.749 20.2281 13.804 20.2281 13.861C20.2291 19.087 16.4881 25.397 11.8401 25.397Z" transform="translate(24.2449 13)" fill="white"/>
<path d="M15.423 6.975L15.961 4.748C16.023 4.491 16.156 4.271 16.336 4.102C16.281 4.063 16.227 4.022 16.174 3.979L11.368 0L8.443 0.684C3.49 1.849 0 6.032 0 10.83V17.13C0 18.37 1.103 19.359 2.423 19.359H14.804L16.692 8.597C15.844 8.586 15.223 7.803 15.423 6.975Z" transform="translate(18 39.322)" fill="white"/>
<path d="M8.201 0.684L5.316 0L0.514999 3.979C0.461999 4.022 0.41 4.063 0.355 4.102C0.536 4.271 0.669 4.491 0.732 4.748L1.269 6.975C1.47 7.802 0.849 8.586 0 8.598L1.888 19.36H14.269C15.589 19.36 16.593 18.372 16.593 17.131V10.831C16.595 6.032 13.154 1.849 8.201 0.684Z" transform="translate(37.35 39.322)" fill="white"/>
</svg>
