<svg width="72" height="72" viewBox="0 0 72 72" fill="none" xmlns="http://www.w3.org/2000/svg">
<rect width="72" height="72" fill="black" fill-opacity="0"/>
<rect width="72" height="72" fill="#F9D205"/>
<rect width="43" height="43" fill="black" fill-opacity="0" transform="translate(15 15)"/>
<rect width="43" height="43" fill="black" fill-opacity="0" transform="translate(15 15)"/>
<rect width="43" height="43" fill="black" fill-opacity="0" transform="translate(15 15)"/>
<rect width="14.2438" height="3.03292" fill="black" fill-opacity="0" transform="translate(34.8203 15.0674)"/>
<path d="M35.8953 16.5501C36.1641 17.0893 36.7688 17.4937 37.4406 17.4937H47.4516C48.0562 17.4937 48.5938 17.6959 49.0641 18.1003V16.6849C49.0641 15.8088 48.325 15.0674 47.4516 15.0674H34.8203C35.1563 15.337 35.425 15.674 35.6266 16.011L35.8953 16.5501Z" fill="white"/>
<rect width="25.1281" height="19.0063" fill="black" fill-opacity="0" transform="translate(23.9359 15)"/>
<path d="M25.5484 34.0063H47.4515C48.325 34.0063 49.064 33.2649 49.064 32.3887V19.9201C49.064 19.0439 48.325 18.3025 47.4515 18.3025H37.4406C36.5 18.3025 35.5593 17.7633 35.089 16.8871L34.8203 16.4154C34.35 15.5392 33.4765 15 32.5359 15H25.5484C24.675 15 23.9359 15.7414 23.9359 16.6176V32.3213C23.9359 33.2649 24.675 34.0063 25.5484 34.0063ZM36.4328 21.7398V20.7288C36.4328 20.594 36.5672 20.4592 36.7015 20.594L38.9859 22.1442C39.1203 22.2116 39.1203 22.3464 38.9859 22.4812L36.7015 24.0313C36.5672 24.0987 36.4328 24.0313 36.4328 23.8966V23.0204C34.4172 23.0878 32.8047 24.9749 33.275 27.0643C33.5437 28.3448 34.6187 29.4232 35.8953 29.6928C37.8437 30.0972 39.5906 28.7492 39.9265 26.9295C39.9937 26.6599 40.1953 26.3903 40.5312 26.3903C40.9344 26.3903 41.2031 26.7273 41.1359 27.1317C40.8 29.3558 38.7843 31.1082 36.4328 30.9734C33.9468 30.906 31.9984 28.7492 32.0656 26.2555C31.9984 23.7618 34.014 21.7398 36.4328 21.7398ZM38.2469 26.3903C38.2469 27.3339 37.5078 28.1426 36.5 28.1426C35.5594 28.1426 34.7531 27.3339 34.7531 26.3903C34.7531 25.4467 35.4922 24.6379 36.5 24.6379C37.4406 24.6379 38.2469 25.4467 38.2469 26.3903Z" fill="white"/>
<rect width="1.6125" height="1.61756" fill="black" fill-opacity="0" transform="translate(35.6937 25.5815)"/>
<path d="M36.5 27.1991C36.9453 27.1991 37.3062 26.837 37.3062 26.3903C37.3062 25.9436 36.9453 25.5815 36.5 25.5815C36.0547 25.5815 35.6937 25.9436 35.6937 26.3903C35.6937 26.837 36.0547 27.1991 36.5 27.1991Z" fill="white"/>
<rect width="43" height="37.4734" fill="black" fill-opacity="0" transform="translate(15 20.5267)"/>
<path d="M55.0437 20.5267H50.4078V23.4248H55.1109V45.8684H17.8891V23.4248H22.5922V20.5267H18.0234C16.3438 20.5267 15 21.8746 15 23.4922V48.1599C15 49.8449 16.3438 51.1928 18.0234 51.1928H32.8047L31.9984 54.1583H27.3625C26.3547 54.1583 25.4813 54.9671 25.4813 56.0455V57.4608C25.4813 57.7978 25.75 58 26.0187 58H46.9141C47.25 58 47.4516 57.7304 47.4516 57.4608V56.0455C47.4516 54.9671 46.6453 54.1583 45.5703 54.1583H40.9344L40.1953 51.1928H54.9766C56.6562 51.1928 58 49.8449 58 48.1599V23.4922C58 21.8746 56.6562 20.5267 55.0437 20.5267ZM36.5 49.6427C35.8281 49.6427 35.2906 49.1035 35.2906 48.4295C35.2906 47.7555 35.8281 47.2163 36.5 47.2163C37.1719 47.2163 37.7094 47.7555 37.7094 48.4295C37.7094 49.1035 37.1719 49.6427 36.5 49.6427Z" fill="white"/>
<rect width="1.6125" height="1.61756" fill="black" fill-opacity="0" transform="translate(20.0391 41.9593)"/>
<path d="M20.1734 41.9593C20.1062 41.9593 20.0391 42.0267 20.0391 42.0941V43.442C20.0391 43.5094 20.1062 43.5768 20.1734 43.5768H21.5172C21.5844 43.5768 21.6516 43.5094 21.6516 43.442V42.0941C21.6516 42.0267 21.5844 41.9593 21.5172 41.9593H20.1734Z" fill="white"/>
<rect width="1.6125" height="1.61756" fill="black" fill-opacity="0" transform="translate(23.5328 41.9593)"/>
<path d="M23.6672 43.5768H25.011C25.0781 43.5768 25.1453 43.5094 25.1453 43.442V42.0941C25.1453 42.0267 25.0781 41.9593 25.011 41.9593H23.6672C23.6 41.9593 23.5328 42.0267 23.5328 42.0941V43.442C23.5328 43.5768 23.6 43.5768 23.6672 43.5768Z" fill="white"/>
<rect width="1.6125" height="1.61756" fill="black" fill-opacity="0" transform="translate(27.0266 41.9593)"/>
<path d="M27.1609 41.9593C27.0937 41.9593 27.0266 42.0267 27.0266 42.0941V43.442C27.0266 43.5094 27.0937 43.5768 27.1609 43.5768H28.5047C28.5719 43.5768 28.6391 43.5094 28.6391 43.442V42.0941C28.6391 42.0267 28.5719 41.9593 28.5047 41.9593H27.1609Z" fill="white"/>
<rect width="1.6125" height="1.61756" fill="black" fill-opacity="0" transform="translate(30.5875 41.9593)"/>
<path d="M30.7219 41.9593C30.6547 41.9593 30.5875 42.0267 30.5875 42.0941V43.442C30.5875 43.5094 30.6547 43.5768 30.7219 43.5768H32.0656C32.1328 43.5768 32.2 43.5094 32.2 43.442V42.0941C32.2 42.0267 32.1328 41.9593 32.0656 41.9593H30.7219Z" fill="white"/>
<rect width="1.6125" height="1.61756" fill="black" fill-opacity="0" transform="translate(34.0812 41.9593)"/>
<path d="M34.2156 41.9593C34.1484 41.9593 34.0812 42.0267 34.0812 42.0941V43.442C34.0812 43.5094 34.1484 43.5768 34.2156 43.5768H35.5594C35.6266 43.5768 35.6937 43.5094 35.6937 43.442V42.0941C35.6937 42.0267 35.6266 41.9593 35.5594 41.9593H34.2156Z" fill="white"/>
<rect width="1.6125" height="1.61756" fill="black" fill-opacity="0" transform="translate(37.575 41.9593)"/>
<path d="M37.7094 41.9593C37.6422 41.9593 37.575 42.0267 37.575 42.0941V43.442C37.575 43.5094 37.6422 43.5768 37.7094 43.5768H39.0531C39.1203 43.5768 39.1875 43.5094 39.1875 43.442V42.0941C39.1875 42.0267 39.1203 41.9593 39.0531 41.9593H37.7094Z" fill="white"/>
<rect width="1.6125" height="1.61756" fill="black" fill-opacity="0" transform="translate(41.1359 41.9593)"/>
<path d="M41.2703 41.9593C41.2031 41.9593 41.1359 42.0267 41.1359 42.0941V43.442C41.1359 43.5094 41.2031 43.5768 41.2703 43.5768H42.614C42.6812 43.5768 42.7484 43.5094 42.7484 43.442V42.0941C42.7484 42.0267 42.6812 41.9593 42.614 41.9593H41.2703Z" fill="white"/>
<rect width="1.6125" height="1.61756" fill="black" fill-opacity="0" transform="translate(44.6297 41.9593)"/>
<path d="M44.7641 41.9593C44.6969 41.9593 44.6297 42.0267 44.6297 42.0941V43.442C44.6297 43.5094 44.6969 43.5768 44.7641 43.5768H46.1078C46.175 43.5768 46.2422 43.5094 46.2422 43.442V42.0941C46.2422 42.0267 46.175 41.9593 46.1078 41.9593H44.7641Z" fill="white"/>
<rect width="1.6125" height="1.61756" fill="black" fill-opacity="0" transform="translate(48.1234 41.9593)"/>
<path d="M48.1234 42.0941V43.442C48.1234 43.5094 48.1906 43.5768 48.2578 43.5768H49.6015C49.6687 43.5768 49.7359 43.5094 49.7359 43.442V42.0941C49.7359 42.0267 49.6687 41.9593 49.6015 41.9593H48.2578C48.1906 41.9593 48.1234 42.0267 48.1234 42.0941Z" fill="white"/>
<rect width="1.6125" height="1.61756" fill="black" fill-opacity="0" transform="translate(51.6844 41.9593)"/>
<path d="M53.1625 43.5768C53.2297 43.5768 53.2969 43.5094 53.2969 43.442V42.0941C53.2969 42.0267 53.2297 41.9593 53.1625 41.9593H51.8188C51.7516 41.9593 51.6844 42.0267 51.6844 42.0941V43.442C51.6844 43.5094 51.7516 43.5768 51.8188 43.5768H53.1625Z" fill="white"/>
</svg>
