<svg width="72" height="72" viewBox="0 0 72 72" fill="none" xmlns="http://www.w3.org/2000/svg">
<rect width="72" height="72" fill="black" fill-opacity="0"/>
<rect width="72" height="72" fill="#F9D205"/>
<rect width="34" height="42" fill="black" fill-opacity="0" transform="translate(19 15)"/>
<rect width="34" height="42" fill="black" fill-opacity="0" transform="translate(19 15)"/>
<path d="M39.9547 49.125L44.9474 44.2338V43.8713H39.5794V49.125H39.9547Z" fill="white"/>
<path d="M46.7364 22V42.1213V43.8713V44.9573L40.697 50.8747H39.5794H37.7899H27.0526V57H45.8426V49.9963H53V22H46.7364Z" fill="white"/>
<path d="M47.6321 57H48.0074L53 52.0913V51.7463H47.6321V57Z" fill="white"/>
<path d="M37.79 42.1213H44.9474V15H19V49.125H37.79V42.1213ZM27.9479 20.2463H40.4742V21.9963H27.9479V20.2463ZM27.9479 24.6213H40.4742V26.3713H27.9479V24.6213ZM27.9479 28.9963H40.4742V30.7463H27.9479V28.9963ZM27.9479 33.3713H40.4742V35.1213H27.9479V33.3713ZM25.2636 39.4963H23.4742V37.7463H25.2636V39.4963ZM25.2636 35.1213H23.4742V33.3713H25.2636V35.1213ZM25.2636 30.7463H23.4742V28.9963H25.2636V30.7463ZM25.2636 26.3713H23.4742V24.6213H25.2636V26.3713ZM25.2636 21.9963H23.4742V20.2463H25.2636V21.9963ZM27.9479 37.7463H40.4742V39.4963H27.9479V37.7463Z" fill="white"/>
</svg>
