<svg width="72" height="72" viewBox="0 0 72 72" fill="none" xmlns="http://www.w3.org/2000/svg">
<rect width="72" height="72" fill="#F9D205"/>
<path d="M18.4997 0C8.28271 0 0 8.50682 0 18.9997C0 29.4925 8.28271 38 18.4997 38C28.7167 38 37 29.4925 37 18.9997C37 8.50682 28.7167 0 18.4997 0ZM26.4976 22.6134H18.6545C18.628 22.6134 18.6033 22.6068 18.577 22.6058C18.5508 22.6071 18.5262 22.6134 18.4996 22.6134C17.793 22.6134 17.2201 22.025 17.2201 21.2994V7.885C17.2201 7.15932 17.793 6.57094 18.4996 6.57094C19.2062 6.57094 19.779 7.15932 19.779 7.885V19.9853H26.4971C27.2037 19.9853 27.7766 20.5737 27.7766 21.2994C27.7766 22.025 27.2042 22.6134 26.4976 22.6134Z" transform="translate(18 17)" fill="white"/>
</svg>
