<svg width="72" height="72" viewBox="0 0 72 72" fill="none" xmlns="http://www.w3.org/2000/svg">
<rect width="72" height="72" fill="black" fill-opacity="0"/>
<rect width="72" height="72" fill="#F9D205"/>
<rect width="46" height="47" fill="black" fill-opacity="0" transform="translate(16 13)"/>
<rect width="46" height="47" fill="black" fill-opacity="0" transform="translate(16 13)"/>
<rect width="46" height="47" fill="black" fill-opacity="0" transform="translate(16 13)"/>
<path d="M42.5096 15.9483V22.5844H49.1538L42.5096 15.9483Z" fill="white"/>
<path d="M36.9808 55.9665L40.8654 43.1745L52.1058 31.9479V25.0141H41.2788C40.6058 25.0141 40.0481 24.4571 40.0481 23.7848V13H16V60H52.1538V49.7434L48.3846 53.508L36.9808 55.9665ZM21.4808 19.9434H36.5673C37.2404 19.9434 37.7981 20.5004 37.7981 21.1727C37.7981 21.8449 37.2404 22.4019 36.5673 22.4019H21.4808C20.8077 22.4019 20.25 21.8449 20.25 21.1727C20.25 20.5004 20.8173 19.9434 21.4808 19.9434ZM21.4808 27.3574H36.5673C37.2404 27.3574 37.7981 27.9144 37.7981 28.5866C37.7981 29.2589 37.2404 29.8159 36.5673 29.8159H21.4808C20.8077 29.8159 20.25 29.2589 20.25 28.5866C20.25 27.8856 20.8173 27.3574 21.4808 27.3574ZM21.4808 37.1723C20.8077 37.1723 20.25 36.6152 20.25 35.943C20.25 35.2707 20.8077 34.7137 21.4808 34.7137H36.5673C37.2404 34.7137 37.7981 35.2707 37.7981 35.943C37.7981 36.6152 37.2404 37.1723 36.5673 37.1723H21.4808Z" fill="white"/>
<path d="M56.5865 30.9395L43.8942 43.6259L49.3461 49.0711L62 36.3848L56.5865 30.9395Z" fill="white"/>
<path d="M47.1442 50.3004L42.625 45.7867L40.6442 52.3171L47.1442 50.3004Z" fill="white"/>
</svg>
