<svg width="72" height="72" viewBox="0 0 72 72" fill="none" xmlns="http://www.w3.org/2000/svg">
<rect width="72" height="72" fill="black" fill-opacity="0"/>
<rect width="72" height="72" fill="#F9D205"/>
<rect width="46" height="46" fill="black" fill-opacity="0" transform="translate(13 13)"/>
<rect width="16.9158" height="15.8793" fill="black" fill-opacity="0" transform="translate(27.5421 13)"/>
<rect width="16.9158" height="15.8793" fill="black" fill-opacity="0" transform="translate(27.5421 13)"/>
<path d="M40.0321 22.6718C41.0489 21.6452 41.6781 20.234 41.6781 18.6783C41.6781 15.5473 39.131 13 36 13C32.869 13 30.3219 15.5473 30.3219 18.6783C30.3219 20.234 30.9511 21.6452 31.9679 22.6718C29.651 23.9134 27.9691 26.1901 27.5421 28.8793H44.4579C44.031 26.1901 42.349 23.9135 40.0321 22.6718Z" fill="white"/>
<rect width="46" height="18.5735" fill="black" fill-opacity="0" transform="translate(13 40.4265)"/>
<rect width="46" height="18.5735" fill="black" fill-opacity="0" transform="translate(13 40.4265)"/>
<path d="M54.4672 50.0977C55.4839 49.071 56.1131 47.66 56.1131 46.1045C56.1131 42.9736 53.5658 40.4265 50.4349 40.4265C47.3041 40.4265 44.7568 42.9737 44.7568 46.1045C44.7568 47.6601 45.386 49.0711 46.4026 50.0976C45.106 50.7924 44.008 51.8109 43.2174 53.0449C42.4269 51.811 41.3287 50.7925 40.0322 50.0977C41.0489 49.071 41.6781 47.66 41.6781 46.1045C41.6781 42.9736 39.1309 40.4265 36 40.4265C32.8691 40.4265 30.3219 42.9737 30.3219 46.1045C30.3219 47.6601 30.9511 49.0711 31.9678 50.0977C30.6712 50.7924 29.5731 51.8109 28.7826 53.0449C27.992 51.811 26.8939 50.7925 25.5974 50.0976C26.614 49.071 27.2432 47.66 27.2432 46.1045C27.2432 42.9736 24.6959 40.4265 21.5651 40.4265C18.4342 40.4265 15.8869 42.9737 15.8869 46.1045C15.8869 47.6601 16.5161 49.0711 17.5329 50.0977C14.8376 51.542 13 54.3863 13 57.6523C13 58.3965 13.6034 59 14.3477 59H28.7826H43.2174H57.6523C58.3966 59 59 58.3965 59 57.6523C59 54.3863 57.1624 51.542 54.4672 50.0977Z" fill="white"/>
<rect width="25.7911" height="10.288" fill="black" fill-opacity="0" transform="translate(23.1045 31.5746)"/>
<rect width="25.7911" height="10.288" fill="black" fill-opacity="0" transform="translate(23.1045 31.5746)"/>
<path d="M47.5479 31.5746H44.5651H27.4349H24.4521C23.7079 31.5746 23.1045 32.178 23.1045 32.9223C23.1045 33.6666 23.7079 34.27 24.4521 34.27H27.4349V40.1394C27.9552 40.6513 28.4095 41.2302 28.7826 41.8627C30.2401 39.392 32.9297 37.7312 36 37.7312C39.0703 37.7312 41.7599 39.392 43.2174 41.8627C43.5905 41.2302 44.0448 40.6514 44.5651 40.1394V34.27H47.5479C48.2922 34.27 48.8955 33.6666 48.8955 32.9223C48.8955 32.178 48.2922 31.5746 47.5479 31.5746Z" fill="white"/>
</svg>
