<?xml version="1.0"?>
<svg xmlns="http://www.w3.org/2000/svg" xmlns:xlink="http://www.w3.org/1999/xlink" version="1.1" id="Capa_1" x="0px" y="0px" viewBox="0 0 496 496" style="enable-background:new 0 0 496 496;" xml:space="preserve" width="512px" height="512px" class=""><g><path style="fill:#FFD200" d="M240,152v40c0,22.056,17.944,40,40,40h16v-80H240z" data-original="#FFA64D" class="" data-old_color="#00FF2B"/><g>
	<path style="fill:#44545F" d="M32,24c0-4.416,3.592-8,8-8h352c4.408,0,8,3.584,8,8v16h16V24c0-13.232-10.768-24-24-24H40   C26.768,0,16,10.768,16,24v16h16V24z" data-original="#333333" class="active-path" data-old_color="#5B7BBB"/>
	<path style="fill:#44545F" d="M494.2,441.544C486.2,418.808,416,217.248,416,144v-31.168V72h-16v40.832   c0,12.856-10.08,23.392-22.952,23.968c-103.816,4.656-291.424,28.376-312.472,31.064c-9.664,1.312-18.584-5.536-20.064-15.16   l-12.608-81.92l-15.816,2.44l12.6,81.92C31.272,171.856,45.424,184,62.336,184c1.448,0,2.824-0.088,4.264-0.264   c15.704-2.008,124.432-15.76,221.392-24.488v75.792l2.016,2.272C329.992,282.28,352,340.176,352,400.336V416   c0,23.984,17.68,43.912,40.696,47.448C396.192,481.952,412.488,496,432,496h32c17.648,0,32-14.352,32-32v-11.88   C496,448.496,495.392,444.936,494.2,441.544z M368,416v-15.664c0-63.064-22.704-123.792-64-171.352v-71.136   c26.736-2.28,52.104-4.096,73.768-5.064c8.392-0.376,16.016-3.352,22.256-8.048c0.408,74.824,65.92,264.712,79.088,302.128   c0.136,0.376,0.192,0.76,0.296,1.144H408h-8C382.352,448,368,433.648,368,416z M464,480h-32c-10.416,0-19.216-6.712-22.528-16H480   C480,472.824,472.824,480,464,480z" data-original="#333333" class="active-path" data-old_color="#5B7BBB"/>
</g><path style="fill:#FFD200" d="M408,32H0v48h408c13.232,0,24-10.768,24-24S421.232,32,408,32z" data-original="#FFA64D" class="" data-old_color="#00FF2B"/></g> </svg>
