<?xml version="1.0"?>
<svg xmlns="http://www.w3.org/2000/svg" xmlns:xlink="http://www.w3.org/1999/xlink" version="1.1" id="Capa_1" x="0px" y="0px" viewBox="0 0 496 496" style="enable-background:new 0 0 496 496;" xml:space="preserve" width="512px" height="512px" class=""><g><path style="fill:#FFD200" d="M224,408H48V264h176V408z" data-original="#FFA64D" class="active-path" data-old_color="#65FF00"/><g>
	<path style="fill:#44545F" d="M424,144h-2.848C437.504,130.792,448,110.608,448,88V72c0-39.696-32.304-72-72-72   c-24.904,0-46.888,12.72-59.824,32H0v432h304v32h144V331.552c4.728,2.752,10.144,4.448,16,4.448c17.648,0,32-14.352,32-32v-88   C496,176.304,463.696,144,424,144z M432,288v16H320v-48h112v16h-96v16H432z M398.528,160c-3.312,9.288-12.112,16-22.528,16   s-19.216-6.712-22.528-16H398.528z M336.808,160c1.216,5.944,3.856,11.328,7.392,16h-55.32c10.104-9.88,23.904-16,39.12-16H336.808   z M272,224h32v16h-32V224z M320,224h112v16H320V224z M272,256h32v16h-32V256z M272,288h32v16c0,8.824-7.176,16-16,16   s-16-7.176-16-16V288z M448,256h32v16h-32V256z M448,240v-16h32v16H448z M448,208v-8h-16v8H320v-8h-16v8h-31.36   c0.816-5.648,2.464-11.024,4.84-16h197.04c2.376,4.976,4.024,10.352,4.84,16H448z M463.12,176H407.8   c3.536-4.672,6.184-10.056,7.392-16H424C439.216,160,453.016,166.12,463.12,176z M376,144c-28.152,0-51.456-20.904-55.36-48h7.856   c10.408,10.256,28.608,10.256,39.016,0h16.984c5.2,5.128,12.12,8,19.504,8s14.304-2.872,19.504-8h7.856   C427.456,123.096,404.152,144,376,144z M432,80h-16.072l-2.4,3.176c-4.632,6.136-14.424,6.136-19.056,0l-2.4-3.176h-32.144   l-2.4,3.176c-4.632,6.136-14.424,6.136-19.056,0l-2.4-3.176H320v-8h16.072l2.4-3.176c4.632-6.136,14.424-6.136,19.056,0l2.4,3.176   h32.144l2.4-3.176c4.632-6.136,14.424-6.136,19.056,0l2.4,3.176H432V80z M376,16c25.32,0,46.736,16.896,53.64,40h-6.136   c-10.408-10.256-28.608-10.256-39.016,0h-16.984c-10.408-10.256-28.608-10.256-39.016,0h-6.136C329.264,32.896,350.68,16,376,16z    M308.2,48c-2.672,7.52-4.2,15.576-4.2,24v16c0,2.704,0.176,5.368,0.472,8H16V48H308.2z M16,448V112h292.2   c4.496,12.664,12.384,23.712,22.648,32H328c-39.696,0-72,32.304-72,72v88c0,17.648,14.352,32,32,32c5.856,0,11.272-1.696,16-4.448   V448H16z M384,480V352h-16v128h-48V320h112v160H384z M464,320c-8.824,0-16-7.176-16-16v-16h32v16C480,312.824,472.824,320,464,320z   " data-original="#333333" class="" data-old_color="#333333"/>
	<rect x="32" y="64" style="fill:#44545F" width="16" height="16" data-original="#333333" class="" data-old_color="#333333"/>
	<rect x="64" y="64" style="fill:#44545F" width="16" height="16" data-original="#333333" class="" data-old_color="#333333"/>
	<rect x="96" y="64" style="fill:#44545F" width="16" height="16" data-original="#333333" class="" data-old_color="#333333"/>
	<path style="fill:#44545F" d="M136,144c-39.696,0-72,32.304-72,72v48h16v-48c0-30.88,25.12-56,56-56s56,25.12,56,56v48h16v-48   C208,176.304,175.696,144,136,144z" data-original="#333333" class="" data-old_color="#333333"/>
	<path style="fill:#44545F" d="M136,176c-22.056,0-40,17.944-40,40v48h16v-48c0-13.232,10.768-24,24-24s24,10.768,24,24v48h16v-48   C176,193.944,158.056,176,136,176z" data-original="#333333" class="" data-old_color="#333333"/>
	<path style="fill:#44545F" d="M136,296c-13.232,0-24,10.768-24,24c0,10.416,6.712,19.216,16,22.528V376h16v-33.472   c9.288-3.312,16-12.112,16-22.528C160,306.768,149.232,296,136,296z M136,328c-4.408,0-8-3.584-8-8s3.592-8,8-8s8,3.584,8,8   S140.408,328,136,328z" data-original="#333333" class="" data-old_color="#333333"/>
</g></g> </svg>
