<?xml version="1.0"?>
<svg xmlns="http://www.w3.org/2000/svg" xmlns:xlink="http://www.w3.org/1999/xlink" version="1.1" id="Layer_1" x="0px" y="0px" viewBox="0 0 496 496" style="enable-background:new 0 0 496 496;" xml:space="preserve" width="512px" height="512px" class=""><g><rect x="224" y="104" style="fill:#FFD200" width="176" height="160" data-original="#FFA64D" class="" data-old_color="#C1FF00"/><g>
	<path style="fill:#44545F" d="M312,0C210.536,0,128,82.536,128,184c0,31.392,7.92,60.968,21.84,86.848L128,292.688l-18.344-18.344   l-11.312,11.312L116.688,304L15.6,405.088C5.536,415.152,0,428.512,0,442.744C0,472.112,23.888,496,53.256,496   c14.224,0,27.592-5.536,37.656-15.6L192,379.312l18.344,18.344l11.312-11.312L203.312,368l21.84-21.84   C251.032,360.08,280.608,368,312,368c101.464,0,184-82.536,184-184S413.464,0,312,0z M79.6,469.088   C72.56,476.128,63.208,480,53.256,480C32.712,480,16,463.288,16,442.744c0-9.952,3.872-19.304,10.912-26.344L128,315.312   L180.688,368L79.6,469.088z M192,356.688L139.312,304l19-19c13.8,20.936,31.752,38.888,52.688,52.688L192,356.688z M312,352   c-92.632,0-168-75.368-168-168S219.368,16,312,16s168,75.368,168,168S404.632,352,312,352z" data-original="#333333" class="active-path" data-old_color="#333333"/>
	<path style="fill:#44545F" d="M312,32c-83.816,0-152,68.184-152,152s68.184,152,152,152s152-68.184,152-152S395.816,32,312,32z    M312,320c-74.992,0-136-61.008-136-136S237.008,48,312,48s136,61.008,136,136S386.992,320,312,320z" data-original="#333333" class="active-path" data-old_color="#333333"/>
	<rect x="304" y="104" style="fill:#44545F" width="16" height="160" data-original="#333333" class="active-path" data-old_color="#333333"/>
	<rect x="248" y="128" style="fill:#44545F" width="40" height="16" data-original="#333333" class="active-path" data-old_color="#333333"/>
	<rect x="248" y="160" style="fill:#44545F" width="40" height="16" data-original="#333333" class="active-path" data-old_color="#333333"/>
	<rect x="248" y="192" style="fill:#44545F" width="40" height="16" data-original="#333333" class="active-path" data-old_color="#333333"/>
	<rect x="248" y="224" style="fill:#44545F" width="40" height="16" data-original="#333333" class="active-path" data-old_color="#333333"/>
	<rect x="336" y="128" style="fill:#44545F" width="40" height="16" data-original="#333333" class="active-path" data-old_color="#333333"/>
	<rect x="336" y="160" style="fill:#44545F" width="40" height="16" data-original="#333333" class="active-path" data-old_color="#333333"/>
	<rect x="336" y="192" style="fill:#44545F" width="40" height="16" data-original="#333333" class="active-path" data-old_color="#333333"/>
	<rect x="336" y="224" style="fill:#44545F" width="40" height="16" data-original="#333333" class="active-path" data-old_color="#333333"/>
</g></g> </svg>
