<svg enable-background="new 0 0 117.1 117.1" version="1.1" viewBox="0 0 117.1 117.1" xml:space="preserve" xmlns="http://www.w3.org/2000/svg" xmlns:xlink="http://www.w3.org/1999/xlink">

	
		<defs>
			<path id="SVGID_1_" d="m35.6 99.5c-1.1 1.6-3.2 2.1-4.9 1-1-0.7-1.6-1.8-1.5-3h0.5c-0.1 0.9 0.4 1.9 1.3 2.5 1.5 1 3.3 0.6 4.2-0.8s0.6-3.2-0.8-4.2c-0.9-0.6-2-0.7-2.9-0.2l-0.2-0.5c1-0.5 2.3-0.5 3.4 0.2 1.6 1.3 2 3.4 0.9 5zm-6.7-5.9c-1 1-2.5 1.1-3.6 0.1s-0.9-2.6 0.1-3.5l0.2-0.2 3.2 3.1c0.7-0.9 0.6-2-0.2-2.8-0.6-0.6-1.3-0.7-1.8-0.5l-0.1-0.5c0.7-0.2 1.6 0 2.3 0.7 0.9 1 0.9 2.5-0.1 3.6zm-3.3-3c-0.8 0.9-0.6 2 0.1 2.7 0.8 0.8 1.9 0.8 2.7 0.1l-2.8-2.8z"/>
		</defs>
		<use fill="#FFFFFF" xlink:href="#SVGID_1_"/>
		<clipPath id="SVGID_2_">
			<use xlink:href="#SVGID_1_"/>
		</clipPath>
	
	
		<defs>
			<path id="SVGID_3_" d="m27.1 85.5-5.5 4-0.3-0.4 0.9-0.7c-0.8 0.1-1.7-0.2-2.2-1-0.8-1.1-0.6-2.7 0.6-3.5 1.2-0.9 2.7-0.6 3.6 0.5 0.6 0.8 0.6 1.7 0.2 2.4l2.5-1.8 0.2 0.5zm-3.4-0.7c-0.7-0.9-2-1.1-2.9-0.4s-1.1 2-0.5 2.9c0.7 0.9 2 1.1 2.9 0.4 1-0.7 1.2-2 0.5-2.9zm-6.7-3.1 0.8 1.6-0.4 0.2-1.9-3.6 0.4-0.2 0.8 1.6 3.9-2.1 0.2 0.4-3.8 2.1z"/>
		</defs>
		<use fill="#FFFFFF" xlink:href="#SVGID_3_"/>
		<clipPath id="SVGID_4_">
			<use xlink:href="#SVGID_3_"/>
		</clipPath>
	
	
		<defs>
			<path id="SVGID_5_" d="m19 75.7-4.6 1.6-0.2-0.5 3.8-1.4-4.8-1.4-0.1-0.4 4.6-1.6 0.2 0.5-3.8 1.4 4.8 1.6 0.1 0.2zm-2.3-8.6c0.2 1.6-0.7 2.8-2.1 3s-2.6-0.6-3-2.1l-1.8 0.3-0.1-0.5 1.8-0.3c-0.2-1.6 0.7-2.8 2.1-3s2.6 0.6 3 2.1l1.8-0.3 0.1 0.5-1.8 0.3zm-3-2.1c-1.1 0.2-1.8 1.1-1.7 2.4l4.1-0.7c-0.3-1.3-1.3-1.9-2.4-1.7zm2.5 2.2-4.1 0.7c0.3 1.3 1.3 1.9 2.4 1.7s1.8-1.1 1.7-2.4zm-0.3-5.5h-4.9v-0.5h4l-4-3.1v-0.4h4.9v0.5h-4l4 3.1v0.4zm2.2-10.7-1.3-0.2-0.7 4.2-4.8-0.8 0.1-0.5 4.3 0.7 0.5-2.9-4.3-0.7 0.1-0.5 4.3 0.7 0.1-0.8 1.8 0.3-0.1 0.5zm0.4-6.2-3.8-1.3 2.9 4.2-0.1 0.4-4.6-1.5 0.2-0.5 3.8 1.3-2.9-4.2 0.1-0.4 4.6 1.5-0.2 0.5zm0.4-3.9 2.7 1.4-0.2 0.4-6-3.2 0.2-0.4 1 0.5c-0.5-0.7-0.6-1.6-0.1-2.4 0.7-1.2 2.2-1.7 3.4-1 1.3 0.7 1.7 2.2 1.1 3.4-0.4 0.9-1.2 1.3-2.1 1.3zm0.8-4.3c-1-0.5-2.3-0.2-2.8 0.9-0.5 1-0.2 2.3 0.9 2.8 1 0.5 2.3 0.2 2.8-0.9 0.5-1 0.1-2.2-0.9-2.8z"/>
		</defs>
		<use fill="#FFFFFF" xlink:href="#SVGID_5_"/>
		<clipPath id="SVGID_6_">
			<use xlink:href="#SVGID_5_"/>
		</clipPath>
	
	
		<defs>
			<path id="SVGID_7_" d="m24.8 33.7c-0.9 1.1-2.4 1.4-3.6 0.5-1.1-0.9-1.3-2.5-0.4-3.6s2.4-1.4 3.6-0.5c1.1 0.9 1.3 2.5 0.4 3.6zm-0.7-3.2c-0.9-0.7-2.2-0.6-2.9 0.4-0.7 0.9-0.5 2.2 0.4 2.9s2.2 0.6 2.9-0.4c0.7-0.9 0.5-2.2-0.4-2.9zm5.6-2.2-1.7 1.6-3.3-3.6 1.6-1.5c0.7-0.7 1.4-0.6 1.9-0.1 0.3 0.3 0.5 0.8 0.3 1.2 0.5-0.3 1-0.1 1.4 0.3 0.5 0.6 0.5 1.4-0.2 2.1zm-1.9-3.1c-0.4-0.4-0.8-0.4-1.3 0.1l-1.2 1.2 1.2 1.2 1.2-1.2c0.4-0.5 0.5-1 0.1-1.3zm1.7 1.4c-0.4-0.4-0.9-0.4-1.3 0.1l-1.4 1.3 1.2 1.3 1.4-1.3c0.4-0.5 0.5-1 0.1-1.4z"/>
		</defs>
		<use fill="#FFFFFF" xlink:href="#SVGID_7_"/>
		<clipPath id="SVGID_8_">
			<use xlink:href="#SVGID_7_"/>
		</clipPath>
	
	
		<defs>
			<path id="SVGID_9_" d="m36.1 23.4-0.6-0.9c0.1 0.8-0.3 1.7-1.1 2.2-1.1 0.8-2.7 0.5-3.5-0.7s-0.5-2.7 0.7-3.5c0.8-0.5 1.7-0.6 2.4-0.2l-0.6-0.9 0.4-0.3 2.7 4-0.4 0.3zm-1.4-2c-0.7-1-1.9-1.2-2.9-0.6-1 0.7-1.2 1.9-0.5 2.9s1.9 1.2 2.9 0.6c0.9-0.7 1.2-2 0.5-2.9zm7.3-1-0.9-2-2.8 1.3 0.9 2-0.4 0.2-2-4.4 0.4-0.2 0.9 2 2.8-1.3-0.9-2 0.5-0.2 2 4.4-0.5 0.2zm6.4-2.1-0.6-2.1-2.9 0.8 0.6 2.1-0.5 0.1-1.3-4.7 0.5-0.1 0.6 2.1 2.9-0.8-0.6-2.1 0.5-0.1 1.3 4.7-0.5 0.1z"/>
		</defs>
		<use fill="#FFFFFF" xlink:href="#SVGID_9_"/>
		<clipPath id="SVGID_10_">
			<use xlink:href="#SVGID_9_"/>
		</clipPath>
	
	
		<defs>
			<path id="SVGID_11_" d="m55.8 17.2-0.5-4.9 0.5-0.1 0.5 4.9-0.5 0.1zm-2.3 0.2-1.9 0.2-0.6-4.8h0.5l0.2 1.9 1.4-0.2c0.9-0.1 1.7 0.4 1.8 1.3 0.1 0.8-0.6 1.5-1.4 1.6zm-0.3-2.5-1.4 0.2 0.2 2 1.4-0.2c0.6-0.1 1.1-0.5 1-1.1s-0.6-1-1.2-0.9zm9.8 2.4h-0.5l0.3-4-3.4 3.8h-0.4l0.3-4.9h0.5l-0.3 4 3.4-3.8h0.4l-0.3 4.9zm-2.9-5.9v-0.4l2.5 0.2v0.4l-2.5-0.2z"/>
		</defs>
		<use fill="#FFFFFF" xlink:href="#SVGID_11_"/>
		<clipPath id="SVGID_12_">
			<use xlink:href="#SVGID_11_"/>
		</clipPath>
	
	
		<defs>
			<path id="SVGID_13_" d="m83.6 25.3-0.5-0.3 1.6-2.5c-0.7-0.1-1.3-0.3-1.9-0.7-1.1-0.7-1.3-1.9-0.7-2.8l1.3-2 0.4 0.3-1.3 2c-0.5 0.7-0.3 1.5 0.6 2.1 0.6 0.4 1.1 0.6 1.9 0.7l1.9-2.8 0.4 0.3-3.7 5.7zm7.2 3.1-0.2 0.2-3.2-3c-0.7 0.9-0.5 2 0.3 2.7 0.6 0.5 1.3 0.7 1.8 0.5l0.1 0.5c-0.7 0.2-1.6 0-2.3-0.6-1.1-1-1.1-2.5-0.1-3.6 1-1 2.5-1.2 3.6-0.1 1 0.9 0.9 2.5 0 3.4zm-0.4-3.1c-0.8-0.8-1.9-0.7-2.7 0l2.9 2.7c0.7-1 0.5-2.1-0.2-2.7z"/>
		</defs>
		<use fill="#FFFFFF" xlink:href="#SVGID_13_"/>
		<clipPath id="SVGID_14_">
			<use xlink:href="#SVGID_13_"/>
		</clipPath>
	
	
		<defs>
			<path id="SVGID_15_" d="m95.7 34.5c-1.1 0.9-2.7 0.6-3.6-0.5-0.6-0.8-0.6-1.6-0.3-2.4l-2.5 1.9-0.3-0.4 5.4-4.1 0.3 0.4-0.8 0.6c0.8-0.1 1.7 0.2 2.3 0.9 0.8 1.2 0.6 2.7-0.5 3.6zm0.1-3.3c-0.7-0.9-2-1.1-2.9-0.4s-1.1 2-0.4 2.9 2 1.1 2.9 0.4 1.1-2 0.4-2.9zm3.5 9.8c-0.1 0-0.1 0.1-0.2 0.1l-2.1-3.9c-0.9 0.6-1.2 1.7-0.7 2.7 0.4 0.7 1 1.1 1.6 1.1v0.5c-0.8 0-1.5-0.5-2-1.4-0.7-1.3-0.2-2.8 1.1-3.5s2.7-0.3 3.4 1.1c0.7 1.3 0 2.6-1.1 3.3zm0.7-3.1c-0.5-1-1.6-1.3-2.6-0.9l1.8 3.5c1.1-0.7 1.2-1.8 0.8-2.6z"/>
		</defs>
		<use fill="#FFFFFF" xlink:href="#SVGID_15_"/>
		<clipPath id="SVGID_16_">
			<use xlink:href="#SVGID_15_"/>
		</clipPath>
	
	
		<defs>
			<path id="SVGID_17_" d="m99.3 48.1-0.2-0.5 4.2-1.4-1-2.9-4.2 1.4-0.1-0.5 4.6-1.5 1.3 3.8-4.6 1.6zm3.8 6.9c-1.4 0.2-2.7-0.7-2.9-2.1s0.7-2.7 2.1-2.9 2.7 0.7 2.9 2.1-0.7 2.7-2.1 2.9zm1.7-2.8c-0.2-1.1-1.2-1.9-2.4-1.7-1.1 0.2-1.9 1.2-1.7 2.4 0.2 1.1 1.2 1.9 2.4 1.7 1.1-0.3 1.8-1.3 1.7-2.4zm-0.4 9.2c-0.5 0-0.9-0.2-1.1-0.6-0.2 0.6-0.6 0.9-1.2 0.9-0.7 0-1.3-0.5-1.4-1.5v-2.4h4.9v2.2c0.1 0.9-0.5 1.4-1.2 1.4zm-1.3-3.2h-1.8v1.9c0 0.7 0.3 1 0.9 1 0.5 0 0.9-0.4 0.9-1v-1.9zm2.1 0h-1.7v1.7c0 0.6 0.3 1 0.9 1 0.5 0 0.8-0.3 0.8-1v-1.7zm0.1 8.6c-0.2 1.5-1.6 2.2-2.9 2h-0.2l0.7-4.4c-1.1-0.1-1.9 0.7-2.1 1.8-0.1 0.8 0.2 1.4 0.6 1.8l-0.3 0.4c-0.6-0.5-0.9-1.3-0.8-2.3 0.2-1.5 1.4-2.4 2.9-2.2 1.3 0.2 2.3 1.4 2.1 2.9zm-2-2.4-0.6 3.9c1.2 0.1 2-0.7 2.1-1.6 0.2-1.1-0.5-2-1.5-2.3zm0.6 8.2-4.2-1.4-0.9 2.8 4.2 1.4-0.2 0.5-4.2-1.4-0.2 0.7-1.7-0.6 0.2-0.5 1.2 0.4 1.3-4 4.6 1.5-0.1 0.6zm-2.7 7.2-2-1 0.9 3.2-0.3 0.6-0.9-3.4-3.5 1.3 0.3-0.6 3.3-1.2-2.1-1.1 0.2-0.4 4.4 2.2-0.3 0.4z"/>
		</defs>
		<use fill="#FFFFFF" xlink:href="#SVGID_17_"/>
		<clipPath id="SVGID_18_">
			<use xlink:href="#SVGID_17_"/>
		</clipPath>
	
	
		<defs>
			<path id="SVGID_19_" d="m98 85.6-3.3-2.3 1.5 4.9-0.2 0.4-4-2.8 0.3-0.4 3.3 2.3-1.6-5 0.2-0.4 4 2.8-0.2 0.5zm-5.6 8.8-0.3-0.3 1.7-1.8 0.3 0.3-1.7 1.8zm-1.9-5.7 0.7 5-0.3 0.3-3.5-3.4 0.3-0.4 2.9 2.8-0.7-5 0.3-0.3 3.5 3.4-0.3 0.3-2.9-2.7z"/>
		</defs>
		<use fill="#FFFFFF" xlink:href="#SVGID_19_"/>
		<clipPath id="SVGID_20_">
			<use xlink:href="#SVGID_19_"/>
		</clipPath>
	
	
		<defs>
			<path id="SVGID_21_" d="m82.4 100.4-0.3-0.4 2.2-1.4-2.4-3.7 0.4-0.3 2.6 4.1-2.5 1.7zm-4.2 2.3c-0.9 0.4-1.7 0.3-2.4-0.2l0.5 1-0.5 0.2-2-4.4 0.5-0.2 0.5 1c0.1-0.8 0.6-1.6 1.4-2 1.3-0.6 2.8 0 3.4 1.3 0.5 1.2-0.1 2.7-1.4 3.3zm0.8-3.2c-0.5-1.1-1.7-1.5-2.7-1-1.1 0.5-1.5 1.7-1 2.7 0.5 1.1 1.7 1.5 2.7 1 1.1-0.4 1.5-1.6 1-2.7zm-7.8 5.3c0.6-0.2 1-0.6 1.1-1.1l0.5 0.1c-0.1 0.6-0.5 1.2-1.4 1.5-1 0.3-1.7-0.2-1.9-0.9-0.1-0.5 0-0.9 0.4-1.3-0.6 0-1.1-0.4-1.2-0.9-0.2-0.7 0.2-1.5 1.3-1.9 1.1-0.3 1.7 0 2.1 0.6l-0.3 0.3c-0.3-0.5-0.9-0.7-1.7-0.5s-1.1 0.7-1 1.3c0.1 0.5 0.6 0.8 1.3 0.6l0.6-0.2v0.6l-0.5 0.1c-0.6 0.2-0.9 0.6-0.7 1.1s0.7 0.8 1.4 0.6z"/>
		</defs>
		<use fill="#FFFFFF" xlink:href="#SVGID_21_"/>
		<clipPath id="SVGID_22_">
			<use xlink:href="#SVGID_21_"/>
		</clipPath>
	
	
		<defs>
			<path id="SVGID_23_" d="m58.6 115.1c31.2 0 56.6-25.4 56.6-56.6s-25.5-56.5-56.6-56.5c-31.2 0-56.6 25.4-56.6 56.6s25.4 56.5 56.6 56.5m0 2c-32.4 0-58.6-26.2-58.6-58.5s26.2-58.6 58.6-58.6 58.6 26.2 58.6 58.6-26.3 58.5-58.6 58.5z"/>
		</defs>
		<use fill="#FFFFFF" xlink:href="#SVGID_23_"/>
		<clipPath id="SVGID_24_">
			<use xlink:href="#SVGID_23_"/>
		</clipPath>
	
	
		<defs>
			<path id="SVGID_25_" d="m59 94.7c20.2 0 36.6-16.4 36.6-36.6s-16.4-36.6-36.6-36.6-36.5 16.4-36.5 36.6 16.4 36.6 36.5 36.6m0 1c-20.8 0-37.6-16.8-37.6-37.6 0-20.7 16.8-37.6 37.6-37.6s37.6 16.8 37.6 37.6c0 20.7-16.8 37.6-37.6 37.6z"/>
		</defs>
		<use fill="#FFFFFF" xlink:href="#SVGID_25_"/>
		<clipPath id="SVGID_26_">
			<use xlink:href="#SVGID_25_"/>
		</clipPath>
	
	
		<defs>
			<polyline id="SVGID_27_" points="49.5 100.2 51.6 102.6 54.7 102.5 53.2 105.3 54.2 108.3 51.2 107.6 48.8 109.6 48.5 106.3 45.9 104.5 48.7 103.3 49.5 100.2"/>
		</defs>
		<use clip-rule="evenodd" fill="#FFFFFF" fill-rule="evenodd" xlink:href="#SVGID_27_"/>
		<clipPath id="SVGID_28_">
			<use xlink:href="#SVGID_27_"/>
		</clipPath>
	
	
		<defs>
			<path id="SVGID_29_" d="m52.5 84.4v-3.1l-1.7 3.1h-1.7l-1.7-3.1v3.1h-1.6v-3.9h2.6l1.6 2.7 1.6-2.7h2.6v3.9h-1.7zm6.7-3.3v3.3h-1.8v-3.9h5.9v0.7h-4.1v-0.1zm11.2 0.1c-0.4-0.1-0.8-0.2-1.2-0.2-0.6 0-1.2 0.1-1.6 0.3s-0.6 0.6-0.6 1c0 0.5 0.2 0.9 0.6 1.1s0.9 0.3 1.5 0.3c0.5 0 0.9-0.1 1.2-0.2s0.6-0.3 0.7-0.6l1.7 0.2c-0.3 0.4-0.7 0.8-1.3 1s-1.4 0.3-2.3 0.3c-1.2 0-2.1-0.2-2.8-0.5-0.7-0.4-1.1-0.8-1.1-1.5s0.4-1.2 1.1-1.5c0.7-0.4 1.7-0.5 2.9-0.5 1.1 0 1.9 0.1 2.6 0.4 0.4 0.2 0.7 0.4 0.9 0.7l-1.7 0.2c-0.1-0.2-0.3-0.4-0.6-0.5z"/>
		</defs>
		<use fill="#FFFFFF" xlink:href="#SVGID_29_"/>
		<clipPath id="SVGID_30_">
			<use xlink:href="#SVGID_29_"/>
		</clipPath>
	
	
		<defs>
			<polygon id="SVGID_31_" points="40.7 76.3 77.2 76.3 77.2 77.6 40.7 77.6"/>
		</defs>
		<use clip-rule="evenodd" fill="#FFFFFF" fill-rule="evenodd" xlink:href="#SVGID_31_"/>
		<clipPath id="SVGID_32_">
			<use xlink:href="#SVGID_31_"/>
		</clipPath>
	
	
		<defs>
			<path id="SVGID_33_" d="m58.6 57.7h17.9c-0.2 9.5-7.9 17.2-17.5 17.2-9.7 0-17.5-7.9-17.5-17.5s7.7-17.3 17.2-17.5v17.8h-0.1z"/>
		</defs>
		<use clip-rule="evenodd" fill="#FFFFFF" fill-rule="evenodd" xlink:href="#SVGID_33_"/>
		<clipPath id="SVGID_34_">
			<use xlink:href="#SVGID_33_"/>
		</clipPath>
	
	
		<defs>
			<path id="SVGID_35_" d="m75.2 47.8c0 3.6-2.8 6.6-6.3 6.6s-6.3-2.9-6.3-6.6c0-3.6 6.3-14.6 6.3-14.6s6.3 11 6.3 14.6z"/>
		</defs>
		<use clip-rule="evenodd" fill="#FFFFFF" fill-rule="evenodd" xlink:href="#SVGID_35_"/>
		<clipPath id="SVGID_36_">
			<use xlink:href="#SVGID_35_"/>
		</clipPath>
	

</svg>
