<?xml version="1.0" encoding="utf-8"?>
<!-- Generator: Adobe Illustrator 19.2.1, SVG Export Plug-In . SVG Version: 6.00 Build 0)  -->
<svg version="1.1" id="Layer_1" xmlns="http://www.w3.org/2000/svg" xmlns:xlink="http://www.w3.org/1999/xlink" x="0px" y="0px"
	 viewBox="0 0 120 120" style="enable-background:new 0 0 120 120;" xml:space="preserve">
<style type="text/css">
	.st0{fill:#2B2B2B;}
	.st1{fill:#FFFFFF;}
</style>
<g>
	<path class="st0" d="M106,120H14c-7.7,0-14-6.3-14-14V14C0,6.3,6.3,0,14,0h92c7.7,0,14,6.3,14,14v92C120,113.7,113.7,120,106,120z"
		/>
	<path class="st1" d="M94.8,36c0,0,0.8-6.8,0.6-13.1C95.2,16.3,93.9,10,93.9,10s-6.1-3-14-4.2C70.8,4,59.8,4,59.8,4S48.6,4,39.5,5.6
		c-7.8,1.3-14,4.2-14,4.2s-1.3,6.4-1.5,12.9S24.6,36,24.6,36s-1.3,11.4-1,15c0.2,3.2,4,11.7,4,11.7s-0.6,8.1,1.5,14.8
		c1.7,5.7,6.4,10.4,6.4,10.4l4.7,6.4c0,0,6.4,15.3,10.8,19.9c3.6,4,8.5,3.4,8.5,3.4s4.9,0.6,8.5-3.4c4.5-4.9,10.8-19.9,10.8-19.9
		l4.7-6.4c0,0,4.7-4.7,6.4-10.2c2.1-6.8,1.5-14.8,1.5-14.8s3.8-8.5,4-11.7C95.9,47.4,94.8,36,94.8,36z M49,55
		c-11.2,6.6-19.1-1.9-19.7-3c-1.9-2.8-2.1-6.6-2.1-6.6S32,42.3,39.5,43c12.9,1.3,14.4,4.5,14.4,4.5S52.6,52.9,49,55z M90.1,52.1
		c-0.6,1.1-8.5,9.5-19.7,3c-3.6-2.1-4.9-7.6-4.9-7.6S66.8,44,80,43c7.4-0.6,12.3,2.5,12.3,2.5S92.3,49.3,90.1,52.1z"/>
</g>
</svg>
