<svg id="af01da65-b52d-4699-86ea-97440b43c4f4" data-name="Layer 1" xmlns="http://www.w3.org/2000/svg" viewBox="0 0 187.3296 67.0205"><title>Milavitsa</title><path d="M13.7344,59.9258,4.8072,41.2471V56.0049a4.56857,4.56857,0,0,0,.4633,2.6172,2.57435,2.57435,0,0,0,2.0083.705h.8247v.5987H0v-.5987H.8247a2.39154,2.39154,0,0,0,2.0948-.873,4.99531,4.99531,0,0,0,.3769-2.4492V41.6494a5.101,5.101,0,0,0-.3432-2.1816,1.89024,1.89024,0,0,0-.8843-.8135A4.82955,4.82955,0,0,0,0,38.3271v-.5986H6.6778l8.3149,17.2373,8.2368-17.2373h6.57281v.5986H28.9961a2.411,2.411,0,0,0-2.11179.87109,5.00339,5.00339,0,0,0-.37791,2.45121V56.0049a4.42888,4.42888,0,0,0,.48091,2.6172,2.5755,2.5755,0,0,0,2.00879.705h.80621v.5987H19.9146v-.5987h.82471a2.36048,2.36048,0,0,0,2.09369-.873,5.00416,5.00416,0,0,0,.3775-2.4492V41.2471L14.2832,59.9258Z" style="fill:#e81d2d"/><path d="M42.9156,59.3271v.5987H33.0264v-.5987h.8154a2.5056,2.5056,0,0,0,2.0728-.8017,4.819,4.819,0,0,0,.4082-2.5205V41.6494a7.10762,7.10762,0,0,0-.2207-2.2266,1.52366,1.52366,0,0,0-.69679-.7041,3.33456,3.33456,0,0,0-1.56351-.3916h-.8154v-.5986h9.8892v.5986h-.8282a2.46426,2.46426,0,0,0-2.0459.8018,4.67518,4.67518,0,0,0-.4228,2.5205V56.0049a7.132,7.132,0,0,0,.2197,2.2265,1.48843,1.48843,0,0,0,.709.7032,3.19906,3.19906,0,0,0,1.54.3925Z" style="fill:#e81d2d"/><path d="M65.731,53.8115l.5498.1133-1.9917,6.001H46.4356v-.5987h.8608a2.34327,2.34327,0,0,0,2.0801-.9111,5.07945,5.07945,0,0,0,.3555-2.4111V41.6494a4.457,4.457,0,0,0-.47369-2.6025,2.53385,2.53385,0,0,0-1.96191-.7198h-.8608v-.5986h10.437v.5986a6.64124,6.64124,0,0,0-2.5664.3233,2.0466,2.0466,0,0,0-1.0088.8564,6.80245,6.80245,0,0,0-.269,2.4756v14.001a4.403,4.403,0,0,0,.2714,1.873,1.2045,1.2045,0,0,0,.6299.50879,11.4211,11.4211,0,0,0,2.6568.16311h1.686a12.78407,12.78407,0,0,0,3.7285-.373,4.87511,4.87511,0,0,0,1.9595-1.33111A10.80873,10.80873,0,0,0,65.731,53.8115Z" style="fill:#e81d2d"/><path d="M82.4087,52.5488H73.4844L71.9341,56a5.39673,5.39673,0,0,0-.5801,1.9336,1.11023,1.11023,0,0,0,.503.8935,4.49618,4.49618,0,0,0,2.1728.5v.5987H66.7261v-.5987a3.99492,3.99492,0,0,0,1.8731-.6416,10.03452,10.03452,0,0,0,1.9248-3.207l8.1889-18.2158h.7979l7.8047,18.4277a8.35247,8.35247,0,0,0,1.7636,2.8907,3.67717,3.67717,0,0,0,2.2056.746v.5987H82.0806v-.5987a3.552,3.552,0,0,0,1.86471-.4384,1.11867,1.11867,0,0,0,.48689-.9121,6.52424,6.52424,0,0,0-.6817-2.2608Zm-.5058-1.1963-3.8233-8.9619L74.022,51.3525Z" style="fill:#e81d2d"/><path d="M122.8452,59.3271v.5987h-9.8886v-.5987h.8154a2.50961,2.50961,0,0,0,2.0732-.8017,4.841,4.841,0,0,0,.4073-2.5205V41.6494a7.05442,7.05442,0,0,0-.2217-2.2266,1.51093,1.51093,0,0,0-.6963-.7041,3.32766,3.32766,0,0,0-1.5625-.3916h-.8154v-.5986h9.8886v.5986h-.8281a2.46687,2.46687,0,0,0-2.0459.8018,4.685,4.685,0,0,0-.4228,2.5205V56.0049a7.10049,7.10049,0,0,0,.2197,2.2265,1.47773,1.47773,0,0,0,.71.7032,3.18955,3.18955,0,0,0,1.539.3925Z" style="fill:#e81d2d"/><path d="M143.9439,37.7285l.206,5.2051h-.6465a6.1418,6.1418,0,0,0-.5097-1.9629,3.35735,3.35735,0,0,0-1.40139-1.39651,5.06345,5.06345,0,0,0-2.30171-.45019h-3.2432V56.0049a4.55706,4.55706,0,0,0,.4648,2.6172,2.62913,2.62913,0,0,0,2.0205.705h.80961v.5987H129.4546v-.5987h.8242a2.38856,2.38856,0,0,0,2.0948-.873,4.98571,4.98571,0,0,0,.3779-2.4492V39.124h-2.7686a8.05224,8.05224,0,0,0-2.292.2285,3.13036,3.13036,0,0,0-1.5117,1.1934,4.71028,4.71028,0,0,0-.747,2.3877h-.6475l.207-5.2051Z" style="fill:#e81d2d"/><path d="M161.4868,37.2627v7.5762h-.6171a8.9883,8.9883,0,0,0-1.1016-3.4522,5.605,5.605,0,0,0-2.2647-2.039,6.582,6.582,0,0,0-3.041-.7559,4.2531,4.2531,0,0,0-2.9375,1.0351,3.08836,3.08836,0,0,0-1.1611,2.3555,2.71826,2.71826,0,0,0,.7324,1.84179,18.89433,18.89433,0,0,0,5.0293,3.25981,34.80462,34.80462,0,0,1,4.418,2.5498,6.30159,6.30159,0,0,1,1.8174,2.0928,5.331,5.331,0,0,1,.6367,2.5244,5.61685,5.61685,0,0,1-2.0342,4.32419,7.56942,7.56942,0,0,1-5.2353,1.81541,11.58025,11.58025,0,0,1-1.8887-.14741,20.43634,20.43634,0,0,1-2.1885-.59769,10.10612,10.10612,0,0,0-2.1035-.5186.90982.90982,0,0,0-.6719.2471,1.9125,1.9125,0,0,0-.36619,1.0166h-.61821V52.8154h.61821a10.3776,10.3776,0,0,0,1.19239,3.5635,5.64456,5.64456,0,0,0,2.291,1.9658,7.37,7.37,0,0,0,3.3838.7822,4.93339,4.93339,0,0,0,3.3643-1.08,3.297,3.297,0,0,0,1.2373-2.5576,3.35539,3.35539,0,0,0-.46679-1.6524,5.01487,5.01487,0,0,0-1.44441-1.5586,38.9903,38.9903,0,0,0-3.6377-2.0566,32.22094,32.22094,0,0,1-4.2197-2.5147,6.91444,6.91444,0,0,1-1.8828-2.09181,5.04761,5.04761,0,0,1-.6416-2.51749,5.35594,5.35594,0,0,1,1.90721-4.1094,6.96142,6.96142,0,0,1,4.85649-1.7256,10.18811,10.18811,0,0,1,3.9004.8584,4.15444,4.15444,0,0,0,1.3457.4043,1.04128,1.04128,0,0,0,.7226-.25,1.94555,1.94555,0,0,0,.4522-1.0127Z" style="fill:#e81d2d"/><path d="M178.4546,52.5488h-8.9258L167.9781,56a5.39216,5.39216,0,0,0-.5782,1.9336,1.11175,1.11175,0,0,0,.501.8935,4.50051,4.50051,0,0,0,2.1729.5v.5987h-7.3037v-.5987a4.01218,4.01218,0,0,0,1.875-.6416,10.055,10.055,0,0,0,1.9238-3.207l8.1885-18.2158h.7988l7.8047,18.4277a8.35246,8.35246,0,0,0,1.7627,2.8907,3.68185,3.68185,0,0,0,2.206.746v.5987h-9.2031v-.5987a3.54733,3.54733,0,0,0,1.8633-.4384,1.11434,1.11434,0,0,0,.4863-.9121,6.52548,6.52548,0,0,0-.6807-2.2608Zm-.5068-1.1963-3.8233-8.9619-4.0586,8.9619Z" style="fill:#e81d2d"/><path d="M113.7857,29.9385l-13.2866,37.082-.55279-.0019-17.789-37.7242a17.49318,17.49318,0,0,0-2.30771-3.8286,6.45976,6.45976,0,0,0-2.2138-1.583,8.72527,8.72527,0,0,0-3.1079-.668l.0009-.8242h17.169l.0024.8242a6.90459,6.90459,0,0,0-3.7744,1.2139,2.8971,2.8971,0,0,0-1.0727,2.1118,14.91438,14.91438,0,0,0,1.4838,5.2256L100.876,60.0107l12.1655-34.3916Z" style="fill:#e81d2d"/><polygon points="94.352 19.937 113.305 18.342 107.537 11.165 115.777 16.547 117.219 0 119.279 16.547 128.549 10.765 121.546 18.143 159.863 19.14 119.692 21.332 117.63 33.494 115.777 22.529 104.653 27.912 113.305 20.933 94.352 19.937" style="fill:#e81d2d"/></svg>