<svg width="73" height="72" viewBox="0 0 73 72" fill="none" xmlns="http://www.w3.org/2000/svg">
<g clip-path="url(#clip0)">
<path d="M21.5314 29.0323L10.6931 20.9032H4.11208C2.19152 20.9032 0.628204 19.3399 0.628204 17.4194V3.48387C0.628204 1.56332 2.19152 0 4.11208 0H31.983C33.9036 0 35.4669 1.56332 35.4669 3.48387V9.29032H33.1443V3.48387C33.1443 2.84312 32.6227 2.32258 31.983 2.32258H4.11208C3.47246 2.32258 2.95078 2.84312 2.95078 3.48387V17.4194C2.95078 18.0601 3.47246 18.5806 4.11208 18.5806H11.4665L19.2088 24.3871V18.5806H31.983V20.9032H21.5314V29.0323Z" fill="#44545F"/>
<path d="M5.27337 4.64502H28.4992V6.9676H5.27337V4.64502Z" fill="#44545F"/>
<path d="M5.27337 9.29053H28.4992V11.6131H5.27337V9.29053Z" fill="#44545F"/>
<path d="M18.0476 13.9355H20.3701V16.2581H18.0476V13.9355Z" fill="#44545F"/>
<path d="M25.0153 13.9355H27.3379V16.2581H25.0153V13.9355Z" fill="#44545F"/>
<path d="M11.0798 13.9355H13.4024V16.2581H11.0798V13.9355Z" fill="#44545F"/>
<path d="M35.937 45.1338L42.4347 42.9677V39.0903C39.6068 37.4539 37.5326 34.6601 36.8618 31.3548H36.6282C34.0629 31.3548 31.983 29.2749 31.983 26.7097C31.983 24.1444 34.0629 22.0645 36.6282 22.0645V20.9032H39.8297C42.9841 20.9032 46.0104 19.6501 48.2411 17.4194C50.4718 19.6501 53.497 20.9032 56.6525 20.9032H59.854V22.0645C62.4193 22.0645 64.4992 24.1444 64.4992 26.7097C64.4992 29.2749 62.4193 31.3548 59.854 31.3548H59.6204C58.9496 34.6601 56.8754 37.4539 54.0476 39.0903V42.9677L60.5452 45.1338C67.099 44.4449 70.8262 41.7067 71.0025 41.574L72.3844 40.5386L70.9039 39.6489C67.6683 37.7096 65.6605 34.1605 65.6605 30.3897V17.4194C65.6605 7.81433 57.8461 0 48.2411 0C38.6361 0 30.8218 7.81433 30.8218 17.4194V30.3897C30.8218 34.1605 28.8139 37.7096 25.5784 39.65L24.0978 40.5397L25.4797 41.574C25.6561 41.7067 29.3832 44.4449 35.937 45.1338Z" fill="#FFD200"/>
<path d="M43.5959 25.5485C43.5959 26.1898 43.076 26.7098 42.4347 26.7098C41.7933 26.7098 41.2734 26.1898 41.2734 25.5485C41.2734 24.9072 41.7933 24.3872 42.4347 24.3872C43.076 24.3872 43.5959 24.9072 43.5959 25.5485Z" fill="#44545F"/>
<path d="M55.2088 25.5485C55.2088 26.1898 54.6889 26.7098 54.0476 26.7098C53.4062 26.7098 52.8863 26.1898 52.8863 25.5485C52.8863 24.9072 53.4062 24.3872 54.0476 24.3872C54.6889 24.3872 55.2088 24.9072 55.2088 25.5485Z" fill="#44545F"/>
<path d="M67.0701 46.086L55.2088 42.1304V39.7244C57.7753 38.0466 59.6958 35.4705 60.5379 32.4465C63.4144 32.104 65.6605 29.6771 65.6605 26.7098C65.6605 23.9064 63.6617 21.5605 61.0153 21.0207V17.4195H58.6927V19.7421H56.6525C53.785 19.7421 51.0899 18.6261 49.0622 16.5984L48.2411 15.7773L47.42 16.5984C45.3923 18.6261 42.6972 19.7421 39.8297 19.7421H37.7895V17.4195H35.4669V21.0207C32.8206 21.5605 30.8218 23.9052 30.8218 26.7098C30.8218 29.6771 33.0678 32.104 35.9444 32.4465C36.7847 35.4716 38.707 38.0466 41.2734 39.7244V42.1304L29.4132 46.0849C28.1436 46.5073 27.0385 47.2229 26.1499 48.1381C26.1601 47.9635 26.1766 47.7905 26.1766 47.613C26.1766 42.4904 22.0089 38.3227 16.8863 38.3227C11.7637 38.3227 7.59595 42.4904 7.59595 47.613C7.59595 52.7356 11.7637 56.9034 16.8863 56.9034C19.6642 56.9034 22.1552 55.6712 23.8585 53.7319C23.8585 53.754 23.854 53.775 23.854 53.796V58.6629L22.4324 57.8197L21.8728 58.0868C21.5139 58.2574 21.1458 58.4117 20.7671 58.5455L20.1819 58.7519L19.468 61.5485H14.3046L13.5918 58.7519L13.0066 58.5455C12.6278 58.4128 12.2598 58.2586 11.9009 58.0868L11.3412 57.8197L8.85817 59.2934L5.20702 55.6411L6.67962 53.1592L6.41254 52.6007C6.24073 52.2395 6.08763 51.8703 5.95267 51.4916L5.74627 50.9086L2.95078 50.1959V45.0313L5.74457 44.3185L5.95154 43.7345C6.0865 43.3557 6.2396 42.9866 6.41141 42.6265L6.67848 42.068L5.20589 39.5861L8.85703 35.9338L11.3401 37.4075L11.8998 37.1404C12.2587 36.9698 12.6267 36.8155 13.0055 36.6817L13.5907 36.4753L14.3046 33.6775H19.468L20.1807 36.4742L20.7659 36.6806C21.1447 36.8133 21.5127 36.9675 21.8717 37.1393L22.4313 37.4064L24.9144 35.9326L27.3078 38.3261C27.8828 37.7965 28.3982 37.2136 28.8428 36.5774L25.2801 33.0158L22.2992 34.7833C22.2419 34.7589 22.1852 34.7356 22.1297 34.7124L21.2723 31.355H12.5002L11.6429 34.7147C11.5862 34.7379 11.5295 34.7612 11.4733 34.7855L8.49243 33.0181L2.29019 39.2192L4.05877 42.2001C4.03439 42.2574 4.01114 42.3141 3.98789 42.3696L0.628204 43.2281V51.9991L3.98789 52.8575C4.01114 52.9142 4.03439 52.971 4.05877 53.0271L2.28905 56.008L8.4913 62.2091L11.4722 60.4417C11.5295 60.466 11.5862 60.4893 11.6418 60.5125L12.5002 63.8711H21.2723L22.1297 60.5114C22.1864 60.4882 22.2431 60.4649 22.2992 60.4405L23.854 61.3637V72.0001H72.6282V53.796C72.6282 50.2923 70.3952 47.1929 67.0701 46.086ZM16.8863 54.5808C13.0435 54.5808 9.91853 51.4558 9.91853 47.613C9.91853 43.7702 13.0435 40.6453 16.8863 40.6453C20.7291 40.6453 23.854 43.7702 23.854 47.613C23.854 51.4558 20.7291 54.5808 16.8863 54.5808ZM56.7778 45.1022C57.2632 45.8512 57.5314 46.7097 57.5314 47.613C57.5314 50.1749 55.4481 52.2582 52.8863 52.2582C51.6949 52.2582 50.579 51.804 49.7228 50.9926L54.4921 44.3407L56.7778 45.1022ZM63.3379 26.7098C63.3379 28.2391 62.3405 29.528 60.9665 29.9952C60.9909 29.676 61.0153 29.3573 61.0153 29.0324V23.4397C62.3637 23.9206 63.3379 25.1981 63.3379 26.7098ZM33.1443 26.7098C33.1443 25.1981 34.1185 23.9206 35.4669 23.4397V29.0324C35.4669 29.3573 35.4913 29.676 35.5157 29.9952C34.1418 29.528 33.1443 28.2391 33.1443 26.7098ZM37.7895 29.0324V22.0646H39.8297C42.9433 22.0646 45.8896 20.9822 48.2411 18.9953C50.5915 20.9822 53.5389 22.0646 56.6525 22.0646H58.6927V29.0324C58.6927 34.7957 54.0033 39.484 48.2411 39.484C42.4789 39.484 37.7895 34.7957 37.7895 29.0324ZM48.2411 41.8066C49.881 41.8066 51.4437 41.4851 52.8863 40.9192V42.5942L48.2411 49.0714L43.5959 42.5942V40.9192C45.0385 41.4851 46.6012 41.8066 48.2411 41.8066ZM41.9901 44.3407L46.7594 50.9926C45.9032 51.804 44.7873 52.2582 43.5959 52.2582C41.0341 52.2582 38.9508 50.1749 38.9508 47.613C38.9508 46.7097 39.219 45.8512 39.7044 45.1022L41.9901 44.3407ZM70.3056 69.6775H63.3379V67.8171C64.8394 66.1472 65.6605 64.0117 65.6605 61.747V61.3478C65.6605 59.0842 64.8394 56.9476 63.3379 55.2777V52.2582H61.0153V56.2229L61.3555 56.5631C62.6342 57.8418 63.3379 59.5406 63.3379 61.3489V61.7481C63.3379 63.5564 62.6342 65.2564 61.3555 66.5339L61.0153 66.8741V69.6775H35.4669V66.8741L35.1267 66.5339C33.848 65.2552 33.1443 63.5564 33.1443 61.7481V61.3489C33.1443 59.5406 33.848 57.8407 35.1267 56.5631L35.4669 56.2229V52.2582H33.1443V55.2799C31.6428 56.9498 30.8218 59.0853 30.8218 61.35V61.7492C30.8218 64.0129 31.6428 66.1494 33.1443 67.8194V69.6775H26.1766V53.796C26.1766 51.2931 27.7722 49.0788 30.147 48.2878L36.8221 46.0628C36.707 46.568 36.6282 47.0834 36.6282 47.613C36.6282 51.4558 39.7531 54.5808 43.5959 54.5808C45.3424 54.5808 46.9721 53.9292 48.2411 52.7725C49.5101 53.9292 51.1398 54.5808 52.8863 54.5808C56.7291 54.5808 59.854 51.4558 59.854 47.613C59.854 47.0834 59.7752 46.568 59.6601 46.0628L66.3364 48.2878C68.71 49.08 70.3056 51.2931 70.3056 53.796V69.6775Z" fill="#44545F"/>
<path d="M52.8863 31.355H50.5637C50.5637 32.6359 49.522 33.6776 48.2411 33.6776C46.9602 33.6776 45.9185 32.6359 45.9185 31.355H43.5959C43.5959 33.9169 45.6792 36.0001 48.2411 36.0001C50.803 36.0001 52.8863 33.9169 52.8863 31.355Z" fill="#44545F"/>
</g>
<defs>
<clipPath id="clip0">
<rect width="72" height="72" fill="white" transform="translate(0.628204)"/>
</clipPath>
</defs>
</svg>
