<svg width="72" height="72" viewBox="0 0 72 72" fill="none" xmlns="http://www.w3.org/2000/svg">
<path d="M55.0778 72.0001H16.9222C16.6237 72.0001 16.3376 71.8806 16.127 71.6648C10.7851 66.2378 7.84332 59.016 7.84332 51.3302C7.84332 35.5005 20.4744 22.6221 36 22.6221C51.5256 22.6221 64.1567 35.5005 64.1567 51.3302C64.1567 59.016 61.2149 66.2378 55.8741 71.6648C55.6624 71.8806 55.3763 72.0001 55.0778 72.0001Z" fill="#FFD200"/>
<path d="M38.2739 47.3878C37.6038 46.9836 36.8323 46.7367 36 46.7367C33.5155 46.7367 31.4949 48.7968 31.4949 51.33C31.4949 53.8632 33.5155 55.9233 36 55.9233C38.4845 55.9233 40.5051 53.8632 40.5051 51.33C40.5051 50.4802 40.2618 49.6948 39.8665 49.0115L49.1852 39.5114L47.5927 37.8877L38.2739 47.3878ZM36 53.6266C34.7577 53.6266 33.7475 52.5966 33.7475 51.33C33.7475 50.0634 34.7577 49.0333 36 49.0333C37.2423 49.0333 38.2525 50.0634 38.2525 51.33C38.2525 52.5966 37.2423 53.6266 36 53.6266Z" fill="#44545F"/>
<path d="M47.2627 60.5166H24.7373V62.8133H47.2627V60.5166Z" fill="#44545F"/>
<path d="M42.7576 65.1099H29.2424V67.4065H42.7576V65.1099Z" fill="#44545F"/>
<path d="M30.3687 20.3254H32.6212V13.4354H29.2018L36 3.90431L42.7981 13.4354H39.3788V20.3254H41.6313V15.7321H47.2221L36 0L24.7779 15.7321H30.3687V20.3254Z" fill="#44545F"/>
<path d="M60.7779 4.59326L49.5558 20.3253H55.1465V23.7703H57.3991V18.0287H53.9797L60.7779 8.49757L67.576 18.0287H64.1567V36.4019H66.4092V20.3253H72L60.7779 4.59326Z" fill="#44545F"/>
<path d="M18.0203 18.0287H14.6009V23.7703H16.8535V20.3253H22.4443L11.2221 4.59326L0 20.3253H5.59079V36.4019H7.84333V18.0287H4.42398L11.2221 8.49757L18.0203 18.0287Z" fill="#44545F"/>
<path d="M7.84332 38.6987H5.59079V40.9954H7.84332V38.6987Z" fill="#44545F"/>
<path d="M16.8535 26.0669H14.601V28.3635H16.8535V26.0669Z" fill="#44545F"/>
<path d="M57.3991 26.0669H55.1465V28.3635H57.3991V26.0669Z" fill="#44545F"/>
<path d="M66.4092 38.6987H64.1567V40.9954H66.4092V38.6987Z" fill="#44545F"/>
<path d="M47.2627 65.1099H45.0101V67.4065H47.2627V65.1099Z" fill="#44545F"/>
<path d="M26.9899 65.1099H24.7373V67.4065H26.9899V65.1099Z" fill="#44545F"/>
<path d="M36 27.2153C22.9578 27.2153 12.3484 38.0337 12.3484 51.3302C12.3484 56.5757 13.995 61.5813 17.1114 65.8014L18.9111 64.4199C16.091 60.6006 14.6009 56.075 14.6009 51.3302C14.6009 39.2992 24.2001 29.512 36 29.512C47.7999 29.512 57.3991 39.2992 57.3991 51.3302C57.3991 56.075 55.909 60.6006 53.09 64.4188L54.8897 65.8002C58.005 61.5813 59.6516 56.5757 59.6516 51.3302C59.6516 38.0337 49.0422 27.2153 36 27.2153Z" fill="#44545F"/>
</svg>
