<svg width="73" height="72" viewBox="0 0 73 72" fill="none" xmlns="http://www.w3.org/2000/svg">
<g clip-path="url(#clip0)">
<path d="M33.938 36H38.5831V25.7911C38.5831 23.6137 40.0949 21.7288 42.2201 21.2565L49.0348 19.7419V16.4798C46.9537 15.2743 45.5509 13.0299 45.5509 10.4516V8.12903C45.5509 4.28056 48.6701 1.16129 52.5186 1.16129V0H0.260559V39.4839H33.938V36Z" fill="#FFD200"/>
<path d="M66.4541 53.4194V51.0968H69.938V41.8064H72.2606V34.8387H67.6154V25.7899C67.6154 23.0483 65.747 20.7161 63.0689 20.1218L57.1638 18.8109V17.1126C59.2669 15.6417 60.6477 13.2063 60.6477 10.4516V8.12903C60.6477 3.64661 56.9999 0 52.5186 0C48.0373 0 44.3896 3.64661 44.3896 8.12903V10.4516C44.3896 13.2063 45.7703 15.6428 47.8735 17.1126V18.8109L41.9683 20.123C39.2902 20.7172 37.4218 23.0483 37.4218 25.7899V34.8387H32.7767V41.8064H35.0993V44.2334C31.8093 44.7885 29.2928 47.6503 29.2928 51.0968V53.4194C29.2928 55.476 30.1938 57.3211 31.6154 58.5987V60.6729L26.8551 62.0326C25.9751 62.2833 25.2238 62.7947 24.6477 63.4553C24.0715 62.7947 23.3202 62.2833 22.4402 62.0326L17.6799 60.6729V58.5987C19.1015 57.3223 20.0025 55.4771 20.0025 53.4194V51.0968C20.0025 47.254 16.8776 44.129 13.0348 44.129C9.19195 44.129 6.06701 47.254 6.06701 51.0968V53.4194C6.06701 55.476 6.96803 57.3211 8.38959 58.5987V60.6729L3.62932 62.0326C1.64583 62.598 0.260559 64.4352 0.260559 66.4992V72H72.2606V66.4992C72.2606 64.4352 70.8753 62.5991 68.8918 62.0326L64.1315 60.6729V58.5987C65.5531 57.3211 66.4541 55.476 66.4541 53.4194ZM64.1315 53.4194C64.1315 55.9812 62.0482 58.0645 59.4864 58.0645C56.9245 58.0645 54.8412 55.9812 54.8412 53.4194V51.0968C54.8412 48.5349 56.9245 46.4516 59.4864 46.4516C62.0482 46.4516 64.1315 48.5349 64.1315 51.0968V53.4194ZM47.8735 63.4553C47.2974 62.7947 46.546 62.2833 45.666 62.0326L40.9057 60.6729V58.5987C42.3273 57.3223 43.2283 55.4771 43.2283 53.4194V51.0968H52.5186V53.4194C52.5186 55.476 53.4196 57.3211 54.8412 58.5987V60.6729L50.0809 62.0326C49.2009 62.2833 48.4496 62.7947 47.8735 63.4553ZM46.7122 10.4516V8.12903C46.7122 4.92755 49.3171 2.32258 52.5186 2.32258C55.7201 2.32258 58.3251 4.92755 58.3251 8.12903V10.4516C58.3251 13.6531 55.7201 16.2581 52.5186 16.2581C49.3171 16.2581 46.7122 13.6531 46.7122 10.4516ZM52.5186 18.5806C53.3255 18.5806 54.1052 18.4587 54.8412 18.2382V19.4216C54.5531 19.8661 53.7531 20.9032 52.5186 20.9032C51.2842 20.9032 50.4841 19.8661 50.196 19.4216V18.2382C50.9321 18.4587 51.7117 18.5806 52.5186 18.5806ZM39.7444 25.7899C39.7444 24.1444 40.866 22.7461 42.4724 22.3883L48.5029 21.0484C49.1669 21.9284 50.4875 23.2258 52.5186 23.2258C54.5497 23.2258 55.8704 21.9284 56.5344 21.0495L62.5648 22.3894C64.1712 22.7461 65.2928 24.1455 65.2928 25.7899V34.8387H39.7444V25.7899ZM35.0993 37.1613H69.938V39.4839H35.0993V37.1613ZM67.6154 41.8064V48.7742H66.0475C65.0887 46.0717 62.5138 44.129 59.4864 44.129C56.459 44.129 53.884 46.0717 52.9252 48.7742H42.8217C41.9882 46.4261 39.9338 44.6586 37.4218 44.2334V41.8064H67.6154ZM31.6154 51.0968C31.6154 48.5349 33.6987 46.4516 36.2606 46.4516C38.8224 46.4516 40.9057 48.5349 40.9057 51.0968V53.4194C40.9057 55.9812 38.8224 58.0645 36.2606 58.0645C33.6987 58.0645 31.6154 55.9812 31.6154 53.4194V51.0968ZM36.2606 60.3871C37.076 60.3871 37.8551 60.2385 38.5831 59.9805V61.228C38.2951 61.6726 37.495 62.7097 36.2606 62.7097C35.0261 62.7097 34.226 61.6726 33.938 61.228V59.9805C34.6661 60.2385 35.4452 60.3871 36.2606 60.3871ZM27.493 64.2656L32.2771 62.8991C32.9519 63.7768 34.2618 65.0323 36.2606 65.0323C38.2594 65.0323 39.5692 63.7768 40.2429 62.8991L45.0269 64.2656C46.0187 64.5491 46.711 65.4677 46.711 66.4992V69.6774H25.8089V66.4992C25.8089 65.4677 26.5024 64.5491 27.493 64.2656ZM8.38959 51.0968C8.38959 48.5349 10.4729 46.4516 13.0348 46.4516C15.5966 46.4516 17.6799 48.5349 17.6799 51.0968V53.4194C17.6799 55.9812 15.5966 58.0645 13.0348 58.0645C10.4729 58.0645 8.38959 55.9812 8.38959 53.4194V51.0968ZM13.0348 60.3871C13.8502 60.3871 14.6293 60.2385 15.3573 59.9805V61.228C15.0693 61.6726 14.2692 62.7097 13.0348 62.7097C11.8003 62.7097 11.0002 61.6726 10.7122 61.228V59.9805C11.4402 60.2385 12.2194 60.3871 13.0348 60.3871ZM2.58314 66.4992C2.58314 65.4677 3.27663 64.5491 4.26724 64.2656L9.05132 62.8991C9.7261 63.7768 11.0359 65.0323 13.0348 65.0323C15.0336 65.0323 16.3434 63.7768 17.017 62.8991L21.8011 64.2656C22.7929 64.5491 23.4852 65.4677 23.4852 66.4992V69.6774H2.58314V66.4992ZM68.2539 64.2656C69.2456 64.5491 69.938 65.4677 69.938 66.4992V69.6774H49.0348V66.4992C49.0348 65.4677 49.7282 64.5491 50.7188 64.2656L55.5029 62.8991C56.1777 63.7768 57.4876 65.0323 59.4864 65.0323C61.4852 65.0323 62.795 63.7768 63.4687 62.8991L68.2539 64.2656ZM61.8089 61.228C61.5209 61.6726 60.7208 62.7097 59.4864 62.7097C58.2519 62.7097 57.4518 61.6726 57.1638 61.228V59.9805C57.8919 60.2397 58.671 60.3871 59.4864 60.3871C60.3018 60.3871 61.0809 60.2385 61.8089 59.9805V61.228Z" fill="#44545F"/>
<path d="M4.90573 4.64502H7.22831V6.9676H4.90573V4.64502Z" fill="#44545F"/>
<path d="M9.55087 4.64502H18.8412V6.9676H9.55087V4.64502Z" fill="#44545F"/>
<path d="M4.90573 9.29053H7.22831V11.6131H4.90573V9.29053Z" fill="#44545F"/>
<path d="M9.55087 9.29053H18.8412V11.6131H9.55087V9.29053Z" fill="#44545F"/>
<path d="M30.4541 32.5162H28.1315V13.3096L23.475 15.3793C18.6949 17.5045 13.6188 18.5807 8.3896 18.5807H7.22831V32.5162H4.90573V34.8388H30.4541V32.5162ZM25.809 16.8842V32.5162H23.4864V17.8895C23.7977 17.7608 24.1101 17.6389 24.4192 17.5017L25.809 16.8842ZM18.8412 19.4948C19.6215 19.2799 20.3949 19.0372 21.1638 18.7735V32.5162H18.8412V19.4948ZM16.5186 32.5162H14.1961V20.4667C14.9752 20.3516 15.7486 20.2132 16.5186 20.0522V32.5162ZM9.55089 20.8869C10.3289 20.8648 11.1023 20.8115 11.8735 20.744V32.5162H9.55089V20.8869Z" fill="#44545F"/>
</g>
<defs>
<clipPath id="clip0">
<rect width="72" height="72" fill="white" transform="translate(0.260559)"/>
</clipPath>
</defs>
</svg>
