<svg width="72" height="72" viewBox="0 0 72 72" fill="none" xmlns="http://www.w3.org/2000/svg">
<rect width="72" height="72" fill="white"/>
<path d="M17.4194 45.2903H10.4516C10.1437 45.2902 9.84835 45.1678 9.63059 44.9501C9.41283 44.7323 9.29044 44.437 9.29033 44.129V37.1613C9.29044 36.8533 9.41283 36.558 9.63059 36.3403C9.84835 36.1225 10.1437 36.0001 10.4516 36H17.4194C17.7273 36.0001 18.0226 36.1225 18.2404 36.3403C18.4582 36.558 18.5805 36.8533 18.5807 37.1613V44.129C18.5805 44.437 18.4582 44.7323 18.2404 44.9501C18.0226 45.1678 17.7273 45.2902 17.4194 45.2903Z" fill="#FFD200"/>
<path d="M17.4194 56.9032H10.4516C10.1437 56.9031 9.84835 56.7807 9.63059 56.563C9.41283 56.3452 9.29044 56.0499 9.29033 55.7419V48.7742C9.29044 48.4662 9.41283 48.1709 9.63059 47.9532C9.84835 47.7354 10.1437 47.613 10.4516 47.6129H17.4194C17.7273 47.613 18.0226 47.7354 18.2404 47.9532C18.4582 48.1709 18.5805 48.4662 18.5807 48.7742V55.7419C18.5805 56.0499 18.4582 56.3452 18.2404 56.563C18.0226 56.7807 17.7273 56.9031 17.4194 56.9032Z" fill="#FFD200"/>
<path d="M49.9355 34.8387H45.2903C45.1378 34.8389 44.9867 34.8089 44.8457 34.7506C44.7048 34.6923 44.5767 34.6068 44.4689 34.4989C44.361 34.391 44.2755 34.263 44.2171 34.122C44.1588 33.981 44.1289 33.83 44.129 33.6774V29.0323C44.1289 28.8797 44.1588 28.7286 44.2171 28.5877C44.2755 28.4467 44.361 28.3187 44.4689 28.2108C44.5767 28.1029 44.7048 28.0174 44.8457 27.9591C44.9867 27.9008 45.1378 27.8708 45.2903 27.871H49.9355C50.088 27.8708 50.2391 27.9008 50.38 27.9591C50.521 28.0174 50.6491 28.1029 50.7569 28.2108C50.8648 28.3187 50.9503 28.4467 51.0086 28.5877C51.0669 28.7286 51.0969 28.8797 51.0967 29.0323V33.6774C51.0969 33.83 51.0669 33.981 51.0086 34.122C50.9503 34.263 50.8648 34.391 50.7569 34.4989C50.6491 34.6068 50.521 34.6923 50.38 34.7506C50.2391 34.8089 50.088 34.8389 49.9355 34.8387Z" fill="#FFD200"/>
<path d="M19.4017 37.9823L17.7596 36.3402L12.7742 41.3256L11.2726 39.8241L9.63058 41.4662L12.7742 44.6098L19.4017 37.9823Z" fill="#44545F"/>
<path d="M19.4017 49.5952L17.7596 47.9531L12.7742 52.9385L11.2726 51.437L9.63058 53.0791L12.7742 56.2227L19.4017 49.5952Z" fill="#44545F"/>
<path d="M32.5161 37.1613H22.0645V39.4838H32.5161V37.1613Z" fill="#44545F"/>
<path d="M32.5161 41.8065H22.0645V44.129H32.5161V41.8065Z" fill="#44545F"/>
<path d="M32.5161 48.7742H22.0645V51.0968H32.5161V48.7742Z" fill="#44545F"/>
<path d="M32.5161 53.4194H22.0645V55.742H32.5161V53.4194Z" fill="#44545F"/>
<path d="M67.3548 27.871H53.4194V30.1936H67.3548V27.871Z" fill="#44545F"/>
<path d="M62.7097 32.5161H53.4194V34.8387H62.7097V32.5161Z" fill="#44545F"/>
<path d="M41.8064 41.8064H72V0H15.0968V18.5806H15.2524C14.5561 19.2481 13.9846 20.0347 13.565 20.9032H9.29032V23.2258H5.80645C4.26702 23.2276 2.79114 23.8399 1.7026 24.9284C0.614054 26.0169 0.00174429 27.4928 0 29.0323L0 66.1936C0.00174429 67.733 0.614054 69.2089 1.7026 70.2974C2.79114 71.3859 4.26702 71.9983 5.80645 72H36C37.5394 71.9983 39.0153 71.3859 40.1039 70.2974C41.1924 69.2089 41.8047 67.733 41.8064 66.1936V62.7097H67.3548C68.5864 62.7084 69.7672 62.2186 70.6381 61.3478C71.509 60.4769 71.9988 59.2961 72 58.0645V57.3259C72 55.6346 71.4985 53.9812 70.5589 52.5748C69.6192 51.1685 68.2836 50.0724 66.721 49.4251C65.1583 48.7779 63.4389 48.6085 61.78 48.9385C60.1211 49.2685 58.5974 50.0831 57.4014 51.2791L55.8824 52.7981C55.5854 53.0949 55.2069 53.2969 54.795 53.3787C54.3831 53.4605 53.9562 53.4183 53.5683 53.2574C53.1803 53.0966 52.8488 52.8243 52.6156 52.4751C52.3824 52.1259 52.258 51.7153 52.2581 51.2954V49.9355H49.9355V51.2954C49.9405 52.0397 50.1347 52.7706 50.4999 53.4194H41.8064V41.8064ZM56.9032 55.7419V60.3871H44.129V55.7419H56.9032ZM41.8064 60.2849L36.6259 58.0645L41.8064 55.8441V60.2849ZM32.5161 32.5161V30.1935H34.8387V48.7742H37.1613V27.871H32.5161V25.5484H36C36.9236 25.5495 37.8091 25.9169 38.4622 26.57C39.1153 27.2231 39.4827 28.1086 39.4839 29.0323V54.3124L37.1613 55.3076V51.0968H34.8387V56.304L30.7289 58.0645L34.8387 59.825V65.0323H6.96774V30.1935H9.29032V32.5161H32.5161ZM69.6774 39.4839H41.8064V29.0323C41.8044 27.6944 41.3413 26.3982 40.4952 25.3619C39.6491 24.3256 38.4717 23.6127 37.1613 23.3431V2.32258H47.6129V9.29032H63.871V2.32258H69.6774V39.4839ZM56.9032 4.64516V6.96774H54.5806V4.64516H52.2581V6.96774H49.9355V2.32258H61.5484V6.96774H59.2258V4.64516H56.9032ZM17.4194 2.32258H34.8387V23.2258H32.5161V20.9032H28.2414C27.787 19.9369 27.1458 19.0702 26.3546 18.353C25.5634 17.6359 24.6381 17.0825 23.6319 16.7249C22.6257 16.3673 21.5587 16.2126 20.4924 16.2696C19.4261 16.3266 18.3817 16.5942 17.4194 17.057V2.32258ZM11.6129 23.2258H15.1606L15.4347 22.4524C15.8333 21.3204 16.5733 20.3401 17.5527 19.6466C18.5321 18.9531 19.7026 18.5806 20.9026 18.5806C22.1027 18.5806 23.2732 18.9531 24.2526 19.6466C25.232 20.3401 25.972 21.3204 26.3706 22.4524L26.6458 23.2258H30.1935V30.1935H11.6129V23.2258ZM36 69.6774H5.80645C4.88282 69.6763 3.99733 69.3089 3.34423 68.6558C2.69112 68.0027 2.32371 67.1172 2.32258 66.1936V29.0323C2.32371 28.1086 2.69112 27.2231 3.34423 26.57C3.99733 25.9169 4.88282 25.5495 5.80645 25.5484H9.29032V27.871H4.64516V67.3548H37.1613V60.8214L39.4839 61.8166V66.1936C39.4827 67.1172 39.1153 68.0027 38.4622 68.6558C37.8091 69.3089 36.9236 69.6763 36 69.6774ZM67.3548 60.3871H59.2258V55.7419H67.3548C67.9708 55.7419 68.5616 55.9866 68.9972 56.4222C69.4327 56.8578 69.6774 57.4485 69.6774 58.0645C69.6774 58.6805 69.4327 59.2713 68.9972 59.7068C68.5616 60.1424 67.9708 60.3871 67.3548 60.3871ZM59.0435 52.9212C59.667 52.2943 60.4176 51.8084 61.2448 51.496C62.0719 51.1836 62.9563 51.052 63.8385 51.1101C64.7208 51.1682 65.5803 51.4146 66.3593 51.8328C67.1383 52.251 67.8187 52.8312 68.3547 53.5343C68.0266 53.4594 67.6913 53.4208 67.3548 53.4194H58.5453L59.0435 52.9212Z" fill="#44545F"/>
<path d="M67.3548 32.5161H65.0323V34.8387H67.3548V32.5161Z" fill="#44545F"/>
</svg>
