<svg width="72" height="72" viewBox="0 0 72 72" fill="none" xmlns="http://www.w3.org/2000/svg">
<path d="M59 36H14V12H59V36Z" fill="#FFD200"/>
<path d="M69.6774 60.3871V19.7419C69.6774 16.5404 67.0725 13.9355 63.871 13.9355H60.3871V0H11.6129V13.9355H8.12903C4.92755 13.9355 2.32258 16.5404 2.32258 19.7419V60.3871H0V66.1936C0 69.395 2.60496 72 5.80645 72H66.1936C69.395 72 72 69.395 72 66.1936V60.3871H69.6774ZM63.871 16.2581C65.7915 16.2581 67.3548 17.8214 67.3548 19.7419V60.3871H65.0323V20.9032C65.0323 19.6223 63.9906 18.5806 62.7097 18.5806H60.3871V16.2581H63.871ZM25.5484 62.7097H46.4516V63.871C46.4516 64.5106 45.9311 65.0323 45.2903 65.0323H26.7097C26.0689 65.0323 25.5484 64.5106 25.5484 63.871V62.7097ZM9.29032 60.3871V20.9032H11.6129V53.4194H60.3871V20.9032H62.7097V60.3871H9.29032ZM13.9355 11.6129H58.0645V51.0968H13.9355V11.6129ZM58.0645 2.32258V9.29032H13.9355V2.32258H58.0645ZM4.64516 19.7419C4.64516 17.8214 6.20848 16.2581 8.12903 16.2581H11.6129V18.5806H9.29032C8.00939 18.5806 6.96774 19.6223 6.96774 20.9032V60.3871H4.64516V19.7419ZM69.6774 66.1936C69.6774 68.1141 68.1141 69.6774 66.1936 69.6774H5.80645C3.8859 69.6774 2.32258 68.1141 2.32258 66.1936V62.7097H23.2258V63.871C23.2258 65.7915 24.7891 67.3548 26.7097 67.3548H45.2903C47.2109 67.3548 48.7742 65.7915 48.7742 63.871V62.7097H69.6774V66.1936Z" fill="#44545F"/>
<path d="M6.96777 65.0323H9.29035V67.3548H6.96777V65.0323Z" fill="#44545F"/>
<path d="M11.6133 65.0323H13.9359V67.3548H11.6133V65.0323Z" fill="#44545F"/>
<path d="M16.2578 65.0323H18.5803V67.3548H16.2578V65.0323Z" fill="#44545F"/>
<path d="M43.2002 4.5H45.5228V6.82258H43.2002V4.5Z" fill="#44545F"/>
<path d="M47.8447 4.5H50.1672V6.82258H47.8447V4.5Z" fill="#44545F"/>
<path d="M52.4902 4.5H54.8128V6.82258H52.4902V4.5Z" fill="#44545F"/>
<path d="M27.9004 38.7H44.1585V41.0226H27.9004V38.7Z" fill="#44545F"/>
<path d="M27.9004 43.2H44.1585V45.5226H27.9004V43.2Z" fill="#44545F"/>
</svg>
