<svg width="72" height="72" viewBox="0 0 72 72" fill="none" xmlns="http://www.w3.org/2000/svg">
<g clip-path="url(#clip0)">
<rect width="72" height="72" fill="white"/>
<path d="M6.96967 23.2261H11.6148V25.5487H6.96967V23.2261Z" fill="#44545F"/>
<path d="M50 33.9999C50 23.4999 40 21.4999 34.4999 28.9999C28.2886 27.038 25.4735 27.6547 22.4999 33.9999C14.5 36.4999 13.9999 45.4999 22.4999 47.4999H50C59 44.4999 57 35.4999 50 33.9999Z" fill="#FFD200"/>
<path d="M68.5161 18.5806C70.4367 18.5806 72 17.0173 72 15.0968V3.48387C72 1.56332 70.4367 0 68.5161 0H52.2581C50.3375 0 48.7742 1.56332 48.7742 3.48387V15.0968C48.7742 17.0173 50.3375 18.5806 52.2581 18.5806H55.7419V20.9032H53.4194V23.2258H59.2258V34.8387H54.4332C53.5067 33.9343 52.3658 33.2419 51.0888 32.8609C51.0945 32.7435 51.0968 32.6301 51.0968 32.5161C51.0968 27.3935 46.9291 23.2258 41.8064 23.2258C38.6282 23.2258 35.674 24.8793 33.9819 27.5239C32.79 26.9887 31.5011 26.7097 30.1935 26.7097C26.3394 26.7097 22.8691 29.1389 21.5117 32.7021C20.6293 32.8915 19.8071 33.2306 19.0604 33.6774H10.4516V30.1935H15.0968C17.0173 30.1935 18.5806 28.6302 18.5806 26.7097V3.48387C18.5806 1.56332 17.0173 0 15.0968 0H3.48387C1.56332 0 0 1.56332 0 3.48387V26.7097C0 28.6302 1.56332 30.1935 3.48387 30.1935H8.12903V36H16.5903C16.0965 36.7048 15.7131 37.4828 15.4614 38.3226H10.4516V51.0968H5.80645C3.8859 51.0968 2.32258 52.6601 2.32258 54.5806V65.0323H0V68.5161C0 70.4367 1.56332 72 3.48387 72H22.0645C23.9851 72 25.5484 70.4367 25.5484 68.5161V65.0323H23.2258V54.5806C23.2258 52.6601 21.6625 51.0968 19.7419 51.0968H12.7742V40.6452H15.0968C15.0968 45.1264 18.7445 48.7742 23.2258 48.7742H48.7742C52.8608 48.7742 56.2438 45.7388 56.8102 41.8064H61.5484V51.0968H53.4194V72H72V51.0968H63.871V39.4839H56.8057C56.6849 38.6662 56.4343 37.8882 56.0833 37.1613H61.5484V23.2258H67.3548V20.9032H65.0323V18.5806H68.5161ZM16.2581 18.5806H2.32258V6.96774H16.2581V18.5806ZM3.48387 2.32258H15.0968C15.7375 2.32258 16.2581 2.84312 16.2581 3.48387V4.64516H2.32258V3.48387C2.32258 2.84312 2.84312 2.32258 3.48387 2.32258ZM2.32258 26.7097V20.9032H16.2581V26.7097C16.2581 27.3504 15.7375 27.871 15.0968 27.871H3.48387C2.84312 27.871 2.32258 27.3504 2.32258 26.7097ZM23.2258 68.5161C23.2258 69.1569 22.7053 69.6774 22.0645 69.6774H3.48387C2.84312 69.6774 2.32258 69.1569 2.32258 68.5161V67.3548H23.2258V68.5161ZM20.9032 54.5806V65.0323H4.64516V54.5806C4.64516 53.9399 5.1657 53.4194 5.80645 53.4194H19.7419C20.3827 53.4194 20.9032 53.9399 20.9032 54.5806ZM55.7419 69.6774V62.7097H69.6774V69.6774H55.7419ZM69.6774 60.3871H55.7419V53.4194H69.6774V60.3871ZM48.7742 46.4516H23.2258C20.0243 46.4516 17.4194 43.8466 17.4194 40.6452C17.4194 37.7096 19.6166 35.2334 22.5289 34.8852L23.291 34.7933L23.5059 34.0562C24.365 31.098 27.1162 29.0323 30.1935 29.0323C31.4756 29.0323 32.7344 29.3923 33.8379 30.0716L34.9464 30.7555L35.4993 29.5743C36.6425 27.1276 39.1181 25.5484 41.8064 25.5484C45.6493 25.5484 48.7742 28.6733 48.7742 32.5161C48.7742 32.8365 48.7453 33.1779 48.6823 33.5901L48.5071 34.7389L49.6554 34.913C52.4633 35.3417 54.5806 37.806 54.5806 40.6452C54.5806 43.8466 51.9757 46.4516 48.7742 46.4516ZM52.2581 2.32258H68.5161C69.1569 2.32258 69.6774 2.84312 69.6774 3.48387V11.6129H51.0968V3.48387C51.0968 2.84312 51.6173 2.32258 52.2581 2.32258ZM51.0968 15.0968V13.9355H69.6774V15.0968C69.6774 15.7375 69.1569 16.2581 68.5161 16.2581H52.2581C51.6173 16.2581 51.0968 15.7375 51.0968 15.0968ZM62.7097 20.9032H58.0645V18.5806H62.7097V20.9032Z" fill="#44545F"/>
<path d="M58.0649 55.7424H60.3875V58.065H58.0649V55.7424Z" fill="#44545F"/>
<path d="M65.0303 65.0325H67.3529V67.3551H65.0303V65.0325Z" fill="#44545F"/>
<path d="M62.71 55.7424H67.3551V58.065H62.71V55.7424Z" fill="#44545F"/>
<path d="M58.0649 65.0325H62.7101V67.3551H58.0649V65.0325Z" fill="#44545F"/>
<path d="M33 28.1L33 17L30.5001 17L30.5001 28.1L33 28.1Z" fill="#465861"/>
<path d="M31.5 17C27.916 17 25 14.084 25 10.5C25 6.91603 27.916 4 31.5 4C35.084 4 38 6.91603 38 10.5C38 14.084 35.084 17 31.5 17Z" fill="#FFD205" stroke="#44545F" stroke-width="2"/>
<path d="M31.5 11.75C32.1904 11.75 32.75 11.1904 32.75 10.5C32.75 9.80964 32.1904 9.25 31.5 9.25C30.8096 9.25 30.25 9.80964 30.25 10.5C30.25 11.1904 30.8096 11.75 31.5 11.75Z" fill="#465861"/>
<path d="M39.0001 58.1011L41.5001 58.1011L41.5001 47.0011L39 47.0011L39.0001 58.1011Z" fill="#465861"/>
<path d="M40.5 71C36.916 71 34 68.084 34 64.5C34 60.916 36.916 58 40.5 58C44.084 58 47 60.916 47 64.5C47 68.084 44.084 71 40.5 71Z" fill="#FFD205" stroke="#44545F" stroke-width="2"/>
<path d="M40.5 65.75C41.1904 65.75 41.75 65.1904 41.75 64.5C41.75 63.8096 41.1904 63.25 40.5 63.25C39.8096 63.25 39.25 63.8096 39.25 64.5C39.25 65.1904 39.8096 65.75 40.5 65.75Z" fill="#465861"/>
</g>
<defs>
<clipPath id="clip0">
<rect width="72" height="72" fill="white"/>
</clipPath>
</defs>
</svg>
