<svg width="72" height="72" viewBox="0 0 72 72" fill="none" xmlns="http://www.w3.org/2000/svg">
<path d="M0 0H72V72H0V0Z" fill="#FFD205"/>
<g clip-path="url(#clip0)">
<path d="M19.9312 52.5171V54.9481H31.7932H33.276V52.5171H19.9312Z" fill="#F7F7F7"/>
<path d="M29.5692 29.8276C26.2936 29.8276 23.6382 32.7301 23.6382 36.3104C23.6382 39.8907 26.2936 42.7931 29.5692 42.7931C32.8448 42.7931 35.5003 39.8907 35.5003 36.3104C35.4965 32.7317 32.8433 29.8317 29.5692 29.8276ZM31.7934 33.8794H29.5692C29.1598 33.8794 28.8278 34.2422 28.8278 34.6897C28.8278 35.1372 29.1598 35.5 29.5692 35.5C30.7947 35.4975 31.79 36.5814 31.7923 37.9207C31.7941 38.9513 31.1999 39.8706 30.3106 40.213V41.1725H28.8278V40.3621H27.3451V38.7414H29.5692C29.9786 38.7414 30.3106 38.3786 30.3106 37.9311C30.3106 37.4836 29.9786 37.1207 29.5692 37.1207C28.3437 37.1233 27.3484 36.0394 27.3461 34.6999C27.3443 33.6694 27.9386 32.7501 28.8278 32.4078V31.4483H30.3106V32.2587H31.7934V33.8794Z" fill="#F7F7F7"/>
<path d="M19.9312 44.4136V46.8446H31.7932H33.276V44.4136H19.9312Z" fill="#F7F7F7"/>
<path d="M39.9482 52.5171V58.1895C39.9482 58.637 40.2802 58.9999 40.6896 58.9999H47.362V52.5171H39.9482ZM45.7518 57.0024L44.7035 58.1482L43.6551 57.0024L42.6068 58.1482L41.5585 57.0024L42.6068 55.8565L41.5585 54.7107L42.6068 53.5649L43.6551 54.7107L44.7035 53.5649L45.7518 54.7107L44.7035 55.8565L45.7518 57.0024Z" fill="#F7F7F7"/>
<path d="M31.0519 56.5688H17.707V58.9999H31.0519V56.5688Z" fill="#F7F7F7"/>
<path d="M17.707 48.4653V50.8964H19.1898H31.0519V48.4653H17.707Z" fill="#F7F7F7"/>
<path d="M15.7896 20.1035H20.6723V14.7666L15.7896 20.1035Z" fill="#F7F7F7"/>
<path d="M39.9482 44.4136V50.8963H47.362V44.4136H39.9482ZM45.8793 48.4653H44.3965V50.086H42.9138V48.4653H41.431V46.8446H42.9138V45.2239H44.3965V46.8446H45.8793V48.4653Z" fill="#F7F7F7"/>
<path d="M48.8447 52.5171V58.9999H55.5171C55.9266 58.9999 56.2585 58.637 56.2585 58.1895V52.5171H48.8447ZM51.8102 53.7326H53.293V54.543H51.8102V53.7326ZM53.293 57.7843H51.8102V56.974H53.293V57.7843ZM54.7758 56.5688H50.3275V54.9481H54.7758V56.5688Z" fill="#F7F7F7"/>
<path d="M55.5172 34.6899H40.6896C40.2802 34.6899 39.9482 35.0528 39.9482 35.5003V42.7934H56.2586V35.5003C56.2586 35.0528 55.9266 34.6899 55.5172 34.6899ZM54.7758 40.3624C54.7758 40.8099 54.4439 41.1727 54.0344 41.1727H42.1724C41.763 41.1727 41.431 40.8099 41.431 40.3624V37.121C41.431 36.6735 41.763 36.3106 42.1724 36.3106H54.0344C54.4439 36.3106 54.7758 36.6735 54.7758 37.121V40.3624Z" fill="#F7F7F7"/>
<path d="M53.2934 37.9312H42.9141V39.5518H53.2934V37.9312Z" fill="#F7F7F7"/>
<path d="M48.8447 44.4136V50.8963H56.2585V44.4136H48.8447ZM54.7758 48.4653H50.3275V46.8446H54.7758V48.4653Z" fill="#F7F7F7"/>
<path d="M19.9312 44.4136V46.8446H31.7932H33.276V44.4136H19.9312Z" fill="#F7F7F7"/>
<path d="M15.7896 20.1035H20.6723V14.7666L15.7896 20.1035Z" fill="#F7F7F7"/>
<path d="M17.707 48.4653V50.8964H19.1898H31.0519V48.4653H17.707Z" fill="#F7F7F7"/>
<path d="M31.0519 56.5688H17.707V58.9999H31.0519V56.5688Z" fill="#F7F7F7"/>
<path d="M19.9312 52.5171V54.9481H31.7932H33.276V52.5171H19.9312Z" fill="#F7F7F7"/>
<path d="M29.5692 29.8276C26.2936 29.8276 23.6382 32.7301 23.6382 36.3104C23.6382 39.8907 26.2936 42.7931 29.5692 42.7931C32.8448 42.7931 35.5003 39.8907 35.5003 36.3104C35.4965 32.7317 32.8433 29.8317 29.5692 29.8276ZM31.7934 33.8794H29.5692C29.1598 33.8794 28.8278 34.2422 28.8278 34.6897C28.8278 35.1372 29.1598 35.5 29.5692 35.5C30.7947 35.4975 31.79 36.5814 31.7923 37.9207C31.7941 38.9513 31.1999 39.8706 30.3106 40.213V41.1725H28.8278V40.3621H27.3451V38.7414H29.5692C29.9786 38.7414 30.3106 38.3786 30.3106 37.9311C30.3106 37.4836 29.9786 37.1207 29.5692 37.1207C28.3437 37.1233 27.3484 36.0394 27.3461 34.6999C27.3443 33.6694 27.9386 32.7501 28.8278 32.4078V31.4483H30.3106V32.2587H31.7934V33.8794Z" fill="#F7F7F7"/>
<path d="M22.155 13.6206V20.1034C22.155 20.9985 21.4912 21.7241 20.6722 21.7241H14.7412V58.9999H16.224V55.7585C16.224 55.311 16.5559 54.9482 16.9653 54.9482H18.4481V52.5172H16.9653C16.5559 52.5172 16.224 52.1543 16.224 51.7068V47.6551C16.224 47.2076 16.5559 46.8447 16.9653 46.8447H18.4481V43.6034C18.4481 43.1558 18.7801 42.793 19.1895 42.793H25.1398C21.8562 40.1194 21.1773 35.0426 23.6234 31.4535C26.0695 27.8644 30.7142 27.1224 33.9978 29.796C37.2814 32.4696 37.9603 37.5464 35.5143 41.1356C35.0849 41.7655 34.5741 42.3238 33.9978 42.793H34.0171C34.4265 42.793 34.7585 43.1558 34.7585 43.6034V47.6551C34.7585 48.1026 34.4265 48.4654 34.0171 48.4654H32.5343V50.8965H34.0171C34.4265 50.8965 34.7585 51.2593 34.7585 51.7068V55.7585C34.7585 56.206 34.4265 56.5689 34.0171 56.5689H32.5343V58.9999H38.4654V35.4999C38.4654 34.1573 39.4611 33.0689 40.6895 33.0689H44.3964V13.6206H22.155ZM24.3791 18.4827H36.9826V20.1034H24.3791V18.4827ZM25.1205 28.2068H16.224V26.5861H25.1205V28.2068ZM41.4309 28.2068H34.7585V26.5861H41.4309V28.2068ZM41.4309 24.9654H16.224V23.3447H41.4309V24.9654Z" fill="#F7F7F7"/>
<path d="M22.155 13.6206V20.1034C22.155 20.9985 21.4912 21.7241 20.6722 21.7241H14.7412V58.9999H16.224V55.7585C16.224 55.311 16.5559 54.9482 16.9653 54.9482H18.4481V52.5172H16.9653C16.5559 52.5172 16.224 52.1543 16.224 51.7068V47.6551C16.224 47.2076 16.5559 46.8447 16.9653 46.8447H18.4481V43.6034C18.4481 43.1558 18.7801 42.793 19.1895 42.793H25.1398C21.8562 40.1194 21.1773 35.0426 23.6234 31.4535C26.0695 27.8644 30.7142 27.1224 33.9978 29.796C37.2814 32.4696 37.9603 37.5464 35.5143 41.1356C35.0849 41.7655 34.5741 42.3238 33.9978 42.793H34.0171C34.4265 42.793 34.7585 43.1558 34.7585 43.6034V47.6551C34.7585 48.1026 34.4265 48.4654 34.0171 48.4654H32.5343V50.8965H34.0171C34.4265 50.8965 34.7585 51.2593 34.7585 51.7068V55.7585C34.7585 56.206 34.4265 56.5689 34.0171 56.5689H32.5343V58.9999H38.4654V35.4999C38.4654 34.1573 39.4611 33.0689 40.6895 33.0689H44.3964V13.6206H22.155ZM24.3791 18.4827H36.9826V20.1034H24.3791V18.4827ZM25.1205 28.2068H16.224V26.5861H25.1205V28.2068ZM41.4309 28.2068H34.7585V26.5861H41.4309V28.2068ZM41.4309 24.9654H16.224V23.3447H41.4309V24.9654Z" fill="#F7F7F7"/>
<path d="M54.7759 16.0517H53.2932C53.2932 15.6042 52.9612 15.2414 52.5518 15.2414H51.8104V12.8103C51.8104 12.3628 51.4785 12 51.0691 12H48.1035C47.6941 12 47.3622 12.3628 47.3622 12.8103V15.2414H46.6208C46.2113 15.2414 45.8794 15.6042 45.8794 16.0517V31.4483H53.2932V17.6724H54.7759V28.2069H56.2587V17.6724C56.2587 16.7773 55.5949 16.0517 54.7759 16.0517Z" fill="#F7F7F7"/>
</g>
<defs>
<clipPath id="clip0">
<rect width="43" height="47" fill="white" transform="translate(14 12)"/>
</clipPath>
</defs>
</svg>
