<svg width="72" height="72" viewBox="0 0 72 72" fill="none" xmlns="http://www.w3.org/2000/svg">
<path d="M0 0H72V72H0V0Z" fill="#FFD205"/>
<path d="M35.2886 34.3257C35.0742 34.3619 34.8546 34.3819 34.6301 34.3819H33.5411C33.3426 34.9209 32.9974 35.4099 32.5195 35.7811V52.6724C32.5195 53.4383 33.1395 54.0594 33.9041 54.0594H40.9825L40.9827 51.2855H35.2886V34.3257Z" fill="#F7F7F7"/>
<path d="M59.6153 11H33.9041C33.1395 11 32.5195 11.621 32.5195 12.3869V21.7674H34.6301C34.8546 21.7674 35.0742 21.7872 35.2886 21.8236V13.7738H58.2308V51.285H54.4846L54.4925 54.0588H59.6153C60.3799 54.0588 60.9999 53.4378 60.9999 52.6719V12.3869C60.9999 11.6209 60.3801 11 59.6153 11Z" fill="#F7F7F7"/>
<path d="M49.9462 24.1792H45.5272C44.1575 24.1792 43.0491 25.2914 43.0491 26.6616V28.2344L44.3202 28.0851L47.7677 26.2744L44.1331 29.8923L38.5751 30.5454C37.6042 30.6595 36.9095 31.5404 37.0235 32.5129C37.1379 33.4894 38.0212 34.1812 38.9875 34.0672L45.153 33.3427C45.5466 33.2964 45.9133 33.1194 46.1944 32.8394L50.2631 28.7896L47.442 34.0969C46.9489 35.0246 46.1059 35.0157 45.3594 35.1034L43.0492 35.3749L43.0107 55.127C43.0105 56.3021 43.9615 57.2547 45.1344 57.2549C45.1346 57.2549 45.1346 57.2549 45.1346 57.2549C46.3075 57.2549 47.2585 56.3024 47.2586 55.1275L47.2598 39.3976H48.176C48.176 39.3996 48.1757 39.4017 48.1757 39.4037L48.2202 55.1333C48.2235 56.3063 49.1738 57.2549 50.3441 57.2549C50.3462 57.2549 50.3482 57.2549 50.3502 57.2549C51.5233 57.2514 52.4716 56.2962 52.4683 55.1212L52.4243 26.6616C52.4243 25.2905 51.3149 24.1792 49.9462 24.1792Z" fill="#F7F7F7"/>
<path d="M47.7167 22.9303C48.57 22.9303 49.3544 22.6377 49.9776 22.1484C50.8341 21.4756 51.3852 20.4305 51.3852 19.2556C51.3852 17.2261 49.7429 15.5811 47.7167 15.5811C45.6908 15.5811 44.0483 17.2261 44.0483 19.2556C44.0483 20.4308 44.5999 21.4766 45.4571 22.1492C46.08 22.638 46.864 22.9303 47.7167 22.9303Z" fill="#F7F7F7"/>
<path d="M31.9973 32.3492H34.6302C34.8445 32.3492 35.0499 32.3124 35.2423 32.2475C35.2583 31.1773 35.7563 30.2001 36.5485 29.5538V25.72C36.5485 24.6585 35.6896 23.7983 34.6302 23.7983H29.9308C28.8711 23.7983 28.0124 24.6587 28.0124 25.72V30.4275C28.0124 31.2088 28.4787 31.8798 29.1469 32.1804L27.2751 33.3491C27.2545 33.3303 27.2347 33.3105 27.2144 33.2912L27.1997 30.3759C27.1941 29.2579 26.7285 28.246 25.9842 27.5194C25.2597 26.8119 24.2715 26.3745 23.1849 26.3745C22.2274 26.3745 15.0156 26.3745 14.0772 26.3745C11.8746 26.3745 10.0735 28.1696 10.0624 30.3759L10 42.8608C9.99525 43.7994 10.7511 44.5639 11.688 44.5687C11.6909 44.5687 11.6938 44.5687 11.6967 44.5687C12.6154 44.5687 13.3882 43.8228 13.393 42.8778C13.4061 40.2545 13.4445 32.5964 13.4556 30.3928C13.4564 30.2119 13.6035 30.0658 13.7841 30.0663C13.9647 30.0668 14.1107 30.2136 14.1107 30.3945C14.1108 34.7866 14.1115 58.9605 14.1115 58.9605C14.1115 60.0868 15.023 60.9999 16.1474 60.9999C17.2586 60.9999 18.1831 60.0915 18.1831 58.9605V42.6602H19.0621V58.9605C19.0621 60.0857 19.9731 60.9999 21.098 60.9999C22.2223 60.9999 23.1337 60.0868 23.1337 58.9605C23.1337 58.9605 23.0979 43.5925 23.0969 30.3914C23.0969 30.195 23.2559 30.0357 23.452 30.0357C23.6481 30.0357 23.8071 30.195 23.8071 30.3914C23.8071 30.3919 23.8071 30.3923 23.8071 30.3926C23.826 34.1623 23.8165 32.2863 23.8374 36.4474C23.8441 37.7848 25.3139 38.5785 26.4314 37.8811L31.4814 34.7277C32.2672 34.237 32.5238 33.1902 32.0236 32.3864C32.0152 32.3736 32.0059 32.362 31.9973 32.3492Z" fill="#F7F7F7"/>
<path d="M18.6453 25.2521C20.4324 25.2521 21.907 23.9163 22.1309 22.1873C23.706 22.1873 23.9183 22.1873 25.5336 22.1873C26.1764 22.1873 26.6974 21.6652 26.6974 21.0213C26.6974 20.3774 26.1764 19.8553 25.5336 19.8553C24.1711 19.8553 22.9799 19.8553 21.6215 19.8553C20.9983 18.8646 19.898 18.208 18.6455 18.208C16.7036 18.208 15.1294 19.7849 15.1294 21.7302C15.1294 23.6751 16.7036 25.2521 18.6453 25.2521Z" fill="#F7F7F7"/>
</svg>
