<svg width="225" height="185" viewBox="0 0 225 185" fill="none" xmlns="http://www.w3.org/2000/svg">
<path d="M219.096 153.484V50.1774C219.096 42.0403 212.475 35.4194 204.337 35.4194H174.884V0H50.9087V35.4194H20.6625C12.5249 35.4194 5.90357 42.0403 5.90357 50.1774V153.484H0V168.242C0 176.379 6.62133 183 14.7589 183H210.241C218.379 183 225 176.379 225 168.242V153.484H219.096ZM204.337 41.3226C209.219 41.3226 213.193 45.296 213.193 50.1774V153.484H207.289V53.129C207.289 49.8733 204.642 47.2258 201.386 47.2258H174.884V41.3226H204.337ZM86.3301 159.387H139.462V162.339C139.462 163.964 138.139 165.29 136.51 165.29H89.2818C87.6532 165.29 86.3301 163.964 86.3301 162.339V159.387ZM23.6143 153.484V53.129H50.9087V129.871H174L174.884 53.129H201.386V153.484H23.6143ZM56.8122 29.5161H168.98V129.871H56.8122V29.5161ZM168.98 5.90323V23.6129H56.8122V5.90323H168.98ZM11.8071 50.1774C11.8071 45.296 15.7808 41.3226 20.6625 41.3226H50.9087V47.2258H23.6143C20.3584 47.2258 17.7107 49.8733 17.7107 53.129V153.484H11.8071V50.1774ZM219.096 168.242C219.096 173.123 215.123 177.097 210.241 177.097H14.7589C9.87723 177.097 5.90357 173.123 5.90357 168.242V159.387H80.4265V162.339C80.4265 167.22 84.4002 171.194 89.2818 171.194H136.51C141.392 171.194 145.366 167.22 145.366 162.339V159.387H219.096V168.242Z" fill="white"/>
<path d="M20.0859 165.289H25.9895V171.192H20.0859V165.289Z" fill="white"/>
<path d="M31.8945 165.289H37.7981V171.192H31.8945V165.289Z" fill="white"/>
<path d="M43.7031 165.289H49.6067V171.192H43.7031V165.289Z" fill="white"/>
<path d="M128.027 11.4375H133.931V17.3407H128.027V11.4375Z" fill="white"/>
<path d="M139.836 11.4375H145.74V17.3407H139.836V11.4375Z" fill="white"/>
<path d="M151.641 11.4375H157.545V17.3407H151.641V11.4375Z" fill="white"/>
<path d="M93 85H134.325V90.9032H93V85Z" fill="white"/>
<path d="M93 93H134.325V98.904H93V93Z" fill="#EEEEEE"/>
<path d="M112.724 65.9286C111.628 65.9286 110.556 65.5578 109.644 64.8631C108.733 64.1683 108.022 63.1807 107.603 62.0255C107.184 60.8702 107.074 59.5991 107.288 58.3726C107.502 57.1464 108.03 56.02 108.806 55.1362C109.581 54.2521 110.569 53.6504 111.644 53.4069C112.72 53.1634 113.834 53.289 114.847 53.7678C115.86 54.2466 116.725 55.0575 117.334 56.0974C117.943 57.1374 118.267 58.3597 118.267 59.6102H123.007C123.007 57.2909 122.404 55.0234 121.274 53.095C120.144 51.1665 118.538 49.6632 116.659 48.7755C114.78 47.888 112.713 47.6556 110.718 48.1081C108.723 48.5606 106.891 49.6777 105.453 51.318C104.015 52.9577 103.036 55.0474 102.639 57.3224C102.242 59.5973 102.446 61.9553 103.224 64.0981C104.002 66.2412 105.32 68.0727 107.011 69.3613C108.702 70.6497 110.69 71.3378 112.724 71.3378H154.99V65.9286H112.724Z" fill="white"/>
<path d="M154.988 80.0484V74.2904H112.721C110.176 74.2904 107.688 73.43 105.572 71.8171C103.456 70.2044 101.807 67.9124 100.833 65.2304C99.8588 62.5489 99.6041 59.5975 100.1 56.7506C100.597 53.9037 101.823 51.2885 103.622 49.236C105.422 47.1834 107.715 45.7856 110.211 45.2194C112.707 44.6533 115.295 44.9438 117.646 46.0547C119.997 47.1656 122.007 49.0466 123.421 51.4601C124.835 53.8738 125.59 56.7114 125.59 59.614H130.638C130.638 55.5724 129.587 51.6216 127.619 48.2613C125.65 44.9007 122.852 42.2817 119.578 40.735C116.304 39.1884 112.701 38.7839 109.226 39.5723C105.75 40.3607 102.558 42.3067 100.052 45.1647C97.5468 48.0227 95.8404 51.6636 95.1489 55.6276C94.4577 59.5913 94.8125 63.7 96.1688 67.4339C97.5246 71.1677 99.8213 74.3593 102.767 76.6048C105.714 78.8503 109.178 80.0484 112.721 80.0484H154.988Z" fill="white"/>
<path d="M78.7144 80.0611V52.6139H73.6797V47.0117H83.2578V80.0611H78.7144Z" fill="white"/>
<path d="M78.707 44.7691H85.3364V80.0576H90.0026V38.8867H78.707V44.7691Z" fill="white"/>
<g clip-path="url(#clip0)">
<path d="M98.5344 136.551C95.3357 136.551 92.7344 138.973 92.7344 141.951C92.7344 144.929 95.3357 147.351 98.5344 147.351C101.733 147.351 104.334 144.929 104.334 141.951C104.334 138.973 101.733 136.551 98.5344 136.551ZM98.5344 145.551C96.4019 145.551 94.6677 143.936 94.6677 141.951C94.6677 139.965 96.402 138.351 98.5344 138.351C100.667 138.351 102.401 139.965 102.401 141.951C102.401 143.936 100.667 145.551 98.5344 145.551Z" fill="white"/>
<path d="M131.402 136.551C128.203 136.551 125.602 138.973 125.602 141.951C125.602 144.929 128.203 147.351 131.402 147.351C134.6 147.351 137.202 144.929 137.202 141.951C137.202 138.973 134.6 136.551 131.402 136.551ZM131.402 145.551C129.269 145.551 127.535 143.936 127.535 141.951C127.535 139.965 129.269 138.351 131.402 138.351C133.534 138.351 135.268 139.965 135.268 141.951C135.268 143.936 133.534 145.551 131.402 145.551Z" fill="white"/>
<path d="M142.847 131.564L134.147 118.964C133.969 118.706 133.663 118.551 133.334 118.551H122.701C122.166 118.551 121.734 118.954 121.734 119.451V141.951C121.734 142.448 122.166 142.851 122.701 142.851H126.568V141.051H123.668V120.351H132.806L141.068 132.315V141.051H136.234V142.851H142.034C142.569 142.851 143.001 142.449 143.001 141.951V132.051C143.001 131.879 142.948 131.709 142.847 131.564Z" fill="white"/>
<path d="M127.531 130.252V123.952H135.264V122.152H126.564C126.03 122.152 125.598 122.556 125.598 123.052V131.152C125.598 131.65 126.03 132.052 126.564 132.052H141.064V130.252H127.531V130.252Z" fill="white"/>
<path d="M122.7 112.25H85.9666C85.4331 112.25 85 112.653 85 113.15V141.95C85 142.448 85.4331 142.85 85.9666 142.85H93.7V141.05H86.9334V114.05H121.733V141.05H103.367V142.85H122.7C123.235 142.85 123.667 142.448 123.667 141.95V113.15C123.667 112.653 123.235 112.25 122.7 112.25Z" fill="white"/>
<path d="M91.7688 137.449H85.9688V139.249H91.7688V137.449Z" fill="white"/>
<path d="M121.734 137.449H105.301V139.249H121.734V137.449Z" fill="white"/>
<path d="M142.035 137.449H138.168V139.249H142.035V137.449Z" fill="white"/>
<path d="M122.701 115.848H88.8672V117.648H122.701V115.848Z" fill="white"/>
<path d="M99.4998 141.051H97.5664V142.851H99.4998V141.051Z" fill="white"/>
<path d="M132.367 141.051H130.434V142.851H132.367V141.051Z" fill="white"/>
<path d="M102.401 108.652H88.8672V110.452H102.401V108.652Z" fill="white"/>
<path d="M86.9334 108.652H85V110.452H86.9334V108.652Z" fill="white"/>
</g>
<defs>
<clipPath id="clip0">
<rect width="58" height="54" fill="white" transform="translate(85 101)"/>
</clipPath>
</defs>
</svg>
